%TF.GenerationSoftware,KiCad,Pcbnew,6.0.10+dfsg-1~bpo11+1*%
%TF.CreationDate,2023-02-09T21:23:24+00:00*%
%TF.ProjectId,ACOMP01,41434f4d-5030-4312-9e6b-696361645f70,rev?*%
%TF.SameCoordinates,Original*%
%TF.FileFunction,Copper,L2,Bot*%
%TF.FilePolarity,Positive*%
%FSLAX46Y46*%
G04 Gerber Fmt 4.6, Leading zero omitted, Abs format (unit mm)*
G04 Created by KiCad (PCBNEW 6.0.10+dfsg-1~bpo11+1) date 2023-02-09 21:23:24*
%MOMM*%
%LPD*%
G01*
G04 APERTURE LIST*
G04 Aperture macros list*
%AMRoundRect*
0 Rectangle with rounded corners*
0 $1 Rounding radius*
0 $2 $3 $4 $5 $6 $7 $8 $9 X,Y pos of 4 corners*
0 Add a 4 corners polygon primitive as box body*
4,1,4,$2,$3,$4,$5,$6,$7,$8,$9,$2,$3,0*
0 Add four circle primitives for the rounded corners*
1,1,$1+$1,$2,$3*
1,1,$1+$1,$4,$5*
1,1,$1+$1,$6,$7*
1,1,$1+$1,$8,$9*
0 Add four rect primitives between the rounded corners*
20,1,$1+$1,$2,$3,$4,$5,0*
20,1,$1+$1,$4,$5,$6,$7,0*
20,1,$1+$1,$6,$7,$8,$9,0*
20,1,$1+$1,$8,$9,$2,$3,0*%
G04 Aperture macros list end*
%TA.AperFunction,ComponentPad*%
%ADD10R,1.524000X1.524000*%
%TD*%
%TA.AperFunction,ComponentPad*%
%ADD11C,6.000000*%
%TD*%
%TA.AperFunction,ComponentPad*%
%ADD12C,2.500000*%
%TD*%
%TA.AperFunction,ComponentPad*%
%ADD13C,2.700000*%
%TD*%
%TA.AperFunction,SMDPad,CuDef*%
%ADD14RoundRect,0.250000X0.250000X0.475000X-0.250000X0.475000X-0.250000X-0.475000X0.250000X-0.475000X0*%
%TD*%
%TA.AperFunction,SMDPad,CuDef*%
%ADD15R,2.500000X1.800000*%
%TD*%
G04 APERTURE END LIST*
D10*
%TO.P,J6,1*%
%TO.N,GND*%
X-43434000Y11176000D03*
%TO.P,J6,2*%
X-40894000Y11176000D03*
%TO.P,J6,3*%
%TO.N,/OUT+_TLV*%
X-43434000Y8636000D03*
%TO.P,J6,4*%
X-40894000Y8636000D03*
%TO.P,J6,5*%
%TO.N,/OUT-_TLV*%
X-43434000Y6096000D03*
%TO.P,J6,6*%
X-40894000Y6096000D03*
%TO.P,J6,7*%
%TO.N,GND*%
X-43434000Y3556000D03*
%TO.P,J6,8*%
X-40894000Y3556000D03*
%TD*%
D11*
%TO.P,M2,1*%
%TO.N,GND*%
X0Y30480000D03*
%TD*%
%TO.P,M4,1*%
%TO.N,GND*%
X30480000Y0D03*
%TD*%
D10*
%TO.P,J7,1*%
%TO.N,GND*%
X-44222000Y24404000D03*
%TO.P,J7,2*%
X-41682000Y24404000D03*
%TO.P,J7,3*%
%TO.N,/OUT+_LMH*%
X-44222000Y21864000D03*
%TO.P,J7,4*%
X-41682000Y21864000D03*
%TO.P,J7,5*%
%TO.N,/OUT-_LMH*%
X-44222000Y19324000D03*
%TO.P,J7,6*%
X-41682000Y19324000D03*
%TO.P,J7,7*%
%TO.N,GND*%
X-44222000Y16784000D03*
%TO.P,J7,8*%
X-41682000Y16784000D03*
%TD*%
D12*
%TO.P,J2,1,In*%
%TO.N,/IN+_TLV*%
X-10160000Y30480000D03*
D13*
%TO.P,J2,2,Ext*%
%TO.N,GND*%
X-12700000Y27940000D03*
X-7620000Y27940000D03*
X-7620000Y33020000D03*
X-12700000Y33020000D03*
%TD*%
D10*
%TO.P,J1,1*%
%TO.N,GND*%
X31750000Y12700000D03*
%TO.P,J1,2*%
X29210000Y12700000D03*
%TO.P,J1,3*%
%TO.N,+3V3*%
X31750000Y15240000D03*
%TO.P,J1,4*%
X29210000Y15240000D03*
%TO.P,J1,5*%
%TO.N,GND*%
X31750000Y17780000D03*
%TO.P,J1,6*%
X29210000Y17780000D03*
%TD*%
D12*
%TO.P,J4,1,In*%
%TO.N,/IN+_LMH*%
X-10160000Y10160000D03*
D13*
%TO.P,J4,2,Ext*%
%TO.N,GND*%
X-12700000Y12700000D03*
X-7620000Y12700000D03*
X-7620000Y7620000D03*
X-12700000Y7620000D03*
%TD*%
D11*
%TO.P,M3,1*%
%TO.N,GND*%
X0Y0D03*
%TD*%
%TO.P,M1,1*%
%TO.N,GND*%
X30480000Y30480000D03*
%TD*%
D12*
%TO.P,J5,1,In*%
%TO.N,/IN-_LMH*%
X-10160000Y0D03*
D13*
%TO.P,J5,2,Ext*%
%TO.N,GND*%
X-7620000Y2540000D03*
X-7620000Y-2540000D03*
X-12700000Y2540000D03*
X-12700000Y-2540000D03*
%TD*%
D12*
%TO.P,J3,1,In*%
%TO.N,/IN-_TLV*%
X-10160000Y20320000D03*
D13*
%TO.P,J3,2,Ext*%
%TO.N,GND*%
X-12700000Y17780000D03*
X-12700000Y22860000D03*
X-7620000Y22860000D03*
X-7620000Y17780000D03*
%TD*%
D14*
%TO.P,C1,1*%
%TO.N,+3V3*%
X11110000Y10160000D03*
%TO.P,C1,2*%
%TO.N,GND*%
X9210000Y10160000D03*
%TD*%
D15*
%TO.P,D1,1,K*%
%TO.N,+3V3*%
X22320000Y16367860D03*
%TO.P,D1,2,A*%
%TO.N,GND*%
X18320000Y16367860D03*
%TD*%
D14*
%TO.P,C2,1*%
%TO.N,+3V3*%
X11110000Y25850000D03*
%TO.P,C2,2*%
%TO.N,GND*%
X9210000Y25850000D03*
%TD*%
M02*
