M48
; DRILL file {KiCad 6.0.11+dfsg-1~bpo11+1} date Thu Apr 13 09:02:05 2023
; FORMAT={-:-/ absolute / metric / decimal}
; #@! TF.CreationDate,2023-04-13T09:02:05+00:00
; #@! TF.GenerationSoftware,Kicad,Pcbnew,6.0.11+dfsg-1~bpo11+1
; #@! TF.FileFunction,Plated,1,2,PTH
FMAT,2
METRIC
; #@! TA.AperFunction,Plated,PTH,ViaDrill
T1C0.400
; #@! TA.AperFunction,Plated,PTH,ComponentDrill
T2C0.889
; #@! TA.AperFunction,Plated,PTH,ComponentDrill
T3C1.500
; #@! TA.AperFunction,Plated,PTH,ComponentDrill
T4C1.700
; #@! TA.AperFunction,Plated,PTH,ComponentDrill
T5C3.000
%
G90
G05
T1
X5.334Y20.828
X5.334Y19.812
X5.334Y10.922
X6.35Y10.922
X6.858Y23.876
X7.366Y10.922
X7.747Y23.876
X9.144Y4.953
X10.033Y4.953
X10.922Y22.352
X11.938Y22.352
X12.446Y10.668
X12.446Y9.652
X13.97Y20.32
X14.986Y11.938
T2
X10.16Y17.78
X10.16Y15.24
X10.16Y12.7
X12.7Y17.78
X12.7Y15.24
X12.7Y12.7
X19.05Y24.13
X19.05Y21.59
X19.05Y19.05
X19.05Y16.51
X19.05Y13.97
X19.05Y11.43
X19.05Y8.89
X19.05Y6.35
X21.59Y24.13
X21.59Y21.59
X21.59Y19.05
X21.59Y16.51
X21.59Y13.97
X21.59Y11.43
X21.59Y8.89
X21.59Y6.35
T3
X0.0Y20.32
X0.0Y10.16
X10.16Y30.48
X10.16Y0.0
T4
X-2.54Y22.86
X-2.54Y17.78
X-2.54Y12.7
X-2.54Y7.62
X2.54Y22.86
X2.54Y17.78
X2.54Y12.7
X2.54Y7.62
X7.62Y33.02
X7.62Y27.94
X7.62Y2.54
X7.62Y-2.54
X12.7Y33.02
X12.7Y27.94
X12.7Y2.54
X12.7Y-2.54
T5
X0.0Y30.48
X0.0Y0.0
X20.32Y30.48
X20.32Y0.0
T0
M30
