%TF.GenerationSoftware,KiCad,Pcbnew,6.0.11+dfsg-1~bpo11+1*%
%TF.CreationDate,2023-04-12T17:49:11+00:00*%
%TF.ProjectId,ACOMP01,41434f4d-5030-4312-9e6b-696361645f70,rev?*%
%TF.SameCoordinates,Original*%
%TF.FileFunction,Copper,L1,Top*%
%TF.FilePolarity,Positive*%
%FSLAX46Y46*%
G04 Gerber Fmt 4.6, Leading zero omitted, Abs format (unit mm)*
G04 Created by KiCad (PCBNEW 6.0.11+dfsg-1~bpo11+1) date 2023-04-12 17:49:11*
%MOMM*%
%LPD*%
G01*
G04 APERTURE LIST*
%TA.AperFunction,ComponentPad*%
%ADD10R,1.524000X1.524000*%
%TD*%
%TA.AperFunction,ComponentPad*%
%ADD11C,6.000000*%
%TD*%
%TA.AperFunction,ComponentPad*%
%ADD12C,2.500000*%
%TD*%
%TA.AperFunction,ComponentPad*%
%ADD13C,2.700000*%
%TD*%
G04 APERTURE END LIST*
D10*
%TO.P,J6,1*%
%TO.N,GND*%
X21590000Y6350000D03*
%TO.P,J6,2*%
X19050000Y6350000D03*
%TO.P,J6,3*%
%TO.N,/TLV_OUT+*%
X21590000Y8890000D03*
%TO.P,J6,4*%
X19050000Y8890000D03*
%TO.P,J6,5*%
%TO.N,/TLV_OUT-*%
X21590000Y11430000D03*
%TO.P,J6,6*%
X19050000Y11430000D03*
%TO.P,J6,7*%
%TO.N,GND*%
X21590000Y13970000D03*
%TO.P,J6,8*%
X19050000Y13970000D03*
%TD*%
D11*
%TO.P,M2,1*%
%TO.N,GND*%
X0Y30480000D03*
%TD*%
%TO.P,M4,1*%
%TO.N,GND*%
X20320000Y0D03*
%TD*%
D10*
%TO.P,J7,1*%
%TO.N,GND*%
X21590000Y16510000D03*
%TO.P,J7,2*%
X19050000Y16510000D03*
%TO.P,J7,3*%
%TO.N,/LMH_OUT+*%
X21590000Y19050000D03*
%TO.P,J7,4*%
X19050000Y19050000D03*
%TO.P,J7,5*%
%TO.N,/LMH_OUT-*%
X21590000Y21590000D03*
%TO.P,J7,6*%
X19050000Y21590000D03*
%TO.P,J7,7*%
%TO.N,GND*%
X21590000Y24130000D03*
%TO.P,J7,8*%
X19050000Y24130000D03*
%TD*%
D12*
%TO.P,J2,1,In*%
%TO.N,/IN+_TLV*%
X10160000Y0D03*
D13*
%TO.P,J2,2,Ext*%
%TO.N,GND*%
X7620000Y-2540000D03*
X12700000Y-2540000D03*
X12700000Y2540000D03*
X7620000Y2540000D03*
%TD*%
D10*
%TO.P,J1,1*%
%TO.N,GND*%
X10160000Y17780000D03*
%TO.P,J1,2*%
X12700000Y17780000D03*
%TO.P,J1,3*%
%TO.N,+3V3*%
X10160000Y15240000D03*
%TO.P,J1,4*%
X12700000Y15240000D03*
%TO.P,J1,5*%
%TO.N,GND*%
X10160000Y12700000D03*
%TO.P,J1,6*%
X12700000Y12700000D03*
%TD*%
D12*
%TO.P,J4,1,In*%
%TO.N,/IN+_LMH*%
X0Y20320000D03*
D13*
%TO.P,J4,2,Ext*%
%TO.N,GND*%
X-2540000Y22860000D03*
X2540000Y22860000D03*
X2540000Y17780000D03*
X-2540000Y17780000D03*
%TD*%
D11*
%TO.P,M3,1*%
%TO.N,GND*%
X0Y0D03*
%TD*%
%TO.P,M1,1*%
%TO.N,GND*%
X20320000Y30480000D03*
%TD*%
D12*
%TO.P,J5,1,In*%
%TO.N,/IN-_LMH*%
X10160000Y30480000D03*
D13*
%TO.P,J5,2,Ext*%
%TO.N,GND*%
X12700000Y33020000D03*
X12700000Y27940000D03*
X7620000Y33020000D03*
X7620000Y27940000D03*
%TD*%
D12*
%TO.P,J3,1,In*%
%TO.N,/IN-_TLV*%
X0Y10160000D03*
D13*
%TO.P,J3,2,Ext*%
%TO.N,GND*%
X-2540000Y7620000D03*
X-2540000Y12700000D03*
X2540000Y12700000D03*
X2540000Y7620000D03*
%TD*%
M02*
