%TF.GenerationSoftware,KiCad,Pcbnew,6.0.11+dfsg-1~bpo11+1*%
%TF.CreationDate,2023-04-12T17:49:11+00:00*%
%TF.ProjectId,ACOMP01,41434f4d-5030-4312-9e6b-696361645f70,rev?*%
%TF.SameCoordinates,Original*%
%TF.FileFunction,Copper,L2,Bot*%
%TF.FilePolarity,Positive*%
%FSLAX46Y46*%
G04 Gerber Fmt 4.6, Leading zero omitted, Abs format (unit mm)*
G04 Created by KiCad (PCBNEW 6.0.11+dfsg-1~bpo11+1) date 2023-04-12 17:49:11*
%MOMM*%
%LPD*%
G01*
G04 APERTURE LIST*
G04 Aperture macros list*
%AMRoundRect*
0 Rectangle with rounded corners*
0 $1 Rounding radius*
0 $2 $3 $4 $5 $6 $7 $8 $9 X,Y pos of 4 corners*
0 Add a 4 corners polygon primitive as box body*
4,1,4,$2,$3,$4,$5,$6,$7,$8,$9,$2,$3,0*
0 Add four circle primitives for the rounded corners*
1,1,$1+$1,$2,$3*
1,1,$1+$1,$4,$5*
1,1,$1+$1,$6,$7*
1,1,$1+$1,$8,$9*
0 Add four rect primitives between the rounded corners*
20,1,$1+$1,$2,$3,$4,$5,0*
20,1,$1+$1,$4,$5,$6,$7,0*
20,1,$1+$1,$6,$7,$8,$9,0*
20,1,$1+$1,$8,$9,$2,$3,0*%
G04 Aperture macros list end*
%TA.AperFunction,ComponentPad*%
%ADD10R,1.524000X1.524000*%
%TD*%
%TA.AperFunction,ComponentPad*%
%ADD11C,6.000000*%
%TD*%
%TA.AperFunction,ComponentPad*%
%ADD12C,2.500000*%
%TD*%
%TA.AperFunction,ComponentPad*%
%ADD13C,2.700000*%
%TD*%
%TA.AperFunction,SMDPad,CuDef*%
%ADD14RoundRect,0.250000X-0.475000X0.250000X-0.475000X-0.250000X0.475000X-0.250000X0.475000X0.250000X0*%
%TD*%
%TA.AperFunction,SMDPad,CuDef*%
%ADD15R,1.800000X2.500000*%
%TD*%
%TA.AperFunction,SMDPad,CuDef*%
%ADD16RoundRect,0.250000X0.250000X0.475000X-0.250000X0.475000X-0.250000X-0.475000X0.250000X-0.475000X0*%
%TD*%
%TA.AperFunction,SMDPad,CuDef*%
%ADD17RoundRect,0.250000X-0.250000X-0.475000X0.250000X-0.475000X0.250000X0.475000X-0.250000X0.475000X0*%
%TD*%
%TA.AperFunction,SMDPad,CuDef*%
%ADD18RoundRect,0.250000X0.450000X-0.262500X0.450000X0.262500X-0.450000X0.262500X-0.450000X-0.262500X0*%
%TD*%
%TA.AperFunction,SMDPad,CuDef*%
%ADD19R,0.500000X1.000760*%
%TD*%
%TA.AperFunction,SMDPad,CuDef*%
%ADD20R,0.501040X1.000760*%
%TD*%
%TA.AperFunction,SMDPad,CuDef*%
%ADD21R,0.300000X1.000000*%
%TD*%
%TA.AperFunction,Conductor*%
%ADD22C,0.250000*%
%TD*%
%TA.AperFunction,Conductor*%
%ADD23C,0.200000*%
%TD*%
G04 APERTURE END LIST*
D10*
%TO.P,J6,1*%
%TO.N,GND*%
X21590000Y6350000D03*
%TO.P,J6,2*%
X19050000Y6350000D03*
%TO.P,J6,3*%
%TO.N,/TLV_OUT+*%
X21590000Y8890000D03*
%TO.P,J6,4*%
X19050000Y8890000D03*
%TO.P,J6,5*%
%TO.N,/TLV_OUT-*%
X21590000Y11430000D03*
%TO.P,J6,6*%
X19050000Y11430000D03*
%TO.P,J6,7*%
%TO.N,GND*%
X21590000Y13970000D03*
%TO.P,J6,8*%
X19050000Y13970000D03*
%TD*%
D11*
%TO.P,M2,1*%
%TO.N,GND*%
X0Y30480000D03*
%TD*%
%TO.P,M4,1*%
%TO.N,GND*%
X20320000Y0D03*
%TD*%
D10*
%TO.P,J7,1*%
%TO.N,GND*%
X21590000Y16510000D03*
%TO.P,J7,2*%
X19050000Y16510000D03*
%TO.P,J7,3*%
%TO.N,/LMH_OUT+*%
X21590000Y19050000D03*
%TO.P,J7,4*%
X19050000Y19050000D03*
%TO.P,J7,5*%
%TO.N,/LMH_OUT-*%
X21590000Y21590000D03*
%TO.P,J7,6*%
X19050000Y21590000D03*
%TO.P,J7,7*%
%TO.N,GND*%
X21590000Y24130000D03*
%TO.P,J7,8*%
X19050000Y24130000D03*
%TD*%
D12*
%TO.P,J2,1,In*%
%TO.N,/IN+_TLV*%
X10160000Y0D03*
D13*
%TO.P,J2,2,Ext*%
%TO.N,GND*%
X7620000Y-2540000D03*
X12700000Y-2540000D03*
X12700000Y2540000D03*
X7620000Y2540000D03*
%TD*%
D10*
%TO.P,J1,1*%
%TO.N,GND*%
X10160000Y17780000D03*
%TO.P,J1,2*%
X12700000Y17780000D03*
%TO.P,J1,3*%
%TO.N,+3V3*%
X10160000Y15240000D03*
%TO.P,J1,4*%
X12700000Y15240000D03*
%TO.P,J1,5*%
%TO.N,GND*%
X10160000Y12700000D03*
%TO.P,J1,6*%
X12700000Y12700000D03*
%TD*%
D12*
%TO.P,J4,1,In*%
%TO.N,/IN+_LMH*%
X0Y20320000D03*
D13*
%TO.P,J4,2,Ext*%
%TO.N,GND*%
X-2540000Y22860000D03*
X2540000Y22860000D03*
X2540000Y17780000D03*
X-2540000Y17780000D03*
%TD*%
D11*
%TO.P,M3,1*%
%TO.N,GND*%
X0Y0D03*
%TD*%
%TO.P,M1,1*%
%TO.N,GND*%
X20320000Y30480000D03*
%TD*%
D12*
%TO.P,J5,1,In*%
%TO.N,/IN-_LMH*%
X10160000Y30480000D03*
D13*
%TO.P,J5,2,Ext*%
%TO.N,GND*%
X12700000Y33020000D03*
X12700000Y27940000D03*
X7620000Y33020000D03*
X7620000Y27940000D03*
%TD*%
D12*
%TO.P,J3,1,In*%
%TO.N,/IN-_TLV*%
X0Y10160000D03*
D13*
%TO.P,J3,2,Ext*%
%TO.N,GND*%
X-2540000Y7620000D03*
X-2540000Y12700000D03*
X2540000Y12700000D03*
X2540000Y7620000D03*
%TD*%
D14*
%TO.P,C1,1*%
%TO.N,+3V3*%
X15494000Y15174000D03*
%TO.P,C1,2*%
%TO.N,GND*%
X15494000Y13274000D03*
%TD*%
D15*
%TO.P,D1,1,K*%
%TO.N,+3V3*%
X6604000Y17240000D03*
%TO.P,D1,2,A*%
%TO.N,GND*%
X6604000Y13240000D03*
%TD*%
D16*
%TO.P,C4,1*%
%TO.N,+3V3*%
X8824000Y20574000D03*
%TO.P,C4,2*%
%TO.N,GND*%
X6924000Y20574000D03*
%TD*%
D17*
%TO.P,C3,1*%
%TO.N,+3V3*%
X8956000Y10160000D03*
%TO.P,C3,2*%
%TO.N,GND*%
X10856000Y10160000D03*
%TD*%
D18*
%TO.P,R2,1*%
%TO.N,/LMH_OUT+*%
X16535400Y19407500D03*
%TO.P,R2,2*%
%TO.N,/LMH_OUT-*%
X16535400Y21232500D03*
%TD*%
D17*
%TO.P,C2,1*%
%TO.N,+3V3*%
X10480000Y20574000D03*
%TO.P,C2,2*%
%TO.N,GND*%
X12380000Y20574000D03*
%TD*%
D19*
%TO.P,IC2,1,IN-*%
%TO.N,/IN-_LMH*%
X6794500Y25146000D03*
%TO.P,IC2,2,GND*%
%TO.N,GND*%
X7747000Y25146000D03*
%TO.P,IC2,3,OUT_~{Q}*%
%TO.N,/LMH_OUT-*%
X8699500Y25146000D03*
D20*
%TO.P,IC2,4,OUT_Q*%
%TO.N,/LMH_OUT+*%
X8699500Y22606000D03*
D19*
%TO.P,IC2,5,VCC*%
%TO.N,+3V3*%
X7747000Y22606000D03*
%TO.P,IC2,6,IN+*%
%TO.N,/IN+_LMH*%
X6794500Y22606000D03*
%TD*%
D21*
%TO.P,IC1,1,OUT+*%
%TO.N,/TLV_OUT+*%
X8930400Y6237400D03*
%TO.P,IC1,2,VEE*%
%TO.N,GND*%
X8280400Y6237400D03*
%TO.P,IC1,3,IN+*%
%TO.N,/IN+_TLV*%
X7630400Y6237400D03*
%TO.P,IC1,4,IN-*%
%TO.N,/IN-_TLV*%
X7630400Y8037400D03*
%TO.P,IC1,5,VCCI/VCCO*%
%TO.N,+3V3*%
X8280400Y8037400D03*
%TO.P,IC1,6,OUT-*%
%TO.N,/TLV_OUT-*%
X8930400Y8037400D03*
%TD*%
D18*
%TO.P,R1,1*%
%TO.N,/TLV_OUT+*%
X16535400Y9247500D03*
%TO.P,R1,2*%
%TO.N,/TLV_OUT-*%
X16535400Y11072500D03*
%TD*%
D22*
%TO.N,/IN+_TLV*%
X9398000Y4241800D02*
X10160000Y3479800D01*
X8026400Y4241800D02*
X9398000Y4241800D01*
X7630400Y4637800D02*
X8026400Y4241800D01*
X10160000Y3479800D02*
X10160000Y0D01*
X7630400Y6237400D02*
X7630400Y4637800D01*
%TO.N,/IN-_TLV*%
X4320000Y10160000D02*
X6442600Y8037400D01*
X4320000Y10160000D02*
X0Y10160000D01*
X7630400Y8037400D02*
X6442600Y8037400D01*
%TO.N,/IN+_LMH*%
X5334000Y22606000D02*
X6794500Y22606000D01*
X3048000Y20320000D02*
X5334000Y22606000D01*
X0Y20320000D02*
X3048000Y20320000D01*
%TO.N,/IN-_LMH*%
X6794500Y25844500D02*
X7112000Y26162000D01*
X6794500Y25146000D02*
X6794500Y25844500D01*
X8842000Y26162000D02*
X10160000Y27480000D01*
X10160000Y27480000D02*
X10160000Y30480000D01*
X7112000Y26162000D02*
X8842000Y26162000D01*
D23*
%TO.N,/TLV_OUT+*%
X19050000Y8890000D02*
X16892900Y8890000D01*
X16892900Y8890000D02*
X16535400Y9247500D01*
X21590000Y8890000D02*
X19050000Y8890000D01*
%TO.N,/TLV_OUT-*%
X19050000Y11430000D02*
X16892900Y11430000D01*
X21590000Y11430000D02*
X19050000Y11430000D01*
X16892900Y11430000D02*
X16535400Y11072500D01*
D22*
%TO.N,/LMH_OUT-*%
X14642003Y22760342D02*
X14593907Y22808438D01*
X13841569Y22808438D02*
X12524007Y24126000D01*
X14217738Y22808439D02*
X14217738Y22808438D01*
X14642002Y22384173D02*
X14642003Y22384173D01*
X14642003Y22760343D02*
X14642003Y22760342D01*
X13841568Y22808438D02*
X13841569Y22808438D01*
X16892900Y21590000D02*
X16535400Y21232500D01*
X12524007Y24126000D02*
X10470071Y24126000D01*
X19050000Y21590000D02*
X21590000Y21590000D01*
X15417507Y21232500D02*
X14642003Y22008004D01*
X10470071Y24126000D02*
X9450071Y25146000D01*
X19050000Y21590000D02*
X16892900Y21590000D01*
X16535400Y21232500D02*
X15417507Y21232500D01*
X9450071Y25146000D02*
X8699500Y25146000D01*
X14217716Y22808461D02*
G75*
G02*
X14593907Y22808438I188084J-188061D01*
G01*
X13841568Y22808438D02*
G75*
G03*
X14217738Y22808438I188085J188086D01*
G01*
X14642044Y22760384D02*
G75*
G02*
X14642002Y22384174I-188144J-188084D01*
G01*
X14641991Y22384184D02*
G75*
G03*
X14642003Y22008004I188109J-188084D01*
G01*
%TO.N,/LMH_OUT+*%
X12316900Y23626000D02*
X10470071Y23626000D01*
X16535400Y19407500D02*
X12316900Y23626000D01*
X9450071Y22606000D02*
X8699500Y22606000D01*
X19050000Y19050000D02*
X16892900Y19050000D01*
X19050000Y19050000D02*
X21590000Y19050000D01*
X10470071Y23626000D02*
X9450071Y22606000D01*
X16892900Y19050000D02*
X16535400Y19407500D01*
%TD*%
M02*
