%TF.GenerationSoftware,KiCad,Pcbnew,6.0.10+dfsg-1~bpo11+1*%
%TF.CreationDate,2023-02-16T00:47:08+00:00*%
%TF.ProjectId,ACOMP01,41434f4d-5030-4312-9e6b-696361645f70,rev?*%
%TF.SameCoordinates,Original*%
%TF.FileFunction,Soldermask,Bot*%
%TF.FilePolarity,Negative*%
%FSLAX46Y46*%
G04 Gerber Fmt 4.6, Leading zero omitted, Abs format (unit mm)*
G04 Created by KiCad (PCBNEW 6.0.10+dfsg-1~bpo11+1) date 2023-02-16 00:47:08*
%MOMM*%
%LPD*%
G01*
G04 APERTURE LIST*
G04 Aperture macros list*
%AMRoundRect*
0 Rectangle with rounded corners*
0 $1 Rounding radius*
0 $2 $3 $4 $5 $6 $7 $8 $9 X,Y pos of 4 corners*
0 Add a 4 corners polygon primitive as box body*
4,1,4,$2,$3,$4,$5,$6,$7,$8,$9,$2,$3,0*
0 Add four circle primitives for the rounded corners*
1,1,$1+$1,$2,$3*
1,1,$1+$1,$4,$5*
1,1,$1+$1,$6,$7*
1,1,$1+$1,$8,$9*
0 Add four rect primitives between the rounded corners*
20,1,$1+$1,$2,$3,$4,$5,0*
20,1,$1+$1,$4,$5,$6,$7,0*
20,1,$1+$1,$6,$7,$8,$9,0*
20,1,$1+$1,$8,$9,$2,$3,0*%
G04 Aperture macros list end*
%ADD10R,1.524000X1.524000*%
%ADD11C,6.000000*%
%ADD12C,2.500000*%
%ADD13C,2.700000*%
%ADD14RoundRect,0.250000X0.250000X0.475000X-0.250000X0.475000X-0.250000X-0.475000X0.250000X-0.475000X0*%
%ADD15R,2.500000X1.800000*%
G04 APERTURE END LIST*
D10*
%TO.C,J6*%
X-43434000Y11176000D03*
X-40894000Y11176000D03*
X-43434000Y8636000D03*
X-40894000Y8636000D03*
X-43434000Y6096000D03*
X-40894000Y6096000D03*
X-43434000Y3556000D03*
X-40894000Y3556000D03*
%TD*%
D11*
%TO.C,M2*%
X0Y30480000D03*
%TD*%
%TO.C,M4*%
X30480000Y0D03*
%TD*%
D10*
%TO.C,J7*%
X-44222000Y24404000D03*
X-41682000Y24404000D03*
X-44222000Y21864000D03*
X-41682000Y21864000D03*
X-44222000Y19324000D03*
X-41682000Y19324000D03*
X-44222000Y16784000D03*
X-41682000Y16784000D03*
%TD*%
D12*
%TO.C,J2*%
X-10160000Y30480000D03*
D13*
X-12700000Y27940000D03*
X-7620000Y27940000D03*
X-7620000Y33020000D03*
X-12700000Y33020000D03*
%TD*%
D10*
%TO.C,J1*%
X31750000Y12700000D03*
X29210000Y12700000D03*
X31750000Y15240000D03*
X29210000Y15240000D03*
X31750000Y17780000D03*
X29210000Y17780000D03*
%TD*%
D12*
%TO.C,J4*%
X-10160000Y10160000D03*
D13*
X-12700000Y12700000D03*
X-7620000Y12700000D03*
X-7620000Y7620000D03*
X-12700000Y7620000D03*
%TD*%
D11*
%TO.C,M3*%
X0Y0D03*
%TD*%
%TO.C,M1*%
X30480000Y30480000D03*
%TD*%
D12*
%TO.C,J5*%
X-10160000Y0D03*
D13*
X-7620000Y2540000D03*
X-7620000Y-2540000D03*
X-12700000Y2540000D03*
X-12700000Y-2540000D03*
%TD*%
D12*
%TO.C,J3*%
X-10160000Y20320000D03*
D13*
X-12700000Y17780000D03*
X-12700000Y22860000D03*
X-7620000Y22860000D03*
X-7620000Y17780000D03*
%TD*%
D14*
%TO.C,C1*%
X11110000Y10160000D03*
X9210000Y10160000D03*
%TD*%
D15*
%TO.C,D1*%
X22320000Y16367860D03*
X18320000Y16367860D03*
%TD*%
D14*
%TO.C,C2*%
X11110000Y25850000D03*
X9210000Y25850000D03*
%TD*%
M02*
