%TF.GenerationSoftware,KiCad,Pcbnew,6.0.10+dfsg-1~bpo11+1*%
%TF.CreationDate,2023-02-13T14:09:38+00:00*%
%TF.ProjectId,ACOMP01,41434f4d-5030-4312-9e6b-696361645f70,rev?*%
%TF.SameCoordinates,Original*%
%TF.FileFunction,Legend,Top*%
%TF.FilePolarity,Positive*%
%FSLAX46Y46*%
G04 Gerber Fmt 4.6, Leading zero omitted, Abs format (unit mm)*
G04 Created by KiCad (PCBNEW 6.0.10+dfsg-1~bpo11+1) date 2023-02-13 14:09:38*
%MOMM*%
%LPD*%
G01*
G04 APERTURE LIST*
%ADD10C,0.050000*%
%ADD11C,0.150000*%
%ADD12C,0.076200*%
%ADD13C,0.120000*%
%ADD14R,1.524000X1.524000*%
G04 APERTURE END LIST*
D10*
%TO.C,J6*%
X-44942143Y10949810D02*
X-45227858Y10949810D01*
X-45085000Y10949810D02*
X-45085000Y11449810D01*
X-45132620Y11378381D01*
X-45180239Y11330762D01*
X-45227858Y11306953D01*
D11*
%TO.C,C4*%
X-32678667Y17286858D02*
X-32726286Y17239239D01*
X-32869143Y17191620D01*
X-32964381Y17191620D01*
X-33107239Y17239239D01*
X-33202477Y17334477D01*
X-33250096Y17429715D01*
X-33297715Y17620191D01*
X-33297715Y17763048D01*
X-33250096Y17953524D01*
X-33202477Y18048762D01*
X-33107239Y18144000D01*
X-32964381Y18191620D01*
X-32869143Y18191620D01*
X-32726286Y18144000D01*
X-32678667Y18096381D01*
X-31821524Y17858286D02*
X-31821524Y17191620D01*
X-32059620Y18239239D02*
X-32297715Y17524953D01*
X-31678667Y17524953D01*
D10*
%TO.C,J7*%
X-45730143Y24177810D02*
X-46015858Y24177810D01*
X-45873000Y24177810D02*
X-45873000Y24677810D01*
X-45920620Y24606381D01*
X-45968239Y24558762D01*
X-46015858Y24534953D01*
D11*
%TO.C,J2*%
X-10660000Y36401429D02*
X-10660000Y35330000D01*
X-10731429Y35115715D01*
X-10874286Y34972858D01*
X-11088572Y34901429D01*
X-11231429Y34901429D01*
X-10017143Y36258572D02*
X-9945715Y36330000D01*
X-9802858Y36401429D01*
X-9445715Y36401429D01*
X-9302858Y36330000D01*
X-9231429Y36258572D01*
X-9160000Y36115715D01*
X-9160000Y35972858D01*
X-9231429Y35758572D01*
X-10088572Y34901429D01*
X-9160000Y34901429D01*
%TO.C,J4*%
X-10660000Y16081429D02*
X-10660000Y15010000D01*
X-10731429Y14795715D01*
X-10874286Y14652858D01*
X-11088572Y14581429D01*
X-11231429Y14581429D01*
X-9302858Y15581429D02*
X-9302858Y14581429D01*
X-9660000Y16152858D02*
X-10017143Y15081429D01*
X-9088572Y15081429D01*
%TO.C,C3*%
X-32678667Y14276858D02*
X-32726286Y14229239D01*
X-32869143Y14181620D01*
X-32964381Y14181620D01*
X-33107239Y14229239D01*
X-33202477Y14324477D01*
X-33250096Y14419715D01*
X-33297715Y14610191D01*
X-33297715Y14753048D01*
X-33250096Y14943524D01*
X-33202477Y15038762D01*
X-33107239Y15134000D01*
X-32964381Y15181620D01*
X-32869143Y15181620D01*
X-32726286Y15134000D01*
X-32678667Y15086381D01*
X-32345334Y15181620D02*
X-31726286Y15181620D01*
X-32059620Y14800667D01*
X-31916762Y14800667D01*
X-31821524Y14753048D01*
X-31773905Y14705429D01*
X-31726286Y14610191D01*
X-31726286Y14372096D01*
X-31773905Y14276858D01*
X-31821524Y14229239D01*
X-31916762Y14181620D01*
X-32202477Y14181620D01*
X-32297715Y14229239D01*
X-32345334Y14276858D01*
%TO.C,R2*%
X-20238667Y25971620D02*
X-20572000Y26447810D01*
X-20810096Y25971620D02*
X-20810096Y26971620D01*
X-20429143Y26971620D01*
X-20333905Y26924000D01*
X-20286286Y26876381D01*
X-20238667Y26781143D01*
X-20238667Y26638286D01*
X-20286286Y26543048D01*
X-20333905Y26495429D01*
X-20429143Y26447810D01*
X-20810096Y26447810D01*
X-19857715Y26876381D02*
X-19810096Y26924000D01*
X-19714858Y26971620D01*
X-19476762Y26971620D01*
X-19381524Y26924000D01*
X-19333905Y26876381D01*
X-19286286Y26781143D01*
X-19286286Y26685905D01*
X-19333905Y26543048D01*
X-19905334Y25971620D01*
X-19286286Y25971620D01*
%TO.C,J5*%
X-10660000Y5921429D02*
X-10660000Y4850000D01*
X-10731429Y4635715D01*
X-10874286Y4492858D01*
X-11088572Y4421429D01*
X-11231429Y4421429D01*
X-9231429Y5921429D02*
X-9945715Y5921429D01*
X-10017143Y5207143D01*
X-9945715Y5278572D01*
X-9802858Y5350000D01*
X-9445715Y5350000D01*
X-9302858Y5278572D01*
X-9231429Y5207143D01*
X-9160000Y5064286D01*
X-9160000Y4707143D01*
X-9231429Y4564286D01*
X-9302858Y4492858D01*
X-9445715Y4421429D01*
X-9802858Y4421429D01*
X-9945715Y4492858D01*
X-10017143Y4564286D01*
%TO.C,J3*%
X-10660000Y26241429D02*
X-10660000Y25170000D01*
X-10731429Y24955715D01*
X-10874286Y24812858D01*
X-11088572Y24741429D01*
X-11231429Y24741429D01*
X-10088572Y26241429D02*
X-9160000Y26241429D01*
X-9660000Y25670000D01*
X-9445715Y25670000D01*
X-9302858Y25598572D01*
X-9231429Y25527143D01*
X-9160000Y25384286D01*
X-9160000Y25027143D01*
X-9231429Y24884286D01*
X-9302858Y24812858D01*
X-9445715Y24741429D01*
X-9874286Y24741429D01*
X-10017143Y24812858D01*
X-10088572Y24884286D01*
D12*
%TO.C,IC2*%
X-25344806Y7446763D02*
X-26106806Y7446763D01*
X-25417378Y8245049D02*
X-25381092Y8208763D01*
X-25344806Y8099906D01*
X-25344806Y8027335D01*
X-25381092Y7918478D01*
X-25453663Y7845906D01*
X-25526235Y7809620D01*
X-25671378Y7773335D01*
X-25780235Y7773335D01*
X-25925378Y7809620D01*
X-25997949Y7845906D01*
X-26070520Y7918478D01*
X-26106806Y8027335D01*
X-26106806Y8099906D01*
X-26070520Y8208763D01*
X-26034235Y8245049D01*
X-26034235Y8535335D02*
X-26070520Y8571620D01*
X-26106806Y8644192D01*
X-26106806Y8825620D01*
X-26070520Y8898192D01*
X-26034235Y8934478D01*
X-25961663Y8970763D01*
X-25889092Y8970763D01*
X-25780235Y8934478D01*
X-25344806Y8499049D01*
X-25344806Y8970763D01*
X-30722591Y7964258D02*
X-30960867Y7964258D01*
X-30960867Y8464638D01*
X-30555798Y7964258D02*
X-30555798Y8464638D01*
X-30389004Y8107224D01*
X-30222211Y8464638D01*
X-30222211Y7964258D01*
X-29983935Y7964258D02*
X-29983935Y8464638D01*
X-29983935Y8226362D02*
X-29698003Y8226362D01*
X-29698003Y7964258D02*
X-29698003Y8464638D01*
X-29507382Y8464638D02*
X-29173796Y8464638D01*
X-29388244Y7964258D01*
X-29007002Y8416983D02*
X-28983175Y8440810D01*
X-28935520Y8464638D01*
X-28816381Y8464638D01*
X-28768726Y8440810D01*
X-28744899Y8416983D01*
X-28721071Y8369328D01*
X-28721071Y8321672D01*
X-28744899Y8250190D01*
X-29030830Y7964258D01*
X-28721071Y7964258D01*
X-28530450Y8416983D02*
X-28506622Y8440810D01*
X-28458967Y8464638D01*
X-28339829Y8464638D01*
X-28292174Y8440810D01*
X-28268346Y8416983D01*
X-28244519Y8369328D01*
X-28244519Y8321672D01*
X-28268346Y8250190D01*
X-28554278Y7964258D01*
X-28244519Y7964258D01*
X-27934760Y8464638D02*
X-27887104Y8464638D01*
X-27839449Y8440810D01*
X-27815621Y8416983D01*
X-27791794Y8369328D01*
X-27767966Y8274017D01*
X-27767966Y8154879D01*
X-27791794Y8059569D01*
X-27815621Y8011913D01*
X-27839449Y7988086D01*
X-27887104Y7964258D01*
X-27934760Y7964258D01*
X-27982415Y7988086D01*
X-28006242Y8011913D01*
X-28030070Y8059569D01*
X-28053898Y8154879D01*
X-28053898Y8274017D01*
X-28030070Y8369328D01*
X-28006242Y8416983D01*
X-27982415Y8440810D01*
X-27934760Y8464638D01*
X-27553518Y7964258D02*
X-27553518Y8464638D01*
X-27386724Y8107224D01*
X-27219931Y8464638D01*
X-27219931Y7964258D01*
X-26981655Y7964258D02*
X-26981655Y8464638D01*
X-26695723Y7964258D02*
X-26910172Y8250190D01*
X-26695723Y8464638D02*
X-26981655Y8178707D01*
X-26600413Y7916603D02*
X-26219171Y7916603D01*
X-26100033Y7964258D02*
X-26100033Y8464638D01*
X-25814101Y7964258D01*
X-25814101Y8464638D01*
X-25480515Y8464638D02*
X-25385204Y8464638D01*
X-25337549Y8440810D01*
X-25289894Y8393155D01*
X-25266066Y8297845D01*
X-25266066Y8131051D01*
X-25289894Y8035741D01*
X-25337549Y7988086D01*
X-25385204Y7964258D01*
X-25480515Y7964258D01*
X-25528170Y7988086D01*
X-25575825Y8035741D01*
X-25599653Y8131051D01*
X-25599653Y8297845D01*
X-25575825Y8393155D01*
X-25528170Y8440810D01*
X-25480515Y8464638D01*
X-25051618Y7964258D02*
X-25051618Y8464638D01*
X-24860997Y8464638D01*
X-24813341Y8440810D01*
X-24789514Y8416983D01*
X-24765686Y8369328D01*
X-24765686Y8297845D01*
X-24789514Y8250190D01*
X-24813341Y8226362D01*
X-24860997Y8202534D01*
X-25051618Y8202534D01*
X-24384444Y8226362D02*
X-24312961Y8202534D01*
X-24289134Y8178707D01*
X-24265306Y8131051D01*
X-24265306Y8059569D01*
X-24289134Y8011913D01*
X-24312961Y7988086D01*
X-24360617Y7964258D01*
X-24551238Y7964258D01*
X-24551238Y8464638D01*
X-24384444Y8464638D01*
X-24336789Y8440810D01*
X-24312961Y8416983D01*
X-24289134Y8369328D01*
X-24289134Y8321672D01*
X-24312961Y8274017D01*
X-24336789Y8250190D01*
X-24384444Y8226362D01*
X-24551238Y8226362D01*
D11*
%TO.C,IC1*%
X-24598191Y10133620D02*
X-24598191Y11133620D01*
X-23550572Y10228858D02*
X-23598191Y10181239D01*
X-23741048Y10133620D01*
X-23836286Y10133620D01*
X-23979143Y10181239D01*
X-24074381Y10276477D01*
X-24122000Y10371715D01*
X-24169620Y10562191D01*
X-24169620Y10705048D01*
X-24122000Y10895524D01*
X-24074381Y10990762D01*
X-23979143Y11086000D01*
X-23836286Y11133620D01*
X-23741048Y11133620D01*
X-23598191Y11086000D01*
X-23550572Y11038381D01*
X-22598191Y10133620D02*
X-23169620Y10133620D01*
X-22883905Y10133620D02*
X-22883905Y11133620D01*
X-22979143Y10990762D01*
X-23074381Y10895524D01*
X-23169620Y10847905D01*
%TO.C,R1*%
X-28248667Y17191620D02*
X-28582000Y17667810D01*
X-28820096Y17191620D02*
X-28820096Y18191620D01*
X-28439143Y18191620D01*
X-28343905Y18144000D01*
X-28296286Y18096381D01*
X-28248667Y18001143D01*
X-28248667Y17858286D01*
X-28296286Y17763048D01*
X-28343905Y17715429D01*
X-28439143Y17667810D01*
X-28820096Y17667810D01*
X-27296286Y17191620D02*
X-27867715Y17191620D01*
X-27582000Y17191620D02*
X-27582000Y18191620D01*
X-27677239Y18048762D01*
X-27772477Y17953524D01*
X-27867715Y17905905D01*
%TO.C,J6*%
X-39624000Y2286000D02*
X-44704000Y2286000D01*
X-39624000Y12446000D02*
X-39624000Y2286000D01*
X-44704000Y2286000D02*
X-44704000Y12446000D01*
X-44704000Y12446000D02*
X-39624000Y12446000D01*
D13*
%TO.C,C4*%
X-32773252Y16699000D02*
X-32250748Y16699000D01*
X-32773252Y15229000D02*
X-32250748Y15229000D01*
D11*
%TO.C,J7*%
X-40412000Y25674000D02*
X-40412000Y15514000D01*
X-40412000Y15514000D02*
X-45492000Y15514000D01*
X-45492000Y15514000D02*
X-45492000Y25674000D01*
X-45492000Y25674000D02*
X-40412000Y25674000D01*
%TO.C,J2*%
X-6660000Y29464000D02*
X-6660000Y31496000D01*
X-13660000Y31496000D02*
X-13660000Y29464000D01*
X-9144000Y33980000D02*
X-11176000Y33980000D01*
X-11176000Y27005400D02*
X-9144000Y27005400D01*
%TO.C,J1*%
X33020000Y19050000D02*
X33020000Y11430000D01*
X27940000Y11430000D02*
X27940000Y19050000D01*
X27940000Y19050000D02*
X33020000Y19050000D01*
X33020000Y11430000D02*
X27940000Y11430000D01*
%TO.C,J4*%
X-9144000Y13660000D02*
X-11176000Y13660000D01*
X-11176000Y6685400D02*
X-9144000Y6685400D01*
X-6660000Y9144000D02*
X-6660000Y11176000D01*
X-13660000Y11176000D02*
X-13660000Y9144000D01*
D13*
%TO.C,C3*%
X-32773252Y13689000D02*
X-32250748Y13689000D01*
X-32773252Y12219000D02*
X-32250748Y12219000D01*
%TO.C,R2*%
X-20299064Y24039000D02*
X-19844936Y24039000D01*
X-20299064Y25509000D02*
X-19844936Y25509000D01*
D11*
%TO.C,J5*%
X-13660000Y1016000D02*
X-13660000Y-1016000D01*
X-11176000Y-3474600D02*
X-9144000Y-3474600D01*
X-9144000Y3500000D02*
X-11176000Y3500000D01*
X-6660000Y-1016000D02*
X-6660000Y1016000D01*
%TO.C,J3*%
X-13660000Y21336000D02*
X-13660000Y19304000D01*
X-11176000Y16845400D02*
X-9144000Y16845400D01*
X-9144000Y23820000D02*
X-11176000Y23820000D01*
X-6660000Y19304000D02*
X-6660000Y21336000D01*
%TO.C,IC2*%
X-26418500Y7428620D02*
X-29022000Y7428620D01*
X-26418500Y8952620D02*
X-26418500Y7428620D01*
X-29022000Y7428620D02*
X-29022000Y8952620D01*
X-28196500Y7428620D02*
X-28958500Y7936620D01*
X-29022000Y8952620D02*
X-26418500Y8952620D01*
D13*
%TO.C,IC1*%
X-24297000Y7476000D02*
X-22887000Y7476000D01*
X-22887000Y9796000D02*
X-24972000Y9796000D01*
%TO.C,R1*%
X-28309064Y16729000D02*
X-27854936Y16729000D01*
X-28309064Y15259000D02*
X-27854936Y15259000D01*
%TD*%
D14*
%TO.C,J6*%
X-43434000Y11176000D03*
X-40894000Y11176000D03*
X-43434000Y8636000D03*
X-40894000Y8636000D03*
X-43434000Y6096000D03*
X-40894000Y6096000D03*
X-43434000Y3556000D03*
X-40894000Y3556000D03*
%TD*%
%TO.C,J7*%
X-44222000Y24404000D03*
X-41682000Y24404000D03*
X-44222000Y21864000D03*
X-41682000Y21864000D03*
X-44222000Y19324000D03*
X-41682000Y19324000D03*
X-44222000Y16784000D03*
X-41682000Y16784000D03*
%TD*%
M02*
