M48
; DRILL file {KiCad 6.0.10+dfsg-1~bpo11+1} date Sun Feb 12 02:53:11 2023
; FORMAT={-:-/ absolute / metric / decimal}
; #@! TF.CreationDate,2023-02-12T02:53:11+00:00
; #@! TF.GenerationSoftware,Kicad,Pcbnew,6.0.10+dfsg-1~bpo11+1
; #@! TF.FileFunction,Plated,1,2,PTH
FMAT,2
METRIC
; #@! TA.AperFunction,Plated,PTH,ComponentDrill
T1C0.889
; #@! TA.AperFunction,Plated,PTH,ComponentDrill
T2C1.500
; #@! TA.AperFunction,Plated,PTH,ComponentDrill
T3C1.700
; #@! TA.AperFunction,Plated,PTH,ComponentDrill
T4C3.000
%
G90
G05
T1
X-44.222Y24.404
X-44.222Y21.864
X-44.222Y19.324
X-44.222Y16.784
X-43.434Y11.176
X-43.434Y8.636
X-43.434Y6.096
X-43.434Y3.556
X-41.682Y24.404
X-41.682Y21.864
X-41.682Y19.324
X-41.682Y16.784
X-40.894Y11.176
X-40.894Y8.636
X-40.894Y6.096
X-40.894Y3.556
X29.21Y17.78
X29.21Y15.24
X29.21Y12.7
X31.75Y17.78
X31.75Y15.24
X31.75Y12.7
T2
X-10.16Y30.48
X-10.16Y20.32
X-10.16Y10.16
X-10.16Y0.0
T3
X-12.7Y33.02
X-12.7Y27.94
X-12.7Y22.86
X-12.7Y17.78
X-12.7Y12.7
X-12.7Y7.62
X-12.7Y2.54
X-12.7Y-2.54
X-7.62Y33.02
X-7.62Y27.94
X-7.62Y22.86
X-7.62Y17.78
X-7.62Y12.7
X-7.62Y7.62
X-7.62Y2.54
X-7.62Y-2.54
T4
X0.0Y30.48
X0.0Y0.0
X30.48Y30.48
X30.48Y0.0
T0
M30
