%TF.GenerationSoftware,KiCad,Pcbnew,6.0.10+dfsg-1~bpo11+1*%
%TF.CreationDate,2023-02-15T12:18:45+00:00*%
%TF.ProjectId,ACOMP01,41434f4d-5030-4312-9e6b-696361645f70,rev?*%
%TF.SameCoordinates,Original*%
%TF.FileFunction,Soldermask,Top*%
%TF.FilePolarity,Negative*%
%FSLAX46Y46*%
G04 Gerber Fmt 4.6, Leading zero omitted, Abs format (unit mm)*
G04 Created by KiCad (PCBNEW 6.0.10+dfsg-1~bpo11+1) date 2023-02-15 12:18:45*
%MOMM*%
%LPD*%
G01*
G04 APERTURE LIST*
G04 Aperture macros list*
%AMRoundRect*
0 Rectangle with rounded corners*
0 $1 Rounding radius*
0 $2 $3 $4 $5 $6 $7 $8 $9 X,Y pos of 4 corners*
0 Add a 4 corners polygon primitive as box body*
4,1,4,$2,$3,$4,$5,$6,$7,$8,$9,$2,$3,0*
0 Add four circle primitives for the rounded corners*
1,1,$1+$1,$2,$3*
1,1,$1+$1,$4,$5*
1,1,$1+$1,$6,$7*
1,1,$1+$1,$8,$9*
0 Add four rect primitives between the rounded corners*
20,1,$1+$1,$2,$3,$4,$5,0*
20,1,$1+$1,$4,$5,$6,$7,0*
20,1,$1+$1,$6,$7,$8,$9,0*
20,1,$1+$1,$8,$9,$2,$3,0*%
G04 Aperture macros list end*
%ADD10R,1.524000X1.524000*%
%ADD11C,6.000000*%
%ADD12RoundRect,0.250000X-0.250000X-0.475000X0.250000X-0.475000X0.250000X0.475000X-0.250000X0.475000X0*%
%ADD13C,2.500000*%
%ADD14C,2.700000*%
%ADD15RoundRect,0.250000X-0.262500X-0.450000X0.262500X-0.450000X0.262500X0.450000X-0.262500X0.450000X0*%
%ADD16R,0.500000X1.000760*%
%ADD17R,0.501040X1.000760*%
%ADD18R,1.000000X0.300000*%
G04 APERTURE END LIST*
D10*
%TO.C,J6*%
X-43434000Y11176000D03*
X-40894000Y11176000D03*
X-43434000Y8636000D03*
X-40894000Y8636000D03*
X-43434000Y6096000D03*
X-40894000Y6096000D03*
X-43434000Y3556000D03*
X-40894000Y3556000D03*
%TD*%
D11*
%TO.C,M2*%
X0Y30480000D03*
%TD*%
%TO.C,M4*%
X30480000Y0D03*
%TD*%
D12*
%TO.C,C4*%
X-33462000Y15964000D03*
X-31562000Y15964000D03*
%TD*%
D10*
%TO.C,J7*%
X-44222000Y24404000D03*
X-41682000Y24404000D03*
X-44222000Y21864000D03*
X-41682000Y21864000D03*
X-44222000Y19324000D03*
X-41682000Y19324000D03*
X-44222000Y16784000D03*
X-41682000Y16784000D03*
%TD*%
D13*
%TO.C,J2*%
X-10160000Y30480000D03*
D14*
X-12700000Y27940000D03*
X-7620000Y27940000D03*
X-7620000Y33020000D03*
X-12700000Y33020000D03*
%TD*%
D10*
%TO.C,J1*%
X31750000Y12700000D03*
X29210000Y12700000D03*
X31750000Y15240000D03*
X29210000Y15240000D03*
X31750000Y17780000D03*
X29210000Y17780000D03*
%TD*%
D13*
%TO.C,J4*%
X-10160000Y10160000D03*
D14*
X-12700000Y12700000D03*
X-7620000Y12700000D03*
X-7620000Y7620000D03*
X-12700000Y7620000D03*
%TD*%
D12*
%TO.C,C3*%
X-33462000Y12954000D03*
X-31562000Y12954000D03*
%TD*%
D11*
%TO.C,M3*%
X0Y0D03*
%TD*%
D15*
%TO.C,R2*%
X-20984500Y24774000D03*
X-19159500Y24774000D03*
%TD*%
D11*
%TO.C,M1*%
X30480000Y30480000D03*
%TD*%
D13*
%TO.C,J5*%
X-10160000Y0D03*
D14*
X-7620000Y2540000D03*
X-7620000Y-2540000D03*
X-12700000Y2540000D03*
X-12700000Y-2540000D03*
%TD*%
D13*
%TO.C,J3*%
X-10160000Y20320000D03*
D14*
X-12700000Y17780000D03*
X-12700000Y22860000D03*
X-7620000Y22860000D03*
X-7620000Y17780000D03*
%TD*%
D16*
%TO.C,IC2*%
X-28641000Y6920620D03*
X-27688500Y6920620D03*
X-26736000Y6920620D03*
D17*
X-26736000Y9460620D03*
D16*
X-27688500Y9460620D03*
X-28641000Y9460620D03*
%TD*%
D18*
%TO.C,IC1*%
X-24522000Y9286000D03*
X-24522000Y8636000D03*
X-24522000Y7986000D03*
X-22722000Y7986000D03*
X-22722000Y8636000D03*
X-22722000Y9286000D03*
%TD*%
D15*
%TO.C,R1*%
X-28994500Y15994000D03*
X-27169500Y15994000D03*
%TD*%
M02*
