  0
SECTION
  2
HEADER
  9
$ANGBASE
  50
0.0
  9
$ANGDIR
  70
1
  9
$MEASUREMENT
  70
0
  0
ENDSEC
  0
SECTION
  2
TABLES
  0
TABLE
  2
LTYPE
  70
4
  0
LTYPE
  5
40F
  2
CONTINUOUS
  70
0
  3
Solid line
  72
65
  73
0
  40
0.0
  0
LTYPE
  5
410
  2
DASHDOT
 70
0
  3
Dash Dot ____ _ ____ _
 72
65
 73
4
 40
2.0
 49
1.25
 49
-0.25
 49
0.25
 49
-0.25
  0
LTYPE
  5
411
  2
DASHED
 70
0
  3
Dashed __ __ __ __ __
 72
65
 73
2
 40
0.75
 49
0.5
 49
-0.25
  0
LTYPE
  5
43B
  2
DOTTED
 70
0
  3
Dotted .  .  .  .
 72
65
 73
2
 40
0.2
 49
0.0
 49
-0.2
  0
ENDTAB
  0
TABLE
  2
STYLE
  70
4
  0
STYLE
  2
KICAD
  70
0
  40
0
  41
1
  42
1
  50
0
  71
0
  3
isocp.shx
  0
STYLE
  2
KICADB
  70
0
  40
0
  41
1
  42
1
  50
0
  71
0
  3
isocp.shx
  0
STYLE
  2
KICADI
  70
0
  40
0
  41
1
  42
1
  50
15
  71
0
  3
isocp.shx
  0
STYLE
  2
KICADBI
  70
0
  40
0
  41
1
  42
1
  50
15
  71
0
  3
isocp.shx
  0
ENDTAB
  0
TABLE
  2
LAYER
  70
1
  0
LAYER
  2
BLACK
  70
0
  62
7
  6
CONTINUOUS
  0
ENDTAB
  0
ENDSEC
  0
SECTION
  2
ENTITIES
0
LINE
8
BLACK
6
CONTINUOUS
10
-0.290771
20
-0.0476579
11
-0.281822
21
-0.0500557
0
LINE
8
BLACK
6
CONTINUOUS
10
-0.281822
20
-0.0500557
11
-0.273425
21
-0.0539711
0
LINE
8
BLACK
6
CONTINUOUS
10
-0.273425
20
-0.0539711
11
-0.265836
21
-0.059285
0
LINE
8
BLACK
6
CONTINUOUS
10
-0.265836
20
-0.059285
11
-0.259285
21
-0.0658361
0
LINE
8
BLACK
6
CONTINUOUS
10
-0.259285
20
-0.0658361
11
-0.253971
21
-0.0734252
0
LINE
8
BLACK
6
CONTINUOUS
10
-0.253971
20
-0.0734252
11
-0.250056
21
-0.0818218
0
LINE
8
BLACK
6
CONTINUOUS
10
-0.250056
20
-0.0818218
11
-0.247658
21
-0.0907707
0
LINE
8
BLACK
6
CONTINUOUS
10
-0.247658
20
-0.0907707
11
-0.24685
21
-0.1
0
LINE
8
BLACK
6
CONTINUOUS
10
-0.24685
20
-0.1
11
-0.247658
21
-0.109229
0
LINE
8
BLACK
6
CONTINUOUS
10
-0.247658
20
-0.109229
11
-0.250056
21
-0.118178
0
LINE
8
BLACK
6
CONTINUOUS
10
-0.250056
20
-0.118178
11
-0.253971
21
-0.126575
0
LINE
8
BLACK
6
CONTINUOUS
10
-0.253971
20
-0.126575
11
-0.259285
21
-0.134164
0
LINE
8
BLACK
6
CONTINUOUS
10
-0.259285
20
-0.134164
11
-0.265836
21
-0.140715
0
LINE
8
BLACK
6
CONTINUOUS
10
-0.265836
20
-0.140715
11
-0.273425
21
-0.146029
0
LINE
8
BLACK
6
CONTINUOUS
10
-0.273425
20
-0.146029
11
-0.281822
21
-0.149944
0
LINE
8
BLACK
6
CONTINUOUS
10
-0.281822
20
-0.149944
11
-0.290771
21
-0.152342
0
LINE
8
BLACK
6
CONTINUOUS
10
-0.290771
20
-0.152342
11
-0.3
21
-0.15315
0
LINE
8
BLACK
6
CONTINUOUS
10
-0.3
20
-0.15315
11
-0.309229
21
-0.152342
0
LINE
8
BLACK
6
CONTINUOUS
10
-0.309229
20
-0.152342
11
-0.318178
21
-0.149944
0
LINE
8
BLACK
6
CONTINUOUS
10
-0.318178
20
-0.149944
11
-0.326575
21
-0.146029
0
LINE
8
BLACK
6
CONTINUOUS
10
-0.326575
20
-0.146029
11
-0.334164
21
-0.140715
0
LINE
8
BLACK
6
CONTINUOUS
10
-0.334164
20
-0.140715
11
-0.340715
21
-0.134164
0
LINE
8
BLACK
6
CONTINUOUS
10
-0.340715
20
-0.134164
11
-0.346029
21
-0.126575
0
LINE
8
BLACK
6
CONTINUOUS
10
-0.346029
20
-0.126575
11
-0.349944
21
-0.118178
0
LINE
8
BLACK
6
CONTINUOUS
10
-0.349944
20
-0.118178
11
-0.352342
21
-0.109229
0
LINE
8
BLACK
6
CONTINUOUS
10
-0.352342
20
-0.109229
11
-0.35315
21
-0.1
0
LINE
8
BLACK
6
CONTINUOUS
10
-0.35315
20
-0.1
11
-0.352342
21
-0.0907707
0
LINE
8
BLACK
6
CONTINUOUS
10
-0.352342
20
-0.0907707
11
-0.349944
21
-0.0818218
0
LINE
8
BLACK
6
CONTINUOUS
10
-0.349944
20
-0.0818218
11
-0.346029
21
-0.0734252
0
LINE
8
BLACK
6
CONTINUOUS
10
-0.346029
20
-0.0734252
11
-0.340715
21
-0.0658361
0
LINE
8
BLACK
6
CONTINUOUS
10
-0.340715
20
-0.0658361
11
-0.334164
21
-0.059285
0
LINE
8
BLACK
6
CONTINUOUS
10
-0.334164
20
-0.059285
11
-0.326575
21
-0.0539711
0
LINE
8
BLACK
6
CONTINUOUS
10
-0.326575
20
-0.0539711
11
-0.318178
21
-0.0500557
0
LINE
8
BLACK
6
CONTINUOUS
10
-0.318178
20
-0.0500557
11
-0.309229
21
-0.0476579
0
LINE
8
BLACK
6
CONTINUOUS
10
-0.309229
20
-0.0476579
11
-0.3
21
-0.0468504
0
LINE
8
BLACK
6
CONTINUOUS
10
-0.3
20
-0.0468504
11
-0.290771
21
-0.0476579
0
LINE
8
BLACK
6
CONTINUOUS
10
-0.490771
20
-0.0476579
11
-0.481822
21
-0.0500557
0
LINE
8
BLACK
6
CONTINUOUS
10
-0.481822
20
-0.0500557
11
-0.473425
21
-0.0539711
0
LINE
8
BLACK
6
CONTINUOUS
10
-0.473425
20
-0.0539711
11
-0.465836
21
-0.059285
0
LINE
8
BLACK
6
CONTINUOUS
10
-0.465836
20
-0.059285
11
-0.459285
21
-0.0658361
0
LINE
8
BLACK
6
CONTINUOUS
10
-0.459285
20
-0.0658361
11
-0.453971
21
-0.0734252
0
LINE
8
BLACK
6
CONTINUOUS
10
-0.453971
20
-0.0734252
11
-0.450056
21
-0.0818218
0
LINE
8
BLACK
6
CONTINUOUS
10
-0.450056
20
-0.0818218
11
-0.447658
21
-0.0907707
0
LINE
8
BLACK
6
CONTINUOUS
10
-0.447658
20
-0.0907707
11
-0.44685
21
-0.1
0
LINE
8
BLACK
6
CONTINUOUS
10
-0.44685
20
-0.1
11
-0.447658
21
-0.109229
0
LINE
8
BLACK
6
CONTINUOUS
10
-0.447658
20
-0.109229
11
-0.450056
21
-0.118178
0
LINE
8
BLACK
6
CONTINUOUS
10
-0.450056
20
-0.118178
11
-0.453971
21
-0.126575
0
LINE
8
BLACK
6
CONTINUOUS
10
-0.453971
20
-0.126575
11
-0.459285
21
-0.134164
0
LINE
8
BLACK
6
CONTINUOUS
10
-0.459285
20
-0.134164
11
-0.465836
21
-0.140715
0
LINE
8
BLACK
6
CONTINUOUS
10
-0.465836
20
-0.140715
11
-0.473425
21
-0.146029
0
LINE
8
BLACK
6
CONTINUOUS
10
-0.473425
20
-0.146029
11
-0.481822
21
-0.149944
0
LINE
8
BLACK
6
CONTINUOUS
10
-0.481822
20
-0.149944
11
-0.490771
21
-0.152342
0
LINE
8
BLACK
6
CONTINUOUS
10
-0.490771
20
-0.152342
11
-0.5
21
-0.15315
0
LINE
8
BLACK
6
CONTINUOUS
10
-0.5
20
-0.15315
11
-0.509229
21
-0.152342
0
LINE
8
BLACK
6
CONTINUOUS
10
-0.509229
20
-0.152342
11
-0.518178
21
-0.149944
0
LINE
8
BLACK
6
CONTINUOUS
10
-0.518178
20
-0.149944
11
-0.526575
21
-0.146029
0
LINE
8
BLACK
6
CONTINUOUS
10
-0.526575
20
-0.146029
11
-0.534164
21
-0.140715
0
LINE
8
BLACK
6
CONTINUOUS
10
-0.534164
20
-0.140715
11
-0.540715
21
-0.134164
0
LINE
8
BLACK
6
CONTINUOUS
10
-0.540715
20
-0.134164
11
-0.546029
21
-0.126575
0
LINE
8
BLACK
6
CONTINUOUS
10
-0.546029
20
-0.126575
11
-0.549944
21
-0.118178
0
LINE
8
BLACK
6
CONTINUOUS
10
-0.549944
20
-0.118178
11
-0.552342
21
-0.109229
0
LINE
8
BLACK
6
CONTINUOUS
10
-0.552342
20
-0.109229
11
-0.55315
21
-0.1
0
LINE
8
BLACK
6
CONTINUOUS
10
-0.55315
20
-0.1
11
-0.552342
21
-0.0907707
0
LINE
8
BLACK
6
CONTINUOUS
10
-0.552342
20
-0.0907707
11
-0.549944
21
-0.0818218
0
LINE
8
BLACK
6
CONTINUOUS
10
-0.549944
20
-0.0818218
11
-0.546029
21
-0.0734252
0
LINE
8
BLACK
6
CONTINUOUS
10
-0.546029
20
-0.0734252
11
-0.540715
21
-0.0658361
0
LINE
8
BLACK
6
CONTINUOUS
10
-0.540715
20
-0.0658361
11
-0.534164
21
-0.059285
0
LINE
8
BLACK
6
CONTINUOUS
10
-0.534164
20
-0.059285
11
-0.526575
21
-0.0539711
0
LINE
8
BLACK
6
CONTINUOUS
10
-0.526575
20
-0.0539711
11
-0.518178
21
-0.0500557
0
LINE
8
BLACK
6
CONTINUOUS
10
-0.518178
20
-0.0500557
11
-0.509229
21
-0.0476579
0
LINE
8
BLACK
6
CONTINUOUS
10
-0.509229
20
-0.0476579
11
-0.5
21
-0.0468504
0
LINE
8
BLACK
6
CONTINUOUS
10
-0.5
20
-0.0468504
11
-0.490771
21
-0.0476579
0
LINE
8
BLACK
6
CONTINUOUS
10
0.0086502
20
0.117793
11
0.0221317
21
0.116018
0
LINE
8
BLACK
6
CONTINUOUS
10
0.0221317
20
0.116018
11
0.0353198
21
0.112706
0
LINE
8
BLACK
6
CONTINUOUS
10
0.0353198
20
0.112706
11
0.0480398
21
0.107899
0
LINE
8
BLACK
6
CONTINUOUS
10
0.0480398
20
0.107899
11
0.060123
21
0.101662
0
LINE
8
BLACK
6
CONTINUOUS
10
0.060123
20
0.101662
11
0.0714093
21
0.0940783
0
LINE
8
BLACK
6
CONTINUOUS
10
0.0714093
20
0.0940783
11
0.0817492
21
0.0852473
0
LINE
8
BLACK
6
CONTINUOUS
10
0.0817492
20
0.0852473
11
0.0910055
21
0.0752863
0
LINE
8
BLACK
6
CONTINUOUS
10
0.0910055
20
0.0752863
11
0.0990556
21
0.0643274
0
LINE
8
BLACK
6
CONTINUOUS
10
0.0990556
20
0.0643274
11
0.105793
21
0.052516
0
LINE
8
BLACK
6
CONTINUOUS
10
0.105793
20
0.052516
11
0.111128
21
0.0400084
0
LINE
8
BLACK
6
CONTINUOUS
10
0.111128
20
0.0400084
11
0.11499
21
0.0269706
0
LINE
8
BLACK
6
CONTINUOUS
10
0.11499
20
0.0269706
11
0.117327
21
0.0135752
0
LINE
8
BLACK
6
CONTINUOUS
10
0.117327
20
0.0135752
11
0.11811
21
0
0
LINE
8
BLACK
6
CONTINUOUS
10
0.11811
20
0
11
0.117877
21
-0.00741622
0
LINE
8
BLACK
6
CONTINUOUS
10
0.117877
20
-0.00741622
11
0.116244
21
-0.0209155
0
LINE
8
BLACK
6
CONTINUOUS
10
0.116244
20
-0.0209155
11
0.113069
21
-0.0341376
0
LINE
8
BLACK
6
CONTINUOUS
10
0.113069
20
-0.0341376
11
0.108396
21
-0.0469072
0
LINE
8
BLACK
6
CONTINUOUS
10
0.108396
20
-0.0469072
11
0.102286
21
-0.0590551
0
LINE
8
BLACK
6
CONTINUOUS
10
0.102286
20
-0.0590551
11
0.0948209
21
-0.0704203
0
LINE
8
BLACK
6
CONTINUOUS
10
0.0948209
20
-0.0704203
11
0.0860987
21
-0.080852
0
LINE
8
BLACK
6
CONTINUOUS
10
0.0860987
20
-0.080852
11
0.0762352
21
-0.0902121
0
LINE
8
BLACK
6
CONTINUOUS
10
0.0762352
20
-0.0902121
11
0.0653612
21
-0.0983765
0
LINE
8
BLACK
6
CONTINUOUS
10
0.0653612
20
-0.0983765
11
0.0536209
21
-0.105237
0
LINE
8
BLACK
6
CONTINUOUS
10
0.0536209
20
-0.105237
11
0.0411699
21
-0.110703
0
LINE
8
BLACK
6
CONTINUOUS
10
0.0411699
20
-0.110703
11
0.0281732
21
-0.114701
0
LINE
8
BLACK
6
CONTINUOUS
10
0.0281732
20
-0.114701
11
0.0148031
21
-0.117179
0
LINE
8
BLACK
6
CONTINUOUS
10
0.0148031
20
-0.117179
11
0.00123681
21
-0.118104
0
LINE
8
BLACK
6
CONTINUOUS
10
0.00123681
20
-0.118104
11
-0.0123459
21
-0.117463
0
LINE
8
BLACK
6
CONTINUOUS
10
-0.0123459
20
-0.117463
11
-0.025765
21
-0.115266
0
LINE
8
BLACK
6
CONTINUOUS
10
-0.025765
20
-0.115266
11
-0.0388425
21
-0.111541
0
LINE
8
BLACK
6
CONTINUOUS
10
-0.0388425
20
-0.111541
11
-0.0514052
21
-0.106337
0
LINE
8
BLACK
6
CONTINUOUS
10
-0.0514052
20
-0.106337
11
-0.0632866
21
-0.0997238
0
LINE
8
BLACK
6
CONTINUOUS
10
-0.0632866
20
-0.0997238
11
-0.0743292
21
-0.0917889
0
LINE
8
BLACK
6
CONTINUOUS
10
-0.0743292
20
-0.0917889
11
-0.0843865
21
-0.0826374
0
LINE
8
BLACK
6
CONTINUOUS
10
-0.0843865
20
-0.0826374
11
-0.0933254
21
-0.0723906
0
LINE
8
BLACK
6
CONTINUOUS
10
-0.0933254
20
-0.0723906
11
-0.101027
21
-0.0611843
0
LINE
8
BLACK
6
CONTINUOUS
10
-0.101027
20
-0.0611843
11
-0.10739
21
-0.049167
0
LINE
8
BLACK
6
CONTINUOUS
10
-0.10739
20
-0.049167
11
-0.11233
21
-0.0364981
0
LINE
8
BLACK
6
CONTINUOUS
10
-0.11233
20
-0.0364981
11
-0.11578
21
-0.0233454
0
LINE
8
BLACK
6
CONTINUOUS
10
-0.11578
20
-0.0233454
11
-0.117696
21
-0.00988323
0
LINE
8
BLACK
6
CONTINUOUS
10
-0.117696
20
-0.00988323
11
-0.118052
21
0.00370992
0
LINE
8
BLACK
6
CONTINUOUS
10
-0.118052
20
0.00370992
11
-0.116843
21
0.0172539
0
LINE
8
BLACK
6
CONTINUOUS
10
-0.116843
20
0.0172539
11
-0.114086
21
0.0305692
0
LINE
8
BLACK
6
CONTINUOUS
10
-0.114086
20
0.0305692
11
-0.109816
21
0.0434793
0
LINE
8
BLACK
6
CONTINUOUS
10
-0.109816
20
0.0434793
11
-0.104091
21
0.0558131
0
LINE
8
BLACK
6
CONTINUOUS
10
-0.104091
20
0.0558131
11
-0.0969861
21
0.0674071
0
LINE
8
BLACK
6
CONTINUOUS
10
-0.0969861
20
0.0674071
11
-0.0885958
21
0.0781077
0
LINE
8
BLACK
6
CONTINUOUS
10
-0.0885958
20
0.0781077
11
-0.0790312
21
0.087773
0
LINE
8
BLACK
6
CONTINUOUS
10
-0.0790312
20
0.087773
11
-0.0684191
21
0.0962749
0
LINE
8
BLACK
6
CONTINUOUS
10
-0.0684191
20
0.0962749
11
-0.0569
21
0.103501
0
LINE
8
BLACK
6
CONTINUOUS
10
-0.0569
20
0.103501
11
-0.0446269
21
0.109355
0
LINE
8
BLACK
6
CONTINUOUS
10
-0.0446269
20
0.109355
11
-0.0317622
21
0.113759
0
LINE
8
BLACK
6
CONTINUOUS
10
-0.0317622
20
0.113759
11
-0.0184765
21
0.116656
0
LINE
8
BLACK
6
CONTINUOUS
10
-0.0184765
20
0.116656
11
-0.00494594
21
0.118007
0
LINE
8
BLACK
6
CONTINUOUS
10
-0.00494594
20
0.118007
11
0.0086502
21
0.117793
0
LINE
8
BLACK
6
CONTINUOUS
10
1.20865
20
0.117793
11
1.22213
21
0.116018
0
LINE
8
BLACK
6
CONTINUOUS
10
1.22213
20
0.116018
11
1.23532
21
0.112706
0
LINE
8
BLACK
6
CONTINUOUS
10
1.23532
20
0.112706
11
1.24804
21
0.107899
0
LINE
8
BLACK
6
CONTINUOUS
10
1.24804
20
0.107899
11
1.26012
21
0.101662
0
LINE
8
BLACK
6
CONTINUOUS
10
1.26012
20
0.101662
11
1.27141
21
0.0940783
0
LINE
8
BLACK
6
CONTINUOUS
10
1.27141
20
0.0940783
11
1.28175
21
0.0852473
0
LINE
8
BLACK
6
CONTINUOUS
10
1.28175
20
0.0852473
11
1.29101
21
0.0752863
0
LINE
8
BLACK
6
CONTINUOUS
10
1.29101
20
0.0752863
11
1.29906
21
0.0643274
0
LINE
8
BLACK
6
CONTINUOUS
10
1.29906
20
0.0643274
11
1.30579
21
0.052516
0
LINE
8
BLACK
6
CONTINUOUS
10
1.30579
20
0.052516
11
1.31113
21
0.0400084
0
LINE
8
BLACK
6
CONTINUOUS
10
1.31113
20
0.0400084
11
1.31499
21
0.0269706
0
LINE
8
BLACK
6
CONTINUOUS
10
1.31499
20
0.0269706
11
1.31733
21
0.0135752
0
LINE
8
BLACK
6
CONTINUOUS
10
1.31733
20
0.0135752
11
1.31811
21
0
0
LINE
8
BLACK
6
CONTINUOUS
10
1.31811
20
0
11
1.31788
21
-0.00741622
0
LINE
8
BLACK
6
CONTINUOUS
10
1.31788
20
-0.00741622
11
1.31624
21
-0.0209155
0
LINE
8
BLACK
6
CONTINUOUS
10
1.31624
20
-0.0209155
11
1.31307
21
-0.0341376
0
LINE
8
BLACK
6
CONTINUOUS
10
1.31307
20
-0.0341376
11
1.3084
21
-0.0469072
0
LINE
8
BLACK
6
CONTINUOUS
10
1.3084
20
-0.0469072
11
1.30229
21
-0.0590551
0
LINE
8
BLACK
6
CONTINUOUS
10
1.30229
20
-0.0590551
11
1.29482
21
-0.0704203
0
LINE
8
BLACK
6
CONTINUOUS
10
1.29482
20
-0.0704203
11
1.2861
21
-0.080852
0
LINE
8
BLACK
6
CONTINUOUS
10
1.2861
20
-0.080852
11
1.27624
21
-0.0902121
0
LINE
8
BLACK
6
CONTINUOUS
10
1.27624
20
-0.0902121
11
1.26536
21
-0.0983765
0
LINE
8
BLACK
6
CONTINUOUS
10
1.26536
20
-0.0983765
11
1.25362
21
-0.105237
0
LINE
8
BLACK
6
CONTINUOUS
10
1.25362
20
-0.105237
11
1.24117
21
-0.110703
0
LINE
8
BLACK
6
CONTINUOUS
10
1.24117
20
-0.110703
11
1.22817
21
-0.114701
0
LINE
8
BLACK
6
CONTINUOUS
10
1.22817
20
-0.114701
11
1.2148
21
-0.117179
0
LINE
8
BLACK
6
CONTINUOUS
10
1.2148
20
-0.117179
11
1.20124
21
-0.118104
0
LINE
8
BLACK
6
CONTINUOUS
10
1.20124
20
-0.118104
11
1.18765
21
-0.117463
0
LINE
8
BLACK
6
CONTINUOUS
10
1.18765
20
-0.117463
11
1.17424
21
-0.115266
0
LINE
8
BLACK
6
CONTINUOUS
10
1.17424
20
-0.115266
11
1.16116
21
-0.111541
0
LINE
8
BLACK
6
CONTINUOUS
10
1.16116
20
-0.111541
11
1.14859
21
-0.106337
0
LINE
8
BLACK
6
CONTINUOUS
10
1.14859
20
-0.106337
11
1.13671
21
-0.0997238
0
LINE
8
BLACK
6
CONTINUOUS
10
1.13671
20
-0.0997238
11
1.12567
21
-0.0917889
0
LINE
8
BLACK
6
CONTINUOUS
10
1.12567
20
-0.0917889
11
1.11561
21
-0.0826374
0
LINE
8
BLACK
6
CONTINUOUS
10
1.11561
20
-0.0826374
11
1.10667
21
-0.0723906
0
LINE
8
BLACK
6
CONTINUOUS
10
1.10667
20
-0.0723906
11
1.09897
21
-0.0611843
0
LINE
8
BLACK
6
CONTINUOUS
10
1.09897
20
-0.0611843
11
1.09261
21
-0.049167
0
LINE
8
BLACK
6
CONTINUOUS
10
1.09261
20
-0.049167
11
1.08767
21
-0.0364981
0
LINE
8
BLACK
6
CONTINUOUS
10
1.08767
20
-0.0364981
11
1.08422
21
-0.0233454
0
LINE
8
BLACK
6
CONTINUOUS
10
1.08422
20
-0.0233454
11
1.0823
21
-0.00988323
0
LINE
8
BLACK
6
CONTINUOUS
10
1.0823
20
-0.00988323
11
1.08195
21
0.00370992
0
LINE
8
BLACK
6
CONTINUOUS
10
1.08195
20
0.00370992
11
1.08316
21
0.0172539
0
LINE
8
BLACK
6
CONTINUOUS
10
1.08316
20
0.0172539
11
1.08591
21
0.0305692
0
LINE
8
BLACK
6
CONTINUOUS
10
1.08591
20
0.0305692
11
1.09018
21
0.0434793
0
LINE
8
BLACK
6
CONTINUOUS
10
1.09018
20
0.0434793
11
1.09591
21
0.0558131
0
LINE
8
BLACK
6
CONTINUOUS
10
1.09591
20
0.0558131
11
1.10301
21
0.0674071
0
LINE
8
BLACK
6
CONTINUOUS
10
1.10301
20
0.0674071
11
1.1114
21
0.0781077
0
LINE
8
BLACK
6
CONTINUOUS
10
1.1114
20
0.0781077
11
1.12097
21
0.087773
0
LINE
8
BLACK
6
CONTINUOUS
10
1.12097
20
0.087773
11
1.13158
21
0.0962749
0
LINE
8
BLACK
6
CONTINUOUS
10
1.13158
20
0.0962749
11
1.1431
21
0.103501
0
LINE
8
BLACK
6
CONTINUOUS
10
1.1431
20
0.103501
11
1.15537
21
0.109355
0
LINE
8
BLACK
6
CONTINUOUS
10
1.15537
20
0.109355
11
1.16824
21
0.113759
0
LINE
8
BLACK
6
CONTINUOUS
10
1.16824
20
0.113759
11
1.18152
21
0.116656
0
LINE
8
BLACK
6
CONTINUOUS
10
1.18152
20
0.116656
11
1.19505
21
0.118007
0
LINE
8
BLACK
6
CONTINUOUS
10
1.19505
20
0.118007
11
1.20865
21
0.117793
0
LINE
8
BLACK
6
CONTINUOUS
10
-0.391454
20
0.048465
11
-0.383168
21
0.0462447
0
LINE
8
BLACK
6
CONTINUOUS
10
-0.383168
20
0.0462447
11
-0.375394
21
0.0426194
0
LINE
8
BLACK
6
CONTINUOUS
10
-0.375394
20
0.0426194
11
-0.368367
21
0.0376991
0
LINE
8
BLACK
6
CONTINUOUS
10
-0.368367
20
0.0376991
11
-0.362301
21
0.0316333
0
LINE
8
BLACK
6
CONTINUOUS
10
-0.362301
20
0.0316333
11
-0.357381
21
0.0246063
0
LINE
8
BLACK
6
CONTINUOUS
10
-0.357381
20
0.0246063
11
-0.353755
21
0.0168317
0
LINE
8
BLACK
6
CONTINUOUS
10
-0.353755
20
0.0168317
11
-0.351535
21
0.00854567
0
LINE
8
BLACK
6
CONTINUOUS
10
-0.351535
20
0.00854567
11
-0.350787
21
0
0
LINE
8
BLACK
6
CONTINUOUS
10
-0.350787
20
0
11
-0.351535
21
-0.00854567
0
LINE
8
BLACK
6
CONTINUOUS
10
-0.351535
20
-0.00854567
11
-0.353755
21
-0.0168317
0
LINE
8
BLACK
6
CONTINUOUS
10
-0.353755
20
-0.0168317
11
-0.357381
21
-0.0246063
0
LINE
8
BLACK
6
CONTINUOUS
10
-0.357381
20
-0.0246063
11
-0.362301
21
-0.0316333
0
LINE
8
BLACK
6
CONTINUOUS
10
-0.362301
20
-0.0316333
11
-0.368367
21
-0.0376991
0
LINE
8
BLACK
6
CONTINUOUS
10
-0.368367
20
-0.0376991
11
-0.375394
21
-0.0426194
0
LINE
8
BLACK
6
CONTINUOUS
10
-0.375394
20
-0.0426194
11
-0.383168
21
-0.0462447
0
LINE
8
BLACK
6
CONTINUOUS
10
-0.383168
20
-0.0462447
11
-0.391454
21
-0.048465
0
LINE
8
BLACK
6
CONTINUOUS
10
-0.391454
20
-0.048465
11
-0.4
21
-0.0492126
0
LINE
8
BLACK
6
CONTINUOUS
10
-0.4
20
-0.0492126
11
-0.408546
21
-0.048465
0
LINE
8
BLACK
6
CONTINUOUS
10
-0.408546
20
-0.048465
11
-0.416832
21
-0.0462447
0
LINE
8
BLACK
6
CONTINUOUS
10
-0.416832
20
-0.0462447
11
-0.424606
21
-0.0426194
0
LINE
8
BLACK
6
CONTINUOUS
10
-0.424606
20
-0.0426194
11
-0.431633
21
-0.0376991
0
LINE
8
BLACK
6
CONTINUOUS
10
-0.431633
20
-0.0376991
11
-0.437699
21
-0.0316333
0
LINE
8
BLACK
6
CONTINUOUS
10
-0.437699
20
-0.0316333
11
-0.442619
21
-0.0246063
0
LINE
8
BLACK
6
CONTINUOUS
10
-0.442619
20
-0.0246063
11
-0.446245
21
-0.0168317
0
LINE
8
BLACK
6
CONTINUOUS
10
-0.446245
20
-0.0168317
11
-0.448465
21
-0.00854567
0
LINE
8
BLACK
6
CONTINUOUS
10
-0.448465
20
-0.00854567
11
-0.449213
21
0
0
LINE
8
BLACK
6
CONTINUOUS
10
-0.449213
20
0
11
-0.448465
21
0.00854567
0
LINE
8
BLACK
6
CONTINUOUS
10
-0.448465
20
0.00854567
11
-0.446245
21
0.0168317
0
LINE
8
BLACK
6
CONTINUOUS
10
-0.446245
20
0.0168317
11
-0.442619
21
0.0246063
0
LINE
8
BLACK
6
CONTINUOUS
10
-0.442619
20
0.0246063
11
-0.437699
21
0.0316333
0
LINE
8
BLACK
6
CONTINUOUS
10
-0.437699
20
0.0316333
11
-0.431633
21
0.0376991
0
LINE
8
BLACK
6
CONTINUOUS
10
-0.431633
20
0.0376991
11
-0.424606
21
0.0426194
0
LINE
8
BLACK
6
CONTINUOUS
10
-0.424606
20
0.0426194
11
-0.416832
21
0.0462447
0
LINE
8
BLACK
6
CONTINUOUS
10
-0.416832
20
0.0462447
11
-0.408546
21
0.048465
0
LINE
8
BLACK
6
CONTINUOUS
10
-0.408546
20
0.048465
11
-0.4
21
0.0492126
0
LINE
8
BLACK
6
CONTINUOUS
10
-0.4
20
0.0492126
11
-0.391454
21
0.048465
0
LINE
8
BLACK
6
CONTINUOUS
10
-0.290771
20
0.152342
11
-0.281822
21
0.149944
0
LINE
8
BLACK
6
CONTINUOUS
10
-0.281822
20
0.149944
11
-0.273425
21
0.146029
0
LINE
8
BLACK
6
CONTINUOUS
10
-0.273425
20
0.146029
11
-0.265836
21
0.140715
0
LINE
8
BLACK
6
CONTINUOUS
10
-0.265836
20
0.140715
11
-0.259285
21
0.134164
0
LINE
8
BLACK
6
CONTINUOUS
10
-0.259285
20
0.134164
11
-0.253971
21
0.126575
0
LINE
8
BLACK
6
CONTINUOUS
10
-0.253971
20
0.126575
11
-0.250056
21
0.118178
0
LINE
8
BLACK
6
CONTINUOUS
10
-0.250056
20
0.118178
11
-0.247658
21
0.109229
0
LINE
8
BLACK
6
CONTINUOUS
10
-0.247658
20
0.109229
11
-0.24685
21
0.1
0
LINE
8
BLACK
6
CONTINUOUS
10
-0.24685
20
0.1
11
-0.247658
21
0.0907707
0
LINE
8
BLACK
6
CONTINUOUS
10
-0.247658
20
0.0907707
11
-0.250056
21
0.0818218
0
LINE
8
BLACK
6
CONTINUOUS
10
-0.250056
20
0.0818218
11
-0.253971
21
0.0734252
0
LINE
8
BLACK
6
CONTINUOUS
10
-0.253971
20
0.0734252
11
-0.259285
21
0.0658361
0
LINE
8
BLACK
6
CONTINUOUS
10
-0.259285
20
0.0658361
11
-0.265836
21
0.059285
0
LINE
8
BLACK
6
CONTINUOUS
10
-0.265836
20
0.059285
11
-0.273425
21
0.0539711
0
LINE
8
BLACK
6
CONTINUOUS
10
-0.273425
20
0.0539711
11
-0.281822
21
0.0500557
0
LINE
8
BLACK
6
CONTINUOUS
10
-0.281822
20
0.0500557
11
-0.290771
21
0.0476579
0
LINE
8
BLACK
6
CONTINUOUS
10
-0.290771
20
0.0476579
11
-0.3
21
0.0468504
0
LINE
8
BLACK
6
CONTINUOUS
10
-0.3
20
0.0468504
11
-0.309229
21
0.0476579
0
LINE
8
BLACK
6
CONTINUOUS
10
-0.309229
20
0.0476579
11
-0.318178
21
0.0500557
0
LINE
8
BLACK
6
CONTINUOUS
10
-0.318178
20
0.0500557
11
-0.326575
21
0.0539711
0
LINE
8
BLACK
6
CONTINUOUS
10
-0.326575
20
0.0539711
11
-0.334164
21
0.059285
0
LINE
8
BLACK
6
CONTINUOUS
10
-0.334164
20
0.059285
11
-0.340715
21
0.0658361
0
LINE
8
BLACK
6
CONTINUOUS
10
-0.340715
20
0.0658361
11
-0.346029
21
0.0734252
0
LINE
8
BLACK
6
CONTINUOUS
10
-0.346029
20
0.0734252
11
-0.349944
21
0.0818218
0
LINE
8
BLACK
6
CONTINUOUS
10
-0.349944
20
0.0818218
11
-0.352342
21
0.0907707
0
LINE
8
BLACK
6
CONTINUOUS
10
-0.352342
20
0.0907707
11
-0.35315
21
0.1
0
LINE
8
BLACK
6
CONTINUOUS
10
-0.35315
20
0.1
11
-0.352342
21
0.109229
0
LINE
8
BLACK
6
CONTINUOUS
10
-0.352342
20
0.109229
11
-0.349944
21
0.118178
0
LINE
8
BLACK
6
CONTINUOUS
10
-0.349944
20
0.118178
11
-0.346029
21
0.126575
0
LINE
8
BLACK
6
CONTINUOUS
10
-0.346029
20
0.126575
11
-0.340715
21
0.134164
0
LINE
8
BLACK
6
CONTINUOUS
10
-0.340715
20
0.134164
11
-0.334164
21
0.140715
0
LINE
8
BLACK
6
CONTINUOUS
10
-0.334164
20
0.140715
11
-0.326575
21
0.146029
0
LINE
8
BLACK
6
CONTINUOUS
10
-0.326575
20
0.146029
11
-0.318178
21
0.149944
0
LINE
8
BLACK
6
CONTINUOUS
10
-0.318178
20
0.149944
11
-0.309229
21
0.152342
0
LINE
8
BLACK
6
CONTINUOUS
10
-0.309229
20
0.152342
11
-0.3
21
0.15315
0
LINE
8
BLACK
6
CONTINUOUS
10
-0.3
20
0.15315
11
-0.290771
21
0.152342
0
LINE
8
BLACK
6
CONTINUOUS
10
-0.490771
20
0.152342
11
-0.481822
21
0.149944
0
LINE
8
BLACK
6
CONTINUOUS
10
-0.481822
20
0.149944
11
-0.473425
21
0.146029
0
LINE
8
BLACK
6
CONTINUOUS
10
-0.473425
20
0.146029
11
-0.465836
21
0.140715
0
LINE
8
BLACK
6
CONTINUOUS
10
-0.465836
20
0.140715
11
-0.459285
21
0.134164
0
LINE
8
BLACK
6
CONTINUOUS
10
-0.459285
20
0.134164
11
-0.453971
21
0.126575
0
LINE
8
BLACK
6
CONTINUOUS
10
-0.453971
20
0.126575
11
-0.450056
21
0.118178
0
LINE
8
BLACK
6
CONTINUOUS
10
-0.450056
20
0.118178
11
-0.447658
21
0.109229
0
LINE
8
BLACK
6
CONTINUOUS
10
-0.447658
20
0.109229
11
-0.44685
21
0.1
0
LINE
8
BLACK
6
CONTINUOUS
10
-0.44685
20
0.1
11
-0.447658
21
0.0907707
0
LINE
8
BLACK
6
CONTINUOUS
10
-0.447658
20
0.0907707
11
-0.450056
21
0.0818218
0
LINE
8
BLACK
6
CONTINUOUS
10
-0.450056
20
0.0818218
11
-0.453971
21
0.0734252
0
LINE
8
BLACK
6
CONTINUOUS
10
-0.453971
20
0.0734252
11
-0.459285
21
0.0658361
0
LINE
8
BLACK
6
CONTINUOUS
10
-0.459285
20
0.0658361
11
-0.465836
21
0.059285
0
LINE
8
BLACK
6
CONTINUOUS
10
-0.465836
20
0.059285
11
-0.473425
21
0.0539711
0
LINE
8
BLACK
6
CONTINUOUS
10
-0.473425
20
0.0539711
11
-0.481822
21
0.0500557
0
LINE
8
BLACK
6
CONTINUOUS
10
-0.481822
20
0.0500557
11
-0.490771
21
0.0476579
0
LINE
8
BLACK
6
CONTINUOUS
10
-0.490771
20
0.0476579
11
-0.5
21
0.0468504
0
LINE
8
BLACK
6
CONTINUOUS
10
-0.5
20
0.0468504
11
-0.509229
21
0.0476579
0
LINE
8
BLACK
6
CONTINUOUS
10
-0.509229
20
0.0476579
11
-0.518178
21
0.0500557
0
LINE
8
BLACK
6
CONTINUOUS
10
-0.518178
20
0.0500557
11
-0.526575
21
0.0539711
0
LINE
8
BLACK
6
CONTINUOUS
10
-0.526575
20
0.0539711
11
-0.534164
21
0.059285
0
LINE
8
BLACK
6
CONTINUOUS
10
-0.534164
20
0.059285
11
-0.540715
21
0.0658361
0
LINE
8
BLACK
6
CONTINUOUS
10
-0.540715
20
0.0658361
11
-0.546029
21
0.0734252
0
LINE
8
BLACK
6
CONTINUOUS
10
-0.546029
20
0.0734252
11
-0.549944
21
0.0818218
0
LINE
8
BLACK
6
CONTINUOUS
10
-0.549944
20
0.0818218
11
-0.552342
21
0.0907707
0
LINE
8
BLACK
6
CONTINUOUS
10
-0.552342
20
0.0907707
11
-0.55315
21
0.1
0
LINE
8
BLACK
6
CONTINUOUS
10
-0.55315
20
0.1
11
-0.552342
21
0.109229
0
LINE
8
BLACK
6
CONTINUOUS
10
-0.552342
20
0.109229
11
-0.549944
21
0.118178
0
LINE
8
BLACK
6
CONTINUOUS
10
-0.549944
20
0.118178
11
-0.546029
21
0.126575
0
LINE
8
BLACK
6
CONTINUOUS
10
-0.546029
20
0.126575
11
-0.540715
21
0.134164
0
LINE
8
BLACK
6
CONTINUOUS
10
-0.540715
20
0.134164
11
-0.534164
21
0.140715
0
LINE
8
BLACK
6
CONTINUOUS
10
-0.534164
20
0.140715
11
-0.526575
21
0.146029
0
LINE
8
BLACK
6
CONTINUOUS
10
-0.526575
20
0.146029
11
-0.518178
21
0.149944
0
LINE
8
BLACK
6
CONTINUOUS
10
-0.518178
20
0.149944
11
-0.509229
21
0.152342
0
LINE
8
BLACK
6
CONTINUOUS
10
-0.509229
20
0.152342
11
-0.5
21
0.15315
0
LINE
8
BLACK
6
CONTINUOUS
10
-0.5
20
0.15315
11
-0.490771
21
0.152342
0
LINE
8
BLACK
6
CONTINUOUS
10
-1.68
20
0.11
11
-1.74
21
0.11
0
LINE
8
BLACK
6
CONTINUOUS
10
-1.74
20
0.11
11
-1.74
21
0.17
0
LINE
8
BLACK
6
CONTINUOUS
10
-1.74
20
0.17
11
-1.68
21
0.17
0
LINE
8
BLACK
6
CONTINUOUS
10
-1.68
20
0.17
11
-1.68
21
0.11
0
LINE
8
BLACK
6
CONTINUOUS
10
-1.58
20
0.11
11
-1.64
21
0.11
0
LINE
8
BLACK
6
CONTINUOUS
10
-1.64
20
0.11
11
-1.64
21
0.17
0
LINE
8
BLACK
6
CONTINUOUS
10
-1.64
20
0.17
11
-1.58
21
0.17
0
LINE
8
BLACK
6
CONTINUOUS
10
-1.58
20
0.17
11
-1.58
21
0.11
0
LINE
8
BLACK
6
CONTINUOUS
10
-1.68
20
0.21
11
-1.74
21
0.21
0
LINE
8
BLACK
6
CONTINUOUS
10
-1.74
20
0.21
11
-1.74
21
0.27
0
LINE
8
BLACK
6
CONTINUOUS
10
-1.74
20
0.27
11
-1.68
21
0.27
0
LINE
8
BLACK
6
CONTINUOUS
10
-1.68
20
0.27
11
-1.68
21
0.21
0
LINE
8
BLACK
6
CONTINUOUS
10
-1.58
20
0.21
11
-1.64
21
0.21
0
LINE
8
BLACK
6
CONTINUOUS
10
-1.64
20
0.21
11
-1.64
21
0.27
0
LINE
8
BLACK
6
CONTINUOUS
10
-1.64
20
0.27
11
-1.58
21
0.27
0
LINE
8
BLACK
6
CONTINUOUS
10
-1.58
20
0.27
11
-1.58
21
0.21
0
LINE
8
BLACK
6
CONTINUOUS
10
-0.290771
20
0.352342
11
-0.281822
21
0.349944
0
LINE
8
BLACK
6
CONTINUOUS
10
-0.281822
20
0.349944
11
-0.273425
21
0.346029
0
LINE
8
BLACK
6
CONTINUOUS
10
-0.273425
20
0.346029
11
-0.265836
21
0.340715
0
LINE
8
BLACK
6
CONTINUOUS
10
-0.265836
20
0.340715
11
-0.259285
21
0.334164
0
LINE
8
BLACK
6
CONTINUOUS
10
-0.259285
20
0.334164
11
-0.253971
21
0.326575
0
LINE
8
BLACK
6
CONTINUOUS
10
-0.253971
20
0.326575
11
-0.250056
21
0.318178
0
LINE
8
BLACK
6
CONTINUOUS
10
-0.250056
20
0.318178
11
-0.247658
21
0.309229
0
LINE
8
BLACK
6
CONTINUOUS
10
-0.247658
20
0.309229
11
-0.24685
21
0.3
0
LINE
8
BLACK
6
CONTINUOUS
10
-0.24685
20
0.3
11
-0.247658
21
0.290771
0
LINE
8
BLACK
6
CONTINUOUS
10
-0.247658
20
0.290771
11
-0.250056
21
0.281822
0
LINE
8
BLACK
6
CONTINUOUS
10
-0.250056
20
0.281822
11
-0.253971
21
0.273425
0
LINE
8
BLACK
6
CONTINUOUS
10
-0.253971
20
0.273425
11
-0.259285
21
0.265836
0
LINE
8
BLACK
6
CONTINUOUS
10
-0.259285
20
0.265836
11
-0.265836
21
0.259285
0
LINE
8
BLACK
6
CONTINUOUS
10
-0.265836
20
0.259285
11
-0.273425
21
0.253971
0
LINE
8
BLACK
6
CONTINUOUS
10
-0.273425
20
0.253971
11
-0.281822
21
0.250056
0
LINE
8
BLACK
6
CONTINUOUS
10
-0.281822
20
0.250056
11
-0.290771
21
0.247658
0
LINE
8
BLACK
6
CONTINUOUS
10
-0.290771
20
0.247658
11
-0.3
21
0.24685
0
LINE
8
BLACK
6
CONTINUOUS
10
-0.3
20
0.24685
11
-0.309229
21
0.247658
0
LINE
8
BLACK
6
CONTINUOUS
10
-0.309229
20
0.247658
11
-0.318178
21
0.250056
0
LINE
8
BLACK
6
CONTINUOUS
10
-0.318178
20
0.250056
11
-0.326575
21
0.253971
0
LINE
8
BLACK
6
CONTINUOUS
10
-0.326575
20
0.253971
11
-0.334164
21
0.259285
0
LINE
8
BLACK
6
CONTINUOUS
10
-0.334164
20
0.259285
11
-0.340715
21
0.265836
0
LINE
8
BLACK
6
CONTINUOUS
10
-0.340715
20
0.265836
11
-0.346029
21
0.273425
0
LINE
8
BLACK
6
CONTINUOUS
10
-0.346029
20
0.273425
11
-0.349944
21
0.281822
0
LINE
8
BLACK
6
CONTINUOUS
10
-0.349944
20
0.281822
11
-0.352342
21
0.290771
0
LINE
8
BLACK
6
CONTINUOUS
10
-0.352342
20
0.290771
11
-0.35315
21
0.3
0
LINE
8
BLACK
6
CONTINUOUS
10
-0.35315
20
0.3
11
-0.352342
21
0.309229
0
LINE
8
BLACK
6
CONTINUOUS
10
-0.352342
20
0.309229
11
-0.349944
21
0.318178
0
LINE
8
BLACK
6
CONTINUOUS
10
-0.349944
20
0.318178
11
-0.346029
21
0.326575
0
LINE
8
BLACK
6
CONTINUOUS
10
-0.346029
20
0.326575
11
-0.340715
21
0.334164
0
LINE
8
BLACK
6
CONTINUOUS
10
-0.340715
20
0.334164
11
-0.334164
21
0.340715
0
LINE
8
BLACK
6
CONTINUOUS
10
-0.334164
20
0.340715
11
-0.326575
21
0.346029
0
LINE
8
BLACK
6
CONTINUOUS
10
-0.326575
20
0.346029
11
-0.318178
21
0.349944
0
LINE
8
BLACK
6
CONTINUOUS
10
-0.318178
20
0.349944
11
-0.309229
21
0.352342
0
LINE
8
BLACK
6
CONTINUOUS
10
-0.309229
20
0.352342
11
-0.3
21
0.35315
0
LINE
8
BLACK
6
CONTINUOUS
10
-0.3
20
0.35315
11
-0.290771
21
0.352342
0
LINE
8
BLACK
6
CONTINUOUS
10
-0.490771
20
0.352342
11
-0.481822
21
0.349944
0
LINE
8
BLACK
6
CONTINUOUS
10
-0.481822
20
0.349944
11
-0.473425
21
0.346029
0
LINE
8
BLACK
6
CONTINUOUS
10
-0.473425
20
0.346029
11
-0.465836
21
0.340715
0
LINE
8
BLACK
6
CONTINUOUS
10
-0.465836
20
0.340715
11
-0.459285
21
0.334164
0
LINE
8
BLACK
6
CONTINUOUS
10
-0.459285
20
0.334164
11
-0.453971
21
0.326575
0
LINE
8
BLACK
6
CONTINUOUS
10
-0.453971
20
0.326575
11
-0.450056
21
0.318178
0
LINE
8
BLACK
6
CONTINUOUS
10
-0.450056
20
0.318178
11
-0.447658
21
0.309229
0
LINE
8
BLACK
6
CONTINUOUS
10
-0.447658
20
0.309229
11
-0.44685
21
0.3
0
LINE
8
BLACK
6
CONTINUOUS
10
-0.44685
20
0.3
11
-0.447658
21
0.290771
0
LINE
8
BLACK
6
CONTINUOUS
10
-0.447658
20
0.290771
11
-0.450056
21
0.281822
0
LINE
8
BLACK
6
CONTINUOUS
10
-0.450056
20
0.281822
11
-0.453971
21
0.273425
0
LINE
8
BLACK
6
CONTINUOUS
10
-0.453971
20
0.273425
11
-0.459285
21
0.265836
0
LINE
8
BLACK
6
CONTINUOUS
10
-0.459285
20
0.265836
11
-0.465836
21
0.259285
0
LINE
8
BLACK
6
CONTINUOUS
10
-0.465836
20
0.259285
11
-0.473425
21
0.253971
0
LINE
8
BLACK
6
CONTINUOUS
10
-0.473425
20
0.253971
11
-0.481822
21
0.250056
0
LINE
8
BLACK
6
CONTINUOUS
10
-0.481822
20
0.250056
11
-0.490771
21
0.247658
0
LINE
8
BLACK
6
CONTINUOUS
10
-0.490771
20
0.247658
11
-0.5
21
0.24685
0
LINE
8
BLACK
6
CONTINUOUS
10
-0.5
20
0.24685
11
-0.509229
21
0.247658
0
LINE
8
BLACK
6
CONTINUOUS
10
-0.509229
20
0.247658
11
-0.518178
21
0.250056
0
LINE
8
BLACK
6
CONTINUOUS
10
-0.518178
20
0.250056
11
-0.526575
21
0.253971
0
LINE
8
BLACK
6
CONTINUOUS
10
-0.526575
20
0.253971
11
-0.534164
21
0.259285
0
LINE
8
BLACK
6
CONTINUOUS
10
-0.534164
20
0.259285
11
-0.540715
21
0.265836
0
LINE
8
BLACK
6
CONTINUOUS
10
-0.540715
20
0.265836
11
-0.546029
21
0.273425
0
LINE
8
BLACK
6
CONTINUOUS
10
-0.546029
20
0.273425
11
-0.549944
21
0.281822
0
LINE
8
BLACK
6
CONTINUOUS
10
-0.549944
20
0.281822
11
-0.552342
21
0.290771
0
LINE
8
BLACK
6
CONTINUOUS
10
-0.552342
20
0.290771
11
-0.55315
21
0.3
0
LINE
8
BLACK
6
CONTINUOUS
10
-0.55315
20
0.3
11
-0.552342
21
0.309229
0
LINE
8
BLACK
6
CONTINUOUS
10
-0.552342
20
0.309229
11
-0.549944
21
0.318178
0
LINE
8
BLACK
6
CONTINUOUS
10
-0.549944
20
0.318178
11
-0.546029
21
0.326575
0
LINE
8
BLACK
6
CONTINUOUS
10
-0.546029
20
0.326575
11
-0.540715
21
0.334164
0
LINE
8
BLACK
6
CONTINUOUS
10
-0.540715
20
0.334164
11
-0.534164
21
0.340715
0
LINE
8
BLACK
6
CONTINUOUS
10
-0.534164
20
0.340715
11
-0.526575
21
0.346029
0
LINE
8
BLACK
6
CONTINUOUS
10
-0.526575
20
0.346029
11
-0.518178
21
0.349944
0
LINE
8
BLACK
6
CONTINUOUS
10
-0.518178
20
0.349944
11
-0.509229
21
0.352342
0
LINE
8
BLACK
6
CONTINUOUS
10
-0.509229
20
0.352342
11
-0.5
21
0.35315
0
LINE
8
BLACK
6
CONTINUOUS
10
-0.5
20
0.35315
11
-0.490771
21
0.352342
0
LINE
8
BLACK
6
CONTINUOUS
10
-1.58
20
0.31
11
-1.64
21
0.31
0
LINE
8
BLACK
6
CONTINUOUS
10
-1.64
20
0.31
11
-1.64
21
0.37
0
LINE
8
BLACK
6
CONTINUOUS
10
-1.64
20
0.37
11
-1.58
21
0.37
0
LINE
8
BLACK
6
CONTINUOUS
10
-1.58
20
0.37
11
-1.58
21
0.31
0
LINE
8
BLACK
6
CONTINUOUS
10
-1.68
20
0.31
11
-1.74
21
0.31
0
LINE
8
BLACK
6
CONTINUOUS
10
-1.74
20
0.31
11
-1.74
21
0.37
0
LINE
8
BLACK
6
CONTINUOUS
10
-1.74
20
0.37
11
-1.68
21
0.37
0
LINE
8
BLACK
6
CONTINUOUS
10
-1.68
20
0.37
11
-1.68
21
0.31
0
LINE
8
BLACK
6
CONTINUOUS
10
-0.391454
20
0.448465
11
-0.383168
21
0.446245
0
LINE
8
BLACK
6
CONTINUOUS
10
-0.383168
20
0.446245
11
-0.375394
21
0.442619
0
LINE
8
BLACK
6
CONTINUOUS
10
-0.375394
20
0.442619
11
-0.368367
21
0.437699
0
LINE
8
BLACK
6
CONTINUOUS
10
-0.368367
20
0.437699
11
-0.362301
21
0.431633
0
LINE
8
BLACK
6
CONTINUOUS
10
-0.362301
20
0.431633
11
-0.357381
21
0.424606
0
LINE
8
BLACK
6
CONTINUOUS
10
-0.357381
20
0.424606
11
-0.353755
21
0.416832
0
LINE
8
BLACK
6
CONTINUOUS
10
-0.353755
20
0.416832
11
-0.351535
21
0.408546
0
LINE
8
BLACK
6
CONTINUOUS
10
-0.351535
20
0.408546
11
-0.350787
21
0.4
0
LINE
8
BLACK
6
CONTINUOUS
10
-0.350787
20
0.4
11
-0.351535
21
0.391454
0
LINE
8
BLACK
6
CONTINUOUS
10
-0.351535
20
0.391454
11
-0.353755
21
0.383168
0
LINE
8
BLACK
6
CONTINUOUS
10
-0.353755
20
0.383168
11
-0.357381
21
0.375394
0
LINE
8
BLACK
6
CONTINUOUS
10
-0.357381
20
0.375394
11
-0.362301
21
0.368367
0
LINE
8
BLACK
6
CONTINUOUS
10
-0.362301
20
0.368367
11
-0.368367
21
0.362301
0
LINE
8
BLACK
6
CONTINUOUS
10
-0.368367
20
0.362301
11
-0.375394
21
0.357381
0
LINE
8
BLACK
6
CONTINUOUS
10
-0.375394
20
0.357381
11
-0.383168
21
0.353755
0
LINE
8
BLACK
6
CONTINUOUS
10
-0.383168
20
0.353755
11
-0.391454
21
0.351535
0
LINE
8
BLACK
6
CONTINUOUS
10
-0.391454
20
0.351535
11
-0.4
21
0.350787
0
LINE
8
BLACK
6
CONTINUOUS
10
-0.4
20
0.350787
11
-0.408546
21
0.351535
0
LINE
8
BLACK
6
CONTINUOUS
10
-0.408546
20
0.351535
11
-0.416832
21
0.353755
0
LINE
8
BLACK
6
CONTINUOUS
10
-0.416832
20
0.353755
11
-0.424606
21
0.357381
0
LINE
8
BLACK
6
CONTINUOUS
10
-0.424606
20
0.357381
11
-0.431633
21
0.362301
0
LINE
8
BLACK
6
CONTINUOUS
10
-0.431633
20
0.362301
11
-0.437699
21
0.368367
0
LINE
8
BLACK
6
CONTINUOUS
10
-0.437699
20
0.368367
11
-0.442619
21
0.375394
0
LINE
8
BLACK
6
CONTINUOUS
10
-0.442619
20
0.375394
11
-0.446245
21
0.383168
0
LINE
8
BLACK
6
CONTINUOUS
10
-0.446245
20
0.383168
11
-0.448465
21
0.391454
0
LINE
8
BLACK
6
CONTINUOUS
10
-0.448465
20
0.391454
11
-0.449213
21
0.4
0
LINE
8
BLACK
6
CONTINUOUS
10
-0.449213
20
0.4
11
-0.448465
21
0.408546
0
LINE
8
BLACK
6
CONTINUOUS
10
-0.448465
20
0.408546
11
-0.446245
21
0.416832
0
LINE
8
BLACK
6
CONTINUOUS
10
-0.446245
20
0.416832
11
-0.442619
21
0.424606
0
LINE
8
BLACK
6
CONTINUOUS
10
-0.442619
20
0.424606
11
-0.437699
21
0.431633
0
LINE
8
BLACK
6
CONTINUOUS
10
-0.437699
20
0.431633
11
-0.431633
21
0.437699
0
LINE
8
BLACK
6
CONTINUOUS
10
-0.431633
20
0.437699
11
-0.424606
21
0.442619
0
LINE
8
BLACK
6
CONTINUOUS
10
-0.424606
20
0.442619
11
-0.416832
21
0.446245
0
LINE
8
BLACK
6
CONTINUOUS
10
-0.416832
20
0.446245
11
-0.408546
21
0.448465
0
LINE
8
BLACK
6
CONTINUOUS
10
-0.408546
20
0.448465
11
-0.4
21
0.449213
0
LINE
8
BLACK
6
CONTINUOUS
10
-0.4
20
0.449213
11
-0.391454
21
0.448465
0
LINE
8
BLACK
6
CONTINUOUS
10
0.451011
20
0.427794
11
0.454204
21
0.425661
0
LINE
8
BLACK
6
CONTINUOUS
10
0.454204
20
0.425661
11
0.456337
21
0.422467
0
LINE
8
BLACK
6
CONTINUOUS
10
0.456337
20
0.422467
11
0.457087
21
0.418701
0
LINE
8
BLACK
6
CONTINUOUS
10
0.457087
20
0.418701
11
0.457087
21
0.381299
0
LINE
8
BLACK
6
CONTINUOUS
10
0.457087
20
0.381299
11
0.456337
21
0.377533
0
LINE
8
BLACK
6
CONTINUOUS
10
0.456337
20
0.377533
11
0.454204
21
0.374339
0
LINE
8
BLACK
6
CONTINUOUS
10
0.454204
20
0.374339
11
0.451011
21
0.372206
0
LINE
8
BLACK
6
CONTINUOUS
10
0.451011
20
0.372206
11
0.447244
21
0.371457
0
LINE
8
BLACK
6
CONTINUOUS
10
0.447244
20
0.371457
11
0.427559
21
0.371457
0
LINE
8
BLACK
6
CONTINUOUS
10
0.427559
20
0.371457
11
0.423792
21
0.372206
0
LINE
8
BLACK
6
CONTINUOUS
10
0.423792
20
0.372206
11
0.420599
21
0.374339
0
LINE
8
BLACK
6
CONTINUOUS
10
0.420599
20
0.374339
11
0.418466
21
0.377533
0
LINE
8
BLACK
6
CONTINUOUS
10
0.418466
20
0.377533
11
0.417717
21
0.381299
0
LINE
8
BLACK
6
CONTINUOUS
10
0.417717
20
0.381299
11
0.417717
21
0.418701
0
LINE
8
BLACK
6
CONTINUOUS
10
0.417717
20
0.418701
11
0.418466
21
0.422467
0
LINE
8
BLACK
6
CONTINUOUS
10
0.418466
20
0.422467
11
0.420599
21
0.425661
0
LINE
8
BLACK
6
CONTINUOUS
10
0.420599
20
0.425661
11
0.423792
21
0.427794
0
LINE
8
BLACK
6
CONTINUOUS
10
0.423792
20
0.427794
11
0.427559
21
0.428543
0
LINE
8
BLACK
6
CONTINUOUS
10
0.427559
20
0.428543
11
0.447244
21
0.428543
0
LINE
8
BLACK
6
CONTINUOUS
10
0.447244
20
0.428543
11
0.451011
21
0.427794
0
LINE
8
BLACK
6
CONTINUOUS
10
0.376208
20
0.427794
11
0.379401
21
0.425661
0
LINE
8
BLACK
6
CONTINUOUS
10
0.379401
20
0.425661
11
0.381534
21
0.422467
0
LINE
8
BLACK
6
CONTINUOUS
10
0.381534
20
0.422467
11
0.382283
21
0.418701
0
LINE
8
BLACK
6
CONTINUOUS
10
0.382283
20
0.418701
11
0.382283
21
0.381299
0
LINE
8
BLACK
6
CONTINUOUS
10
0.382283
20
0.381299
11
0.381534
21
0.377533
0
LINE
8
BLACK
6
CONTINUOUS
10
0.381534
20
0.377533
11
0.379401
21
0.374339
0
LINE
8
BLACK
6
CONTINUOUS
10
0.379401
20
0.374339
11
0.376208
21
0.372206
0
LINE
8
BLACK
6
CONTINUOUS
10
0.376208
20
0.372206
11
0.372441
21
0.371457
0
LINE
8
BLACK
6
CONTINUOUS
10
0.372441
20
0.371457
11
0.352756
21
0.371457
0
LINE
8
BLACK
6
CONTINUOUS
10
0.352756
20
0.371457
11
0.348989
21
0.372206
0
LINE
8
BLACK
6
CONTINUOUS
10
0.348989
20
0.372206
11
0.345796
21
0.374339
0
LINE
8
BLACK
6
CONTINUOUS
10
0.345796
20
0.374339
11
0.343663
21
0.377533
0
LINE
8
BLACK
6
CONTINUOUS
10
0.343663
20
0.377533
11
0.342913
21
0.381299
0
LINE
8
BLACK
6
CONTINUOUS
10
0.342913
20
0.381299
11
0.342913
21
0.418701
0
LINE
8
BLACK
6
CONTINUOUS
10
0.342913
20
0.418701
11
0.343663
21
0.422467
0
LINE
8
BLACK
6
CONTINUOUS
10
0.343663
20
0.422467
11
0.345796
21
0.425661
0
LINE
8
BLACK
6
CONTINUOUS
10
0.345796
20
0.425661
11
0.348989
21
0.427794
0
LINE
8
BLACK
6
CONTINUOUS
10
0.348989
20
0.427794
11
0.352756
21
0.428543
0
LINE
8
BLACK
6
CONTINUOUS
10
0.352756
20
0.428543
11
0.372441
21
0.428543
0
LINE
8
BLACK
6
CONTINUOUS
10
0.372441
20
0.428543
11
0.376208
21
0.427794
0
LINE
8
BLACK
6
CONTINUOUS
10
-1.58
20
0.41
11
-1.64
21
0.41
0
LINE
8
BLACK
6
CONTINUOUS
10
-1.64
20
0.41
11
-1.64
21
0.47
0
LINE
8
BLACK
6
CONTINUOUS
10
-1.64
20
0.47
11
-1.58
21
0.47
0
LINE
8
BLACK
6
CONTINUOUS
10
-1.58
20
0.47
11
-1.58
21
0.41
0
LINE
8
BLACK
6
CONTINUOUS
10
-1.68
20
0.41
11
-1.74
21
0.41
0
LINE
8
BLACK
6
CONTINUOUS
10
-1.74
20
0.41
11
-1.74
21
0.47
0
LINE
8
BLACK
6
CONTINUOUS
10
-1.74
20
0.47
11
-1.68
21
0.47
0
LINE
8
BLACK
6
CONTINUOUS
10
-1.68
20
0.47
11
-1.68
21
0.41
0
LINE
8
BLACK
6
CONTINUOUS
10
-0.490771
20
0.552342
11
-0.481822
21
0.549944
0
LINE
8
BLACK
6
CONTINUOUS
10
-0.481822
20
0.549944
11
-0.473425
21
0.546029
0
LINE
8
BLACK
6
CONTINUOUS
10
-0.473425
20
0.546029
11
-0.465836
21
0.540715
0
LINE
8
BLACK
6
CONTINUOUS
10
-0.465836
20
0.540715
11
-0.459285
21
0.534164
0
LINE
8
BLACK
6
CONTINUOUS
10
-0.459285
20
0.534164
11
-0.453971
21
0.526575
0
LINE
8
BLACK
6
CONTINUOUS
10
-0.453971
20
0.526575
11
-0.450056
21
0.518178
0
LINE
8
BLACK
6
CONTINUOUS
10
-0.450056
20
0.518178
11
-0.447658
21
0.509229
0
LINE
8
BLACK
6
CONTINUOUS
10
-0.447658
20
0.509229
11
-0.44685
21
0.5
0
LINE
8
BLACK
6
CONTINUOUS
10
-0.44685
20
0.5
11
-0.447658
21
0.490771
0
LINE
8
BLACK
6
CONTINUOUS
10
-0.447658
20
0.490771
11
-0.450056
21
0.481822
0
LINE
8
BLACK
6
CONTINUOUS
10
-0.450056
20
0.481822
11
-0.453971
21
0.473425
0
LINE
8
BLACK
6
CONTINUOUS
10
-0.453971
20
0.473425
11
-0.459285
21
0.465836
0
LINE
8
BLACK
6
CONTINUOUS
10
-0.459285
20
0.465836
11
-0.465836
21
0.459285
0
LINE
8
BLACK
6
CONTINUOUS
10
-0.465836
20
0.459285
11
-0.473425
21
0.453971
0
LINE
8
BLACK
6
CONTINUOUS
10
-0.473425
20
0.453971
11
-0.481822
21
0.450056
0
LINE
8
BLACK
6
CONTINUOUS
10
-0.481822
20
0.450056
11
-0.490771
21
0.447658
0
LINE
8
BLACK
6
CONTINUOUS
10
-0.490771
20
0.447658
11
-0.5
21
0.44685
0
LINE
8
BLACK
6
CONTINUOUS
10
-0.5
20
0.44685
11
-0.509229
21
0.447658
0
LINE
8
BLACK
6
CONTINUOUS
10
-0.509229
20
0.447658
11
-0.518178
21
0.450056
0
LINE
8
BLACK
6
CONTINUOUS
10
-0.518178
20
0.450056
11
-0.526575
21
0.453971
0
LINE
8
BLACK
6
CONTINUOUS
10
-0.526575
20
0.453971
11
-0.534164
21
0.459285
0
LINE
8
BLACK
6
CONTINUOUS
10
-0.534164
20
0.459285
11
-0.540715
21
0.465836
0
LINE
8
BLACK
6
CONTINUOUS
10
-0.540715
20
0.465836
11
-0.546029
21
0.473425
0
LINE
8
BLACK
6
CONTINUOUS
10
-0.546029
20
0.473425
11
-0.549944
21
0.481822
0
LINE
8
BLACK
6
CONTINUOUS
10
-0.549944
20
0.481822
11
-0.552342
21
0.490771
0
LINE
8
BLACK
6
CONTINUOUS
10
-0.552342
20
0.490771
11
-0.55315
21
0.5
0
LINE
8
BLACK
6
CONTINUOUS
10
-0.55315
20
0.5
11
-0.552342
21
0.509229
0
LINE
8
BLACK
6
CONTINUOUS
10
-0.552342
20
0.509229
11
-0.549944
21
0.518178
0
LINE
8
BLACK
6
CONTINUOUS
10
-0.549944
20
0.518178
11
-0.546029
21
0.526575
0
LINE
8
BLACK
6
CONTINUOUS
10
-0.546029
20
0.526575
11
-0.540715
21
0.534164
0
LINE
8
BLACK
6
CONTINUOUS
10
-0.540715
20
0.534164
11
-0.534164
21
0.540715
0
LINE
8
BLACK
6
CONTINUOUS
10
-0.534164
20
0.540715
11
-0.526575
21
0.546029
0
LINE
8
BLACK
6
CONTINUOUS
10
-0.526575
20
0.546029
11
-0.518178
21
0.549944
0
LINE
8
BLACK
6
CONTINUOUS
10
-0.518178
20
0.549944
11
-0.509229
21
0.552342
0
LINE
8
BLACK
6
CONTINUOUS
10
-0.509229
20
0.552342
11
-0.5
21
0.55315
0
LINE
8
BLACK
6
CONTINUOUS
10
-0.5
20
0.55315
11
-0.490771
21
0.552342
0
LINE
8
BLACK
6
CONTINUOUS
10
-0.290771
20
0.552342
11
-0.281822
21
0.549944
0
LINE
8
BLACK
6
CONTINUOUS
10
-0.281822
20
0.549944
11
-0.273425
21
0.546029
0
LINE
8
BLACK
6
CONTINUOUS
10
-0.273425
20
0.546029
11
-0.265836
21
0.540715
0
LINE
8
BLACK
6
CONTINUOUS
10
-0.265836
20
0.540715
11
-0.259285
21
0.534164
0
LINE
8
BLACK
6
CONTINUOUS
10
-0.259285
20
0.534164
11
-0.253971
21
0.526575
0
LINE
8
BLACK
6
CONTINUOUS
10
-0.253971
20
0.526575
11
-0.250056
21
0.518178
0
LINE
8
BLACK
6
CONTINUOUS
10
-0.250056
20
0.518178
11
-0.247658
21
0.509229
0
LINE
8
BLACK
6
CONTINUOUS
10
-0.247658
20
0.509229
11
-0.24685
21
0.5
0
LINE
8
BLACK
6
CONTINUOUS
10
-0.24685
20
0.5
11
-0.247658
21
0.490771
0
LINE
8
BLACK
6
CONTINUOUS
10
-0.247658
20
0.490771
11
-0.250056
21
0.481822
0
LINE
8
BLACK
6
CONTINUOUS
10
-0.250056
20
0.481822
11
-0.253971
21
0.473425
0
LINE
8
BLACK
6
CONTINUOUS
10
-0.253971
20
0.473425
11
-0.259285
21
0.465836
0
LINE
8
BLACK
6
CONTINUOUS
10
-0.259285
20
0.465836
11
-0.265836
21
0.459285
0
LINE
8
BLACK
6
CONTINUOUS
10
-0.265836
20
0.459285
11
-0.273425
21
0.453971
0
LINE
8
BLACK
6
CONTINUOUS
10
-0.273425
20
0.453971
11
-0.281822
21
0.450056
0
LINE
8
BLACK
6
CONTINUOUS
10
-0.281822
20
0.450056
11
-0.290771
21
0.447658
0
LINE
8
BLACK
6
CONTINUOUS
10
-0.290771
20
0.447658
11
-0.3
21
0.44685
0
LINE
8
BLACK
6
CONTINUOUS
10
-0.3
20
0.44685
11
-0.309229
21
0.447658
0
LINE
8
BLACK
6
CONTINUOUS
10
-0.309229
20
0.447658
11
-0.318178
21
0.450056
0
LINE
8
BLACK
6
CONTINUOUS
10
-0.318178
20
0.450056
11
-0.326575
21
0.453971
0
LINE
8
BLACK
6
CONTINUOUS
10
-0.326575
20
0.453971
11
-0.334164
21
0.459285
0
LINE
8
BLACK
6
CONTINUOUS
10
-0.334164
20
0.459285
11
-0.340715
21
0.465836
0
LINE
8
BLACK
6
CONTINUOUS
10
-0.340715
20
0.465836
11
-0.346029
21
0.473425
0
LINE
8
BLACK
6
CONTINUOUS
10
-0.346029
20
0.473425
11
-0.349944
21
0.481822
0
LINE
8
BLACK
6
CONTINUOUS
10
-0.349944
20
0.481822
11
-0.352342
21
0.490771
0
LINE
8
BLACK
6
CONTINUOUS
10
-0.352342
20
0.490771
11
-0.35315
21
0.5
0
LINE
8
BLACK
6
CONTINUOUS
10
-0.35315
20
0.5
11
-0.352342
21
0.509229
0
LINE
8
BLACK
6
CONTINUOUS
10
-0.352342
20
0.509229
11
-0.349944
21
0.518178
0
LINE
8
BLACK
6
CONTINUOUS
10
-0.349944
20
0.518178
11
-0.346029
21
0.526575
0
LINE
8
BLACK
6
CONTINUOUS
10
-0.346029
20
0.526575
11
-0.340715
21
0.534164
0
LINE
8
BLACK
6
CONTINUOUS
10
-0.340715
20
0.534164
11
-0.334164
21
0.540715
0
LINE
8
BLACK
6
CONTINUOUS
10
-0.334164
20
0.540715
11
-0.326575
21
0.546029
0
LINE
8
BLACK
6
CONTINUOUS
10
-0.326575
20
0.546029
11
-0.318178
21
0.549944
0
LINE
8
BLACK
6
CONTINUOUS
10
-0.318178
20
0.549944
11
-0.309229
21
0.552342
0
LINE
8
BLACK
6
CONTINUOUS
10
-0.309229
20
0.552342
11
-0.3
21
0.55315
0
LINE
8
BLACK
6
CONTINUOUS
10
-0.3
20
0.55315
11
-0.290771
21
0.552342
0
LINE
8
BLACK
6
CONTINUOUS
10
1.28
20
0.47
11
1.22
21
0.47
0
LINE
8
BLACK
6
CONTINUOUS
10
1.22
20
0.47
11
1.22
21
0.53
0
LINE
8
BLACK
6
CONTINUOUS
10
1.22
20
0.53
11
1.28
21
0.53
0
LINE
8
BLACK
6
CONTINUOUS
10
1.28
20
0.53
11
1.28
21
0.47
0
LINE
8
BLACK
6
CONTINUOUS
10
1.18
20
0.47
11
1.12
21
0.47
0
LINE
8
BLACK
6
CONTINUOUS
10
1.12
20
0.47
11
1.12
21
0.53
0
LINE
8
BLACK
6
CONTINUOUS
10
1.12
20
0.53
11
1.18
21
0.53
0
LINE
8
BLACK
6
CONTINUOUS
10
1.18
20
0.53
11
1.18
21
0.47
0
LINE
8
BLACK
6
CONTINUOUS
10
1.18
20
0.57
11
1.12
21
0.57
0
LINE
8
BLACK
6
CONTINUOUS
10
1.12
20
0.57
11
1.12
21
0.63
0
LINE
8
BLACK
6
CONTINUOUS
10
1.12
20
0.63
11
1.18
21
0.63
0
LINE
8
BLACK
6
CONTINUOUS
10
1.18
20
0.63
11
1.18
21
0.57
0
LINE
8
BLACK
6
CONTINUOUS
10
1.28
20
0.57
11
1.22
21
0.57
0
LINE
8
BLACK
6
CONTINUOUS
10
1.22
20
0.57
11
1.22
21
0.63
0
LINE
8
BLACK
6
CONTINUOUS
10
1.22
20
0.63
11
1.28
21
0.63
0
LINE
8
BLACK
6
CONTINUOUS
10
1.28
20
0.63
11
1.28
21
0.57
0
LINE
8
BLACK
6
CONTINUOUS
10
0.770472
20
0.608971
11
0.672047
21
0.608971
0
LINE
8
BLACK
6
CONTINUOUS
10
0.672047
20
0.608971
11
0.672047
21
0.679837
0
LINE
8
BLACK
6
CONTINUOUS
10
0.672047
20
0.679837
11
0.770472
21
0.679837
0
LINE
8
BLACK
6
CONTINUOUS
10
0.770472
20
0.679837
11
0.770472
21
0.608971
0
LINE
8
BLACK
6
CONTINUOUS
10
0.927953
20
0.608971
11
0.829528
21
0.608971
0
LINE
8
BLACK
6
CONTINUOUS
10
0.829528
20
0.608971
11
0.829528
21
0.679837
0
LINE
8
BLACK
6
CONTINUOUS
10
0.829528
20
0.679837
11
0.927953
21
0.679837
0
LINE
8
BLACK
6
CONTINUOUS
10
0.927953
20
0.679837
11
0.927953
21
0.608971
0
LINE
8
BLACK
6
CONTINUOUS
10
-1.71102
20
0.630787
11
-1.77102
21
0.630787
0
LINE
8
BLACK
6
CONTINUOUS
10
-1.77102
20
0.630787
11
-1.77102
21
0.690787
0
LINE
8
BLACK
6
CONTINUOUS
10
-1.77102
20
0.690787
11
-1.71102
21
0.690787
0
LINE
8
BLACK
6
CONTINUOUS
10
-1.71102
20
0.690787
11
-1.71102
21
0.630787
0
LINE
8
BLACK
6
CONTINUOUS
10
-1.61102
20
0.630787
11
-1.67102
21
0.630787
0
LINE
8
BLACK
6
CONTINUOUS
10
-1.67102
20
0.630787
11
-1.67102
21
0.690787
0
LINE
8
BLACK
6
CONTINUOUS
10
-1.67102
20
0.690787
11
-1.61102
21
0.690787
0
LINE
8
BLACK
6
CONTINUOUS
10
-1.61102
20
0.690787
11
-1.61102
21
0.630787
0
LINE
8
BLACK
6
CONTINUOUS
10
-0.290771
20
0.752342
11
-0.281822
21
0.749944
0
LINE
8
BLACK
6
CONTINUOUS
10
-0.281822
20
0.749944
11
-0.273425
21
0.746029
0
LINE
8
BLACK
6
CONTINUOUS
10
-0.273425
20
0.746029
11
-0.265836
21
0.740715
0
LINE
8
BLACK
6
CONTINUOUS
10
-0.265836
20
0.740715
11
-0.259285
21
0.734164
0
LINE
8
BLACK
6
CONTINUOUS
10
-0.259285
20
0.734164
11
-0.253971
21
0.726575
0
LINE
8
BLACK
6
CONTINUOUS
10
-0.253971
20
0.726575
11
-0.250056
21
0.718178
0
LINE
8
BLACK
6
CONTINUOUS
10
-0.250056
20
0.718178
11
-0.247658
21
0.709229
0
LINE
8
BLACK
6
CONTINUOUS
10
-0.247658
20
0.709229
11
-0.24685
21
0.7
0
LINE
8
BLACK
6
CONTINUOUS
10
-0.24685
20
0.7
11
-0.247658
21
0.690771
0
LINE
8
BLACK
6
CONTINUOUS
10
-0.247658
20
0.690771
11
-0.250056
21
0.681822
0
LINE
8
BLACK
6
CONTINUOUS
10
-0.250056
20
0.681822
11
-0.253971
21
0.673425
0
LINE
8
BLACK
6
CONTINUOUS
10
-0.253971
20
0.673425
11
-0.259285
21
0.665836
0
LINE
8
BLACK
6
CONTINUOUS
10
-0.259285
20
0.665836
11
-0.265836
21
0.659285
0
LINE
8
BLACK
6
CONTINUOUS
10
-0.265836
20
0.659285
11
-0.273425
21
0.653971
0
LINE
8
BLACK
6
CONTINUOUS
10
-0.273425
20
0.653971
11
-0.281822
21
0.650056
0
LINE
8
BLACK
6
CONTINUOUS
10
-0.281822
20
0.650056
11
-0.290771
21
0.647658
0
LINE
8
BLACK
6
CONTINUOUS
10
-0.290771
20
0.647658
11
-0.3
21
0.64685
0
LINE
8
BLACK
6
CONTINUOUS
10
-0.3
20
0.64685
11
-0.309229
21
0.647658
0
LINE
8
BLACK
6
CONTINUOUS
10
-0.309229
20
0.647658
11
-0.318178
21
0.650056
0
LINE
8
BLACK
6
CONTINUOUS
10
-0.318178
20
0.650056
11
-0.326575
21
0.653971
0
LINE
8
BLACK
6
CONTINUOUS
10
-0.326575
20
0.653971
11
-0.334164
21
0.659285
0
LINE
8
BLACK
6
CONTINUOUS
10
-0.334164
20
0.659285
11
-0.340715
21
0.665836
0
LINE
8
BLACK
6
CONTINUOUS
10
-0.340715
20
0.665836
11
-0.346029
21
0.673425
0
LINE
8
BLACK
6
CONTINUOUS
10
-0.346029
20
0.673425
11
-0.349944
21
0.681822
0
LINE
8
BLACK
6
CONTINUOUS
10
-0.349944
20
0.681822
11
-0.352342
21
0.690771
0
LINE
8
BLACK
6
CONTINUOUS
10
-0.352342
20
0.690771
11
-0.35315
21
0.7
0
LINE
8
BLACK
6
CONTINUOUS
10
-0.35315
20
0.7
11
-0.352342
21
0.709229
0
LINE
8
BLACK
6
CONTINUOUS
10
-0.352342
20
0.709229
11
-0.349944
21
0.718178
0
LINE
8
BLACK
6
CONTINUOUS
10
-0.349944
20
0.718178
11
-0.346029
21
0.726575
0
LINE
8
BLACK
6
CONTINUOUS
10
-0.346029
20
0.726575
11
-0.340715
21
0.734164
0
LINE
8
BLACK
6
CONTINUOUS
10
-0.340715
20
0.734164
11
-0.334164
21
0.740715
0
LINE
8
BLACK
6
CONTINUOUS
10
-0.334164
20
0.740715
11
-0.326575
21
0.746029
0
LINE
8
BLACK
6
CONTINUOUS
10
-0.326575
20
0.746029
11
-0.318178
21
0.749944
0
LINE
8
BLACK
6
CONTINUOUS
10
-0.318178
20
0.749944
11
-0.309229
21
0.752342
0
LINE
8
BLACK
6
CONTINUOUS
10
-0.309229
20
0.752342
11
-0.3
21
0.75315
0
LINE
8
BLACK
6
CONTINUOUS
10
-0.3
20
0.75315
11
-0.290771
21
0.752342
0
LINE
8
BLACK
6
CONTINUOUS
10
-0.490771
20
0.752342
11
-0.481822
21
0.749944
0
LINE
8
BLACK
6
CONTINUOUS
10
-0.481822
20
0.749944
11
-0.473425
21
0.746029
0
LINE
8
BLACK
6
CONTINUOUS
10
-0.473425
20
0.746029
11
-0.465836
21
0.740715
0
LINE
8
BLACK
6
CONTINUOUS
10
-0.465836
20
0.740715
11
-0.459285
21
0.734164
0
LINE
8
BLACK
6
CONTINUOUS
10
-0.459285
20
0.734164
11
-0.453971
21
0.726575
0
LINE
8
BLACK
6
CONTINUOUS
10
-0.453971
20
0.726575
11
-0.450056
21
0.718178
0
LINE
8
BLACK
6
CONTINUOUS
10
-0.450056
20
0.718178
11
-0.447658
21
0.709229
0
LINE
8
BLACK
6
CONTINUOUS
10
-0.447658
20
0.709229
11
-0.44685
21
0.7
0
LINE
8
BLACK
6
CONTINUOUS
10
-0.44685
20
0.7
11
-0.447658
21
0.690771
0
LINE
8
BLACK
6
CONTINUOUS
10
-0.447658
20
0.690771
11
-0.450056
21
0.681822
0
LINE
8
BLACK
6
CONTINUOUS
10
-0.450056
20
0.681822
11
-0.453971
21
0.673425
0
LINE
8
BLACK
6
CONTINUOUS
10
-0.453971
20
0.673425
11
-0.459285
21
0.665836
0
LINE
8
BLACK
6
CONTINUOUS
10
-0.459285
20
0.665836
11
-0.465836
21
0.659285
0
LINE
8
BLACK
6
CONTINUOUS
10
-0.465836
20
0.659285
11
-0.473425
21
0.653971
0
LINE
8
BLACK
6
CONTINUOUS
10
-0.473425
20
0.653971
11
-0.481822
21
0.650056
0
LINE
8
BLACK
6
CONTINUOUS
10
-0.481822
20
0.650056
11
-0.490771
21
0.647658
0
LINE
8
BLACK
6
CONTINUOUS
10
-0.490771
20
0.647658
11
-0.5
21
0.64685
0
LINE
8
BLACK
6
CONTINUOUS
10
-0.5
20
0.64685
11
-0.509229
21
0.647658
0
LINE
8
BLACK
6
CONTINUOUS
10
-0.509229
20
0.647658
11
-0.518178
21
0.650056
0
LINE
8
BLACK
6
CONTINUOUS
10
-0.518178
20
0.650056
11
-0.526575
21
0.653971
0
LINE
8
BLACK
6
CONTINUOUS
10
-0.526575
20
0.653971
11
-0.534164
21
0.659285
0
LINE
8
BLACK
6
CONTINUOUS
10
-0.534164
20
0.659285
11
-0.540715
21
0.665836
0
LINE
8
BLACK
6
CONTINUOUS
10
-0.540715
20
0.665836
11
-0.546029
21
0.673425
0
LINE
8
BLACK
6
CONTINUOUS
10
-0.546029
20
0.673425
11
-0.549944
21
0.681822
0
LINE
8
BLACK
6
CONTINUOUS
10
-0.549944
20
0.681822
11
-0.552342
21
0.690771
0
LINE
8
BLACK
6
CONTINUOUS
10
-0.552342
20
0.690771
11
-0.55315
21
0.7
0
LINE
8
BLACK
6
CONTINUOUS
10
-0.55315
20
0.7
11
-0.552342
21
0.709229
0
LINE
8
BLACK
6
CONTINUOUS
10
-0.552342
20
0.709229
11
-0.549944
21
0.718178
0
LINE
8
BLACK
6
CONTINUOUS
10
-0.549944
20
0.718178
11
-0.546029
21
0.726575
0
LINE
8
BLACK
6
CONTINUOUS
10
-0.546029
20
0.726575
11
-0.540715
21
0.734164
0
LINE
8
BLACK
6
CONTINUOUS
10
-0.540715
20
0.734164
11
-0.534164
21
0.740715
0
LINE
8
BLACK
6
CONTINUOUS
10
-0.534164
20
0.740715
11
-0.526575
21
0.746029
0
LINE
8
BLACK
6
CONTINUOUS
10
-0.526575
20
0.746029
11
-0.518178
21
0.749944
0
LINE
8
BLACK
6
CONTINUOUS
10
-0.518178
20
0.749944
11
-0.509229
21
0.752342
0
LINE
8
BLACK
6
CONTINUOUS
10
-0.509229
20
0.752342
11
-0.5
21
0.75315
0
LINE
8
BLACK
6
CONTINUOUS
10
-0.5
20
0.75315
11
-0.490771
21
0.752342
0
LINE
8
BLACK
6
CONTINUOUS
10
1.18
20
0.67
11
1.12
21
0.67
0
LINE
8
BLACK
6
CONTINUOUS
10
1.12
20
0.67
11
1.12
21
0.73
0
LINE
8
BLACK
6
CONTINUOUS
10
1.12
20
0.73
11
1.18
21
0.73
0
LINE
8
BLACK
6
CONTINUOUS
10
1.18
20
0.73
11
1.18
21
0.67
0
LINE
8
BLACK
6
CONTINUOUS
10
1.28
20
0.67
11
1.22
21
0.67
0
LINE
8
BLACK
6
CONTINUOUS
10
1.22
20
0.67
11
1.22
21
0.73
0
LINE
8
BLACK
6
CONTINUOUS
10
1.22
20
0.73
11
1.28
21
0.73
0
LINE
8
BLACK
6
CONTINUOUS
10
1.28
20
0.73
11
1.28
21
0.67
0
LINE
8
BLACK
6
CONTINUOUS
10
-1.61102
20
0.730787
11
-1.67102
21
0.730787
0
LINE
8
BLACK
6
CONTINUOUS
10
-1.67102
20
0.730787
11
-1.67102
21
0.790787
0
LINE
8
BLACK
6
CONTINUOUS
10
-1.67102
20
0.790787
11
-1.61102
21
0.790787
0
LINE
8
BLACK
6
CONTINUOUS
10
-1.61102
20
0.790787
11
-1.61102
21
0.730787
0
LINE
8
BLACK
6
CONTINUOUS
10
-1.71102
20
0.730787
11
-1.77102
21
0.730787
0
LINE
8
BLACK
6
CONTINUOUS
10
-1.77102
20
0.730787
11
-1.77102
21
0.790787
0
LINE
8
BLACK
6
CONTINUOUS
10
-1.77102
20
0.790787
11
-1.71102
21
0.790787
0
LINE
8
BLACK
6
CONTINUOUS
10
-1.71102
20
0.790787
11
-1.71102
21
0.730787
0
LINE
8
BLACK
6
CONTINUOUS
10
-0.391454
20
0.848465
11
-0.383168
21
0.846245
0
LINE
8
BLACK
6
CONTINUOUS
10
-0.383168
20
0.846245
11
-0.375394
21
0.842619
0
LINE
8
BLACK
6
CONTINUOUS
10
-0.375394
20
0.842619
11
-0.368367
21
0.837699
0
LINE
8
BLACK
6
CONTINUOUS
10
-0.368367
20
0.837699
11
-0.362301
21
0.831633
0
LINE
8
BLACK
6
CONTINUOUS
10
-0.362301
20
0.831633
11
-0.357381
21
0.824606
0
LINE
8
BLACK
6
CONTINUOUS
10
-0.357381
20
0.824606
11
-0.353755
21
0.816832
0
LINE
8
BLACK
6
CONTINUOUS
10
-0.353755
20
0.816832
11
-0.351535
21
0.808546
0
LINE
8
BLACK
6
CONTINUOUS
10
-0.351535
20
0.808546
11
-0.350787
21
0.8
0
LINE
8
BLACK
6
CONTINUOUS
10
-0.350787
20
0.8
11
-0.351535
21
0.791454
0
LINE
8
BLACK
6
CONTINUOUS
10
-0.351535
20
0.791454
11
-0.353755
21
0.783168
0
LINE
8
BLACK
6
CONTINUOUS
10
-0.353755
20
0.783168
11
-0.357381
21
0.775394
0
LINE
8
BLACK
6
CONTINUOUS
10
-0.357381
20
0.775394
11
-0.362301
21
0.768367
0
LINE
8
BLACK
6
CONTINUOUS
10
-0.362301
20
0.768367
11
-0.368367
21
0.762301
0
LINE
8
BLACK
6
CONTINUOUS
10
-0.368367
20
0.762301
11
-0.375394
21
0.757381
0
LINE
8
BLACK
6
CONTINUOUS
10
-0.375394
20
0.757381
11
-0.383168
21
0.753755
0
LINE
8
BLACK
6
CONTINUOUS
10
-0.383168
20
0.753755
11
-0.391454
21
0.751535
0
LINE
8
BLACK
6
CONTINUOUS
10
-0.391454
20
0.751535
11
-0.4
21
0.750787
0
LINE
8
BLACK
6
CONTINUOUS
10
-0.4
20
0.750787
11
-0.408546
21
0.751535
0
LINE
8
BLACK
6
CONTINUOUS
10
-0.408546
20
0.751535
11
-0.416832
21
0.753755
0
LINE
8
BLACK
6
CONTINUOUS
10
-0.416832
20
0.753755
11
-0.424606
21
0.757381
0
LINE
8
BLACK
6
CONTINUOUS
10
-0.424606
20
0.757381
11
-0.431633
21
0.762301
0
LINE
8
BLACK
6
CONTINUOUS
10
-0.431633
20
0.762301
11
-0.437699
21
0.768367
0
LINE
8
BLACK
6
CONTINUOUS
10
-0.437699
20
0.768367
11
-0.442619
21
0.775394
0
LINE
8
BLACK
6
CONTINUOUS
10
-0.442619
20
0.775394
11
-0.446245
21
0.783168
0
LINE
8
BLACK
6
CONTINUOUS
10
-0.446245
20
0.783168
11
-0.448465
21
0.791454
0
LINE
8
BLACK
6
CONTINUOUS
10
-0.448465
20
0.791454
11
-0.449213
21
0.8
0
LINE
8
BLACK
6
CONTINUOUS
10
-0.449213
20
0.8
11
-0.448465
21
0.808546
0
LINE
8
BLACK
6
CONTINUOUS
10
-0.448465
20
0.808546
11
-0.446245
21
0.816832
0
LINE
8
BLACK
6
CONTINUOUS
10
-0.446245
20
0.816832
11
-0.442619
21
0.824606
0
LINE
8
BLACK
6
CONTINUOUS
10
-0.442619
20
0.824606
11
-0.437699
21
0.831633
0
LINE
8
BLACK
6
CONTINUOUS
10
-0.437699
20
0.831633
11
-0.431633
21
0.837699
0
LINE
8
BLACK
6
CONTINUOUS
10
-0.431633
20
0.837699
11
-0.424606
21
0.842619
0
LINE
8
BLACK
6
CONTINUOUS
10
-0.424606
20
0.842619
11
-0.416832
21
0.846245
0
LINE
8
BLACK
6
CONTINUOUS
10
-0.416832
20
0.846245
11
-0.408546
21
0.848465
0
LINE
8
BLACK
6
CONTINUOUS
10
-0.408546
20
0.848465
11
-0.4
21
0.849213
0
LINE
8
BLACK
6
CONTINUOUS
10
-0.4
20
0.849213
11
-0.391454
21
0.848465
0
LINE
8
BLACK
6
CONTINUOUS
10
-1.61102
20
0.830787
11
-1.67102
21
0.830787
0
LINE
8
BLACK
6
CONTINUOUS
10
-1.67102
20
0.830787
11
-1.67102
21
0.890787
0
LINE
8
BLACK
6
CONTINUOUS
10
-1.67102
20
0.890787
11
-1.61102
21
0.890787
0
LINE
8
BLACK
6
CONTINUOUS
10
-1.61102
20
0.890787
11
-1.61102
21
0.830787
0
LINE
8
BLACK
6
CONTINUOUS
10
-1.71102
20
0.830787
11
-1.77102
21
0.830787
0
LINE
8
BLACK
6
CONTINUOUS
10
-1.77102
20
0.830787
11
-1.77102
21
0.890787
0
LINE
8
BLACK
6
CONTINUOUS
10
-1.77102
20
0.890787
11
-1.71102
21
0.890787
0
LINE
8
BLACK
6
CONTINUOUS
10
-1.71102
20
0.890787
11
-1.71102
21
0.830787
0
LINE
8
BLACK
6
CONTINUOUS
10
-0.490771
20
0.952342
11
-0.481822
21
0.949944
0
LINE
8
BLACK
6
CONTINUOUS
10
-0.481822
20
0.949944
11
-0.473425
21
0.946029
0
LINE
8
BLACK
6
CONTINUOUS
10
-0.473425
20
0.946029
11
-0.465836
21
0.940715
0
LINE
8
BLACK
6
CONTINUOUS
10
-0.465836
20
0.940715
11
-0.459285
21
0.934164
0
LINE
8
BLACK
6
CONTINUOUS
10
-0.459285
20
0.934164
11
-0.453971
21
0.926575
0
LINE
8
BLACK
6
CONTINUOUS
10
-0.453971
20
0.926575
11
-0.450056
21
0.918178
0
LINE
8
BLACK
6
CONTINUOUS
10
-0.450056
20
0.918178
11
-0.447658
21
0.909229
0
LINE
8
BLACK
6
CONTINUOUS
10
-0.447658
20
0.909229
11
-0.44685
21
0.9
0
LINE
8
BLACK
6
CONTINUOUS
10
-0.44685
20
0.9
11
-0.447658
21
0.890771
0
LINE
8
BLACK
6
CONTINUOUS
10
-0.447658
20
0.890771
11
-0.450056
21
0.881822
0
LINE
8
BLACK
6
CONTINUOUS
10
-0.450056
20
0.881822
11
-0.453971
21
0.873425
0
LINE
8
BLACK
6
CONTINUOUS
10
-0.453971
20
0.873425
11
-0.459285
21
0.865836
0
LINE
8
BLACK
6
CONTINUOUS
10
-0.459285
20
0.865836
11
-0.465836
21
0.859285
0
LINE
8
BLACK
6
CONTINUOUS
10
-0.465836
20
0.859285
11
-0.473425
21
0.853971
0
LINE
8
BLACK
6
CONTINUOUS
10
-0.473425
20
0.853971
11
-0.481822
21
0.850056
0
LINE
8
BLACK
6
CONTINUOUS
10
-0.481822
20
0.850056
11
-0.490771
21
0.847658
0
LINE
8
BLACK
6
CONTINUOUS
10
-0.490771
20
0.847658
11
-0.5
21
0.84685
0
LINE
8
BLACK
6
CONTINUOUS
10
-0.5
20
0.84685
11
-0.509229
21
0.847658
0
LINE
8
BLACK
6
CONTINUOUS
10
-0.509229
20
0.847658
11
-0.518178
21
0.850056
0
LINE
8
BLACK
6
CONTINUOUS
10
-0.518178
20
0.850056
11
-0.526575
21
0.853971
0
LINE
8
BLACK
6
CONTINUOUS
10
-0.526575
20
0.853971
11
-0.534164
21
0.859285
0
LINE
8
BLACK
6
CONTINUOUS
10
-0.534164
20
0.859285
11
-0.540715
21
0.865836
0
LINE
8
BLACK
6
CONTINUOUS
10
-0.540715
20
0.865836
11
-0.546029
21
0.873425
0
LINE
8
BLACK
6
CONTINUOUS
10
-0.546029
20
0.873425
11
-0.549944
21
0.881822
0
LINE
8
BLACK
6
CONTINUOUS
10
-0.549944
20
0.881822
11
-0.552342
21
0.890771
0
LINE
8
BLACK
6
CONTINUOUS
10
-0.552342
20
0.890771
11
-0.55315
21
0.9
0
LINE
8
BLACK
6
CONTINUOUS
10
-0.55315
20
0.9
11
-0.552342
21
0.909229
0
LINE
8
BLACK
6
CONTINUOUS
10
-0.552342
20
0.909229
11
-0.549944
21
0.918178
0
LINE
8
BLACK
6
CONTINUOUS
10
-0.549944
20
0.918178
11
-0.546029
21
0.926575
0
LINE
8
BLACK
6
CONTINUOUS
10
-0.546029
20
0.926575
11
-0.540715
21
0.934164
0
LINE
8
BLACK
6
CONTINUOUS
10
-0.540715
20
0.934164
11
-0.534164
21
0.940715
0
LINE
8
BLACK
6
CONTINUOUS
10
-0.534164
20
0.940715
11
-0.526575
21
0.946029
0
LINE
8
BLACK
6
CONTINUOUS
10
-0.526575
20
0.946029
11
-0.518178
21
0.949944
0
LINE
8
BLACK
6
CONTINUOUS
10
-0.518178
20
0.949944
11
-0.509229
21
0.952342
0
LINE
8
BLACK
6
CONTINUOUS
10
-0.509229
20
0.952342
11
-0.5
21
0.95315
0
LINE
8
BLACK
6
CONTINUOUS
10
-0.5
20
0.95315
11
-0.490771
21
0.952342
0
LINE
8
BLACK
6
CONTINUOUS
10
-0.290771
20
0.952342
11
-0.281822
21
0.949944
0
LINE
8
BLACK
6
CONTINUOUS
10
-0.281822
20
0.949944
11
-0.273425
21
0.946029
0
LINE
8
BLACK
6
CONTINUOUS
10
-0.273425
20
0.946029
11
-0.265836
21
0.940715
0
LINE
8
BLACK
6
CONTINUOUS
10
-0.265836
20
0.940715
11
-0.259285
21
0.934164
0
LINE
8
BLACK
6
CONTINUOUS
10
-0.259285
20
0.934164
11
-0.253971
21
0.926575
0
LINE
8
BLACK
6
CONTINUOUS
10
-0.253971
20
0.926575
11
-0.250056
21
0.918178
0
LINE
8
BLACK
6
CONTINUOUS
10
-0.250056
20
0.918178
11
-0.247658
21
0.909229
0
LINE
8
BLACK
6
CONTINUOUS
10
-0.247658
20
0.909229
11
-0.24685
21
0.9
0
LINE
8
BLACK
6
CONTINUOUS
10
-0.24685
20
0.9
11
-0.247658
21
0.890771
0
LINE
8
BLACK
6
CONTINUOUS
10
-0.247658
20
0.890771
11
-0.250056
21
0.881822
0
LINE
8
BLACK
6
CONTINUOUS
10
-0.250056
20
0.881822
11
-0.253971
21
0.873425
0
LINE
8
BLACK
6
CONTINUOUS
10
-0.253971
20
0.873425
11
-0.259285
21
0.865836
0
LINE
8
BLACK
6
CONTINUOUS
10
-0.259285
20
0.865836
11
-0.265836
21
0.859285
0
LINE
8
BLACK
6
CONTINUOUS
10
-0.265836
20
0.859285
11
-0.273425
21
0.853971
0
LINE
8
BLACK
6
CONTINUOUS
10
-0.273425
20
0.853971
11
-0.281822
21
0.850056
0
LINE
8
BLACK
6
CONTINUOUS
10
-0.281822
20
0.850056
11
-0.290771
21
0.847658
0
LINE
8
BLACK
6
CONTINUOUS
10
-0.290771
20
0.847658
11
-0.3
21
0.84685
0
LINE
8
BLACK
6
CONTINUOUS
10
-0.3
20
0.84685
11
-0.309229
21
0.847658
0
LINE
8
BLACK
6
CONTINUOUS
10
-0.309229
20
0.847658
11
-0.318178
21
0.850056
0
LINE
8
BLACK
6
CONTINUOUS
10
-0.318178
20
0.850056
11
-0.326575
21
0.853971
0
LINE
8
BLACK
6
CONTINUOUS
10
-0.326575
20
0.853971
11
-0.334164
21
0.859285
0
LINE
8
BLACK
6
CONTINUOUS
10
-0.334164
20
0.859285
11
-0.340715
21
0.865836
0
LINE
8
BLACK
6
CONTINUOUS
10
-0.340715
20
0.865836
11
-0.346029
21
0.873425
0
LINE
8
BLACK
6
CONTINUOUS
10
-0.346029
20
0.873425
11
-0.349944
21
0.881822
0
LINE
8
BLACK
6
CONTINUOUS
10
-0.349944
20
0.881822
11
-0.352342
21
0.890771
0
LINE
8
BLACK
6
CONTINUOUS
10
-0.352342
20
0.890771
11
-0.35315
21
0.9
0
LINE
8
BLACK
6
CONTINUOUS
10
-0.35315
20
0.9
11
-0.352342
21
0.909229
0
LINE
8
BLACK
6
CONTINUOUS
10
-0.352342
20
0.909229
11
-0.349944
21
0.918178
0
LINE
8
BLACK
6
CONTINUOUS
10
-0.349944
20
0.918178
11
-0.346029
21
0.926575
0
LINE
8
BLACK
6
CONTINUOUS
10
-0.346029
20
0.926575
11
-0.340715
21
0.934164
0
LINE
8
BLACK
6
CONTINUOUS
10
-0.340715
20
0.934164
11
-0.334164
21
0.940715
0
LINE
8
BLACK
6
CONTINUOUS
10
-0.334164
20
0.940715
11
-0.326575
21
0.946029
0
LINE
8
BLACK
6
CONTINUOUS
10
-0.326575
20
0.946029
11
-0.318178
21
0.949944
0
LINE
8
BLACK
6
CONTINUOUS
10
-0.318178
20
0.949944
11
-0.309229
21
0.952342
0
LINE
8
BLACK
6
CONTINUOUS
10
-0.309229
20
0.952342
11
-0.3
21
0.95315
0
LINE
8
BLACK
6
CONTINUOUS
10
-0.3
20
0.95315
11
-0.290771
21
0.952342
0
LINE
8
BLACK
6
CONTINUOUS
10
-1.71102
20
0.930787
11
-1.77102
21
0.930787
0
LINE
8
BLACK
6
CONTINUOUS
10
-1.77102
20
0.930787
11
-1.77102
21
0.990787
0
LINE
8
BLACK
6
CONTINUOUS
10
-1.77102
20
0.990787
11
-1.71102
21
0.990787
0
LINE
8
BLACK
6
CONTINUOUS
10
-1.71102
20
0.990787
11
-1.71102
21
0.930787
0
LINE
8
BLACK
6
CONTINUOUS
10
-1.61102
20
0.930787
11
-1.67102
21
0.930787
0
LINE
8
BLACK
6
CONTINUOUS
10
-1.67102
20
0.930787
11
-1.67102
21
0.990787
0
LINE
8
BLACK
6
CONTINUOUS
10
-1.67102
20
0.990787
11
-1.61102
21
0.990787
0
LINE
8
BLACK
6
CONTINUOUS
10
-1.61102
20
0.990787
11
-1.61102
21
0.930787
0
LINE
8
BLACK
6
CONTINUOUS
10
0.451011
20
1.04551
11
0.454204
21
1.04338
0
LINE
8
BLACK
6
CONTINUOUS
10
0.454204
20
1.04338
11
0.456337
21
1.04018
0
LINE
8
BLACK
6
CONTINUOUS
10
0.456337
20
1.04018
11
0.457087
21
1.03642
0
LINE
8
BLACK
6
CONTINUOUS
10
0.457087
20
1.03642
11
0.457087
21
0.999016
0
LINE
8
BLACK
6
CONTINUOUS
10
0.457087
20
0.999016
11
0.456337
21
0.995249
0
LINE
8
BLACK
6
CONTINUOUS
10
0.456337
20
0.995249
11
0.454204
21
0.992056
0
LINE
8
BLACK
6
CONTINUOUS
10
0.454204
20
0.992056
11
0.451011
21
0.989922
0
LINE
8
BLACK
6
CONTINUOUS
10
0.451011
20
0.989922
11
0.447244
21
0.989173
0
LINE
8
BLACK
6
CONTINUOUS
10
0.447244
20
0.989173
11
0.427559
21
0.989173
0
LINE
8
BLACK
6
CONTINUOUS
10
0.427559
20
0.989173
11
0.423792
21
0.989922
0
LINE
8
BLACK
6
CONTINUOUS
10
0.423792
20
0.989922
11
0.420599
21
0.992056
0
LINE
8
BLACK
6
CONTINUOUS
10
0.420599
20
0.992056
11
0.418466
21
0.995249
0
LINE
8
BLACK
6
CONTINUOUS
10
0.418466
20
0.995249
11
0.417717
21
0.999016
0
LINE
8
BLACK
6
CONTINUOUS
10
0.417717
20
0.999016
11
0.417717
21
1.03642
0
LINE
8
BLACK
6
CONTINUOUS
10
0.417717
20
1.03642
11
0.418466
21
1.04018
0
LINE
8
BLACK
6
CONTINUOUS
10
0.418466
20
1.04018
11
0.420599
21
1.04338
0
LINE
8
BLACK
6
CONTINUOUS
10
0.420599
20
1.04338
11
0.423792
21
1.04551
0
LINE
8
BLACK
6
CONTINUOUS
10
0.423792
20
1.04551
11
0.427559
21
1.04626
0
LINE
8
BLACK
6
CONTINUOUS
10
0.427559
20
1.04626
11
0.447244
21
1.04626
0
LINE
8
BLACK
6
CONTINUOUS
10
0.447244
20
1.04626
11
0.451011
21
1.04551
0
LINE
8
BLACK
6
CONTINUOUS
10
0.376208
20
1.04551
11
0.379401
21
1.04338
0
LINE
8
BLACK
6
CONTINUOUS
10
0.379401
20
1.04338
11
0.381534
21
1.04018
0
LINE
8
BLACK
6
CONTINUOUS
10
0.381534
20
1.04018
11
0.382283
21
1.03642
0
LINE
8
BLACK
6
CONTINUOUS
10
0.382283
20
1.03642
11
0.382283
21
0.999016
0
LINE
8
BLACK
6
CONTINUOUS
10
0.382283
20
0.999016
11
0.381534
21
0.995249
0
LINE
8
BLACK
6
CONTINUOUS
10
0.381534
20
0.995249
11
0.379401
21
0.992056
0
LINE
8
BLACK
6
CONTINUOUS
10
0.379401
20
0.992056
11
0.376208
21
0.989922
0
LINE
8
BLACK
6
CONTINUOUS
10
0.376208
20
0.989922
11
0.372441
21
0.989173
0
LINE
8
BLACK
6
CONTINUOUS
10
0.372441
20
0.989173
11
0.352756
21
0.989173
0
LINE
8
BLACK
6
CONTINUOUS
10
0.352756
20
0.989173
11
0.348989
21
0.989922
0
LINE
8
BLACK
6
CONTINUOUS
10
0.348989
20
0.989922
11
0.345796
21
0.992056
0
LINE
8
BLACK
6
CONTINUOUS
10
0.345796
20
0.992056
11
0.343663
21
0.995249
0
LINE
8
BLACK
6
CONTINUOUS
10
0.343663
20
0.995249
11
0.342913
21
0.999016
0
LINE
8
BLACK
6
CONTINUOUS
10
0.342913
20
0.999016
11
0.342913
21
1.03642
0
LINE
8
BLACK
6
CONTINUOUS
10
0.342913
20
1.03642
11
0.343663
21
1.04018
0
LINE
8
BLACK
6
CONTINUOUS
10
0.343663
20
1.04018
11
0.345796
21
1.04338
0
LINE
8
BLACK
6
CONTINUOUS
10
0.345796
20
1.04338
11
0.348989
21
1.04551
0
LINE
8
BLACK
6
CONTINUOUS
10
0.348989
20
1.04551
11
0.352756
21
1.04626
0
LINE
8
BLACK
6
CONTINUOUS
10
0.352756
20
1.04626
11
0.372441
21
1.04626
0
LINE
8
BLACK
6
CONTINUOUS
10
0.372441
20
1.04626
11
0.376208
21
1.04551
0
LINE
8
BLACK
6
CONTINUOUS
10
-0.490771
20
1.15234
11
-0.481822
21
1.14994
0
LINE
8
BLACK
6
CONTINUOUS
10
-0.481822
20
1.14994
11
-0.473425
21
1.14603
0
LINE
8
BLACK
6
CONTINUOUS
10
-0.473425
20
1.14603
11
-0.465836
21
1.14071
0
LINE
8
BLACK
6
CONTINUOUS
10
-0.465836
20
1.14071
11
-0.459285
21
1.13416
0
LINE
8
BLACK
6
CONTINUOUS
10
-0.459285
20
1.13416
11
-0.453971
21
1.12657
0
LINE
8
BLACK
6
CONTINUOUS
10
-0.453971
20
1.12657
11
-0.450056
21
1.11818
0
LINE
8
BLACK
6
CONTINUOUS
10
-0.450056
20
1.11818
11
-0.447658
21
1.10923
0
LINE
8
BLACK
6
CONTINUOUS
10
-0.447658
20
1.10923
11
-0.44685
21
1.1
0
LINE
8
BLACK
6
CONTINUOUS
10
-0.44685
20
1.1
11
-0.447658
21
1.09077
0
LINE
8
BLACK
6
CONTINUOUS
10
-0.447658
20
1.09077
11
-0.450056
21
1.08182
0
LINE
8
BLACK
6
CONTINUOUS
10
-0.450056
20
1.08182
11
-0.453971
21
1.07343
0
LINE
8
BLACK
6
CONTINUOUS
10
-0.453971
20
1.07343
11
-0.459285
21
1.06584
0
LINE
8
BLACK
6
CONTINUOUS
10
-0.459285
20
1.06584
11
-0.465836
21
1.05929
0
LINE
8
BLACK
6
CONTINUOUS
10
-0.465836
20
1.05929
11
-0.473425
21
1.05397
0
LINE
8
BLACK
6
CONTINUOUS
10
-0.473425
20
1.05397
11
-0.481822
21
1.05006
0
LINE
8
BLACK
6
CONTINUOUS
10
-0.481822
20
1.05006
11
-0.490771
21
1.04766
0
LINE
8
BLACK
6
CONTINUOUS
10
-0.490771
20
1.04766
11
-0.5
21
1.04685
0
LINE
8
BLACK
6
CONTINUOUS
10
-0.5
20
1.04685
11
-0.509229
21
1.04766
0
LINE
8
BLACK
6
CONTINUOUS
10
-0.509229
20
1.04766
11
-0.518178
21
1.05006
0
LINE
8
BLACK
6
CONTINUOUS
10
-0.518178
20
1.05006
11
-0.526575
21
1.05397
0
LINE
8
BLACK
6
CONTINUOUS
10
-0.526575
20
1.05397
11
-0.534164
21
1.05929
0
LINE
8
BLACK
6
CONTINUOUS
10
-0.534164
20
1.05929
11
-0.540715
21
1.06584
0
LINE
8
BLACK
6
CONTINUOUS
10
-0.540715
20
1.06584
11
-0.546029
21
1.07343
0
LINE
8
BLACK
6
CONTINUOUS
10
-0.546029
20
1.07343
11
-0.549944
21
1.08182
0
LINE
8
BLACK
6
CONTINUOUS
10
-0.549944
20
1.08182
11
-0.552342
21
1.09077
0
LINE
8
BLACK
6
CONTINUOUS
10
-0.552342
20
1.09077
11
-0.55315
21
1.1
0
LINE
8
BLACK
6
CONTINUOUS
10
-0.55315
20
1.1
11
-0.552342
21
1.10923
0
LINE
8
BLACK
6
CONTINUOUS
10
-0.552342
20
1.10923
11
-0.549944
21
1.11818
0
LINE
8
BLACK
6
CONTINUOUS
10
-0.549944
20
1.11818
11
-0.546029
21
1.12657
0
LINE
8
BLACK
6
CONTINUOUS
10
-0.546029
20
1.12657
11
-0.540715
21
1.13416
0
LINE
8
BLACK
6
CONTINUOUS
10
-0.540715
20
1.13416
11
-0.534164
21
1.14071
0
LINE
8
BLACK
6
CONTINUOUS
10
-0.534164
20
1.14071
11
-0.526575
21
1.14603
0
LINE
8
BLACK
6
CONTINUOUS
10
-0.526575
20
1.14603
11
-0.518178
21
1.14994
0
LINE
8
BLACK
6
CONTINUOUS
10
-0.518178
20
1.14994
11
-0.509229
21
1.15234
0
LINE
8
BLACK
6
CONTINUOUS
10
-0.509229
20
1.15234
11
-0.5
21
1.15315
0
LINE
8
BLACK
6
CONTINUOUS
10
-0.5
20
1.15315
11
-0.490771
21
1.15234
0
LINE
8
BLACK
6
CONTINUOUS
10
-0.290771
20
1.15234
11
-0.281822
21
1.14994
0
LINE
8
BLACK
6
CONTINUOUS
10
-0.281822
20
1.14994
11
-0.273425
21
1.14603
0
LINE
8
BLACK
6
CONTINUOUS
10
-0.273425
20
1.14603
11
-0.265836
21
1.14071
0
LINE
8
BLACK
6
CONTINUOUS
10
-0.265836
20
1.14071
11
-0.259285
21
1.13416
0
LINE
8
BLACK
6
CONTINUOUS
10
-0.259285
20
1.13416
11
-0.253971
21
1.12657
0
LINE
8
BLACK
6
CONTINUOUS
10
-0.253971
20
1.12657
11
-0.250056
21
1.11818
0
LINE
8
BLACK
6
CONTINUOUS
10
-0.250056
20
1.11818
11
-0.247658
21
1.10923
0
LINE
8
BLACK
6
CONTINUOUS
10
-0.247658
20
1.10923
11
-0.24685
21
1.1
0
LINE
8
BLACK
6
CONTINUOUS
10
-0.24685
20
1.1
11
-0.247658
21
1.09077
0
LINE
8
BLACK
6
CONTINUOUS
10
-0.247658
20
1.09077
11
-0.250056
21
1.08182
0
LINE
8
BLACK
6
CONTINUOUS
10
-0.250056
20
1.08182
11
-0.253971
21
1.07343
0
LINE
8
BLACK
6
CONTINUOUS
10
-0.253971
20
1.07343
11
-0.259285
21
1.06584
0
LINE
8
BLACK
6
CONTINUOUS
10
-0.259285
20
1.06584
11
-0.265836
21
1.05929
0
LINE
8
BLACK
6
CONTINUOUS
10
-0.265836
20
1.05929
11
-0.273425
21
1.05397
0
LINE
8
BLACK
6
CONTINUOUS
10
-0.273425
20
1.05397
11
-0.281822
21
1.05006
0
LINE
8
BLACK
6
CONTINUOUS
10
-0.281822
20
1.05006
11
-0.290771
21
1.04766
0
LINE
8
BLACK
6
CONTINUOUS
10
-0.290771
20
1.04766
11
-0.3
21
1.04685
0
LINE
8
BLACK
6
CONTINUOUS
10
-0.3
20
1.04685
11
-0.309229
21
1.04766
0
LINE
8
BLACK
6
CONTINUOUS
10
-0.309229
20
1.04766
11
-0.318178
21
1.05006
0
LINE
8
BLACK
6
CONTINUOUS
10
-0.318178
20
1.05006
11
-0.326575
21
1.05397
0
LINE
8
BLACK
6
CONTINUOUS
10
-0.326575
20
1.05397
11
-0.334164
21
1.05929
0
LINE
8
BLACK
6
CONTINUOUS
10
-0.334164
20
1.05929
11
-0.340715
21
1.06584
0
LINE
8
BLACK
6
CONTINUOUS
10
-0.340715
20
1.06584
11
-0.346029
21
1.07343
0
LINE
8
BLACK
6
CONTINUOUS
10
-0.346029
20
1.07343
11
-0.349944
21
1.08182
0
LINE
8
BLACK
6
CONTINUOUS
10
-0.349944
20
1.08182
11
-0.352342
21
1.09077
0
LINE
8
BLACK
6
CONTINUOUS
10
-0.352342
20
1.09077
11
-0.35315
21
1.1
0
LINE
8
BLACK
6
CONTINUOUS
10
-0.35315
20
1.1
11
-0.352342
21
1.10923
0
LINE
8
BLACK
6
CONTINUOUS
10
-0.352342
20
1.10923
11
-0.349944
21
1.11818
0
LINE
8
BLACK
6
CONTINUOUS
10
-0.349944
20
1.11818
11
-0.346029
21
1.12657
0
LINE
8
BLACK
6
CONTINUOUS
10
-0.346029
20
1.12657
11
-0.340715
21
1.13416
0
LINE
8
BLACK
6
CONTINUOUS
10
-0.340715
20
1.13416
11
-0.334164
21
1.14071
0
LINE
8
BLACK
6
CONTINUOUS
10
-0.334164
20
1.14071
11
-0.326575
21
1.14603
0
LINE
8
BLACK
6
CONTINUOUS
10
-0.326575
20
1.14603
11
-0.318178
21
1.14994
0
LINE
8
BLACK
6
CONTINUOUS
10
-0.318178
20
1.14994
11
-0.309229
21
1.15234
0
LINE
8
BLACK
6
CONTINUOUS
10
-0.309229
20
1.15234
11
-0.3
21
1.15315
0
LINE
8
BLACK
6
CONTINUOUS
10
-0.3
20
1.15315
11
-0.290771
21
1.15234
0
LINE
8
BLACK
6
CONTINUOUS
10
1.20865
20
1.31779
11
1.22213
21
1.31602
0
LINE
8
BLACK
6
CONTINUOUS
10
1.22213
20
1.31602
11
1.23532
21
1.31271
0
LINE
8
BLACK
6
CONTINUOUS
10
1.23532
20
1.31271
11
1.24804
21
1.3079
0
LINE
8
BLACK
6
CONTINUOUS
10
1.24804
20
1.3079
11
1.26012
21
1.30166
0
LINE
8
BLACK
6
CONTINUOUS
10
1.26012
20
1.30166
11
1.27141
21
1.29408
0
LINE
8
BLACK
6
CONTINUOUS
10
1.27141
20
1.29408
11
1.28175
21
1.28525
0
LINE
8
BLACK
6
CONTINUOUS
10
1.28175
20
1.28525
11
1.29101
21
1.27529
0
LINE
8
BLACK
6
CONTINUOUS
10
1.29101
20
1.27529
11
1.29906
21
1.26433
0
LINE
8
BLACK
6
CONTINUOUS
10
1.29906
20
1.26433
11
1.30579
21
1.25252
0
LINE
8
BLACK
6
CONTINUOUS
10
1.30579
20
1.25252
11
1.31113
21
1.24001
0
LINE
8
BLACK
6
CONTINUOUS
10
1.31113
20
1.24001
11
1.31499
21
1.22697
0
LINE
8
BLACK
6
CONTINUOUS
10
1.31499
20
1.22697
11
1.31733
21
1.21358
0
LINE
8
BLACK
6
CONTINUOUS
10
1.31733
20
1.21358
11
1.31811
21
1.2
0
LINE
8
BLACK
6
CONTINUOUS
10
1.31811
20
1.2
11
1.31788
21
1.19258
0
LINE
8
BLACK
6
CONTINUOUS
10
1.31788
20
1.19258
11
1.31624
21
1.17908
0
LINE
8
BLACK
6
CONTINUOUS
10
1.31624
20
1.17908
11
1.31307
21
1.16586
0
LINE
8
BLACK
6
CONTINUOUS
10
1.31307
20
1.16586
11
1.3084
21
1.15309
0
LINE
8
BLACK
6
CONTINUOUS
10
1.3084
20
1.15309
11
1.30229
21
1.14094
0
LINE
8
BLACK
6
CONTINUOUS
10
1.30229
20
1.14094
11
1.29482
21
1.12958
0
LINE
8
BLACK
6
CONTINUOUS
10
1.29482
20
1.12958
11
1.2861
21
1.11915
0
LINE
8
BLACK
6
CONTINUOUS
10
1.2861
20
1.11915
11
1.27624
21
1.10979
0
LINE
8
BLACK
6
CONTINUOUS
10
1.27624
20
1.10979
11
1.26536
21
1.10162
0
LINE
8
BLACK
6
CONTINUOUS
10
1.26536
20
1.10162
11
1.25362
21
1.09476
0
LINE
8
BLACK
6
CONTINUOUS
10
1.25362
20
1.09476
11
1.24117
21
1.0893
0
LINE
8
BLACK
6
CONTINUOUS
10
1.24117
20
1.0893
11
1.22817
21
1.0853
0
LINE
8
BLACK
6
CONTINUOUS
10
1.22817
20
1.0853
11
1.2148
21
1.08282
0
LINE
8
BLACK
6
CONTINUOUS
10
1.2148
20
1.08282
11
1.20124
21
1.0819
0
LINE
8
BLACK
6
CONTINUOUS
10
1.20124
20
1.0819
11
1.18765
21
1.08254
0
LINE
8
BLACK
6
CONTINUOUS
10
1.18765
20
1.08254
11
1.17424
21
1.08473
0
LINE
8
BLACK
6
CONTINUOUS
10
1.17424
20
1.08473
11
1.16116
21
1.08846
0
LINE
8
BLACK
6
CONTINUOUS
10
1.16116
20
1.08846
11
1.14859
21
1.09366
0
LINE
8
BLACK
6
CONTINUOUS
10
1.14859
20
1.09366
11
1.13671
21
1.10028
0
LINE
8
BLACK
6
CONTINUOUS
10
1.13671
20
1.10028
11
1.12567
21
1.10821
0
LINE
8
BLACK
6
CONTINUOUS
10
1.12567
20
1.10821
11
1.11561
21
1.11736
0
LINE
8
BLACK
6
CONTINUOUS
10
1.11561
20
1.11736
11
1.10667
21
1.12761
0
LINE
8
BLACK
6
CONTINUOUS
10
1.10667
20
1.12761
11
1.09897
21
1.13882
0
LINE
8
BLACK
6
CONTINUOUS
10
1.09897
20
1.13882
11
1.09261
21
1.15083
0
LINE
8
BLACK
6
CONTINUOUS
10
1.09261
20
1.15083
11
1.08767
21
1.1635
0
LINE
8
BLACK
6
CONTINUOUS
10
1.08767
20
1.1635
11
1.08422
21
1.17665
0
LINE
8
BLACK
6
CONTINUOUS
10
1.08422
20
1.17665
11
1.0823
21
1.19012
0
LINE
8
BLACK
6
CONTINUOUS
10
1.0823
20
1.19012
11
1.08195
21
1.20371
0
LINE
8
BLACK
6
CONTINUOUS
10
1.08195
20
1.20371
11
1.08316
21
1.21725
0
LINE
8
BLACK
6
CONTINUOUS
10
1.08316
20
1.21725
11
1.08591
21
1.23057
0
LINE
8
BLACK
6
CONTINUOUS
10
1.08591
20
1.23057
11
1.09018
21
1.24348
0
LINE
8
BLACK
6
CONTINUOUS
10
1.09018
20
1.24348
11
1.09591
21
1.25581
0
LINE
8
BLACK
6
CONTINUOUS
10
1.09591
20
1.25581
11
1.10301
21
1.26741
0
LINE
8
BLACK
6
CONTINUOUS
10
1.10301
20
1.26741
11
1.1114
21
1.27811
0
LINE
8
BLACK
6
CONTINUOUS
10
1.1114
20
1.27811
11
1.12097
21
1.28777
0
LINE
8
BLACK
6
CONTINUOUS
10
1.12097
20
1.28777
11
1.13158
21
1.29627
0
LINE
8
BLACK
6
CONTINUOUS
10
1.13158
20
1.29627
11
1.1431
21
1.3035
0
LINE
8
BLACK
6
CONTINUOUS
10
1.1431
20
1.3035
11
1.15537
21
1.30935
0
LINE
8
BLACK
6
CONTINUOUS
10
1.15537
20
1.30935
11
1.16824
21
1.31376
0
LINE
8
BLACK
6
CONTINUOUS
10
1.16824
20
1.31376
11
1.18152
21
1.31666
0
LINE
8
BLACK
6
CONTINUOUS
10
1.18152
20
1.31666
11
1.19505
21
1.31801
0
LINE
8
BLACK
6
CONTINUOUS
10
1.19505
20
1.31801
11
1.20865
21
1.31779
0
LINE
8
BLACK
6
CONTINUOUS
10
0.0086502
20
1.31779
11
0.0221317
21
1.31602
0
LINE
8
BLACK
6
CONTINUOUS
10
0.0221317
20
1.31602
11
0.0353198
21
1.31271
0
LINE
8
BLACK
6
CONTINUOUS
10
0.0353198
20
1.31271
11
0.0480398
21
1.3079
0
LINE
8
BLACK
6
CONTINUOUS
10
0.0480398
20
1.3079
11
0.060123
21
1.30166
0
LINE
8
BLACK
6
CONTINUOUS
10
0.060123
20
1.30166
11
0.0714093
21
1.29408
0
LINE
8
BLACK
6
CONTINUOUS
10
0.0714093
20
1.29408
11
0.0817492
21
1.28525
0
LINE
8
BLACK
6
CONTINUOUS
10
0.0817492
20
1.28525
11
0.0910055
21
1.27529
0
LINE
8
BLACK
6
CONTINUOUS
10
0.0910055
20
1.27529
11
0.0990556
21
1.26433
0
LINE
8
BLACK
6
CONTINUOUS
10
0.0990556
20
1.26433
11
0.105793
21
1.25252
0
LINE
8
BLACK
6
CONTINUOUS
10
0.105793
20
1.25252
11
0.111128
21
1.24001
0
LINE
8
BLACK
6
CONTINUOUS
10
0.111128
20
1.24001
11
0.11499
21
1.22697
0
LINE
8
BLACK
6
CONTINUOUS
10
0.11499
20
1.22697
11
0.117327
21
1.21358
0
LINE
8
BLACK
6
CONTINUOUS
10
0.117327
20
1.21358
11
0.11811
21
1.2
0
LINE
8
BLACK
6
CONTINUOUS
10
0.11811
20
1.2
11
0.117877
21
1.19258
0
LINE
8
BLACK
6
CONTINUOUS
10
0.117877
20
1.19258
11
0.116244
21
1.17908
0
LINE
8
BLACK
6
CONTINUOUS
10
0.116244
20
1.17908
11
0.113069
21
1.16586
0
LINE
8
BLACK
6
CONTINUOUS
10
0.113069
20
1.16586
11
0.108396
21
1.15309
0
LINE
8
BLACK
6
CONTINUOUS
10
0.108396
20
1.15309
11
0.102286
21
1.14094
0
LINE
8
BLACK
6
CONTINUOUS
10
0.102286
20
1.14094
11
0.0948209
21
1.12958
0
LINE
8
BLACK
6
CONTINUOUS
10
0.0948209
20
1.12958
11
0.0860987
21
1.11915
0
LINE
8
BLACK
6
CONTINUOUS
10
0.0860987
20
1.11915
11
0.0762352
21
1.10979
0
LINE
8
BLACK
6
CONTINUOUS
10
0.0762352
20
1.10979
11
0.0653612
21
1.10162
0
LINE
8
BLACK
6
CONTINUOUS
10
0.0653612
20
1.10162
11
0.0536209
21
1.09476
0
LINE
8
BLACK
6
CONTINUOUS
10
0.0536209
20
1.09476
11
0.0411699
21
1.0893
0
LINE
8
BLACK
6
CONTINUOUS
10
0.0411699
20
1.0893
11
0.0281732
21
1.0853
0
LINE
8
BLACK
6
CONTINUOUS
10
0.0281732
20
1.0853
11
0.0148031
21
1.08282
0
LINE
8
BLACK
6
CONTINUOUS
10
0.0148031
20
1.08282
11
0.00123681
21
1.0819
0
LINE
8
BLACK
6
CONTINUOUS
10
0.00123681
20
1.0819
11
-0.0123459
21
1.08254
0
LINE
8
BLACK
6
CONTINUOUS
10
-0.0123459
20
1.08254
11
-0.025765
21
1.08473
0
LINE
8
BLACK
6
CONTINUOUS
10
-0.025765
20
1.08473
11
-0.0388425
21
1.08846
0
LINE
8
BLACK
6
CONTINUOUS
10
-0.0388425
20
1.08846
11
-0.0514052
21
1.09366
0
LINE
8
BLACK
6
CONTINUOUS
10
-0.0514052
20
1.09366
11
-0.0632866
21
1.10028
0
LINE
8
BLACK
6
CONTINUOUS
10
-0.0632866
20
1.10028
11
-0.0743292
21
1.10821
0
LINE
8
BLACK
6
CONTINUOUS
10
-0.0743292
20
1.10821
11
-0.0843865
21
1.11736
0
LINE
8
BLACK
6
CONTINUOUS
10
-0.0843865
20
1.11736
11
-0.0933254
21
1.12761
0
LINE
8
BLACK
6
CONTINUOUS
10
-0.0933254
20
1.12761
11
-0.101027
21
1.13882
0
LINE
8
BLACK
6
CONTINUOUS
10
-0.101027
20
1.13882
11
-0.10739
21
1.15083
0
LINE
8
BLACK
6
CONTINUOUS
10
-0.10739
20
1.15083
11
-0.11233
21
1.1635
0
LINE
8
BLACK
6
CONTINUOUS
10
-0.11233
20
1.1635
11
-0.11578
21
1.17665
0
LINE
8
BLACK
6
CONTINUOUS
10
-0.11578
20
1.17665
11
-0.117696
21
1.19012
0
LINE
8
BLACK
6
CONTINUOUS
10
-0.117696
20
1.19012
11
-0.118052
21
1.20371
0
LINE
8
BLACK
6
CONTINUOUS
10
-0.118052
20
1.20371
11
-0.116843
21
1.21725
0
LINE
8
BLACK
6
CONTINUOUS
10
-0.116843
20
1.21725
11
-0.114086
21
1.23057
0
LINE
8
BLACK
6
CONTINUOUS
10
-0.114086
20
1.23057
11
-0.109816
21
1.24348
0
LINE
8
BLACK
6
CONTINUOUS
10
-0.109816
20
1.24348
11
-0.104091
21
1.25581
0
LINE
8
BLACK
6
CONTINUOUS
10
-0.104091
20
1.25581
11
-0.0969861
21
1.26741
0
LINE
8
BLACK
6
CONTINUOUS
10
-0.0969861
20
1.26741
11
-0.0885958
21
1.27811
0
LINE
8
BLACK
6
CONTINUOUS
10
-0.0885958
20
1.27811
11
-0.0790312
21
1.28777
0
LINE
8
BLACK
6
CONTINUOUS
10
-0.0790312
20
1.28777
11
-0.0684191
21
1.29627
0
LINE
8
BLACK
6
CONTINUOUS
10
-0.0684191
20
1.29627
11
-0.0569
21
1.3035
0
LINE
8
BLACK
6
CONTINUOUS
10
-0.0569
20
1.3035
11
-0.0446269
21
1.30935
0
LINE
8
BLACK
6
CONTINUOUS
10
-0.0446269
20
1.30935
11
-0.0317622
21
1.31376
0
LINE
8
BLACK
6
CONTINUOUS
10
-0.0317622
20
1.31376
11
-0.0184765
21
1.31666
0
LINE
8
BLACK
6
CONTINUOUS
10
-0.0184765
20
1.31666
11
-0.00494594
21
1.31801
0
LINE
8
BLACK
6
CONTINUOUS
10
-0.00494594
20
1.31801
11
0.0086502
21
1.31779
0
LINE
8
BLACK
6
CONTINUOUS
10
-0.391454
20
1.24846
11
-0.383168
21
1.24624
0
LINE
8
BLACK
6
CONTINUOUS
10
-0.383168
20
1.24624
11
-0.375394
21
1.24262
0
LINE
8
BLACK
6
CONTINUOUS
10
-0.375394
20
1.24262
11
-0.368367
21
1.2377
0
LINE
8
BLACK
6
CONTINUOUS
10
-0.368367
20
1.2377
11
-0.362301
21
1.23163
0
LINE
8
BLACK
6
CONTINUOUS
10
-0.362301
20
1.23163
11
-0.357381
21
1.22461
0
LINE
8
BLACK
6
CONTINUOUS
10
-0.357381
20
1.22461
11
-0.353755
21
1.21683
0
LINE
8
BLACK
6
CONTINUOUS
10
-0.353755
20
1.21683
11
-0.351535
21
1.20855
0
LINE
8
BLACK
6
CONTINUOUS
10
-0.351535
20
1.20855
11
-0.350787
21
1.2
0
LINE
8
BLACK
6
CONTINUOUS
10
-0.350787
20
1.2
11
-0.351535
21
1.19145
0
LINE
8
BLACK
6
CONTINUOUS
10
-0.351535
20
1.19145
11
-0.353755
21
1.18317
0
LINE
8
BLACK
6
CONTINUOUS
10
-0.353755
20
1.18317
11
-0.357381
21
1.17539
0
LINE
8
BLACK
6
CONTINUOUS
10
-0.357381
20
1.17539
11
-0.362301
21
1.16837
0
LINE
8
BLACK
6
CONTINUOUS
10
-0.362301
20
1.16837
11
-0.368367
21
1.1623
0
LINE
8
BLACK
6
CONTINUOUS
10
-0.368367
20
1.1623
11
-0.375394
21
1.15738
0
LINE
8
BLACK
6
CONTINUOUS
10
-0.375394
20
1.15738
11
-0.383168
21
1.15376
0
LINE
8
BLACK
6
CONTINUOUS
10
-0.383168
20
1.15376
11
-0.391454
21
1.15154
0
LINE
8
BLACK
6
CONTINUOUS
10
-0.391454
20
1.15154
11
-0.4
21
1.15079
0
LINE
8
BLACK
6
CONTINUOUS
10
-0.4
20
1.15079
11
-0.408546
21
1.15154
0
LINE
8
BLACK
6
CONTINUOUS
10
-0.408546
20
1.15154
11
-0.416832
21
1.15376
0
LINE
8
BLACK
6
CONTINUOUS
10
-0.416832
20
1.15376
11
-0.424606
21
1.15738
0
LINE
8
BLACK
6
CONTINUOUS
10
-0.424606
20
1.15738
11
-0.431633
21
1.1623
0
LINE
8
BLACK
6
CONTINUOUS
10
-0.431633
20
1.1623
11
-0.437699
21
1.16837
0
LINE
8
BLACK
6
CONTINUOUS
10
-0.437699
20
1.16837
11
-0.442619
21
1.17539
0
LINE
8
BLACK
6
CONTINUOUS
10
-0.442619
20
1.17539
11
-0.446245
21
1.18317
0
LINE
8
BLACK
6
CONTINUOUS
10
-0.446245
20
1.18317
11
-0.448465
21
1.19145
0
LINE
8
BLACK
6
CONTINUOUS
10
-0.448465
20
1.19145
11
-0.449213
21
1.2
0
LINE
8
BLACK
6
CONTINUOUS
10
-0.449213
20
1.2
11
-0.448465
21
1.20855
0
LINE
8
BLACK
6
CONTINUOUS
10
-0.448465
20
1.20855
11
-0.446245
21
1.21683
0
LINE
8
BLACK
6
CONTINUOUS
10
-0.446245
20
1.21683
11
-0.442619
21
1.22461
0
LINE
8
BLACK
6
CONTINUOUS
10
-0.442619
20
1.22461
11
-0.437699
21
1.23163
0
LINE
8
BLACK
6
CONTINUOUS
10
-0.437699
20
1.23163
11
-0.431633
21
1.2377
0
LINE
8
BLACK
6
CONTINUOUS
10
-0.431633
20
1.2377
11
-0.424606
21
1.24262
0
LINE
8
BLACK
6
CONTINUOUS
10
-0.424606
20
1.24262
11
-0.416832
21
1.24624
0
LINE
8
BLACK
6
CONTINUOUS
10
-0.416832
20
1.24624
11
-0.408546
21
1.24846
0
LINE
8
BLACK
6
CONTINUOUS
10
-0.408546
20
1.24846
11
-0.4
21
1.24921
0
LINE
8
BLACK
6
CONTINUOUS
10
-0.4
20
1.24921
11
-0.391454
21
1.24846
0
LINE
8
BLACK
6
CONTINUOUS
10
-0.290771
20
1.35234
11
-0.281822
21
1.34994
0
LINE
8
BLACK
6
CONTINUOUS
10
-0.281822
20
1.34994
11
-0.273425
21
1.34603
0
LINE
8
BLACK
6
CONTINUOUS
10
-0.273425
20
1.34603
11
-0.265836
21
1.34071
0
LINE
8
BLACK
6
CONTINUOUS
10
-0.265836
20
1.34071
11
-0.259285
21
1.33416
0
LINE
8
BLACK
6
CONTINUOUS
10
-0.259285
20
1.33416
11
-0.253971
21
1.32657
0
LINE
8
BLACK
6
CONTINUOUS
10
-0.253971
20
1.32657
11
-0.250056
21
1.31818
0
LINE
8
BLACK
6
CONTINUOUS
10
-0.250056
20
1.31818
11
-0.247658
21
1.30923
0
LINE
8
BLACK
6
CONTINUOUS
10
-0.247658
20
1.30923
11
-0.24685
21
1.3
0
LINE
8
BLACK
6
CONTINUOUS
10
-0.24685
20
1.3
11
-0.247658
21
1.29077
0
LINE
8
BLACK
6
CONTINUOUS
10
-0.247658
20
1.29077
11
-0.250056
21
1.28182
0
LINE
8
BLACK
6
CONTINUOUS
10
-0.250056
20
1.28182
11
-0.253971
21
1.27343
0
LINE
8
BLACK
6
CONTINUOUS
10
-0.253971
20
1.27343
11
-0.259285
21
1.26584
0
LINE
8
BLACK
6
CONTINUOUS
10
-0.259285
20
1.26584
11
-0.265836
21
1.25929
0
LINE
8
BLACK
6
CONTINUOUS
10
-0.265836
20
1.25929
11
-0.273425
21
1.25397
0
LINE
8
BLACK
6
CONTINUOUS
10
-0.273425
20
1.25397
11
-0.281822
21
1.25006
0
LINE
8
BLACK
6
CONTINUOUS
10
-0.281822
20
1.25006
11
-0.290771
21
1.24766
0
LINE
8
BLACK
6
CONTINUOUS
10
-0.290771
20
1.24766
11
-0.3
21
1.24685
0
LINE
8
BLACK
6
CONTINUOUS
10
-0.3
20
1.24685
11
-0.309229
21
1.24766
0
LINE
8
BLACK
6
CONTINUOUS
10
-0.309229
20
1.24766
11
-0.318178
21
1.25006
0
LINE
8
BLACK
6
CONTINUOUS
10
-0.318178
20
1.25006
11
-0.326575
21
1.25397
0
LINE
8
BLACK
6
CONTINUOUS
10
-0.326575
20
1.25397
11
-0.334164
21
1.25929
0
LINE
8
BLACK
6
CONTINUOUS
10
-0.334164
20
1.25929
11
-0.340715
21
1.26584
0
LINE
8
BLACK
6
CONTINUOUS
10
-0.340715
20
1.26584
11
-0.346029
21
1.27343
0
LINE
8
BLACK
6
CONTINUOUS
10
-0.346029
20
1.27343
11
-0.349944
21
1.28182
0
LINE
8
BLACK
6
CONTINUOUS
10
-0.349944
20
1.28182
11
-0.352342
21
1.29077
0
LINE
8
BLACK
6
CONTINUOUS
10
-0.352342
20
1.29077
11
-0.35315
21
1.3
0
LINE
8
BLACK
6
CONTINUOUS
10
-0.35315
20
1.3
11
-0.352342
21
1.30923
0
LINE
8
BLACK
6
CONTINUOUS
10
-0.352342
20
1.30923
11
-0.349944
21
1.31818
0
LINE
8
BLACK
6
CONTINUOUS
10
-0.349944
20
1.31818
11
-0.346029
21
1.32657
0
LINE
8
BLACK
6
CONTINUOUS
10
-0.346029
20
1.32657
11
-0.340715
21
1.33416
0
LINE
8
BLACK
6
CONTINUOUS
10
-0.340715
20
1.33416
11
-0.334164
21
1.34071
0
LINE
8
BLACK
6
CONTINUOUS
10
-0.334164
20
1.34071
11
-0.326575
21
1.34603
0
LINE
8
BLACK
6
CONTINUOUS
10
-0.326575
20
1.34603
11
-0.318178
21
1.34994
0
LINE
8
BLACK
6
CONTINUOUS
10
-0.318178
20
1.34994
11
-0.309229
21
1.35234
0
LINE
8
BLACK
6
CONTINUOUS
10
-0.309229
20
1.35234
11
-0.3
21
1.35315
0
LINE
8
BLACK
6
CONTINUOUS
10
-0.3
20
1.35315
11
-0.290771
21
1.35234
0
LINE
8
BLACK
6
CONTINUOUS
10
-0.490771
20
1.35234
11
-0.481822
21
1.34994
0
LINE
8
BLACK
6
CONTINUOUS
10
-0.481822
20
1.34994
11
-0.473425
21
1.34603
0
LINE
8
BLACK
6
CONTINUOUS
10
-0.473425
20
1.34603
11
-0.465836
21
1.34071
0
LINE
8
BLACK
6
CONTINUOUS
10
-0.465836
20
1.34071
11
-0.459285
21
1.33416
0
LINE
8
BLACK
6
CONTINUOUS
10
-0.459285
20
1.33416
11
-0.453971
21
1.32657
0
LINE
8
BLACK
6
CONTINUOUS
10
-0.453971
20
1.32657
11
-0.450056
21
1.31818
0
LINE
8
BLACK
6
CONTINUOUS
10
-0.450056
20
1.31818
11
-0.447658
21
1.30923
0
LINE
8
BLACK
6
CONTINUOUS
10
-0.447658
20
1.30923
11
-0.44685
21
1.3
0
LINE
8
BLACK
6
CONTINUOUS
10
-0.44685
20
1.3
11
-0.447658
21
1.29077
0
LINE
8
BLACK
6
CONTINUOUS
10
-0.447658
20
1.29077
11
-0.450056
21
1.28182
0
LINE
8
BLACK
6
CONTINUOUS
10
-0.450056
20
1.28182
11
-0.453971
21
1.27343
0
LINE
8
BLACK
6
CONTINUOUS
10
-0.453971
20
1.27343
11
-0.459285
21
1.26584
0
LINE
8
BLACK
6
CONTINUOUS
10
-0.459285
20
1.26584
11
-0.465836
21
1.25929
0
LINE
8
BLACK
6
CONTINUOUS
10
-0.465836
20
1.25929
11
-0.473425
21
1.25397
0
LINE
8
BLACK
6
CONTINUOUS
10
-0.473425
20
1.25397
11
-0.481822
21
1.25006
0
LINE
8
BLACK
6
CONTINUOUS
10
-0.481822
20
1.25006
11
-0.490771
21
1.24766
0
LINE
8
BLACK
6
CONTINUOUS
10
-0.490771
20
1.24766
11
-0.5
21
1.24685
0
LINE
8
BLACK
6
CONTINUOUS
10
-0.5
20
1.24685
11
-0.509229
21
1.24766
0
LINE
8
BLACK
6
CONTINUOUS
10
-0.509229
20
1.24766
11
-0.518178
21
1.25006
0
LINE
8
BLACK
6
CONTINUOUS
10
-0.518178
20
1.25006
11
-0.526575
21
1.25397
0
LINE
8
BLACK
6
CONTINUOUS
10
-0.526575
20
1.25397
11
-0.534164
21
1.25929
0
LINE
8
BLACK
6
CONTINUOUS
10
-0.534164
20
1.25929
11
-0.540715
21
1.26584
0
LINE
8
BLACK
6
CONTINUOUS
10
-0.540715
20
1.26584
11
-0.546029
21
1.27343
0
LINE
8
BLACK
6
CONTINUOUS
10
-0.546029
20
1.27343
11
-0.549944
21
1.28182
0
LINE
8
BLACK
6
CONTINUOUS
10
-0.549944
20
1.28182
11
-0.552342
21
1.29077
0
LINE
8
BLACK
6
CONTINUOUS
10
-0.552342
20
1.29077
11
-0.55315
21
1.3
0
LINE
8
BLACK
6
CONTINUOUS
10
-0.55315
20
1.3
11
-0.552342
21
1.30923
0
LINE
8
BLACK
6
CONTINUOUS
10
-0.552342
20
1.30923
11
-0.549944
21
1.31818
0
LINE
8
BLACK
6
CONTINUOUS
10
-0.549944
20
1.31818
11
-0.546029
21
1.32657
0
LINE
8
BLACK
6
CONTINUOUS
10
-0.546029
20
1.32657
11
-0.540715
21
1.33416
0
LINE
8
BLACK
6
CONTINUOUS
10
-0.540715
20
1.33416
11
-0.534164
21
1.34071
0
LINE
8
BLACK
6
CONTINUOUS
10
-0.534164
20
1.34071
11
-0.526575
21
1.34603
0
LINE
8
BLACK
6
CONTINUOUS
10
-0.526575
20
1.34603
11
-0.518178
21
1.34994
0
LINE
8
BLACK
6
CONTINUOUS
10
-0.518178
20
1.34994
11
-0.509229
21
1.35234
0
LINE
8
BLACK
6
CONTINUOUS
10
-0.509229
20
1.35234
11
-0.5
21
1.35315
0
LINE
8
BLACK
6
CONTINUOUS
10
-0.5
20
1.35315
11
-0.490771
21
1.35234
  0
ENDSEC
  0
EOF
