  0
SECTION
  2
HEADER
  9
$ANGBASE
  50
0.0
  9
$ANGDIR
  70
1
  9
$MEASUREMENT
  70
0
  0
ENDSEC
  0
SECTION
  2
TABLES
  0
TABLE
  2
LTYPE
  70
4
  0
LTYPE
  5
40F
  2
CONTINUOUS
  70
0
  3
Solid line
  72
65
  73
0
  40
0.0
  0
LTYPE
  5
410
  2
DASHDOT
 70
0
  3
Dash Dot ____ _ ____ _
 72
65
 73
4
 40
2.0
 49
1.25
 49
-0.25
 49
0.25
 49
-0.25
  0
LTYPE
  5
411
  2
DASHED
 70
0
  3
Dashed __ __ __ __ __
 72
65
 73
2
 40
0.75
 49
0.5
 49
-0.25
  0
LTYPE
  5
43B
  2
DOTTED
 70
0
  3
Dotted .  .  .  .
 72
65
 73
2
 40
0.2
 49
0.0
 49
-0.2
  0
ENDTAB
  0
TABLE
  2
STYLE
  70
4
  0
STYLE
  2
KICAD
  70
0
  40
0
  41
1
  42
1
  50
0
  71
0
  3
isocp.shx
  0
STYLE
  2
KICADB
  70
0
  40
0
  41
1
  42
1
  50
0
  71
0
  3
isocp.shx
  0
STYLE
  2
KICADI
  70
0
  40
0
  41
1
  42
1
  50
15
  71
0
  3
isocp.shx
  0
STYLE
  2
KICADBI
  70
0
  40
0
  41
1
  42
1
  50
15
  71
0
  3
isocp.shx
  0
ENDTAB
  0
TABLE
  2
LAYER
  70
1
  0
LAYER
  2
BLACK
  70
0
  62
7
  6
CONTINUOUS
  0
ENDTAB
  0
ENDSEC
  0
SECTION
  2
ENTITIES
0
LINE
8
BLACK
6
CONTINUOUS
10
0.538179
20
0.14068
11
0.538308
21
0.140703
0
LINE
8
BLACK
6
CONTINUOUS
10
0.538308
20
0.140703
11
0.538422
21
0.140638
0
LINE
8
BLACK
6
CONTINUOUS
10
0.538422
20
0.140638
11
0.538805
21
0.14057
0
LINE
8
BLACK
6
CONTINUOUS
10
0.538805
20
0.14057
11
0.539393
21
0.140077
0
LINE
8
BLACK
6
CONTINUOUS
10
0.539393
20
0.140077
11
0.540057
21
0.139693
0
LINE
8
BLACK
6
CONTINUOUS
10
0.540057
20
0.139693
11
0.540148
21
0.139443
0
LINE
8
BLACK
6
CONTINUOUS
10
0.540148
20
0.139443
11
0.540352
21
0.139272
0
LINE
8
BLACK
6
CONTINUOUS
10
0.540352
20
0.139272
11
0.540486
21
0.138516
0
LINE
8
BLACK
6
CONTINUOUS
10
0.540486
20
0.138516
11
0.540748
21
0.137795
0
LINE
8
BLACK
6
CONTINUOUS
10
0.540748
20
0.137795
11
0.540748
21
-0.137795
0
LINE
8
BLACK
6
CONTINUOUS
10
0.540748
20
-0.137795
11
0.54068
21
-0.138179
0
LINE
8
BLACK
6
CONTINUOUS
10
0.54068
20
-0.138179
11
0.540703
21
-0.138308
0
LINE
8
BLACK
6
CONTINUOUS
10
0.540703
20
-0.138308
11
0.540638
21
-0.138422
0
LINE
8
BLACK
6
CONTINUOUS
10
0.540638
20
-0.138422
11
0.54057
21
-0.138805
0
LINE
8
BLACK
6
CONTINUOUS
10
0.54057
20
-0.138805
11
0.540077
21
-0.139393
0
LINE
8
BLACK
6
CONTINUOUS
10
0.540077
20
-0.139393
11
0.539693
21
-0.140057
0
LINE
8
BLACK
6
CONTINUOUS
10
0.539693
20
-0.140057
11
0.539443
21
-0.140148
0
LINE
8
BLACK
6
CONTINUOUS
10
0.539443
20
-0.140148
11
0.539272
21
-0.140352
0
LINE
8
BLACK
6
CONTINUOUS
10
0.539272
20
-0.140352
11
0.538516
21
-0.140486
0
LINE
8
BLACK
6
CONTINUOUS
10
0.538516
20
-0.140486
11
0.537795
21
-0.140748
0
LINE
8
BLACK
6
CONTINUOUS
10
0.537795
20
-0.140748
11
0.262205
21
-0.140748
0
LINE
8
BLACK
6
CONTINUOUS
10
0.262205
20
-0.140748
11
0.261821
21
-0.14068
0
LINE
8
BLACK
6
CONTINUOUS
10
0.261821
20
-0.14068
11
0.261692
21
-0.140703
0
LINE
8
BLACK
6
CONTINUOUS
10
0.261692
20
-0.140703
11
0.261578
21
-0.140638
0
LINE
8
BLACK
6
CONTINUOUS
10
0.261578
20
-0.140638
11
0.261195
21
-0.14057
0
LINE
8
BLACK
6
CONTINUOUS
10
0.261195
20
-0.14057
11
0.260607
21
-0.140077
0
LINE
8
BLACK
6
CONTINUOUS
10
0.260607
20
-0.140077
11
0.259943
21
-0.139693
0
LINE
8
BLACK
6
CONTINUOUS
10
0.259943
20
-0.139693
11
0.259852
21
-0.139443
0
LINE
8
BLACK
6
CONTINUOUS
10
0.259852
20
-0.139443
11
0.259648
21
-0.139272
0
LINE
8
BLACK
6
CONTINUOUS
10
0.259648
20
-0.139272
11
0.259514
21
-0.138516
0
LINE
8
BLACK
6
CONTINUOUS
10
0.259514
20
-0.138516
11
0.259252
21
-0.137795
0
LINE
8
BLACK
6
CONTINUOUS
10
0.259252
20
-0.137795
11
0.259252
21
0.137795
0
LINE
8
BLACK
6
CONTINUOUS
10
0.259252
20
0.137795
11
0.25932
21
0.138179
0
LINE
8
BLACK
6
CONTINUOUS
10
0.25932
20
0.138179
11
0.259297
21
0.138308
0
LINE
8
BLACK
6
CONTINUOUS
10
0.259297
20
0.138308
11
0.259362
21
0.138422
0
LINE
8
BLACK
6
CONTINUOUS
10
0.259362
20
0.138422
11
0.25943
21
0.138805
0
LINE
8
BLACK
6
CONTINUOUS
10
0.25943
20
0.138805
11
0.259923
21
0.139393
0
LINE
8
BLACK
6
CONTINUOUS
10
0.259923
20
0.139393
11
0.260307
21
0.140057
0
LINE
8
BLACK
6
CONTINUOUS
10
0.260307
20
0.140057
11
0.260557
21
0.140148
0
LINE
8
BLACK
6
CONTINUOUS
10
0.260557
20
0.140148
11
0.260728
21
0.140352
0
LINE
8
BLACK
6
CONTINUOUS
10
0.260728
20
0.140352
11
0.261484
21
0.140486
0
LINE
8
BLACK
6
CONTINUOUS
10
0.261484
20
0.140486
11
0.262205
21
0.140748
0
LINE
8
BLACK
6
CONTINUOUS
10
0.262205
20
0.140748
11
0.537795
21
0.140748
0
LINE
8
BLACK
6
CONTINUOUS
10
0.537795
20
0.140748
11
0.538179
21
0.14068
0
LINE
8
BLACK
6
CONTINUOUS
10
0.265157
20
-0.082874
11
0.265157
21
-0.134843
0
LINE
8
BLACK
6
CONTINUOUS
10
0.265157
20
-0.134843
11
0.317126
21
-0.134843
0
LINE
8
BLACK
6
CONTINUOUS
10
0.317126
20
-0.134843
11
0.317126
21
-0.123031
0
LINE
8
BLACK
6
CONTINUOUS
10
0.317126
20
-0.123031
11
0.279921
21
-0.123031
0
LINE
8
BLACK
6
CONTINUOUS
10
0.279921
20
-0.123031
11
0.279538
21
-0.122964
0
LINE
8
BLACK
6
CONTINUOUS
10
0.279538
20
-0.122964
11
0.279409
21
-0.122987
0
LINE
8
BLACK
6
CONTINUOUS
10
0.279409
20
-0.122987
11
0.279295
21
-0.122921
0
LINE
8
BLACK
6
CONTINUOUS
10
0.279295
20
-0.122921
11
0.278911
21
-0.122853
0
LINE
8
BLACK
6
CONTINUOUS
10
0.278911
20
-0.122853
11
0.278324
21
-0.12236
0
LINE
8
BLACK
6
CONTINUOUS
10
0.278324
20
-0.12236
11
0.277659
21
-0.121977
0
LINE
8
BLACK
6
CONTINUOUS
10
0.277659
20
-0.121977
11
0.277568
21
-0.121726
0
LINE
8
BLACK
6
CONTINUOUS
10
0.277568
20
-0.121726
11
0.277364
21
-0.121555
0
LINE
8
BLACK
6
CONTINUOUS
10
0.277364
20
-0.121555
11
0.277231
21
-0.1208
0
LINE
8
BLACK
6
CONTINUOUS
10
0.277231
20
-0.1208
11
0.276969
21
-0.120079
0
LINE
8
BLACK
6
CONTINUOUS
10
0.276969
20
-0.120079
11
0.276969
21
-0.082874
0
LINE
8
BLACK
6
CONTINUOUS
10
0.276969
20
-0.082874
11
0.265157
21
-0.082874
0
LINE
8
BLACK
6
CONTINUOUS
10
0.323031
20
0.134843
11
0.323031
21
0.0799213
0
LINE
8
BLACK
6
CONTINUOUS
10
0.323031
20
0.0799213
11
0.322964
21
0.0795377
0
LINE
8
BLACK
6
CONTINUOUS
10
0.322964
20
0.0795377
11
0.322987
21
0.0794085
0
LINE
8
BLACK
6
CONTINUOUS
10
0.322987
20
0.0794085
11
0.322921
21
0.0792949
0
LINE
8
BLACK
6
CONTINUOUS
10
0.322921
20
0.0792949
11
0.322853
21
0.0789113
0
LINE
8
BLACK
6
CONTINUOUS
10
0.322853
20
0.0789113
11
0.32236
21
0.0783237
0
LINE
8
BLACK
6
CONTINUOUS
10
0.32236
20
0.0783237
11
0.321977
21
0.0776593
0
LINE
8
BLACK
6
CONTINUOUS
10
0.321977
20
0.0776593
11
0.321726
21
0.0775682
0
LINE
8
BLACK
6
CONTINUOUS
10
0.321726
20
0.0775682
11
0.321555
21
0.0773641
0
LINE
8
BLACK
6
CONTINUOUS
10
0.321555
20
0.0773641
11
0.3208
21
0.0772309
0
LINE
8
BLACK
6
CONTINUOUS
10
0.3208
20
0.0772309
11
0.320079
21
0.0769685
0
LINE
8
BLACK
6
CONTINUOUS
10
0.320079
20
0.0769685
11
0.265157
21
0.0769685
0
LINE
8
BLACK
6
CONTINUOUS
10
0.265157
20
0.0769685
11
0.265157
21
-0.0769685
0
LINE
8
BLACK
6
CONTINUOUS
10
0.265157
20
-0.0769685
11
0.320079
21
-0.0769685
0
LINE
8
BLACK
6
CONTINUOUS
10
0.320079
20
-0.0769685
11
0.320462
21
-0.0770361
0
LINE
8
BLACK
6
CONTINUOUS
10
0.320462
20
-0.0770361
11
0.320591
21
-0.0770133
0
LINE
8
BLACK
6
CONTINUOUS
10
0.320591
20
-0.0770133
11
0.320705
21
-0.0770789
0
LINE
8
BLACK
6
CONTINUOUS
10
0.320705
20
-0.0770789
11
0.321089
21
-0.0771466
0
LINE
8
BLACK
6
CONTINUOUS
10
0.321089
20
-0.0771466
11
0.321676
21
-0.0776397
0
LINE
8
BLACK
6
CONTINUOUS
10
0.321676
20
-0.0776397
11
0.322341
21
-0.0780233
0
LINE
8
BLACK
6
CONTINUOUS
10
0.322341
20
-0.0780233
11
0.322432
21
-0.0782736
0
LINE
8
BLACK
6
CONTINUOUS
10
0.322432
20
-0.0782736
11
0.322636
21
-0.0784449
0
LINE
8
BLACK
6
CONTINUOUS
10
0.322636
20
-0.0784449
11
0.322769
21
-0.0792004
0
LINE
8
BLACK
6
CONTINUOUS
10
0.322769
20
-0.0792004
11
0.323031
21
-0.0799213
0
LINE
8
BLACK
6
CONTINUOUS
10
0.323031
20
-0.0799213
11
0.323031
21
-0.134843
0
LINE
8
BLACK
6
CONTINUOUS
10
0.323031
20
-0.134843
11
0.476969
21
-0.134843
0
LINE
8
BLACK
6
CONTINUOUS
10
0.476969
20
-0.134843
11
0.476969
21
-0.0799213
0
LINE
8
BLACK
6
CONTINUOUS
10
0.476969
20
-0.0799213
11
0.477036
21
-0.0795377
0
LINE
8
BLACK
6
CONTINUOUS
10
0.477036
20
-0.0795377
11
0.477013
21
-0.0794085
0
LINE
8
BLACK
6
CONTINUOUS
10
0.477013
20
-0.0794085
11
0.477079
21
-0.0792949
0
LINE
8
BLACK
6
CONTINUOUS
10
0.477079
20
-0.0792949
11
0.477147
21
-0.0789113
0
LINE
8
BLACK
6
CONTINUOUS
10
0.477147
20
-0.0789113
11
0.47764
21
-0.0783237
0
LINE
8
BLACK
6
CONTINUOUS
10
0.47764
20
-0.0783237
11
0.478023
21
-0.0776593
0
LINE
8
BLACK
6
CONTINUOUS
10
0.478023
20
-0.0776593
11
0.478274
21
-0.0775682
0
LINE
8
BLACK
6
CONTINUOUS
10
0.478274
20
-0.0775682
11
0.478445
21
-0.0773641
0
LINE
8
BLACK
6
CONTINUOUS
10
0.478445
20
-0.0773641
11
0.4792
21
-0.0772309
0
LINE
8
BLACK
6
CONTINUOUS
10
0.4792
20
-0.0772309
11
0.479921
21
-0.0769685
0
LINE
8
BLACK
6
CONTINUOUS
10
0.479921
20
-0.0769685
11
0.534843
21
-0.0769685
0
LINE
8
BLACK
6
CONTINUOUS
10
0.534843
20
-0.0769685
11
0.534843
21
0.0769685
0
LINE
8
BLACK
6
CONTINUOUS
10
0.534843
20
0.0769685
11
0.479921
21
0.0769685
0
LINE
8
BLACK
6
CONTINUOUS
10
0.479921
20
0.0769685
11
0.479538
21
0.0770361
0
LINE
8
BLACK
6
CONTINUOUS
10
0.479538
20
0.0770361
11
0.479409
21
0.0770133
0
LINE
8
BLACK
6
CONTINUOUS
10
0.479409
20
0.0770133
11
0.479295
21
0.0770789
0
LINE
8
BLACK
6
CONTINUOUS
10
0.479295
20
0.0770789
11
0.478911
21
0.0771466
0
LINE
8
BLACK
6
CONTINUOUS
10
0.478911
20
0.0771466
11
0.478324
21
0.0776397
0
LINE
8
BLACK
6
CONTINUOUS
10
0.478324
20
0.0776397
11
0.477659
21
0.0780233
0
LINE
8
BLACK
6
CONTINUOUS
10
0.477659
20
0.0780233
11
0.477568
21
0.0782736
0
LINE
8
BLACK
6
CONTINUOUS
10
0.477568
20
0.0782736
11
0.477364
21
0.0784449
0
LINE
8
BLACK
6
CONTINUOUS
10
0.477364
20
0.0784449
11
0.477231
21
0.0792004
0
LINE
8
BLACK
6
CONTINUOUS
10
0.477231
20
0.0792004
11
0.476969
21
0.0799213
0
LINE
8
BLACK
6
CONTINUOUS
10
0.476969
20
0.0799213
11
0.476969
21
0.134843
0
LINE
8
BLACK
6
CONTINUOUS
10
0.476969
20
0.134843
11
0.323031
21
0.134843
0
LINE
8
BLACK
6
CONTINUOUS
10
0.523031
20
-0.082874
11
0.523031
21
-0.120079
0
LINE
8
BLACK
6
CONTINUOUS
10
0.523031
20
-0.120079
11
0.522964
21
-0.120462
0
LINE
8
BLACK
6
CONTINUOUS
10
0.522964
20
-0.120462
11
0.522987
21
-0.120591
0
LINE
8
BLACK
6
CONTINUOUS
10
0.522987
20
-0.120591
11
0.522921
21
-0.120705
0
LINE
8
BLACK
6
CONTINUOUS
10
0.522921
20
-0.120705
11
0.522853
21
-0.121089
0
LINE
8
BLACK
6
CONTINUOUS
10
0.522853
20
-0.121089
11
0.52236
21
-0.121676
0
LINE
8
BLACK
6
CONTINUOUS
10
0.52236
20
-0.121676
11
0.521977
21
-0.122341
0
LINE
8
BLACK
6
CONTINUOUS
10
0.521977
20
-0.122341
11
0.521726
21
-0.122432
0
LINE
8
BLACK
6
CONTINUOUS
10
0.521726
20
-0.122432
11
0.521555
21
-0.122636
0
LINE
8
BLACK
6
CONTINUOUS
10
0.521555
20
-0.122636
11
0.5208
21
-0.122769
0
LINE
8
BLACK
6
CONTINUOUS
10
0.5208
20
-0.122769
11
0.520079
21
-0.123031
0
LINE
8
BLACK
6
CONTINUOUS
10
0.520079
20
-0.123031
11
0.482874
21
-0.123031
0
LINE
8
BLACK
6
CONTINUOUS
10
0.482874
20
-0.123031
11
0.482874
21
-0.134843
0
LINE
8
BLACK
6
CONTINUOUS
10
0.482874
20
-0.134843
11
0.534843
21
-0.134843
0
LINE
8
BLACK
6
CONTINUOUS
10
0.534843
20
-0.134843
11
0.534843
21
-0.082874
0
LINE
8
BLACK
6
CONTINUOUS
10
0.534843
20
-0.082874
11
0.523031
21
-0.082874
0
LINE
8
BLACK
6
CONTINUOUS
10
0.482874
20
-0.082874
11
0.482874
21
-0.117126
0
LINE
8
BLACK
6
CONTINUOUS
10
0.482874
20
-0.117126
11
0.517126
21
-0.117126
0
LINE
8
BLACK
6
CONTINUOUS
10
0.517126
20
-0.117126
11
0.517126
21
-0.082874
0
LINE
8
BLACK
6
CONTINUOUS
10
0.517126
20
-0.082874
11
0.482874
21
-0.082874
0
LINE
8
BLACK
6
CONTINUOUS
10
0.282874
20
-0.082874
11
0.282874
21
-0.117126
0
LINE
8
BLACK
6
CONTINUOUS
10
0.282874
20
-0.117126
11
0.317126
21
-0.117126
0
LINE
8
BLACK
6
CONTINUOUS
10
0.317126
20
-0.117126
11
0.317126
21
-0.082874
0
LINE
8
BLACK
6
CONTINUOUS
10
0.317126
20
-0.082874
11
0.282874
21
-0.082874
0
LINE
8
BLACK
6
CONTINUOUS
10
0.482874
20
0.117126
11
0.482874
21
0.082874
0
LINE
8
BLACK
6
CONTINUOUS
10
0.482874
20
0.082874
11
0.517126
21
0.082874
0
LINE
8
BLACK
6
CONTINUOUS
10
0.517126
20
0.082874
11
0.517126
21
0.117126
0
LINE
8
BLACK
6
CONTINUOUS
10
0.517126
20
0.117126
11
0.482874
21
0.117126
0
LINE
8
BLACK
6
CONTINUOUS
10
0.482874
20
0.134843
11
0.482874
21
0.123031
0
LINE
8
BLACK
6
CONTINUOUS
10
0.482874
20
0.123031
11
0.520079
21
0.123031
0
LINE
8
BLACK
6
CONTINUOUS
10
0.520079
20
0.123031
11
0.520462
21
0.122964
0
LINE
8
BLACK
6
CONTINUOUS
10
0.520462
20
0.122964
11
0.520591
21
0.122987
0
LINE
8
BLACK
6
CONTINUOUS
10
0.520591
20
0.122987
11
0.520705
21
0.122921
0
LINE
8
BLACK
6
CONTINUOUS
10
0.520705
20
0.122921
11
0.521089
21
0.122853
0
LINE
8
BLACK
6
CONTINUOUS
10
0.521089
20
0.122853
11
0.521676
21
0.12236
0
LINE
8
BLACK
6
CONTINUOUS
10
0.521676
20
0.12236
11
0.522341
21
0.121977
0
LINE
8
BLACK
6
CONTINUOUS
10
0.522341
20
0.121977
11
0.522432
21
0.121726
0
LINE
8
BLACK
6
CONTINUOUS
10
0.522432
20
0.121726
11
0.522636
21
0.121555
0
LINE
8
BLACK
6
CONTINUOUS
10
0.522636
20
0.121555
11
0.522769
21
0.1208
0
LINE
8
BLACK
6
CONTINUOUS
10
0.522769
20
0.1208
11
0.523031
21
0.120079
0
LINE
8
BLACK
6
CONTINUOUS
10
0.523031
20
0.120079
11
0.523031
21
0.082874
0
LINE
8
BLACK
6
CONTINUOUS
10
0.523031
20
0.082874
11
0.534843
21
0.082874
0
LINE
8
BLACK
6
CONTINUOUS
10
0.534843
20
0.082874
11
0.534843
21
0.134843
0
LINE
8
BLACK
6
CONTINUOUS
10
0.534843
20
0.134843
11
0.482874
21
0.134843
0
LINE
8
BLACK
6
CONTINUOUS
10
0.265157
20
0.134843
11
0.265157
21
0.082874
0
LINE
8
BLACK
6
CONTINUOUS
10
0.265157
20
0.082874
11
0.276969
21
0.082874
0
LINE
8
BLACK
6
CONTINUOUS
10
0.276969
20
0.082874
11
0.276969
21
0.120079
0
LINE
8
BLACK
6
CONTINUOUS
10
0.276969
20
0.120079
11
0.277036
21
0.120462
0
LINE
8
BLACK
6
CONTINUOUS
10
0.277036
20
0.120462
11
0.277013
21
0.120591
0
LINE
8
BLACK
6
CONTINUOUS
10
0.277013
20
0.120591
11
0.277079
21
0.120705
0
LINE
8
BLACK
6
CONTINUOUS
10
0.277079
20
0.120705
11
0.277147
21
0.121089
0
LINE
8
BLACK
6
CONTINUOUS
10
0.277147
20
0.121089
11
0.27764
21
0.121676
0
LINE
8
BLACK
6
CONTINUOUS
10
0.27764
20
0.121676
11
0.278023
21
0.122341
0
LINE
8
BLACK
6
CONTINUOUS
10
0.278023
20
0.122341
11
0.278274
21
0.122432
0
LINE
8
BLACK
6
CONTINUOUS
10
0.278274
20
0.122432
11
0.278445
21
0.122636
0
LINE
8
BLACK
6
CONTINUOUS
10
0.278445
20
0.122636
11
0.2792
21
0.122769
0
LINE
8
BLACK
6
CONTINUOUS
10
0.2792
20
0.122769
11
0.279921
21
0.123031
0
LINE
8
BLACK
6
CONTINUOUS
10
0.279921
20
0.123031
11
0.317126
21
0.123031
0
LINE
8
BLACK
6
CONTINUOUS
10
0.317126
20
0.123031
11
0.317126
21
0.134843
0
LINE
8
BLACK
6
CONTINUOUS
10
0.317126
20
0.134843
11
0.265157
21
0.134843
0
LINE
8
BLACK
6
CONTINUOUS
10
0.282874
20
0.117126
11
0.282874
21
0.082874
0
LINE
8
BLACK
6
CONTINUOUS
10
0.282874
20
0.082874
11
0.317126
21
0.082874
0
LINE
8
BLACK
6
CONTINUOUS
10
0.317126
20
0.082874
11
0.317126
21
0.117126
0
LINE
8
BLACK
6
CONTINUOUS
10
0.317126
20
0.117126
11
0.282874
21
0.117126
0
LINE
8
BLACK
6
CONTINUOUS
10
0.3149
20
0.0228026
11
0.318604
21
0.0337153
0
LINE
8
BLACK
6
CONTINUOUS
10
0.318604
20
0.0337153
11
0.323701
21
0.0440511
0
LINE
8
BLACK
6
CONTINUOUS
10
0.323701
20
0.0440511
11
0.330104
21
0.0536333
0
LINE
8
BLACK
6
CONTINUOUS
10
0.330104
20
0.0536333
11
0.337702
21
0.0622978
0
LINE
8
BLACK
6
CONTINUOUS
10
0.337702
20
0.0622978
11
0.346367
21
0.0698963
0
LINE
8
BLACK
6
CONTINUOUS
10
0.346367
20
0.0698963
11
0.355949
21
0.0762989
0
LINE
8
BLACK
6
CONTINUOUS
10
0.355949
20
0.0762989
11
0.366285
21
0.0813959
0
LINE
8
BLACK
6
CONTINUOUS
10
0.366285
20
0.0813959
11
0.377197
21
0.0851003
0
LINE
8
BLACK
6
CONTINUOUS
10
0.377197
20
0.0851003
11
0.3885
21
0.0873486
0
LINE
8
BLACK
6
CONTINUOUS
10
0.3885
20
0.0873486
11
0.4
21
0.0881023
0
LINE
8
BLACK
6
CONTINUOUS
10
0.4
20
0.0881023
11
0.4115
21
0.0873486
0
LINE
8
BLACK
6
CONTINUOUS
10
0.4115
20
0.0873486
11
0.422803
21
0.0851003
0
LINE
8
BLACK
6
CONTINUOUS
10
0.422803
20
0.0851003
11
0.433715
21
0.0813959
0
LINE
8
BLACK
6
CONTINUOUS
10
0.433715
20
0.0813959
11
0.444051
21
0.0762989
0
LINE
8
BLACK
6
CONTINUOUS
10
0.444051
20
0.0762989
11
0.453633
21
0.0698963
0
LINE
8
BLACK
6
CONTINUOUS
10
0.453633
20
0.0698963
11
0.462298
21
0.0622978
0
LINE
8
BLACK
6
CONTINUOUS
10
0.462298
20
0.0622978
11
0.469896
21
0.0536333
0
LINE
8
BLACK
6
CONTINUOUS
10
0.469896
20
0.0536333
11
0.476299
21
0.0440511
0
LINE
8
BLACK
6
CONTINUOUS
10
0.476299
20
0.0440511
11
0.481396
21
0.0337153
0
LINE
8
BLACK
6
CONTINUOUS
10
0.481396
20
0.0337153
11
0.4851
21
0.0228026
0
LINE
8
BLACK
6
CONTINUOUS
10
0.4851
20
0.0228026
11
0.487349
21
0.0114996
0
LINE
8
BLACK
6
CONTINUOUS
10
0.487349
20
0.0114996
11
0.488102
21
0
0
LINE
8
BLACK
6
CONTINUOUS
10
0.488102
20
0
11
0.487349
21
-0.0114996
0
LINE
8
BLACK
6
CONTINUOUS
10
0.487349
20
-0.0114996
11
0.4851
21
-0.0228026
0
LINE
8
BLACK
6
CONTINUOUS
10
0.4851
20
-0.0228026
11
0.481396
21
-0.0337153
0
LINE
8
BLACK
6
CONTINUOUS
10
0.481396
20
-0.0337153
11
0.476299
21
-0.0440511
0
LINE
8
BLACK
6
CONTINUOUS
10
0.476299
20
-0.0440511
11
0.469896
21
-0.0536333
0
LINE
8
BLACK
6
CONTINUOUS
10
0.469896
20
-0.0536333
11
0.462298
21
-0.0622978
0
LINE
8
BLACK
6
CONTINUOUS
10
0.462298
20
-0.0622978
11
0.453633
21
-0.0698963
0
LINE
8
BLACK
6
CONTINUOUS
10
0.453633
20
-0.0698963
11
0.444051
21
-0.0762989
0
LINE
8
BLACK
6
CONTINUOUS
10
0.444051
20
-0.0762989
11
0.433715
21
-0.0813959
0
LINE
8
BLACK
6
CONTINUOUS
10
0.433715
20
-0.0813959
11
0.422803
21
-0.0851003
0
LINE
8
BLACK
6
CONTINUOUS
10
0.422803
20
-0.0851003
11
0.4115
21
-0.0873486
0
LINE
8
BLACK
6
CONTINUOUS
10
0.4115
20
-0.0873486
11
0.4
21
-0.0881023
0
LINE
8
BLACK
6
CONTINUOUS
10
0.4
20
-0.0881023
11
0.3885
21
-0.0873486
0
LINE
8
BLACK
6
CONTINUOUS
10
0.3885
20
-0.0873486
11
0.377197
21
-0.0851003
0
LINE
8
BLACK
6
CONTINUOUS
10
0.377197
20
-0.0851003
11
0.366285
21
-0.0813959
0
LINE
8
BLACK
6
CONTINUOUS
10
0.366285
20
-0.0813959
11
0.355949
21
-0.0762989
0
LINE
8
BLACK
6
CONTINUOUS
10
0.355949
20
-0.0762989
11
0.346367
21
-0.0698963
0
LINE
8
BLACK
6
CONTINUOUS
10
0.346367
20
-0.0698963
11
0.337702
21
-0.0622978
0
LINE
8
BLACK
6
CONTINUOUS
10
0.337702
20
-0.0622978
11
0.330104
21
-0.0536333
0
LINE
8
BLACK
6
CONTINUOUS
10
0.330104
20
-0.0536333
11
0.323701
21
-0.0440511
0
LINE
8
BLACK
6
CONTINUOUS
10
0.323701
20
-0.0440511
11
0.318604
21
-0.0337153
0
LINE
8
BLACK
6
CONTINUOUS
10
0.318604
20
-0.0337153
11
0.3149
21
-0.0228026
0
LINE
8
BLACK
6
CONTINUOUS
10
0.3149
20
-0.0228026
11
0.312651
21
-0.0114996
0
LINE
8
BLACK
6
CONTINUOUS
10
0.312651
20
-0.0114996
11
0.311898
21
0
0
LINE
8
BLACK
6
CONTINUOUS
10
0.311898
20
0
11
0.311954
21
0.000862756
0
LINE
8
BLACK
6
CONTINUOUS
10
0.311954
20
0.000862756
11
0.312651
21
0.0114996
0
LINE
8
BLACK
6
CONTINUOUS
10
0.312651
20
0.0114996
11
0.3149
21
0.0228026
0
LINE
8
BLACK
6
CONTINUOUS
10
0.320418
20
-0.0213238
11
0.324049
21
-0.031927
0
LINE
8
BLACK
6
CONTINUOUS
10
0.324049
20
-0.031927
11
0.329084
21
-0.0419394
0
LINE
8
BLACK
6
CONTINUOUS
10
0.329084
20
-0.0419394
11
0.335432
21
-0.0511757
0
LINE
8
BLACK
6
CONTINUOUS
10
0.335432
20
-0.0511757
11
0.342975
21
-0.059465
0
LINE
8
BLACK
6
CONTINUOUS
10
0.342975
20
-0.059465
11
0.351573
21
-0.066654
0
LINE
8
BLACK
6
CONTINUOUS
10
0.351573
20
-0.066654
11
0.361067
21
-0.0726096
0
LINE
8
BLACK
6
CONTINUOUS
10
0.361067
20
-0.0726096
11
0.371282
21
-0.0772216
0
LINE
8
BLACK
6
CONTINUOUS
10
0.371282
20
-0.0772216
11
0.382027
21
-0.0804047
0
LINE
8
BLACK
6
CONTINUOUS
10
0.382027
20
-0.0804047
11
0.393106
21
-0.0821
0
LINE
8
BLACK
6
CONTINUOUS
10
0.393106
20
-0.0821
11
0.404312
21
-0.082276
0
LINE
8
BLACK
6
CONTINUOUS
10
0.404312
20
-0.082276
11
0.415438
21
-0.0809296
0
LINE
8
BLACK
6
CONTINUOUS
10
0.415438
20
-0.0809296
11
0.426279
21
-0.0780856
0
LINE
8
BLACK
6
CONTINUOUS
10
0.426279
20
-0.0780856
11
0.436633
21
-0.0737967
0
LINE
8
BLACK
6
CONTINUOUS
10
0.436633
20
-0.0737967
11
0.446309
21
-0.0681422
0
LINE
8
BLACK
6
CONTINUOUS
10
0.446309
20
-0.0681422
11
0.455129
21
-0.0612269
0
LINE
8
BLACK
6
CONTINUOUS
10
0.455129
20
-0.0612269
11
0.462928
21
-0.0531785
0
LINE
8
BLACK
6
CONTINUOUS
10
0.462928
20
-0.0531785
11
0.469563
21
-0.0441462
0
LINE
8
BLACK
6
CONTINUOUS
10
0.469563
20
-0.0441462
11
0.474911
21
-0.0342969
0
LINE
8
BLACK
6
CONTINUOUS
10
0.474911
20
-0.0342969
11
0.478872
21
-0.023813
0
LINE
8
BLACK
6
CONTINUOUS
10
0.478872
20
-0.023813
11
0.481375
21
-0.0128885
0
LINE
8
BLACK
6
CONTINUOUS
10
0.481375
20
-0.0128885
11
0.482371
21
-0.00172543
0
LINE
8
BLACK
6
CONTINUOUS
10
0.482371
20
-0.00172543
11
0.482389
21
0
0
LINE
8
BLACK
6
CONTINUOUS
10
0.482389
20
0
11
0.481627
21
0.0111815
0
LINE
8
BLACK
6
CONTINUOUS
10
0.481627
20
0.0111815
11
0.479354
21
0.022156
0
LINE
8
BLACK
6
CONTINUOUS
10
0.479354
20
0.022156
11
0.475613
21
0.0327206
0
LINE
8
BLACK
6
CONTINUOUS
10
0.475613
20
0.0327206
11
0.470473
21
0.0426797
0
LINE
8
BLACK
6
CONTINUOUS
10
0.470473
20
0.0426797
11
0.464028
21
0.051849
0
LINE
8
BLACK
6
CONTINUOUS
10
0.464028
20
0.051849
11
0.456399
21
0.0600589
0
LINE
8
BLACK
6
CONTINUOUS
10
0.456399
20
0.0600589
11
0.447726
21
0.0671575
0
LINE
8
BLACK
6
CONTINUOUS
10
0.447726
20
0.0671575
11
0.43817
21
0.0730133
0
LINE
8
BLACK
6
CONTINUOUS
10
0.43817
20
0.0730133
11
0.427908
21
0.0775181
0
LINE
8
BLACK
6
CONTINUOUS
10
0.427908
20
0.0775181
11
0.41713
21
0.0805885
0
LINE
8
BLACK
6
CONTINUOUS
10
0.41713
20
0.0805885
11
0.406034
21
0.0821676
0
LINE
8
BLACK
6
CONTINUOUS
10
0.406034
20
0.0821676
11
0.394827
21
0.0822263
0
LINE
8
BLACK
6
CONTINUOUS
10
0.394827
20
0.0822263
11
0.383715
21
0.0807635
0
LINE
8
BLACK
6
CONTINUOUS
10
0.383715
20
0.0807635
11
0.372905
21
0.0778061
0
LINE
8
BLACK
6
CONTINUOUS
10
0.372905
20
0.0778061
11
0.362596
21
0.0734091
0
LINE
8
BLACK
6
CONTINUOUS
10
0.362596
20
0.0734091
11
0.35298
21
0.0676536
0
LINE
8
BLACK
6
CONTINUOUS
10
0.35298
20
0.0676536
11
0.344233
21
0.0606462
0
LINE
8
BLACK
6
CONTINUOUS
10
0.344233
20
0.0606462
11
0.336518
21
0.0525167
0
LINE
8
BLACK
6
CONTINUOUS
10
0.336518
20
0.0525167
11
0.329978
21
0.0434153
0
LINE
8
BLACK
6
CONTINUOUS
10
0.329978
20
0.0434153
11
0.324734
21
0.0335106
0
LINE
8
BLACK
6
CONTINUOUS
10
0.324734
20
0.0335106
11
0.320882
21
0.0229858
0
LINE
8
BLACK
6
CONTINUOUS
10
0.320882
20
0.0229858
11
0.318495
21
0.0120356
0
LINE
8
BLACK
6
CONTINUOUS
10
0.318495
20
0.0120356
11
0.317616
21
0.000862756
0
LINE
8
BLACK
6
CONTINUOUS
10
0.317616
20
0.000862756
11
0.318261
21
-0.0103261
0
LINE
8
BLACK
6
CONTINUOUS
10
0.318261
20
-0.0103261
11
0.320418
21
-0.0213238
0
LINE
8
BLACK
6
CONTINUOUS
10
0.385595
20
0.029279
11
0.386286
21
0.027381
0
LINE
8
BLACK
6
CONTINUOUS
10
0.386286
20
0.027381
11
0.386286
21
-0.00833331
0
LINE
8
BLACK
6
CONTINUOUS
10
0.386286
20
-0.00833331
11
0.386133
21
-0.00920272
0
LINE
8
BLACK
6
CONTINUOUS
10
0.386133
20
-0.00920272
11
0.386135
21
-0.00926705
0
LINE
8
BLACK
6
CONTINUOUS
10
0.386135
20
-0.00926705
11
0.383754
21
-0.0164099
0
LINE
8
BLACK
6
CONTINUOUS
10
0.383754
20
-0.0164099
11
0.383265
21
-0.0173117
0
LINE
8
BLACK
6
CONTINUOUS
10
0.383265
20
-0.0173117
11
0.383115
21
-0.0174041
0
LINE
8
BLACK
6
CONTINUOUS
10
0.383115
20
-0.0174041
11
0.38304
21
-0.0175641
0
LINE
8
BLACK
6
CONTINUOUS
10
0.38304
20
-0.0175641
11
0.378278
21
-0.022326
0
LINE
8
BLACK
6
CONTINUOUS
10
0.378278
20
-0.022326
11
0.377438
21
-0.0229142
0
LINE
8
BLACK
6
CONTINUOUS
10
0.377438
20
-0.0229142
11
0.377262
21
-0.0229296
0
LINE
8
BLACK
6
CONTINUOUS
10
0.377262
20
-0.0229296
11
0.377124
21
-0.0230393
0
LINE
8
BLACK
6
CONTINUOUS
10
0.377124
20
-0.0230393
11
0.369981
21
-0.0254202
0
LINE
8
BLACK
6
CONTINUOUS
10
0.369981
20
-0.0254202
11
0.369108
21
-0.0255497
0
LINE
8
BLACK
6
CONTINUOUS
10
0.369108
20
-0.0255497
11
0.369048
21
-0.0255718
0
LINE
8
BLACK
6
CONTINUOUS
10
0.369048
20
-0.0255718
11
0.364286
21
-0.0255718
0
LINE
8
BLACK
6
CONTINUOUS
10
0.364286
20
-0.0255718
11
0.363276
21
-0.0253937
0
LINE
8
BLACK
6
CONTINUOUS
10
0.363276
20
-0.0253937
11
0.361729
21
-0.0240954
0
LINE
8
BLACK
6
CONTINUOUS
10
0.361729
20
-0.0240954
11
0.361378
21
-0.0221063
0
LINE
8
BLACK
6
CONTINUOUS
10
0.361378
20
-0.0221063
11
0.362388
21
-0.0203571
0
LINE
8
BLACK
6
CONTINUOUS
10
0.362388
20
-0.0203571
11
0.364286
21
-0.0196663
0
LINE
8
BLACK
6
CONTINUOUS
10
0.364286
20
-0.0196663
11
0.368568
21
-0.0196663
0
LINE
8
BLACK
6
CONTINUOUS
10
0.368568
20
-0.0196663
11
0.374595
21
-0.0176573
0
LINE
8
BLACK
6
CONTINUOUS
10
0.374595
20
-0.0176573
11
0.378372
21
-0.0138811
0
LINE
8
BLACK
6
CONTINUOUS
10
0.378372
20
-0.0138811
11
0.380381
21
-0.00785417
0
LINE
8
BLACK
6
CONTINUOUS
10
0.380381
20
-0.00785417
11
0.380381
21
0.027381
0
LINE
8
BLACK
6
CONTINUOUS
10
0.380381
20
0.027381
11
0.380559
21
0.0283909
0
LINE
8
BLACK
6
CONTINUOUS
10
0.380559
20
0.0283909
11
0.381857
21
0.0299381
0
LINE
8
BLACK
6
CONTINUOUS
10
0.381857
20
0.0299381
11
0.383846
21
0.0302889
0
LINE
8
BLACK
6
CONTINUOUS
10
0.383846
20
0.0302889
11
0.385595
21
0.029279
0
LINE
8
BLACK
6
CONTINUOUS
10
0.424819
20
0.0301557
11
0.424955
21
0.0300422
0
LINE
8
BLACK
6
CONTINUOUS
10
0.424955
20
0.0300422
11
0.42513
21
0.030022
0
LINE
8
BLACK
6
CONTINUOUS
10
0.42513
20
0.030022
11
0.429892
21
0.027641
0
LINE
8
BLACK
6
CONTINUOUS
10
0.429892
20
0.027641
11
0.430601
21
0.0271152
0
LINE
8
BLACK
6
CONTINUOUS
10
0.430601
20
0.0271152
11
0.430659
21
0.0270879
0
LINE
8
BLACK
6
CONTINUOUS
10
0.430659
20
0.0270879
11
0.43304
21
0.024707
0
LINE
8
BLACK
6
CONTINUOUS
10
0.43304
20
0.024707
11
0.433547
21
0.0239839
0
LINE
8
BLACK
6
CONTINUOUS
10
0.433547
20
0.0239839
11
0.433593
21
0.0239396
0
LINE
8
BLACK
6
CONTINUOUS
10
0.433593
20
0.0239396
11
0.435974
21
0.0191777
0
LINE
8
BLACK
6
CONTINUOUS
10
0.435974
20
0.0191777
11
0.436267
21
0.0181948
0
LINE
8
BLACK
6
CONTINUOUS
10
0.436267
20
0.0181948
11
0.436226
21
0.0180231
0
LINE
8
BLACK
6
CONTINUOUS
10
0.436226
20
0.0180231
11
0.436286
21
0.0178572
0
LINE
8
BLACK
6
CONTINUOUS
10
0.436286
20
0.0178572
11
0.436286
21
0.0130953
0
LINE
8
BLACK
6
CONTINUOUS
10
0.436286
20
0.0130953
11
0.436133
21
0.0122259
0
LINE
8
BLACK
6
CONTINUOUS
10
0.436133
20
0.0122259
11
0.436135
21
0.0121615
0
LINE
8
BLACK
6
CONTINUOUS
10
0.436135
20
0.0121615
11
0.433754
21
0.00501866
0
LINE
8
BLACK
6
CONTINUOUS
10
0.433754
20
0.00501866
11
0.433265
21
0.00411689
0
LINE
8
BLACK
6
CONTINUOUS
10
0.433265
20
0.00411689
11
0.433115
21
0.00402445
0
LINE
8
BLACK
6
CONTINUOUS
10
0.433115
20
0.00402445
11
0.43304
21
0.00386449
0
LINE
8
BLACK
6
CONTINUOUS
10
0.43304
20
0.00386449
11
0.40951
21
-0.0196663
0
LINE
8
BLACK
6
CONTINUOUS
10
0.40951
20
-0.0196663
11
0.433333
21
-0.0196663
0
LINE
8
BLACK
6
CONTINUOUS
10
0.433333
20
-0.0196663
11
0.434343
21
-0.0198443
0
LINE
8
BLACK
6
CONTINUOUS
10
0.434343
20
-0.0198443
11
0.43589
21
-0.0211426
0
LINE
8
BLACK
6
CONTINUOUS
10
0.43589
20
-0.0211426
11
0.436241
21
-0.0231318
0
LINE
8
BLACK
6
CONTINUOUS
10
0.436241
20
-0.0231318
11
0.435231
21
-0.0248809
0
LINE
8
BLACK
6
CONTINUOUS
10
0.435231
20
-0.0248809
11
0.433333
21
-0.0255718
0
LINE
8
BLACK
6
CONTINUOUS
10
0.433333
20
-0.0255718
11
0.402381
21
-0.0255718
0
LINE
8
BLACK
6
CONTINUOUS
10
0.402381
20
-0.0255718
11
0.401746
21
-0.0254598
0
LINE
8
BLACK
6
CONTINUOUS
10
0.401746
20
-0.0254598
11
0.401617
21
-0.0254712
0
LINE
8
BLACK
6
CONTINUOUS
10
0.401617
20
-0.0254712
11
0.401552
21
-0.0254255
0
LINE
8
BLACK
6
CONTINUOUS
10
0.401552
20
-0.0254255
11
0.401371
21
-0.0253937
0
LINE
8
BLACK
6
CONTINUOUS
10
0.401371
20
-0.0253937
11
0.40069
21
-0.0248224
0
LINE
8
BLACK
6
CONTINUOUS
10
0.40069
20
-0.0248224
11
0.399962
21
-0.0243126
0
LINE
8
BLACK
6
CONTINUOUS
10
0.399962
20
-0.0243126
11
0.399927
21
-0.0241822
0
LINE
8
BLACK
6
CONTINUOUS
10
0.399927
20
-0.0241822
11
0.399824
21
-0.0240954
0
LINE
8
BLACK
6
CONTINUOUS
10
0.399824
20
-0.0240954
11
0.399669
21
-0.02322
0
LINE
8
BLACK
6
CONTINUOUS
10
0.399669
20
-0.02322
11
0.399439
21
-0.0223617
0
LINE
8
BLACK
6
CONTINUOUS
10
0.399439
20
-0.0223617
11
0.399496
21
-0.0222393
0
LINE
8
BLACK
6
CONTINUOUS
10
0.399496
20
-0.0222393
11
0.399473
21
-0.0221063
0
LINE
8
BLACK
6
CONTINUOUS
10
0.399473
20
-0.0221063
11
0.399918
21
-0.0213363
0
LINE
8
BLACK
6
CONTINUOUS
10
0.399918
20
-0.0213363
11
0.400293
21
-0.0205311
0
LINE
8
BLACK
6
CONTINUOUS
10
0.400293
20
-0.0205311
11
0.428372
21
0.00754744
0
LINE
8
BLACK
6
CONTINUOUS
10
0.428372
20
0.00754744
11
0.430381
21
0.0135744
0
LINE
8
BLACK
6
CONTINUOUS
10
0.430381
20
0.0135744
11
0.430381
21
0.0171601
0
LINE
8
BLACK
6
CONTINUOUS
10
0.430381
20
0.0171601
11
0.428526
21
0.02087
0
LINE
8
BLACK
6
CONTINUOUS
10
0.428526
20
0.02087
11
0.426822
21
0.0225733
0
LINE
8
BLACK
6
CONTINUOUS
10
0.426822
20
0.0225733
11
0.423112
21
0.0244282
0
LINE
8
BLACK
6
CONTINUOUS
10
0.423112
20
0.0244282
11
0.412602
21
0.0244282
0
LINE
8
BLACK
6
CONTINUOUS
10
0.412602
20
0.0244282
11
0.408892
21
0.0225733
0
LINE
8
BLACK
6
CONTINUOUS
10
0.408892
20
0.0225733
11
0.40685
21
0.0205311
0
LINE
8
BLACK
6
CONTINUOUS
10
0.40685
20
0.0205311
11
0.40601
21
0.019943
0
LINE
8
BLACK
6
CONTINUOUS
10
0.40601
20
0.019943
11
0.403998
21
0.0197669
0
LINE
8
BLACK
6
CONTINUOUS
10
0.403998
20
0.0197669
11
0.402343
21
0.0209254
0
LINE
8
BLACK
6
CONTINUOUS
10
0.402343
20
0.0209254
11
0.40182
21
0.0228764
0
LINE
8
BLACK
6
CONTINUOUS
10
0.40182
20
0.0228764
11
0.402674
21
0.024707
0
LINE
8
BLACK
6
CONTINUOUS
10
0.402674
20
0.024707
11
0.405055
21
0.0270879
0
LINE
8
BLACK
6
CONTINUOUS
10
0.405055
20
0.0270879
11
0.405778
21
0.0275942
0
LINE
8
BLACK
6
CONTINUOUS
10
0.405778
20
0.0275942
11
0.405822
21
0.027641
0
LINE
8
BLACK
6
CONTINUOUS
10
0.405822
20
0.027641
11
0.410584
21
0.030022
0
LINE
8
BLACK
6
CONTINUOUS
10
0.410584
20
0.030022
11
0.411567
21
0.0303144
0
LINE
8
BLACK
6
CONTINUOUS
10
0.411567
20
0.0303144
11
0.411739
21
0.0302733
0
LINE
8
BLACK
6
CONTINUOUS
10
0.411739
20
0.0302733
11
0.411905
21
0.0303337
0
LINE
8
BLACK
6
CONTINUOUS
10
0.411905
20
0.0303337
11
0.423809
21
0.0303337
0
LINE
8
BLACK
6
CONTINUOUS
10
0.423809
20
0.0303337
11
0.424819
21
0.0301557
0
LINE
8
BLACK
6
CONTINUOUS
10
0.138179
20
0.54068
11
0.138308
21
0.540703
0
LINE
8
BLACK
6
CONTINUOUS
10
0.138308
20
0.540703
11
0.138422
21
0.540638
0
LINE
8
BLACK
6
CONTINUOUS
10
0.138422
20
0.540638
11
0.138805
21
0.54057
0
LINE
8
BLACK
6
CONTINUOUS
10
0.138805
20
0.54057
11
0.139393
21
0.540077
0
LINE
8
BLACK
6
CONTINUOUS
10
0.139393
20
0.540077
11
0.140057
21
0.539693
0
LINE
8
BLACK
6
CONTINUOUS
10
0.140057
20
0.539693
11
0.140148
21
0.539443
0
LINE
8
BLACK
6
CONTINUOUS
10
0.140148
20
0.539443
11
0.140352
21
0.539272
0
LINE
8
BLACK
6
CONTINUOUS
10
0.140352
20
0.539272
11
0.140486
21
0.538516
0
LINE
8
BLACK
6
CONTINUOUS
10
0.140486
20
0.538516
11
0.140748
21
0.537795
0
LINE
8
BLACK
6
CONTINUOUS
10
0.140748
20
0.537795
11
0.140748
21
0.262205
0
LINE
8
BLACK
6
CONTINUOUS
10
0.140748
20
0.262205
11
0.14068
21
0.261821
0
LINE
8
BLACK
6
CONTINUOUS
10
0.14068
20
0.261821
11
0.140703
21
0.261692
0
LINE
8
BLACK
6
CONTINUOUS
10
0.140703
20
0.261692
11
0.140638
21
0.261578
0
LINE
8
BLACK
6
CONTINUOUS
10
0.140638
20
0.261578
11
0.14057
21
0.261195
0
LINE
8
BLACK
6
CONTINUOUS
10
0.14057
20
0.261195
11
0.140077
21
0.260607
0
LINE
8
BLACK
6
CONTINUOUS
10
0.140077
20
0.260607
11
0.139693
21
0.259943
0
LINE
8
BLACK
6
CONTINUOUS
10
0.139693
20
0.259943
11
0.139443
21
0.259852
0
LINE
8
BLACK
6
CONTINUOUS
10
0.139443
20
0.259852
11
0.139272
21
0.259648
0
LINE
8
BLACK
6
CONTINUOUS
10
0.139272
20
0.259648
11
0.138516
21
0.259514
0
LINE
8
BLACK
6
CONTINUOUS
10
0.138516
20
0.259514
11
0.137795
21
0.259252
0
LINE
8
BLACK
6
CONTINUOUS
10
0.137795
20
0.259252
11
-0.137795
21
0.259252
0
LINE
8
BLACK
6
CONTINUOUS
10
-0.137795
20
0.259252
11
-0.138179
21
0.25932
0
LINE
8
BLACK
6
CONTINUOUS
10
-0.138179
20
0.25932
11
-0.138308
21
0.259297
0
LINE
8
BLACK
6
CONTINUOUS
10
-0.138308
20
0.259297
11
-0.138422
21
0.259362
0
LINE
8
BLACK
6
CONTINUOUS
10
-0.138422
20
0.259362
11
-0.138805
21
0.25943
0
LINE
8
BLACK
6
CONTINUOUS
10
-0.138805
20
0.25943
11
-0.139393
21
0.259923
0
LINE
8
BLACK
6
CONTINUOUS
10
-0.139393
20
0.259923
11
-0.140057
21
0.260307
0
LINE
8
BLACK
6
CONTINUOUS
10
-0.140057
20
0.260307
11
-0.140148
21
0.260557
0
LINE
8
BLACK
6
CONTINUOUS
10
-0.140148
20
0.260557
11
-0.140352
21
0.260728
0
LINE
8
BLACK
6
CONTINUOUS
10
-0.140352
20
0.260728
11
-0.140486
21
0.261484
0
LINE
8
BLACK
6
CONTINUOUS
10
-0.140486
20
0.261484
11
-0.140748
21
0.262205
0
LINE
8
BLACK
6
CONTINUOUS
10
-0.140748
20
0.262205
11
-0.140748
21
0.537795
0
LINE
8
BLACK
6
CONTINUOUS
10
-0.140748
20
0.537795
11
-0.14068
21
0.538179
0
LINE
8
BLACK
6
CONTINUOUS
10
-0.14068
20
0.538179
11
-0.140703
21
0.538308
0
LINE
8
BLACK
6
CONTINUOUS
10
-0.140703
20
0.538308
11
-0.140638
21
0.538422
0
LINE
8
BLACK
6
CONTINUOUS
10
-0.140638
20
0.538422
11
-0.14057
21
0.538805
0
LINE
8
BLACK
6
CONTINUOUS
10
-0.14057
20
0.538805
11
-0.140077
21
0.539393
0
LINE
8
BLACK
6
CONTINUOUS
10
-0.140077
20
0.539393
11
-0.139693
21
0.540057
0
LINE
8
BLACK
6
CONTINUOUS
10
-0.139693
20
0.540057
11
-0.139443
21
0.540148
0
LINE
8
BLACK
6
CONTINUOUS
10
-0.139443
20
0.540148
11
-0.139272
21
0.540352
0
LINE
8
BLACK
6
CONTINUOUS
10
-0.139272
20
0.540352
11
-0.138516
21
0.540486
0
LINE
8
BLACK
6
CONTINUOUS
10
-0.138516
20
0.540486
11
-0.137795
21
0.540748
0
LINE
8
BLACK
6
CONTINUOUS
10
-0.137795
20
0.540748
11
0.137795
21
0.540748
0
LINE
8
BLACK
6
CONTINUOUS
10
0.137795
20
0.540748
11
0.138179
21
0.54068
0
LINE
8
BLACK
6
CONTINUOUS
10
-0.134843
20
0.317126
11
-0.134843
21
0.265157
0
LINE
8
BLACK
6
CONTINUOUS
10
-0.134843
20
0.265157
11
-0.082874
21
0.265157
0
LINE
8
BLACK
6
CONTINUOUS
10
-0.082874
20
0.265157
11
-0.082874
21
0.276969
0
LINE
8
BLACK
6
CONTINUOUS
10
-0.082874
20
0.276969
11
-0.120079
21
0.276969
0
LINE
8
BLACK
6
CONTINUOUS
10
-0.120079
20
0.276969
11
-0.120462
21
0.277036
0
LINE
8
BLACK
6
CONTINUOUS
10
-0.120462
20
0.277036
11
-0.120591
21
0.277013
0
LINE
8
BLACK
6
CONTINUOUS
10
-0.120591
20
0.277013
11
-0.120705
21
0.277079
0
LINE
8
BLACK
6
CONTINUOUS
10
-0.120705
20
0.277079
11
-0.121089
21
0.277147
0
LINE
8
BLACK
6
CONTINUOUS
10
-0.121089
20
0.277147
11
-0.121676
21
0.27764
0
LINE
8
BLACK
6
CONTINUOUS
10
-0.121676
20
0.27764
11
-0.122341
21
0.278023
0
LINE
8
BLACK
6
CONTINUOUS
10
-0.122341
20
0.278023
11
-0.122432
21
0.278274
0
LINE
8
BLACK
6
CONTINUOUS
10
-0.122432
20
0.278274
11
-0.122636
21
0.278445
0
LINE
8
BLACK
6
CONTINUOUS
10
-0.122636
20
0.278445
11
-0.122769
21
0.2792
0
LINE
8
BLACK
6
CONTINUOUS
10
-0.122769
20
0.2792
11
-0.123031
21
0.279921
0
LINE
8
BLACK
6
CONTINUOUS
10
-0.123031
20
0.279921
11
-0.123031
21
0.317126
0
LINE
8
BLACK
6
CONTINUOUS
10
-0.123031
20
0.317126
11
-0.134843
21
0.317126
0
LINE
8
BLACK
6
CONTINUOUS
10
-0.0769685
20
0.534843
11
-0.0769685
21
0.479921
0
LINE
8
BLACK
6
CONTINUOUS
10
-0.0769685
20
0.479921
11
-0.0770361
21
0.479538
0
LINE
8
BLACK
6
CONTINUOUS
10
-0.0770361
20
0.479538
11
-0.0770133
21
0.479409
0
LINE
8
BLACK
6
CONTINUOUS
10
-0.0770133
20
0.479409
11
-0.0770789
21
0.479295
0
LINE
8
BLACK
6
CONTINUOUS
10
-0.0770789
20
0.479295
11
-0.0771466
21
0.478911
0
LINE
8
BLACK
6
CONTINUOUS
10
-0.0771466
20
0.478911
11
-0.0776397
21
0.478324
0
LINE
8
BLACK
6
CONTINUOUS
10
-0.0776397
20
0.478324
11
-0.0780233
21
0.477659
0
LINE
8
BLACK
6
CONTINUOUS
10
-0.0780233
20
0.477659
11
-0.0782736
21
0.477568
0
LINE
8
BLACK
6
CONTINUOUS
10
-0.0782736
20
0.477568
11
-0.0784449
21
0.477364
0
LINE
8
BLACK
6
CONTINUOUS
10
-0.0784449
20
0.477364
11
-0.0792004
21
0.477231
0
LINE
8
BLACK
6
CONTINUOUS
10
-0.0792004
20
0.477231
11
-0.0799213
21
0.476969
0
LINE
8
BLACK
6
CONTINUOUS
10
-0.0799213
20
0.476969
11
-0.134843
21
0.476969
0
LINE
8
BLACK
6
CONTINUOUS
10
-0.134843
20
0.476969
11
-0.134843
21
0.323031
0
LINE
8
BLACK
6
CONTINUOUS
10
-0.134843
20
0.323031
11
-0.0799213
21
0.323031
0
LINE
8
BLACK
6
CONTINUOUS
10
-0.0799213
20
0.323031
11
-0.0795377
21
0.322964
0
LINE
8
BLACK
6
CONTINUOUS
10
-0.0795377
20
0.322964
11
-0.0794085
21
0.322987
0
LINE
8
BLACK
6
CONTINUOUS
10
-0.0794085
20
0.322987
11
-0.0792949
21
0.322921
0
LINE
8
BLACK
6
CONTINUOUS
10
-0.0792949
20
0.322921
11
-0.0789113
21
0.322853
0
LINE
8
BLACK
6
CONTINUOUS
10
-0.0789113
20
0.322853
11
-0.0783237
21
0.32236
0
LINE
8
BLACK
6
CONTINUOUS
10
-0.0783237
20
0.32236
11
-0.0776593
21
0.321977
0
LINE
8
BLACK
6
CONTINUOUS
10
-0.0776593
20
0.321977
11
-0.0775682
21
0.321726
0
LINE
8
BLACK
6
CONTINUOUS
10
-0.0775682
20
0.321726
11
-0.0773641
21
0.321555
0
LINE
8
BLACK
6
CONTINUOUS
10
-0.0773641
20
0.321555
11
-0.0772309
21
0.3208
0
LINE
8
BLACK
6
CONTINUOUS
10
-0.0772309
20
0.3208
11
-0.0769685
21
0.320079
0
LINE
8
BLACK
6
CONTINUOUS
10
-0.0769685
20
0.320079
11
-0.0769685
21
0.265157
0
LINE
8
BLACK
6
CONTINUOUS
10
-0.0769685
20
0.265157
11
0.0769685
21
0.265157
0
LINE
8
BLACK
6
CONTINUOUS
10
0.0769685
20
0.265157
11
0.0769685
21
0.320079
0
LINE
8
BLACK
6
CONTINUOUS
10
0.0769685
20
0.320079
11
0.0770361
21
0.320462
0
LINE
8
BLACK
6
CONTINUOUS
10
0.0770361
20
0.320462
11
0.0770133
21
0.320591
0
LINE
8
BLACK
6
CONTINUOUS
10
0.0770133
20
0.320591
11
0.0770789
21
0.320705
0
LINE
8
BLACK
6
CONTINUOUS
10
0.0770789
20
0.320705
11
0.0771466
21
0.321089
0
LINE
8
BLACK
6
CONTINUOUS
10
0.0771466
20
0.321089
11
0.0776397
21
0.321676
0
LINE
8
BLACK
6
CONTINUOUS
10
0.0776397
20
0.321676
11
0.0780233
21
0.322341
0
LINE
8
BLACK
6
CONTINUOUS
10
0.0780233
20
0.322341
11
0.0782736
21
0.322432
0
LINE
8
BLACK
6
CONTINUOUS
10
0.0782736
20
0.322432
11
0.0784449
21
0.322636
0
LINE
8
BLACK
6
CONTINUOUS
10
0.0784449
20
0.322636
11
0.0792004
21
0.322769
0
LINE
8
BLACK
6
CONTINUOUS
10
0.0792004
20
0.322769
11
0.0799213
21
0.323031
0
LINE
8
BLACK
6
CONTINUOUS
10
0.0799213
20
0.323031
11
0.134843
21
0.323031
0
LINE
8
BLACK
6
CONTINUOUS
10
0.134843
20
0.323031
11
0.134843
21
0.476969
0
LINE
8
BLACK
6
CONTINUOUS
10
0.134843
20
0.476969
11
0.0799213
21
0.476969
0
LINE
8
BLACK
6
CONTINUOUS
10
0.0799213
20
0.476969
11
0.0795377
21
0.477036
0
LINE
8
BLACK
6
CONTINUOUS
10
0.0795377
20
0.477036
11
0.0794085
21
0.477013
0
LINE
8
BLACK
6
CONTINUOUS
10
0.0794085
20
0.477013
11
0.0792949
21
0.477079
0
LINE
8
BLACK
6
CONTINUOUS
10
0.0792949
20
0.477079
11
0.0789113
21
0.477147
0
LINE
8
BLACK
6
CONTINUOUS
10
0.0789113
20
0.477147
11
0.0783237
21
0.47764
0
LINE
8
BLACK
6
CONTINUOUS
10
0.0783237
20
0.47764
11
0.0776593
21
0.478023
0
LINE
8
BLACK
6
CONTINUOUS
10
0.0776593
20
0.478023
11
0.0775682
21
0.478274
0
LINE
8
BLACK
6
CONTINUOUS
10
0.0775682
20
0.478274
11
0.0773641
21
0.478445
0
LINE
8
BLACK
6
CONTINUOUS
10
0.0773641
20
0.478445
11
0.0772309
21
0.4792
0
LINE
8
BLACK
6
CONTINUOUS
10
0.0772309
20
0.4792
11
0.0769685
21
0.479921
0
LINE
8
BLACK
6
CONTINUOUS
10
0.0769685
20
0.479921
11
0.0769685
21
0.534843
0
LINE
8
BLACK
6
CONTINUOUS
10
0.0769685
20
0.534843
11
-0.0769685
21
0.534843
0
LINE
8
BLACK
6
CONTINUOUS
10
0.123031
20
0.317126
11
0.123031
21
0.279921
0
LINE
8
BLACK
6
CONTINUOUS
10
0.123031
20
0.279921
11
0.122964
21
0.279538
0
LINE
8
BLACK
6
CONTINUOUS
10
0.122964
20
0.279538
11
0.122987
21
0.279409
0
LINE
8
BLACK
6
CONTINUOUS
10
0.122987
20
0.279409
11
0.122921
21
0.279295
0
LINE
8
BLACK
6
CONTINUOUS
10
0.122921
20
0.279295
11
0.122853
21
0.278911
0
LINE
8
BLACK
6
CONTINUOUS
10
0.122853
20
0.278911
11
0.12236
21
0.278324
0
LINE
8
BLACK
6
CONTINUOUS
10
0.12236
20
0.278324
11
0.121977
21
0.277659
0
LINE
8
BLACK
6
CONTINUOUS
10
0.121977
20
0.277659
11
0.121726
21
0.277568
0
LINE
8
BLACK
6
CONTINUOUS
10
0.121726
20
0.277568
11
0.121555
21
0.277364
0
LINE
8
BLACK
6
CONTINUOUS
10
0.121555
20
0.277364
11
0.1208
21
0.277231
0
LINE
8
BLACK
6
CONTINUOUS
10
0.1208
20
0.277231
11
0.120079
21
0.276969
0
LINE
8
BLACK
6
CONTINUOUS
10
0.120079
20
0.276969
11
0.082874
21
0.276969
0
LINE
8
BLACK
6
CONTINUOUS
10
0.082874
20
0.276969
11
0.082874
21
0.265157
0
LINE
8
BLACK
6
CONTINUOUS
10
0.082874
20
0.265157
11
0.134843
21
0.265157
0
LINE
8
BLACK
6
CONTINUOUS
10
0.134843
20
0.265157
11
0.134843
21
0.317126
0
LINE
8
BLACK
6
CONTINUOUS
10
0.134843
20
0.317126
11
0.123031
21
0.317126
0
LINE
8
BLACK
6
CONTINUOUS
10
0.082874
20
0.317126
11
0.082874
21
0.282874
0
LINE
8
BLACK
6
CONTINUOUS
10
0.082874
20
0.282874
11
0.117126
21
0.282874
0
LINE
8
BLACK
6
CONTINUOUS
10
0.117126
20
0.282874
11
0.117126
21
0.317126
0
LINE
8
BLACK
6
CONTINUOUS
10
0.117126
20
0.317126
11
0.082874
21
0.317126
0
LINE
8
BLACK
6
CONTINUOUS
10
-0.117126
20
0.317126
11
-0.117126
21
0.282874
0
LINE
8
BLACK
6
CONTINUOUS
10
-0.117126
20
0.282874
11
-0.082874
21
0.282874
0
LINE
8
BLACK
6
CONTINUOUS
10
-0.082874
20
0.282874
11
-0.082874
21
0.317126
0
LINE
8
BLACK
6
CONTINUOUS
10
-0.082874
20
0.317126
11
-0.117126
21
0.317126
0
LINE
8
BLACK
6
CONTINUOUS
10
0.082874
20
0.517126
11
0.082874
21
0.482874
0
LINE
8
BLACK
6
CONTINUOUS
10
0.082874
20
0.482874
11
0.117126
21
0.482874
0
LINE
8
BLACK
6
CONTINUOUS
10
0.117126
20
0.482874
11
0.117126
21
0.517126
0
LINE
8
BLACK
6
CONTINUOUS
10
0.117126
20
0.517126
11
0.082874
21
0.517126
0
LINE
8
BLACK
6
CONTINUOUS
10
0.082874
20
0.534843
11
0.082874
21
0.523031
0
LINE
8
BLACK
6
CONTINUOUS
10
0.082874
20
0.523031
11
0.120079
21
0.523031
0
LINE
8
BLACK
6
CONTINUOUS
10
0.120079
20
0.523031
11
0.120462
21
0.522964
0
LINE
8
BLACK
6
CONTINUOUS
10
0.120462
20
0.522964
11
0.120591
21
0.522987
0
LINE
8
BLACK
6
CONTINUOUS
10
0.120591
20
0.522987
11
0.120705
21
0.522921
0
LINE
8
BLACK
6
CONTINUOUS
10
0.120705
20
0.522921
11
0.121089
21
0.522853
0
LINE
8
BLACK
6
CONTINUOUS
10
0.121089
20
0.522853
11
0.121676
21
0.52236
0
LINE
8
BLACK
6
CONTINUOUS
10
0.121676
20
0.52236
11
0.122341
21
0.521977
0
LINE
8
BLACK
6
CONTINUOUS
10
0.122341
20
0.521977
11
0.122432
21
0.521726
0
LINE
8
BLACK
6
CONTINUOUS
10
0.122432
20
0.521726
11
0.122636
21
0.521555
0
LINE
8
BLACK
6
CONTINUOUS
10
0.122636
20
0.521555
11
0.122769
21
0.5208
0
LINE
8
BLACK
6
CONTINUOUS
10
0.122769
20
0.5208
11
0.123031
21
0.520079
0
LINE
8
BLACK
6
CONTINUOUS
10
0.123031
20
0.520079
11
0.123031
21
0.482874
0
LINE
8
BLACK
6
CONTINUOUS
10
0.123031
20
0.482874
11
0.134843
21
0.482874
0
LINE
8
BLACK
6
CONTINUOUS
10
0.134843
20
0.482874
11
0.134843
21
0.534843
0
LINE
8
BLACK
6
CONTINUOUS
10
0.134843
20
0.534843
11
0.082874
21
0.534843
0
LINE
8
BLACK
6
CONTINUOUS
10
-0.134843
20
0.534843
11
-0.134843
21
0.482874
0
LINE
8
BLACK
6
CONTINUOUS
10
-0.134843
20
0.482874
11
-0.123031
21
0.482874
0
LINE
8
BLACK
6
CONTINUOUS
10
-0.123031
20
0.482874
11
-0.123031
21
0.520079
0
LINE
8
BLACK
6
CONTINUOUS
10
-0.123031
20
0.520079
11
-0.122964
21
0.520462
0
LINE
8
BLACK
6
CONTINUOUS
10
-0.122964
20
0.520462
11
-0.122987
21
0.520591
0
LINE
8
BLACK
6
CONTINUOUS
10
-0.122987
20
0.520591
11
-0.122921
21
0.520705
0
LINE
8
BLACK
6
CONTINUOUS
10
-0.122921
20
0.520705
11
-0.122853
21
0.521089
0
LINE
8
BLACK
6
CONTINUOUS
10
-0.122853
20
0.521089
11
-0.12236
21
0.521676
0
LINE
8
BLACK
6
CONTINUOUS
10
-0.12236
20
0.521676
11
-0.121977
21
0.522341
0
LINE
8
BLACK
6
CONTINUOUS
10
-0.121977
20
0.522341
11
-0.121726
21
0.522432
0
LINE
8
BLACK
6
CONTINUOUS
10
-0.121726
20
0.522432
11
-0.121555
21
0.522636
0
LINE
8
BLACK
6
CONTINUOUS
10
-0.121555
20
0.522636
11
-0.1208
21
0.522769
0
LINE
8
BLACK
6
CONTINUOUS
10
-0.1208
20
0.522769
11
-0.120079
21
0.523031
0
LINE
8
BLACK
6
CONTINUOUS
10
-0.120079
20
0.523031
11
-0.082874
21
0.523031
0
LINE
8
BLACK
6
CONTINUOUS
10
-0.082874
20
0.523031
11
-0.082874
21
0.534843
0
LINE
8
BLACK
6
CONTINUOUS
10
-0.082874
20
0.534843
11
-0.134843
21
0.534843
0
LINE
8
BLACK
6
CONTINUOUS
10
-0.117126
20
0.517126
11
-0.117126
21
0.482874
0
LINE
8
BLACK
6
CONTINUOUS
10
-0.117126
20
0.482874
11
-0.082874
21
0.482874
0
LINE
8
BLACK
6
CONTINUOUS
10
-0.082874
20
0.482874
11
-0.082874
21
0.517126
0
LINE
8
BLACK
6
CONTINUOUS
10
-0.082874
20
0.517126
11
-0.117126
21
0.517126
0
LINE
8
BLACK
6
CONTINUOUS
10
-0.0851003
20
0.422803
11
-0.0813959
21
0.433715
0
LINE
8
BLACK
6
CONTINUOUS
10
-0.0813959
20
0.433715
11
-0.0762989
21
0.444051
0
LINE
8
BLACK
6
CONTINUOUS
10
-0.0762989
20
0.444051
11
-0.0698963
21
0.453633
0
LINE
8
BLACK
6
CONTINUOUS
10
-0.0698963
20
0.453633
11
-0.0622978
21
0.462298
0
LINE
8
BLACK
6
CONTINUOUS
10
-0.0622978
20
0.462298
11
-0.0536333
21
0.469896
0
LINE
8
BLACK
6
CONTINUOUS
10
-0.0536333
20
0.469896
11
-0.0440511
21
0.476299
0
LINE
8
BLACK
6
CONTINUOUS
10
-0.0440511
20
0.476299
11
-0.0337153
21
0.481396
0
LINE
8
BLACK
6
CONTINUOUS
10
-0.0337153
20
0.481396
11
-0.0228026
21
0.4851
0
LINE
8
BLACK
6
CONTINUOUS
10
-0.0228026
20
0.4851
11
-0.0114996
21
0.487349
0
LINE
8
BLACK
6
CONTINUOUS
10
-0.0114996
20
0.487349
11
0
21
0.488102
0
LINE
8
BLACK
6
CONTINUOUS
10
0
20
0.488102
11
0.0114996
21
0.487349
0
LINE
8
BLACK
6
CONTINUOUS
10
0.0114996
20
0.487349
11
0.0228026
21
0.4851
0
LINE
8
BLACK
6
CONTINUOUS
10
0.0228026
20
0.4851
11
0.0337153
21
0.481396
0
LINE
8
BLACK
6
CONTINUOUS
10
0.0337153
20
0.481396
11
0.0440512
21
0.476299
0
LINE
8
BLACK
6
CONTINUOUS
10
0.0440512
20
0.476299
11
0.0536333
21
0.469896
0
LINE
8
BLACK
6
CONTINUOUS
10
0.0536333
20
0.469896
11
0.0622978
21
0.462298
0
LINE
8
BLACK
6
CONTINUOUS
10
0.0622978
20
0.462298
11
0.0698963
21
0.453633
0
LINE
8
BLACK
6
CONTINUOUS
10
0.0698963
20
0.453633
11
0.0762989
21
0.444051
0
LINE
8
BLACK
6
CONTINUOUS
10
0.0762989
20
0.444051
11
0.0813959
21
0.433715
0
LINE
8
BLACK
6
CONTINUOUS
10
0.0813959
20
0.433715
11
0.0851003
21
0.422803
0
LINE
8
BLACK
6
CONTINUOUS
10
0.0851003
20
0.422803
11
0.0873486
21
0.4115
0
LINE
8
BLACK
6
CONTINUOUS
10
0.0873486
20
0.4115
11
0.0881023
21
0.4
0
LINE
8
BLACK
6
CONTINUOUS
10
0.0881023
20
0.4
11
0.0873486
21
0.3885
0
LINE
8
BLACK
6
CONTINUOUS
10
0.0873486
20
0.3885
11
0.0851003
21
0.377197
0
LINE
8
BLACK
6
CONTINUOUS
10
0.0851003
20
0.377197
11
0.0813959
21
0.366285
0
LINE
8
BLACK
6
CONTINUOUS
10
0.0813959
20
0.366285
11
0.0762989
21
0.355949
0
LINE
8
BLACK
6
CONTINUOUS
10
0.0762989
20
0.355949
11
0.0698963
21
0.346367
0
LINE
8
BLACK
6
CONTINUOUS
10
0.0698963
20
0.346367
11
0.0622978
21
0.337702
0
LINE
8
BLACK
6
CONTINUOUS
10
0.0622978
20
0.337702
11
0.0536333
21
0.330104
0
LINE
8
BLACK
6
CONTINUOUS
10
0.0536333
20
0.330104
11
0.0440512
21
0.323701
0
LINE
8
BLACK
6
CONTINUOUS
10
0.0440512
20
0.323701
11
0.0337153
21
0.318604
0
LINE
8
BLACK
6
CONTINUOUS
10
0.0337153
20
0.318604
11
0.0228026
21
0.3149
0
LINE
8
BLACK
6
CONTINUOUS
10
0.0228026
20
0.3149
11
0.0114996
21
0.312651
0
LINE
8
BLACK
6
CONTINUOUS
10
0.0114996
20
0.312651
11
0
21
0.311898
0
LINE
8
BLACK
6
CONTINUOUS
10
0
20
0.311898
11
-0.0114996
21
0.312651
0
LINE
8
BLACK
6
CONTINUOUS
10
-0.0114996
20
0.312651
11
-0.0228026
21
0.3149
0
LINE
8
BLACK
6
CONTINUOUS
10
-0.0228026
20
0.3149
11
-0.0337153
21
0.318604
0
LINE
8
BLACK
6
CONTINUOUS
10
-0.0337153
20
0.318604
11
-0.0440512
21
0.323701
0
LINE
8
BLACK
6
CONTINUOUS
10
-0.0440512
20
0.323701
11
-0.0536333
21
0.330104
0
LINE
8
BLACK
6
CONTINUOUS
10
-0.0536333
20
0.330104
11
-0.0622978
21
0.337702
0
LINE
8
BLACK
6
CONTINUOUS
10
-0.0622978
20
0.337702
11
-0.0698963
21
0.346367
0
LINE
8
BLACK
6
CONTINUOUS
10
-0.0698963
20
0.346367
11
-0.0762989
21
0.355949
0
LINE
8
BLACK
6
CONTINUOUS
10
-0.0762989
20
0.355949
11
-0.0813959
21
0.366285
0
LINE
8
BLACK
6
CONTINUOUS
10
-0.0813959
20
0.366285
11
-0.0851003
21
0.377197
0
LINE
8
BLACK
6
CONTINUOUS
10
-0.0851003
20
0.377197
11
-0.0873486
21
0.3885
0
LINE
8
BLACK
6
CONTINUOUS
10
-0.0873486
20
0.3885
11
-0.0881023
21
0.4
0
LINE
8
BLACK
6
CONTINUOUS
10
-0.0881023
20
0.4
11
-0.0880458
21
0.400863
0
LINE
8
BLACK
6
CONTINUOUS
10
-0.0880458
20
0.400863
11
-0.0873486
21
0.4115
0
LINE
8
BLACK
6
CONTINUOUS
10
-0.0873486
20
0.4115
11
-0.0851003
21
0.422803
0
LINE
8
BLACK
6
CONTINUOUS
10
-0.0795816
20
0.378676
11
-0.0759513
21
0.368073
0
LINE
8
BLACK
6
CONTINUOUS
10
-0.0759513
20
0.368073
11
-0.0709156
21
0.358061
0
LINE
8
BLACK
6
CONTINUOUS
10
-0.0709156
20
0.358061
11
-0.0645676
21
0.348824
0
LINE
8
BLACK
6
CONTINUOUS
10
-0.0645676
20
0.348824
11
-0.0570249
21
0.340535
0
LINE
8
BLACK
6
CONTINUOUS
10
-0.0570249
20
0.340535
11
-0.048427
21
0.333346
0
LINE
8
BLACK
6
CONTINUOUS
10
-0.048427
20
0.333346
11
-0.038933
21
0.32739
0
LINE
8
BLACK
6
CONTINUOUS
10
-0.038933
20
0.32739
11
-0.0287185
21
0.322778
0
LINE
8
BLACK
6
CONTINUOUS
10
-0.0287185
20
0.322778
11
-0.0179726
21
0.319595
0
LINE
8
BLACK
6
CONTINUOUS
10
-0.0179726
20
0.319595
11
-0.00689413
21
0.3179
0
LINE
8
BLACK
6
CONTINUOUS
10
-0.00689413
20
0.3179
11
0.00431189
21
0.317724
0
LINE
8
BLACK
6
CONTINUOUS
10
0.00431189
20
0.317724
11
0.0154381
21
0.31907
0
LINE
8
BLACK
6
CONTINUOUS
10
0.0154381
20
0.31907
11
0.0262787
21
0.321914
0
LINE
8
BLACK
6
CONTINUOUS
10
0.0262787
20
0.321914
11
0.036633
21
0.326203
0
LINE
8
BLACK
6
CONTINUOUS
10
0.036633
20
0.326203
11
0.0463094
21
0.331858
0
LINE
8
BLACK
6
CONTINUOUS
10
0.0463094
20
0.331858
11
0.0551289
21
0.338773
0
LINE
8
BLACK
6
CONTINUOUS
10
0.0551289
20
0.338773
11
0.0629283
21
0.346821
0
LINE
8
BLACK
6
CONTINUOUS
10
0.0629283
20
0.346821
11
0.0695632
21
0.355854
0
LINE
8
BLACK
6
CONTINUOUS
10
0.0695632
20
0.355854
11
0.0749109
21
0.365703
0
LINE
8
BLACK
6
CONTINUOUS
10
0.0749109
20
0.365703
11
0.0788725
21
0.376187
0
LINE
8
BLACK
6
CONTINUOUS
10
0.0788725
20
0.376187
11
0.0813746
21
0.387112
0
LINE
8
BLACK
6
CONTINUOUS
10
0.0813746
20
0.387112
11
0.0823708
21
0.398275
0
LINE
8
BLACK
6
CONTINUOUS
10
0.0823708
20
0.398275
11
0.0823889
21
0.4
0
LINE
8
BLACK
6
CONTINUOUS
10
0.0823889
20
0.4
11
0.0816266
21
0.411181
0
LINE
8
BLACK
6
CONTINUOUS
10
0.0816266
20
0.411181
11
0.0793539
21
0.422156
0
LINE
8
BLACK
6
CONTINUOUS
10
0.0793539
20
0.422156
11
0.0756128
21
0.432721
0
LINE
8
BLACK
6
CONTINUOUS
10
0.0756128
20
0.432721
11
0.0704725
21
0.44268
0
LINE
8
BLACK
6
CONTINUOUS
10
0.0704725
20
0.44268
11
0.0640282
21
0.451849
0
LINE
8
BLACK
6
CONTINUOUS
10
0.0640282
20
0.451849
11
0.0563991
21
0.460059
0
LINE
8
BLACK
6
CONTINUOUS
10
0.0563991
20
0.460059
11
0.0477263
21
0.467157
0
LINE
8
BLACK
6
CONTINUOUS
10
0.0477263
20
0.467157
11
0.0381704
21
0.473013
0
LINE
8
BLACK
6
CONTINUOUS
10
0.0381704
20
0.473013
11
0.0279082
21
0.477518
0
LINE
8
BLACK
6
CONTINUOUS
10
0.0279082
20
0.477518
11
0.0171296
21
0.480589
0
LINE
8
BLACK
6
CONTINUOUS
10
0.0171296
20
0.480589
11
0.00603402
21
0.482168
0
LINE
8
BLACK
6
CONTINUOUS
10
0.00603402
20
0.482168
11
-0.00517323
21
0.482226
0
LINE
8
BLACK
6
CONTINUOUS
10
-0.00517323
20
0.482226
11
-0.0162848
21
0.480763
0
LINE
8
BLACK
6
CONTINUOUS
10
-0.0162848
20
0.480763
11
-0.027095
21
0.477806
0
LINE
8
BLACK
6
CONTINUOUS
10
-0.027095
20
0.477806
11
-0.0374038
21
0.473409
0
LINE
8
BLACK
6
CONTINUOUS
10
-0.0374038
20
0.473409
11
-0.0470205
21
0.467654
0
LINE
8
BLACK
6
CONTINUOUS
10
-0.0470205
20
0.467654
11
-0.055767
21
0.460646
0
LINE
8
BLACK
6
CONTINUOUS
10
-0.055767
20
0.460646
11
-0.0634817
21
0.452517
0
LINE
8
BLACK
6
CONTINUOUS
10
-0.0634817
20
0.452517
11
-0.0700217
21
0.443415
0
LINE
8
BLACK
6
CONTINUOUS
10
-0.0700217
20
0.443415
11
-0.075266
21
0.433511
0
LINE
8
BLACK
6
CONTINUOUS
10
-0.075266
20
0.433511
11
-0.0791175
21
0.422986
0
LINE
8
BLACK
6
CONTINUOUS
10
-0.0791175
20
0.422986
11
-0.081505
21
0.412036
0
LINE
8
BLACK
6
CONTINUOUS
10
-0.081505
20
0.412036
11
-0.0823844
21
0.400863
0
LINE
8
BLACK
6
CONTINUOUS
10
-0.0823844
20
0.400863
11
-0.0817393
21
0.389674
0
LINE
8
BLACK
6
CONTINUOUS
10
-0.0817393
20
0.389674
11
-0.0795816
21
0.378676
0
LINE
8
BLACK
6
CONTINUOUS
10
-0.0144048
20
0.429279
11
-0.0137139
21
0.427381
0
LINE
8
BLACK
6
CONTINUOUS
10
-0.0137139
20
0.427381
11
-0.0137139
21
0.391667
0
LINE
8
BLACK
6
CONTINUOUS
10
-0.0137139
20
0.391667
11
-0.0138672
21
0.390797
0
LINE
8
BLACK
6
CONTINUOUS
10
-0.0138672
20
0.390797
11
-0.0138655
21
0.390733
0
LINE
8
BLACK
6
CONTINUOUS
10
-0.0138655
20
0.390733
11
-0.0162464
21
0.38359
0
LINE
8
BLACK
6
CONTINUOUS
10
-0.0162464
20
0.38359
11
-0.0167347
21
0.382688
0
LINE
8
BLACK
6
CONTINUOUS
10
-0.0167347
20
0.382688
11
-0.0168851
21
0.382596
0
LINE
8
BLACK
6
CONTINUOUS
10
-0.0168851
20
0.382596
11
-0.0169597
21
0.382436
0
LINE
8
BLACK
6
CONTINUOUS
10
-0.0169597
20
0.382436
11
-0.0217216
21
0.377674
0
LINE
8
BLACK
6
CONTINUOUS
10
-0.0217216
20
0.377674
11
-0.0225617
21
0.377086
0
LINE
8
BLACK
6
CONTINUOUS
10
-0.0225617
20
0.377086
11
-0.0227375
21
0.37707
0
LINE
8
BLACK
6
CONTINUOUS
10
-0.0227375
20
0.37707
11
-0.0228758
21
0.376961
0
LINE
8
BLACK
6
CONTINUOUS
10
-0.0228758
20
0.376961
11
-0.0300187
21
0.37458
0
LINE
8
BLACK
6
CONTINUOUS
10
-0.0300187
20
0.37458
11
-0.0308918
21
0.37445
0
LINE
8
BLACK
6
CONTINUOUS
10
-0.0308918
20
0.37445
11
-0.0309524
21
0.374428
0
LINE
8
BLACK
6
CONTINUOUS
10
-0.0309524
20
0.374428
11
-0.0357143
21
0.374428
0
LINE
8
BLACK
6
CONTINUOUS
10
-0.0357143
20
0.374428
11
-0.0367242
21
0.374606
0
LINE
8
BLACK
6
CONTINUOUS
10
-0.0367242
20
0.374606
11
-0.0382715
21
0.375905
0
LINE
8
BLACK
6
CONTINUOUS
10
-0.0382715
20
0.375905
11
-0.0386222
21
0.377894
0
LINE
8
BLACK
6
CONTINUOUS
10
-0.0386222
20
0.377894
11
-0.0376123
21
0.379643
0
LINE
8
BLACK
6
CONTINUOUS
10
-0.0376123
20
0.379643
11
-0.0357143
21
0.380334
0
LINE
8
BLACK
6
CONTINUOUS
10
-0.0357143
20
0.380334
11
-0.0314315
21
0.380334
0
LINE
8
BLACK
6
CONTINUOUS
10
-0.0314315
20
0.380334
11
-0.0254046
21
0.382343
0
LINE
8
BLACK
6
CONTINUOUS
10
-0.0254046
20
0.382343
11
-0.0216284
21
0.386119
0
LINE
8
BLACK
6
CONTINUOUS
10
-0.0216284
20
0.386119
11
-0.0196194
21
0.392146
0
LINE
8
BLACK
6
CONTINUOUS
10
-0.0196194
20
0.392146
11
-0.0196194
21
0.427381
0
LINE
8
BLACK
6
CONTINUOUS
10
-0.0196194
20
0.427381
11
-0.0194414
21
0.428391
0
LINE
8
BLACK
6
CONTINUOUS
10
-0.0194414
20
0.428391
11
-0.0181431
21
0.429938
0
LINE
8
BLACK
6
CONTINUOUS
10
-0.0181431
20
0.429938
11
-0.0161539
21
0.430289
0
LINE
8
BLACK
6
CONTINUOUS
10
-0.0161539
20
0.430289
11
-0.0144048
21
0.429279
0
LINE
8
BLACK
6
CONTINUOUS
10
0.0337706
20
0.430257
11
0.0339061
21
0.430278
0
LINE
8
BLACK
6
CONTINUOUS
10
0.0339061
20
0.430278
11
0.0340108
21
0.430214
0
LINE
8
BLACK
6
CONTINUOUS
10
0.0340108
20
0.430214
11
0.0343432
21
0.430156
0
LINE
8
BLACK
6
CONTINUOUS
10
0.0343432
20
0.430156
11
0.034953
21
0.429644
0
LINE
8
BLACK
6
CONTINUOUS
10
0.034953
20
0.429644
11
0.0356341
21
0.429232
0
LINE
8
BLACK
6
CONTINUOUS
10
0.0356341
20
0.429232
11
0.03571
21
0.429009
0
LINE
8
BLACK
6
CONTINUOUS
10
0.03571
20
0.429009
11
0.0358905
21
0.428857
0
LINE
8
BLACK
6
CONTINUOUS
10
0.0358905
20
0.428857
11
0.0360287
21
0.428073
0
LINE
8
BLACK
6
CONTINUOUS
10
0.0360287
20
0.428073
11
0.0362854
21
0.42732
0
LINE
8
BLACK
6
CONTINUOUS
10
0.0362854
20
0.42732
11
0.0362003
21
0.4271
0
LINE
8
BLACK
6
CONTINUOUS
10
0.0362003
20
0.4271
11
0.0362412
21
0.426868
0
LINE
8
BLACK
6
CONTINUOUS
10
0.0362412
20
0.426868
11
0.0358431
21
0.426179
0
LINE
8
BLACK
6
CONTINUOUS
10
0.0358431
20
0.426179
11
0.0355555
21
0.425437
0
LINE
8
BLACK
6
CONTINUOUS
10
0.0355555
20
0.425437
11
0.0231738
21
0.411286
0
LINE
8
BLACK
6
CONTINUOUS
10
0.0231738
20
0.411286
11
0.0238095
21
0.411286
0
LINE
8
BLACK
6
CONTINUOUS
10
0.0238095
20
0.411286
11
0.0248194
21
0.411108
0
LINE
8
BLACK
6
CONTINUOUS
10
0.0248194
20
0.411108
11
0.0249546
21
0.410995
0
LINE
8
BLACK
6
CONTINUOUS
10
0.0249546
20
0.410995
11
0.02513
21
0.410974
0
LINE
8
BLACK
6
CONTINUOUS
10
0.02513
20
0.410974
11
0.0298919
21
0.408593
0
LINE
8
BLACK
6
CONTINUOUS
10
0.0298919
20
0.408593
11
0.030601
21
0.408068
0
LINE
8
BLACK
6
CONTINUOUS
10
0.030601
20
0.408068
11
0.0306593
21
0.40804
0
LINE
8
BLACK
6
CONTINUOUS
10
0.0306593
20
0.40804
11
0.0330403
21
0.405659
0
LINE
8
BLACK
6
CONTINUOUS
10
0.0330403
20
0.405659
11
0.0335466
21
0.404936
0
LINE
8
BLACK
6
CONTINUOUS
10
0.0335466
20
0.404936
11
0.0335934
21
0.404892
0
LINE
8
BLACK
6
CONTINUOUS
10
0.0335934
20
0.404892
11
0.0359743
21
0.40013
0
LINE
8
BLACK
6
CONTINUOUS
10
0.0359743
20
0.40013
11
0.0362667
21
0.399147
0
LINE
8
BLACK
6
CONTINUOUS
10
0.0362667
20
0.399147
11
0.0362257
21
0.398975
0
LINE
8
BLACK
6
CONTINUOUS
10
0.0362257
20
0.398975
11
0.0362861
21
0.39881
0
LINE
8
BLACK
6
CONTINUOUS
10
0.0362861
20
0.39881
11
0.0362861
21
0.386905
0
LINE
8
BLACK
6
CONTINUOUS
10
0.0362861
20
0.386905
11
0.036108
21
0.385895
0
LINE
8
BLACK
6
CONTINUOUS
10
0.036108
20
0.385895
11
0.0359945
21
0.38576
0
LINE
8
BLACK
6
CONTINUOUS
10
0.0359945
20
0.38576
11
0.0359743
21
0.385584
0
LINE
8
BLACK
6
CONTINUOUS
10
0.0359743
20
0.385584
11
0.0335934
21
0.380822
0
LINE
8
BLACK
6
CONTINUOUS
10
0.0335934
20
0.380822
11
0.0330675
21
0.380113
0
LINE
8
BLACK
6
CONTINUOUS
10
0.0330675
20
0.380113
11
0.0330403
21
0.380055
0
LINE
8
BLACK
6
CONTINUOUS
10
0.0330403
20
0.380055
11
0.0306593
21
0.377674
0
LINE
8
BLACK
6
CONTINUOUS
10
0.0306593
20
0.377674
11
0.0299361
21
0.377168
0
LINE
8
BLACK
6
CONTINUOUS
10
0.0299361
20
0.377168
11
0.0298919
21
0.377121
0
LINE
8
BLACK
6
CONTINUOUS
10
0.0298919
20
0.377121
11
0.02513
21
0.37474
0
LINE
8
BLACK
6
CONTINUOUS
10
0.02513
20
0.37474
11
0.024147
21
0.374448
0
LINE
8
BLACK
6
CONTINUOUS
10
0.024147
20
0.374448
11
0.0239754
21
0.374489
0
LINE
8
BLACK
6
CONTINUOUS
10
0.0239754
20
0.374489
11
0.0238095
21
0.374428
0
LINE
8
BLACK
6
CONTINUOUS
10
0.0238095
20
0.374428
11
0.00952378
21
0.374428
0
LINE
8
BLACK
6
CONTINUOUS
10
0.00952378
20
0.374428
11
0.00851386
21
0.374606
0
LINE
8
BLACK
6
CONTINUOUS
10
0.00851386
20
0.374606
11
0.00837862
21
0.37472
0
LINE
8
BLACK
6
CONTINUOUS
10
0.00837862
20
0.37472
11
0.00820327
21
0.37474
0
LINE
8
BLACK
6
CONTINUOUS
10
0.00820327
20
0.37474
11
0.00344138
21
0.377121
0
LINE
8
BLACK
6
CONTINUOUS
10
0.00344138
20
0.377121
11
0.00273232
21
0.377647
0
LINE
8
BLACK
6
CONTINUOUS
10
0.00273232
20
0.377647
11
0.00267398
21
0.377674
0
LINE
8
BLACK
6
CONTINUOUS
10
0.00267398
20
0.377674
11
0.000293031
21
0.380055
0
LINE
8
BLACK
6
CONTINUOUS
10
0.000293031
20
0.380055
11
-0.000295157
21
0.380895
0
LINE
8
BLACK
6
CONTINUOUS
10
-0.000295157
20
0.380895
11
-0.00047122
21
0.382907
0
LINE
8
BLACK
6
CONTINUOUS
10
-0.00047122
20
0.382907
11
0.000687323
21
0.384562
0
LINE
8
BLACK
6
CONTINUOUS
10
0.000687323
20
0.384562
11
0.00263827
21
0.385084
0
LINE
8
BLACK
6
CONTINUOUS
10
0.00263827
20
0.385084
11
0.00446886
21
0.384231
0
LINE
8
BLACK
6
CONTINUOUS
10
0.00446886
20
0.384231
11
0.00651098
21
0.382189
0
LINE
8
BLACK
6
CONTINUOUS
10
0.00651098
20
0.382189
11
0.0102208
21
0.380334
0
LINE
8
BLACK
6
CONTINUOUS
10
0.0102208
20
0.380334
11
0.0231124
21
0.380334
0
LINE
8
BLACK
6
CONTINUOUS
10
0.0231124
20
0.380334
11
0.0268223
21
0.382189
0
LINE
8
BLACK
6
CONTINUOUS
10
0.0268223
20
0.382189
11
0.0285256
21
0.383892
0
LINE
8
BLACK
6
CONTINUOUS
10
0.0285256
20
0.383892
11
0.0303806
21
0.387602
0
LINE
8
BLACK
6
CONTINUOUS
10
0.0303806
20
0.387602
11
0.0303806
21
0.398113
0
LINE
8
BLACK
6
CONTINUOUS
10
0.0303806
20
0.398113
11
0.0285256
21
0.401822
0
LINE
8
BLACK
6
CONTINUOUS
10
0.0285256
20
0.401822
11
0.0268223
21
0.403526
0
LINE
8
BLACK
6
CONTINUOUS
10
0.0268223
20
0.403526
11
0.0231124
21
0.405381
0
LINE
8
BLACK
6
CONTINUOUS
10
0.0231124
20
0.405381
11
0.0166667
21
0.405381
0
LINE
8
BLACK
6
CONTINUOUS
10
0.0166667
20
0.405381
11
0.0162293
21
0.405458
0
LINE
8
BLACK
6
CONTINUOUS
10
0.0162293
20
0.405458
11
0.0160938
21
0.405437
0
LINE
8
BLACK
6
CONTINUOUS
10
0.0160938
20
0.405437
11
0.0159891
21
0.4055
0
LINE
8
BLACK
6
CONTINUOUS
10
0.0159891
20
0.4055
11
0.0156567
21
0.405559
0
LINE
8
BLACK
6
CONTINUOUS
10
0.0156567
20
0.405559
11
0.0150469
21
0.40607
0
LINE
8
BLACK
6
CONTINUOUS
10
0.0150469
20
0.40607
11
0.0143659
21
0.406483
0
LINE
8
BLACK
6
CONTINUOUS
10
0.0143659
20
0.406483
11
0.0142899
21
0.406706
0
LINE
8
BLACK
6
CONTINUOUS
10
0.0142899
20
0.406706
11
0.0141095
21
0.406857
0
LINE
8
BLACK
6
CONTINUOUS
10
0.0141095
20
0.406857
11
0.0139713
21
0.407641
0
LINE
8
BLACK
6
CONTINUOUS
10
0.0139713
20
0.407641
11
0.0137145
21
0.408394
0
LINE
8
BLACK
6
CONTINUOUS
10
0.0137145
20
0.408394
11
0.0137996
21
0.408614
0
LINE
8
BLACK
6
CONTINUOUS
10
0.0137996
20
0.408614
11
0.0137587
21
0.408846
0
LINE
8
BLACK
6
CONTINUOUS
10
0.0137587
20
0.408846
11
0.0141568
21
0.409536
0
LINE
8
BLACK
6
CONTINUOUS
10
0.0141568
20
0.409536
11
0.0144445
21
0.410278
0
LINE
8
BLACK
6
CONTINUOUS
10
0.0144445
20
0.410278
11
0.0268261
21
0.424428
0
LINE
8
BLACK
6
CONTINUOUS
10
0.0268261
20
0.424428
11
0.00238094
21
0.424428
0
LINE
8
BLACK
6
CONTINUOUS
10
0.00238094
20
0.424428
11
0.00137102
21
0.424606
0
LINE
8
BLACK
6
CONTINUOUS
10
0.00137102
20
0.424606
11
-0.00017622
21
0.425905
0
LINE
8
BLACK
6
CONTINUOUS
10
-0.00017622
20
0.425905
11
-0.000526969
21
0.427894
0
LINE
8
BLACK
6
CONTINUOUS
10
-0.000526969
20
0.427894
11
0.000482953
21
0.429643
0
LINE
8
BLACK
6
CONTINUOUS
10
0.000482953
20
0.429643
11
0.00238094
21
0.430334
0
LINE
8
BLACK
6
CONTINUOUS
10
0.00238094
20
0.430334
11
0.0333333
21
0.430334
0
LINE
8
BLACK
6
CONTINUOUS
10
0.0333333
20
0.430334
11
0.0337706
21
0.430257
0
LINE
8
BLACK
6
CONTINUOUS
10
0.550384
20
0.752885
11
0.550513
21
0.752908
0
LINE
8
BLACK
6
CONTINUOUS
10
0.550513
20
0.752908
11
0.550626
21
0.752842
0
LINE
8
BLACK
6
CONTINUOUS
10
0.550626
20
0.752842
11
0.55101
21
0.752775
0
LINE
8
BLACK
6
CONTINUOUS
10
0.55101
20
0.752775
11
0.551598
21
0.752282
0
LINE
8
BLACK
6
CONTINUOUS
10
0.551598
20
0.752282
11
0.552262
21
0.751898
0
LINE
8
BLACK
6
CONTINUOUS
10
0.552262
20
0.751898
11
0.552353
21
0.751648
0
LINE
8
BLACK
6
CONTINUOUS
10
0.552353
20
0.751648
11
0.552557
21
0.751476
0
LINE
8
BLACK
6
CONTINUOUS
10
0.552557
20
0.751476
11
0.55269
21
0.750721
0
LINE
8
BLACK
6
CONTINUOUS
10
0.55269
20
0.750721
11
0.552953
21
0.75
0
LINE
8
BLACK
6
CONTINUOUS
10
0.552953
20
0.75
11
0.552953
21
0.45
0
LINE
8
BLACK
6
CONTINUOUS
10
0.552953
20
0.45
11
0.552885
21
0.449616
0
LINE
8
BLACK
6
CONTINUOUS
10
0.552885
20
0.449616
11
0.552908
21
0.449487
0
LINE
8
BLACK
6
CONTINUOUS
10
0.552908
20
0.449487
11
0.552842
21
0.449374
0
LINE
8
BLACK
6
CONTINUOUS
10
0.552842
20
0.449374
11
0.552775
21
0.44899
0
LINE
8
BLACK
6
CONTINUOUS
10
0.552775
20
0.44899
11
0.552282
21
0.448402
0
LINE
8
BLACK
6
CONTINUOUS
10
0.552282
20
0.448402
11
0.551898
21
0.447738
0
LINE
8
BLACK
6
CONTINUOUS
10
0.551898
20
0.447738
11
0.551648
21
0.447647
0
LINE
8
BLACK
6
CONTINUOUS
10
0.551648
20
0.447647
11
0.551476
21
0.447443
0
LINE
8
BLACK
6
CONTINUOUS
10
0.551476
20
0.447443
11
0.550721
21
0.44731
0
LINE
8
BLACK
6
CONTINUOUS
10
0.550721
20
0.44731
11
0.55
21
0.447047
0
LINE
8
BLACK
6
CONTINUOUS
10
0.55
20
0.447047
11
0.35
21
0.447047
0
LINE
8
BLACK
6
CONTINUOUS
10
0.35
20
0.447047
11
0.349616
21
0.447115
0
LINE
8
BLACK
6
CONTINUOUS
10
0.349616
20
0.447115
11
0.349487
21
0.447092
0
LINE
8
BLACK
6
CONTINUOUS
10
0.349487
20
0.447092
11
0.349374
21
0.447158
0
LINE
8
BLACK
6
CONTINUOUS
10
0.349374
20
0.447158
11
0.34899
21
0.447225
0
LINE
8
BLACK
6
CONTINUOUS
10
0.34899
20
0.447225
11
0.348402
21
0.447718
0
LINE
8
BLACK
6
CONTINUOUS
10
0.348402
20
0.447718
11
0.347738
21
0.448102
0
LINE
8
BLACK
6
CONTINUOUS
10
0.347738
20
0.448102
11
0.347647
21
0.448352
0
LINE
8
BLACK
6
CONTINUOUS
10
0.347647
20
0.448352
11
0.347443
21
0.448524
0
LINE
8
BLACK
6
CONTINUOUS
10
0.347443
20
0.448524
11
0.34731
21
0.449279
0
LINE
8
BLACK
6
CONTINUOUS
10
0.34731
20
0.449279
11
0.347047
21
0.45
0
LINE
8
BLACK
6
CONTINUOUS
10
0.347047
20
0.45
11
0.347047
21
0.75
0
LINE
8
BLACK
6
CONTINUOUS
10
0.347047
20
0.75
11
0.347115
21
0.750384
0
LINE
8
BLACK
6
CONTINUOUS
10
0.347115
20
0.750384
11
0.347092
21
0.750513
0
LINE
8
BLACK
6
CONTINUOUS
10
0.347092
20
0.750513
11
0.347158
21
0.750626
0
LINE
8
BLACK
6
CONTINUOUS
10
0.347158
20
0.750626
11
0.347225
21
0.75101
0
LINE
8
BLACK
6
CONTINUOUS
10
0.347225
20
0.75101
11
0.347718
21
0.751598
0
LINE
8
BLACK
6
CONTINUOUS
10
0.347718
20
0.751598
11
0.348102
21
0.752262
0
LINE
8
BLACK
6
CONTINUOUS
10
0.348102
20
0.752262
11
0.348352
21
0.752353
0
LINE
8
BLACK
6
CONTINUOUS
10
0.348352
20
0.752353
11
0.348524
21
0.752557
0
LINE
8
BLACK
6
CONTINUOUS
10
0.348524
20
0.752557
11
0.349279
21
0.75269
0
LINE
8
BLACK
6
CONTINUOUS
10
0.349279
20
0.75269
11
0.35
21
0.752953
0
LINE
8
BLACK
6
CONTINUOUS
10
0.35
20
0.752953
11
0.55
21
0.752953
0
LINE
8
BLACK
6
CONTINUOUS
10
0.55
20
0.752953
11
0.550384
21
0.752885
0
LINE
8
BLACK
6
CONTINUOUS
10
0.352953
20
0.747047
11
0.352953
21
0.452953
0
LINE
8
BLACK
6
CONTINUOUS
10
0.352953
20
0.452953
11
0.547047
21
0.452953
0
LINE
8
BLACK
6
CONTINUOUS
10
0.547047
20
0.452953
11
0.547047
21
0.747047
0
LINE
8
BLACK
6
CONTINUOUS
10
0.547047
20
0.747047
11
0.352953
21
0.747047
0
LINE
8
BLACK
6
CONTINUOUS
10
0.138179
20
0.94068
11
0.138308
21
0.940703
0
LINE
8
BLACK
6
CONTINUOUS
10
0.138308
20
0.940703
11
0.138422
21
0.940638
0
LINE
8
BLACK
6
CONTINUOUS
10
0.138422
20
0.940638
11
0.138805
21
0.94057
0
LINE
8
BLACK
6
CONTINUOUS
10
0.138805
20
0.94057
11
0.139393
21
0.940077
0
LINE
8
BLACK
6
CONTINUOUS
10
0.139393
20
0.940077
11
0.140057
21
0.939693
0
LINE
8
BLACK
6
CONTINUOUS
10
0.140057
20
0.939693
11
0.140148
21
0.939443
0
LINE
8
BLACK
6
CONTINUOUS
10
0.140148
20
0.939443
11
0.140352
21
0.939272
0
LINE
8
BLACK
6
CONTINUOUS
10
0.140352
20
0.939272
11
0.140486
21
0.938516
0
LINE
8
BLACK
6
CONTINUOUS
10
0.140486
20
0.938516
11
0.140748
21
0.937795
0
LINE
8
BLACK
6
CONTINUOUS
10
0.140748
20
0.937795
11
0.140748
21
0.662205
0
LINE
8
BLACK
6
CONTINUOUS
10
0.140748
20
0.662205
11
0.14068
21
0.661821
0
LINE
8
BLACK
6
CONTINUOUS
10
0.14068
20
0.661821
11
0.140703
21
0.661692
0
LINE
8
BLACK
6
CONTINUOUS
10
0.140703
20
0.661692
11
0.140638
21
0.661578
0
LINE
8
BLACK
6
CONTINUOUS
10
0.140638
20
0.661578
11
0.14057
21
0.661195
0
LINE
8
BLACK
6
CONTINUOUS
10
0.14057
20
0.661195
11
0.140077
21
0.660607
0
LINE
8
BLACK
6
CONTINUOUS
10
0.140077
20
0.660607
11
0.139693
21
0.659943
0
LINE
8
BLACK
6
CONTINUOUS
10
0.139693
20
0.659943
11
0.139443
21
0.659852
0
LINE
8
BLACK
6
CONTINUOUS
10
0.139443
20
0.659852
11
0.139272
21
0.659648
0
LINE
8
BLACK
6
CONTINUOUS
10
0.139272
20
0.659648
11
0.138516
21
0.659514
0
LINE
8
BLACK
6
CONTINUOUS
10
0.138516
20
0.659514
11
0.137795
21
0.659252
0
LINE
8
BLACK
6
CONTINUOUS
10
0.137795
20
0.659252
11
-0.137795
21
0.659252
0
LINE
8
BLACK
6
CONTINUOUS
10
-0.137795
20
0.659252
11
-0.138179
21
0.65932
0
LINE
8
BLACK
6
CONTINUOUS
10
-0.138179
20
0.65932
11
-0.138308
21
0.659297
0
LINE
8
BLACK
6
CONTINUOUS
10
-0.138308
20
0.659297
11
-0.138422
21
0.659362
0
LINE
8
BLACK
6
CONTINUOUS
10
-0.138422
20
0.659362
11
-0.138805
21
0.65943
0
LINE
8
BLACK
6
CONTINUOUS
10
-0.138805
20
0.65943
11
-0.139393
21
0.659923
0
LINE
8
BLACK
6
CONTINUOUS
10
-0.139393
20
0.659923
11
-0.140057
21
0.660307
0
LINE
8
BLACK
6
CONTINUOUS
10
-0.140057
20
0.660307
11
-0.140148
21
0.660557
0
LINE
8
BLACK
6
CONTINUOUS
10
-0.140148
20
0.660557
11
-0.140352
21
0.660728
0
LINE
8
BLACK
6
CONTINUOUS
10
-0.140352
20
0.660728
11
-0.140486
21
0.661484
0
LINE
8
BLACK
6
CONTINUOUS
10
-0.140486
20
0.661484
11
-0.140748
21
0.662205
0
LINE
8
BLACK
6
CONTINUOUS
10
-0.140748
20
0.662205
11
-0.140748
21
0.937795
0
LINE
8
BLACK
6
CONTINUOUS
10
-0.140748
20
0.937795
11
-0.14068
21
0.938179
0
LINE
8
BLACK
6
CONTINUOUS
10
-0.14068
20
0.938179
11
-0.140703
21
0.938308
0
LINE
8
BLACK
6
CONTINUOUS
10
-0.140703
20
0.938308
11
-0.140638
21
0.938422
0
LINE
8
BLACK
6
CONTINUOUS
10
-0.140638
20
0.938422
11
-0.14057
21
0.938805
0
LINE
8
BLACK
6
CONTINUOUS
10
-0.14057
20
0.938805
11
-0.140077
21
0.939393
0
LINE
8
BLACK
6
CONTINUOUS
10
-0.140077
20
0.939393
11
-0.139693
21
0.940057
0
LINE
8
BLACK
6
CONTINUOUS
10
-0.139693
20
0.940057
11
-0.139443
21
0.940148
0
LINE
8
BLACK
6
CONTINUOUS
10
-0.139443
20
0.940148
11
-0.139272
21
0.940352
0
LINE
8
BLACK
6
CONTINUOUS
10
-0.139272
20
0.940352
11
-0.138516
21
0.940486
0
LINE
8
BLACK
6
CONTINUOUS
10
-0.138516
20
0.940486
11
-0.137795
21
0.940748
0
LINE
8
BLACK
6
CONTINUOUS
10
-0.137795
20
0.940748
11
0.137795
21
0.940748
0
LINE
8
BLACK
6
CONTINUOUS
10
0.137795
20
0.940748
11
0.138179
21
0.94068
0
LINE
8
BLACK
6
CONTINUOUS
10
-0.134843
20
0.717126
11
-0.134843
21
0.665157
0
LINE
8
BLACK
6
CONTINUOUS
10
-0.134843
20
0.665157
11
-0.082874
21
0.665157
0
LINE
8
BLACK
6
CONTINUOUS
10
-0.082874
20
0.665157
11
-0.082874
21
0.676969
0
LINE
8
BLACK
6
CONTINUOUS
10
-0.082874
20
0.676969
11
-0.120079
21
0.676969
0
LINE
8
BLACK
6
CONTINUOUS
10
-0.120079
20
0.676969
11
-0.120462
21
0.677036
0
LINE
8
BLACK
6
CONTINUOUS
10
-0.120462
20
0.677036
11
-0.120591
21
0.677013
0
LINE
8
BLACK
6
CONTINUOUS
10
-0.120591
20
0.677013
11
-0.120705
21
0.677079
0
LINE
8
BLACK
6
CONTINUOUS
10
-0.120705
20
0.677079
11
-0.121089
21
0.677147
0
LINE
8
BLACK
6
CONTINUOUS
10
-0.121089
20
0.677147
11
-0.121676
21
0.67764
0
LINE
8
BLACK
6
CONTINUOUS
10
-0.121676
20
0.67764
11
-0.122341
21
0.678023
0
LINE
8
BLACK
6
CONTINUOUS
10
-0.122341
20
0.678023
11
-0.122432
21
0.678274
0
LINE
8
BLACK
6
CONTINUOUS
10
-0.122432
20
0.678274
11
-0.122636
21
0.678445
0
LINE
8
BLACK
6
CONTINUOUS
10
-0.122636
20
0.678445
11
-0.122769
21
0.6792
0
LINE
8
BLACK
6
CONTINUOUS
10
-0.122769
20
0.6792
11
-0.123031
21
0.679921
0
LINE
8
BLACK
6
CONTINUOUS
10
-0.123031
20
0.679921
11
-0.123031
21
0.717126
0
LINE
8
BLACK
6
CONTINUOUS
10
-0.123031
20
0.717126
11
-0.134843
21
0.717126
0
LINE
8
BLACK
6
CONTINUOUS
10
-0.0769685
20
0.934843
11
-0.0769685
21
0.879921
0
LINE
8
BLACK
6
CONTINUOUS
10
-0.0769685
20
0.879921
11
-0.0770361
21
0.879538
0
LINE
8
BLACK
6
CONTINUOUS
10
-0.0770361
20
0.879538
11
-0.0770133
21
0.879409
0
LINE
8
BLACK
6
CONTINUOUS
10
-0.0770133
20
0.879409
11
-0.0770789
21
0.879295
0
LINE
8
BLACK
6
CONTINUOUS
10
-0.0770789
20
0.879295
11
-0.0771466
21
0.878911
0
LINE
8
BLACK
6
CONTINUOUS
10
-0.0771466
20
0.878911
11
-0.0776397
21
0.878324
0
LINE
8
BLACK
6
CONTINUOUS
10
-0.0776397
20
0.878324
11
-0.0780233
21
0.877659
0
LINE
8
BLACK
6
CONTINUOUS
10
-0.0780233
20
0.877659
11
-0.0782736
21
0.877568
0
LINE
8
BLACK
6
CONTINUOUS
10
-0.0782736
20
0.877568
11
-0.0784449
21
0.877364
0
LINE
8
BLACK
6
CONTINUOUS
10
-0.0784449
20
0.877364
11
-0.0792004
21
0.877231
0
LINE
8
BLACK
6
CONTINUOUS
10
-0.0792004
20
0.877231
11
-0.0799213
21
0.876969
0
LINE
8
BLACK
6
CONTINUOUS
10
-0.0799213
20
0.876969
11
-0.134843
21
0.876969
0
LINE
8
BLACK
6
CONTINUOUS
10
-0.134843
20
0.876969
11
-0.134843
21
0.723031
0
LINE
8
BLACK
6
CONTINUOUS
10
-0.134843
20
0.723031
11
-0.0799213
21
0.723031
0
LINE
8
BLACK
6
CONTINUOUS
10
-0.0799213
20
0.723031
11
-0.0795377
21
0.722964
0
LINE
8
BLACK
6
CONTINUOUS
10
-0.0795377
20
0.722964
11
-0.0794085
21
0.722987
0
LINE
8
BLACK
6
CONTINUOUS
10
-0.0794085
20
0.722987
11
-0.0792949
21
0.722921
0
LINE
8
BLACK
6
CONTINUOUS
10
-0.0792949
20
0.722921
11
-0.0789113
21
0.722853
0
LINE
8
BLACK
6
CONTINUOUS
10
-0.0789113
20
0.722853
11
-0.0783237
21
0.72236
0
LINE
8
BLACK
6
CONTINUOUS
10
-0.0783237
20
0.72236
11
-0.0776593
21
0.721977
0
LINE
8
BLACK
6
CONTINUOUS
10
-0.0776593
20
0.721977
11
-0.0775682
21
0.721726
0
LINE
8
BLACK
6
CONTINUOUS
10
-0.0775682
20
0.721726
11
-0.0773641
21
0.721555
0
LINE
8
BLACK
6
CONTINUOUS
10
-0.0773641
20
0.721555
11
-0.0772309
21
0.7208
0
LINE
8
BLACK
6
CONTINUOUS
10
-0.0772309
20
0.7208
11
-0.0769685
21
0.720079
0
LINE
8
BLACK
6
CONTINUOUS
10
-0.0769685
20
0.720079
11
-0.0769685
21
0.665157
0
LINE
8
BLACK
6
CONTINUOUS
10
-0.0769685
20
0.665157
11
0.0769685
21
0.665157
0
LINE
8
BLACK
6
CONTINUOUS
10
0.0769685
20
0.665157
11
0.0769685
21
0.720079
0
LINE
8
BLACK
6
CONTINUOUS
10
0.0769685
20
0.720079
11
0.0770361
21
0.720462
0
LINE
8
BLACK
6
CONTINUOUS
10
0.0770361
20
0.720462
11
0.0770133
21
0.720591
0
LINE
8
BLACK
6
CONTINUOUS
10
0.0770133
20
0.720591
11
0.0770789
21
0.720705
0
LINE
8
BLACK
6
CONTINUOUS
10
0.0770789
20
0.720705
11
0.0771466
21
0.721089
0
LINE
8
BLACK
6
CONTINUOUS
10
0.0771466
20
0.721089
11
0.0776397
21
0.721676
0
LINE
8
BLACK
6
CONTINUOUS
10
0.0776397
20
0.721676
11
0.0780233
21
0.722341
0
LINE
8
BLACK
6
CONTINUOUS
10
0.0780233
20
0.722341
11
0.0782736
21
0.722432
0
LINE
8
BLACK
6
CONTINUOUS
10
0.0782736
20
0.722432
11
0.0784449
21
0.722636
0
LINE
8
BLACK
6
CONTINUOUS
10
0.0784449
20
0.722636
11
0.0792004
21
0.722769
0
LINE
8
BLACK
6
CONTINUOUS
10
0.0792004
20
0.722769
11
0.0799213
21
0.723031
0
LINE
8
BLACK
6
CONTINUOUS
10
0.0799213
20
0.723031
11
0.134843
21
0.723031
0
LINE
8
BLACK
6
CONTINUOUS
10
0.134843
20
0.723031
11
0.134843
21
0.876969
0
LINE
8
BLACK
6
CONTINUOUS
10
0.134843
20
0.876969
11
0.0799213
21
0.876969
0
LINE
8
BLACK
6
CONTINUOUS
10
0.0799213
20
0.876969
11
0.0795377
21
0.877036
0
LINE
8
BLACK
6
CONTINUOUS
10
0.0795377
20
0.877036
11
0.0794085
21
0.877013
0
LINE
8
BLACK
6
CONTINUOUS
10
0.0794085
20
0.877013
11
0.0792949
21
0.877079
0
LINE
8
BLACK
6
CONTINUOUS
10
0.0792949
20
0.877079
11
0.0789113
21
0.877147
0
LINE
8
BLACK
6
CONTINUOUS
10
0.0789113
20
0.877147
11
0.0783237
21
0.87764
0
LINE
8
BLACK
6
CONTINUOUS
10
0.0783237
20
0.87764
11
0.0776593
21
0.878023
0
LINE
8
BLACK
6
CONTINUOUS
10
0.0776593
20
0.878023
11
0.0775682
21
0.878274
0
LINE
8
BLACK
6
CONTINUOUS
10
0.0775682
20
0.878274
11
0.0773641
21
0.878445
0
LINE
8
BLACK
6
CONTINUOUS
10
0.0773641
20
0.878445
11
0.0772309
21
0.8792
0
LINE
8
BLACK
6
CONTINUOUS
10
0.0772309
20
0.8792
11
0.0769685
21
0.879921
0
LINE
8
BLACK
6
CONTINUOUS
10
0.0769685
20
0.879921
11
0.0769685
21
0.934843
0
LINE
8
BLACK
6
CONTINUOUS
10
0.0769685
20
0.934843
11
-0.0769685
21
0.934843
0
LINE
8
BLACK
6
CONTINUOUS
10
0.123031
20
0.717126
11
0.123031
21
0.679921
0
LINE
8
BLACK
6
CONTINUOUS
10
0.123031
20
0.679921
11
0.122964
21
0.679538
0
LINE
8
BLACK
6
CONTINUOUS
10
0.122964
20
0.679538
11
0.122987
21
0.679409
0
LINE
8
BLACK
6
CONTINUOUS
10
0.122987
20
0.679409
11
0.122921
21
0.679295
0
LINE
8
BLACK
6
CONTINUOUS
10
0.122921
20
0.679295
11
0.122853
21
0.678911
0
LINE
8
BLACK
6
CONTINUOUS
10
0.122853
20
0.678911
11
0.12236
21
0.678324
0
LINE
8
BLACK
6
CONTINUOUS
10
0.12236
20
0.678324
11
0.121977
21
0.677659
0
LINE
8
BLACK
6
CONTINUOUS
10
0.121977
20
0.677659
11
0.121726
21
0.677568
0
LINE
8
BLACK
6
CONTINUOUS
10
0.121726
20
0.677568
11
0.121555
21
0.677364
0
LINE
8
BLACK
6
CONTINUOUS
10
0.121555
20
0.677364
11
0.1208
21
0.677231
0
LINE
8
BLACK
6
CONTINUOUS
10
0.1208
20
0.677231
11
0.120079
21
0.676969
0
LINE
8
BLACK
6
CONTINUOUS
10
0.120079
20
0.676969
11
0.082874
21
0.676969
0
LINE
8
BLACK
6
CONTINUOUS
10
0.082874
20
0.676969
11
0.082874
21
0.665157
0
LINE
8
BLACK
6
CONTINUOUS
10
0.082874
20
0.665157
11
0.134843
21
0.665157
0
LINE
8
BLACK
6
CONTINUOUS
10
0.134843
20
0.665157
11
0.134843
21
0.717126
0
LINE
8
BLACK
6
CONTINUOUS
10
0.134843
20
0.717126
11
0.123031
21
0.717126
0
LINE
8
BLACK
6
CONTINUOUS
10
0.082874
20
0.717126
11
0.082874
21
0.682874
0
LINE
8
BLACK
6
CONTINUOUS
10
0.082874
20
0.682874
11
0.117126
21
0.682874
0
LINE
8
BLACK
6
CONTINUOUS
10
0.117126
20
0.682874
11
0.117126
21
0.717126
0
LINE
8
BLACK
6
CONTINUOUS
10
0.117126
20
0.717126
11
0.082874
21
0.717126
0
LINE
8
BLACK
6
CONTINUOUS
10
-0.117126
20
0.717126
11
-0.117126
21
0.682874
0
LINE
8
BLACK
6
CONTINUOUS
10
-0.117126
20
0.682874
11
-0.082874
21
0.682874
0
LINE
8
BLACK
6
CONTINUOUS
10
-0.082874
20
0.682874
11
-0.082874
21
0.717126
0
LINE
8
BLACK
6
CONTINUOUS
10
-0.082874
20
0.717126
11
-0.117126
21
0.717126
0
LINE
8
BLACK
6
CONTINUOUS
10
0.082874
20
0.917126
11
0.082874
21
0.882874
0
LINE
8
BLACK
6
CONTINUOUS
10
0.082874
20
0.882874
11
0.117126
21
0.882874
0
LINE
8
BLACK
6
CONTINUOUS
10
0.117126
20
0.882874
11
0.117126
21
0.917126
0
LINE
8
BLACK
6
CONTINUOUS
10
0.117126
20
0.917126
11
0.082874
21
0.917126
0
LINE
8
BLACK
6
CONTINUOUS
10
0.082874
20
0.934843
11
0.082874
21
0.923031
0
LINE
8
BLACK
6
CONTINUOUS
10
0.082874
20
0.923031
11
0.120079
21
0.923031
0
LINE
8
BLACK
6
CONTINUOUS
10
0.120079
20
0.923031
11
0.120462
21
0.922964
0
LINE
8
BLACK
6
CONTINUOUS
10
0.120462
20
0.922964
11
0.120591
21
0.922987
0
LINE
8
BLACK
6
CONTINUOUS
10
0.120591
20
0.922987
11
0.120705
21
0.922921
0
LINE
8
BLACK
6
CONTINUOUS
10
0.120705
20
0.922921
11
0.121089
21
0.922853
0
LINE
8
BLACK
6
CONTINUOUS
10
0.121089
20
0.922853
11
0.121676
21
0.92236
0
LINE
8
BLACK
6
CONTINUOUS
10
0.121676
20
0.92236
11
0.122341
21
0.921977
0
LINE
8
BLACK
6
CONTINUOUS
10
0.122341
20
0.921977
11
0.122432
21
0.921726
0
LINE
8
BLACK
6
CONTINUOUS
10
0.122432
20
0.921726
11
0.122636
21
0.921555
0
LINE
8
BLACK
6
CONTINUOUS
10
0.122636
20
0.921555
11
0.122769
21
0.9208
0
LINE
8
BLACK
6
CONTINUOUS
10
0.122769
20
0.9208
11
0.123031
21
0.920079
0
LINE
8
BLACK
6
CONTINUOUS
10
0.123031
20
0.920079
11
0.123031
21
0.882874
0
LINE
8
BLACK
6
CONTINUOUS
10
0.123031
20
0.882874
11
0.134843
21
0.882874
0
LINE
8
BLACK
6
CONTINUOUS
10
0.134843
20
0.882874
11
0.134843
21
0.934843
0
LINE
8
BLACK
6
CONTINUOUS
10
0.134843
20
0.934843
11
0.082874
21
0.934843
0
LINE
8
BLACK
6
CONTINUOUS
10
-0.134843
20
0.934843
11
-0.134843
21
0.882874
0
LINE
8
BLACK
6
CONTINUOUS
10
-0.134843
20
0.882874
11
-0.123031
21
0.882874
0
LINE
8
BLACK
6
CONTINUOUS
10
-0.123031
20
0.882874
11
-0.123031
21
0.920079
0
LINE
8
BLACK
6
CONTINUOUS
10
-0.123031
20
0.920079
11
-0.122964
21
0.920462
0
LINE
8
BLACK
6
CONTINUOUS
10
-0.122964
20
0.920462
11
-0.122987
21
0.920591
0
LINE
8
BLACK
6
CONTINUOUS
10
-0.122987
20
0.920591
11
-0.122921
21
0.920705
0
LINE
8
BLACK
6
CONTINUOUS
10
-0.122921
20
0.920705
11
-0.122853
21
0.921089
0
LINE
8
BLACK
6
CONTINUOUS
10
-0.122853
20
0.921089
11
-0.12236
21
0.921676
0
LINE
8
BLACK
6
CONTINUOUS
10
-0.12236
20
0.921676
11
-0.121977
21
0.922341
0
LINE
8
BLACK
6
CONTINUOUS
10
-0.121977
20
0.922341
11
-0.121726
21
0.922432
0
LINE
8
BLACK
6
CONTINUOUS
10
-0.121726
20
0.922432
11
-0.121555
21
0.922636
0
LINE
8
BLACK
6
CONTINUOUS
10
-0.121555
20
0.922636
11
-0.1208
21
0.922769
0
LINE
8
BLACK
6
CONTINUOUS
10
-0.1208
20
0.922769
11
-0.120079
21
0.923031
0
LINE
8
BLACK
6
CONTINUOUS
10
-0.120079
20
0.923031
11
-0.082874
21
0.923031
0
LINE
8
BLACK
6
CONTINUOUS
10
-0.082874
20
0.923031
11
-0.082874
21
0.934843
0
LINE
8
BLACK
6
CONTINUOUS
10
-0.082874
20
0.934843
11
-0.134843
21
0.934843
0
LINE
8
BLACK
6
CONTINUOUS
10
-0.117126
20
0.917126
11
-0.117126
21
0.882874
0
LINE
8
BLACK
6
CONTINUOUS
10
-0.117126
20
0.882874
11
-0.082874
21
0.882874
0
LINE
8
BLACK
6
CONTINUOUS
10
-0.082874
20
0.882874
11
-0.082874
21
0.917126
0
LINE
8
BLACK
6
CONTINUOUS
10
-0.082874
20
0.917126
11
-0.117126
21
0.917126
0
LINE
8
BLACK
6
CONTINUOUS
10
-0.0851003
20
0.822803
11
-0.0813959
21
0.833715
0
LINE
8
BLACK
6
CONTINUOUS
10
-0.0813959
20
0.833715
11
-0.0762989
21
0.844051
0
LINE
8
BLACK
6
CONTINUOUS
10
-0.0762989
20
0.844051
11
-0.0698963
21
0.853633
0
LINE
8
BLACK
6
CONTINUOUS
10
-0.0698963
20
0.853633
11
-0.0622978
21
0.862298
0
LINE
8
BLACK
6
CONTINUOUS
10
-0.0622978
20
0.862298
11
-0.0536333
21
0.869896
0
LINE
8
BLACK
6
CONTINUOUS
10
-0.0536333
20
0.869896
11
-0.0440511
21
0.876299
0
LINE
8
BLACK
6
CONTINUOUS
10
-0.0440511
20
0.876299
11
-0.0337153
21
0.881396
0
LINE
8
BLACK
6
CONTINUOUS
10
-0.0337153
20
0.881396
11
-0.0228026
21
0.8851
0
LINE
8
BLACK
6
CONTINUOUS
10
-0.0228026
20
0.8851
11
-0.0114996
21
0.887349
0
LINE
8
BLACK
6
CONTINUOUS
10
-0.0114996
20
0.887349
11
0
21
0.888102
0
LINE
8
BLACK
6
CONTINUOUS
10
0
20
0.888102
11
0.0114996
21
0.887349
0
LINE
8
BLACK
6
CONTINUOUS
10
0.0114996
20
0.887349
11
0.0228026
21
0.8851
0
LINE
8
BLACK
6
CONTINUOUS
10
0.0228026
20
0.8851
11
0.0337153
21
0.881396
0
LINE
8
BLACK
6
CONTINUOUS
10
0.0337153
20
0.881396
11
0.0440512
21
0.876299
0
LINE
8
BLACK
6
CONTINUOUS
10
0.0440512
20
0.876299
11
0.0536333
21
0.869896
0
LINE
8
BLACK
6
CONTINUOUS
10
0.0536333
20
0.869896
11
0.0622978
21
0.862298
0
LINE
8
BLACK
6
CONTINUOUS
10
0.0622978
20
0.862298
11
0.0698963
21
0.853633
0
LINE
8
BLACK
6
CONTINUOUS
10
0.0698963
20
0.853633
11
0.0762989
21
0.844051
0
LINE
8
BLACK
6
CONTINUOUS
10
0.0762989
20
0.844051
11
0.0813959
21
0.833715
0
LINE
8
BLACK
6
CONTINUOUS
10
0.0813959
20
0.833715
11
0.0851003
21
0.822803
0
LINE
8
BLACK
6
CONTINUOUS
10
0.0851003
20
0.822803
11
0.0873486
21
0.8115
0
LINE
8
BLACK
6
CONTINUOUS
10
0.0873486
20
0.8115
11
0.0881023
21
0.8
0
LINE
8
BLACK
6
CONTINUOUS
10
0.0881023
20
0.8
11
0.0873486
21
0.7885
0
LINE
8
BLACK
6
CONTINUOUS
10
0.0873486
20
0.7885
11
0.0851003
21
0.777197
0
LINE
8
BLACK
6
CONTINUOUS
10
0.0851003
20
0.777197
11
0.0813959
21
0.766285
0
LINE
8
BLACK
6
CONTINUOUS
10
0.0813959
20
0.766285
11
0.0762989
21
0.755949
0
LINE
8
BLACK
6
CONTINUOUS
10
0.0762989
20
0.755949
11
0.0698963
21
0.746367
0
LINE
8
BLACK
6
CONTINUOUS
10
0.0698963
20
0.746367
11
0.0622978
21
0.737702
0
LINE
8
BLACK
6
CONTINUOUS
10
0.0622978
20
0.737702
11
0.0536333
21
0.730104
0
LINE
8
BLACK
6
CONTINUOUS
10
0.0536333
20
0.730104
11
0.0440512
21
0.723701
0
LINE
8
BLACK
6
CONTINUOUS
10
0.0440512
20
0.723701
11
0.0337153
21
0.718604
0
LINE
8
BLACK
6
CONTINUOUS
10
0.0337153
20
0.718604
11
0.0228026
21
0.7149
0
LINE
8
BLACK
6
CONTINUOUS
10
0.0228026
20
0.7149
11
0.0114996
21
0.712651
0
LINE
8
BLACK
6
CONTINUOUS
10
0.0114996
20
0.712651
11
0
21
0.711898
0
LINE
8
BLACK
6
CONTINUOUS
10
0
20
0.711898
11
-0.0114996
21
0.712651
0
LINE
8
BLACK
6
CONTINUOUS
10
-0.0114996
20
0.712651
11
-0.0228026
21
0.7149
0
LINE
8
BLACK
6
CONTINUOUS
10
-0.0228026
20
0.7149
11
-0.0337153
21
0.718604
0
LINE
8
BLACK
6
CONTINUOUS
10
-0.0337153
20
0.718604
11
-0.0440512
21
0.723701
0
LINE
8
BLACK
6
CONTINUOUS
10
-0.0440512
20
0.723701
11
-0.0536333
21
0.730104
0
LINE
8
BLACK
6
CONTINUOUS
10
-0.0536333
20
0.730104
11
-0.0622978
21
0.737702
0
LINE
8
BLACK
6
CONTINUOUS
10
-0.0622978
20
0.737702
11
-0.0698963
21
0.746367
0
LINE
8
BLACK
6
CONTINUOUS
10
-0.0698963
20
0.746367
11
-0.0762989
21
0.755949
0
LINE
8
BLACK
6
CONTINUOUS
10
-0.0762989
20
0.755949
11
-0.0813959
21
0.766285
0
LINE
8
BLACK
6
CONTINUOUS
10
-0.0813959
20
0.766285
11
-0.0851003
21
0.777197
0
LINE
8
BLACK
6
CONTINUOUS
10
-0.0851003
20
0.777197
11
-0.0873486
21
0.7885
0
LINE
8
BLACK
6
CONTINUOUS
10
-0.0873486
20
0.7885
11
-0.0881023
21
0.8
0
LINE
8
BLACK
6
CONTINUOUS
10
-0.0881023
20
0.8
11
-0.0880458
21
0.800863
0
LINE
8
BLACK
6
CONTINUOUS
10
-0.0880458
20
0.800863
11
-0.0873486
21
0.8115
0
LINE
8
BLACK
6
CONTINUOUS
10
-0.0873486
20
0.8115
11
-0.0851003
21
0.822803
0
LINE
8
BLACK
6
CONTINUOUS
10
-0.0795816
20
0.778676
11
-0.0759513
21
0.768073
0
LINE
8
BLACK
6
CONTINUOUS
10
-0.0759513
20
0.768073
11
-0.0709156
21
0.758061
0
LINE
8
BLACK
6
CONTINUOUS
10
-0.0709156
20
0.758061
11
-0.0645676
21
0.748824
0
LINE
8
BLACK
6
CONTINUOUS
10
-0.0645676
20
0.748824
11
-0.0570249
21
0.740535
0
LINE
8
BLACK
6
CONTINUOUS
10
-0.0570249
20
0.740535
11
-0.048427
21
0.733346
0
LINE
8
BLACK
6
CONTINUOUS
10
-0.048427
20
0.733346
11
-0.038933
21
0.72739
0
LINE
8
BLACK
6
CONTINUOUS
10
-0.038933
20
0.72739
11
-0.0287185
21
0.722778
0
LINE
8
BLACK
6
CONTINUOUS
10
-0.0287185
20
0.722778
11
-0.0179726
21
0.719595
0
LINE
8
BLACK
6
CONTINUOUS
10
-0.0179726
20
0.719595
11
-0.00689413
21
0.7179
0
LINE
8
BLACK
6
CONTINUOUS
10
-0.00689413
20
0.7179
11
0.00431189
21
0.717724
0
LINE
8
BLACK
6
CONTINUOUS
10
0.00431189
20
0.717724
11
0.0154381
21
0.71907
0
LINE
8
BLACK
6
CONTINUOUS
10
0.0154381
20
0.71907
11
0.0262787
21
0.721914
0
LINE
8
BLACK
6
CONTINUOUS
10
0.0262787
20
0.721914
11
0.036633
21
0.726203
0
LINE
8
BLACK
6
CONTINUOUS
10
0.036633
20
0.726203
11
0.0463094
21
0.731858
0
LINE
8
BLACK
6
CONTINUOUS
10
0.0463094
20
0.731858
11
0.0551289
21
0.738773
0
LINE
8
BLACK
6
CONTINUOUS
10
0.0551289
20
0.738773
11
0.0629283
21
0.746821
0
LINE
8
BLACK
6
CONTINUOUS
10
0.0629283
20
0.746821
11
0.0695632
21
0.755854
0
LINE
8
BLACK
6
CONTINUOUS
10
0.0695632
20
0.755854
11
0.0749109
21
0.765703
0
LINE
8
BLACK
6
CONTINUOUS
10
0.0749109
20
0.765703
11
0.0788725
21
0.776187
0
LINE
8
BLACK
6
CONTINUOUS
10
0.0788725
20
0.776187
11
0.0813746
21
0.787112
0
LINE
8
BLACK
6
CONTINUOUS
10
0.0813746
20
0.787112
11
0.0823708
21
0.798275
0
LINE
8
BLACK
6
CONTINUOUS
10
0.0823708
20
0.798275
11
0.0823889
21
0.8
0
LINE
8
BLACK
6
CONTINUOUS
10
0.0823889
20
0.8
11
0.0816266
21
0.811181
0
LINE
8
BLACK
6
CONTINUOUS
10
0.0816266
20
0.811181
11
0.0793539
21
0.822156
0
LINE
8
BLACK
6
CONTINUOUS
10
0.0793539
20
0.822156
11
0.0756128
21
0.832721
0
LINE
8
BLACK
6
CONTINUOUS
10
0.0756128
20
0.832721
11
0.0704725
21
0.84268
0
LINE
8
BLACK
6
CONTINUOUS
10
0.0704725
20
0.84268
11
0.0640282
21
0.851849
0
LINE
8
BLACK
6
CONTINUOUS
10
0.0640282
20
0.851849
11
0.0563991
21
0.860059
0
LINE
8
BLACK
6
CONTINUOUS
10
0.0563991
20
0.860059
11
0.0477263
21
0.867157
0
LINE
8
BLACK
6
CONTINUOUS
10
0.0477263
20
0.867157
11
0.0381704
21
0.873013
0
LINE
8
BLACK
6
CONTINUOUS
10
0.0381704
20
0.873013
11
0.0279082
21
0.877518
0
LINE
8
BLACK
6
CONTINUOUS
10
0.0279082
20
0.877518
11
0.0171296
21
0.880589
0
LINE
8
BLACK
6
CONTINUOUS
10
0.0171296
20
0.880589
11
0.00603402
21
0.882168
0
LINE
8
BLACK
6
CONTINUOUS
10
0.00603402
20
0.882168
11
-0.00517323
21
0.882226
0
LINE
8
BLACK
6
CONTINUOUS
10
-0.00517323
20
0.882226
11
-0.0162848
21
0.880763
0
LINE
8
BLACK
6
CONTINUOUS
10
-0.0162848
20
0.880763
11
-0.027095
21
0.877806
0
LINE
8
BLACK
6
CONTINUOUS
10
-0.027095
20
0.877806
11
-0.0374038
21
0.873409
0
LINE
8
BLACK
6
CONTINUOUS
10
-0.0374038
20
0.873409
11
-0.0470205
21
0.867654
0
LINE
8
BLACK
6
CONTINUOUS
10
-0.0470205
20
0.867654
11
-0.055767
21
0.860646
0
LINE
8
BLACK
6
CONTINUOUS
10
-0.055767
20
0.860646
11
-0.0634817
21
0.852517
0
LINE
8
BLACK
6
CONTINUOUS
10
-0.0634817
20
0.852517
11
-0.0700217
21
0.843415
0
LINE
8
BLACK
6
CONTINUOUS
10
-0.0700217
20
0.843415
11
-0.075266
21
0.833511
0
LINE
8
BLACK
6
CONTINUOUS
10
-0.075266
20
0.833511
11
-0.0791175
21
0.822986
0
LINE
8
BLACK
6
CONTINUOUS
10
-0.0791175
20
0.822986
11
-0.081505
21
0.812036
0
LINE
8
BLACK
6
CONTINUOUS
10
-0.081505
20
0.812036
11
-0.0823844
21
0.800863
0
LINE
8
BLACK
6
CONTINUOUS
10
-0.0823844
20
0.800863
11
-0.0817393
21
0.789674
0
LINE
8
BLACK
6
CONTINUOUS
10
-0.0817393
20
0.789674
11
-0.0795816
21
0.778676
0
LINE
8
BLACK
6
CONTINUOUS
10
-0.0144048
20
0.829279
11
-0.0137139
21
0.827381
0
LINE
8
BLACK
6
CONTINUOUS
10
-0.0137139
20
0.827381
11
-0.0137139
21
0.791667
0
LINE
8
BLACK
6
CONTINUOUS
10
-0.0137139
20
0.791667
11
-0.0138672
21
0.790797
0
LINE
8
BLACK
6
CONTINUOUS
10
-0.0138672
20
0.790797
11
-0.0138655
21
0.790733
0
LINE
8
BLACK
6
CONTINUOUS
10
-0.0138655
20
0.790733
11
-0.0162464
21
0.78359
0
LINE
8
BLACK
6
CONTINUOUS
10
-0.0162464
20
0.78359
11
-0.0167347
21
0.782688
0
LINE
8
BLACK
6
CONTINUOUS
10
-0.0167347
20
0.782688
11
-0.0168851
21
0.782596
0
LINE
8
BLACK
6
CONTINUOUS
10
-0.0168851
20
0.782596
11
-0.0169597
21
0.782436
0
LINE
8
BLACK
6
CONTINUOUS
10
-0.0169597
20
0.782436
11
-0.0217216
21
0.777674
0
LINE
8
BLACK
6
CONTINUOUS
10
-0.0217216
20
0.777674
11
-0.0225617
21
0.777086
0
LINE
8
BLACK
6
CONTINUOUS
10
-0.0225617
20
0.777086
11
-0.0227375
21
0.77707
0
LINE
8
BLACK
6
CONTINUOUS
10
-0.0227375
20
0.77707
11
-0.0228758
21
0.776961
0
LINE
8
BLACK
6
CONTINUOUS
10
-0.0228758
20
0.776961
11
-0.0300187
21
0.77458
0
LINE
8
BLACK
6
CONTINUOUS
10
-0.0300187
20
0.77458
11
-0.0308918
21
0.77445
0
LINE
8
BLACK
6
CONTINUOUS
10
-0.0308918
20
0.77445
11
-0.0309524
21
0.774428
0
LINE
8
BLACK
6
CONTINUOUS
10
-0.0309524
20
0.774428
11
-0.0357143
21
0.774428
0
LINE
8
BLACK
6
CONTINUOUS
10
-0.0357143
20
0.774428
11
-0.0367242
21
0.774606
0
LINE
8
BLACK
6
CONTINUOUS
10
-0.0367242
20
0.774606
11
-0.0382715
21
0.775905
0
LINE
8
BLACK
6
CONTINUOUS
10
-0.0382715
20
0.775905
11
-0.0386222
21
0.777894
0
LINE
8
BLACK
6
CONTINUOUS
10
-0.0386222
20
0.777894
11
-0.0376123
21
0.779643
0
LINE
8
BLACK
6
CONTINUOUS
10
-0.0376123
20
0.779643
11
-0.0357143
21
0.780334
0
LINE
8
BLACK
6
CONTINUOUS
10
-0.0357143
20
0.780334
11
-0.0314315
21
0.780334
0
LINE
8
BLACK
6
CONTINUOUS
10
-0.0314315
20
0.780334
11
-0.0254046
21
0.782343
0
LINE
8
BLACK
6
CONTINUOUS
10
-0.0254046
20
0.782343
11
-0.0216284
21
0.786119
0
LINE
8
BLACK
6
CONTINUOUS
10
-0.0216284
20
0.786119
11
-0.0196194
21
0.792146
0
LINE
8
BLACK
6
CONTINUOUS
10
-0.0196194
20
0.792146
11
-0.0196194
21
0.827381
0
LINE
8
BLACK
6
CONTINUOUS
10
-0.0196194
20
0.827381
11
-0.0194414
21
0.828391
0
LINE
8
BLACK
6
CONTINUOUS
10
-0.0194414
20
0.828391
11
-0.0181431
21
0.829938
0
LINE
8
BLACK
6
CONTINUOUS
10
-0.0181431
20
0.829938
11
-0.0161539
21
0.830289
0
LINE
8
BLACK
6
CONTINUOUS
10
-0.0161539
20
0.830289
11
-0.0144048
21
0.829279
0
LINE
8
BLACK
6
CONTINUOUS
10
0.0180727
20
0.832358
11
0.0194127
21
0.830847
0
LINE
8
BLACK
6
CONTINUOUS
10
0.0194127
20
0.830847
11
0.0194679
21
0.828828
0
LINE
8
BLACK
6
CONTINUOUS
10
0.0194679
20
0.828828
11
0.00885862
21
0.797
0
LINE
8
BLACK
6
CONTINUOUS
10
0.00885862
20
0.797
11
0.0256187
21
0.797
0
LINE
8
BLACK
6
CONTINUOUS
10
0.0256187
20
0.797
11
0.0256187
21
0.810714
0
LINE
8
BLACK
6
CONTINUOUS
10
0.0256187
20
0.810714
11
0.0257967
21
0.811724
0
LINE
8
BLACK
6
CONTINUOUS
10
0.0257967
20
0.811724
11
0.027095
21
0.813271
0
LINE
8
BLACK
6
CONTINUOUS
10
0.027095
20
0.813271
11
0.0290842
21
0.813622
0
LINE
8
BLACK
6
CONTINUOUS
10
0.0290842
20
0.813622
11
0.0308333
21
0.812612
0
LINE
8
BLACK
6
CONTINUOUS
10
0.0308333
20
0.812612
11
0.0315242
21
0.810714
0
LINE
8
BLACK
6
CONTINUOUS
10
0.0315242
20
0.810714
11
0.0315242
21
0.797
0
LINE
8
BLACK
6
CONTINUOUS
10
0.0315242
20
0.797
11
0.0357143
21
0.797
0
LINE
8
BLACK
6
CONTINUOUS
10
0.0357143
20
0.797
11
0.0367242
21
0.796822
0
LINE
8
BLACK
6
CONTINUOUS
10
0.0367242
20
0.796822
11
0.0382714
21
0.795524
0
LINE
8
BLACK
6
CONTINUOUS
10
0.0382714
20
0.795524
11
0.0386222
21
0.793535
0
LINE
8
BLACK
6
CONTINUOUS
10
0.0386222
20
0.793535
11
0.0376122
21
0.791786
0
LINE
8
BLACK
6
CONTINUOUS
10
0.0376122
20
0.791786
11
0.0357143
21
0.791095
0
LINE
8
BLACK
6
CONTINUOUS
10
0.0357143
20
0.791095
11
0.0315242
21
0.791095
0
LINE
8
BLACK
6
CONTINUOUS
10
0.0315242
20
0.791095
11
0.0315242
21
0.777381
0
LINE
8
BLACK
6
CONTINUOUS
10
0.0315242
20
0.777381
11
0.0313461
21
0.776371
0
LINE
8
BLACK
6
CONTINUOUS
10
0.0313461
20
0.776371
11
0.0300478
21
0.774824
0
LINE
8
BLACK
6
CONTINUOUS
10
0.0300478
20
0.774824
11
0.0280587
21
0.774473
0
LINE
8
BLACK
6
CONTINUOUS
10
0.0280587
20
0.774473
11
0.0263095
21
0.775483
0
LINE
8
BLACK
6
CONTINUOUS
10
0.0263095
20
0.775483
11
0.0256187
21
0.777381
0
LINE
8
BLACK
6
CONTINUOUS
10
0.0256187
20
0.777381
11
0.0256187
21
0.791095
0
LINE
8
BLACK
6
CONTINUOUS
10
0.0256187
20
0.791095
11
0.00476189
21
0.791095
0
LINE
8
BLACK
6
CONTINUOUS
10
0.00476189
20
0.791095
11
0.00375197
21
0.791273
0
LINE
8
BLACK
6
CONTINUOUS
10
0.00375197
20
0.791273
11
0.00357909
21
0.791418
0
LINE
8
BLACK
6
CONTINUOUS
10
0.00357909
20
0.791418
11
0.00335587
21
0.791451
0
LINE
8
BLACK
6
CONTINUOUS
10
0.00335587
20
0.791451
11
0.00282154
21
0.792054
0
LINE
8
BLACK
6
CONTINUOUS
10
0.00282154
20
0.792054
11
0.00220472
21
0.792571
0
LINE
8
BLACK
6
CONTINUOUS
10
0.00220472
20
0.792571
11
0.00216555
21
0.792794
0
LINE
8
BLACK
6
CONTINUOUS
10
0.00216555
20
0.792794
11
0.00201583
21
0.792962
0
LINE
8
BLACK
6
CONTINUOUS
10
0.00201583
20
0.792962
11
0.00199382
21
0.793767
0
LINE
8
BLACK
6
CONTINUOUS
10
0.00199382
20
0.793767
11
0.00185398
21
0.79456
0
LINE
8
BLACK
6
CONTINUOUS
10
0.00185398
20
0.79456
11
0.00196681
21
0.794756
0
LINE
8
BLACK
6
CONTINUOUS
10
0.00196681
20
0.794756
11
0.00196067
21
0.794981
0
LINE
8
BLACK
6
CONTINUOUS
10
0.00196067
20
0.794981
11
0.0138654
21
0.830696
0
LINE
8
BLACK
6
CONTINUOUS
10
0.0138654
20
0.830696
11
0.0143537
21
0.831597
0
LINE
8
BLACK
6
CONTINUOUS
10
0.0143537
20
0.831597
11
0.0160747
21
0.832655
0
LINE
8
BLACK
6
CONTINUOUS
10
0.0160747
20
0.832655
11
0.0180727
21
0.832358
0
LINE
8
BLACK
6
CONTINUOUS
10
0.538179
20
1.34068
11
0.538308
21
1.3407
0
LINE
8
BLACK
6
CONTINUOUS
10
0.538308
20
1.3407
11
0.538422
21
1.34064
0
LINE
8
BLACK
6
CONTINUOUS
10
0.538422
20
1.34064
11
0.538805
21
1.34057
0
LINE
8
BLACK
6
CONTINUOUS
10
0.538805
20
1.34057
11
0.539393
21
1.34008
0
LINE
8
BLACK
6
CONTINUOUS
10
0.539393
20
1.34008
11
0.540057
21
1.33969
0
LINE
8
BLACK
6
CONTINUOUS
10
0.540057
20
1.33969
11
0.540148
21
1.33944
0
LINE
8
BLACK
6
CONTINUOUS
10
0.540148
20
1.33944
11
0.540352
21
1.33927
0
LINE
8
BLACK
6
CONTINUOUS
10
0.540352
20
1.33927
11
0.540486
21
1.33852
0
LINE
8
BLACK
6
CONTINUOUS
10
0.540486
20
1.33852
11
0.540748
21
1.3378
0
LINE
8
BLACK
6
CONTINUOUS
10
0.540748
20
1.3378
11
0.540748
21
1.0622
0
LINE
8
BLACK
6
CONTINUOUS
10
0.540748
20
1.0622
11
0.54068
21
1.06182
0
LINE
8
BLACK
6
CONTINUOUS
10
0.54068
20
1.06182
11
0.540703
21
1.06169
0
LINE
8
BLACK
6
CONTINUOUS
10
0.540703
20
1.06169
11
0.540638
21
1.06158
0
LINE
8
BLACK
6
CONTINUOUS
10
0.540638
20
1.06158
11
0.54057
21
1.06119
0
LINE
8
BLACK
6
CONTINUOUS
10
0.54057
20
1.06119
11
0.540077
21
1.06061
0
LINE
8
BLACK
6
CONTINUOUS
10
0.540077
20
1.06061
11
0.539693
21
1.05994
0
LINE
8
BLACK
6
CONTINUOUS
10
0.539693
20
1.05994
11
0.539443
21
1.05985
0
LINE
8
BLACK
6
CONTINUOUS
10
0.539443
20
1.05985
11
0.539272
21
1.05965
0
LINE
8
BLACK
6
CONTINUOUS
10
0.539272
20
1.05965
11
0.538516
21
1.05951
0
LINE
8
BLACK
6
CONTINUOUS
10
0.538516
20
1.05951
11
0.537795
21
1.05925
0
LINE
8
BLACK
6
CONTINUOUS
10
0.537795
20
1.05925
11
0.262205
21
1.05925
0
LINE
8
BLACK
6
CONTINUOUS
10
0.262205
20
1.05925
11
0.261821
21
1.05932
0
LINE
8
BLACK
6
CONTINUOUS
10
0.261821
20
1.05932
11
0.261692
21
1.0593
0
LINE
8
BLACK
6
CONTINUOUS
10
0.261692
20
1.0593
11
0.261578
21
1.05936
0
LINE
8
BLACK
6
CONTINUOUS
10
0.261578
20
1.05936
11
0.261195
21
1.05943
0
LINE
8
BLACK
6
CONTINUOUS
10
0.261195
20
1.05943
11
0.260607
21
1.05992
0
LINE
8
BLACK
6
CONTINUOUS
10
0.260607
20
1.05992
11
0.259943
21
1.06031
0
LINE
8
BLACK
6
CONTINUOUS
10
0.259943
20
1.06031
11
0.259852
21
1.06056
0
LINE
8
BLACK
6
CONTINUOUS
10
0.259852
20
1.06056
11
0.259648
21
1.06073
0
LINE
8
BLACK
6
CONTINUOUS
10
0.259648
20
1.06073
11
0.259514
21
1.06148
0
LINE
8
BLACK
6
CONTINUOUS
10
0.259514
20
1.06148
11
0.259252
21
1.0622
0
LINE
8
BLACK
6
CONTINUOUS
10
0.259252
20
1.0622
11
0.259252
21
1.3378
0
LINE
8
BLACK
6
CONTINUOUS
10
0.259252
20
1.3378
11
0.25932
21
1.33818
0
LINE
8
BLACK
6
CONTINUOUS
10
0.25932
20
1.33818
11
0.259297
21
1.33831
0
LINE
8
BLACK
6
CONTINUOUS
10
0.259297
20
1.33831
11
0.259362
21
1.33842
0
LINE
8
BLACK
6
CONTINUOUS
10
0.259362
20
1.33842
11
0.25943
21
1.33881
0
LINE
8
BLACK
6
CONTINUOUS
10
0.25943
20
1.33881
11
0.259923
21
1.33939
0
LINE
8
BLACK
6
CONTINUOUS
10
0.259923
20
1.33939
11
0.260307
21
1.34006
0
LINE
8
BLACK
6
CONTINUOUS
10
0.260307
20
1.34006
11
0.260557
21
1.34015
0
LINE
8
BLACK
6
CONTINUOUS
10
0.260557
20
1.34015
11
0.260728
21
1.34035
0
LINE
8
BLACK
6
CONTINUOUS
10
0.260728
20
1.34035
11
0.261484
21
1.34049
0
LINE
8
BLACK
6
CONTINUOUS
10
0.261484
20
1.34049
11
0.262205
21
1.34075
0
LINE
8
BLACK
6
CONTINUOUS
10
0.262205
20
1.34075
11
0.537795
21
1.34075
0
LINE
8
BLACK
6
CONTINUOUS
10
0.537795
20
1.34075
11
0.538179
21
1.34068
0
LINE
8
BLACK
6
CONTINUOUS
10
0.265157
20
1.11713
11
0.265157
21
1.06516
0
LINE
8
BLACK
6
CONTINUOUS
10
0.265157
20
1.06516
11
0.317126
21
1.06516
0
LINE
8
BLACK
6
CONTINUOUS
10
0.317126
20
1.06516
11
0.317126
21
1.07697
0
LINE
8
BLACK
6
CONTINUOUS
10
0.317126
20
1.07697
11
0.279921
21
1.07697
0
LINE
8
BLACK
6
CONTINUOUS
10
0.279921
20
1.07697
11
0.279538
21
1.07704
0
LINE
8
BLACK
6
CONTINUOUS
10
0.279538
20
1.07704
11
0.279409
21
1.07701
0
LINE
8
BLACK
6
CONTINUOUS
10
0.279409
20
1.07701
11
0.279295
21
1.07708
0
LINE
8
BLACK
6
CONTINUOUS
10
0.279295
20
1.07708
11
0.278911
21
1.07715
0
LINE
8
BLACK
6
CONTINUOUS
10
0.278911
20
1.07715
11
0.278324
21
1.07764
0
LINE
8
BLACK
6
CONTINUOUS
10
0.278324
20
1.07764
11
0.277659
21
1.07802
0
LINE
8
BLACK
6
CONTINUOUS
10
0.277659
20
1.07802
11
0.277568
21
1.07827
0
LINE
8
BLACK
6
CONTINUOUS
10
0.277568
20
1.07827
11
0.277364
21
1.07844
0
LINE
8
BLACK
6
CONTINUOUS
10
0.277364
20
1.07844
11
0.277231
21
1.0792
0
LINE
8
BLACK
6
CONTINUOUS
10
0.277231
20
1.0792
11
0.276969
21
1.07992
0
LINE
8
BLACK
6
CONTINUOUS
10
0.276969
20
1.07992
11
0.276969
21
1.11713
0
LINE
8
BLACK
6
CONTINUOUS
10
0.276969
20
1.11713
11
0.265157
21
1.11713
0
LINE
8
BLACK
6
CONTINUOUS
10
0.323031
20
1.33484
11
0.323031
21
1.27992
0
LINE
8
BLACK
6
CONTINUOUS
10
0.323031
20
1.27992
11
0.322964
21
1.27954
0
LINE
8
BLACK
6
CONTINUOUS
10
0.322964
20
1.27954
11
0.322987
21
1.27941
0
LINE
8
BLACK
6
CONTINUOUS
10
0.322987
20
1.27941
11
0.322921
21
1.27929
0
LINE
8
BLACK
6
CONTINUOUS
10
0.322921
20
1.27929
11
0.322853
21
1.27891
0
LINE
8
BLACK
6
CONTINUOUS
10
0.322853
20
1.27891
11
0.32236
21
1.27832
0
LINE
8
BLACK
6
CONTINUOUS
10
0.32236
20
1.27832
11
0.321977
21
1.27766
0
LINE
8
BLACK
6
CONTINUOUS
10
0.321977
20
1.27766
11
0.321726
21
1.27757
0
LINE
8
BLACK
6
CONTINUOUS
10
0.321726
20
1.27757
11
0.321555
21
1.27736
0
LINE
8
BLACK
6
CONTINUOUS
10
0.321555
20
1.27736
11
0.3208
21
1.27723
0
LINE
8
BLACK
6
CONTINUOUS
10
0.3208
20
1.27723
11
0.320079
21
1.27697
0
LINE
8
BLACK
6
CONTINUOUS
10
0.320079
20
1.27697
11
0.265157
21
1.27697
0
LINE
8
BLACK
6
CONTINUOUS
10
0.265157
20
1.27697
11
0.265157
21
1.12303
0
LINE
8
BLACK
6
CONTINUOUS
10
0.265157
20
1.12303
11
0.320079
21
1.12303
0
LINE
8
BLACK
6
CONTINUOUS
10
0.320079
20
1.12303
11
0.320462
21
1.12296
0
LINE
8
BLACK
6
CONTINUOUS
10
0.320462
20
1.12296
11
0.320591
21
1.12299
0
LINE
8
BLACK
6
CONTINUOUS
10
0.320591
20
1.12299
11
0.320705
21
1.12292
0
LINE
8
BLACK
6
CONTINUOUS
10
0.320705
20
1.12292
11
0.321089
21
1.12285
0
LINE
8
BLACK
6
CONTINUOUS
10
0.321089
20
1.12285
11
0.321676
21
1.12236
0
LINE
8
BLACK
6
CONTINUOUS
10
0.321676
20
1.12236
11
0.322341
21
1.12198
0
LINE
8
BLACK
6
CONTINUOUS
10
0.322341
20
1.12198
11
0.322432
21
1.12173
0
LINE
8
BLACK
6
CONTINUOUS
10
0.322432
20
1.12173
11
0.322636
21
1.12156
0
LINE
8
BLACK
6
CONTINUOUS
10
0.322636
20
1.12156
11
0.322769
21
1.1208
0
LINE
8
BLACK
6
CONTINUOUS
10
0.322769
20
1.1208
11
0.323031
21
1.12008
0
LINE
8
BLACK
6
CONTINUOUS
10
0.323031
20
1.12008
11
0.323031
21
1.06516
0
LINE
8
BLACK
6
CONTINUOUS
10
0.323031
20
1.06516
11
0.476969
21
1.06516
0
LINE
8
BLACK
6
CONTINUOUS
10
0.476969
20
1.06516
11
0.476969
21
1.12008
0
LINE
8
BLACK
6
CONTINUOUS
10
0.476969
20
1.12008
11
0.477036
21
1.12046
0
LINE
8
BLACK
6
CONTINUOUS
10
0.477036
20
1.12046
11
0.477013
21
1.12059
0
LINE
8
BLACK
6
CONTINUOUS
10
0.477013
20
1.12059
11
0.477079
21
1.12071
0
LINE
8
BLACK
6
CONTINUOUS
10
0.477079
20
1.12071
11
0.477147
21
1.12109
0
LINE
8
BLACK
6
CONTINUOUS
10
0.477147
20
1.12109
11
0.47764
21
1.12168
0
LINE
8
BLACK
6
CONTINUOUS
10
0.47764
20
1.12168
11
0.478023
21
1.12234
0
LINE
8
BLACK
6
CONTINUOUS
10
0.478023
20
1.12234
11
0.478274
21
1.12243
0
LINE
8
BLACK
6
CONTINUOUS
10
0.478274
20
1.12243
11
0.478445
21
1.12264
0
LINE
8
BLACK
6
CONTINUOUS
10
0.478445
20
1.12264
11
0.4792
21
1.12277
0
LINE
8
BLACK
6
CONTINUOUS
10
0.4792
20
1.12277
11
0.479921
21
1.12303
0
LINE
8
BLACK
6
CONTINUOUS
10
0.479921
20
1.12303
11
0.534843
21
1.12303
0
LINE
8
BLACK
6
CONTINUOUS
10
0.534843
20
1.12303
11
0.534843
21
1.27697
0
LINE
8
BLACK
6
CONTINUOUS
10
0.534843
20
1.27697
11
0.479921
21
1.27697
0
LINE
8
BLACK
6
CONTINUOUS
10
0.479921
20
1.27697
11
0.479538
21
1.27704
0
LINE
8
BLACK
6
CONTINUOUS
10
0.479538
20
1.27704
11
0.479409
21
1.27701
0
LINE
8
BLACK
6
CONTINUOUS
10
0.479409
20
1.27701
11
0.479295
21
1.27708
0
LINE
8
BLACK
6
CONTINUOUS
10
0.479295
20
1.27708
11
0.478911
21
1.27715
0
LINE
8
BLACK
6
CONTINUOUS
10
0.478911
20
1.27715
11
0.478324
21
1.27764
0
LINE
8
BLACK
6
CONTINUOUS
10
0.478324
20
1.27764
11
0.477659
21
1.27802
0
LINE
8
BLACK
6
CONTINUOUS
10
0.477659
20
1.27802
11
0.477568
21
1.27827
0
LINE
8
BLACK
6
CONTINUOUS
10
0.477568
20
1.27827
11
0.477364
21
1.27844
0
LINE
8
BLACK
6
CONTINUOUS
10
0.477364
20
1.27844
11
0.477231
21
1.2792
0
LINE
8
BLACK
6
CONTINUOUS
10
0.477231
20
1.2792
11
0.476969
21
1.27992
0
LINE
8
BLACK
6
CONTINUOUS
10
0.476969
20
1.27992
11
0.476969
21
1.33484
0
LINE
8
BLACK
6
CONTINUOUS
10
0.476969
20
1.33484
11
0.323031
21
1.33484
0
LINE
8
BLACK
6
CONTINUOUS
10
0.523031
20
1.11713
11
0.523031
21
1.07992
0
LINE
8
BLACK
6
CONTINUOUS
10
0.523031
20
1.07992
11
0.522964
21
1.07954
0
LINE
8
BLACK
6
CONTINUOUS
10
0.522964
20
1.07954
11
0.522987
21
1.07941
0
LINE
8
BLACK
6
CONTINUOUS
10
0.522987
20
1.07941
11
0.522921
21
1.07929
0
LINE
8
BLACK
6
CONTINUOUS
10
0.522921
20
1.07929
11
0.522853
21
1.07891
0
LINE
8
BLACK
6
CONTINUOUS
10
0.522853
20
1.07891
11
0.52236
21
1.07832
0
LINE
8
BLACK
6
CONTINUOUS
10
0.52236
20
1.07832
11
0.521977
21
1.07766
0
LINE
8
BLACK
6
CONTINUOUS
10
0.521977
20
1.07766
11
0.521726
21
1.07757
0
LINE
8
BLACK
6
CONTINUOUS
10
0.521726
20
1.07757
11
0.521555
21
1.07736
0
LINE
8
BLACK
6
CONTINUOUS
10
0.521555
20
1.07736
11
0.5208
21
1.07723
0
LINE
8
BLACK
6
CONTINUOUS
10
0.5208
20
1.07723
11
0.520079
21
1.07697
0
LINE
8
BLACK
6
CONTINUOUS
10
0.520079
20
1.07697
11
0.482874
21
1.07697
0
LINE
8
BLACK
6
CONTINUOUS
10
0.482874
20
1.07697
11
0.482874
21
1.06516
0
LINE
8
BLACK
6
CONTINUOUS
10
0.482874
20
1.06516
11
0.534843
21
1.06516
0
LINE
8
BLACK
6
CONTINUOUS
10
0.534843
20
1.06516
11
0.534843
21
1.11713
0
LINE
8
BLACK
6
CONTINUOUS
10
0.534843
20
1.11713
11
0.523031
21
1.11713
0
LINE
8
BLACK
6
CONTINUOUS
10
0.482874
20
1.11713
11
0.482874
21
1.08287
0
LINE
8
BLACK
6
CONTINUOUS
10
0.482874
20
1.08287
11
0.517126
21
1.08287
0
LINE
8
BLACK
6
CONTINUOUS
10
0.517126
20
1.08287
11
0.517126
21
1.11713
0
LINE
8
BLACK
6
CONTINUOUS
10
0.517126
20
1.11713
11
0.482874
21
1.11713
0
LINE
8
BLACK
6
CONTINUOUS
10
0.282874
20
1.11713
11
0.282874
21
1.08287
0
LINE
8
BLACK
6
CONTINUOUS
10
0.282874
20
1.08287
11
0.317126
21
1.08287
0
LINE
8
BLACK
6
CONTINUOUS
10
0.317126
20
1.08287
11
0.317126
21
1.11713
0
LINE
8
BLACK
6
CONTINUOUS
10
0.317126
20
1.11713
11
0.282874
21
1.11713
0
LINE
8
BLACK
6
CONTINUOUS
10
0.482874
20
1.31713
11
0.482874
21
1.28287
0
LINE
8
BLACK
6
CONTINUOUS
10
0.482874
20
1.28287
11
0.517126
21
1.28287
0
LINE
8
BLACK
6
CONTINUOUS
10
0.517126
20
1.28287
11
0.517126
21
1.31713
0
LINE
8
BLACK
6
CONTINUOUS
10
0.517126
20
1.31713
11
0.482874
21
1.31713
0
LINE
8
BLACK
6
CONTINUOUS
10
0.482874
20
1.33484
11
0.482874
21
1.32303
0
LINE
8
BLACK
6
CONTINUOUS
10
0.482874
20
1.32303
11
0.520079
21
1.32303
0
LINE
8
BLACK
6
CONTINUOUS
10
0.520079
20
1.32303
11
0.520462
21
1.32296
0
LINE
8
BLACK
6
CONTINUOUS
10
0.520462
20
1.32296
11
0.520591
21
1.32299
0
LINE
8
BLACK
6
CONTINUOUS
10
0.520591
20
1.32299
11
0.520705
21
1.32292
0
LINE
8
BLACK
6
CONTINUOUS
10
0.520705
20
1.32292
11
0.521089
21
1.32285
0
LINE
8
BLACK
6
CONTINUOUS
10
0.521089
20
1.32285
11
0.521676
21
1.32236
0
LINE
8
BLACK
6
CONTINUOUS
10
0.521676
20
1.32236
11
0.522341
21
1.32198
0
LINE
8
BLACK
6
CONTINUOUS
10
0.522341
20
1.32198
11
0.522432
21
1.32173
0
LINE
8
BLACK
6
CONTINUOUS
10
0.522432
20
1.32173
11
0.522636
21
1.32156
0
LINE
8
BLACK
6
CONTINUOUS
10
0.522636
20
1.32156
11
0.522769
21
1.3208
0
LINE
8
BLACK
6
CONTINUOUS
10
0.522769
20
1.3208
11
0.523031
21
1.32008
0
LINE
8
BLACK
6
CONTINUOUS
10
0.523031
20
1.32008
11
0.523031
21
1.28287
0
LINE
8
BLACK
6
CONTINUOUS
10
0.523031
20
1.28287
11
0.534843
21
1.28287
0
LINE
8
BLACK
6
CONTINUOUS
10
0.534843
20
1.28287
11
0.534843
21
1.33484
0
LINE
8
BLACK
6
CONTINUOUS
10
0.534843
20
1.33484
11
0.482874
21
1.33484
0
LINE
8
BLACK
6
CONTINUOUS
10
0.265157
20
1.33484
11
0.265157
21
1.28287
0
LINE
8
BLACK
6
CONTINUOUS
10
0.265157
20
1.28287
11
0.276969
21
1.28287
0
LINE
8
BLACK
6
CONTINUOUS
10
0.276969
20
1.28287
11
0.276969
21
1.32008
0
LINE
8
BLACK
6
CONTINUOUS
10
0.276969
20
1.32008
11
0.277036
21
1.32046
0
LINE
8
BLACK
6
CONTINUOUS
10
0.277036
20
1.32046
11
0.277013
21
1.32059
0
LINE
8
BLACK
6
CONTINUOUS
10
0.277013
20
1.32059
11
0.277079
21
1.32071
0
LINE
8
BLACK
6
CONTINUOUS
10
0.277079
20
1.32071
11
0.277147
21
1.32109
0
LINE
8
BLACK
6
CONTINUOUS
10
0.277147
20
1.32109
11
0.27764
21
1.32168
0
LINE
8
BLACK
6
CONTINUOUS
10
0.27764
20
1.32168
11
0.278023
21
1.32234
0
LINE
8
BLACK
6
CONTINUOUS
10
0.278023
20
1.32234
11
0.278274
21
1.32243
0
LINE
8
BLACK
6
CONTINUOUS
10
0.278274
20
1.32243
11
0.278445
21
1.32264
0
LINE
8
BLACK
6
CONTINUOUS
10
0.278445
20
1.32264
11
0.2792
21
1.32277
0
LINE
8
BLACK
6
CONTINUOUS
10
0.2792
20
1.32277
11
0.279921
21
1.32303
0
LINE
8
BLACK
6
CONTINUOUS
10
0.279921
20
1.32303
11
0.317126
21
1.32303
0
LINE
8
BLACK
6
CONTINUOUS
10
0.317126
20
1.32303
11
0.317126
21
1.33484
0
LINE
8
BLACK
6
CONTINUOUS
10
0.317126
20
1.33484
11
0.265157
21
1.33484
0
LINE
8
BLACK
6
CONTINUOUS
10
0.282874
20
1.31713
11
0.282874
21
1.28287
0
LINE
8
BLACK
6
CONTINUOUS
10
0.282874
20
1.28287
11
0.317126
21
1.28287
0
LINE
8
BLACK
6
CONTINUOUS
10
0.317126
20
1.28287
11
0.317126
21
1.31713
0
LINE
8
BLACK
6
CONTINUOUS
10
0.317126
20
1.31713
11
0.282874
21
1.31713
0
LINE
8
BLACK
6
CONTINUOUS
10
0.3149
20
1.2228
11
0.318604
21
1.23372
0
LINE
8
BLACK
6
CONTINUOUS
10
0.318604
20
1.23372
11
0.323701
21
1.24405
0
LINE
8
BLACK
6
CONTINUOUS
10
0.323701
20
1.24405
11
0.330104
21
1.25363
0
LINE
8
BLACK
6
CONTINUOUS
10
0.330104
20
1.25363
11
0.337702
21
1.2623
0
LINE
8
BLACK
6
CONTINUOUS
10
0.337702
20
1.2623
11
0.346367
21
1.2699
0
LINE
8
BLACK
6
CONTINUOUS
10
0.346367
20
1.2699
11
0.355949
21
1.2763
0
LINE
8
BLACK
6
CONTINUOUS
10
0.355949
20
1.2763
11
0.366285
21
1.2814
0
LINE
8
BLACK
6
CONTINUOUS
10
0.366285
20
1.2814
11
0.377197
21
1.2851
0
LINE
8
BLACK
6
CONTINUOUS
10
0.377197
20
1.2851
11
0.3885
21
1.28735
0
LINE
8
BLACK
6
CONTINUOUS
10
0.3885
20
1.28735
11
0.4
21
1.2881
0
LINE
8
BLACK
6
CONTINUOUS
10
0.4
20
1.2881
11
0.4115
21
1.28735
0
LINE
8
BLACK
6
CONTINUOUS
10
0.4115
20
1.28735
11
0.422803
21
1.2851
0
LINE
8
BLACK
6
CONTINUOUS
10
0.422803
20
1.2851
11
0.433715
21
1.2814
0
LINE
8
BLACK
6
CONTINUOUS
10
0.433715
20
1.2814
11
0.444051
21
1.2763
0
LINE
8
BLACK
6
CONTINUOUS
10
0.444051
20
1.2763
11
0.453633
21
1.2699
0
LINE
8
BLACK
6
CONTINUOUS
10
0.453633
20
1.2699
11
0.462298
21
1.2623
0
LINE
8
BLACK
6
CONTINUOUS
10
0.462298
20
1.2623
11
0.469896
21
1.25363
0
LINE
8
BLACK
6
CONTINUOUS
10
0.469896
20
1.25363
11
0.476299
21
1.24405
0
LINE
8
BLACK
6
CONTINUOUS
10
0.476299
20
1.24405
11
0.481396
21
1.23372
0
LINE
8
BLACK
6
CONTINUOUS
10
0.481396
20
1.23372
11
0.4851
21
1.2228
0
LINE
8
BLACK
6
CONTINUOUS
10
0.4851
20
1.2228
11
0.487349
21
1.2115
0
LINE
8
BLACK
6
CONTINUOUS
10
0.487349
20
1.2115
11
0.488102
21
1.2
0
LINE
8
BLACK
6
CONTINUOUS
10
0.488102
20
1.2
11
0.487349
21
1.1885
0
LINE
8
BLACK
6
CONTINUOUS
10
0.487349
20
1.1885
11
0.4851
21
1.1772
0
LINE
8
BLACK
6
CONTINUOUS
10
0.4851
20
1.1772
11
0.481396
21
1.16628
0
LINE
8
BLACK
6
CONTINUOUS
10
0.481396
20
1.16628
11
0.476299
21
1.15595
0
LINE
8
BLACK
6
CONTINUOUS
10
0.476299
20
1.15595
11
0.469896
21
1.14637
0
LINE
8
BLACK
6
CONTINUOUS
10
0.469896
20
1.14637
11
0.462298
21
1.1377
0
LINE
8
BLACK
6
CONTINUOUS
10
0.462298
20
1.1377
11
0.453633
21
1.1301
0
LINE
8
BLACK
6
CONTINUOUS
10
0.453633
20
1.1301
11
0.444051
21
1.1237
0
LINE
8
BLACK
6
CONTINUOUS
10
0.444051
20
1.1237
11
0.433715
21
1.1186
0
LINE
8
BLACK
6
CONTINUOUS
10
0.433715
20
1.1186
11
0.422803
21
1.1149
0
LINE
8
BLACK
6
CONTINUOUS
10
0.422803
20
1.1149
11
0.4115
21
1.11265
0
LINE
8
BLACK
6
CONTINUOUS
10
0.4115
20
1.11265
11
0.4
21
1.1119
0
LINE
8
BLACK
6
CONTINUOUS
10
0.4
20
1.1119
11
0.3885
21
1.11265
0
LINE
8
BLACK
6
CONTINUOUS
10
0.3885
20
1.11265
11
0.377197
21
1.1149
0
LINE
8
BLACK
6
CONTINUOUS
10
0.377197
20
1.1149
11
0.366285
21
1.1186
0
LINE
8
BLACK
6
CONTINUOUS
10
0.366285
20
1.1186
11
0.355949
21
1.1237
0
LINE
8
BLACK
6
CONTINUOUS
10
0.355949
20
1.1237
11
0.346367
21
1.1301
0
LINE
8
BLACK
6
CONTINUOUS
10
0.346367
20
1.1301
11
0.337702
21
1.1377
0
LINE
8
BLACK
6
CONTINUOUS
10
0.337702
20
1.1377
11
0.330104
21
1.14637
0
LINE
8
BLACK
6
CONTINUOUS
10
0.330104
20
1.14637
11
0.323701
21
1.15595
0
LINE
8
BLACK
6
CONTINUOUS
10
0.323701
20
1.15595
11
0.318604
21
1.16628
0
LINE
8
BLACK
6
CONTINUOUS
10
0.318604
20
1.16628
11
0.3149
21
1.1772
0
LINE
8
BLACK
6
CONTINUOUS
10
0.3149
20
1.1772
11
0.312651
21
1.1885
0
LINE
8
BLACK
6
CONTINUOUS
10
0.312651
20
1.1885
11
0.311898
21
1.2
0
LINE
8
BLACK
6
CONTINUOUS
10
0.311898
20
1.2
11
0.311954
21
1.20086
0
LINE
8
BLACK
6
CONTINUOUS
10
0.311954
20
1.20086
11
0.312651
21
1.2115
0
LINE
8
BLACK
6
CONTINUOUS
10
0.312651
20
1.2115
11
0.3149
21
1.2228
0
LINE
8
BLACK
6
CONTINUOUS
10
0.320418
20
1.17868
11
0.324049
21
1.16807
0
LINE
8
BLACK
6
CONTINUOUS
10
0.324049
20
1.16807
11
0.329084
21
1.15806
0
LINE
8
BLACK
6
CONTINUOUS
10
0.329084
20
1.15806
11
0.335432
21
1.14882
0
LINE
8
BLACK
6
CONTINUOUS
10
0.335432
20
1.14882
11
0.342975
21
1.14053
0
LINE
8
BLACK
6
CONTINUOUS
10
0.342975
20
1.14053
11
0.351573
21
1.13335
0
LINE
8
BLACK
6
CONTINUOUS
10
0.351573
20
1.13335
11
0.361067
21
1.12739
0
LINE
8
BLACK
6
CONTINUOUS
10
0.361067
20
1.12739
11
0.371282
21
1.12278
0
LINE
8
BLACK
6
CONTINUOUS
10
0.371282
20
1.12278
11
0.382027
21
1.1196
0
LINE
8
BLACK
6
CONTINUOUS
10
0.382027
20
1.1196
11
0.393106
21
1.1179
0
LINE
8
BLACK
6
CONTINUOUS
10
0.393106
20
1.1179
11
0.404312
21
1.11772
0
LINE
8
BLACK
6
CONTINUOUS
10
0.404312
20
1.11772
11
0.415438
21
1.11907
0
LINE
8
BLACK
6
CONTINUOUS
10
0.415438
20
1.11907
11
0.426279
21
1.12191
0
LINE
8
BLACK
6
CONTINUOUS
10
0.426279
20
1.12191
11
0.436633
21
1.1262
0
LINE
8
BLACK
6
CONTINUOUS
10
0.436633
20
1.1262
11
0.446309
21
1.13186
0
LINE
8
BLACK
6
CONTINUOUS
10
0.446309
20
1.13186
11
0.455129
21
1.13877
0
LINE
8
BLACK
6
CONTINUOUS
10
0.455129
20
1.13877
11
0.462928
21
1.14682
0
LINE
8
BLACK
6
CONTINUOUS
10
0.462928
20
1.14682
11
0.469563
21
1.15585
0
LINE
8
BLACK
6
CONTINUOUS
10
0.469563
20
1.15585
11
0.474911
21
1.1657
0
LINE
8
BLACK
6
CONTINUOUS
10
0.474911
20
1.1657
11
0.478872
21
1.17619
0
LINE
8
BLACK
6
CONTINUOUS
10
0.478872
20
1.17619
11
0.481375
21
1.18711
0
LINE
8
BLACK
6
CONTINUOUS
10
0.481375
20
1.18711
11
0.482371
21
1.19827
0
LINE
8
BLACK
6
CONTINUOUS
10
0.482371
20
1.19827
11
0.482389
21
1.2
0
LINE
8
BLACK
6
CONTINUOUS
10
0.482389
20
1.2
11
0.481627
21
1.21118
0
LINE
8
BLACK
6
CONTINUOUS
10
0.481627
20
1.21118
11
0.479354
21
1.22216
0
LINE
8
BLACK
6
CONTINUOUS
10
0.479354
20
1.22216
11
0.475613
21
1.23272
0
LINE
8
BLACK
6
CONTINUOUS
10
0.475613
20
1.23272
11
0.470473
21
1.24268
0
LINE
8
BLACK
6
CONTINUOUS
10
0.470473
20
1.24268
11
0.464028
21
1.25185
0
LINE
8
BLACK
6
CONTINUOUS
10
0.464028
20
1.25185
11
0.456399
21
1.26006
0
LINE
8
BLACK
6
CONTINUOUS
10
0.456399
20
1.26006
11
0.447726
21
1.26716
0
LINE
8
BLACK
6
CONTINUOUS
10
0.447726
20
1.26716
11
0.43817
21
1.27301
0
LINE
8
BLACK
6
CONTINUOUS
10
0.43817
20
1.27301
11
0.427908
21
1.27752
0
LINE
8
BLACK
6
CONTINUOUS
10
0.427908
20
1.27752
11
0.41713
21
1.28059
0
LINE
8
BLACK
6
CONTINUOUS
10
0.41713
20
1.28059
11
0.406034
21
1.28217
0
LINE
8
BLACK
6
CONTINUOUS
10
0.406034
20
1.28217
11
0.394827
21
1.28223
0
LINE
8
BLACK
6
CONTINUOUS
10
0.394827
20
1.28223
11
0.383715
21
1.28076
0
LINE
8
BLACK
6
CONTINUOUS
10
0.383715
20
1.28076
11
0.372905
21
1.27781
0
LINE
8
BLACK
6
CONTINUOUS
10
0.372905
20
1.27781
11
0.362596
21
1.27341
0
LINE
8
BLACK
6
CONTINUOUS
10
0.362596
20
1.27341
11
0.35298
21
1.26765
0
LINE
8
BLACK
6
CONTINUOUS
10
0.35298
20
1.26765
11
0.344233
21
1.26065
0
LINE
8
BLACK
6
CONTINUOUS
10
0.344233
20
1.26065
11
0.336518
21
1.25252
0
LINE
8
BLACK
6
CONTINUOUS
10
0.336518
20
1.25252
11
0.329978
21
1.24342
0
LINE
8
BLACK
6
CONTINUOUS
10
0.329978
20
1.24342
11
0.324734
21
1.23351
0
LINE
8
BLACK
6
CONTINUOUS
10
0.324734
20
1.23351
11
0.320882
21
1.22299
0
LINE
8
BLACK
6
CONTINUOUS
10
0.320882
20
1.22299
11
0.318495
21
1.21204
0
LINE
8
BLACK
6
CONTINUOUS
10
0.318495
20
1.21204
11
0.317616
21
1.20086
0
LINE
8
BLACK
6
CONTINUOUS
10
0.317616
20
1.20086
11
0.318261
21
1.18967
0
LINE
8
BLACK
6
CONTINUOUS
10
0.318261
20
1.18967
11
0.320418
21
1.17868
0
LINE
8
BLACK
6
CONTINUOUS
10
0.431962
20
1.23016
11
0.43351
21
1.22886
0
LINE
8
BLACK
6
CONTINUOUS
10
0.43351
20
1.22886
11
0.43386
21
1.22687
0
LINE
8
BLACK
6
CONTINUOUS
10
0.43386
20
1.22687
11
0.43285
21
1.22512
0
LINE
8
BLACK
6
CONTINUOUS
10
0.43285
20
1.22512
11
0.430952
21
1.22443
0
LINE
8
BLACK
6
CONTINUOUS
10
0.430952
20
1.22443
11
0.409815
21
1.22443
0
LINE
8
BLACK
6
CONTINUOUS
10
0.409815
20
1.22443
11
0.408358
21
1.20986
0
LINE
8
BLACK
6
CONTINUOUS
10
0.408358
20
1.20986
11
0.410584
21
1.21097
0
LINE
8
BLACK
6
CONTINUOUS
10
0.410584
20
1.21097
11
0.411567
21
1.21127
0
LINE
8
BLACK
6
CONTINUOUS
10
0.411567
20
1.21127
11
0.411739
21
1.21123
0
LINE
8
BLACK
6
CONTINUOUS
10
0.411739
20
1.21123
11
0.411905
21
1.21129
0
LINE
8
BLACK
6
CONTINUOUS
10
0.411905
20
1.21129
11
0.423809
21
1.21129
0
LINE
8
BLACK
6
CONTINUOUS
10
0.423809
20
1.21129
11
0.424819
21
1.21111
0
LINE
8
BLACK
6
CONTINUOUS
10
0.424819
20
1.21111
11
0.424955
21
1.21099
0
LINE
8
BLACK
6
CONTINUOUS
10
0.424955
20
1.21099
11
0.42513
21
1.21097
0
LINE
8
BLACK
6
CONTINUOUS
10
0.42513
20
1.21097
11
0.429892
21
1.20859
0
LINE
8
BLACK
6
CONTINUOUS
10
0.429892
20
1.20859
11
0.430601
21
1.20807
0
LINE
8
BLACK
6
CONTINUOUS
10
0.430601
20
1.20807
11
0.430659
21
1.20804
0
LINE
8
BLACK
6
CONTINUOUS
10
0.430659
20
1.20804
11
0.43304
21
1.20566
0
LINE
8
BLACK
6
CONTINUOUS
10
0.43304
20
1.20566
11
0.433547
21
1.20494
0
LINE
8
BLACK
6
CONTINUOUS
10
0.433547
20
1.20494
11
0.433593
21
1.20489
0
LINE
8
BLACK
6
CONTINUOUS
10
0.433593
20
1.20489
11
0.435974
21
1.20013
0
LINE
8
BLACK
6
CONTINUOUS
10
0.435974
20
1.20013
11
0.436267
21
1.19915
0
LINE
8
BLACK
6
CONTINUOUS
10
0.436267
20
1.19915
11
0.436226
21
1.19898
0
LINE
8
BLACK
6
CONTINUOUS
10
0.436226
20
1.19898
11
0.436286
21
1.19881
0
LINE
8
BLACK
6
CONTINUOUS
10
0.436286
20
1.19881
11
0.436286
21
1.1869
0
LINE
8
BLACK
6
CONTINUOUS
10
0.436286
20
1.1869
11
0.436108
21
1.18589
0
LINE
8
BLACK
6
CONTINUOUS
10
0.436108
20
1.18589
11
0.435995
21
1.18576
0
LINE
8
BLACK
6
CONTINUOUS
10
0.435995
20
1.18576
11
0.435974
21
1.18558
0
LINE
8
BLACK
6
CONTINUOUS
10
0.435974
20
1.18558
11
0.433593
21
1.18082
0
LINE
8
BLACK
6
CONTINUOUS
10
0.433593
20
1.18082
11
0.433067
21
1.18011
0
LINE
8
BLACK
6
CONTINUOUS
10
0.433067
20
1.18011
11
0.43304
21
1.18005
0
LINE
8
BLACK
6
CONTINUOUS
10
0.43304
20
1.18005
11
0.430659
21
1.17767
0
LINE
8
BLACK
6
CONTINUOUS
10
0.430659
20
1.17767
11
0.429936
21
1.17717
0
LINE
8
BLACK
6
CONTINUOUS
10
0.429936
20
1.17717
11
0.429892
21
1.17712
0
LINE
8
BLACK
6
CONTINUOUS
10
0.429892
20
1.17712
11
0.42513
21
1.17474
0
LINE
8
BLACK
6
CONTINUOUS
10
0.42513
20
1.17474
11
0.424147
21
1.17445
0
LINE
8
BLACK
6
CONTINUOUS
10
0.424147
20
1.17445
11
0.423975
21
1.17449
0
LINE
8
BLACK
6
CONTINUOUS
10
0.423975
20
1.17449
11
0.423809
21
1.17443
0
LINE
8
BLACK
6
CONTINUOUS
10
0.423809
20
1.17443
11
0.411905
21
1.17443
0
LINE
8
BLACK
6
CONTINUOUS
10
0.411905
20
1.17443
11
0.410895
21
1.17461
0
LINE
8
BLACK
6
CONTINUOUS
10
0.410895
20
1.17461
11
0.41076
21
1.17472
0
LINE
8
BLACK
6
CONTINUOUS
10
0.41076
20
1.17472
11
0.410584
21
1.17474
0
LINE
8
BLACK
6
CONTINUOUS
10
0.410584
20
1.17474
11
0.405822
21
1.17712
0
LINE
8
BLACK
6
CONTINUOUS
10
0.405822
20
1.17712
11
0.405113
21
1.17765
0
LINE
8
BLACK
6
CONTINUOUS
10
0.405113
20
1.17765
11
0.405055
21
1.17767
0
LINE
8
BLACK
6
CONTINUOUS
10
0.405055
20
1.17767
11
0.402674
21
1.18005
0
LINE
8
BLACK
6
CONTINUOUS
10
0.402674
20
1.18005
11
0.402086
21
1.1809
0
LINE
8
BLACK
6
CONTINUOUS
10
0.402086
20
1.1809
11
0.40191
21
1.18291
0
LINE
8
BLACK
6
CONTINUOUS
10
0.40191
20
1.18291
11
0.403068
21
1.18456
0
LINE
8
BLACK
6
CONTINUOUS
10
0.403068
20
1.18456
11
0.405019
21
1.18508
0
LINE
8
BLACK
6
CONTINUOUS
10
0.405019
20
1.18508
11
0.40685
21
1.18423
0
LINE
8
BLACK
6
CONTINUOUS
10
0.40685
20
1.18423
11
0.408892
21
1.18219
0
LINE
8
BLACK
6
CONTINUOUS
10
0.408892
20
1.18219
11
0.412602
21
1.18033
0
LINE
8
BLACK
6
CONTINUOUS
10
0.412602
20
1.18033
11
0.423112
21
1.18033
0
LINE
8
BLACK
6
CONTINUOUS
10
0.423112
20
1.18033
11
0.426822
21
1.18219
0
LINE
8
BLACK
6
CONTINUOUS
10
0.426822
20
1.18219
11
0.428526
21
1.18389
0
LINE
8
BLACK
6
CONTINUOUS
10
0.428526
20
1.18389
11
0.430381
21
1.1876
0
LINE
8
BLACK
6
CONTINUOUS
10
0.430381
20
1.1876
11
0.430381
21
1.19811
0
LINE
8
BLACK
6
CONTINUOUS
10
0.430381
20
1.19811
11
0.428526
21
1.20182
0
LINE
8
BLACK
6
CONTINUOUS
10
0.428526
20
1.20182
11
0.426822
21
1.20353
0
LINE
8
BLACK
6
CONTINUOUS
10
0.426822
20
1.20353
11
0.423112
21
1.20538
0
LINE
8
BLACK
6
CONTINUOUS
10
0.423112
20
1.20538
11
0.412602
21
1.20538
0
LINE
8
BLACK
6
CONTINUOUS
10
0.412602
20
1.20538
11
0.408892
21
1.20353
0
LINE
8
BLACK
6
CONTINUOUS
10
0.408892
20
1.20353
11
0.40685
21
1.20148
0
LINE
8
BLACK
6
CONTINUOUS
10
0.40685
20
1.20148
11
0.40601
21
1.2009
0
LINE
8
BLACK
6
CONTINUOUS
10
0.40601
20
1.2009
11
0.40599
21
1.20089
0
LINE
8
BLACK
6
CONTINUOUS
10
0.40599
20
1.20089
11
0.405976
21
1.20088
0
LINE
8
BLACK
6
CONTINUOUS
10
0.405976
20
1.20088
11
0.404986
21
1.20081
0
LINE
8
BLACK
6
CONTINUOUS
10
0.404986
20
1.20081
11
0.403998
21
1.20072
0
LINE
8
BLACK
6
CONTINUOUS
10
0.403998
20
1.20072
11
0.403982
21
1.20073
0
LINE
8
BLACK
6
CONTINUOUS
10
0.403982
20
1.20073
11
0.403962
21
1.20073
0
LINE
8
BLACK
6
CONTINUOUS
10
0.403962
20
1.20073
11
0.403156
21
1.20131
0
LINE
8
BLACK
6
CONTINUOUS
10
0.403156
20
1.20131
11
0.402343
21
1.20188
0
LINE
8
BLACK
6
CONTINUOUS
10
0.402343
20
1.20188
11
0.402338
21
1.2019
0
LINE
8
BLACK
6
CONTINUOUS
10
0.402338
20
1.2019
11
0.402322
21
1.20191
0
LINE
8
BLACK
6
CONTINUOUS
10
0.402322
20
1.20191
11
0.402077
21
1.20287
0
LINE
8
BLACK
6
CONTINUOUS
10
0.402077
20
1.20287
11
0.40182
21
1.20383
0
LINE
8
BLACK
6
CONTINUOUS
10
0.40182
20
1.20383
11
0.401829
21
1.20385
0
LINE
8
BLACK
6
CONTINUOUS
10
0.401829
20
1.20385
11
0.401824
21
1.20387
0
LINE
8
BLACK
6
CONTINUOUS
10
0.401824
20
1.20387
11
0.404205
21
1.22767
0
LINE
8
BLACK
6
CONTINUOUS
10
0.404205
20
1.22767
11
0.404247
21
1.22783
0
LINE
8
BLACK
6
CONTINUOUS
10
0.404247
20
1.22783
11
0.404235
21
1.22789
0
LINE
8
BLACK
6
CONTINUOUS
10
0.404235
20
1.22789
11
0.404296
21
1.228
0
LINE
8
BLACK
6
CONTINUOUS
10
0.404296
20
1.228
11
0.404482
21
1.22866
0
LINE
8
BLACK
6
CONTINUOUS
10
0.404482
20
1.22866
11
0.404931
21
1.2291
0
LINE
8
BLACK
6
CONTINUOUS
10
0.404931
20
1.2291
11
0.405245
21
1.22964
0
LINE
8
BLACK
6
CONTINUOUS
10
0.405245
20
1.22964
11
0.405633
21
1.22978
0
LINE
8
BLACK
6
CONTINUOUS
10
0.405633
20
1.22978
11
0.405928
21
1.23007
0
LINE
8
BLACK
6
CONTINUOUS
10
0.405928
20
1.23007
11
0.406554
21
1.23012
0
LINE
8
BLACK
6
CONTINUOUS
10
0.406554
20
1.23012
11
0.407143
21
1.23033
0
LINE
8
BLACK
6
CONTINUOUS
10
0.407143
20
1.23033
11
0.430952
21
1.23033
0
LINE
8
BLACK
6
CONTINUOUS
10
0.430952
20
1.23033
11
0.431962
21
1.23016
0
LINE
8
BLACK
6
CONTINUOUS
10
0.385595
20
1.22928
11
0.386286
21
1.22738
0
LINE
8
BLACK
6
CONTINUOUS
10
0.386286
20
1.22738
11
0.386286
21
1.19167
0
LINE
8
BLACK
6
CONTINUOUS
10
0.386286
20
1.19167
11
0.386133
21
1.1908
0
LINE
8
BLACK
6
CONTINUOUS
10
0.386133
20
1.1908
11
0.386135
21
1.19073
0
LINE
8
BLACK
6
CONTINUOUS
10
0.386135
20
1.19073
11
0.383754
21
1.18359
0
LINE
8
BLACK
6
CONTINUOUS
10
0.383754
20
1.18359
11
0.383265
21
1.18269
0
LINE
8
BLACK
6
CONTINUOUS
10
0.383265
20
1.18269
11
0.383115
21
1.1826
0
LINE
8
BLACK
6
CONTINUOUS
10
0.383115
20
1.1826
11
0.38304
21
1.18244
0
LINE
8
BLACK
6
CONTINUOUS
10
0.38304
20
1.18244
11
0.378278
21
1.17767
0
LINE
8
BLACK
6
CONTINUOUS
10
0.378278
20
1.17767
11
0.377438
21
1.17709
0
LINE
8
BLACK
6
CONTINUOUS
10
0.377438
20
1.17709
11
0.377262
21
1.17707
0
LINE
8
BLACK
6
CONTINUOUS
10
0.377262
20
1.17707
11
0.377124
21
1.17696
0
LINE
8
BLACK
6
CONTINUOUS
10
0.377124
20
1.17696
11
0.369981
21
1.17458
0
LINE
8
BLACK
6
CONTINUOUS
10
0.369981
20
1.17458
11
0.369108
21
1.17445
0
LINE
8
BLACK
6
CONTINUOUS
10
0.369108
20
1.17445
11
0.369048
21
1.17443
0
LINE
8
BLACK
6
CONTINUOUS
10
0.369048
20
1.17443
11
0.364286
21
1.17443
0
LINE
8
BLACK
6
CONTINUOUS
10
0.364286
20
1.17443
11
0.363276
21
1.17461
0
LINE
8
BLACK
6
CONTINUOUS
10
0.363276
20
1.17461
11
0.361729
21
1.1759
0
LINE
8
BLACK
6
CONTINUOUS
10
0.361729
20
1.1759
11
0.361378
21
1.17789
0
LINE
8
BLACK
6
CONTINUOUS
10
0.361378
20
1.17789
11
0.362388
21
1.17964
0
LINE
8
BLACK
6
CONTINUOUS
10
0.362388
20
1.17964
11
0.364286
21
1.18033
0
LINE
8
BLACK
6
CONTINUOUS
10
0.364286
20
1.18033
11
0.368568
21
1.18033
0
LINE
8
BLACK
6
CONTINUOUS
10
0.368568
20
1.18033
11
0.374595
21
1.18234
0
LINE
8
BLACK
6
CONTINUOUS
10
0.374595
20
1.18234
11
0.378372
21
1.18612
0
LINE
8
BLACK
6
CONTINUOUS
10
0.378372
20
1.18612
11
0.380381
21
1.19215
0
LINE
8
BLACK
6
CONTINUOUS
10
0.380381
20
1.19215
11
0.380381
21
1.22738
0
LINE
8
BLACK
6
CONTINUOUS
10
0.380381
20
1.22738
11
0.380559
21
1.22839
0
LINE
8
BLACK
6
CONTINUOUS
10
0.380559
20
1.22839
11
0.381857
21
1.22994
0
LINE
8
BLACK
6
CONTINUOUS
10
0.381857
20
1.22994
11
0.383846
21
1.23029
0
LINE
8
BLACK
6
CONTINUOUS
10
0.383846
20
1.23029
11
0.385595
21
1.22928
0
LINE
8
BLACK
6
CONTINUOUS
10
-0.122078
20
0.0295339
11
-0.118025
21
0.0429577
0
LINE
8
BLACK
6
CONTINUOUS
10
-0.118025
20
0.0429577
11
-0.112501
21
0.0558462
0
LINE
8
BLACK
6
CONTINUOUS
10
-0.112501
20
0.0558462
11
-0.105575
21
0.0680385
0
LINE
8
BLACK
6
CONTINUOUS
10
-0.105575
20
0.0680385
11
-0.097333
21
0.0793829
0
LINE
8
BLACK
6
CONTINUOUS
10
-0.097333
20
0.0793829
11
-0.0878777
21
0.0897378
0
LINE
8
BLACK
6
CONTINUOUS
10
-0.0878777
20
0.0897378
11
-0.0773271
21
0.0989741
0
LINE
8
BLACK
6
CONTINUOUS
10
-0.0773271
20
0.0989741
11
-0.0658126
21
0.106977
0
LINE
8
BLACK
6
CONTINUOUS
10
-0.0658126
20
0.106977
11
-0.0534779
21
0.113646
0
LINE
8
BLACK
6
CONTINUOUS
10
-0.0534779
20
0.113646
11
-0.0404766
21
0.118899
0
LINE
8
BLACK
6
CONTINUOUS
10
-0.0404766
20
0.118899
11
-0.0269707
21
0.12267
0
LINE
8
BLACK
6
CONTINUOUS
10
-0.0269707
20
0.12267
11
-0.0131288
21
0.124912
0
LINE
8
BLACK
6
CONTINUOUS
10
-0.0131288
20
0.124912
11
0.00087685
21
0.125597
0
LINE
8
BLACK
6
CONTINUOUS
10
0.00087685
20
0.125597
11
0.0148715
21
0.124716
0
LINE
8
BLACK
6
CONTINUOUS
10
0.0148715
20
0.124716
11
0.0286809
21
0.122281
0
LINE
8
BLACK
6
CONTINUOUS
10
0.0286809
20
0.122281
11
0.0421327
21
0.118322
0
LINE
8
BLACK
6
CONTINUOUS
10
0.0421327
20
0.118322
11
0.0550594
21
0.112889
0
LINE
8
BLACK
6
CONTINUOUS
10
0.0550594
20
0.112889
11
0.0672998
21
0.106048
0
LINE
8
BLACK
6
CONTINUOUS
10
0.0672998
20
0.106048
11
0.0787015
21
0.0978848
0
LINE
8
BLACK
6
CONTINUOUS
10
0.0787015
20
0.0978848
11
0.0891221
21
0.088502
0
LINE
8
BLACK
6
CONTINUOUS
10
0.0891221
20
0.088502
11
0.0984319
21
0.0780161
0
LINE
8
BLACK
6
CONTINUOUS
10
0.0984319
20
0.0780161
11
0.106515
21
0.0665579
0
LINE
8
BLACK
6
CONTINUOUS
10
0.106515
20
0.0665579
11
0.11327
21
0.05427
0
LINE
8
BLACK
6
CONTINUOUS
10
0.11327
20
0.05427
11
0.118614
21
0.0413057
0
LINE
8
BLACK
6
CONTINUOUS
10
0.118614
20
0.0413057
11
0.122479
21
0.0278265
0
LINE
8
BLACK
6
CONTINUOUS
10
0.122479
20
0.0278265
11
0.124817
21
0.0140005
0
LINE
8
BLACK
6
CONTINUOUS
10
0.124817
20
0.0140005
11
0.1256
21
0
0
LINE
8
BLACK
6
CONTINUOUS
10
0.1256
20
0
11
0.125551
21
-0.00350697
0
LINE
8
BLACK
6
CONTINUOUS
10
0.125551
20
-0.00350697
11
0.124378
21
-0.0174802
0
LINE
8
BLACK
6
CONTINUOUS
10
0.124378
20
-0.0174802
11
0.121654
21
-0.0312354
0
LINE
8
BLACK
6
CONTINUOUS
10
0.121654
20
-0.0312354
11
0.117414
21
-0.0446014
0
LINE
8
BLACK
6
CONTINUOUS
10
0.117414
20
-0.0446014
11
0.111711
21
-0.0574115
0
LINE
8
BLACK
6
CONTINUOUS
10
0.111711
20
-0.0574115
11
0.104615
21
-0.069506
0
LINE
8
BLACK
6
CONTINUOUS
10
0.104615
20
-0.069506
11
0.0962152
21
-0.0807341
0
LINE
8
BLACK
6
CONTINUOUS
10
0.0962152
20
-0.0807341
11
0.0866162
21
-0.090956
0
LINE
8
BLACK
6
CONTINUOUS
10
0.0866162
20
-0.090956
11
0.0759376
21
-0.100044
0
LINE
8
BLACK
6
CONTINUOUS
10
0.0759376
20
-0.100044
11
0.0643126
21
-0.107885
0
LINE
8
BLACK
6
CONTINUOUS
10
0.0643126
20
-0.107885
11
0.0518859
21
-0.114382
0
LINE
8
BLACK
6
CONTINUOUS
10
0.0518859
20
-0.114382
11
0.0388125
21
-0.119453
0
LINE
8
BLACK
6
CONTINUOUS
10
0.0388125
20
-0.119453
11
0.0252554
21
-0.123035
0
LINE
8
BLACK
6
CONTINUOUS
10
0.0252554
20
-0.123035
11
0.0113835
21
-0.125083
0
LINE
8
BLACK
6
CONTINUOUS
10
0.0113835
20
-0.125083
11
-0.00263035
21
-0.125572
0
LINE
8
BLACK
6
CONTINUOUS
10
-0.00263035
20
-0.125572
11
-0.0166114
21
-0.124497
0
LINE
8
BLACK
6
CONTINUOUS
10
-0.0166114
20
-0.124497
11
-0.0303854
21
-0.121869
0
LINE
8
BLACK
6
CONTINUOUS
10
-0.0303854
20
-0.121869
11
-0.0437806
21
-0.117723
0
LINE
8
BLACK
6
CONTINUOUS
10
-0.0437806
20
-0.117723
11
-0.0566302
21
-0.112109
0
LINE
8
BLACK
6
CONTINUOUS
10
-0.0566302
20
-0.112109
11
-0.0687739
21
-0.105098
0
LINE
8
BLACK
6
CONTINUOUS
10
-0.0687739
20
-0.105098
11
-0.0800605
21
-0.0967765
0
LINE
8
BLACK
6
CONTINUOUS
10
-0.0800605
20
-0.0967765
11
-0.0903491
21
-0.0872491
0
LINE
8
BLACK
6
CONTINUOUS
10
-0.0903491
20
-0.0872491
11
-0.0995116
21
-0.0766343
0
LINE
8
BLACK
6
CONTINUOUS
10
-0.0995116
20
-0.0766343
11
-0.107434
21
-0.0650642
0
LINE
8
BLACK
6
CONTINUOUS
10
-0.107434
20
-0.0650642
11
-0.114017
21
-0.0526832
0
LINE
8
BLACK
6
CONTINUOUS
10
-0.114017
20
-0.0526832
11
-0.119179
21
-0.0396455
0
LINE
8
BLACK
6
CONTINUOUS
10
-0.119179
20
-0.0396455
11
-0.122855
21
-0.0261137
0
LINE
8
BLACK
6
CONTINUOUS
10
-0.122855
20
-0.0261137
11
-0.125001
21
-0.0122564
0
LINE
8
BLACK
6
CONTINUOUS
10
-0.125001
20
-0.0122564
11
-0.125588
21
0.00175366
0
LINE
8
BLACK
6
CONTINUOUS
10
-0.125588
20
0.00175366
11
-0.125467
21
0.00347992
0
LINE
8
BLACK
6
CONTINUOUS
10
-0.125467
20
0.00347992
11
-0.12461
21
0.0157419
0
LINE
8
BLACK
6
CONTINUOUS
10
-0.12461
20
0.0157419
11
-0.122078
21
0.0295339
0
LINE
8
BLACK
6
CONTINUOUS
10
-0.108602
20
-0.021898
11
-0.105365
21
-0.0342352
0
LINE
8
BLACK
6
CONTINUOUS
10
-0.105365
20
-0.0342352
11
-0.100732
21
-0.0461187
0
LINE
8
BLACK
6
CONTINUOUS
10
-0.100732
20
-0.0461187
11
-0.0947636
21
-0.0573909
0
LINE
8
BLACK
6
CONTINUOUS
10
-0.0947636
20
-0.0573909
11
-0.0875393
21
-0.0679024
0
LINE
8
BLACK
6
CONTINUOUS
10
-0.0875393
20
-0.0679024
11
-0.0791546
21
-0.0775139
0
LINE
8
BLACK
6
CONTINUOUS
10
-0.0791546
20
-0.0775139
11
-0.0697208
21
-0.086098
0
LINE
8
BLACK
6
CONTINUOUS
10
-0.0697208
20
-0.086098
11
-0.0593629
21
-0.0935409
0
LINE
8
BLACK
6
CONTINUOUS
10
-0.0593629
20
-0.0935409
11
-0.0482181
21
-0.099744
0
LINE
8
BLACK
6
CONTINUOUS
10
-0.0482181
20
-0.099744
11
-0.0364343
21
-0.104625
0
LINE
8
BLACK
6
CONTINUOUS
10
-0.0364343
20
-0.104625
11
-0.0241675
21
-0.108119
0
LINE
8
BLACK
6
CONTINUOUS
10
-0.0241675
20
-0.108119
11
-0.0115804
21
-0.110181
0
LINE
8
BLACK
6
CONTINUOUS
10
-0.0115804
20
-0.110181
11
0.00116016
21
-0.110781
0
LINE
8
BLACK
6
CONTINUOUS
10
0.00116016
20
-0.110781
11
0.0138854
21
-0.109914
0
LINE
8
BLACK
6
CONTINUOUS
10
0.0138854
20
-0.109914
11
0.0264265
21
-0.107589
0
LINE
8
BLACK
6
CONTINUOUS
10
0.0264265
20
-0.107589
11
0.0386174
21
-0.103839
0
LINE
8
BLACK
6
CONTINUOUS
10
0.0386174
20
-0.103839
11
0.0502965
21
-0.0987123
0
LINE
8
BLACK
6
CONTINUOUS
10
0.0502965
20
-0.0987123
11
0.0613088
21
-0.0922772
0
LINE
8
BLACK
6
CONTINUOUS
10
0.0613088
20
-0.0922772
11
0.0715086
21
-0.084619
0
LINE
8
BLACK
6
CONTINUOUS
10
0.0715086
20
-0.084619
11
0.0807606
21
-0.0758392
0
LINE
8
BLACK
6
CONTINUOUS
10
0.0807606
20
-0.0758392
11
0.0889421
21
-0.0660542
0
LINE
8
BLACK
6
CONTINUOUS
10
0.0889421
20
-0.0660542
11
0.0959447
21
-0.0553937
0
LINE
8
BLACK
6
CONTINUOUS
10
0.0959447
20
-0.0553937
11
0.101676
21
-0.043999
0
LINE
8
BLACK
6
CONTINUOUS
10
0.101676
20
-0.043999
11
0.106059
21
-0.0320211
0
LINE
8
BLACK
6
CONTINUOUS
10
0.106059
20
-0.0320211
11
0.109036
21
-0.0196188
0
LINE
8
BLACK
6
CONTINUOUS
10
0.109036
20
-0.0196188
11
0.110569
21
-0.00695642
0
LINE
8
BLACK
6
CONTINUOUS
10
0.110569
20
-0.00695642
11
0.110787
21
0
0
LINE
8
BLACK
6
CONTINUOUS
10
0.110787
20
0
11
0.110053
21
0.0127336
0
LINE
8
BLACK
6
CONTINUOUS
10
0.110053
20
0.0127336
11
0.10786
21
0.0252984
0
LINE
8
BLACK
6
CONTINUOUS
10
0.10786
20
0.0252984
11
0.104238
21
0.0375279
0
LINE
8
BLACK
6
CONTINUOUS
10
0.104238
20
0.0375279
11
0.0992336
21
0.04926
0
LINE
8
BLACK
6
CONTINUOUS
10
0.0992336
20
0.04926
11
0.0929142
21
0.0603392
0
LINE
8
BLACK
6
CONTINUOUS
10
0.0929142
20
0.0603392
11
0.0853632
21
0.0706186
0
LINE
8
BLACK
6
CONTINUOUS
10
0.0853632
20
0.0706186
11
0.0766808
21
0.079962
0
LINE
8
BLACK
6
CONTINUOUS
10
0.0766808
20
0.079962
11
0.066982
21
0.0882455
0
LINE
8
BLACK
6
CONTINUOUS
10
0.066982
20
0.0882455
11
0.0563954
21
0.0953594
0
LINE
8
BLACK
6
CONTINUOUS
10
0.0563954
20
0.0953594
11
0.0450613
21
0.101209
0
LINE
8
BLACK
6
CONTINUOUS
10
0.0450613
20
0.101209
11
0.03313
21
0.105718
0
LINE
8
BLACK
6
CONTINUOUS
10
0.03313
20
0.105718
11
0.0207595
21
0.108825
0
LINE
8
BLACK
6
CONTINUOUS
10
0.0207595
20
0.108825
11
0.00811386
21
0.11049
0
LINE
8
BLACK
6
CONTINUOUS
10
0.00811386
20
0.11049
11
-0.00463929
21
0.11069
0
LINE
8
BLACK
6
CONTINUOUS
10
-0.00463929
20
0.11069
11
-0.017331
21
0.109423
0
LINE
8
BLACK
6
CONTINUOUS
10
-0.017331
20
0.109423
11
-0.029793
21
0.106706
0
LINE
8
BLACK
6
CONTINUOUS
10
-0.029793
20
0.106706
11
-0.04186
21
0.102575
0
LINE
8
BLACK
6
CONTINUOUS
10
-0.04186
20
0.102575
11
-0.0533722
21
0.0970838
0
LINE
8
BLACK
6
CONTINUOUS
10
-0.0533722
20
0.0970838
11
-0.0641771
21
0.0903059
0
LINE
8
BLACK
6
CONTINUOUS
10
-0.0641771
20
0.0903059
11
-0.0741313
21
0.0823311
0
LINE
8
BLACK
6
CONTINUOUS
10
-0.0741313
20
0.0823311
11
-0.0831029
21
0.073265
0
LINE
8
BLACK
6
CONTINUOUS
10
-0.0831029
20
0.073265
11
-0.090973
21
0.0632279
0
LINE
8
BLACK
6
CONTINUOUS
10
-0.090973
20
0.0632279
11
-0.0976374
21
0.0523527
0
LINE
8
BLACK
6
CONTINUOUS
10
-0.0976374
20
0.0523527
11
-0.103008
21
0.0407836
0
LINE
8
BLACK
6
CONTINUOUS
10
-0.103008
20
0.0407836
11
-0.107012
21
0.0286739
0
LINE
8
BLACK
6
CONTINUOUS
10
-0.107012
20
0.0286739
11
-0.109599
21
0.0161842
0
LINE
8
BLACK
6
CONTINUOUS
10
-0.109599
20
0.0161842
11
-0.110733
21
0.00347992
0
LINE
8
BLACK
6
CONTINUOUS
10
-0.110733
20
0.00347992
11
-0.110399
21
-0.00927047
0
LINE
8
BLACK
6
CONTINUOUS
10
-0.110399
20
-0.00927047
11
-0.108602
21
-0.021898
0
LINE
8
BLACK
6
CONTINUOUS
10
0.677922
20
0.0295339
11
0.681975
21
0.0429577
0
LINE
8
BLACK
6
CONTINUOUS
10
0.681975
20
0.0429577
11
0.687499
21
0.0558462
0
LINE
8
BLACK
6
CONTINUOUS
10
0.687499
20
0.0558462
11
0.694425
21
0.0680385
0
LINE
8
BLACK
6
CONTINUOUS
10
0.694425
20
0.0680385
11
0.702667
21
0.0793829
0
LINE
8
BLACK
6
CONTINUOUS
10
0.702667
20
0.0793829
11
0.712122
21
0.0897378
0
LINE
8
BLACK
6
CONTINUOUS
10
0.712122
20
0.0897378
11
0.722673
21
0.0989741
0
LINE
8
BLACK
6
CONTINUOUS
10
0.722673
20
0.0989741
11
0.734187
21
0.106977
0
LINE
8
BLACK
6
CONTINUOUS
10
0.734187
20
0.106977
11
0.746522
21
0.113646
0
LINE
8
BLACK
6
CONTINUOUS
10
0.746522
20
0.113646
11
0.759523
21
0.118899
0
LINE
8
BLACK
6
CONTINUOUS
10
0.759523
20
0.118899
11
0.773029
21
0.12267
0
LINE
8
BLACK
6
CONTINUOUS
10
0.773029
20
0.12267
11
0.786871
21
0.124912
0
LINE
8
BLACK
6
CONTINUOUS
10
0.786871
20
0.124912
11
0.800877
21
0.125597
0
LINE
8
BLACK
6
CONTINUOUS
10
0.800877
20
0.125597
11
0.814872
21
0.124716
0
LINE
8
BLACK
6
CONTINUOUS
10
0.814872
20
0.124716
11
0.828681
21
0.122281
0
LINE
8
BLACK
6
CONTINUOUS
10
0.828681
20
0.122281
11
0.842133
21
0.118322
0
LINE
8
BLACK
6
CONTINUOUS
10
0.842133
20
0.118322
11
0.855059
21
0.112889
0
LINE
8
BLACK
6
CONTINUOUS
10
0.855059
20
0.112889
11
0.8673
21
0.106048
0
LINE
8
BLACK
6
CONTINUOUS
10
0.8673
20
0.106048
11
0.878701
21
0.0978848
0
LINE
8
BLACK
6
CONTINUOUS
10
0.878701
20
0.0978848
11
0.889122
21
0.088502
0
LINE
8
BLACK
6
CONTINUOUS
10
0.889122
20
0.088502
11
0.898432
21
0.0780161
0
LINE
8
BLACK
6
CONTINUOUS
10
0.898432
20
0.0780161
11
0.906515
21
0.0665579
0
LINE
8
BLACK
6
CONTINUOUS
10
0.906515
20
0.0665579
11
0.91327
21
0.05427
0
LINE
8
BLACK
6
CONTINUOUS
10
0.91327
20
0.05427
11
0.918614
21
0.0413057
0
LINE
8
BLACK
6
CONTINUOUS
10
0.918614
20
0.0413057
11
0.922479
21
0.0278265
0
LINE
8
BLACK
6
CONTINUOUS
10
0.922479
20
0.0278265
11
0.924817
21
0.0140005
0
LINE
8
BLACK
6
CONTINUOUS
10
0.924817
20
0.0140005
11
0.9256
21
0
0
LINE
8
BLACK
6
CONTINUOUS
10
0.9256
20
0
11
0.925551
21
-0.00350697
0
LINE
8
BLACK
6
CONTINUOUS
10
0.925551
20
-0.00350697
11
0.924378
21
-0.0174802
0
LINE
8
BLACK
6
CONTINUOUS
10
0.924378
20
-0.0174802
11
0.921654
21
-0.0312354
0
LINE
8
BLACK
6
CONTINUOUS
10
0.921654
20
-0.0312354
11
0.917414
21
-0.0446014
0
LINE
8
BLACK
6
CONTINUOUS
10
0.917414
20
-0.0446014
11
0.911711
21
-0.0574115
0
LINE
8
BLACK
6
CONTINUOUS
10
0.911711
20
-0.0574115
11
0.904615
21
-0.069506
0
LINE
8
BLACK
6
CONTINUOUS
10
0.904615
20
-0.069506
11
0.896215
21
-0.0807341
0
LINE
8
BLACK
6
CONTINUOUS
10
0.896215
20
-0.0807341
11
0.886616
21
-0.090956
0
LINE
8
BLACK
6
CONTINUOUS
10
0.886616
20
-0.090956
11
0.875938
21
-0.100044
0
LINE
8
BLACK
6
CONTINUOUS
10
0.875938
20
-0.100044
11
0.864313
21
-0.107885
0
LINE
8
BLACK
6
CONTINUOUS
10
0.864313
20
-0.107885
11
0.851886
21
-0.114382
0
LINE
8
BLACK
6
CONTINUOUS
10
0.851886
20
-0.114382
11
0.838813
21
-0.119453
0
LINE
8
BLACK
6
CONTINUOUS
10
0.838813
20
-0.119453
11
0.825255
21
-0.123035
0
LINE
8
BLACK
6
CONTINUOUS
10
0.825255
20
-0.123035
11
0.811383
21
-0.125083
0
LINE
8
BLACK
6
CONTINUOUS
10
0.811383
20
-0.125083
11
0.79737
21
-0.125572
0
LINE
8
BLACK
6
CONTINUOUS
10
0.79737
20
-0.125572
11
0.783389
21
-0.124497
0
LINE
8
BLACK
6
CONTINUOUS
10
0.783389
20
-0.124497
11
0.769615
21
-0.121869
0
LINE
8
BLACK
6
CONTINUOUS
10
0.769615
20
-0.121869
11
0.756219
21
-0.117723
0
LINE
8
BLACK
6
CONTINUOUS
10
0.756219
20
-0.117723
11
0.74337
21
-0.112109
0
LINE
8
BLACK
6
CONTINUOUS
10
0.74337
20
-0.112109
11
0.731226
21
-0.105098
0
LINE
8
BLACK
6
CONTINUOUS
10
0.731226
20
-0.105098
11
0.71994
21
-0.0967765
0
LINE
8
BLACK
6
CONTINUOUS
10
0.71994
20
-0.0967765
11
0.709651
21
-0.0872491
0
LINE
8
BLACK
6
CONTINUOUS
10
0.709651
20
-0.0872491
11
0.700488
21
-0.0766343
0
LINE
8
BLACK
6
CONTINUOUS
10
0.700488
20
-0.0766343
11
0.692566
21
-0.0650642
0
LINE
8
BLACK
6
CONTINUOUS
10
0.692566
20
-0.0650642
11
0.685983
21
-0.0526832
0
LINE
8
BLACK
6
CONTINUOUS
10
0.685983
20
-0.0526832
11
0.680821
21
-0.0396455
0
LINE
8
BLACK
6
CONTINUOUS
10
0.680821
20
-0.0396455
11
0.677145
21
-0.0261137
0
LINE
8
BLACK
6
CONTINUOUS
10
0.677145
20
-0.0261137
11
0.674999
21
-0.0122564
0
LINE
8
BLACK
6
CONTINUOUS
10
0.674999
20
-0.0122564
11
0.674412
21
0.00175366
0
LINE
8
BLACK
6
CONTINUOUS
10
0.674412
20
0.00175366
11
0.674533
21
0.00347992
0
LINE
8
BLACK
6
CONTINUOUS
10
0.674533
20
0.00347992
11
0.67539
21
0.0157419
0
LINE
8
BLACK
6
CONTINUOUS
10
0.67539
20
0.0157419
11
0.677922
21
0.0295339
0
LINE
8
BLACK
6
CONTINUOUS
10
0.691398
20
-0.021898
11
0.694635
21
-0.0342352
0
LINE
8
BLACK
6
CONTINUOUS
10
0.694635
20
-0.0342352
11
0.699268
21
-0.0461187
0
LINE
8
BLACK
6
CONTINUOUS
10
0.699268
20
-0.0461187
11
0.705236
21
-0.0573909
0
LINE
8
BLACK
6
CONTINUOUS
10
0.705236
20
-0.0573909
11
0.712461
21
-0.0679024
0
LINE
8
BLACK
6
CONTINUOUS
10
0.712461
20
-0.0679024
11
0.720845
21
-0.0775139
0
LINE
8
BLACK
6
CONTINUOUS
10
0.720845
20
-0.0775139
11
0.730279
21
-0.086098
0
LINE
8
BLACK
6
CONTINUOUS
10
0.730279
20
-0.086098
11
0.740637
21
-0.0935409
0
LINE
8
BLACK
6
CONTINUOUS
10
0.740637
20
-0.0935409
11
0.751782
21
-0.099744
0
LINE
8
BLACK
6
CONTINUOUS
10
0.751782
20
-0.099744
11
0.763566
21
-0.104625
0
LINE
8
BLACK
6
CONTINUOUS
10
0.763566
20
-0.104625
11
0.775832
21
-0.108119
0
LINE
8
BLACK
6
CONTINUOUS
10
0.775832
20
-0.108119
11
0.78842
21
-0.110181
0
LINE
8
BLACK
6
CONTINUOUS
10
0.78842
20
-0.110181
11
0.80116
21
-0.110781
0
LINE
8
BLACK
6
CONTINUOUS
10
0.80116
20
-0.110781
11
0.813885
21
-0.109914
0
LINE
8
BLACK
6
CONTINUOUS
10
0.813885
20
-0.109914
11
0.826426
21
-0.107589
0
LINE
8
BLACK
6
CONTINUOUS
10
0.826426
20
-0.107589
11
0.838617
21
-0.103839
0
LINE
8
BLACK
6
CONTINUOUS
10
0.838617
20
-0.103839
11
0.850296
21
-0.0987123
0
LINE
8
BLACK
6
CONTINUOUS
10
0.850296
20
-0.0987123
11
0.861309
21
-0.0922772
0
LINE
8
BLACK
6
CONTINUOUS
10
0.861309
20
-0.0922772
11
0.871509
21
-0.084619
0
LINE
8
BLACK
6
CONTINUOUS
10
0.871509
20
-0.084619
11
0.880761
21
-0.0758392
0
LINE
8
BLACK
6
CONTINUOUS
10
0.880761
20
-0.0758392
11
0.888942
21
-0.0660542
0
LINE
8
BLACK
6
CONTINUOUS
10
0.888942
20
-0.0660542
11
0.895945
21
-0.0553937
0
LINE
8
BLACK
6
CONTINUOUS
10
0.895945
20
-0.0553937
11
0.901676
21
-0.043999
0
LINE
8
BLACK
6
CONTINUOUS
10
0.901676
20
-0.043999
11
0.906059
21
-0.0320211
0
LINE
8
BLACK
6
CONTINUOUS
10
0.906059
20
-0.0320211
11
0.909036
21
-0.0196188
0
LINE
8
BLACK
6
CONTINUOUS
10
0.909036
20
-0.0196188
11
0.910569
21
-0.00695642
0
LINE
8
BLACK
6
CONTINUOUS
10
0.910569
20
-0.00695642
11
0.910787
21
0
0
LINE
8
BLACK
6
CONTINUOUS
10
0.910787
20
0
11
0.910053
21
0.0127336
0
LINE
8
BLACK
6
CONTINUOUS
10
0.910053
20
0.0127336
11
0.90786
21
0.0252984
0
LINE
8
BLACK
6
CONTINUOUS
10
0.90786
20
0.0252984
11
0.904238
21
0.0375279
0
LINE
8
BLACK
6
CONTINUOUS
10
0.904238
20
0.0375279
11
0.899234
21
0.04926
0
LINE
8
BLACK
6
CONTINUOUS
10
0.899234
20
0.04926
11
0.892914
21
0.0603392
0
LINE
8
BLACK
6
CONTINUOUS
10
0.892914
20
0.0603392
11
0.885363
21
0.0706186
0
LINE
8
BLACK
6
CONTINUOUS
10
0.885363
20
0.0706186
11
0.876681
21
0.079962
0
LINE
8
BLACK
6
CONTINUOUS
10
0.876681
20
0.079962
11
0.866982
21
0.0882455
0
LINE
8
BLACK
6
CONTINUOUS
10
0.866982
20
0.0882455
11
0.856395
21
0.0953594
0
LINE
8
BLACK
6
CONTINUOUS
10
0.856395
20
0.0953594
11
0.845061
21
0.101209
0
LINE
8
BLACK
6
CONTINUOUS
10
0.845061
20
0.101209
11
0.83313
21
0.105718
0
LINE
8
BLACK
6
CONTINUOUS
10
0.83313
20
0.105718
11
0.820759
21
0.108825
0
LINE
8
BLACK
6
CONTINUOUS
10
0.820759
20
0.108825
11
0.808114
21
0.11049
0
LINE
8
BLACK
6
CONTINUOUS
10
0.808114
20
0.11049
11
0.795361
21
0.11069
0
LINE
8
BLACK
6
CONTINUOUS
10
0.795361
20
0.11069
11
0.782669
21
0.109423
0
LINE
8
BLACK
6
CONTINUOUS
10
0.782669
20
0.109423
11
0.770207
21
0.106706
0
LINE
8
BLACK
6
CONTINUOUS
10
0.770207
20
0.106706
11
0.75814
21
0.102575
0
LINE
8
BLACK
6
CONTINUOUS
10
0.75814
20
0.102575
11
0.746628
21
0.0970838
0
LINE
8
BLACK
6
CONTINUOUS
10
0.746628
20
0.0970838
11
0.735823
21
0.0903059
0
LINE
8
BLACK
6
CONTINUOUS
10
0.735823
20
0.0903059
11
0.725869
21
0.0823311
0
LINE
8
BLACK
6
CONTINUOUS
10
0.725869
20
0.0823311
11
0.716897
21
0.073265
0
LINE
8
BLACK
6
CONTINUOUS
10
0.716897
20
0.073265
11
0.709027
21
0.0632279
0
LINE
8
BLACK
6
CONTINUOUS
10
0.709027
20
0.0632279
11
0.702363
21
0.0523527
0
LINE
8
BLACK
6
CONTINUOUS
10
0.702363
20
0.0523527
11
0.696992
21
0.0407836
0
LINE
8
BLACK
6
CONTINUOUS
10
0.696992
20
0.0407836
11
0.692988
21
0.0286739
0
LINE
8
BLACK
6
CONTINUOUS
10
0.692988
20
0.0286739
11
0.690401
21
0.0161842
0
LINE
8
BLACK
6
CONTINUOUS
10
0.690401
20
0.0161842
11
0.689267
21
0.00347992
0
LINE
8
BLACK
6
CONTINUOUS
10
0.689267
20
0.00347992
11
0.689601
21
-0.00927047
0
LINE
8
BLACK
6
CONTINUOUS
10
0.689601
20
-0.00927047
11
0.691398
21
-0.021898
0
LINE
8
BLACK
6
CONTINUOUS
10
0.677922
20
1.22953
11
0.681975
21
1.24296
0
LINE
8
BLACK
6
CONTINUOUS
10
0.681975
20
1.24296
11
0.687499
21
1.25585
0
LINE
8
BLACK
6
CONTINUOUS
10
0.687499
20
1.25585
11
0.694425
21
1.26804
0
LINE
8
BLACK
6
CONTINUOUS
10
0.694425
20
1.26804
11
0.702667
21
1.27938
0
LINE
8
BLACK
6
CONTINUOUS
10
0.702667
20
1.27938
11
0.712122
21
1.28974
0
LINE
8
BLACK
6
CONTINUOUS
10
0.712122
20
1.28974
11
0.722673
21
1.29897
0
LINE
8
BLACK
6
CONTINUOUS
10
0.722673
20
1.29897
11
0.734187
21
1.30698
0
LINE
8
BLACK
6
CONTINUOUS
10
0.734187
20
1.30698
11
0.746522
21
1.31365
0
LINE
8
BLACK
6
CONTINUOUS
10
0.746522
20
1.31365
11
0.759523
21
1.3189
0
LINE
8
BLACK
6
CONTINUOUS
10
0.759523
20
1.3189
11
0.773029
21
1.32267
0
LINE
8
BLACK
6
CONTINUOUS
10
0.773029
20
1.32267
11
0.786871
21
1.32491
0
LINE
8
BLACK
6
CONTINUOUS
10
0.786871
20
1.32491
11
0.800877
21
1.3256
0
LINE
8
BLACK
6
CONTINUOUS
10
0.800877
20
1.3256
11
0.814872
21
1.32472
0
LINE
8
BLACK
6
CONTINUOUS
10
0.814872
20
1.32472
11
0.828681
21
1.32228
0
LINE
8
BLACK
6
CONTINUOUS
10
0.828681
20
1.32228
11
0.842133
21
1.31832
0
LINE
8
BLACK
6
CONTINUOUS
10
0.842133
20
1.31832
11
0.855059
21
1.31289
0
LINE
8
BLACK
6
CONTINUOUS
10
0.855059
20
1.31289
11
0.8673
21
1.30605
0
LINE
8
BLACK
6
CONTINUOUS
10
0.8673
20
1.30605
11
0.878701
21
1.29788
0
LINE
8
BLACK
6
CONTINUOUS
10
0.878701
20
1.29788
11
0.889122
21
1.2885
0
LINE
8
BLACK
6
CONTINUOUS
10
0.889122
20
1.2885
11
0.898432
21
1.27802
0
LINE
8
BLACK
6
CONTINUOUS
10
0.898432
20
1.27802
11
0.906515
21
1.26656
0
LINE
8
BLACK
6
CONTINUOUS
10
0.906515
20
1.26656
11
0.91327
21
1.25427
0
LINE
8
BLACK
6
CONTINUOUS
10
0.91327
20
1.25427
11
0.918614
21
1.24131
0
LINE
8
BLACK
6
CONTINUOUS
10
0.918614
20
1.24131
11
0.922479
21
1.22783
0
LINE
8
BLACK
6
CONTINUOUS
10
0.922479
20
1.22783
11
0.924817
21
1.214
0
LINE
8
BLACK
6
CONTINUOUS
10
0.924817
20
1.214
11
0.9256
21
1.2
0
LINE
8
BLACK
6
CONTINUOUS
10
0.9256
20
1.2
11
0.925551
21
1.19649
0
LINE
8
BLACK
6
CONTINUOUS
10
0.925551
20
1.19649
11
0.924378
21
1.18252
0
LINE
8
BLACK
6
CONTINUOUS
10
0.924378
20
1.18252
11
0.921654
21
1.16876
0
LINE
8
BLACK
6
CONTINUOUS
10
0.921654
20
1.16876
11
0.917414
21
1.1554
0
LINE
8
BLACK
6
CONTINUOUS
10
0.917414
20
1.1554
11
0.911711
21
1.14259
0
LINE
8
BLACK
6
CONTINUOUS
10
0.911711
20
1.14259
11
0.904615
21
1.13049
0
LINE
8
BLACK
6
CONTINUOUS
10
0.904615
20
1.13049
11
0.896215
21
1.11927
0
LINE
8
BLACK
6
CONTINUOUS
10
0.896215
20
1.11927
11
0.886616
21
1.10904
0
LINE
8
BLACK
6
CONTINUOUS
10
0.886616
20
1.10904
11
0.875938
21
1.09996
0
LINE
8
BLACK
6
CONTINUOUS
10
0.875938
20
1.09996
11
0.864313
21
1.09211
0
LINE
8
BLACK
6
CONTINUOUS
10
0.864313
20
1.09211
11
0.851886
21
1.08562
0
LINE
8
BLACK
6
CONTINUOUS
10
0.851886
20
1.08562
11
0.838813
21
1.08055
0
LINE
8
BLACK
6
CONTINUOUS
10
0.838813
20
1.08055
11
0.825255
21
1.07697
0
LINE
8
BLACK
6
CONTINUOUS
10
0.825255
20
1.07697
11
0.811383
21
1.07492
0
LINE
8
BLACK
6
CONTINUOUS
10
0.811383
20
1.07492
11
0.79737
21
1.07443
0
LINE
8
BLACK
6
CONTINUOUS
10
0.79737
20
1.07443
11
0.783389
21
1.0755
0
LINE
8
BLACK
6
CONTINUOUS
10
0.783389
20
1.0755
11
0.769615
21
1.07813
0
LINE
8
BLACK
6
CONTINUOUS
10
0.769615
20
1.07813
11
0.756219
21
1.08228
0
LINE
8
BLACK
6
CONTINUOUS
10
0.756219
20
1.08228
11
0.74337
21
1.08789
0
LINE
8
BLACK
6
CONTINUOUS
10
0.74337
20
1.08789
11
0.731226
21
1.0949
0
LINE
8
BLACK
6
CONTINUOUS
10
0.731226
20
1.0949
11
0.71994
21
1.10322
0
LINE
8
BLACK
6
CONTINUOUS
10
0.71994
20
1.10322
11
0.709651
21
1.11275
0
LINE
8
BLACK
6
CONTINUOUS
10
0.709651
20
1.11275
11
0.700488
21
1.12337
0
LINE
8
BLACK
6
CONTINUOUS
10
0.700488
20
1.12337
11
0.692566
21
1.13494
0
LINE
8
BLACK
6
CONTINUOUS
10
0.692566
20
1.13494
11
0.685983
21
1.14732
0
LINE
8
BLACK
6
CONTINUOUS
10
0.685983
20
1.14732
11
0.680821
21
1.16035
0
LINE
8
BLACK
6
CONTINUOUS
10
0.680821
20
1.16035
11
0.677145
21
1.17389
0
LINE
8
BLACK
6
CONTINUOUS
10
0.677145
20
1.17389
11
0.674999
21
1.18774
0
LINE
8
BLACK
6
CONTINUOUS
10
0.674999
20
1.18774
11
0.674412
21
1.20175
0
LINE
8
BLACK
6
CONTINUOUS
10
0.674412
20
1.20175
11
0.674533
21
1.20348
0
LINE
8
BLACK
6
CONTINUOUS
10
0.674533
20
1.20348
11
0.67539
21
1.21574
0
LINE
8
BLACK
6
CONTINUOUS
10
0.67539
20
1.21574
11
0.677922
21
1.22953
0
LINE
8
BLACK
6
CONTINUOUS
10
0.691398
20
1.1781
11
0.694635
21
1.16576
0
LINE
8
BLACK
6
CONTINUOUS
10
0.694635
20
1.16576
11
0.699268
21
1.15388
0
LINE
8
BLACK
6
CONTINUOUS
10
0.699268
20
1.15388
11
0.705236
21
1.14261
0
LINE
8
BLACK
6
CONTINUOUS
10
0.705236
20
1.14261
11
0.712461
21
1.1321
0
LINE
8
BLACK
6
CONTINUOUS
10
0.712461
20
1.1321
11
0.720845
21
1.12249
0
LINE
8
BLACK
6
CONTINUOUS
10
0.720845
20
1.12249
11
0.730279
21
1.1139
0
LINE
8
BLACK
6
CONTINUOUS
10
0.730279
20
1.1139
11
0.740637
21
1.10646
0
LINE
8
BLACK
6
CONTINUOUS
10
0.740637
20
1.10646
11
0.751782
21
1.10026
0
LINE
8
BLACK
6
CONTINUOUS
10
0.751782
20
1.10026
11
0.763566
21
1.09537
0
LINE
8
BLACK
6
CONTINUOUS
10
0.763566
20
1.09537
11
0.775832
21
1.09188
0
LINE
8
BLACK
6
CONTINUOUS
10
0.775832
20
1.09188
11
0.78842
21
1.08982
0
LINE
8
BLACK
6
CONTINUOUS
10
0.78842
20
1.08982
11
0.80116
21
1.08922
0
LINE
8
BLACK
6
CONTINUOUS
10
0.80116
20
1.08922
11
0.813885
21
1.09009
0
LINE
8
BLACK
6
CONTINUOUS
10
0.813885
20
1.09009
11
0.826426
21
1.09241
0
LINE
8
BLACK
6
CONTINUOUS
10
0.826426
20
1.09241
11
0.838617
21
1.09616
0
LINE
8
BLACK
6
CONTINUOUS
10
0.838617
20
1.09616
11
0.850296
21
1.10129
0
LINE
8
BLACK
6
CONTINUOUS
10
0.850296
20
1.10129
11
0.861309
21
1.10772
0
LINE
8
BLACK
6
CONTINUOUS
10
0.861309
20
1.10772
11
0.871509
21
1.11538
0
LINE
8
BLACK
6
CONTINUOUS
10
0.871509
20
1.11538
11
0.880761
21
1.12416
0
LINE
8
BLACK
6
CONTINUOUS
10
0.880761
20
1.12416
11
0.888942
21
1.13395
0
LINE
8
BLACK
6
CONTINUOUS
10
0.888942
20
1.13395
11
0.895945
21
1.14461
0
LINE
8
BLACK
6
CONTINUOUS
10
0.895945
20
1.14461
11
0.901676
21
1.156
0
LINE
8
BLACK
6
CONTINUOUS
10
0.901676
20
1.156
11
0.906059
21
1.16798
0
LINE
8
BLACK
6
CONTINUOUS
10
0.906059
20
1.16798
11
0.909036
21
1.18038
0
LINE
8
BLACK
6
CONTINUOUS
10
0.909036
20
1.18038
11
0.910569
21
1.19304
0
LINE
8
BLACK
6
CONTINUOUS
10
0.910569
20
1.19304
11
0.910787
21
1.2
0
LINE
8
BLACK
6
CONTINUOUS
10
0.910787
20
1.2
11
0.910053
21
1.21273
0
LINE
8
BLACK
6
CONTINUOUS
10
0.910053
20
1.21273
11
0.90786
21
1.2253
0
LINE
8
BLACK
6
CONTINUOUS
10
0.90786
20
1.2253
11
0.904238
21
1.23753
0
LINE
8
BLACK
6
CONTINUOUS
10
0.904238
20
1.23753
11
0.899234
21
1.24926
0
LINE
8
BLACK
6
CONTINUOUS
10
0.899234
20
1.24926
11
0.892914
21
1.26034
0
LINE
8
BLACK
6
CONTINUOUS
10
0.892914
20
1.26034
11
0.885363
21
1.27062
0
LINE
8
BLACK
6
CONTINUOUS
10
0.885363
20
1.27062
11
0.876681
21
1.27996
0
LINE
8
BLACK
6
CONTINUOUS
10
0.876681
20
1.27996
11
0.866982
21
1.28825
0
LINE
8
BLACK
6
CONTINUOUS
10
0.866982
20
1.28825
11
0.856395
21
1.29536
0
LINE
8
BLACK
6
CONTINUOUS
10
0.856395
20
1.29536
11
0.845061
21
1.30121
0
LINE
8
BLACK
6
CONTINUOUS
10
0.845061
20
1.30121
11
0.83313
21
1.30572
0
LINE
8
BLACK
6
CONTINUOUS
10
0.83313
20
1.30572
11
0.820759
21
1.30883
0
LINE
8
BLACK
6
CONTINUOUS
10
0.820759
20
1.30883
11
0.808114
21
1.31049
0
LINE
8
BLACK
6
CONTINUOUS
10
0.808114
20
1.31049
11
0.795361
21
1.31069
0
LINE
8
BLACK
6
CONTINUOUS
10
0.795361
20
1.31069
11
0.782669
21
1.30942
0
LINE
8
BLACK
6
CONTINUOUS
10
0.782669
20
1.30942
11
0.770207
21
1.30671
0
LINE
8
BLACK
6
CONTINUOUS
10
0.770207
20
1.30671
11
0.75814
21
1.30257
0
LINE
8
BLACK
6
CONTINUOUS
10
0.75814
20
1.30257
11
0.746628
21
1.29708
0
LINE
8
BLACK
6
CONTINUOUS
10
0.746628
20
1.29708
11
0.735823
21
1.29031
0
LINE
8
BLACK
6
CONTINUOUS
10
0.735823
20
1.29031
11
0.725869
21
1.28233
0
LINE
8
BLACK
6
CONTINUOUS
10
0.725869
20
1.28233
11
0.716897
21
1.27327
0
LINE
8
BLACK
6
CONTINUOUS
10
0.716897
20
1.27327
11
0.709027
21
1.26323
0
LINE
8
BLACK
6
CONTINUOUS
10
0.709027
20
1.26323
11
0.702363
21
1.25235
0
LINE
8
BLACK
6
CONTINUOUS
10
0.702363
20
1.25235
11
0.696992
21
1.24078
0
LINE
8
BLACK
6
CONTINUOUS
10
0.696992
20
1.24078
11
0.692988
21
1.22867
0
LINE
8
BLACK
6
CONTINUOUS
10
0.692988
20
1.22867
11
0.690401
21
1.21618
0
LINE
8
BLACK
6
CONTINUOUS
10
0.690401
20
1.21618
11
0.689267
21
1.20348
0
LINE
8
BLACK
6
CONTINUOUS
10
0.689267
20
1.20348
11
0.689601
21
1.19073
0
LINE
8
BLACK
6
CONTINUOUS
10
0.689601
20
1.19073
11
0.691398
21
1.1781
0
LINE
8
BLACK
6
CONTINUOUS
10
-0.122078
20
1.22953
11
-0.118025
21
1.24296
0
LINE
8
BLACK
6
CONTINUOUS
10
-0.118025
20
1.24296
11
-0.112501
21
1.25585
0
LINE
8
BLACK
6
CONTINUOUS
10
-0.112501
20
1.25585
11
-0.105575
21
1.26804
0
LINE
8
BLACK
6
CONTINUOUS
10
-0.105575
20
1.26804
11
-0.097333
21
1.27938
0
LINE
8
BLACK
6
CONTINUOUS
10
-0.097333
20
1.27938
11
-0.0878777
21
1.28974
0
LINE
8
BLACK
6
CONTINUOUS
10
-0.0878777
20
1.28974
11
-0.0773271
21
1.29897
0
LINE
8
BLACK
6
CONTINUOUS
10
-0.0773271
20
1.29897
11
-0.0658126
21
1.30698
0
LINE
8
BLACK
6
CONTINUOUS
10
-0.0658126
20
1.30698
11
-0.0534779
21
1.31365
0
LINE
8
BLACK
6
CONTINUOUS
10
-0.0534779
20
1.31365
11
-0.0404766
21
1.3189
0
LINE
8
BLACK
6
CONTINUOUS
10
-0.0404766
20
1.3189
11
-0.0269707
21
1.32267
0
LINE
8
BLACK
6
CONTINUOUS
10
-0.0269707
20
1.32267
11
-0.0131288
21
1.32491
0
LINE
8
BLACK
6
CONTINUOUS
10
-0.0131288
20
1.32491
11
0.00087685
21
1.3256
0
LINE
8
BLACK
6
CONTINUOUS
10
0.00087685
20
1.3256
11
0.0148715
21
1.32472
0
LINE
8
BLACK
6
CONTINUOUS
10
0.0148715
20
1.32472
11
0.0286809
21
1.32228
0
LINE
8
BLACK
6
CONTINUOUS
10
0.0286809
20
1.32228
11
0.0421327
21
1.31832
0
LINE
8
BLACK
6
CONTINUOUS
10
0.0421327
20
1.31832
11
0.0550594
21
1.31289
0
LINE
8
BLACK
6
CONTINUOUS
10
0.0550594
20
1.31289
11
0.0672998
21
1.30605
0
LINE
8
BLACK
6
CONTINUOUS
10
0.0672998
20
1.30605
11
0.0787015
21
1.29788
0
LINE
8
BLACK
6
CONTINUOUS
10
0.0787015
20
1.29788
11
0.0891221
21
1.2885
0
LINE
8
BLACK
6
CONTINUOUS
10
0.0891221
20
1.2885
11
0.0984319
21
1.27802
0
LINE
8
BLACK
6
CONTINUOUS
10
0.0984319
20
1.27802
11
0.106515
21
1.26656
0
LINE
8
BLACK
6
CONTINUOUS
10
0.106515
20
1.26656
11
0.11327
21
1.25427
0
LINE
8
BLACK
6
CONTINUOUS
10
0.11327
20
1.25427
11
0.118614
21
1.24131
0
LINE
8
BLACK
6
CONTINUOUS
10
0.118614
20
1.24131
11
0.122479
21
1.22783
0
LINE
8
BLACK
6
CONTINUOUS
10
0.122479
20
1.22783
11
0.124817
21
1.214
0
LINE
8
BLACK
6
CONTINUOUS
10
0.124817
20
1.214
11
0.1256
21
1.2
0
LINE
8
BLACK
6
CONTINUOUS
10
0.1256
20
1.2
11
0.125551
21
1.19649
0
LINE
8
BLACK
6
CONTINUOUS
10
0.125551
20
1.19649
11
0.124378
21
1.18252
0
LINE
8
BLACK
6
CONTINUOUS
10
0.124378
20
1.18252
11
0.121654
21
1.16876
0
LINE
8
BLACK
6
CONTINUOUS
10
0.121654
20
1.16876
11
0.117414
21
1.1554
0
LINE
8
BLACK
6
CONTINUOUS
10
0.117414
20
1.1554
11
0.111711
21
1.14259
0
LINE
8
BLACK
6
CONTINUOUS
10
0.111711
20
1.14259
11
0.104615
21
1.13049
0
LINE
8
BLACK
6
CONTINUOUS
10
0.104615
20
1.13049
11
0.0962152
21
1.11927
0
LINE
8
BLACK
6
CONTINUOUS
10
0.0962152
20
1.11927
11
0.0866162
21
1.10904
0
LINE
8
BLACK
6
CONTINUOUS
10
0.0866162
20
1.10904
11
0.0759376
21
1.09996
0
LINE
8
BLACK
6
CONTINUOUS
10
0.0759376
20
1.09996
11
0.0643126
21
1.09211
0
LINE
8
BLACK
6
CONTINUOUS
10
0.0643126
20
1.09211
11
0.0518859
21
1.08562
0
LINE
8
BLACK
6
CONTINUOUS
10
0.0518859
20
1.08562
11
0.0388125
21
1.08055
0
LINE
8
BLACK
6
CONTINUOUS
10
0.0388125
20
1.08055
11
0.0252554
21
1.07697
0
LINE
8
BLACK
6
CONTINUOUS
10
0.0252554
20
1.07697
11
0.0113835
21
1.07492
0
LINE
8
BLACK
6
CONTINUOUS
10
0.0113835
20
1.07492
11
-0.00263035
21
1.07443
0
LINE
8
BLACK
6
CONTINUOUS
10
-0.00263035
20
1.07443
11
-0.0166114
21
1.0755
0
LINE
8
BLACK
6
CONTINUOUS
10
-0.0166114
20
1.0755
11
-0.0303854
21
1.07813
0
LINE
8
BLACK
6
CONTINUOUS
10
-0.0303854
20
1.07813
11
-0.0437806
21
1.08228
0
LINE
8
BLACK
6
CONTINUOUS
10
-0.0437806
20
1.08228
11
-0.0566302
21
1.08789
0
LINE
8
BLACK
6
CONTINUOUS
10
-0.0566302
20
1.08789
11
-0.0687739
21
1.0949
0
LINE
8
BLACK
6
CONTINUOUS
10
-0.0687739
20
1.0949
11
-0.0800605
21
1.10322
0
LINE
8
BLACK
6
CONTINUOUS
10
-0.0800605
20
1.10322
11
-0.0903491
21
1.11275
0
LINE
8
BLACK
6
CONTINUOUS
10
-0.0903491
20
1.11275
11
-0.0995116
21
1.12337
0
LINE
8
BLACK
6
CONTINUOUS
10
-0.0995116
20
1.12337
11
-0.107434
21
1.13494
0
LINE
8
BLACK
6
CONTINUOUS
10
-0.107434
20
1.13494
11
-0.114017
21
1.14732
0
LINE
8
BLACK
6
CONTINUOUS
10
-0.114017
20
1.14732
11
-0.119179
21
1.16035
0
LINE
8
BLACK
6
CONTINUOUS
10
-0.119179
20
1.16035
11
-0.122855
21
1.17389
0
LINE
8
BLACK
6
CONTINUOUS
10
-0.122855
20
1.17389
11
-0.125001
21
1.18774
0
LINE
8
BLACK
6
CONTINUOUS
10
-0.125001
20
1.18774
11
-0.125588
21
1.20175
0
LINE
8
BLACK
6
CONTINUOUS
10
-0.125588
20
1.20175
11
-0.125467
21
1.20348
0
LINE
8
BLACK
6
CONTINUOUS
10
-0.125467
20
1.20348
11
-0.12461
21
1.21574
0
LINE
8
BLACK
6
CONTINUOUS
10
-0.12461
20
1.21574
11
-0.122078
21
1.22953
0
LINE
8
BLACK
6
CONTINUOUS
10
-0.108602
20
1.1781
11
-0.105365
21
1.16576
0
LINE
8
BLACK
6
CONTINUOUS
10
-0.105365
20
1.16576
11
-0.100732
21
1.15388
0
LINE
8
BLACK
6
CONTINUOUS
10
-0.100732
20
1.15388
11
-0.0947636
21
1.14261
0
LINE
8
BLACK
6
CONTINUOUS
10
-0.0947636
20
1.14261
11
-0.0875393
21
1.1321
0
LINE
8
BLACK
6
CONTINUOUS
10
-0.0875393
20
1.1321
11
-0.0791546
21
1.12249
0
LINE
8
BLACK
6
CONTINUOUS
10
-0.0791546
20
1.12249
11
-0.0697208
21
1.1139
0
LINE
8
BLACK
6
CONTINUOUS
10
-0.0697208
20
1.1139
11
-0.0593629
21
1.10646
0
LINE
8
BLACK
6
CONTINUOUS
10
-0.0593629
20
1.10646
11
-0.0482181
21
1.10026
0
LINE
8
BLACK
6
CONTINUOUS
10
-0.0482181
20
1.10026
11
-0.0364343
21
1.09537
0
LINE
8
BLACK
6
CONTINUOUS
10
-0.0364343
20
1.09537
11
-0.0241675
21
1.09188
0
LINE
8
BLACK
6
CONTINUOUS
10
-0.0241675
20
1.09188
11
-0.0115804
21
1.08982
0
LINE
8
BLACK
6
CONTINUOUS
10
-0.0115804
20
1.08982
11
0.00116016
21
1.08922
0
LINE
8
BLACK
6
CONTINUOUS
10
0.00116016
20
1.08922
11
0.0138854
21
1.09009
0
LINE
8
BLACK
6
CONTINUOUS
10
0.0138854
20
1.09009
11
0.0264265
21
1.09241
0
LINE
8
BLACK
6
CONTINUOUS
10
0.0264265
20
1.09241
11
0.0386174
21
1.09616
0
LINE
8
BLACK
6
CONTINUOUS
10
0.0386174
20
1.09616
11
0.0502965
21
1.10129
0
LINE
8
BLACK
6
CONTINUOUS
10
0.0502965
20
1.10129
11
0.0613088
21
1.10772
0
LINE
8
BLACK
6
CONTINUOUS
10
0.0613088
20
1.10772
11
0.0715086
21
1.11538
0
LINE
8
BLACK
6
CONTINUOUS
10
0.0715086
20
1.11538
11
0.0807606
21
1.12416
0
LINE
8
BLACK
6
CONTINUOUS
10
0.0807606
20
1.12416
11
0.0889421
21
1.13395
0
LINE
8
BLACK
6
CONTINUOUS
10
0.0889421
20
1.13395
11
0.0959447
21
1.14461
0
LINE
8
BLACK
6
CONTINUOUS
10
0.0959447
20
1.14461
11
0.101676
21
1.156
0
LINE
8
BLACK
6
CONTINUOUS
10
0.101676
20
1.156
11
0.106059
21
1.16798
0
LINE
8
BLACK
6
CONTINUOUS
10
0.106059
20
1.16798
11
0.109036
21
1.18038
0
LINE
8
BLACK
6
CONTINUOUS
10
0.109036
20
1.18038
11
0.110569
21
1.19304
0
LINE
8
BLACK
6
CONTINUOUS
10
0.110569
20
1.19304
11
0.110787
21
1.2
0
LINE
8
BLACK
6
CONTINUOUS
10
0.110787
20
1.2
11
0.110053
21
1.21273
0
LINE
8
BLACK
6
CONTINUOUS
10
0.110053
20
1.21273
11
0.10786
21
1.2253
0
LINE
8
BLACK
6
CONTINUOUS
10
0.10786
20
1.2253
11
0.104238
21
1.23753
0
LINE
8
BLACK
6
CONTINUOUS
10
0.104238
20
1.23753
11
0.0992336
21
1.24926
0
LINE
8
BLACK
6
CONTINUOUS
10
0.0992336
20
1.24926
11
0.0929142
21
1.26034
0
LINE
8
BLACK
6
CONTINUOUS
10
0.0929142
20
1.26034
11
0.0853632
21
1.27062
0
LINE
8
BLACK
6
CONTINUOUS
10
0.0853632
20
1.27062
11
0.0766808
21
1.27996
0
LINE
8
BLACK
6
CONTINUOUS
10
0.0766808
20
1.27996
11
0.066982
21
1.28825
0
LINE
8
BLACK
6
CONTINUOUS
10
0.066982
20
1.28825
11
0.0563954
21
1.29536
0
LINE
8
BLACK
6
CONTINUOUS
10
0.0563954
20
1.29536
11
0.0450613
21
1.30121
0
LINE
8
BLACK
6
CONTINUOUS
10
0.0450613
20
1.30121
11
0.03313
21
1.30572
0
LINE
8
BLACK
6
CONTINUOUS
10
0.03313
20
1.30572
11
0.0207595
21
1.30883
0
LINE
8
BLACK
6
CONTINUOUS
10
0.0207595
20
1.30883
11
0.00811386
21
1.31049
0
LINE
8
BLACK
6
CONTINUOUS
10
0.00811386
20
1.31049
11
-0.00463929
21
1.31069
0
LINE
8
BLACK
6
CONTINUOUS
10
-0.00463929
20
1.31069
11
-0.017331
21
1.30942
0
LINE
8
BLACK
6
CONTINUOUS
10
-0.017331
20
1.30942
11
-0.029793
21
1.30671
0
LINE
8
BLACK
6
CONTINUOUS
10
-0.029793
20
1.30671
11
-0.04186
21
1.30257
0
LINE
8
BLACK
6
CONTINUOUS
10
-0.04186
20
1.30257
11
-0.0533722
21
1.29708
0
LINE
8
BLACK
6
CONTINUOUS
10
-0.0533722
20
1.29708
11
-0.0641771
21
1.29031
0
LINE
8
BLACK
6
CONTINUOUS
10
-0.0641771
20
1.29031
11
-0.0741313
21
1.28233
0
LINE
8
BLACK
6
CONTINUOUS
10
-0.0741313
20
1.28233
11
-0.0831029
21
1.27327
0
LINE
8
BLACK
6
CONTINUOUS
10
-0.0831029
20
1.27327
11
-0.090973
21
1.26323
0
LINE
8
BLACK
6
CONTINUOUS
10
-0.090973
20
1.26323
11
-0.0976374
21
1.25235
0
LINE
8
BLACK
6
CONTINUOUS
10
-0.0976374
20
1.25235
11
-0.103008
21
1.24078
0
LINE
8
BLACK
6
CONTINUOUS
10
-0.103008
20
1.24078
11
-0.107012
21
1.22867
0
LINE
8
BLACK
6
CONTINUOUS
10
-0.107012
20
1.22867
11
-0.109599
21
1.21618
0
LINE
8
BLACK
6
CONTINUOUS
10
-0.109599
20
1.21618
11
-0.110733
21
1.20348
0
LINE
8
BLACK
6
CONTINUOUS
10
-0.110733
20
1.20348
11
-0.110399
21
1.19073
0
LINE
8
BLACK
6
CONTINUOUS
10
-0.110399
20
1.19073
11
-0.108602
21
1.1781
  0
ENDSEC
  0
EOF
