  0
SECTION
  2
HEADER
  9
$ANGBASE
  50
0.0
  9
$ANGDIR
  70
1
  9
$MEASUREMENT
  70
0
  0
ENDSEC
  0
SECTION
  2
TABLES
  0
TABLE
  2
LTYPE
  70
4
  0
LTYPE
  5
40F
  2
CONTINUOUS
  70
0
  3
Solid line
  72
65
  73
0
  40
0.0
  0
LTYPE
  5
410
  2
DASHDOT
 70
0
  3
Dash Dot ____ _ ____ _
 72
65
 73
4
 40
2.0
 49
1.25
 49
-0.25
 49
0.25
 49
-0.25
  0
LTYPE
  5
411
  2
DASHED
 70
0
  3
Dashed __ __ __ __ __
 72
65
 73
2
 40
0.75
 49
0.5
 49
-0.25
  0
LTYPE
  5
43B
  2
DOTTED
 70
0
  3
Dotted .  .  .  .
 72
65
 73
2
 40
0.2
 49
0.0
 49
-0.2
  0
ENDTAB
  0
TABLE
  2
STYLE
  70
4
  0
STYLE
  2
KICAD
  70
0
  40
0
  41
1
  42
1
  50
0
  71
0
  3
isocp.shx
  0
STYLE
  2
KICADB
  70
0
  40
0
  41
1
  42
1
  50
0
  71
0
  3
isocp.shx
  0
STYLE
  2
KICADI
  70
0
  40
0
  41
1
  42
1
  50
15
  71
0
  3
isocp.shx
  0
STYLE
  2
KICADBI
  70
0
  40
0
  41
1
  42
1
  50
15
  71
0
  3
isocp.shx
  0
ENDTAB
  0
TABLE
  2
LAYER
  70
1
  0
LAYER
  2
BLACK
  70
0
  62
7
  6
CONTINUOUS
  0
ENDTAB
  0
ENDSEC
  0
SECTION
  2
ENTITIES
0
LINE
8
BLACK
6
CONTINUOUS
10
0.44101
20
-0.134021
11
0.442557
21
-0.135319
0
LINE
8
BLACK
6
CONTINUOUS
10
0.442557
20
-0.135319
11
0.442908
21
-0.137308
0
LINE
8
BLACK
6
CONTINUOUS
10
0.442908
20
-0.137308
11
0.441898
21
-0.139057
0
LINE
8
BLACK
6
CONTINUOUS
10
0.441898
20
-0.139057
11
0.44
21
-0.139748
0
LINE
8
BLACK
6
CONTINUOUS
10
0.44
20
-0.139748
11
0.36
21
-0.139748
0
LINE
8
BLACK
6
CONTINUOUS
10
0.36
20
-0.139748
11
0.35899
21
-0.13957
0
LINE
8
BLACK
6
CONTINUOUS
10
0.35899
20
-0.13957
11
0.357443
21
-0.138272
0
LINE
8
BLACK
6
CONTINUOUS
10
0.357443
20
-0.138272
11
0.357092
21
-0.136283
0
LINE
8
BLACK
6
CONTINUOUS
10
0.357092
20
-0.136283
11
0.358102
21
-0.134533
0
LINE
8
BLACK
6
CONTINUOUS
10
0.358102
20
-0.134533
11
0.36
21
-0.133843
0
LINE
8
BLACK
6
CONTINUOUS
10
0.36
20
-0.133843
11
0.44
21
-0.133843
0
LINE
8
BLACK
6
CONTINUOUS
10
0.44
20
-0.133843
11
0.44101
21
-0.134021
0
LINE
8
BLACK
6
CONTINUOUS
10
0.264467
20
0.041898
11
0.265157
21
0.04
0
LINE
8
BLACK
6
CONTINUOUS
10
0.265157
20
0.04
11
0.265157
21
-0.04
0
LINE
8
BLACK
6
CONTINUOUS
10
0.265157
20
-0.04
11
0.264979
21
-0.0410099
0
LINE
8
BLACK
6
CONTINUOUS
10
0.264979
20
-0.0410099
11
0.263681
21
-0.0425572
0
LINE
8
BLACK
6
CONTINUOUS
10
0.263681
20
-0.0425572
11
0.261692
21
-0.0429079
0
LINE
8
BLACK
6
CONTINUOUS
10
0.261692
20
-0.0429079
11
0.259943
21
-0.041898
0
LINE
8
BLACK
6
CONTINUOUS
10
0.259943
20
-0.041898
11
0.259252
21
-0.04
0
LINE
8
BLACK
6
CONTINUOUS
10
0.259252
20
-0.04
11
0.259252
21
0.04
0
LINE
8
BLACK
6
CONTINUOUS
10
0.259252
20
0.04
11
0.25943
21
0.0410099
0
LINE
8
BLACK
6
CONTINUOUS
10
0.25943
20
0.0410099
11
0.260728
21
0.0425572
0
LINE
8
BLACK
6
CONTINUOUS
10
0.260728
20
0.0425572
11
0.262717
21
0.0429079
0
LINE
8
BLACK
6
CONTINUOUS
10
0.262717
20
0.0429079
11
0.264467
21
0.041898
0
LINE
8
BLACK
6
CONTINUOUS
10
0.540057
20
0.041898
11
0.540748
21
0.04
0
LINE
8
BLACK
6
CONTINUOUS
10
0.540748
20
0.04
11
0.540748
21
-0.04
0
LINE
8
BLACK
6
CONTINUOUS
10
0.540748
20
-0.04
11
0.54057
21
-0.0410099
0
LINE
8
BLACK
6
CONTINUOUS
10
0.54057
20
-0.0410099
11
0.539272
21
-0.0425572
0
LINE
8
BLACK
6
CONTINUOUS
10
0.539272
20
-0.0425572
11
0.537283
21
-0.0429079
0
LINE
8
BLACK
6
CONTINUOUS
10
0.537283
20
-0.0429079
11
0.535533
21
-0.041898
0
LINE
8
BLACK
6
CONTINUOUS
10
0.535533
20
-0.041898
11
0.534843
21
-0.04
0
LINE
8
BLACK
6
CONTINUOUS
10
0.534843
20
-0.04
11
0.534843
21
0.04
0
LINE
8
BLACK
6
CONTINUOUS
10
0.534843
20
0.04
11
0.535021
21
0.0410099
0
LINE
8
BLACK
6
CONTINUOUS
10
0.535021
20
0.0410099
11
0.536319
21
0.0425572
0
LINE
8
BLACK
6
CONTINUOUS
10
0.536319
20
0.0425572
11
0.538308
21
0.0429079
0
LINE
8
BLACK
6
CONTINUOUS
10
0.538308
20
0.0429079
11
0.540057
21
0.041898
0
LINE
8
BLACK
6
CONTINUOUS
10
0.44101
20
0.14057
11
0.442557
21
0.139272
0
LINE
8
BLACK
6
CONTINUOUS
10
0.442557
20
0.139272
11
0.442908
21
0.137283
0
LINE
8
BLACK
6
CONTINUOUS
10
0.442908
20
0.137283
11
0.441898
21
0.135533
0
LINE
8
BLACK
6
CONTINUOUS
10
0.441898
20
0.135533
11
0.44
21
0.134843
0
LINE
8
BLACK
6
CONTINUOUS
10
0.44
20
0.134843
11
0.36
21
0.134843
0
LINE
8
BLACK
6
CONTINUOUS
10
0.36
20
0.134843
11
0.35899
21
0.135021
0
LINE
8
BLACK
6
CONTINUOUS
10
0.35899
20
0.135021
11
0.357443
21
0.136319
0
LINE
8
BLACK
6
CONTINUOUS
10
0.357443
20
0.136319
11
0.357092
21
0.138308
0
LINE
8
BLACK
6
CONTINUOUS
10
0.357092
20
0.138308
11
0.358102
21
0.140057
0
LINE
8
BLACK
6
CONTINUOUS
10
0.358102
20
0.140057
11
0.36
21
0.140748
0
LINE
8
BLACK
6
CONTINUOUS
10
0.36
20
0.140748
11
0.44
21
0.140748
0
LINE
8
BLACK
6
CONTINUOUS
10
0.44
20
0.140748
11
0.44101
21
0.14057
0
LINE
8
BLACK
6
CONTINUOUS
10
0.78
20
0.22
11
0.72
21
0.22
0
LINE
8
BLACK
6
CONTINUOUS
10
0.72
20
0.22
11
0.72
21
0.28
0
LINE
8
BLACK
6
CONTINUOUS
10
0.72
20
0.28
11
0.78
21
0.28
0
LINE
8
BLACK
6
CONTINUOUS
10
0.78
20
0.28
11
0.78
21
0.22
0
LINE
8
BLACK
6
CONTINUOUS
10
0.88
20
0.22
11
0.82
21
0.22
0
LINE
8
BLACK
6
CONTINUOUS
10
0.82
20
0.22
11
0.82
21
0.28
0
LINE
8
BLACK
6
CONTINUOUS
10
0.82
20
0.28
11
0.88
21
0.28
0
LINE
8
BLACK
6
CONTINUOUS
10
0.88
20
0.28
11
0.88
21
0.22
0
LINE
8
BLACK
6
CONTINUOUS
10
0.78
20
0.32
11
0.72
21
0.32
0
LINE
8
BLACK
6
CONTINUOUS
10
0.72
20
0.32
11
0.72
21
0.38
0
LINE
8
BLACK
6
CONTINUOUS
10
0.72
20
0.38
11
0.78
21
0.38
0
LINE
8
BLACK
6
CONTINUOUS
10
0.78
20
0.38
11
0.78
21
0.32
0
LINE
8
BLACK
6
CONTINUOUS
10
0.88
20
0.32
11
0.82
21
0.32
0
LINE
8
BLACK
6
CONTINUOUS
10
0.82
20
0.32
11
0.82
21
0.38
0
LINE
8
BLACK
6
CONTINUOUS
10
0.82
20
0.38
11
0.88
21
0.38
0
LINE
8
BLACK
6
CONTINUOUS
10
0.88
20
0.38
11
0.88
21
0.32
0
LINE
8
BLACK
6
CONTINUOUS
10
0.78
20
0.42
11
0.72
21
0.42
0
LINE
8
BLACK
6
CONTINUOUS
10
0.72
20
0.42
11
0.72
21
0.48
0
LINE
8
BLACK
6
CONTINUOUS
10
0.72
20
0.48
11
0.78
21
0.48
0
LINE
8
BLACK
6
CONTINUOUS
10
0.78
20
0.48
11
0.78
21
0.42
0
LINE
8
BLACK
6
CONTINUOUS
10
0.88
20
0.42
11
0.82
21
0.42
0
LINE
8
BLACK
6
CONTINUOUS
10
0.82
20
0.42
11
0.82
21
0.48
0
LINE
8
BLACK
6
CONTINUOUS
10
0.82
20
0.48
11
0.88
21
0.48
0
LINE
8
BLACK
6
CONTINUOUS
10
0.88
20
0.48
11
0.88
21
0.42
0
LINE
8
BLACK
6
CONTINUOUS
10
0.78
20
0.52
11
0.72
21
0.52
0
LINE
8
BLACK
6
CONTINUOUS
10
0.72
20
0.52
11
0.72
21
0.58
0
LINE
8
BLACK
6
CONTINUOUS
10
0.72
20
0.58
11
0.78
21
0.58
0
LINE
8
BLACK
6
CONTINUOUS
10
0.78
20
0.58
11
0.78
21
0.52
0
LINE
8
BLACK
6
CONTINUOUS
10
0.88
20
0.52
11
0.82
21
0.52
0
LINE
8
BLACK
6
CONTINUOUS
10
0.82
20
0.52
11
0.82
21
0.58
0
LINE
8
BLACK
6
CONTINUOUS
10
0.82
20
0.58
11
0.88
21
0.58
0
LINE
8
BLACK
6
CONTINUOUS
10
0.88
20
0.58
11
0.88
21
0.52
0
LINE
8
BLACK
6
CONTINUOUS
10
0.78
20
0.62
11
0.72
21
0.62
0
LINE
8
BLACK
6
CONTINUOUS
10
0.72
20
0.62
11
0.72
21
0.68
0
LINE
8
BLACK
6
CONTINUOUS
10
0.72
20
0.68
11
0.78
21
0.68
0
LINE
8
BLACK
6
CONTINUOUS
10
0.78
20
0.68
11
0.78
21
0.62
0
LINE
8
BLACK
6
CONTINUOUS
10
0.88
20
0.62
11
0.82
21
0.62
0
LINE
8
BLACK
6
CONTINUOUS
10
0.82
20
0.62
11
0.82
21
0.68
0
LINE
8
BLACK
6
CONTINUOUS
10
0.82
20
0.68
11
0.88
21
0.68
0
LINE
8
BLACK
6
CONTINUOUS
10
0.88
20
0.68
11
0.88
21
0.62
0
LINE
8
BLACK
6
CONTINUOUS
10
0.78
20
0.72
11
0.72
21
0.72
0
LINE
8
BLACK
6
CONTINUOUS
10
0.72
20
0.72
11
0.72
21
0.78
0
LINE
8
BLACK
6
CONTINUOUS
10
0.72
20
0.78
11
0.78
21
0.78
0
LINE
8
BLACK
6
CONTINUOUS
10
0.78
20
0.78
11
0.78
21
0.72
0
LINE
8
BLACK
6
CONTINUOUS
10
0.88
20
0.72
11
0.82
21
0.72
0
LINE
8
BLACK
6
CONTINUOUS
10
0.82
20
0.72
11
0.82
21
0.78
0
LINE
8
BLACK
6
CONTINUOUS
10
0.82
20
0.78
11
0.88
21
0.78
0
LINE
8
BLACK
6
CONTINUOUS
10
0.88
20
0.78
11
0.88
21
0.72
0
LINE
8
BLACK
6
CONTINUOUS
10
0.78
20
0.82
11
0.72
21
0.82
0
LINE
8
BLACK
6
CONTINUOUS
10
0.72
20
0.82
11
0.72
21
0.88
0
LINE
8
BLACK
6
CONTINUOUS
10
0.72
20
0.88
11
0.78
21
0.88
0
LINE
8
BLACK
6
CONTINUOUS
10
0.78
20
0.88
11
0.78
21
0.82
0
LINE
8
BLACK
6
CONTINUOUS
10
0.88
20
0.82
11
0.82
21
0.82
0
LINE
8
BLACK
6
CONTINUOUS
10
0.82
20
0.82
11
0.82
21
0.88
0
LINE
8
BLACK
6
CONTINUOUS
10
0.82
20
0.88
11
0.88
21
0.88
0
LINE
8
BLACK
6
CONTINUOUS
10
0.88
20
0.88
11
0.88
21
0.82
0
LINE
8
BLACK
6
CONTINUOUS
10
0.78
20
0.92
11
0.72
21
0.92
0
LINE
8
BLACK
6
CONTINUOUS
10
0.72
20
0.92
11
0.72
21
0.98
0
LINE
8
BLACK
6
CONTINUOUS
10
0.72
20
0.98
11
0.78
21
0.98
0
LINE
8
BLACK
6
CONTINUOUS
10
0.78
20
0.98
11
0.78
21
0.92
0
LINE
8
BLACK
6
CONTINUOUS
10
0.88
20
0.92
11
0.82
21
0.92
0
LINE
8
BLACK
6
CONTINUOUS
10
0.82
20
0.92
11
0.82
21
0.98
0
LINE
8
BLACK
6
CONTINUOUS
10
0.82
20
0.98
11
0.88
21
0.98
0
LINE
8
BLACK
6
CONTINUOUS
10
0.88
20
0.98
11
0.88
21
0.92
0
LINE
8
BLACK
6
CONTINUOUS
10
0.900384
20
1.00289
11
0.900513
21
1.00291
0
LINE
8
BLACK
6
CONTINUOUS
10
0.900513
20
1.00291
11
0.900626
21
1.00284
0
LINE
8
BLACK
6
CONTINUOUS
10
0.900626
20
1.00284
11
0.90101
21
1.00277
0
LINE
8
BLACK
6
CONTINUOUS
10
0.90101
20
1.00277
11
0.901598
21
1.00228
0
LINE
8
BLACK
6
CONTINUOUS
10
0.901598
20
1.00228
11
0.902262
21
1.0019
0
LINE
8
BLACK
6
CONTINUOUS
10
0.902262
20
1.0019
11
0.902353
21
1.00165
0
LINE
8
BLACK
6
CONTINUOUS
10
0.902353
20
1.00165
11
0.902557
21
1.00148
0
LINE
8
BLACK
6
CONTINUOUS
10
0.902557
20
1.00148
11
0.90269
21
1.00072
0
LINE
8
BLACK
6
CONTINUOUS
10
0.90269
20
1.00072
11
0.902953
21
1
0
LINE
8
BLACK
6
CONTINUOUS
10
0.902953
20
1
11
0.902953
21
0.6
0
LINE
8
BLACK
6
CONTINUOUS
10
0.902953
20
0.6
11
0.902953
21
0.2
0
LINE
8
BLACK
6
CONTINUOUS
10
0.902953
20
0.2
11
0.902885
21
0.199616
0
LINE
8
BLACK
6
CONTINUOUS
10
0.902885
20
0.199616
11
0.902908
21
0.199487
0
LINE
8
BLACK
6
CONTINUOUS
10
0.902908
20
0.199487
11
0.902842
21
0.199374
0
LINE
8
BLACK
6
CONTINUOUS
10
0.902842
20
0.199374
11
0.902775
21
0.19899
0
LINE
8
BLACK
6
CONTINUOUS
10
0.902775
20
0.19899
11
0.902282
21
0.198402
0
LINE
8
BLACK
6
CONTINUOUS
10
0.902282
20
0.198402
11
0.901898
21
0.197738
0
LINE
8
BLACK
6
CONTINUOUS
10
0.901898
20
0.197738
11
0.901648
21
0.197647
0
LINE
8
BLACK
6
CONTINUOUS
10
0.901648
20
0.197647
11
0.901476
21
0.197443
0
LINE
8
BLACK
6
CONTINUOUS
10
0.901476
20
0.197443
11
0.900721
21
0.19731
0
LINE
8
BLACK
6
CONTINUOUS
10
0.900721
20
0.19731
11
0.9
21
0.197047
0
LINE
8
BLACK
6
CONTINUOUS
10
0.9
20
0.197047
11
0.7
21
0.197047
0
LINE
8
BLACK
6
CONTINUOUS
10
0.7
20
0.197047
11
0.699616
21
0.197115
0
LINE
8
BLACK
6
CONTINUOUS
10
0.699616
20
0.197115
11
0.699487
21
0.197092
0
LINE
8
BLACK
6
CONTINUOUS
10
0.699487
20
0.197092
11
0.699374
21
0.197158
0
LINE
8
BLACK
6
CONTINUOUS
10
0.699374
20
0.197158
11
0.69899
21
0.197225
0
LINE
8
BLACK
6
CONTINUOUS
10
0.69899
20
0.197225
11
0.698402
21
0.197718
0
LINE
8
BLACK
6
CONTINUOUS
10
0.698402
20
0.197718
11
0.697738
21
0.198102
0
LINE
8
BLACK
6
CONTINUOUS
10
0.697738
20
0.198102
11
0.697647
21
0.198352
0
LINE
8
BLACK
6
CONTINUOUS
10
0.697647
20
0.198352
11
0.697443
21
0.198524
0
LINE
8
BLACK
6
CONTINUOUS
10
0.697443
20
0.198524
11
0.69731
21
0.199279
0
LINE
8
BLACK
6
CONTINUOUS
10
0.69731
20
0.199279
11
0.697047
21
0.2
0
LINE
8
BLACK
6
CONTINUOUS
10
0.697047
20
0.2
11
0.697047
21
0.6
0
LINE
8
BLACK
6
CONTINUOUS
10
0.697047
20
0.6
11
0.697047
21
0.6
0
LINE
8
BLACK
6
CONTINUOUS
10
0.697047
20
0.6
11
0.697047
21
1
0
LINE
8
BLACK
6
CONTINUOUS
10
0.697047
20
1
11
0.697115
21
1.00038
0
LINE
8
BLACK
6
CONTINUOUS
10
0.697115
20
1.00038
11
0.697092
21
1.00051
0
LINE
8
BLACK
6
CONTINUOUS
10
0.697092
20
1.00051
11
0.697158
21
1.00063
0
LINE
8
BLACK
6
CONTINUOUS
10
0.697158
20
1.00063
11
0.697225
21
1.00101
0
LINE
8
BLACK
6
CONTINUOUS
10
0.697225
20
1.00101
11
0.697718
21
1.0016
0
LINE
8
BLACK
6
CONTINUOUS
10
0.697718
20
1.0016
11
0.698102
21
1.00226
0
LINE
8
BLACK
6
CONTINUOUS
10
0.698102
20
1.00226
11
0.698352
21
1.00235
0
LINE
8
BLACK
6
CONTINUOUS
10
0.698352
20
1.00235
11
0.698524
21
1.00256
0
LINE
8
BLACK
6
CONTINUOUS
10
0.698524
20
1.00256
11
0.699279
21
1.00269
0
LINE
8
BLACK
6
CONTINUOUS
10
0.699279
20
1.00269
11
0.7
21
1.00295
0
LINE
8
BLACK
6
CONTINUOUS
10
0.7
20
1.00295
11
0.9
21
1.00295
0
LINE
8
BLACK
6
CONTINUOUS
10
0.9
20
1.00295
11
0.900384
21
1.00289
0
LINE
8
BLACK
6
CONTINUOUS
10
0.702953
20
0.597047
11
0.702953
21
0.202953
0
LINE
8
BLACK
6
CONTINUOUS
10
0.702953
20
0.202953
11
0.897047
21
0.202953
0
LINE
8
BLACK
6
CONTINUOUS
10
0.897047
20
0.202953
11
0.897047
21
0.597047
0
LINE
8
BLACK
6
CONTINUOUS
10
0.897047
20
0.597047
11
0.702953
21
0.597047
0
LINE
8
BLACK
6
CONTINUOUS
10
0.702953
20
0.997047
11
0.702953
21
0.602953
0
LINE
8
BLACK
6
CONTINUOUS
10
0.702953
20
0.602953
11
0.897047
21
0.602953
0
LINE
8
BLACK
6
CONTINUOUS
10
0.897047
20
0.602953
11
0.897047
21
0.997047
0
LINE
8
BLACK
6
CONTINUOUS
10
0.897047
20
0.997047
11
0.702953
21
0.997047
0
LINE
8
BLACK
6
CONTINUOUS
10
0.355836
20
0.253184
11
0.356568
21
0.251417
0
LINE
8
BLACK
6
CONTINUOUS
10
0.356568
20
0.251417
11
0.355836
21
0.249649
0
LINE
8
BLACK
6
CONTINUOUS
10
0.355836
20
0.249649
11
0.354068
21
0.248917
0
LINE
8
BLACK
6
CONTINUOUS
10
0.354068
20
0.248917
11
0.34532
21
0.248917
0
LINE
8
BLACK
6
CONTINUOUS
10
0.34532
20
0.248917
11
0.34532
21
0.212047
0
LINE
8
BLACK
6
CONTINUOUS
10
0.34532
20
0.212047
11
0.344587
21
0.210279
0
LINE
8
BLACK
6
CONTINUOUS
10
0.344587
20
0.210279
11
0.34282
21
0.209547
0
LINE
8
BLACK
6
CONTINUOUS
10
0.34282
20
0.209547
11
0.341052
21
0.210279
0
LINE
8
BLACK
6
CONTINUOUS
10
0.341052
20
0.210279
11
0.34032
21
0.212047
0
LINE
8
BLACK
6
CONTINUOUS
10
0.34032
20
0.212047
11
0.34032
21
0.248917
0
LINE
8
BLACK
6
CONTINUOUS
10
0.34032
20
0.248917
11
0.331571
21
0.248917
0
LINE
8
BLACK
6
CONTINUOUS
10
0.331571
20
0.248917
11
0.329803
21
0.249649
0
LINE
8
BLACK
6
CONTINUOUS
10
0.329803
20
0.249649
11
0.329071
21
0.251417
0
LINE
8
BLACK
6
CONTINUOUS
10
0.329071
20
0.251417
11
0.329803
21
0.253184
0
LINE
8
BLACK
6
CONTINUOUS
10
0.329803
20
0.253184
11
0.331571
21
0.253917
0
LINE
8
BLACK
6
CONTINUOUS
10
0.331571
20
0.253917
11
0.354068
21
0.253917
0
LINE
8
BLACK
6
CONTINUOUS
10
0.354068
20
0.253917
11
0.355836
21
0.253184
0
LINE
8
BLACK
6
CONTINUOUS
10
0.368959
20
0.253184
11
0.369692
21
0.251417
0
LINE
8
BLACK
6
CONTINUOUS
10
0.369692
20
0.251417
11
0.369692
21
0.214547
0
LINE
8
BLACK
6
CONTINUOUS
10
0.369692
20
0.214547
11
0.385939
21
0.214547
0
LINE
8
BLACK
6
CONTINUOUS
10
0.385939
20
0.214547
11
0.387707
21
0.213814
0
LINE
8
BLACK
6
CONTINUOUS
10
0.387707
20
0.213814
11
0.388439
21
0.212047
0
LINE
8
BLACK
6
CONTINUOUS
10
0.388439
20
0.212047
11
0.387707
21
0.210279
0
LINE
8
BLACK
6
CONTINUOUS
10
0.387707
20
0.210279
11
0.385939
21
0.209547
0
LINE
8
BLACK
6
CONTINUOUS
10
0.385939
20
0.209547
11
0.367192
21
0.209547
0
LINE
8
BLACK
6
CONTINUOUS
10
0.367192
20
0.209547
11
0.365424
21
0.210279
0
LINE
8
BLACK
6
CONTINUOUS
10
0.365424
20
0.210279
11
0.364692
21
0.212047
0
LINE
8
BLACK
6
CONTINUOUS
10
0.364692
20
0.212047
11
0.364692
21
0.251417
0
LINE
8
BLACK
6
CONTINUOUS
10
0.364692
20
0.251417
11
0.365424
21
0.253184
0
LINE
8
BLACK
6
CONTINUOUS
10
0.365424
20
0.253184
11
0.367192
21
0.253917
0
LINE
8
BLACK
6
CONTINUOUS
10
0.367192
20
0.253917
11
0.368959
21
0.253184
0
LINE
8
BLACK
6
CONTINUOUS
10
0.449574
20
0.243811
11
0.450307
21
0.242043
0
LINE
8
BLACK
6
CONTINUOUS
10
0.450307
20
0.242043
11
0.450307
21
0.229545
0
LINE
8
BLACK
6
CONTINUOUS
10
0.450307
20
0.229545
11
0.462805
21
0.229545
0
LINE
8
BLACK
6
CONTINUOUS
10
0.462805
20
0.229545
11
0.464572
21
0.228813
0
LINE
8
BLACK
6
CONTINUOUS
10
0.464572
20
0.228813
11
0.465305
21
0.227045
0
LINE
8
BLACK
6
CONTINUOUS
10
0.465305
20
0.227045
11
0.464572
21
0.225277
0
LINE
8
BLACK
6
CONTINUOUS
10
0.464572
20
0.225277
11
0.462805
21
0.224545
0
LINE
8
BLACK
6
CONTINUOUS
10
0.462805
20
0.224545
11
0.450307
21
0.224545
0
LINE
8
BLACK
6
CONTINUOUS
10
0.450307
20
0.224545
11
0.450307
21
0.212047
0
LINE
8
BLACK
6
CONTINUOUS
10
0.450307
20
0.212047
11
0.449574
21
0.210279
0
LINE
8
BLACK
6
CONTINUOUS
10
0.449574
20
0.210279
11
0.447807
21
0.209547
0
LINE
8
BLACK
6
CONTINUOUS
10
0.447807
20
0.209547
11
0.446039
21
0.210279
0
LINE
8
BLACK
6
CONTINUOUS
10
0.446039
20
0.210279
11
0.445307
21
0.212047
0
LINE
8
BLACK
6
CONTINUOUS
10
0.445307
20
0.212047
11
0.445307
21
0.224545
0
LINE
8
BLACK
6
CONTINUOUS
10
0.445307
20
0.224545
11
0.432808
21
0.224545
0
LINE
8
BLACK
6
CONTINUOUS
10
0.432808
20
0.224545
11
0.431041
21
0.225277
0
LINE
8
BLACK
6
CONTINUOUS
10
0.431041
20
0.225277
11
0.430308
21
0.227045
0
LINE
8
BLACK
6
CONTINUOUS
10
0.430308
20
0.227045
11
0.431041
21
0.228813
0
LINE
8
BLACK
6
CONTINUOUS
10
0.431041
20
0.228813
11
0.432808
21
0.229545
0
LINE
8
BLACK
6
CONTINUOUS
10
0.432808
20
0.229545
11
0.445307
21
0.229545
0
LINE
8
BLACK
6
CONTINUOUS
10
0.445307
20
0.229545
11
0.445307
21
0.242043
0
LINE
8
BLACK
6
CONTINUOUS
10
0.445307
20
0.242043
11
0.446039
21
0.243811
0
LINE
8
BLACK
6
CONTINUOUS
10
0.446039
20
0.243811
11
0.447807
21
0.244543
0
LINE
8
BLACK
6
CONTINUOUS
10
0.447807
20
0.244543
11
0.449574
21
0.243811
0
LINE
8
BLACK
6
CONTINUOUS
10
0.421921
20
0.252535
11
0.422057
21
0.250626
0
LINE
8
BLACK
6
CONTINUOUS
10
0.422057
20
0.250626
11
0.408933
21
0.211256
0
LINE
8
BLACK
6
CONTINUOUS
10
0.408933
20
0.211256
11
0.408811
21
0.211115
0
LINE
8
BLACK
6
CONTINUOUS
10
0.408811
20
0.211115
11
0.408798
21
0.210929
0
LINE
8
BLACK
6
CONTINUOUS
10
0.408798
20
0.210929
11
0.408199
21
0.210409
0
LINE
8
BLACK
6
CONTINUOUS
10
0.408199
20
0.210409
11
0.40768
21
0.209811
0
LINE
8
BLACK
6
CONTINUOUS
10
0.40768
20
0.209811
11
0.407493
21
0.209797
0
LINE
8
BLACK
6
CONTINUOUS
10
0.407493
20
0.209797
11
0.407352
21
0.209675
0
LINE
8
BLACK
6
CONTINUOUS
10
0.407352
20
0.209675
11
0.406562
21
0.209731
0
LINE
8
BLACK
6
CONTINUOUS
10
0.406562
20
0.209731
11
0.405771
21
0.209675
0
LINE
8
BLACK
6
CONTINUOUS
10
0.405771
20
0.209675
11
0.40563
21
0.209797
0
LINE
8
BLACK
6
CONTINUOUS
10
0.40563
20
0.209797
11
0.405444
21
0.209811
0
LINE
8
BLACK
6
CONTINUOUS
10
0.405444
20
0.209811
11
0.404924
21
0.210409
0
LINE
8
BLACK
6
CONTINUOUS
10
0.404924
20
0.210409
11
0.404326
21
0.210929
0
LINE
8
BLACK
6
CONTINUOUS
10
0.404326
20
0.210929
11
0.404312
21
0.211115
0
LINE
8
BLACK
6
CONTINUOUS
10
0.404312
20
0.211115
11
0.40419
21
0.211256
0
LINE
8
BLACK
6
CONTINUOUS
10
0.40419
20
0.211256
11
0.391067
21
0.250626
0
LINE
8
BLACK
6
CONTINUOUS
10
0.391067
20
0.250626
11
0.391202
21
0.252535
0
LINE
8
BLACK
6
CONTINUOUS
10
0.391202
20
0.252535
11
0.392648
21
0.253788
0
LINE
8
BLACK
6
CONTINUOUS
10
0.392648
20
0.253788
11
0.394556
21
0.253653
0
LINE
8
BLACK
6
CONTINUOUS
10
0.394556
20
0.253653
11
0.39581
21
0.252207
0
LINE
8
BLACK
6
CONTINUOUS
10
0.39581
20
0.252207
11
0.406562
21
0.219952
0
LINE
8
BLACK
6
CONTINUOUS
10
0.406562
20
0.219952
11
0.417313
21
0.252207
0
LINE
8
BLACK
6
CONTINUOUS
10
0.417313
20
0.252207
11
0.418567
21
0.253653
0
LINE
8
BLACK
6
CONTINUOUS
10
0.418567
20
0.253653
11
0.420476
21
0.253788
0
LINE
8
BLACK
6
CONTINUOUS
10
0.420476
20
0.253788
11
0.421921
21
0.252535
0
LINE
8
BLACK
6
CONTINUOUS
10
0.0410099
20
0.265979
11
0.0425572
21
0.264681
0
LINE
8
BLACK
6
CONTINUOUS
10
0.0425572
20
0.264681
11
0.0429079
21
0.262692
0
LINE
8
BLACK
6
CONTINUOUS
10
0.0429079
20
0.262692
11
0.041898
21
0.260943
0
LINE
8
BLACK
6
CONTINUOUS
10
0.041898
20
0.260943
11
0.04
21
0.260252
0
LINE
8
BLACK
6
CONTINUOUS
10
0.04
20
0.260252
11
-0.04
21
0.260252
0
LINE
8
BLACK
6
CONTINUOUS
10
-0.04
20
0.260252
11
-0.0410099
21
0.26043
0
LINE
8
BLACK
6
CONTINUOUS
10
-0.0410099
20
0.26043
11
-0.0425572
21
0.261728
0
LINE
8
BLACK
6
CONTINUOUS
10
-0.0425572
20
0.261728
11
-0.0429079
21
0.263717
0
LINE
8
BLACK
6
CONTINUOUS
10
-0.0429079
20
0.263717
11
-0.041898
21
0.265467
0
LINE
8
BLACK
6
CONTINUOUS
10
-0.041898
20
0.265467
11
-0.04
21
0.266157
0
LINE
8
BLACK
6
CONTINUOUS
10
-0.04
20
0.266157
11
0.04
21
0.266157
0
LINE
8
BLACK
6
CONTINUOUS
10
0.04
20
0.266157
11
0.0410099
21
0.265979
0
LINE
8
BLACK
6
CONTINUOUS
10
0.230351
20
0.355836
11
0.231083
21
0.354068
0
LINE
8
BLACK
6
CONTINUOUS
10
0.231083
20
0.354068
11
0.231083
21
0.34532
0
LINE
8
BLACK
6
CONTINUOUS
10
0.231083
20
0.34532
11
0.267953
21
0.34532
0
LINE
8
BLACK
6
CONTINUOUS
10
0.267953
20
0.34532
11
0.269721
21
0.344587
0
LINE
8
BLACK
6
CONTINUOUS
10
0.269721
20
0.344587
11
0.270453
21
0.34282
0
LINE
8
BLACK
6
CONTINUOUS
10
0.270453
20
0.34282
11
0.269721
21
0.341052
0
LINE
8
BLACK
6
CONTINUOUS
10
0.269721
20
0.341052
11
0.267953
21
0.34032
0
LINE
8
BLACK
6
CONTINUOUS
10
0.267953
20
0.34032
11
0.231083
21
0.34032
0
LINE
8
BLACK
6
CONTINUOUS
10
0.231083
20
0.34032
11
0.231083
21
0.331571
0
LINE
8
BLACK
6
CONTINUOUS
10
0.231083
20
0.331571
11
0.230351
21
0.329803
0
LINE
8
BLACK
6
CONTINUOUS
10
0.230351
20
0.329803
11
0.228583
21
0.329071
0
LINE
8
BLACK
6
CONTINUOUS
10
0.228583
20
0.329071
11
0.226816
21
0.329803
0
LINE
8
BLACK
6
CONTINUOUS
10
0.226816
20
0.329803
11
0.226083
21
0.331571
0
LINE
8
BLACK
6
CONTINUOUS
10
0.226083
20
0.331571
11
0.226083
21
0.354068
0
LINE
8
BLACK
6
CONTINUOUS
10
0.226083
20
0.354068
11
0.226816
21
0.355836
0
LINE
8
BLACK
6
CONTINUOUS
10
0.226816
20
0.355836
11
0.228583
21
0.356568
0
LINE
8
BLACK
6
CONTINUOUS
10
0.228583
20
0.356568
11
0.230351
21
0.355836
0
LINE
8
BLACK
6
CONTINUOUS
10
0.666416
20
0.377396
11
0.667148
21
0.375628
0
LINE
8
BLACK
6
CONTINUOUS
10
0.667148
20
0.375628
11
0.667148
21
0.36313
0
LINE
8
BLACK
6
CONTINUOUS
10
0.667148
20
0.36313
11
0.679646
21
0.36313
0
LINE
8
BLACK
6
CONTINUOUS
10
0.679646
20
0.36313
11
0.681414
21
0.362398
0
LINE
8
BLACK
6
CONTINUOUS
10
0.681414
20
0.362398
11
0.682146
21
0.36063
0
LINE
8
BLACK
6
CONTINUOUS
10
0.682146
20
0.36063
11
0.681414
21
0.358862
0
LINE
8
BLACK
6
CONTINUOUS
10
0.681414
20
0.358862
11
0.679646
21
0.35813
0
LINE
8
BLACK
6
CONTINUOUS
10
0.679646
20
0.35813
11
0.667148
21
0.35813
0
LINE
8
BLACK
6
CONTINUOUS
10
0.667148
20
0.35813
11
0.667148
21
0.345632
0
LINE
8
BLACK
6
CONTINUOUS
10
0.667148
20
0.345632
11
0.666416
21
0.343864
0
LINE
8
BLACK
6
CONTINUOUS
10
0.666416
20
0.343864
11
0.664648
21
0.343132
0
LINE
8
BLACK
6
CONTINUOUS
10
0.664648
20
0.343132
11
0.66288
21
0.343864
0
LINE
8
BLACK
6
CONTINUOUS
10
0.66288
20
0.343864
11
0.662148
21
0.345632
0
LINE
8
BLACK
6
CONTINUOUS
10
0.662148
20
0.345632
11
0.662148
21
0.35813
0
LINE
8
BLACK
6
CONTINUOUS
10
0.662148
20
0.35813
11
0.64965
21
0.35813
0
LINE
8
BLACK
6
CONTINUOUS
10
0.64965
20
0.35813
11
0.647882
21
0.358862
0
LINE
8
BLACK
6
CONTINUOUS
10
0.647882
20
0.358862
11
0.64715
21
0.36063
0
LINE
8
BLACK
6
CONTINUOUS
10
0.64715
20
0.36063
11
0.647882
21
0.362398
0
LINE
8
BLACK
6
CONTINUOUS
10
0.647882
20
0.362398
11
0.64965
21
0.36313
0
LINE
8
BLACK
6
CONTINUOUS
10
0.64965
20
0.36313
11
0.662148
21
0.36313
0
LINE
8
BLACK
6
CONTINUOUS
10
0.662148
20
0.36313
11
0.662148
21
0.375628
0
LINE
8
BLACK
6
CONTINUOUS
10
0.662148
20
0.375628
11
0.66288
21
0.377396
0
LINE
8
BLACK
6
CONTINUOUS
10
0.66288
20
0.377396
11
0.664648
21
0.378128
0
LINE
8
BLACK
6
CONTINUOUS
10
0.664648
20
0.378128
11
0.666416
21
0.377396
0
LINE
8
BLACK
6
CONTINUOUS
10
0.578658
20
0.380208
11
0.57939
21
0.37844
0
LINE
8
BLACK
6
CONTINUOUS
10
0.57939
20
0.37844
11
0.57939
21
0.369692
0
LINE
8
BLACK
6
CONTINUOUS
10
0.57939
20
0.369692
11
0.61626
21
0.369692
0
LINE
8
BLACK
6
CONTINUOUS
10
0.61626
20
0.369692
11
0.618028
21
0.368959
0
LINE
8
BLACK
6
CONTINUOUS
10
0.618028
20
0.368959
11
0.61876
21
0.367192
0
LINE
8
BLACK
6
CONTINUOUS
10
0.61876
20
0.367192
11
0.618028
21
0.365424
0
LINE
8
BLACK
6
CONTINUOUS
10
0.618028
20
0.365424
11
0.61626
21
0.364692
0
LINE
8
BLACK
6
CONTINUOUS
10
0.61626
20
0.364692
11
0.57939
21
0.364692
0
LINE
8
BLACK
6
CONTINUOUS
10
0.57939
20
0.364692
11
0.57939
21
0.355943
0
LINE
8
BLACK
6
CONTINUOUS
10
0.57939
20
0.355943
11
0.578658
21
0.354175
0
LINE
8
BLACK
6
CONTINUOUS
10
0.578658
20
0.354175
11
0.57689
21
0.353443
0
LINE
8
BLACK
6
CONTINUOUS
10
0.57689
20
0.353443
11
0.575123
21
0.354175
0
LINE
8
BLACK
6
CONTINUOUS
10
0.575123
20
0.354175
11
0.57439
21
0.355943
0
LINE
8
BLACK
6
CONTINUOUS
10
0.57439
20
0.355943
11
0.57439
21
0.37844
0
LINE
8
BLACK
6
CONTINUOUS
10
0.57439
20
0.37844
11
0.575123
21
0.380208
0
LINE
8
BLACK
6
CONTINUOUS
10
0.575123
20
0.380208
11
0.57689
21
0.38094
0
LINE
8
BLACK
6
CONTINUOUS
10
0.57689
20
0.38094
11
0.578658
21
0.380208
0
LINE
8
BLACK
6
CONTINUOUS
10
-0.135533
20
0.441898
11
-0.134843
21
0.44
0
LINE
8
BLACK
6
CONTINUOUS
10
-0.134843
20
0.44
11
-0.134843
21
0.36
0
LINE
8
BLACK
6
CONTINUOUS
10
-0.134843
20
0.36
11
-0.135021
21
0.35899
0
LINE
8
BLACK
6
CONTINUOUS
10
-0.135021
20
0.35899
11
-0.136319
21
0.357443
0
LINE
8
BLACK
6
CONTINUOUS
10
-0.136319
20
0.357443
11
-0.138308
21
0.357092
0
LINE
8
BLACK
6
CONTINUOUS
10
-0.138308
20
0.357092
11
-0.140057
21
0.358102
0
LINE
8
BLACK
6
CONTINUOUS
10
-0.140057
20
0.358102
11
-0.140748
21
0.36
0
LINE
8
BLACK
6
CONTINUOUS
10
-0.140748
20
0.36
11
-0.140748
21
0.44
0
LINE
8
BLACK
6
CONTINUOUS
10
-0.140748
20
0.44
11
-0.14057
21
0.44101
0
LINE
8
BLACK
6
CONTINUOUS
10
-0.14057
20
0.44101
11
-0.139272
21
0.442557
0
LINE
8
BLACK
6
CONTINUOUS
10
-0.139272
20
0.442557
11
-0.137283
21
0.442908
0
LINE
8
BLACK
6
CONTINUOUS
10
-0.137283
20
0.442908
11
-0.135533
21
0.441898
0
LINE
8
BLACK
6
CONTINUOUS
10
0.140057
20
0.441898
11
0.140748
21
0.44
0
LINE
8
BLACK
6
CONTINUOUS
10
0.140748
20
0.44
11
0.140748
21
0.36
0
LINE
8
BLACK
6
CONTINUOUS
10
0.140748
20
0.36
11
0.14057
21
0.35899
0
LINE
8
BLACK
6
CONTINUOUS
10
0.14057
20
0.35899
11
0.139272
21
0.357443
0
LINE
8
BLACK
6
CONTINUOUS
10
0.139272
20
0.357443
11
0.137283
21
0.357092
0
LINE
8
BLACK
6
CONTINUOUS
10
0.137283
20
0.357092
11
0.135533
21
0.358102
0
LINE
8
BLACK
6
CONTINUOUS
10
0.135533
20
0.358102
11
0.134843
21
0.36
0
LINE
8
BLACK
6
CONTINUOUS
10
0.134843
20
0.36
11
0.134843
21
0.44
0
LINE
8
BLACK
6
CONTINUOUS
10
0.134843
20
0.44
11
0.135021
21
0.44101
0
LINE
8
BLACK
6
CONTINUOUS
10
0.135021
20
0.44101
11
0.136319
21
0.442557
0
LINE
8
BLACK
6
CONTINUOUS
10
0.136319
20
0.442557
11
0.138308
21
0.442908
0
LINE
8
BLACK
6
CONTINUOUS
10
0.138308
20
0.442908
11
0.140057
21
0.441898
0
LINE
8
BLACK
6
CONTINUOUS
10
0.269721
20
0.387707
11
0.270453
21
0.385939
0
LINE
8
BLACK
6
CONTINUOUS
10
0.270453
20
0.385939
11
0.270453
21
0.367192
0
LINE
8
BLACK
6
CONTINUOUS
10
0.270453
20
0.367192
11
0.269721
21
0.365424
0
LINE
8
BLACK
6
CONTINUOUS
10
0.269721
20
0.365424
11
0.267953
21
0.364692
0
LINE
8
BLACK
6
CONTINUOUS
10
0.267953
20
0.364692
11
0.228583
21
0.364692
0
LINE
8
BLACK
6
CONTINUOUS
10
0.228583
20
0.364692
11
0.226816
21
0.365424
0
LINE
8
BLACK
6
CONTINUOUS
10
0.226816
20
0.365424
11
0.226083
21
0.367192
0
LINE
8
BLACK
6
CONTINUOUS
10
0.226083
20
0.367192
11
0.226816
21
0.368959
0
LINE
8
BLACK
6
CONTINUOUS
10
0.226816
20
0.368959
11
0.228583
21
0.369692
0
LINE
8
BLACK
6
CONTINUOUS
10
0.228583
20
0.369692
11
0.265453
21
0.369692
0
LINE
8
BLACK
6
CONTINUOUS
10
0.265453
20
0.369692
11
0.265453
21
0.385939
0
LINE
8
BLACK
6
CONTINUOUS
10
0.265453
20
0.385939
11
0.266186
21
0.387707
0
LINE
8
BLACK
6
CONTINUOUS
10
0.266186
20
0.387707
11
0.267953
21
0.388439
0
LINE
8
BLACK
6
CONTINUOUS
10
0.267953
20
0.388439
11
0.269721
21
0.387707
0
LINE
8
BLACK
6
CONTINUOUS
10
0.618028
20
0.412079
11
0.61876
21
0.410311
0
LINE
8
BLACK
6
CONTINUOUS
10
0.61876
20
0.410311
11
0.61876
21
0.391564
0
LINE
8
BLACK
6
CONTINUOUS
10
0.61876
20
0.391564
11
0.618028
21
0.389796
0
LINE
8
BLACK
6
CONTINUOUS
10
0.618028
20
0.389796
11
0.61626
21
0.389064
0
LINE
8
BLACK
6
CONTINUOUS
10
0.61626
20
0.389064
11
0.57689
21
0.389064
0
LINE
8
BLACK
6
CONTINUOUS
10
0.57689
20
0.389064
11
0.575123
21
0.389796
0
LINE
8
BLACK
6
CONTINUOUS
10
0.575123
20
0.389796
11
0.57439
21
0.391564
0
LINE
8
BLACK
6
CONTINUOUS
10
0.57439
20
0.391564
11
0.575123
21
0.393331
0
LINE
8
BLACK
6
CONTINUOUS
10
0.575123
20
0.393331
11
0.57689
21
0.394064
0
LINE
8
BLACK
6
CONTINUOUS
10
0.57689
20
0.394064
11
0.61376
21
0.394064
0
LINE
8
BLACK
6
CONTINUOUS
10
0.61376
20
0.394064
11
0.61376
21
0.410311
0
LINE
8
BLACK
6
CONTINUOUS
10
0.61376
20
0.410311
11
0.614493
21
0.412079
0
LINE
8
BLACK
6
CONTINUOUS
10
0.614493
20
0.412079
11
0.61626
21
0.412811
0
LINE
8
BLACK
6
CONTINUOUS
10
0.61626
20
0.412811
11
0.618028
21
0.412079
0
LINE
8
BLACK
6
CONTINUOUS
10
0.268744
20
0.408933
11
0.268885
21
0.408811
0
LINE
8
BLACK
6
CONTINUOUS
10
0.268885
20
0.408811
11
0.269071
21
0.408798
0
LINE
8
BLACK
6
CONTINUOUS
10
0.269071
20
0.408798
11
0.269591
21
0.408199
0
LINE
8
BLACK
6
CONTINUOUS
10
0.269591
20
0.408199
11
0.270189
21
0.40768
0
LINE
8
BLACK
6
CONTINUOUS
10
0.270189
20
0.40768
11
0.270203
21
0.407493
0
LINE
8
BLACK
6
CONTINUOUS
10
0.270203
20
0.407493
11
0.270325
21
0.407352
0
LINE
8
BLACK
6
CONTINUOUS
10
0.270325
20
0.407352
11
0.270269
21
0.406562
0
LINE
8
BLACK
6
CONTINUOUS
10
0.270269
20
0.406562
11
0.270325
21
0.405771
0
LINE
8
BLACK
6
CONTINUOUS
10
0.270325
20
0.405771
11
0.270203
21
0.40563
0
LINE
8
BLACK
6
CONTINUOUS
10
0.270203
20
0.40563
11
0.270189
21
0.405444
0
LINE
8
BLACK
6
CONTINUOUS
10
0.270189
20
0.405444
11
0.269591
21
0.404924
0
LINE
8
BLACK
6
CONTINUOUS
10
0.269591
20
0.404924
11
0.269071
21
0.404326
0
LINE
8
BLACK
6
CONTINUOUS
10
0.269071
20
0.404326
11
0.268885
21
0.404312
0
LINE
8
BLACK
6
CONTINUOUS
10
0.268885
20
0.404312
11
0.268744
21
0.40419
0
LINE
8
BLACK
6
CONTINUOUS
10
0.268744
20
0.40419
11
0.229374
21
0.391067
0
LINE
8
BLACK
6
CONTINUOUS
10
0.229374
20
0.391067
11
0.227465
21
0.391202
0
LINE
8
BLACK
6
CONTINUOUS
10
0.227465
20
0.391202
11
0.226212
21
0.392648
0
LINE
8
BLACK
6
CONTINUOUS
10
0.226212
20
0.392648
11
0.226347
21
0.394556
0
LINE
8
BLACK
6
CONTINUOUS
10
0.226347
20
0.394556
11
0.227793
21
0.39581
0
LINE
8
BLACK
6
CONTINUOUS
10
0.227793
20
0.39581
11
0.260048
21
0.406562
0
LINE
8
BLACK
6
CONTINUOUS
10
0.260048
20
0.406562
11
0.227793
21
0.417313
0
LINE
8
BLACK
6
CONTINUOUS
10
0.227793
20
0.417313
11
0.226347
21
0.418567
0
LINE
8
BLACK
6
CONTINUOUS
10
0.226347
20
0.418567
11
0.226212
21
0.420476
0
LINE
8
BLACK
6
CONTINUOUS
10
0.226212
20
0.420476
11
0.227465
21
0.421921
0
LINE
8
BLACK
6
CONTINUOUS
10
0.227465
20
0.421921
11
0.229374
21
0.422057
0
LINE
8
BLACK
6
CONTINUOUS
10
0.229374
20
0.422057
11
0.268744
21
0.408933
0
LINE
8
BLACK
6
CONTINUOUS
10
0.617051
20
0.433305
11
0.617192
21
0.433183
0
LINE
8
BLACK
6
CONTINUOUS
10
0.617192
20
0.433183
11
0.617378
21
0.43317
0
LINE
8
BLACK
6
CONTINUOUS
10
0.617378
20
0.43317
11
0.617898
21
0.432571
0
LINE
8
BLACK
6
CONTINUOUS
10
0.617898
20
0.432571
11
0.618496
21
0.432052
0
LINE
8
BLACK
6
CONTINUOUS
10
0.618496
20
0.432052
11
0.61851
21
0.431865
0
LINE
8
BLACK
6
CONTINUOUS
10
0.61851
20
0.431865
11
0.618632
21
0.431724
0
LINE
8
BLACK
6
CONTINUOUS
10
0.618632
20
0.431724
11
0.618576
21
0.430934
0
LINE
8
BLACK
6
CONTINUOUS
10
0.618576
20
0.430934
11
0.618632
21
0.430143
0
LINE
8
BLACK
6
CONTINUOUS
10
0.618632
20
0.430143
11
0.61851
21
0.430002
0
LINE
8
BLACK
6
CONTINUOUS
10
0.61851
20
0.430002
11
0.618496
21
0.429816
0
LINE
8
BLACK
6
CONTINUOUS
10
0.618496
20
0.429816
11
0.617898
21
0.429296
0
LINE
8
BLACK
6
CONTINUOUS
10
0.617898
20
0.429296
11
0.617378
21
0.428698
0
LINE
8
BLACK
6
CONTINUOUS
10
0.617378
20
0.428698
11
0.617192
21
0.428684
0
LINE
8
BLACK
6
CONTINUOUS
10
0.617192
20
0.428684
11
0.617051
21
0.428562
0
LINE
8
BLACK
6
CONTINUOUS
10
0.617051
20
0.428562
11
0.577681
21
0.415439
0
LINE
8
BLACK
6
CONTINUOUS
10
0.577681
20
0.415439
11
0.575772
21
0.415574
0
LINE
8
BLACK
6
CONTINUOUS
10
0.575772
20
0.415574
11
0.574519
21
0.41702
0
LINE
8
BLACK
6
CONTINUOUS
10
0.574519
20
0.41702
11
0.574654
21
0.418928
0
LINE
8
BLACK
6
CONTINUOUS
10
0.574654
20
0.418928
11
0.5761
21
0.420182
0
LINE
8
BLACK
6
CONTINUOUS
10
0.5761
20
0.420182
11
0.608355
21
0.430934
0
LINE
8
BLACK
6
CONTINUOUS
10
0.608355
20
0.430934
11
0.5761
21
0.441685
0
LINE
8
BLACK
6
CONTINUOUS
10
0.5761
20
0.441685
11
0.574654
21
0.442939
0
LINE
8
BLACK
6
CONTINUOUS
10
0.574654
20
0.442939
11
0.574519
21
0.444848
0
LINE
8
BLACK
6
CONTINUOUS
10
0.574519
20
0.444848
11
0.575772
21
0.446293
0
LINE
8
BLACK
6
CONTINUOUS
10
0.575772
20
0.446293
11
0.577681
21
0.446429
0
LINE
8
BLACK
6
CONTINUOUS
10
0.577681
20
0.446429
11
0.617051
21
0.433305
0
LINE
8
BLACK
6
CONTINUOUS
10
0.666416
20
0.456136
11
0.667148
21
0.454368
0
LINE
8
BLACK
6
CONTINUOUS
10
0.667148
20
0.454368
11
0.667148
21
0.424372
0
LINE
8
BLACK
6
CONTINUOUS
10
0.667148
20
0.424372
11
0.666416
21
0.422604
0
LINE
8
BLACK
6
CONTINUOUS
10
0.666416
20
0.422604
11
0.664648
21
0.421872
0
LINE
8
BLACK
6
CONTINUOUS
10
0.664648
20
0.421872
11
0.66288
21
0.422604
0
LINE
8
BLACK
6
CONTINUOUS
10
0.66288
20
0.422604
11
0.662148
21
0.424372
0
LINE
8
BLACK
6
CONTINUOUS
10
0.662148
20
0.424372
11
0.662148
21
0.454368
0
LINE
8
BLACK
6
CONTINUOUS
10
0.662148
20
0.454368
11
0.66288
21
0.456136
0
LINE
8
BLACK
6
CONTINUOUS
10
0.66288
20
0.456136
11
0.664648
21
0.456868
0
LINE
8
BLACK
6
CONTINUOUS
10
0.664648
20
0.456868
11
0.666416
21
0.456136
0
LINE
8
BLACK
6
CONTINUOUS
10
0.254723
20
0.464572
11
0.255455
21
0.462805
0
LINE
8
BLACK
6
CONTINUOUS
10
0.255455
20
0.462805
11
0.255455
21
0.432808
0
LINE
8
BLACK
6
CONTINUOUS
10
0.255455
20
0.432808
11
0.254723
21
0.431041
0
LINE
8
BLACK
6
CONTINUOUS
10
0.254723
20
0.431041
11
0.252955
21
0.430308
0
LINE
8
BLACK
6
CONTINUOUS
10
0.252955
20
0.430308
11
0.251187
21
0.431041
0
LINE
8
BLACK
6
CONTINUOUS
10
0.251187
20
0.431041
11
0.250455
21
0.432808
0
LINE
8
BLACK
6
CONTINUOUS
10
0.250455
20
0.432808
11
0.250455
21
0.462805
0
LINE
8
BLACK
6
CONTINUOUS
10
0.250455
20
0.462805
11
0.251187
21
0.464572
0
LINE
8
BLACK
6
CONTINUOUS
10
0.251187
20
0.464572
11
0.252955
21
0.465305
0
LINE
8
BLACK
6
CONTINUOUS
10
0.252955
20
0.465305
11
0.254723
21
0.464572
0
LINE
8
BLACK
6
CONTINUOUS
10
0.550384
20
0.752885
11
0.550513
21
0.752908
0
LINE
8
BLACK
6
CONTINUOUS
10
0.550513
20
0.752908
11
0.550626
21
0.752842
0
LINE
8
BLACK
6
CONTINUOUS
10
0.550626
20
0.752842
11
0.55101
21
0.752775
0
LINE
8
BLACK
6
CONTINUOUS
10
0.55101
20
0.752775
11
0.551598
21
0.752282
0
LINE
8
BLACK
6
CONTINUOUS
10
0.551598
20
0.752282
11
0.552262
21
0.751898
0
LINE
8
BLACK
6
CONTINUOUS
10
0.552262
20
0.751898
11
0.552353
21
0.751648
0
LINE
8
BLACK
6
CONTINUOUS
10
0.552353
20
0.751648
11
0.552557
21
0.751476
0
LINE
8
BLACK
6
CONTINUOUS
10
0.552557
20
0.751476
11
0.55269
21
0.750721
0
LINE
8
BLACK
6
CONTINUOUS
10
0.55269
20
0.750721
11
0.552953
21
0.75
0
LINE
8
BLACK
6
CONTINUOUS
10
0.552953
20
0.75
11
0.552953
21
0.45
0
LINE
8
BLACK
6
CONTINUOUS
10
0.552953
20
0.45
11
0.552885
21
0.449616
0
LINE
8
BLACK
6
CONTINUOUS
10
0.552885
20
0.449616
11
0.552908
21
0.449487
0
LINE
8
BLACK
6
CONTINUOUS
10
0.552908
20
0.449487
11
0.552842
21
0.449374
0
LINE
8
BLACK
6
CONTINUOUS
10
0.552842
20
0.449374
11
0.552775
21
0.44899
0
LINE
8
BLACK
6
CONTINUOUS
10
0.552775
20
0.44899
11
0.552282
21
0.448402
0
LINE
8
BLACK
6
CONTINUOUS
10
0.552282
20
0.448402
11
0.551898
21
0.447738
0
LINE
8
BLACK
6
CONTINUOUS
10
0.551898
20
0.447738
11
0.551648
21
0.447647
0
LINE
8
BLACK
6
CONTINUOUS
10
0.551648
20
0.447647
11
0.551476
21
0.447443
0
LINE
8
BLACK
6
CONTINUOUS
10
0.551476
20
0.447443
11
0.550721
21
0.44731
0
LINE
8
BLACK
6
CONTINUOUS
10
0.550721
20
0.44731
11
0.55
21
0.447047
0
LINE
8
BLACK
6
CONTINUOUS
10
0.55
20
0.447047
11
0.35
21
0.447047
0
LINE
8
BLACK
6
CONTINUOUS
10
0.35
20
0.447047
11
0.349616
21
0.447115
0
LINE
8
BLACK
6
CONTINUOUS
10
0.349616
20
0.447115
11
0.349487
21
0.447092
0
LINE
8
BLACK
6
CONTINUOUS
10
0.349487
20
0.447092
11
0.349374
21
0.447158
0
LINE
8
BLACK
6
CONTINUOUS
10
0.349374
20
0.447158
11
0.34899
21
0.447225
0
LINE
8
BLACK
6
CONTINUOUS
10
0.34899
20
0.447225
11
0.348402
21
0.447718
0
LINE
8
BLACK
6
CONTINUOUS
10
0.348402
20
0.447718
11
0.347738
21
0.448102
0
LINE
8
BLACK
6
CONTINUOUS
10
0.347738
20
0.448102
11
0.347647
21
0.448352
0
LINE
8
BLACK
6
CONTINUOUS
10
0.347647
20
0.448352
11
0.347443
21
0.448524
0
LINE
8
BLACK
6
CONTINUOUS
10
0.347443
20
0.448524
11
0.34731
21
0.449279
0
LINE
8
BLACK
6
CONTINUOUS
10
0.34731
20
0.449279
11
0.347047
21
0.45
0
LINE
8
BLACK
6
CONTINUOUS
10
0.347047
20
0.45
11
0.347047
21
0.75
0
LINE
8
BLACK
6
CONTINUOUS
10
0.347047
20
0.75
11
0.347115
21
0.750384
0
LINE
8
BLACK
6
CONTINUOUS
10
0.347115
20
0.750384
11
0.347092
21
0.750513
0
LINE
8
BLACK
6
CONTINUOUS
10
0.347092
20
0.750513
11
0.347158
21
0.750626
0
LINE
8
BLACK
6
CONTINUOUS
10
0.347158
20
0.750626
11
0.347225
21
0.75101
0
LINE
8
BLACK
6
CONTINUOUS
10
0.347225
20
0.75101
11
0.347718
21
0.751598
0
LINE
8
BLACK
6
CONTINUOUS
10
0.347718
20
0.751598
11
0.348102
21
0.752262
0
LINE
8
BLACK
6
CONTINUOUS
10
0.348102
20
0.752262
11
0.348352
21
0.752353
0
LINE
8
BLACK
6
CONTINUOUS
10
0.348352
20
0.752353
11
0.348524
21
0.752557
0
LINE
8
BLACK
6
CONTINUOUS
10
0.348524
20
0.752557
11
0.349279
21
0.75269
0
LINE
8
BLACK
6
CONTINUOUS
10
0.349279
20
0.75269
11
0.35
21
0.752953
0
LINE
8
BLACK
6
CONTINUOUS
10
0.35
20
0.752953
11
0.55
21
0.752953
0
LINE
8
BLACK
6
CONTINUOUS
10
0.55
20
0.752953
11
0.550384
21
0.752885
0
LINE
8
BLACK
6
CONTINUOUS
10
0.352953
20
0.747047
11
0.352953
21
0.452953
0
LINE
8
BLACK
6
CONTINUOUS
10
0.352953
20
0.452953
11
0.547047
21
0.452953
0
LINE
8
BLACK
6
CONTINUOUS
10
0.547047
20
0.452953
11
0.547047
21
0.747047
0
LINE
8
BLACK
6
CONTINUOUS
10
0.547047
20
0.747047
11
0.352953
21
0.747047
0
LINE
8
BLACK
6
CONTINUOUS
10
0.310212
20
0.497356
11
0.310622
21
0.497385
0
LINE
8
BLACK
6
CONTINUOUS
10
0.310622
20
0.497385
11
0.316247
21
0.49551
0
LINE
8
BLACK
6
CONTINUOUS
10
0.316247
20
0.49551
11
0.316686
21
0.495129
0
LINE
8
BLACK
6
CONTINUOUS
10
0.316686
20
0.495129
11
0.317224
21
0.494906
0
LINE
8
BLACK
6
CONTINUOUS
10
0.317224
20
0.494906
11
0.335453
21
0.476677
0
LINE
8
BLACK
6
CONTINUOUS
10
0.335453
20
0.476677
11
0.335453
21
0.495013
0
LINE
8
BLACK
6
CONTINUOUS
10
0.335453
20
0.495013
11
0.336186
21
0.496781
0
LINE
8
BLACK
6
CONTINUOUS
10
0.336186
20
0.496781
11
0.337953
21
0.497513
0
LINE
8
BLACK
6
CONTINUOUS
10
0.337953
20
0.497513
11
0.339721
21
0.496781
0
LINE
8
BLACK
6
CONTINUOUS
10
0.339721
20
0.496781
11
0.340453
21
0.495013
0
LINE
8
BLACK
6
CONTINUOUS
10
0.340453
20
0.495013
11
0.340453
21
0.470641
0
LINE
8
BLACK
6
CONTINUOUS
10
0.340453
20
0.470641
11
0.339721
21
0.468873
0
LINE
8
BLACK
6
CONTINUOUS
10
0.339721
20
0.468873
11
0.337953
21
0.468141
0
LINE
8
BLACK
6
CONTINUOUS
10
0.337953
20
0.468141
11
0.336186
21
0.468873
0
LINE
8
BLACK
6
CONTINUOUS
10
0.336186
20
0.468873
11
0.314106
21
0.490953
0
LINE
8
BLACK
6
CONTINUOUS
10
0.314106
20
0.490953
11
0.309426
21
0.492513
0
LINE
8
BLACK
6
CONTINUOUS
10
0.309426
20
0.492513
11
0.306672
21
0.492513
0
LINE
8
BLACK
6
CONTINUOUS
10
0.306672
20
0.492513
11
0.303814
21
0.491084
0
LINE
8
BLACK
6
CONTINUOUS
10
0.303814
20
0.491084
11
0.302513
21
0.489783
0
LINE
8
BLACK
6
CONTINUOUS
10
0.302513
20
0.489783
11
0.301083
21
0.486924
0
LINE
8
BLACK
6
CONTINUOUS
10
0.301083
20
0.486924
11
0.301083
21
0.47873
0
LINE
8
BLACK
6
CONTINUOUS
10
0.301083
20
0.47873
11
0.302513
21
0.475872
0
LINE
8
BLACK
6
CONTINUOUS
10
0.302513
20
0.475872
11
0.304101
21
0.474284
0
LINE
8
BLACK
6
CONTINUOUS
10
0.304101
20
0.474284
11
0.304833
21
0.472516
0
LINE
8
BLACK
6
CONTINUOUS
10
0.304833
20
0.472516
11
0.304101
21
0.470748
0
LINE
8
BLACK
6
CONTINUOUS
10
0.304101
20
0.470748
11
0.302333
21
0.470016
0
LINE
8
BLACK
6
CONTINUOUS
10
0.302333
20
0.470016
11
0.300565
21
0.470748
0
LINE
8
BLACK
6
CONTINUOUS
10
0.300565
20
0.470748
11
0.29869
21
0.472623
0
LINE
8
BLACK
6
CONTINUOUS
10
0.29869
20
0.472623
11
0.298533
21
0.473003
0
LINE
8
BLACK
6
CONTINUOUS
10
0.298533
20
0.473003
11
0.298222
21
0.473273
0
LINE
8
BLACK
6
CONTINUOUS
10
0.298222
20
0.473273
11
0.296347
21
0.477022
0
LINE
8
BLACK
6
CONTINUOUS
10
0.296347
20
0.477022
11
0.296306
21
0.477603
0
LINE
8
BLACK
6
CONTINUOUS
10
0.296306
20
0.477603
11
0.296083
21
0.47814
0
LINE
8
BLACK
6
CONTINUOUS
10
0.296083
20
0.47814
11
0.296083
21
0.487514
0
LINE
8
BLACK
6
CONTINUOUS
10
0.296083
20
0.487514
11
0.296306
21
0.488052
0
LINE
8
BLACK
6
CONTINUOUS
10
0.296306
20
0.488052
11
0.296347
21
0.488632
0
LINE
8
BLACK
6
CONTINUOUS
10
0.296347
20
0.488632
11
0.298222
21
0.492382
0
LINE
8
BLACK
6
CONTINUOUS
10
0.298222
20
0.492382
11
0.298533
21
0.492651
0
LINE
8
BLACK
6
CONTINUOUS
10
0.298533
20
0.492651
11
0.29869
21
0.493031
0
LINE
8
BLACK
6
CONTINUOUS
10
0.29869
20
0.493031
11
0.300565
21
0.494906
0
LINE
8
BLACK
6
CONTINUOUS
10
0.300565
20
0.494906
11
0.300945
21
0.495064
0
LINE
8
BLACK
6
CONTINUOUS
10
0.300945
20
0.495064
11
0.301215
21
0.495374
0
LINE
8
BLACK
6
CONTINUOUS
10
0.301215
20
0.495374
11
0.304964
21
0.497249
0
LINE
8
BLACK
6
CONTINUOUS
10
0.304964
20
0.497249
11
0.305545
21
0.49729
0
LINE
8
BLACK
6
CONTINUOUS
10
0.305545
20
0.49729
11
0.306082
21
0.497513
0
LINE
8
BLACK
6
CONTINUOUS
10
0.306082
20
0.497513
11
0.309832
21
0.497513
0
LINE
8
BLACK
6
CONTINUOUS
10
0.309832
20
0.497513
11
0.310212
21
0.497356
0
LINE
8
BLACK
6
CONTINUOUS
10
0.337846
20
0.515529
11
0.337846
21
0.515529
0
LINE
8
BLACK
6
CONTINUOUS
10
0.337846
20
0.515529
11
0.339721
21
0.513654
0
LINE
8
BLACK
6
CONTINUOUS
10
0.339721
20
0.513654
11
0.339721
21
0.513654
0
LINE
8
BLACK
6
CONTINUOUS
10
0.339721
20
0.513654
11
0.340453
21
0.511886
0
LINE
8
BLACK
6
CONTINUOUS
10
0.340453
20
0.511886
11
0.339936
21
0.510636
0
LINE
8
BLACK
6
CONTINUOUS
10
0.339936
20
0.510636
11
0.339721
21
0.510118
0
LINE
8
BLACK
6
CONTINUOUS
10
0.339721
20
0.510118
11
0.337846
21
0.508244
0
LINE
8
BLACK
6
CONTINUOUS
10
0.337846
20
0.508244
11
0.337846
21
0.508244
0
LINE
8
BLACK
6
CONTINUOUS
10
0.337846
20
0.508244
11
0.336079
21
0.507511
0
LINE
8
BLACK
6
CONTINUOUS
10
0.336079
20
0.507511
11
0.336079
21
0.507511
0
LINE
8
BLACK
6
CONTINUOUS
10
0.336079
20
0.507511
11
0.336079
21
0.507511
0
LINE
8
BLACK
6
CONTINUOUS
10
0.336079
20
0.507511
11
0.335561
21
0.507726
0
LINE
8
BLACK
6
CONTINUOUS
10
0.335561
20
0.507726
11
0.334311
21
0.508244
0
LINE
8
BLACK
6
CONTINUOUS
10
0.334311
20
0.508244
11
0.332436
21
0.510118
0
LINE
8
BLACK
6
CONTINUOUS
10
0.332436
20
0.510118
11
0.332436
21
0.510118
0
LINE
8
BLACK
6
CONTINUOUS
10
0.332436
20
0.510118
11
0.332133
21
0.510851
0
LINE
8
BLACK
6
CONTINUOUS
10
0.332133
20
0.510851
11
0.331704
21
0.511886
0
LINE
8
BLACK
6
CONTINUOUS
10
0.331704
20
0.511886
11
0.331704
21
0.511886
0
LINE
8
BLACK
6
CONTINUOUS
10
0.331704
20
0.511886
11
0.331748
21
0.511993
0
LINE
8
BLACK
6
CONTINUOUS
10
0.331748
20
0.511993
11
0.332133
21
0.512922
0
LINE
8
BLACK
6
CONTINUOUS
10
0.332133
20
0.512922
11
0.332436
21
0.513654
0
LINE
8
BLACK
6
CONTINUOUS
10
0.332436
20
0.513654
11
0.332436
21
0.513654
0
LINE
8
BLACK
6
CONTINUOUS
10
0.332436
20
0.513654
11
0.332436
21
0.513654
0
LINE
8
BLACK
6
CONTINUOUS
10
0.332436
20
0.513654
11
0.334311
21
0.515529
0
LINE
8
BLACK
6
CONTINUOUS
10
0.334311
20
0.515529
11
0.335561
21
0.516046
0
LINE
8
BLACK
6
CONTINUOUS
10
0.335561
20
0.516046
11
0.336079
21
0.516261
0
LINE
8
BLACK
6
CONTINUOUS
10
0.336079
20
0.516261
11
0.336079
21
0.516261
0
LINE
8
BLACK
6
CONTINUOUS
10
0.336079
20
0.516261
11
0.337846
21
0.515529
0
LINE
8
BLACK
6
CONTINUOUS
10
0.326598
20
0.554899
11
0.32733
21
0.553131
0
LINE
8
BLACK
6
CONTINUOUS
10
0.32733
20
0.553131
11
0.32733
21
0.550007
0
LINE
8
BLACK
6
CONTINUOUS
10
0.32733
20
0.550007
11
0.337953
21
0.550007
0
LINE
8
BLACK
6
CONTINUOUS
10
0.337953
20
0.550007
11
0.339721
21
0.549274
0
LINE
8
BLACK
6
CONTINUOUS
10
0.339721
20
0.549274
11
0.340453
21
0.547507
0
LINE
8
BLACK
6
CONTINUOUS
10
0.340453
20
0.547507
11
0.339721
21
0.545739
0
LINE
8
BLACK
6
CONTINUOUS
10
0.339721
20
0.545739
11
0.337953
21
0.545007
0
LINE
8
BLACK
6
CONTINUOUS
10
0.337953
20
0.545007
11
0.32733
21
0.545007
0
LINE
8
BLACK
6
CONTINUOUS
10
0.32733
20
0.545007
11
0.32733
21
0.528759
0
LINE
8
BLACK
6
CONTINUOUS
10
0.32733
20
0.528759
11
0.327172
21
0.528379
0
LINE
8
BLACK
6
CONTINUOUS
10
0.327172
20
0.528379
11
0.327202
21
0.527968
0
LINE
8
BLACK
6
CONTINUOUS
10
0.327202
20
0.527968
11
0.32682
21
0.527529
0
LINE
8
BLACK
6
CONTINUOUS
10
0.32682
20
0.527529
11
0.326598
21
0.526991
0
LINE
8
BLACK
6
CONTINUOUS
10
0.326598
20
0.526991
11
0.326218
21
0.526834
0
LINE
8
BLACK
6
CONTINUOUS
10
0.326218
20
0.526834
11
0.325948
21
0.526523
0
LINE
8
BLACK
6
CONTINUOUS
10
0.325948
20
0.526523
11
0.325368
21
0.526482
0
LINE
8
BLACK
6
CONTINUOUS
10
0.325368
20
0.526482
11
0.32483
21
0.526259
0
LINE
8
BLACK
6
CONTINUOUS
10
0.32483
20
0.526259
11
0.32445
21
0.526416
0
LINE
8
BLACK
6
CONTINUOUS
10
0.32445
20
0.526416
11
0.324039
21
0.526387
0
LINE
8
BLACK
6
CONTINUOUS
10
0.324039
20
0.526387
11
0.295918
21
0.535761
0
LINE
8
BLACK
6
CONTINUOUS
10
0.295918
20
0.535761
11
0.294472
21
0.537015
0
LINE
8
BLACK
6
CONTINUOUS
10
0.294472
20
0.537015
11
0.294337
21
0.538923
0
LINE
8
BLACK
6
CONTINUOUS
10
0.294337
20
0.538923
11
0.29559
21
0.540369
0
LINE
8
BLACK
6
CONTINUOUS
10
0.29559
20
0.540369
11
0.297499
21
0.540504
0
LINE
8
BLACK
6
CONTINUOUS
10
0.297499
20
0.540504
11
0.32233
21
0.532228
0
LINE
8
BLACK
6
CONTINUOUS
10
0.32233
20
0.532228
11
0.32233
21
0.545007
0
LINE
8
BLACK
6
CONTINUOUS
10
0.32233
20
0.545007
11
0.311707
21
0.545007
0
LINE
8
BLACK
6
CONTINUOUS
10
0.311707
20
0.545007
11
0.309939
21
0.545739
0
LINE
8
BLACK
6
CONTINUOUS
10
0.309939
20
0.545739
11
0.309207
21
0.547507
0
LINE
8
BLACK
6
CONTINUOUS
10
0.309207
20
0.547507
11
0.309939
21
0.549274
0
LINE
8
BLACK
6
CONTINUOUS
10
0.309939
20
0.549274
11
0.311707
21
0.550007
0
LINE
8
BLACK
6
CONTINUOUS
10
0.311707
20
0.550007
11
0.32233
21
0.550007
0
LINE
8
BLACK
6
CONTINUOUS
10
0.32233
20
0.550007
11
0.32233
21
0.553131
0
LINE
8
BLACK
6
CONTINUOUS
10
0.32233
20
0.553131
11
0.323062
21
0.554899
0
LINE
8
BLACK
6
CONTINUOUS
10
0.323062
20
0.554899
11
0.32483
21
0.555631
0
LINE
8
BLACK
6
CONTINUOUS
10
0.32483
20
0.555631
11
0.326598
21
0.554899
0
LINE
8
BLACK
6
CONTINUOUS
10
0.0410099
20
0.54057
11
0.0425572
21
0.539272
0
LINE
8
BLACK
6
CONTINUOUS
10
0.0425572
20
0.539272
11
0.0429079
21
0.537283
0
LINE
8
BLACK
6
CONTINUOUS
10
0.0429079
20
0.537283
11
0.041898
21
0.535533
0
LINE
8
BLACK
6
CONTINUOUS
10
0.041898
20
0.535533
11
0.04
21
0.534843
0
LINE
8
BLACK
6
CONTINUOUS
10
0.04
20
0.534843
11
-0.04
21
0.534843
0
LINE
8
BLACK
6
CONTINUOUS
10
-0.04
20
0.534843
11
-0.0410099
21
0.535021
0
LINE
8
BLACK
6
CONTINUOUS
10
-0.0410099
20
0.535021
11
-0.0425572
21
0.536319
0
LINE
8
BLACK
6
CONTINUOUS
10
-0.0425572
20
0.536319
11
-0.0429079
21
0.538308
0
LINE
8
BLACK
6
CONTINUOUS
10
-0.0429079
20
0.538308
11
-0.041898
21
0.540057
0
LINE
8
BLACK
6
CONTINUOUS
10
-0.041898
20
0.540057
11
-0.04
21
0.540748
0
LINE
8
BLACK
6
CONTINUOUS
10
-0.04
20
0.540748
11
0.04
21
0.540748
0
LINE
8
BLACK
6
CONTINUOUS
10
0.04
20
0.540748
11
0.0410099
21
0.54057
0
LINE
8
BLACK
6
CONTINUOUS
10
0.324723
20
0.599893
11
0.325455
21
0.598125
0
LINE
8
BLACK
6
CONTINUOUS
10
0.325455
20
0.598125
11
0.325455
21
0.568129
0
LINE
8
BLACK
6
CONTINUOUS
10
0.325455
20
0.568129
11
0.324723
21
0.566361
0
LINE
8
BLACK
6
CONTINUOUS
10
0.324723
20
0.566361
11
0.322955
21
0.565629
0
LINE
8
BLACK
6
CONTINUOUS
10
0.322955
20
0.565629
11
0.321187
21
0.566361
0
LINE
8
BLACK
6
CONTINUOUS
10
0.321187
20
0.566361
11
0.320455
21
0.568129
0
LINE
8
BLACK
6
CONTINUOUS
10
0.320455
20
0.568129
11
0.320455
21
0.598125
0
LINE
8
BLACK
6
CONTINUOUS
10
0.320455
20
0.598125
11
0.321187
21
0.599893
0
LINE
8
BLACK
6
CONTINUOUS
10
0.321187
20
0.599893
11
0.322955
21
0.600625
0
LINE
8
BLACK
6
CONTINUOUS
10
0.322955
20
0.600625
11
0.324723
21
0.599893
0
LINE
8
BLACK
6
CONTINUOUS
10
0.330992
20
0.639773
11
0.331572
21
0.639731
0
LINE
8
BLACK
6
CONTINUOUS
10
0.331572
20
0.639731
11
0.335322
21
0.637857
0
LINE
8
BLACK
6
CONTINUOUS
10
0.335322
20
0.637857
11
0.335591
21
0.637546
0
LINE
8
BLACK
6
CONTINUOUS
10
0.335591
20
0.637546
11
0.335972
21
0.637388
0
LINE
8
BLACK
6
CONTINUOUS
10
0.335972
20
0.637388
11
0.337846
21
0.635514
0
LINE
8
BLACK
6
CONTINUOUS
10
0.337846
20
0.635514
11
0.338004
21
0.635133
0
LINE
8
BLACK
6
CONTINUOUS
10
0.338004
20
0.635133
11
0.338315
21
0.634864
0
LINE
8
BLACK
6
CONTINUOUS
10
0.338315
20
0.634864
11
0.340189
21
0.631114
0
LINE
8
BLACK
6
CONTINUOUS
10
0.340189
20
0.631114
11
0.340231
21
0.630534
0
LINE
8
BLACK
6
CONTINUOUS
10
0.340231
20
0.630534
11
0.340453
21
0.629996
0
LINE
8
BLACK
6
CONTINUOUS
10
0.340453
20
0.629996
11
0.340453
21
0.620622
0
LINE
8
BLACK
6
CONTINUOUS
10
0.340453
20
0.620622
11
0.340231
21
0.620085
0
LINE
8
BLACK
6
CONTINUOUS
10
0.340231
20
0.620085
11
0.340189
21
0.619504
0
LINE
8
BLACK
6
CONTINUOUS
10
0.340189
20
0.619504
11
0.338315
21
0.615755
0
LINE
8
BLACK
6
CONTINUOUS
10
0.338315
20
0.615755
11
0.338004
21
0.615485
0
LINE
8
BLACK
6
CONTINUOUS
10
0.338004
20
0.615485
11
0.337846
21
0.615105
0
LINE
8
BLACK
6
CONTINUOUS
10
0.337846
20
0.615105
11
0.335972
21
0.61323
0
LINE
8
BLACK
6
CONTINUOUS
10
0.335972
20
0.61323
11
0.334204
21
0.612498
0
LINE
8
BLACK
6
CONTINUOUS
10
0.334204
20
0.612498
11
0.332436
21
0.61323
0
LINE
8
BLACK
6
CONTINUOUS
10
0.332436
20
0.61323
11
0.331704
21
0.614998
0
LINE
8
BLACK
6
CONTINUOUS
10
0.331704
20
0.614998
11
0.332436
21
0.616766
0
LINE
8
BLACK
6
CONTINUOUS
10
0.332436
20
0.616766
11
0.334024
21
0.618354
0
LINE
8
BLACK
6
CONTINUOUS
10
0.334024
20
0.618354
11
0.335453
21
0.621213
0
LINE
8
BLACK
6
CONTINUOUS
10
0.335453
20
0.621213
11
0.335453
21
0.629406
0
LINE
8
BLACK
6
CONTINUOUS
10
0.335453
20
0.629406
11
0.334024
21
0.632265
0
LINE
8
BLACK
6
CONTINUOUS
10
0.334024
20
0.632265
11
0.332723
21
0.633566
0
LINE
8
BLACK
6
CONTINUOUS
10
0.332723
20
0.633566
11
0.329864
21
0.634995
0
LINE
8
BLACK
6
CONTINUOUS
10
0.329864
20
0.634995
11
0.321671
21
0.634995
0
LINE
8
BLACK
6
CONTINUOUS
10
0.321671
20
0.634995
11
0.318812
21
0.633566
0
LINE
8
BLACK
6
CONTINUOUS
10
0.318812
20
0.633566
11
0.317511
21
0.632265
0
LINE
8
BLACK
6
CONTINUOUS
10
0.317511
20
0.632265
11
0.316081
21
0.629406
0
LINE
8
BLACK
6
CONTINUOUS
10
0.316081
20
0.629406
11
0.316081
21
0.621213
0
LINE
8
BLACK
6
CONTINUOUS
10
0.316081
20
0.621213
11
0.317511
21
0.618354
0
LINE
8
BLACK
6
CONTINUOUS
10
0.317511
20
0.618354
11
0.319099
21
0.616766
0
LINE
8
BLACK
6
CONTINUOUS
10
0.319099
20
0.616766
11
0.319149
21
0.616644
0
LINE
8
BLACK
6
CONTINUOUS
10
0.319149
20
0.616644
11
0.319266
21
0.616581
0
LINE
8
BLACK
6
CONTINUOUS
10
0.319266
20
0.616581
11
0.319509
21
0.615775
0
LINE
8
BLACK
6
CONTINUOUS
10
0.319509
20
0.615775
11
0.319831
21
0.614998
0
LINE
8
BLACK
6
CONTINUOUS
10
0.319831
20
0.614998
11
0.31978
21
0.614876
0
LINE
8
BLACK
6
CONTINUOUS
10
0.31978
20
0.614876
11
0.319819
21
0.614749
0
LINE
8
BLACK
6
CONTINUOUS
10
0.319819
20
0.614749
11
0.319421
21
0.614008
0
LINE
8
BLACK
6
CONTINUOUS
10
0.319421
20
0.614008
11
0.319099
21
0.61323
0
LINE
8
BLACK
6
CONTINUOUS
10
0.319099
20
0.61323
11
0.318976
21
0.61318
0
LINE
8
BLACK
6
CONTINUOUS
10
0.318976
20
0.61318
11
0.318914
21
0.613063
0
LINE
8
BLACK
6
CONTINUOUS
10
0.318914
20
0.613063
11
0.318108
21
0.61282
0
LINE
8
BLACK
6
CONTINUOUS
10
0.318108
20
0.61282
11
0.317331
21
0.612498
0
LINE
8
BLACK
6
CONTINUOUS
10
0.317331
20
0.612498
11
0.317209
21
0.612549
0
LINE
8
BLACK
6
CONTINUOUS
10
0.317209
20
0.612549
11
0.317082
21
0.612511
0
LINE
8
BLACK
6
CONTINUOUS
10
0.317082
20
0.612511
11
0.298335
21
0.614385
0
LINE
8
BLACK
6
CONTINUOUS
10
0.298335
20
0.614385
11
0.297593
21
0.614783
0
LINE
8
BLACK
6
CONTINUOUS
10
0.297593
20
0.614783
11
0.296816
21
0.615105
0
LINE
8
BLACK
6
CONTINUOUS
10
0.296816
20
0.615105
11
0.296765
21
0.615227
0
LINE
8
BLACK
6
CONTINUOUS
10
0.296765
20
0.615227
11
0.296648
21
0.61529
0
LINE
8
BLACK
6
CONTINUOUS
10
0.296648
20
0.61529
11
0.296405
21
0.616095
0
LINE
8
BLACK
6
CONTINUOUS
10
0.296405
20
0.616095
11
0.296083
21
0.616873
0
LINE
8
BLACK
6
CONTINUOUS
10
0.296083
20
0.616873
11
0.296083
21
0.635621
0
LINE
8
BLACK
6
CONTINUOUS
10
0.296083
20
0.635621
11
0.296816
21
0.637388
0
LINE
8
BLACK
6
CONTINUOUS
10
0.296816
20
0.637388
11
0.298583
21
0.638121
0
LINE
8
BLACK
6
CONTINUOUS
10
0.298583
20
0.638121
11
0.300351
21
0.637388
0
LINE
8
BLACK
6
CONTINUOUS
10
0.300351
20
0.637388
11
0.301083
21
0.635621
0
LINE
8
BLACK
6
CONTINUOUS
10
0.301083
20
0.635621
11
0.301083
21
0.619135
0
LINE
8
BLACK
6
CONTINUOUS
10
0.301083
20
0.619135
11
0.31208
21
0.618036
0
LINE
8
BLACK
6
CONTINUOUS
10
0.31208
20
0.618036
11
0.311345
21
0.619504
0
LINE
8
BLACK
6
CONTINUOUS
10
0.311345
20
0.619504
11
0.311304
21
0.620085
0
LINE
8
BLACK
6
CONTINUOUS
10
0.311304
20
0.620085
11
0.311081
21
0.620622
0
LINE
8
BLACK
6
CONTINUOUS
10
0.311081
20
0.620622
11
0.311081
21
0.629996
0
LINE
8
BLACK
6
CONTINUOUS
10
0.311081
20
0.629996
11
0.311304
21
0.630534
0
LINE
8
BLACK
6
CONTINUOUS
10
0.311304
20
0.630534
11
0.311345
21
0.631114
0
LINE
8
BLACK
6
CONTINUOUS
10
0.311345
20
0.631114
11
0.31322
21
0.634864
0
LINE
8
BLACK
6
CONTINUOUS
10
0.31322
20
0.634864
11
0.313531
21
0.635133
0
LINE
8
BLACK
6
CONTINUOUS
10
0.313531
20
0.635133
11
0.313688
21
0.635514
0
LINE
8
BLACK
6
CONTINUOUS
10
0.313688
20
0.635514
11
0.315563
21
0.637388
0
LINE
8
BLACK
6
CONTINUOUS
10
0.315563
20
0.637388
11
0.315943
21
0.637546
0
LINE
8
BLACK
6
CONTINUOUS
10
0.315943
20
0.637546
11
0.316213
21
0.637857
0
LINE
8
BLACK
6
CONTINUOUS
10
0.316213
20
0.637857
11
0.319962
21
0.639731
0
LINE
8
BLACK
6
CONTINUOUS
10
0.319962
20
0.639731
11
0.320543
21
0.639773
0
LINE
8
BLACK
6
CONTINUOUS
10
0.320543
20
0.639773
11
0.32108
21
0.639995
0
LINE
8
BLACK
6
CONTINUOUS
10
0.32108
20
0.639995
11
0.330454
21
0.639995
0
LINE
8
BLACK
6
CONTINUOUS
10
0.330454
20
0.639995
11
0.330992
21
0.639773
0
LINE
8
BLACK
6
CONTINUOUS
10
0.337846
20
0.658011
11
0.337846
21
0.658011
0
LINE
8
BLACK
6
CONTINUOUS
10
0.337846
20
0.658011
11
0.339721
21
0.656136
0
LINE
8
BLACK
6
CONTINUOUS
10
0.339721
20
0.656136
11
0.339721
21
0.656136
0
LINE
8
BLACK
6
CONTINUOUS
10
0.339721
20
0.656136
11
0.340453
21
0.654368
0
LINE
8
BLACK
6
CONTINUOUS
10
0.340453
20
0.654368
11
0.339936
21
0.653118
0
LINE
8
BLACK
6
CONTINUOUS
10
0.339936
20
0.653118
11
0.339721
21
0.6526
0
LINE
8
BLACK
6
CONTINUOUS
10
0.339721
20
0.6526
11
0.337846
21
0.650726
0
LINE
8
BLACK
6
CONTINUOUS
10
0.337846
20
0.650726
11
0.337846
21
0.650726
0
LINE
8
BLACK
6
CONTINUOUS
10
0.337846
20
0.650726
11
0.336079
21
0.649993
0
LINE
8
BLACK
6
CONTINUOUS
10
0.336079
20
0.649993
11
0.336079
21
0.649994
0
LINE
8
BLACK
6
CONTINUOUS
10
0.336079
20
0.649994
11
0.336079
21
0.649993
0
LINE
8
BLACK
6
CONTINUOUS
10
0.336079
20
0.649993
11
0.335561
21
0.650208
0
LINE
8
BLACK
6
CONTINUOUS
10
0.335561
20
0.650208
11
0.334311
21
0.650726
0
LINE
8
BLACK
6
CONTINUOUS
10
0.334311
20
0.650726
11
0.332436
21
0.6526
0
LINE
8
BLACK
6
CONTINUOUS
10
0.332436
20
0.6526
11
0.332436
21
0.6526
0
LINE
8
BLACK
6
CONTINUOUS
10
0.332436
20
0.6526
11
0.332133
21
0.653333
0
LINE
8
BLACK
6
CONTINUOUS
10
0.332133
20
0.653333
11
0.331704
21
0.654368
0
LINE
8
BLACK
6
CONTINUOUS
10
0.331704
20
0.654368
11
0.331704
21
0.654368
0
LINE
8
BLACK
6
CONTINUOUS
10
0.331704
20
0.654368
11
0.331748
21
0.654475
0
LINE
8
BLACK
6
CONTINUOUS
10
0.331748
20
0.654475
11
0.332133
21
0.655404
0
LINE
8
BLACK
6
CONTINUOUS
10
0.332133
20
0.655404
11
0.332436
21
0.656136
0
LINE
8
BLACK
6
CONTINUOUS
10
0.332436
20
0.656136
11
0.332436
21
0.656136
0
LINE
8
BLACK
6
CONTINUOUS
10
0.332436
20
0.656136
11
0.332436
21
0.656136
0
LINE
8
BLACK
6
CONTINUOUS
10
0.332436
20
0.656136
11
0.334311
21
0.658011
0
LINE
8
BLACK
6
CONTINUOUS
10
0.334311
20
0.658011
11
0.335561
21
0.658529
0
LINE
8
BLACK
6
CONTINUOUS
10
0.335561
20
0.658529
11
0.336079
21
0.658743
0
LINE
8
BLACK
6
CONTINUOUS
10
0.336079
20
0.658743
11
0.336079
21
0.658743
0
LINE
8
BLACK
6
CONTINUOUS
10
0.336079
20
0.658743
11
0.337846
21
0.658011
0
LINE
8
BLACK
6
CONTINUOUS
10
0.0410099
20
0.665979
11
0.0425572
21
0.664681
0
LINE
8
BLACK
6
CONTINUOUS
10
0.0425572
20
0.664681
11
0.0429079
21
0.662692
0
LINE
8
BLACK
6
CONTINUOUS
10
0.0429079
20
0.662692
11
0.041898
21
0.660943
0
LINE
8
BLACK
6
CONTINUOUS
10
0.041898
20
0.660943
11
0.04
21
0.660252
0
LINE
8
BLACK
6
CONTINUOUS
10
0.04
20
0.660252
11
-0.04
21
0.660252
0
LINE
8
BLACK
6
CONTINUOUS
10
-0.04
20
0.660252
11
-0.0410099
21
0.66043
0
LINE
8
BLACK
6
CONTINUOUS
10
-0.0410099
20
0.66043
11
-0.0425572
21
0.661728
0
LINE
8
BLACK
6
CONTINUOUS
10
-0.0425572
20
0.661728
11
-0.0429079
21
0.663717
0
LINE
8
BLACK
6
CONTINUOUS
10
-0.0429079
20
0.663717
11
-0.041898
21
0.665467
0
LINE
8
BLACK
6
CONTINUOUS
10
-0.041898
20
0.665467
11
-0.04
21
0.666157
0
LINE
8
BLACK
6
CONTINUOUS
10
-0.04
20
0.666157
11
0.04
21
0.666157
0
LINE
8
BLACK
6
CONTINUOUS
10
0.04
20
0.666157
11
0.0410099
21
0.665979
0
LINE
8
BLACK
6
CONTINUOUS
10
0.330992
20
0.696016
11
0.331572
21
0.695974
0
LINE
8
BLACK
6
CONTINUOUS
10
0.331572
20
0.695974
11
0.335322
21
0.6941
0
LINE
8
BLACK
6
CONTINUOUS
10
0.335322
20
0.6941
11
0.335591
21
0.693789
0
LINE
8
BLACK
6
CONTINUOUS
10
0.335591
20
0.693789
11
0.335972
21
0.693631
0
LINE
8
BLACK
6
CONTINUOUS
10
0.335972
20
0.693631
11
0.337846
21
0.691757
0
LINE
8
BLACK
6
CONTINUOUS
10
0.337846
20
0.691757
11
0.338004
21
0.691376
0
LINE
8
BLACK
6
CONTINUOUS
10
0.338004
20
0.691376
11
0.338315
21
0.691107
0
LINE
8
BLACK
6
CONTINUOUS
10
0.338315
20
0.691107
11
0.340189
21
0.687357
0
LINE
8
BLACK
6
CONTINUOUS
10
0.340189
20
0.687357
11
0.340231
21
0.686777
0
LINE
8
BLACK
6
CONTINUOUS
10
0.340231
20
0.686777
11
0.340453
21
0.686239
0
LINE
8
BLACK
6
CONTINUOUS
10
0.340453
20
0.686239
11
0.340453
21
0.676865
0
LINE
8
BLACK
6
CONTINUOUS
10
0.340453
20
0.676865
11
0.340231
21
0.676328
0
LINE
8
BLACK
6
CONTINUOUS
10
0.340231
20
0.676328
11
0.340189
21
0.675747
0
LINE
8
BLACK
6
CONTINUOUS
10
0.340189
20
0.675747
11
0.338315
21
0.671998
0
LINE
8
BLACK
6
CONTINUOUS
10
0.338315
20
0.671998
11
0.338004
21
0.671728
0
LINE
8
BLACK
6
CONTINUOUS
10
0.338004
20
0.671728
11
0.337846
21
0.671348
0
LINE
8
BLACK
6
CONTINUOUS
10
0.337846
20
0.671348
11
0.335972
21
0.669473
0
LINE
8
BLACK
6
CONTINUOUS
10
0.335972
20
0.669473
11
0.334204
21
0.668741
0
LINE
8
BLACK
6
CONTINUOUS
10
0.334204
20
0.668741
11
0.332436
21
0.669473
0
LINE
8
BLACK
6
CONTINUOUS
10
0.332436
20
0.669473
11
0.331704
21
0.671241
0
LINE
8
BLACK
6
CONTINUOUS
10
0.331704
20
0.671241
11
0.332436
21
0.673009
0
LINE
8
BLACK
6
CONTINUOUS
10
0.332436
20
0.673009
11
0.334024
21
0.674597
0
LINE
8
BLACK
6
CONTINUOUS
10
0.334024
20
0.674597
11
0.335453
21
0.677456
0
LINE
8
BLACK
6
CONTINUOUS
10
0.335453
20
0.677456
11
0.335453
21
0.685649
0
LINE
8
BLACK
6
CONTINUOUS
10
0.335453
20
0.685649
11
0.334024
21
0.688508
0
LINE
8
BLACK
6
CONTINUOUS
10
0.334024
20
0.688508
11
0.332723
21
0.689809
0
LINE
8
BLACK
6
CONTINUOUS
10
0.332723
20
0.689809
11
0.329864
21
0.691238
0
LINE
8
BLACK
6
CONTINUOUS
10
0.329864
20
0.691238
11
0.321671
21
0.691238
0
LINE
8
BLACK
6
CONTINUOUS
10
0.321671
20
0.691238
11
0.318812
21
0.689809
0
LINE
8
BLACK
6
CONTINUOUS
10
0.318812
20
0.689809
11
0.317511
21
0.688508
0
LINE
8
BLACK
6
CONTINUOUS
10
0.317511
20
0.688508
11
0.316081
21
0.685649
0
LINE
8
BLACK
6
CONTINUOUS
10
0.316081
20
0.685649
11
0.316081
21
0.677456
0
LINE
8
BLACK
6
CONTINUOUS
10
0.316081
20
0.677456
11
0.317511
21
0.674597
0
LINE
8
BLACK
6
CONTINUOUS
10
0.317511
20
0.674597
11
0.319099
21
0.673009
0
LINE
8
BLACK
6
CONTINUOUS
10
0.319099
20
0.673009
11
0.319149
21
0.672887
0
LINE
8
BLACK
6
CONTINUOUS
10
0.319149
20
0.672887
11
0.319266
21
0.672824
0
LINE
8
BLACK
6
CONTINUOUS
10
0.319266
20
0.672824
11
0.319509
21
0.672018
0
LINE
8
BLACK
6
CONTINUOUS
10
0.319509
20
0.672018
11
0.319831
21
0.671241
0
LINE
8
BLACK
6
CONTINUOUS
10
0.319831
20
0.671241
11
0.31978
21
0.671119
0
LINE
8
BLACK
6
CONTINUOUS
10
0.31978
20
0.671119
11
0.319819
21
0.670992
0
LINE
8
BLACK
6
CONTINUOUS
10
0.319819
20
0.670992
11
0.319421
21
0.670251
0
LINE
8
BLACK
6
CONTINUOUS
10
0.319421
20
0.670251
11
0.319099
21
0.669473
0
LINE
8
BLACK
6
CONTINUOUS
10
0.319099
20
0.669473
11
0.318976
21
0.669423
0
LINE
8
BLACK
6
CONTINUOUS
10
0.318976
20
0.669423
11
0.318914
21
0.669306
0
LINE
8
BLACK
6
CONTINUOUS
10
0.318914
20
0.669306
11
0.318108
21
0.669063
0
LINE
8
BLACK
6
CONTINUOUS
10
0.318108
20
0.669063
11
0.317331
21
0.668741
0
LINE
8
BLACK
6
CONTINUOUS
10
0.317331
20
0.668741
11
0.317209
21
0.668792
0
LINE
8
BLACK
6
CONTINUOUS
10
0.317209
20
0.668792
11
0.317082
21
0.668754
0
LINE
8
BLACK
6
CONTINUOUS
10
0.317082
20
0.668754
11
0.298335
21
0.670628
0
LINE
8
BLACK
6
CONTINUOUS
10
0.298335
20
0.670628
11
0.297593
21
0.671026
0
LINE
8
BLACK
6
CONTINUOUS
10
0.297593
20
0.671026
11
0.296816
21
0.671348
0
LINE
8
BLACK
6
CONTINUOUS
10
0.296816
20
0.671348
11
0.296765
21
0.67147
0
LINE
8
BLACK
6
CONTINUOUS
10
0.296765
20
0.67147
11
0.296648
21
0.671533
0
LINE
8
BLACK
6
CONTINUOUS
10
0.296648
20
0.671533
11
0.296405
21
0.672338
0
LINE
8
BLACK
6
CONTINUOUS
10
0.296405
20
0.672338
11
0.296083
21
0.673116
0
LINE
8
BLACK
6
CONTINUOUS
10
0.296083
20
0.673116
11
0.296083
21
0.691864
0
LINE
8
BLACK
6
CONTINUOUS
10
0.296083
20
0.691864
11
0.296816
21
0.693631
0
LINE
8
BLACK
6
CONTINUOUS
10
0.296816
20
0.693631
11
0.298583
21
0.694364
0
LINE
8
BLACK
6
CONTINUOUS
10
0.298583
20
0.694364
11
0.300351
21
0.693631
0
LINE
8
BLACK
6
CONTINUOUS
10
0.300351
20
0.693631
11
0.301083
21
0.691864
0
LINE
8
BLACK
6
CONTINUOUS
10
0.301083
20
0.691864
11
0.301083
21
0.675378
0
LINE
8
BLACK
6
CONTINUOUS
10
0.301083
20
0.675378
11
0.31208
21
0.674279
0
LINE
8
BLACK
6
CONTINUOUS
10
0.31208
20
0.674279
11
0.311345
21
0.675747
0
LINE
8
BLACK
6
CONTINUOUS
10
0.311345
20
0.675747
11
0.311304
21
0.676328
0
LINE
8
BLACK
6
CONTINUOUS
10
0.311304
20
0.676328
11
0.311081
21
0.676865
0
LINE
8
BLACK
6
CONTINUOUS
10
0.311081
20
0.676865
11
0.311081
21
0.686239
0
LINE
8
BLACK
6
CONTINUOUS
10
0.311081
20
0.686239
11
0.311304
21
0.686777
0
LINE
8
BLACK
6
CONTINUOUS
10
0.311304
20
0.686777
11
0.311345
21
0.687357
0
LINE
8
BLACK
6
CONTINUOUS
10
0.311345
20
0.687357
11
0.31322
21
0.691107
0
LINE
8
BLACK
6
CONTINUOUS
10
0.31322
20
0.691107
11
0.313531
21
0.691376
0
LINE
8
BLACK
6
CONTINUOUS
10
0.313531
20
0.691376
11
0.313688
21
0.691756
0
LINE
8
BLACK
6
CONTINUOUS
10
0.313688
20
0.691756
11
0.315563
21
0.693631
0
LINE
8
BLACK
6
CONTINUOUS
10
0.315563
20
0.693631
11
0.315943
21
0.693789
0
LINE
8
BLACK
6
CONTINUOUS
10
0.315943
20
0.693789
11
0.316213
21
0.6941
0
LINE
8
BLACK
6
CONTINUOUS
10
0.316213
20
0.6941
11
0.319962
21
0.695974
0
LINE
8
BLACK
6
CONTINUOUS
10
0.319962
20
0.695974
11
0.320543
21
0.696016
0
LINE
8
BLACK
6
CONTINUOUS
10
0.320543
20
0.696016
11
0.32108
21
0.696238
0
LINE
8
BLACK
6
CONTINUOUS
10
0.32108
20
0.696238
11
0.330454
21
0.696238
0
LINE
8
BLACK
6
CONTINUOUS
10
0.330454
20
0.696238
11
0.330992
21
0.696016
0
LINE
8
BLACK
6
CONTINUOUS
10
0.338744
20
0.720482
11
0.338885
21
0.72036
0
LINE
8
BLACK
6
CONTINUOUS
10
0.338885
20
0.72036
11
0.339071
21
0.720346
0
LINE
8
BLACK
6
CONTINUOUS
10
0.339071
20
0.720346
11
0.339591
21
0.719748
0
LINE
8
BLACK
6
CONTINUOUS
10
0.339591
20
0.719748
11
0.340189
21
0.719228
0
LINE
8
BLACK
6
CONTINUOUS
10
0.340189
20
0.719228
11
0.340203
21
0.719042
0
LINE
8
BLACK
6
CONTINUOUS
10
0.340203
20
0.719042
11
0.340325
21
0.718901
0
LINE
8
BLACK
6
CONTINUOUS
10
0.340325
20
0.718901
11
0.340269
21
0.71811
0
LINE
8
BLACK
6
CONTINUOUS
10
0.340269
20
0.71811
11
0.340325
21
0.71732
0
LINE
8
BLACK
6
CONTINUOUS
10
0.340325
20
0.71732
11
0.340203
21
0.717179
0
LINE
8
BLACK
6
CONTINUOUS
10
0.340203
20
0.717179
11
0.340189
21
0.716992
0
LINE
8
BLACK
6
CONTINUOUS
10
0.340189
20
0.716992
11
0.339591
21
0.716473
0
LINE
8
BLACK
6
CONTINUOUS
10
0.339591
20
0.716473
11
0.339071
21
0.715874
0
LINE
8
BLACK
6
CONTINUOUS
10
0.339071
20
0.715874
11
0.338885
21
0.715861
0
LINE
8
BLACK
6
CONTINUOUS
10
0.338885
20
0.715861
11
0.338744
21
0.715739
0
LINE
8
BLACK
6
CONTINUOUS
10
0.338744
20
0.715739
11
0.299374
21
0.702615
0
LINE
8
BLACK
6
CONTINUOUS
10
0.299374
20
0.702615
11
0.297465
21
0.702751
0
LINE
8
BLACK
6
CONTINUOUS
10
0.297465
20
0.702751
11
0.296212
21
0.704196
0
LINE
8
BLACK
6
CONTINUOUS
10
0.296212
20
0.704196
11
0.296347
21
0.706105
0
LINE
8
BLACK
6
CONTINUOUS
10
0.296347
20
0.706105
11
0.297793
21
0.707359
0
LINE
8
BLACK
6
CONTINUOUS
10
0.297793
20
0.707359
11
0.330048
21
0.71811
0
LINE
8
BLACK
6
CONTINUOUS
10
0.330048
20
0.71811
11
0.297793
21
0.728862
0
LINE
8
BLACK
6
CONTINUOUS
10
0.297793
20
0.728862
11
0.296347
21
0.730116
0
LINE
8
BLACK
6
CONTINUOUS
10
0.296347
20
0.730116
11
0.296212
21
0.732024
0
LINE
8
BLACK
6
CONTINUOUS
10
0.296212
20
0.732024
11
0.297465
21
0.73347
0
LINE
8
BLACK
6
CONTINUOUS
10
0.297465
20
0.73347
11
0.299374
21
0.733605
0
LINE
8
BLACK
6
CONTINUOUS
10
0.299374
20
0.733605
11
0.338744
21
0.720482
0
LINE
8
BLACK
6
CONTINUOUS
10
0.269721
20
0.746462
11
0.270453
21
0.744694
0
LINE
8
BLACK
6
CONTINUOUS
10
0.270453
20
0.744694
11
0.270453
21
0.725947
0
LINE
8
BLACK
6
CONTINUOUS
10
0.270453
20
0.725947
11
0.269721
21
0.724179
0
LINE
8
BLACK
6
CONTINUOUS
10
0.269721
20
0.724179
11
0.267953
21
0.723447
0
LINE
8
BLACK
6
CONTINUOUS
10
0.267953
20
0.723447
11
0.228583
21
0.723447
0
LINE
8
BLACK
6
CONTINUOUS
10
0.228583
20
0.723447
11
0.226816
21
0.724179
0
LINE
8
BLACK
6
CONTINUOUS
10
0.226816
20
0.724179
11
0.226083
21
0.725947
0
LINE
8
BLACK
6
CONTINUOUS
10
0.226083
20
0.725947
11
0.226816
21
0.727715
0
LINE
8
BLACK
6
CONTINUOUS
10
0.226816
20
0.727715
11
0.228583
21
0.728447
0
LINE
8
BLACK
6
CONTINUOUS
10
0.228583
20
0.728447
11
0.265453
21
0.728447
0
LINE
8
BLACK
6
CONTINUOUS
10
0.265453
20
0.728447
11
0.265453
21
0.744694
0
LINE
8
BLACK
6
CONTINUOUS
10
0.265453
20
0.744694
11
0.266186
21
0.746462
0
LINE
8
BLACK
6
CONTINUOUS
10
0.266186
20
0.746462
11
0.267953
21
0.747194
0
LINE
8
BLACK
6
CONTINUOUS
10
0.267953
20
0.747194
11
0.269721
21
0.746462
0
LINE
8
BLACK
6
CONTINUOUS
10
0.666416
20
0.777396
11
0.667148
21
0.775628
0
LINE
8
BLACK
6
CONTINUOUS
10
0.667148
20
0.775628
11
0.667148
21
0.76313
0
LINE
8
BLACK
6
CONTINUOUS
10
0.667148
20
0.76313
11
0.679646
21
0.76313
0
LINE
8
BLACK
6
CONTINUOUS
10
0.679646
20
0.76313
11
0.681414
21
0.762398
0
LINE
8
BLACK
6
CONTINUOUS
10
0.681414
20
0.762398
11
0.682146
21
0.76063
0
LINE
8
BLACK
6
CONTINUOUS
10
0.682146
20
0.76063
11
0.681414
21
0.758862
0
LINE
8
BLACK
6
CONTINUOUS
10
0.681414
20
0.758862
11
0.679646
21
0.75813
0
LINE
8
BLACK
6
CONTINUOUS
10
0.679646
20
0.75813
11
0.667148
21
0.75813
0
LINE
8
BLACK
6
CONTINUOUS
10
0.667148
20
0.75813
11
0.667148
21
0.745632
0
LINE
8
BLACK
6
CONTINUOUS
10
0.667148
20
0.745632
11
0.666416
21
0.743864
0
LINE
8
BLACK
6
CONTINUOUS
10
0.666416
20
0.743864
11
0.664648
21
0.743132
0
LINE
8
BLACK
6
CONTINUOUS
10
0.664648
20
0.743132
11
0.66288
21
0.743864
0
LINE
8
BLACK
6
CONTINUOUS
10
0.66288
20
0.743864
11
0.662148
21
0.745632
0
LINE
8
BLACK
6
CONTINUOUS
10
0.662148
20
0.745632
11
0.662148
21
0.75813
0
LINE
8
BLACK
6
CONTINUOUS
10
0.662148
20
0.75813
11
0.64965
21
0.75813
0
LINE
8
BLACK
6
CONTINUOUS
10
0.64965
20
0.75813
11
0.647882
21
0.758862
0
LINE
8
BLACK
6
CONTINUOUS
10
0.647882
20
0.758862
11
0.64715
21
0.76063
0
LINE
8
BLACK
6
CONTINUOUS
10
0.64715
20
0.76063
11
0.647882
21
0.762398
0
LINE
8
BLACK
6
CONTINUOUS
10
0.647882
20
0.762398
11
0.64965
21
0.76313
0
LINE
8
BLACK
6
CONTINUOUS
10
0.64965
20
0.76313
11
0.662148
21
0.76313
0
LINE
8
BLACK
6
CONTINUOUS
10
0.662148
20
0.76313
11
0.662148
21
0.775628
0
LINE
8
BLACK
6
CONTINUOUS
10
0.662148
20
0.775628
11
0.66288
21
0.777396
0
LINE
8
BLACK
6
CONTINUOUS
10
0.66288
20
0.777396
11
0.664648
21
0.778128
0
LINE
8
BLACK
6
CONTINUOUS
10
0.664648
20
0.778128
11
0.666416
21
0.777396
0
LINE
8
BLACK
6
CONTINUOUS
10
0.618028
20
0.770834
11
0.61876
21
0.769066
0
LINE
8
BLACK
6
CONTINUOUS
10
0.61876
20
0.769066
11
0.61876
21
0.750319
0
LINE
8
BLACK
6
CONTINUOUS
10
0.61876
20
0.750319
11
0.618028
21
0.748551
0
LINE
8
BLACK
6
CONTINUOUS
10
0.618028
20
0.748551
11
0.61626
21
0.747819
0
LINE
8
BLACK
6
CONTINUOUS
10
0.61626
20
0.747819
11
0.57689
21
0.747819
0
LINE
8
BLACK
6
CONTINUOUS
10
0.57689
20
0.747819
11
0.575123
21
0.748551
0
LINE
8
BLACK
6
CONTINUOUS
10
0.575123
20
0.748551
11
0.57439
21
0.750319
0
LINE
8
BLACK
6
CONTINUOUS
10
0.57439
20
0.750319
11
0.575123
21
0.752086
0
LINE
8
BLACK
6
CONTINUOUS
10
0.575123
20
0.752086
11
0.57689
21
0.752819
0
LINE
8
BLACK
6
CONTINUOUS
10
0.57689
20
0.752819
11
0.61376
21
0.752819
0
LINE
8
BLACK
6
CONTINUOUS
10
0.61376
20
0.752819
11
0.61376
21
0.769066
0
LINE
8
BLACK
6
CONTINUOUS
10
0.61376
20
0.769066
11
0.614493
21
0.770834
0
LINE
8
BLACK
6
CONTINUOUS
10
0.614493
20
0.770834
11
0.61626
21
0.771566
0
LINE
8
BLACK
6
CONTINUOUS
10
0.61626
20
0.771566
11
0.618028
21
0.770834
0
LINE
8
BLACK
6
CONTINUOUS
10
0.269721
20
0.785832
11
0.270453
21
0.784065
0
LINE
8
BLACK
6
CONTINUOUS
10
0.270453
20
0.784065
11
0.269721
21
0.782297
0
LINE
8
BLACK
6
CONTINUOUS
10
0.269721
20
0.782297
11
0.267953
21
0.781565
0
LINE
8
BLACK
6
CONTINUOUS
10
0.267953
20
0.781565
11
0.239852
21
0.781565
0
LINE
8
BLACK
6
CONTINUOUS
10
0.239852
20
0.781565
11
0.257762
21
0.773207
0
LINE
8
BLACK
6
CONTINUOUS
10
0.257762
20
0.773207
11
0.258339
21
0.772576
0
LINE
8
BLACK
6
CONTINUOUS
10
0.258339
20
0.772576
11
0.25897
21
0.771998
0
LINE
8
BLACK
6
CONTINUOUS
10
0.25897
20
0.771998
11
0.258975
21
0.771882
0
LINE
8
BLACK
6
CONTINUOUS
10
0.258975
20
0.771882
11
0.259054
21
0.771796
0
LINE
8
BLACK
6
CONTINUOUS
10
0.259054
20
0.771796
11
0.259017
21
0.770941
0
LINE
8
BLACK
6
CONTINUOUS
10
0.259017
20
0.770941
11
0.259054
21
0.770087
0
LINE
8
BLACK
6
CONTINUOUS
10
0.259054
20
0.770087
11
0.258975
21
0.770001
0
LINE
8
BLACK
6
CONTINUOUS
10
0.258975
20
0.770001
11
0.25897
21
0.769884
0
LINE
8
BLACK
6
CONTINUOUS
10
0.25897
20
0.769884
11
0.258339
21
0.769306
0
LINE
8
BLACK
6
CONTINUOUS
10
0.258339
20
0.769306
11
0.257762
21
0.768676
0
LINE
8
BLACK
6
CONTINUOUS
10
0.257762
20
0.768676
11
0.239852
21
0.760318
0
LINE
8
BLACK
6
CONTINUOUS
10
0.239852
20
0.760318
11
0.267953
21
0.760318
0
LINE
8
BLACK
6
CONTINUOUS
10
0.267953
20
0.760318
11
0.269721
21
0.759586
0
LINE
8
BLACK
6
CONTINUOUS
10
0.269721
20
0.759586
11
0.270453
21
0.757818
0
LINE
8
BLACK
6
CONTINUOUS
10
0.270453
20
0.757818
11
0.269721
21
0.75605
0
LINE
8
BLACK
6
CONTINUOUS
10
0.269721
20
0.75605
11
0.267953
21
0.755318
0
LINE
8
BLACK
6
CONTINUOUS
10
0.267953
20
0.755318
11
0.228583
21
0.755318
0
LINE
8
BLACK
6
CONTINUOUS
10
0.228583
20
0.755318
11
0.228173
21
0.755488
0
LINE
8
BLACK
6
CONTINUOUS
10
0.228173
20
0.755488
11
0.227729
21
0.755468
0
LINE
8
BLACK
6
CONTINUOUS
10
0.227729
20
0.755468
11
0.227323
21
0.75584
0
LINE
8
BLACK
6
CONTINUOUS
10
0.227323
20
0.75584
11
0.226816
21
0.75605
0
LINE
8
BLACK
6
CONTINUOUS
10
0.226816
20
0.75605
11
0.226645
21
0.756461
0
LINE
8
BLACK
6
CONTINUOUS
10
0.226645
20
0.756461
11
0.226318
21
0.756761
0
LINE
8
BLACK
6
CONTINUOUS
10
0.226318
20
0.756761
11
0.226294
21
0.75731
0
LINE
8
BLACK
6
CONTINUOUS
10
0.226294
20
0.75731
11
0.226083
21
0.757818
0
LINE
8
BLACK
6
CONTINUOUS
10
0.226083
20
0.757818
11
0.226253
21
0.758228
0
LINE
8
BLACK
6
CONTINUOUS
10
0.226253
20
0.758228
11
0.226234
21
0.758672
0
LINE
8
BLACK
6
CONTINUOUS
10
0.226234
20
0.758672
11
0.226605
21
0.759078
0
LINE
8
BLACK
6
CONTINUOUS
10
0.226605
20
0.759078
11
0.226816
21
0.759586
0
LINE
8
BLACK
6
CONTINUOUS
10
0.226816
20
0.759586
11
0.227226
21
0.759756
0
LINE
8
BLACK
6
CONTINUOUS
10
0.227226
20
0.759756
11
0.227526
21
0.760083
0
LINE
8
BLACK
6
CONTINUOUS
10
0.227526
20
0.760083
11
0.250793
21
0.770941
0
LINE
8
BLACK
6
CONTINUOUS
10
0.250793
20
0.770941
11
0.227526
21
0.781799
0
LINE
8
BLACK
6
CONTINUOUS
10
0.227526
20
0.781799
11
0.227226
21
0.782127
0
LINE
8
BLACK
6
CONTINUOUS
10
0.227226
20
0.782127
11
0.226816
21
0.782297
0
LINE
8
BLACK
6
CONTINUOUS
10
0.226816
20
0.782297
11
0.226605
21
0.782805
0
LINE
8
BLACK
6
CONTINUOUS
10
0.226605
20
0.782805
11
0.226234
21
0.78321
0
LINE
8
BLACK
6
CONTINUOUS
10
0.226234
20
0.78321
11
0.226253
21
0.783654
0
LINE
8
BLACK
6
CONTINUOUS
10
0.226253
20
0.783654
11
0.226083
21
0.784065
0
LINE
8
BLACK
6
CONTINUOUS
10
0.226083
20
0.784065
11
0.226294
21
0.784572
0
LINE
8
BLACK
6
CONTINUOUS
10
0.226294
20
0.784572
11
0.226318
21
0.785122
0
LINE
8
BLACK
6
CONTINUOUS
10
0.226318
20
0.785122
11
0.226645
21
0.785422
0
LINE
8
BLACK
6
CONTINUOUS
10
0.226645
20
0.785422
11
0.226816
21
0.785832
0
LINE
8
BLACK
6
CONTINUOUS
10
0.226816
20
0.785832
11
0.227323
21
0.786043
0
LINE
8
BLACK
6
CONTINUOUS
10
0.227323
20
0.786043
11
0.227729
21
0.786414
0
LINE
8
BLACK
6
CONTINUOUS
10
0.227729
20
0.786414
11
0.228173
21
0.786395
0
LINE
8
BLACK
6
CONTINUOUS
10
0.228173
20
0.786395
11
0.228583
21
0.786565
0
LINE
8
BLACK
6
CONTINUOUS
10
0.228583
20
0.786565
11
0.267953
21
0.786565
0
LINE
8
BLACK
6
CONTINUOUS
10
0.267953
20
0.786565
11
0.269721
21
0.785832
0
LINE
8
BLACK
6
CONTINUOUS
10
-0.135533
20
0.841898
11
-0.134843
21
0.84
0
LINE
8
BLACK
6
CONTINUOUS
10
-0.134843
20
0.84
11
-0.134843
21
0.76
0
LINE
8
BLACK
6
CONTINUOUS
10
-0.134843
20
0.76
11
-0.135021
21
0.75899
0
LINE
8
BLACK
6
CONTINUOUS
10
-0.135021
20
0.75899
11
-0.136319
21
0.757443
0
LINE
8
BLACK
6
CONTINUOUS
10
-0.136319
20
0.757443
11
-0.138308
21
0.757092
0
LINE
8
BLACK
6
CONTINUOUS
10
-0.138308
20
0.757092
11
-0.140057
21
0.758102
0
LINE
8
BLACK
6
CONTINUOUS
10
-0.140057
20
0.758102
11
-0.140748
21
0.76
0
LINE
8
BLACK
6
CONTINUOUS
10
-0.140748
20
0.76
11
-0.140748
21
0.84
0
LINE
8
BLACK
6
CONTINUOUS
10
-0.140748
20
0.84
11
-0.14057
21
0.84101
0
LINE
8
BLACK
6
CONTINUOUS
10
-0.14057
20
0.84101
11
-0.139272
21
0.842557
0
LINE
8
BLACK
6
CONTINUOUS
10
-0.139272
20
0.842557
11
-0.137283
21
0.842908
0
LINE
8
BLACK
6
CONTINUOUS
10
-0.137283
20
0.842908
11
-0.135533
21
0.841898
0
LINE
8
BLACK
6
CONTINUOUS
10
0.140057
20
0.841898
11
0.140748
21
0.84
0
LINE
8
BLACK
6
CONTINUOUS
10
0.140748
20
0.84
11
0.140748
21
0.76
0
LINE
8
BLACK
6
CONTINUOUS
10
0.140748
20
0.76
11
0.14057
21
0.75899
0
LINE
8
BLACK
6
CONTINUOUS
10
0.14057
20
0.75899
11
0.139272
21
0.757443
0
LINE
8
BLACK
6
CONTINUOUS
10
0.139272
20
0.757443
11
0.137283
21
0.757092
0
LINE
8
BLACK
6
CONTINUOUS
10
0.137283
20
0.757092
11
0.135533
21
0.758102
0
LINE
8
BLACK
6
CONTINUOUS
10
0.135533
20
0.758102
11
0.134843
21
0.76
0
LINE
8
BLACK
6
CONTINUOUS
10
0.134843
20
0.76
11
0.134843
21
0.84
0
LINE
8
BLACK
6
CONTINUOUS
10
0.134843
20
0.84
11
0.135021
21
0.84101
0
LINE
8
BLACK
6
CONTINUOUS
10
0.135021
20
0.84101
11
0.136319
21
0.842557
0
LINE
8
BLACK
6
CONTINUOUS
10
0.136319
20
0.842557
11
0.138308
21
0.842908
0
LINE
8
BLACK
6
CONTINUOUS
10
0.138308
20
0.842908
11
0.140057
21
0.841898
0
LINE
8
BLACK
6
CONTINUOUS
10
0.618028
20
0.810204
11
0.61876
21
0.808436
0
LINE
8
BLACK
6
CONTINUOUS
10
0.61876
20
0.808436
11
0.618028
21
0.806669
0
LINE
8
BLACK
6
CONTINUOUS
10
0.618028
20
0.806669
11
0.61626
21
0.805936
0
LINE
8
BLACK
6
CONTINUOUS
10
0.61626
20
0.805936
11
0.588159
21
0.805936
0
LINE
8
BLACK
6
CONTINUOUS
10
0.588159
20
0.805936
11
0.606069
21
0.797579
0
LINE
8
BLACK
6
CONTINUOUS
10
0.606069
20
0.797579
11
0.606646
21
0.796948
0
LINE
8
BLACK
6
CONTINUOUS
10
0.606646
20
0.796948
11
0.607277
21
0.79637
0
LINE
8
BLACK
6
CONTINUOUS
10
0.607277
20
0.79637
11
0.607282
21
0.796254
0
LINE
8
BLACK
6
CONTINUOUS
10
0.607282
20
0.796254
11
0.607361
21
0.796167
0
LINE
8
BLACK
6
CONTINUOUS
10
0.607361
20
0.796167
11
0.607324
21
0.795313
0
LINE
8
BLACK
6
CONTINUOUS
10
0.607324
20
0.795313
11
0.607361
21
0.794459
0
LINE
8
BLACK
6
CONTINUOUS
10
0.607361
20
0.794459
11
0.607282
21
0.794373
0
LINE
8
BLACK
6
CONTINUOUS
10
0.607282
20
0.794373
11
0.607277
21
0.794256
0
LINE
8
BLACK
6
CONTINUOUS
10
0.607277
20
0.794256
11
0.606646
21
0.793678
0
LINE
8
BLACK
6
CONTINUOUS
10
0.606646
20
0.793678
11
0.606069
21
0.793048
0
LINE
8
BLACK
6
CONTINUOUS
10
0.606069
20
0.793048
11
0.588159
21
0.78469
0
LINE
8
BLACK
6
CONTINUOUS
10
0.588159
20
0.78469
11
0.61626
21
0.78469
0
LINE
8
BLACK
6
CONTINUOUS
10
0.61626
20
0.78469
11
0.618028
21
0.783958
0
LINE
8
BLACK
6
CONTINUOUS
10
0.618028
20
0.783958
11
0.61876
21
0.78219
0
LINE
8
BLACK
6
CONTINUOUS
10
0.61876
20
0.78219
11
0.618028
21
0.780422
0
LINE
8
BLACK
6
CONTINUOUS
10
0.618028
20
0.780422
11
0.61626
21
0.77969
0
LINE
8
BLACK
6
CONTINUOUS
10
0.61626
20
0.77969
11
0.57689
21
0.77969
0
LINE
8
BLACK
6
CONTINUOUS
10
0.57689
20
0.77969
11
0.57648
21
0.77986
0
LINE
8
BLACK
6
CONTINUOUS
10
0.57648
20
0.77986
11
0.576036
21
0.77984
0
LINE
8
BLACK
6
CONTINUOUS
10
0.576036
20
0.77984
11
0.57563
21
0.780212
0
LINE
8
BLACK
6
CONTINUOUS
10
0.57563
20
0.780212
11
0.575123
21
0.780422
0
LINE
8
BLACK
6
CONTINUOUS
10
0.575123
20
0.780422
11
0.574953
21
0.780832
0
LINE
8
BLACK
6
CONTINUOUS
10
0.574953
20
0.780832
11
0.574625
21
0.781133
0
LINE
8
BLACK
6
CONTINUOUS
10
0.574625
20
0.781133
11
0.574601
21
0.781682
0
LINE
8
BLACK
6
CONTINUOUS
10
0.574601
20
0.781682
11
0.57439
21
0.78219
0
LINE
8
BLACK
6
CONTINUOUS
10
0.57439
20
0.78219
11
0.57456
21
0.7826
0
LINE
8
BLACK
6
CONTINUOUS
10
0.57456
20
0.7826
11
0.574541
21
0.783044
0
LINE
8
BLACK
6
CONTINUOUS
10
0.574541
20
0.783044
11
0.574912
21
0.78345
0
LINE
8
BLACK
6
CONTINUOUS
10
0.574912
20
0.78345
11
0.575123
21
0.783958
0
LINE
8
BLACK
6
CONTINUOUS
10
0.575123
20
0.783958
11
0.575533
21
0.784128
0
LINE
8
BLACK
6
CONTINUOUS
10
0.575533
20
0.784128
11
0.575833
21
0.784455
0
LINE
8
BLACK
6
CONTINUOUS
10
0.575833
20
0.784455
11
0.5991
21
0.795313
0
LINE
8
BLACK
6
CONTINUOUS
10
0.5991
20
0.795313
11
0.575833
21
0.806171
0
LINE
8
BLACK
6
CONTINUOUS
10
0.575833
20
0.806171
11
0.575533
21
0.806499
0
LINE
8
BLACK
6
CONTINUOUS
10
0.575533
20
0.806499
11
0.575123
21
0.806669
0
LINE
8
BLACK
6
CONTINUOUS
10
0.575123
20
0.806669
11
0.574912
21
0.807177
0
LINE
8
BLACK
6
CONTINUOUS
10
0.574912
20
0.807177
11
0.574541
21
0.807582
0
LINE
8
BLACK
6
CONTINUOUS
10
0.574541
20
0.807582
11
0.57456
21
0.808026
0
LINE
8
BLACK
6
CONTINUOUS
10
0.57456
20
0.808026
11
0.57439
21
0.808436
0
LINE
8
BLACK
6
CONTINUOUS
10
0.57439
20
0.808436
11
0.574601
21
0.808944
0
LINE
8
BLACK
6
CONTINUOUS
10
0.574601
20
0.808944
11
0.574625
21
0.809494
0
LINE
8
BLACK
6
CONTINUOUS
10
0.574625
20
0.809494
11
0.574953
21
0.809794
0
LINE
8
BLACK
6
CONTINUOUS
10
0.574953
20
0.809794
11
0.575123
21
0.810204
0
LINE
8
BLACK
6
CONTINUOUS
10
0.575123
20
0.810204
11
0.57563
21
0.810415
0
LINE
8
BLACK
6
CONTINUOUS
10
0.57563
20
0.810415
11
0.576036
21
0.810786
0
LINE
8
BLACK
6
CONTINUOUS
10
0.576036
20
0.810786
11
0.57648
21
0.810766
0
LINE
8
BLACK
6
CONTINUOUS
10
0.57648
20
0.810766
11
0.57689
21
0.810936
0
LINE
8
BLACK
6
CONTINUOUS
10
0.57689
20
0.810936
11
0.61626
21
0.810936
0
LINE
8
BLACK
6
CONTINUOUS
10
0.61626
20
0.810936
11
0.618028
21
0.810204
0
LINE
8
BLACK
6
CONTINUOUS
10
0.269721
20
0.827077
11
0.270453
21
0.825309
0
LINE
8
BLACK
6
CONTINUOUS
10
0.270453
20
0.825309
11
0.269721
21
0.823542
0
LINE
8
BLACK
6
CONTINUOUS
10
0.269721
20
0.823542
11
0.267953
21
0.822809
0
LINE
8
BLACK
6
CONTINUOUS
10
0.267953
20
0.822809
11
0.249831
21
0.822809
0
LINE
8
BLACK
6
CONTINUOUS
10
0.249831
20
0.822809
11
0.249831
21
0.805312
0
LINE
8
BLACK
6
CONTINUOUS
10
0.249831
20
0.805312
11
0.267953
21
0.805312
0
LINE
8
BLACK
6
CONTINUOUS
10
0.267953
20
0.805312
11
0.269721
21
0.80458
0
LINE
8
BLACK
6
CONTINUOUS
10
0.269721
20
0.80458
11
0.270453
21
0.802812
0
LINE
8
BLACK
6
CONTINUOUS
10
0.270453
20
0.802812
11
0.269721
21
0.801044
0
LINE
8
BLACK
6
CONTINUOUS
10
0.269721
20
0.801044
11
0.267953
21
0.800312
0
LINE
8
BLACK
6
CONTINUOUS
10
0.267953
20
0.800312
11
0.247331
21
0.800312
0
LINE
8
BLACK
6
CONTINUOUS
10
0.247331
20
0.800312
11
0.228583
21
0.800312
0
LINE
8
BLACK
6
CONTINUOUS
10
0.228583
20
0.800312
11
0.226816
21
0.801044
0
LINE
8
BLACK
6
CONTINUOUS
10
0.226816
20
0.801044
11
0.226083
21
0.802812
0
LINE
8
BLACK
6
CONTINUOUS
10
0.226083
20
0.802812
11
0.226816
21
0.80458
0
LINE
8
BLACK
6
CONTINUOUS
10
0.226816
20
0.80458
11
0.228583
21
0.805312
0
LINE
8
BLACK
6
CONTINUOUS
10
0.228583
20
0.805312
11
0.244831
21
0.805312
0
LINE
8
BLACK
6
CONTINUOUS
10
0.244831
20
0.805312
11
0.244831
21
0.822809
0
LINE
8
BLACK
6
CONTINUOUS
10
0.244831
20
0.822809
11
0.228583
21
0.822809
0
LINE
8
BLACK
6
CONTINUOUS
10
0.228583
20
0.822809
11
0.226816
21
0.823542
0
LINE
8
BLACK
6
CONTINUOUS
10
0.226816
20
0.823542
11
0.226083
21
0.825309
0
LINE
8
BLACK
6
CONTINUOUS
10
0.226083
20
0.825309
11
0.226816
21
0.827077
0
LINE
8
BLACK
6
CONTINUOUS
10
0.226816
20
0.827077
11
0.228583
21
0.827809
0
LINE
8
BLACK
6
CONTINUOUS
10
0.228583
20
0.827809
11
0.267953
21
0.827809
0
LINE
8
BLACK
6
CONTINUOUS
10
0.267953
20
0.827809
11
0.269721
21
0.827077
0
LINE
8
BLACK
6
CONTINUOUS
10
0.666416
20
0.856136
11
0.667148
21
0.854368
0
LINE
8
BLACK
6
CONTINUOUS
10
0.667148
20
0.854368
11
0.667148
21
0.824372
0
LINE
8
BLACK
6
CONTINUOUS
10
0.667148
20
0.824372
11
0.666416
21
0.822604
0
LINE
8
BLACK
6
CONTINUOUS
10
0.666416
20
0.822604
11
0.664648
21
0.821872
0
LINE
8
BLACK
6
CONTINUOUS
10
0.664648
20
0.821872
11
0.66288
21
0.822604
0
LINE
8
BLACK
6
CONTINUOUS
10
0.66288
20
0.822604
11
0.662148
21
0.824372
0
LINE
8
BLACK
6
CONTINUOUS
10
0.662148
20
0.824372
11
0.662148
21
0.854368
0
LINE
8
BLACK
6
CONTINUOUS
10
0.662148
20
0.854368
11
0.66288
21
0.856136
0
LINE
8
BLACK
6
CONTINUOUS
10
0.66288
20
0.856136
11
0.664648
21
0.856868
0
LINE
8
BLACK
6
CONTINUOUS
10
0.664648
20
0.856868
11
0.666416
21
0.856136
0
LINE
8
BLACK
6
CONTINUOUS
10
0.618028
20
0.851449
11
0.61876
21
0.849681
0
LINE
8
BLACK
6
CONTINUOUS
10
0.61876
20
0.849681
11
0.618028
21
0.847914
0
LINE
8
BLACK
6
CONTINUOUS
10
0.618028
20
0.847914
11
0.61626
21
0.847181
0
LINE
8
BLACK
6
CONTINUOUS
10
0.61626
20
0.847181
11
0.598138
21
0.847181
0
LINE
8
BLACK
6
CONTINUOUS
10
0.598138
20
0.847181
11
0.598138
21
0.829684
0
LINE
8
BLACK
6
CONTINUOUS
10
0.598138
20
0.829684
11
0.61626
21
0.829684
0
LINE
8
BLACK
6
CONTINUOUS
10
0.61626
20
0.829684
11
0.618028
21
0.828952
0
LINE
8
BLACK
6
CONTINUOUS
10
0.618028
20
0.828952
11
0.61876
21
0.827184
0
LINE
8
BLACK
6
CONTINUOUS
10
0.61876
20
0.827184
11
0.618028
21
0.825416
0
LINE
8
BLACK
6
CONTINUOUS
10
0.618028
20
0.825416
11
0.61626
21
0.824684
0
LINE
8
BLACK
6
CONTINUOUS
10
0.61626
20
0.824684
11
0.595638
21
0.824684
0
LINE
8
BLACK
6
CONTINUOUS
10
0.595638
20
0.824684
11
0.57689
21
0.824684
0
LINE
8
BLACK
6
CONTINUOUS
10
0.57689
20
0.824684
11
0.575123
21
0.825416
0
LINE
8
BLACK
6
CONTINUOUS
10
0.575123
20
0.825416
11
0.57439
21
0.827184
0
LINE
8
BLACK
6
CONTINUOUS
10
0.57439
20
0.827184
11
0.575123
21
0.828952
0
LINE
8
BLACK
6
CONTINUOUS
10
0.575123
20
0.828952
11
0.57689
21
0.829684
0
LINE
8
BLACK
6
CONTINUOUS
10
0.57689
20
0.829684
11
0.593138
21
0.829684
0
LINE
8
BLACK
6
CONTINUOUS
10
0.593138
20
0.829684
11
0.593138
21
0.847181
0
LINE
8
BLACK
6
CONTINUOUS
10
0.593138
20
0.847181
11
0.57689
21
0.847181
0
LINE
8
BLACK
6
CONTINUOUS
10
0.57689
20
0.847181
11
0.575123
21
0.847914
0
LINE
8
BLACK
6
CONTINUOUS
10
0.575123
20
0.847914
11
0.57439
21
0.849681
0
LINE
8
BLACK
6
CONTINUOUS
10
0.57439
20
0.849681
11
0.575123
21
0.851449
0
LINE
8
BLACK
6
CONTINUOUS
10
0.575123
20
0.851449
11
0.57689
21
0.852181
0
LINE
8
BLACK
6
CONTINUOUS
10
0.57689
20
0.852181
11
0.61626
21
0.852181
0
LINE
8
BLACK
6
CONTINUOUS
10
0.61626
20
0.852181
11
0.618028
21
0.851449
0
LINE
8
BLACK
6
CONTINUOUS
10
0.254723
20
0.875821
11
0.255455
21
0.874053
0
LINE
8
BLACK
6
CONTINUOUS
10
0.255455
20
0.874053
11
0.255455
21
0.861555
0
LINE
8
BLACK
6
CONTINUOUS
10
0.255455
20
0.861555
11
0.267953
21
0.861555
0
LINE
8
BLACK
6
CONTINUOUS
10
0.267953
20
0.861555
11
0.269721
21
0.860823
0
LINE
8
BLACK
6
CONTINUOUS
10
0.269721
20
0.860823
11
0.270453
21
0.859055
0
LINE
8
BLACK
6
CONTINUOUS
10
0.270453
20
0.859055
11
0.269721
21
0.857287
0
LINE
8
BLACK
6
CONTINUOUS
10
0.269721
20
0.857287
11
0.267953
21
0.856555
0
LINE
8
BLACK
6
CONTINUOUS
10
0.267953
20
0.856555
11
0.255455
21
0.856555
0
LINE
8
BLACK
6
CONTINUOUS
10
0.255455
20
0.856555
11
0.255455
21
0.844057
0
LINE
8
BLACK
6
CONTINUOUS
10
0.255455
20
0.844057
11
0.254723
21
0.842289
0
LINE
8
BLACK
6
CONTINUOUS
10
0.254723
20
0.842289
11
0.252955
21
0.841557
0
LINE
8
BLACK
6
CONTINUOUS
10
0.252955
20
0.841557
11
0.251187
21
0.842289
0
LINE
8
BLACK
6
CONTINUOUS
10
0.251187
20
0.842289
11
0.250455
21
0.844057
0
LINE
8
BLACK
6
CONTINUOUS
10
0.250455
20
0.844057
11
0.250455
21
0.856555
0
LINE
8
BLACK
6
CONTINUOUS
10
0.250455
20
0.856555
11
0.237957
21
0.856555
0
LINE
8
BLACK
6
CONTINUOUS
10
0.237957
20
0.856555
11
0.236189
21
0.857287
0
LINE
8
BLACK
6
CONTINUOUS
10
0.236189
20
0.857287
11
0.235457
21
0.859055
0
LINE
8
BLACK
6
CONTINUOUS
10
0.235457
20
0.859055
11
0.236189
21
0.860823
0
LINE
8
BLACK
6
CONTINUOUS
10
0.236189
20
0.860823
11
0.237957
21
0.861555
0
LINE
8
BLACK
6
CONTINUOUS
10
0.237957
20
0.861555
11
0.250455
21
0.861555
0
LINE
8
BLACK
6
CONTINUOUS
10
0.250455
20
0.861555
11
0.250455
21
0.874053
0
LINE
8
BLACK
6
CONTINUOUS
10
0.250455
20
0.874053
11
0.251187
21
0.875821
0
LINE
8
BLACK
6
CONTINUOUS
10
0.251187
20
0.875821
11
0.252955
21
0.876553
0
LINE
8
BLACK
6
CONTINUOUS
10
0.252955
20
0.876553
11
0.254723
21
0.875821
0
LINE
8
BLACK
6
CONTINUOUS
10
0.374767
20
0.943759
11
0.375177
21
0.943788
0
LINE
8
BLACK
6
CONTINUOUS
10
0.375177
20
0.943788
11
0.380802
21
0.941914
0
LINE
8
BLACK
6
CONTINUOUS
10
0.380802
20
0.941914
11
0.381241
21
0.941532
0
LINE
8
BLACK
6
CONTINUOUS
10
0.381241
20
0.941532
11
0.381779
21
0.94131
0
LINE
8
BLACK
6
CONTINUOUS
10
0.381779
20
0.94131
11
0.383654
21
0.939435
0
LINE
8
BLACK
6
CONTINUOUS
10
0.383654
20
0.939435
11
0.384386
21
0.937667
0
LINE
8
BLACK
6
CONTINUOUS
10
0.384386
20
0.937667
11
0.383654
21
0.935899
0
LINE
8
BLACK
6
CONTINUOUS
10
0.383654
20
0.935899
11
0.381886
21
0.935167
0
LINE
8
BLACK
6
CONTINUOUS
10
0.381886
20
0.935167
11
0.380118
21
0.935899
0
LINE
8
BLACK
6
CONTINUOUS
10
0.380118
20
0.935899
11
0.378661
21
0.937357
0
LINE
8
BLACK
6
CONTINUOUS
10
0.378661
20
0.937357
11
0.373981
21
0.938917
0
LINE
8
BLACK
6
CONTINUOUS
10
0.373981
20
0.938917
11
0.371043
21
0.938917
0
LINE
8
BLACK
6
CONTINUOUS
10
0.371043
20
0.938917
11
0.366364
21
0.937357
0
LINE
8
BLACK
6
CONTINUOUS
10
0.366364
20
0.937357
11
0.363318
21
0.934312
0
LINE
8
BLACK
6
CONTINUOUS
10
0.363318
20
0.934312
11
0.361748
21
0.93117
0
LINE
8
BLACK
6
CONTINUOUS
10
0.361748
20
0.93117
11
0.360014
21
0.924236
0
LINE
8
BLACK
6
CONTINUOUS
10
0.360014
20
0.924236
11
0.360014
21
0.919227
0
LINE
8
BLACK
6
CONTINUOUS
10
0.360014
20
0.919227
11
0.361748
21
0.912293
0
LINE
8
BLACK
6
CONTINUOUS
10
0.361748
20
0.912293
11
0.363318
21
0.909152
0
LINE
8
BLACK
6
CONTINUOUS
10
0.363318
20
0.909152
11
0.366364
21
0.906106
0
LINE
8
BLACK
6
CONTINUOUS
10
0.366364
20
0.906106
11
0.371043
21
0.904547
0
LINE
8
BLACK
6
CONTINUOUS
10
0.371043
20
0.904547
11
0.373981
21
0.904547
0
LINE
8
BLACK
6
CONTINUOUS
10
0.373981
20
0.904547
11
0.378661
21
0.906106
0
LINE
8
BLACK
6
CONTINUOUS
10
0.378661
20
0.906106
11
0.380118
21
0.907564
0
LINE
8
BLACK
6
CONTINUOUS
10
0.380118
20
0.907564
11
0.381886
21
0.908296
0
LINE
8
BLACK
6
CONTINUOUS
10
0.381886
20
0.908296
11
0.383654
21
0.907564
0
LINE
8
BLACK
6
CONTINUOUS
10
0.383654
20
0.907564
11
0.384386
21
0.905796
0
LINE
8
BLACK
6
CONTINUOUS
10
0.384386
20
0.905796
11
0.383654
21
0.904028
0
LINE
8
BLACK
6
CONTINUOUS
10
0.383654
20
0.904028
11
0.381779
21
0.902154
0
LINE
8
BLACK
6
CONTINUOUS
10
0.381779
20
0.902154
11
0.381241
21
0.901931
0
LINE
8
BLACK
6
CONTINUOUS
10
0.381241
20
0.901931
11
0.380802
21
0.90155
0
LINE
8
BLACK
6
CONTINUOUS
10
0.380802
20
0.90155
11
0.375177
21
0.899675
0
LINE
8
BLACK
6
CONTINUOUS
10
0.375177
20
0.899675
11
0.374767
21
0.899704
0
LINE
8
BLACK
6
CONTINUOUS
10
0.374767
20
0.899704
11
0.374387
21
0.899547
0
LINE
8
BLACK
6
CONTINUOUS
10
0.374387
20
0.899547
11
0.370637
21
0.899547
0
LINE
8
BLACK
6
CONTINUOUS
10
0.370637
20
0.899547
11
0.370257
21
0.899704
0
LINE
8
BLACK
6
CONTINUOUS
10
0.370257
20
0.899704
11
0.369847
21
0.899675
0
LINE
8
BLACK
6
CONTINUOUS
10
0.369847
20
0.899675
11
0.364223
21
0.90155
0
LINE
8
BLACK
6
CONTINUOUS
10
0.364223
20
0.90155
11
0.363783
21
0.901931
0
LINE
8
BLACK
6
CONTINUOUS
10
0.363783
20
0.901931
11
0.363245
21
0.902154
0
LINE
8
BLACK
6
CONTINUOUS
10
0.363245
20
0.902154
11
0.359496
21
0.905903
0
LINE
8
BLACK
6
CONTINUOUS
10
0.359496
20
0.905903
11
0.359338
21
0.906283
0
LINE
8
BLACK
6
CONTINUOUS
10
0.359338
20
0.906283
11
0.359028
21
0.906553
0
LINE
8
BLACK
6
CONTINUOUS
10
0.359028
20
0.906553
11
0.357153
21
0.910302
0
LINE
8
BLACK
6
CONTINUOUS
10
0.357153
20
0.910302
11
0.357133
21
0.910586
0
LINE
8
BLACK
6
CONTINUOUS
10
0.357133
20
0.910586
11
0.356963
21
0.910814
0
LINE
8
BLACK
6
CONTINUOUS
10
0.356963
20
0.910814
11
0.355089
21
0.918313
0
LINE
8
BLACK
6
CONTINUOUS
10
0.355089
20
0.918313
11
0.355135
21
0.918627
0
LINE
8
BLACK
6
CONTINUOUS
10
0.355135
20
0.918627
11
0.355014
21
0.91892
0
LINE
8
BLACK
6
CONTINUOUS
10
0.355014
20
0.91892
11
0.355014
21
0.924544
0
LINE
8
BLACK
6
CONTINUOUS
10
0.355014
20
0.924544
11
0.355135
21
0.924837
0
LINE
8
BLACK
6
CONTINUOUS
10
0.355135
20
0.924837
11
0.355089
21
0.92515
0
LINE
8
BLACK
6
CONTINUOUS
10
0.355089
20
0.92515
11
0.356963
21
0.932649
0
LINE
8
BLACK
6
CONTINUOUS
10
0.356963
20
0.932649
11
0.357133
21
0.932878
0
LINE
8
BLACK
6
CONTINUOUS
10
0.357133
20
0.932878
11
0.357153
21
0.933161
0
LINE
8
BLACK
6
CONTINUOUS
10
0.357153
20
0.933161
11
0.359028
21
0.93691
0
LINE
8
BLACK
6
CONTINUOUS
10
0.359028
20
0.93691
11
0.359338
21
0.93718
0
LINE
8
BLACK
6
CONTINUOUS
10
0.359338
20
0.93718
11
0.359496
21
0.93756
0
LINE
8
BLACK
6
CONTINUOUS
10
0.359496
20
0.93756
11
0.363245
21
0.94131
0
LINE
8
BLACK
6
CONTINUOUS
10
0.363245
20
0.94131
11
0.363783
21
0.941532
0
LINE
8
BLACK
6
CONTINUOUS
10
0.363783
20
0.941532
11
0.364223
21
0.941914
0
LINE
8
BLACK
6
CONTINUOUS
10
0.364223
20
0.941914
11
0.369847
21
0.943788
0
LINE
8
BLACK
6
CONTINUOUS
10
0.369847
20
0.943788
11
0.370257
21
0.943759
0
LINE
8
BLACK
6
CONTINUOUS
10
0.370257
20
0.943759
11
0.370637
21
0.943917
0
LINE
8
BLACK
6
CONTINUOUS
10
0.370637
20
0.943917
11
0.374387
21
0.943917
0
LINE
8
BLACK
6
CONTINUOUS
10
0.374387
20
0.943917
11
0.374767
21
0.943759
0
LINE
8
BLACK
6
CONTINUOUS
10
0.414295
20
0.943694
11
0.414875
21
0.943653
0
LINE
8
BLACK
6
CONTINUOUS
10
0.414875
20
0.943653
11
0.418625
21
0.941778
0
LINE
8
BLACK
6
CONTINUOUS
10
0.418625
20
0.941778
11
0.418894
21
0.941467
0
LINE
8
BLACK
6
CONTINUOUS
10
0.418894
20
0.941467
11
0.419274
21
0.94131
0
LINE
8
BLACK
6
CONTINUOUS
10
0.419274
20
0.94131
11
0.423024
21
0.93756
0
LINE
8
BLACK
6
CONTINUOUS
10
0.423024
20
0.93756
11
0.423281
21
0.936939
0
LINE
8
BLACK
6
CONTINUOUS
10
0.423281
20
0.936939
11
0.423681
21
0.936399
0
LINE
8
BLACK
6
CONTINUOUS
10
0.423681
20
0.936399
11
0.425556
21
0.9289
0
LINE
8
BLACK
6
CONTINUOUS
10
0.425556
20
0.9289
11
0.425509
21
0.928586
0
LINE
8
BLACK
6
CONTINUOUS
10
0.425509
20
0.928586
11
0.425631
21
0.928293
0
LINE
8
BLACK
6
CONTINUOUS
10
0.425631
20
0.928293
11
0.425631
21
0.91517
0
LINE
8
BLACK
6
CONTINUOUS
10
0.425631
20
0.91517
11
0.425509
21
0.914877
0
LINE
8
BLACK
6
CONTINUOUS
10
0.425509
20
0.914877
11
0.425556
21
0.914564
0
LINE
8
BLACK
6
CONTINUOUS
10
0.425556
20
0.914564
11
0.423681
21
0.907065
0
LINE
8
BLACK
6
CONTINUOUS
10
0.423681
20
0.907065
11
0.423281
21
0.906524
0
LINE
8
BLACK
6
CONTINUOUS
10
0.423281
20
0.906524
11
0.423024
21
0.905903
0
LINE
8
BLACK
6
CONTINUOUS
10
0.423024
20
0.905903
11
0.419274
21
0.902154
0
LINE
8
BLACK
6
CONTINUOUS
10
0.419274
20
0.902154
11
0.418894
21
0.901996
0
LINE
8
BLACK
6
CONTINUOUS
10
0.418894
20
0.901996
11
0.418625
21
0.901685
0
LINE
8
BLACK
6
CONTINUOUS
10
0.418625
20
0.901685
11
0.414875
21
0.899811
0
LINE
8
BLACK
6
CONTINUOUS
10
0.414875
20
0.899811
11
0.414295
21
0.899769
0
LINE
8
BLACK
6
CONTINUOUS
10
0.414295
20
0.899769
11
0.413757
21
0.899547
0
LINE
8
BLACK
6
CONTINUOUS
10
0.413757
20
0.899547
11
0.406258
21
0.899547
0
LINE
8
BLACK
6
CONTINUOUS
10
0.406258
20
0.899547
11
0.40572
21
0.899769
0
LINE
8
BLACK
6
CONTINUOUS
10
0.40572
20
0.899769
11
0.40514
21
0.899811
0
LINE
8
BLACK
6
CONTINUOUS
10
0.40514
20
0.899811
11
0.40139
21
0.901685
0
LINE
8
BLACK
6
CONTINUOUS
10
0.40139
20
0.901685
11
0.401121
21
0.901996
0
LINE
8
BLACK
6
CONTINUOUS
10
0.401121
20
0.901996
11
0.400741
21
0.902154
0
LINE
8
BLACK
6
CONTINUOUS
10
0.400741
20
0.902154
11
0.396991
21
0.905903
0
LINE
8
BLACK
6
CONTINUOUS
10
0.396991
20
0.905903
11
0.396734
21
0.906525
0
LINE
8
BLACK
6
CONTINUOUS
10
0.396734
20
0.906525
11
0.396334
21
0.907065
0
LINE
8
BLACK
6
CONTINUOUS
10
0.396334
20
0.907065
11
0.394459
21
0.914564
0
LINE
8
BLACK
6
CONTINUOUS
10
0.394459
20
0.914564
11
0.394505
21
0.914877
0
LINE
8
BLACK
6
CONTINUOUS
10
0.394505
20
0.914877
11
0.394384
21
0.91517
0
LINE
8
BLACK
6
CONTINUOUS
10
0.394384
20
0.91517
11
0.394384
21
0.928293
0
LINE
8
BLACK
6
CONTINUOUS
10
0.394384
20
0.928293
11
0.394505
21
0.928586
0
LINE
8
BLACK
6
CONTINUOUS
10
0.394505
20
0.928586
11
0.394459
21
0.9289
0
LINE
8
BLACK
6
CONTINUOUS
10
0.394459
20
0.9289
11
0.396334
21
0.936399
0
LINE
8
BLACK
6
CONTINUOUS
10
0.396334
20
0.936399
11
0.396734
21
0.936939
0
LINE
8
BLACK
6
CONTINUOUS
10
0.396734
20
0.936939
11
0.396991
21
0.93756
0
LINE
8
BLACK
6
CONTINUOUS
10
0.396991
20
0.93756
11
0.400741
21
0.94131
0
LINE
8
BLACK
6
CONTINUOUS
10
0.400741
20
0.94131
11
0.401121
21
0.941467
0
LINE
8
BLACK
6
CONTINUOUS
10
0.401121
20
0.941467
11
0.40139
21
0.941778
0
LINE
8
BLACK
6
CONTINUOUS
10
0.40139
20
0.941778
11
0.40514
21
0.943653
0
LINE
8
BLACK
6
CONTINUOUS
10
0.40514
20
0.943653
11
0.40572
21
0.943694
0
LINE
8
BLACK
6
CONTINUOUS
10
0.40572
20
0.943694
11
0.406258
21
0.943917
0
LINE
8
BLACK
6
CONTINUOUS
10
0.406258
20
0.943917
11
0.413757
21
0.943917
0
LINE
8
BLACK
6
CONTINUOUS
10
0.413757
20
0.943917
11
0.414295
21
0.943694
0
LINE
8
BLACK
6
CONTINUOUS
10
0.403989
20
0.937487
11
0.401016
21
0.934514
0
LINE
8
BLACK
6
CONTINUOUS
10
0.401016
20
0.934514
11
0.399384
21
0.927986
0
LINE
8
BLACK
6
CONTINUOUS
10
0.399384
20
0.927986
11
0.399384
21
0.915478
0
LINE
8
BLACK
6
CONTINUOUS
10
0.399384
20
0.915478
11
0.401016
21
0.908949
0
LINE
8
BLACK
6
CONTINUOUS
10
0.401016
20
0.908949
11
0.403989
21
0.905976
0
LINE
8
BLACK
6
CONTINUOUS
10
0.403989
20
0.905976
11
0.406848
21
0.904547
0
LINE
8
BLACK
6
CONTINUOUS
10
0.406848
20
0.904547
11
0.413167
21
0.904547
0
LINE
8
BLACK
6
CONTINUOUS
10
0.413167
20
0.904547
11
0.416026
21
0.905976
0
LINE
8
BLACK
6
CONTINUOUS
10
0.416026
20
0.905976
11
0.418999
21
0.908949
0
LINE
8
BLACK
6
CONTINUOUS
10
0.418999
20
0.908949
11
0.420631
21
0.915478
0
LINE
8
BLACK
6
CONTINUOUS
10
0.420631
20
0.915478
11
0.420631
21
0.927986
0
LINE
8
BLACK
6
CONTINUOUS
10
0.420631
20
0.927986
11
0.418999
21
0.934514
0
LINE
8
BLACK
6
CONTINUOUS
10
0.418999
20
0.934514
11
0.416026
21
0.937487
0
LINE
8
BLACK
6
CONTINUOUS
10
0.416026
20
0.937487
11
0.413167
21
0.938917
0
LINE
8
BLACK
6
CONTINUOUS
10
0.413167
20
0.938917
11
0.406848
21
0.938917
0
LINE
8
BLACK
6
CONTINUOUS
10
0.406848
20
0.938917
11
0.403989
21
0.937487
0
LINE
8
BLACK
6
CONTINUOUS
10
0.466758
20
0.943706
11
0.467308
21
0.943682
0
LINE
8
BLACK
6
CONTINUOUS
10
0.467308
20
0.943682
11
0.467608
21
0.943355
0
LINE
8
BLACK
6
CONTINUOUS
10
0.467608
20
0.943355
11
0.468018
21
0.943184
0
LINE
8
BLACK
6
CONTINUOUS
10
0.468018
20
0.943184
11
0.468229
21
0.942677
0
LINE
8
BLACK
6
CONTINUOUS
10
0.468229
20
0.942677
11
0.4686
21
0.942271
0
LINE
8
BLACK
6
CONTINUOUS
10
0.4686
20
0.942271
11
0.46858
21
0.941827
0
LINE
8
BLACK
6
CONTINUOUS
10
0.46858
20
0.941827
11
0.46875
21
0.941417
0
LINE
8
BLACK
6
CONTINUOUS
10
0.46875
20
0.941417
11
0.46875
21
0.902047
0
LINE
8
BLACK
6
CONTINUOUS
10
0.46875
20
0.902047
11
0.468018
21
0.900279
0
LINE
8
BLACK
6
CONTINUOUS
10
0.468018
20
0.900279
11
0.46625
21
0.899547
0
LINE
8
BLACK
6
CONTINUOUS
10
0.46625
20
0.899547
11
0.464483
21
0.900279
0
LINE
8
BLACK
6
CONTINUOUS
10
0.464483
20
0.900279
11
0.46375
21
0.902047
0
LINE
8
BLACK
6
CONTINUOUS
10
0.46375
20
0.902047
11
0.46375
21
0.930148
0
LINE
8
BLACK
6
CONTINUOUS
10
0.46375
20
0.930148
11
0.455393
21
0.912238
0
LINE
8
BLACK
6
CONTINUOUS
10
0.455393
20
0.912238
11
0.454762
21
0.911661
0
LINE
8
BLACK
6
CONTINUOUS
10
0.454762
20
0.911661
11
0.454184
21
0.91103
0
LINE
8
BLACK
6
CONTINUOUS
10
0.454184
20
0.91103
11
0.454068
21
0.911025
0
LINE
8
BLACK
6
CONTINUOUS
10
0.454068
20
0.911025
11
0.453981
21
0.910946
0
LINE
8
BLACK
6
CONTINUOUS
10
0.453981
20
0.910946
11
0.453127
21
0.910983
0
LINE
8
BLACK
6
CONTINUOUS
10
0.453127
20
0.910983
11
0.452273
21
0.910946
0
LINE
8
BLACK
6
CONTINUOUS
10
0.452273
20
0.910946
11
0.452187
21
0.911025
0
LINE
8
BLACK
6
CONTINUOUS
10
0.452187
20
0.911025
11
0.45207
21
0.91103
0
LINE
8
BLACK
6
CONTINUOUS
10
0.45207
20
0.91103
11
0.451492
21
0.911661
0
LINE
8
BLACK
6
CONTINUOUS
10
0.451492
20
0.911661
11
0.450862
21
0.912238
0
LINE
8
BLACK
6
CONTINUOUS
10
0.450862
20
0.912238
11
0.442504
21
0.930148
0
LINE
8
BLACK
6
CONTINUOUS
10
0.442504
20
0.930148
11
0.442504
21
0.902047
0
LINE
8
BLACK
6
CONTINUOUS
10
0.442504
20
0.902047
11
0.441771
21
0.900279
0
LINE
8
BLACK
6
CONTINUOUS
10
0.441771
20
0.900279
11
0.440004
21
0.899547
0
LINE
8
BLACK
6
CONTINUOUS
10
0.440004
20
0.899547
11
0.438236
21
0.900279
0
LINE
8
BLACK
6
CONTINUOUS
10
0.438236
20
0.900279
11
0.437504
21
0.902047
0
LINE
8
BLACK
6
CONTINUOUS
10
0.437504
20
0.902047
11
0.437504
21
0.941417
0
LINE
8
BLACK
6
CONTINUOUS
10
0.437504
20
0.941417
11
0.437674
21
0.941827
0
LINE
8
BLACK
6
CONTINUOUS
10
0.437674
20
0.941827
11
0.437654
21
0.942271
0
LINE
8
BLACK
6
CONTINUOUS
10
0.437654
20
0.942271
11
0.438026
21
0.942677
0
LINE
8
BLACK
6
CONTINUOUS
10
0.438026
20
0.942677
11
0.438236
21
0.943184
0
LINE
8
BLACK
6
CONTINUOUS
10
0.438236
20
0.943184
11
0.438646
21
0.943355
0
LINE
8
BLACK
6
CONTINUOUS
10
0.438646
20
0.943355
11
0.438947
21
0.943682
0
LINE
8
BLACK
6
CONTINUOUS
10
0.438947
20
0.943682
11
0.439496
21
0.943706
0
LINE
8
BLACK
6
CONTINUOUS
10
0.439496
20
0.943706
11
0.440004
21
0.943917
0
LINE
8
BLACK
6
CONTINUOUS
10
0.440004
20
0.943917
11
0.440414
21
0.943747
0
LINE
8
BLACK
6
CONTINUOUS
10
0.440414
20
0.943747
11
0.440858
21
0.943766
0
LINE
8
BLACK
6
CONTINUOUS
10
0.440858
20
0.943766
11
0.441264
21
0.943395
0
LINE
8
BLACK
6
CONTINUOUS
10
0.441264
20
0.943395
11
0.441771
21
0.943184
0
LINE
8
BLACK
6
CONTINUOUS
10
0.441771
20
0.943184
11
0.441941
21
0.942774
0
LINE
8
BLACK
6
CONTINUOUS
10
0.441941
20
0.942774
11
0.442269
21
0.942474
0
LINE
8
BLACK
6
CONTINUOUS
10
0.442269
20
0.942474
11
0.453127
21
0.919207
0
LINE
8
BLACK
6
CONTINUOUS
10
0.453127
20
0.919207
11
0.463985
21
0.942474
0
LINE
8
BLACK
6
CONTINUOUS
10
0.463985
20
0.942474
11
0.464313
21
0.942774
0
LINE
8
BLACK
6
CONTINUOUS
10
0.464313
20
0.942774
11
0.464483
21
0.943184
0
LINE
8
BLACK
6
CONTINUOUS
10
0.464483
20
0.943184
11
0.464991
21
0.943395
0
LINE
8
BLACK
6
CONTINUOUS
10
0.464991
20
0.943395
11
0.465396
21
0.943766
0
LINE
8
BLACK
6
CONTINUOUS
10
0.465396
20
0.943766
11
0.46584
21
0.943747
0
LINE
8
BLACK
6
CONTINUOUS
10
0.46584
20
0.943747
11
0.46625
21
0.943917
0
LINE
8
BLACK
6
CONTINUOUS
10
0.46625
20
0.943917
11
0.466758
21
0.943706
0
LINE
8
BLACK
6
CONTINUOUS
10
0.500534
20
0.943694
11
0.501114
21
0.943653
0
LINE
8
BLACK
6
CONTINUOUS
10
0.501114
20
0.943653
11
0.504864
21
0.941778
0
LINE
8
BLACK
6
CONTINUOUS
10
0.504864
20
0.941778
11
0.505133
21
0.941467
0
LINE
8
BLACK
6
CONTINUOUS
10
0.505133
20
0.941467
11
0.505514
21
0.94131
0
LINE
8
BLACK
6
CONTINUOUS
10
0.505514
20
0.94131
11
0.507388
21
0.939435
0
LINE
8
BLACK
6
CONTINUOUS
10
0.507388
20
0.939435
11
0.507546
21
0.939055
0
LINE
8
BLACK
6
CONTINUOUS
10
0.507546
20
0.939055
11
0.507857
21
0.938785
0
LINE
8
BLACK
6
CONTINUOUS
10
0.507857
20
0.938785
11
0.509731
21
0.935036
0
LINE
8
BLACK
6
CONTINUOUS
10
0.509731
20
0.935036
11
0.509773
21
0.934455
0
LINE
8
BLACK
6
CONTINUOUS
10
0.509773
20
0.934455
11
0.509995
21
0.933918
0
LINE
8
BLACK
6
CONTINUOUS
10
0.509995
20
0.933918
11
0.509995
21
0.928293
0
LINE
8
BLACK
6
CONTINUOUS
10
0.509995
20
0.928293
11
0.509773
21
0.927756
0
LINE
8
BLACK
6
CONTINUOUS
10
0.509773
20
0.927756
11
0.509731
21
0.927175
0
LINE
8
BLACK
6
CONTINUOUS
10
0.509731
20
0.927175
11
0.507857
21
0.923426
0
LINE
8
BLACK
6
CONTINUOUS
10
0.507857
20
0.923426
11
0.507546
21
0.923156
0
LINE
8
BLACK
6
CONTINUOUS
10
0.507546
20
0.923156
11
0.507388
21
0.922776
0
LINE
8
BLACK
6
CONTINUOUS
10
0.507388
20
0.922776
11
0.505514
21
0.920901
0
LINE
8
BLACK
6
CONTINUOUS
10
0.505514
20
0.920901
11
0.505133
21
0.920744
0
LINE
8
BLACK
6
CONTINUOUS
10
0.505133
20
0.920744
11
0.504864
21
0.920433
0
LINE
8
BLACK
6
CONTINUOUS
10
0.504864
20
0.920433
11
0.501114
21
0.918558
0
LINE
8
BLACK
6
CONTINUOUS
10
0.501114
20
0.918558
11
0.500534
21
0.918517
0
LINE
8
BLACK
6
CONTINUOUS
10
0.500534
20
0.918517
11
0.499996
21
0.918294
0
LINE
8
BLACK
6
CONTINUOUS
10
0.499996
20
0.918294
11
0.487498
21
0.918294
0
LINE
8
BLACK
6
CONTINUOUS
10
0.487498
20
0.918294
11
0.487498
21
0.902047
0
LINE
8
BLACK
6
CONTINUOUS
10
0.487498
20
0.902047
11
0.486766
21
0.900279
0
LINE
8
BLACK
6
CONTINUOUS
10
0.486766
20
0.900279
11
0.484998
21
0.899547
0
LINE
8
BLACK
6
CONTINUOUS
10
0.484998
20
0.899547
11
0.48323
21
0.900279
0
LINE
8
BLACK
6
CONTINUOUS
10
0.48323
20
0.900279
11
0.482498
21
0.902047
0
LINE
8
BLACK
6
CONTINUOUS
10
0.482498
20
0.902047
11
0.482498
21
0.941417
0
LINE
8
BLACK
6
CONTINUOUS
10
0.482498
20
0.941417
11
0.48323
21
0.943184
0
LINE
8
BLACK
6
CONTINUOUS
10
0.48323
20
0.943184
11
0.484998
21
0.943917
0
LINE
8
BLACK
6
CONTINUOUS
10
0.484998
20
0.943917
11
0.499996
21
0.943917
0
LINE
8
BLACK
6
CONTINUOUS
10
0.499996
20
0.943917
11
0.500534
21
0.943694
0
LINE
8
BLACK
6
CONTINUOUS
10
0.487498
20
0.923294
11
0.499406
21
0.923294
0
LINE
8
BLACK
6
CONTINUOUS
10
0.499406
20
0.923294
11
0.502265
21
0.924724
0
LINE
8
BLACK
6
CONTINUOUS
10
0.502265
20
0.924724
11
0.503566
21
0.926025
0
LINE
8
BLACK
6
CONTINUOUS
10
0.503566
20
0.926025
11
0.504995
21
0.928884
0
LINE
8
BLACK
6
CONTINUOUS
10
0.504995
20
0.928884
11
0.504995
21
0.933328
0
LINE
8
BLACK
6
CONTINUOUS
10
0.504995
20
0.933328
11
0.503566
21
0.936186
0
LINE
8
BLACK
6
CONTINUOUS
10
0.503566
20
0.936186
11
0.502265
21
0.937487
0
LINE
8
BLACK
6
CONTINUOUS
10
0.502265
20
0.937487
11
0.499406
21
0.938917
0
LINE
8
BLACK
6
CONTINUOUS
10
0.499406
20
0.938917
11
0.487498
21
0.938917
0
LINE
8
BLACK
6
CONTINUOUS
10
0.487498
20
0.938917
11
0.487498
21
0.923294
0
LINE
8
BLACK
6
CONTINUOUS
10
0.536154
20
0.943694
11
0.536735
21
0.943653
0
LINE
8
BLACK
6
CONTINUOUS
10
0.536735
20
0.943653
11
0.540484
21
0.941778
0
LINE
8
BLACK
6
CONTINUOUS
10
0.540484
20
0.941778
11
0.540754
21
0.941467
0
LINE
8
BLACK
6
CONTINUOUS
10
0.540754
20
0.941467
11
0.541134
21
0.94131
0
LINE
8
BLACK
6
CONTINUOUS
10
0.541134
20
0.94131
11
0.543009
21
0.939435
0
LINE
8
BLACK
6
CONTINUOUS
10
0.543009
20
0.939435
11
0.543166
21
0.939055
0
LINE
8
BLACK
6
CONTINUOUS
10
0.543166
20
0.939055
11
0.543477
21
0.938785
0
LINE
8
BLACK
6
CONTINUOUS
10
0.543477
20
0.938785
11
0.545352
21
0.935036
0
LINE
8
BLACK
6
CONTINUOUS
10
0.545352
20
0.935036
11
0.545372
21
0.934752
0
LINE
8
BLACK
6
CONTINUOUS
10
0.545372
20
0.934752
11
0.545541
21
0.934524
0
LINE
8
BLACK
6
CONTINUOUS
10
0.545541
20
0.934524
11
0.547416
21
0.927025
0
LINE
8
BLACK
6
CONTINUOUS
10
0.547416
20
0.927025
11
0.547369
21
0.926711
0
LINE
8
BLACK
6
CONTINUOUS
10
0.547369
20
0.926711
11
0.547491
21
0.926419
0
LINE
8
BLACK
6
CONTINUOUS
10
0.547491
20
0.926419
11
0.547491
21
0.917045
0
LINE
8
BLACK
6
CONTINUOUS
10
0.547491
20
0.917045
11
0.547369
21
0.916752
0
LINE
8
BLACK
6
CONTINUOUS
10
0.547369
20
0.916752
11
0.547416
21
0.916438
0
LINE
8
BLACK
6
CONTINUOUS
10
0.547416
20
0.916438
11
0.545541
21
0.908939
0
LINE
8
BLACK
6
CONTINUOUS
10
0.545541
20
0.908939
11
0.545372
21
0.908711
0
LINE
8
BLACK
6
CONTINUOUS
10
0.545372
20
0.908711
11
0.545352
21
0.908428
0
LINE
8
BLACK
6
CONTINUOUS
10
0.545352
20
0.908428
11
0.543477
21
0.904678
0
LINE
8
BLACK
6
CONTINUOUS
10
0.543477
20
0.904678
11
0.543166
21
0.904409
0
LINE
8
BLACK
6
CONTINUOUS
10
0.543166
20
0.904409
11
0.543009
21
0.904028
0
LINE
8
BLACK
6
CONTINUOUS
10
0.543009
20
0.904028
11
0.541134
21
0.902154
0
LINE
8
BLACK
6
CONTINUOUS
10
0.541134
20
0.902154
11
0.540754
21
0.901996
0
LINE
8
BLACK
6
CONTINUOUS
10
0.540754
20
0.901996
11
0.540484
21
0.901685
0
LINE
8
BLACK
6
CONTINUOUS
10
0.540484
20
0.901685
11
0.536735
21
0.899811
0
LINE
8
BLACK
6
CONTINUOUS
10
0.536735
20
0.899811
11
0.536154
21
0.899769
0
LINE
8
BLACK
6
CONTINUOUS
10
0.536154
20
0.899769
11
0.535617
21
0.899547
0
LINE
8
BLACK
6
CONTINUOUS
10
0.535617
20
0.899547
11
0.531867
21
0.899547
0
LINE
8
BLACK
6
CONTINUOUS
10
0.531867
20
0.899547
11
0.53133
21
0.899769
0
LINE
8
BLACK
6
CONTINUOUS
10
0.53133
20
0.899769
11
0.530749
21
0.899811
0
LINE
8
BLACK
6
CONTINUOUS
10
0.530749
20
0.899811
11
0.527
21
0.901685
0
LINE
8
BLACK
6
CONTINUOUS
10
0.527
20
0.901685
11
0.52673
21
0.901996
0
LINE
8
BLACK
6
CONTINUOUS
10
0.52673
20
0.901996
11
0.52635
21
0.902154
0
LINE
8
BLACK
6
CONTINUOUS
10
0.52635
20
0.902154
11
0.524475
21
0.904028
0
LINE
8
BLACK
6
CONTINUOUS
10
0.524475
20
0.904028
11
0.524318
21
0.904409
0
LINE
8
BLACK
6
CONTINUOUS
10
0.524318
20
0.904409
11
0.524007
21
0.904678
0
LINE
8
BLACK
6
CONTINUOUS
10
0.524007
20
0.904678
11
0.522132
21
0.908428
0
LINE
8
BLACK
6
CONTINUOUS
10
0.522132
20
0.908428
11
0.522112
21
0.908711
0
LINE
8
BLACK
6
CONTINUOUS
10
0.522112
20
0.908711
11
0.521943
21
0.908939
0
LINE
8
BLACK
6
CONTINUOUS
10
0.521943
20
0.908939
11
0.520068
21
0.916438
0
LINE
8
BLACK
6
CONTINUOUS
10
0.520068
20
0.916438
11
0.520115
21
0.916752
0
LINE
8
BLACK
6
CONTINUOUS
10
0.520115
20
0.916752
11
0.519993
21
0.917045
0
LINE
8
BLACK
6
CONTINUOUS
10
0.519993
20
0.917045
11
0.519993
21
0.926419
0
LINE
8
BLACK
6
CONTINUOUS
10
0.519993
20
0.926419
11
0.520115
21
0.926711
0
LINE
8
BLACK
6
CONTINUOUS
10
0.520115
20
0.926711
11
0.520068
21
0.927025
0
LINE
8
BLACK
6
CONTINUOUS
10
0.520068
20
0.927025
11
0.521943
21
0.934524
0
LINE
8
BLACK
6
CONTINUOUS
10
0.521943
20
0.934524
11
0.522112
21
0.934752
0
LINE
8
BLACK
6
CONTINUOUS
10
0.522112
20
0.934752
11
0.522132
21
0.935036
0
LINE
8
BLACK
6
CONTINUOUS
10
0.522132
20
0.935036
11
0.524007
21
0.938785
0
LINE
8
BLACK
6
CONTINUOUS
10
0.524007
20
0.938785
11
0.524318
21
0.939055
0
LINE
8
BLACK
6
CONTINUOUS
10
0.524318
20
0.939055
11
0.524475
21
0.939435
0
LINE
8
BLACK
6
CONTINUOUS
10
0.524475
20
0.939435
11
0.52635
21
0.94131
0
LINE
8
BLACK
6
CONTINUOUS
10
0.52635
20
0.94131
11
0.52673
21
0.941467
0
LINE
8
BLACK
6
CONTINUOUS
10
0.52673
20
0.941467
11
0.527
21
0.941778
0
LINE
8
BLACK
6
CONTINUOUS
10
0.527
20
0.941778
11
0.530749
21
0.943653
0
LINE
8
BLACK
6
CONTINUOUS
10
0.530749
20
0.943653
11
0.53133
21
0.943694
0
LINE
8
BLACK
6
CONTINUOUS
10
0.53133
20
0.943694
11
0.531867
21
0.943917
0
LINE
8
BLACK
6
CONTINUOUS
10
0.531867
20
0.943917
11
0.535617
21
0.943917
0
LINE
8
BLACK
6
CONTINUOUS
10
0.535617
20
0.943917
11
0.536154
21
0.943694
0
LINE
8
BLACK
6
CONTINUOUS
10
0.529599
20
0.937487
11
0.528298
21
0.936186
0
LINE
8
BLACK
6
CONTINUOUS
10
0.528298
20
0.936186
11
0.526727
21
0.933045
0
LINE
8
BLACK
6
CONTINUOUS
10
0.526727
20
0.933045
11
0.524993
21
0.926111
0
LINE
8
BLACK
6
CONTINUOUS
10
0.524993
20
0.926111
11
0.524993
21
0.917353
0
LINE
8
BLACK
6
CONTINUOUS
10
0.524993
20
0.917353
11
0.526727
21
0.910418
0
LINE
8
BLACK
6
CONTINUOUS
10
0.526727
20
0.910418
11
0.528298
21
0.907277
0
LINE
8
BLACK
6
CONTINUOUS
10
0.528298
20
0.907277
11
0.529599
21
0.905976
0
LINE
8
BLACK
6
CONTINUOUS
10
0.529599
20
0.905976
11
0.532457
21
0.904547
0
LINE
8
BLACK
6
CONTINUOUS
10
0.532457
20
0.904547
11
0.535027
21
0.904547
0
LINE
8
BLACK
6
CONTINUOUS
10
0.535027
20
0.904547
11
0.537885
21
0.905976
0
LINE
8
BLACK
6
CONTINUOUS
10
0.537885
20
0.905976
11
0.539186
21
0.907277
0
LINE
8
BLACK
6
CONTINUOUS
10
0.539186
20
0.907277
11
0.540757
21
0.910418
0
LINE
8
BLACK
6
CONTINUOUS
10
0.540757
20
0.910418
11
0.542491
21
0.917353
0
LINE
8
BLACK
6
CONTINUOUS
10
0.542491
20
0.917353
11
0.542491
21
0.926111
0
LINE
8
BLACK
6
CONTINUOUS
10
0.542491
20
0.926111
11
0.540757
21
0.933045
0
LINE
8
BLACK
6
CONTINUOUS
10
0.540757
20
0.933045
11
0.539186
21
0.936186
0
LINE
8
BLACK
6
CONTINUOUS
10
0.539186
20
0.936186
11
0.537885
21
0.937487
0
LINE
8
BLACK
6
CONTINUOUS
10
0.537885
20
0.937487
11
0.535027
21
0.938917
0
LINE
8
BLACK
6
CONTINUOUS
10
0.535027
20
0.938917
11
0.532457
21
0.938917
0
LINE
8
BLACK
6
CONTINUOUS
10
0.532457
20
0.938917
11
0.529599
21
0.937487
0
LINE
8
BLACK
6
CONTINUOUS
10
0.57191
20
0.943638
11
0.572624
21
0.943497
0
LINE
8
BLACK
6
CONTINUOUS
10
0.572624
20
0.943497
11
0.572767
21
0.943283
0
LINE
8
BLACK
6
CONTINUOUS
10
0.572767
20
0.943283
11
0.573005
21
0.943184
0
LINE
8
BLACK
6
CONTINUOUS
10
0.573005
20
0.943184
11
0.573284
21
0.942512
0
LINE
8
BLACK
6
CONTINUOUS
10
0.573284
20
0.942512
11
0.573689
21
0.941907
0
LINE
8
BLACK
6
CONTINUOUS
10
0.573689
20
0.941907
11
0.573639
21
0.941655
0
LINE
8
BLACK
6
CONTINUOUS
10
0.573639
20
0.941655
11
0.573737
21
0.941417
0
LINE
8
BLACK
6
CONTINUOUS
10
0.573737
20
0.941417
11
0.573737
21
0.904547
0
LINE
8
BLACK
6
CONTINUOUS
10
0.573737
20
0.904547
11
0.582486
21
0.904547
0
LINE
8
BLACK
6
CONTINUOUS
10
0.582486
20
0.904547
11
0.584254
21
0.903814
0
LINE
8
BLACK
6
CONTINUOUS
10
0.584254
20
0.903814
11
0.584986
21
0.902047
0
LINE
8
BLACK
6
CONTINUOUS
10
0.584986
20
0.902047
11
0.584254
21
0.900279
0
LINE
8
BLACK
6
CONTINUOUS
10
0.584254
20
0.900279
11
0.582486
21
0.899547
0
LINE
8
BLACK
6
CONTINUOUS
10
0.582486
20
0.899547
11
0.571237
21
0.899547
0
LINE
8
BLACK
6
CONTINUOUS
10
0.571237
20
0.899547
11
0.559989
21
0.899547
0
LINE
8
BLACK
6
CONTINUOUS
10
0.559989
20
0.899547
11
0.558221
21
0.900279
0
LINE
8
BLACK
6
CONTINUOUS
10
0.558221
20
0.900279
11
0.557489
21
0.902047
0
LINE
8
BLACK
6
CONTINUOUS
10
0.557489
20
0.902047
11
0.558221
21
0.903814
0
LINE
8
BLACK
6
CONTINUOUS
10
0.558221
20
0.903814
11
0.559989
21
0.904547
0
LINE
8
BLACK
6
CONTINUOUS
10
0.559989
20
0.904547
11
0.568737
21
0.904547
0
LINE
8
BLACK
6
CONTINUOUS
10
0.568737
20
0.904547
11
0.568737
21
0.933506
0
LINE
8
BLACK
6
CONTINUOUS
10
0.568737
20
0.933506
11
0.565506
21
0.930275
0
LINE
8
BLACK
6
CONTINUOUS
10
0.565506
20
0.930275
11
0.565126
21
0.930118
0
LINE
8
BLACK
6
CONTINUOUS
10
0.565126
20
0.930118
11
0.564856
21
0.929807
0
LINE
8
BLACK
6
CONTINUOUS
10
0.564856
20
0.929807
11
0.561107
21
0.927932
0
LINE
8
BLACK
6
CONTINUOUS
10
0.561107
20
0.927932
11
0.559198
21
0.927796
0
LINE
8
BLACK
6
CONTINUOUS
10
0.559198
20
0.927796
11
0.557753
21
0.92905
0
LINE
8
BLACK
6
CONTINUOUS
10
0.557753
20
0.92905
11
0.557617
21
0.930959
0
LINE
8
BLACK
6
CONTINUOUS
10
0.557617
20
0.930959
11
0.558871
21
0.932404
0
LINE
8
BLACK
6
CONTINUOUS
10
0.558871
20
0.932404
11
0.562257
21
0.934098
0
LINE
8
BLACK
6
CONTINUOUS
10
0.562257
20
0.934098
11
0.565545
21
0.937385
0
LINE
8
BLACK
6
CONTINUOUS
10
0.565545
20
0.937385
11
0.569157
21
0.942804
0
LINE
8
BLACK
6
CONTINUOUS
10
0.569157
20
0.942804
11
0.569371
21
0.942947
0
LINE
8
BLACK
6
CONTINUOUS
10
0.569371
20
0.942947
11
0.56947
21
0.943184
0
LINE
8
BLACK
6
CONTINUOUS
10
0.56947
20
0.943184
11
0.570142
21
0.943463
0
LINE
8
BLACK
6
CONTINUOUS
10
0.570142
20
0.943463
11
0.570747
21
0.943868
0
LINE
8
BLACK
6
CONTINUOUS
10
0.570747
20
0.943868
11
0.571
21
0.943818
0
LINE
8
BLACK
6
CONTINUOUS
10
0.571
20
0.943818
11
0.571237
21
0.943917
0
LINE
8
BLACK
6
CONTINUOUS
10
0.571237
20
0.943917
11
0.57191
21
0.943638
0
LINE
8
BLACK
6
CONTINUOUS
10
0.334074
20
0.943666
11
0.33426
21
0.943653
0
LINE
8
BLACK
6
CONTINUOUS
10
0.33426
20
0.943653
11
0.334779
21
0.943054
0
LINE
8
BLACK
6
CONTINUOUS
10
0.334779
20
0.943054
11
0.335378
21
0.942535
0
LINE
8
BLACK
6
CONTINUOUS
10
0.335378
20
0.942535
11
0.335391
21
0.942348
0
LINE
8
BLACK
6
CONTINUOUS
10
0.335391
20
0.942348
11
0.335514
21
0.942207
0
LINE
8
BLACK
6
CONTINUOUS
10
0.335514
20
0.942207
11
0.348637
21
0.902837
0
LINE
8
BLACK
6
CONTINUOUS
10
0.348637
20
0.902837
11
0.348501
21
0.900929
0
LINE
8
BLACK
6
CONTINUOUS
10
0.348501
20
0.900929
11
0.347056
21
0.899675
0
LINE
8
BLACK
6
CONTINUOUS
10
0.347056
20
0.899675
11
0.345147
21
0.899811
0
LINE
8
BLACK
6
CONTINUOUS
10
0.345147
20
0.899811
11
0.343894
21
0.901256
0
LINE
8
BLACK
6
CONTINUOUS
10
0.343894
20
0.901256
11
0.340714
21
0.910795
0
LINE
8
BLACK
6
CONTINUOUS
10
0.340714
20
0.910795
11
0.32557
21
0.910795
0
LINE
8
BLACK
6
CONTINUOUS
10
0.32557
20
0.910795
11
0.32239
21
0.901256
0
LINE
8
BLACK
6
CONTINUOUS
10
0.32239
20
0.901256
11
0.321137
21
0.899811
0
LINE
8
BLACK
6
CONTINUOUS
10
0.321137
20
0.899811
11
0.319228
21
0.899675
0
LINE
8
BLACK
6
CONTINUOUS
10
0.319228
20
0.899675
11
0.317783
21
0.900929
0
LINE
8
BLACK
6
CONTINUOUS
10
0.317783
20
0.900929
11
0.317647
21
0.902837
0
LINE
8
BLACK
6
CONTINUOUS
10
0.317647
20
0.902837
11
0.33077
21
0.942207
0
LINE
8
BLACK
6
CONTINUOUS
10
0.33077
20
0.942207
11
0.330893
21
0.942348
0
LINE
8
BLACK
6
CONTINUOUS
10
0.330893
20
0.942348
11
0.330906
21
0.942535
0
LINE
8
BLACK
6
CONTINUOUS
10
0.330906
20
0.942535
11
0.331505
21
0.943054
0
LINE
8
BLACK
6
CONTINUOUS
10
0.331505
20
0.943054
11
0.332024
21
0.943653
0
LINE
8
BLACK
6
CONTINUOUS
10
0.332024
20
0.943653
11
0.33221
21
0.943666
0
LINE
8
BLACK
6
CONTINUOUS
10
0.33221
20
0.943666
11
0.332352
21
0.943788
0
LINE
8
BLACK
6
CONTINUOUS
10
0.332352
20
0.943788
11
0.333142
21
0.943732
0
LINE
8
BLACK
6
CONTINUOUS
10
0.333142
20
0.943732
11
0.333933
21
0.943788
0
LINE
8
BLACK
6
CONTINUOUS
10
0.333933
20
0.943788
11
0.334074
21
0.943666
0
LINE
8
BLACK
6
CONTINUOUS
10
0.327237
20
0.915795
11
0.339047
21
0.915795
0
LINE
8
BLACK
6
CONTINUOUS
10
0.339047
20
0.915795
11
0.333142
21
0.933511
0
LINE
8
BLACK
6
CONTINUOUS
10
0.333142
20
0.933511
11
0.327237
21
0.915795
0
LINE
8
BLACK
6
CONTINUOUS
10
0.60779
20
0.943666
11
0.607976
21
0.943653
0
LINE
8
BLACK
6
CONTINUOUS
10
0.607976
20
0.943653
11
0.608495
21
0.943054
0
LINE
8
BLACK
6
CONTINUOUS
10
0.608495
20
0.943054
11
0.609094
21
0.942535
0
LINE
8
BLACK
6
CONTINUOUS
10
0.609094
20
0.942535
11
0.609107
21
0.942348
0
LINE
8
BLACK
6
CONTINUOUS
10
0.609107
20
0.942348
11
0.60923
21
0.942207
0
LINE
8
BLACK
6
CONTINUOUS
10
0.60923
20
0.942207
11
0.622353
21
0.902837
0
LINE
8
BLACK
6
CONTINUOUS
10
0.622353
20
0.902837
11
0.622217
21
0.900929
0
LINE
8
BLACK
6
CONTINUOUS
10
0.622217
20
0.900929
11
0.620772
21
0.899675
0
LINE
8
BLACK
6
CONTINUOUS
10
0.620772
20
0.899675
11
0.618863
21
0.899811
0
LINE
8
BLACK
6
CONTINUOUS
10
0.618863
20
0.899811
11
0.617609
21
0.901256
0
LINE
8
BLACK
6
CONTINUOUS
10
0.617609
20
0.901256
11
0.61443
21
0.910795
0
LINE
8
BLACK
6
CONTINUOUS
10
0.61443
20
0.910795
11
0.599286
21
0.910795
0
LINE
8
BLACK
6
CONTINUOUS
10
0.599286
20
0.910795
11
0.596106
21
0.901256
0
LINE
8
BLACK
6
CONTINUOUS
10
0.596106
20
0.901256
11
0.594853
21
0.899811
0
LINE
8
BLACK
6
CONTINUOUS
10
0.594853
20
0.899811
11
0.592944
21
0.899675
0
LINE
8
BLACK
6
CONTINUOUS
10
0.592944
20
0.899675
11
0.591498
21
0.900929
0
LINE
8
BLACK
6
CONTINUOUS
10
0.591498
20
0.900929
11
0.591363
21
0.902837
0
LINE
8
BLACK
6
CONTINUOUS
10
0.591363
20
0.902837
11
0.604486
21
0.942207
0
LINE
8
BLACK
6
CONTINUOUS
10
0.604486
20
0.942207
11
0.604609
21
0.942348
0
LINE
8
BLACK
6
CONTINUOUS
10
0.604609
20
0.942348
11
0.604622
21
0.942535
0
LINE
8
BLACK
6
CONTINUOUS
10
0.604622
20
0.942535
11
0.605221
21
0.943054
0
LINE
8
BLACK
6
CONTINUOUS
10
0.605221
20
0.943054
11
0.60574
21
0.943653
0
LINE
8
BLACK
6
CONTINUOUS
10
0.60574
20
0.943653
11
0.605926
21
0.943666
0
LINE
8
BLACK
6
CONTINUOUS
10
0.605926
20
0.943666
11
0.606067
21
0.943788
0
LINE
8
BLACK
6
CONTINUOUS
10
0.606067
20
0.943788
11
0.606858
21
0.943732
0
LINE
8
BLACK
6
CONTINUOUS
10
0.606858
20
0.943732
11
0.607648
21
0.943788
0
LINE
8
BLACK
6
CONTINUOUS
10
0.607648
20
0.943788
11
0.60779
21
0.943666
0
LINE
8
BLACK
6
CONTINUOUS
10
0.600953
20
0.915795
11
0.612763
21
0.915795
0
LINE
8
BLACK
6
CONTINUOUS
10
0.612763
20
0.915795
11
0.606858
21
0.933511
0
LINE
8
BLACK
6
CONTINUOUS
10
0.606858
20
0.933511
11
0.600953
21
0.915795
0
LINE
8
BLACK
6
CONTINUOUS
10
0.0410099
20
0.94057
11
0.0425572
21
0.939272
0
LINE
8
BLACK
6
CONTINUOUS
10
0.0425572
20
0.939272
11
0.0429079
21
0.937283
0
LINE
8
BLACK
6
CONTINUOUS
10
0.0429079
20
0.937283
11
0.041898
21
0.935533
0
LINE
8
BLACK
6
CONTINUOUS
10
0.041898
20
0.935533
11
0.04
21
0.934843
0
LINE
8
BLACK
6
CONTINUOUS
10
0.04
20
0.934843
11
-0.04
21
0.934843
0
LINE
8
BLACK
6
CONTINUOUS
10
-0.04
20
0.934843
11
-0.0410099
21
0.935021
0
LINE
8
BLACK
6
CONTINUOUS
10
-0.0410099
20
0.935021
11
-0.0425572
21
0.936319
0
LINE
8
BLACK
6
CONTINUOUS
10
-0.0425572
20
0.936319
11
-0.0429079
21
0.938308
0
LINE
8
BLACK
6
CONTINUOUS
10
-0.0429079
20
0.938308
11
-0.041898
21
0.940057
0
LINE
8
BLACK
6
CONTINUOUS
10
-0.041898
20
0.940057
11
-0.04
21
0.940748
0
LINE
8
BLACK
6
CONTINUOUS
10
-0.04
20
0.940748
11
0.04
21
0.940748
0
LINE
8
BLACK
6
CONTINUOUS
10
0.04
20
0.940748
11
0.0410099
21
0.94057
0
LINE
8
BLACK
6
CONTINUOUS
10
0.327715
20
1.02318
11
0.328447
21
1.02142
0
LINE
8
BLACK
6
CONTINUOUS
10
0.328447
20
1.02142
11
0.328447
21
0.984547
0
LINE
8
BLACK
6
CONTINUOUS
10
0.328447
20
0.984547
11
0.344694
21
0.984547
0
LINE
8
BLACK
6
CONTINUOUS
10
0.344694
20
0.984547
11
0.346462
21
0.983814
0
LINE
8
BLACK
6
CONTINUOUS
10
0.346462
20
0.983814
11
0.347194
21
0.982047
0
LINE
8
BLACK
6
CONTINUOUS
10
0.347194
20
0.982047
11
0.346462
21
0.980279
0
LINE
8
BLACK
6
CONTINUOUS
10
0.346462
20
0.980279
11
0.344694
21
0.979547
0
LINE
8
BLACK
6
CONTINUOUS
10
0.344694
20
0.979547
11
0.325947
21
0.979547
0
LINE
8
BLACK
6
CONTINUOUS
10
0.325947
20
0.979547
11
0.324179
21
0.980279
0
LINE
8
BLACK
6
CONTINUOUS
10
0.324179
20
0.980279
11
0.323447
21
0.982047
0
LINE
8
BLACK
6
CONTINUOUS
10
0.323447
20
0.982047
11
0.323447
21
1.02142
0
LINE
8
BLACK
6
CONTINUOUS
10
0.323447
20
1.02142
11
0.324179
21
1.02318
0
LINE
8
BLACK
6
CONTINUOUS
10
0.324179
20
1.02318
11
0.325947
21
1.02392
0
LINE
8
BLACK
6
CONTINUOUS
10
0.325947
20
1.02392
11
0.327715
21
1.02318
0
LINE
8
BLACK
6
CONTINUOUS
10
0.384572
20
1.02371
11
0.385122
21
1.02368
0
LINE
8
BLACK
6
CONTINUOUS
10
0.385122
20
1.02368
11
0.385422
21
1.02335
0
LINE
8
BLACK
6
CONTINUOUS
10
0.385422
20
1.02335
11
0.385832
21
1.02318
0
LINE
8
BLACK
6
CONTINUOUS
10
0.385832
20
1.02318
11
0.386043
21
1.02268
0
LINE
8
BLACK
6
CONTINUOUS
10
0.386043
20
1.02268
11
0.386414
21
1.02227
0
LINE
8
BLACK
6
CONTINUOUS
10
0.386414
20
1.02227
11
0.386394
21
1.02183
0
LINE
8
BLACK
6
CONTINUOUS
10
0.386394
20
1.02183
11
0.386564
21
1.02142
0
LINE
8
BLACK
6
CONTINUOUS
10
0.386564
20
1.02142
11
0.386564
21
0.982047
0
LINE
8
BLACK
6
CONTINUOUS
10
0.386564
20
0.982047
11
0.385832
21
0.980279
0
LINE
8
BLACK
6
CONTINUOUS
10
0.385832
20
0.980279
11
0.384064
21
0.979547
0
LINE
8
BLACK
6
CONTINUOUS
10
0.384064
20
0.979547
11
0.382297
21
0.980279
0
LINE
8
BLACK
6
CONTINUOUS
10
0.382297
20
0.980279
11
0.381564
21
0.982047
0
LINE
8
BLACK
6
CONTINUOUS
10
0.381564
20
0.982047
11
0.381564
21
1.01015
0
LINE
8
BLACK
6
CONTINUOUS
10
0.381564
20
1.01015
11
0.373207
21
0.992238
0
LINE
8
BLACK
6
CONTINUOUS
10
0.373207
20
0.992238
11
0.372576
21
0.991661
0
LINE
8
BLACK
6
CONTINUOUS
10
0.372576
20
0.991661
11
0.371998
21
0.99103
0
LINE
8
BLACK
6
CONTINUOUS
10
0.371998
20
0.99103
11
0.371882
21
0.991025
0
LINE
8
BLACK
6
CONTINUOUS
10
0.371882
20
0.991025
11
0.371796
21
0.990946
0
LINE
8
BLACK
6
CONTINUOUS
10
0.371796
20
0.990946
11
0.370941
21
0.990983
0
LINE
8
BLACK
6
CONTINUOUS
10
0.370941
20
0.990983
11
0.370087
21
0.990946
0
LINE
8
BLACK
6
CONTINUOUS
10
0.370087
20
0.990946
11
0.370001
21
0.991025
0
LINE
8
BLACK
6
CONTINUOUS
10
0.370001
20
0.991025
11
0.369884
21
0.99103
0
LINE
8
BLACK
6
CONTINUOUS
10
0.369884
20
0.99103
11
0.369306
21
0.991661
0
LINE
8
BLACK
6
CONTINUOUS
10
0.369306
20
0.991661
11
0.368676
21
0.992238
0
LINE
8
BLACK
6
CONTINUOUS
10
0.368676
20
0.992238
11
0.360318
21
1.01015
0
LINE
8
BLACK
6
CONTINUOUS
10
0.360318
20
1.01015
11
0.360318
21
0.982047
0
LINE
8
BLACK
6
CONTINUOUS
10
0.360318
20
0.982047
11
0.359586
21
0.980279
0
LINE
8
BLACK
6
CONTINUOUS
10
0.359586
20
0.980279
11
0.357818
21
0.979547
0
LINE
8
BLACK
6
CONTINUOUS
10
0.357818
20
0.979547
11
0.35605
21
0.980279
0
LINE
8
BLACK
6
CONTINUOUS
10
0.35605
20
0.980279
11
0.355318
21
0.982047
0
LINE
8
BLACK
6
CONTINUOUS
10
0.355318
20
0.982047
11
0.355318
21
1.02142
0
LINE
8
BLACK
6
CONTINUOUS
10
0.355318
20
1.02142
11
0.355488
21
1.02183
0
LINE
8
BLACK
6
CONTINUOUS
10
0.355488
20
1.02183
11
0.355468
21
1.02227
0
LINE
8
BLACK
6
CONTINUOUS
10
0.355468
20
1.02227
11
0.35584
21
1.02268
0
LINE
8
BLACK
6
CONTINUOUS
10
0.35584
20
1.02268
11
0.35605
21
1.02318
0
LINE
8
BLACK
6
CONTINUOUS
10
0.35605
20
1.02318
11
0.35646
21
1.02335
0
LINE
8
BLACK
6
CONTINUOUS
10
0.35646
20
1.02335
11
0.356761
21
1.02368
0
LINE
8
BLACK
6
CONTINUOUS
10
0.356761
20
1.02368
11
0.35731
21
1.02371
0
LINE
8
BLACK
6
CONTINUOUS
10
0.35731
20
1.02371
11
0.357818
21
1.02392
0
LINE
8
BLACK
6
CONTINUOUS
10
0.357818
20
1.02392
11
0.358228
21
1.02375
0
LINE
8
BLACK
6
CONTINUOUS
10
0.358228
20
1.02375
11
0.358672
21
1.02377
0
LINE
8
BLACK
6
CONTINUOUS
10
0.358672
20
1.02377
11
0.359078
21
1.02339
0
LINE
8
BLACK
6
CONTINUOUS
10
0.359078
20
1.02339
11
0.359586
21
1.02318
0
LINE
8
BLACK
6
CONTINUOUS
10
0.359586
20
1.02318
11
0.359756
21
1.02277
0
LINE
8
BLACK
6
CONTINUOUS
10
0.359756
20
1.02277
11
0.360083
21
1.02247
0
LINE
8
BLACK
6
CONTINUOUS
10
0.360083
20
1.02247
11
0.370941
21
0.999207
0
LINE
8
BLACK
6
CONTINUOUS
10
0.370941
20
0.999207
11
0.381799
21
1.02247
0
LINE
8
BLACK
6
CONTINUOUS
10
0.381799
20
1.02247
11
0.382127
21
1.02277
0
LINE
8
BLACK
6
CONTINUOUS
10
0.382127
20
1.02277
11
0.382297
21
1.02318
0
LINE
8
BLACK
6
CONTINUOUS
10
0.382297
20
1.02318
11
0.382805
21
1.02339
0
LINE
8
BLACK
6
CONTINUOUS
10
0.382805
20
1.02339
11
0.38321
21
1.02377
0
LINE
8
BLACK
6
CONTINUOUS
10
0.38321
20
1.02377
11
0.383654
21
1.02375
0
LINE
8
BLACK
6
CONTINUOUS
10
0.383654
20
1.02375
11
0.384064
21
1.02392
0
LINE
8
BLACK
6
CONTINUOUS
10
0.384064
20
1.02392
11
0.384572
21
1.02371
0
LINE
8
BLACK
6
CONTINUOUS
10
0.427077
20
1.02318
11
0.427809
21
1.02142
0
LINE
8
BLACK
6
CONTINUOUS
10
0.427809
20
1.02142
11
0.427809
21
0.982047
0
LINE
8
BLACK
6
CONTINUOUS
10
0.427809
20
0.982047
11
0.427077
21
0.980279
0
LINE
8
BLACK
6
CONTINUOUS
10
0.427077
20
0.980279
11
0.425309
21
0.979547
0
LINE
8
BLACK
6
CONTINUOUS
10
0.425309
20
0.979547
11
0.423542
21
0.980279
0
LINE
8
BLACK
6
CONTINUOUS
10
0.423542
20
0.980279
11
0.422809
21
0.982047
0
LINE
8
BLACK
6
CONTINUOUS
10
0.422809
20
0.982047
11
0.422809
21
1.00017
0
LINE
8
BLACK
6
CONTINUOUS
10
0.422809
20
1.00017
11
0.405312
21
1.00017
0
LINE
8
BLACK
6
CONTINUOUS
10
0.405312
20
1.00017
11
0.405312
21
0.982047
0
LINE
8
BLACK
6
CONTINUOUS
10
0.405312
20
0.982047
11
0.40458
21
0.980279
0
LINE
8
BLACK
6
CONTINUOUS
10
0.40458
20
0.980279
11
0.402812
21
0.979547
0
LINE
8
BLACK
6
CONTINUOUS
10
0.402812
20
0.979547
11
0.401044
21
0.980279
0
LINE
8
BLACK
6
CONTINUOUS
10
0.401044
20
0.980279
11
0.400312
21
0.982047
0
LINE
8
BLACK
6
CONTINUOUS
10
0.400312
20
0.982047
11
0.400312
21
1.02142
0
LINE
8
BLACK
6
CONTINUOUS
10
0.400312
20
1.02142
11
0.401044
21
1.02318
0
LINE
8
BLACK
6
CONTINUOUS
10
0.401044
20
1.02318
11
0.402812
21
1.02392
0
LINE
8
BLACK
6
CONTINUOUS
10
0.402812
20
1.02392
11
0.40458
21
1.02318
0
LINE
8
BLACK
6
CONTINUOUS
10
0.40458
20
1.02318
11
0.405312
21
1.02142
0
LINE
8
BLACK
6
CONTINUOUS
10
0.405312
20
1.02142
11
0.405312
21
1.00517
0
LINE
8
BLACK
6
CONTINUOUS
10
0.405312
20
1.00517
11
0.422809
21
1.00517
0
LINE
8
BLACK
6
CONTINUOUS
10
0.422809
20
1.00517
11
0.422809
21
1.02142
0
LINE
8
BLACK
6
CONTINUOUS
10
0.422809
20
1.02142
11
0.423542
21
1.02318
0
LINE
8
BLACK
6
CONTINUOUS
10
0.423542
20
1.02318
11
0.425309
21
1.02392
0
LINE
8
BLACK
6
CONTINUOUS
10
0.425309
20
1.02392
11
0.427077
21
1.02318
0
LINE
8
BLACK
6
CONTINUOUS
10
0.475821
20
0.998813
11
0.476553
21
0.997045
0
LINE
8
BLACK
6
CONTINUOUS
10
0.476553
20
0.997045
11
0.475821
21
0.995277
0
LINE
8
BLACK
6
CONTINUOUS
10
0.475821
20
0.995277
11
0.474053
21
0.994545
0
LINE
8
BLACK
6
CONTINUOUS
10
0.474053
20
0.994545
11
0.444057
21
0.994545
0
LINE
8
BLACK
6
CONTINUOUS
10
0.444057
20
0.994545
11
0.442289
21
0.995277
0
LINE
8
BLACK
6
CONTINUOUS
10
0.442289
20
0.995277
11
0.441557
21
0.997045
0
LINE
8
BLACK
6
CONTINUOUS
10
0.441557
20
0.997045
11
0.442289
21
0.998813
0
LINE
8
BLACK
6
CONTINUOUS
10
0.442289
20
0.998813
11
0.444057
21
0.999545
0
LINE
8
BLACK
6
CONTINUOUS
10
0.444057
20
0.999545
11
0.474053
21
0.999545
0
LINE
8
BLACK
6
CONTINUOUS
10
0.474053
20
0.999545
11
0.475821
21
0.998813
0
LINE
8
BLACK
6
CONTINUOUS
10
0.44101
20
1.06598
11
0.442557
21
1.06468
0
LINE
8
BLACK
6
CONTINUOUS
10
0.442557
20
1.06468
11
0.442908
21
1.06269
0
LINE
8
BLACK
6
CONTINUOUS
10
0.442908
20
1.06269
11
0.441898
21
1.06094
0
LINE
8
BLACK
6
CONTINUOUS
10
0.441898
20
1.06094
11
0.44
21
1.06025
0
LINE
8
BLACK
6
CONTINUOUS
10
0.44
20
1.06025
11
0.36
21
1.06025
0
LINE
8
BLACK
6
CONTINUOUS
10
0.36
20
1.06025
11
0.35899
21
1.06043
0
LINE
8
BLACK
6
CONTINUOUS
10
0.35899
20
1.06043
11
0.357443
21
1.06173
0
LINE
8
BLACK
6
CONTINUOUS
10
0.357443
20
1.06173
11
0.357092
21
1.06372
0
LINE
8
BLACK
6
CONTINUOUS
10
0.357092
20
1.06372
11
0.358102
21
1.06547
0
LINE
8
BLACK
6
CONTINUOUS
10
0.358102
20
1.06547
11
0.36
21
1.06616
0
LINE
8
BLACK
6
CONTINUOUS
10
0.36
20
1.06616
11
0.44
21
1.06616
0
LINE
8
BLACK
6
CONTINUOUS
10
0.44
20
1.06616
11
0.44101
21
1.06598
0
LINE
8
BLACK
6
CONTINUOUS
10
0.264467
20
1.2419
11
0.265157
21
1.24
0
LINE
8
BLACK
6
CONTINUOUS
10
0.265157
20
1.24
11
0.265157
21
1.16
0
LINE
8
BLACK
6
CONTINUOUS
10
0.265157
20
1.16
11
0.264979
21
1.15899
0
LINE
8
BLACK
6
CONTINUOUS
10
0.264979
20
1.15899
11
0.263681
21
1.15744
0
LINE
8
BLACK
6
CONTINUOUS
10
0.263681
20
1.15744
11
0.261692
21
1.15709
0
LINE
8
BLACK
6
CONTINUOUS
10
0.261692
20
1.15709
11
0.259943
21
1.1581
0
LINE
8
BLACK
6
CONTINUOUS
10
0.259943
20
1.1581
11
0.259252
21
1.16
0
LINE
8
BLACK
6
CONTINUOUS
10
0.259252
20
1.16
11
0.259252
21
1.24
0
LINE
8
BLACK
6
CONTINUOUS
10
0.259252
20
1.24
11
0.25943
21
1.24101
0
LINE
8
BLACK
6
CONTINUOUS
10
0.25943
20
1.24101
11
0.260728
21
1.24256
0
LINE
8
BLACK
6
CONTINUOUS
10
0.260728
20
1.24256
11
0.262717
21
1.24291
0
LINE
8
BLACK
6
CONTINUOUS
10
0.262717
20
1.24291
11
0.264467
21
1.2419
0
LINE
8
BLACK
6
CONTINUOUS
10
0.540057
20
1.2419
11
0.540748
21
1.24
0
LINE
8
BLACK
6
CONTINUOUS
10
0.540748
20
1.24
11
0.540748
21
1.16
0
LINE
8
BLACK
6
CONTINUOUS
10
0.540748
20
1.16
11
0.54057
21
1.15899
0
LINE
8
BLACK
6
CONTINUOUS
10
0.54057
20
1.15899
11
0.539272
21
1.15744
0
LINE
8
BLACK
6
CONTINUOUS
10
0.539272
20
1.15744
11
0.537283
21
1.15709
0
LINE
8
BLACK
6
CONTINUOUS
10
0.537283
20
1.15709
11
0.535533
21
1.1581
0
LINE
8
BLACK
6
CONTINUOUS
10
0.535533
20
1.1581
11
0.534843
21
1.16
0
LINE
8
BLACK
6
CONTINUOUS
10
0.534843
20
1.16
11
0.534843
21
1.24
0
LINE
8
BLACK
6
CONTINUOUS
10
0.534843
20
1.24
11
0.535021
21
1.24101
0
LINE
8
BLACK
6
CONTINUOUS
10
0.535021
20
1.24101
11
0.536319
21
1.24256
0
LINE
8
BLACK
6
CONTINUOUS
10
0.536319
20
1.24256
11
0.538308
21
1.24291
0
LINE
8
BLACK
6
CONTINUOUS
10
0.538308
20
1.24291
11
0.540057
21
1.2419
0
LINE
8
BLACK
6
CONTINUOUS
10
0.44101
20
1.34057
11
0.442557
21
1.33927
0
LINE
8
BLACK
6
CONTINUOUS
10
0.442557
20
1.33927
11
0.442908
21
1.33728
0
LINE
8
BLACK
6
CONTINUOUS
10
0.442908
20
1.33728
11
0.441898
21
1.33553
0
LINE
8
BLACK
6
CONTINUOUS
10
0.441898
20
1.33553
11
0.44
21
1.33484
0
LINE
8
BLACK
6
CONTINUOUS
10
0.44
20
1.33484
11
0.36
21
1.33484
0
LINE
8
BLACK
6
CONTINUOUS
10
0.36
20
1.33484
11
0.35899
21
1.33502
0
LINE
8
BLACK
6
CONTINUOUS
10
0.35899
20
1.33502
11
0.357443
21
1.33632
0
LINE
8
BLACK
6
CONTINUOUS
10
0.357443
20
1.33632
11
0.357092
21
1.33831
0
LINE
8
BLACK
6
CONTINUOUS
10
0.357092
20
1.33831
11
0.358102
21
1.34006
0
LINE
8
BLACK
6
CONTINUOUS
10
0.358102
20
1.34006
11
0.36
21
1.34075
0
LINE
8
BLACK
6
CONTINUOUS
10
0.36
20
1.34075
11
0.44
21
1.34075
0
LINE
8
BLACK
6
CONTINUOUS
10
0.44
20
1.34075
11
0.44101
21
1.34057
0
CIRCLE
8
BLACK
10
0.85
20
0.25
40
0.00688976
0
CIRCLE
8
BLACK
10
0.75
20
0.25
40
0.00688976
0
CIRCLE
8
BLACK
10
0.85
20
0.35
40
0.00688976
0
CIRCLE
8
BLACK
10
0.75
20
0.35
40
0.00688976
0
CIRCLE
8
BLACK
10
0.85
20
0.45
40
0.00688976
0
CIRCLE
8
BLACK
10
0.75
20
0.45
40
0.00688976
0
CIRCLE
8
BLACK
10
0.85
20
0.55
40
0.00688976
0
CIRCLE
8
BLACK
10
0.75
20
0.55
40
0.00688976
0
CIRCLE
8
BLACK
10
0
20
1.2
40
0.00688976
0
CIRCLE
8
BLACK
10
0.8
20
0
40
0.00688976
0
CIRCLE
8
BLACK
10
0.85
20
0.65
40
0.00688976
0
CIRCLE
8
BLACK
10
0.75
20
0.65
40
0.00688976
0
CIRCLE
8
BLACK
10
0.85
20
0.75
40
0.00688976
0
CIRCLE
8
BLACK
10
0.75
20
0.75
40
0.00688976
0
CIRCLE
8
BLACK
10
0.85
20
0.85
40
0.00688976
0
CIRCLE
8
BLACK
10
0.75
20
0.85
40
0.00688976
0
CIRCLE
8
BLACK
10
0.85
20
0.95
40
0.00688976
0
CIRCLE
8
BLACK
10
0.75
20
0.95
40
0.00688976
0
CIRCLE
8
BLACK
10
0.4
20
0
40
0.00688976
0
CIRCLE
8
BLACK
10
0.3
20
-0.1
40
0.00688976
0
CIRCLE
8
BLACK
10
0.5
20
-0.1
40
0.00688976
0
CIRCLE
8
BLACK
10
0.5
20
0.1
40
0.00688976
0
CIRCLE
8
BLACK
10
0.3
20
0.1
40
0.00688976
0
CIRCLE
8
BLACK
10
0.4
20
0.7
40
0.00688976
0
CIRCLE
8
BLACK
10
0.5
20
0.7
40
0.00688976
0
CIRCLE
8
BLACK
10
0.4
20
0.6
40
0.00688976
0
CIRCLE
8
BLACK
10
0.5
20
0.6
40
0.00688976
0
CIRCLE
8
BLACK
10
0.4
20
0.5
40
0.00688976
0
CIRCLE
8
BLACK
10
0.5
20
0.5
40
0.00688976
0
CIRCLE
8
BLACK
10
0
20
0.8
40
0.00688976
0
CIRCLE
8
BLACK
10
-0.1
20
0.9
40
0.00688976
0
CIRCLE
8
BLACK
10
0.1
20
0.9
40
0.00688976
0
CIRCLE
8
BLACK
10
0.1
20
0.7
40
0.00688976
0
CIRCLE
8
BLACK
10
-0.1
20
0.7
40
0.00688976
0
CIRCLE
8
BLACK
10
0
20
0
40
0.00688976
0
CIRCLE
8
BLACK
10
0.8
20
1.2
40
0.00688976
0
CIRCLE
8
BLACK
10
0.4
20
1.2
40
0.00688976
0
CIRCLE
8
BLACK
10
0.5
20
1.3
40
0.00688976
0
CIRCLE
8
BLACK
10
0.5
20
1.1
40
0.00688976
0
CIRCLE
8
BLACK
10
0.3
20
1.3
40
0.00688976
0
CIRCLE
8
BLACK
10
0.3
20
1.1
40
0.00688976
0
CIRCLE
8
BLACK
10
0
20
0.4
40
0.00688976
0
CIRCLE
8
BLACK
10
-0.1
20
0.3
40
0.00688976
0
CIRCLE
8
BLACK
10
-0.1
20
0.5
40
0.00688976
0
CIRCLE
8
BLACK
10
0.1
20
0.5
40
0.00688976
0
CIRCLE
8
BLACK
10
0.1
20
0.3
40
0.00688976
  0
ENDSEC
  0
EOF
