  0
SECTION
  2
HEADER
  9
$ANGBASE
  50
0.0
  9
$ANGDIR
  70
1
  9
$MEASUREMENT
  70
0
  0
ENDSEC
  0
SECTION
  2
TABLES
  0
TABLE
  2
LTYPE
  70
4
  0
LTYPE
  5
40F
  2
CONTINUOUS
  70
0
  3
Solid line
  72
65
  73
0
  40
0.0
  0
LTYPE
  5
410
  2
DASHDOT
 70
0
  3
Dash Dot ____ _ ____ _
 72
65
 73
4
 40
2.0
 49
1.25
 49
-0.25
 49
0.25
 49
-0.25
  0
LTYPE
  5
411
  2
DASHED
 70
0
  3
Dashed __ __ __ __ __
 72
65
 73
2
 40
0.75
 49
0.5
 49
-0.25
  0
LTYPE
  5
43B
  2
DOTTED
 70
0
  3
Dotted .  .  .  .
 72
65
 73
2
 40
0.2
 49
0.0
 49
-0.2
  0
ENDTAB
  0
TABLE
  2
STYLE
  70
4
  0
STYLE
  2
KICAD
  70
0
  40
0
  41
1
  42
1
  50
0
  71
0
  3
isocp.shx
  0
STYLE
  2
KICADB
  70
0
  40
0
  41
1
  42
1
  50
0
  71
0
  3
isocp.shx
  0
STYLE
  2
KICADI
  70
0
  40
0
  41
1
  42
1
  50
15
  71
0
  3
isocp.shx
  0
STYLE
  2
KICADBI
  70
0
  40
0
  41
1
  42
1
  50
15
  71
0
  3
isocp.shx
  0
ENDTAB
  0
TABLE
  2
LAYER
  70
1
  0
LAYER
  2
BLACK
  70
0
  62
7
  6
CONTINUOUS
  0
ENDTAB
  0
ENDSEC
  0
SECTION
  2
ENTITIES
0
LINE
8
BLACK
6
CONTINUOUS
10
0.4036837401574803
20
0.3527754724409449
11
0.4042164173228346
21
0.3522427952755905
0
LINE
8
BLACK
6
CONTINUOUS
10
0.4042164173228346
20
0.3522427952755905
11
0.4042913385826771
21
0.3518661417322835
0
LINE
8
BLACK
6
CONTINUOUS
10
0.4042913385826771
20
0.3518661417322835
11
0.4042913385826771
21
0.3166299212598425
0
LINE
8
BLACK
6
CONTINUOUS
10
0.4042913385826771
20
0.3166299212598425
11
0.4092125984251969
21
0.3166299212598425
0
LINE
8
BLACK
6
CONTINUOUS
10
0.4092125984251969
20
0.3166299212598425
11
0.4095892519685039
21
0.316555
0
LINE
8
BLACK
6
CONTINUOUS
10
0.4095892519685039
20
0.316555
11
0.4101219291338583
21
0.3160223228346457
0
LINE
8
BLACK
6
CONTINUOUS
10
0.4101219291338583
20
0.3160223228346457
11
0.4101968503937008
21
0.3156456692913386
0
LINE
8
BLACK
6
CONTINUOUS
10
0.4101968503937008
20
0.3156456692913386
11
0.4101968503937008
21
0.2463543307086614
0
LINE
8
BLACK
6
CONTINUOUS
10
0.4101968503937008
20
0.2463543307086614
11
0.4101219291338583
21
0.2459776771653543
0
LINE
8
BLACK
6
CONTINUOUS
10
0.4101219291338583
20
0.2459776771653543
11
0.4095892519685039
21
0.245445
0
LINE
8
BLACK
6
CONTINUOUS
10
0.4095892519685039
20
0.245445
11
0.4092125984251969
21
0.2453700787401575
0
LINE
8
BLACK
6
CONTINUOUS
10
0.4092125984251969
20
0.2453700787401575
11
0.4042913385826771
21
0.2453700787401575
0
LINE
8
BLACK
6
CONTINUOUS
10
0.4042913385826771
20
0.2453700787401575
11
0.4042913385826771
21
0.2101338582677165
0
LINE
8
BLACK
6
CONTINUOUS
10
0.4042913385826771
20
0.2101338582677165
11
0.4042164173228346
21
0.2097572047244095
0
LINE
8
BLACK
6
CONTINUOUS
10
0.4042164173228346
20
0.2097572047244095
11
0.4036837401574803
21
0.2092245275590551
0
LINE
8
BLACK
6
CONTINUOUS
10
0.4036837401574803
20
0.2092245275590551
11
0.4033070866141732
21
0.2091496062992126
0
LINE
8
BLACK
6
CONTINUOUS
10
0.4033070866141732
20
0.2091496062992126
11
0.3166929133858268
21
0.2091496062992126
0
LINE
8
BLACK
6
CONTINUOUS
10
0.3166929133858268
20
0.2091496062992126
11
0.3163162598425197
21
0.2092245275590551
0
LINE
8
BLACK
6
CONTINUOUS
10
0.3163162598425197
20
0.2092245275590551
11
0.3157835826771653
21
0.2097572047244095
0
LINE
8
BLACK
6
CONTINUOUS
10
0.3157835826771653
20
0.2097572047244095
11
0.3157086614173228
21
0.2101338582677165
0
LINE
8
BLACK
6
CONTINUOUS
10
0.3157086614173228
20
0.2101338582677165
11
0.3157086614173228
21
0.2453700787401575
0
LINE
8
BLACK
6
CONTINUOUS
10
0.3157086614173228
20
0.2453700787401575
11
0.3107874015748032
21
0.2453700787401575
0
LINE
8
BLACK
6
CONTINUOUS
10
0.3107874015748032
20
0.2453700787401575
11
0.310410748031496
21
0.245445
0
LINE
8
BLACK
6
CONTINUOUS
10
0.310410748031496
20
0.245445
11
0.3098780708661417
21
0.2459776771653543
0
LINE
8
BLACK
6
CONTINUOUS
10
0.3098780708661417
20
0.2459776771653543
11
0.3098031496062992
21
0.2463543307086614
0
LINE
8
BLACK
6
CONTINUOUS
10
0.3098031496062992
20
0.2463543307086614
11
0.3098031496062992
21
0.3156456692913386
0
LINE
8
BLACK
6
CONTINUOUS
10
0.3098031496062992
20
0.3156456692913386
11
0.3098780708661417
21
0.3160223228346457
0
LINE
8
BLACK
6
CONTINUOUS
10
0.3098780708661417
20
0.3160223228346457
11
0.310410748031496
21
0.316555
0
LINE
8
BLACK
6
CONTINUOUS
10
0.310410748031496
20
0.316555
11
0.3107874015748032
21
0.3166299212598425
0
LINE
8
BLACK
6
CONTINUOUS
10
0.3107874015748032
20
0.3166299212598425
11
0.3157086614173228
21
0.3166299212598425
0
LINE
8
BLACK
6
CONTINUOUS
10
0.3157086614173228
20
0.3166299212598425
11
0.3157086614173228
21
0.3518661417322835
0
LINE
8
BLACK
6
CONTINUOUS
10
0.3157086614173228
20
0.3518661417322835
11
0.3157835826771653
21
0.3522427952755905
0
LINE
8
BLACK
6
CONTINUOUS
10
0.3157835826771653
20
0.3522427952755905
11
0.3163162598425197
21
0.3527754724409449
0
LINE
8
BLACK
6
CONTINUOUS
10
0.3163162598425197
20
0.3527754724409449
11
0.3166929133858268
21
0.3528503937007874
0
LINE
8
BLACK
6
CONTINUOUS
10
0.3166929133858268
20
0.3528503937007874
11
0.4033070866141732
21
0.3528503937007874
0
LINE
8
BLACK
6
CONTINUOUS
10
0.4033070866141732
20
0.3528503937007874
11
0.4036837401574803
21
0.3527754724409449
0
LINE
8
BLACK
6
CONTINUOUS
10
0.3176771653543307
20
0.3508818897637795
11
0.3176771653543307
21
0.3156456692913386
0
LINE
8
BLACK
6
CONTINUOUS
10
0.3176771653543307
20
0.3156456692913386
11
0.3176022440944882
21
0.3152690157480315
0
LINE
8
BLACK
6
CONTINUOUS
10
0.3176022440944882
20
0.3152690157480315
11
0.3170695669291339
21
0.3147363385826771
0
LINE
8
BLACK
6
CONTINUOUS
10
0.3170695669291339
20
0.3147363385826771
11
0.3166929133858268
21
0.3146614173228346
0
LINE
8
BLACK
6
CONTINUOUS
10
0.3166929133858268
20
0.3146614173228346
11
0.3117716535433071
21
0.3146614173228346
0
LINE
8
BLACK
6
CONTINUOUS
10
0.3117716535433071
20
0.3146614173228346
11
0.3117716535433071
21
0.2473385826771654
0
LINE
8
BLACK
6
CONTINUOUS
10
0.3117716535433071
20
0.2473385826771654
11
0.3166929133858268
21
0.2473385826771654
0
LINE
8
BLACK
6
CONTINUOUS
10
0.3166929133858268
20
0.2473385826771654
11
0.3170695669291339
21
0.2472636614173228
0
LINE
8
BLACK
6
CONTINUOUS
10
0.3170695669291339
20
0.2472636614173228
11
0.3176022440944882
21
0.2467309842519685
0
LINE
8
BLACK
6
CONTINUOUS
10
0.3176022440944882
20
0.2467309842519685
11
0.3176771653543307
21
0.2463543307086614
0
LINE
8
BLACK
6
CONTINUOUS
10
0.3176771653543307
20
0.2463543307086614
11
0.3176771653543307
21
0.2111181102362205
0
LINE
8
BLACK
6
CONTINUOUS
10
0.3176771653543307
20
0.2111181102362205
11
0.4023228346456693
21
0.2111181102362205
0
LINE
8
BLACK
6
CONTINUOUS
10
0.4023228346456693
20
0.2111181102362205
11
0.4023228346456693
21
0.2463543307086614
0
LINE
8
BLACK
6
CONTINUOUS
10
0.4023228346456693
20
0.2463543307086614
11
0.4023977559055118
21
0.2467309842519685
0
LINE
8
BLACK
6
CONTINUOUS
10
0.4023977559055118
20
0.2467309842519685
11
0.4029304330708661
21
0.2472636614173228
0
LINE
8
BLACK
6
CONTINUOUS
10
0.4029304330708661
20
0.2472636614173228
11
0.4033070866141732
21
0.2473385826771654
0
LINE
8
BLACK
6
CONTINUOUS
10
0.4033070866141732
20
0.2473385826771654
11
0.4082283464566929
21
0.2473385826771654
0
LINE
8
BLACK
6
CONTINUOUS
10
0.4082283464566929
20
0.2473385826771654
11
0.4082283464566929
21
0.3146614173228346
0
LINE
8
BLACK
6
CONTINUOUS
10
0.4082283464566929
20
0.3146614173228346
11
0.4033070866141732
21
0.3146614173228346
0
LINE
8
BLACK
6
CONTINUOUS
10
0.4033070866141732
20
0.3146614173228346
11
0.4029304330708661
21
0.3147363385826771
0
LINE
8
BLACK
6
CONTINUOUS
10
0.4029304330708661
20
0.3147363385826771
11
0.4023977559055118
21
0.3152690157480315
0
LINE
8
BLACK
6
CONTINUOUS
10
0.4023977559055118
20
0.3152690157480315
11
0.4023228346456693
21
0.3156456692913386
0
LINE
8
BLACK
6
CONTINUOUS
10
0.4023228346456693
20
0.3156456692913386
11
0.4023228346456693
21
0.3508818897637795
0
LINE
8
BLACK
6
CONTINUOUS
10
0.4023228346456693
20
0.3508818897637795
11
0.3176771653543307
21
0.3508818897637795
0
LINE
8
BLACK
6
CONTINUOUS
10
0.6887782283464566
20
0.467051062992126
11
0.689310905511811
21
0.4665183858267716
0
LINE
8
BLACK
6
CONTINUOUS
10
0.689310905511811
20
0.4665183858267716
11
0.6893858267716535
21
0.4661417322834646
0
LINE
8
BLACK
6
CONTINUOUS
10
0.6893858267716535
20
0.4661417322834646
11
0.6893858267716535
21
0.3338582677165354
0
LINE
8
BLACK
6
CONTINUOUS
10
0.6893858267716535
20
0.3338582677165354
11
0.689310905511811
21
0.3334816141732284
0
LINE
8
BLACK
6
CONTINUOUS
10
0.689310905511811
20
0.3334816141732284
11
0.6887782283464566
21
0.332948937007874
0
LINE
8
BLACK
6
CONTINUOUS
10
0.6887782283464566
20
0.332948937007874
11
0.6884015748031496
21
0.3328740157480315
0
LINE
8
BLACK
6
CONTINUOUS
10
0.6884015748031496
20
0.3328740157480315
11
0.6135984251968504
21
0.3328740157480315
0
LINE
8
BLACK
6
CONTINUOUS
10
0.6135984251968504
20
0.3328740157480315
11
0.6132217716535433
21
0.332948937007874
0
LINE
8
BLACK
6
CONTINUOUS
10
0.6132217716535433
20
0.332948937007874
11
0.612689094488189
21
0.3334816141732284
0
LINE
8
BLACK
6
CONTINUOUS
10
0.612689094488189
20
0.3334816141732284
11
0.6126141732283464
21
0.3338582677165354
0
LINE
8
BLACK
6
CONTINUOUS
10
0.6126141732283464
20
0.3338582677165354
11
0.6126141732283464
21
0.4661417322834646
0
LINE
8
BLACK
6
CONTINUOUS
10
0.6126141732283464
20
0.4661417322834646
11
0.612689094488189
21
0.4665183858267716
0
LINE
8
BLACK
6
CONTINUOUS
10
0.612689094488189
20
0.4665183858267716
11
0.6132217716535433
21
0.467051062992126
0
LINE
8
BLACK
6
CONTINUOUS
10
0.6132217716535433
20
0.467051062992126
11
0.6135984251968504
21
0.4671259842519685
0
LINE
8
BLACK
6
CONTINUOUS
10
0.6135984251968504
20
0.4671259842519685
11
0.6884015748031496
21
0.4671259842519685
0
LINE
8
BLACK
6
CONTINUOUS
10
0.6884015748031496
20
0.4671259842519685
11
0.6887782283464566
21
0.467051062992126
0
LINE
8
BLACK
6
CONTINUOUS
10
0.6145826771653543
20
0.4651574803149606
11
0.6145826771653543
21
0.3348425196850394
0
LINE
8
BLACK
6
CONTINUOUS
10
0.6145826771653543
20
0.3348425196850394
11
0.6874173228346456
21
0.3348425196850394
0
LINE
8
BLACK
6
CONTINUOUS
10
0.6874173228346456
20
0.3348425196850394
11
0.6874173228346456
21
0.4651574803149606
0
LINE
8
BLACK
6
CONTINUOUS
10
0.6874173228346456
20
0.4651574803149606
11
0.6145826771653543
21
0.4651574803149606
0
LINE
8
BLACK
6
CONTINUOUS
10
0.4573057874015748
20
0.4394920078740157
11
0.4578384645669291
21
0.4389593307086614
0
LINE
8
BLACK
6
CONTINUOUS
10
0.4578384645669291
20
0.4389593307086614
11
0.4579133858267717
21
0.4385826771653543
0
LINE
8
BLACK
6
CONTINUOUS
10
0.4579133858267717
20
0.4385826771653543
11
0.4579133858267717
21
0.3614173228346457
0
LINE
8
BLACK
6
CONTINUOUS
10
0.4579133858267717
20
0.3614173228346457
11
0.4578384645669291
21
0.3610406692913386
0
LINE
8
BLACK
6
CONTINUOUS
10
0.4578384645669291
20
0.3610406692913386
11
0.4573057874015748
21
0.3605079921259842
0
LINE
8
BLACK
6
CONTINUOUS
10
0.4573057874015748
20
0.3605079921259842
11
0.4569291338582677
21
0.3604330708661417
0
LINE
8
BLACK
6
CONTINUOUS
10
0.4569291338582677
20
0.3604330708661417
11
0.3230708661417322
21
0.3604330708661417
0
LINE
8
BLACK
6
CONTINUOUS
10
0.3230708661417322
20
0.3604330708661417
11
0.3226942125984252
21
0.3605079921259842
0
LINE
8
BLACK
6
CONTINUOUS
10
0.3226942125984252
20
0.3605079921259842
11
0.3221615354330709
21
0.3610406692913386
0
LINE
8
BLACK
6
CONTINUOUS
10
0.3221615354330709
20
0.3610406692913386
11
0.3220866141732283
21
0.3614173228346457
0
LINE
8
BLACK
6
CONTINUOUS
10
0.3220866141732283
20
0.3614173228346457
11
0.3220866141732283
21
0.4385826771653543
0
LINE
8
BLACK
6
CONTINUOUS
10
0.3220866141732283
20
0.4385826771653543
11
0.3221615354330709
21
0.4389593307086614
0
LINE
8
BLACK
6
CONTINUOUS
10
0.3221615354330709
20
0.4389593307086614
11
0.3226942125984252
21
0.4394920078740157
0
LINE
8
BLACK
6
CONTINUOUS
10
0.3226942125984252
20
0.4394920078740157
11
0.3230708661417322
21
0.4395669291338583
0
LINE
8
BLACK
6
CONTINUOUS
10
0.3230708661417322
20
0.4395669291338583
11
0.4569291338582677
21
0.4395669291338583
0
LINE
8
BLACK
6
CONTINUOUS
10
0.4569291338582677
20
0.4395669291338583
11
0.4573057874015748
21
0.4394920078740157
0
LINE
8
BLACK
6
CONTINUOUS
10
0.3240551181102362
20
0.4375984251968504
11
0.3240551181102362
21
0.3624015748031496
0
LINE
8
BLACK
6
CONTINUOUS
10
0.3240551181102362
20
0.3624015748031496
11
0.4559448818897638
21
0.3624015748031496
0
LINE
8
BLACK
6
CONTINUOUS
10
0.4559448818897638
20
0.3624015748031496
11
0.4559448818897638
21
0.4375984251968504
0
LINE
8
BLACK
6
CONTINUOUS
10
0.4559448818897638
20
0.4375984251968504
11
0.3240551181102362
21
0.4375984251968504
0
LINE
8
BLACK
6
CONTINUOUS
10
0.3292742913385827
20
0.7387046062992125
11
0.329806968503937
21
0.7381719291338582
0
LINE
8
BLACK
6
CONTINUOUS
10
0.329806968503937
20
0.7381719291338582
11
0.3298818897637795
21
0.7377952755905511
0
LINE
8
BLACK
6
CONTINUOUS
10
0.3298818897637795
20
0.7377952755905511
11
0.3298818897637795
21
0.4622047244094488
0
LINE
8
BLACK
6
CONTINUOUS
10
0.3298818897637795
20
0.4622047244094488
11
0.329806968503937
21
0.4618280708661417
0
LINE
8
BLACK
6
CONTINUOUS
10
0.329806968503937
20
0.4618280708661417
11
0.3292742913385827
21
0.4612953937007874
0
LINE
8
BLACK
6
CONTINUOUS
10
0.3292742913385827
20
0.4612953937007874
11
0.3288976377952756
21
0.4612204724409449
0
LINE
8
BLACK
6
CONTINUOUS
10
0.3288976377952756
20
0.4612204724409449
11
0.1911023622047244
21
0.4612204724409449
0
LINE
8
BLACK
6
CONTINUOUS
10
0.1911023622047244
20
0.4612204724409449
11
0.1907257086614173
21
0.4612953937007874
0
LINE
8
BLACK
6
CONTINUOUS
10
0.1907257086614173
20
0.4612953937007874
11
0.190193031496063
21
0.4618280708661417
0
LINE
8
BLACK
6
CONTINUOUS
10
0.190193031496063
20
0.4618280708661417
11
0.1901181102362205
21
0.4622047244094488
0
LINE
8
BLACK
6
CONTINUOUS
10
0.1901181102362205
20
0.4622047244094488
11
0.1901181102362205
21
0.7377952755905511
0
LINE
8
BLACK
6
CONTINUOUS
10
0.1901181102362205
20
0.7377952755905511
11
0.190193031496063
21
0.7381719291338582
0
LINE
8
BLACK
6
CONTINUOUS
10
0.190193031496063
20
0.7381719291338582
11
0.1907257086614173
21
0.7387046062992125
0
LINE
8
BLACK
6
CONTINUOUS
10
0.1907257086614173
20
0.7387046062992125
11
0.1911023622047244
21
0.7387795275590551
0
LINE
8
BLACK
6
CONTINUOUS
10
0.1911023622047244
20
0.7387795275590551
11
0.3288976377952756
21
0.7387795275590551
0
LINE
8
BLACK
6
CONTINUOUS
10
0.3288976377952756
20
0.7387795275590551
11
0.3292742913385827
21
0.7387046062992125
0
LINE
8
BLACK
6
CONTINUOUS
10
0.1920866141732283
20
0.7368110236220472
11
0.1920866141732283
21
0.4631889763779528
0
LINE
8
BLACK
6
CONTINUOUS
10
0.1920866141732283
20
0.4631889763779528
11
0.3279133858267717
21
0.4631889763779528
0
LINE
8
BLACK
6
CONTINUOUS
10
0.3279133858267717
20
0.4631889763779528
11
0.3279133858267717
21
0.7368110236220472
0
LINE
8
BLACK
6
CONTINUOUS
10
0.3279133858267717
20
0.7368110236220472
11
0.1920866141732283
21
0.7368110236220472
0
LINE
8
BLACK
6
CONTINUOUS
10
0.6489593307086614
20
0.6278384645669292
11
0.6494920078740157
21
0.6273057874015748
0
LINE
8
BLACK
6
CONTINUOUS
10
0.6494920078740157
20
0.6273057874015748
11
0.6495669291338583
21
0.6269291338582677
0
LINE
8
BLACK
6
CONTINUOUS
10
0.6495669291338583
20
0.6269291338582677
11
0.6495669291338583
21
0.4930708661417323
0
LINE
8
BLACK
6
CONTINUOUS
10
0.6495669291338583
20
0.4930708661417323
11
0.6494920078740157
21
0.4926942125984252
0
LINE
8
BLACK
6
CONTINUOUS
10
0.6494920078740157
20
0.4926942125984252
11
0.6489593307086614
21
0.4921615354330708
0
LINE
8
BLACK
6
CONTINUOUS
10
0.6489593307086614
20
0.4921615354330708
11
0.6485826771653543
21
0.4920866141732284
0
LINE
8
BLACK
6
CONTINUOUS
10
0.6485826771653543
20
0.4920866141732284
11
0.5714173228346456
21
0.4920866141732284
0
LINE
8
BLACK
6
CONTINUOUS
10
0.5714173228346456
20
0.4920866141732284
11
0.5710406692913386
21
0.4921615354330708
0
LINE
8
BLACK
6
CONTINUOUS
10
0.5710406692913386
20
0.4921615354330708
11
0.5705079921259842
21
0.4926942125984252
0
LINE
8
BLACK
6
CONTINUOUS
10
0.5705079921259842
20
0.4926942125984252
11
0.5704330708661417
21
0.4930708661417323
0
LINE
8
BLACK
6
CONTINUOUS
10
0.5704330708661417
20
0.4930708661417323
11
0.5704330708661417
21
0.6269291338582677
0
LINE
8
BLACK
6
CONTINUOUS
10
0.5704330708661417
20
0.6269291338582677
11
0.5705079921259842
21
0.6273057874015748
0
LINE
8
BLACK
6
CONTINUOUS
10
0.5705079921259842
20
0.6273057874015748
11
0.5710406692913386
21
0.6278384645669292
0
LINE
8
BLACK
6
CONTINUOUS
10
0.5710406692913386
20
0.6278384645669292
11
0.5714173228346456
21
0.6279133858267716
0
LINE
8
BLACK
6
CONTINUOUS
10
0.5714173228346456
20
0.6279133858267716
11
0.6485826771653543
21
0.6279133858267716
0
LINE
8
BLACK
6
CONTINUOUS
10
0.6485826771653543
20
0.6279133858267716
11
0.6489593307086614
21
0.6278384645669292
0
LINE
8
BLACK
6
CONTINUOUS
10
0.5724015748031496
20
0.6259448818897637
11
0.5724015748031496
21
0.4940551181102362
0
LINE
8
BLACK
6
CONTINUOUS
10
0.5724015748031496
20
0.4940551181102362
11
0.6475984251968504
21
0.4940551181102362
0
LINE
8
BLACK
6
CONTINUOUS
10
0.6475984251968504
20
0.4940551181102362
11
0.6475984251968504
21
0.6259448818897637
0
LINE
8
BLACK
6
CONTINUOUS
10
0.6475984251968504
20
0.6259448818897637
11
0.5724015748031496
21
0.6259448818897637
0
LINE
8
BLACK
6
CONTINUOUS
10
0.6887782283464566
20
0.867051062992126
11
0.689310905511811
21
0.8665183858267717
0
LINE
8
BLACK
6
CONTINUOUS
10
0.689310905511811
20
0.8665183858267717
11
0.6893858267716535
21
0.8661417322834646
0
LINE
8
BLACK
6
CONTINUOUS
10
0.6893858267716535
20
0.8661417322834646
11
0.6893858267716535
21
0.7338582677165354
0
LINE
8
BLACK
6
CONTINUOUS
10
0.6893858267716535
20
0.7338582677165354
11
0.689310905511811
21
0.7334816141732283
0
LINE
8
BLACK
6
CONTINUOUS
10
0.689310905511811
20
0.7334816141732283
11
0.6887782283464566
21
0.732948937007874
0
LINE
8
BLACK
6
CONTINUOUS
10
0.6887782283464566
20
0.732948937007874
11
0.6884015748031496
21
0.7328740157480315
0
LINE
8
BLACK
6
CONTINUOUS
10
0.6884015748031496
20
0.7328740157480315
11
0.6135984251968504
21
0.7328740157480315
0
LINE
8
BLACK
6
CONTINUOUS
10
0.6135984251968504
20
0.7328740157480315
11
0.6132217716535433
21
0.732948937007874
0
LINE
8
BLACK
6
CONTINUOUS
10
0.6132217716535433
20
0.732948937007874
11
0.612689094488189
21
0.7334816141732283
0
LINE
8
BLACK
6
CONTINUOUS
10
0.612689094488189
20
0.7334816141732283
11
0.6126141732283464
21
0.7338582677165354
0
LINE
8
BLACK
6
CONTINUOUS
10
0.6126141732283464
20
0.7338582677165354
11
0.6126141732283464
21
0.8661417322834646
0
LINE
8
BLACK
6
CONTINUOUS
10
0.6126141732283464
20
0.8661417322834646
11
0.612689094488189
21
0.8665183858267717
0
LINE
8
BLACK
6
CONTINUOUS
10
0.612689094488189
20
0.8665183858267717
11
0.6132217716535433
21
0.867051062992126
0
LINE
8
BLACK
6
CONTINUOUS
10
0.6132217716535433
20
0.867051062992126
11
0.6135984251968504
21
0.8671259842519685
0
LINE
8
BLACK
6
CONTINUOUS
10
0.6135984251968504
20
0.8671259842519685
11
0.6884015748031496
21
0.8671259842519685
0
LINE
8
BLACK
6
CONTINUOUS
10
0.6884015748031496
20
0.8671259842519685
11
0.6887782283464566
21
0.867051062992126
0
LINE
8
BLACK
6
CONTINUOUS
10
0.6145826771653543
20
0.8651574803149606
11
0.6145826771653543
21
0.7348425196850393
0
LINE
8
BLACK
6
CONTINUOUS
10
0.6145826771653543
20
0.7348425196850393
11
0.6874173228346456
21
0.7348425196850393
0
LINE
8
BLACK
6
CONTINUOUS
10
0.6874173228346456
20
0.7348425196850393
11
0.6874173228346456
21
0.8651574803149606
0
LINE
8
BLACK
6
CONTINUOUS
10
0.6874173228346456
20
0.8651574803149606
11
0.6145826771653543
21
0.8651574803149606
0
LINE
8
BLACK
6
CONTINUOUS
10
0.3773057874015748
20
0.8494920078740157
11
0.3778384645669291
21
0.8489593307086614
0
LINE
8
BLACK
6
CONTINUOUS
10
0.3778384645669291
20
0.8489593307086614
11
0.3779133858267716
21
0.8485826771653543
0
LINE
8
BLACK
6
CONTINUOUS
10
0.3779133858267716
20
0.8485826771653543
11
0.3779133858267716
21
0.7714173228346457
0
LINE
8
BLACK
6
CONTINUOUS
10
0.3779133858267716
20
0.7714173228346457
11
0.3778384645669291
21
0.7710406692913385
0
LINE
8
BLACK
6
CONTINUOUS
10
0.3778384645669291
20
0.7710406692913385
11
0.3773057874015748
21
0.7705079921259842
0
LINE
8
BLACK
6
CONTINUOUS
10
0.3773057874015748
20
0.7705079921259842
11
0.3769291338582677
21
0.7704330708661418
0
LINE
8
BLACK
6
CONTINUOUS
10
0.3769291338582677
20
0.7704330708661418
11
0.2430708661417323
21
0.7704330708661418
0
LINE
8
BLACK
6
CONTINUOUS
10
0.2430708661417323
20
0.7704330708661418
11
0.2426942125984252
21
0.7705079921259842
0
LINE
8
BLACK
6
CONTINUOUS
10
0.2426942125984252
20
0.7705079921259842
11
0.2421615354330709
21
0.7710406692913385
0
LINE
8
BLACK
6
CONTINUOUS
10
0.2421615354330709
20
0.7710406692913385
11
0.2420866141732284
21
0.7714173228346457
0
LINE
8
BLACK
6
CONTINUOUS
10
0.2420866141732284
20
0.7714173228346457
11
0.2420866141732284
21
0.8485826771653543
0
LINE
8
BLACK
6
CONTINUOUS
10
0.2420866141732284
20
0.8485826771653543
11
0.2421615354330709
21
0.8489593307086614
0
LINE
8
BLACK
6
CONTINUOUS
10
0.2421615354330709
20
0.8489593307086614
11
0.2426942125984252
21
0.8494920078740157
0
LINE
8
BLACK
6
CONTINUOUS
10
0.2426942125984252
20
0.8494920078740157
11
0.2430708661417323
21
0.8495669291338582
0
LINE
8
BLACK
6
CONTINUOUS
10
0.2430708661417323
20
0.8495669291338582
11
0.3769291338582677
21
0.8495669291338582
0
LINE
8
BLACK
6
CONTINUOUS
10
0.3769291338582677
20
0.8495669291338582
11
0.3773057874015748
21
0.8494920078740157
0
LINE
8
BLACK
6
CONTINUOUS
10
0.2440551181102362
20
0.8475984251968504
11
0.2440551181102362
21
0.7724015748031496
0
LINE
8
BLACK
6
CONTINUOUS
10
0.2440551181102362
20
0.7724015748031496
11
0.3759448818897638
21
0.7724015748031496
0
LINE
8
BLACK
6
CONTINUOUS
10
0.3759448818897638
20
0.7724015748031496
11
0.3759448818897638
21
0.8475984251968504
0
LINE
8
BLACK
6
CONTINUOUS
10
0.3759448818897638
20
0.8475984251968504
11
0.2440551181102362
21
0.8475984251968504
0
LINE
8
BLACK
6
CONTINUOUS
10
0.5173057874015748
20
0.8494920078740157
11
0.5178384645669292
21
0.8489593307086614
0
LINE
8
BLACK
6
CONTINUOUS
10
0.5178384645669292
20
0.8489593307086614
11
0.5179133858267716
21
0.8485826771653543
0
LINE
8
BLACK
6
CONTINUOUS
10
0.5179133858267716
20
0.8485826771653543
11
0.5179133858267716
21
0.7714173228346457
0
LINE
8
BLACK
6
CONTINUOUS
10
0.5179133858267716
20
0.7714173228346457
11
0.5178384645669292
21
0.7710406692913385
0
LINE
8
BLACK
6
CONTINUOUS
10
0.5178384645669292
20
0.7710406692913385
11
0.5173057874015748
21
0.7705079921259842
0
LINE
8
BLACK
6
CONTINUOUS
10
0.5173057874015748
20
0.7705079921259842
11
0.5169291338582677
21
0.7704330708661418
0
LINE
8
BLACK
6
CONTINUOUS
10
0.5169291338582677
20
0.7704330708661418
11
0.3830708661417323
21
0.7704330708661418
0
LINE
8
BLACK
6
CONTINUOUS
10
0.3830708661417323
20
0.7704330708661418
11
0.3826942125984252
21
0.7705079921259842
0
LINE
8
BLACK
6
CONTINUOUS
10
0.3826942125984252
20
0.7705079921259842
11
0.3821615354330709
21
0.7710406692913385
0
LINE
8
BLACK
6
CONTINUOUS
10
0.3821615354330709
20
0.7710406692913385
11
0.3820866141732283
21
0.7714173228346457
0
LINE
8
BLACK
6
CONTINUOUS
10
0.3820866141732283
20
0.7714173228346457
11
0.3820866141732283
21
0.8485826771653543
0
LINE
8
BLACK
6
CONTINUOUS
10
0.3820866141732283
20
0.8485826771653543
11
0.3821615354330709
21
0.8489593307086614
0
LINE
8
BLACK
6
CONTINUOUS
10
0.3821615354330709
20
0.8489593307086614
11
0.3826942125984252
21
0.8494920078740157
0
LINE
8
BLACK
6
CONTINUOUS
10
0.3826942125984252
20
0.8494920078740157
11
0.3830708661417323
21
0.8495669291338582
0
LINE
8
BLACK
6
CONTINUOUS
10
0.3830708661417323
20
0.8495669291338582
11
0.5169291338582677
21
0.8495669291338582
0
LINE
8
BLACK
6
CONTINUOUS
10
0.5169291338582677
20
0.8495669291338582
11
0.5173057874015748
21
0.8494920078740157
0
LINE
8
BLACK
6
CONTINUOUS
10
0.3840551181102362
20
0.8475984251968504
11
0.3840551181102362
21
0.7724015748031496
0
LINE
8
BLACK
6
CONTINUOUS
10
0.3840551181102362
20
0.7724015748031496
11
0.5159448818897637
21
0.7724015748031496
0
LINE
8
BLACK
6
CONTINUOUS
10
0.5159448818897637
20
0.7724015748031496
11
0.5159448818897637
21
0.8475984251968504
0
LINE
8
BLACK
6
CONTINUOUS
10
0.5159448818897637
20
0.8475984251968504
11
0.3840551181102362
21
0.8475984251968504
0
LINE
8
BLACK
6
CONTINUOUS
10
0.3644317716535433
20
1.0216179921259843
11
0.3649644488188976
21
1.0210853149606298
0
LINE
8
BLACK
6
CONTINUOUS
10
0.3649644488188976
20
1.0210853149606298
11
0.3650393700787402
21
1.0207086614173229
0
LINE
8
BLACK
6
CONTINUOUS
10
0.3650393700787402
20
1.0207086614173229
11
0.3650393700787402
21
0.982322874015748
0
LINE
8
BLACK
6
CONTINUOUS
10
0.3650393700787402
20
0.982322874015748
11
0.3719291338582677
21
0.982322874015748
0
LINE
8
BLACK
6
CONTINUOUS
10
0.3719291338582677
20
0.982322874015748
11
0.3723057874015748
21
0.9822479527559055
0
LINE
8
BLACK
6
CONTINUOUS
10
0.3723057874015748
20
0.9822479527559055
11
0.3728384645669292
21
0.9817152755905512
0
LINE
8
BLACK
6
CONTINUOUS
10
0.3728384645669292
20
0.9817152755905512
11
0.3729133858267716
21
0.9813386220472441
0
LINE
8
BLACK
6
CONTINUOUS
10
0.3729133858267716
20
0.9813386220472441
11
0.3729133858267716
21
0.8986613779527559
0
LINE
8
BLACK
6
CONTINUOUS
10
0.3729133858267716
20
0.8986613779527559
11
0.3728384645669292
21
0.8982847637795275
0
LINE
8
BLACK
6
CONTINUOUS
10
0.3728384645669292
20
0.8982847637795275
11
0.3728384645669292
21
0.8982847244094488
0
LINE
8
BLACK
6
CONTINUOUS
10
0.3728384645669292
20
0.8982847244094488
11
0.3723057874015748
21
0.8977520472440945
0
LINE
8
BLACK
6
CONTINUOUS
10
0.3723057874015748
20
0.8977520472440945
11
0.3719291338582677
21
0.897677125984252
0
LINE
8
BLACK
6
CONTINUOUS
10
0.3719291338582677
20
0.897677125984252
11
0.3650393700787402
21
0.8976771653543307
0
LINE
8
BLACK
6
CONTINUOUS
10
0.3650393700787402
20
0.8976771653543307
11
0.3650393700787402
21
0.8592913385826771
0
LINE
8
BLACK
6
CONTINUOUS
10
0.3650393700787402
20
0.8592913385826771
11
0.3649644488188976
21
0.8589146850393701
0
LINE
8
BLACK
6
CONTINUOUS
10
0.3649644488188976
20
0.8589146850393701
11
0.3644317716535433
21
0.8583820078740158
0
LINE
8
BLACK
6
CONTINUOUS
10
0.3644317716535433
20
0.8583820078740158
11
0.3640551181102362
21
0.8583070866141732
0
LINE
8
BLACK
6
CONTINUOUS
10
0.3640551181102362
20
0.8583070866141732
11
0.2459448818897638
21
0.8583070866141732
0
LINE
8
BLACK
6
CONTINUOUS
10
0.2459448818897638
20
0.8583070866141732
11
0.2455682283464567
21
0.8583820078740158
0
LINE
8
BLACK
6
CONTINUOUS
10
0.2455682283464567
20
0.8583820078740158
11
0.2450355511811023
21
0.8589146850393701
0
LINE
8
BLACK
6
CONTINUOUS
10
0.2450355511811023
20
0.8589146850393701
11
0.2449606299212598
21
0.8592913385826771
0
LINE
8
BLACK
6
CONTINUOUS
10
0.2449606299212598
20
0.8592913385826771
11
0.2449606299212598
21
0.8976771653543307
0
LINE
8
BLACK
6
CONTINUOUS
10
0.2449606299212598
20
0.8976771653543307
11
0.2380708661417323
21
0.897677125984252
0
LINE
8
BLACK
6
CONTINUOUS
10
0.2380708661417323
20
0.897677125984252
11
0.2376942125984252
21
0.8977520472440945
0
LINE
8
BLACK
6
CONTINUOUS
10
0.2376942125984252
20
0.8977520472440945
11
0.2371615354330709
21
0.8982847244094488
0
LINE
8
BLACK
6
CONTINUOUS
10
0.2371615354330709
20
0.8982847244094488
11
0.2371615354330709
21
0.8982847637795275
0
LINE
8
BLACK
6
CONTINUOUS
10
0.2371615354330709
20
0.8982847637795275
11
0.2370866141732283
21
0.8986613779527559
0
LINE
8
BLACK
6
CONTINUOUS
10
0.2370866141732283
20
0.8986613779527559
11
0.2370866141732283
21
0.9813386220472441
0
LINE
8
BLACK
6
CONTINUOUS
10
0.2370866141732283
20
0.9813386220472441
11
0.2371615354330709
21
0.9817152755905512
0
LINE
8
BLACK
6
CONTINUOUS
10
0.2371615354330709
20
0.9817152755905512
11
0.2376942125984252
21
0.9822479527559055
0
LINE
8
BLACK
6
CONTINUOUS
10
0.2376942125984252
20
0.9822479527559055
11
0.2380708661417323
21
0.982322874015748
0
LINE
8
BLACK
6
CONTINUOUS
10
0.2380708661417323
20
0.982322874015748
11
0.2449606299212598
21
0.982322874015748
0
LINE
8
BLACK
6
CONTINUOUS
10
0.2449606299212598
20
0.982322874015748
11
0.2449606299212598
21
1.0207086614173229
0
LINE
8
BLACK
6
CONTINUOUS
10
0.2449606299212598
20
1.0207086614173229
11
0.2450355511811023
21
1.0210853149606298
0
LINE
8
BLACK
6
CONTINUOUS
10
0.2450355511811023
20
1.0210853149606298
11
0.2455682283464567
21
1.0216179921259843
0
LINE
8
BLACK
6
CONTINUOUS
10
0.2455682283464567
20
1.0216179921259843
11
0.2459448818897638
21
1.0216929133858268
0
LINE
8
BLACK
6
CONTINUOUS
10
0.2459448818897638
20
1.0216929133858268
11
0.3640551181102362
21
1.0216929133858268
0
LINE
8
BLACK
6
CONTINUOUS
10
0.3640551181102362
20
1.0216929133858268
11
0.3644317716535433
21
1.0216179921259843
0
LINE
8
BLACK
6
CONTINUOUS
10
0.2469291338582677
20
1.0197244094488189
11
0.2469291338582677
21
0.9813385826771653
0
LINE
8
BLACK
6
CONTINUOUS
10
0.2469291338582677
20
0.9813385826771653
11
0.2468542125984252
21
0.980961968503937
0
LINE
8
BLACK
6
CONTINUOUS
10
0.2468542125984252
20
0.980961968503937
11
0.2468542125984252
21
0.9809619291338583
0
LINE
8
BLACK
6
CONTINUOUS
10
0.2468542125984252
20
0.9809619291338583
11
0.2463215354330709
21
0.9804292519685039
0
LINE
8
BLACK
6
CONTINUOUS
10
0.2463215354330709
20
0.9804292519685039
11
0.2459448818897638
21
0.9803543307086614
0
LINE
8
BLACK
6
CONTINUOUS
10
0.2459448818897638
20
0.9803543307086614
11
0.2390551181102362
21
0.9803543700787402
0
LINE
8
BLACK
6
CONTINUOUS
10
0.2390551181102362
20
0.9803543700787402
11
0.2390551181102362
21
0.8996456692913386
0
LINE
8
BLACK
6
CONTINUOUS
10
0.2390551181102362
20
0.8996456692913386
11
0.2459448818897638
21
0.8996456692913386
0
LINE
8
BLACK
6
CONTINUOUS
10
0.2459448818897638
20
0.8996456692913386
11
0.2463215354330709
21
0.8995707480314961
0
LINE
8
BLACK
6
CONTINUOUS
10
0.2463215354330709
20
0.8995707480314961
11
0.2468542125984252
21
0.8990380708661417
0
LINE
8
BLACK
6
CONTINUOUS
10
0.2468542125984252
20
0.8990380708661417
11
0.2469291338582677
21
0.8986614173228347
0
LINE
8
BLACK
6
CONTINUOUS
10
0.2469291338582677
20
0.8986614173228347
11
0.2469291338582677
21
0.8602755905511811
0
LINE
8
BLACK
6
CONTINUOUS
10
0.2469291338582677
20
0.8602755905511811
11
0.3630708661417323
21
0.8602755905511811
0
LINE
8
BLACK
6
CONTINUOUS
10
0.3630708661417323
20
0.8602755905511811
11
0.3630708661417323
21
0.8986614173228347
0
LINE
8
BLACK
6
CONTINUOUS
10
0.3630708661417323
20
0.8986614173228347
11
0.3631457874015748
21
0.8990380708661417
0
LINE
8
BLACK
6
CONTINUOUS
10
0.3631457874015748
20
0.8990380708661417
11
0.3636784645669291
21
0.8995707480314961
0
LINE
8
BLACK
6
CONTINUOUS
10
0.3636784645669291
20
0.8995707480314961
11
0.3640551181102362
21
0.8996456692913386
0
LINE
8
BLACK
6
CONTINUOUS
10
0.3640551181102362
20
0.8996456692913386
11
0.3709448818897638
21
0.8996456692913386
0
LINE
8
BLACK
6
CONTINUOUS
10
0.3709448818897638
20
0.8996456692913386
11
0.3709448818897638
21
0.9803543700787402
0
LINE
8
BLACK
6
CONTINUOUS
10
0.3709448818897638
20
0.9803543700787402
11
0.3640551181102362
21
0.9803543307086614
0
LINE
8
BLACK
6
CONTINUOUS
10
0.3640551181102362
20
0.9803543307086614
11
0.3636784645669291
21
0.9804292519685039
0
LINE
8
BLACK
6
CONTINUOUS
10
0.3636784645669291
20
0.9804292519685039
11
0.3631457874015748
21
0.9809619291338583
0
LINE
8
BLACK
6
CONTINUOUS
10
0.3631457874015748
20
0.9809619291338583
11
0.3631457874015748
21
0.980961968503937
0
LINE
8
BLACK
6
CONTINUOUS
10
0.3631457874015748
20
0.980961968503937
11
0.3630708661417323
21
0.9813385826771653
0
LINE
8
BLACK
6
CONTINUOUS
10
0.3630708661417323
20
0.9813385826771653
11
0.3630708661417323
21
1.0197244094488189
0
LINE
8
BLACK
6
CONTINUOUS
10
0.3630708661417323
20
1.0197244094488189
11
0.2469291338582677
21
1.0197244094488189
0
CIRCLE
8
BLACK
10
0.85
20
0.25
40
0.0068897637795276
0
CIRCLE
8
BLACK
10
0.75
20
0.25
40
0.0068897637795276
0
CIRCLE
8
BLACK
10
0.85
20
0.35
40
0.0068897637795276
0
CIRCLE
8
BLACK
10
0.75
20
0.35
40
0.0068897637795276
0
CIRCLE
8
BLACK
10
0.85
20
0.45
40
0.0068897637795276
0
CIRCLE
8
BLACK
10
0.75
20
0.45
40
0.0068897637795276
0
CIRCLE
8
BLACK
10
0.85
20
0.5499999999999999
40
0.0068897637795276
0
CIRCLE
8
BLACK
10
0.75
20
0.5499999999999999
40
0.0068897637795276
0
CIRCLE
8
BLACK
10
0.
20
1.2
40
0.0068897637795276
0
CIRCLE
8
BLACK
10
0.7999999999999999
20
0.
40
0.0068897637795276
0
CIRCLE
8
BLACK
10
0.85
20
0.65
40
0.0068897637795276
0
CIRCLE
8
BLACK
10
0.75
20
0.65
40
0.0068897637795276
0
CIRCLE
8
BLACK
10
0.85
20
0.75
40
0.0068897637795276
0
CIRCLE
8
BLACK
10
0.75
20
0.75
40
0.0068897637795276
0
CIRCLE
8
BLACK
10
0.85
20
0.85
40
0.0068897637795276
0
CIRCLE
8
BLACK
10
0.75
20
0.85
40
0.0068897637795276
0
CIRCLE
8
BLACK
10
0.85
20
0.95
40
0.0068897637795276
0
CIRCLE
8
BLACK
10
0.75
20
0.95
40
0.0068897637795276
0
CIRCLE
8
BLACK
10
0.4
20
0.
40
0.0068897637795276
0
CIRCLE
8
BLACK
10
0.3
20
0.1
40
0.0068897637795276
0
CIRCLE
8
BLACK
10
0.3
20
-0.1
40
0.0068897637795276
0
CIRCLE
8
BLACK
10
0.5
20
0.1
40
0.0068897637795276
0
CIRCLE
8
BLACK
10
0.5
20
-0.1
40
0.0068897637795276
0
CIRCLE
8
BLACK
10
0.4
20
0.7
40
0.0068897637795276
0
CIRCLE
8
BLACK
10
0.5
20
0.7
40
0.0068897637795276
0
CIRCLE
8
BLACK
10
0.4
20
0.6
40
0.0068897637795276
0
CIRCLE
8
BLACK
10
0.5
20
0.6
40
0.0068897637795276
0
CIRCLE
8
BLACK
10
0.4
20
0.5
40
0.0068897637795276
0
CIRCLE
8
BLACK
10
0.5
20
0.5
40
0.0068897637795276
0
CIRCLE
8
BLACK
10
0.
20
0.7999999999999999
40
0.0068897637795276
0
CIRCLE
8
BLACK
10
-0.1
20
0.9
40
0.0068897637795276
0
CIRCLE
8
BLACK
10
-0.1
20
0.7
40
0.0068897637795276
0
CIRCLE
8
BLACK
10
0.1
20
0.9
40
0.0068897637795276
0
CIRCLE
8
BLACK
10
0.1
20
0.7
40
0.0068897637795276
0
CIRCLE
8
BLACK
10
0.
20
0.
40
0.0068897637795276
0
CIRCLE
8
BLACK
10
0.7999999999999999
20
1.2
40
0.0068897637795276
0
CIRCLE
8
BLACK
10
0.4
20
1.2
40
0.0068897637795276
0
CIRCLE
8
BLACK
10
0.3
20
1.3
40
0.0068897637795276
0
CIRCLE
8
BLACK
10
0.3
20
1.0999999999999999
40
0.0068897637795276
0
CIRCLE
8
BLACK
10
0.5
20
1.3
40
0.0068897637795276
0
CIRCLE
8
BLACK
10
0.5
20
1.0999999999999999
40
0.0068897637795276
0
CIRCLE
8
BLACK
10
0.
20
0.4
40
0.0068897637795276
0
CIRCLE
8
BLACK
10
-0.1
20
0.5
40
0.0068897637795276
0
CIRCLE
8
BLACK
10
-0.1
20
0.3
40
0.0068897637795276
0
CIRCLE
8
BLACK
10
0.1
20
0.5
40
0.0068897637795276
0
CIRCLE
8
BLACK
10
0.1
20
0.3
40
0.0068897637795276
0
CIRCLE
8
BLACK
10
0.85
20
0.25
40
0.0068897637795276
0
CIRCLE
8
BLACK
10
0.75
20
0.25
40
0.0068897637795276
0
CIRCLE
8
BLACK
10
0.85
20
0.35
40
0.0068897637795276
0
CIRCLE
8
BLACK
10
0.75
20
0.35
40
0.0068897637795276
0
CIRCLE
8
BLACK
10
0.85
20
0.45
40
0.0068897637795276
0
CIRCLE
8
BLACK
10
0.75
20
0.45
40
0.0068897637795276
0
CIRCLE
8
BLACK
10
0.85
20
0.5499999999999999
40
0.0068897637795276
0
CIRCLE
8
BLACK
10
0.75
20
0.5499999999999999
40
0.0068897637795276
0
CIRCLE
8
BLACK
10
0.
20
1.2
40
0.0068897637795276
0
CIRCLE
8
BLACK
10
0.7999999999999999
20
0.
40
0.0068897637795276
0
CIRCLE
8
BLACK
10
0.85
20
0.65
40
0.0068897637795276
0
CIRCLE
8
BLACK
10
0.75
20
0.65
40
0.0068897637795276
0
CIRCLE
8
BLACK
10
0.85
20
0.75
40
0.0068897637795276
0
CIRCLE
8
BLACK
10
0.75
20
0.75
40
0.0068897637795276
0
CIRCLE
8
BLACK
10
0.85
20
0.85
40
0.0068897637795276
0
CIRCLE
8
BLACK
10
0.75
20
0.85
40
0.0068897637795276
0
CIRCLE
8
BLACK
10
0.85
20
0.95
40
0.0068897637795276
0
CIRCLE
8
BLACK
10
0.75
20
0.95
40
0.0068897637795276
0
CIRCLE
8
BLACK
10
0.4
20
0.
40
0.0068897637795276
0
CIRCLE
8
BLACK
10
0.3
20
0.1
40
0.0068897637795276
0
CIRCLE
8
BLACK
10
0.3
20
-0.1
40
0.0068897637795276
0
CIRCLE
8
BLACK
10
0.5
20
0.1
40
0.0068897637795276
0
CIRCLE
8
BLACK
10
0.5
20
-0.1
40
0.0068897637795276
0
CIRCLE
8
BLACK
10
0.4
20
0.7
40
0.0068897637795276
0
CIRCLE
8
BLACK
10
0.5
20
0.7
40
0.0068897637795276
0
CIRCLE
8
BLACK
10
0.4
20
0.6
40
0.0068897637795276
0
CIRCLE
8
BLACK
10
0.5
20
0.6
40
0.0068897637795276
0
CIRCLE
8
BLACK
10
0.4
20
0.5
40
0.0068897637795276
0
CIRCLE
8
BLACK
10
0.5
20
0.5
40
0.0068897637795276
0
CIRCLE
8
BLACK
10
0.
20
0.7999999999999999
40
0.0068897637795276
0
CIRCLE
8
BLACK
10
-0.1
20
0.9
40
0.0068897637795276
0
CIRCLE
8
BLACK
10
-0.1
20
0.7
40
0.0068897637795276
0
CIRCLE
8
BLACK
10
0.1
20
0.9
40
0.0068897637795276
0
CIRCLE
8
BLACK
10
0.1
20
0.7
40
0.0068897637795276
0
CIRCLE
8
BLACK
10
0.
20
0.
40
0.0068897637795276
0
CIRCLE
8
BLACK
10
0.7999999999999999
20
1.2
40
0.0068897637795276
0
CIRCLE
8
BLACK
10
0.4
20
1.2
40
0.0068897637795276
0
CIRCLE
8
BLACK
10
0.3
20
1.3
40
0.0068897637795276
0
CIRCLE
8
BLACK
10
0.3
20
1.0999999999999999
40
0.0068897637795276
0
CIRCLE
8
BLACK
10
0.5
20
1.3
40
0.0068897637795276
0
CIRCLE
8
BLACK
10
0.5
20
1.0999999999999999
40
0.0068897637795276
0
CIRCLE
8
BLACK
10
0.
20
0.4
40
0.0068897637795276
0
CIRCLE
8
BLACK
10
-0.1
20
0.5
40
0.0068897637795276
0
CIRCLE
8
BLACK
10
-0.1
20
0.3
40
0.0068897637795276
0
CIRCLE
8
BLACK
10
0.1
20
0.5
40
0.0068897637795276
0
CIRCLE
8
BLACK
10
0.1
20
0.3
40
0.0068897637795276
  0
ENDSEC
  0
EOF
