  0
SECTION
  2
HEADER
  9
$ANGBASE
  50
0.0
  9
$ANGDIR
  70
1
  9
$MEASUREMENT
  70
0
  0
ENDSEC
  0
SECTION
  2
TABLES
  0
TABLE
  2
LTYPE
  70
4
  0
LTYPE
  5
40F
  2
CONTINUOUS
  70
0
  3
Solid line
  72
65
  73
0
  40
0.0
  0
LTYPE
  5
410
  2
DASHDOT
 70
0
  3
Dash Dot ____ _ ____ _
 72
65
 73
4
 40
2.0
 49
1.25
 49
-0.25
 49
0.25
 49
-0.25
  0
LTYPE
  5
411
  2
DASHED
 70
0
  3
Dashed __ __ __ __ __
 72
65
 73
2
 40
0.75
 49
0.5
 49
-0.25
  0
LTYPE
  5
43B
  2
DOTTED
 70
0
  3
Dotted .  .  .  .
 72
65
 73
2
 40
0.2
 49
0.0
 49
-0.2
  0
ENDTAB
  0
TABLE
  2
STYLE
  70
4
  0
STYLE
  2
KICAD
  70
0
  40
0
  41
1
  42
1
  50
0
  71
0
  3
isocp.shx
  0
STYLE
  2
KICADB
  70
0
  40
0
  41
1
  42
1
  50
0
  71
0
  3
isocp.shx
  0
STYLE
  2
KICADI
  70
0
  40
0
  41
1
  42
1
  50
15
  71
0
  3
isocp.shx
  0
STYLE
  2
KICADBI
  70
0
  40
0
  41
1
  42
1
  50
15
  71
0
  3
isocp.shx
  0
ENDTAB
  0
TABLE
  2
LAYER
  70
1
  0
LAYER
  2
BLACK
  70
0
  62
7
  6
CONTINUOUS
  0
ENDTAB
  0
ENDSEC
  0
SECTION
  2
ENTITIES
0
LINE
8
BLACK
6
CONTINUOUS
10
0.309229
20
-0.0476579
11
0.318178
21
-0.0500557
0
LINE
8
BLACK
6
CONTINUOUS
10
0.318178
20
-0.0500557
11
0.326575
21
-0.0539711
0
LINE
8
BLACK
6
CONTINUOUS
10
0.326575
20
-0.0539711
11
0.334164
21
-0.059285
0
LINE
8
BLACK
6
CONTINUOUS
10
0.334164
20
-0.059285
11
0.340715
21
-0.0658361
0
LINE
8
BLACK
6
CONTINUOUS
10
0.340715
20
-0.0658361
11
0.346029
21
-0.0734252
0
LINE
8
BLACK
6
CONTINUOUS
10
0.346029
20
-0.0734252
11
0.349944
21
-0.0818218
0
LINE
8
BLACK
6
CONTINUOUS
10
0.349944
20
-0.0818218
11
0.352342
21
-0.0907707
0
LINE
8
BLACK
6
CONTINUOUS
10
0.352342
20
-0.0907707
11
0.35315
21
-0.1
0
LINE
8
BLACK
6
CONTINUOUS
10
0.35315
20
-0.1
11
0.352342
21
-0.109229
0
LINE
8
BLACK
6
CONTINUOUS
10
0.352342
20
-0.109229
11
0.349944
21
-0.118178
0
LINE
8
BLACK
6
CONTINUOUS
10
0.349944
20
-0.118178
11
0.346029
21
-0.126575
0
LINE
8
BLACK
6
CONTINUOUS
10
0.346029
20
-0.126575
11
0.340715
21
-0.134164
0
LINE
8
BLACK
6
CONTINUOUS
10
0.340715
20
-0.134164
11
0.334164
21
-0.140715
0
LINE
8
BLACK
6
CONTINUOUS
10
0.334164
20
-0.140715
11
0.326575
21
-0.146029
0
LINE
8
BLACK
6
CONTINUOUS
10
0.326575
20
-0.146029
11
0.318178
21
-0.149944
0
LINE
8
BLACK
6
CONTINUOUS
10
0.318178
20
-0.149944
11
0.309229
21
-0.152342
0
LINE
8
BLACK
6
CONTINUOUS
10
0.309229
20
-0.152342
11
0.3
21
-0.15315
0
LINE
8
BLACK
6
CONTINUOUS
10
0.3
20
-0.15315
11
0.290771
21
-0.152342
0
LINE
8
BLACK
6
CONTINUOUS
10
0.290771
20
-0.152342
11
0.281822
21
-0.149944
0
LINE
8
BLACK
6
CONTINUOUS
10
0.281822
20
-0.149944
11
0.273425
21
-0.146029
0
LINE
8
BLACK
6
CONTINUOUS
10
0.273425
20
-0.146029
11
0.265836
21
-0.140715
0
LINE
8
BLACK
6
CONTINUOUS
10
0.265836
20
-0.140715
11
0.259285
21
-0.134164
0
LINE
8
BLACK
6
CONTINUOUS
10
0.259285
20
-0.134164
11
0.253971
21
-0.126575
0
LINE
8
BLACK
6
CONTINUOUS
10
0.253971
20
-0.126575
11
0.250056
21
-0.118178
0
LINE
8
BLACK
6
CONTINUOUS
10
0.250056
20
-0.118178
11
0.247658
21
-0.109229
0
LINE
8
BLACK
6
CONTINUOUS
10
0.247658
20
-0.109229
11
0.24685
21
-0.1
0
LINE
8
BLACK
6
CONTINUOUS
10
0.24685
20
-0.1
11
0.247658
21
-0.0907707
0
LINE
8
BLACK
6
CONTINUOUS
10
0.247658
20
-0.0907707
11
0.250056
21
-0.0818218
0
LINE
8
BLACK
6
CONTINUOUS
10
0.250056
20
-0.0818218
11
0.253971
21
-0.0734252
0
LINE
8
BLACK
6
CONTINUOUS
10
0.253971
20
-0.0734252
11
0.259285
21
-0.0658361
0
LINE
8
BLACK
6
CONTINUOUS
10
0.259285
20
-0.0658361
11
0.265836
21
-0.059285
0
LINE
8
BLACK
6
CONTINUOUS
10
0.265836
20
-0.059285
11
0.273425
21
-0.0539711
0
LINE
8
BLACK
6
CONTINUOUS
10
0.273425
20
-0.0539711
11
0.281822
21
-0.0500557
0
LINE
8
BLACK
6
CONTINUOUS
10
0.281822
20
-0.0500557
11
0.290771
21
-0.0476579
0
LINE
8
BLACK
6
CONTINUOUS
10
0.290771
20
-0.0476579
11
0.3
21
-0.0468504
0
LINE
8
BLACK
6
CONTINUOUS
10
0.3
20
-0.0468504
11
0.309229
21
-0.0476579
0
LINE
8
BLACK
6
CONTINUOUS
10
0.509229
20
-0.0476579
11
0.518178
21
-0.0500557
0
LINE
8
BLACK
6
CONTINUOUS
10
0.518178
20
-0.0500557
11
0.526575
21
-0.0539711
0
LINE
8
BLACK
6
CONTINUOUS
10
0.526575
20
-0.0539711
11
0.534164
21
-0.059285
0
LINE
8
BLACK
6
CONTINUOUS
10
0.534164
20
-0.059285
11
0.540715
21
-0.0658361
0
LINE
8
BLACK
6
CONTINUOUS
10
0.540715
20
-0.0658361
11
0.546029
21
-0.0734252
0
LINE
8
BLACK
6
CONTINUOUS
10
0.546029
20
-0.0734252
11
0.549944
21
-0.0818218
0
LINE
8
BLACK
6
CONTINUOUS
10
0.549944
20
-0.0818218
11
0.552342
21
-0.0907707
0
LINE
8
BLACK
6
CONTINUOUS
10
0.552342
20
-0.0907707
11
0.55315
21
-0.1
0
LINE
8
BLACK
6
CONTINUOUS
10
0.55315
20
-0.1
11
0.552342
21
-0.109229
0
LINE
8
BLACK
6
CONTINUOUS
10
0.552342
20
-0.109229
11
0.549944
21
-0.118178
0
LINE
8
BLACK
6
CONTINUOUS
10
0.549944
20
-0.118178
11
0.546029
21
-0.126575
0
LINE
8
BLACK
6
CONTINUOUS
10
0.546029
20
-0.126575
11
0.540715
21
-0.134164
0
LINE
8
BLACK
6
CONTINUOUS
10
0.540715
20
-0.134164
11
0.534164
21
-0.140715
0
LINE
8
BLACK
6
CONTINUOUS
10
0.534164
20
-0.140715
11
0.526575
21
-0.146029
0
LINE
8
BLACK
6
CONTINUOUS
10
0.526575
20
-0.146029
11
0.518178
21
-0.149944
0
LINE
8
BLACK
6
CONTINUOUS
10
0.518178
20
-0.149944
11
0.509229
21
-0.152342
0
LINE
8
BLACK
6
CONTINUOUS
10
0.509229
20
-0.152342
11
0.5
21
-0.15315
0
LINE
8
BLACK
6
CONTINUOUS
10
0.5
20
-0.15315
11
0.490771
21
-0.152342
0
LINE
8
BLACK
6
CONTINUOUS
10
0.490771
20
-0.152342
11
0.481822
21
-0.149944
0
LINE
8
BLACK
6
CONTINUOUS
10
0.481822
20
-0.149944
11
0.473425
21
-0.146029
0
LINE
8
BLACK
6
CONTINUOUS
10
0.473425
20
-0.146029
11
0.465836
21
-0.140715
0
LINE
8
BLACK
6
CONTINUOUS
10
0.465836
20
-0.140715
11
0.459285
21
-0.134164
0
LINE
8
BLACK
6
CONTINUOUS
10
0.459285
20
-0.134164
11
0.453971
21
-0.126575
0
LINE
8
BLACK
6
CONTINUOUS
10
0.453971
20
-0.126575
11
0.450056
21
-0.118178
0
LINE
8
BLACK
6
CONTINUOUS
10
0.450056
20
-0.118178
11
0.447658
21
-0.109229
0
LINE
8
BLACK
6
CONTINUOUS
10
0.447658
20
-0.109229
11
0.44685
21
-0.1
0
LINE
8
BLACK
6
CONTINUOUS
10
0.44685
20
-0.1
11
0.447658
21
-0.0907707
0
LINE
8
BLACK
6
CONTINUOUS
10
0.447658
20
-0.0907707
11
0.450056
21
-0.0818218
0
LINE
8
BLACK
6
CONTINUOUS
10
0.450056
20
-0.0818218
11
0.453971
21
-0.0734252
0
LINE
8
BLACK
6
CONTINUOUS
10
0.453971
20
-0.0734252
11
0.459285
21
-0.0658361
0
LINE
8
BLACK
6
CONTINUOUS
10
0.459285
20
-0.0658361
11
0.465836
21
-0.059285
0
LINE
8
BLACK
6
CONTINUOUS
10
0.465836
20
-0.059285
11
0.473425
21
-0.0539711
0
LINE
8
BLACK
6
CONTINUOUS
10
0.473425
20
-0.0539711
11
0.481822
21
-0.0500557
0
LINE
8
BLACK
6
CONTINUOUS
10
0.481822
20
-0.0500557
11
0.490771
21
-0.0476579
0
LINE
8
BLACK
6
CONTINUOUS
10
0.490771
20
-0.0476579
11
0.5
21
-0.0468504
0
LINE
8
BLACK
6
CONTINUOUS
10
0.5
20
-0.0468504
11
0.509229
21
-0.0476579
0
LINE
8
BLACK
6
CONTINUOUS
10
0.80865
20
0.117793
11
0.822132
21
0.116018
0
LINE
8
BLACK
6
CONTINUOUS
10
0.822132
20
0.116018
11
0.83532
21
0.112706
0
LINE
8
BLACK
6
CONTINUOUS
10
0.83532
20
0.112706
11
0.84804
21
0.107899
0
LINE
8
BLACK
6
CONTINUOUS
10
0.84804
20
0.107899
11
0.860123
21
0.101662
0
LINE
8
BLACK
6
CONTINUOUS
10
0.860123
20
0.101662
11
0.871409
21
0.0940783
0
LINE
8
BLACK
6
CONTINUOUS
10
0.871409
20
0.0940783
11
0.881749
21
0.0852473
0
LINE
8
BLACK
6
CONTINUOUS
10
0.881749
20
0.0852473
11
0.891006
21
0.0752863
0
LINE
8
BLACK
6
CONTINUOUS
10
0.891006
20
0.0752863
11
0.899056
21
0.0643274
0
LINE
8
BLACK
6
CONTINUOUS
10
0.899056
20
0.0643274
11
0.905793
21
0.052516
0
LINE
8
BLACK
6
CONTINUOUS
10
0.905793
20
0.052516
11
0.911128
21
0.0400084
0
LINE
8
BLACK
6
CONTINUOUS
10
0.911128
20
0.0400084
11
0.91499
21
0.0269706
0
LINE
8
BLACK
6
CONTINUOUS
10
0.91499
20
0.0269706
11
0.917327
21
0.0135752
0
LINE
8
BLACK
6
CONTINUOUS
10
0.917327
20
0.0135752
11
0.91811
21
0
0
LINE
8
BLACK
6
CONTINUOUS
10
0.91811
20
0
11
0.917877
21
-0.00741622
0
LINE
8
BLACK
6
CONTINUOUS
10
0.917877
20
-0.00741622
11
0.916244
21
-0.0209155
0
LINE
8
BLACK
6
CONTINUOUS
10
0.916244
20
-0.0209155
11
0.913069
21
-0.0341376
0
LINE
8
BLACK
6
CONTINUOUS
10
0.913069
20
-0.0341376
11
0.908396
21
-0.0469072
0
LINE
8
BLACK
6
CONTINUOUS
10
0.908396
20
-0.0469072
11
0.902286
21
-0.0590551
0
LINE
8
BLACK
6
CONTINUOUS
10
0.902286
20
-0.0590551
11
0.894821
21
-0.0704203
0
LINE
8
BLACK
6
CONTINUOUS
10
0.894821
20
-0.0704203
11
0.886099
21
-0.080852
0
LINE
8
BLACK
6
CONTINUOUS
10
0.886099
20
-0.080852
11
0.876235
21
-0.0902121
0
LINE
8
BLACK
6
CONTINUOUS
10
0.876235
20
-0.0902121
11
0.865361
21
-0.0983765
0
LINE
8
BLACK
6
CONTINUOUS
10
0.865361
20
-0.0983765
11
0.853621
21
-0.105237
0
LINE
8
BLACK
6
CONTINUOUS
10
0.853621
20
-0.105237
11
0.84117
21
-0.110703
0
LINE
8
BLACK
6
CONTINUOUS
10
0.84117
20
-0.110703
11
0.828173
21
-0.114701
0
LINE
8
BLACK
6
CONTINUOUS
10
0.828173
20
-0.114701
11
0.814803
21
-0.117179
0
LINE
8
BLACK
6
CONTINUOUS
10
0.814803
20
-0.117179
11
0.801237
21
-0.118104
0
LINE
8
BLACK
6
CONTINUOUS
10
0.801237
20
-0.118104
11
0.787654
21
-0.117463
0
LINE
8
BLACK
6
CONTINUOUS
10
0.787654
20
-0.117463
11
0.774235
21
-0.115266
0
LINE
8
BLACK
6
CONTINUOUS
10
0.774235
20
-0.115266
11
0.761157
21
-0.111541
0
LINE
8
BLACK
6
CONTINUOUS
10
0.761157
20
-0.111541
11
0.748595
21
-0.106337
0
LINE
8
BLACK
6
CONTINUOUS
10
0.748595
20
-0.106337
11
0.736713
21
-0.0997238
0
LINE
8
BLACK
6
CONTINUOUS
10
0.736713
20
-0.0997238
11
0.725671
21
-0.0917889
0
LINE
8
BLACK
6
CONTINUOUS
10
0.725671
20
-0.0917889
11
0.715613
21
-0.0826374
0
LINE
8
BLACK
6
CONTINUOUS
10
0.715613
20
-0.0826374
11
0.706675
21
-0.0723906
0
LINE
8
BLACK
6
CONTINUOUS
10
0.706675
20
-0.0723906
11
0.698973
21
-0.0611843
0
LINE
8
BLACK
6
CONTINUOUS
10
0.698973
20
-0.0611843
11
0.69261
21
-0.049167
0
LINE
8
BLACK
6
CONTINUOUS
10
0.69261
20
-0.049167
11
0.68767
21
-0.0364981
0
LINE
8
BLACK
6
CONTINUOUS
10
0.68767
20
-0.0364981
11
0.68422
21
-0.0233454
0
LINE
8
BLACK
6
CONTINUOUS
10
0.68422
20
-0.0233454
11
0.682304
21
-0.00988323
0
LINE
8
BLACK
6
CONTINUOUS
10
0.682304
20
-0.00988323
11
0.681948
21
0.00370992
0
LINE
8
BLACK
6
CONTINUOUS
10
0.681948
20
0.00370992
11
0.683157
21
0.0172539
0
LINE
8
BLACK
6
CONTINUOUS
10
0.683157
20
0.0172539
11
0.685914
21
0.0305692
0
LINE
8
BLACK
6
CONTINUOUS
10
0.685914
20
0.0305692
11
0.690184
21
0.0434793
0
LINE
8
BLACK
6
CONTINUOUS
10
0.690184
20
0.0434793
11
0.695909
21
0.0558131
0
LINE
8
BLACK
6
CONTINUOUS
10
0.695909
20
0.0558131
11
0.703014
21
0.0674071
0
LINE
8
BLACK
6
CONTINUOUS
10
0.703014
20
0.0674071
11
0.711404
21
0.0781077
0
LINE
8
BLACK
6
CONTINUOUS
10
0.711404
20
0.0781077
11
0.720969
21
0.087773
0
LINE
8
BLACK
6
CONTINUOUS
10
0.720969
20
0.087773
11
0.731581
21
0.0962749
0
LINE
8
BLACK
6
CONTINUOUS
10
0.731581
20
0.0962749
11
0.7431
21
0.103501
0
LINE
8
BLACK
6
CONTINUOUS
10
0.7431
20
0.103501
11
0.755373
21
0.109355
0
LINE
8
BLACK
6
CONTINUOUS
10
0.755373
20
0.109355
11
0.768238
21
0.113759
0
LINE
8
BLACK
6
CONTINUOUS
10
0.768238
20
0.113759
11
0.781524
21
0.116656
0
LINE
8
BLACK
6
CONTINUOUS
10
0.781524
20
0.116656
11
0.795054
21
0.118007
0
LINE
8
BLACK
6
CONTINUOUS
10
0.795054
20
0.118007
11
0.80865
21
0.117793
0
LINE
8
BLACK
6
CONTINUOUS
10
0.0086502
20
0.117793
11
0.0221317
21
0.116018
0
LINE
8
BLACK
6
CONTINUOUS
10
0.0221317
20
0.116018
11
0.0353198
21
0.112706
0
LINE
8
BLACK
6
CONTINUOUS
10
0.0353198
20
0.112706
11
0.0480398
21
0.107899
0
LINE
8
BLACK
6
CONTINUOUS
10
0.0480398
20
0.107899
11
0.060123
21
0.101662
0
LINE
8
BLACK
6
CONTINUOUS
10
0.060123
20
0.101662
11
0.0714093
21
0.0940783
0
LINE
8
BLACK
6
CONTINUOUS
10
0.0714093
20
0.0940783
11
0.0817492
21
0.0852473
0
LINE
8
BLACK
6
CONTINUOUS
10
0.0817492
20
0.0852473
11
0.0910055
21
0.0752863
0
LINE
8
BLACK
6
CONTINUOUS
10
0.0910055
20
0.0752863
11
0.0990556
21
0.0643274
0
LINE
8
BLACK
6
CONTINUOUS
10
0.0990556
20
0.0643274
11
0.105793
21
0.052516
0
LINE
8
BLACK
6
CONTINUOUS
10
0.105793
20
0.052516
11
0.111128
21
0.0400084
0
LINE
8
BLACK
6
CONTINUOUS
10
0.111128
20
0.0400084
11
0.11499
21
0.0269706
0
LINE
8
BLACK
6
CONTINUOUS
10
0.11499
20
0.0269706
11
0.117327
21
0.0135752
0
LINE
8
BLACK
6
CONTINUOUS
10
0.117327
20
0.0135752
11
0.11811
21
0
0
LINE
8
BLACK
6
CONTINUOUS
10
0.11811
20
0
11
0.117877
21
-0.00741622
0
LINE
8
BLACK
6
CONTINUOUS
10
0.117877
20
-0.00741622
11
0.116244
21
-0.0209155
0
LINE
8
BLACK
6
CONTINUOUS
10
0.116244
20
-0.0209155
11
0.113069
21
-0.0341376
0
LINE
8
BLACK
6
CONTINUOUS
10
0.113069
20
-0.0341376
11
0.108396
21
-0.0469072
0
LINE
8
BLACK
6
CONTINUOUS
10
0.108396
20
-0.0469072
11
0.102286
21
-0.0590551
0
LINE
8
BLACK
6
CONTINUOUS
10
0.102286
20
-0.0590551
11
0.0948209
21
-0.0704203
0
LINE
8
BLACK
6
CONTINUOUS
10
0.0948209
20
-0.0704203
11
0.0860987
21
-0.080852
0
LINE
8
BLACK
6
CONTINUOUS
10
0.0860987
20
-0.080852
11
0.0762352
21
-0.0902121
0
LINE
8
BLACK
6
CONTINUOUS
10
0.0762352
20
-0.0902121
11
0.0653612
21
-0.0983765
0
LINE
8
BLACK
6
CONTINUOUS
10
0.0653612
20
-0.0983765
11
0.0536209
21
-0.105237
0
LINE
8
BLACK
6
CONTINUOUS
10
0.0536209
20
-0.105237
11
0.0411699
21
-0.110703
0
LINE
8
BLACK
6
CONTINUOUS
10
0.0411699
20
-0.110703
11
0.0281732
21
-0.114701
0
LINE
8
BLACK
6
CONTINUOUS
10
0.0281732
20
-0.114701
11
0.0148031
21
-0.117179
0
LINE
8
BLACK
6
CONTINUOUS
10
0.0148031
20
-0.117179
11
0.00123681
21
-0.118104
0
LINE
8
BLACK
6
CONTINUOUS
10
0.00123681
20
-0.118104
11
-0.0123459
21
-0.117463
0
LINE
8
BLACK
6
CONTINUOUS
10
-0.0123459
20
-0.117463
11
-0.025765
21
-0.115266
0
LINE
8
BLACK
6
CONTINUOUS
10
-0.025765
20
-0.115266
11
-0.0388425
21
-0.111541
0
LINE
8
BLACK
6
CONTINUOUS
10
-0.0388425
20
-0.111541
11
-0.0514052
21
-0.106337
0
LINE
8
BLACK
6
CONTINUOUS
10
-0.0514052
20
-0.106337
11
-0.0632866
21
-0.0997238
0
LINE
8
BLACK
6
CONTINUOUS
10
-0.0632866
20
-0.0997238
11
-0.0743292
21
-0.0917889
0
LINE
8
BLACK
6
CONTINUOUS
10
-0.0743292
20
-0.0917889
11
-0.0843865
21
-0.0826374
0
LINE
8
BLACK
6
CONTINUOUS
10
-0.0843865
20
-0.0826374
11
-0.0933254
21
-0.0723906
0
LINE
8
BLACK
6
CONTINUOUS
10
-0.0933254
20
-0.0723906
11
-0.101027
21
-0.0611843
0
LINE
8
BLACK
6
CONTINUOUS
10
-0.101027
20
-0.0611843
11
-0.10739
21
-0.049167
0
LINE
8
BLACK
6
CONTINUOUS
10
-0.10739
20
-0.049167
11
-0.11233
21
-0.0364981
0
LINE
8
BLACK
6
CONTINUOUS
10
-0.11233
20
-0.0364981
11
-0.11578
21
-0.0233454
0
LINE
8
BLACK
6
CONTINUOUS
10
-0.11578
20
-0.0233454
11
-0.117696
21
-0.00988323
0
LINE
8
BLACK
6
CONTINUOUS
10
-0.117696
20
-0.00988323
11
-0.118052
21
0.00370992
0
LINE
8
BLACK
6
CONTINUOUS
10
-0.118052
20
0.00370992
11
-0.116843
21
0.0172539
0
LINE
8
BLACK
6
CONTINUOUS
10
-0.116843
20
0.0172539
11
-0.114086
21
0.0305692
0
LINE
8
BLACK
6
CONTINUOUS
10
-0.114086
20
0.0305692
11
-0.109816
21
0.0434793
0
LINE
8
BLACK
6
CONTINUOUS
10
-0.109816
20
0.0434793
11
-0.104091
21
0.0558131
0
LINE
8
BLACK
6
CONTINUOUS
10
-0.104091
20
0.0558131
11
-0.0969861
21
0.0674071
0
LINE
8
BLACK
6
CONTINUOUS
10
-0.0969861
20
0.0674071
11
-0.0885958
21
0.0781077
0
LINE
8
BLACK
6
CONTINUOUS
10
-0.0885958
20
0.0781077
11
-0.0790312
21
0.087773
0
LINE
8
BLACK
6
CONTINUOUS
10
-0.0790312
20
0.087773
11
-0.0684191
21
0.0962749
0
LINE
8
BLACK
6
CONTINUOUS
10
-0.0684191
20
0.0962749
11
-0.0569
21
0.103501
0
LINE
8
BLACK
6
CONTINUOUS
10
-0.0569
20
0.103501
11
-0.0446269
21
0.109355
0
LINE
8
BLACK
6
CONTINUOUS
10
-0.0446269
20
0.109355
11
-0.0317622
21
0.113759
0
LINE
8
BLACK
6
CONTINUOUS
10
-0.0317622
20
0.113759
11
-0.0184765
21
0.116656
0
LINE
8
BLACK
6
CONTINUOUS
10
-0.0184765
20
0.116656
11
-0.00494594
21
0.118007
0
LINE
8
BLACK
6
CONTINUOUS
10
-0.00494594
20
0.118007
11
0.0086502
21
0.117793
0
LINE
8
BLACK
6
CONTINUOUS
10
0.306315
20
0.225882
11
0.305331
21
0.225882
0
LINE
8
BLACK
6
CONTINUOUS
10
0.305331
20
0.225882
11
0.305331
21
0.184629
0
LINE
8
BLACK
6
CONTINUOUS
10
0.305331
20
0.184629
11
0.318038
21
0.171921
0
LINE
8
BLACK
6
CONTINUOUS
10
0.318038
20
0.171921
11
0.37
21
0.171921
0
LINE
8
BLACK
6
CONTINUOUS
10
0.37
20
0.171921
11
0.370867
21
0.171795
0
LINE
8
BLACK
6
CONTINUOUS
10
0.370867
20
0.171795
11
0.371048
21
0.171808
0
LINE
8
BLACK
6
CONTINUOUS
10
0.371048
20
0.171808
11
0.371146
21
0.171755
0
LINE
8
BLACK
6
CONTINUOUS
10
0.371146
20
0.171755
11
0.371398
21
0.171719
0
LINE
8
BLACK
6
CONTINUOUS
10
0.371398
20
0.171719
11
0.372416
21
0.171061
0
LINE
8
BLACK
6
CONTINUOUS
10
0.372416
20
0.171061
11
0.37348
21
0.17048
0
LINE
8
BLACK
6
CONTINUOUS
10
0.37348
20
0.17048
11
0.40348
21
0.14048
0
LINE
8
BLACK
6
CONTINUOUS
10
0.40348
20
0.14048
11
0.404004
21
0.139778
0
LINE
8
BLACK
6
CONTINUOUS
10
0.404004
20
0.139778
11
0.404141
21
0.139659
0
LINE
8
BLACK
6
CONTINUOUS
10
0.404141
20
0.139659
11
0.404173
21
0.139552
0
LINE
8
BLACK
6
CONTINUOUS
10
0.404173
20
0.139552
11
0.404325
21
0.139348
0
LINE
8
BLACK
6
CONTINUOUS
10
0.404325
20
0.139348
11
0.40458
21
0.138163
0
LINE
8
BLACK
6
CONTINUOUS
10
0.40458
20
0.138163
11
0.404921
21
0.137
0
LINE
8
BLACK
6
CONTINUOUS
10
0.404921
20
0.137
11
0.404921
21
0.048782
0
LINE
8
BLACK
6
CONTINUOUS
10
0.404921
20
0.048782
11
0.408546
21
0.048465
0
LINE
8
BLACK
6
CONTINUOUS
10
0.408546
20
0.048465
11
0.416832
21
0.0462447
0
LINE
8
BLACK
6
CONTINUOUS
10
0.416832
20
0.0462447
11
0.424606
21
0.0426194
0
LINE
8
BLACK
6
CONTINUOUS
10
0.424606
20
0.0426194
11
0.431633
21
0.0376991
0
LINE
8
BLACK
6
CONTINUOUS
10
0.431633
20
0.0376991
11
0.437699
21
0.0316333
0
LINE
8
BLACK
6
CONTINUOUS
10
0.437699
20
0.0316333
11
0.442619
21
0.0246063
0
LINE
8
BLACK
6
CONTINUOUS
10
0.442619
20
0.0246063
11
0.446245
21
0.0168317
0
LINE
8
BLACK
6
CONTINUOUS
10
0.446245
20
0.0168317
11
0.448465
21
0.00854567
0
LINE
8
BLACK
6
CONTINUOUS
10
0.448465
20
0.00854567
11
0.449213
21
0
0
LINE
8
BLACK
6
CONTINUOUS
10
0.449213
20
0
11
0.448465
21
-0.00854567
0
LINE
8
BLACK
6
CONTINUOUS
10
0.448465
20
-0.00854567
11
0.446245
21
-0.0168317
0
LINE
8
BLACK
6
CONTINUOUS
10
0.446245
20
-0.0168317
11
0.442619
21
-0.0246063
0
LINE
8
BLACK
6
CONTINUOUS
10
0.442619
20
-0.0246063
11
0.437699
21
-0.0316333
0
LINE
8
BLACK
6
CONTINUOUS
10
0.437699
20
-0.0316333
11
0.431633
21
-0.0376991
0
LINE
8
BLACK
6
CONTINUOUS
10
0.431633
20
-0.0376991
11
0.424606
21
-0.0426194
0
LINE
8
BLACK
6
CONTINUOUS
10
0.424606
20
-0.0426194
11
0.416832
21
-0.0462447
0
LINE
8
BLACK
6
CONTINUOUS
10
0.416832
20
-0.0462447
11
0.408546
21
-0.048465
0
LINE
8
BLACK
6
CONTINUOUS
10
0.408546
20
-0.048465
11
0.4
21
-0.0492126
0
LINE
8
BLACK
6
CONTINUOUS
10
0.4
20
-0.0492126
11
0.391454
21
-0.048465
0
LINE
8
BLACK
6
CONTINUOUS
10
0.391454
20
-0.048465
11
0.383168
21
-0.0462447
0
LINE
8
BLACK
6
CONTINUOUS
10
0.383168
20
-0.0462447
11
0.375394
21
-0.0426194
0
LINE
8
BLACK
6
CONTINUOUS
10
0.375394
20
-0.0426194
11
0.368367
21
-0.0376991
0
LINE
8
BLACK
6
CONTINUOUS
10
0.368367
20
-0.0376991
11
0.362301
21
-0.0316333
0
LINE
8
BLACK
6
CONTINUOUS
10
0.362301
20
-0.0316333
11
0.357381
21
-0.0246063
0
LINE
8
BLACK
6
CONTINUOUS
10
0.357381
20
-0.0246063
11
0.353755
21
-0.0168317
0
LINE
8
BLACK
6
CONTINUOUS
10
0.353755
20
-0.0168317
11
0.351535
21
-0.00854567
0
LINE
8
BLACK
6
CONTINUOUS
10
0.351535
20
-0.00854567
11
0.350787
21
0
0
LINE
8
BLACK
6
CONTINUOUS
10
0.350787
20
0
11
0.351535
21
0.00854567
0
LINE
8
BLACK
6
CONTINUOUS
10
0.351535
20
0.00854567
11
0.353755
21
0.0168317
0
LINE
8
BLACK
6
CONTINUOUS
10
0.353755
20
0.0168317
11
0.357381
21
0.0246063
0
LINE
8
BLACK
6
CONTINUOUS
10
0.357381
20
0.0246063
11
0.362301
21
0.0316333
0
LINE
8
BLACK
6
CONTINUOUS
10
0.362301
20
0.0316333
11
0.368367
21
0.0376991
0
LINE
8
BLACK
6
CONTINUOUS
10
0.368367
20
0.0376991
11
0.375394
21
0.0426194
0
LINE
8
BLACK
6
CONTINUOUS
10
0.375394
20
0.0426194
11
0.383168
21
0.0462447
0
LINE
8
BLACK
6
CONTINUOUS
10
0.383168
20
0.0462447
11
0.391454
21
0.048465
0
LINE
8
BLACK
6
CONTINUOUS
10
0.391454
20
0.048465
11
0.395079
21
0.048782
0
LINE
8
BLACK
6
CONTINUOUS
10
0.395079
20
0.048782
11
0.395079
21
0.134962
0
LINE
8
BLACK
6
CONTINUOUS
10
0.395079
20
0.134962
11
0.367962
21
0.162079
0
LINE
8
BLACK
6
CONTINUOUS
10
0.367962
20
0.162079
11
0.316
21
0.162079
0
LINE
8
BLACK
6
CONTINUOUS
10
0.316
20
0.162079
11
0.315133
21
0.162205
0
LINE
8
BLACK
6
CONTINUOUS
10
0.315133
20
0.162205
11
0.314952
21
0.162192
0
LINE
8
BLACK
6
CONTINUOUS
10
0.314952
20
0.162192
11
0.314854
21
0.162245
0
LINE
8
BLACK
6
CONTINUOUS
10
0.314854
20
0.162245
11
0.314602
21
0.162281
0
LINE
8
BLACK
6
CONTINUOUS
10
0.314602
20
0.162281
11
0.313584
21
0.162939
0
LINE
8
BLACK
6
CONTINUOUS
10
0.313584
20
0.162939
11
0.31252
21
0.16352
0
LINE
8
BLACK
6
CONTINUOUS
10
0.31252
20
0.16352
11
0.29693
21
0.179111
0
LINE
8
BLACK
6
CONTINUOUS
10
0.29693
20
0.179111
11
0.296405
21
0.179813
0
LINE
8
BLACK
6
CONTINUOUS
10
0.296405
20
0.179813
11
0.296268
21
0.179932
0
LINE
8
BLACK
6
CONTINUOUS
10
0.296268
20
0.179932
11
0.296237
21
0.180038
0
LINE
8
BLACK
6
CONTINUOUS
10
0.296237
20
0.180038
11
0.296085
21
0.180242
0
LINE
8
BLACK
6
CONTINUOUS
10
0.296085
20
0.180242
11
0.295829
21
0.181427
0
LINE
8
BLACK
6
CONTINUOUS
10
0.295829
20
0.181427
11
0.295488
21
0.182591
0
LINE
8
BLACK
6
CONTINUOUS
10
0.295488
20
0.182591
11
0.295488
21
0.225882
0
LINE
8
BLACK
6
CONTINUOUS
10
0.295488
20
0.225882
11
0.294504
21
0.225882
0
LINE
8
BLACK
6
CONTINUOUS
10
0.294504
20
0.225882
11
0.294504
21
0.265252
0
LINE
8
BLACK
6
CONTINUOUS
10
0.294504
20
0.265252
11
0.306315
21
0.265252
0
LINE
8
BLACK
6
CONTINUOUS
10
0.306315
20
0.265252
11
0.306315
21
0.225882
0
LINE
8
BLACK
6
CONTINUOUS
10
0.509229
20
0.152342
11
0.518178
21
0.149944
0
LINE
8
BLACK
6
CONTINUOUS
10
0.518178
20
0.149944
11
0.526575
21
0.146029
0
LINE
8
BLACK
6
CONTINUOUS
10
0.526575
20
0.146029
11
0.534164
21
0.140715
0
LINE
8
BLACK
6
CONTINUOUS
10
0.534164
20
0.140715
11
0.540715
21
0.134164
0
LINE
8
BLACK
6
CONTINUOUS
10
0.540715
20
0.134164
11
0.546029
21
0.126575
0
LINE
8
BLACK
6
CONTINUOUS
10
0.546029
20
0.126575
11
0.549944
21
0.118178
0
LINE
8
BLACK
6
CONTINUOUS
10
0.549944
20
0.118178
11
0.552342
21
0.109229
0
LINE
8
BLACK
6
CONTINUOUS
10
0.552342
20
0.109229
11
0.55315
21
0.1
0
LINE
8
BLACK
6
CONTINUOUS
10
0.55315
20
0.1
11
0.552342
21
0.0907707
0
LINE
8
BLACK
6
CONTINUOUS
10
0.552342
20
0.0907707
11
0.549944
21
0.0818218
0
LINE
8
BLACK
6
CONTINUOUS
10
0.549944
20
0.0818218
11
0.546029
21
0.0734252
0
LINE
8
BLACK
6
CONTINUOUS
10
0.546029
20
0.0734252
11
0.540715
21
0.0658361
0
LINE
8
BLACK
6
CONTINUOUS
10
0.540715
20
0.0658361
11
0.534164
21
0.059285
0
LINE
8
BLACK
6
CONTINUOUS
10
0.534164
20
0.059285
11
0.526575
21
0.0539711
0
LINE
8
BLACK
6
CONTINUOUS
10
0.526575
20
0.0539711
11
0.518178
21
0.0500557
0
LINE
8
BLACK
6
CONTINUOUS
10
0.518178
20
0.0500557
11
0.509229
21
0.0476579
0
LINE
8
BLACK
6
CONTINUOUS
10
0.509229
20
0.0476579
11
0.5
21
0.0468504
0
LINE
8
BLACK
6
CONTINUOUS
10
0.5
20
0.0468504
11
0.490771
21
0.0476579
0
LINE
8
BLACK
6
CONTINUOUS
10
0.490771
20
0.0476579
11
0.481822
21
0.0500557
0
LINE
8
BLACK
6
CONTINUOUS
10
0.481822
20
0.0500557
11
0.473425
21
0.0539711
0
LINE
8
BLACK
6
CONTINUOUS
10
0.473425
20
0.0539711
11
0.465836
21
0.059285
0
LINE
8
BLACK
6
CONTINUOUS
10
0.465836
20
0.059285
11
0.459285
21
0.0658361
0
LINE
8
BLACK
6
CONTINUOUS
10
0.459285
20
0.0658361
11
0.453971
21
0.0734252
0
LINE
8
BLACK
6
CONTINUOUS
10
0.453971
20
0.0734252
11
0.450056
21
0.0818218
0
LINE
8
BLACK
6
CONTINUOUS
10
0.450056
20
0.0818218
11
0.447658
21
0.0907707
0
LINE
8
BLACK
6
CONTINUOUS
10
0.447658
20
0.0907707
11
0.44685
21
0.1
0
LINE
8
BLACK
6
CONTINUOUS
10
0.44685
20
0.1
11
0.447658
21
0.109229
0
LINE
8
BLACK
6
CONTINUOUS
10
0.447658
20
0.109229
11
0.450056
21
0.118178
0
LINE
8
BLACK
6
CONTINUOUS
10
0.450056
20
0.118178
11
0.453971
21
0.126575
0
LINE
8
BLACK
6
CONTINUOUS
10
0.453971
20
0.126575
11
0.459285
21
0.134164
0
LINE
8
BLACK
6
CONTINUOUS
10
0.459285
20
0.134164
11
0.465836
21
0.140715
0
LINE
8
BLACK
6
CONTINUOUS
10
0.465836
20
0.140715
11
0.473425
21
0.146029
0
LINE
8
BLACK
6
CONTINUOUS
10
0.473425
20
0.146029
11
0.481822
21
0.149944
0
LINE
8
BLACK
6
CONTINUOUS
10
0.481822
20
0.149944
11
0.490771
21
0.152342
0
LINE
8
BLACK
6
CONTINUOUS
10
0.490771
20
0.152342
11
0.5
21
0.15315
0
LINE
8
BLACK
6
CONTINUOUS
10
0.5
20
0.15315
11
0.509229
21
0.152342
0
LINE
8
BLACK
6
CONTINUOUS
10
0.309229
20
0.152342
11
0.318178
21
0.149944
0
LINE
8
BLACK
6
CONTINUOUS
10
0.318178
20
0.149944
11
0.326575
21
0.146029
0
LINE
8
BLACK
6
CONTINUOUS
10
0.326575
20
0.146029
11
0.334164
21
0.140715
0
LINE
8
BLACK
6
CONTINUOUS
10
0.334164
20
0.140715
11
0.340715
21
0.134164
0
LINE
8
BLACK
6
CONTINUOUS
10
0.340715
20
0.134164
11
0.346029
21
0.126575
0
LINE
8
BLACK
6
CONTINUOUS
10
0.346029
20
0.126575
11
0.349944
21
0.118178
0
LINE
8
BLACK
6
CONTINUOUS
10
0.349944
20
0.118178
11
0.352342
21
0.109229
0
LINE
8
BLACK
6
CONTINUOUS
10
0.352342
20
0.109229
11
0.35315
21
0.1
0
LINE
8
BLACK
6
CONTINUOUS
10
0.35315
20
0.1
11
0.352342
21
0.0907707
0
LINE
8
BLACK
6
CONTINUOUS
10
0.352342
20
0.0907707
11
0.349944
21
0.0818218
0
LINE
8
BLACK
6
CONTINUOUS
10
0.349944
20
0.0818218
11
0.346029
21
0.0734252
0
LINE
8
BLACK
6
CONTINUOUS
10
0.346029
20
0.0734252
11
0.340715
21
0.0658361
0
LINE
8
BLACK
6
CONTINUOUS
10
0.340715
20
0.0658361
11
0.334164
21
0.059285
0
LINE
8
BLACK
6
CONTINUOUS
10
0.334164
20
0.059285
11
0.326575
21
0.0539711
0
LINE
8
BLACK
6
CONTINUOUS
10
0.326575
20
0.0539711
11
0.318178
21
0.0500557
0
LINE
8
BLACK
6
CONTINUOUS
10
0.318178
20
0.0500557
11
0.309229
21
0.0476579
0
LINE
8
BLACK
6
CONTINUOUS
10
0.309229
20
0.0476579
11
0.3
21
0.0468504
0
LINE
8
BLACK
6
CONTINUOUS
10
0.3
20
0.0468504
11
0.290771
21
0.0476579
0
LINE
8
BLACK
6
CONTINUOUS
10
0.290771
20
0.0476579
11
0.281822
21
0.0500557
0
LINE
8
BLACK
6
CONTINUOUS
10
0.281822
20
0.0500557
11
0.273425
21
0.0539711
0
LINE
8
BLACK
6
CONTINUOUS
10
0.273425
20
0.0539711
11
0.265836
21
0.059285
0
LINE
8
BLACK
6
CONTINUOUS
10
0.265836
20
0.059285
11
0.259285
21
0.0658361
0
LINE
8
BLACK
6
CONTINUOUS
10
0.259285
20
0.0658361
11
0.253971
21
0.0734252
0
LINE
8
BLACK
6
CONTINUOUS
10
0.253971
20
0.0734252
11
0.250056
21
0.0818218
0
LINE
8
BLACK
6
CONTINUOUS
10
0.250056
20
0.0818218
11
0.247658
21
0.0907707
0
LINE
8
BLACK
6
CONTINUOUS
10
0.247658
20
0.0907707
11
0.24685
21
0.1
0
LINE
8
BLACK
6
CONTINUOUS
10
0.24685
20
0.1
11
0.247658
21
0.109229
0
LINE
8
BLACK
6
CONTINUOUS
10
0.247658
20
0.109229
11
0.250056
21
0.118178
0
LINE
8
BLACK
6
CONTINUOUS
10
0.250056
20
0.118178
11
0.253971
21
0.126575
0
LINE
8
BLACK
6
CONTINUOUS
10
0.253971
20
0.126575
11
0.259285
21
0.134164
0
LINE
8
BLACK
6
CONTINUOUS
10
0.259285
20
0.134164
11
0.265836
21
0.140715
0
LINE
8
BLACK
6
CONTINUOUS
10
0.265836
20
0.140715
11
0.273425
21
0.146029
0
LINE
8
BLACK
6
CONTINUOUS
10
0.273425
20
0.146029
11
0.281822
21
0.149944
0
LINE
8
BLACK
6
CONTINUOUS
10
0.281822
20
0.149944
11
0.290771
21
0.152342
0
LINE
8
BLACK
6
CONTINUOUS
10
0.290771
20
0.152342
11
0.3
21
0.15315
0
LINE
8
BLACK
6
CONTINUOUS
10
0.3
20
0.15315
11
0.309229
21
0.152342
0
LINE
8
BLACK
6
CONTINUOUS
10
0.88
20
0.22
11
0.82
21
0.22
0
LINE
8
BLACK
6
CONTINUOUS
10
0.82
20
0.22
11
0.82
21
0.28
0
LINE
8
BLACK
6
CONTINUOUS
10
0.82
20
0.28
11
0.88
21
0.28
0
LINE
8
BLACK
6
CONTINUOUS
10
0.88
20
0.28
11
0.88
21
0.22
0
LINE
8
BLACK
6
CONTINUOUS
10
0.78
20
0.22
11
0.72
21
0.22
0
LINE
8
BLACK
6
CONTINUOUS
10
0.72
20
0.22
11
0.72
21
0.28
0
LINE
8
BLACK
6
CONTINUOUS
10
0.72
20
0.28
11
0.78
21
0.28
0
LINE
8
BLACK
6
CONTINUOUS
10
0.78
20
0.28
11
0.78
21
0.22
0
LINE
8
BLACK
6
CONTINUOUS
10
0.357496
20
0.225882
11
0.345685
21
0.225882
0
LINE
8
BLACK
6
CONTINUOUS
10
0.345685
20
0.225882
11
0.345685
21
0.265252
0
LINE
8
BLACK
6
CONTINUOUS
10
0.345685
20
0.265252
11
0.357496
21
0.265252
0
LINE
8
BLACK
6
CONTINUOUS
10
0.357496
20
0.265252
11
0.357496
21
0.225882
0
LINE
8
BLACK
6
CONTINUOUS
10
0.331906
20
0.225882
11
0.320094
21
0.225882
0
LINE
8
BLACK
6
CONTINUOUS
10
0.320094
20
0.225882
11
0.320094
21
0.265252
0
LINE
8
BLACK
6
CONTINUOUS
10
0.320094
20
0.265252
11
0.331906
21
0.265252
0
LINE
8
BLACK
6
CONTINUOUS
10
0.331906
20
0.265252
11
0.331906
21
0.225882
0
LINE
8
BLACK
6
CONTINUOUS
10
0.109229
20
0.352342
11
0.118178
21
0.349944
0
LINE
8
BLACK
6
CONTINUOUS
10
0.118178
20
0.349944
11
0.126575
21
0.346029
0
LINE
8
BLACK
6
CONTINUOUS
10
0.126575
20
0.346029
11
0.134164
21
0.340715
0
LINE
8
BLACK
6
CONTINUOUS
10
0.134164
20
0.340715
11
0.140715
21
0.334164
0
LINE
8
BLACK
6
CONTINUOUS
10
0.140715
20
0.334164
11
0.146029
21
0.326575
0
LINE
8
BLACK
6
CONTINUOUS
10
0.146029
20
0.326575
11
0.149944
21
0.318178
0
LINE
8
BLACK
6
CONTINUOUS
10
0.149944
20
0.318178
11
0.152342
21
0.309229
0
LINE
8
BLACK
6
CONTINUOUS
10
0.152342
20
0.309229
11
0.15315
21
0.3
0
LINE
8
BLACK
6
CONTINUOUS
10
0.15315
20
0.3
11
0.152342
21
0.290771
0
LINE
8
BLACK
6
CONTINUOUS
10
0.152342
20
0.290771
11
0.149944
21
0.281822
0
LINE
8
BLACK
6
CONTINUOUS
10
0.149944
20
0.281822
11
0.146029
21
0.273425
0
LINE
8
BLACK
6
CONTINUOUS
10
0.146029
20
0.273425
11
0.140715
21
0.265836
0
LINE
8
BLACK
6
CONTINUOUS
10
0.140715
20
0.265836
11
0.134164
21
0.259285
0
LINE
8
BLACK
6
CONTINUOUS
10
0.134164
20
0.259285
11
0.126575
21
0.253971
0
LINE
8
BLACK
6
CONTINUOUS
10
0.126575
20
0.253971
11
0.118178
21
0.250056
0
LINE
8
BLACK
6
CONTINUOUS
10
0.118178
20
0.250056
11
0.109229
21
0.247658
0
LINE
8
BLACK
6
CONTINUOUS
10
0.109229
20
0.247658
11
0.1
21
0.24685
0
LINE
8
BLACK
6
CONTINUOUS
10
0.1
20
0.24685
11
0.0907707
21
0.247658
0
LINE
8
BLACK
6
CONTINUOUS
10
0.0907707
20
0.247658
11
0.0818218
21
0.250056
0
LINE
8
BLACK
6
CONTINUOUS
10
0.0818218
20
0.250056
11
0.0734252
21
0.253971
0
LINE
8
BLACK
6
CONTINUOUS
10
0.0734252
20
0.253971
11
0.0658361
21
0.259285
0
LINE
8
BLACK
6
CONTINUOUS
10
0.0658361
20
0.259285
11
0.059285
21
0.265836
0
LINE
8
BLACK
6
CONTINUOUS
10
0.059285
20
0.265836
11
0.0539711
21
0.273425
0
LINE
8
BLACK
6
CONTINUOUS
10
0.0539711
20
0.273425
11
0.0500557
21
0.281822
0
LINE
8
BLACK
6
CONTINUOUS
10
0.0500557
20
0.281822
11
0.0476579
21
0.290771
0
LINE
8
BLACK
6
CONTINUOUS
10
0.0476579
20
0.290771
11
0.0468504
21
0.3
0
LINE
8
BLACK
6
CONTINUOUS
10
0.0468504
20
0.3
11
0.0476579
21
0.309229
0
LINE
8
BLACK
6
CONTINUOUS
10
0.0476579
20
0.309229
11
0.0500557
21
0.318178
0
LINE
8
BLACK
6
CONTINUOUS
10
0.0500557
20
0.318178
11
0.0539711
21
0.326575
0
LINE
8
BLACK
6
CONTINUOUS
10
0.0539711
20
0.326575
11
0.059285
21
0.334164
0
LINE
8
BLACK
6
CONTINUOUS
10
0.059285
20
0.334164
11
0.0658361
21
0.340715
0
LINE
8
BLACK
6
CONTINUOUS
10
0.0658361
20
0.340715
11
0.0734252
21
0.346029
0
LINE
8
BLACK
6
CONTINUOUS
10
0.0734252
20
0.346029
11
0.0818218
21
0.349944
0
LINE
8
BLACK
6
CONTINUOUS
10
0.0818218
20
0.349944
11
0.0907707
21
0.352342
0
LINE
8
BLACK
6
CONTINUOUS
10
0.0907707
20
0.352342
11
0.1
21
0.35315
0
LINE
8
BLACK
6
CONTINUOUS
10
0.1
20
0.35315
11
0.109229
21
0.352342
0
LINE
8
BLACK
6
CONTINUOUS
10
-0.0907707
20
0.352342
11
-0.0818218
21
0.349944
0
LINE
8
BLACK
6
CONTINUOUS
10
-0.0818218
20
0.349944
11
-0.0734252
21
0.346029
0
LINE
8
BLACK
6
CONTINUOUS
10
-0.0734252
20
0.346029
11
-0.0658361
21
0.340715
0
LINE
8
BLACK
6
CONTINUOUS
10
-0.0658361
20
0.340715
11
-0.059285
21
0.334164
0
LINE
8
BLACK
6
CONTINUOUS
10
-0.059285
20
0.334164
11
-0.0539711
21
0.326575
0
LINE
8
BLACK
6
CONTINUOUS
10
-0.0539711
20
0.326575
11
-0.0500557
21
0.318178
0
LINE
8
BLACK
6
CONTINUOUS
10
-0.0500557
20
0.318178
11
-0.0476579
21
0.309229
0
LINE
8
BLACK
6
CONTINUOUS
10
-0.0476579
20
0.309229
11
-0.0468504
21
0.3
0
LINE
8
BLACK
6
CONTINUOUS
10
-0.0468504
20
0.3
11
-0.0476579
21
0.290771
0
LINE
8
BLACK
6
CONTINUOUS
10
-0.0476579
20
0.290771
11
-0.0500557
21
0.281822
0
LINE
8
BLACK
6
CONTINUOUS
10
-0.0500557
20
0.281822
11
-0.0539711
21
0.273425
0
LINE
8
BLACK
6
CONTINUOUS
10
-0.0539711
20
0.273425
11
-0.059285
21
0.265836
0
LINE
8
BLACK
6
CONTINUOUS
10
-0.059285
20
0.265836
11
-0.0658361
21
0.259285
0
LINE
8
BLACK
6
CONTINUOUS
10
-0.0658361
20
0.259285
11
-0.0734252
21
0.253971
0
LINE
8
BLACK
6
CONTINUOUS
10
-0.0734252
20
0.253971
11
-0.0818218
21
0.250056
0
LINE
8
BLACK
6
CONTINUOUS
10
-0.0818218
20
0.250056
11
-0.0907707
21
0.247658
0
LINE
8
BLACK
6
CONTINUOUS
10
-0.0907707
20
0.247658
11
-0.1
21
0.24685
0
LINE
8
BLACK
6
CONTINUOUS
10
-0.1
20
0.24685
11
-0.109229
21
0.247658
0
LINE
8
BLACK
6
CONTINUOUS
10
-0.109229
20
0.247658
11
-0.118178
21
0.250056
0
LINE
8
BLACK
6
CONTINUOUS
10
-0.118178
20
0.250056
11
-0.126575
21
0.253971
0
LINE
8
BLACK
6
CONTINUOUS
10
-0.126575
20
0.253971
11
-0.134164
21
0.259285
0
LINE
8
BLACK
6
CONTINUOUS
10
-0.134164
20
0.259285
11
-0.140715
21
0.265836
0
LINE
8
BLACK
6
CONTINUOUS
10
-0.140715
20
0.265836
11
-0.146029
21
0.273425
0
LINE
8
BLACK
6
CONTINUOUS
10
-0.146029
20
0.273425
11
-0.149944
21
0.281822
0
LINE
8
BLACK
6
CONTINUOUS
10
-0.149944
20
0.281822
11
-0.152342
21
0.290771
0
LINE
8
BLACK
6
CONTINUOUS
10
-0.152342
20
0.290771
11
-0.15315
21
0.3
0
LINE
8
BLACK
6
CONTINUOUS
10
-0.15315
20
0.3
11
-0.152342
21
0.309229
0
LINE
8
BLACK
6
CONTINUOUS
10
-0.152342
20
0.309229
11
-0.149944
21
0.318178
0
LINE
8
BLACK
6
CONTINUOUS
10
-0.149944
20
0.318178
11
-0.146029
21
0.326575
0
LINE
8
BLACK
6
CONTINUOUS
10
-0.146029
20
0.326575
11
-0.140715
21
0.334164
0
LINE
8
BLACK
6
CONTINUOUS
10
-0.140715
20
0.334164
11
-0.134164
21
0.340715
0
LINE
8
BLACK
6
CONTINUOUS
10
-0.134164
20
0.340715
11
-0.126575
21
0.346029
0
LINE
8
BLACK
6
CONTINUOUS
10
-0.126575
20
0.346029
11
-0.118178
21
0.349944
0
LINE
8
BLACK
6
CONTINUOUS
10
-0.118178
20
0.349944
11
-0.109229
21
0.352342
0
LINE
8
BLACK
6
CONTINUOUS
10
-0.109229
20
0.352342
11
-0.1
21
0.35315
0
LINE
8
BLACK
6
CONTINUOUS
10
-0.1
20
0.35315
11
-0.0907707
21
0.352342
0
LINE
8
BLACK
6
CONTINUOUS
10
0.00854567
20
0.448465
11
0.0168317
21
0.446245
0
LINE
8
BLACK
6
CONTINUOUS
10
0.0168317
20
0.446245
11
0.0246063
21
0.442619
0
LINE
8
BLACK
6
CONTINUOUS
10
0.0246063
20
0.442619
11
0.0316333
21
0.437699
0
LINE
8
BLACK
6
CONTINUOUS
10
0.0316333
20
0.437699
11
0.0376991
21
0.431633
0
LINE
8
BLACK
6
CONTINUOUS
10
0.0376991
20
0.431633
11
0.0426194
21
0.424606
0
LINE
8
BLACK
6
CONTINUOUS
10
0.0426194
20
0.424606
11
0.0462447
21
0.416832
0
LINE
8
BLACK
6
CONTINUOUS
10
0.0462447
20
0.416832
11
0.048465
21
0.408546
0
LINE
8
BLACK
6
CONTINUOUS
10
0.048465
20
0.408546
11
0.048782
21
0.404921
0
LINE
8
BLACK
6
CONTINUOUS
10
0.048782
20
0.404921
11
0.170079
21
0.404921
0
LINE
8
BLACK
6
CONTINUOUS
10
0.170079
20
0.404921
11
0.170946
21
0.404795
0
LINE
8
BLACK
6
CONTINUOUS
10
0.170946
20
0.404795
11
0.171127
21
0.404808
0
LINE
8
BLACK
6
CONTINUOUS
10
0.171127
20
0.404808
11
0.171224
21
0.404755
0
LINE
8
BLACK
6
CONTINUOUS
10
0.171224
20
0.404755
11
0.171476
21
0.404719
0
LINE
8
BLACK
6
CONTINUOUS
10
0.171476
20
0.404719
11
0.172495
21
0.404061
0
LINE
8
BLACK
6
CONTINUOUS
10
0.172495
20
0.404061
11
0.173559
21
0.40348
0
LINE
8
BLACK
6
CONTINUOUS
10
0.173559
20
0.40348
11
0.255684
21
0.321354
0
LINE
8
BLACK
6
CONTINUOUS
10
0.255684
20
0.321354
11
0.294504
21
0.321354
0
LINE
8
BLACK
6
CONTINUOUS
10
0.294504
20
0.321354
11
0.294504
21
0.336118
0
LINE
8
BLACK
6
CONTINUOUS
10
0.294504
20
0.336118
11
0.306315
21
0.336118
0
LINE
8
BLACK
6
CONTINUOUS
10
0.306315
20
0.336118
11
0.306315
21
0.296748
0
LINE
8
BLACK
6
CONTINUOUS
10
0.306315
20
0.296748
11
0.294504
21
0.296748
0
LINE
8
BLACK
6
CONTINUOUS
10
0.294504
20
0.296748
11
0.294504
21
0.311512
0
LINE
8
BLACK
6
CONTINUOUS
10
0.294504
20
0.311512
11
0.253646
21
0.311512
0
LINE
8
BLACK
6
CONTINUOUS
10
0.253646
20
0.311512
11
0.252778
21
0.311638
0
LINE
8
BLACK
6
CONTINUOUS
10
0.252778
20
0.311638
11
0.252597
21
0.311625
0
LINE
8
BLACK
6
CONTINUOUS
10
0.252597
20
0.311625
11
0.2525
21
0.311678
0
LINE
8
BLACK
6
CONTINUOUS
10
0.2525
20
0.311678
11
0.252248
21
0.311714
0
LINE
8
BLACK
6
CONTINUOUS
10
0.252248
20
0.311714
11
0.25123
21
0.312372
0
LINE
8
BLACK
6
CONTINUOUS
10
0.25123
20
0.312372
11
0.250166
21
0.312953
0
LINE
8
BLACK
6
CONTINUOUS
10
0.250166
20
0.312953
11
0.16804
21
0.395079
0
LINE
8
BLACK
6
CONTINUOUS
10
0.16804
20
0.395079
11
0.048782
21
0.395079
0
LINE
8
BLACK
6
CONTINUOUS
10
0.048782
20
0.395079
11
0.048465
21
0.391454
0
LINE
8
BLACK
6
CONTINUOUS
10
0.048465
20
0.391454
11
0.0462447
21
0.383168
0
LINE
8
BLACK
6
CONTINUOUS
10
0.0462447
20
0.383168
11
0.0426194
21
0.375394
0
LINE
8
BLACK
6
CONTINUOUS
10
0.0426194
20
0.375394
11
0.0376991
21
0.368367
0
LINE
8
BLACK
6
CONTINUOUS
10
0.0376991
20
0.368367
11
0.0316333
21
0.362301
0
LINE
8
BLACK
6
CONTINUOUS
10
0.0316333
20
0.362301
11
0.0246063
21
0.357381
0
LINE
8
BLACK
6
CONTINUOUS
10
0.0246063
20
0.357381
11
0.0168317
21
0.353755
0
LINE
8
BLACK
6
CONTINUOUS
10
0.0168317
20
0.353755
11
0.00854567
21
0.351535
0
LINE
8
BLACK
6
CONTINUOUS
10
0.00854567
20
0.351535
11
0
21
0.350787
0
LINE
8
BLACK
6
CONTINUOUS
10
0
20
0.350787
11
-0.00854567
21
0.351535
0
LINE
8
BLACK
6
CONTINUOUS
10
-0.00854567
20
0.351535
11
-0.0168317
21
0.353755
0
LINE
8
BLACK
6
CONTINUOUS
10
-0.0168317
20
0.353755
11
-0.0246063
21
0.357381
0
LINE
8
BLACK
6
CONTINUOUS
10
-0.0246063
20
0.357381
11
-0.0316333
21
0.362301
0
LINE
8
BLACK
6
CONTINUOUS
10
-0.0316333
20
0.362301
11
-0.0376991
21
0.368367
0
LINE
8
BLACK
6
CONTINUOUS
10
-0.0376991
20
0.368367
11
-0.0426194
21
0.375394
0
LINE
8
BLACK
6
CONTINUOUS
10
-0.0426194
20
0.375394
11
-0.0462447
21
0.383168
0
LINE
8
BLACK
6
CONTINUOUS
10
-0.0462447
20
0.383168
11
-0.048465
21
0.391454
0
LINE
8
BLACK
6
CONTINUOUS
10
-0.048465
20
0.391454
11
-0.0492126
21
0.4
0
LINE
8
BLACK
6
CONTINUOUS
10
-0.0492126
20
0.4
11
-0.048465
21
0.408546
0
LINE
8
BLACK
6
CONTINUOUS
10
-0.048465
20
0.408546
11
-0.0462447
21
0.416832
0
LINE
8
BLACK
6
CONTINUOUS
10
-0.0462447
20
0.416832
11
-0.0426194
21
0.424606
0
LINE
8
BLACK
6
CONTINUOUS
10
-0.0426194
20
0.424606
11
-0.0376991
21
0.431633
0
LINE
8
BLACK
6
CONTINUOUS
10
-0.0376991
20
0.431633
11
-0.0316333
21
0.437699
0
LINE
8
BLACK
6
CONTINUOUS
10
-0.0316333
20
0.437699
11
-0.0246063
21
0.442619
0
LINE
8
BLACK
6
CONTINUOUS
10
-0.0246063
20
0.442619
11
-0.0168317
21
0.446245
0
LINE
8
BLACK
6
CONTINUOUS
10
-0.0168317
20
0.446245
11
-0.00854567
21
0.448465
0
LINE
8
BLACK
6
CONTINUOUS
10
-0.00854567
20
0.448465
11
0
21
0.449213
0
LINE
8
BLACK
6
CONTINUOUS
10
0
20
0.449213
11
0.00854567
21
0.448465
0
LINE
8
BLACK
6
CONTINUOUS
10
0.331906
20
0.296748
11
0.320094
21
0.296748
0
LINE
8
BLACK
6
CONTINUOUS
10
0.320094
20
0.296748
11
0.320094
21
0.336118
0
LINE
8
BLACK
6
CONTINUOUS
10
0.320094
20
0.336118
11
0.331906
21
0.336118
0
LINE
8
BLACK
6
CONTINUOUS
10
0.331906
20
0.336118
11
0.331906
21
0.296748
0
LINE
8
BLACK
6
CONTINUOUS
10
0.357496
20
0.296748
11
0.345685
21
0.296748
0
LINE
8
BLACK
6
CONTINUOUS
10
0.345685
20
0.296748
11
0.345685
21
0.336118
0
LINE
8
BLACK
6
CONTINUOUS
10
0.345685
20
0.336118
11
0.357496
21
0.336118
0
LINE
8
BLACK
6
CONTINUOUS
10
0.357496
20
0.336118
11
0.357496
21
0.296748
0
LINE
8
BLACK
6
CONTINUOUS
10
0.672483
20
0.383503
11
0.675676
21
0.381369
0
LINE
8
BLACK
6
CONTINUOUS
10
0.675676
20
0.381369
11
0.67781
21
0.378176
0
LINE
8
BLACK
6
CONTINUOUS
10
0.67781
20
0.378176
11
0.678559
21
0.374409
0
LINE
8
BLACK
6
CONTINUOUS
10
0.678559
20
0.374409
11
0.678559
21
0.353937
0
LINE
8
BLACK
6
CONTINUOUS
10
0.678559
20
0.353937
11
0.72
21
0.353937
0
LINE
8
BLACK
6
CONTINUOUS
10
0.72
20
0.353937
11
0.72
21
0.38
0
LINE
8
BLACK
6
CONTINUOUS
10
0.72
20
0.38
11
0.78
21
0.38
0
LINE
8
BLACK
6
CONTINUOUS
10
0.78
20
0.38
11
0.78
21
0.353937
0
LINE
8
BLACK
6
CONTINUOUS
10
0.78
20
0.353937
11
0.82
21
0.353937
0
LINE
8
BLACK
6
CONTINUOUS
10
0.82
20
0.353937
11
0.82
21
0.38
0
LINE
8
BLACK
6
CONTINUOUS
10
0.82
20
0.38
11
0.88
21
0.38
0
LINE
8
BLACK
6
CONTINUOUS
10
0.88
20
0.38
11
0.88
21
0.32
0
LINE
8
BLACK
6
CONTINUOUS
10
0.88
20
0.32
11
0.82
21
0.32
0
LINE
8
BLACK
6
CONTINUOUS
10
0.82
20
0.32
11
0.82
21
0.346063
0
LINE
8
BLACK
6
CONTINUOUS
10
0.82
20
0.346063
11
0.78
21
0.346063
0
LINE
8
BLACK
6
CONTINUOUS
10
0.78
20
0.346063
11
0.78
21
0.32
0
LINE
8
BLACK
6
CONTINUOUS
10
0.78
20
0.32
11
0.72
21
0.32
0
LINE
8
BLACK
6
CONTINUOUS
10
0.72
20
0.32
11
0.72
21
0.346063
0
LINE
8
BLACK
6
CONTINUOUS
10
0.72
20
0.346063
11
0.674603
21
0.346063
0
LINE
8
BLACK
6
CONTINUOUS
10
0.674603
20
0.346063
11
0.672483
21
0.344647
0
LINE
8
BLACK
6
CONTINUOUS
10
0.672483
20
0.344647
11
0.668717
21
0.343898
0
LINE
8
BLACK
6
CONTINUOUS
10
0.668717
20
0.343898
11
0.633283
21
0.343898
0
LINE
8
BLACK
6
CONTINUOUS
10
0.633283
20
0.343898
11
0.629517
21
0.344647
0
LINE
8
BLACK
6
CONTINUOUS
10
0.629517
20
0.344647
11
0.626324
21
0.34678
0
LINE
8
BLACK
6
CONTINUOUS
10
0.626324
20
0.34678
11
0.62419
21
0.349974
0
LINE
8
BLACK
6
CONTINUOUS
10
0.62419
20
0.349974
11
0.623441
21
0.35374
0
LINE
8
BLACK
6
CONTINUOUS
10
0.623441
20
0.35374
11
0.623441
21
0.374409
0
LINE
8
BLACK
6
CONTINUOUS
10
0.623441
20
0.374409
11
0.62419
21
0.378176
0
LINE
8
BLACK
6
CONTINUOUS
10
0.62419
20
0.378176
11
0.626324
21
0.381369
0
LINE
8
BLACK
6
CONTINUOUS
10
0.626324
20
0.381369
11
0.629517
21
0.383503
0
LINE
8
BLACK
6
CONTINUOUS
10
0.629517
20
0.383503
11
0.633283
21
0.384252
0
LINE
8
BLACK
6
CONTINUOUS
10
0.633283
20
0.384252
11
0.668717
21
0.384252
0
LINE
8
BLACK
6
CONTINUOUS
10
0.668717
20
0.384252
11
0.672483
21
0.383503
0
LINE
8
BLACK
6
CONTINUOUS
10
0.366208
20
0.427794
11
0.369401
21
0.425661
0
LINE
8
BLACK
6
CONTINUOUS
10
0.369401
20
0.425661
11
0.371534
21
0.422467
0
LINE
8
BLACK
6
CONTINUOUS
10
0.371534
20
0.422467
11
0.372283
21
0.418701
0
LINE
8
BLACK
6
CONTINUOUS
10
0.372283
20
0.418701
11
0.372283
21
0.381299
0
LINE
8
BLACK
6
CONTINUOUS
10
0.372283
20
0.381299
11
0.371534
21
0.377533
0
LINE
8
BLACK
6
CONTINUOUS
10
0.371534
20
0.377533
11
0.369401
21
0.374339
0
LINE
8
BLACK
6
CONTINUOUS
10
0.369401
20
0.374339
11
0.366208
21
0.372206
0
LINE
8
BLACK
6
CONTINUOUS
10
0.366208
20
0.372206
11
0.362441
21
0.371457
0
LINE
8
BLACK
6
CONTINUOUS
10
0.362441
20
0.371457
11
0.342756
21
0.371457
0
LINE
8
BLACK
6
CONTINUOUS
10
0.342756
20
0.371457
11
0.338989
21
0.372206
0
LINE
8
BLACK
6
CONTINUOUS
10
0.338989
20
0.372206
11
0.335796
21
0.374339
0
LINE
8
BLACK
6
CONTINUOUS
10
0.335796
20
0.374339
11
0.333663
21
0.377533
0
LINE
8
BLACK
6
CONTINUOUS
10
0.333663
20
0.377533
11
0.332913
21
0.381299
0
LINE
8
BLACK
6
CONTINUOUS
10
0.332913
20
0.381299
11
0.332913
21
0.418701
0
LINE
8
BLACK
6
CONTINUOUS
10
0.332913
20
0.418701
11
0.333663
21
0.422467
0
LINE
8
BLACK
6
CONTINUOUS
10
0.333663
20
0.422467
11
0.335796
21
0.425661
0
LINE
8
BLACK
6
CONTINUOUS
10
0.335796
20
0.425661
11
0.338989
21
0.427794
0
LINE
8
BLACK
6
CONTINUOUS
10
0.338989
20
0.427794
11
0.342756
21
0.428543
0
LINE
8
BLACK
6
CONTINUOUS
10
0.342756
20
0.428543
11
0.362441
21
0.428543
0
LINE
8
BLACK
6
CONTINUOUS
10
0.362441
20
0.428543
11
0.366208
21
0.427794
0
LINE
8
BLACK
6
CONTINUOUS
10
0.441011
20
0.427794
11
0.444204
21
0.425661
0
LINE
8
BLACK
6
CONTINUOUS
10
0.444204
20
0.425661
11
0.446337
21
0.422467
0
LINE
8
BLACK
6
CONTINUOUS
10
0.446337
20
0.422467
11
0.447087
21
0.418701
0
LINE
8
BLACK
6
CONTINUOUS
10
0.447087
20
0.418701
11
0.447087
21
0.381299
0
LINE
8
BLACK
6
CONTINUOUS
10
0.447087
20
0.381299
11
0.446337
21
0.377533
0
LINE
8
BLACK
6
CONTINUOUS
10
0.446337
20
0.377533
11
0.444204
21
0.374339
0
LINE
8
BLACK
6
CONTINUOUS
10
0.444204
20
0.374339
11
0.441011
21
0.372206
0
LINE
8
BLACK
6
CONTINUOUS
10
0.441011
20
0.372206
11
0.437244
21
0.371457
0
LINE
8
BLACK
6
CONTINUOUS
10
0.437244
20
0.371457
11
0.417559
21
0.371457
0
LINE
8
BLACK
6
CONTINUOUS
10
0.417559
20
0.371457
11
0.413792
21
0.372206
0
LINE
8
BLACK
6
CONTINUOUS
10
0.413792
20
0.372206
11
0.410599
21
0.374339
0
LINE
8
BLACK
6
CONTINUOUS
10
0.410599
20
0.374339
11
0.408466
21
0.377533
0
LINE
8
BLACK
6
CONTINUOUS
10
0.408466
20
0.377533
11
0.407717
21
0.381299
0
LINE
8
BLACK
6
CONTINUOUS
10
0.407717
20
0.381299
11
0.407717
21
0.418701
0
LINE
8
BLACK
6
CONTINUOUS
10
0.407717
20
0.418701
11
0.408466
21
0.422467
0
LINE
8
BLACK
6
CONTINUOUS
10
0.408466
20
0.422467
11
0.410599
21
0.425661
0
LINE
8
BLACK
6
CONTINUOUS
10
0.410599
20
0.425661
11
0.413792
21
0.427794
0
LINE
8
BLACK
6
CONTINUOUS
10
0.413792
20
0.427794
11
0.417559
21
0.428543
0
LINE
8
BLACK
6
CONTINUOUS
10
0.417559
20
0.428543
11
0.437244
21
0.428543
0
LINE
8
BLACK
6
CONTINUOUS
10
0.437244
20
0.428543
11
0.441011
21
0.427794
0
LINE
8
BLACK
6
CONTINUOUS
10
0.78
20
0.453937
11
0.82
21
0.453937
0
LINE
8
BLACK
6
CONTINUOUS
10
0.82
20
0.453937
11
0.82
21
0.48
0
LINE
8
BLACK
6
CONTINUOUS
10
0.82
20
0.48
11
0.88
21
0.48
0
LINE
8
BLACK
6
CONTINUOUS
10
0.88
20
0.48
11
0.88
21
0.42
0
LINE
8
BLACK
6
CONTINUOUS
10
0.88
20
0.42
11
0.82
21
0.42
0
LINE
8
BLACK
6
CONTINUOUS
10
0.82
20
0.42
11
0.82
21
0.446063
0
LINE
8
BLACK
6
CONTINUOUS
10
0.82
20
0.446063
11
0.78
21
0.446063
0
LINE
8
BLACK
6
CONTINUOUS
10
0.78
20
0.446063
11
0.78
21
0.42
0
LINE
8
BLACK
6
CONTINUOUS
10
0.78
20
0.42
11
0.72
21
0.42
0
LINE
8
BLACK
6
CONTINUOUS
10
0.72
20
0.42
11
0.72
21
0.446063
0
LINE
8
BLACK
6
CONTINUOUS
10
0.72
20
0.446063
11
0.678559
21
0.446063
0
LINE
8
BLACK
6
CONTINUOUS
10
0.678559
20
0.446063
11
0.678559
21
0.425591
0
LINE
8
BLACK
6
CONTINUOUS
10
0.678559
20
0.425591
11
0.67781
21
0.421824
0
LINE
8
BLACK
6
CONTINUOUS
10
0.67781
20
0.421824
11
0.675676
21
0.418631
0
LINE
8
BLACK
6
CONTINUOUS
10
0.675676
20
0.418631
11
0.672483
21
0.416497
0
LINE
8
BLACK
6
CONTINUOUS
10
0.672483
20
0.416497
11
0.668717
21
0.415748
0
LINE
8
BLACK
6
CONTINUOUS
10
0.668717
20
0.415748
11
0.633283
21
0.415748
0
LINE
8
BLACK
6
CONTINUOUS
10
0.633283
20
0.415748
11
0.629517
21
0.416497
0
LINE
8
BLACK
6
CONTINUOUS
10
0.629517
20
0.416497
11
0.626324
21
0.418631
0
LINE
8
BLACK
6
CONTINUOUS
10
0.626324
20
0.418631
11
0.62419
21
0.421824
0
LINE
8
BLACK
6
CONTINUOUS
10
0.62419
20
0.421824
11
0.623441
21
0.425591
0
LINE
8
BLACK
6
CONTINUOUS
10
0.623441
20
0.425591
11
0.623441
21
0.44626
0
LINE
8
BLACK
6
CONTINUOUS
10
0.623441
20
0.44626
11
0.62419
21
0.450026
0
LINE
8
BLACK
6
CONTINUOUS
10
0.62419
20
0.450026
11
0.626324
21
0.45322
0
LINE
8
BLACK
6
CONTINUOUS
10
0.626324
20
0.45322
11
0.629517
21
0.455353
0
LINE
8
BLACK
6
CONTINUOUS
10
0.629517
20
0.455353
11
0.633283
21
0.456102
0
LINE
8
BLACK
6
CONTINUOUS
10
0.633283
20
0.456102
11
0.668717
21
0.456102
0
LINE
8
BLACK
6
CONTINUOUS
10
0.668717
20
0.456102
11
0.672483
21
0.455353
0
LINE
8
BLACK
6
CONTINUOUS
10
0.672483
20
0.455353
11
0.674603
21
0.453937
0
LINE
8
BLACK
6
CONTINUOUS
10
0.674603
20
0.453937
11
0.72
21
0.453937
0
LINE
8
BLACK
6
CONTINUOUS
10
0.72
20
0.453937
11
0.72
21
0.48
0
LINE
8
BLACK
6
CONTINUOUS
10
0.72
20
0.48
11
0.78
21
0.48
0
LINE
8
BLACK
6
CONTINUOUS
10
0.78
20
0.48
11
0.78
21
0.453937
0
LINE
8
BLACK
6
CONTINUOUS
10
-0.0907707
20
0.552342
11
-0.0818218
21
0.549944
0
LINE
8
BLACK
6
CONTINUOUS
10
-0.0818218
20
0.549944
11
-0.0734252
21
0.546029
0
LINE
8
BLACK
6
CONTINUOUS
10
-0.0734252
20
0.546029
11
-0.0658361
21
0.540715
0
LINE
8
BLACK
6
CONTINUOUS
10
-0.0658361
20
0.540715
11
-0.059285
21
0.534164
0
LINE
8
BLACK
6
CONTINUOUS
10
-0.059285
20
0.534164
11
-0.0539711
21
0.526575
0
LINE
8
BLACK
6
CONTINUOUS
10
-0.0539711
20
0.526575
11
-0.0500557
21
0.518178
0
LINE
8
BLACK
6
CONTINUOUS
10
-0.0500557
20
0.518178
11
-0.0476579
21
0.509229
0
LINE
8
BLACK
6
CONTINUOUS
10
-0.0476579
20
0.509229
11
-0.0468504
21
0.5
0
LINE
8
BLACK
6
CONTINUOUS
10
-0.0468504
20
0.5
11
-0.0476579
21
0.490771
0
LINE
8
BLACK
6
CONTINUOUS
10
-0.0476579
20
0.490771
11
-0.0500557
21
0.481822
0
LINE
8
BLACK
6
CONTINUOUS
10
-0.0500557
20
0.481822
11
-0.0539711
21
0.473425
0
LINE
8
BLACK
6
CONTINUOUS
10
-0.0539711
20
0.473425
11
-0.059285
21
0.465836
0
LINE
8
BLACK
6
CONTINUOUS
10
-0.059285
20
0.465836
11
-0.0658361
21
0.459285
0
LINE
8
BLACK
6
CONTINUOUS
10
-0.0658361
20
0.459285
11
-0.0734252
21
0.453971
0
LINE
8
BLACK
6
CONTINUOUS
10
-0.0734252
20
0.453971
11
-0.0818218
21
0.450056
0
LINE
8
BLACK
6
CONTINUOUS
10
-0.0818218
20
0.450056
11
-0.0907707
21
0.447658
0
LINE
8
BLACK
6
CONTINUOUS
10
-0.0907707
20
0.447658
11
-0.1
21
0.44685
0
LINE
8
BLACK
6
CONTINUOUS
10
-0.1
20
0.44685
11
-0.109229
21
0.447658
0
LINE
8
BLACK
6
CONTINUOUS
10
-0.109229
20
0.447658
11
-0.118178
21
0.450056
0
LINE
8
BLACK
6
CONTINUOUS
10
-0.118178
20
0.450056
11
-0.126575
21
0.453971
0
LINE
8
BLACK
6
CONTINUOUS
10
-0.126575
20
0.453971
11
-0.134164
21
0.459285
0
LINE
8
BLACK
6
CONTINUOUS
10
-0.134164
20
0.459285
11
-0.140715
21
0.465836
0
LINE
8
BLACK
6
CONTINUOUS
10
-0.140715
20
0.465836
11
-0.146029
21
0.473425
0
LINE
8
BLACK
6
CONTINUOUS
10
-0.146029
20
0.473425
11
-0.149944
21
0.481822
0
LINE
8
BLACK
6
CONTINUOUS
10
-0.149944
20
0.481822
11
-0.152342
21
0.490771
0
LINE
8
BLACK
6
CONTINUOUS
10
-0.152342
20
0.490771
11
-0.15315
21
0.5
0
LINE
8
BLACK
6
CONTINUOUS
10
-0.15315
20
0.5
11
-0.152342
21
0.509229
0
LINE
8
BLACK
6
CONTINUOUS
10
-0.152342
20
0.509229
11
-0.149944
21
0.518178
0
LINE
8
BLACK
6
CONTINUOUS
10
-0.149944
20
0.518178
11
-0.146029
21
0.526575
0
LINE
8
BLACK
6
CONTINUOUS
10
-0.146029
20
0.526575
11
-0.140715
21
0.534164
0
LINE
8
BLACK
6
CONTINUOUS
10
-0.140715
20
0.534164
11
-0.134164
21
0.540715
0
LINE
8
BLACK
6
CONTINUOUS
10
-0.134164
20
0.540715
11
-0.126575
21
0.546029
0
LINE
8
BLACK
6
CONTINUOUS
10
-0.126575
20
0.546029
11
-0.118178
21
0.549944
0
LINE
8
BLACK
6
CONTINUOUS
10
-0.118178
20
0.549944
11
-0.109229
21
0.552342
0
LINE
8
BLACK
6
CONTINUOUS
10
-0.109229
20
0.552342
11
-0.1
21
0.55315
0
LINE
8
BLACK
6
CONTINUOUS
10
-0.1
20
0.55315
11
-0.0907707
21
0.552342
0
LINE
8
BLACK
6
CONTINUOUS
10
0.109229
20
0.552342
11
0.118178
21
0.549944
0
LINE
8
BLACK
6
CONTINUOUS
10
0.118178
20
0.549944
11
0.126575
21
0.546029
0
LINE
8
BLACK
6
CONTINUOUS
10
0.126575
20
0.546029
11
0.134164
21
0.540715
0
LINE
8
BLACK
6
CONTINUOUS
10
0.134164
20
0.540715
11
0.140715
21
0.534164
0
LINE
8
BLACK
6
CONTINUOUS
10
0.140715
20
0.534164
11
0.146029
21
0.526575
0
LINE
8
BLACK
6
CONTINUOUS
10
0.146029
20
0.526575
11
0.149944
21
0.518178
0
LINE
8
BLACK
6
CONTINUOUS
10
0.149944
20
0.518178
11
0.152342
21
0.509229
0
LINE
8
BLACK
6
CONTINUOUS
10
0.152342
20
0.509229
11
0.15315
21
0.5
0
LINE
8
BLACK
6
CONTINUOUS
10
0.15315
20
0.5
11
0.152342
21
0.490771
0
LINE
8
BLACK
6
CONTINUOUS
10
0.152342
20
0.490771
11
0.149944
21
0.481822
0
LINE
8
BLACK
6
CONTINUOUS
10
0.149944
20
0.481822
11
0.146029
21
0.473425
0
LINE
8
BLACK
6
CONTINUOUS
10
0.146029
20
0.473425
11
0.140715
21
0.465836
0
LINE
8
BLACK
6
CONTINUOUS
10
0.140715
20
0.465836
11
0.134164
21
0.459285
0
LINE
8
BLACK
6
CONTINUOUS
10
0.134164
20
0.459285
11
0.126575
21
0.453971
0
LINE
8
BLACK
6
CONTINUOUS
10
0.126575
20
0.453971
11
0.118178
21
0.450056
0
LINE
8
BLACK
6
CONTINUOUS
10
0.118178
20
0.450056
11
0.109229
21
0.447658
0
LINE
8
BLACK
6
CONTINUOUS
10
0.109229
20
0.447658
11
0.1
21
0.44685
0
LINE
8
BLACK
6
CONTINUOUS
10
0.1
20
0.44685
11
0.0907707
21
0.447658
0
LINE
8
BLACK
6
CONTINUOUS
10
0.0907707
20
0.447658
11
0.0818218
21
0.450056
0
LINE
8
BLACK
6
CONTINUOUS
10
0.0818218
20
0.450056
11
0.0734252
21
0.453971
0
LINE
8
BLACK
6
CONTINUOUS
10
0.0734252
20
0.453971
11
0.0658361
21
0.459285
0
LINE
8
BLACK
6
CONTINUOUS
10
0.0658361
20
0.459285
11
0.059285
21
0.465836
0
LINE
8
BLACK
6
CONTINUOUS
10
0.059285
20
0.465836
11
0.0539711
21
0.473425
0
LINE
8
BLACK
6
CONTINUOUS
10
0.0539711
20
0.473425
11
0.0500557
21
0.481822
0
LINE
8
BLACK
6
CONTINUOUS
10
0.0500557
20
0.481822
11
0.0476579
21
0.490771
0
LINE
8
BLACK
6
CONTINUOUS
10
0.0476579
20
0.490771
11
0.0468504
21
0.5
0
LINE
8
BLACK
6
CONTINUOUS
10
0.0468504
20
0.5
11
0.0476579
21
0.509229
0
LINE
8
BLACK
6
CONTINUOUS
10
0.0476579
20
0.509229
11
0.0500557
21
0.518178
0
LINE
8
BLACK
6
CONTINUOUS
10
0.0500557
20
0.518178
11
0.0539711
21
0.526575
0
LINE
8
BLACK
6
CONTINUOUS
10
0.0539711
20
0.526575
11
0.059285
21
0.534164
0
LINE
8
BLACK
6
CONTINUOUS
10
0.059285
20
0.534164
11
0.0658361
21
0.540715
0
LINE
8
BLACK
6
CONTINUOUS
10
0.0658361
20
0.540715
11
0.0734252
21
0.546029
0
LINE
8
BLACK
6
CONTINUOUS
10
0.0734252
20
0.546029
11
0.0818218
21
0.549944
0
LINE
8
BLACK
6
CONTINUOUS
10
0.0818218
20
0.549944
11
0.0907707
21
0.552342
0
LINE
8
BLACK
6
CONTINUOUS
10
0.0907707
20
0.552342
11
0.1
21
0.55315
0
LINE
8
BLACK
6
CONTINUOUS
10
0.1
20
0.55315
11
0.109229
21
0.552342
0
LINE
8
BLACK
6
CONTINUOUS
10
0.53
20
0.47
11
0.47
21
0.47
0
LINE
8
BLACK
6
CONTINUOUS
10
0.47
20
0.47
11
0.47
21
0.53
0
LINE
8
BLACK
6
CONTINUOUS
10
0.47
20
0.53
11
0.53
21
0.53
0
LINE
8
BLACK
6
CONTINUOUS
10
0.53
20
0.53
11
0.53
21
0.47
0
LINE
8
BLACK
6
CONTINUOUS
10
0.43
20
0.47
11
0.37
21
0.47
0
LINE
8
BLACK
6
CONTINUOUS
10
0.37
20
0.47
11
0.37
21
0.53
0
LINE
8
BLACK
6
CONTINUOUS
10
0.37
20
0.53
11
0.43
21
0.53
0
LINE
8
BLACK
6
CONTINUOUS
10
0.43
20
0.53
11
0.43
21
0.47
0
LINE
8
BLACK
6
CONTINUOUS
10
0.295433
20
0.472047
11
0.224567
21
0.472047
0
LINE
8
BLACK
6
CONTINUOUS
10
0.224567
20
0.472047
11
0.224567
21
0.570472
0
LINE
8
BLACK
6
CONTINUOUS
10
0.224567
20
0.570472
11
0.295433
21
0.570472
0
LINE
8
BLACK
6
CONTINUOUS
10
0.295433
20
0.570472
11
0.295433
21
0.472047
0
LINE
8
BLACK
6
CONTINUOUS
10
0.632467
20
0.541534
11
0.635661
21
0.539401
0
LINE
8
BLACK
6
CONTINUOUS
10
0.635661
20
0.539401
11
0.637794
21
0.536208
0
LINE
8
BLACK
6
CONTINUOUS
10
0.637794
20
0.536208
11
0.638543
21
0.532441
0
LINE
8
BLACK
6
CONTINUOUS
10
0.638543
20
0.532441
11
0.638543
21
0.512756
0
LINE
8
BLACK
6
CONTINUOUS
10
0.638543
20
0.512756
11
0.637794
21
0.508989
0
LINE
8
BLACK
6
CONTINUOUS
10
0.637794
20
0.508989
11
0.635661
21
0.505796
0
LINE
8
BLACK
6
CONTINUOUS
10
0.635661
20
0.505796
11
0.632467
21
0.503663
0
LINE
8
BLACK
6
CONTINUOUS
10
0.632467
20
0.503663
11
0.628701
21
0.502913
0
LINE
8
BLACK
6
CONTINUOUS
10
0.628701
20
0.502913
11
0.591299
21
0.502913
0
LINE
8
BLACK
6
CONTINUOUS
10
0.591299
20
0.502913
11
0.587533
21
0.503663
0
LINE
8
BLACK
6
CONTINUOUS
10
0.587533
20
0.503663
11
0.584339
21
0.505796
0
LINE
8
BLACK
6
CONTINUOUS
10
0.584339
20
0.505796
11
0.582206
21
0.508989
0
LINE
8
BLACK
6
CONTINUOUS
10
0.582206
20
0.508989
11
0.581457
21
0.512756
0
LINE
8
BLACK
6
CONTINUOUS
10
0.581457
20
0.512756
11
0.581457
21
0.532441
0
LINE
8
BLACK
6
CONTINUOUS
10
0.581457
20
0.532441
11
0.582206
21
0.536208
0
LINE
8
BLACK
6
CONTINUOUS
10
0.582206
20
0.536208
11
0.584339
21
0.539401
0
LINE
8
BLACK
6
CONTINUOUS
10
0.584339
20
0.539401
11
0.587533
21
0.541534
0
LINE
8
BLACK
6
CONTINUOUS
10
0.587533
20
0.541534
11
0.591299
21
0.542283
0
LINE
8
BLACK
6
CONTINUOUS
10
0.591299
20
0.542283
11
0.628701
21
0.542283
0
LINE
8
BLACK
6
CONTINUOUS
10
0.628701
20
0.542283
11
0.632467
21
0.541534
0
LINE
8
BLACK
6
CONTINUOUS
10
0.78
20
0.52
11
0.72
21
0.52
0
LINE
8
BLACK
6
CONTINUOUS
10
0.72
20
0.52
11
0.72
21
0.58
0
LINE
8
BLACK
6
CONTINUOUS
10
0.72
20
0.58
11
0.78
21
0.58
0
LINE
8
BLACK
6
CONTINUOUS
10
0.78
20
0.58
11
0.78
21
0.52
0
LINE
8
BLACK
6
CONTINUOUS
10
0.88
20
0.52
11
0.82
21
0.52
0
LINE
8
BLACK
6
CONTINUOUS
10
0.82
20
0.52
11
0.82
21
0.58
0
LINE
8
BLACK
6
CONTINUOUS
10
0.82
20
0.58
11
0.88
21
0.58
0
LINE
8
BLACK
6
CONTINUOUS
10
0.88
20
0.58
11
0.88
21
0.52
0
LINE
8
BLACK
6
CONTINUOUS
10
0.53
20
0.57
11
0.47
21
0.57
0
LINE
8
BLACK
6
CONTINUOUS
10
0.47
20
0.57
11
0.47
21
0.63
0
LINE
8
BLACK
6
CONTINUOUS
10
0.47
20
0.63
11
0.53
21
0.63
0
LINE
8
BLACK
6
CONTINUOUS
10
0.53
20
0.63
11
0.53
21
0.57
0
LINE
8
BLACK
6
CONTINUOUS
10
0.43
20
0.57
11
0.37
21
0.57
0
LINE
8
BLACK
6
CONTINUOUS
10
0.37
20
0.57
11
0.37
21
0.63
0
LINE
8
BLACK
6
CONTINUOUS
10
0.37
20
0.63
11
0.43
21
0.63
0
LINE
8
BLACK
6
CONTINUOUS
10
0.43
20
0.63
11
0.43
21
0.57
0
LINE
8
BLACK
6
CONTINUOUS
10
0.632467
20
0.616337
11
0.635661
21
0.614204
0
LINE
8
BLACK
6
CONTINUOUS
10
0.635661
20
0.614204
11
0.637794
21
0.611011
0
LINE
8
BLACK
6
CONTINUOUS
10
0.637794
20
0.611011
11
0.638543
21
0.607244
0
LINE
8
BLACK
6
CONTINUOUS
10
0.638543
20
0.607244
11
0.638543
21
0.587559
0
LINE
8
BLACK
6
CONTINUOUS
10
0.638543
20
0.587559
11
0.637794
21
0.583792
0
LINE
8
BLACK
6
CONTINUOUS
10
0.637794
20
0.583792
11
0.635661
21
0.580599
0
LINE
8
BLACK
6
CONTINUOUS
10
0.635661
20
0.580599
11
0.632467
21
0.578466
0
LINE
8
BLACK
6
CONTINUOUS
10
0.632467
20
0.578466
11
0.628701
21
0.577717
0
LINE
8
BLACK
6
CONTINUOUS
10
0.628701
20
0.577717
11
0.591299
21
0.577717
0
LINE
8
BLACK
6
CONTINUOUS
10
0.591299
20
0.577717
11
0.587533
21
0.578466
0
LINE
8
BLACK
6
CONTINUOUS
10
0.587533
20
0.578466
11
0.584339
21
0.580599
0
LINE
8
BLACK
6
CONTINUOUS
10
0.584339
20
0.580599
11
0.582206
21
0.583792
0
LINE
8
BLACK
6
CONTINUOUS
10
0.582206
20
0.583792
11
0.581457
21
0.587559
0
LINE
8
BLACK
6
CONTINUOUS
10
0.581457
20
0.587559
11
0.581457
21
0.607244
0
LINE
8
BLACK
6
CONTINUOUS
10
0.581457
20
0.607244
11
0.582206
21
0.611011
0
LINE
8
BLACK
6
CONTINUOUS
10
0.582206
20
0.611011
11
0.584339
21
0.614204
0
LINE
8
BLACK
6
CONTINUOUS
10
0.584339
20
0.614204
11
0.587533
21
0.616337
0
LINE
8
BLACK
6
CONTINUOUS
10
0.587533
20
0.616337
11
0.591299
21
0.617087
0
LINE
8
BLACK
6
CONTINUOUS
10
0.591299
20
0.617087
11
0.628701
21
0.617087
0
LINE
8
BLACK
6
CONTINUOUS
10
0.628701
20
0.617087
11
0.632467
21
0.616337
0
LINE
8
BLACK
6
CONTINUOUS
10
0.88
20
0.62
11
0.82
21
0.62
0
LINE
8
BLACK
6
CONTINUOUS
10
0.82
20
0.62
11
0.82
21
0.68
0
LINE
8
BLACK
6
CONTINUOUS
10
0.82
20
0.68
11
0.88
21
0.68
0
LINE
8
BLACK
6
CONTINUOUS
10
0.88
20
0.68
11
0.88
21
0.62
0
LINE
8
BLACK
6
CONTINUOUS
10
0.78
20
0.62
11
0.72
21
0.62
0
LINE
8
BLACK
6
CONTINUOUS
10
0.72
20
0.62
11
0.72
21
0.68
0
LINE
8
BLACK
6
CONTINUOUS
10
0.72
20
0.68
11
0.78
21
0.68
0
LINE
8
BLACK
6
CONTINUOUS
10
0.78
20
0.68
11
0.78
21
0.62
0
LINE
8
BLACK
6
CONTINUOUS
10
0.295433
20
0.629528
11
0.224567
21
0.629528
0
LINE
8
BLACK
6
CONTINUOUS
10
0.224567
20
0.629528
11
0.224567
21
0.727953
0
LINE
8
BLACK
6
CONTINUOUS
10
0.224567
20
0.727953
11
0.295433
21
0.727953
0
LINE
8
BLACK
6
CONTINUOUS
10
0.295433
20
0.727953
11
0.295433
21
0.629528
0
LINE
8
BLACK
6
CONTINUOUS
10
-0.0907707
20
0.752342
11
-0.0818218
21
0.749944
0
LINE
8
BLACK
6
CONTINUOUS
10
-0.0818218
20
0.749944
11
-0.0734252
21
0.746029
0
LINE
8
BLACK
6
CONTINUOUS
10
-0.0734252
20
0.746029
11
-0.0658361
21
0.740715
0
LINE
8
BLACK
6
CONTINUOUS
10
-0.0658361
20
0.740715
11
-0.059285
21
0.734164
0
LINE
8
BLACK
6
CONTINUOUS
10
-0.059285
20
0.734164
11
-0.0539711
21
0.726575
0
LINE
8
BLACK
6
CONTINUOUS
10
-0.0539711
20
0.726575
11
-0.0500557
21
0.718178
0
LINE
8
BLACK
6
CONTINUOUS
10
-0.0500557
20
0.718178
11
-0.0476579
21
0.709229
0
LINE
8
BLACK
6
CONTINUOUS
10
-0.0476579
20
0.709229
11
-0.0468504
21
0.7
0
LINE
8
BLACK
6
CONTINUOUS
10
-0.0468504
20
0.7
11
-0.0476579
21
0.690771
0
LINE
8
BLACK
6
CONTINUOUS
10
-0.0476579
20
0.690771
11
-0.0500557
21
0.681822
0
LINE
8
BLACK
6
CONTINUOUS
10
-0.0500557
20
0.681822
11
-0.0539711
21
0.673425
0
LINE
8
BLACK
6
CONTINUOUS
10
-0.0539711
20
0.673425
11
-0.059285
21
0.665836
0
LINE
8
BLACK
6
CONTINUOUS
10
-0.059285
20
0.665836
11
-0.0658361
21
0.659285
0
LINE
8
BLACK
6
CONTINUOUS
10
-0.0658361
20
0.659285
11
-0.0734252
21
0.653971
0
LINE
8
BLACK
6
CONTINUOUS
10
-0.0734252
20
0.653971
11
-0.0818218
21
0.650056
0
LINE
8
BLACK
6
CONTINUOUS
10
-0.0818218
20
0.650056
11
-0.0907707
21
0.647658
0
LINE
8
BLACK
6
CONTINUOUS
10
-0.0907707
20
0.647658
11
-0.1
21
0.64685
0
LINE
8
BLACK
6
CONTINUOUS
10
-0.1
20
0.64685
11
-0.109229
21
0.647658
0
LINE
8
BLACK
6
CONTINUOUS
10
-0.109229
20
0.647658
11
-0.118178
21
0.650056
0
LINE
8
BLACK
6
CONTINUOUS
10
-0.118178
20
0.650056
11
-0.126575
21
0.653971
0
LINE
8
BLACK
6
CONTINUOUS
10
-0.126575
20
0.653971
11
-0.134164
21
0.659285
0
LINE
8
BLACK
6
CONTINUOUS
10
-0.134164
20
0.659285
11
-0.140715
21
0.665836
0
LINE
8
BLACK
6
CONTINUOUS
10
-0.140715
20
0.665836
11
-0.146029
21
0.673425
0
LINE
8
BLACK
6
CONTINUOUS
10
-0.146029
20
0.673425
11
-0.149944
21
0.681822
0
LINE
8
BLACK
6
CONTINUOUS
10
-0.149944
20
0.681822
11
-0.152342
21
0.690771
0
LINE
8
BLACK
6
CONTINUOUS
10
-0.152342
20
0.690771
11
-0.15315
21
0.7
0
LINE
8
BLACK
6
CONTINUOUS
10
-0.15315
20
0.7
11
-0.152342
21
0.709229
0
LINE
8
BLACK
6
CONTINUOUS
10
-0.152342
20
0.709229
11
-0.149944
21
0.718178
0
LINE
8
BLACK
6
CONTINUOUS
10
-0.149944
20
0.718178
11
-0.146029
21
0.726575
0
LINE
8
BLACK
6
CONTINUOUS
10
-0.146029
20
0.726575
11
-0.140715
21
0.734164
0
LINE
8
BLACK
6
CONTINUOUS
10
-0.140715
20
0.734164
11
-0.134164
21
0.740715
0
LINE
8
BLACK
6
CONTINUOUS
10
-0.134164
20
0.740715
11
-0.126575
21
0.746029
0
LINE
8
BLACK
6
CONTINUOUS
10
-0.126575
20
0.746029
11
-0.118178
21
0.749944
0
LINE
8
BLACK
6
CONTINUOUS
10
-0.118178
20
0.749944
11
-0.109229
21
0.752342
0
LINE
8
BLACK
6
CONTINUOUS
10
-0.109229
20
0.752342
11
-0.1
21
0.75315
0
LINE
8
BLACK
6
CONTINUOUS
10
-0.1
20
0.75315
11
-0.0907707
21
0.752342
0
LINE
8
BLACK
6
CONTINUOUS
10
0.109229
20
0.752342
11
0.118178
21
0.749944
0
LINE
8
BLACK
6
CONTINUOUS
10
0.118178
20
0.749944
11
0.126575
21
0.746029
0
LINE
8
BLACK
6
CONTINUOUS
10
0.126575
20
0.746029
11
0.134164
21
0.740715
0
LINE
8
BLACK
6
CONTINUOUS
10
0.134164
20
0.740715
11
0.140715
21
0.734164
0
LINE
8
BLACK
6
CONTINUOUS
10
0.140715
20
0.734164
11
0.146029
21
0.726575
0
LINE
8
BLACK
6
CONTINUOUS
10
0.146029
20
0.726575
11
0.149944
21
0.718178
0
LINE
8
BLACK
6
CONTINUOUS
10
0.149944
20
0.718178
11
0.152342
21
0.709229
0
LINE
8
BLACK
6
CONTINUOUS
10
0.152342
20
0.709229
11
0.15315
21
0.7
0
LINE
8
BLACK
6
CONTINUOUS
10
0.15315
20
0.7
11
0.152342
21
0.690771
0
LINE
8
BLACK
6
CONTINUOUS
10
0.152342
20
0.690771
11
0.149944
21
0.681822
0
LINE
8
BLACK
6
CONTINUOUS
10
0.149944
20
0.681822
11
0.146029
21
0.673425
0
LINE
8
BLACK
6
CONTINUOUS
10
0.146029
20
0.673425
11
0.140715
21
0.665836
0
LINE
8
BLACK
6
CONTINUOUS
10
0.140715
20
0.665836
11
0.134164
21
0.659285
0
LINE
8
BLACK
6
CONTINUOUS
10
0.134164
20
0.659285
11
0.126575
21
0.653971
0
LINE
8
BLACK
6
CONTINUOUS
10
0.126575
20
0.653971
11
0.118178
21
0.650056
0
LINE
8
BLACK
6
CONTINUOUS
10
0.118178
20
0.650056
11
0.109229
21
0.647658
0
LINE
8
BLACK
6
CONTINUOUS
10
0.109229
20
0.647658
11
0.1
21
0.64685
0
LINE
8
BLACK
6
CONTINUOUS
10
0.1
20
0.64685
11
0.0907707
21
0.647658
0
LINE
8
BLACK
6
CONTINUOUS
10
0.0907707
20
0.647658
11
0.0818218
21
0.650056
0
LINE
8
BLACK
6
CONTINUOUS
10
0.0818218
20
0.650056
11
0.0734252
21
0.653971
0
LINE
8
BLACK
6
CONTINUOUS
10
0.0734252
20
0.653971
11
0.0658361
21
0.659285
0
LINE
8
BLACK
6
CONTINUOUS
10
0.0658361
20
0.659285
11
0.059285
21
0.665836
0
LINE
8
BLACK
6
CONTINUOUS
10
0.059285
20
0.665836
11
0.0539711
21
0.673425
0
LINE
8
BLACK
6
CONTINUOUS
10
0.0539711
20
0.673425
11
0.0500557
21
0.681822
0
LINE
8
BLACK
6
CONTINUOUS
10
0.0500557
20
0.681822
11
0.0476579
21
0.690771
0
LINE
8
BLACK
6
CONTINUOUS
10
0.0476579
20
0.690771
11
0.0468504
21
0.7
0
LINE
8
BLACK
6
CONTINUOUS
10
0.0468504
20
0.7
11
0.0476579
21
0.709229
0
LINE
8
BLACK
6
CONTINUOUS
10
0.0476579
20
0.709229
11
0.0500557
21
0.718178
0
LINE
8
BLACK
6
CONTINUOUS
10
0.0500557
20
0.718178
11
0.0539711
21
0.726575
0
LINE
8
BLACK
6
CONTINUOUS
10
0.0539711
20
0.726575
11
0.059285
21
0.734164
0
LINE
8
BLACK
6
CONTINUOUS
10
0.059285
20
0.734164
11
0.0658361
21
0.740715
0
LINE
8
BLACK
6
CONTINUOUS
10
0.0658361
20
0.740715
11
0.0734252
21
0.746029
0
LINE
8
BLACK
6
CONTINUOUS
10
0.0734252
20
0.746029
11
0.0818218
21
0.749944
0
LINE
8
BLACK
6
CONTINUOUS
10
0.0818218
20
0.749944
11
0.0907707
21
0.752342
0
LINE
8
BLACK
6
CONTINUOUS
10
0.0907707
20
0.752342
11
0.1
21
0.75315
0
LINE
8
BLACK
6
CONTINUOUS
10
0.1
20
0.75315
11
0.109229
21
0.752342
0
LINE
8
BLACK
6
CONTINUOUS
10
0.43
20
0.67
11
0.37
21
0.67
0
LINE
8
BLACK
6
CONTINUOUS
10
0.37
20
0.67
11
0.37
21
0.73
0
LINE
8
BLACK
6
CONTINUOUS
10
0.37
20
0.73
11
0.43
21
0.73
0
LINE
8
BLACK
6
CONTINUOUS
10
0.43
20
0.73
11
0.43
21
0.67
0
LINE
8
BLACK
6
CONTINUOUS
10
0.53
20
0.67
11
0.47
21
0.67
0
LINE
8
BLACK
6
CONTINUOUS
10
0.47
20
0.67
11
0.47
21
0.73
0
LINE
8
BLACK
6
CONTINUOUS
10
0.47
20
0.73
11
0.53
21
0.73
0
LINE
8
BLACK
6
CONTINUOUS
10
0.53
20
0.73
11
0.53
21
0.67
0
LINE
8
BLACK
6
CONTINUOUS
10
0.485785
20
0.934953
11
0.485966
21
0.934966
0
LINE
8
BLACK
6
CONTINUOUS
10
0.485966
20
0.934966
11
0.486063
21
0.934913
0
LINE
8
BLACK
6
CONTINUOUS
10
0.486063
20
0.934913
11
0.486315
21
0.934876
0
LINE
8
BLACK
6
CONTINUOUS
10
0.486315
20
0.934876
11
0.487333
21
0.934219
0
LINE
8
BLACK
6
CONTINUOUS
10
0.487333
20
0.934219
11
0.488397
21
0.933637
0
LINE
8
BLACK
6
CONTINUOUS
10
0.488397
20
0.933637
11
0.637783
21
0.784252
0
LINE
8
BLACK
6
CONTINUOUS
10
0.637783
20
0.784252
11
0.668717
21
0.784252
0
LINE
8
BLACK
6
CONTINUOUS
10
0.668717
20
0.784252
11
0.672483
21
0.783503
0
LINE
8
BLACK
6
CONTINUOUS
10
0.672483
20
0.783503
11
0.675676
21
0.781369
0
LINE
8
BLACK
6
CONTINUOUS
10
0.675676
20
0.781369
11
0.67781
21
0.778176
0
LINE
8
BLACK
6
CONTINUOUS
10
0.67781
20
0.778176
11
0.678559
21
0.774409
0
LINE
8
BLACK
6
CONTINUOUS
10
0.678559
20
0.774409
11
0.678559
21
0.754921
0
LINE
8
BLACK
6
CONTINUOUS
10
0.678559
20
0.754921
11
0.72
21
0.754921
0
LINE
8
BLACK
6
CONTINUOUS
10
0.72
20
0.754921
11
0.72
21
0.78
0
LINE
8
BLACK
6
CONTINUOUS
10
0.72
20
0.78
11
0.78
21
0.78
0
LINE
8
BLACK
6
CONTINUOUS
10
0.78
20
0.78
11
0.78
21
0.754921
0
LINE
8
BLACK
6
CONTINUOUS
10
0.78
20
0.754921
11
0.82
21
0.754921
0
LINE
8
BLACK
6
CONTINUOUS
10
0.82
20
0.754921
11
0.82
21
0.78
0
LINE
8
BLACK
6
CONTINUOUS
10
0.82
20
0.78
11
0.88
21
0.78
0
LINE
8
BLACK
6
CONTINUOUS
10
0.88
20
0.78
11
0.88
21
0.72
0
LINE
8
BLACK
6
CONTINUOUS
10
0.88
20
0.72
11
0.82
21
0.72
0
LINE
8
BLACK
6
CONTINUOUS
10
0.82
20
0.72
11
0.82
21
0.745079
0
LINE
8
BLACK
6
CONTINUOUS
10
0.82
20
0.745079
11
0.78
21
0.745079
0
LINE
8
BLACK
6
CONTINUOUS
10
0.78
20
0.745079
11
0.78
21
0.72
0
LINE
8
BLACK
6
CONTINUOUS
10
0.78
20
0.72
11
0.72
21
0.72
0
LINE
8
BLACK
6
CONTINUOUS
10
0.72
20
0.72
11
0.72
21
0.745079
0
LINE
8
BLACK
6
CONTINUOUS
10
0.72
20
0.745079
11
0.673129
21
0.745079
0
LINE
8
BLACK
6
CONTINUOUS
10
0.673129
20
0.745079
11
0.672483
21
0.744647
0
LINE
8
BLACK
6
CONTINUOUS
10
0.672483
20
0.744647
11
0.668717
21
0.743898
0
LINE
8
BLACK
6
CONTINUOUS
10
0.668717
20
0.743898
11
0.633283
21
0.743898
0
LINE
8
BLACK
6
CONTINUOUS
10
0.633283
20
0.743898
11
0.629517
21
0.744647
0
LINE
8
BLACK
6
CONTINUOUS
10
0.629517
20
0.744647
11
0.626324
21
0.74678
0
LINE
8
BLACK
6
CONTINUOUS
10
0.626324
20
0.74678
11
0.62419
21
0.749974
0
LINE
8
BLACK
6
CONTINUOUS
10
0.62419
20
0.749974
11
0.623441
21
0.75374
0
LINE
8
BLACK
6
CONTINUOUS
10
0.623441
20
0.75374
11
0.623441
21
0.774409
0
LINE
8
BLACK
6
CONTINUOUS
10
0.623441
20
0.774409
11
0.62419
21
0.778176
0
LINE
8
BLACK
6
CONTINUOUS
10
0.62419
20
0.778176
11
0.626324
21
0.781369
0
LINE
8
BLACK
6
CONTINUOUS
10
0.626324
20
0.781369
11
0.626577
21
0.781538
0
LINE
8
BLACK
6
CONTINUOUS
10
0.626577
20
0.781538
11
0.482879
21
0.925236
0
LINE
8
BLACK
6
CONTINUOUS
10
0.482879
20
0.925236
11
0.414246
21
0.925236
0
LINE
8
BLACK
6
CONTINUOUS
10
0.414246
20
0.925236
11
0.37553
21
0.88652
0
LINE
8
BLACK
6
CONTINUOUS
10
0.37553
20
0.88652
11
0.374828
21
0.885996
0
LINE
8
BLACK
6
CONTINUOUS
10
0.374828
20
0.885996
11
0.374709
21
0.885859
0
LINE
8
BLACK
6
CONTINUOUS
10
0.374709
20
0.885859
11
0.374602
21
0.885827
0
LINE
8
BLACK
6
CONTINUOUS
10
0.374602
20
0.885827
11
0.374398
21
0.885675
0
LINE
8
BLACK
6
CONTINUOUS
10
0.374398
20
0.885675
11
0.373213
21
0.88542
0
LINE
8
BLACK
6
CONTINUOUS
10
0.373213
20
0.88542
11
0.37205
21
0.885079
0
LINE
8
BLACK
6
CONTINUOUS
10
0.37205
20
0.885079
11
0.352363
21
0.885079
0
LINE
8
BLACK
6
CONTINUOUS
10
0.352363
20
0.885079
11
0.352363
21
0.8703
0
LINE
8
BLACK
6
CONTINUOUS
10
0.352363
20
0.8703
11
0.332637
21
0.8703
0
LINE
8
BLACK
6
CONTINUOUS
10
0.332637
20
0.8703
11
0.332637
21
0.9097
0
LINE
8
BLACK
6
CONTINUOUS
10
0.332637
20
0.9097
11
0.352363
21
0.9097
0
LINE
8
BLACK
6
CONTINUOUS
10
0.352363
20
0.9097
11
0.352363
21
0.894921
0
LINE
8
BLACK
6
CONTINUOUS
10
0.352363
20
0.894921
11
0.370012
21
0.894921
0
LINE
8
BLACK
6
CONTINUOUS
10
0.370012
20
0.894921
11
0.408728
21
0.933637
0
LINE
8
BLACK
6
CONTINUOUS
10
0.408728
20
0.933637
11
0.40943
21
0.934162
0
LINE
8
BLACK
6
CONTINUOUS
10
0.40943
20
0.934162
11
0.409549
21
0.934299
0
LINE
8
BLACK
6
CONTINUOUS
10
0.409549
20
0.934299
11
0.409655
21
0.93433
0
LINE
8
BLACK
6
CONTINUOUS
10
0.409655
20
0.93433
11
0.409859
21
0.934482
0
LINE
8
BLACK
6
CONTINUOUS
10
0.409859
20
0.934482
11
0.411044
21
0.934737
0
LINE
8
BLACK
6
CONTINUOUS
10
0.411044
20
0.934737
11
0.412208
21
0.935079
0
LINE
8
BLACK
6
CONTINUOUS
10
0.412208
20
0.935079
11
0.484917
21
0.935079
0
LINE
8
BLACK
6
CONTINUOUS
10
0.484917
20
0.935079
11
0.485785
21
0.934953
0
LINE
8
BLACK
6
CONTINUOUS
10
0.277343
20
0.8703
11
0.257657
21
0.8703
0
LINE
8
BLACK
6
CONTINUOUS
10
0.257657
20
0.8703
11
0.257657
21
0.885079
0
LINE
8
BLACK
6
CONTINUOUS
10
0.257657
20
0.885079
11
0.212038
21
0.885079
0
LINE
8
BLACK
6
CONTINUOUS
10
0.212038
20
0.885079
11
0.12348
21
0.79652
0
LINE
8
BLACK
6
CONTINUOUS
10
0.12348
20
0.79652
11
0.122778
21
0.795996
0
LINE
8
BLACK
6
CONTINUOUS
10
0.122778
20
0.795996
11
0.122659
21
0.795859
0
LINE
8
BLACK
6
CONTINUOUS
10
0.122659
20
0.795859
11
0.122552
21
0.795827
0
LINE
8
BLACK
6
CONTINUOUS
10
0.122552
20
0.795827
11
0.122348
21
0.795675
0
LINE
8
BLACK
6
CONTINUOUS
10
0.122348
20
0.795675
11
0.121163
21
0.79542
0
LINE
8
BLACK
6
CONTINUOUS
10
0.121163
20
0.79542
11
0.12
21
0.795079
0
LINE
8
BLACK
6
CONTINUOUS
10
0.12
20
0.795079
11
0.048782
21
0.795079
0
LINE
8
BLACK
6
CONTINUOUS
10
0.048782
20
0.795079
11
0.048465
21
0.791454
0
LINE
8
BLACK
6
CONTINUOUS
10
0.048465
20
0.791454
11
0.0462447
21
0.783168
0
LINE
8
BLACK
6
CONTINUOUS
10
0.0462447
20
0.783168
11
0.0426194
21
0.775394
0
LINE
8
BLACK
6
CONTINUOUS
10
0.0426194
20
0.775394
11
0.0376991
21
0.768367
0
LINE
8
BLACK
6
CONTINUOUS
10
0.0376991
20
0.768367
11
0.0316333
21
0.762301
0
LINE
8
BLACK
6
CONTINUOUS
10
0.0316333
20
0.762301
11
0.0246063
21
0.757381
0
LINE
8
BLACK
6
CONTINUOUS
10
0.0246063
20
0.757381
11
0.0168317
21
0.753755
0
LINE
8
BLACK
6
CONTINUOUS
10
0.0168317
20
0.753755
11
0.00854567
21
0.751535
0
LINE
8
BLACK
6
CONTINUOUS
10
0.00854567
20
0.751535
11
0
21
0.750787
0
LINE
8
BLACK
6
CONTINUOUS
10
0
20
0.750787
11
-0.00854567
21
0.751535
0
LINE
8
BLACK
6
CONTINUOUS
10
-0.00854567
20
0.751535
11
-0.0168317
21
0.753755
0
LINE
8
BLACK
6
CONTINUOUS
10
-0.0168317
20
0.753755
11
-0.0246063
21
0.757381
0
LINE
8
BLACK
6
CONTINUOUS
10
-0.0246063
20
0.757381
11
-0.0316333
21
0.762301
0
LINE
8
BLACK
6
CONTINUOUS
10
-0.0316333
20
0.762301
11
-0.0376991
21
0.768367
0
LINE
8
BLACK
6
CONTINUOUS
10
-0.0376991
20
0.768367
11
-0.0426194
21
0.775394
0
LINE
8
BLACK
6
CONTINUOUS
10
-0.0426194
20
0.775394
11
-0.0462447
21
0.783168
0
LINE
8
BLACK
6
CONTINUOUS
10
-0.0462447
20
0.783168
11
-0.048465
21
0.791454
0
LINE
8
BLACK
6
CONTINUOUS
10
-0.048465
20
0.791454
11
-0.0492126
21
0.8
0
LINE
8
BLACK
6
CONTINUOUS
10
-0.0492126
20
0.8
11
-0.048465
21
0.808546
0
LINE
8
BLACK
6
CONTINUOUS
10
-0.048465
20
0.808546
11
-0.0462447
21
0.816832
0
LINE
8
BLACK
6
CONTINUOUS
10
-0.0462447
20
0.816832
11
-0.0426194
21
0.824606
0
LINE
8
BLACK
6
CONTINUOUS
10
-0.0426194
20
0.824606
11
-0.0376991
21
0.831633
0
LINE
8
BLACK
6
CONTINUOUS
10
-0.0376991
20
0.831633
11
-0.0316333
21
0.837699
0
LINE
8
BLACK
6
CONTINUOUS
10
-0.0316333
20
0.837699
11
-0.0246063
21
0.842619
0
LINE
8
BLACK
6
CONTINUOUS
10
-0.0246063
20
0.842619
11
-0.0168317
21
0.846245
0
LINE
8
BLACK
6
CONTINUOUS
10
-0.0168317
20
0.846245
11
-0.00854567
21
0.848465
0
LINE
8
BLACK
6
CONTINUOUS
10
-0.00854567
20
0.848465
11
0
21
0.849213
0
LINE
8
BLACK
6
CONTINUOUS
10
0
20
0.849213
11
0.00854567
21
0.848465
0
LINE
8
BLACK
6
CONTINUOUS
10
0.00854567
20
0.848465
11
0.0168317
21
0.846245
0
LINE
8
BLACK
6
CONTINUOUS
10
0.0168317
20
0.846245
11
0.0246063
21
0.842619
0
LINE
8
BLACK
6
CONTINUOUS
10
0.0246063
20
0.842619
11
0.0316333
21
0.837699
0
LINE
8
BLACK
6
CONTINUOUS
10
0.0316333
20
0.837699
11
0.0376991
21
0.831633
0
LINE
8
BLACK
6
CONTINUOUS
10
0.0376991
20
0.831633
11
0.0426194
21
0.824606
0
LINE
8
BLACK
6
CONTINUOUS
10
0.0426194
20
0.824606
11
0.0462447
21
0.816832
0
LINE
8
BLACK
6
CONTINUOUS
10
0.0462447
20
0.816832
11
0.048465
21
0.808546
0
LINE
8
BLACK
6
CONTINUOUS
10
0.048465
20
0.808546
11
0.048782
21
0.804921
0
LINE
8
BLACK
6
CONTINUOUS
10
0.048782
20
0.804921
11
0.117962
21
0.804921
0
LINE
8
BLACK
6
CONTINUOUS
10
0.117962
20
0.804921
11
0.20652
21
0.89348
0
LINE
8
BLACK
6
CONTINUOUS
10
0.20652
20
0.89348
11
0.207222
21
0.894004
0
LINE
8
BLACK
6
CONTINUOUS
10
0.207222
20
0.894004
11
0.207341
21
0.894141
0
LINE
8
BLACK
6
CONTINUOUS
10
0.207341
20
0.894141
11
0.207448
21
0.894173
0
LINE
8
BLACK
6
CONTINUOUS
10
0.207448
20
0.894173
11
0.207652
21
0.894325
0
LINE
8
BLACK
6
CONTINUOUS
10
0.207652
20
0.894325
11
0.208837
21
0.89458
0
LINE
8
BLACK
6
CONTINUOUS
10
0.208837
20
0.89458
11
0.21
21
0.894921
0
LINE
8
BLACK
6
CONTINUOUS
10
0.21
20
0.894921
11
0.257657
21
0.894921
0
LINE
8
BLACK
6
CONTINUOUS
10
0.257657
20
0.894921
11
0.257657
21
0.9097
0
LINE
8
BLACK
6
CONTINUOUS
10
0.257657
20
0.9097
11
0.277343
21
0.9097
0
LINE
8
BLACK
6
CONTINUOUS
10
0.277343
20
0.9097
11
0.277343
21
0.8703
0
LINE
8
BLACK
6
CONTINUOUS
10
0.501011
20
0.837794
11
0.504204
21
0.835661
0
LINE
8
BLACK
6
CONTINUOUS
10
0.504204
20
0.835661
11
0.506337
21
0.832467
0
LINE
8
BLACK
6
CONTINUOUS
10
0.506337
20
0.832467
11
0.507087
21
0.828701
0
LINE
8
BLACK
6
CONTINUOUS
10
0.507087
20
0.828701
11
0.507087
21
0.791299
0
LINE
8
BLACK
6
CONTINUOUS
10
0.507087
20
0.791299
11
0.506337
21
0.787533
0
LINE
8
BLACK
6
CONTINUOUS
10
0.506337
20
0.787533
11
0.504204
21
0.784339
0
LINE
8
BLACK
6
CONTINUOUS
10
0.504204
20
0.784339
11
0.501011
21
0.782206
0
LINE
8
BLACK
6
CONTINUOUS
10
0.501011
20
0.782206
11
0.497244
21
0.781457
0
LINE
8
BLACK
6
CONTINUOUS
10
0.497244
20
0.781457
11
0.477559
21
0.781457
0
LINE
8
BLACK
6
CONTINUOUS
10
0.477559
20
0.781457
11
0.473792
21
0.782206
0
LINE
8
BLACK
6
CONTINUOUS
10
0.473792
20
0.782206
11
0.470599
21
0.784339
0
LINE
8
BLACK
6
CONTINUOUS
10
0.470599
20
0.784339
11
0.468466
21
0.787533
0
LINE
8
BLACK
6
CONTINUOUS
10
0.468466
20
0.787533
11
0.467717
21
0.791299
0
LINE
8
BLACK
6
CONTINUOUS
10
0.467717
20
0.791299
11
0.467717
21
0.828701
0
LINE
8
BLACK
6
CONTINUOUS
10
0.467717
20
0.828701
11
0.468466
21
0.832467
0
LINE
8
BLACK
6
CONTINUOUS
10
0.468466
20
0.832467
11
0.470599
21
0.835661
0
LINE
8
BLACK
6
CONTINUOUS
10
0.470599
20
0.835661
11
0.473792
21
0.837794
0
LINE
8
BLACK
6
CONTINUOUS
10
0.473792
20
0.837794
11
0.477559
21
0.838543
0
LINE
8
BLACK
6
CONTINUOUS
10
0.477559
20
0.838543
11
0.497244
21
0.838543
0
LINE
8
BLACK
6
CONTINUOUS
10
0.497244
20
0.838543
11
0.501011
21
0.837794
0
LINE
8
BLACK
6
CONTINUOUS
10
0.426208
20
0.837794
11
0.429401
21
0.835661
0
LINE
8
BLACK
6
CONTINUOUS
10
0.429401
20
0.835661
11
0.431534
21
0.832467
0
LINE
8
BLACK
6
CONTINUOUS
10
0.431534
20
0.832467
11
0.432283
21
0.828701
0
LINE
8
BLACK
6
CONTINUOUS
10
0.432283
20
0.828701
11
0.432283
21
0.791299
0
LINE
8
BLACK
6
CONTINUOUS
10
0.432283
20
0.791299
11
0.431534
21
0.787533
0
LINE
8
BLACK
6
CONTINUOUS
10
0.431534
20
0.787533
11
0.429401
21
0.784339
0
LINE
8
BLACK
6
CONTINUOUS
10
0.429401
20
0.784339
11
0.426208
21
0.782206
0
LINE
8
BLACK
6
CONTINUOUS
10
0.426208
20
0.782206
11
0.422441
21
0.781457
0
LINE
8
BLACK
6
CONTINUOUS
10
0.422441
20
0.781457
11
0.402756
21
0.781457
0
LINE
8
BLACK
6
CONTINUOUS
10
0.402756
20
0.781457
11
0.398989
21
0.782206
0
LINE
8
BLACK
6
CONTINUOUS
10
0.398989
20
0.782206
11
0.395796
21
0.784339
0
LINE
8
BLACK
6
CONTINUOUS
10
0.395796
20
0.784339
11
0.393663
21
0.787533
0
LINE
8
BLACK
6
CONTINUOUS
10
0.393663
20
0.787533
11
0.392913
21
0.791299
0
LINE
8
BLACK
6
CONTINUOUS
10
0.392913
20
0.791299
11
0.392913
21
0.828701
0
LINE
8
BLACK
6
CONTINUOUS
10
0.392913
20
0.828701
11
0.393663
21
0.832467
0
LINE
8
BLACK
6
CONTINUOUS
10
0.393663
20
0.832467
11
0.395796
21
0.835661
0
LINE
8
BLACK
6
CONTINUOUS
10
0.395796
20
0.835661
11
0.398989
21
0.837794
0
LINE
8
BLACK
6
CONTINUOUS
10
0.398989
20
0.837794
11
0.402756
21
0.838543
0
LINE
8
BLACK
6
CONTINUOUS
10
0.402756
20
0.838543
11
0.422441
21
0.838543
0
LINE
8
BLACK
6
CONTINUOUS
10
0.422441
20
0.838543
11
0.426208
21
0.837794
0
LINE
8
BLACK
6
CONTINUOUS
10
0.286208
20
0.837794
11
0.289401
21
0.835661
0
LINE
8
BLACK
6
CONTINUOUS
10
0.289401
20
0.835661
11
0.291534
21
0.832467
0
LINE
8
BLACK
6
CONTINUOUS
10
0.291534
20
0.832467
11
0.292283
21
0.828701
0
LINE
8
BLACK
6
CONTINUOUS
10
0.292283
20
0.828701
11
0.292283
21
0.791299
0
LINE
8
BLACK
6
CONTINUOUS
10
0.292283
20
0.791299
11
0.291534
21
0.787533
0
LINE
8
BLACK
6
CONTINUOUS
10
0.291534
20
0.787533
11
0.289401
21
0.784339
0
LINE
8
BLACK
6
CONTINUOUS
10
0.289401
20
0.784339
11
0.286208
21
0.782206
0
LINE
8
BLACK
6
CONTINUOUS
10
0.286208
20
0.782206
11
0.282441
21
0.781457
0
LINE
8
BLACK
6
CONTINUOUS
10
0.282441
20
0.781457
11
0.262756
21
0.781457
0
LINE
8
BLACK
6
CONTINUOUS
10
0.262756
20
0.781457
11
0.258989
21
0.782206
0
LINE
8
BLACK
6
CONTINUOUS
10
0.258989
20
0.782206
11
0.255796
21
0.784339
0
LINE
8
BLACK
6
CONTINUOUS
10
0.255796
20
0.784339
11
0.253663
21
0.787533
0
LINE
8
BLACK
6
CONTINUOUS
10
0.253663
20
0.787533
11
0.252913
21
0.791299
0
LINE
8
BLACK
6
CONTINUOUS
10
0.252913
20
0.791299
11
0.252913
21
0.828701
0
LINE
8
BLACK
6
CONTINUOUS
10
0.252913
20
0.828701
11
0.253663
21
0.832467
0
LINE
8
BLACK
6
CONTINUOUS
10
0.253663
20
0.832467
11
0.255796
21
0.835661
0
LINE
8
BLACK
6
CONTINUOUS
10
0.255796
20
0.835661
11
0.258989
21
0.837794
0
LINE
8
BLACK
6
CONTINUOUS
10
0.258989
20
0.837794
11
0.262756
21
0.838543
0
LINE
8
BLACK
6
CONTINUOUS
10
0.262756
20
0.838543
11
0.282441
21
0.838543
0
LINE
8
BLACK
6
CONTINUOUS
10
0.282441
20
0.838543
11
0.286208
21
0.837794
0
LINE
8
BLACK
6
CONTINUOUS
10
0.361011
20
0.837794
11
0.364204
21
0.835661
0
LINE
8
BLACK
6
CONTINUOUS
10
0.364204
20
0.835661
11
0.366337
21
0.832467
0
LINE
8
BLACK
6
CONTINUOUS
10
0.366337
20
0.832467
11
0.367087
21
0.828701
0
LINE
8
BLACK
6
CONTINUOUS
10
0.367087
20
0.828701
11
0.367087
21
0.791299
0
LINE
8
BLACK
6
CONTINUOUS
10
0.367087
20
0.791299
11
0.366337
21
0.787533
0
LINE
8
BLACK
6
CONTINUOUS
10
0.366337
20
0.787533
11
0.364204
21
0.784339
0
LINE
8
BLACK
6
CONTINUOUS
10
0.364204
20
0.784339
11
0.361011
21
0.782206
0
LINE
8
BLACK
6
CONTINUOUS
10
0.361011
20
0.782206
11
0.357244
21
0.781457
0
LINE
8
BLACK
6
CONTINUOUS
10
0.357244
20
0.781457
11
0.337559
21
0.781457
0
LINE
8
BLACK
6
CONTINUOUS
10
0.337559
20
0.781457
11
0.333792
21
0.782206
0
LINE
8
BLACK
6
CONTINUOUS
10
0.333792
20
0.782206
11
0.330599
21
0.784339
0
LINE
8
BLACK
6
CONTINUOUS
10
0.330599
20
0.784339
11
0.328466
21
0.787533
0
LINE
8
BLACK
6
CONTINUOUS
10
0.328466
20
0.787533
11
0.327717
21
0.791299
0
LINE
8
BLACK
6
CONTINUOUS
10
0.327717
20
0.791299
11
0.327717
21
0.828701
0
LINE
8
BLACK
6
CONTINUOUS
10
0.327717
20
0.828701
11
0.328466
21
0.832467
0
LINE
8
BLACK
6
CONTINUOUS
10
0.328466
20
0.832467
11
0.330599
21
0.835661
0
LINE
8
BLACK
6
CONTINUOUS
10
0.330599
20
0.835661
11
0.333792
21
0.837794
0
LINE
8
BLACK
6
CONTINUOUS
10
0.333792
20
0.837794
11
0.337559
21
0.838543
0
LINE
8
BLACK
6
CONTINUOUS
10
0.337559
20
0.838543
11
0.357244
21
0.838543
0
LINE
8
BLACK
6
CONTINUOUS
10
0.357244
20
0.838543
11
0.361011
21
0.837794
0
LINE
8
BLACK
6
CONTINUOUS
10
0.352343
20
0.994921
11
0.37205
21
0.994921
0
LINE
8
BLACK
6
CONTINUOUS
10
0.37205
20
0.994921
11
0.372917
21
0.994795
0
LINE
8
BLACK
6
CONTINUOUS
10
0.372917
20
0.994795
11
0.373098
21
0.994808
0
LINE
8
BLACK
6
CONTINUOUS
10
0.373098
20
0.994808
11
0.373196
21
0.994755
0
LINE
8
BLACK
6
CONTINUOUS
10
0.373196
20
0.994755
11
0.373448
21
0.994719
0
LINE
8
BLACK
6
CONTINUOUS
10
0.373448
20
0.994719
11
0.374466
21
0.994061
0
LINE
8
BLACK
6
CONTINUOUS
10
0.374466
20
0.994061
11
0.37553
21
0.99348
0
LINE
8
BLACK
6
CONTINUOUS
10
0.37553
20
0.99348
11
0.414246
21
0.954764
0
LINE
8
BLACK
6
CONTINUOUS
10
0.414246
20
0.954764
11
0.493071
21
0.954764
0
LINE
8
BLACK
6
CONTINUOUS
10
0.493071
20
0.954764
11
0.493939
21
0.954638
0
LINE
8
BLACK
6
CONTINUOUS
10
0.493939
20
0.954638
11
0.49412
21
0.954651
0
LINE
8
BLACK
6
CONTINUOUS
10
0.49412
20
0.954651
11
0.494217
21
0.954598
0
LINE
8
BLACK
6
CONTINUOUS
10
0.494217
20
0.954598
11
0.494469
21
0.954561
0
LINE
8
BLACK
6
CONTINUOUS
10
0.494469
20
0.954561
11
0.495487
21
0.953904
0
LINE
8
BLACK
6
CONTINUOUS
10
0.495487
20
0.953904
11
0.496551
21
0.953322
0
LINE
8
BLACK
6
CONTINUOUS
10
0.496551
20
0.953322
11
0.548424
21
0.90145
0
LINE
8
BLACK
6
CONTINUOUS
10
0.548424
20
0.90145
11
0.548576
21
0.901246
0
LINE
8
BLACK
6
CONTINUOUS
10
0.548576
20
0.901246
11
0.548669
21
0.901186
0
LINE
8
BLACK
6
CONTINUOUS
10
0.548669
20
0.901186
11
0.548687
21
0.901145
0
LINE
8
BLACK
6
CONTINUOUS
10
0.548687
20
0.901145
11
0.550183
21
0.900146
0
LINE
8
BLACK
6
CONTINUOUS
10
0.550183
20
0.900146
11
0.552349
21
0.899715
0
LINE
8
BLACK
6
CONTINUOUS
10
0.552349
20
0.899715
11
0.554514
21
0.900146
0
LINE
8
BLACK
6
CONTINUOUS
10
0.554514
20
0.900146
11
0.556153
21
0.901241
0
LINE
8
BLACK
6
CONTINUOUS
10
0.556153
20
0.901241
11
0.556273
21
0.90145
0
LINE
8
BLACK
6
CONTINUOUS
10
0.556273
20
0.90145
11
0.556273
21
0.901451
0
LINE
8
BLACK
6
CONTINUOUS
10
0.556273
20
0.901451
11
0.556485
21
0.901613
0
LINE
8
BLACK
6
CONTINUOUS
10
0.556485
20
0.901613
11
0.556538
21
0.901695
0
LINE
8
BLACK
6
CONTINUOUS
10
0.556538
20
0.901695
11
0.55667
21
0.901756
0
LINE
8
BLACK
6
CONTINUOUS
10
0.55667
20
0.901756
11
0.559461
21
0.903897
0
LINE
8
BLACK
6
CONTINUOUS
10
0.559461
20
0.903897
11
0.563174
21
0.905435
0
LINE
8
BLACK
6
CONTINUOUS
10
0.563174
20
0.905435
11
0.567158
21
0.90596
0
LINE
8
BLACK
6
CONTINUOUS
10
0.567158
20
0.90596
11
0.571143
21
0.905435
0
LINE
8
BLACK
6
CONTINUOUS
10
0.571143
20
0.905435
11
0.574856
21
0.903896
0
LINE
8
BLACK
6
CONTINUOUS
10
0.574856
20
0.903896
11
0.578042
21
0.90145
0
LINE
8
BLACK
6
CONTINUOUS
10
0.578042
20
0.90145
11
0.578043
21
0.90145
0
LINE
8
BLACK
6
CONTINUOUS
10
0.578043
20
0.90145
11
0.578044
21
0.901449
0
LINE
8
BLACK
6
CONTINUOUS
10
0.578044
20
0.901449
11
0.578044
21
0.901449
0
LINE
8
BLACK
6
CONTINUOUS
10
0.578044
20
0.901449
11
0.578044
21
0.901449
0
LINE
8
BLACK
6
CONTINUOUS
10
0.578044
20
0.901449
11
0.579937
21
0.899556
0
LINE
8
BLACK
6
CONTINUOUS
10
0.579937
20
0.899556
11
0.579937
21
0.899556
0
LINE
8
BLACK
6
CONTINUOUS
10
0.579937
20
0.899556
11
0.579937
21
0.899556
0
LINE
8
BLACK
6
CONTINUOUS
10
0.579937
20
0.899556
11
0.579939
21
0.899557
0
LINE
8
BLACK
6
CONTINUOUS
10
0.579939
20
0.899557
11
0.580513
21
0.898809
0
LINE
8
BLACK
6
CONTINUOUS
10
0.580513
20
0.898809
11
0.580598
21
0.898735
0
LINE
8
BLACK
6
CONTINUOUS
10
0.580598
20
0.898735
11
0.580616
21
0.898675
0
LINE
8
BLACK
6
CONTINUOUS
10
0.580616
20
0.898675
11
0.582385
21
0.896369
0
LINE
8
BLACK
6
CONTINUOUS
10
0.582385
20
0.896369
11
0.583922
21
0.892656
0
LINE
8
BLACK
6
CONTINUOUS
10
0.583922
20
0.892656
11
0.584446
21
0.888671
0
LINE
8
BLACK
6
CONTINUOUS
10
0.584446
20
0.888671
11
0.583921
21
0.884687
0
LINE
8
BLACK
6
CONTINUOUS
10
0.583921
20
0.884687
11
0.582383
21
0.880975
0
LINE
8
BLACK
6
CONTINUOUS
10
0.582383
20
0.880975
11
0.579937
21
0.877788
0
LINE
8
BLACK
6
CONTINUOUS
10
0.579937
20
0.877788
11
0.579937
21
0.877787
0
LINE
8
BLACK
6
CONTINUOUS
10
0.579937
20
0.877787
11
0.579937
21
0.877787
0
LINE
8
BLACK
6
CONTINUOUS
10
0.579937
20
0.877787
11
0.579936
21
0.877787
0
LINE
8
BLACK
6
CONTINUOUS
10
0.579936
20
0.877787
11
0.579727
21
0.877665
0
LINE
8
BLACK
6
CONTINUOUS
10
0.579727
20
0.877665
11
0.578633
21
0.876028
0
LINE
8
BLACK
6
CONTINUOUS
10
0.578633
20
0.876028
11
0.578202
21
0.873862
0
LINE
8
BLACK
6
CONTINUOUS
10
0.578202
20
0.873862
11
0.578633
21
0.871696
0
LINE
8
BLACK
6
CONTINUOUS
10
0.578633
20
0.871696
11
0.579728
21
0.870057
0
LINE
8
BLACK
6
CONTINUOUS
10
0.579728
20
0.870057
11
0.579937
21
0.869937
0
LINE
8
BLACK
6
CONTINUOUS
10
0.579937
20
0.869937
11
0.579937
21
0.869937
0
LINE
8
BLACK
6
CONTINUOUS
10
0.579937
20
0.869937
11
0.609027
21
0.840846
0
LINE
8
BLACK
6
CONTINUOUS
10
0.609027
20
0.840846
11
0.623441
21
0.840846
0
LINE
8
BLACK
6
CONTINUOUS
10
0.623441
20
0.840846
11
0.623441
21
0.84626
0
LINE
8
BLACK
6
CONTINUOUS
10
0.623441
20
0.84626
11
0.62419
21
0.850026
0
LINE
8
BLACK
6
CONTINUOUS
10
0.62419
20
0.850026
11
0.626324
21
0.85322
0
LINE
8
BLACK
6
CONTINUOUS
10
0.626324
20
0.85322
11
0.629517
21
0.855353
0
LINE
8
BLACK
6
CONTINUOUS
10
0.629517
20
0.855353
11
0.633283
21
0.856102
0
LINE
8
BLACK
6
CONTINUOUS
10
0.633283
20
0.856102
11
0.668717
21
0.856102
0
LINE
8
BLACK
6
CONTINUOUS
10
0.668717
20
0.856102
11
0.672483
21
0.855353
0
LINE
8
BLACK
6
CONTINUOUS
10
0.672483
20
0.855353
11
0.673129
21
0.854921
0
LINE
8
BLACK
6
CONTINUOUS
10
0.673129
20
0.854921
11
0.72
21
0.854921
0
LINE
8
BLACK
6
CONTINUOUS
10
0.72
20
0.854921
11
0.72
21
0.88
0
LINE
8
BLACK
6
CONTINUOUS
10
0.72
20
0.88
11
0.78
21
0.88
0
LINE
8
BLACK
6
CONTINUOUS
10
0.78
20
0.88
11
0.78
21
0.854921
0
LINE
8
BLACK
6
CONTINUOUS
10
0.78
20
0.854921
11
0.82
21
0.854921
0
LINE
8
BLACK
6
CONTINUOUS
10
0.82
20
0.854921
11
0.82
21
0.88
0
LINE
8
BLACK
6
CONTINUOUS
10
0.82
20
0.88
11
0.88
21
0.88
0
LINE
8
BLACK
6
CONTINUOUS
10
0.88
20
0.88
11
0.88
21
0.82
0
LINE
8
BLACK
6
CONTINUOUS
10
0.88
20
0.82
11
0.82
21
0.82
0
LINE
8
BLACK
6
CONTINUOUS
10
0.82
20
0.82
11
0.82
21
0.845079
0
LINE
8
BLACK
6
CONTINUOUS
10
0.82
20
0.845079
11
0.78
21
0.845079
0
LINE
8
BLACK
6
CONTINUOUS
10
0.78
20
0.845079
11
0.78
21
0.82
0
LINE
8
BLACK
6
CONTINUOUS
10
0.78
20
0.82
11
0.72
21
0.82
0
LINE
8
BLACK
6
CONTINUOUS
10
0.72
20
0.82
11
0.72
21
0.845079
0
LINE
8
BLACK
6
CONTINUOUS
10
0.72
20
0.845079
11
0.678559
21
0.845079
0
LINE
8
BLACK
6
CONTINUOUS
10
0.678559
20
0.845079
11
0.678559
21
0.825591
0
LINE
8
BLACK
6
CONTINUOUS
10
0.678559
20
0.825591
11
0.67781
21
0.821824
0
LINE
8
BLACK
6
CONTINUOUS
10
0.67781
20
0.821824
11
0.675676
21
0.818631
0
LINE
8
BLACK
6
CONTINUOUS
10
0.675676
20
0.818631
11
0.672483
21
0.816497
0
LINE
8
BLACK
6
CONTINUOUS
10
0.672483
20
0.816497
11
0.668717
21
0.815748
0
LINE
8
BLACK
6
CONTINUOUS
10
0.668717
20
0.815748
11
0.633283
21
0.815748
0
LINE
8
BLACK
6
CONTINUOUS
10
0.633283
20
0.815748
11
0.629517
21
0.816497
0
LINE
8
BLACK
6
CONTINUOUS
10
0.629517
20
0.816497
11
0.626324
21
0.818631
0
LINE
8
BLACK
6
CONTINUOUS
10
0.626324
20
0.818631
11
0.62419
21
0.821824
0
LINE
8
BLACK
6
CONTINUOUS
10
0.62419
20
0.821824
11
0.623441
21
0.825591
0
LINE
8
BLACK
6
CONTINUOUS
10
0.623441
20
0.825591
11
0.623441
21
0.831004
0
LINE
8
BLACK
6
CONTINUOUS
10
0.623441
20
0.831004
11
0.606988
21
0.831004
0
LINE
8
BLACK
6
CONTINUOUS
10
0.606988
20
0.831004
11
0.606121
21
0.83113
0
LINE
8
BLACK
6
CONTINUOUS
10
0.606121
20
0.83113
11
0.60594
21
0.831117
0
LINE
8
BLACK
6
CONTINUOUS
10
0.60594
20
0.831117
11
0.605843
21
0.83117
0
LINE
8
BLACK
6
CONTINUOUS
10
0.605843
20
0.83117
11
0.605591
21
0.831207
0
LINE
8
BLACK
6
CONTINUOUS
10
0.605591
20
0.831207
11
0.604573
21
0.831864
0
LINE
8
BLACK
6
CONTINUOUS
10
0.604573
20
0.831864
11
0.603509
21
0.832445
0
LINE
8
BLACK
6
CONTINUOUS
10
0.603509
20
0.832445
11
0.572977
21
0.862977
0
LINE
8
BLACK
6
CONTINUOUS
10
0.572977
20
0.862977
11
0.572977
21
0.862977
0
LINE
8
BLACK
6
CONTINUOUS
10
0.572977
20
0.862977
11
0.572977
21
0.862977
0
LINE
8
BLACK
6
CONTINUOUS
10
0.572977
20
0.862977
11
0.570531
21
0.866165
0
LINE
8
BLACK
6
CONTINUOUS
10
0.570531
20
0.866165
11
0.568993
21
0.869878
0
LINE
8
BLACK
6
CONTINUOUS
10
0.568993
20
0.869878
11
0.568468
21
0.873862
0
LINE
8
BLACK
6
CONTINUOUS
10
0.568468
20
0.873862
11
0.568993
21
0.877846
0
LINE
8
BLACK
6
CONTINUOUS
10
0.568993
20
0.877846
11
0.57053
21
0.881558
0
LINE
8
BLACK
6
CONTINUOUS
10
0.57053
20
0.881558
11
0.572976
21
0.884747
0
LINE
8
BLACK
6
CONTINUOUS
10
0.572976
20
0.884747
11
0.572977
21
0.884746
0
LINE
8
BLACK
6
CONTINUOUS
10
0.572977
20
0.884746
11
0.572977
21
0.884746
0
LINE
8
BLACK
6
CONTINUOUS
10
0.572977
20
0.884746
11
0.572977
21
0.884747
0
LINE
8
BLACK
6
CONTINUOUS
10
0.572977
20
0.884747
11
0.573186
21
0.884867
0
LINE
8
BLACK
6
CONTINUOUS
10
0.573186
20
0.884867
11
0.574281
21
0.886506
0
LINE
8
BLACK
6
CONTINUOUS
10
0.574281
20
0.886506
11
0.574712
21
0.888673
0
LINE
8
BLACK
6
CONTINUOUS
10
0.574712
20
0.888673
11
0.574282
21
0.890839
0
LINE
8
BLACK
6
CONTINUOUS
10
0.574282
20
0.890839
11
0.57319
21
0.892474
0
LINE
8
BLACK
6
CONTINUOUS
10
0.57319
20
0.892474
11
0.572986
21
0.892592
0
LINE
8
BLACK
6
CONTINUOUS
10
0.572986
20
0.892592
11
0.572977
21
0.892597
0
LINE
8
BLACK
6
CONTINUOUS
10
0.572977
20
0.892597
11
0.571083
21
0.89449
0
LINE
8
BLACK
6
CONTINUOUS
10
0.571083
20
0.89449
11
0.571083
21
0.894491
0
LINE
8
BLACK
6
CONTINUOUS
10
0.571083
20
0.894491
11
0.571083
21
0.894491
0
LINE
8
BLACK
6
CONTINUOUS
10
0.571083
20
0.894491
11
0.571082
21
0.894492
0
LINE
8
BLACK
6
CONTINUOUS
10
0.571082
20
0.894492
11
0.570892
21
0.894747
0
LINE
8
BLACK
6
CONTINUOUS
10
0.570892
20
0.894747
11
0.569324
21
0.895795
0
LINE
8
BLACK
6
CONTINUOUS
10
0.569324
20
0.895795
11
0.567158
21
0.896226
0
LINE
8
BLACK
6
CONTINUOUS
10
0.567158
20
0.896226
11
0.564992
21
0.895795
0
LINE
8
BLACK
6
CONTINUOUS
10
0.564992
20
0.895795
11
0.563355
21
0.894701
0
LINE
8
BLACK
6
CONTINUOUS
10
0.563355
20
0.894701
11
0.563234
21
0.89449
0
LINE
8
BLACK
6
CONTINUOUS
10
0.563234
20
0.89449
11
0.563233
21
0.89449
0
LINE
8
BLACK
6
CONTINUOUS
10
0.563233
20
0.89449
11
0.563233
21
0.89449
0
LINE
8
BLACK
6
CONTINUOUS
10
0.563233
20
0.89449
11
0.563024
21
0.894329
0
LINE
8
BLACK
6
CONTINUOUS
10
0.563024
20
0.894329
11
0.562969
21
0.894245
0
LINE
8
BLACK
6
CONTINUOUS
10
0.562969
20
0.894245
11
0.562832
21
0.894182
0
LINE
8
BLACK
6
CONTINUOUS
10
0.562832
20
0.894182
11
0.560045
21
0.892044
0
LINE
8
BLACK
6
CONTINUOUS
10
0.560045
20
0.892044
11
0.556333
21
0.890506
0
LINE
8
BLACK
6
CONTINUOUS
10
0.556333
20
0.890506
11
0.552349
21
0.889982
0
LINE
8
BLACK
6
CONTINUOUS
10
0.552349
20
0.889982
11
0.548364
21
0.890506
0
LINE
8
BLACK
6
CONTINUOUS
10
0.548364
20
0.890506
11
0.544652
21
0.892044
0
LINE
8
BLACK
6
CONTINUOUS
10
0.544652
20
0.892044
11
0.541464
21
0.89449
0
LINE
8
BLACK
6
CONTINUOUS
10
0.541464
20
0.89449
11
0.541464
21
0.89449
0
LINE
8
BLACK
6
CONTINUOUS
10
0.541464
20
0.89449
11
0.491033
21
0.944921
0
LINE
8
BLACK
6
CONTINUOUS
10
0.491033
20
0.944921
11
0.412208
21
0.944921
0
LINE
8
BLACK
6
CONTINUOUS
10
0.412208
20
0.944921
11
0.41134
21
0.945047
0
LINE
8
BLACK
6
CONTINUOUS
10
0.41134
20
0.945047
11
0.411159
21
0.945034
0
LINE
8
BLACK
6
CONTINUOUS
10
0.411159
20
0.945034
11
0.411062
21
0.945087
0
LINE
8
BLACK
6
CONTINUOUS
10
0.411062
20
0.945087
11
0.41081
21
0.945124
0
LINE
8
BLACK
6
CONTINUOUS
10
0.41081
20
0.945124
11
0.409791
21
0.945781
0
LINE
8
BLACK
6
CONTINUOUS
10
0.409791
20
0.945781
11
0.408728
21
0.946363
0
LINE
8
BLACK
6
CONTINUOUS
10
0.408728
20
0.946363
11
0.370012
21
0.985079
0
LINE
8
BLACK
6
CONTINUOUS
10
0.370012
20
0.985079
11
0.352343
21
0.985079
0
LINE
8
BLACK
6
CONTINUOUS
10
0.352343
20
0.985079
11
0.352343
21
0.9703
0
LINE
8
BLACK
6
CONTINUOUS
10
0.352343
20
0.9703
11
0.332657
21
0.9703
0
LINE
8
BLACK
6
CONTINUOUS
10
0.332657
20
0.9703
11
0.332657
21
1.0097
0
LINE
8
BLACK
6
CONTINUOUS
10
0.332657
20
1.0097
11
0.352343
21
1.0097
0
LINE
8
BLACK
6
CONTINUOUS
10
0.352343
20
1.0097
11
0.352343
21
0.994921
0
LINE
8
BLACK
6
CONTINUOUS
10
-0.0907707
20
0.952342
11
-0.0818218
21
0.949944
0
LINE
8
BLACK
6
CONTINUOUS
10
-0.0818218
20
0.949944
11
-0.0734252
21
0.946029
0
LINE
8
BLACK
6
CONTINUOUS
10
-0.0734252
20
0.946029
11
-0.0658361
21
0.940715
0
LINE
8
BLACK
6
CONTINUOUS
10
-0.0658361
20
0.940715
11
-0.059285
21
0.934164
0
LINE
8
BLACK
6
CONTINUOUS
10
-0.059285
20
0.934164
11
-0.0539711
21
0.926575
0
LINE
8
BLACK
6
CONTINUOUS
10
-0.0539711
20
0.926575
11
-0.0500557
21
0.918178
0
LINE
8
BLACK
6
CONTINUOUS
10
-0.0500557
20
0.918178
11
-0.0476579
21
0.909229
0
LINE
8
BLACK
6
CONTINUOUS
10
-0.0476579
20
0.909229
11
-0.0468504
21
0.9
0
LINE
8
BLACK
6
CONTINUOUS
10
-0.0468504
20
0.9
11
-0.0476579
21
0.890771
0
LINE
8
BLACK
6
CONTINUOUS
10
-0.0476579
20
0.890771
11
-0.0500557
21
0.881822
0
LINE
8
BLACK
6
CONTINUOUS
10
-0.0500557
20
0.881822
11
-0.0539711
21
0.873425
0
LINE
8
BLACK
6
CONTINUOUS
10
-0.0539711
20
0.873425
11
-0.059285
21
0.865836
0
LINE
8
BLACK
6
CONTINUOUS
10
-0.059285
20
0.865836
11
-0.0658361
21
0.859285
0
LINE
8
BLACK
6
CONTINUOUS
10
-0.0658361
20
0.859285
11
-0.0734252
21
0.853971
0
LINE
8
BLACK
6
CONTINUOUS
10
-0.0734252
20
0.853971
11
-0.0818218
21
0.850056
0
LINE
8
BLACK
6
CONTINUOUS
10
-0.0818218
20
0.850056
11
-0.0907707
21
0.847658
0
LINE
8
BLACK
6
CONTINUOUS
10
-0.0907707
20
0.847658
11
-0.1
21
0.84685
0
LINE
8
BLACK
6
CONTINUOUS
10
-0.1
20
0.84685
11
-0.109229
21
0.847658
0
LINE
8
BLACK
6
CONTINUOUS
10
-0.109229
20
0.847658
11
-0.118178
21
0.850056
0
LINE
8
BLACK
6
CONTINUOUS
10
-0.118178
20
0.850056
11
-0.126575
21
0.853971
0
LINE
8
BLACK
6
CONTINUOUS
10
-0.126575
20
0.853971
11
-0.134164
21
0.859285
0
LINE
8
BLACK
6
CONTINUOUS
10
-0.134164
20
0.859285
11
-0.140715
21
0.865836
0
LINE
8
BLACK
6
CONTINUOUS
10
-0.140715
20
0.865836
11
-0.146029
21
0.873425
0
LINE
8
BLACK
6
CONTINUOUS
10
-0.146029
20
0.873425
11
-0.149944
21
0.881822
0
LINE
8
BLACK
6
CONTINUOUS
10
-0.149944
20
0.881822
11
-0.152342
21
0.890771
0
LINE
8
BLACK
6
CONTINUOUS
10
-0.152342
20
0.890771
11
-0.15315
21
0.9
0
LINE
8
BLACK
6
CONTINUOUS
10
-0.15315
20
0.9
11
-0.152342
21
0.909229
0
LINE
8
BLACK
6
CONTINUOUS
10
-0.152342
20
0.909229
11
-0.149944
21
0.918178
0
LINE
8
BLACK
6
CONTINUOUS
10
-0.149944
20
0.918178
11
-0.146029
21
0.926575
0
LINE
8
BLACK
6
CONTINUOUS
10
-0.146029
20
0.926575
11
-0.140715
21
0.934164
0
LINE
8
BLACK
6
CONTINUOUS
10
-0.140715
20
0.934164
11
-0.134164
21
0.940715
0
LINE
8
BLACK
6
CONTINUOUS
10
-0.134164
20
0.940715
11
-0.126575
21
0.946029
0
LINE
8
BLACK
6
CONTINUOUS
10
-0.126575
20
0.946029
11
-0.118178
21
0.949944
0
LINE
8
BLACK
6
CONTINUOUS
10
-0.118178
20
0.949944
11
-0.109229
21
0.952342
0
LINE
8
BLACK
6
CONTINUOUS
10
-0.109229
20
0.952342
11
-0.1
21
0.95315
0
LINE
8
BLACK
6
CONTINUOUS
10
-0.1
20
0.95315
11
-0.0907707
21
0.952342
0
LINE
8
BLACK
6
CONTINUOUS
10
0.109229
20
0.952342
11
0.118178
21
0.949944
0
LINE
8
BLACK
6
CONTINUOUS
10
0.118178
20
0.949944
11
0.126575
21
0.946029
0
LINE
8
BLACK
6
CONTINUOUS
10
0.126575
20
0.946029
11
0.134164
21
0.940715
0
LINE
8
BLACK
6
CONTINUOUS
10
0.134164
20
0.940715
11
0.140715
21
0.934164
0
LINE
8
BLACK
6
CONTINUOUS
10
0.140715
20
0.934164
11
0.146029
21
0.926575
0
LINE
8
BLACK
6
CONTINUOUS
10
0.146029
20
0.926575
11
0.149944
21
0.918178
0
LINE
8
BLACK
6
CONTINUOUS
10
0.149944
20
0.918178
11
0.152342
21
0.909229
0
LINE
8
BLACK
6
CONTINUOUS
10
0.152342
20
0.909229
11
0.15315
21
0.9
0
LINE
8
BLACK
6
CONTINUOUS
10
0.15315
20
0.9
11
0.152342
21
0.890771
0
LINE
8
BLACK
6
CONTINUOUS
10
0.152342
20
0.890771
11
0.149944
21
0.881822
0
LINE
8
BLACK
6
CONTINUOUS
10
0.149944
20
0.881822
11
0.146029
21
0.873425
0
LINE
8
BLACK
6
CONTINUOUS
10
0.146029
20
0.873425
11
0.140715
21
0.865836
0
LINE
8
BLACK
6
CONTINUOUS
10
0.140715
20
0.865836
11
0.134164
21
0.859285
0
LINE
8
BLACK
6
CONTINUOUS
10
0.134164
20
0.859285
11
0.126575
21
0.853971
0
LINE
8
BLACK
6
CONTINUOUS
10
0.126575
20
0.853971
11
0.118178
21
0.850056
0
LINE
8
BLACK
6
CONTINUOUS
10
0.118178
20
0.850056
11
0.109229
21
0.847658
0
LINE
8
BLACK
6
CONTINUOUS
10
0.109229
20
0.847658
11
0.1
21
0.84685
0
LINE
8
BLACK
6
CONTINUOUS
10
0.1
20
0.84685
11
0.0907707
21
0.847658
0
LINE
8
BLACK
6
CONTINUOUS
10
0.0907707
20
0.847658
11
0.0818218
21
0.850056
0
LINE
8
BLACK
6
CONTINUOUS
10
0.0818218
20
0.850056
11
0.0734252
21
0.853971
0
LINE
8
BLACK
6
CONTINUOUS
10
0.0734252
20
0.853971
11
0.0658361
21
0.859285
0
LINE
8
BLACK
6
CONTINUOUS
10
0.0658361
20
0.859285
11
0.059285
21
0.865836
0
LINE
8
BLACK
6
CONTINUOUS
10
0.059285
20
0.865836
11
0.0539711
21
0.873425
0
LINE
8
BLACK
6
CONTINUOUS
10
0.0539711
20
0.873425
11
0.0500557
21
0.881822
0
LINE
8
BLACK
6
CONTINUOUS
10
0.0500557
20
0.881822
11
0.0476579
21
0.890771
0
LINE
8
BLACK
6
CONTINUOUS
10
0.0476579
20
0.890771
11
0.0468504
21
0.9
0
LINE
8
BLACK
6
CONTINUOUS
10
0.0468504
20
0.9
11
0.0476579
21
0.909229
0
LINE
8
BLACK
6
CONTINUOUS
10
0.0476579
20
0.909229
11
0.0500557
21
0.918178
0
LINE
8
BLACK
6
CONTINUOUS
10
0.0500557
20
0.918178
11
0.0539711
21
0.926575
0
LINE
8
BLACK
6
CONTINUOUS
10
0.0539711
20
0.926575
11
0.059285
21
0.934164
0
LINE
8
BLACK
6
CONTINUOUS
10
0.059285
20
0.934164
11
0.0658361
21
0.940715
0
LINE
8
BLACK
6
CONTINUOUS
10
0.0658361
20
0.940715
11
0.0734252
21
0.946029
0
LINE
8
BLACK
6
CONTINUOUS
10
0.0734252
20
0.946029
11
0.0818218
21
0.949944
0
LINE
8
BLACK
6
CONTINUOUS
10
0.0818218
20
0.949944
11
0.0907707
21
0.952342
0
LINE
8
BLACK
6
CONTINUOUS
10
0.0907707
20
0.952342
11
0.1
21
0.95315
0
LINE
8
BLACK
6
CONTINUOUS
10
0.1
20
0.95315
11
0.109229
21
0.952342
0
LINE
8
BLACK
6
CONTINUOUS
10
0.314843
20
0.8703
11
0.295157
21
0.8703
0
LINE
8
BLACK
6
CONTINUOUS
10
0.295157
20
0.8703
11
0.295157
21
0.9097
0
LINE
8
BLACK
6
CONTINUOUS
10
0.295157
20
0.9097
11
0.314843
21
0.9097
0
LINE
8
BLACK
6
CONTINUOUS
10
0.314843
20
0.9097
11
0.314843
21
0.8703
0
LINE
8
BLACK
6
CONTINUOUS
10
0.78
20
0.92
11
0.72
21
0.92
0
LINE
8
BLACK
6
CONTINUOUS
10
0.72
20
0.92
11
0.72
21
0.98
0
LINE
8
BLACK
6
CONTINUOUS
10
0.72
20
0.98
11
0.78
21
0.98
0
LINE
8
BLACK
6
CONTINUOUS
10
0.78
20
0.98
11
0.78
21
0.92
0
LINE
8
BLACK
6
CONTINUOUS
10
0.88
20
0.92
11
0.82
21
0.92
0
LINE
8
BLACK
6
CONTINUOUS
10
0.82
20
0.92
11
0.82
21
0.98
0
LINE
8
BLACK
6
CONTINUOUS
10
0.82
20
0.98
11
0.88
21
0.98
0
LINE
8
BLACK
6
CONTINUOUS
10
0.88
20
0.98
11
0.88
21
0.92
0
LINE
8
BLACK
6
CONTINUOUS
10
0.408546
20
1.24846
11
0.416832
21
1.24624
0
LINE
8
BLACK
6
CONTINUOUS
10
0.416832
20
1.24624
11
0.424606
21
1.24262
0
LINE
8
BLACK
6
CONTINUOUS
10
0.424606
20
1.24262
11
0.431633
21
1.2377
0
LINE
8
BLACK
6
CONTINUOUS
10
0.431633
20
1.2377
11
0.437699
21
1.23163
0
LINE
8
BLACK
6
CONTINUOUS
10
0.437699
20
1.23163
11
0.442619
21
1.22461
0
LINE
8
BLACK
6
CONTINUOUS
10
0.442619
20
1.22461
11
0.446245
21
1.21683
0
LINE
8
BLACK
6
CONTINUOUS
10
0.446245
20
1.21683
11
0.448465
21
1.20855
0
LINE
8
BLACK
6
CONTINUOUS
10
0.448465
20
1.20855
11
0.449213
21
1.2
0
LINE
8
BLACK
6
CONTINUOUS
10
0.449213
20
1.2
11
0.448465
21
1.19145
0
LINE
8
BLACK
6
CONTINUOUS
10
0.448465
20
1.19145
11
0.446245
21
1.18317
0
LINE
8
BLACK
6
CONTINUOUS
10
0.446245
20
1.18317
11
0.442619
21
1.17539
0
LINE
8
BLACK
6
CONTINUOUS
10
0.442619
20
1.17539
11
0.437699
21
1.16837
0
LINE
8
BLACK
6
CONTINUOUS
10
0.437699
20
1.16837
11
0.431633
21
1.1623
0
LINE
8
BLACK
6
CONTINUOUS
10
0.431633
20
1.1623
11
0.424606
21
1.15738
0
LINE
8
BLACK
6
CONTINUOUS
10
0.424606
20
1.15738
11
0.416832
21
1.15376
0
LINE
8
BLACK
6
CONTINUOUS
10
0.416832
20
1.15376
11
0.408546
21
1.15154
0
LINE
8
BLACK
6
CONTINUOUS
10
0.408546
20
1.15154
11
0.404921
21
1.15122
0
LINE
8
BLACK
6
CONTINUOUS
10
0.404921
20
1.15122
11
0.404921
21
1.08189
0
LINE
8
BLACK
6
CONTINUOUS
10
0.404921
20
1.08189
11
0.404795
21
1.08102
0
LINE
8
BLACK
6
CONTINUOUS
10
0.404795
20
1.08102
11
0.404808
21
1.08084
0
LINE
8
BLACK
6
CONTINUOUS
10
0.404808
20
1.08084
11
0.404755
21
1.08074
0
LINE
8
BLACK
6
CONTINUOUS
10
0.404755
20
1.08074
11
0.404719
21
1.08049
0
LINE
8
BLACK
6
CONTINUOUS
10
0.404719
20
1.08049
11
0.404061
21
1.07947
0
LINE
8
BLACK
6
CONTINUOUS
10
0.404061
20
1.07947
11
0.40348
21
1.07841
0
LINE
8
BLACK
6
CONTINUOUS
10
0.40348
20
1.07841
11
0.35159
21
1.02652
0
LINE
8
BLACK
6
CONTINUOUS
10
0.35159
20
1.02652
11
0.350888
21
1.026
0
LINE
8
BLACK
6
CONTINUOUS
10
0.350888
20
1.026
11
0.350769
21
1.02586
0
LINE
8
BLACK
6
CONTINUOUS
10
0.350769
20
1.02586
11
0.350662
21
1.02583
0
LINE
8
BLACK
6
CONTINUOUS
10
0.350662
20
1.02583
11
0.350458
21
1.02568
0
LINE
8
BLACK
6
CONTINUOUS
10
0.350458
20
1.02568
11
0.349274
21
1.02542
0
LINE
8
BLACK
6
CONTINUOUS
10
0.349274
20
1.02542
11
0.34811
21
1.02508
0
LINE
8
BLACK
6
CONTINUOUS
10
0.34811
20
1.02508
11
0.282038
21
1.02508
0
LINE
8
BLACK
6
CONTINUOUS
10
0.282038
20
1.02508
11
0.272421
21
1.01546
0
LINE
8
BLACK
6
CONTINUOUS
10
0.272421
20
1.01546
11
0.272421
21
1.0097
0
LINE
8
BLACK
6
CONTINUOUS
10
0.272421
20
1.0097
11
0.277343
21
1.0097
0
LINE
8
BLACK
6
CONTINUOUS
10
0.277343
20
1.0097
11
0.277343
21
0.9703
0
LINE
8
BLACK
6
CONTINUOUS
10
0.277343
20
0.9703
11
0.257657
21
0.9703
0
LINE
8
BLACK
6
CONTINUOUS
10
0.257657
20
0.9703
11
0.257657
21
1.0097
0
LINE
8
BLACK
6
CONTINUOUS
10
0.257657
20
1.0097
11
0.262579
21
1.0097
0
LINE
8
BLACK
6
CONTINUOUS
10
0.262579
20
1.0097
11
0.262579
21
1.0175
0
LINE
8
BLACK
6
CONTINUOUS
10
0.262579
20
1.0175
11
0.262705
21
1.01837
0
LINE
8
BLACK
6
CONTINUOUS
10
0.262705
20
1.01837
11
0.262692
21
1.01855
0
LINE
8
BLACK
6
CONTINUOUS
10
0.262692
20
1.01855
11
0.262745
21
1.01865
0
LINE
8
BLACK
6
CONTINUOUS
10
0.262745
20
1.01865
11
0.262781
21
1.0189
0
LINE
8
BLACK
6
CONTINUOUS
10
0.262781
20
1.0189
11
0.263439
21
1.01992
0
LINE
8
BLACK
6
CONTINUOUS
10
0.263439
20
1.01992
11
0.26402
21
1.02098
0
LINE
8
BLACK
6
CONTINUOUS
10
0.26402
20
1.02098
11
0.27652
21
1.03348
0
LINE
8
BLACK
6
CONTINUOUS
10
0.27652
20
1.03348
11
0.277222
21
1.034
0
LINE
8
BLACK
6
CONTINUOUS
10
0.277222
20
1.034
11
0.277341
21
1.03414
0
LINE
8
BLACK
6
CONTINUOUS
10
0.277341
20
1.03414
11
0.277448
21
1.03417
0
LINE
8
BLACK
6
CONTINUOUS
10
0.277448
20
1.03417
11
0.277652
21
1.03432
0
LINE
8
BLACK
6
CONTINUOUS
10
0.277652
20
1.03432
11
0.278837
21
1.03458
0
LINE
8
BLACK
6
CONTINUOUS
10
0.278837
20
1.03458
11
0.28
21
1.03492
0
LINE
8
BLACK
6
CONTINUOUS
10
0.28
20
1.03492
11
0.346072
21
1.03492
0
LINE
8
BLACK
6
CONTINUOUS
10
0.346072
20
1.03492
11
0.395079
21
1.08393
0
LINE
8
BLACK
6
CONTINUOUS
10
0.395079
20
1.08393
11
0.395079
21
1.15122
0
LINE
8
BLACK
6
CONTINUOUS
10
0.395079
20
1.15122
11
0.391454
21
1.15154
0
LINE
8
BLACK
6
CONTINUOUS
10
0.391454
20
1.15154
11
0.383168
21
1.15376
0
LINE
8
BLACK
6
CONTINUOUS
10
0.383168
20
1.15376
11
0.375394
21
1.15738
0
LINE
8
BLACK
6
CONTINUOUS
10
0.375394
20
1.15738
11
0.368367
21
1.1623
0
LINE
8
BLACK
6
CONTINUOUS
10
0.368367
20
1.1623
11
0.362301
21
1.16837
0
LINE
8
BLACK
6
CONTINUOUS
10
0.362301
20
1.16837
11
0.357381
21
1.17539
0
LINE
8
BLACK
6
CONTINUOUS
10
0.357381
20
1.17539
11
0.353755
21
1.18317
0
LINE
8
BLACK
6
CONTINUOUS
10
0.353755
20
1.18317
11
0.351535
21
1.19145
0
LINE
8
BLACK
6
CONTINUOUS
10
0.351535
20
1.19145
11
0.350787
21
1.2
0
LINE
8
BLACK
6
CONTINUOUS
10
0.350787
20
1.2
11
0.351535
21
1.20855
0
LINE
8
BLACK
6
CONTINUOUS
10
0.351535
20
1.20855
11
0.353755
21
1.21683
0
LINE
8
BLACK
6
CONTINUOUS
10
0.353755
20
1.21683
11
0.357381
21
1.22461
0
LINE
8
BLACK
6
CONTINUOUS
10
0.357381
20
1.22461
11
0.362301
21
1.23163
0
LINE
8
BLACK
6
CONTINUOUS
10
0.362301
20
1.23163
11
0.368367
21
1.2377
0
LINE
8
BLACK
6
CONTINUOUS
10
0.368367
20
1.2377
11
0.375394
21
1.24262
0
LINE
8
BLACK
6
CONTINUOUS
10
0.375394
20
1.24262
11
0.383168
21
1.24624
0
LINE
8
BLACK
6
CONTINUOUS
10
0.383168
20
1.24624
11
0.391454
21
1.24846
0
LINE
8
BLACK
6
CONTINUOUS
10
0.391454
20
1.24846
11
0.4
21
1.24921
0
LINE
8
BLACK
6
CONTINUOUS
10
0.4
20
1.24921
11
0.408546
21
1.24846
0
LINE
8
BLACK
6
CONTINUOUS
10
0.314843
20
0.9703
11
0.295157
21
0.9703
0
LINE
8
BLACK
6
CONTINUOUS
10
0.295157
20
0.9703
11
0.295157
21
1.0097
0
LINE
8
BLACK
6
CONTINUOUS
10
0.295157
20
1.0097
11
0.314843
21
1.0097
0
LINE
8
BLACK
6
CONTINUOUS
10
0.314843
20
1.0097
11
0.314843
21
0.9703
0
LINE
8
BLACK
6
CONTINUOUS
10
0.509229
20
1.15234
11
0.518178
21
1.14994
0
LINE
8
BLACK
6
CONTINUOUS
10
0.518178
20
1.14994
11
0.526575
21
1.14603
0
LINE
8
BLACK
6
CONTINUOUS
10
0.526575
20
1.14603
11
0.534164
21
1.14071
0
LINE
8
BLACK
6
CONTINUOUS
10
0.534164
20
1.14071
11
0.540715
21
1.13416
0
LINE
8
BLACK
6
CONTINUOUS
10
0.540715
20
1.13416
11
0.546029
21
1.12657
0
LINE
8
BLACK
6
CONTINUOUS
10
0.546029
20
1.12657
11
0.549944
21
1.11818
0
LINE
8
BLACK
6
CONTINUOUS
10
0.549944
20
1.11818
11
0.552342
21
1.10923
0
LINE
8
BLACK
6
CONTINUOUS
10
0.552342
20
1.10923
11
0.55315
21
1.1
0
LINE
8
BLACK
6
CONTINUOUS
10
0.55315
20
1.1
11
0.552342
21
1.09077
0
LINE
8
BLACK
6
CONTINUOUS
10
0.552342
20
1.09077
11
0.549944
21
1.08182
0
LINE
8
BLACK
6
CONTINUOUS
10
0.549944
20
1.08182
11
0.546029
21
1.07343
0
LINE
8
BLACK
6
CONTINUOUS
10
0.546029
20
1.07343
11
0.540715
21
1.06584
0
LINE
8
BLACK
6
CONTINUOUS
10
0.540715
20
1.06584
11
0.534164
21
1.05929
0
LINE
8
BLACK
6
CONTINUOUS
10
0.534164
20
1.05929
11
0.526575
21
1.05397
0
LINE
8
BLACK
6
CONTINUOUS
10
0.526575
20
1.05397
11
0.518178
21
1.05006
0
LINE
8
BLACK
6
CONTINUOUS
10
0.518178
20
1.05006
11
0.509229
21
1.04766
0
LINE
8
BLACK
6
CONTINUOUS
10
0.509229
20
1.04766
11
0.5
21
1.04685
0
LINE
8
BLACK
6
CONTINUOUS
10
0.5
20
1.04685
11
0.490771
21
1.04766
0
LINE
8
BLACK
6
CONTINUOUS
10
0.490771
20
1.04766
11
0.481822
21
1.05006
0
LINE
8
BLACK
6
CONTINUOUS
10
0.481822
20
1.05006
11
0.473425
21
1.05397
0
LINE
8
BLACK
6
CONTINUOUS
10
0.473425
20
1.05397
11
0.465836
21
1.05929
0
LINE
8
BLACK
6
CONTINUOUS
10
0.465836
20
1.05929
11
0.459285
21
1.06584
0
LINE
8
BLACK
6
CONTINUOUS
10
0.459285
20
1.06584
11
0.453971
21
1.07343
0
LINE
8
BLACK
6
CONTINUOUS
10
0.453971
20
1.07343
11
0.450056
21
1.08182
0
LINE
8
BLACK
6
CONTINUOUS
10
0.450056
20
1.08182
11
0.447658
21
1.09077
0
LINE
8
BLACK
6
CONTINUOUS
10
0.447658
20
1.09077
11
0.44685
21
1.1
0
LINE
8
BLACK
6
CONTINUOUS
10
0.44685
20
1.1
11
0.447658
21
1.10923
0
LINE
8
BLACK
6
CONTINUOUS
10
0.447658
20
1.10923
11
0.450056
21
1.11818
0
LINE
8
BLACK
6
CONTINUOUS
10
0.450056
20
1.11818
11
0.453971
21
1.12657
0
LINE
8
BLACK
6
CONTINUOUS
10
0.453971
20
1.12657
11
0.459285
21
1.13416
0
LINE
8
BLACK
6
CONTINUOUS
10
0.459285
20
1.13416
11
0.465836
21
1.14071
0
LINE
8
BLACK
6
CONTINUOUS
10
0.465836
20
1.14071
11
0.473425
21
1.14603
0
LINE
8
BLACK
6
CONTINUOUS
10
0.473425
20
1.14603
11
0.481822
21
1.14994
0
LINE
8
BLACK
6
CONTINUOUS
10
0.481822
20
1.14994
11
0.490771
21
1.15234
0
LINE
8
BLACK
6
CONTINUOUS
10
0.490771
20
1.15234
11
0.5
21
1.15315
0
LINE
8
BLACK
6
CONTINUOUS
10
0.5
20
1.15315
11
0.509229
21
1.15234
0
LINE
8
BLACK
6
CONTINUOUS
10
0.309229
20
1.15234
11
0.318178
21
1.14994
0
LINE
8
BLACK
6
CONTINUOUS
10
0.318178
20
1.14994
11
0.326575
21
1.14603
0
LINE
8
BLACK
6
CONTINUOUS
10
0.326575
20
1.14603
11
0.334164
21
1.14071
0
LINE
8
BLACK
6
CONTINUOUS
10
0.334164
20
1.14071
11
0.340715
21
1.13416
0
LINE
8
BLACK
6
CONTINUOUS
10
0.340715
20
1.13416
11
0.346029
21
1.12657
0
LINE
8
BLACK
6
CONTINUOUS
10
0.346029
20
1.12657
11
0.349944
21
1.11818
0
LINE
8
BLACK
6
CONTINUOUS
10
0.349944
20
1.11818
11
0.352342
21
1.10923
0
LINE
8
BLACK
6
CONTINUOUS
10
0.352342
20
1.10923
11
0.35315
21
1.1
0
LINE
8
BLACK
6
CONTINUOUS
10
0.35315
20
1.1
11
0.352342
21
1.09077
0
LINE
8
BLACK
6
CONTINUOUS
10
0.352342
20
1.09077
11
0.349944
21
1.08182
0
LINE
8
BLACK
6
CONTINUOUS
10
0.349944
20
1.08182
11
0.346029
21
1.07343
0
LINE
8
BLACK
6
CONTINUOUS
10
0.346029
20
1.07343
11
0.340715
21
1.06584
0
LINE
8
BLACK
6
CONTINUOUS
10
0.340715
20
1.06584
11
0.334164
21
1.05929
0
LINE
8
BLACK
6
CONTINUOUS
10
0.334164
20
1.05929
11
0.326575
21
1.05397
0
LINE
8
BLACK
6
CONTINUOUS
10
0.326575
20
1.05397
11
0.318178
21
1.05006
0
LINE
8
BLACK
6
CONTINUOUS
10
0.318178
20
1.05006
11
0.309229
21
1.04766
0
LINE
8
BLACK
6
CONTINUOUS
10
0.309229
20
1.04766
11
0.3
21
1.04685
0
LINE
8
BLACK
6
CONTINUOUS
10
0.3
20
1.04685
11
0.290771
21
1.04766
0
LINE
8
BLACK
6
CONTINUOUS
10
0.290771
20
1.04766
11
0.281822
21
1.05006
0
LINE
8
BLACK
6
CONTINUOUS
10
0.281822
20
1.05006
11
0.273425
21
1.05397
0
LINE
8
BLACK
6
CONTINUOUS
10
0.273425
20
1.05397
11
0.265836
21
1.05929
0
LINE
8
BLACK
6
CONTINUOUS
10
0.265836
20
1.05929
11
0.259285
21
1.06584
0
LINE
8
BLACK
6
CONTINUOUS
10
0.259285
20
1.06584
11
0.253971
21
1.07343
0
LINE
8
BLACK
6
CONTINUOUS
10
0.253971
20
1.07343
11
0.250056
21
1.08182
0
LINE
8
BLACK
6
CONTINUOUS
10
0.250056
20
1.08182
11
0.247658
21
1.09077
0
LINE
8
BLACK
6
CONTINUOUS
10
0.247658
20
1.09077
11
0.24685
21
1.1
0
LINE
8
BLACK
6
CONTINUOUS
10
0.24685
20
1.1
11
0.247658
21
1.10923
0
LINE
8
BLACK
6
CONTINUOUS
10
0.247658
20
1.10923
11
0.250056
21
1.11818
0
LINE
8
BLACK
6
CONTINUOUS
10
0.250056
20
1.11818
11
0.253971
21
1.12657
0
LINE
8
BLACK
6
CONTINUOUS
10
0.253971
20
1.12657
11
0.259285
21
1.13416
0
LINE
8
BLACK
6
CONTINUOUS
10
0.259285
20
1.13416
11
0.265836
21
1.14071
0
LINE
8
BLACK
6
CONTINUOUS
10
0.265836
20
1.14071
11
0.273425
21
1.14603
0
LINE
8
BLACK
6
CONTINUOUS
10
0.273425
20
1.14603
11
0.281822
21
1.14994
0
LINE
8
BLACK
6
CONTINUOUS
10
0.281822
20
1.14994
11
0.290771
21
1.15234
0
LINE
8
BLACK
6
CONTINUOUS
10
0.290771
20
1.15234
11
0.3
21
1.15315
0
LINE
8
BLACK
6
CONTINUOUS
10
0.3
20
1.15315
11
0.309229
21
1.15234
0
LINE
8
BLACK
6
CONTINUOUS
10
0.0086502
20
1.31779
11
0.0221317
21
1.31602
0
LINE
8
BLACK
6
CONTINUOUS
10
0.0221317
20
1.31602
11
0.0353198
21
1.31271
0
LINE
8
BLACK
6
CONTINUOUS
10
0.0353198
20
1.31271
11
0.0480398
21
1.3079
0
LINE
8
BLACK
6
CONTINUOUS
10
0.0480398
20
1.3079
11
0.060123
21
1.30166
0
LINE
8
BLACK
6
CONTINUOUS
10
0.060123
20
1.30166
11
0.0714093
21
1.29408
0
LINE
8
BLACK
6
CONTINUOUS
10
0.0714093
20
1.29408
11
0.0817492
21
1.28525
0
LINE
8
BLACK
6
CONTINUOUS
10
0.0817492
20
1.28525
11
0.0910055
21
1.27529
0
LINE
8
BLACK
6
CONTINUOUS
10
0.0910055
20
1.27529
11
0.0990556
21
1.26433
0
LINE
8
BLACK
6
CONTINUOUS
10
0.0990556
20
1.26433
11
0.105793
21
1.25252
0
LINE
8
BLACK
6
CONTINUOUS
10
0.105793
20
1.25252
11
0.111128
21
1.24001
0
LINE
8
BLACK
6
CONTINUOUS
10
0.111128
20
1.24001
11
0.11499
21
1.22697
0
LINE
8
BLACK
6
CONTINUOUS
10
0.11499
20
1.22697
11
0.117327
21
1.21358
0
LINE
8
BLACK
6
CONTINUOUS
10
0.117327
20
1.21358
11
0.11811
21
1.2
0
LINE
8
BLACK
6
CONTINUOUS
10
0.11811
20
1.2
11
0.117877
21
1.19258
0
LINE
8
BLACK
6
CONTINUOUS
10
0.117877
20
1.19258
11
0.116244
21
1.17908
0
LINE
8
BLACK
6
CONTINUOUS
10
0.116244
20
1.17908
11
0.113069
21
1.16586
0
LINE
8
BLACK
6
CONTINUOUS
10
0.113069
20
1.16586
11
0.108396
21
1.15309
0
LINE
8
BLACK
6
CONTINUOUS
10
0.108396
20
1.15309
11
0.102286
21
1.14094
0
LINE
8
BLACK
6
CONTINUOUS
10
0.102286
20
1.14094
11
0.0948209
21
1.12958
0
LINE
8
BLACK
6
CONTINUOUS
10
0.0948209
20
1.12958
11
0.0860987
21
1.11915
0
LINE
8
BLACK
6
CONTINUOUS
10
0.0860987
20
1.11915
11
0.0762352
21
1.10979
0
LINE
8
BLACK
6
CONTINUOUS
10
0.0762352
20
1.10979
11
0.0653612
21
1.10162
0
LINE
8
BLACK
6
CONTINUOUS
10
0.0653612
20
1.10162
11
0.0536209
21
1.09476
0
LINE
8
BLACK
6
CONTINUOUS
10
0.0536209
20
1.09476
11
0.0411699
21
1.0893
0
LINE
8
BLACK
6
CONTINUOUS
10
0.0411699
20
1.0893
11
0.0281732
21
1.0853
0
LINE
8
BLACK
6
CONTINUOUS
10
0.0281732
20
1.0853
11
0.0148031
21
1.08282
0
LINE
8
BLACK
6
CONTINUOUS
10
0.0148031
20
1.08282
11
0.00123681
21
1.0819
0
LINE
8
BLACK
6
CONTINUOUS
10
0.00123681
20
1.0819
11
-0.0123459
21
1.08254
0
LINE
8
BLACK
6
CONTINUOUS
10
-0.0123459
20
1.08254
11
-0.025765
21
1.08473
0
LINE
8
BLACK
6
CONTINUOUS
10
-0.025765
20
1.08473
11
-0.0388425
21
1.08846
0
LINE
8
BLACK
6
CONTINUOUS
10
-0.0388425
20
1.08846
11
-0.0514052
21
1.09366
0
LINE
8
BLACK
6
CONTINUOUS
10
-0.0514052
20
1.09366
11
-0.0632866
21
1.10028
0
LINE
8
BLACK
6
CONTINUOUS
10
-0.0632866
20
1.10028
11
-0.0743292
21
1.10821
0
LINE
8
BLACK
6
CONTINUOUS
10
-0.0743292
20
1.10821
11
-0.0843865
21
1.11736
0
LINE
8
BLACK
6
CONTINUOUS
10
-0.0843865
20
1.11736
11
-0.0933254
21
1.12761
0
LINE
8
BLACK
6
CONTINUOUS
10
-0.0933254
20
1.12761
11
-0.101027
21
1.13882
0
LINE
8
BLACK
6
CONTINUOUS
10
-0.101027
20
1.13882
11
-0.10739
21
1.15083
0
LINE
8
BLACK
6
CONTINUOUS
10
-0.10739
20
1.15083
11
-0.11233
21
1.1635
0
LINE
8
BLACK
6
CONTINUOUS
10
-0.11233
20
1.1635
11
-0.11578
21
1.17665
0
LINE
8
BLACK
6
CONTINUOUS
10
-0.11578
20
1.17665
11
-0.117696
21
1.19012
0
LINE
8
BLACK
6
CONTINUOUS
10
-0.117696
20
1.19012
11
-0.118052
21
1.20371
0
LINE
8
BLACK
6
CONTINUOUS
10
-0.118052
20
1.20371
11
-0.116843
21
1.21725
0
LINE
8
BLACK
6
CONTINUOUS
10
-0.116843
20
1.21725
11
-0.114086
21
1.23057
0
LINE
8
BLACK
6
CONTINUOUS
10
-0.114086
20
1.23057
11
-0.109816
21
1.24348
0
LINE
8
BLACK
6
CONTINUOUS
10
-0.109816
20
1.24348
11
-0.104091
21
1.25581
0
LINE
8
BLACK
6
CONTINUOUS
10
-0.104091
20
1.25581
11
-0.0969861
21
1.26741
0
LINE
8
BLACK
6
CONTINUOUS
10
-0.0969861
20
1.26741
11
-0.0885958
21
1.27811
0
LINE
8
BLACK
6
CONTINUOUS
10
-0.0885958
20
1.27811
11
-0.0790312
21
1.28777
0
LINE
8
BLACK
6
CONTINUOUS
10
-0.0790312
20
1.28777
11
-0.0684191
21
1.29627
0
LINE
8
BLACK
6
CONTINUOUS
10
-0.0684191
20
1.29627
11
-0.0569
21
1.3035
0
LINE
8
BLACK
6
CONTINUOUS
10
-0.0569
20
1.3035
11
-0.0446269
21
1.30935
0
LINE
8
BLACK
6
CONTINUOUS
10
-0.0446269
20
1.30935
11
-0.0317622
21
1.31376
0
LINE
8
BLACK
6
CONTINUOUS
10
-0.0317622
20
1.31376
11
-0.0184765
21
1.31666
0
LINE
8
BLACK
6
CONTINUOUS
10
-0.0184765
20
1.31666
11
-0.00494594
21
1.31801
0
LINE
8
BLACK
6
CONTINUOUS
10
-0.00494594
20
1.31801
11
0.0086502
21
1.31779
0
LINE
8
BLACK
6
CONTINUOUS
10
0.80865
20
1.31779
11
0.822132
21
1.31602
0
LINE
8
BLACK
6
CONTINUOUS
10
0.822132
20
1.31602
11
0.83532
21
1.31271
0
LINE
8
BLACK
6
CONTINUOUS
10
0.83532
20
1.31271
11
0.84804
21
1.3079
0
LINE
8
BLACK
6
CONTINUOUS
10
0.84804
20
1.3079
11
0.860123
21
1.30166
0
LINE
8
BLACK
6
CONTINUOUS
10
0.860123
20
1.30166
11
0.871409
21
1.29408
0
LINE
8
BLACK
6
CONTINUOUS
10
0.871409
20
1.29408
11
0.881749
21
1.28525
0
LINE
8
BLACK
6
CONTINUOUS
10
0.881749
20
1.28525
11
0.891006
21
1.27529
0
LINE
8
BLACK
6
CONTINUOUS
10
0.891006
20
1.27529
11
0.899056
21
1.26433
0
LINE
8
BLACK
6
CONTINUOUS
10
0.899056
20
1.26433
11
0.905793
21
1.25252
0
LINE
8
BLACK
6
CONTINUOUS
10
0.905793
20
1.25252
11
0.911128
21
1.24001
0
LINE
8
BLACK
6
CONTINUOUS
10
0.911128
20
1.24001
11
0.91499
21
1.22697
0
LINE
8
BLACK
6
CONTINUOUS
10
0.91499
20
1.22697
11
0.917327
21
1.21358
0
LINE
8
BLACK
6
CONTINUOUS
10
0.917327
20
1.21358
11
0.91811
21
1.2
0
LINE
8
BLACK
6
CONTINUOUS
10
0.91811
20
1.2
11
0.917877
21
1.19258
0
LINE
8
BLACK
6
CONTINUOUS
10
0.917877
20
1.19258
11
0.916244
21
1.17908
0
LINE
8
BLACK
6
CONTINUOUS
10
0.916244
20
1.17908
11
0.913069
21
1.16586
0
LINE
8
BLACK
6
CONTINUOUS
10
0.913069
20
1.16586
11
0.908396
21
1.15309
0
LINE
8
BLACK
6
CONTINUOUS
10
0.908396
20
1.15309
11
0.902286
21
1.14094
0
LINE
8
BLACK
6
CONTINUOUS
10
0.902286
20
1.14094
11
0.894821
21
1.12958
0
LINE
8
BLACK
6
CONTINUOUS
10
0.894821
20
1.12958
11
0.886099
21
1.11915
0
LINE
8
BLACK
6
CONTINUOUS
10
0.886099
20
1.11915
11
0.876235
21
1.10979
0
LINE
8
BLACK
6
CONTINUOUS
10
0.876235
20
1.10979
11
0.865361
21
1.10162
0
LINE
8
BLACK
6
CONTINUOUS
10
0.865361
20
1.10162
11
0.853621
21
1.09476
0
LINE
8
BLACK
6
CONTINUOUS
10
0.853621
20
1.09476
11
0.84117
21
1.0893
0
LINE
8
BLACK
6
CONTINUOUS
10
0.84117
20
1.0893
11
0.828173
21
1.0853
0
LINE
8
BLACK
6
CONTINUOUS
10
0.828173
20
1.0853
11
0.814803
21
1.08282
0
LINE
8
BLACK
6
CONTINUOUS
10
0.814803
20
1.08282
11
0.801237
21
1.0819
0
LINE
8
BLACK
6
CONTINUOUS
10
0.801237
20
1.0819
11
0.787654
21
1.08254
0
LINE
8
BLACK
6
CONTINUOUS
10
0.787654
20
1.08254
11
0.774235
21
1.08473
0
LINE
8
BLACK
6
CONTINUOUS
10
0.774235
20
1.08473
11
0.761157
21
1.08846
0
LINE
8
BLACK
6
CONTINUOUS
10
0.761157
20
1.08846
11
0.748595
21
1.09366
0
LINE
8
BLACK
6
CONTINUOUS
10
0.748595
20
1.09366
11
0.736713
21
1.10028
0
LINE
8
BLACK
6
CONTINUOUS
10
0.736713
20
1.10028
11
0.725671
21
1.10821
0
LINE
8
BLACK
6
CONTINUOUS
10
0.725671
20
1.10821
11
0.715613
21
1.11736
0
LINE
8
BLACK
6
CONTINUOUS
10
0.715613
20
1.11736
11
0.706675
21
1.12761
0
LINE
8
BLACK
6
CONTINUOUS
10
0.706675
20
1.12761
11
0.698973
21
1.13882
0
LINE
8
BLACK
6
CONTINUOUS
10
0.698973
20
1.13882
11
0.69261
21
1.15083
0
LINE
8
BLACK
6
CONTINUOUS
10
0.69261
20
1.15083
11
0.68767
21
1.1635
0
LINE
8
BLACK
6
CONTINUOUS
10
0.68767
20
1.1635
11
0.68422
21
1.17665
0
LINE
8
BLACK
6
CONTINUOUS
10
0.68422
20
1.17665
11
0.682304
21
1.19012
0
LINE
8
BLACK
6
CONTINUOUS
10
0.682304
20
1.19012
11
0.681948
21
1.20371
0
LINE
8
BLACK
6
CONTINUOUS
10
0.681948
20
1.20371
11
0.683157
21
1.21725
0
LINE
8
BLACK
6
CONTINUOUS
10
0.683157
20
1.21725
11
0.685914
21
1.23057
0
LINE
8
BLACK
6
CONTINUOUS
10
0.685914
20
1.23057
11
0.690184
21
1.24348
0
LINE
8
BLACK
6
CONTINUOUS
10
0.690184
20
1.24348
11
0.695909
21
1.25581
0
LINE
8
BLACK
6
CONTINUOUS
10
0.695909
20
1.25581
11
0.703014
21
1.26741
0
LINE
8
BLACK
6
CONTINUOUS
10
0.703014
20
1.26741
11
0.711404
21
1.27811
0
LINE
8
BLACK
6
CONTINUOUS
10
0.711404
20
1.27811
11
0.720969
21
1.28777
0
LINE
8
BLACK
6
CONTINUOUS
10
0.720969
20
1.28777
11
0.731581
21
1.29627
0
LINE
8
BLACK
6
CONTINUOUS
10
0.731581
20
1.29627
11
0.7431
21
1.3035
0
LINE
8
BLACK
6
CONTINUOUS
10
0.7431
20
1.3035
11
0.755373
21
1.30935
0
LINE
8
BLACK
6
CONTINUOUS
10
0.755373
20
1.30935
11
0.768238
21
1.31376
0
LINE
8
BLACK
6
CONTINUOUS
10
0.768238
20
1.31376
11
0.781524
21
1.31666
0
LINE
8
BLACK
6
CONTINUOUS
10
0.781524
20
1.31666
11
0.795054
21
1.31801
0
LINE
8
BLACK
6
CONTINUOUS
10
0.795054
20
1.31801
11
0.80865
21
1.31779
0
LINE
8
BLACK
6
CONTINUOUS
10
0.509229
20
1.35234
11
0.518178
21
1.34994
0
LINE
8
BLACK
6
CONTINUOUS
10
0.518178
20
1.34994
11
0.526575
21
1.34603
0
LINE
8
BLACK
6
CONTINUOUS
10
0.526575
20
1.34603
11
0.534164
21
1.34071
0
LINE
8
BLACK
6
CONTINUOUS
10
0.534164
20
1.34071
11
0.540715
21
1.33416
0
LINE
8
BLACK
6
CONTINUOUS
10
0.540715
20
1.33416
11
0.546029
21
1.32657
0
LINE
8
BLACK
6
CONTINUOUS
10
0.546029
20
1.32657
11
0.549944
21
1.31818
0
LINE
8
BLACK
6
CONTINUOUS
10
0.549944
20
1.31818
11
0.552342
21
1.30923
0
LINE
8
BLACK
6
CONTINUOUS
10
0.552342
20
1.30923
11
0.55315
21
1.3
0
LINE
8
BLACK
6
CONTINUOUS
10
0.55315
20
1.3
11
0.552342
21
1.29077
0
LINE
8
BLACK
6
CONTINUOUS
10
0.552342
20
1.29077
11
0.549944
21
1.28182
0
LINE
8
BLACK
6
CONTINUOUS
10
0.549944
20
1.28182
11
0.546029
21
1.27343
0
LINE
8
BLACK
6
CONTINUOUS
10
0.546029
20
1.27343
11
0.540715
21
1.26584
0
LINE
8
BLACK
6
CONTINUOUS
10
0.540715
20
1.26584
11
0.534164
21
1.25929
0
LINE
8
BLACK
6
CONTINUOUS
10
0.534164
20
1.25929
11
0.526575
21
1.25397
0
LINE
8
BLACK
6
CONTINUOUS
10
0.526575
20
1.25397
11
0.518178
21
1.25006
0
LINE
8
BLACK
6
CONTINUOUS
10
0.518178
20
1.25006
11
0.509229
21
1.24766
0
LINE
8
BLACK
6
CONTINUOUS
10
0.509229
20
1.24766
11
0.5
21
1.24685
0
LINE
8
BLACK
6
CONTINUOUS
10
0.5
20
1.24685
11
0.490771
21
1.24766
0
LINE
8
BLACK
6
CONTINUOUS
10
0.490771
20
1.24766
11
0.481822
21
1.25006
0
LINE
8
BLACK
6
CONTINUOUS
10
0.481822
20
1.25006
11
0.473425
21
1.25397
0
LINE
8
BLACK
6
CONTINUOUS
10
0.473425
20
1.25397
11
0.465836
21
1.25929
0
LINE
8
BLACK
6
CONTINUOUS
10
0.465836
20
1.25929
11
0.459285
21
1.26584
0
LINE
8
BLACK
6
CONTINUOUS
10
0.459285
20
1.26584
11
0.453971
21
1.27343
0
LINE
8
BLACK
6
CONTINUOUS
10
0.453971
20
1.27343
11
0.450056
21
1.28182
0
LINE
8
BLACK
6
CONTINUOUS
10
0.450056
20
1.28182
11
0.447658
21
1.29077
0
LINE
8
BLACK
6
CONTINUOUS
10
0.447658
20
1.29077
11
0.44685
21
1.3
0
LINE
8
BLACK
6
CONTINUOUS
10
0.44685
20
1.3
11
0.447658
21
1.30923
0
LINE
8
BLACK
6
CONTINUOUS
10
0.447658
20
1.30923
11
0.450056
21
1.31818
0
LINE
8
BLACK
6
CONTINUOUS
10
0.450056
20
1.31818
11
0.453971
21
1.32657
0
LINE
8
BLACK
6
CONTINUOUS
10
0.453971
20
1.32657
11
0.459285
21
1.33416
0
LINE
8
BLACK
6
CONTINUOUS
10
0.459285
20
1.33416
11
0.465836
21
1.34071
0
LINE
8
BLACK
6
CONTINUOUS
10
0.465836
20
1.34071
11
0.473425
21
1.34603
0
LINE
8
BLACK
6
CONTINUOUS
10
0.473425
20
1.34603
11
0.481822
21
1.34994
0
LINE
8
BLACK
6
CONTINUOUS
10
0.481822
20
1.34994
11
0.490771
21
1.35234
0
LINE
8
BLACK
6
CONTINUOUS
10
0.490771
20
1.35234
11
0.5
21
1.35315
0
LINE
8
BLACK
6
CONTINUOUS
10
0.5
20
1.35315
11
0.509229
21
1.35234
0
LINE
8
BLACK
6
CONTINUOUS
10
0.309229
20
1.35234
11
0.318178
21
1.34994
0
LINE
8
BLACK
6
CONTINUOUS
10
0.318178
20
1.34994
11
0.326575
21
1.34603
0
LINE
8
BLACK
6
CONTINUOUS
10
0.326575
20
1.34603
11
0.334164
21
1.34071
0
LINE
8
BLACK
6
CONTINUOUS
10
0.334164
20
1.34071
11
0.340715
21
1.33416
0
LINE
8
BLACK
6
CONTINUOUS
10
0.340715
20
1.33416
11
0.346029
21
1.32657
0
LINE
8
BLACK
6
CONTINUOUS
10
0.346029
20
1.32657
11
0.349944
21
1.31818
0
LINE
8
BLACK
6
CONTINUOUS
10
0.349944
20
1.31818
11
0.352342
21
1.30923
0
LINE
8
BLACK
6
CONTINUOUS
10
0.352342
20
1.30923
11
0.35315
21
1.3
0
LINE
8
BLACK
6
CONTINUOUS
10
0.35315
20
1.3
11
0.352342
21
1.29077
0
LINE
8
BLACK
6
CONTINUOUS
10
0.352342
20
1.29077
11
0.349944
21
1.28182
0
LINE
8
BLACK
6
CONTINUOUS
10
0.349944
20
1.28182
11
0.346029
21
1.27343
0
LINE
8
BLACK
6
CONTINUOUS
10
0.346029
20
1.27343
11
0.340715
21
1.26584
0
LINE
8
BLACK
6
CONTINUOUS
10
0.340715
20
1.26584
11
0.334164
21
1.25929
0
LINE
8
BLACK
6
CONTINUOUS
10
0.334164
20
1.25929
11
0.326575
21
1.25397
0
LINE
8
BLACK
6
CONTINUOUS
10
0.326575
20
1.25397
11
0.318178
21
1.25006
0
LINE
8
BLACK
6
CONTINUOUS
10
0.318178
20
1.25006
11
0.309229
21
1.24766
0
LINE
8
BLACK
6
CONTINUOUS
10
0.309229
20
1.24766
11
0.3
21
1.24685
0
LINE
8
BLACK
6
CONTINUOUS
10
0.3
20
1.24685
11
0.290771
21
1.24766
0
LINE
8
BLACK
6
CONTINUOUS
10
0.290771
20
1.24766
11
0.281822
21
1.25006
0
LINE
8
BLACK
6
CONTINUOUS
10
0.281822
20
1.25006
11
0.273425
21
1.25397
0
LINE
8
BLACK
6
CONTINUOUS
10
0.273425
20
1.25397
11
0.265836
21
1.25929
0
LINE
8
BLACK
6
CONTINUOUS
10
0.265836
20
1.25929
11
0.259285
21
1.26584
0
LINE
8
BLACK
6
CONTINUOUS
10
0.259285
20
1.26584
11
0.253971
21
1.27343
0
LINE
8
BLACK
6
CONTINUOUS
10
0.253971
20
1.27343
11
0.250056
21
1.28182
0
LINE
8
BLACK
6
CONTINUOUS
10
0.250056
20
1.28182
11
0.247658
21
1.29077
0
LINE
8
BLACK
6
CONTINUOUS
10
0.247658
20
1.29077
11
0.24685
21
1.3
0
LINE
8
BLACK
6
CONTINUOUS
10
0.24685
20
1.3
11
0.247658
21
1.30923
0
LINE
8
BLACK
6
CONTINUOUS
10
0.247658
20
1.30923
11
0.250056
21
1.31818
0
LINE
8
BLACK
6
CONTINUOUS
10
0.250056
20
1.31818
11
0.253971
21
1.32657
0
LINE
8
BLACK
6
CONTINUOUS
10
0.253971
20
1.32657
11
0.259285
21
1.33416
0
LINE
8
BLACK
6
CONTINUOUS
10
0.259285
20
1.33416
11
0.265836
21
1.34071
0
LINE
8
BLACK
6
CONTINUOUS
10
0.265836
20
1.34071
11
0.273425
21
1.34603
0
LINE
8
BLACK
6
CONTINUOUS
10
0.273425
20
1.34603
11
0.281822
21
1.34994
0
LINE
8
BLACK
6
CONTINUOUS
10
0.281822
20
1.34994
11
0.290771
21
1.35234
0
LINE
8
BLACK
6
CONTINUOUS
10
0.290771
20
1.35234
11
0.3
21
1.35315
0
LINE
8
BLACK
6
CONTINUOUS
10
0.3
20
1.35315
11
0.309229
21
1.35234
  0
ENDSEC
  0
EOF
