  0
SECTION
  2
HEADER
  9
$ANGBASE
  50
0.0
  9
$ANGDIR
  70
1
  9
$MEASUREMENT
  70
0
  0
ENDSEC
  0
SECTION
  2
TABLES
  0
TABLE
  2
LTYPE
  70
4
  0
LTYPE
  5
40F
  2
CONTINUOUS
  70
0
  3
Solid line
  72
65
  73
0
  40
0.0
  0
LTYPE
  5
410
  2
DASHDOT
 70
0
  3
Dash Dot ____ _ ____ _
 72
65
 73
4
 40
2.0
 49
1.25
 49
-0.25
 49
0.25
 49
-0.25
  0
LTYPE
  5
411
  2
DASHED
 70
0
  3
Dashed __ __ __ __ __
 72
65
 73
2
 40
0.75
 49
0.5
 49
-0.25
  0
LTYPE
  5
43B
  2
DOTTED
 70
0
  3
Dotted .  .  .  .
 72
65
 73
2
 40
0.2
 49
0.0
 49
-0.2
  0
ENDTAB
  0
TABLE
  2
STYLE
  70
4
  0
STYLE
  2
KICAD
  70
0
  40
0
  41
1
  42
1
  50
0
  71
0
  3
isocp.shx
  0
STYLE
  2
KICADB
  70
0
  40
0
  41
1
  42
1
  50
0
  71
0
  3
isocp.shx
  0
STYLE
  2
KICADI
  70
0
  40
0
  41
1
  42
1
  50
15
  71
0
  3
isocp.shx
  0
STYLE
  2
KICADBI
  70
0
  40
0
  41
1
  42
1
  50
15
  71
0
  3
isocp.shx
  0
ENDTAB
  0
TABLE
  2
LAYER
  70
1
  0
LAYER
  2
BLACK
  70
0
  62
7
  6
CONTINUOUS
  0
ENDTAB
  0
ENDSEC
  0
SECTION
  2
ENTITIES
0
LINE
8
BLACK
6
CONTINUOUS
10
0.385595
20
0.0290741
11
0.386286
21
0.0271761
0
LINE
8
BLACK
6
CONTINUOUS
10
0.386286
20
0.0271761
11
0.386286
21
-0.00853815
0
LINE
8
BLACK
6
CONTINUOUS
10
0.386286
20
-0.00853815
11
0.386133
21
-0.00940752
0
LINE
8
BLACK
6
CONTINUOUS
10
0.386133
20
-0.00940752
11
0.386135
21
-0.00947193
0
LINE
8
BLACK
6
CONTINUOUS
10
0.386135
20
-0.00947193
11
0.383754
21
-0.0166147
0
LINE
8
BLACK
6
CONTINUOUS
10
0.383754
20
-0.0166147
11
0.383265
21
-0.0175165
0
LINE
8
BLACK
6
CONTINUOUS
10
0.383265
20
-0.0175165
11
0.383115
21
-0.0176089
0
LINE
8
BLACK
6
CONTINUOUS
10
0.383115
20
-0.0176089
11
0.38304
21
-0.0177689
0
LINE
8
BLACK
6
CONTINUOUS
10
0.38304
20
-0.0177689
11
0.378278
21
-0.0225308
0
LINE
8
BLACK
6
CONTINUOUS
10
0.378278
20
-0.0225308
11
0.377438
21
-0.023119
0
LINE
8
BLACK
6
CONTINUOUS
10
0.377438
20
-0.023119
11
0.377262
21
-0.0231344
0
LINE
8
BLACK
6
CONTINUOUS
10
0.377262
20
-0.0231344
11
0.377124
21
-0.0232441
0
LINE
8
BLACK
6
CONTINUOUS
10
0.377124
20
-0.0232441
11
0.369981
21
-0.0256251
0
LINE
8
BLACK
6
CONTINUOUS
10
0.369981
20
-0.0256251
11
0.369108
21
-0.0257545
0
LINE
8
BLACK
6
CONTINUOUS
10
0.369108
20
-0.0257545
11
0.369048
21
-0.0257766
0
LINE
8
BLACK
6
CONTINUOUS
10
0.369048
20
-0.0257766
11
0.364286
21
-0.0257766
0
LINE
8
BLACK
6
CONTINUOUS
10
0.364286
20
-0.0257766
11
0.363276
21
-0.0255985
0
LINE
8
BLACK
6
CONTINUOUS
10
0.363276
20
-0.0255985
11
0.361729
21
-0.0243002
0
LINE
8
BLACK
6
CONTINUOUS
10
0.361729
20
-0.0243002
11
0.361378
21
-0.0223111
0
LINE
8
BLACK
6
CONTINUOUS
10
0.361378
20
-0.0223111
11
0.362388
21
-0.0205619
0
LINE
8
BLACK
6
CONTINUOUS
10
0.362388
20
-0.0205619
11
0.364286
21
-0.0198711
0
LINE
8
BLACK
6
CONTINUOUS
10
0.364286
20
-0.0198711
11
0.368568
21
-0.0198711
0
LINE
8
BLACK
6
CONTINUOUS
10
0.368568
20
-0.0198711
11
0.374595
21
-0.0178621
0
LINE
8
BLACK
6
CONTINUOUS
10
0.374595
20
-0.0178621
11
0.378372
21
-0.0140859
0
LINE
8
BLACK
6
CONTINUOUS
10
0.378372
20
-0.0140859
11
0.380381
21
-0.00805898
0
LINE
8
BLACK
6
CONTINUOUS
10
0.380381
20
-0.00805898
11
0.380381
21
0.0271761
0
LINE
8
BLACK
6
CONTINUOUS
10
0.380381
20
0.0271761
11
0.380559
21
0.0281861
0
LINE
8
BLACK
6
CONTINUOUS
10
0.380559
20
0.0281861
11
0.381857
21
0.0297333
0
LINE
8
BLACK
6
CONTINUOUS
10
0.381857
20
0.0297333
11
0.383846
21
0.0300841
0
LINE
8
BLACK
6
CONTINUOUS
10
0.383846
20
0.0300841
11
0.385595
21
0.0290741
0
LINE
8
BLACK
6
CONTINUOUS
10
0.424819
20
0.0299508
11
0.424955
21
0.0298374
0
LINE
8
BLACK
6
CONTINUOUS
10
0.424955
20
0.0298374
11
0.42513
21
0.0298172
0
LINE
8
BLACK
6
CONTINUOUS
10
0.42513
20
0.0298172
11
0.429892
21
0.0274362
0
LINE
8
BLACK
6
CONTINUOUS
10
0.429892
20
0.0274362
11
0.430601
21
0.0269103
0
LINE
8
BLACK
6
CONTINUOUS
10
0.430601
20
0.0269103
11
0.430659
21
0.0268831
0
LINE
8
BLACK
6
CONTINUOUS
10
0.430659
20
0.0268831
11
0.43304
21
0.0245022
0
LINE
8
BLACK
6
CONTINUOUS
10
0.43304
20
0.0245022
11
0.433547
21
0.0237791
0
LINE
8
BLACK
6
CONTINUOUS
10
0.433547
20
0.0237791
11
0.433593
21
0.0237348
0
LINE
8
BLACK
6
CONTINUOUS
10
0.433593
20
0.0237348
11
0.435974
21
0.0189729
0
LINE
8
BLACK
6
CONTINUOUS
10
0.435974
20
0.0189729
11
0.436267
21
0.01799
0
LINE
8
BLACK
6
CONTINUOUS
10
0.436267
20
0.01799
11
0.436226
21
0.0178183
0
LINE
8
BLACK
6
CONTINUOUS
10
0.436226
20
0.0178183
11
0.436286
21
0.0176524
0
LINE
8
BLACK
6
CONTINUOUS
10
0.436286
20
0.0176524
11
0.436286
21
0.0128904
0
LINE
8
BLACK
6
CONTINUOUS
10
0.436286
20
0.0128904
11
0.436133
21
0.0120211
0
LINE
8
BLACK
6
CONTINUOUS
10
0.436133
20
0.0120211
11
0.436135
21
0.0119567
0
LINE
8
BLACK
6
CONTINUOUS
10
0.436135
20
0.0119567
11
0.433754
21
0.00481386
0
LINE
8
BLACK
6
CONTINUOUS
10
0.433754
20
0.00481386
11
0.433265
21
0.00391205
0
LINE
8
BLACK
6
CONTINUOUS
10
0.433265
20
0.00391205
11
0.433115
21
0.00381965
0
LINE
8
BLACK
6
CONTINUOUS
10
0.433115
20
0.00381965
11
0.43304
21
0.00365969
0
LINE
8
BLACK
6
CONTINUOUS
10
0.43304
20
0.00365969
11
0.40951
21
-0.0198711
0
LINE
8
BLACK
6
CONTINUOUS
10
0.40951
20
-0.0198711
11
0.433333
21
-0.0198711
0
LINE
8
BLACK
6
CONTINUOUS
10
0.433333
20
-0.0198711
11
0.434343
21
-0.0200492
0
LINE
8
BLACK
6
CONTINUOUS
10
0.434343
20
-0.0200492
11
0.435891
21
-0.0213475
0
LINE
8
BLACK
6
CONTINUOUS
10
0.435891
20
-0.0213475
11
0.436241
21
-0.0233366
0
LINE
8
BLACK
6
CONTINUOUS
10
0.436241
20
-0.0233366
11
0.435231
21
-0.0250858
0
LINE
8
BLACK
6
CONTINUOUS
10
0.435231
20
-0.0250858
11
0.433333
21
-0.0257766
0
LINE
8
BLACK
6
CONTINUOUS
10
0.433333
20
-0.0257766
11
0.402381
21
-0.0257766
0
LINE
8
BLACK
6
CONTINUOUS
10
0.402381
20
-0.0257766
11
0.401746
21
-0.0256647
0
LINE
8
BLACK
6
CONTINUOUS
10
0.401746
20
-0.0256647
11
0.401617
21
-0.025676
0
LINE
8
BLACK
6
CONTINUOUS
10
0.401617
20
-0.025676
11
0.401551
21
-0.0256304
0
LINE
8
BLACK
6
CONTINUOUS
10
0.401551
20
-0.0256304
11
0.401371
21
-0.0255985
0
LINE
8
BLACK
6
CONTINUOUS
10
0.401371
20
-0.0255985
11
0.40069
21
-0.0250272
0
LINE
8
BLACK
6
CONTINUOUS
10
0.40069
20
-0.0250272
11
0.399962
21
-0.0245175
0
LINE
8
BLACK
6
CONTINUOUS
10
0.399962
20
-0.0245175
11
0.399927
21
-0.024387
0
LINE
8
BLACK
6
CONTINUOUS
10
0.399927
20
-0.024387
11
0.399824
21
-0.0243002
0
LINE
8
BLACK
6
CONTINUOUS
10
0.399824
20
-0.0243002
11
0.399669
21
-0.0234249
0
LINE
8
BLACK
6
CONTINUOUS
10
0.399669
20
-0.0234249
11
0.399439
21
-0.0225665
0
LINE
8
BLACK
6
CONTINUOUS
10
0.399439
20
-0.0225665
11
0.399496
21
-0.0224442
0
LINE
8
BLACK
6
CONTINUOUS
10
0.399496
20
-0.0224442
11
0.399473
21
-0.0223111
0
LINE
8
BLACK
6
CONTINUOUS
10
0.399473
20
-0.0223111
11
0.399918
21
-0.0215412
0
LINE
8
BLACK
6
CONTINUOUS
10
0.399918
20
-0.0215412
11
0.400293
21
-0.0207359
0
LINE
8
BLACK
6
CONTINUOUS
10
0.400293
20
-0.0207359
11
0.428372
21
0.00734268
0
LINE
8
BLACK
6
CONTINUOUS
10
0.428372
20
0.00734268
11
0.430381
21
0.0133696
0
LINE
8
BLACK
6
CONTINUOUS
10
0.430381
20
0.0133696
11
0.430381
21
0.0169553
0
LINE
8
BLACK
6
CONTINUOUS
10
0.430381
20
0.0169553
11
0.428526
21
0.0206652
0
LINE
8
BLACK
6
CONTINUOUS
10
0.428526
20
0.0206652
11
0.426822
21
0.0223685
0
LINE
8
BLACK
6
CONTINUOUS
10
0.426822
20
0.0223685
11
0.423112
21
0.0242234
0
LINE
8
BLACK
6
CONTINUOUS
10
0.423112
20
0.0242234
11
0.412602
21
0.0242234
0
LINE
8
BLACK
6
CONTINUOUS
10
0.412602
20
0.0242234
11
0.408892
21
0.0223685
0
LINE
8
BLACK
6
CONTINUOUS
10
0.408892
20
0.0223685
11
0.40685
21
0.0203263
0
LINE
8
BLACK
6
CONTINUOUS
10
0.40685
20
0.0203263
11
0.40601
21
0.0197381
0
LINE
8
BLACK
6
CONTINUOUS
10
0.40601
20
0.0197381
11
0.403998
21
0.0195621
0
LINE
8
BLACK
6
CONTINUOUS
10
0.403998
20
0.0195621
11
0.402343
21
0.0207206
0
LINE
8
BLACK
6
CONTINUOUS
10
0.402343
20
0.0207206
11
0.40182
21
0.0226716
0
LINE
8
BLACK
6
CONTINUOUS
10
0.40182
20
0.0226716
11
0.402674
21
0.0245022
0
LINE
8
BLACK
6
CONTINUOUS
10
0.402674
20
0.0245022
11
0.405055
21
0.0268831
0
LINE
8
BLACK
6
CONTINUOUS
10
0.405055
20
0.0268831
11
0.405778
21
0.0273894
0
LINE
8
BLACK
6
CONTINUOUS
10
0.405778
20
0.0273894
11
0.405822
21
0.0274362
0
LINE
8
BLACK
6
CONTINUOUS
10
0.405822
20
0.0274362
11
0.410584
21
0.0298172
0
LINE
8
BLACK
6
CONTINUOUS
10
0.410584
20
0.0298172
11
0.411567
21
0.0301095
0
LINE
8
BLACK
6
CONTINUOUS
10
0.411567
20
0.0301095
11
0.411739
21
0.0300685
0
LINE
8
BLACK
6
CONTINUOUS
10
0.411739
20
0.0300685
11
0.411905
21
0.0301289
0
LINE
8
BLACK
6
CONTINUOUS
10
0.411905
20
0.0301289
11
0.42381
21
0.0301289
0
LINE
8
BLACK
6
CONTINUOUS
10
0.42381
20
0.0301289
11
0.424819
21
0.0299508
0
LINE
8
BLACK
6
CONTINUOUS
10
0.4115
20
0.0873486
11
0.422803
21
0.0851003
0
LINE
8
BLACK
6
CONTINUOUS
10
0.422803
20
0.0851003
11
0.433715
21
0.0813959
0
LINE
8
BLACK
6
CONTINUOUS
10
0.433715
20
0.0813959
11
0.444051
21
0.0762989
0
LINE
8
BLACK
6
CONTINUOUS
10
0.444051
20
0.0762989
11
0.453633
21
0.0698963
0
LINE
8
BLACK
6
CONTINUOUS
10
0.453633
20
0.0698963
11
0.462298
21
0.0622978
0
LINE
8
BLACK
6
CONTINUOUS
10
0.462298
20
0.0622978
11
0.469896
21
0.0536333
0
LINE
8
BLACK
6
CONTINUOUS
10
0.469896
20
0.0536333
11
0.476299
21
0.0440511
0
LINE
8
BLACK
6
CONTINUOUS
10
0.476299
20
0.0440511
11
0.481396
21
0.0337153
0
LINE
8
BLACK
6
CONTINUOUS
10
0.481396
20
0.0337153
11
0.4851
21
0.0228026
0
LINE
8
BLACK
6
CONTINUOUS
10
0.4851
20
0.0228026
11
0.487349
21
0.0114996
0
LINE
8
BLACK
6
CONTINUOUS
10
0.487349
20
0.0114996
11
0.488102
21
0
0
LINE
8
BLACK
6
CONTINUOUS
10
0.488102
20
0
11
0.487349
21
-0.0114996
0
LINE
8
BLACK
6
CONTINUOUS
10
0.487349
20
-0.0114996
11
0.4851
21
-0.0228026
0
LINE
8
BLACK
6
CONTINUOUS
10
0.4851
20
-0.0228026
11
0.481396
21
-0.0337153
0
LINE
8
BLACK
6
CONTINUOUS
10
0.481396
20
-0.0337153
11
0.476299
21
-0.0440512
0
LINE
8
BLACK
6
CONTINUOUS
10
0.476299
20
-0.0440512
11
0.469896
21
-0.0536333
0
LINE
8
BLACK
6
CONTINUOUS
10
0.469896
20
-0.0536333
11
0.462298
21
-0.0622978
0
LINE
8
BLACK
6
CONTINUOUS
10
0.462298
20
-0.0622978
11
0.453633
21
-0.0698963
0
LINE
8
BLACK
6
CONTINUOUS
10
0.453633
20
-0.0698963
11
0.444051
21
-0.0762989
0
LINE
8
BLACK
6
CONTINUOUS
10
0.444051
20
-0.0762989
11
0.433715
21
-0.0813959
0
LINE
8
BLACK
6
CONTINUOUS
10
0.433715
20
-0.0813959
11
0.422803
21
-0.0851003
0
LINE
8
BLACK
6
CONTINUOUS
10
0.422803
20
-0.0851003
11
0.4115
21
-0.0873486
0
LINE
8
BLACK
6
CONTINUOUS
10
0.4115
20
-0.0873486
11
0.4
21
-0.0881023
0
LINE
8
BLACK
6
CONTINUOUS
10
0.4
20
-0.0881023
11
0.3885
21
-0.0873486
0
LINE
8
BLACK
6
CONTINUOUS
10
0.3885
20
-0.0873486
11
0.377197
21
-0.0851003
0
LINE
8
BLACK
6
CONTINUOUS
10
0.377197
20
-0.0851003
11
0.366285
21
-0.0813959
0
LINE
8
BLACK
6
CONTINUOUS
10
0.366285
20
-0.0813959
11
0.355949
21
-0.0762989
0
LINE
8
BLACK
6
CONTINUOUS
10
0.355949
20
-0.0762989
11
0.346367
21
-0.0698963
0
LINE
8
BLACK
6
CONTINUOUS
10
0.346367
20
-0.0698963
11
0.337702
21
-0.0622978
0
LINE
8
BLACK
6
CONTINUOUS
10
0.337702
20
-0.0622978
11
0.330104
21
-0.0536333
0
LINE
8
BLACK
6
CONTINUOUS
10
0.330104
20
-0.0536333
11
0.323701
21
-0.0440512
0
LINE
8
BLACK
6
CONTINUOUS
10
0.323701
20
-0.0440512
11
0.318604
21
-0.0337153
0
LINE
8
BLACK
6
CONTINUOUS
10
0.318604
20
-0.0337153
11
0.3149
21
-0.0228026
0
LINE
8
BLACK
6
CONTINUOUS
10
0.3149
20
-0.0228026
11
0.312651
21
-0.0114996
0
LINE
8
BLACK
6
CONTINUOUS
10
0.312651
20
-0.0114996
11
0.311898
21
0
0
LINE
8
BLACK
6
CONTINUOUS
10
0.311898
20
0
11
0.312651
21
0.0114996
0
LINE
8
BLACK
6
CONTINUOUS
10
0.312651
20
0.0114996
11
0.3149
21
0.0228026
0
LINE
8
BLACK
6
CONTINUOUS
10
0.3149
20
0.0228026
11
0.318604
21
0.0337153
0
LINE
8
BLACK
6
CONTINUOUS
10
0.318604
20
0.0337153
11
0.323701
21
0.0440511
0
LINE
8
BLACK
6
CONTINUOUS
10
0.323701
20
0.0440511
11
0.330104
21
0.0536333
0
LINE
8
BLACK
6
CONTINUOUS
10
0.330104
20
0.0536333
11
0.337702
21
0.0622978
0
LINE
8
BLACK
6
CONTINUOUS
10
0.337702
20
0.0622978
11
0.346367
21
0.0698963
0
LINE
8
BLACK
6
CONTINUOUS
10
0.346367
20
0.0698963
11
0.355949
21
0.0762989
0
LINE
8
BLACK
6
CONTINUOUS
10
0.355949
20
0.0762989
11
0.366285
21
0.0813959
0
LINE
8
BLACK
6
CONTINUOUS
10
0.366285
20
0.0813959
11
0.377197
21
0.0851003
0
LINE
8
BLACK
6
CONTINUOUS
10
0.377197
20
0.0851003
11
0.3885
21
0.0873486
0
LINE
8
BLACK
6
CONTINUOUS
10
0.3885
20
0.0873486
11
0.4
21
0.0881023
0
LINE
8
BLACK
6
CONTINUOUS
10
0.4
20
0.0881023
11
0.4115
21
0.0873486
0
LINE
8
BLACK
6
CONTINUOUS
10
0.318378
20
-0.0112186
11
0.320666
21
-0.0222283
0
LINE
8
BLACK
6
CONTINUOUS
10
0.320666
20
-0.0222283
11
0.324432
21
-0.0328238
0
LINE
8
BLACK
6
CONTINUOUS
10
0.324432
20
-0.0328238
11
0.329605
21
-0.042808
0
LINE
8
BLACK
6
CONTINUOUS
10
0.329605
20
-0.042808
11
0.33609
21
-0.0519946
0
LINE
8
BLACK
6
CONTINUOUS
10
0.33609
20
-0.0519946
11
0.343765
21
-0.0602128
0
LINE
8
BLACK
6
CONTINUOUS
10
0.343765
20
-0.0602128
11
0.352488
21
-0.0673093
0
LINE
8
BLACK
6
CONTINUOUS
10
0.352488
20
-0.0673093
11
0.362096
21
-0.0731519
0
LINE
8
BLACK
6
CONTINUOUS
10
0.362096
20
-0.0731519
11
0.37241
21
-0.0776319
0
LINE
8
BLACK
6
CONTINUOUS
10
0.37241
20
-0.0776319
11
0.383237
21
-0.0806657
0
LINE
8
BLACK
6
CONTINUOUS
10
0.383237
20
-0.0806657
11
0.394378
21
-0.0821968
0
LINE
8
BLACK
6
CONTINUOUS
10
0.394378
20
-0.0821968
11
0.405622
21
-0.0821968
0
LINE
8
BLACK
6
CONTINUOUS
10
0.405622
20
-0.0821968
11
0.416763
21
-0.0806657
0
LINE
8
BLACK
6
CONTINUOUS
10
0.416763
20
-0.0806657
11
0.42759
21
-0.0776319
0
LINE
8
BLACK
6
CONTINUOUS
10
0.42759
20
-0.0776319
11
0.437904
21
-0.0731519
0
LINE
8
BLACK
6
CONTINUOUS
10
0.437904
20
-0.0731519
11
0.447512
21
-0.0673093
0
LINE
8
BLACK
6
CONTINUOUS
10
0.447512
20
-0.0673093
11
0.456235
21
-0.0602128
0
LINE
8
BLACK
6
CONTINUOUS
10
0.456235
20
-0.0602128
11
0.46391
21
-0.0519946
0
LINE
8
BLACK
6
CONTINUOUS
10
0.46391
20
-0.0519946
11
0.470395
21
-0.042808
0
LINE
8
BLACK
6
CONTINUOUS
10
0.470395
20
-0.042808
11
0.475568
21
-0.0328238
0
LINE
8
BLACK
6
CONTINUOUS
10
0.475568
20
-0.0328238
11
0.479334
21
-0.0222283
0
LINE
8
BLACK
6
CONTINUOUS
10
0.479334
20
-0.0222283
11
0.481622
21
-0.0112186
0
LINE
8
BLACK
6
CONTINUOUS
10
0.481622
20
-0.0112186
11
0.482389
21
0
0
LINE
8
BLACK
6
CONTINUOUS
10
0.482389
20
0
11
0.481622
21
0.0112186
0
LINE
8
BLACK
6
CONTINUOUS
10
0.481622
20
0.0112186
11
0.479334
21
0.0222283
0
LINE
8
BLACK
6
CONTINUOUS
10
0.479334
20
0.0222283
11
0.475568
21
0.0328238
0
LINE
8
BLACK
6
CONTINUOUS
10
0.475568
20
0.0328238
11
0.470395
21
0.042808
0
LINE
8
BLACK
6
CONTINUOUS
10
0.470395
20
0.042808
11
0.46391
21
0.0519946
0
LINE
8
BLACK
6
CONTINUOUS
10
0.46391
20
0.0519946
11
0.456235
21
0.0602128
0
LINE
8
BLACK
6
CONTINUOUS
10
0.456235
20
0.0602128
11
0.447512
21
0.0673093
0
LINE
8
BLACK
6
CONTINUOUS
10
0.447512
20
0.0673093
11
0.437904
21
0.0731519
0
LINE
8
BLACK
6
CONTINUOUS
10
0.437904
20
0.0731519
11
0.42759
21
0.0776319
0
LINE
8
BLACK
6
CONTINUOUS
10
0.42759
20
0.0776319
11
0.416763
21
0.0806657
0
LINE
8
BLACK
6
CONTINUOUS
10
0.416763
20
0.0806657
11
0.405622
21
0.0821968
0
LINE
8
BLACK
6
CONTINUOUS
10
0.405622
20
0.0821968
11
0.394378
21
0.0821968
0
LINE
8
BLACK
6
CONTINUOUS
10
0.394378
20
0.0821968
11
0.383237
21
0.0806657
0
LINE
8
BLACK
6
CONTINUOUS
10
0.383237
20
0.0806657
11
0.37241
21
0.0776319
0
LINE
8
BLACK
6
CONTINUOUS
10
0.37241
20
0.0776319
11
0.362096
21
0.0731519
0
LINE
8
BLACK
6
CONTINUOUS
10
0.362096
20
0.0731519
11
0.352488
21
0.0673093
0
LINE
8
BLACK
6
CONTINUOUS
10
0.352488
20
0.0673093
11
0.343765
21
0.0602128
0
LINE
8
BLACK
6
CONTINUOUS
10
0.343765
20
0.0602128
11
0.33609
21
0.0519946
0
LINE
8
BLACK
6
CONTINUOUS
10
0.33609
20
0.0519946
11
0.329605
21
0.042808
0
LINE
8
BLACK
6
CONTINUOUS
10
0.329605
20
0.042808
11
0.324432
21
0.0328238
0
LINE
8
BLACK
6
CONTINUOUS
10
0.324432
20
0.0328238
11
0.320666
21
0.0222283
0
LINE
8
BLACK
6
CONTINUOUS
10
0.320666
20
0.0222283
11
0.318378
21
0.0112186
0
LINE
8
BLACK
6
CONTINUOUS
10
0.318378
20
0.0112186
11
0.317611
21
0
0
LINE
8
BLACK
6
CONTINUOUS
10
0.317611
20
0
11
0.318378
21
-0.0112186
0
LINE
8
BLACK
6
CONTINUOUS
10
0.538179
20
0.14068
11
0.538308
21
0.140703
0
LINE
8
BLACK
6
CONTINUOUS
10
0.538308
20
0.140703
11
0.538422
21
0.140638
0
LINE
8
BLACK
6
CONTINUOUS
10
0.538422
20
0.140638
11
0.538805
21
0.14057
0
LINE
8
BLACK
6
CONTINUOUS
10
0.538805
20
0.14057
11
0.539393
21
0.140077
0
LINE
8
BLACK
6
CONTINUOUS
10
0.539393
20
0.140077
11
0.540057
21
0.139693
0
LINE
8
BLACK
6
CONTINUOUS
10
0.540057
20
0.139693
11
0.540148
21
0.139443
0
LINE
8
BLACK
6
CONTINUOUS
10
0.540148
20
0.139443
11
0.540352
21
0.139272
0
LINE
8
BLACK
6
CONTINUOUS
10
0.540352
20
0.139272
11
0.540486
21
0.138516
0
LINE
8
BLACK
6
CONTINUOUS
10
0.540486
20
0.138516
11
0.540748
21
0.137795
0
LINE
8
BLACK
6
CONTINUOUS
10
0.540748
20
0.137795
11
0.540748
21
-0.137795
0
LINE
8
BLACK
6
CONTINUOUS
10
0.540748
20
-0.137795
11
0.54068
21
-0.138179
0
LINE
8
BLACK
6
CONTINUOUS
10
0.54068
20
-0.138179
11
0.540703
21
-0.138308
0
LINE
8
BLACK
6
CONTINUOUS
10
0.540703
20
-0.138308
11
0.540638
21
-0.138422
0
LINE
8
BLACK
6
CONTINUOUS
10
0.540638
20
-0.138422
11
0.54057
21
-0.138805
0
LINE
8
BLACK
6
CONTINUOUS
10
0.54057
20
-0.138805
11
0.540077
21
-0.139393
0
LINE
8
BLACK
6
CONTINUOUS
10
0.540077
20
-0.139393
11
0.539693
21
-0.140057
0
LINE
8
BLACK
6
CONTINUOUS
10
0.539693
20
-0.140057
11
0.539443
21
-0.140148
0
LINE
8
BLACK
6
CONTINUOUS
10
0.539443
20
-0.140148
11
0.539272
21
-0.140352
0
LINE
8
BLACK
6
CONTINUOUS
10
0.539272
20
-0.140352
11
0.538516
21
-0.140486
0
LINE
8
BLACK
6
CONTINUOUS
10
0.538516
20
-0.140486
11
0.537795
21
-0.140748
0
LINE
8
BLACK
6
CONTINUOUS
10
0.537795
20
-0.140748
11
0.262205
21
-0.140748
0
LINE
8
BLACK
6
CONTINUOUS
10
0.262205
20
-0.140748
11
0.261821
21
-0.14068
0
LINE
8
BLACK
6
CONTINUOUS
10
0.261821
20
-0.14068
11
0.261692
21
-0.140703
0
LINE
8
BLACK
6
CONTINUOUS
10
0.261692
20
-0.140703
11
0.261578
21
-0.140638
0
LINE
8
BLACK
6
CONTINUOUS
10
0.261578
20
-0.140638
11
0.261195
21
-0.14057
0
LINE
8
BLACK
6
CONTINUOUS
10
0.261195
20
-0.14057
11
0.260607
21
-0.140077
0
LINE
8
BLACK
6
CONTINUOUS
10
0.260607
20
-0.140077
11
0.259943
21
-0.139693
0
LINE
8
BLACK
6
CONTINUOUS
10
0.259943
20
-0.139693
11
0.259852
21
-0.139443
0
LINE
8
BLACK
6
CONTINUOUS
10
0.259852
20
-0.139443
11
0.259648
21
-0.139272
0
LINE
8
BLACK
6
CONTINUOUS
10
0.259648
20
-0.139272
11
0.259514
21
-0.138516
0
LINE
8
BLACK
6
CONTINUOUS
10
0.259514
20
-0.138516
11
0.259252
21
-0.137795
0
LINE
8
BLACK
6
CONTINUOUS
10
0.259252
20
-0.137795
11
0.259252
21
0.137795
0
LINE
8
BLACK
6
CONTINUOUS
10
0.259252
20
0.137795
11
0.25932
21
0.138179
0
LINE
8
BLACK
6
CONTINUOUS
10
0.25932
20
0.138179
11
0.259297
21
0.138308
0
LINE
8
BLACK
6
CONTINUOUS
10
0.259297
20
0.138308
11
0.259362
21
0.138422
0
LINE
8
BLACK
6
CONTINUOUS
10
0.259362
20
0.138422
11
0.25943
21
0.138805
0
LINE
8
BLACK
6
CONTINUOUS
10
0.25943
20
0.138805
11
0.259923
21
0.139393
0
LINE
8
BLACK
6
CONTINUOUS
10
0.259923
20
0.139393
11
0.260307
21
0.140057
0
LINE
8
BLACK
6
CONTINUOUS
10
0.260307
20
0.140057
11
0.260557
21
0.140148
0
LINE
8
BLACK
6
CONTINUOUS
10
0.260557
20
0.140148
11
0.260728
21
0.140352
0
LINE
8
BLACK
6
CONTINUOUS
10
0.260728
20
0.140352
11
0.261484
21
0.140486
0
LINE
8
BLACK
6
CONTINUOUS
10
0.261484
20
0.140486
11
0.262205
21
0.140748
0
LINE
8
BLACK
6
CONTINUOUS
10
0.262205
20
0.140748
11
0.537795
21
0.140748
0
LINE
8
BLACK
6
CONTINUOUS
10
0.537795
20
0.140748
11
0.538179
21
0.14068
0
LINE
8
BLACK
6
CONTINUOUS
10
0.265157
20
-0.082874
11
0.265157
21
-0.134843
0
LINE
8
BLACK
6
CONTINUOUS
10
0.265157
20
-0.134843
11
0.317126
21
-0.134843
0
LINE
8
BLACK
6
CONTINUOUS
10
0.317126
20
-0.134843
11
0.317126
21
-0.123031
0
LINE
8
BLACK
6
CONTINUOUS
10
0.317126
20
-0.123031
11
0.279921
21
-0.123031
0
LINE
8
BLACK
6
CONTINUOUS
10
0.279921
20
-0.123031
11
0.279538
21
-0.122964
0
LINE
8
BLACK
6
CONTINUOUS
10
0.279538
20
-0.122964
11
0.279409
21
-0.122987
0
LINE
8
BLACK
6
CONTINUOUS
10
0.279409
20
-0.122987
11
0.279295
21
-0.122921
0
LINE
8
BLACK
6
CONTINUOUS
10
0.279295
20
-0.122921
11
0.278911
21
-0.122853
0
LINE
8
BLACK
6
CONTINUOUS
10
0.278911
20
-0.122853
11
0.278324
21
-0.12236
0
LINE
8
BLACK
6
CONTINUOUS
10
0.278324
20
-0.12236
11
0.277659
21
-0.121977
0
LINE
8
BLACK
6
CONTINUOUS
10
0.277659
20
-0.121977
11
0.277568
21
-0.121726
0
LINE
8
BLACK
6
CONTINUOUS
10
0.277568
20
-0.121726
11
0.277364
21
-0.121555
0
LINE
8
BLACK
6
CONTINUOUS
10
0.277364
20
-0.121555
11
0.277231
21
-0.1208
0
LINE
8
BLACK
6
CONTINUOUS
10
0.277231
20
-0.1208
11
0.276969
21
-0.120079
0
LINE
8
BLACK
6
CONTINUOUS
10
0.276969
20
-0.120079
11
0.276969
21
-0.082874
0
LINE
8
BLACK
6
CONTINUOUS
10
0.276969
20
-0.082874
11
0.265157
21
-0.082874
0
LINE
8
BLACK
6
CONTINUOUS
10
0.323031
20
0.134843
11
0.323031
21
0.0799213
0
LINE
8
BLACK
6
CONTINUOUS
10
0.323031
20
0.0799213
11
0.322964
21
0.0795378
0
LINE
8
BLACK
6
CONTINUOUS
10
0.322964
20
0.0795378
11
0.322987
21
0.0794085
0
LINE
8
BLACK
6
CONTINUOUS
10
0.322987
20
0.0794085
11
0.322921
21
0.0792949
0
LINE
8
BLACK
6
CONTINUOUS
10
0.322921
20
0.0792949
11
0.322853
21
0.0789113
0
LINE
8
BLACK
6
CONTINUOUS
10
0.322853
20
0.0789113
11
0.32236
21
0.0783237
0
LINE
8
BLACK
6
CONTINUOUS
10
0.32236
20
0.0783237
11
0.321977
21
0.0776593
0
LINE
8
BLACK
6
CONTINUOUS
10
0.321977
20
0.0776593
11
0.321726
21
0.0775682
0
LINE
8
BLACK
6
CONTINUOUS
10
0.321726
20
0.0775682
11
0.321555
21
0.0773641
0
LINE
8
BLACK
6
CONTINUOUS
10
0.321555
20
0.0773641
11
0.3208
21
0.0772309
0
LINE
8
BLACK
6
CONTINUOUS
10
0.3208
20
0.0772309
11
0.320079
21
0.0769685
0
LINE
8
BLACK
6
CONTINUOUS
10
0.320079
20
0.0769685
11
0.265157
21
0.0769685
0
LINE
8
BLACK
6
CONTINUOUS
10
0.265157
20
0.0769685
11
0.265157
21
-0.0769685
0
LINE
8
BLACK
6
CONTINUOUS
10
0.265157
20
-0.0769685
11
0.320079
21
-0.0769685
0
LINE
8
BLACK
6
CONTINUOUS
10
0.320079
20
-0.0769685
11
0.320462
21
-0.0770361
0
LINE
8
BLACK
6
CONTINUOUS
10
0.320462
20
-0.0770361
11
0.320591
21
-0.0770133
0
LINE
8
BLACK
6
CONTINUOUS
10
0.320591
20
-0.0770133
11
0.320705
21
-0.0770789
0
LINE
8
BLACK
6
CONTINUOUS
10
0.320705
20
-0.0770789
11
0.321089
21
-0.0771466
0
LINE
8
BLACK
6
CONTINUOUS
10
0.321089
20
-0.0771466
11
0.321676
21
-0.0776397
0
LINE
8
BLACK
6
CONTINUOUS
10
0.321676
20
-0.0776397
11
0.322341
21
-0.0780233
0
LINE
8
BLACK
6
CONTINUOUS
10
0.322341
20
-0.0780233
11
0.322432
21
-0.0782736
0
LINE
8
BLACK
6
CONTINUOUS
10
0.322432
20
-0.0782736
11
0.322636
21
-0.0784449
0
LINE
8
BLACK
6
CONTINUOUS
10
0.322636
20
-0.0784449
11
0.322769
21
-0.0792004
0
LINE
8
BLACK
6
CONTINUOUS
10
0.322769
20
-0.0792004
11
0.323031
21
-0.0799213
0
LINE
8
BLACK
6
CONTINUOUS
10
0.323031
20
-0.0799213
11
0.323031
21
-0.134843
0
LINE
8
BLACK
6
CONTINUOUS
10
0.323031
20
-0.134843
11
0.476969
21
-0.134843
0
LINE
8
BLACK
6
CONTINUOUS
10
0.476969
20
-0.134843
11
0.476969
21
-0.0799213
0
LINE
8
BLACK
6
CONTINUOUS
10
0.476969
20
-0.0799213
11
0.477036
21
-0.0795377
0
LINE
8
BLACK
6
CONTINUOUS
10
0.477036
20
-0.0795377
11
0.477013
21
-0.0794085
0
LINE
8
BLACK
6
CONTINUOUS
10
0.477013
20
-0.0794085
11
0.477079
21
-0.0792949
0
LINE
8
BLACK
6
CONTINUOUS
10
0.477079
20
-0.0792949
11
0.477147
21
-0.0789113
0
LINE
8
BLACK
6
CONTINUOUS
10
0.477147
20
-0.0789113
11
0.47764
21
-0.0783236
0
LINE
8
BLACK
6
CONTINUOUS
10
0.47764
20
-0.0783236
11
0.478023
21
-0.0776593
0
LINE
8
BLACK
6
CONTINUOUS
10
0.478023
20
-0.0776593
11
0.478274
21
-0.0775682
0
LINE
8
BLACK
6
CONTINUOUS
10
0.478274
20
-0.0775682
11
0.478445
21
-0.0773641
0
LINE
8
BLACK
6
CONTINUOUS
10
0.478445
20
-0.0773641
11
0.4792
21
-0.0772308
0
LINE
8
BLACK
6
CONTINUOUS
10
0.4792
20
-0.0772308
11
0.479921
21
-0.0769685
0
LINE
8
BLACK
6
CONTINUOUS
10
0.479921
20
-0.0769685
11
0.534843
21
-0.0769685
0
LINE
8
BLACK
6
CONTINUOUS
10
0.534843
20
-0.0769685
11
0.534843
21
0.0769685
0
LINE
8
BLACK
6
CONTINUOUS
10
0.534843
20
0.0769685
11
0.479921
21
0.0769685
0
LINE
8
BLACK
6
CONTINUOUS
10
0.479921
20
0.0769685
11
0.479538
21
0.0770361
0
LINE
8
BLACK
6
CONTINUOUS
10
0.479538
20
0.0770361
11
0.479409
21
0.0770133
0
LINE
8
BLACK
6
CONTINUOUS
10
0.479409
20
0.0770133
11
0.479295
21
0.077079
0
LINE
8
BLACK
6
CONTINUOUS
10
0.479295
20
0.077079
11
0.478911
21
0.0771466
0
LINE
8
BLACK
6
CONTINUOUS
10
0.478911
20
0.0771466
11
0.478324
21
0.0776397
0
LINE
8
BLACK
6
CONTINUOUS
10
0.478324
20
0.0776397
11
0.477659
21
0.0780233
0
LINE
8
BLACK
6
CONTINUOUS
10
0.477659
20
0.0780233
11
0.477568
21
0.0782736
0
LINE
8
BLACK
6
CONTINUOUS
10
0.477568
20
0.0782736
11
0.477364
21
0.0784449
0
LINE
8
BLACK
6
CONTINUOUS
10
0.477364
20
0.0784449
11
0.477231
21
0.0792005
0
LINE
8
BLACK
6
CONTINUOUS
10
0.477231
20
0.0792005
11
0.476969
21
0.0799213
0
LINE
8
BLACK
6
CONTINUOUS
10
0.476969
20
0.0799213
11
0.476969
21
0.134843
0
LINE
8
BLACK
6
CONTINUOUS
10
0.476969
20
0.134843
11
0.323031
21
0.134843
0
LINE
8
BLACK
6
CONTINUOUS
10
0.523031
20
-0.082874
11
0.523031
21
-0.120079
0
LINE
8
BLACK
6
CONTINUOUS
10
0.523031
20
-0.120079
11
0.522964
21
-0.120462
0
LINE
8
BLACK
6
CONTINUOUS
10
0.522964
20
-0.120462
11
0.522987
21
-0.120591
0
LINE
8
BLACK
6
CONTINUOUS
10
0.522987
20
-0.120591
11
0.522921
21
-0.120705
0
LINE
8
BLACK
6
CONTINUOUS
10
0.522921
20
-0.120705
11
0.522853
21
-0.121089
0
LINE
8
BLACK
6
CONTINUOUS
10
0.522853
20
-0.121089
11
0.52236
21
-0.121676
0
LINE
8
BLACK
6
CONTINUOUS
10
0.52236
20
-0.121676
11
0.521977
21
-0.122341
0
LINE
8
BLACK
6
CONTINUOUS
10
0.521977
20
-0.122341
11
0.521726
21
-0.122432
0
LINE
8
BLACK
6
CONTINUOUS
10
0.521726
20
-0.122432
11
0.521555
21
-0.122636
0
LINE
8
BLACK
6
CONTINUOUS
10
0.521555
20
-0.122636
11
0.5208
21
-0.122769
0
LINE
8
BLACK
6
CONTINUOUS
10
0.5208
20
-0.122769
11
0.520079
21
-0.123031
0
LINE
8
BLACK
6
CONTINUOUS
10
0.520079
20
-0.123031
11
0.482874
21
-0.123031
0
LINE
8
BLACK
6
CONTINUOUS
10
0.482874
20
-0.123031
11
0.482874
21
-0.134843
0
LINE
8
BLACK
6
CONTINUOUS
10
0.482874
20
-0.134843
11
0.534843
21
-0.134843
0
LINE
8
BLACK
6
CONTINUOUS
10
0.534843
20
-0.134843
11
0.534843
21
-0.082874
0
LINE
8
BLACK
6
CONTINUOUS
10
0.534843
20
-0.082874
11
0.523031
21
-0.082874
0
LINE
8
BLACK
6
CONTINUOUS
10
0.482874
20
-0.082874
11
0.482874
21
-0.117126
0
LINE
8
BLACK
6
CONTINUOUS
10
0.482874
20
-0.117126
11
0.517126
21
-0.117126
0
LINE
8
BLACK
6
CONTINUOUS
10
0.517126
20
-0.117126
11
0.517126
21
-0.082874
0
LINE
8
BLACK
6
CONTINUOUS
10
0.517126
20
-0.082874
11
0.482874
21
-0.082874
0
LINE
8
BLACK
6
CONTINUOUS
10
0.282874
20
-0.082874
11
0.282874
21
-0.117126
0
LINE
8
BLACK
6
CONTINUOUS
10
0.282874
20
-0.117126
11
0.317126
21
-0.117126
0
LINE
8
BLACK
6
CONTINUOUS
10
0.317126
20
-0.117126
11
0.317126
21
-0.082874
0
LINE
8
BLACK
6
CONTINUOUS
10
0.317126
20
-0.082874
11
0.282874
21
-0.082874
0
LINE
8
BLACK
6
CONTINUOUS
10
0.482874
20
0.117126
11
0.482874
21
0.082874
0
LINE
8
BLACK
6
CONTINUOUS
10
0.482874
20
0.082874
11
0.517126
21
0.082874
0
LINE
8
BLACK
6
CONTINUOUS
10
0.517126
20
0.082874
11
0.517126
21
0.117126
0
LINE
8
BLACK
6
CONTINUOUS
10
0.517126
20
0.117126
11
0.482874
21
0.117126
0
LINE
8
BLACK
6
CONTINUOUS
10
0.482874
20
0.134843
11
0.482874
21
0.123031
0
LINE
8
BLACK
6
CONTINUOUS
10
0.482874
20
0.123031
11
0.520079
21
0.123031
0
LINE
8
BLACK
6
CONTINUOUS
10
0.520079
20
0.123031
11
0.520462
21
0.122964
0
LINE
8
BLACK
6
CONTINUOUS
10
0.520462
20
0.122964
11
0.520591
21
0.122987
0
LINE
8
BLACK
6
CONTINUOUS
10
0.520591
20
0.122987
11
0.520705
21
0.122921
0
LINE
8
BLACK
6
CONTINUOUS
10
0.520705
20
0.122921
11
0.521089
21
0.122853
0
LINE
8
BLACK
6
CONTINUOUS
10
0.521089
20
0.122853
11
0.521676
21
0.12236
0
LINE
8
BLACK
6
CONTINUOUS
10
0.521676
20
0.12236
11
0.522341
21
0.121977
0
LINE
8
BLACK
6
CONTINUOUS
10
0.522341
20
0.121977
11
0.522432
21
0.121726
0
LINE
8
BLACK
6
CONTINUOUS
10
0.522432
20
0.121726
11
0.522636
21
0.121555
0
LINE
8
BLACK
6
CONTINUOUS
10
0.522636
20
0.121555
11
0.522769
21
0.1208
0
LINE
8
BLACK
6
CONTINUOUS
10
0.522769
20
0.1208
11
0.523031
21
0.120079
0
LINE
8
BLACK
6
CONTINUOUS
10
0.523031
20
0.120079
11
0.523031
21
0.082874
0
LINE
8
BLACK
6
CONTINUOUS
10
0.523031
20
0.082874
11
0.534843
21
0.082874
0
LINE
8
BLACK
6
CONTINUOUS
10
0.534843
20
0.082874
11
0.534843
21
0.134843
0
LINE
8
BLACK
6
CONTINUOUS
10
0.534843
20
0.134843
11
0.482874
21
0.134843
0
LINE
8
BLACK
6
CONTINUOUS
10
0.265157
20
0.134843
11
0.265157
21
0.082874
0
LINE
8
BLACK
6
CONTINUOUS
10
0.265157
20
0.082874
11
0.276969
21
0.082874
0
LINE
8
BLACK
6
CONTINUOUS
10
0.276969
20
0.082874
11
0.276969
21
0.120079
0
LINE
8
BLACK
6
CONTINUOUS
10
0.276969
20
0.120079
11
0.277036
21
0.120462
0
LINE
8
BLACK
6
CONTINUOUS
10
0.277036
20
0.120462
11
0.277013
21
0.120591
0
LINE
8
BLACK
6
CONTINUOUS
10
0.277013
20
0.120591
11
0.277079
21
0.120705
0
LINE
8
BLACK
6
CONTINUOUS
10
0.277079
20
0.120705
11
0.277147
21
0.121089
0
LINE
8
BLACK
6
CONTINUOUS
10
0.277147
20
0.121089
11
0.27764
21
0.121676
0
LINE
8
BLACK
6
CONTINUOUS
10
0.27764
20
0.121676
11
0.278023
21
0.122341
0
LINE
8
BLACK
6
CONTINUOUS
10
0.278023
20
0.122341
11
0.278274
21
0.122432
0
LINE
8
BLACK
6
CONTINUOUS
10
0.278274
20
0.122432
11
0.278445
21
0.122636
0
LINE
8
BLACK
6
CONTINUOUS
10
0.278445
20
0.122636
11
0.2792
21
0.122769
0
LINE
8
BLACK
6
CONTINUOUS
10
0.2792
20
0.122769
11
0.279921
21
0.123031
0
LINE
8
BLACK
6
CONTINUOUS
10
0.279921
20
0.123031
11
0.317126
21
0.123031
0
LINE
8
BLACK
6
CONTINUOUS
10
0.317126
20
0.123031
11
0.317126
21
0.134843
0
LINE
8
BLACK
6
CONTINUOUS
10
0.317126
20
0.134843
11
0.265157
21
0.134843
0
LINE
8
BLACK
6
CONTINUOUS
10
0.282874
20
0.117126
11
0.282874
21
0.082874
0
LINE
8
BLACK
6
CONTINUOUS
10
0.282874
20
0.082874
11
0.317126
21
0.082874
0
LINE
8
BLACK
6
CONTINUOUS
10
0.317126
20
0.082874
11
0.317126
21
0.117126
0
LINE
8
BLACK
6
CONTINUOUS
10
0.317126
20
0.117126
11
0.282874
21
0.117126
0
LINE
8
BLACK
6
CONTINUOUS
10
0.0140628
20
0.12481
11
0.0279486
21
0.122451
0
LINE
8
BLACK
6
CONTINUOUS
10
0.0279486
20
0.122451
11
0.041483
21
0.118552
0
LINE
8
BLACK
6
CONTINUOUS
10
0.041483
20
0.118552
11
0.0544958
21
0.113162
0
LINE
8
BLACK
6
CONTINUOUS
10
0.0544958
20
0.113162
11
0.0668232
21
0.106349
0
LINE
8
BLACK
6
CONTINUOUS
10
0.0668232
20
0.106349
11
0.0783103
21
0.098198
0
LINE
8
BLACK
6
CONTINUOUS
10
0.0783103
20
0.098198
11
0.0888126
21
0.0888126
0
LINE
8
BLACK
6
CONTINUOUS
10
0.0888126
20
0.0888126
11
0.098198
21
0.0783103
0
LINE
8
BLACK
6
CONTINUOUS
10
0.098198
20
0.0783103
11
0.106349
21
0.0668232
0
LINE
8
BLACK
6
CONTINUOUS
10
0.106349
20
0.0668232
11
0.113162
21
0.0544958
0
LINE
8
BLACK
6
CONTINUOUS
10
0.113162
20
0.0544958
11
0.118552
21
0.041483
0
LINE
8
BLACK
6
CONTINUOUS
10
0.118552
20
0.041483
11
0.122451
21
0.0279486
0
LINE
8
BLACK
6
CONTINUOUS
10
0.122451
20
0.0279486
11
0.12481
21
0.0140628
0
LINE
8
BLACK
6
CONTINUOUS
10
0.12481
20
0.0140628
11
0.1256
21
0
0
LINE
8
BLACK
6
CONTINUOUS
10
0.1256
20
0
11
0.12481
21
-0.0140628
0
LINE
8
BLACK
6
CONTINUOUS
10
0.12481
20
-0.0140628
11
0.122451
21
-0.0279486
0
LINE
8
BLACK
6
CONTINUOUS
10
0.122451
20
-0.0279486
11
0.118552
21
-0.041483
0
LINE
8
BLACK
6
CONTINUOUS
10
0.118552
20
-0.041483
11
0.113162
21
-0.0544958
0
LINE
8
BLACK
6
CONTINUOUS
10
0.113162
20
-0.0544958
11
0.106349
21
-0.0668232
0
LINE
8
BLACK
6
CONTINUOUS
10
0.106349
20
-0.0668232
11
0.098198
21
-0.0783103
0
LINE
8
BLACK
6
CONTINUOUS
10
0.098198
20
-0.0783103
11
0.0888126
21
-0.0888126
0
LINE
8
BLACK
6
CONTINUOUS
10
0.0888126
20
-0.0888126
11
0.0783103
21
-0.098198
0
LINE
8
BLACK
6
CONTINUOUS
10
0.0783103
20
-0.098198
11
0.0668232
21
-0.106349
0
LINE
8
BLACK
6
CONTINUOUS
10
0.0668232
20
-0.106349
11
0.0544958
21
-0.113162
0
LINE
8
BLACK
6
CONTINUOUS
10
0.0544958
20
-0.113162
11
0.041483
21
-0.118552
0
LINE
8
BLACK
6
CONTINUOUS
10
0.041483
20
-0.118552
11
0.0279486
21
-0.122451
0
LINE
8
BLACK
6
CONTINUOUS
10
0.0279486
20
-0.122451
11
0.0140628
21
-0.12481
0
LINE
8
BLACK
6
CONTINUOUS
10
0.0140628
20
-0.12481
11
0
21
-0.1256
0
LINE
8
BLACK
6
CONTINUOUS
10
0
20
-0.1256
11
-0.0140628
21
-0.12481
0
LINE
8
BLACK
6
CONTINUOUS
10
-0.0140628
20
-0.12481
11
-0.0279486
21
-0.122451
0
LINE
8
BLACK
6
CONTINUOUS
10
-0.0279486
20
-0.122451
11
-0.041483
21
-0.118552
0
LINE
8
BLACK
6
CONTINUOUS
10
-0.041483
20
-0.118552
11
-0.0544958
21
-0.113162
0
LINE
8
BLACK
6
CONTINUOUS
10
-0.0544958
20
-0.113162
11
-0.0668232
21
-0.106349
0
LINE
8
BLACK
6
CONTINUOUS
10
-0.0668232
20
-0.106349
11
-0.0783103
21
-0.098198
0
LINE
8
BLACK
6
CONTINUOUS
10
-0.0783103
20
-0.098198
11
-0.0888126
21
-0.0888126
0
LINE
8
BLACK
6
CONTINUOUS
10
-0.0888126
20
-0.0888126
11
-0.098198
21
-0.0783103
0
LINE
8
BLACK
6
CONTINUOUS
10
-0.098198
20
-0.0783103
11
-0.106349
21
-0.0668232
0
LINE
8
BLACK
6
CONTINUOUS
10
-0.106349
20
-0.0668232
11
-0.113162
21
-0.0544958
0
LINE
8
BLACK
6
CONTINUOUS
10
-0.113162
20
-0.0544958
11
-0.118552
21
-0.041483
0
LINE
8
BLACK
6
CONTINUOUS
10
-0.118552
20
-0.041483
11
-0.122451
21
-0.0279486
0
LINE
8
BLACK
6
CONTINUOUS
10
-0.122451
20
-0.0279486
11
-0.12481
21
-0.0140628
0
LINE
8
BLACK
6
CONTINUOUS
10
-0.12481
20
-0.0140628
11
-0.1256
21
0
0
LINE
8
BLACK
6
CONTINUOUS
10
-0.1256
20
0
11
-0.12481
21
0.0140628
0
LINE
8
BLACK
6
CONTINUOUS
10
-0.12481
20
0.0140628
11
-0.122451
21
0.0279486
0
LINE
8
BLACK
6
CONTINUOUS
10
-0.122451
20
0.0279486
11
-0.118552
21
0.041483
0
LINE
8
BLACK
6
CONTINUOUS
10
-0.118552
20
0.041483
11
-0.113162
21
0.0544958
0
LINE
8
BLACK
6
CONTINUOUS
10
-0.113162
20
0.0544958
11
-0.106349
21
0.0668232
0
LINE
8
BLACK
6
CONTINUOUS
10
-0.106349
20
0.0668232
11
-0.098198
21
0.0783103
0
LINE
8
BLACK
6
CONTINUOUS
10
-0.098198
20
0.0783103
11
-0.0888126
21
0.0888126
0
LINE
8
BLACK
6
CONTINUOUS
10
-0.0888126
20
0.0888126
11
-0.0783103
21
0.098198
0
LINE
8
BLACK
6
CONTINUOUS
10
-0.0783103
20
0.098198
11
-0.0668232
21
0.106349
0
LINE
8
BLACK
6
CONTINUOUS
10
-0.0668232
20
0.106349
11
-0.0544958
21
0.113162
0
LINE
8
BLACK
6
CONTINUOUS
10
-0.0544958
20
0.113162
11
-0.041483
21
0.118552
0
LINE
8
BLACK
6
CONTINUOUS
10
-0.041483
20
0.118552
11
-0.0279486
21
0.122451
0
LINE
8
BLACK
6
CONTINUOUS
10
-0.0279486
20
0.122451
11
-0.0140628
21
0.12481
0
LINE
8
BLACK
6
CONTINUOUS
10
-0.0140628
20
0.12481
11
0
21
0.1256
0
LINE
8
BLACK
6
CONTINUOUS
10
0
20
0.1256
11
0.0140628
21
0.12481
0
LINE
8
BLACK
6
CONTINUOUS
10
-0.110038
20
-0.0128617
11
-0.107801
21
-0.0255493
0
LINE
8
BLACK
6
CONTINUOUS
10
-0.107801
20
-0.0255493
11
-0.104106
21
-0.0378915
0
LINE
8
BLACK
6
CONTINUOUS
10
-0.104106
20
-0.0378915
11
-0.0990033
21
-0.0497213
0
LINE
8
BLACK
6
CONTINUOUS
10
-0.0990033
20
-0.0497213
11
-0.0925616
21
-0.0608787
0
LINE
8
BLACK
6
CONTINUOUS
10
-0.0925616
20
-0.0608787
11
-0.0848681
21
-0.0712128
0
LINE
8
BLACK
6
CONTINUOUS
10
-0.0848681
20
-0.0712128
11
-0.076027
21
-0.0805839
0
LINE
8
BLACK
6
CONTINUOUS
10
-0.076027
20
-0.0805839
11
-0.0661577
21
-0.0888652
0
LINE
8
BLACK
6
CONTINUOUS
10
-0.0661577
20
-0.0888652
11
-0.0553937
21
-0.0959447
0
LINE
8
BLACK
6
CONTINUOUS
10
-0.0553937
20
-0.0959447
11
-0.0438807
21
-0.101727
0
LINE
8
BLACK
6
CONTINUOUS
10
-0.0438807
20
-0.101727
11
-0.0317742
21
-0.106133
0
LINE
8
BLACK
6
CONTINUOUS
10
-0.0317742
20
-0.106133
11
-0.019238
21
-0.109104
0
LINE
8
BLACK
6
CONTINUOUS
10
-0.019238
20
-0.109104
11
-0.00644173
21
-0.1106
0
LINE
8
BLACK
6
CONTINUOUS
10
-0.00644173
20
-0.1106
11
0.00644173
21
-0.1106
0
LINE
8
BLACK
6
CONTINUOUS
10
0.00644173
20
-0.1106
11
0.019238
21
-0.109104
0
LINE
8
BLACK
6
CONTINUOUS
10
0.019238
20
-0.109104
11
0.0317742
21
-0.106133
0
LINE
8
BLACK
6
CONTINUOUS
10
0.0317742
20
-0.106133
11
0.0438807
21
-0.101727
0
LINE
8
BLACK
6
CONTINUOUS
10
0.0438807
20
-0.101727
11
0.0553937
21
-0.0959447
0
LINE
8
BLACK
6
CONTINUOUS
10
0.0553937
20
-0.0959447
11
0.0661577
21
-0.0888652
0
LINE
8
BLACK
6
CONTINUOUS
10
0.0661577
20
-0.0888652
11
0.076027
21
-0.0805839
0
LINE
8
BLACK
6
CONTINUOUS
10
0.076027
20
-0.0805839
11
0.0848681
21
-0.0712128
0
LINE
8
BLACK
6
CONTINUOUS
10
0.0848681
20
-0.0712128
11
0.0925616
21
-0.0608787
0
LINE
8
BLACK
6
CONTINUOUS
10
0.0925616
20
-0.0608787
11
0.0990033
21
-0.0497213
0
LINE
8
BLACK
6
CONTINUOUS
10
0.0990033
20
-0.0497213
11
0.104106
21
-0.0378915
0
LINE
8
BLACK
6
CONTINUOUS
10
0.104106
20
-0.0378915
11
0.107801
21
-0.0255493
0
LINE
8
BLACK
6
CONTINUOUS
10
0.107801
20
-0.0255493
11
0.110038
21
-0.0128617
0
LINE
8
BLACK
6
CONTINUOUS
10
0.110038
20
-0.0128617
11
0.110787
21
0
0
LINE
8
BLACK
6
CONTINUOUS
10
0.110787
20
0
11
0.110038
21
0.0128617
0
LINE
8
BLACK
6
CONTINUOUS
10
0.110038
20
0.0128617
11
0.107801
21
0.0255493
0
LINE
8
BLACK
6
CONTINUOUS
10
0.107801
20
0.0255493
11
0.104106
21
0.0378915
0
LINE
8
BLACK
6
CONTINUOUS
10
0.104106
20
0.0378915
11
0.0990033
21
0.0497213
0
LINE
8
BLACK
6
CONTINUOUS
10
0.0990033
20
0.0497213
11
0.0925616
21
0.0608787
0
LINE
8
BLACK
6
CONTINUOUS
10
0.0925616
20
0.0608787
11
0.0848681
21
0.0712128
0
LINE
8
BLACK
6
CONTINUOUS
10
0.0848681
20
0.0712128
11
0.076027
21
0.0805839
0
LINE
8
BLACK
6
CONTINUOUS
10
0.076027
20
0.0805839
11
0.0661577
21
0.0888652
0
LINE
8
BLACK
6
CONTINUOUS
10
0.0661577
20
0.0888652
11
0.0553937
21
0.0959447
0
LINE
8
BLACK
6
CONTINUOUS
10
0.0553937
20
0.0959447
11
0.0438807
21
0.101727
0
LINE
8
BLACK
6
CONTINUOUS
10
0.0438807
20
0.101727
11
0.0317742
21
0.106133
0
LINE
8
BLACK
6
CONTINUOUS
10
0.0317742
20
0.106133
11
0.019238
21
0.109104
0
LINE
8
BLACK
6
CONTINUOUS
10
0.019238
20
0.109104
11
0.00644173
21
0.1106
0
LINE
8
BLACK
6
CONTINUOUS
10
0.00644173
20
0.1106
11
-0.00644173
21
0.1106
0
LINE
8
BLACK
6
CONTINUOUS
10
-0.00644173
20
0.1106
11
-0.019238
21
0.109104
0
LINE
8
BLACK
6
CONTINUOUS
10
-0.019238
20
0.109104
11
-0.0317742
21
0.106133
0
LINE
8
BLACK
6
CONTINUOUS
10
-0.0317742
20
0.106133
11
-0.0438807
21
0.101727
0
LINE
8
BLACK
6
CONTINUOUS
10
-0.0438807
20
0.101727
11
-0.0553937
21
0.0959447
0
LINE
8
BLACK
6
CONTINUOUS
10
-0.0553937
20
0.0959447
11
-0.0661577
21
0.0888652
0
LINE
8
BLACK
6
CONTINUOUS
10
-0.0661577
20
0.0888652
11
-0.076027
21
0.0805839
0
LINE
8
BLACK
6
CONTINUOUS
10
-0.076027
20
0.0805839
11
-0.0848681
21
0.0712128
0
LINE
8
BLACK
6
CONTINUOUS
10
-0.0848681
20
0.0712128
11
-0.0925616
21
0.0608787
0
LINE
8
BLACK
6
CONTINUOUS
10
-0.0925616
20
0.0608787
11
-0.0990033
21
0.0497213
0
LINE
8
BLACK
6
CONTINUOUS
10
-0.0990033
20
0.0497213
11
-0.104106
21
0.0378915
0
LINE
8
BLACK
6
CONTINUOUS
10
-0.104106
20
0.0378915
11
-0.107801
21
0.0255493
0
LINE
8
BLACK
6
CONTINUOUS
10
-0.107801
20
0.0255493
11
-0.110038
21
0.0128617
0
LINE
8
BLACK
6
CONTINUOUS
10
-0.110038
20
0.0128617
11
-0.110787
21
0
0
LINE
8
BLACK
6
CONTINUOUS
10
-0.110787
20
0
11
-0.110038
21
-0.0128617
0
LINE
8
BLACK
6
CONTINUOUS
10
0.814063
20
0.12481
11
0.827949
21
0.122451
0
LINE
8
BLACK
6
CONTINUOUS
10
0.827949
20
0.122451
11
0.841483
21
0.118552
0
LINE
8
BLACK
6
CONTINUOUS
10
0.841483
20
0.118552
11
0.854496
21
0.113162
0
LINE
8
BLACK
6
CONTINUOUS
10
0.854496
20
0.113162
11
0.866823
21
0.106349
0
LINE
8
BLACK
6
CONTINUOUS
10
0.866823
20
0.106349
11
0.87831
21
0.098198
0
LINE
8
BLACK
6
CONTINUOUS
10
0.87831
20
0.098198
11
0.888813
21
0.0888126
0
LINE
8
BLACK
6
CONTINUOUS
10
0.888813
20
0.0888126
11
0.898198
21
0.0783103
0
LINE
8
BLACK
6
CONTINUOUS
10
0.898198
20
0.0783103
11
0.906349
21
0.0668232
0
LINE
8
BLACK
6
CONTINUOUS
10
0.906349
20
0.0668232
11
0.913162
21
0.0544958
0
LINE
8
BLACK
6
CONTINUOUS
10
0.913162
20
0.0544958
11
0.918552
21
0.041483
0
LINE
8
BLACK
6
CONTINUOUS
10
0.918552
20
0.041483
11
0.922451
21
0.0279486
0
LINE
8
BLACK
6
CONTINUOUS
10
0.922451
20
0.0279486
11
0.92481
21
0.0140628
0
LINE
8
BLACK
6
CONTINUOUS
10
0.92481
20
0.0140628
11
0.9256
21
0
0
LINE
8
BLACK
6
CONTINUOUS
10
0.9256
20
0
11
0.92481
21
-0.0140628
0
LINE
8
BLACK
6
CONTINUOUS
10
0.92481
20
-0.0140628
11
0.922451
21
-0.0279486
0
LINE
8
BLACK
6
CONTINUOUS
10
0.922451
20
-0.0279486
11
0.918552
21
-0.041483
0
LINE
8
BLACK
6
CONTINUOUS
10
0.918552
20
-0.041483
11
0.913162
21
-0.0544958
0
LINE
8
BLACK
6
CONTINUOUS
10
0.913162
20
-0.0544958
11
0.906349
21
-0.0668232
0
LINE
8
BLACK
6
CONTINUOUS
10
0.906349
20
-0.0668232
11
0.898198
21
-0.0783103
0
LINE
8
BLACK
6
CONTINUOUS
10
0.898198
20
-0.0783103
11
0.888813
21
-0.0888126
0
LINE
8
BLACK
6
CONTINUOUS
10
0.888813
20
-0.0888126
11
0.87831
21
-0.098198
0
LINE
8
BLACK
6
CONTINUOUS
10
0.87831
20
-0.098198
11
0.866823
21
-0.106349
0
LINE
8
BLACK
6
CONTINUOUS
10
0.866823
20
-0.106349
11
0.854496
21
-0.113162
0
LINE
8
BLACK
6
CONTINUOUS
10
0.854496
20
-0.113162
11
0.841483
21
-0.118552
0
LINE
8
BLACK
6
CONTINUOUS
10
0.841483
20
-0.118552
11
0.827949
21
-0.122451
0
LINE
8
BLACK
6
CONTINUOUS
10
0.827949
20
-0.122451
11
0.814063
21
-0.12481
0
LINE
8
BLACK
6
CONTINUOUS
10
0.814063
20
-0.12481
11
0.8
21
-0.1256
0
LINE
8
BLACK
6
CONTINUOUS
10
0.8
20
-0.1256
11
0.785937
21
-0.12481
0
LINE
8
BLACK
6
CONTINUOUS
10
0.785937
20
-0.12481
11
0.772051
21
-0.122451
0
LINE
8
BLACK
6
CONTINUOUS
10
0.772051
20
-0.122451
11
0.758517
21
-0.118552
0
LINE
8
BLACK
6
CONTINUOUS
10
0.758517
20
-0.118552
11
0.745504
21
-0.113162
0
LINE
8
BLACK
6
CONTINUOUS
10
0.745504
20
-0.113162
11
0.733177
21
-0.106349
0
LINE
8
BLACK
6
CONTINUOUS
10
0.733177
20
-0.106349
11
0.72169
21
-0.098198
0
LINE
8
BLACK
6
CONTINUOUS
10
0.72169
20
-0.098198
11
0.711187
21
-0.0888126
0
LINE
8
BLACK
6
CONTINUOUS
10
0.711187
20
-0.0888126
11
0.701802
21
-0.0783103
0
LINE
8
BLACK
6
CONTINUOUS
10
0.701802
20
-0.0783103
11
0.693651
21
-0.0668232
0
LINE
8
BLACK
6
CONTINUOUS
10
0.693651
20
-0.0668232
11
0.686838
21
-0.0544958
0
LINE
8
BLACK
6
CONTINUOUS
10
0.686838
20
-0.0544958
11
0.681448
21
-0.041483
0
LINE
8
BLACK
6
CONTINUOUS
10
0.681448
20
-0.041483
11
0.677549
21
-0.0279486
0
LINE
8
BLACK
6
CONTINUOUS
10
0.677549
20
-0.0279486
11
0.67519
21
-0.0140628
0
LINE
8
BLACK
6
CONTINUOUS
10
0.67519
20
-0.0140628
11
0.6744
21
0
0
LINE
8
BLACK
6
CONTINUOUS
10
0.6744
20
0
11
0.67519
21
0.0140628
0
LINE
8
BLACK
6
CONTINUOUS
10
0.67519
20
0.0140628
11
0.677549
21
0.0279486
0
LINE
8
BLACK
6
CONTINUOUS
10
0.677549
20
0.0279486
11
0.681448
21
0.041483
0
LINE
8
BLACK
6
CONTINUOUS
10
0.681448
20
0.041483
11
0.686838
21
0.0544958
0
LINE
8
BLACK
6
CONTINUOUS
10
0.686838
20
0.0544958
11
0.693651
21
0.0668232
0
LINE
8
BLACK
6
CONTINUOUS
10
0.693651
20
0.0668232
11
0.701802
21
0.0783103
0
LINE
8
BLACK
6
CONTINUOUS
10
0.701802
20
0.0783103
11
0.711187
21
0.0888126
0
LINE
8
BLACK
6
CONTINUOUS
10
0.711187
20
0.0888126
11
0.72169
21
0.098198
0
LINE
8
BLACK
6
CONTINUOUS
10
0.72169
20
0.098198
11
0.733177
21
0.106349
0
LINE
8
BLACK
6
CONTINUOUS
10
0.733177
20
0.106349
11
0.745504
21
0.113162
0
LINE
8
BLACK
6
CONTINUOUS
10
0.745504
20
0.113162
11
0.758517
21
0.118552
0
LINE
8
BLACK
6
CONTINUOUS
10
0.758517
20
0.118552
11
0.772051
21
0.122451
0
LINE
8
BLACK
6
CONTINUOUS
10
0.772051
20
0.122451
11
0.785937
21
0.12481
0
LINE
8
BLACK
6
CONTINUOUS
10
0.785937
20
0.12481
11
0.8
21
0.1256
0
LINE
8
BLACK
6
CONTINUOUS
10
0.8
20
0.1256
11
0.814063
21
0.12481
0
LINE
8
BLACK
6
CONTINUOUS
10
0.689962
20
-0.0128617
11
0.692199
21
-0.0255493
0
LINE
8
BLACK
6
CONTINUOUS
10
0.692199
20
-0.0255493
11
0.695894
21
-0.0378915
0
LINE
8
BLACK
6
CONTINUOUS
10
0.695894
20
-0.0378915
11
0.700997
21
-0.0497213
0
LINE
8
BLACK
6
CONTINUOUS
10
0.700997
20
-0.0497213
11
0.707438
21
-0.0608787
0
LINE
8
BLACK
6
CONTINUOUS
10
0.707438
20
-0.0608787
11
0.715132
21
-0.0712128
0
LINE
8
BLACK
6
CONTINUOUS
10
0.715132
20
-0.0712128
11
0.723973
21
-0.0805839
0
LINE
8
BLACK
6
CONTINUOUS
10
0.723973
20
-0.0805839
11
0.733842
21
-0.0888652
0
LINE
8
BLACK
6
CONTINUOUS
10
0.733842
20
-0.0888652
11
0.744606
21
-0.0959447
0
LINE
8
BLACK
6
CONTINUOUS
10
0.744606
20
-0.0959447
11
0.756119
21
-0.101727
0
LINE
8
BLACK
6
CONTINUOUS
10
0.756119
20
-0.101727
11
0.768226
21
-0.106133
0
LINE
8
BLACK
6
CONTINUOUS
10
0.768226
20
-0.106133
11
0.780762
21
-0.109104
0
LINE
8
BLACK
6
CONTINUOUS
10
0.780762
20
-0.109104
11
0.793558
21
-0.1106
0
LINE
8
BLACK
6
CONTINUOUS
10
0.793558
20
-0.1106
11
0.806442
21
-0.1106
0
LINE
8
BLACK
6
CONTINUOUS
10
0.806442
20
-0.1106
11
0.819238
21
-0.109104
0
LINE
8
BLACK
6
CONTINUOUS
10
0.819238
20
-0.109104
11
0.831774
21
-0.106133
0
LINE
8
BLACK
6
CONTINUOUS
10
0.831774
20
-0.106133
11
0.843881
21
-0.101727
0
LINE
8
BLACK
6
CONTINUOUS
10
0.843881
20
-0.101727
11
0.855394
21
-0.0959447
0
LINE
8
BLACK
6
CONTINUOUS
10
0.855394
20
-0.0959447
11
0.866158
21
-0.0888652
0
LINE
8
BLACK
6
CONTINUOUS
10
0.866158
20
-0.0888652
11
0.876027
21
-0.0805839
0
LINE
8
BLACK
6
CONTINUOUS
10
0.876027
20
-0.0805839
11
0.884868
21
-0.0712128
0
LINE
8
BLACK
6
CONTINUOUS
10
0.884868
20
-0.0712128
11
0.892562
21
-0.0608787
0
LINE
8
BLACK
6
CONTINUOUS
10
0.892562
20
-0.0608787
11
0.899003
21
-0.0497213
0
LINE
8
BLACK
6
CONTINUOUS
10
0.899003
20
-0.0497213
11
0.904106
21
-0.0378915
0
LINE
8
BLACK
6
CONTINUOUS
10
0.904106
20
-0.0378915
11
0.907801
21
-0.0255493
0
LINE
8
BLACK
6
CONTINUOUS
10
0.907801
20
-0.0255493
11
0.910038
21
-0.0128617
0
LINE
8
BLACK
6
CONTINUOUS
10
0.910038
20
-0.0128617
11
0.910787
21
0
0
LINE
8
BLACK
6
CONTINUOUS
10
0.910787
20
0
11
0.910038
21
0.0128617
0
LINE
8
BLACK
6
CONTINUOUS
10
0.910038
20
0.0128617
11
0.907801
21
0.0255493
0
LINE
8
BLACK
6
CONTINUOUS
10
0.907801
20
0.0255493
11
0.904106
21
0.0378915
0
LINE
8
BLACK
6
CONTINUOUS
10
0.904106
20
0.0378915
11
0.899003
21
0.0497213
0
LINE
8
BLACK
6
CONTINUOUS
10
0.899003
20
0.0497213
11
0.892562
21
0.0608787
0
LINE
8
BLACK
6
CONTINUOUS
10
0.892562
20
0.0608787
11
0.884868
21
0.0712128
0
LINE
8
BLACK
6
CONTINUOUS
10
0.884868
20
0.0712128
11
0.876027
21
0.0805839
0
LINE
8
BLACK
6
CONTINUOUS
10
0.876027
20
0.0805839
11
0.866158
21
0.0888652
0
LINE
8
BLACK
6
CONTINUOUS
10
0.866158
20
0.0888652
11
0.855394
21
0.0959447
0
LINE
8
BLACK
6
CONTINUOUS
10
0.855394
20
0.0959447
11
0.843881
21
0.101727
0
LINE
8
BLACK
6
CONTINUOUS
10
0.843881
20
0.101727
11
0.831774
21
0.106133
0
LINE
8
BLACK
6
CONTINUOUS
10
0.831774
20
0.106133
11
0.819238
21
0.109104
0
LINE
8
BLACK
6
CONTINUOUS
10
0.819238
20
0.109104
11
0.806442
21
0.1106
0
LINE
8
BLACK
6
CONTINUOUS
10
0.806442
20
0.1106
11
0.793558
21
0.1106
0
LINE
8
BLACK
6
CONTINUOUS
10
0.793558
20
0.1106
11
0.780762
21
0.109104
0
LINE
8
BLACK
6
CONTINUOUS
10
0.780762
20
0.109104
11
0.768226
21
0.106133
0
LINE
8
BLACK
6
CONTINUOUS
10
0.768226
20
0.106133
11
0.756119
21
0.101727
0
LINE
8
BLACK
6
CONTINUOUS
10
0.756119
20
0.101727
11
0.744606
21
0.0959447
0
LINE
8
BLACK
6
CONTINUOUS
10
0.744606
20
0.0959447
11
0.733842
21
0.0888652
0
LINE
8
BLACK
6
CONTINUOUS
10
0.733842
20
0.0888652
11
0.723973
21
0.0805839
0
LINE
8
BLACK
6
CONTINUOUS
10
0.723973
20
0.0805839
11
0.715132
21
0.0712128
0
LINE
8
BLACK
6
CONTINUOUS
10
0.715132
20
0.0712128
11
0.707438
21
0.0608787
0
LINE
8
BLACK
6
CONTINUOUS
10
0.707438
20
0.0608787
11
0.700997
21
0.0497213
0
LINE
8
BLACK
6
CONTINUOUS
10
0.700997
20
0.0497213
11
0.695894
21
0.0378915
0
LINE
8
BLACK
6
CONTINUOUS
10
0.695894
20
0.0378915
11
0.692199
21
0.0255493
0
LINE
8
BLACK
6
CONTINUOUS
10
0.692199
20
0.0255493
11
0.689962
21
0.0128617
0
LINE
8
BLACK
6
CONTINUOUS
10
0.689962
20
0.0128617
11
0.689213
21
0
0
LINE
8
BLACK
6
CONTINUOUS
10
0.689213
20
0
11
0.689962
21
-0.0128617
0
LINE
8
BLACK
6
CONTINUOUS
10
-0.0144047
20
0.429074
11
-0.0137139
21
0.427176
0
LINE
8
BLACK
6
CONTINUOUS
10
-0.0137139
20
0.427176
11
-0.0137139
21
0.391462
0
LINE
8
BLACK
6
CONTINUOUS
10
-0.0137139
20
0.391462
11
-0.0138672
21
0.390592
0
LINE
8
BLACK
6
CONTINUOUS
10
-0.0138672
20
0.390592
11
-0.0138654
21
0.390528
0
LINE
8
BLACK
6
CONTINUOUS
10
-0.0138654
20
0.390528
11
-0.0162464
21
0.383385
0
LINE
8
BLACK
6
CONTINUOUS
10
-0.0162464
20
0.383385
11
-0.0167347
21
0.382483
0
LINE
8
BLACK
6
CONTINUOUS
10
-0.0167347
20
0.382483
11
-0.0168852
21
0.382391
0
LINE
8
BLACK
6
CONTINUOUS
10
-0.0168852
20
0.382391
11
-0.0169597
21
0.382231
0
LINE
8
BLACK
6
CONTINUOUS
10
-0.0169597
20
0.382231
11
-0.0217216
21
0.377469
0
LINE
8
BLACK
6
CONTINUOUS
10
-0.0217216
20
0.377469
11
-0.0225617
21
0.376881
0
LINE
8
BLACK
6
CONTINUOUS
10
-0.0225617
20
0.376881
11
-0.0227375
21
0.376866
0
LINE
8
BLACK
6
CONTINUOUS
10
-0.0227375
20
0.376866
11
-0.0228758
21
0.376756
0
LINE
8
BLACK
6
CONTINUOUS
10
-0.0228758
20
0.376756
11
-0.0300187
21
0.374375
0
LINE
8
BLACK
6
CONTINUOUS
10
-0.0300187
20
0.374375
11
-0.0308919
21
0.374245
0
LINE
8
BLACK
6
CONTINUOUS
10
-0.0308919
20
0.374245
11
-0.0309524
21
0.374223
0
LINE
8
BLACK
6
CONTINUOUS
10
-0.0309524
20
0.374223
11
-0.0357143
21
0.374223
0
LINE
8
BLACK
6
CONTINUOUS
10
-0.0357143
20
0.374223
11
-0.0367242
21
0.374401
0
LINE
8
BLACK
6
CONTINUOUS
10
-0.0367242
20
0.374401
11
-0.0382715
21
0.3757
0
LINE
8
BLACK
6
CONTINUOUS
10
-0.0382715
20
0.3757
11
-0.0386222
21
0.377689
0
LINE
8
BLACK
6
CONTINUOUS
10
-0.0386222
20
0.377689
11
-0.0376123
21
0.379438
0
LINE
8
BLACK
6
CONTINUOUS
10
-0.0376123
20
0.379438
11
-0.0357143
21
0.380129
0
LINE
8
BLACK
6
CONTINUOUS
10
-0.0357143
20
0.380129
11
-0.0314315
21
0.380129
0
LINE
8
BLACK
6
CONTINUOUS
10
-0.0314315
20
0.380129
11
-0.0254046
21
0.382138
0
LINE
8
BLACK
6
CONTINUOUS
10
-0.0254046
20
0.382138
11
-0.0216284
21
0.385914
0
LINE
8
BLACK
6
CONTINUOUS
10
-0.0216284
20
0.385914
11
-0.0196194
21
0.391941
0
LINE
8
BLACK
6
CONTINUOUS
10
-0.0196194
20
0.391941
11
-0.0196194
21
0.427176
0
LINE
8
BLACK
6
CONTINUOUS
10
-0.0196194
20
0.427176
11
-0.0194413
21
0.428186
0
LINE
8
BLACK
6
CONTINUOUS
10
-0.0194413
20
0.428186
11
-0.018143
21
0.429733
0
LINE
8
BLACK
6
CONTINUOUS
10
-0.018143
20
0.429733
11
-0.0161539
21
0.430084
0
LINE
8
BLACK
6
CONTINUOUS
10
-0.0161539
20
0.430084
11
-0.0144047
21
0.429074
0
LINE
8
BLACK
6
CONTINUOUS
10
0.0337707
20
0.430052
11
0.0339062
21
0.430073
0
LINE
8
BLACK
6
CONTINUOUS
10
0.0339062
20
0.430073
11
0.0340108
21
0.430009
0
LINE
8
BLACK
6
CONTINUOUS
10
0.0340108
20
0.430009
11
0.0343433
21
0.429951
0
LINE
8
BLACK
6
CONTINUOUS
10
0.0343433
20
0.429951
11
0.034953
21
0.429439
0
LINE
8
BLACK
6
CONTINUOUS
10
0.034953
20
0.429439
11
0.0356341
21
0.429027
0
LINE
8
BLACK
6
CONTINUOUS
10
0.0356341
20
0.429027
11
0.0357101
21
0.428804
0
LINE
8
BLACK
6
CONTINUOUS
10
0.0357101
20
0.428804
11
0.0358905
21
0.428653
0
LINE
8
BLACK
6
CONTINUOUS
10
0.0358905
20
0.428653
11
0.0360287
21
0.427869
0
LINE
8
BLACK
6
CONTINUOUS
10
0.0360287
20
0.427869
11
0.0362855
21
0.427115
0
LINE
8
BLACK
6
CONTINUOUS
10
0.0362855
20
0.427115
11
0.0362003
21
0.426895
0
LINE
8
BLACK
6
CONTINUOUS
10
0.0362003
20
0.426895
11
0.0362413
21
0.426663
0
LINE
8
BLACK
6
CONTINUOUS
10
0.0362413
20
0.426663
11
0.0358431
21
0.425974
0
LINE
8
BLACK
6
CONTINUOUS
10
0.0358431
20
0.425974
11
0.0355555
21
0.425232
0
LINE
8
BLACK
6
CONTINUOUS
10
0.0355555
20
0.425232
11
0.0231739
21
0.411081
0
LINE
8
BLACK
6
CONTINUOUS
10
0.0231739
20
0.411081
11
0.0238095
21
0.411081
0
LINE
8
BLACK
6
CONTINUOUS
10
0.0238095
20
0.411081
11
0.0248194
21
0.410903
0
LINE
8
BLACK
6
CONTINUOUS
10
0.0248194
20
0.410903
11
0.0249547
21
0.41079
0
LINE
8
BLACK
6
CONTINUOUS
10
0.0249547
20
0.41079
11
0.02513
21
0.41077
0
LINE
8
BLACK
6
CONTINUOUS
10
0.02513
20
0.41077
11
0.0298919
21
0.408389
0
LINE
8
BLACK
6
CONTINUOUS
10
0.0298919
20
0.408389
11
0.030601
21
0.407863
0
LINE
8
BLACK
6
CONTINUOUS
10
0.030601
20
0.407863
11
0.0306593
21
0.407836
0
LINE
8
BLACK
6
CONTINUOUS
10
0.0306593
20
0.407836
11
0.0330403
21
0.405454
0
LINE
8
BLACK
6
CONTINUOUS
10
0.0330403
20
0.405454
11
0.0335466
21
0.404731
0
LINE
8
BLACK
6
CONTINUOUS
10
0.0335466
20
0.404731
11
0.0335934
21
0.404687
0
LINE
8
BLACK
6
CONTINUOUS
10
0.0335934
20
0.404687
11
0.0359744
21
0.399925
0
LINE
8
BLACK
6
CONTINUOUS
10
0.0359744
20
0.399925
11
0.0362667
21
0.398942
0
LINE
8
BLACK
6
CONTINUOUS
10
0.0362667
20
0.398942
11
0.0362257
21
0.398771
0
LINE
8
BLACK
6
CONTINUOUS
10
0.0362257
20
0.398771
11
0.0362861
21
0.398605
0
LINE
8
BLACK
6
CONTINUOUS
10
0.0362861
20
0.398605
11
0.0362861
21
0.3867
0
LINE
8
BLACK
6
CONTINUOUS
10
0.0362861
20
0.3867
11
0.036108
21
0.38569
0
LINE
8
BLACK
6
CONTINUOUS
10
0.036108
20
0.38569
11
0.0359945
21
0.385555
0
LINE
8
BLACK
6
CONTINUOUS
10
0.0359945
20
0.385555
11
0.0359744
21
0.385379
0
LINE
8
BLACK
6
CONTINUOUS
10
0.0359744
20
0.385379
11
0.0335934
21
0.380618
0
LINE
8
BLACK
6
CONTINUOUS
10
0.0335934
20
0.380618
11
0.0330676
21
0.379909
0
LINE
8
BLACK
6
CONTINUOUS
10
0.0330676
20
0.379909
11
0.0330403
21
0.37985
0
LINE
8
BLACK
6
CONTINUOUS
10
0.0330403
20
0.37985
11
0.0306593
21
0.377469
0
LINE
8
BLACK
6
CONTINUOUS
10
0.0306593
20
0.377469
11
0.0299362
21
0.376963
0
LINE
8
BLACK
6
CONTINUOUS
10
0.0299362
20
0.376963
11
0.0298919
21
0.376916
0
LINE
8
BLACK
6
CONTINUOUS
10
0.0298919
20
0.376916
11
0.02513
21
0.374535
0
LINE
8
BLACK
6
CONTINUOUS
10
0.02513
20
0.374535
11
0.0241471
21
0.374243
0
LINE
8
BLACK
6
CONTINUOUS
10
0.0241471
20
0.374243
11
0.0239754
21
0.374284
0
LINE
8
BLACK
6
CONTINUOUS
10
0.0239754
20
0.374284
11
0.0238095
21
0.374223
0
LINE
8
BLACK
6
CONTINUOUS
10
0.0238095
20
0.374223
11
0.00952382
21
0.374223
0
LINE
8
BLACK
6
CONTINUOUS
10
0.00952382
20
0.374223
11
0.0085139
21
0.374401
0
LINE
8
BLACK
6
CONTINUOUS
10
0.0085139
20
0.374401
11
0.00837862
21
0.374515
0
LINE
8
BLACK
6
CONTINUOUS
10
0.00837862
20
0.374515
11
0.00820331
21
0.374535
0
LINE
8
BLACK
6
CONTINUOUS
10
0.00820331
20
0.374535
11
0.00344138
21
0.376916
0
LINE
8
BLACK
6
CONTINUOUS
10
0.00344138
20
0.376916
11
0.00273228
21
0.377442
0
LINE
8
BLACK
6
CONTINUOUS
10
0.00273228
20
0.377442
11
0.00267398
21
0.377469
0
LINE
8
BLACK
6
CONTINUOUS
10
0.00267398
20
0.377469
11
0.000293031
21
0.37985
0
LINE
8
BLACK
6
CONTINUOUS
10
0.000293031
20
0.37985
11
-0.000295197
21
0.38069
0
LINE
8
BLACK
6
CONTINUOUS
10
-0.000295197
20
0.38069
11
-0.000471181
21
0.382702
0
LINE
8
BLACK
6
CONTINUOUS
10
-0.000471181
20
0.382702
11
0.000687323
21
0.384357
0
LINE
8
BLACK
6
CONTINUOUS
10
0.000687323
20
0.384357
11
0.00263831
21
0.38488
0
LINE
8
BLACK
6
CONTINUOUS
10
0.00263831
20
0.38488
11
0.00446886
21
0.384026
0
LINE
8
BLACK
6
CONTINUOUS
10
0.00446886
20
0.384026
11
0.00651098
21
0.381984
0
LINE
8
BLACK
6
CONTINUOUS
10
0.00651098
20
0.381984
11
0.0102208
21
0.380129
0
LINE
8
BLACK
6
CONTINUOUS
10
0.0102208
20
0.380129
11
0.0231125
21
0.380129
0
LINE
8
BLACK
6
CONTINUOUS
10
0.0231125
20
0.380129
11
0.0268223
21
0.381984
0
LINE
8
BLACK
6
CONTINUOUS
10
0.0268223
20
0.381984
11
0.0285256
21
0.383687
0
LINE
8
BLACK
6
CONTINUOUS
10
0.0285256
20
0.383687
11
0.0303806
21
0.387397
0
LINE
8
BLACK
6
CONTINUOUS
10
0.0303806
20
0.387397
11
0.0303806
21
0.397908
0
LINE
8
BLACK
6
CONTINUOUS
10
0.0303806
20
0.397908
11
0.0285256
21
0.401618
0
LINE
8
BLACK
6
CONTINUOUS
10
0.0285256
20
0.401618
11
0.0268223
21
0.403321
0
LINE
8
BLACK
6
CONTINUOUS
10
0.0268223
20
0.403321
11
0.0231125
21
0.405176
0
LINE
8
BLACK
6
CONTINUOUS
10
0.0231125
20
0.405176
11
0.0166667
21
0.405176
0
LINE
8
BLACK
6
CONTINUOUS
10
0.0166667
20
0.405176
11
0.0162293
21
0.405253
0
LINE
8
BLACK
6
CONTINUOUS
10
0.0162293
20
0.405253
11
0.0160938
21
0.405232
0
LINE
8
BLACK
6
CONTINUOUS
10
0.0160938
20
0.405232
11
0.0159891
21
0.405295
0
LINE
8
BLACK
6
CONTINUOUS
10
0.0159891
20
0.405295
11
0.0156567
21
0.405354
0
LINE
8
BLACK
6
CONTINUOUS
10
0.0156567
20
0.405354
11
0.0150469
21
0.405866
0
LINE
8
BLACK
6
CONTINUOUS
10
0.0150469
20
0.405866
11
0.0143659
21
0.406278
0
LINE
8
BLACK
6
CONTINUOUS
10
0.0143659
20
0.406278
11
0.0142899
21
0.406501
0
LINE
8
BLACK
6
CONTINUOUS
10
0.0142899
20
0.406501
11
0.0141095
21
0.406652
0
LINE
8
BLACK
6
CONTINUOUS
10
0.0141095
20
0.406652
11
0.0139712
21
0.407436
0
LINE
8
BLACK
6
CONTINUOUS
10
0.0139712
20
0.407436
11
0.0137145
21
0.40819
0
LINE
8
BLACK
6
CONTINUOUS
10
0.0137145
20
0.40819
11
0.0137996
21
0.408409
0
LINE
8
BLACK
6
CONTINUOUS
10
0.0137996
20
0.408409
11
0.0137587
21
0.408641
0
LINE
8
BLACK
6
CONTINUOUS
10
0.0137587
20
0.408641
11
0.0141568
21
0.409331
0
LINE
8
BLACK
6
CONTINUOUS
10
0.0141568
20
0.409331
11
0.0144445
21
0.410073
0
LINE
8
BLACK
6
CONTINUOUS
10
0.0144445
20
0.410073
11
0.0268261
21
0.424223
0
LINE
8
BLACK
6
CONTINUOUS
10
0.0268261
20
0.424223
11
0.00238094
21
0.424223
0
LINE
8
BLACK
6
CONTINUOUS
10
0.00238094
20
0.424223
11
0.00137102
21
0.424401
0
LINE
8
BLACK
6
CONTINUOUS
10
0.00137102
20
0.424401
11
-0.00017622
21
0.4257
0
LINE
8
BLACK
6
CONTINUOUS
10
-0.00017622
20
0.4257
11
-0.000526969
21
0.427689
0
LINE
8
BLACK
6
CONTINUOUS
10
-0.000526969
20
0.427689
11
0.000482953
21
0.429438
0
LINE
8
BLACK
6
CONTINUOUS
10
0.000482953
20
0.429438
11
0.00238094
21
0.430129
0
LINE
8
BLACK
6
CONTINUOUS
10
0.00238094
20
0.430129
11
0.0333333
21
0.430129
0
LINE
8
BLACK
6
CONTINUOUS
10
0.0333333
20
0.430129
11
0.0337707
21
0.430052
0
LINE
8
BLACK
6
CONTINUOUS
10
0.0114996
20
0.487349
11
0.0228026
21
0.4851
0
LINE
8
BLACK
6
CONTINUOUS
10
0.0228026
20
0.4851
11
0.0337153
21
0.481396
0
LINE
8
BLACK
6
CONTINUOUS
10
0.0337153
20
0.481396
11
0.0440512
21
0.476299
0
LINE
8
BLACK
6
CONTINUOUS
10
0.0440512
20
0.476299
11
0.0536333
21
0.469896
0
LINE
8
BLACK
6
CONTINUOUS
10
0.0536333
20
0.469896
11
0.0622978
21
0.462298
0
LINE
8
BLACK
6
CONTINUOUS
10
0.0622978
20
0.462298
11
0.0698963
21
0.453633
0
LINE
8
BLACK
6
CONTINUOUS
10
0.0698963
20
0.453633
11
0.0762989
21
0.444051
0
LINE
8
BLACK
6
CONTINUOUS
10
0.0762989
20
0.444051
11
0.0813959
21
0.433715
0
LINE
8
BLACK
6
CONTINUOUS
10
0.0813959
20
0.433715
11
0.0851003
21
0.422803
0
LINE
8
BLACK
6
CONTINUOUS
10
0.0851003
20
0.422803
11
0.0873486
21
0.4115
0
LINE
8
BLACK
6
CONTINUOUS
10
0.0873486
20
0.4115
11
0.0881023
21
0.4
0
LINE
8
BLACK
6
CONTINUOUS
10
0.0881023
20
0.4
11
0.0873486
21
0.3885
0
LINE
8
BLACK
6
CONTINUOUS
10
0.0873486
20
0.3885
11
0.0851003
21
0.377197
0
LINE
8
BLACK
6
CONTINUOUS
10
0.0851003
20
0.377197
11
0.0813959
21
0.366285
0
LINE
8
BLACK
6
CONTINUOUS
10
0.0813959
20
0.366285
11
0.0762989
21
0.355949
0
LINE
8
BLACK
6
CONTINUOUS
10
0.0762989
20
0.355949
11
0.0698963
21
0.346367
0
LINE
8
BLACK
6
CONTINUOUS
10
0.0698963
20
0.346367
11
0.0622978
21
0.337702
0
LINE
8
BLACK
6
CONTINUOUS
10
0.0622978
20
0.337702
11
0.0536333
21
0.330104
0
LINE
8
BLACK
6
CONTINUOUS
10
0.0536333
20
0.330104
11
0.0440512
21
0.323701
0
LINE
8
BLACK
6
CONTINUOUS
10
0.0440512
20
0.323701
11
0.0337153
21
0.318604
0
LINE
8
BLACK
6
CONTINUOUS
10
0.0337153
20
0.318604
11
0.0228026
21
0.3149
0
LINE
8
BLACK
6
CONTINUOUS
10
0.0228026
20
0.3149
11
0.0114996
21
0.312651
0
LINE
8
BLACK
6
CONTINUOUS
10
0.0114996
20
0.312651
11
0
21
0.311898
0
LINE
8
BLACK
6
CONTINUOUS
10
0
20
0.311898
11
-0.0114996
21
0.312651
0
LINE
8
BLACK
6
CONTINUOUS
10
-0.0114996
20
0.312651
11
-0.0228026
21
0.3149
0
LINE
8
BLACK
6
CONTINUOUS
10
-0.0228026
20
0.3149
11
-0.0337153
21
0.318604
0
LINE
8
BLACK
6
CONTINUOUS
10
-0.0337153
20
0.318604
11
-0.0440512
21
0.323701
0
LINE
8
BLACK
6
CONTINUOUS
10
-0.0440512
20
0.323701
11
-0.0536333
21
0.330104
0
LINE
8
BLACK
6
CONTINUOUS
10
-0.0536333
20
0.330104
11
-0.0622978
21
0.337702
0
LINE
8
BLACK
6
CONTINUOUS
10
-0.0622978
20
0.337702
11
-0.0698963
21
0.346367
0
LINE
8
BLACK
6
CONTINUOUS
10
-0.0698963
20
0.346367
11
-0.0762989
21
0.355949
0
LINE
8
BLACK
6
CONTINUOUS
10
-0.0762989
20
0.355949
11
-0.0813959
21
0.366285
0
LINE
8
BLACK
6
CONTINUOUS
10
-0.0813959
20
0.366285
11
-0.0851003
21
0.377197
0
LINE
8
BLACK
6
CONTINUOUS
10
-0.0851003
20
0.377197
11
-0.0873486
21
0.3885
0
LINE
8
BLACK
6
CONTINUOUS
10
-0.0873486
20
0.3885
11
-0.0881023
21
0.4
0
LINE
8
BLACK
6
CONTINUOUS
10
-0.0881023
20
0.4
11
-0.0873486
21
0.4115
0
LINE
8
BLACK
6
CONTINUOUS
10
-0.0873486
20
0.4115
11
-0.0851003
21
0.422803
0
LINE
8
BLACK
6
CONTINUOUS
10
-0.0851003
20
0.422803
11
-0.0813959
21
0.433715
0
LINE
8
BLACK
6
CONTINUOUS
10
-0.0813959
20
0.433715
11
-0.0762989
21
0.444051
0
LINE
8
BLACK
6
CONTINUOUS
10
-0.0762989
20
0.444051
11
-0.0698963
21
0.453633
0
LINE
8
BLACK
6
CONTINUOUS
10
-0.0698963
20
0.453633
11
-0.0622978
21
0.462298
0
LINE
8
BLACK
6
CONTINUOUS
10
-0.0622978
20
0.462298
11
-0.0536333
21
0.469896
0
LINE
8
BLACK
6
CONTINUOUS
10
-0.0536333
20
0.469896
11
-0.0440511
21
0.476299
0
LINE
8
BLACK
6
CONTINUOUS
10
-0.0440511
20
0.476299
11
-0.0337153
21
0.481396
0
LINE
8
BLACK
6
CONTINUOUS
10
-0.0337153
20
0.481396
11
-0.0228026
21
0.4851
0
LINE
8
BLACK
6
CONTINUOUS
10
-0.0228026
20
0.4851
11
-0.0114996
21
0.487349
0
LINE
8
BLACK
6
CONTINUOUS
10
-0.0114996
20
0.487349
11
0
21
0.488102
0
LINE
8
BLACK
6
CONTINUOUS
10
0
20
0.488102
11
0.0114996
21
0.487349
0
LINE
8
BLACK
6
CONTINUOUS
10
-0.0816215
20
0.388781
11
-0.0793337
21
0.377772
0
LINE
8
BLACK
6
CONTINUOUS
10
-0.0793337
20
0.377772
11
-0.075568
21
0.367176
0
LINE
8
BLACK
6
CONTINUOUS
10
-0.075568
20
0.367176
11
-0.0703947
21
0.357192
0
LINE
8
BLACK
6
CONTINUOUS
10
-0.0703947
20
0.357192
11
-0.06391
21
0.348005
0
LINE
8
BLACK
6
CONTINUOUS
10
-0.06391
20
0.348005
11
-0.0562348
21
0.339787
0
LINE
8
BLACK
6
CONTINUOUS
10
-0.0562348
20
0.339787
11
-0.047512
21
0.332691
0
LINE
8
BLACK
6
CONTINUOUS
10
-0.047512
20
0.332691
11
-0.0379043
21
0.326848
0
LINE
8
BLACK
6
CONTINUOUS
10
-0.0379043
20
0.326848
11
-0.0275904
21
0.322368
0
LINE
8
BLACK
6
CONTINUOUS
10
-0.0275904
20
0.322368
11
-0.0167625
21
0.319334
0
LINE
8
BLACK
6
CONTINUOUS
10
-0.0167625
20
0.319334
11
-0.0056224
21
0.317803
0
LINE
8
BLACK
6
CONTINUOUS
10
-0.0056224
20
0.317803
11
0.0056224
21
0.317803
0
LINE
8
BLACK
6
CONTINUOUS
10
0.0056224
20
0.317803
11
0.0167625
21
0.319334
0
LINE
8
BLACK
6
CONTINUOUS
10
0.0167625
20
0.319334
11
0.0275904
21
0.322368
0
LINE
8
BLACK
6
CONTINUOUS
10
0.0275904
20
0.322368
11
0.0379043
21
0.326848
0
LINE
8
BLACK
6
CONTINUOUS
10
0.0379043
20
0.326848
11
0.047512
21
0.332691
0
LINE
8
BLACK
6
CONTINUOUS
10
0.047512
20
0.332691
11
0.0562348
21
0.339787
0
LINE
8
BLACK
6
CONTINUOUS
10
0.0562348
20
0.339787
11
0.06391
21
0.348005
0
LINE
8
BLACK
6
CONTINUOUS
10
0.06391
20
0.348005
11
0.0703947
21
0.357192
0
LINE
8
BLACK
6
CONTINUOUS
10
0.0703947
20
0.357192
11
0.075568
21
0.367176
0
LINE
8
BLACK
6
CONTINUOUS
10
0.075568
20
0.367176
11
0.0793337
21
0.377772
0
LINE
8
BLACK
6
CONTINUOUS
10
0.0793337
20
0.377772
11
0.0816215
21
0.388781
0
LINE
8
BLACK
6
CONTINUOUS
10
0.0816215
20
0.388781
11
0.0823889
21
0.4
0
LINE
8
BLACK
6
CONTINUOUS
10
0.0823889
20
0.4
11
0.0816215
21
0.411219
0
LINE
8
BLACK
6
CONTINUOUS
10
0.0816215
20
0.411219
11
0.0793337
21
0.422228
0
LINE
8
BLACK
6
CONTINUOUS
10
0.0793337
20
0.422228
11
0.075568
21
0.432824
0
LINE
8
BLACK
6
CONTINUOUS
10
0.075568
20
0.432824
11
0.0703947
21
0.442808
0
LINE
8
BLACK
6
CONTINUOUS
10
0.0703947
20
0.442808
11
0.06391
21
0.451995
0
LINE
8
BLACK
6
CONTINUOUS
10
0.06391
20
0.451995
11
0.0562348
21
0.460213
0
LINE
8
BLACK
6
CONTINUOUS
10
0.0562348
20
0.460213
11
0.047512
21
0.467309
0
LINE
8
BLACK
6
CONTINUOUS
10
0.047512
20
0.467309
11
0.0379043
21
0.473152
0
LINE
8
BLACK
6
CONTINUOUS
10
0.0379043
20
0.473152
11
0.0275904
21
0.477632
0
LINE
8
BLACK
6
CONTINUOUS
10
0.0275904
20
0.477632
11
0.0167625
21
0.480666
0
LINE
8
BLACK
6
CONTINUOUS
10
0.0167625
20
0.480666
11
0.0056224
21
0.482197
0
LINE
8
BLACK
6
CONTINUOUS
10
0.0056224
20
0.482197
11
-0.0056224
21
0.482197
0
LINE
8
BLACK
6
CONTINUOUS
10
-0.0056224
20
0.482197
11
-0.0167625
21
0.480666
0
LINE
8
BLACK
6
CONTINUOUS
10
-0.0167625
20
0.480666
11
-0.0275904
21
0.477632
0
LINE
8
BLACK
6
CONTINUOUS
10
-0.0275904
20
0.477632
11
-0.0379043
21
0.473152
0
LINE
8
BLACK
6
CONTINUOUS
10
-0.0379043
20
0.473152
11
-0.047512
21
0.467309
0
LINE
8
BLACK
6
CONTINUOUS
10
-0.047512
20
0.467309
11
-0.0562348
21
0.460213
0
LINE
8
BLACK
6
CONTINUOUS
10
-0.0562348
20
0.460213
11
-0.06391
21
0.451995
0
LINE
8
BLACK
6
CONTINUOUS
10
-0.06391
20
0.451995
11
-0.0703947
21
0.442808
0
LINE
8
BLACK
6
CONTINUOUS
10
-0.0703947
20
0.442808
11
-0.075568
21
0.432824
0
LINE
8
BLACK
6
CONTINUOUS
10
-0.075568
20
0.432824
11
-0.0793337
21
0.422228
0
LINE
8
BLACK
6
CONTINUOUS
10
-0.0793337
20
0.422228
11
-0.0816215
21
0.411219
0
LINE
8
BLACK
6
CONTINUOUS
10
-0.0816215
20
0.411219
11
-0.0823889
21
0.4
0
LINE
8
BLACK
6
CONTINUOUS
10
-0.0823889
20
0.4
11
-0.0816215
21
0.388781
0
LINE
8
BLACK
6
CONTINUOUS
10
0.138179
20
0.54068
11
0.138308
21
0.540703
0
LINE
8
BLACK
6
CONTINUOUS
10
0.138308
20
0.540703
11
0.138422
21
0.540638
0
LINE
8
BLACK
6
CONTINUOUS
10
0.138422
20
0.540638
11
0.138805
21
0.54057
0
LINE
8
BLACK
6
CONTINUOUS
10
0.138805
20
0.54057
11
0.139393
21
0.540077
0
LINE
8
BLACK
6
CONTINUOUS
10
0.139393
20
0.540077
11
0.140057
21
0.539693
0
LINE
8
BLACK
6
CONTINUOUS
10
0.140057
20
0.539693
11
0.140148
21
0.539443
0
LINE
8
BLACK
6
CONTINUOUS
10
0.140148
20
0.539443
11
0.140352
21
0.539272
0
LINE
8
BLACK
6
CONTINUOUS
10
0.140352
20
0.539272
11
0.140486
21
0.538516
0
LINE
8
BLACK
6
CONTINUOUS
10
0.140486
20
0.538516
11
0.140748
21
0.537795
0
LINE
8
BLACK
6
CONTINUOUS
10
0.140748
20
0.537795
11
0.140748
21
0.262205
0
LINE
8
BLACK
6
CONTINUOUS
10
0.140748
20
0.262205
11
0.14068
21
0.261821
0
LINE
8
BLACK
6
CONTINUOUS
10
0.14068
20
0.261821
11
0.140703
21
0.261692
0
LINE
8
BLACK
6
CONTINUOUS
10
0.140703
20
0.261692
11
0.140638
21
0.261578
0
LINE
8
BLACK
6
CONTINUOUS
10
0.140638
20
0.261578
11
0.14057
21
0.261195
0
LINE
8
BLACK
6
CONTINUOUS
10
0.14057
20
0.261195
11
0.140077
21
0.260607
0
LINE
8
BLACK
6
CONTINUOUS
10
0.140077
20
0.260607
11
0.139693
21
0.259943
0
LINE
8
BLACK
6
CONTINUOUS
10
0.139693
20
0.259943
11
0.139443
21
0.259852
0
LINE
8
BLACK
6
CONTINUOUS
10
0.139443
20
0.259852
11
0.139272
21
0.259648
0
LINE
8
BLACK
6
CONTINUOUS
10
0.139272
20
0.259648
11
0.138516
21
0.259514
0
LINE
8
BLACK
6
CONTINUOUS
10
0.138516
20
0.259514
11
0.137795
21
0.259252
0
LINE
8
BLACK
6
CONTINUOUS
10
0.137795
20
0.259252
11
-0.137795
21
0.259252
0
LINE
8
BLACK
6
CONTINUOUS
10
-0.137795
20
0.259252
11
-0.138179
21
0.25932
0
LINE
8
BLACK
6
CONTINUOUS
10
-0.138179
20
0.25932
11
-0.138308
21
0.259297
0
LINE
8
BLACK
6
CONTINUOUS
10
-0.138308
20
0.259297
11
-0.138422
21
0.259362
0
LINE
8
BLACK
6
CONTINUOUS
10
-0.138422
20
0.259362
11
-0.138805
21
0.25943
0
LINE
8
BLACK
6
CONTINUOUS
10
-0.138805
20
0.25943
11
-0.139393
21
0.259923
0
LINE
8
BLACK
6
CONTINUOUS
10
-0.139393
20
0.259923
11
-0.140057
21
0.260307
0
LINE
8
BLACK
6
CONTINUOUS
10
-0.140057
20
0.260307
11
-0.140148
21
0.260557
0
LINE
8
BLACK
6
CONTINUOUS
10
-0.140148
20
0.260557
11
-0.140352
21
0.260728
0
LINE
8
BLACK
6
CONTINUOUS
10
-0.140352
20
0.260728
11
-0.140486
21
0.261484
0
LINE
8
BLACK
6
CONTINUOUS
10
-0.140486
20
0.261484
11
-0.140748
21
0.262205
0
LINE
8
BLACK
6
CONTINUOUS
10
-0.140748
20
0.262205
11
-0.140748
21
0.537795
0
LINE
8
BLACK
6
CONTINUOUS
10
-0.140748
20
0.537795
11
-0.14068
21
0.538179
0
LINE
8
BLACK
6
CONTINUOUS
10
-0.14068
20
0.538179
11
-0.140703
21
0.538308
0
LINE
8
BLACK
6
CONTINUOUS
10
-0.140703
20
0.538308
11
-0.140638
21
0.538422
0
LINE
8
BLACK
6
CONTINUOUS
10
-0.140638
20
0.538422
11
-0.14057
21
0.538805
0
LINE
8
BLACK
6
CONTINUOUS
10
-0.14057
20
0.538805
11
-0.140077
21
0.539393
0
LINE
8
BLACK
6
CONTINUOUS
10
-0.140077
20
0.539393
11
-0.139693
21
0.540057
0
LINE
8
BLACK
6
CONTINUOUS
10
-0.139693
20
0.540057
11
-0.139443
21
0.540148
0
LINE
8
BLACK
6
CONTINUOUS
10
-0.139443
20
0.540148
11
-0.139272
21
0.540352
0
LINE
8
BLACK
6
CONTINUOUS
10
-0.139272
20
0.540352
11
-0.138516
21
0.540486
0
LINE
8
BLACK
6
CONTINUOUS
10
-0.138516
20
0.540486
11
-0.137795
21
0.540748
0
LINE
8
BLACK
6
CONTINUOUS
10
-0.137795
20
0.540748
11
0.137795
21
0.540748
0
LINE
8
BLACK
6
CONTINUOUS
10
0.137795
20
0.540748
11
0.138179
21
0.54068
0
LINE
8
BLACK
6
CONTINUOUS
10
-0.134843
20
0.317126
11
-0.134843
21
0.265157
0
LINE
8
BLACK
6
CONTINUOUS
10
-0.134843
20
0.265157
11
-0.082874
21
0.265157
0
LINE
8
BLACK
6
CONTINUOUS
10
-0.082874
20
0.265157
11
-0.082874
21
0.276969
0
LINE
8
BLACK
6
CONTINUOUS
10
-0.082874
20
0.276969
11
-0.120079
21
0.276969
0
LINE
8
BLACK
6
CONTINUOUS
10
-0.120079
20
0.276969
11
-0.120462
21
0.277036
0
LINE
8
BLACK
6
CONTINUOUS
10
-0.120462
20
0.277036
11
-0.120591
21
0.277013
0
LINE
8
BLACK
6
CONTINUOUS
10
-0.120591
20
0.277013
11
-0.120705
21
0.277079
0
LINE
8
BLACK
6
CONTINUOUS
10
-0.120705
20
0.277079
11
-0.121089
21
0.277147
0
LINE
8
BLACK
6
CONTINUOUS
10
-0.121089
20
0.277147
11
-0.121676
21
0.27764
0
LINE
8
BLACK
6
CONTINUOUS
10
-0.121676
20
0.27764
11
-0.122341
21
0.278023
0
LINE
8
BLACK
6
CONTINUOUS
10
-0.122341
20
0.278023
11
-0.122432
21
0.278274
0
LINE
8
BLACK
6
CONTINUOUS
10
-0.122432
20
0.278274
11
-0.122636
21
0.278445
0
LINE
8
BLACK
6
CONTINUOUS
10
-0.122636
20
0.278445
11
-0.122769
21
0.2792
0
LINE
8
BLACK
6
CONTINUOUS
10
-0.122769
20
0.2792
11
-0.123031
21
0.279921
0
LINE
8
BLACK
6
CONTINUOUS
10
-0.123031
20
0.279921
11
-0.123031
21
0.317126
0
LINE
8
BLACK
6
CONTINUOUS
10
-0.123031
20
0.317126
11
-0.134843
21
0.317126
0
LINE
8
BLACK
6
CONTINUOUS
10
-0.0769685
20
0.534843
11
-0.0769685
21
0.479921
0
LINE
8
BLACK
6
CONTINUOUS
10
-0.0769685
20
0.479921
11
-0.0770361
21
0.479538
0
LINE
8
BLACK
6
CONTINUOUS
10
-0.0770361
20
0.479538
11
-0.0770133
21
0.479409
0
LINE
8
BLACK
6
CONTINUOUS
10
-0.0770133
20
0.479409
11
-0.077079
21
0.479295
0
LINE
8
BLACK
6
CONTINUOUS
10
-0.077079
20
0.479295
11
-0.0771466
21
0.478911
0
LINE
8
BLACK
6
CONTINUOUS
10
-0.0771466
20
0.478911
11
-0.0776397
21
0.478324
0
LINE
8
BLACK
6
CONTINUOUS
10
-0.0776397
20
0.478324
11
-0.0780233
21
0.477659
0
LINE
8
BLACK
6
CONTINUOUS
10
-0.0780233
20
0.477659
11
-0.0782736
21
0.477568
0
LINE
8
BLACK
6
CONTINUOUS
10
-0.0782736
20
0.477568
11
-0.0784449
21
0.477364
0
LINE
8
BLACK
6
CONTINUOUS
10
-0.0784449
20
0.477364
11
-0.0792005
21
0.477231
0
LINE
8
BLACK
6
CONTINUOUS
10
-0.0792005
20
0.477231
11
-0.0799213
21
0.476969
0
LINE
8
BLACK
6
CONTINUOUS
10
-0.0799213
20
0.476969
11
-0.134843
21
0.476969
0
LINE
8
BLACK
6
CONTINUOUS
10
-0.134843
20
0.476969
11
-0.134843
21
0.323031
0
LINE
8
BLACK
6
CONTINUOUS
10
-0.134843
20
0.323031
11
-0.0799213
21
0.323031
0
LINE
8
BLACK
6
CONTINUOUS
10
-0.0799213
20
0.323031
11
-0.0795378
21
0.322964
0
LINE
8
BLACK
6
CONTINUOUS
10
-0.0795378
20
0.322964
11
-0.0794085
21
0.322987
0
LINE
8
BLACK
6
CONTINUOUS
10
-0.0794085
20
0.322987
11
-0.0792949
21
0.322921
0
LINE
8
BLACK
6
CONTINUOUS
10
-0.0792949
20
0.322921
11
-0.0789113
21
0.322853
0
LINE
8
BLACK
6
CONTINUOUS
10
-0.0789113
20
0.322853
11
-0.0783237
21
0.32236
0
LINE
8
BLACK
6
CONTINUOUS
10
-0.0783237
20
0.32236
11
-0.0776593
21
0.321977
0
LINE
8
BLACK
6
CONTINUOUS
10
-0.0776593
20
0.321977
11
-0.0775682
21
0.321726
0
LINE
8
BLACK
6
CONTINUOUS
10
-0.0775682
20
0.321726
11
-0.0773641
21
0.321555
0
LINE
8
BLACK
6
CONTINUOUS
10
-0.0773641
20
0.321555
11
-0.0772309
21
0.3208
0
LINE
8
BLACK
6
CONTINUOUS
10
-0.0772309
20
0.3208
11
-0.0769685
21
0.320079
0
LINE
8
BLACK
6
CONTINUOUS
10
-0.0769685
20
0.320079
11
-0.0769685
21
0.265157
0
LINE
8
BLACK
6
CONTINUOUS
10
-0.0769685
20
0.265157
11
0.0769685
21
0.265157
0
LINE
8
BLACK
6
CONTINUOUS
10
0.0769685
20
0.265157
11
0.0769685
21
0.320079
0
LINE
8
BLACK
6
CONTINUOUS
10
0.0769685
20
0.320079
11
0.0770361
21
0.320462
0
LINE
8
BLACK
6
CONTINUOUS
10
0.0770361
20
0.320462
11
0.0770133
21
0.320591
0
LINE
8
BLACK
6
CONTINUOUS
10
0.0770133
20
0.320591
11
0.0770789
21
0.320705
0
LINE
8
BLACK
6
CONTINUOUS
10
0.0770789
20
0.320705
11
0.0771466
21
0.321089
0
LINE
8
BLACK
6
CONTINUOUS
10
0.0771466
20
0.321089
11
0.0776397
21
0.321676
0
LINE
8
BLACK
6
CONTINUOUS
10
0.0776397
20
0.321676
11
0.0780233
21
0.322341
0
LINE
8
BLACK
6
CONTINUOUS
10
0.0780233
20
0.322341
11
0.0782736
21
0.322432
0
LINE
8
BLACK
6
CONTINUOUS
10
0.0782736
20
0.322432
11
0.0784449
21
0.322636
0
LINE
8
BLACK
6
CONTINUOUS
10
0.0784449
20
0.322636
11
0.0792004
21
0.322769
0
LINE
8
BLACK
6
CONTINUOUS
10
0.0792004
20
0.322769
11
0.0799213
21
0.323031
0
LINE
8
BLACK
6
CONTINUOUS
10
0.0799213
20
0.323031
11
0.134843
21
0.323031
0
LINE
8
BLACK
6
CONTINUOUS
10
0.134843
20
0.323031
11
0.134843
21
0.476969
0
LINE
8
BLACK
6
CONTINUOUS
10
0.134843
20
0.476969
11
0.0799213
21
0.476969
0
LINE
8
BLACK
6
CONTINUOUS
10
0.0799213
20
0.476969
11
0.0795377
21
0.477036
0
LINE
8
BLACK
6
CONTINUOUS
10
0.0795377
20
0.477036
11
0.0794085
21
0.477013
0
LINE
8
BLACK
6
CONTINUOUS
10
0.0794085
20
0.477013
11
0.0792949
21
0.477079
0
LINE
8
BLACK
6
CONTINUOUS
10
0.0792949
20
0.477079
11
0.0789113
21
0.477147
0
LINE
8
BLACK
6
CONTINUOUS
10
0.0789113
20
0.477147
11
0.0783236
21
0.47764
0
LINE
8
BLACK
6
CONTINUOUS
10
0.0783236
20
0.47764
11
0.0776593
21
0.478023
0
LINE
8
BLACK
6
CONTINUOUS
10
0.0776593
20
0.478023
11
0.0775682
21
0.478274
0
LINE
8
BLACK
6
CONTINUOUS
10
0.0775682
20
0.478274
11
0.0773641
21
0.478445
0
LINE
8
BLACK
6
CONTINUOUS
10
0.0773641
20
0.478445
11
0.0772308
21
0.4792
0
LINE
8
BLACK
6
CONTINUOUS
10
0.0772308
20
0.4792
11
0.0769685
21
0.479921
0
LINE
8
BLACK
6
CONTINUOUS
10
0.0769685
20
0.479921
11
0.0769685
21
0.534843
0
LINE
8
BLACK
6
CONTINUOUS
10
0.0769685
20
0.534843
11
-0.0769685
21
0.534843
0
LINE
8
BLACK
6
CONTINUOUS
10
0.123031
20
0.317126
11
0.123031
21
0.279921
0
LINE
8
BLACK
6
CONTINUOUS
10
0.123031
20
0.279921
11
0.122964
21
0.279538
0
LINE
8
BLACK
6
CONTINUOUS
10
0.122964
20
0.279538
11
0.122987
21
0.279409
0
LINE
8
BLACK
6
CONTINUOUS
10
0.122987
20
0.279409
11
0.122921
21
0.279295
0
LINE
8
BLACK
6
CONTINUOUS
10
0.122921
20
0.279295
11
0.122853
21
0.278911
0
LINE
8
BLACK
6
CONTINUOUS
10
0.122853
20
0.278911
11
0.12236
21
0.278324
0
LINE
8
BLACK
6
CONTINUOUS
10
0.12236
20
0.278324
11
0.121977
21
0.277659
0
LINE
8
BLACK
6
CONTINUOUS
10
0.121977
20
0.277659
11
0.121726
21
0.277568
0
LINE
8
BLACK
6
CONTINUOUS
10
0.121726
20
0.277568
11
0.121555
21
0.277364
0
LINE
8
BLACK
6
CONTINUOUS
10
0.121555
20
0.277364
11
0.1208
21
0.277231
0
LINE
8
BLACK
6
CONTINUOUS
10
0.1208
20
0.277231
11
0.120079
21
0.276969
0
LINE
8
BLACK
6
CONTINUOUS
10
0.120079
20
0.276969
11
0.082874
21
0.276969
0
LINE
8
BLACK
6
CONTINUOUS
10
0.082874
20
0.276969
11
0.082874
21
0.265157
0
LINE
8
BLACK
6
CONTINUOUS
10
0.082874
20
0.265157
11
0.134843
21
0.265157
0
LINE
8
BLACK
6
CONTINUOUS
10
0.134843
20
0.265157
11
0.134843
21
0.317126
0
LINE
8
BLACK
6
CONTINUOUS
10
0.134843
20
0.317126
11
0.123031
21
0.317126
0
LINE
8
BLACK
6
CONTINUOUS
10
0.082874
20
0.317126
11
0.082874
21
0.282874
0
LINE
8
BLACK
6
CONTINUOUS
10
0.082874
20
0.282874
11
0.117126
21
0.282874
0
LINE
8
BLACK
6
CONTINUOUS
10
0.117126
20
0.282874
11
0.117126
21
0.317126
0
LINE
8
BLACK
6
CONTINUOUS
10
0.117126
20
0.317126
11
0.082874
21
0.317126
0
LINE
8
BLACK
6
CONTINUOUS
10
-0.117126
20
0.317126
11
-0.117126
21
0.282874
0
LINE
8
BLACK
6
CONTINUOUS
10
-0.117126
20
0.282874
11
-0.082874
21
0.282874
0
LINE
8
BLACK
6
CONTINUOUS
10
-0.082874
20
0.282874
11
-0.082874
21
0.317126
0
LINE
8
BLACK
6
CONTINUOUS
10
-0.082874
20
0.317126
11
-0.117126
21
0.317126
0
LINE
8
BLACK
6
CONTINUOUS
10
0.082874
20
0.517126
11
0.082874
21
0.482874
0
LINE
8
BLACK
6
CONTINUOUS
10
0.082874
20
0.482874
11
0.117126
21
0.482874
0
LINE
8
BLACK
6
CONTINUOUS
10
0.117126
20
0.482874
11
0.117126
21
0.517126
0
LINE
8
BLACK
6
CONTINUOUS
10
0.117126
20
0.517126
11
0.082874
21
0.517126
0
LINE
8
BLACK
6
CONTINUOUS
10
0.082874
20
0.534843
11
0.082874
21
0.523031
0
LINE
8
BLACK
6
CONTINUOUS
10
0.082874
20
0.523031
11
0.120079
21
0.523031
0
LINE
8
BLACK
6
CONTINUOUS
10
0.120079
20
0.523031
11
0.120462
21
0.522964
0
LINE
8
BLACK
6
CONTINUOUS
10
0.120462
20
0.522964
11
0.120591
21
0.522987
0
LINE
8
BLACK
6
CONTINUOUS
10
0.120591
20
0.522987
11
0.120705
21
0.522921
0
LINE
8
BLACK
6
CONTINUOUS
10
0.120705
20
0.522921
11
0.121089
21
0.522853
0
LINE
8
BLACK
6
CONTINUOUS
10
0.121089
20
0.522853
11
0.121676
21
0.52236
0
LINE
8
BLACK
6
CONTINUOUS
10
0.121676
20
0.52236
11
0.122341
21
0.521977
0
LINE
8
BLACK
6
CONTINUOUS
10
0.122341
20
0.521977
11
0.122432
21
0.521726
0
LINE
8
BLACK
6
CONTINUOUS
10
0.122432
20
0.521726
11
0.122636
21
0.521555
0
LINE
8
BLACK
6
CONTINUOUS
10
0.122636
20
0.521555
11
0.122769
21
0.5208
0
LINE
8
BLACK
6
CONTINUOUS
10
0.122769
20
0.5208
11
0.123031
21
0.520079
0
LINE
8
BLACK
6
CONTINUOUS
10
0.123031
20
0.520079
11
0.123031
21
0.482874
0
LINE
8
BLACK
6
CONTINUOUS
10
0.123031
20
0.482874
11
0.134843
21
0.482874
0
LINE
8
BLACK
6
CONTINUOUS
10
0.134843
20
0.482874
11
0.134843
21
0.534843
0
LINE
8
BLACK
6
CONTINUOUS
10
0.134843
20
0.534843
11
0.082874
21
0.534843
0
LINE
8
BLACK
6
CONTINUOUS
10
-0.134843
20
0.534843
11
-0.134843
21
0.482874
0
LINE
8
BLACK
6
CONTINUOUS
10
-0.134843
20
0.482874
11
-0.123031
21
0.482874
0
LINE
8
BLACK
6
CONTINUOUS
10
-0.123031
20
0.482874
11
-0.123031
21
0.520079
0
LINE
8
BLACK
6
CONTINUOUS
10
-0.123031
20
0.520079
11
-0.122964
21
0.520462
0
LINE
8
BLACK
6
CONTINUOUS
10
-0.122964
20
0.520462
11
-0.122987
21
0.520591
0
LINE
8
BLACK
6
CONTINUOUS
10
-0.122987
20
0.520591
11
-0.122921
21
0.520705
0
LINE
8
BLACK
6
CONTINUOUS
10
-0.122921
20
0.520705
11
-0.122853
21
0.521089
0
LINE
8
BLACK
6
CONTINUOUS
10
-0.122853
20
0.521089
11
-0.12236
21
0.521676
0
LINE
8
BLACK
6
CONTINUOUS
10
-0.12236
20
0.521676
11
-0.121977
21
0.522341
0
LINE
8
BLACK
6
CONTINUOUS
10
-0.121977
20
0.522341
11
-0.121726
21
0.522432
0
LINE
8
BLACK
6
CONTINUOUS
10
-0.121726
20
0.522432
11
-0.121555
21
0.522636
0
LINE
8
BLACK
6
CONTINUOUS
10
-0.121555
20
0.522636
11
-0.1208
21
0.522769
0
LINE
8
BLACK
6
CONTINUOUS
10
-0.1208
20
0.522769
11
-0.120079
21
0.523031
0
LINE
8
BLACK
6
CONTINUOUS
10
-0.120079
20
0.523031
11
-0.082874
21
0.523031
0
LINE
8
BLACK
6
CONTINUOUS
10
-0.082874
20
0.523031
11
-0.082874
21
0.534843
0
LINE
8
BLACK
6
CONTINUOUS
10
-0.082874
20
0.534843
11
-0.134843
21
0.534843
0
LINE
8
BLACK
6
CONTINUOUS
10
-0.117126
20
0.517126
11
-0.117126
21
0.482874
0
LINE
8
BLACK
6
CONTINUOUS
10
-0.117126
20
0.482874
11
-0.082874
21
0.482874
0
LINE
8
BLACK
6
CONTINUOUS
10
-0.082874
20
0.482874
11
-0.082874
21
0.517126
0
LINE
8
BLACK
6
CONTINUOUS
10
-0.082874
20
0.517126
11
-0.117126
21
0.517126
0
LINE
8
BLACK
6
CONTINUOUS
10
0.550384
20
0.752885
11
0.550513
21
0.752908
0
LINE
8
BLACK
6
CONTINUOUS
10
0.550513
20
0.752908
11
0.550626
21
0.752842
0
LINE
8
BLACK
6
CONTINUOUS
10
0.550626
20
0.752842
11
0.55101
21
0.752775
0
LINE
8
BLACK
6
CONTINUOUS
10
0.55101
20
0.752775
11
0.551598
21
0.752282
0
LINE
8
BLACK
6
CONTINUOUS
10
0.551598
20
0.752282
11
0.552262
21
0.751898
0
LINE
8
BLACK
6
CONTINUOUS
10
0.552262
20
0.751898
11
0.552353
21
0.751648
0
LINE
8
BLACK
6
CONTINUOUS
10
0.552353
20
0.751648
11
0.552557
21
0.751476
0
LINE
8
BLACK
6
CONTINUOUS
10
0.552557
20
0.751476
11
0.55269
21
0.750721
0
LINE
8
BLACK
6
CONTINUOUS
10
0.55269
20
0.750721
11
0.552953
21
0.75
0
LINE
8
BLACK
6
CONTINUOUS
10
0.552953
20
0.75
11
0.552953
21
0.45
0
LINE
8
BLACK
6
CONTINUOUS
10
0.552953
20
0.45
11
0.552885
21
0.449616
0
LINE
8
BLACK
6
CONTINUOUS
10
0.552885
20
0.449616
11
0.552908
21
0.449487
0
LINE
8
BLACK
6
CONTINUOUS
10
0.552908
20
0.449487
11
0.552842
21
0.449374
0
LINE
8
BLACK
6
CONTINUOUS
10
0.552842
20
0.449374
11
0.552775
21
0.44899
0
LINE
8
BLACK
6
CONTINUOUS
10
0.552775
20
0.44899
11
0.552282
21
0.448402
0
LINE
8
BLACK
6
CONTINUOUS
10
0.552282
20
0.448402
11
0.551898
21
0.447738
0
LINE
8
BLACK
6
CONTINUOUS
10
0.551898
20
0.447738
11
0.551648
21
0.447647
0
LINE
8
BLACK
6
CONTINUOUS
10
0.551648
20
0.447647
11
0.551476
21
0.447443
0
LINE
8
BLACK
6
CONTINUOUS
10
0.551476
20
0.447443
11
0.550721
21
0.44731
0
LINE
8
BLACK
6
CONTINUOUS
10
0.550721
20
0.44731
11
0.55
21
0.447047
0
LINE
8
BLACK
6
CONTINUOUS
10
0.55
20
0.447047
11
0.35
21
0.447047
0
LINE
8
BLACK
6
CONTINUOUS
10
0.35
20
0.447047
11
0.349616
21
0.447115
0
LINE
8
BLACK
6
CONTINUOUS
10
0.349616
20
0.447115
11
0.349487
21
0.447092
0
LINE
8
BLACK
6
CONTINUOUS
10
0.349487
20
0.447092
11
0.349374
21
0.447158
0
LINE
8
BLACK
6
CONTINUOUS
10
0.349374
20
0.447158
11
0.34899
21
0.447225
0
LINE
8
BLACK
6
CONTINUOUS
10
0.34899
20
0.447225
11
0.348402
21
0.447718
0
LINE
8
BLACK
6
CONTINUOUS
10
0.348402
20
0.447718
11
0.347738
21
0.448102
0
LINE
8
BLACK
6
CONTINUOUS
10
0.347738
20
0.448102
11
0.347647
21
0.448352
0
LINE
8
BLACK
6
CONTINUOUS
10
0.347647
20
0.448352
11
0.347443
21
0.448524
0
LINE
8
BLACK
6
CONTINUOUS
10
0.347443
20
0.448524
11
0.34731
21
0.449279
0
LINE
8
BLACK
6
CONTINUOUS
10
0.34731
20
0.449279
11
0.347047
21
0.45
0
LINE
8
BLACK
6
CONTINUOUS
10
0.347047
20
0.45
11
0.347047
21
0.75
0
LINE
8
BLACK
6
CONTINUOUS
10
0.347047
20
0.75
11
0.347115
21
0.750384
0
LINE
8
BLACK
6
CONTINUOUS
10
0.347115
20
0.750384
11
0.347092
21
0.750513
0
LINE
8
BLACK
6
CONTINUOUS
10
0.347092
20
0.750513
11
0.347158
21
0.750626
0
LINE
8
BLACK
6
CONTINUOUS
10
0.347158
20
0.750626
11
0.347225
21
0.75101
0
LINE
8
BLACK
6
CONTINUOUS
10
0.347225
20
0.75101
11
0.347718
21
0.751598
0
LINE
8
BLACK
6
CONTINUOUS
10
0.347718
20
0.751598
11
0.348102
21
0.752262
0
LINE
8
BLACK
6
CONTINUOUS
10
0.348102
20
0.752262
11
0.348352
21
0.752353
0
LINE
8
BLACK
6
CONTINUOUS
10
0.348352
20
0.752353
11
0.348524
21
0.752557
0
LINE
8
BLACK
6
CONTINUOUS
10
0.348524
20
0.752557
11
0.349279
21
0.75269
0
LINE
8
BLACK
6
CONTINUOUS
10
0.349279
20
0.75269
11
0.35
21
0.752953
0
LINE
8
BLACK
6
CONTINUOUS
10
0.35
20
0.752953
11
0.55
21
0.752953
0
LINE
8
BLACK
6
CONTINUOUS
10
0.55
20
0.752953
11
0.550384
21
0.752885
0
LINE
8
BLACK
6
CONTINUOUS
10
0.352953
20
0.747047
11
0.352953
21
0.452953
0
LINE
8
BLACK
6
CONTINUOUS
10
0.352953
20
0.452953
11
0.547047
21
0.452953
0
LINE
8
BLACK
6
CONTINUOUS
10
0.547047
20
0.452953
11
0.547047
21
0.747047
0
LINE
8
BLACK
6
CONTINUOUS
10
0.547047
20
0.747047
11
0.352953
21
0.747047
0
LINE
8
BLACK
6
CONTINUOUS
10
-0.0144047
20
0.829074
11
-0.0137139
21
0.827176
0
LINE
8
BLACK
6
CONTINUOUS
10
-0.0137139
20
0.827176
11
-0.0137139
21
0.791462
0
LINE
8
BLACK
6
CONTINUOUS
10
-0.0137139
20
0.791462
11
-0.0138672
21
0.790592
0
LINE
8
BLACK
6
CONTINUOUS
10
-0.0138672
20
0.790592
11
-0.0138654
21
0.790528
0
LINE
8
BLACK
6
CONTINUOUS
10
-0.0138654
20
0.790528
11
-0.0162464
21
0.783385
0
LINE
8
BLACK
6
CONTINUOUS
10
-0.0162464
20
0.783385
11
-0.0167347
21
0.782483
0
LINE
8
BLACK
6
CONTINUOUS
10
-0.0167347
20
0.782483
11
-0.0168852
21
0.782391
0
LINE
8
BLACK
6
CONTINUOUS
10
-0.0168852
20
0.782391
11
-0.0169597
21
0.782231
0
LINE
8
BLACK
6
CONTINUOUS
10
-0.0169597
20
0.782231
11
-0.0217216
21
0.777469
0
LINE
8
BLACK
6
CONTINUOUS
10
-0.0217216
20
0.777469
11
-0.0225617
21
0.776881
0
LINE
8
BLACK
6
CONTINUOUS
10
-0.0225617
20
0.776881
11
-0.0227375
21
0.776866
0
LINE
8
BLACK
6
CONTINUOUS
10
-0.0227375
20
0.776866
11
-0.0228758
21
0.776756
0
LINE
8
BLACK
6
CONTINUOUS
10
-0.0228758
20
0.776756
11
-0.0300187
21
0.774375
0
LINE
8
BLACK
6
CONTINUOUS
10
-0.0300187
20
0.774375
11
-0.0308919
21
0.774245
0
LINE
8
BLACK
6
CONTINUOUS
10
-0.0308919
20
0.774245
11
-0.0309524
21
0.774223
0
LINE
8
BLACK
6
CONTINUOUS
10
-0.0309524
20
0.774223
11
-0.0357143
21
0.774223
0
LINE
8
BLACK
6
CONTINUOUS
10
-0.0357143
20
0.774223
11
-0.0367242
21
0.774401
0
LINE
8
BLACK
6
CONTINUOUS
10
-0.0367242
20
0.774401
11
-0.0382715
21
0.7757
0
LINE
8
BLACK
6
CONTINUOUS
10
-0.0382715
20
0.7757
11
-0.0386222
21
0.777689
0
LINE
8
BLACK
6
CONTINUOUS
10
-0.0386222
20
0.777689
11
-0.0376123
21
0.779438
0
LINE
8
BLACK
6
CONTINUOUS
10
-0.0376123
20
0.779438
11
-0.0357143
21
0.780129
0
LINE
8
BLACK
6
CONTINUOUS
10
-0.0357143
20
0.780129
11
-0.0314315
21
0.780129
0
LINE
8
BLACK
6
CONTINUOUS
10
-0.0314315
20
0.780129
11
-0.0254046
21
0.782138
0
LINE
8
BLACK
6
CONTINUOUS
10
-0.0254046
20
0.782138
11
-0.0216284
21
0.785914
0
LINE
8
BLACK
6
CONTINUOUS
10
-0.0216284
20
0.785914
11
-0.0196194
21
0.791941
0
LINE
8
BLACK
6
CONTINUOUS
10
-0.0196194
20
0.791941
11
-0.0196194
21
0.827176
0
LINE
8
BLACK
6
CONTINUOUS
10
-0.0196194
20
0.827176
11
-0.0194413
21
0.828186
0
LINE
8
BLACK
6
CONTINUOUS
10
-0.0194413
20
0.828186
11
-0.018143
21
0.829733
0
LINE
8
BLACK
6
CONTINUOUS
10
-0.018143
20
0.829733
11
-0.0161539
21
0.830084
0
LINE
8
BLACK
6
CONTINUOUS
10
-0.0161539
20
0.830084
11
-0.0144047
21
0.829074
0
LINE
8
BLACK
6
CONTINUOUS
10
0.0180727
20
0.832154
11
0.0194127
21
0.830642
0
LINE
8
BLACK
6
CONTINUOUS
10
0.0194127
20
0.830642
11
0.0194679
21
0.828623
0
LINE
8
BLACK
6
CONTINUOUS
10
0.0194679
20
0.828623
11
0.00885862
21
0.796796
0
LINE
8
BLACK
6
CONTINUOUS
10
0.00885862
20
0.796796
11
0.0256187
21
0.796796
0
LINE
8
BLACK
6
CONTINUOUS
10
0.0256187
20
0.796796
11
0.0256187
21
0.810509
0
LINE
8
BLACK
6
CONTINUOUS
10
0.0256187
20
0.810509
11
0.0257967
21
0.811519
0
LINE
8
BLACK
6
CONTINUOUS
10
0.0257967
20
0.811519
11
0.027095
21
0.813067
0
LINE
8
BLACK
6
CONTINUOUS
10
0.027095
20
0.813067
11
0.0290842
21
0.813417
0
LINE
8
BLACK
6
CONTINUOUS
10
0.0290842
20
0.813417
11
0.0308333
21
0.812407
0
LINE
8
BLACK
6
CONTINUOUS
10
0.0308333
20
0.812407
11
0.0315242
21
0.810509
0
LINE
8
BLACK
6
CONTINUOUS
10
0.0315242
20
0.810509
11
0.0315242
21
0.796796
0
LINE
8
BLACK
6
CONTINUOUS
10
0.0315242
20
0.796796
11
0.0357143
21
0.796796
0
LINE
8
BLACK
6
CONTINUOUS
10
0.0357143
20
0.796796
11
0.0367242
21
0.796618
0
LINE
8
BLACK
6
CONTINUOUS
10
0.0367242
20
0.796618
11
0.0382715
21
0.795319
0
LINE
8
BLACK
6
CONTINUOUS
10
0.0382715
20
0.795319
11
0.0386222
21
0.79333
0
LINE
8
BLACK
6
CONTINUOUS
10
0.0386222
20
0.79333
11
0.0376123
21
0.791581
0
LINE
8
BLACK
6
CONTINUOUS
10
0.0376123
20
0.791581
11
0.0357143
21
0.79089
0
LINE
8
BLACK
6
CONTINUOUS
10
0.0357143
20
0.79089
11
0.0315242
21
0.79089
0
LINE
8
BLACK
6
CONTINUOUS
10
0.0315242
20
0.79089
11
0.0315242
21
0.777176
0
LINE
8
BLACK
6
CONTINUOUS
10
0.0315242
20
0.777176
11
0.0313461
21
0.776166
0
LINE
8
BLACK
6
CONTINUOUS
10
0.0313461
20
0.776166
11
0.0300478
21
0.774619
0
LINE
8
BLACK
6
CONTINUOUS
10
0.0300478
20
0.774619
11
0.0280587
21
0.774268
0
LINE
8
BLACK
6
CONTINUOUS
10
0.0280587
20
0.774268
11
0.0263095
21
0.775278
0
LINE
8
BLACK
6
CONTINUOUS
10
0.0263095
20
0.775278
11
0.0256187
21
0.777176
0
LINE
8
BLACK
6
CONTINUOUS
10
0.0256187
20
0.777176
11
0.0256187
21
0.79089
0
LINE
8
BLACK
6
CONTINUOUS
10
0.0256187
20
0.79089
11
0.00476189
21
0.79089
0
LINE
8
BLACK
6
CONTINUOUS
10
0.00476189
20
0.79089
11
0.00375197
21
0.791068
0
LINE
8
BLACK
6
CONTINUOUS
10
0.00375197
20
0.791068
11
0.00357909
21
0.791213
0
LINE
8
BLACK
6
CONTINUOUS
10
0.00357909
20
0.791213
11
0.00335587
21
0.791246
0
LINE
8
BLACK
6
CONTINUOUS
10
0.00335587
20
0.791246
11
0.00282154
21
0.791849
0
LINE
8
BLACK
6
CONTINUOUS
10
0.00282154
20
0.791849
11
0.00220472
21
0.792366
0
LINE
8
BLACK
6
CONTINUOUS
10
0.00220472
20
0.792366
11
0.00216551
21
0.792589
0
LINE
8
BLACK
6
CONTINUOUS
10
0.00216551
20
0.792589
11
0.00201583
21
0.792758
0
LINE
8
BLACK
6
CONTINUOUS
10
0.00201583
20
0.792758
11
0.00199382
21
0.793562
0
LINE
8
BLACK
6
CONTINUOUS
10
0.00199382
20
0.793562
11
0.00185398
21
0.794356
0
LINE
8
BLACK
6
CONTINUOUS
10
0.00185398
20
0.794356
11
0.00196681
21
0.794551
0
LINE
8
BLACK
6
CONTINUOUS
10
0.00196681
20
0.794551
11
0.00196067
21
0.794777
0
LINE
8
BLACK
6
CONTINUOUS
10
0.00196067
20
0.794777
11
0.0138654
21
0.830491
0
LINE
8
BLACK
6
CONTINUOUS
10
0.0138654
20
0.830491
11
0.0143537
21
0.831393
0
LINE
8
BLACK
6
CONTINUOUS
10
0.0143537
20
0.831393
11
0.0160747
21
0.83245
0
LINE
8
BLACK
6
CONTINUOUS
10
0.0160747
20
0.83245
11
0.0180727
21
0.832154
0
LINE
8
BLACK
6
CONTINUOUS
10
0.0114996
20
0.887349
11
0.0228026
21
0.8851
0
LINE
8
BLACK
6
CONTINUOUS
10
0.0228026
20
0.8851
11
0.0337153
21
0.881396
0
LINE
8
BLACK
6
CONTINUOUS
10
0.0337153
20
0.881396
11
0.0440512
21
0.876299
0
LINE
8
BLACK
6
CONTINUOUS
10
0.0440512
20
0.876299
11
0.0536333
21
0.869896
0
LINE
8
BLACK
6
CONTINUOUS
10
0.0536333
20
0.869896
11
0.0622978
21
0.862298
0
LINE
8
BLACK
6
CONTINUOUS
10
0.0622978
20
0.862298
11
0.0698963
21
0.853633
0
LINE
8
BLACK
6
CONTINUOUS
10
0.0698963
20
0.853633
11
0.0762989
21
0.844051
0
LINE
8
BLACK
6
CONTINUOUS
10
0.0762989
20
0.844051
11
0.0813959
21
0.833715
0
LINE
8
BLACK
6
CONTINUOUS
10
0.0813959
20
0.833715
11
0.0851003
21
0.822803
0
LINE
8
BLACK
6
CONTINUOUS
10
0.0851003
20
0.822803
11
0.0873486
21
0.8115
0
LINE
8
BLACK
6
CONTINUOUS
10
0.0873486
20
0.8115
11
0.0881023
21
0.8
0
LINE
8
BLACK
6
CONTINUOUS
10
0.0881023
20
0.8
11
0.0873486
21
0.7885
0
LINE
8
BLACK
6
CONTINUOUS
10
0.0873486
20
0.7885
11
0.0851003
21
0.777197
0
LINE
8
BLACK
6
CONTINUOUS
10
0.0851003
20
0.777197
11
0.0813959
21
0.766285
0
LINE
8
BLACK
6
CONTINUOUS
10
0.0813959
20
0.766285
11
0.0762989
21
0.755949
0
LINE
8
BLACK
6
CONTINUOUS
10
0.0762989
20
0.755949
11
0.0698963
21
0.746367
0
LINE
8
BLACK
6
CONTINUOUS
10
0.0698963
20
0.746367
11
0.0622978
21
0.737702
0
LINE
8
BLACK
6
CONTINUOUS
10
0.0622978
20
0.737702
11
0.0536333
21
0.730104
0
LINE
8
BLACK
6
CONTINUOUS
10
0.0536333
20
0.730104
11
0.0440512
21
0.723701
0
LINE
8
BLACK
6
CONTINUOUS
10
0.0440512
20
0.723701
11
0.0337153
21
0.718604
0
LINE
8
BLACK
6
CONTINUOUS
10
0.0337153
20
0.718604
11
0.0228026
21
0.7149
0
LINE
8
BLACK
6
CONTINUOUS
10
0.0228026
20
0.7149
11
0.0114996
21
0.712651
0
LINE
8
BLACK
6
CONTINUOUS
10
0.0114996
20
0.712651
11
0
21
0.711898
0
LINE
8
BLACK
6
CONTINUOUS
10
0
20
0.711898
11
-0.0114996
21
0.712651
0
LINE
8
BLACK
6
CONTINUOUS
10
-0.0114996
20
0.712651
11
-0.0228026
21
0.7149
0
LINE
8
BLACK
6
CONTINUOUS
10
-0.0228026
20
0.7149
11
-0.0337153
21
0.718604
0
LINE
8
BLACK
6
CONTINUOUS
10
-0.0337153
20
0.718604
11
-0.0440512
21
0.723701
0
LINE
8
BLACK
6
CONTINUOUS
10
-0.0440512
20
0.723701
11
-0.0536333
21
0.730104
0
LINE
8
BLACK
6
CONTINUOUS
10
-0.0536333
20
0.730104
11
-0.0622978
21
0.737702
0
LINE
8
BLACK
6
CONTINUOUS
10
-0.0622978
20
0.737702
11
-0.0698963
21
0.746367
0
LINE
8
BLACK
6
CONTINUOUS
10
-0.0698963
20
0.746367
11
-0.0762989
21
0.755949
0
LINE
8
BLACK
6
CONTINUOUS
10
-0.0762989
20
0.755949
11
-0.0813959
21
0.766285
0
LINE
8
BLACK
6
CONTINUOUS
10
-0.0813959
20
0.766285
11
-0.0851003
21
0.777197
0
LINE
8
BLACK
6
CONTINUOUS
10
-0.0851003
20
0.777197
11
-0.0873486
21
0.7885
0
LINE
8
BLACK
6
CONTINUOUS
10
-0.0873486
20
0.7885
11
-0.0881023
21
0.8
0
LINE
8
BLACK
6
CONTINUOUS
10
-0.0881023
20
0.8
11
-0.0873486
21
0.8115
0
LINE
8
BLACK
6
CONTINUOUS
10
-0.0873486
20
0.8115
11
-0.0851003
21
0.822803
0
LINE
8
BLACK
6
CONTINUOUS
10
-0.0851003
20
0.822803
11
-0.0813959
21
0.833715
0
LINE
8
BLACK
6
CONTINUOUS
10
-0.0813959
20
0.833715
11
-0.0762989
21
0.844051
0
LINE
8
BLACK
6
CONTINUOUS
10
-0.0762989
20
0.844051
11
-0.0698963
21
0.853633
0
LINE
8
BLACK
6
CONTINUOUS
10
-0.0698963
20
0.853633
11
-0.0622978
21
0.862298
0
LINE
8
BLACK
6
CONTINUOUS
10
-0.0622978
20
0.862298
11
-0.0536333
21
0.869896
0
LINE
8
BLACK
6
CONTINUOUS
10
-0.0536333
20
0.869896
11
-0.0440511
21
0.876299
0
LINE
8
BLACK
6
CONTINUOUS
10
-0.0440511
20
0.876299
11
-0.0337153
21
0.881396
0
LINE
8
BLACK
6
CONTINUOUS
10
-0.0337153
20
0.881396
11
-0.0228026
21
0.8851
0
LINE
8
BLACK
6
CONTINUOUS
10
-0.0228026
20
0.8851
11
-0.0114996
21
0.887349
0
LINE
8
BLACK
6
CONTINUOUS
10
-0.0114996
20
0.887349
11
0
21
0.888102
0
LINE
8
BLACK
6
CONTINUOUS
10
0
20
0.888102
11
0.0114996
21
0.887349
0
LINE
8
BLACK
6
CONTINUOUS
10
-0.0816215
20
0.788781
11
-0.0793337
21
0.777772
0
LINE
8
BLACK
6
CONTINUOUS
10
-0.0793337
20
0.777772
11
-0.075568
21
0.767176
0
LINE
8
BLACK
6
CONTINUOUS
10
-0.075568
20
0.767176
11
-0.0703947
21
0.757192
0
LINE
8
BLACK
6
CONTINUOUS
10
-0.0703947
20
0.757192
11
-0.06391
21
0.748005
0
LINE
8
BLACK
6
CONTINUOUS
10
-0.06391
20
0.748005
11
-0.0562348
21
0.739787
0
LINE
8
BLACK
6
CONTINUOUS
10
-0.0562348
20
0.739787
11
-0.047512
21
0.732691
0
LINE
8
BLACK
6
CONTINUOUS
10
-0.047512
20
0.732691
11
-0.0379043
21
0.726848
0
LINE
8
BLACK
6
CONTINUOUS
10
-0.0379043
20
0.726848
11
-0.0275904
21
0.722368
0
LINE
8
BLACK
6
CONTINUOUS
10
-0.0275904
20
0.722368
11
-0.0167625
21
0.719334
0
LINE
8
BLACK
6
CONTINUOUS
10
-0.0167625
20
0.719334
11
-0.0056224
21
0.717803
0
LINE
8
BLACK
6
CONTINUOUS
10
-0.0056224
20
0.717803
11
0.0056224
21
0.717803
0
LINE
8
BLACK
6
CONTINUOUS
10
0.0056224
20
0.717803
11
0.0167625
21
0.719334
0
LINE
8
BLACK
6
CONTINUOUS
10
0.0167625
20
0.719334
11
0.0275904
21
0.722368
0
LINE
8
BLACK
6
CONTINUOUS
10
0.0275904
20
0.722368
11
0.0379043
21
0.726848
0
LINE
8
BLACK
6
CONTINUOUS
10
0.0379043
20
0.726848
11
0.047512
21
0.732691
0
LINE
8
BLACK
6
CONTINUOUS
10
0.047512
20
0.732691
11
0.0562348
21
0.739787
0
LINE
8
BLACK
6
CONTINUOUS
10
0.0562348
20
0.739787
11
0.06391
21
0.748005
0
LINE
8
BLACK
6
CONTINUOUS
10
0.06391
20
0.748005
11
0.0703947
21
0.757192
0
LINE
8
BLACK
6
CONTINUOUS
10
0.0703947
20
0.757192
11
0.075568
21
0.767176
0
LINE
8
BLACK
6
CONTINUOUS
10
0.075568
20
0.767176
11
0.0793337
21
0.777772
0
LINE
8
BLACK
6
CONTINUOUS
10
0.0793337
20
0.777772
11
0.0816215
21
0.788781
0
LINE
8
BLACK
6
CONTINUOUS
10
0.0816215
20
0.788781
11
0.0823889
21
0.8
0
LINE
8
BLACK
6
CONTINUOUS
10
0.0823889
20
0.8
11
0.0816215
21
0.811219
0
LINE
8
BLACK
6
CONTINUOUS
10
0.0816215
20
0.811219
11
0.0793337
21
0.822228
0
LINE
8
BLACK
6
CONTINUOUS
10
0.0793337
20
0.822228
11
0.075568
21
0.832824
0
LINE
8
BLACK
6
CONTINUOUS
10
0.075568
20
0.832824
11
0.0703947
21
0.842808
0
LINE
8
BLACK
6
CONTINUOUS
10
0.0703947
20
0.842808
11
0.06391
21
0.851995
0
LINE
8
BLACK
6
CONTINUOUS
10
0.06391
20
0.851995
11
0.0562348
21
0.860213
0
LINE
8
BLACK
6
CONTINUOUS
10
0.0562348
20
0.860213
11
0.047512
21
0.867309
0
LINE
8
BLACK
6
CONTINUOUS
10
0.047512
20
0.867309
11
0.0379043
21
0.873152
0
LINE
8
BLACK
6
CONTINUOUS
10
0.0379043
20
0.873152
11
0.0275904
21
0.877632
0
LINE
8
BLACK
6
CONTINUOUS
10
0.0275904
20
0.877632
11
0.0167625
21
0.880666
0
LINE
8
BLACK
6
CONTINUOUS
10
0.0167625
20
0.880666
11
0.0056224
21
0.882197
0
LINE
8
BLACK
6
CONTINUOUS
10
0.0056224
20
0.882197
11
-0.0056224
21
0.882197
0
LINE
8
BLACK
6
CONTINUOUS
10
-0.0056224
20
0.882197
11
-0.0167625
21
0.880666
0
LINE
8
BLACK
6
CONTINUOUS
10
-0.0167625
20
0.880666
11
-0.0275904
21
0.877632
0
LINE
8
BLACK
6
CONTINUOUS
10
-0.0275904
20
0.877632
11
-0.0379043
21
0.873152
0
LINE
8
BLACK
6
CONTINUOUS
10
-0.0379043
20
0.873152
11
-0.047512
21
0.867309
0
LINE
8
BLACK
6
CONTINUOUS
10
-0.047512
20
0.867309
11
-0.0562348
21
0.860213
0
LINE
8
BLACK
6
CONTINUOUS
10
-0.0562348
20
0.860213
11
-0.06391
21
0.851995
0
LINE
8
BLACK
6
CONTINUOUS
10
-0.06391
20
0.851995
11
-0.0703947
21
0.842808
0
LINE
8
BLACK
6
CONTINUOUS
10
-0.0703947
20
0.842808
11
-0.075568
21
0.832824
0
LINE
8
BLACK
6
CONTINUOUS
10
-0.075568
20
0.832824
11
-0.0793337
21
0.822228
0
LINE
8
BLACK
6
CONTINUOUS
10
-0.0793337
20
0.822228
11
-0.0816215
21
0.811219
0
LINE
8
BLACK
6
CONTINUOUS
10
-0.0816215
20
0.811219
11
-0.0823889
21
0.8
0
LINE
8
BLACK
6
CONTINUOUS
10
-0.0823889
20
0.8
11
-0.0816215
21
0.788781
0
LINE
8
BLACK
6
CONTINUOUS
10
0.138179
20
0.94068
11
0.138308
21
0.940703
0
LINE
8
BLACK
6
CONTINUOUS
10
0.138308
20
0.940703
11
0.138422
21
0.940638
0
LINE
8
BLACK
6
CONTINUOUS
10
0.138422
20
0.940638
11
0.138805
21
0.94057
0
LINE
8
BLACK
6
CONTINUOUS
10
0.138805
20
0.94057
11
0.139393
21
0.940077
0
LINE
8
BLACK
6
CONTINUOUS
10
0.139393
20
0.940077
11
0.140057
21
0.939693
0
LINE
8
BLACK
6
CONTINUOUS
10
0.140057
20
0.939693
11
0.140148
21
0.939443
0
LINE
8
BLACK
6
CONTINUOUS
10
0.140148
20
0.939443
11
0.140352
21
0.939272
0
LINE
8
BLACK
6
CONTINUOUS
10
0.140352
20
0.939272
11
0.140486
21
0.938516
0
LINE
8
BLACK
6
CONTINUOUS
10
0.140486
20
0.938516
11
0.140748
21
0.937795
0
LINE
8
BLACK
6
CONTINUOUS
10
0.140748
20
0.937795
11
0.140748
21
0.662205
0
LINE
8
BLACK
6
CONTINUOUS
10
0.140748
20
0.662205
11
0.14068
21
0.661821
0
LINE
8
BLACK
6
CONTINUOUS
10
0.14068
20
0.661821
11
0.140703
21
0.661692
0
LINE
8
BLACK
6
CONTINUOUS
10
0.140703
20
0.661692
11
0.140638
21
0.661578
0
LINE
8
BLACK
6
CONTINUOUS
10
0.140638
20
0.661578
11
0.14057
21
0.661195
0
LINE
8
BLACK
6
CONTINUOUS
10
0.14057
20
0.661195
11
0.140077
21
0.660607
0
LINE
8
BLACK
6
CONTINUOUS
10
0.140077
20
0.660607
11
0.139693
21
0.659943
0
LINE
8
BLACK
6
CONTINUOUS
10
0.139693
20
0.659943
11
0.139443
21
0.659852
0
LINE
8
BLACK
6
CONTINUOUS
10
0.139443
20
0.659852
11
0.139272
21
0.659648
0
LINE
8
BLACK
6
CONTINUOUS
10
0.139272
20
0.659648
11
0.138516
21
0.659514
0
LINE
8
BLACK
6
CONTINUOUS
10
0.138516
20
0.659514
11
0.137795
21
0.659252
0
LINE
8
BLACK
6
CONTINUOUS
10
0.137795
20
0.659252
11
-0.137795
21
0.659252
0
LINE
8
BLACK
6
CONTINUOUS
10
-0.137795
20
0.659252
11
-0.138179
21
0.65932
0
LINE
8
BLACK
6
CONTINUOUS
10
-0.138179
20
0.65932
11
-0.138308
21
0.659297
0
LINE
8
BLACK
6
CONTINUOUS
10
-0.138308
20
0.659297
11
-0.138422
21
0.659362
0
LINE
8
BLACK
6
CONTINUOUS
10
-0.138422
20
0.659362
11
-0.138805
21
0.65943
0
LINE
8
BLACK
6
CONTINUOUS
10
-0.138805
20
0.65943
11
-0.139393
21
0.659923
0
LINE
8
BLACK
6
CONTINUOUS
10
-0.139393
20
0.659923
11
-0.140057
21
0.660307
0
LINE
8
BLACK
6
CONTINUOUS
10
-0.140057
20
0.660307
11
-0.140148
21
0.660557
0
LINE
8
BLACK
6
CONTINUOUS
10
-0.140148
20
0.660557
11
-0.140352
21
0.660728
0
LINE
8
BLACK
6
CONTINUOUS
10
-0.140352
20
0.660728
11
-0.140486
21
0.661484
0
LINE
8
BLACK
6
CONTINUOUS
10
-0.140486
20
0.661484
11
-0.140748
21
0.662205
0
LINE
8
BLACK
6
CONTINUOUS
10
-0.140748
20
0.662205
11
-0.140748
21
0.937795
0
LINE
8
BLACK
6
CONTINUOUS
10
-0.140748
20
0.937795
11
-0.14068
21
0.938179
0
LINE
8
BLACK
6
CONTINUOUS
10
-0.14068
20
0.938179
11
-0.140703
21
0.938308
0
LINE
8
BLACK
6
CONTINUOUS
10
-0.140703
20
0.938308
11
-0.140638
21
0.938422
0
LINE
8
BLACK
6
CONTINUOUS
10
-0.140638
20
0.938422
11
-0.14057
21
0.938805
0
LINE
8
BLACK
6
CONTINUOUS
10
-0.14057
20
0.938805
11
-0.140077
21
0.939393
0
LINE
8
BLACK
6
CONTINUOUS
10
-0.140077
20
0.939393
11
-0.139693
21
0.940057
0
LINE
8
BLACK
6
CONTINUOUS
10
-0.139693
20
0.940057
11
-0.139443
21
0.940148
0
LINE
8
BLACK
6
CONTINUOUS
10
-0.139443
20
0.940148
11
-0.139272
21
0.940352
0
LINE
8
BLACK
6
CONTINUOUS
10
-0.139272
20
0.940352
11
-0.138516
21
0.940486
0
LINE
8
BLACK
6
CONTINUOUS
10
-0.138516
20
0.940486
11
-0.137795
21
0.940748
0
LINE
8
BLACK
6
CONTINUOUS
10
-0.137795
20
0.940748
11
0.137795
21
0.940748
0
LINE
8
BLACK
6
CONTINUOUS
10
0.137795
20
0.940748
11
0.138179
21
0.94068
0
LINE
8
BLACK
6
CONTINUOUS
10
-0.134843
20
0.717126
11
-0.134843
21
0.665157
0
LINE
8
BLACK
6
CONTINUOUS
10
-0.134843
20
0.665157
11
-0.082874
21
0.665157
0
LINE
8
BLACK
6
CONTINUOUS
10
-0.082874
20
0.665157
11
-0.082874
21
0.676969
0
LINE
8
BLACK
6
CONTINUOUS
10
-0.082874
20
0.676969
11
-0.120079
21
0.676969
0
LINE
8
BLACK
6
CONTINUOUS
10
-0.120079
20
0.676969
11
-0.120462
21
0.677036
0
LINE
8
BLACK
6
CONTINUOUS
10
-0.120462
20
0.677036
11
-0.120591
21
0.677013
0
LINE
8
BLACK
6
CONTINUOUS
10
-0.120591
20
0.677013
11
-0.120705
21
0.677079
0
LINE
8
BLACK
6
CONTINUOUS
10
-0.120705
20
0.677079
11
-0.121089
21
0.677147
0
LINE
8
BLACK
6
CONTINUOUS
10
-0.121089
20
0.677147
11
-0.121676
21
0.67764
0
LINE
8
BLACK
6
CONTINUOUS
10
-0.121676
20
0.67764
11
-0.122341
21
0.678023
0
LINE
8
BLACK
6
CONTINUOUS
10
-0.122341
20
0.678023
11
-0.122432
21
0.678274
0
LINE
8
BLACK
6
CONTINUOUS
10
-0.122432
20
0.678274
11
-0.122636
21
0.678445
0
LINE
8
BLACK
6
CONTINUOUS
10
-0.122636
20
0.678445
11
-0.122769
21
0.6792
0
LINE
8
BLACK
6
CONTINUOUS
10
-0.122769
20
0.6792
11
-0.123031
21
0.679921
0
LINE
8
BLACK
6
CONTINUOUS
10
-0.123031
20
0.679921
11
-0.123031
21
0.717126
0
LINE
8
BLACK
6
CONTINUOUS
10
-0.123031
20
0.717126
11
-0.134843
21
0.717126
0
LINE
8
BLACK
6
CONTINUOUS
10
-0.0769685
20
0.934843
11
-0.0769685
21
0.879921
0
LINE
8
BLACK
6
CONTINUOUS
10
-0.0769685
20
0.879921
11
-0.0770361
21
0.879538
0
LINE
8
BLACK
6
CONTINUOUS
10
-0.0770361
20
0.879538
11
-0.0770133
21
0.879409
0
LINE
8
BLACK
6
CONTINUOUS
10
-0.0770133
20
0.879409
11
-0.077079
21
0.879295
0
LINE
8
BLACK
6
CONTINUOUS
10
-0.077079
20
0.879295
11
-0.0771466
21
0.878911
0
LINE
8
BLACK
6
CONTINUOUS
10
-0.0771466
20
0.878911
11
-0.0776397
21
0.878324
0
LINE
8
BLACK
6
CONTINUOUS
10
-0.0776397
20
0.878324
11
-0.0780233
21
0.877659
0
LINE
8
BLACK
6
CONTINUOUS
10
-0.0780233
20
0.877659
11
-0.0782736
21
0.877568
0
LINE
8
BLACK
6
CONTINUOUS
10
-0.0782736
20
0.877568
11
-0.0784449
21
0.877364
0
LINE
8
BLACK
6
CONTINUOUS
10
-0.0784449
20
0.877364
11
-0.0792005
21
0.877231
0
LINE
8
BLACK
6
CONTINUOUS
10
-0.0792005
20
0.877231
11
-0.0799213
21
0.876969
0
LINE
8
BLACK
6
CONTINUOUS
10
-0.0799213
20
0.876969
11
-0.134843
21
0.876969
0
LINE
8
BLACK
6
CONTINUOUS
10
-0.134843
20
0.876969
11
-0.134843
21
0.723031
0
LINE
8
BLACK
6
CONTINUOUS
10
-0.134843
20
0.723031
11
-0.0799213
21
0.723031
0
LINE
8
BLACK
6
CONTINUOUS
10
-0.0799213
20
0.723031
11
-0.0795378
21
0.722964
0
LINE
8
BLACK
6
CONTINUOUS
10
-0.0795378
20
0.722964
11
-0.0794085
21
0.722987
0
LINE
8
BLACK
6
CONTINUOUS
10
-0.0794085
20
0.722987
11
-0.0792949
21
0.722921
0
LINE
8
BLACK
6
CONTINUOUS
10
-0.0792949
20
0.722921
11
-0.0789113
21
0.722853
0
LINE
8
BLACK
6
CONTINUOUS
10
-0.0789113
20
0.722853
11
-0.0783237
21
0.72236
0
LINE
8
BLACK
6
CONTINUOUS
10
-0.0783237
20
0.72236
11
-0.0776593
21
0.721977
0
LINE
8
BLACK
6
CONTINUOUS
10
-0.0776593
20
0.721977
11
-0.0775682
21
0.721726
0
LINE
8
BLACK
6
CONTINUOUS
10
-0.0775682
20
0.721726
11
-0.0773641
21
0.721555
0
LINE
8
BLACK
6
CONTINUOUS
10
-0.0773641
20
0.721555
11
-0.0772309
21
0.7208
0
LINE
8
BLACK
6
CONTINUOUS
10
-0.0772309
20
0.7208
11
-0.0769685
21
0.720079
0
LINE
8
BLACK
6
CONTINUOUS
10
-0.0769685
20
0.720079
11
-0.0769685
21
0.665157
0
LINE
8
BLACK
6
CONTINUOUS
10
-0.0769685
20
0.665157
11
0.0769685
21
0.665157
0
LINE
8
BLACK
6
CONTINUOUS
10
0.0769685
20
0.665157
11
0.0769685
21
0.720079
0
LINE
8
BLACK
6
CONTINUOUS
10
0.0769685
20
0.720079
11
0.0770361
21
0.720462
0
LINE
8
BLACK
6
CONTINUOUS
10
0.0770361
20
0.720462
11
0.0770133
21
0.720591
0
LINE
8
BLACK
6
CONTINUOUS
10
0.0770133
20
0.720591
11
0.0770789
21
0.720705
0
LINE
8
BLACK
6
CONTINUOUS
10
0.0770789
20
0.720705
11
0.0771466
21
0.721089
0
LINE
8
BLACK
6
CONTINUOUS
10
0.0771466
20
0.721089
11
0.0776397
21
0.721676
0
LINE
8
BLACK
6
CONTINUOUS
10
0.0776397
20
0.721676
11
0.0780233
21
0.722341
0
LINE
8
BLACK
6
CONTINUOUS
10
0.0780233
20
0.722341
11
0.0782736
21
0.722432
0
LINE
8
BLACK
6
CONTINUOUS
10
0.0782736
20
0.722432
11
0.0784449
21
0.722636
0
LINE
8
BLACK
6
CONTINUOUS
10
0.0784449
20
0.722636
11
0.0792004
21
0.722769
0
LINE
8
BLACK
6
CONTINUOUS
10
0.0792004
20
0.722769
11
0.0799213
21
0.723031
0
LINE
8
BLACK
6
CONTINUOUS
10
0.0799213
20
0.723031
11
0.134843
21
0.723031
0
LINE
8
BLACK
6
CONTINUOUS
10
0.134843
20
0.723031
11
0.134843
21
0.876969
0
LINE
8
BLACK
6
CONTINUOUS
10
0.134843
20
0.876969
11
0.0799213
21
0.876969
0
LINE
8
BLACK
6
CONTINUOUS
10
0.0799213
20
0.876969
11
0.0795377
21
0.877036
0
LINE
8
BLACK
6
CONTINUOUS
10
0.0795377
20
0.877036
11
0.0794085
21
0.877013
0
LINE
8
BLACK
6
CONTINUOUS
10
0.0794085
20
0.877013
11
0.0792949
21
0.877079
0
LINE
8
BLACK
6
CONTINUOUS
10
0.0792949
20
0.877079
11
0.0789113
21
0.877147
0
LINE
8
BLACK
6
CONTINUOUS
10
0.0789113
20
0.877147
11
0.0783236
21
0.87764
0
LINE
8
BLACK
6
CONTINUOUS
10
0.0783236
20
0.87764
11
0.0776593
21
0.878023
0
LINE
8
BLACK
6
CONTINUOUS
10
0.0776593
20
0.878023
11
0.0775682
21
0.878274
0
LINE
8
BLACK
6
CONTINUOUS
10
0.0775682
20
0.878274
11
0.0773641
21
0.878445
0
LINE
8
BLACK
6
CONTINUOUS
10
0.0773641
20
0.878445
11
0.0772308
21
0.8792
0
LINE
8
BLACK
6
CONTINUOUS
10
0.0772308
20
0.8792
11
0.0769685
21
0.879921
0
LINE
8
BLACK
6
CONTINUOUS
10
0.0769685
20
0.879921
11
0.0769685
21
0.934843
0
LINE
8
BLACK
6
CONTINUOUS
10
0.0769685
20
0.934843
11
-0.0769685
21
0.934843
0
LINE
8
BLACK
6
CONTINUOUS
10
0.123031
20
0.717126
11
0.123031
21
0.679921
0
LINE
8
BLACK
6
CONTINUOUS
10
0.123031
20
0.679921
11
0.122964
21
0.679538
0
LINE
8
BLACK
6
CONTINUOUS
10
0.122964
20
0.679538
11
0.122987
21
0.679409
0
LINE
8
BLACK
6
CONTINUOUS
10
0.122987
20
0.679409
11
0.122921
21
0.679295
0
LINE
8
BLACK
6
CONTINUOUS
10
0.122921
20
0.679295
11
0.122853
21
0.678911
0
LINE
8
BLACK
6
CONTINUOUS
10
0.122853
20
0.678911
11
0.12236
21
0.678324
0
LINE
8
BLACK
6
CONTINUOUS
10
0.12236
20
0.678324
11
0.121977
21
0.677659
0
LINE
8
BLACK
6
CONTINUOUS
10
0.121977
20
0.677659
11
0.121726
21
0.677568
0
LINE
8
BLACK
6
CONTINUOUS
10
0.121726
20
0.677568
11
0.121555
21
0.677364
0
LINE
8
BLACK
6
CONTINUOUS
10
0.121555
20
0.677364
11
0.1208
21
0.677231
0
LINE
8
BLACK
6
CONTINUOUS
10
0.1208
20
0.677231
11
0.120079
21
0.676969
0
LINE
8
BLACK
6
CONTINUOUS
10
0.120079
20
0.676969
11
0.082874
21
0.676969
0
LINE
8
BLACK
6
CONTINUOUS
10
0.082874
20
0.676969
11
0.082874
21
0.665157
0
LINE
8
BLACK
6
CONTINUOUS
10
0.082874
20
0.665157
11
0.134843
21
0.665157
0
LINE
8
BLACK
6
CONTINUOUS
10
0.134843
20
0.665157
11
0.134843
21
0.717126
0
LINE
8
BLACK
6
CONTINUOUS
10
0.134843
20
0.717126
11
0.123031
21
0.717126
0
LINE
8
BLACK
6
CONTINUOUS
10
0.082874
20
0.717126
11
0.082874
21
0.682874
0
LINE
8
BLACK
6
CONTINUOUS
10
0.082874
20
0.682874
11
0.117126
21
0.682874
0
LINE
8
BLACK
6
CONTINUOUS
10
0.117126
20
0.682874
11
0.117126
21
0.717126
0
LINE
8
BLACK
6
CONTINUOUS
10
0.117126
20
0.717126
11
0.082874
21
0.717126
0
LINE
8
BLACK
6
CONTINUOUS
10
-0.117126
20
0.717126
11
-0.117126
21
0.682874
0
LINE
8
BLACK
6
CONTINUOUS
10
-0.117126
20
0.682874
11
-0.082874
21
0.682874
0
LINE
8
BLACK
6
CONTINUOUS
10
-0.082874
20
0.682874
11
-0.082874
21
0.717126
0
LINE
8
BLACK
6
CONTINUOUS
10
-0.082874
20
0.717126
11
-0.117126
21
0.717126
0
LINE
8
BLACK
6
CONTINUOUS
10
0.082874
20
0.917126
11
0.082874
21
0.882874
0
LINE
8
BLACK
6
CONTINUOUS
10
0.082874
20
0.882874
11
0.117126
21
0.882874
0
LINE
8
BLACK
6
CONTINUOUS
10
0.117126
20
0.882874
11
0.117126
21
0.917126
0
LINE
8
BLACK
6
CONTINUOUS
10
0.117126
20
0.917126
11
0.082874
21
0.917126
0
LINE
8
BLACK
6
CONTINUOUS
10
0.082874
20
0.934843
11
0.082874
21
0.923031
0
LINE
8
BLACK
6
CONTINUOUS
10
0.082874
20
0.923031
11
0.120079
21
0.923031
0
LINE
8
BLACK
6
CONTINUOUS
10
0.120079
20
0.923031
11
0.120462
21
0.922964
0
LINE
8
BLACK
6
CONTINUOUS
10
0.120462
20
0.922964
11
0.120591
21
0.922987
0
LINE
8
BLACK
6
CONTINUOUS
10
0.120591
20
0.922987
11
0.120705
21
0.922921
0
LINE
8
BLACK
6
CONTINUOUS
10
0.120705
20
0.922921
11
0.121089
21
0.922853
0
LINE
8
BLACK
6
CONTINUOUS
10
0.121089
20
0.922853
11
0.121676
21
0.92236
0
LINE
8
BLACK
6
CONTINUOUS
10
0.121676
20
0.92236
11
0.122341
21
0.921977
0
LINE
8
BLACK
6
CONTINUOUS
10
0.122341
20
0.921977
11
0.122432
21
0.921726
0
LINE
8
BLACK
6
CONTINUOUS
10
0.122432
20
0.921726
11
0.122636
21
0.921555
0
LINE
8
BLACK
6
CONTINUOUS
10
0.122636
20
0.921555
11
0.122769
21
0.9208
0
LINE
8
BLACK
6
CONTINUOUS
10
0.122769
20
0.9208
11
0.123031
21
0.920079
0
LINE
8
BLACK
6
CONTINUOUS
10
0.123031
20
0.920079
11
0.123031
21
0.882874
0
LINE
8
BLACK
6
CONTINUOUS
10
0.123031
20
0.882874
11
0.134843
21
0.882874
0
LINE
8
BLACK
6
CONTINUOUS
10
0.134843
20
0.882874
11
0.134843
21
0.934843
0
LINE
8
BLACK
6
CONTINUOUS
10
0.134843
20
0.934843
11
0.082874
21
0.934843
0
LINE
8
BLACK
6
CONTINUOUS
10
-0.134843
20
0.934843
11
-0.134843
21
0.882874
0
LINE
8
BLACK
6
CONTINUOUS
10
-0.134843
20
0.882874
11
-0.123031
21
0.882874
0
LINE
8
BLACK
6
CONTINUOUS
10
-0.123031
20
0.882874
11
-0.123031
21
0.920079
0
LINE
8
BLACK
6
CONTINUOUS
10
-0.123031
20
0.920079
11
-0.122964
21
0.920462
0
LINE
8
BLACK
6
CONTINUOUS
10
-0.122964
20
0.920462
11
-0.122987
21
0.920591
0
LINE
8
BLACK
6
CONTINUOUS
10
-0.122987
20
0.920591
11
-0.122921
21
0.920705
0
LINE
8
BLACK
6
CONTINUOUS
10
-0.122921
20
0.920705
11
-0.122853
21
0.921089
0
LINE
8
BLACK
6
CONTINUOUS
10
-0.122853
20
0.921089
11
-0.12236
21
0.921676
0
LINE
8
BLACK
6
CONTINUOUS
10
-0.12236
20
0.921676
11
-0.121977
21
0.922341
0
LINE
8
BLACK
6
CONTINUOUS
10
-0.121977
20
0.922341
11
-0.121726
21
0.922432
0
LINE
8
BLACK
6
CONTINUOUS
10
-0.121726
20
0.922432
11
-0.121555
21
0.922636
0
LINE
8
BLACK
6
CONTINUOUS
10
-0.121555
20
0.922636
11
-0.1208
21
0.922769
0
LINE
8
BLACK
6
CONTINUOUS
10
-0.1208
20
0.922769
11
-0.120079
21
0.923031
0
LINE
8
BLACK
6
CONTINUOUS
10
-0.120079
20
0.923031
11
-0.082874
21
0.923031
0
LINE
8
BLACK
6
CONTINUOUS
10
-0.082874
20
0.923031
11
-0.082874
21
0.934843
0
LINE
8
BLACK
6
CONTINUOUS
10
-0.082874
20
0.934843
11
-0.134843
21
0.934843
0
LINE
8
BLACK
6
CONTINUOUS
10
-0.117126
20
0.917126
11
-0.117126
21
0.882874
0
LINE
8
BLACK
6
CONTINUOUS
10
-0.117126
20
0.882874
11
-0.082874
21
0.882874
0
LINE
8
BLACK
6
CONTINUOUS
10
-0.082874
20
0.882874
11
-0.082874
21
0.917126
0
LINE
8
BLACK
6
CONTINUOUS
10
-0.082874
20
0.917126
11
-0.117126
21
0.917126
0
LINE
8
BLACK
6
CONTINUOUS
10
0.385595
20
1.22907
11
0.386286
21
1.22718
0
LINE
8
BLACK
6
CONTINUOUS
10
0.386286
20
1.22718
11
0.386286
21
1.19146
0
LINE
8
BLACK
6
CONTINUOUS
10
0.386286
20
1.19146
11
0.386133
21
1.19059
0
LINE
8
BLACK
6
CONTINUOUS
10
0.386133
20
1.19059
11
0.386135
21
1.19053
0
LINE
8
BLACK
6
CONTINUOUS
10
0.386135
20
1.19053
11
0.383754
21
1.18339
0
LINE
8
BLACK
6
CONTINUOUS
10
0.383754
20
1.18339
11
0.383265
21
1.18248
0
LINE
8
BLACK
6
CONTINUOUS
10
0.383265
20
1.18248
11
0.383115
21
1.18239
0
LINE
8
BLACK
6
CONTINUOUS
10
0.383115
20
1.18239
11
0.38304
21
1.18223
0
LINE
8
BLACK
6
CONTINUOUS
10
0.38304
20
1.18223
11
0.378278
21
1.17747
0
LINE
8
BLACK
6
CONTINUOUS
10
0.378278
20
1.17747
11
0.377438
21
1.17688
0
LINE
8
BLACK
6
CONTINUOUS
10
0.377438
20
1.17688
11
0.377262
21
1.17687
0
LINE
8
BLACK
6
CONTINUOUS
10
0.377262
20
1.17687
11
0.377124
21
1.17676
0
LINE
8
BLACK
6
CONTINUOUS
10
0.377124
20
1.17676
11
0.369981
21
1.17437
0
LINE
8
BLACK
6
CONTINUOUS
10
0.369981
20
1.17437
11
0.369108
21
1.17425
0
LINE
8
BLACK
6
CONTINUOUS
10
0.369108
20
1.17425
11
0.369048
21
1.17422
0
LINE
8
BLACK
6
CONTINUOUS
10
0.369048
20
1.17422
11
0.364286
21
1.17422
0
LINE
8
BLACK
6
CONTINUOUS
10
0.364286
20
1.17422
11
0.363276
21
1.1744
0
LINE
8
BLACK
6
CONTINUOUS
10
0.363276
20
1.1744
11
0.361729
21
1.1757
0
LINE
8
BLACK
6
CONTINUOUS
10
0.361729
20
1.1757
11
0.361378
21
1.17769
0
LINE
8
BLACK
6
CONTINUOUS
10
0.361378
20
1.17769
11
0.362388
21
1.17944
0
LINE
8
BLACK
6
CONTINUOUS
10
0.362388
20
1.17944
11
0.364286
21
1.18013
0
LINE
8
BLACK
6
CONTINUOUS
10
0.364286
20
1.18013
11
0.368568
21
1.18013
0
LINE
8
BLACK
6
CONTINUOUS
10
0.368568
20
1.18013
11
0.374595
21
1.18214
0
LINE
8
BLACK
6
CONTINUOUS
10
0.374595
20
1.18214
11
0.378372
21
1.18591
0
LINE
8
BLACK
6
CONTINUOUS
10
0.378372
20
1.18591
11
0.380381
21
1.19194
0
LINE
8
BLACK
6
CONTINUOUS
10
0.380381
20
1.19194
11
0.380381
21
1.22718
0
LINE
8
BLACK
6
CONTINUOUS
10
0.380381
20
1.22718
11
0.380559
21
1.22819
0
LINE
8
BLACK
6
CONTINUOUS
10
0.380559
20
1.22819
11
0.381857
21
1.22973
0
LINE
8
BLACK
6
CONTINUOUS
10
0.381857
20
1.22973
11
0.383846
21
1.23008
0
LINE
8
BLACK
6
CONTINUOUS
10
0.383846
20
1.23008
11
0.385595
21
1.22907
0
LINE
8
BLACK
6
CONTINUOUS
10
0.431962
20
1.22995
11
0.43351
21
1.22865
0
LINE
8
BLACK
6
CONTINUOUS
10
0.43351
20
1.22865
11
0.43386
21
1.22666
0
LINE
8
BLACK
6
CONTINUOUS
10
0.43386
20
1.22666
11
0.43285
21
1.22491
0
LINE
8
BLACK
6
CONTINUOUS
10
0.43285
20
1.22491
11
0.430952
21
1.22422
0
LINE
8
BLACK
6
CONTINUOUS
10
0.430952
20
1.22422
11
0.409815
21
1.22422
0
LINE
8
BLACK
6
CONTINUOUS
10
0.409815
20
1.22422
11
0.408358
21
1.20966
0
LINE
8
BLACK
6
CONTINUOUS
10
0.408358
20
1.20966
11
0.410584
21
1.21077
0
LINE
8
BLACK
6
CONTINUOUS
10
0.410584
20
1.21077
11
0.411567
21
1.21106
0
LINE
8
BLACK
6
CONTINUOUS
10
0.411567
20
1.21106
11
0.411739
21
1.21102
0
LINE
8
BLACK
6
CONTINUOUS
10
0.411739
20
1.21102
11
0.411905
21
1.21108
0
LINE
8
BLACK
6
CONTINUOUS
10
0.411905
20
1.21108
11
0.42381
21
1.21108
0
LINE
8
BLACK
6
CONTINUOUS
10
0.42381
20
1.21108
11
0.424819
21
1.2109
0
LINE
8
BLACK
6
CONTINUOUS
10
0.424819
20
1.2109
11
0.424955
21
1.21079
0
LINE
8
BLACK
6
CONTINUOUS
10
0.424955
20
1.21079
11
0.42513
21
1.21077
0
LINE
8
BLACK
6
CONTINUOUS
10
0.42513
20
1.21077
11
0.429892
21
1.20839
0
LINE
8
BLACK
6
CONTINUOUS
10
0.429892
20
1.20839
11
0.430601
21
1.20786
0
LINE
8
BLACK
6
CONTINUOUS
10
0.430601
20
1.20786
11
0.430659
21
1.20784
0
LINE
8
BLACK
6
CONTINUOUS
10
0.430659
20
1.20784
11
0.43304
21
1.20545
0
LINE
8
BLACK
6
CONTINUOUS
10
0.43304
20
1.20545
11
0.433547
21
1.20473
0
LINE
8
BLACK
6
CONTINUOUS
10
0.433547
20
1.20473
11
0.433593
21
1.20469
0
LINE
8
BLACK
6
CONTINUOUS
10
0.433593
20
1.20469
11
0.435974
21
1.19993
0
LINE
8
BLACK
6
CONTINUOUS
10
0.435974
20
1.19993
11
0.436267
21
1.19894
0
LINE
8
BLACK
6
CONTINUOUS
10
0.436267
20
1.19894
11
0.436226
21
1.19877
0
LINE
8
BLACK
6
CONTINUOUS
10
0.436226
20
1.19877
11
0.436286
21
1.1986
0
LINE
8
BLACK
6
CONTINUOUS
10
0.436286
20
1.1986
11
0.436286
21
1.1867
0
LINE
8
BLACK
6
CONTINUOUS
10
0.436286
20
1.1867
11
0.436108
21
1.18569
0
LINE
8
BLACK
6
CONTINUOUS
10
0.436108
20
1.18569
11
0.435995
21
1.18555
0
LINE
8
BLACK
6
CONTINUOUS
10
0.435995
20
1.18555
11
0.435974
21
1.18538
0
LINE
8
BLACK
6
CONTINUOUS
10
0.435974
20
1.18538
11
0.433593
21
1.18062
0
LINE
8
BLACK
6
CONTINUOUS
10
0.433593
20
1.18062
11
0.433068
21
1.17991
0
LINE
8
BLACK
6
CONTINUOUS
10
0.433068
20
1.17991
11
0.43304
21
1.17985
0
LINE
8
BLACK
6
CONTINUOUS
10
0.43304
20
1.17985
11
0.430659
21
1.17747
0
LINE
8
BLACK
6
CONTINUOUS
10
0.430659
20
1.17747
11
0.429936
21
1.17696
0
LINE
8
BLACK
6
CONTINUOUS
10
0.429936
20
1.17696
11
0.429892
21
1.17692
0
LINE
8
BLACK
6
CONTINUOUS
10
0.429892
20
1.17692
11
0.42513
21
1.17454
0
LINE
8
BLACK
6
CONTINUOUS
10
0.42513
20
1.17454
11
0.424147
21
1.17424
0
LINE
8
BLACK
6
CONTINUOUS
10
0.424147
20
1.17424
11
0.423975
21
1.17428
0
LINE
8
BLACK
6
CONTINUOUS
10
0.423975
20
1.17428
11
0.42381
21
1.17422
0
LINE
8
BLACK
6
CONTINUOUS
10
0.42381
20
1.17422
11
0.411905
21
1.17422
0
LINE
8
BLACK
6
CONTINUOUS
10
0.411905
20
1.17422
11
0.410895
21
1.1744
0
LINE
8
BLACK
6
CONTINUOUS
10
0.410895
20
1.1744
11
0.41076
21
1.17451
0
LINE
8
BLACK
6
CONTINUOUS
10
0.41076
20
1.17451
11
0.410584
21
1.17454
0
LINE
8
BLACK
6
CONTINUOUS
10
0.410584
20
1.17454
11
0.405822
21
1.17692
0
LINE
8
BLACK
6
CONTINUOUS
10
0.405822
20
1.17692
11
0.405113
21
1.17744
0
LINE
8
BLACK
6
CONTINUOUS
10
0.405113
20
1.17744
11
0.405055
21
1.17747
0
LINE
8
BLACK
6
CONTINUOUS
10
0.405055
20
1.17747
11
0.402674
21
1.17985
0
LINE
8
BLACK
6
CONTINUOUS
10
0.402674
20
1.17985
11
0.402086
21
1.18069
0
LINE
8
BLACK
6
CONTINUOUS
10
0.402086
20
1.18069
11
0.40191
21
1.1827
0
LINE
8
BLACK
6
CONTINUOUS
10
0.40191
20
1.1827
11
0.403068
21
1.18436
0
LINE
8
BLACK
6
CONTINUOUS
10
0.403068
20
1.18436
11
0.405019
21
1.18488
0
LINE
8
BLACK
6
CONTINUOUS
10
0.405019
20
1.18488
11
0.40685
21
1.18403
0
LINE
8
BLACK
6
CONTINUOUS
10
0.40685
20
1.18403
11
0.408892
21
1.18198
0
LINE
8
BLACK
6
CONTINUOUS
10
0.408892
20
1.18198
11
0.412602
21
1.18013
0
LINE
8
BLACK
6
CONTINUOUS
10
0.412602
20
1.18013
11
0.423112
21
1.18013
0
LINE
8
BLACK
6
CONTINUOUS
10
0.423112
20
1.18013
11
0.426822
21
1.18198
0
LINE
8
BLACK
6
CONTINUOUS
10
0.426822
20
1.18198
11
0.428526
21
1.18369
0
LINE
8
BLACK
6
CONTINUOUS
10
0.428526
20
1.18369
11
0.430381
21
1.1874
0
LINE
8
BLACK
6
CONTINUOUS
10
0.430381
20
1.1874
11
0.430381
21
1.19791
0
LINE
8
BLACK
6
CONTINUOUS
10
0.430381
20
1.19791
11
0.428526
21
1.20162
0
LINE
8
BLACK
6
CONTINUOUS
10
0.428526
20
1.20162
11
0.426822
21
1.20332
0
LINE
8
BLACK
6
CONTINUOUS
10
0.426822
20
1.20332
11
0.423112
21
1.20518
0
LINE
8
BLACK
6
CONTINUOUS
10
0.423112
20
1.20518
11
0.412602
21
1.20518
0
LINE
8
BLACK
6
CONTINUOUS
10
0.412602
20
1.20518
11
0.408892
21
1.20332
0
LINE
8
BLACK
6
CONTINUOUS
10
0.408892
20
1.20332
11
0.40685
21
1.20128
0
LINE
8
BLACK
6
CONTINUOUS
10
0.40685
20
1.20128
11
0.40601
21
1.20069
0
LINE
8
BLACK
6
CONTINUOUS
10
0.40601
20
1.20069
11
0.40599
21
1.20069
0
LINE
8
BLACK
6
CONTINUOUS
10
0.40599
20
1.20069
11
0.405976
21
1.20068
0
LINE
8
BLACK
6
CONTINUOUS
10
0.405976
20
1.20068
11
0.404986
21
1.2006
0
LINE
8
BLACK
6
CONTINUOUS
10
0.404986
20
1.2006
11
0.403998
21
1.20051
0
LINE
8
BLACK
6
CONTINUOUS
10
0.403998
20
1.20051
11
0.403982
21
1.20053
0
LINE
8
BLACK
6
CONTINUOUS
10
0.403982
20
1.20053
11
0.403962
21
1.20052
0
LINE
8
BLACK
6
CONTINUOUS
10
0.403962
20
1.20052
11
0.403157
21
1.2011
0
LINE
8
BLACK
6
CONTINUOUS
10
0.403157
20
1.2011
11
0.402343
21
1.20167
0
LINE
8
BLACK
6
CONTINUOUS
10
0.402343
20
1.20167
11
0.402338
21
1.20169
0
LINE
8
BLACK
6
CONTINUOUS
10
0.402338
20
1.20169
11
0.402322
21
1.2017
0
LINE
8
BLACK
6
CONTINUOUS
10
0.402322
20
1.2017
11
0.402077
21
1.20266
0
LINE
8
BLACK
6
CONTINUOUS
10
0.402077
20
1.20266
11
0.40182
21
1.20362
0
LINE
8
BLACK
6
CONTINUOUS
10
0.40182
20
1.20362
11
0.401829
21
1.20364
0
LINE
8
BLACK
6
CONTINUOUS
10
0.401829
20
1.20364
11
0.401824
21
1.20366
0
LINE
8
BLACK
6
CONTINUOUS
10
0.401824
20
1.20366
11
0.404205
21
1.22747
0
LINE
8
BLACK
6
CONTINUOUS
10
0.404205
20
1.22747
11
0.404247
21
1.22762
0
LINE
8
BLACK
6
CONTINUOUS
10
0.404247
20
1.22762
11
0.404235
21
1.22769
0
LINE
8
BLACK
6
CONTINUOUS
10
0.404235
20
1.22769
11
0.404296
21
1.22779
0
LINE
8
BLACK
6
CONTINUOUS
10
0.404296
20
1.22779
11
0.404482
21
1.22846
0
LINE
8
BLACK
6
CONTINUOUS
10
0.404482
20
1.22846
11
0.404931
21
1.2289
0
LINE
8
BLACK
6
CONTINUOUS
10
0.404931
20
1.2289
11
0.405245
21
1.22944
0
LINE
8
BLACK
6
CONTINUOUS
10
0.405245
20
1.22944
11
0.405633
21
1.22958
0
LINE
8
BLACK
6
CONTINUOUS
10
0.405633
20
1.22958
11
0.405928
21
1.22987
0
LINE
8
BLACK
6
CONTINUOUS
10
0.405928
20
1.22987
11
0.406554
21
1.22991
0
LINE
8
BLACK
6
CONTINUOUS
10
0.406554
20
1.22991
11
0.407143
21
1.23013
0
LINE
8
BLACK
6
CONTINUOUS
10
0.407143
20
1.23013
11
0.430952
21
1.23013
0
LINE
8
BLACK
6
CONTINUOUS
10
0.430952
20
1.23013
11
0.431962
21
1.22995
0
LINE
8
BLACK
6
CONTINUOUS
10
0.4115
20
1.28735
11
0.422803
21
1.2851
0
LINE
8
BLACK
6
CONTINUOUS
10
0.422803
20
1.2851
11
0.433715
21
1.2814
0
LINE
8
BLACK
6
CONTINUOUS
10
0.433715
20
1.2814
11
0.444051
21
1.2763
0
LINE
8
BLACK
6
CONTINUOUS
10
0.444051
20
1.2763
11
0.453633
21
1.2699
0
LINE
8
BLACK
6
CONTINUOUS
10
0.453633
20
1.2699
11
0.462298
21
1.2623
0
LINE
8
BLACK
6
CONTINUOUS
10
0.462298
20
1.2623
11
0.469896
21
1.25363
0
LINE
8
BLACK
6
CONTINUOUS
10
0.469896
20
1.25363
11
0.476299
21
1.24405
0
LINE
8
BLACK
6
CONTINUOUS
10
0.476299
20
1.24405
11
0.481396
21
1.23372
0
LINE
8
BLACK
6
CONTINUOUS
10
0.481396
20
1.23372
11
0.4851
21
1.2228
0
LINE
8
BLACK
6
CONTINUOUS
10
0.4851
20
1.2228
11
0.487349
21
1.2115
0
LINE
8
BLACK
6
CONTINUOUS
10
0.487349
20
1.2115
11
0.488102
21
1.2
0
LINE
8
BLACK
6
CONTINUOUS
10
0.488102
20
1.2
11
0.487349
21
1.1885
0
LINE
8
BLACK
6
CONTINUOUS
10
0.487349
20
1.1885
11
0.4851
21
1.1772
0
LINE
8
BLACK
6
CONTINUOUS
10
0.4851
20
1.1772
11
0.481396
21
1.16628
0
LINE
8
BLACK
6
CONTINUOUS
10
0.481396
20
1.16628
11
0.476299
21
1.15595
0
LINE
8
BLACK
6
CONTINUOUS
10
0.476299
20
1.15595
11
0.469896
21
1.14637
0
LINE
8
BLACK
6
CONTINUOUS
10
0.469896
20
1.14637
11
0.462298
21
1.1377
0
LINE
8
BLACK
6
CONTINUOUS
10
0.462298
20
1.1377
11
0.453633
21
1.1301
0
LINE
8
BLACK
6
CONTINUOUS
10
0.453633
20
1.1301
11
0.444051
21
1.1237
0
LINE
8
BLACK
6
CONTINUOUS
10
0.444051
20
1.1237
11
0.433715
21
1.1186
0
LINE
8
BLACK
6
CONTINUOUS
10
0.433715
20
1.1186
11
0.422803
21
1.1149
0
LINE
8
BLACK
6
CONTINUOUS
10
0.422803
20
1.1149
11
0.4115
21
1.11265
0
LINE
8
BLACK
6
CONTINUOUS
10
0.4115
20
1.11265
11
0.4
21
1.1119
0
LINE
8
BLACK
6
CONTINUOUS
10
0.4
20
1.1119
11
0.3885
21
1.11265
0
LINE
8
BLACK
6
CONTINUOUS
10
0.3885
20
1.11265
11
0.377197
21
1.1149
0
LINE
8
BLACK
6
CONTINUOUS
10
0.377197
20
1.1149
11
0.366285
21
1.1186
0
LINE
8
BLACK
6
CONTINUOUS
10
0.366285
20
1.1186
11
0.355949
21
1.1237
0
LINE
8
BLACK
6
CONTINUOUS
10
0.355949
20
1.1237
11
0.346367
21
1.1301
0
LINE
8
BLACK
6
CONTINUOUS
10
0.346367
20
1.1301
11
0.337702
21
1.1377
0
LINE
8
BLACK
6
CONTINUOUS
10
0.337702
20
1.1377
11
0.330104
21
1.14637
0
LINE
8
BLACK
6
CONTINUOUS
10
0.330104
20
1.14637
11
0.323701
21
1.15595
0
LINE
8
BLACK
6
CONTINUOUS
10
0.323701
20
1.15595
11
0.318604
21
1.16628
0
LINE
8
BLACK
6
CONTINUOUS
10
0.318604
20
1.16628
11
0.3149
21
1.1772
0
LINE
8
BLACK
6
CONTINUOUS
10
0.3149
20
1.1772
11
0.312651
21
1.1885
0
LINE
8
BLACK
6
CONTINUOUS
10
0.312651
20
1.1885
11
0.311898
21
1.2
0
LINE
8
BLACK
6
CONTINUOUS
10
0.311898
20
1.2
11
0.312651
21
1.2115
0
LINE
8
BLACK
6
CONTINUOUS
10
0.312651
20
1.2115
11
0.3149
21
1.2228
0
LINE
8
BLACK
6
CONTINUOUS
10
0.3149
20
1.2228
11
0.318604
21
1.23372
0
LINE
8
BLACK
6
CONTINUOUS
10
0.318604
20
1.23372
11
0.323701
21
1.24405
0
LINE
8
BLACK
6
CONTINUOUS
10
0.323701
20
1.24405
11
0.330104
21
1.25363
0
LINE
8
BLACK
6
CONTINUOUS
10
0.330104
20
1.25363
11
0.337702
21
1.2623
0
LINE
8
BLACK
6
CONTINUOUS
10
0.337702
20
1.2623
11
0.346367
21
1.2699
0
LINE
8
BLACK
6
CONTINUOUS
10
0.346367
20
1.2699
11
0.355949
21
1.2763
0
LINE
8
BLACK
6
CONTINUOUS
10
0.355949
20
1.2763
11
0.366285
21
1.2814
0
LINE
8
BLACK
6
CONTINUOUS
10
0.366285
20
1.2814
11
0.377197
21
1.2851
0
LINE
8
BLACK
6
CONTINUOUS
10
0.377197
20
1.2851
11
0.3885
21
1.28735
0
LINE
8
BLACK
6
CONTINUOUS
10
0.3885
20
1.28735
11
0.4
21
1.2881
0
LINE
8
BLACK
6
CONTINUOUS
10
0.4
20
1.2881
11
0.4115
21
1.28735
0
LINE
8
BLACK
6
CONTINUOUS
10
0.318378
20
1.18878
11
0.320666
21
1.17777
0
LINE
8
BLACK
6
CONTINUOUS
10
0.320666
20
1.17777
11
0.324432
21
1.16718
0
LINE
8
BLACK
6
CONTINUOUS
10
0.324432
20
1.16718
11
0.329605
21
1.15719
0
LINE
8
BLACK
6
CONTINUOUS
10
0.329605
20
1.15719
11
0.33609
21
1.14801
0
LINE
8
BLACK
6
CONTINUOUS
10
0.33609
20
1.14801
11
0.343765
21
1.13979
0
LINE
8
BLACK
6
CONTINUOUS
10
0.343765
20
1.13979
11
0.352488
21
1.13269
0
LINE
8
BLACK
6
CONTINUOUS
10
0.352488
20
1.13269
11
0.362096
21
1.12685
0
LINE
8
BLACK
6
CONTINUOUS
10
0.362096
20
1.12685
11
0.37241
21
1.12237
0
LINE
8
BLACK
6
CONTINUOUS
10
0.37241
20
1.12237
11
0.383237
21
1.11933
0
LINE
8
BLACK
6
CONTINUOUS
10
0.383237
20
1.11933
11
0.394378
21
1.1178
0
LINE
8
BLACK
6
CONTINUOUS
10
0.394378
20
1.1178
11
0.405622
21
1.1178
0
LINE
8
BLACK
6
CONTINUOUS
10
0.405622
20
1.1178
11
0.416763
21
1.11933
0
LINE
8
BLACK
6
CONTINUOUS
10
0.416763
20
1.11933
11
0.42759
21
1.12237
0
LINE
8
BLACK
6
CONTINUOUS
10
0.42759
20
1.12237
11
0.437904
21
1.12685
0
LINE
8
BLACK
6
CONTINUOUS
10
0.437904
20
1.12685
11
0.447512
21
1.13269
0
LINE
8
BLACK
6
CONTINUOUS
10
0.447512
20
1.13269
11
0.456235
21
1.13979
0
LINE
8
BLACK
6
CONTINUOUS
10
0.456235
20
1.13979
11
0.46391
21
1.14801
0
LINE
8
BLACK
6
CONTINUOUS
10
0.46391
20
1.14801
11
0.470395
21
1.15719
0
LINE
8
BLACK
6
CONTINUOUS
10
0.470395
20
1.15719
11
0.475568
21
1.16718
0
LINE
8
BLACK
6
CONTINUOUS
10
0.475568
20
1.16718
11
0.479334
21
1.17777
0
LINE
8
BLACK
6
CONTINUOUS
10
0.479334
20
1.17777
11
0.481622
21
1.18878
0
LINE
8
BLACK
6
CONTINUOUS
10
0.481622
20
1.18878
11
0.482389
21
1.2
0
LINE
8
BLACK
6
CONTINUOUS
10
0.482389
20
1.2
11
0.481622
21
1.21122
0
LINE
8
BLACK
6
CONTINUOUS
10
0.481622
20
1.21122
11
0.479334
21
1.22223
0
LINE
8
BLACK
6
CONTINUOUS
10
0.479334
20
1.22223
11
0.475568
21
1.23282
0
LINE
8
BLACK
6
CONTINUOUS
10
0.475568
20
1.23282
11
0.470395
21
1.24281
0
LINE
8
BLACK
6
CONTINUOUS
10
0.470395
20
1.24281
11
0.46391
21
1.25199
0
LINE
8
BLACK
6
CONTINUOUS
10
0.46391
20
1.25199
11
0.456235
21
1.26021
0
LINE
8
BLACK
6
CONTINUOUS
10
0.456235
20
1.26021
11
0.447512
21
1.26731
0
LINE
8
BLACK
6
CONTINUOUS
10
0.447512
20
1.26731
11
0.437904
21
1.27315
0
LINE
8
BLACK
6
CONTINUOUS
10
0.437904
20
1.27315
11
0.42759
21
1.27763
0
LINE
8
BLACK
6
CONTINUOUS
10
0.42759
20
1.27763
11
0.416763
21
1.28067
0
LINE
8
BLACK
6
CONTINUOUS
10
0.416763
20
1.28067
11
0.405622
21
1.2822
0
LINE
8
BLACK
6
CONTINUOUS
10
0.405622
20
1.2822
11
0.394378
21
1.2822
0
LINE
8
BLACK
6
CONTINUOUS
10
0.394378
20
1.2822
11
0.383237
21
1.28067
0
LINE
8
BLACK
6
CONTINUOUS
10
0.383237
20
1.28067
11
0.37241
21
1.27763
0
LINE
8
BLACK
6
CONTINUOUS
10
0.37241
20
1.27763
11
0.362096
21
1.27315
0
LINE
8
BLACK
6
CONTINUOUS
10
0.362096
20
1.27315
11
0.352488
21
1.26731
0
LINE
8
BLACK
6
CONTINUOUS
10
0.352488
20
1.26731
11
0.343765
21
1.26021
0
LINE
8
BLACK
6
CONTINUOUS
10
0.343765
20
1.26021
11
0.33609
21
1.25199
0
LINE
8
BLACK
6
CONTINUOUS
10
0.33609
20
1.25199
11
0.329605
21
1.24281
0
LINE
8
BLACK
6
CONTINUOUS
10
0.329605
20
1.24281
11
0.324432
21
1.23282
0
LINE
8
BLACK
6
CONTINUOUS
10
0.324432
20
1.23282
11
0.320666
21
1.22223
0
LINE
8
BLACK
6
CONTINUOUS
10
0.320666
20
1.22223
11
0.318378
21
1.21122
0
LINE
8
BLACK
6
CONTINUOUS
10
0.318378
20
1.21122
11
0.317611
21
1.2
0
LINE
8
BLACK
6
CONTINUOUS
10
0.317611
20
1.2
11
0.318378
21
1.18878
0
LINE
8
BLACK
6
CONTINUOUS
10
0.538179
20
1.34068
11
0.538308
21
1.3407
0
LINE
8
BLACK
6
CONTINUOUS
10
0.538308
20
1.3407
11
0.538422
21
1.34064
0
LINE
8
BLACK
6
CONTINUOUS
10
0.538422
20
1.34064
11
0.538805
21
1.34057
0
LINE
8
BLACK
6
CONTINUOUS
10
0.538805
20
1.34057
11
0.539393
21
1.34008
0
LINE
8
BLACK
6
CONTINUOUS
10
0.539393
20
1.34008
11
0.540057
21
1.33969
0
LINE
8
BLACK
6
CONTINUOUS
10
0.540057
20
1.33969
11
0.540148
21
1.33944
0
LINE
8
BLACK
6
CONTINUOUS
10
0.540148
20
1.33944
11
0.540352
21
1.33927
0
LINE
8
BLACK
6
CONTINUOUS
10
0.540352
20
1.33927
11
0.540486
21
1.33852
0
LINE
8
BLACK
6
CONTINUOUS
10
0.540486
20
1.33852
11
0.540748
21
1.3378
0
LINE
8
BLACK
6
CONTINUOUS
10
0.540748
20
1.3378
11
0.540748
21
1.0622
0
LINE
8
BLACK
6
CONTINUOUS
10
0.540748
20
1.0622
11
0.54068
21
1.06182
0
LINE
8
BLACK
6
CONTINUOUS
10
0.54068
20
1.06182
11
0.540703
21
1.06169
0
LINE
8
BLACK
6
CONTINUOUS
10
0.540703
20
1.06169
11
0.540638
21
1.06158
0
LINE
8
BLACK
6
CONTINUOUS
10
0.540638
20
1.06158
11
0.54057
21
1.06119
0
LINE
8
BLACK
6
CONTINUOUS
10
0.54057
20
1.06119
11
0.540077
21
1.06061
0
LINE
8
BLACK
6
CONTINUOUS
10
0.540077
20
1.06061
11
0.539693
21
1.05994
0
LINE
8
BLACK
6
CONTINUOUS
10
0.539693
20
1.05994
11
0.539443
21
1.05985
0
LINE
8
BLACK
6
CONTINUOUS
10
0.539443
20
1.05985
11
0.539272
21
1.05965
0
LINE
8
BLACK
6
CONTINUOUS
10
0.539272
20
1.05965
11
0.538516
21
1.05951
0
LINE
8
BLACK
6
CONTINUOUS
10
0.538516
20
1.05951
11
0.537795
21
1.05925
0
LINE
8
BLACK
6
CONTINUOUS
10
0.537795
20
1.05925
11
0.262205
21
1.05925
0
LINE
8
BLACK
6
CONTINUOUS
10
0.262205
20
1.05925
11
0.261821
21
1.05932
0
LINE
8
BLACK
6
CONTINUOUS
10
0.261821
20
1.05932
11
0.261692
21
1.0593
0
LINE
8
BLACK
6
CONTINUOUS
10
0.261692
20
1.0593
11
0.261578
21
1.05936
0
LINE
8
BLACK
6
CONTINUOUS
10
0.261578
20
1.05936
11
0.261195
21
1.05943
0
LINE
8
BLACK
6
CONTINUOUS
10
0.261195
20
1.05943
11
0.260607
21
1.05992
0
LINE
8
BLACK
6
CONTINUOUS
10
0.260607
20
1.05992
11
0.259943
21
1.06031
0
LINE
8
BLACK
6
CONTINUOUS
10
0.259943
20
1.06031
11
0.259852
21
1.06056
0
LINE
8
BLACK
6
CONTINUOUS
10
0.259852
20
1.06056
11
0.259648
21
1.06073
0
LINE
8
BLACK
6
CONTINUOUS
10
0.259648
20
1.06073
11
0.259514
21
1.06148
0
LINE
8
BLACK
6
CONTINUOUS
10
0.259514
20
1.06148
11
0.259252
21
1.0622
0
LINE
8
BLACK
6
CONTINUOUS
10
0.259252
20
1.0622
11
0.259252
21
1.3378
0
LINE
8
BLACK
6
CONTINUOUS
10
0.259252
20
1.3378
11
0.25932
21
1.33818
0
LINE
8
BLACK
6
CONTINUOUS
10
0.25932
20
1.33818
11
0.259297
21
1.33831
0
LINE
8
BLACK
6
CONTINUOUS
10
0.259297
20
1.33831
11
0.259362
21
1.33842
0
LINE
8
BLACK
6
CONTINUOUS
10
0.259362
20
1.33842
11
0.25943
21
1.33881
0
LINE
8
BLACK
6
CONTINUOUS
10
0.25943
20
1.33881
11
0.259923
21
1.33939
0
LINE
8
BLACK
6
CONTINUOUS
10
0.259923
20
1.33939
11
0.260307
21
1.34006
0
LINE
8
BLACK
6
CONTINUOUS
10
0.260307
20
1.34006
11
0.260557
21
1.34015
0
LINE
8
BLACK
6
CONTINUOUS
10
0.260557
20
1.34015
11
0.260728
21
1.34035
0
LINE
8
BLACK
6
CONTINUOUS
10
0.260728
20
1.34035
11
0.261484
21
1.34049
0
LINE
8
BLACK
6
CONTINUOUS
10
0.261484
20
1.34049
11
0.262205
21
1.34075
0
LINE
8
BLACK
6
CONTINUOUS
10
0.262205
20
1.34075
11
0.537795
21
1.34075
0
LINE
8
BLACK
6
CONTINUOUS
10
0.537795
20
1.34075
11
0.538179
21
1.34068
0
LINE
8
BLACK
6
CONTINUOUS
10
0.265157
20
1.11713
11
0.265157
21
1.06516
0
LINE
8
BLACK
6
CONTINUOUS
10
0.265157
20
1.06516
11
0.317126
21
1.06516
0
LINE
8
BLACK
6
CONTINUOUS
10
0.317126
20
1.06516
11
0.317126
21
1.07697
0
LINE
8
BLACK
6
CONTINUOUS
10
0.317126
20
1.07697
11
0.279921
21
1.07697
0
LINE
8
BLACK
6
CONTINUOUS
10
0.279921
20
1.07697
11
0.279538
21
1.07704
0
LINE
8
BLACK
6
CONTINUOUS
10
0.279538
20
1.07704
11
0.279409
21
1.07701
0
LINE
8
BLACK
6
CONTINUOUS
10
0.279409
20
1.07701
11
0.279295
21
1.07708
0
LINE
8
BLACK
6
CONTINUOUS
10
0.279295
20
1.07708
11
0.278911
21
1.07715
0
LINE
8
BLACK
6
CONTINUOUS
10
0.278911
20
1.07715
11
0.278324
21
1.07764
0
LINE
8
BLACK
6
CONTINUOUS
10
0.278324
20
1.07764
11
0.277659
21
1.07802
0
LINE
8
BLACK
6
CONTINUOUS
10
0.277659
20
1.07802
11
0.277568
21
1.07827
0
LINE
8
BLACK
6
CONTINUOUS
10
0.277568
20
1.07827
11
0.277364
21
1.07844
0
LINE
8
BLACK
6
CONTINUOUS
10
0.277364
20
1.07844
11
0.277231
21
1.0792
0
LINE
8
BLACK
6
CONTINUOUS
10
0.277231
20
1.0792
11
0.276969
21
1.07992
0
LINE
8
BLACK
6
CONTINUOUS
10
0.276969
20
1.07992
11
0.276969
21
1.11713
0
LINE
8
BLACK
6
CONTINUOUS
10
0.276969
20
1.11713
11
0.265157
21
1.11713
0
LINE
8
BLACK
6
CONTINUOUS
10
0.323031
20
1.33484
11
0.323031
21
1.27992
0
LINE
8
BLACK
6
CONTINUOUS
10
0.323031
20
1.27992
11
0.322964
21
1.27954
0
LINE
8
BLACK
6
CONTINUOUS
10
0.322964
20
1.27954
11
0.322987
21
1.27941
0
LINE
8
BLACK
6
CONTINUOUS
10
0.322987
20
1.27941
11
0.322921
21
1.27929
0
LINE
8
BLACK
6
CONTINUOUS
10
0.322921
20
1.27929
11
0.322853
21
1.27891
0
LINE
8
BLACK
6
CONTINUOUS
10
0.322853
20
1.27891
11
0.32236
21
1.27832
0
LINE
8
BLACK
6
CONTINUOUS
10
0.32236
20
1.27832
11
0.321977
21
1.27766
0
LINE
8
BLACK
6
CONTINUOUS
10
0.321977
20
1.27766
11
0.321726
21
1.27757
0
LINE
8
BLACK
6
CONTINUOUS
10
0.321726
20
1.27757
11
0.321555
21
1.27736
0
LINE
8
BLACK
6
CONTINUOUS
10
0.321555
20
1.27736
11
0.3208
21
1.27723
0
LINE
8
BLACK
6
CONTINUOUS
10
0.3208
20
1.27723
11
0.320079
21
1.27697
0
LINE
8
BLACK
6
CONTINUOUS
10
0.320079
20
1.27697
11
0.265157
21
1.27697
0
LINE
8
BLACK
6
CONTINUOUS
10
0.265157
20
1.27697
11
0.265157
21
1.12303
0
LINE
8
BLACK
6
CONTINUOUS
10
0.265157
20
1.12303
11
0.320079
21
1.12303
0
LINE
8
BLACK
6
CONTINUOUS
10
0.320079
20
1.12303
11
0.320462
21
1.12296
0
LINE
8
BLACK
6
CONTINUOUS
10
0.320462
20
1.12296
11
0.320591
21
1.12299
0
LINE
8
BLACK
6
CONTINUOUS
10
0.320591
20
1.12299
11
0.320705
21
1.12292
0
LINE
8
BLACK
6
CONTINUOUS
10
0.320705
20
1.12292
11
0.321089
21
1.12285
0
LINE
8
BLACK
6
CONTINUOUS
10
0.321089
20
1.12285
11
0.321676
21
1.12236
0
LINE
8
BLACK
6
CONTINUOUS
10
0.321676
20
1.12236
11
0.322341
21
1.12198
0
LINE
8
BLACK
6
CONTINUOUS
10
0.322341
20
1.12198
11
0.322432
21
1.12173
0
LINE
8
BLACK
6
CONTINUOUS
10
0.322432
20
1.12173
11
0.322636
21
1.12156
0
LINE
8
BLACK
6
CONTINUOUS
10
0.322636
20
1.12156
11
0.322769
21
1.1208
0
LINE
8
BLACK
6
CONTINUOUS
10
0.322769
20
1.1208
11
0.323031
21
1.12008
0
LINE
8
BLACK
6
CONTINUOUS
10
0.323031
20
1.12008
11
0.323031
21
1.06516
0
LINE
8
BLACK
6
CONTINUOUS
10
0.323031
20
1.06516
11
0.476969
21
1.06516
0
LINE
8
BLACK
6
CONTINUOUS
10
0.476969
20
1.06516
11
0.476969
21
1.12008
0
LINE
8
BLACK
6
CONTINUOUS
10
0.476969
20
1.12008
11
0.477036
21
1.12046
0
LINE
8
BLACK
6
CONTINUOUS
10
0.477036
20
1.12046
11
0.477013
21
1.12059
0
LINE
8
BLACK
6
CONTINUOUS
10
0.477013
20
1.12059
11
0.477079
21
1.12071
0
LINE
8
BLACK
6
CONTINUOUS
10
0.477079
20
1.12071
11
0.477147
21
1.12109
0
LINE
8
BLACK
6
CONTINUOUS
10
0.477147
20
1.12109
11
0.47764
21
1.12168
0
LINE
8
BLACK
6
CONTINUOUS
10
0.47764
20
1.12168
11
0.478023
21
1.12234
0
LINE
8
BLACK
6
CONTINUOUS
10
0.478023
20
1.12234
11
0.478274
21
1.12243
0
LINE
8
BLACK
6
CONTINUOUS
10
0.478274
20
1.12243
11
0.478445
21
1.12264
0
LINE
8
BLACK
6
CONTINUOUS
10
0.478445
20
1.12264
11
0.4792
21
1.12277
0
LINE
8
BLACK
6
CONTINUOUS
10
0.4792
20
1.12277
11
0.479921
21
1.12303
0
LINE
8
BLACK
6
CONTINUOUS
10
0.479921
20
1.12303
11
0.534843
21
1.12303
0
LINE
8
BLACK
6
CONTINUOUS
10
0.534843
20
1.12303
11
0.534843
21
1.27697
0
LINE
8
BLACK
6
CONTINUOUS
10
0.534843
20
1.27697
11
0.479921
21
1.27697
0
LINE
8
BLACK
6
CONTINUOUS
10
0.479921
20
1.27697
11
0.479538
21
1.27704
0
LINE
8
BLACK
6
CONTINUOUS
10
0.479538
20
1.27704
11
0.479409
21
1.27701
0
LINE
8
BLACK
6
CONTINUOUS
10
0.479409
20
1.27701
11
0.479295
21
1.27708
0
LINE
8
BLACK
6
CONTINUOUS
10
0.479295
20
1.27708
11
0.478911
21
1.27715
0
LINE
8
BLACK
6
CONTINUOUS
10
0.478911
20
1.27715
11
0.478324
21
1.27764
0
LINE
8
BLACK
6
CONTINUOUS
10
0.478324
20
1.27764
11
0.477659
21
1.27802
0
LINE
8
BLACK
6
CONTINUOUS
10
0.477659
20
1.27802
11
0.477568
21
1.27827
0
LINE
8
BLACK
6
CONTINUOUS
10
0.477568
20
1.27827
11
0.477364
21
1.27844
0
LINE
8
BLACK
6
CONTINUOUS
10
0.477364
20
1.27844
11
0.477231
21
1.2792
0
LINE
8
BLACK
6
CONTINUOUS
10
0.477231
20
1.2792
11
0.476969
21
1.27992
0
LINE
8
BLACK
6
CONTINUOUS
10
0.476969
20
1.27992
11
0.476969
21
1.33484
0
LINE
8
BLACK
6
CONTINUOUS
10
0.476969
20
1.33484
11
0.323031
21
1.33484
0
LINE
8
BLACK
6
CONTINUOUS
10
0.523031
20
1.11713
11
0.523031
21
1.07992
0
LINE
8
BLACK
6
CONTINUOUS
10
0.523031
20
1.07992
11
0.522964
21
1.07954
0
LINE
8
BLACK
6
CONTINUOUS
10
0.522964
20
1.07954
11
0.522987
21
1.07941
0
LINE
8
BLACK
6
CONTINUOUS
10
0.522987
20
1.07941
11
0.522921
21
1.07929
0
LINE
8
BLACK
6
CONTINUOUS
10
0.522921
20
1.07929
11
0.522853
21
1.07891
0
LINE
8
BLACK
6
CONTINUOUS
10
0.522853
20
1.07891
11
0.52236
21
1.07832
0
LINE
8
BLACK
6
CONTINUOUS
10
0.52236
20
1.07832
11
0.521977
21
1.07766
0
LINE
8
BLACK
6
CONTINUOUS
10
0.521977
20
1.07766
11
0.521726
21
1.07757
0
LINE
8
BLACK
6
CONTINUOUS
10
0.521726
20
1.07757
11
0.521555
21
1.07736
0
LINE
8
BLACK
6
CONTINUOUS
10
0.521555
20
1.07736
11
0.5208
21
1.07723
0
LINE
8
BLACK
6
CONTINUOUS
10
0.5208
20
1.07723
11
0.520079
21
1.07697
0
LINE
8
BLACK
6
CONTINUOUS
10
0.520079
20
1.07697
11
0.482874
21
1.07697
0
LINE
8
BLACK
6
CONTINUOUS
10
0.482874
20
1.07697
11
0.482874
21
1.06516
0
LINE
8
BLACK
6
CONTINUOUS
10
0.482874
20
1.06516
11
0.534843
21
1.06516
0
LINE
8
BLACK
6
CONTINUOUS
10
0.534843
20
1.06516
11
0.534843
21
1.11713
0
LINE
8
BLACK
6
CONTINUOUS
10
0.534843
20
1.11713
11
0.523031
21
1.11713
0
LINE
8
BLACK
6
CONTINUOUS
10
0.482874
20
1.11713
11
0.482874
21
1.08287
0
LINE
8
BLACK
6
CONTINUOUS
10
0.482874
20
1.08287
11
0.517126
21
1.08287
0
LINE
8
BLACK
6
CONTINUOUS
10
0.517126
20
1.08287
11
0.517126
21
1.11713
0
LINE
8
BLACK
6
CONTINUOUS
10
0.517126
20
1.11713
11
0.482874
21
1.11713
0
LINE
8
BLACK
6
CONTINUOUS
10
0.282874
20
1.11713
11
0.282874
21
1.08287
0
LINE
8
BLACK
6
CONTINUOUS
10
0.282874
20
1.08287
11
0.317126
21
1.08287
0
LINE
8
BLACK
6
CONTINUOUS
10
0.317126
20
1.08287
11
0.317126
21
1.11713
0
LINE
8
BLACK
6
CONTINUOUS
10
0.317126
20
1.11713
11
0.282874
21
1.11713
0
LINE
8
BLACK
6
CONTINUOUS
10
0.482874
20
1.31713
11
0.482874
21
1.28287
0
LINE
8
BLACK
6
CONTINUOUS
10
0.482874
20
1.28287
11
0.517126
21
1.28287
0
LINE
8
BLACK
6
CONTINUOUS
10
0.517126
20
1.28287
11
0.517126
21
1.31713
0
LINE
8
BLACK
6
CONTINUOUS
10
0.517126
20
1.31713
11
0.482874
21
1.31713
0
LINE
8
BLACK
6
CONTINUOUS
10
0.482874
20
1.33484
11
0.482874
21
1.32303
0
LINE
8
BLACK
6
CONTINUOUS
10
0.482874
20
1.32303
11
0.520079
21
1.32303
0
LINE
8
BLACK
6
CONTINUOUS
10
0.520079
20
1.32303
11
0.520462
21
1.32296
0
LINE
8
BLACK
6
CONTINUOUS
10
0.520462
20
1.32296
11
0.520591
21
1.32299
0
LINE
8
BLACK
6
CONTINUOUS
10
0.520591
20
1.32299
11
0.520705
21
1.32292
0
LINE
8
BLACK
6
CONTINUOUS
10
0.520705
20
1.32292
11
0.521089
21
1.32285
0
LINE
8
BLACK
6
CONTINUOUS
10
0.521089
20
1.32285
11
0.521676
21
1.32236
0
LINE
8
BLACK
6
CONTINUOUS
10
0.521676
20
1.32236
11
0.522341
21
1.32198
0
LINE
8
BLACK
6
CONTINUOUS
10
0.522341
20
1.32198
11
0.522432
21
1.32173
0
LINE
8
BLACK
6
CONTINUOUS
10
0.522432
20
1.32173
11
0.522636
21
1.32156
0
LINE
8
BLACK
6
CONTINUOUS
10
0.522636
20
1.32156
11
0.522769
21
1.3208
0
LINE
8
BLACK
6
CONTINUOUS
10
0.522769
20
1.3208
11
0.523031
21
1.32008
0
LINE
8
BLACK
6
CONTINUOUS
10
0.523031
20
1.32008
11
0.523031
21
1.28287
0
LINE
8
BLACK
6
CONTINUOUS
10
0.523031
20
1.28287
11
0.534843
21
1.28287
0
LINE
8
BLACK
6
CONTINUOUS
10
0.534843
20
1.28287
11
0.534843
21
1.33484
0
LINE
8
BLACK
6
CONTINUOUS
10
0.534843
20
1.33484
11
0.482874
21
1.33484
0
LINE
8
BLACK
6
CONTINUOUS
10
0.265157
20
1.33484
11
0.265157
21
1.28287
0
LINE
8
BLACK
6
CONTINUOUS
10
0.265157
20
1.28287
11
0.276969
21
1.28287
0
LINE
8
BLACK
6
CONTINUOUS
10
0.276969
20
1.28287
11
0.276969
21
1.32008
0
LINE
8
BLACK
6
CONTINUOUS
10
0.276969
20
1.32008
11
0.277036
21
1.32046
0
LINE
8
BLACK
6
CONTINUOUS
10
0.277036
20
1.32046
11
0.277013
21
1.32059
0
LINE
8
BLACK
6
CONTINUOUS
10
0.277013
20
1.32059
11
0.277079
21
1.32071
0
LINE
8
BLACK
6
CONTINUOUS
10
0.277079
20
1.32071
11
0.277147
21
1.32109
0
LINE
8
BLACK
6
CONTINUOUS
10
0.277147
20
1.32109
11
0.27764
21
1.32168
0
LINE
8
BLACK
6
CONTINUOUS
10
0.27764
20
1.32168
11
0.278023
21
1.32234
0
LINE
8
BLACK
6
CONTINUOUS
10
0.278023
20
1.32234
11
0.278274
21
1.32243
0
LINE
8
BLACK
6
CONTINUOUS
10
0.278274
20
1.32243
11
0.278445
21
1.32264
0
LINE
8
BLACK
6
CONTINUOUS
10
0.278445
20
1.32264
11
0.2792
21
1.32277
0
LINE
8
BLACK
6
CONTINUOUS
10
0.2792
20
1.32277
11
0.279921
21
1.32303
0
LINE
8
BLACK
6
CONTINUOUS
10
0.279921
20
1.32303
11
0.317126
21
1.32303
0
LINE
8
BLACK
6
CONTINUOUS
10
0.317126
20
1.32303
11
0.317126
21
1.33484
0
LINE
8
BLACK
6
CONTINUOUS
10
0.317126
20
1.33484
11
0.265157
21
1.33484
0
LINE
8
BLACK
6
CONTINUOUS
10
0.282874
20
1.31713
11
0.282874
21
1.28287
0
LINE
8
BLACK
6
CONTINUOUS
10
0.282874
20
1.28287
11
0.317126
21
1.28287
0
LINE
8
BLACK
6
CONTINUOUS
10
0.317126
20
1.28287
11
0.317126
21
1.31713
0
LINE
8
BLACK
6
CONTINUOUS
10
0.317126
20
1.31713
11
0.282874
21
1.31713
0
LINE
8
BLACK
6
CONTINUOUS
10
0.0140628
20
1.32481
11
0.0279486
21
1.32245
0
LINE
8
BLACK
6
CONTINUOUS
10
0.0279486
20
1.32245
11
0.041483
21
1.31855
0
LINE
8
BLACK
6
CONTINUOUS
10
0.041483
20
1.31855
11
0.0544958
21
1.31316
0
LINE
8
BLACK
6
CONTINUOUS
10
0.0544958
20
1.31316
11
0.0668232
21
1.30635
0
LINE
8
BLACK
6
CONTINUOUS
10
0.0668232
20
1.30635
11
0.0783103
21
1.2982
0
LINE
8
BLACK
6
CONTINUOUS
10
0.0783103
20
1.2982
11
0.0888126
21
1.28881
0
LINE
8
BLACK
6
CONTINUOUS
10
0.0888126
20
1.28881
11
0.098198
21
1.27831
0
LINE
8
BLACK
6
CONTINUOUS
10
0.098198
20
1.27831
11
0.106349
21
1.26682
0
LINE
8
BLACK
6
CONTINUOUS
10
0.106349
20
1.26682
11
0.113162
21
1.2545
0
LINE
8
BLACK
6
CONTINUOUS
10
0.113162
20
1.2545
11
0.118552
21
1.24148
0
LINE
8
BLACK
6
CONTINUOUS
10
0.118552
20
1.24148
11
0.122451
21
1.22795
0
LINE
8
BLACK
6
CONTINUOUS
10
0.122451
20
1.22795
11
0.12481
21
1.21406
0
LINE
8
BLACK
6
CONTINUOUS
10
0.12481
20
1.21406
11
0.1256
21
1.2
0
LINE
8
BLACK
6
CONTINUOUS
10
0.1256
20
1.2
11
0.12481
21
1.18594
0
LINE
8
BLACK
6
CONTINUOUS
10
0.12481
20
1.18594
11
0.122451
21
1.17205
0
LINE
8
BLACK
6
CONTINUOUS
10
0.122451
20
1.17205
11
0.118552
21
1.15852
0
LINE
8
BLACK
6
CONTINUOUS
10
0.118552
20
1.15852
11
0.113162
21
1.1455
0
LINE
8
BLACK
6
CONTINUOUS
10
0.113162
20
1.1455
11
0.106349
21
1.13318
0
LINE
8
BLACK
6
CONTINUOUS
10
0.106349
20
1.13318
11
0.098198
21
1.12169
0
LINE
8
BLACK
6
CONTINUOUS
10
0.098198
20
1.12169
11
0.0888126
21
1.11119
0
LINE
8
BLACK
6
CONTINUOUS
10
0.0888126
20
1.11119
11
0.0783103
21
1.1018
0
LINE
8
BLACK
6
CONTINUOUS
10
0.0783103
20
1.1018
11
0.0668232
21
1.09365
0
LINE
8
BLACK
6
CONTINUOUS
10
0.0668232
20
1.09365
11
0.0544958
21
1.08684
0
LINE
8
BLACK
6
CONTINUOUS
10
0.0544958
20
1.08684
11
0.041483
21
1.08145
0
LINE
8
BLACK
6
CONTINUOUS
10
0.041483
20
1.08145
11
0.0279486
21
1.07755
0
LINE
8
BLACK
6
CONTINUOUS
10
0.0279486
20
1.07755
11
0.0140628
21
1.07519
0
LINE
8
BLACK
6
CONTINUOUS
10
0.0140628
20
1.07519
11
0
21
1.0744
0
LINE
8
BLACK
6
CONTINUOUS
10
0
20
1.0744
11
-0.0140628
21
1.07519
0
LINE
8
BLACK
6
CONTINUOUS
10
-0.0140628
20
1.07519
11
-0.0279486
21
1.07755
0
LINE
8
BLACK
6
CONTINUOUS
10
-0.0279486
20
1.07755
11
-0.041483
21
1.08145
0
LINE
8
BLACK
6
CONTINUOUS
10
-0.041483
20
1.08145
11
-0.0544958
21
1.08684
0
LINE
8
BLACK
6
CONTINUOUS
10
-0.0544958
20
1.08684
11
-0.0668232
21
1.09365
0
LINE
8
BLACK
6
CONTINUOUS
10
-0.0668232
20
1.09365
11
-0.0783103
21
1.1018
0
LINE
8
BLACK
6
CONTINUOUS
10
-0.0783103
20
1.1018
11
-0.0888126
21
1.11119
0
LINE
8
BLACK
6
CONTINUOUS
10
-0.0888126
20
1.11119
11
-0.098198
21
1.12169
0
LINE
8
BLACK
6
CONTINUOUS
10
-0.098198
20
1.12169
11
-0.106349
21
1.13318
0
LINE
8
BLACK
6
CONTINUOUS
10
-0.106349
20
1.13318
11
-0.113162
21
1.1455
0
LINE
8
BLACK
6
CONTINUOUS
10
-0.113162
20
1.1455
11
-0.118552
21
1.15852
0
LINE
8
BLACK
6
CONTINUOUS
10
-0.118552
20
1.15852
11
-0.122451
21
1.17205
0
LINE
8
BLACK
6
CONTINUOUS
10
-0.122451
20
1.17205
11
-0.12481
21
1.18594
0
LINE
8
BLACK
6
CONTINUOUS
10
-0.12481
20
1.18594
11
-0.1256
21
1.2
0
LINE
8
BLACK
6
CONTINUOUS
10
-0.1256
20
1.2
11
-0.12481
21
1.21406
0
LINE
8
BLACK
6
CONTINUOUS
10
-0.12481
20
1.21406
11
-0.122451
21
1.22795
0
LINE
8
BLACK
6
CONTINUOUS
10
-0.122451
20
1.22795
11
-0.118552
21
1.24148
0
LINE
8
BLACK
6
CONTINUOUS
10
-0.118552
20
1.24148
11
-0.113162
21
1.2545
0
LINE
8
BLACK
6
CONTINUOUS
10
-0.113162
20
1.2545
11
-0.106349
21
1.26682
0
LINE
8
BLACK
6
CONTINUOUS
10
-0.106349
20
1.26682
11
-0.098198
21
1.27831
0
LINE
8
BLACK
6
CONTINUOUS
10
-0.098198
20
1.27831
11
-0.0888126
21
1.28881
0
LINE
8
BLACK
6
CONTINUOUS
10
-0.0888126
20
1.28881
11
-0.0783103
21
1.2982
0
LINE
8
BLACK
6
CONTINUOUS
10
-0.0783103
20
1.2982
11
-0.0668232
21
1.30635
0
LINE
8
BLACK
6
CONTINUOUS
10
-0.0668232
20
1.30635
11
-0.0544958
21
1.31316
0
LINE
8
BLACK
6
CONTINUOUS
10
-0.0544958
20
1.31316
11
-0.041483
21
1.31855
0
LINE
8
BLACK
6
CONTINUOUS
10
-0.041483
20
1.31855
11
-0.0279486
21
1.32245
0
LINE
8
BLACK
6
CONTINUOUS
10
-0.0279486
20
1.32245
11
-0.0140628
21
1.32481
0
LINE
8
BLACK
6
CONTINUOUS
10
-0.0140628
20
1.32481
11
0
21
1.3256
0
LINE
8
BLACK
6
CONTINUOUS
10
0
20
1.3256
11
0.0140628
21
1.32481
0
LINE
8
BLACK
6
CONTINUOUS
10
-0.110038
20
1.18714
11
-0.107801
21
1.17445
0
LINE
8
BLACK
6
CONTINUOUS
10
-0.107801
20
1.17445
11
-0.104106
21
1.16211
0
LINE
8
BLACK
6
CONTINUOUS
10
-0.104106
20
1.16211
11
-0.0990033
21
1.15028
0
LINE
8
BLACK
6
CONTINUOUS
10
-0.0990033
20
1.15028
11
-0.0925616
21
1.13912
0
LINE
8
BLACK
6
CONTINUOUS
10
-0.0925616
20
1.13912
11
-0.0848681
21
1.12879
0
LINE
8
BLACK
6
CONTINUOUS
10
-0.0848681
20
1.12879
11
-0.076027
21
1.11942
0
LINE
8
BLACK
6
CONTINUOUS
10
-0.076027
20
1.11942
11
-0.0661577
21
1.11113
0
LINE
8
BLACK
6
CONTINUOUS
10
-0.0661577
20
1.11113
11
-0.0553937
21
1.10406
0
LINE
8
BLACK
6
CONTINUOUS
10
-0.0553937
20
1.10406
11
-0.0438807
21
1.09827
0
LINE
8
BLACK
6
CONTINUOUS
10
-0.0438807
20
1.09827
11
-0.0317742
21
1.09387
0
LINE
8
BLACK
6
CONTINUOUS
10
-0.0317742
20
1.09387
11
-0.019238
21
1.0909
0
LINE
8
BLACK
6
CONTINUOUS
10
-0.019238
20
1.0909
11
-0.00644173
21
1.0894
0
LINE
8
BLACK
6
CONTINUOUS
10
-0.00644173
20
1.0894
11
0.00644173
21
1.0894
0
LINE
8
BLACK
6
CONTINUOUS
10
0.00644173
20
1.0894
11
0.019238
21
1.0909
0
LINE
8
BLACK
6
CONTINUOUS
10
0.019238
20
1.0909
11
0.0317742
21
1.09387
0
LINE
8
BLACK
6
CONTINUOUS
10
0.0317742
20
1.09387
11
0.0438807
21
1.09827
0
LINE
8
BLACK
6
CONTINUOUS
10
0.0438807
20
1.09827
11
0.0553937
21
1.10406
0
LINE
8
BLACK
6
CONTINUOUS
10
0.0553937
20
1.10406
11
0.0661577
21
1.11113
0
LINE
8
BLACK
6
CONTINUOUS
10
0.0661577
20
1.11113
11
0.076027
21
1.11942
0
LINE
8
BLACK
6
CONTINUOUS
10
0.076027
20
1.11942
11
0.0848681
21
1.12879
0
LINE
8
BLACK
6
CONTINUOUS
10
0.0848681
20
1.12879
11
0.0925616
21
1.13912
0
LINE
8
BLACK
6
CONTINUOUS
10
0.0925616
20
1.13912
11
0.0990033
21
1.15028
0
LINE
8
BLACK
6
CONTINUOUS
10
0.0990033
20
1.15028
11
0.104106
21
1.16211
0
LINE
8
BLACK
6
CONTINUOUS
10
0.104106
20
1.16211
11
0.107801
21
1.17445
0
LINE
8
BLACK
6
CONTINUOUS
10
0.107801
20
1.17445
11
0.110038
21
1.18714
0
LINE
8
BLACK
6
CONTINUOUS
10
0.110038
20
1.18714
11
0.110787
21
1.2
0
LINE
8
BLACK
6
CONTINUOUS
10
0.110787
20
1.2
11
0.110038
21
1.21286
0
LINE
8
BLACK
6
CONTINUOUS
10
0.110038
20
1.21286
11
0.107801
21
1.22555
0
LINE
8
BLACK
6
CONTINUOUS
10
0.107801
20
1.22555
11
0.104106
21
1.23789
0
LINE
8
BLACK
6
CONTINUOUS
10
0.104106
20
1.23789
11
0.0990033
21
1.24972
0
LINE
8
BLACK
6
CONTINUOUS
10
0.0990033
20
1.24972
11
0.0925616
21
1.26088
0
LINE
8
BLACK
6
CONTINUOUS
10
0.0925616
20
1.26088
11
0.0848681
21
1.27121
0
LINE
8
BLACK
6
CONTINUOUS
10
0.0848681
20
1.27121
11
0.076027
21
1.28058
0
LINE
8
BLACK
6
CONTINUOUS
10
0.076027
20
1.28058
11
0.0661577
21
1.28887
0
LINE
8
BLACK
6
CONTINUOUS
10
0.0661577
20
1.28887
11
0.0553937
21
1.29594
0
LINE
8
BLACK
6
CONTINUOUS
10
0.0553937
20
1.29594
11
0.0438807
21
1.30173
0
LINE
8
BLACK
6
CONTINUOUS
10
0.0438807
20
1.30173
11
0.0317742
21
1.30613
0
LINE
8
BLACK
6
CONTINUOUS
10
0.0317742
20
1.30613
11
0.019238
21
1.3091
0
LINE
8
BLACK
6
CONTINUOUS
10
0.019238
20
1.3091
11
0.00644173
21
1.3106
0
LINE
8
BLACK
6
CONTINUOUS
10
0.00644173
20
1.3106
11
-0.00644173
21
1.3106
0
LINE
8
BLACK
6
CONTINUOUS
10
-0.00644173
20
1.3106
11
-0.019238
21
1.3091
0
LINE
8
BLACK
6
CONTINUOUS
10
-0.019238
20
1.3091
11
-0.0317742
21
1.30613
0
LINE
8
BLACK
6
CONTINUOUS
10
-0.0317742
20
1.30613
11
-0.0438807
21
1.30173
0
LINE
8
BLACK
6
CONTINUOUS
10
-0.0438807
20
1.30173
11
-0.0553937
21
1.29594
0
LINE
8
BLACK
6
CONTINUOUS
10
-0.0553937
20
1.29594
11
-0.0661577
21
1.28887
0
LINE
8
BLACK
6
CONTINUOUS
10
-0.0661577
20
1.28887
11
-0.076027
21
1.28058
0
LINE
8
BLACK
6
CONTINUOUS
10
-0.076027
20
1.28058
11
-0.0848681
21
1.27121
0
LINE
8
BLACK
6
CONTINUOUS
10
-0.0848681
20
1.27121
11
-0.0925616
21
1.26088
0
LINE
8
BLACK
6
CONTINUOUS
10
-0.0925616
20
1.26088
11
-0.0990033
21
1.24972
0
LINE
8
BLACK
6
CONTINUOUS
10
-0.0990033
20
1.24972
11
-0.104106
21
1.23789
0
LINE
8
BLACK
6
CONTINUOUS
10
-0.104106
20
1.23789
11
-0.107801
21
1.22555
0
LINE
8
BLACK
6
CONTINUOUS
10
-0.107801
20
1.22555
11
-0.110038
21
1.21286
0
LINE
8
BLACK
6
CONTINUOUS
10
-0.110038
20
1.21286
11
-0.110787
21
1.2
0
LINE
8
BLACK
6
CONTINUOUS
10
-0.110787
20
1.2
11
-0.110038
21
1.18714
0
LINE
8
BLACK
6
CONTINUOUS
10
0.814063
20
1.32481
11
0.827949
21
1.32245
0
LINE
8
BLACK
6
CONTINUOUS
10
0.827949
20
1.32245
11
0.841483
21
1.31855
0
LINE
8
BLACK
6
CONTINUOUS
10
0.841483
20
1.31855
11
0.854496
21
1.31316
0
LINE
8
BLACK
6
CONTINUOUS
10
0.854496
20
1.31316
11
0.866823
21
1.30635
0
LINE
8
BLACK
6
CONTINUOUS
10
0.866823
20
1.30635
11
0.87831
21
1.2982
0
LINE
8
BLACK
6
CONTINUOUS
10
0.87831
20
1.2982
11
0.888813
21
1.28881
0
LINE
8
BLACK
6
CONTINUOUS
10
0.888813
20
1.28881
11
0.898198
21
1.27831
0
LINE
8
BLACK
6
CONTINUOUS
10
0.898198
20
1.27831
11
0.906349
21
1.26682
0
LINE
8
BLACK
6
CONTINUOUS
10
0.906349
20
1.26682
11
0.913162
21
1.2545
0
LINE
8
BLACK
6
CONTINUOUS
10
0.913162
20
1.2545
11
0.918552
21
1.24148
0
LINE
8
BLACK
6
CONTINUOUS
10
0.918552
20
1.24148
11
0.922451
21
1.22795
0
LINE
8
BLACK
6
CONTINUOUS
10
0.922451
20
1.22795
11
0.92481
21
1.21406
0
LINE
8
BLACK
6
CONTINUOUS
10
0.92481
20
1.21406
11
0.9256
21
1.2
0
LINE
8
BLACK
6
CONTINUOUS
10
0.9256
20
1.2
11
0.92481
21
1.18594
0
LINE
8
BLACK
6
CONTINUOUS
10
0.92481
20
1.18594
11
0.922451
21
1.17205
0
LINE
8
BLACK
6
CONTINUOUS
10
0.922451
20
1.17205
11
0.918552
21
1.15852
0
LINE
8
BLACK
6
CONTINUOUS
10
0.918552
20
1.15852
11
0.913162
21
1.1455
0
LINE
8
BLACK
6
CONTINUOUS
10
0.913162
20
1.1455
11
0.906349
21
1.13318
0
LINE
8
BLACK
6
CONTINUOUS
10
0.906349
20
1.13318
11
0.898198
21
1.12169
0
LINE
8
BLACK
6
CONTINUOUS
10
0.898198
20
1.12169
11
0.888813
21
1.11119
0
LINE
8
BLACK
6
CONTINUOUS
10
0.888813
20
1.11119
11
0.87831
21
1.1018
0
LINE
8
BLACK
6
CONTINUOUS
10
0.87831
20
1.1018
11
0.866823
21
1.09365
0
LINE
8
BLACK
6
CONTINUOUS
10
0.866823
20
1.09365
11
0.854496
21
1.08684
0
LINE
8
BLACK
6
CONTINUOUS
10
0.854496
20
1.08684
11
0.841483
21
1.08145
0
LINE
8
BLACK
6
CONTINUOUS
10
0.841483
20
1.08145
11
0.827949
21
1.07755
0
LINE
8
BLACK
6
CONTINUOUS
10
0.827949
20
1.07755
11
0.814063
21
1.07519
0
LINE
8
BLACK
6
CONTINUOUS
10
0.814063
20
1.07519
11
0.8
21
1.0744
0
LINE
8
BLACK
6
CONTINUOUS
10
0.8
20
1.0744
11
0.785937
21
1.07519
0
LINE
8
BLACK
6
CONTINUOUS
10
0.785937
20
1.07519
11
0.772051
21
1.07755
0
LINE
8
BLACK
6
CONTINUOUS
10
0.772051
20
1.07755
11
0.758517
21
1.08145
0
LINE
8
BLACK
6
CONTINUOUS
10
0.758517
20
1.08145
11
0.745504
21
1.08684
0
LINE
8
BLACK
6
CONTINUOUS
10
0.745504
20
1.08684
11
0.733177
21
1.09365
0
LINE
8
BLACK
6
CONTINUOUS
10
0.733177
20
1.09365
11
0.72169
21
1.1018
0
LINE
8
BLACK
6
CONTINUOUS
10
0.72169
20
1.1018
11
0.711187
21
1.11119
0
LINE
8
BLACK
6
CONTINUOUS
10
0.711187
20
1.11119
11
0.701802
21
1.12169
0
LINE
8
BLACK
6
CONTINUOUS
10
0.701802
20
1.12169
11
0.693651
21
1.13318
0
LINE
8
BLACK
6
CONTINUOUS
10
0.693651
20
1.13318
11
0.686838
21
1.1455
0
LINE
8
BLACK
6
CONTINUOUS
10
0.686838
20
1.1455
11
0.681448
21
1.15852
0
LINE
8
BLACK
6
CONTINUOUS
10
0.681448
20
1.15852
11
0.677549
21
1.17205
0
LINE
8
BLACK
6
CONTINUOUS
10
0.677549
20
1.17205
11
0.67519
21
1.18594
0
LINE
8
BLACK
6
CONTINUOUS
10
0.67519
20
1.18594
11
0.6744
21
1.2
0
LINE
8
BLACK
6
CONTINUOUS
10
0.6744
20
1.2
11
0.67519
21
1.21406
0
LINE
8
BLACK
6
CONTINUOUS
10
0.67519
20
1.21406
11
0.677549
21
1.22795
0
LINE
8
BLACK
6
CONTINUOUS
10
0.677549
20
1.22795
11
0.681448
21
1.24148
0
LINE
8
BLACK
6
CONTINUOUS
10
0.681448
20
1.24148
11
0.686838
21
1.2545
0
LINE
8
BLACK
6
CONTINUOUS
10
0.686838
20
1.2545
11
0.693651
21
1.26682
0
LINE
8
BLACK
6
CONTINUOUS
10
0.693651
20
1.26682
11
0.701802
21
1.27831
0
LINE
8
BLACK
6
CONTINUOUS
10
0.701802
20
1.27831
11
0.711187
21
1.28881
0
LINE
8
BLACK
6
CONTINUOUS
10
0.711187
20
1.28881
11
0.72169
21
1.2982
0
LINE
8
BLACK
6
CONTINUOUS
10
0.72169
20
1.2982
11
0.733177
21
1.30635
0
LINE
8
BLACK
6
CONTINUOUS
10
0.733177
20
1.30635
11
0.745504
21
1.31316
0
LINE
8
BLACK
6
CONTINUOUS
10
0.745504
20
1.31316
11
0.758517
21
1.31855
0
LINE
8
BLACK
6
CONTINUOUS
10
0.758517
20
1.31855
11
0.772051
21
1.32245
0
LINE
8
BLACK
6
CONTINUOUS
10
0.772051
20
1.32245
11
0.785937
21
1.32481
0
LINE
8
BLACK
6
CONTINUOUS
10
0.785937
20
1.32481
11
0.8
21
1.3256
0
LINE
8
BLACK
6
CONTINUOUS
10
0.8
20
1.3256
11
0.814063
21
1.32481
0
LINE
8
BLACK
6
CONTINUOUS
10
0.689962
20
1.18714
11
0.692199
21
1.17445
0
LINE
8
BLACK
6
CONTINUOUS
10
0.692199
20
1.17445
11
0.695894
21
1.16211
0
LINE
8
BLACK
6
CONTINUOUS
10
0.695894
20
1.16211
11
0.700997
21
1.15028
0
LINE
8
BLACK
6
CONTINUOUS
10
0.700997
20
1.15028
11
0.707438
21
1.13912
0
LINE
8
BLACK
6
CONTINUOUS
10
0.707438
20
1.13912
11
0.715132
21
1.12879
0
LINE
8
BLACK
6
CONTINUOUS
10
0.715132
20
1.12879
11
0.723973
21
1.11942
0
LINE
8
BLACK
6
CONTINUOUS
10
0.723973
20
1.11942
11
0.733842
21
1.11113
0
LINE
8
BLACK
6
CONTINUOUS
10
0.733842
20
1.11113
11
0.744606
21
1.10406
0
LINE
8
BLACK
6
CONTINUOUS
10
0.744606
20
1.10406
11
0.756119
21
1.09827
0
LINE
8
BLACK
6
CONTINUOUS
10
0.756119
20
1.09827
11
0.768226
21
1.09387
0
LINE
8
BLACK
6
CONTINUOUS
10
0.768226
20
1.09387
11
0.780762
21
1.0909
0
LINE
8
BLACK
6
CONTINUOUS
10
0.780762
20
1.0909
11
0.793558
21
1.0894
0
LINE
8
BLACK
6
CONTINUOUS
10
0.793558
20
1.0894
11
0.806442
21
1.0894
0
LINE
8
BLACK
6
CONTINUOUS
10
0.806442
20
1.0894
11
0.819238
21
1.0909
0
LINE
8
BLACK
6
CONTINUOUS
10
0.819238
20
1.0909
11
0.831774
21
1.09387
0
LINE
8
BLACK
6
CONTINUOUS
10
0.831774
20
1.09387
11
0.843881
21
1.09827
0
LINE
8
BLACK
6
CONTINUOUS
10
0.843881
20
1.09827
11
0.855394
21
1.10406
0
LINE
8
BLACK
6
CONTINUOUS
10
0.855394
20
1.10406
11
0.866158
21
1.11113
0
LINE
8
BLACK
6
CONTINUOUS
10
0.866158
20
1.11113
11
0.876027
21
1.11942
0
LINE
8
BLACK
6
CONTINUOUS
10
0.876027
20
1.11942
11
0.884868
21
1.12879
0
LINE
8
BLACK
6
CONTINUOUS
10
0.884868
20
1.12879
11
0.892562
21
1.13912
0
LINE
8
BLACK
6
CONTINUOUS
10
0.892562
20
1.13912
11
0.899003
21
1.15028
0
LINE
8
BLACK
6
CONTINUOUS
10
0.899003
20
1.15028
11
0.904106
21
1.16211
0
LINE
8
BLACK
6
CONTINUOUS
10
0.904106
20
1.16211
11
0.907801
21
1.17445
0
LINE
8
BLACK
6
CONTINUOUS
10
0.907801
20
1.17445
11
0.910038
21
1.18714
0
LINE
8
BLACK
6
CONTINUOUS
10
0.910038
20
1.18714
11
0.910787
21
1.2
0
LINE
8
BLACK
6
CONTINUOUS
10
0.910787
20
1.2
11
0.910038
21
1.21286
0
LINE
8
BLACK
6
CONTINUOUS
10
0.910038
20
1.21286
11
0.907801
21
1.22555
0
LINE
8
BLACK
6
CONTINUOUS
10
0.907801
20
1.22555
11
0.904106
21
1.23789
0
LINE
8
BLACK
6
CONTINUOUS
10
0.904106
20
1.23789
11
0.899003
21
1.24972
0
LINE
8
BLACK
6
CONTINUOUS
10
0.899003
20
1.24972
11
0.892562
21
1.26088
0
LINE
8
BLACK
6
CONTINUOUS
10
0.892562
20
1.26088
11
0.884868
21
1.27121
0
LINE
8
BLACK
6
CONTINUOUS
10
0.884868
20
1.27121
11
0.876027
21
1.28058
0
LINE
8
BLACK
6
CONTINUOUS
10
0.876027
20
1.28058
11
0.866158
21
1.28887
0
LINE
8
BLACK
6
CONTINUOUS
10
0.866158
20
1.28887
11
0.855394
21
1.29594
0
LINE
8
BLACK
6
CONTINUOUS
10
0.855394
20
1.29594
11
0.843881
21
1.30173
0
LINE
8
BLACK
6
CONTINUOUS
10
0.843881
20
1.30173
11
0.831774
21
1.30613
0
LINE
8
BLACK
6
CONTINUOUS
10
0.831774
20
1.30613
11
0.819238
21
1.3091
0
LINE
8
BLACK
6
CONTINUOUS
10
0.819238
20
1.3091
11
0.806442
21
1.3106
0
LINE
8
BLACK
6
CONTINUOUS
10
0.806442
20
1.3106
11
0.793558
21
1.3106
0
LINE
8
BLACK
6
CONTINUOUS
10
0.793558
20
1.3106
11
0.780762
21
1.3091
0
LINE
8
BLACK
6
CONTINUOUS
10
0.780762
20
1.3091
11
0.768226
21
1.30613
0
LINE
8
BLACK
6
CONTINUOUS
10
0.768226
20
1.30613
11
0.756119
21
1.30173
0
LINE
8
BLACK
6
CONTINUOUS
10
0.756119
20
1.30173
11
0.744606
21
1.29594
0
LINE
8
BLACK
6
CONTINUOUS
10
0.744606
20
1.29594
11
0.733842
21
1.28887
0
LINE
8
BLACK
6
CONTINUOUS
10
0.733842
20
1.28887
11
0.723973
21
1.28058
0
LINE
8
BLACK
6
CONTINUOUS
10
0.723973
20
1.28058
11
0.715132
21
1.27121
0
LINE
8
BLACK
6
CONTINUOUS
10
0.715132
20
1.27121
11
0.707438
21
1.26088
0
LINE
8
BLACK
6
CONTINUOUS
10
0.707438
20
1.26088
11
0.700997
21
1.24972
0
LINE
8
BLACK
6
CONTINUOUS
10
0.700997
20
1.24972
11
0.695894
21
1.23789
0
LINE
8
BLACK
6
CONTINUOUS
10
0.695894
20
1.23789
11
0.692199
21
1.22555
0
LINE
8
BLACK
6
CONTINUOUS
10
0.692199
20
1.22555
11
0.689962
21
1.21286
0
LINE
8
BLACK
6
CONTINUOUS
10
0.689962
20
1.21286
11
0.689213
21
1.2
0
LINE
8
BLACK
6
CONTINUOUS
10
0.689213
20
1.2
11
0.689962
21
1.18714
  0
ENDSEC
  0
EOF
