  0
SECTION
  2
HEADER
  9
$ANGBASE
  50
0.0
  9
$ANGDIR
  70
1
  9
$MEASUREMENT
  70
0
  0
ENDSEC
  0
SECTION
  2
TABLES
  0
TABLE
  2
LTYPE
  70
4
  0
LTYPE
  5
40F
  2
CONTINUOUS
  70
0
  3
Solid line
  72
65
  73
0
  40
0.0
  0
LTYPE
  5
410
  2
DASHDOT
 70
0
  3
Dash Dot ____ _ ____ _
 72
65
 73
4
 40
2.0
 49
1.25
 49
-0.25
 49
0.25
 49
-0.25
  0
LTYPE
  5
411
  2
DASHED
 70
0
  3
Dashed __ __ __ __ __
 72
65
 73
2
 40
0.75
 49
0.5
 49
-0.25
  0
LTYPE
  5
43B
  2
DOTTED
 70
0
  3
Dotted .  .  .  .
 72
65
 73
2
 40
0.2
 49
0.0
 49
-0.2
  0
ENDTAB
  0
TABLE
  2
STYLE
  70
4
  0
STYLE
  2
KICAD
  70
0
  40
0
  41
1
  42
1
  50
0
  71
0
  3
isocp.shx
  0
STYLE
  2
KICADB
  70
0
  40
0
  41
1
  42
1
  50
0
  71
0
  3
isocp.shx
  0
STYLE
  2
KICADI
  70
0
  40
0
  41
1
  42
1
  50
15
  71
0
  3
isocp.shx
  0
STYLE
  2
KICADBI
  70
0
  40
0
  41
1
  42
1
  50
15
  71
0
  3
isocp.shx
  0
ENDTAB
  0
TABLE
  2
LAYER
  70
1
  0
LAYER
  2
BLACK
  70
0
  62
7
  6
CONTINUOUS
  0
ENDTAB
  0
ENDSEC
  0
SECTION
  2
ENTITIES
0
LINE
8
BLACK
6
CONTINUOUS
10
0.308123
20
0.213375
11
0.307835
21
0.214071
0
LINE
8
BLACK
6
CONTINUOUS
10
0.307835
20
0.214071
11
0.307835
21
0.347929
0
LINE
8
BLACK
6
CONTINUOUS
10
0.307835
20
0.347929
11
0.308123
21
0.348625
0
LINE
8
BLACK
6
CONTINUOUS
10
0.308123
20
0.348625
11
0.308819
21
0.348913
0
LINE
8
BLACK
6
CONTINUOUS
10
0.308819
20
0.348913
11
0.411181
21
0.348913
0
LINE
8
BLACK
6
CONTINUOUS
10
0.411181
20
0.348913
11
0.411877
21
0.348625
0
LINE
8
BLACK
6
CONTINUOUS
10
0.411877
20
0.348625
11
0.412165
21
0.347929
0
LINE
8
BLACK
6
CONTINUOUS
10
0.412165
20
0.347929
11
0.412165
21
0.214071
0
LINE
8
BLACK
6
CONTINUOUS
10
0.412165
20
0.214071
11
0.411877
21
0.213375
0
LINE
8
BLACK
6
CONTINUOUS
10
0.411877
20
0.213375
11
0.411181
21
0.213087
0
LINE
8
BLACK
6
CONTINUOUS
10
0.411181
20
0.213087
11
0.308819
21
0.213087
0
LINE
8
BLACK
6
CONTINUOUS
10
0.308819
20
0.213087
11
0.308123
21
0.213375
0
LINE
8
BLACK
6
CONTINUOUS
10
0.309803
20
0.346945
11
0.309803
21
0.215055
0
LINE
8
BLACK
6
CONTINUOUS
10
0.309803
20
0.215055
11
0.410197
21
0.215055
0
LINE
8
BLACK
6
CONTINUOUS
10
0.410197
20
0.215055
11
0.410197
21
0.346945
0
LINE
8
BLACK
6
CONTINUOUS
10
0.410197
20
0.346945
11
0.309803
21
0.346945
0
LINE
8
BLACK
6
CONTINUOUS
10
0.612902
20
0.333162
11
0.612614
21
0.333858
0
LINE
8
BLACK
6
CONTINUOUS
10
0.612614
20
0.333858
11
0.612614
21
0.466142
0
LINE
8
BLACK
6
CONTINUOUS
10
0.612614
20
0.466142
11
0.612902
21
0.466838
0
LINE
8
BLACK
6
CONTINUOUS
10
0.612902
20
0.466838
11
0.613598
21
0.467126
0
LINE
8
BLACK
6
CONTINUOUS
10
0.613598
20
0.467126
11
0.688402
21
0.467126
0
LINE
8
BLACK
6
CONTINUOUS
10
0.688402
20
0.467126
11
0.689098
21
0.466838
0
LINE
8
BLACK
6
CONTINUOUS
10
0.689098
20
0.466838
11
0.689386
21
0.466142
0
LINE
8
BLACK
6
CONTINUOUS
10
0.689386
20
0.466142
11
0.689386
21
0.333858
0
LINE
8
BLACK
6
CONTINUOUS
10
0.689386
20
0.333858
11
0.689098
21
0.333162
0
LINE
8
BLACK
6
CONTINUOUS
10
0.689098
20
0.333162
11
0.688402
21
0.332874
0
LINE
8
BLACK
6
CONTINUOUS
10
0.688402
20
0.332874
11
0.613598
21
0.332874
0
LINE
8
BLACK
6
CONTINUOUS
10
0.613598
20
0.332874
11
0.612902
21
0.333162
0
LINE
8
BLACK
6
CONTINUOUS
10
0.614583
20
0.465157
11
0.614583
21
0.334843
0
LINE
8
BLACK
6
CONTINUOUS
10
0.614583
20
0.334843
11
0.687417
21
0.334843
0
LINE
8
BLACK
6
CONTINUOUS
10
0.687417
20
0.334843
11
0.687417
21
0.465157
0
LINE
8
BLACK
6
CONTINUOUS
10
0.687417
20
0.465157
11
0.614583
21
0.465157
0
LINE
8
BLACK
6
CONTINUOUS
10
0.322375
20
0.360721
11
0.322087
21
0.361417
0
LINE
8
BLACK
6
CONTINUOUS
10
0.322087
20
0.361417
11
0.322087
21
0.438583
0
LINE
8
BLACK
6
CONTINUOUS
10
0.322087
20
0.438583
11
0.322375
21
0.439279
0
LINE
8
BLACK
6
CONTINUOUS
10
0.322375
20
0.439279
11
0.323071
21
0.439567
0
LINE
8
BLACK
6
CONTINUOUS
10
0.323071
20
0.439567
11
0.456929
21
0.439567
0
LINE
8
BLACK
6
CONTINUOUS
10
0.456929
20
0.439567
11
0.457625
21
0.439279
0
LINE
8
BLACK
6
CONTINUOUS
10
0.457625
20
0.439279
11
0.457913
21
0.438583
0
LINE
8
BLACK
6
CONTINUOUS
10
0.457913
20
0.438583
11
0.457913
21
0.361417
0
LINE
8
BLACK
6
CONTINUOUS
10
0.457913
20
0.361417
11
0.457625
21
0.360721
0
LINE
8
BLACK
6
CONTINUOUS
10
0.457625
20
0.360721
11
0.456929
21
0.360433
0
LINE
8
BLACK
6
CONTINUOUS
10
0.456929
20
0.360433
11
0.323071
21
0.360433
0
LINE
8
BLACK
6
CONTINUOUS
10
0.323071
20
0.360433
11
0.322375
21
0.360721
0
LINE
8
BLACK
6
CONTINUOUS
10
0.324055
20
0.437598
11
0.324055
21
0.362402
0
LINE
8
BLACK
6
CONTINUOUS
10
0.324055
20
0.362402
11
0.455945
21
0.362402
0
LINE
8
BLACK
6
CONTINUOUS
10
0.455945
20
0.362402
11
0.455945
21
0.437598
0
LINE
8
BLACK
6
CONTINUOUS
10
0.455945
20
0.437598
11
0.324055
21
0.437598
0
LINE
8
BLACK
6
CONTINUOUS
10
0.190406
20
0.461509
11
0.190118
21
0.462205
0
LINE
8
BLACK
6
CONTINUOUS
10
0.190118
20
0.462205
11
0.190118
21
0.737795
0
LINE
8
BLACK
6
CONTINUOUS
10
0.190118
20
0.737795
11
0.190406
21
0.738491
0
LINE
8
BLACK
6
CONTINUOUS
10
0.190406
20
0.738491
11
0.191102
21
0.73878
0
LINE
8
BLACK
6
CONTINUOUS
10
0.191102
20
0.73878
11
0.328898
21
0.73878
0
LINE
8
BLACK
6
CONTINUOUS
10
0.328898
20
0.73878
11
0.329594
21
0.738491
0
LINE
8
BLACK
6
CONTINUOUS
10
0.329594
20
0.738491
11
0.329882
21
0.737795
0
LINE
8
BLACK
6
CONTINUOUS
10
0.329882
20
0.737795
11
0.329882
21
0.462205
0
LINE
8
BLACK
6
CONTINUOUS
10
0.329882
20
0.462205
11
0.329594
21
0.461509
0
LINE
8
BLACK
6
CONTINUOUS
10
0.329594
20
0.461509
11
0.328898
21
0.46122
0
LINE
8
BLACK
6
CONTINUOUS
10
0.328898
20
0.46122
11
0.191102
21
0.46122
0
LINE
8
BLACK
6
CONTINUOUS
10
0.191102
20
0.46122
11
0.190406
21
0.461509
0
LINE
8
BLACK
6
CONTINUOUS
10
0.192087
20
0.736811
11
0.192087
21
0.463189
0
LINE
8
BLACK
6
CONTINUOUS
10
0.192087
20
0.463189
11
0.327913
21
0.463189
0
LINE
8
BLACK
6
CONTINUOUS
10
0.327913
20
0.463189
11
0.327913
21
0.736811
0
LINE
8
BLACK
6
CONTINUOUS
10
0.327913
20
0.736811
11
0.192087
21
0.736811
0
LINE
8
BLACK
6
CONTINUOUS
10
0.570721
20
0.492375
11
0.570433
21
0.493071
0
LINE
8
BLACK
6
CONTINUOUS
10
0.570433
20
0.493071
11
0.570433
21
0.626929
0
LINE
8
BLACK
6
CONTINUOUS
10
0.570433
20
0.626929
11
0.570721
21
0.627625
0
LINE
8
BLACK
6
CONTINUOUS
10
0.570721
20
0.627625
11
0.571417
21
0.627913
0
LINE
8
BLACK
6
CONTINUOUS
10
0.571417
20
0.627913
11
0.648583
21
0.627913
0
LINE
8
BLACK
6
CONTINUOUS
10
0.648583
20
0.627913
11
0.649279
21
0.627625
0
LINE
8
BLACK
6
CONTINUOUS
10
0.649279
20
0.627625
11
0.649567
21
0.626929
0
LINE
8
BLACK
6
CONTINUOUS
10
0.649567
20
0.626929
11
0.649567
21
0.493071
0
LINE
8
BLACK
6
CONTINUOUS
10
0.649567
20
0.493071
11
0.649279
21
0.492375
0
LINE
8
BLACK
6
CONTINUOUS
10
0.649279
20
0.492375
11
0.648583
21
0.492087
0
LINE
8
BLACK
6
CONTINUOUS
10
0.648583
20
0.492087
11
0.571417
21
0.492087
0
LINE
8
BLACK
6
CONTINUOUS
10
0.571417
20
0.492087
11
0.570721
21
0.492375
0
LINE
8
BLACK
6
CONTINUOUS
10
0.572402
20
0.625945
11
0.572402
21
0.494055
0
LINE
8
BLACK
6
CONTINUOUS
10
0.572402
20
0.494055
11
0.647598
21
0.494055
0
LINE
8
BLACK
6
CONTINUOUS
10
0.647598
20
0.494055
11
0.647598
21
0.625945
0
LINE
8
BLACK
6
CONTINUOUS
10
0.647598
20
0.625945
11
0.572402
21
0.625945
0
LINE
8
BLACK
6
CONTINUOUS
10
0.612902
20
0.733162
11
0.612614
21
0.733858
0
LINE
8
BLACK
6
CONTINUOUS
10
0.612614
20
0.733858
11
0.612614
21
0.866142
0
LINE
8
BLACK
6
CONTINUOUS
10
0.612614
20
0.866142
11
0.612902
21
0.866838
0
LINE
8
BLACK
6
CONTINUOUS
10
0.612902
20
0.866838
11
0.613598
21
0.867126
0
LINE
8
BLACK
6
CONTINUOUS
10
0.613598
20
0.867126
11
0.688402
21
0.867126
0
LINE
8
BLACK
6
CONTINUOUS
10
0.688402
20
0.867126
11
0.689098
21
0.866838
0
LINE
8
BLACK
6
CONTINUOUS
10
0.689098
20
0.866838
11
0.689386
21
0.866142
0
LINE
8
BLACK
6
CONTINUOUS
10
0.689386
20
0.866142
11
0.689386
21
0.733858
0
LINE
8
BLACK
6
CONTINUOUS
10
0.689386
20
0.733858
11
0.689098
21
0.733162
0
LINE
8
BLACK
6
CONTINUOUS
10
0.689098
20
0.733162
11
0.688402
21
0.732874
0
LINE
8
BLACK
6
CONTINUOUS
10
0.688402
20
0.732874
11
0.613598
21
0.732874
0
LINE
8
BLACK
6
CONTINUOUS
10
0.613598
20
0.732874
11
0.612902
21
0.733162
0
LINE
8
BLACK
6
CONTINUOUS
10
0.614583
20
0.865157
11
0.614583
21
0.734843
0
LINE
8
BLACK
6
CONTINUOUS
10
0.614583
20
0.734843
11
0.687417
21
0.734843
0
LINE
8
BLACK
6
CONTINUOUS
10
0.687417
20
0.734843
11
0.687417
21
0.865157
0
LINE
8
BLACK
6
CONTINUOUS
10
0.687417
20
0.865157
11
0.614583
21
0.865157
0
LINE
8
BLACK
6
CONTINUOUS
10
0.382375
20
0.770721
11
0.382087
21
0.771417
0
LINE
8
BLACK
6
CONTINUOUS
10
0.382087
20
0.771417
11
0.382087
21
0.848583
0
LINE
8
BLACK
6
CONTINUOUS
10
0.382087
20
0.848583
11
0.382375
21
0.849279
0
LINE
8
BLACK
6
CONTINUOUS
10
0.382375
20
0.849279
11
0.383071
21
0.849567
0
LINE
8
BLACK
6
CONTINUOUS
10
0.383071
20
0.849567
11
0.516929
21
0.849567
0
LINE
8
BLACK
6
CONTINUOUS
10
0.516929
20
0.849567
11
0.517625
21
0.849279
0
LINE
8
BLACK
6
CONTINUOUS
10
0.517625
20
0.849279
11
0.517913
21
0.848583
0
LINE
8
BLACK
6
CONTINUOUS
10
0.517913
20
0.848583
11
0.517913
21
0.771417
0
LINE
8
BLACK
6
CONTINUOUS
10
0.517913
20
0.771417
11
0.517625
21
0.770721
0
LINE
8
BLACK
6
CONTINUOUS
10
0.517625
20
0.770721
11
0.516929
21
0.770433
0
LINE
8
BLACK
6
CONTINUOUS
10
0.516929
20
0.770433
11
0.383071
21
0.770433
0
LINE
8
BLACK
6
CONTINUOUS
10
0.383071
20
0.770433
11
0.382375
21
0.770721
0
LINE
8
BLACK
6
CONTINUOUS
10
0.384055
20
0.847598
11
0.384055
21
0.772402
0
LINE
8
BLACK
6
CONTINUOUS
10
0.384055
20
0.772402
11
0.515945
21
0.772402
0
LINE
8
BLACK
6
CONTINUOUS
10
0.515945
20
0.772402
11
0.515945
21
0.847598
0
LINE
8
BLACK
6
CONTINUOUS
10
0.515945
20
0.847598
11
0.384055
21
0.847598
0
LINE
8
BLACK
6
CONTINUOUS
10
0.242375
20
0.770721
11
0.242087
21
0.771417
0
LINE
8
BLACK
6
CONTINUOUS
10
0.242087
20
0.771417
11
0.242087
21
0.848583
0
LINE
8
BLACK
6
CONTINUOUS
10
0.242087
20
0.848583
11
0.242375
21
0.849279
0
LINE
8
BLACK
6
CONTINUOUS
10
0.242375
20
0.849279
11
0.243071
21
0.849567
0
LINE
8
BLACK
6
CONTINUOUS
10
0.243071
20
0.849567
11
0.376929
21
0.849567
0
LINE
8
BLACK
6
CONTINUOUS
10
0.376929
20
0.849567
11
0.377625
21
0.849279
0
LINE
8
BLACK
6
CONTINUOUS
10
0.377625
20
0.849279
11
0.377913
21
0.848583
0
LINE
8
BLACK
6
CONTINUOUS
10
0.377913
20
0.848583
11
0.377913
21
0.771417
0
LINE
8
BLACK
6
CONTINUOUS
10
0.377913
20
0.771417
11
0.377625
21
0.770721
0
LINE
8
BLACK
6
CONTINUOUS
10
0.377625
20
0.770721
11
0.376929
21
0.770433
0
LINE
8
BLACK
6
CONTINUOUS
10
0.376929
20
0.770433
11
0.243071
21
0.770433
0
LINE
8
BLACK
6
CONTINUOUS
10
0.243071
20
0.770433
11
0.242375
21
0.770721
0
LINE
8
BLACK
6
CONTINUOUS
10
0.244055
20
0.847598
11
0.244055
21
0.772402
0
LINE
8
BLACK
6
CONTINUOUS
10
0.244055
20
0.772402
11
0.375945
21
0.772402
0
LINE
8
BLACK
6
CONTINUOUS
10
0.375945
20
0.772402
11
0.375945
21
0.847598
0
LINE
8
BLACK
6
CONTINUOUS
10
0.375945
20
0.847598
11
0.244055
21
0.847598
  0
ENDSEC
  0
EOF
