  0
SECTION
  2
HEADER
  9
$ANGBASE
  50
0.0
  9
$ANGDIR
  70
1
  9
$MEASUREMENT
  70
0
  0
ENDSEC
  0
SECTION
  2
TABLES
  0
TABLE
  2
LTYPE
  70
4
  0
LTYPE
  5
40F
  2
CONTINUOUS
  70
0
  3
Solid line
  72
65
  73
0
  40
0.0
  0
LTYPE
  5
410
  2
DASHDOT
 70
0
  3
Dash Dot ____ _ ____ _
 72
65
 73
4
 40
2.0
 49
1.25
 49
-0.25
 49
0.25
 49
-0.25
  0
LTYPE
  5
411
  2
DASHED
 70
0
  3
Dashed __ __ __ __ __
 72
65
 73
2
 40
0.75
 49
0.5
 49
-0.25
  0
LTYPE
  5
43B
  2
DOTTED
 70
0
  3
Dotted .  .  .  .
 72
65
 73
2
 40
0.2
 49
0.0
 49
-0.2
  0
ENDTAB
  0
TABLE
  2
STYLE
  70
4
  0
STYLE
  2
KICAD
  70
0
  40
0
  41
1
  42
1
  50
0
  71
0
  3
isocp.shx
  0
STYLE
  2
KICADB
  70
0
  40
0
  41
1
  42
1
  50
0
  71
0
  3
isocp.shx
  0
STYLE
  2
KICADI
  70
0
  40
0
  41
1
  42
1
  50
15
  71
0
  3
isocp.shx
  0
STYLE
  2
KICADBI
  70
0
  40
0
  41
1
  42
1
  50
15
  71
0
  3
isocp.shx
  0
ENDTAB
  0
TABLE
  2
LAYER
  70
1
  0
LAYER
  2
BLACK
  70
0
  62
7
  6
CONTINUOUS
  0
ENDTAB
  0
ENDSEC
  0
SECTION
  2
ENTITIES
0
LINE
8
BLACK
6
CONTINUOUS
10
0.340315
20
0.225882
11
0.328504
21
0.225882
0
LINE
8
BLACK
6
CONTINUOUS
10
0.328504
20
0.225882
11
0.328504
21
0.265252
0
LINE
8
BLACK
6
CONTINUOUS
10
0.328504
20
0.265252
11
0.340315
21
0.265252
0
LINE
8
BLACK
6
CONTINUOUS
10
0.340315
20
0.265252
11
0.340315
21
0.225882
0
LINE
8
BLACK
6
CONTINUOUS
10
0.365906
20
0.225882
11
0.354094
21
0.225882
0
LINE
8
BLACK
6
CONTINUOUS
10
0.354094
20
0.225882
11
0.354094
21
0.265252
0
LINE
8
BLACK
6
CONTINUOUS
10
0.354094
20
0.265252
11
0.365906
21
0.265252
0
LINE
8
BLACK
6
CONTINUOUS
10
0.365906
20
0.265252
11
0.365906
21
0.225882
0
LINE
8
BLACK
6
CONTINUOUS
10
0.391496
20
0.225882
11
0.379685
21
0.225882
0
LINE
8
BLACK
6
CONTINUOUS
10
0.379685
20
0.225882
11
0.379685
21
0.265252
0
LINE
8
BLACK
6
CONTINUOUS
10
0.379685
20
0.265252
11
0.391496
21
0.265252
0
LINE
8
BLACK
6
CONTINUOUS
10
0.391496
20
0.265252
11
0.391496
21
0.225882
0
LINE
8
BLACK
6
CONTINUOUS
10
0.391496
20
0.296748
11
0.379685
21
0.296748
0
LINE
8
BLACK
6
CONTINUOUS
10
0.379685
20
0.296748
11
0.379685
21
0.336118
0
LINE
8
BLACK
6
CONTINUOUS
10
0.379685
20
0.336118
11
0.391496
21
0.336118
0
LINE
8
BLACK
6
CONTINUOUS
10
0.391496
20
0.336118
11
0.391496
21
0.296748
0
LINE
8
BLACK
6
CONTINUOUS
10
0.365906
20
0.296748
11
0.354094
21
0.296748
0
LINE
8
BLACK
6
CONTINUOUS
10
0.354094
20
0.296748
11
0.354094
21
0.336118
0
LINE
8
BLACK
6
CONTINUOUS
10
0.354094
20
0.336118
11
0.365906
21
0.336118
0
LINE
8
BLACK
6
CONTINUOUS
10
0.365906
20
0.336118
11
0.365906
21
0.296748
0
LINE
8
BLACK
6
CONTINUOUS
10
0.340315
20
0.296748
11
0.328504
21
0.296748
0
LINE
8
BLACK
6
CONTINUOUS
10
0.328504
20
0.296748
11
0.328504
21
0.336118
0
LINE
8
BLACK
6
CONTINUOUS
10
0.328504
20
0.336118
11
0.340315
21
0.336118
0
LINE
8
BLACK
6
CONTINUOUS
10
0.340315
20
0.336118
11
0.340315
21
0.296748
0
LINE
8
BLACK
6
CONTINUOUS
10
0.672483
20
0.383503
11
0.675676
21
0.381369
0
LINE
8
BLACK
6
CONTINUOUS
10
0.675676
20
0.381369
11
0.67781
21
0.378176
0
LINE
8
BLACK
6
CONTINUOUS
10
0.67781
20
0.378176
11
0.678559
21
0.374409
0
LINE
8
BLACK
6
CONTINUOUS
10
0.678559
20
0.374409
11
0.678559
21
0.35374
0
LINE
8
BLACK
6
CONTINUOUS
10
0.678559
20
0.35374
11
0.67781
21
0.349974
0
LINE
8
BLACK
6
CONTINUOUS
10
0.67781
20
0.349974
11
0.675676
21
0.34678
0
LINE
8
BLACK
6
CONTINUOUS
10
0.675676
20
0.34678
11
0.672483
21
0.344647
0
LINE
8
BLACK
6
CONTINUOUS
10
0.672483
20
0.344647
11
0.668717
21
0.343898
0
LINE
8
BLACK
6
CONTINUOUS
10
0.668717
20
0.343898
11
0.633283
21
0.343898
0
LINE
8
BLACK
6
CONTINUOUS
10
0.633283
20
0.343898
11
0.629517
21
0.344647
0
LINE
8
BLACK
6
CONTINUOUS
10
0.629517
20
0.344647
11
0.626324
21
0.34678
0
LINE
8
BLACK
6
CONTINUOUS
10
0.626324
20
0.34678
11
0.62419
21
0.349974
0
LINE
8
BLACK
6
CONTINUOUS
10
0.62419
20
0.349974
11
0.623441
21
0.35374
0
LINE
8
BLACK
6
CONTINUOUS
10
0.623441
20
0.35374
11
0.623441
21
0.374409
0
LINE
8
BLACK
6
CONTINUOUS
10
0.623441
20
0.374409
11
0.62419
21
0.378176
0
LINE
8
BLACK
6
CONTINUOUS
10
0.62419
20
0.378176
11
0.626324
21
0.381369
0
LINE
8
BLACK
6
CONTINUOUS
10
0.626324
20
0.381369
11
0.629517
21
0.383503
0
LINE
8
BLACK
6
CONTINUOUS
10
0.629517
20
0.383503
11
0.633283
21
0.384252
0
LINE
8
BLACK
6
CONTINUOUS
10
0.633283
20
0.384252
11
0.668717
21
0.384252
0
LINE
8
BLACK
6
CONTINUOUS
10
0.668717
20
0.384252
11
0.672483
21
0.383503
0
LINE
8
BLACK
6
CONTINUOUS
10
0.366208
20
0.427794
11
0.369401
21
0.425661
0
LINE
8
BLACK
6
CONTINUOUS
10
0.369401
20
0.425661
11
0.371534
21
0.422467
0
LINE
8
BLACK
6
CONTINUOUS
10
0.371534
20
0.422467
11
0.372283
21
0.418701
0
LINE
8
BLACK
6
CONTINUOUS
10
0.372283
20
0.418701
11
0.372283
21
0.381299
0
LINE
8
BLACK
6
CONTINUOUS
10
0.372283
20
0.381299
11
0.371534
21
0.377533
0
LINE
8
BLACK
6
CONTINUOUS
10
0.371534
20
0.377533
11
0.369401
21
0.374339
0
LINE
8
BLACK
6
CONTINUOUS
10
0.369401
20
0.374339
11
0.366208
21
0.372206
0
LINE
8
BLACK
6
CONTINUOUS
10
0.366208
20
0.372206
11
0.362441
21
0.371457
0
LINE
8
BLACK
6
CONTINUOUS
10
0.362441
20
0.371457
11
0.342756
21
0.371457
0
LINE
8
BLACK
6
CONTINUOUS
10
0.342756
20
0.371457
11
0.338989
21
0.372206
0
LINE
8
BLACK
6
CONTINUOUS
10
0.338989
20
0.372206
11
0.335796
21
0.374339
0
LINE
8
BLACK
6
CONTINUOUS
10
0.335796
20
0.374339
11
0.333663
21
0.377533
0
LINE
8
BLACK
6
CONTINUOUS
10
0.333663
20
0.377533
11
0.332913
21
0.381299
0
LINE
8
BLACK
6
CONTINUOUS
10
0.332913
20
0.381299
11
0.332913
21
0.418701
0
LINE
8
BLACK
6
CONTINUOUS
10
0.332913
20
0.418701
11
0.333663
21
0.422467
0
LINE
8
BLACK
6
CONTINUOUS
10
0.333663
20
0.422467
11
0.335796
21
0.425661
0
LINE
8
BLACK
6
CONTINUOUS
10
0.335796
20
0.425661
11
0.338989
21
0.427794
0
LINE
8
BLACK
6
CONTINUOUS
10
0.338989
20
0.427794
11
0.342756
21
0.428543
0
LINE
8
BLACK
6
CONTINUOUS
10
0.342756
20
0.428543
11
0.362441
21
0.428543
0
LINE
8
BLACK
6
CONTINUOUS
10
0.362441
20
0.428543
11
0.366208
21
0.427794
0
LINE
8
BLACK
6
CONTINUOUS
10
0.441011
20
0.427794
11
0.444204
21
0.425661
0
LINE
8
BLACK
6
CONTINUOUS
10
0.444204
20
0.425661
11
0.446337
21
0.422467
0
LINE
8
BLACK
6
CONTINUOUS
10
0.446337
20
0.422467
11
0.447087
21
0.418701
0
LINE
8
BLACK
6
CONTINUOUS
10
0.447087
20
0.418701
11
0.447087
21
0.381299
0
LINE
8
BLACK
6
CONTINUOUS
10
0.447087
20
0.381299
11
0.446337
21
0.377533
0
LINE
8
BLACK
6
CONTINUOUS
10
0.446337
20
0.377533
11
0.444204
21
0.374339
0
LINE
8
BLACK
6
CONTINUOUS
10
0.444204
20
0.374339
11
0.441011
21
0.372206
0
LINE
8
BLACK
6
CONTINUOUS
10
0.441011
20
0.372206
11
0.437244
21
0.371457
0
LINE
8
BLACK
6
CONTINUOUS
10
0.437244
20
0.371457
11
0.417559
21
0.371457
0
LINE
8
BLACK
6
CONTINUOUS
10
0.417559
20
0.371457
11
0.413792
21
0.372206
0
LINE
8
BLACK
6
CONTINUOUS
10
0.413792
20
0.372206
11
0.410599
21
0.374339
0
LINE
8
BLACK
6
CONTINUOUS
10
0.410599
20
0.374339
11
0.408466
21
0.377533
0
LINE
8
BLACK
6
CONTINUOUS
10
0.408466
20
0.377533
11
0.407717
21
0.381299
0
LINE
8
BLACK
6
CONTINUOUS
10
0.407717
20
0.381299
11
0.407717
21
0.418701
0
LINE
8
BLACK
6
CONTINUOUS
10
0.407717
20
0.418701
11
0.408466
21
0.422467
0
LINE
8
BLACK
6
CONTINUOUS
10
0.408466
20
0.422467
11
0.410599
21
0.425661
0
LINE
8
BLACK
6
CONTINUOUS
10
0.410599
20
0.425661
11
0.413792
21
0.427794
0
LINE
8
BLACK
6
CONTINUOUS
10
0.413792
20
0.427794
11
0.417559
21
0.428543
0
LINE
8
BLACK
6
CONTINUOUS
10
0.417559
20
0.428543
11
0.437244
21
0.428543
0
LINE
8
BLACK
6
CONTINUOUS
10
0.437244
20
0.428543
11
0.441011
21
0.427794
0
LINE
8
BLACK
6
CONTINUOUS
10
0.672483
20
0.455353
11
0.675676
21
0.45322
0
LINE
8
BLACK
6
CONTINUOUS
10
0.675676
20
0.45322
11
0.67781
21
0.450026
0
LINE
8
BLACK
6
CONTINUOUS
10
0.67781
20
0.450026
11
0.678559
21
0.44626
0
LINE
8
BLACK
6
CONTINUOUS
10
0.678559
20
0.44626
11
0.678559
21
0.425591
0
LINE
8
BLACK
6
CONTINUOUS
10
0.678559
20
0.425591
11
0.67781
21
0.421824
0
LINE
8
BLACK
6
CONTINUOUS
10
0.67781
20
0.421824
11
0.675676
21
0.418631
0
LINE
8
BLACK
6
CONTINUOUS
10
0.675676
20
0.418631
11
0.672483
21
0.416497
0
LINE
8
BLACK
6
CONTINUOUS
10
0.672483
20
0.416497
11
0.668717
21
0.415748
0
LINE
8
BLACK
6
CONTINUOUS
10
0.668717
20
0.415748
11
0.633283
21
0.415748
0
LINE
8
BLACK
6
CONTINUOUS
10
0.633283
20
0.415748
11
0.629517
21
0.416497
0
LINE
8
BLACK
6
CONTINUOUS
10
0.629517
20
0.416497
11
0.626324
21
0.418631
0
LINE
8
BLACK
6
CONTINUOUS
10
0.626324
20
0.418631
11
0.62419
21
0.421824
0
LINE
8
BLACK
6
CONTINUOUS
10
0.62419
20
0.421824
11
0.623441
21
0.425591
0
LINE
8
BLACK
6
CONTINUOUS
10
0.623441
20
0.425591
11
0.623441
21
0.44626
0
LINE
8
BLACK
6
CONTINUOUS
10
0.623441
20
0.44626
11
0.62419
21
0.450026
0
LINE
8
BLACK
6
CONTINUOUS
10
0.62419
20
0.450026
11
0.626324
21
0.45322
0
LINE
8
BLACK
6
CONTINUOUS
10
0.626324
20
0.45322
11
0.629517
21
0.455353
0
LINE
8
BLACK
6
CONTINUOUS
10
0.629517
20
0.455353
11
0.633283
21
0.456102
0
LINE
8
BLACK
6
CONTINUOUS
10
0.633283
20
0.456102
11
0.668717
21
0.456102
0
LINE
8
BLACK
6
CONTINUOUS
10
0.668717
20
0.456102
11
0.672483
21
0.455353
0
LINE
8
BLACK
6
CONTINUOUS
10
0.295433
20
0.472047
11
0.224567
21
0.472047
0
LINE
8
BLACK
6
CONTINUOUS
10
0.224567
20
0.472047
11
0.224567
21
0.570472
0
LINE
8
BLACK
6
CONTINUOUS
10
0.224567
20
0.570472
11
0.295433
21
0.570472
0
LINE
8
BLACK
6
CONTINUOUS
10
0.295433
20
0.570472
11
0.295433
21
0.472047
0
LINE
8
BLACK
6
CONTINUOUS
10
0.632467
20
0.541534
11
0.635661
21
0.539401
0
LINE
8
BLACK
6
CONTINUOUS
10
0.635661
20
0.539401
11
0.637794
21
0.536208
0
LINE
8
BLACK
6
CONTINUOUS
10
0.637794
20
0.536208
11
0.638543
21
0.532441
0
LINE
8
BLACK
6
CONTINUOUS
10
0.638543
20
0.532441
11
0.638543
21
0.512756
0
LINE
8
BLACK
6
CONTINUOUS
10
0.638543
20
0.512756
11
0.637794
21
0.508989
0
LINE
8
BLACK
6
CONTINUOUS
10
0.637794
20
0.508989
11
0.635661
21
0.505796
0
LINE
8
BLACK
6
CONTINUOUS
10
0.635661
20
0.505796
11
0.632467
21
0.503663
0
LINE
8
BLACK
6
CONTINUOUS
10
0.632467
20
0.503663
11
0.628701
21
0.502913
0
LINE
8
BLACK
6
CONTINUOUS
10
0.628701
20
0.502913
11
0.591299
21
0.502913
0
LINE
8
BLACK
6
CONTINUOUS
10
0.591299
20
0.502913
11
0.587533
21
0.503663
0
LINE
8
BLACK
6
CONTINUOUS
10
0.587533
20
0.503663
11
0.584339
21
0.505796
0
LINE
8
BLACK
6
CONTINUOUS
10
0.584339
20
0.505796
11
0.582206
21
0.508989
0
LINE
8
BLACK
6
CONTINUOUS
10
0.582206
20
0.508989
11
0.581457
21
0.512756
0
LINE
8
BLACK
6
CONTINUOUS
10
0.581457
20
0.512756
11
0.581457
21
0.532441
0
LINE
8
BLACK
6
CONTINUOUS
10
0.581457
20
0.532441
11
0.582206
21
0.536208
0
LINE
8
BLACK
6
CONTINUOUS
10
0.582206
20
0.536208
11
0.584339
21
0.539401
0
LINE
8
BLACK
6
CONTINUOUS
10
0.584339
20
0.539401
11
0.587533
21
0.541534
0
LINE
8
BLACK
6
CONTINUOUS
10
0.587533
20
0.541534
11
0.591299
21
0.542283
0
LINE
8
BLACK
6
CONTINUOUS
10
0.591299
20
0.542283
11
0.628701
21
0.542283
0
LINE
8
BLACK
6
CONTINUOUS
10
0.628701
20
0.542283
11
0.632467
21
0.541534
0
LINE
8
BLACK
6
CONTINUOUS
10
0.632467
20
0.616337
11
0.635661
21
0.614204
0
LINE
8
BLACK
6
CONTINUOUS
10
0.635661
20
0.614204
11
0.637794
21
0.611011
0
LINE
8
BLACK
6
CONTINUOUS
10
0.637794
20
0.611011
11
0.638543
21
0.607244
0
LINE
8
BLACK
6
CONTINUOUS
10
0.638543
20
0.607244
11
0.638543
21
0.587559
0
LINE
8
BLACK
6
CONTINUOUS
10
0.638543
20
0.587559
11
0.637794
21
0.583792
0
LINE
8
BLACK
6
CONTINUOUS
10
0.637794
20
0.583792
11
0.635661
21
0.580599
0
LINE
8
BLACK
6
CONTINUOUS
10
0.635661
20
0.580599
11
0.632467
21
0.578466
0
LINE
8
BLACK
6
CONTINUOUS
10
0.632467
20
0.578466
11
0.628701
21
0.577717
0
LINE
8
BLACK
6
CONTINUOUS
10
0.628701
20
0.577717
11
0.591299
21
0.577717
0
LINE
8
BLACK
6
CONTINUOUS
10
0.591299
20
0.577717
11
0.587533
21
0.578466
0
LINE
8
BLACK
6
CONTINUOUS
10
0.587533
20
0.578466
11
0.584339
21
0.580599
0
LINE
8
BLACK
6
CONTINUOUS
10
0.584339
20
0.580599
11
0.582206
21
0.583792
0
LINE
8
BLACK
6
CONTINUOUS
10
0.582206
20
0.583792
11
0.581457
21
0.587559
0
LINE
8
BLACK
6
CONTINUOUS
10
0.581457
20
0.587559
11
0.581457
21
0.607244
0
LINE
8
BLACK
6
CONTINUOUS
10
0.581457
20
0.607244
11
0.582206
21
0.611011
0
LINE
8
BLACK
6
CONTINUOUS
10
0.582206
20
0.611011
11
0.584339
21
0.614204
0
LINE
8
BLACK
6
CONTINUOUS
10
0.584339
20
0.614204
11
0.587533
21
0.616337
0
LINE
8
BLACK
6
CONTINUOUS
10
0.587533
20
0.616337
11
0.591299
21
0.617087
0
LINE
8
BLACK
6
CONTINUOUS
10
0.591299
20
0.617087
11
0.628701
21
0.617087
0
LINE
8
BLACK
6
CONTINUOUS
10
0.628701
20
0.617087
11
0.632467
21
0.616337
0
LINE
8
BLACK
6
CONTINUOUS
10
0.295433
20
0.629528
11
0.224567
21
0.629528
0
LINE
8
BLACK
6
CONTINUOUS
10
0.224567
20
0.629528
11
0.224567
21
0.727953
0
LINE
8
BLACK
6
CONTINUOUS
10
0.224567
20
0.727953
11
0.295433
21
0.727953
0
LINE
8
BLACK
6
CONTINUOUS
10
0.295433
20
0.727953
11
0.295433
21
0.629528
0
LINE
8
BLACK
6
CONTINUOUS
10
0.672483
20
0.783503
11
0.675676
21
0.781369
0
LINE
8
BLACK
6
CONTINUOUS
10
0.675676
20
0.781369
11
0.67781
21
0.778176
0
LINE
8
BLACK
6
CONTINUOUS
10
0.67781
20
0.778176
11
0.678559
21
0.774409
0
LINE
8
BLACK
6
CONTINUOUS
10
0.678559
20
0.774409
11
0.678559
21
0.75374
0
LINE
8
BLACK
6
CONTINUOUS
10
0.678559
20
0.75374
11
0.67781
21
0.749974
0
LINE
8
BLACK
6
CONTINUOUS
10
0.67781
20
0.749974
11
0.675676
21
0.74678
0
LINE
8
BLACK
6
CONTINUOUS
10
0.675676
20
0.74678
11
0.672483
21
0.744647
0
LINE
8
BLACK
6
CONTINUOUS
10
0.672483
20
0.744647
11
0.668717
21
0.743898
0
LINE
8
BLACK
6
CONTINUOUS
10
0.668717
20
0.743898
11
0.633283
21
0.743898
0
LINE
8
BLACK
6
CONTINUOUS
10
0.633283
20
0.743898
11
0.629517
21
0.744647
0
LINE
8
BLACK
6
CONTINUOUS
10
0.629517
20
0.744647
11
0.626324
21
0.74678
0
LINE
8
BLACK
6
CONTINUOUS
10
0.626324
20
0.74678
11
0.62419
21
0.749974
0
LINE
8
BLACK
6
CONTINUOUS
10
0.62419
20
0.749974
11
0.623441
21
0.75374
0
LINE
8
BLACK
6
CONTINUOUS
10
0.623441
20
0.75374
11
0.623441
21
0.774409
0
LINE
8
BLACK
6
CONTINUOUS
10
0.623441
20
0.774409
11
0.62419
21
0.778176
0
LINE
8
BLACK
6
CONTINUOUS
10
0.62419
20
0.778176
11
0.626324
21
0.781369
0
LINE
8
BLACK
6
CONTINUOUS
10
0.626324
20
0.781369
11
0.629517
21
0.783503
0
LINE
8
BLACK
6
CONTINUOUS
10
0.629517
20
0.783503
11
0.633283
21
0.784252
0
LINE
8
BLACK
6
CONTINUOUS
10
0.633283
20
0.784252
11
0.668717
21
0.784252
0
LINE
8
BLACK
6
CONTINUOUS
10
0.668717
20
0.784252
11
0.672483
21
0.783503
0
LINE
8
BLACK
6
CONTINUOUS
10
0.501011
20
0.837794
11
0.504204
21
0.835661
0
LINE
8
BLACK
6
CONTINUOUS
10
0.504204
20
0.835661
11
0.506337
21
0.832467
0
LINE
8
BLACK
6
CONTINUOUS
10
0.506337
20
0.832467
11
0.507087
21
0.828701
0
LINE
8
BLACK
6
CONTINUOUS
10
0.507087
20
0.828701
11
0.507087
21
0.791299
0
LINE
8
BLACK
6
CONTINUOUS
10
0.507087
20
0.791299
11
0.506337
21
0.787533
0
LINE
8
BLACK
6
CONTINUOUS
10
0.506337
20
0.787533
11
0.504204
21
0.784339
0
LINE
8
BLACK
6
CONTINUOUS
10
0.504204
20
0.784339
11
0.501011
21
0.782206
0
LINE
8
BLACK
6
CONTINUOUS
10
0.501011
20
0.782206
11
0.497244
21
0.781457
0
LINE
8
BLACK
6
CONTINUOUS
10
0.497244
20
0.781457
11
0.477559
21
0.781457
0
LINE
8
BLACK
6
CONTINUOUS
10
0.477559
20
0.781457
11
0.473792
21
0.782206
0
LINE
8
BLACK
6
CONTINUOUS
10
0.473792
20
0.782206
11
0.470599
21
0.784339
0
LINE
8
BLACK
6
CONTINUOUS
10
0.470599
20
0.784339
11
0.468466
21
0.787533
0
LINE
8
BLACK
6
CONTINUOUS
10
0.468466
20
0.787533
11
0.467717
21
0.791299
0
LINE
8
BLACK
6
CONTINUOUS
10
0.467717
20
0.791299
11
0.467717
21
0.828701
0
LINE
8
BLACK
6
CONTINUOUS
10
0.467717
20
0.828701
11
0.468466
21
0.832467
0
LINE
8
BLACK
6
CONTINUOUS
10
0.468466
20
0.832467
11
0.470599
21
0.835661
0
LINE
8
BLACK
6
CONTINUOUS
10
0.470599
20
0.835661
11
0.473792
21
0.837794
0
LINE
8
BLACK
6
CONTINUOUS
10
0.473792
20
0.837794
11
0.477559
21
0.838543
0
LINE
8
BLACK
6
CONTINUOUS
10
0.477559
20
0.838543
11
0.497244
21
0.838543
0
LINE
8
BLACK
6
CONTINUOUS
10
0.497244
20
0.838543
11
0.501011
21
0.837794
0
LINE
8
BLACK
6
CONTINUOUS
10
0.426208
20
0.837794
11
0.429401
21
0.835661
0
LINE
8
BLACK
6
CONTINUOUS
10
0.429401
20
0.835661
11
0.431534
21
0.832467
0
LINE
8
BLACK
6
CONTINUOUS
10
0.431534
20
0.832467
11
0.432283
21
0.828701
0
LINE
8
BLACK
6
CONTINUOUS
10
0.432283
20
0.828701
11
0.432283
21
0.791299
0
LINE
8
BLACK
6
CONTINUOUS
10
0.432283
20
0.791299
11
0.431534
21
0.787533
0
LINE
8
BLACK
6
CONTINUOUS
10
0.431534
20
0.787533
11
0.429401
21
0.784339
0
LINE
8
BLACK
6
CONTINUOUS
10
0.429401
20
0.784339
11
0.426208
21
0.782206
0
LINE
8
BLACK
6
CONTINUOUS
10
0.426208
20
0.782206
11
0.422441
21
0.781457
0
LINE
8
BLACK
6
CONTINUOUS
10
0.422441
20
0.781457
11
0.402756
21
0.781457
0
LINE
8
BLACK
6
CONTINUOUS
10
0.402756
20
0.781457
11
0.398989
21
0.782206
0
LINE
8
BLACK
6
CONTINUOUS
10
0.398989
20
0.782206
11
0.395796
21
0.784339
0
LINE
8
BLACK
6
CONTINUOUS
10
0.395796
20
0.784339
11
0.393663
21
0.787533
0
LINE
8
BLACK
6
CONTINUOUS
10
0.393663
20
0.787533
11
0.392913
21
0.791299
0
LINE
8
BLACK
6
CONTINUOUS
10
0.392913
20
0.791299
11
0.392913
21
0.828701
0
LINE
8
BLACK
6
CONTINUOUS
10
0.392913
20
0.828701
11
0.393663
21
0.832467
0
LINE
8
BLACK
6
CONTINUOUS
10
0.393663
20
0.832467
11
0.395796
21
0.835661
0
LINE
8
BLACK
6
CONTINUOUS
10
0.395796
20
0.835661
11
0.398989
21
0.837794
0
LINE
8
BLACK
6
CONTINUOUS
10
0.398989
20
0.837794
11
0.402756
21
0.838543
0
LINE
8
BLACK
6
CONTINUOUS
10
0.402756
20
0.838543
11
0.422441
21
0.838543
0
LINE
8
BLACK
6
CONTINUOUS
10
0.422441
20
0.838543
11
0.426208
21
0.837794
0
LINE
8
BLACK
6
CONTINUOUS
10
0.286208
20
0.837794
11
0.289401
21
0.835661
0
LINE
8
BLACK
6
CONTINUOUS
10
0.289401
20
0.835661
11
0.291534
21
0.832467
0
LINE
8
BLACK
6
CONTINUOUS
10
0.291534
20
0.832467
11
0.292283
21
0.828701
0
LINE
8
BLACK
6
CONTINUOUS
10
0.292283
20
0.828701
11
0.292283
21
0.791299
0
LINE
8
BLACK
6
CONTINUOUS
10
0.292283
20
0.791299
11
0.291534
21
0.787533
0
LINE
8
BLACK
6
CONTINUOUS
10
0.291534
20
0.787533
11
0.289401
21
0.784339
0
LINE
8
BLACK
6
CONTINUOUS
10
0.289401
20
0.784339
11
0.286208
21
0.782206
0
LINE
8
BLACK
6
CONTINUOUS
10
0.286208
20
0.782206
11
0.282441
21
0.781457
0
LINE
8
BLACK
6
CONTINUOUS
10
0.282441
20
0.781457
11
0.262756
21
0.781457
0
LINE
8
BLACK
6
CONTINUOUS
10
0.262756
20
0.781457
11
0.258989
21
0.782206
0
LINE
8
BLACK
6
CONTINUOUS
10
0.258989
20
0.782206
11
0.255796
21
0.784339
0
LINE
8
BLACK
6
CONTINUOUS
10
0.255796
20
0.784339
11
0.253663
21
0.787533
0
LINE
8
BLACK
6
CONTINUOUS
10
0.253663
20
0.787533
11
0.252913
21
0.791299
0
LINE
8
BLACK
6
CONTINUOUS
10
0.252913
20
0.791299
11
0.252913
21
0.828701
0
LINE
8
BLACK
6
CONTINUOUS
10
0.252913
20
0.828701
11
0.253663
21
0.832467
0
LINE
8
BLACK
6
CONTINUOUS
10
0.253663
20
0.832467
11
0.255796
21
0.835661
0
LINE
8
BLACK
6
CONTINUOUS
10
0.255796
20
0.835661
11
0.258989
21
0.837794
0
LINE
8
BLACK
6
CONTINUOUS
10
0.258989
20
0.837794
11
0.262756
21
0.838543
0
LINE
8
BLACK
6
CONTINUOUS
10
0.262756
20
0.838543
11
0.282441
21
0.838543
0
LINE
8
BLACK
6
CONTINUOUS
10
0.282441
20
0.838543
11
0.286208
21
0.837794
0
LINE
8
BLACK
6
CONTINUOUS
10
0.361011
20
0.837794
11
0.364204
21
0.835661
0
LINE
8
BLACK
6
CONTINUOUS
10
0.364204
20
0.835661
11
0.366337
21
0.832467
0
LINE
8
BLACK
6
CONTINUOUS
10
0.366337
20
0.832467
11
0.367087
21
0.828701
0
LINE
8
BLACK
6
CONTINUOUS
10
0.367087
20
0.828701
11
0.367087
21
0.791299
0
LINE
8
BLACK
6
CONTINUOUS
10
0.367087
20
0.791299
11
0.366337
21
0.787533
0
LINE
8
BLACK
6
CONTINUOUS
10
0.366337
20
0.787533
11
0.364204
21
0.784339
0
LINE
8
BLACK
6
CONTINUOUS
10
0.364204
20
0.784339
11
0.361011
21
0.782206
0
LINE
8
BLACK
6
CONTINUOUS
10
0.361011
20
0.782206
11
0.357244
21
0.781457
0
LINE
8
BLACK
6
CONTINUOUS
10
0.357244
20
0.781457
11
0.337559
21
0.781457
0
LINE
8
BLACK
6
CONTINUOUS
10
0.337559
20
0.781457
11
0.333792
21
0.782206
0
LINE
8
BLACK
6
CONTINUOUS
10
0.333792
20
0.782206
11
0.330599
21
0.784339
0
LINE
8
BLACK
6
CONTINUOUS
10
0.330599
20
0.784339
11
0.328466
21
0.787533
0
LINE
8
BLACK
6
CONTINUOUS
10
0.328466
20
0.787533
11
0.327717
21
0.791299
0
LINE
8
BLACK
6
CONTINUOUS
10
0.327717
20
0.791299
11
0.327717
21
0.828701
0
LINE
8
BLACK
6
CONTINUOUS
10
0.327717
20
0.828701
11
0.328466
21
0.832467
0
LINE
8
BLACK
6
CONTINUOUS
10
0.328466
20
0.832467
11
0.330599
21
0.835661
0
LINE
8
BLACK
6
CONTINUOUS
10
0.330599
20
0.835661
11
0.333792
21
0.837794
0
LINE
8
BLACK
6
CONTINUOUS
10
0.333792
20
0.837794
11
0.337559
21
0.838543
0
LINE
8
BLACK
6
CONTINUOUS
10
0.337559
20
0.838543
11
0.357244
21
0.838543
0
LINE
8
BLACK
6
CONTINUOUS
10
0.357244
20
0.838543
11
0.361011
21
0.837794
0
LINE
8
BLACK
6
CONTINUOUS
10
0.672483
20
0.855353
11
0.675676
21
0.85322
0
LINE
8
BLACK
6
CONTINUOUS
10
0.675676
20
0.85322
11
0.67781
21
0.850026
0
LINE
8
BLACK
6
CONTINUOUS
10
0.67781
20
0.850026
11
0.678559
21
0.84626
0
LINE
8
BLACK
6
CONTINUOUS
10
0.678559
20
0.84626
11
0.678559
21
0.825591
0
LINE
8
BLACK
6
CONTINUOUS
10
0.678559
20
0.825591
11
0.67781
21
0.821824
0
LINE
8
BLACK
6
CONTINUOUS
10
0.67781
20
0.821824
11
0.675676
21
0.818631
0
LINE
8
BLACK
6
CONTINUOUS
10
0.675676
20
0.818631
11
0.672483
21
0.816497
0
LINE
8
BLACK
6
CONTINUOUS
10
0.672483
20
0.816497
11
0.668717
21
0.815748
0
LINE
8
BLACK
6
CONTINUOUS
10
0.668717
20
0.815748
11
0.633283
21
0.815748
0
LINE
8
BLACK
6
CONTINUOUS
10
0.633283
20
0.815748
11
0.629517
21
0.816497
0
LINE
8
BLACK
6
CONTINUOUS
10
0.629517
20
0.816497
11
0.626324
21
0.818631
0
LINE
8
BLACK
6
CONTINUOUS
10
0.626324
20
0.818631
11
0.62419
21
0.821824
0
LINE
8
BLACK
6
CONTINUOUS
10
0.62419
20
0.821824
11
0.623441
21
0.825591
0
LINE
8
BLACK
6
CONTINUOUS
10
0.623441
20
0.825591
11
0.623441
21
0.84626
0
LINE
8
BLACK
6
CONTINUOUS
10
0.623441
20
0.84626
11
0.62419
21
0.850026
0
LINE
8
BLACK
6
CONTINUOUS
10
0.62419
20
0.850026
11
0.626324
21
0.85322
0
LINE
8
BLACK
6
CONTINUOUS
10
0.626324
20
0.85322
11
0.629517
21
0.855353
0
LINE
8
BLACK
6
CONTINUOUS
10
0.629517
20
0.855353
11
0.633283
21
0.856102
0
LINE
8
BLACK
6
CONTINUOUS
10
0.633283
20
0.856102
11
0.668717
21
0.856102
0
LINE
8
BLACK
6
CONTINUOUS
10
0.668717
20
0.856102
11
0.672483
21
0.855353
0
LINE
8
BLACK
6
CONTINUOUS
10
0.352363
20
0.8703
11
0.332637
21
0.8703
0
LINE
8
BLACK
6
CONTINUOUS
10
0.332637
20
0.8703
11
0.332637
21
0.9097
0
LINE
8
BLACK
6
CONTINUOUS
10
0.332637
20
0.9097
11
0.352363
21
0.9097
0
LINE
8
BLACK
6
CONTINUOUS
10
0.352363
20
0.9097
11
0.352363
21
0.8703
0
LINE
8
BLACK
6
CONTINUOUS
10
0.314843
20
0.8703
11
0.295157
21
0.8703
0
LINE
8
BLACK
6
CONTINUOUS
10
0.295157
20
0.8703
11
0.295157
21
0.9097
0
LINE
8
BLACK
6
CONTINUOUS
10
0.295157
20
0.9097
11
0.314843
21
0.9097
0
LINE
8
BLACK
6
CONTINUOUS
10
0.314843
20
0.9097
11
0.314843
21
0.8703
0
LINE
8
BLACK
6
CONTINUOUS
10
0.277343
20
0.8703
11
0.257657
21
0.8703
0
LINE
8
BLACK
6
CONTINUOUS
10
0.257657
20
0.8703
11
0.257657
21
0.9097
0
LINE
8
BLACK
6
CONTINUOUS
10
0.257657
20
0.9097
11
0.277343
21
0.9097
0
LINE
8
BLACK
6
CONTINUOUS
10
0.277343
20
0.9097
11
0.277343
21
0.8703
0
LINE
8
BLACK
6
CONTINUOUS
10
0.277343
20
0.9703
11
0.257657
21
0.9703
0
LINE
8
BLACK
6
CONTINUOUS
10
0.257657
20
0.9703
11
0.257657
21
1.0097
0
LINE
8
BLACK
6
CONTINUOUS
10
0.257657
20
1.0097
11
0.277343
21
1.0097
0
LINE
8
BLACK
6
CONTINUOUS
10
0.277343
20
1.0097
11
0.277343
21
0.9703
0
LINE
8
BLACK
6
CONTINUOUS
10
0.314843
20
0.9703
11
0.295157
21
0.9703
0
LINE
8
BLACK
6
CONTINUOUS
10
0.295157
20
0.9703
11
0.295157
21
1.0097
0
LINE
8
BLACK
6
CONTINUOUS
10
0.295157
20
1.0097
11
0.314843
21
1.0097
0
LINE
8
BLACK
6
CONTINUOUS
10
0.314843
20
1.0097
11
0.314843
21
0.9703
0
LINE
8
BLACK
6
CONTINUOUS
10
0.352343
20
0.9703
11
0.332657
21
0.9703
0
LINE
8
BLACK
6
CONTINUOUS
10
0.332657
20
0.9703
11
0.332657
21
1.0097
0
LINE
8
BLACK
6
CONTINUOUS
10
0.332657
20
1.0097
11
0.352343
21
1.0097
0
LINE
8
BLACK
6
CONTINUOUS
10
0.352343
20
1.0097
11
0.352343
21
0.9703
  0
ENDSEC
  0
EOF
