  0
SECTION
  2
HEADER
  9
$ANGBASE
  50
0.0
  9
$ANGDIR
  70
1
  9
$MEASUREMENT
  70
0
  0
ENDSEC
  0
SECTION
  2
TABLES
  0
TABLE
  2
LTYPE
  70
4
  0
LTYPE
  5
40F
  2
CONTINUOUS
  70
0
  3
Solid line
  72
65
  73
0
  40
0.0
  0
LTYPE
  5
410
  2
DASHDOT
 70
0
  3
Dash Dot ____ _ ____ _
 72
65
 73
4
 40
2.0
 49
1.25
 49
-0.25
 49
0.25
 49
-0.25
  0
LTYPE
  5
411
  2
DASHED
 70
0
  3
Dashed __ __ __ __ __
 72
65
 73
2
 40
0.75
 49
0.5
 49
-0.25
  0
LTYPE
  5
43B
  2
DOTTED
 70
0
  3
Dotted .  .  .  .
 72
65
 73
2
 40
0.2
 49
0.0
 49
-0.2
  0
ENDTAB
  0
TABLE
  2
STYLE
  70
4
  0
STYLE
  2
KICAD
  70
0
  40
0
  41
1
  42
1
  50
0
  71
0
  3
isocp.shx
  0
STYLE
  2
KICADB
  70
0
  40
0
  41
1
  42
1
  50
0
  71
0
  3
isocp.shx
  0
STYLE
  2
KICADI
  70
0
  40
0
  41
1
  42
1
  50
15
  71
0
  3
isocp.shx
  0
STYLE
  2
KICADBI
  70
0
  40
0
  41
1
  42
1
  50
15
  71
0
  3
isocp.shx
  0
ENDTAB
  0
TABLE
  2
LAYER
  70
1
  0
LAYER
  2
BLACK
  70
0
  62
7
  6
CONTINUOUS
  0
ENDTAB
  0
ENDSEC
  0
SECTION
  2
ENTITIES
0
LINE
8
BLACK
6
CONTINUOUS
10
0.40734
20
0.311607
11
0.408031
21
0.309937
0
LINE
8
BLACK
6
CONTINUOUS
10
0.408031
20
0.309937
11
0.408031
21
0.22785
0
LINE
8
BLACK
6
CONTINUOUS
10
0.408031
20
0.22785
11
0.40734
21
0.22618
0
LINE
8
BLACK
6
CONTINUOUS
10
0.40734
20
0.22618
11
0.405669
21
0.225488
0
LINE
8
BLACK
6
CONTINUOUS
10
0.405669
20
0.225488
11
0.403999
21
0.22618
0
LINE
8
BLACK
6
CONTINUOUS
10
0.403999
20
0.22618
11
0.403307
21
0.22785
0
LINE
8
BLACK
6
CONTINUOUS
10
0.403307
20
0.22785
11
0.403307
21
0.309937
0
LINE
8
BLACK
6
CONTINUOUS
10
0.403307
20
0.309937
11
0.403999
21
0.311607
0
LINE
8
BLACK
6
CONTINUOUS
10
0.403999
20
0.311607
11
0.405669
21
0.312299
0
LINE
8
BLACK
6
CONTINUOUS
10
0.405669
20
0.312299
11
0.40734
21
0.311607
0
LINE
8
BLACK
6
CONTINUOUS
10
0.428316
20
0.265561
11
0.429428
21
0.263876
0
LINE
8
BLACK
6
CONTINUOUS
10
0.429428
20
0.263876
11
0.429197
21
0.261869
0
LINE
8
BLACK
6
CONTINUOUS
10
0.429197
20
0.261869
11
0.427323
21
0.25812
0
LINE
8
BLACK
6
CONTINUOUS
10
0.427323
20
0.25812
11
0.426797
21
0.257411
0
LINE
8
BLACK
6
CONTINUOUS
10
0.426797
20
0.257411
11
0.42677
21
0.257352
0
LINE
8
BLACK
6
CONTINUOUS
10
0.42677
20
0.257352
11
0.424311
21
0.254894
0
LINE
8
BLACK
6
CONTINUOUS
10
0.424311
20
0.254894
11
0.451725
21
0.254894
0
LINE
8
BLACK
6
CONTINUOUS
10
0.451725
20
0.254894
11
0.451725
21
0.26319
0
LINE
8
BLACK
6
CONTINUOUS
10
0.451725
20
0.26319
11
0.451903
21
0.2642
0
LINE
8
BLACK
6
CONTINUOUS
10
0.451903
20
0.2642
11
0.453202
21
0.265747
0
LINE
8
BLACK
6
CONTINUOUS
10
0.453202
20
0.265747
11
0.455191
21
0.266098
0
LINE
8
BLACK
6
CONTINUOUS
10
0.455191
20
0.266098
11
0.45694
21
0.265088
0
LINE
8
BLACK
6
CONTINUOUS
10
0.45694
20
0.265088
11
0.457631
21
0.26319
0
LINE
8
BLACK
6
CONTINUOUS
10
0.457631
20
0.26319
11
0.457631
21
0.240693
0
LINE
8
BLACK
6
CONTINUOUS
10
0.457631
20
0.240693
11
0.457453
21
0.239683
0
LINE
8
BLACK
6
CONTINUOUS
10
0.457453
20
0.239683
11
0.456154
21
0.238135
0
LINE
8
BLACK
6
CONTINUOUS
10
0.456154
20
0.238135
11
0.454165
21
0.237785
0
LINE
8
BLACK
6
CONTINUOUS
10
0.454165
20
0.237785
11
0.452416
21
0.238795
0
LINE
8
BLACK
6
CONTINUOUS
10
0.452416
20
0.238795
11
0.451725
21
0.240693
0
LINE
8
BLACK
6
CONTINUOUS
10
0.451725
20
0.240693
11
0.451725
21
0.248988
0
LINE
8
BLACK
6
CONTINUOUS
10
0.451725
20
0.248988
11
0.415308
21
0.248988
0
LINE
8
BLACK
6
CONTINUOUS
10
0.415308
20
0.248988
11
0.414298
21
0.249166
0
LINE
8
BLACK
6
CONTINUOUS
10
0.414298
20
0.249166
11
0.414168
21
0.249276
0
LINE
8
BLACK
6
CONTINUOUS
10
0.414168
20
0.249276
11
0.413999
21
0.249294
0
LINE
8
BLACK
6
CONTINUOUS
10
0.413999
20
0.249294
11
0.413407
21
0.249914
0
LINE
8
BLACK
6
CONTINUOUS
10
0.413407
20
0.249914
11
0.412751
21
0.250465
0
LINE
8
BLACK
6
CONTINUOUS
10
0.412751
20
0.250465
11
0.412721
21
0.250632
0
LINE
8
BLACK
6
CONTINUOUS
10
0.412721
20
0.250632
11
0.412604
21
0.250755
0
LINE
8
BLACK
6
CONTINUOUS
10
0.412604
20
0.250755
11
0.412549
21
0.25161
0
LINE
8
BLACK
6
CONTINUOUS
10
0.412549
20
0.25161
11
0.4124
21
0.252454
0
LINE
8
BLACK
6
CONTINUOUS
10
0.4124
20
0.252454
11
0.412485
21
0.252601
0
LINE
8
BLACK
6
CONTINUOUS
10
0.412485
20
0.252601
11
0.412474
21
0.25277
0
LINE
8
BLACK
6
CONTINUOUS
10
0.412474
20
0.25277
11
0.412981
21
0.253461
0
LINE
8
BLACK
6
CONTINUOUS
10
0.412981
20
0.253461
11
0.41341
21
0.254203
0
LINE
8
BLACK
6
CONTINUOUS
10
0.41341
20
0.254203
11
0.413569
21
0.254261
0
LINE
8
BLACK
6
CONTINUOUS
10
0.413569
20
0.254261
11
0.41367
21
0.254398
0
LINE
8
BLACK
6
CONTINUOUS
10
0.41367
20
0.254398
11
0.419051
21
0.257985
0
LINE
8
BLACK
6
CONTINUOUS
10
0.419051
20
0.257985
11
0.422255
21
0.261189
0
LINE
8
BLACK
6
CONTINUOUS
10
0.422255
20
0.261189
11
0.423915
21
0.26451
0
LINE
8
BLACK
6
CONTINUOUS
10
0.423915
20
0.26451
11
0.424526
21
0.265334
0
LINE
8
BLACK
6
CONTINUOUS
10
0.424526
20
0.265334
11
0.426379
21
0.266137
0
LINE
8
BLACK
6
CONTINUOUS
10
0.426379
20
0.266137
11
0.428316
21
0.265561
0
LINE
8
BLACK
6
CONTINUOUS
10
0.316001
20
0.311607
11
0.316693
21
0.309937
0
LINE
8
BLACK
6
CONTINUOUS
10
0.316693
20
0.309937
11
0.316693
21
0.254425
0
LINE
8
BLACK
6
CONTINUOUS
10
0.316693
20
0.254425
11
0.316001
21
0.252755
0
LINE
8
BLACK
6
CONTINUOUS
10
0.316001
20
0.252755
11
0.314331
21
0.252063
0
LINE
8
BLACK
6
CONTINUOUS
10
0.314331
20
0.252063
11
0.31266
21
0.252755
0
LINE
8
BLACK
6
CONTINUOUS
10
0.31266
20
0.252755
11
0.311969
21
0.254425
0
LINE
8
BLACK
6
CONTINUOUS
10
0.311969
20
0.254425
11
0.311969
21
0.309937
0
LINE
8
BLACK
6
CONTINUOUS
10
0.311969
20
0.309937
11
0.31266
21
0.311607
0
LINE
8
BLACK
6
CONTINUOUS
10
0.31266
20
0.311607
11
0.314331
21
0.312299
0
LINE
8
BLACK
6
CONTINUOUS
10
0.314331
20
0.312299
11
0.316001
21
0.311607
0
LINE
8
BLACK
6
CONTINUOUS
10
0.641544
20
0.283935
11
0.642657
21
0.28225
0
LINE
8
BLACK
6
CONTINUOUS
10
0.642657
20
0.28225
11
0.642426
21
0.280243
0
LINE
8
BLACK
6
CONTINUOUS
10
0.642426
20
0.280243
11
0.640551
21
0.276494
0
LINE
8
BLACK
6
CONTINUOUS
10
0.640551
20
0.276494
11
0.640025
21
0.275784
0
LINE
8
BLACK
6
CONTINUOUS
10
0.640025
20
0.275784
11
0.639998
21
0.275726
0
LINE
8
BLACK
6
CONTINUOUS
10
0.639998
20
0.275726
11
0.63754
21
0.273268
0
LINE
8
BLACK
6
CONTINUOUS
10
0.63754
20
0.273268
11
0.664954
21
0.273268
0
LINE
8
BLACK
6
CONTINUOUS
10
0.664954
20
0.273268
11
0.664954
21
0.281564
0
LINE
8
BLACK
6
CONTINUOUS
10
0.664954
20
0.281564
11
0.665132
21
0.282573
0
LINE
8
BLACK
6
CONTINUOUS
10
0.665132
20
0.282573
11
0.66643
21
0.284121
0
LINE
8
BLACK
6
CONTINUOUS
10
0.66643
20
0.284121
11
0.668419
21
0.284471
0
LINE
8
BLACK
6
CONTINUOUS
10
0.668419
20
0.284471
11
0.670168
21
0.283462
0
LINE
8
BLACK
6
CONTINUOUS
10
0.670168
20
0.283462
11
0.670859
21
0.281564
0
LINE
8
BLACK
6
CONTINUOUS
10
0.670859
20
0.281564
11
0.670859
21
0.259066
0
LINE
8
BLACK
6
CONTINUOUS
10
0.670859
20
0.259066
11
0.670681
21
0.258056
0
LINE
8
BLACK
6
CONTINUOUS
10
0.670681
20
0.258056
11
0.669383
21
0.256509
0
LINE
8
BLACK
6
CONTINUOUS
10
0.669383
20
0.256509
11
0.667394
21
0.256158
0
LINE
8
BLACK
6
CONTINUOUS
10
0.667394
20
0.256158
11
0.665644
21
0.257168
0
LINE
8
BLACK
6
CONTINUOUS
10
0.665644
20
0.257168
11
0.664954
21
0.259066
0
LINE
8
BLACK
6
CONTINUOUS
10
0.664954
20
0.259066
11
0.664954
21
0.267362
0
LINE
8
BLACK
6
CONTINUOUS
10
0.664954
20
0.267362
11
0.628536
21
0.267362
0
LINE
8
BLACK
6
CONTINUOUS
10
0.628536
20
0.267362
11
0.627526
21
0.26754
0
LINE
8
BLACK
6
CONTINUOUS
10
0.627526
20
0.26754
11
0.627396
21
0.267649
0
LINE
8
BLACK
6
CONTINUOUS
10
0.627396
20
0.267649
11
0.627227
21
0.267668
0
LINE
8
BLACK
6
CONTINUOUS
10
0.627227
20
0.267668
11
0.626636
21
0.268288
0
LINE
8
BLACK
6
CONTINUOUS
10
0.626636
20
0.268288
11
0.625979
21
0.268839
0
LINE
8
BLACK
6
CONTINUOUS
10
0.625979
20
0.268839
11
0.62595
21
0.269006
0
LINE
8
BLACK
6
CONTINUOUS
10
0.62595
20
0.269006
11
0.625832
21
0.269129
0
LINE
8
BLACK
6
CONTINUOUS
10
0.625832
20
0.269129
11
0.625777
21
0.269984
0
LINE
8
BLACK
6
CONTINUOUS
10
0.625777
20
0.269984
11
0.625628
21
0.270828
0
LINE
8
BLACK
6
CONTINUOUS
10
0.625628
20
0.270828
11
0.625713
21
0.270975
0
LINE
8
BLACK
6
CONTINUOUS
10
0.625713
20
0.270975
11
0.625702
21
0.271144
0
LINE
8
BLACK
6
CONTINUOUS
10
0.625702
20
0.271144
11
0.62621
21
0.271835
0
LINE
8
BLACK
6
CONTINUOUS
10
0.62621
20
0.271835
11
0.626638
21
0.272577
0
LINE
8
BLACK
6
CONTINUOUS
10
0.626638
20
0.272577
11
0.626798
21
0.272635
0
LINE
8
BLACK
6
CONTINUOUS
10
0.626798
20
0.272635
11
0.626898
21
0.272772
0
LINE
8
BLACK
6
CONTINUOUS
10
0.626898
20
0.272772
11
0.632279
21
0.276359
0
LINE
8
BLACK
6
CONTINUOUS
10
0.632279
20
0.276359
11
0.635483
21
0.279563
0
LINE
8
BLACK
6
CONTINUOUS
10
0.635483
20
0.279563
11
0.637144
21
0.282884
0
LINE
8
BLACK
6
CONTINUOUS
10
0.637144
20
0.282884
11
0.637755
21
0.283708
0
LINE
8
BLACK
6
CONTINUOUS
10
0.637755
20
0.283708
11
0.639608
21
0.284511
0
LINE
8
BLACK
6
CONTINUOUS
10
0.639608
20
0.284511
11
0.641544
21
0.283935
0
LINE
8
BLACK
6
CONTINUOUS
10
0.438385
20
0.30541
11
0.438521
21
0.305424
0
LINE
8
BLACK
6
CONTINUOUS
10
0.438521
20
0.305424
11
0.44602
21
0.30355
0
LINE
8
BLACK
6
CONTINUOUS
10
0.44602
20
0.30355
11
0.446486
21
0.303342
0
LINE
8
BLACK
6
CONTINUOUS
10
0.446486
20
0.303342
11
0.446625
21
0.303326
0
LINE
8
BLACK
6
CONTINUOUS
10
0.446625
20
0.303326
11
0.450374
21
0.301451
0
LINE
8
BLACK
6
CONTINUOUS
10
0.450374
20
0.301451
11
0.451083
21
0.300925
0
LINE
8
BLACK
6
CONTINUOUS
10
0.451083
20
0.300925
11
0.451141
21
0.300898
0
LINE
8
BLACK
6
CONTINUOUS
10
0.451141
20
0.300898
11
0.454891
21
0.297149
0
LINE
8
BLACK
6
CONTINUOUS
10
0.454891
20
0.297149
11
0.455479
21
0.296309
0
LINE
8
BLACK
6
CONTINUOUS
10
0.455479
20
0.296309
11
0.455495
21
0.296133
0
LINE
8
BLACK
6
CONTINUOUS
10
0.455495
20
0.296133
11
0.455604
21
0.295994
0
LINE
8
BLACK
6
CONTINUOUS
10
0.455604
20
0.295994
11
0.457479
21
0.29037
0
LINE
8
BLACK
6
CONTINUOUS
10
0.457479
20
0.29037
11
0.457609
21
0.289497
0
LINE
8
BLACK
6
CONTINUOUS
10
0.457609
20
0.289497
11
0.457631
21
0.289436
0
LINE
8
BLACK
6
CONTINUOUS
10
0.457631
20
0.289436
11
0.457631
21
0.285687
0
LINE
8
BLACK
6
CONTINUOUS
10
0.457631
20
0.285687
11
0.457477
21
0.284818
0
LINE
8
BLACK
6
CONTINUOUS
10
0.457477
20
0.284818
11
0.457479
21
0.284753
0
LINE
8
BLACK
6
CONTINUOUS
10
0.457479
20
0.284753
11
0.455604
21
0.279129
0
LINE
8
BLACK
6
CONTINUOUS
10
0.455604
20
0.279129
11
0.455116
21
0.278227
0
LINE
8
BLACK
6
CONTINUOUS
10
0.455116
20
0.278227
11
0.454966
21
0.278135
0
LINE
8
BLACK
6
CONTINUOUS
10
0.454966
20
0.278135
11
0.454891
21
0.277975
0
LINE
8
BLACK
6
CONTINUOUS
10
0.454891
20
0.277975
11
0.453016
21
0.2761
0
LINE
8
BLACK
6
CONTINUOUS
10
0.453016
20
0.2761
11
0.452176
21
0.275512
0
LINE
8
BLACK
6
CONTINUOUS
10
0.452176
20
0.275512
11
0.450164
21
0.275336
0
LINE
8
BLACK
6
CONTINUOUS
10
0.450164
20
0.275336
11
0.44851
21
0.276494
0
LINE
8
BLACK
6
CONTINUOUS
10
0.44851
20
0.276494
11
0.447987
21
0.278445
0
LINE
8
BLACK
6
CONTINUOUS
10
0.447987
20
0.278445
11
0.44884
21
0.280276
0
LINE
8
BLACK
6
CONTINUOUS
10
0.44884
20
0.280276
11
0.450222
21
0.281658
0
LINE
8
BLACK
6
CONTINUOUS
10
0.450222
20
0.281658
11
0.451725
21
0.286166
0
LINE
8
BLACK
6
CONTINUOUS
10
0.451725
20
0.286166
11
0.451725
21
0.288957
0
LINE
8
BLACK
6
CONTINUOUS
10
0.451725
20
0.288957
11
0.450222
21
0.293466
0
LINE
8
BLACK
6
CONTINUOUS
10
0.450222
20
0.293466
11
0.447304
21
0.296384
0
LINE
8
BLACK
6
CONTINUOUS
10
0.447304
20
0.296384
11
0.444273
21
0.297899
0
LINE
8
BLACK
6
CONTINUOUS
10
0.444273
20
0.297899
11
0.437441
21
0.299607
0
LINE
8
BLACK
6
CONTINUOUS
10
0.437441
20
0.299607
11
0.432544
21
0.299607
0
LINE
8
BLACK
6
CONTINUOUS
10
0.432544
20
0.299607
11
0.425712
21
0.297899
0
LINE
8
BLACK
6
CONTINUOUS
10
0.425712
20
0.297899
11
0.422681
21
0.296384
0
LINE
8
BLACK
6
CONTINUOUS
10
0.422681
20
0.296384
11
0.419763
21
0.293466
0
LINE
8
BLACK
6
CONTINUOUS
10
0.419763
20
0.293466
11
0.418261
21
0.288957
0
LINE
8
BLACK
6
CONTINUOUS
10
0.418261
20
0.288957
11
0.418261
21
0.286166
0
LINE
8
BLACK
6
CONTINUOUS
10
0.418261
20
0.286166
11
0.419763
21
0.281658
0
LINE
8
BLACK
6
CONTINUOUS
10
0.419763
20
0.281658
11
0.421145
21
0.280276
0
LINE
8
BLACK
6
CONTINUOUS
10
0.421145
20
0.280276
11
0.421733
21
0.279436
0
LINE
8
BLACK
6
CONTINUOUS
10
0.421733
20
0.279436
11
0.421909
21
0.277424
0
LINE
8
BLACK
6
CONTINUOUS
10
0.421909
20
0.277424
11
0.420751
21
0.275769
0
LINE
8
BLACK
6
CONTINUOUS
10
0.420751
20
0.275769
11
0.4188
21
0.275246
0
LINE
8
BLACK
6
CONTINUOUS
10
0.4188
20
0.275246
11
0.416969
21
0.2761
0
LINE
8
BLACK
6
CONTINUOUS
10
0.416969
20
0.2761
11
0.415095
21
0.277975
0
LINE
8
BLACK
6
CONTINUOUS
10
0.415095
20
0.277975
11
0.414506
21
0.278815
0
LINE
8
BLACK
6
CONTINUOUS
10
0.414506
20
0.278815
11
0.414491
21
0.278991
0
LINE
8
BLACK
6
CONTINUOUS
10
0.414491
20
0.278991
11
0.414381
21
0.279129
0
LINE
8
BLACK
6
CONTINUOUS
10
0.414381
20
0.279129
11
0.412507
21
0.284753
0
LINE
8
BLACK
6
CONTINUOUS
10
0.412507
20
0.284753
11
0.412377
21
0.285626
0
LINE
8
BLACK
6
CONTINUOUS
10
0.412377
20
0.285626
11
0.412355
21
0.285687
0
LINE
8
BLACK
6
CONTINUOUS
10
0.412355
20
0.285687
11
0.412355
21
0.289436
0
LINE
8
BLACK
6
CONTINUOUS
10
0.412355
20
0.289436
11
0.412508
21
0.290306
0
LINE
8
BLACK
6
CONTINUOUS
10
0.412508
20
0.290306
11
0.412507
21
0.29037
0
LINE
8
BLACK
6
CONTINUOUS
10
0.412507
20
0.29037
11
0.414381
21
0.295994
0
LINE
8
BLACK
6
CONTINUOUS
10
0.414381
20
0.295994
11
0.41487
21
0.296896
0
LINE
8
BLACK
6
CONTINUOUS
10
0.41487
20
0.296896
11
0.41502
21
0.296989
0
LINE
8
BLACK
6
CONTINUOUS
10
0.41502
20
0.296989
11
0.415095
21
0.297149
0
LINE
8
BLACK
6
CONTINUOUS
10
0.415095
20
0.297149
11
0.418844
21
0.300898
0
LINE
8
BLACK
6
CONTINUOUS
10
0.418844
20
0.300898
11
0.419567
21
0.301405
0
LINE
8
BLACK
6
CONTINUOUS
10
0.419567
20
0.301405
11
0.419612
21
0.301451
0
LINE
8
BLACK
6
CONTINUOUS
10
0.419612
20
0.301451
11
0.423361
21
0.303326
0
LINE
8
BLACK
6
CONTINUOUS
10
0.423361
20
0.303326
11
0.42385
21
0.303471
0
LINE
8
BLACK
6
CONTINUOUS
10
0.42385
20
0.303471
11
0.423966
21
0.30355
0
LINE
8
BLACK
6
CONTINUOUS
10
0.423966
20
0.30355
11
0.431465
21
0.305424
0
LINE
8
BLACK
6
CONTINUOUS
10
0.431465
20
0.305424
11
0.432052
21
0.305466
0
LINE
8
BLACK
6
CONTINUOUS
10
0.432052
20
0.305466
11
0.432181
21
0.305513
0
LINE
8
BLACK
6
CONTINUOUS
10
0.432181
20
0.305513
11
0.437805
21
0.305513
0
LINE
8
BLACK
6
CONTINUOUS
10
0.437805
20
0.305513
11
0.438385
21
0.30541
0
LINE
8
BLACK
6
CONTINUOUS
10
0.668916
20
0.321834
11
0.670463
21
0.320535
0
LINE
8
BLACK
6
CONTINUOUS
10
0.670463
20
0.320535
11
0.670814
21
0.318546
0
LINE
8
BLACK
6
CONTINUOUS
10
0.670814
20
0.318546
11
0.669804
21
0.316797
0
LINE
8
BLACK
6
CONTINUOUS
10
0.669804
20
0.316797
11
0.667906
21
0.316106
0
LINE
8
BLACK
6
CONTINUOUS
10
0.667906
20
0.316106
11
0.652111
21
0.316106
0
LINE
8
BLACK
6
CONTINUOUS
10
0.652111
20
0.316106
11
0.652111
21
0.311222
0
LINE
8
BLACK
6
CONTINUOUS
10
0.652111
20
0.311222
11
0.6696
21
0.298981
0
LINE
8
BLACK
6
CONTINUOUS
10
0.6696
20
0.298981
11
0.670325
21
0.298256
0
LINE
8
BLACK
6
CONTINUOUS
10
0.670325
20
0.298256
11
0.670848
21
0.296305
0
LINE
8
BLACK
6
CONTINUOUS
10
0.670848
20
0.296305
11
0.669994
21
0.294474
0
LINE
8
BLACK
6
CONTINUOUS
10
0.669994
20
0.294474
11
0.668164
21
0.29362
0
LINE
8
BLACK
6
CONTINUOUS
10
0.668164
20
0.29362
11
0.666213
21
0.294143
0
LINE
8
BLACK
6
CONTINUOUS
10
0.666213
20
0.294143
11
0.652104
21
0.304019
0
LINE
8
BLACK
6
CONTINUOUS
10
0.652104
20
0.304019
11
0.651933
21
0.303051
0
LINE
8
BLACK
6
CONTINUOUS
10
0.651933
20
0.303051
11
0.65182
21
0.302916
0
LINE
8
BLACK
6
CONTINUOUS
10
0.65182
20
0.302916
11
0.6518
21
0.30274
0
LINE
8
BLACK
6
CONTINUOUS
10
0.6518
20
0.30274
11
0.649925
21
0.298991
0
LINE
8
BLACK
6
CONTINUOUS
10
0.649925
20
0.298991
11
0.649399
21
0.298282
0
LINE
8
BLACK
6
CONTINUOUS
10
0.649399
20
0.298282
11
0.649372
21
0.298223
0
LINE
8
BLACK
6
CONTINUOUS
10
0.649372
20
0.298223
11
0.647497
21
0.296349
0
LINE
8
BLACK
6
CONTINUOUS
10
0.647497
20
0.296349
11
0.646774
21
0.295842
0
LINE
8
BLACK
6
CONTINUOUS
10
0.646774
20
0.295842
11
0.64673
21
0.295795
0
LINE
8
BLACK
6
CONTINUOUS
10
0.64673
20
0.295795
11
0.64298
21
0.293921
0
LINE
8
BLACK
6
CONTINUOUS
10
0.64298
20
0.293921
11
0.641997
21
0.293628
0
LINE
8
BLACK
6
CONTINUOUS
10
0.641997
20
0.293628
11
0.641825
21
0.293669
0
LINE
8
BLACK
6
CONTINUOUS
10
0.641825
20
0.293669
11
0.64166
21
0.293609
0
LINE
8
BLACK
6
CONTINUOUS
10
0.64166
20
0.293609
11
0.636035
21
0.293609
0
LINE
8
BLACK
6
CONTINUOUS
10
0.636035
20
0.293609
11
0.635025
21
0.293787
0
LINE
8
BLACK
6
CONTINUOUS
10
0.635025
20
0.293787
11
0.63489
21
0.293901
0
LINE
8
BLACK
6
CONTINUOUS
10
0.63489
20
0.293901
11
0.634715
21
0.293921
0
LINE
8
BLACK
6
CONTINUOUS
10
0.634715
20
0.293921
11
0.630965
21
0.295795
0
LINE
8
BLACK
6
CONTINUOUS
10
0.630965
20
0.295795
11
0.630256
21
0.296321
0
LINE
8
BLACK
6
CONTINUOUS
10
0.630256
20
0.296321
11
0.630198
21
0.296349
0
LINE
8
BLACK
6
CONTINUOUS
10
0.630198
20
0.296349
11
0.628323
21
0.298223
0
LINE
8
BLACK
6
CONTINUOUS
10
0.628323
20
0.298223
11
0.627817
21
0.298946
0
LINE
8
BLACK
6
CONTINUOUS
10
0.627817
20
0.298946
11
0.62777
21
0.298991
0
LINE
8
BLACK
6
CONTINUOUS
10
0.62777
20
0.298991
11
0.625895
21
0.30274
0
LINE
8
BLACK
6
CONTINUOUS
10
0.625895
20
0.30274
11
0.625603
21
0.303723
0
LINE
8
BLACK
6
CONTINUOUS
10
0.625603
20
0.303723
11
0.625644
21
0.303895
0
LINE
8
BLACK
6
CONTINUOUS
10
0.625644
20
0.303895
11
0.625583
21
0.304061
0
LINE
8
BLACK
6
CONTINUOUS
10
0.625583
20
0.304061
11
0.625583
21
0.319059
0
LINE
8
BLACK
6
CONTINUOUS
10
0.625583
20
0.319059
11
0.625651
21
0.319442
0
LINE
8
BLACK
6
CONTINUOUS
10
0.625651
20
0.319442
11
0.625628
21
0.319572
0
LINE
8
BLACK
6
CONTINUOUS
10
0.625628
20
0.319572
11
0.625694
21
0.319685
0
LINE
8
BLACK
6
CONTINUOUS
10
0.625694
20
0.319685
11
0.625761
21
0.320069
0
LINE
8
BLACK
6
CONTINUOUS
10
0.625761
20
0.320069
11
0.626255
21
0.320656
0
LINE
8
BLACK
6
CONTINUOUS
10
0.626255
20
0.320656
11
0.626638
21
0.321321
0
LINE
8
BLACK
6
CONTINUOUS
10
0.626638
20
0.321321
11
0.626889
21
0.321412
0
LINE
8
BLACK
6
CONTINUOUS
10
0.626889
20
0.321412
11
0.62706
21
0.321616
0
LINE
8
BLACK
6
CONTINUOUS
10
0.62706
20
0.321616
11
0.627815
21
0.321749
0
LINE
8
BLACK
6
CONTINUOUS
10
0.627815
20
0.321749
11
0.628536
21
0.322012
0
LINE
8
BLACK
6
CONTINUOUS
10
0.628536
20
0.322012
11
0.667906
21
0.322012
0
LINE
8
BLACK
6
CONTINUOUS
10
0.667906
20
0.322012
11
0.668916
21
0.321834
0
LINE
8
BLACK
6
CONTINUOUS
10
0.631489
20
0.304758
11
0.632838
21
0.30206
0
LINE
8
BLACK
6
CONTINUOUS
10
0.632838
20
0.30206
11
0.634035
21
0.300863
0
LINE
8
BLACK
6
CONTINUOUS
10
0.634035
20
0.300863
11
0.636732
21
0.299514
0
LINE
8
BLACK
6
CONTINUOUS
10
0.636732
20
0.299514
11
0.640962
21
0.299514
0
LINE
8
BLACK
6
CONTINUOUS
10
0.640962
20
0.299514
11
0.64366
21
0.300863
0
LINE
8
BLACK
6
CONTINUOUS
10
0.64366
20
0.300863
11
0.644857
21
0.30206
0
LINE
8
BLACK
6
CONTINUOUS
10
0.644857
20
0.30206
11
0.646206
21
0.304758
0
LINE
8
BLACK
6
CONTINUOUS
10
0.646206
20
0.304758
11
0.646206
21
0.316106
0
LINE
8
BLACK
6
CONTINUOUS
10
0.646206
20
0.316106
11
0.631489
21
0.316106
0
LINE
8
BLACK
6
CONTINUOUS
10
0.631489
20
0.316106
11
0.631489
21
0.304758
0
LINE
8
BLACK
6
CONTINUOUS
10
0.455688
20
0.322207
11
0.457235
21
0.320909
0
LINE
8
BLACK
6
CONTINUOUS
10
0.457235
20
0.320909
11
0.457586
21
0.31892
0
LINE
8
BLACK
6
CONTINUOUS
10
0.457586
20
0.31892
11
0.456576
21
0.317171
0
LINE
8
BLACK
6
CONTINUOUS
10
0.456576
20
0.317171
11
0.454678
21
0.31648
0
LINE
8
BLACK
6
CONTINUOUS
10
0.454678
20
0.31648
11
0.415308
21
0.31648
0
LINE
8
BLACK
6
CONTINUOUS
10
0.415308
20
0.31648
11
0.414298
21
0.316658
0
LINE
8
BLACK
6
CONTINUOUS
10
0.414298
20
0.316658
11
0.412751
21
0.317956
0
LINE
8
BLACK
6
CONTINUOUS
10
0.412751
20
0.317956
11
0.4124
21
0.319945
0
LINE
8
BLACK
6
CONTINUOUS
10
0.4124
20
0.319945
11
0.41341
21
0.321695
0
LINE
8
BLACK
6
CONTINUOUS
10
0.41341
20
0.321695
11
0.415308
21
0.322385
0
LINE
8
BLACK
6
CONTINUOUS
10
0.415308
20
0.322385
11
0.454678
21
0.322385
0
LINE
8
BLACK
6
CONTINUOUS
10
0.454678
20
0.322385
11
0.455688
21
0.322207
0
LINE
8
BLACK
6
CONTINUOUS
10
0.275448
20
0.399239
11
0.276995
21
0.39794
0
LINE
8
BLACK
6
CONTINUOUS
10
0.276995
20
0.39794
11
0.277346
21
0.395951
0
LINE
8
BLACK
6
CONTINUOUS
10
0.277346
20
0.395951
11
0.276336
21
0.394202
0
LINE
8
BLACK
6
CONTINUOUS
10
0.276336
20
0.394202
11
0.274438
21
0.393511
0
LINE
8
BLACK
6
CONTINUOUS
10
0.274438
20
0.393511
11
0.256574
21
0.393511
0
LINE
8
BLACK
6
CONTINUOUS
10
0.256574
20
0.393511
11
0.265412
21
0.38341
0
LINE
8
BLACK
6
CONTINUOUS
10
0.265412
20
0.38341
11
0.265642
21
0.38303
0
LINE
8
BLACK
6
CONTINUOUS
10
0.265642
20
0.38303
11
0.265747
21
0.382942
0
LINE
8
BLACK
6
CONTINUOUS
10
0.265747
20
0.382942
11
0.265768
21
0.382822
0
LINE
8
BLACK
6
CONTINUOUS
10
0.265768
20
0.382822
11
0.265943
21
0.382533
0
LINE
8
BLACK
6
CONTINUOUS
10
0.265943
20
0.382533
11
0.265959
21
0.381737
0
LINE
8
BLACK
6
CONTINUOUS
10
0.265959
20
0.381737
11
0.266098
21
0.380953
0
LINE
8
BLACK
6
CONTINUOUS
10
0.266098
20
0.380953
11
0.26598
21
0.380749
0
LINE
8
BLACK
6
CONTINUOUS
10
0.26598
20
0.380749
11
0.265985
21
0.380513
0
LINE
8
BLACK
6
CONTINUOUS
10
0.265985
20
0.380513
11
0.265486
21
0.379893
0
LINE
8
BLACK
6
CONTINUOUS
10
0.265486
20
0.379893
11
0.265088
21
0.379204
0
LINE
8
BLACK
6
CONTINUOUS
10
0.265088
20
0.379204
11
0.264866
21
0.379123
0
LINE
8
BLACK
6
CONTINUOUS
10
0.264866
20
0.379123
11
0.264719
21
0.37894
0
LINE
8
BLACK
6
CONTINUOUS
10
0.264719
20
0.37894
11
0.263938
21
0.378785
0
LINE
8
BLACK
6
CONTINUOUS
10
0.263938
20
0.378785
11
0.26319
21
0.378513
0
LINE
8
BLACK
6
CONTINUOUS
10
0.26319
20
0.378513
11
0.258262
21
0.378513
0
LINE
8
BLACK
6
CONTINUOUS
10
0.258262
20
0.378513
11
0.255565
21
0.377164
0
LINE
8
BLACK
6
CONTINUOUS
10
0.255565
20
0.377164
11
0.254368
21
0.375967
0
LINE
8
BLACK
6
CONTINUOUS
10
0.254368
20
0.375967
11
0.253019
21
0.37327
0
LINE
8
BLACK
6
CONTINUOUS
10
0.253019
20
0.37327
11
0.253019
21
0.36529
0
LINE
8
BLACK
6
CONTINUOUS
10
0.253019
20
0.36529
11
0.254368
21
0.362592
0
LINE
8
BLACK
6
CONTINUOUS
10
0.254368
20
0.362592
11
0.255565
21
0.361395
0
LINE
8
BLACK
6
CONTINUOUS
10
0.255565
20
0.361395
11
0.258262
21
0.360046
0
LINE
8
BLACK
6
CONTINUOUS
10
0.258262
20
0.360046
11
0.268117
21
0.360046
0
LINE
8
BLACK
6
CONTINUOUS
10
0.268117
20
0.360046
11
0.270814
21
0.361395
0
LINE
8
BLACK
6
CONTINUOUS
10
0.270814
20
0.361395
11
0.27235
21
0.362931
0
LINE
8
BLACK
6
CONTINUOUS
10
0.27235
20
0.362931
11
0.27319
21
0.363519
0
LINE
8
BLACK
6
CONTINUOUS
10
0.27319
20
0.363519
11
0.275202
21
0.363695
0
LINE
8
BLACK
6
CONTINUOUS
10
0.275202
20
0.363695
11
0.276857
21
0.362537
0
LINE
8
BLACK
6
CONTINUOUS
10
0.276857
20
0.362537
11
0.27738
21
0.360586
0
LINE
8
BLACK
6
CONTINUOUS
10
0.27738
20
0.360586
11
0.276526
21
0.358755
0
LINE
8
BLACK
6
CONTINUOUS
10
0.276526
20
0.358755
11
0.274651
21
0.356881
0
LINE
8
BLACK
6
CONTINUOUS
10
0.274651
20
0.356881
11
0.273928
21
0.356374
0
LINE
8
BLACK
6
CONTINUOUS
10
0.273928
20
0.356374
11
0.273884
21
0.356327
0
LINE
8
BLACK
6
CONTINUOUS
10
0.273884
20
0.356327
11
0.270134
21
0.354453
0
LINE
8
BLACK
6
CONTINUOUS
10
0.270134
20
0.354453
11
0.269152
21
0.35416
0
LINE
8
BLACK
6
CONTINUOUS
10
0.269152
20
0.35416
11
0.26898
21
0.354201
0
LINE
8
BLACK
6
CONTINUOUS
10
0.26898
20
0.354201
11
0.268814
21
0.354141
0
LINE
8
BLACK
6
CONTINUOUS
10
0.268814
20
0.354141
11
0.257565
21
0.354141
0
LINE
8
BLACK
6
CONTINUOUS
10
0.257565
20
0.354141
11
0.256555
21
0.354319
0
LINE
8
BLACK
6
CONTINUOUS
10
0.256555
20
0.354319
11
0.25642
21
0.354433
0
LINE
8
BLACK
6
CONTINUOUS
10
0.25642
20
0.354433
11
0.256245
21
0.354453
0
LINE
8
BLACK
6
CONTINUOUS
10
0.256245
20
0.354453
11
0.252495
21
0.356327
0
LINE
8
BLACK
6
CONTINUOUS
10
0.252495
20
0.356327
11
0.251786
21
0.356853
0
LINE
8
BLACK
6
CONTINUOUS
10
0.251786
20
0.356853
11
0.251728
21
0.356881
0
LINE
8
BLACK
6
CONTINUOUS
10
0.251728
20
0.356881
11
0.249853
21
0.358755
0
LINE
8
BLACK
6
CONTINUOUS
10
0.249853
20
0.358755
11
0.249347
21
0.359479
0
LINE
8
BLACK
6
CONTINUOUS
10
0.249347
20
0.359479
11
0.2493
21
0.359523
0
LINE
8
BLACK
6
CONTINUOUS
10
0.2493
20
0.359523
11
0.247425
21
0.363272
0
LINE
8
BLACK
6
CONTINUOUS
10
0.247425
20
0.363272
11
0.247133
21
0.364255
0
LINE
8
BLACK
6
CONTINUOUS
10
0.247133
20
0.364255
11
0.247174
21
0.364427
0
LINE
8
BLACK
6
CONTINUOUS
10
0.247174
20
0.364427
11
0.247114
21
0.364593
0
LINE
8
BLACK
6
CONTINUOUS
10
0.247114
20
0.364593
11
0.247114
21
0.373967
0
LINE
8
BLACK
6
CONTINUOUS
10
0.247114
20
0.373967
11
0.247292
21
0.374977
0
LINE
8
BLACK
6
CONTINUOUS
10
0.247292
20
0.374977
11
0.247405
21
0.375112
0
LINE
8
BLACK
6
CONTINUOUS
10
0.247405
20
0.375112
11
0.247425
21
0.375287
0
LINE
8
BLACK
6
CONTINUOUS
10
0.247425
20
0.375287
11
0.2493
21
0.379037
0
LINE
8
BLACK
6
CONTINUOUS
10
0.2493
20
0.379037
11
0.249826
21
0.379746
0
LINE
8
BLACK
6
CONTINUOUS
10
0.249826
20
0.379746
11
0.249853
21
0.379804
0
LINE
8
BLACK
6
CONTINUOUS
10
0.249853
20
0.379804
11
0.251728
21
0.381679
0
LINE
8
BLACK
6
CONTINUOUS
10
0.251728
20
0.381679
11
0.252451
21
0.382185
0
LINE
8
BLACK
6
CONTINUOUS
10
0.252451
20
0.382185
11
0.252495
21
0.382232
0
LINE
8
BLACK
6
CONTINUOUS
10
0.252495
20
0.382232
11
0.256245
21
0.384107
0
LINE
8
BLACK
6
CONTINUOUS
10
0.256245
20
0.384107
11
0.256809
21
0.384274
0
LINE
8
BLACK
6
CONTINUOUS
10
0.256809
20
0.384274
11
0.247844
21
0.394519
0
LINE
8
BLACK
6
CONTINUOUS
10
0.247844
20
0.394519
11
0.247614
21
0.394899
0
LINE
8
BLACK
6
CONTINUOUS
10
0.247614
20
0.394899
11
0.247509
21
0.394987
0
LINE
8
BLACK
6
CONTINUOUS
10
0.247509
20
0.394987
11
0.247488
21
0.395108
0
LINE
8
BLACK
6
CONTINUOUS
10
0.247488
20
0.395108
11
0.247313
21
0.395397
0
LINE
8
BLACK
6
CONTINUOUS
10
0.247313
20
0.395397
11
0.247297
21
0.396193
0
LINE
8
BLACK
6
CONTINUOUS
10
0.247297
20
0.396193
11
0.247158
21
0.396977
0
LINE
8
BLACK
6
CONTINUOUS
10
0.247158
20
0.396977
11
0.247276
21
0.397181
0
LINE
8
BLACK
6
CONTINUOUS
10
0.247276
20
0.397181
11
0.247271
21
0.397416
0
LINE
8
BLACK
6
CONTINUOUS
10
0.247271
20
0.397416
11
0.24777
21
0.398036
0
LINE
8
BLACK
6
CONTINUOUS
10
0.24777
20
0.398036
11
0.248168
21
0.398726
0
LINE
8
BLACK
6
CONTINUOUS
10
0.248168
20
0.398726
11
0.24839
21
0.398806
0
LINE
8
BLACK
6
CONTINUOUS
10
0.24839
20
0.398806
11
0.248537
21
0.39899
0
LINE
8
BLACK
6
CONTINUOUS
10
0.248537
20
0.39899
11
0.249318
21
0.399144
0
LINE
8
BLACK
6
CONTINUOUS
10
0.249318
20
0.399144
11
0.250066
21
0.399417
0
LINE
8
BLACK
6
CONTINUOUS
10
0.250066
20
0.399417
11
0.274438
21
0.399417
0
LINE
8
BLACK
6
CONTINUOUS
10
0.274438
20
0.399417
11
0.275448
21
0.399239
0
LINE
8
BLACK
6
CONTINUOUS
10
0.29968
20
0.399263
11
0.299744
21
0.399265
0
LINE
8
BLACK
6
CONTINUOUS
10
0.299744
20
0.399265
11
0.305368
21
0.39739
0
LINE
8
BLACK
6
CONTINUOUS
10
0.305368
20
0.39739
11
0.30627
21
0.396902
0
LINE
8
BLACK
6
CONTINUOUS
10
0.30627
20
0.396902
11
0.306362
21
0.396752
0
LINE
8
BLACK
6
CONTINUOUS
10
0.306362
20
0.396752
11
0.306522
21
0.396677
0
LINE
8
BLACK
6
CONTINUOUS
10
0.306522
20
0.396677
11
0.310272
21
0.392927
0
LINE
8
BLACK
6
CONTINUOUS
10
0.310272
20
0.392927
11
0.310778
21
0.392204
0
LINE
8
BLACK
6
CONTINUOUS
10
0.310778
20
0.392204
11
0.310825
21
0.39216
0
LINE
8
BLACK
6
CONTINUOUS
10
0.310825
20
0.39216
11
0.3127
21
0.388411
0
LINE
8
BLACK
6
CONTINUOUS
10
0.3127
20
0.388411
11
0.312845
21
0.387922
0
LINE
8
BLACK
6
CONTINUOUS
10
0.312845
20
0.387922
11
0.312923
21
0.387806
0
LINE
8
BLACK
6
CONTINUOUS
10
0.312923
20
0.387806
11
0.314798
21
0.380307
0
LINE
8
BLACK
6
CONTINUOUS
10
0.314798
20
0.380307
11
0.31484
21
0.379719
0
LINE
8
BLACK
6
CONTINUOUS
10
0.31484
20
0.379719
11
0.314886
21
0.379591
0
LINE
8
BLACK
6
CONTINUOUS
10
0.314886
20
0.379591
11
0.314886
21
0.373967
0
LINE
8
BLACK
6
CONTINUOUS
10
0.314886
20
0.373967
11
0.314784
21
0.373386
0
LINE
8
BLACK
6
CONTINUOUS
10
0.314784
20
0.373386
11
0.314798
21
0.373251
0
LINE
8
BLACK
6
CONTINUOUS
10
0.314798
20
0.373251
11
0.312923
21
0.365751
0
LINE
8
BLACK
6
CONTINUOUS
10
0.312923
20
0.365751
11
0.312716
21
0.365286
0
LINE
8
BLACK
6
CONTINUOUS
10
0.312716
20
0.365286
11
0.3127
21
0.365147
0
LINE
8
BLACK
6
CONTINUOUS
10
0.3127
20
0.365147
11
0.310825
21
0.361398
0
LINE
8
BLACK
6
CONTINUOUS
10
0.310825
20
0.361398
11
0.310299
21
0.360689
0
LINE
8
BLACK
6
CONTINUOUS
10
0.310299
20
0.360689
11
0.310272
21
0.36063
0
LINE
8
BLACK
6
CONTINUOUS
10
0.310272
20
0.36063
11
0.306522
21
0.356881
0
LINE
8
BLACK
6
CONTINUOUS
10
0.306522
20
0.356881
11
0.305682
21
0.356292
0
LINE
8
BLACK
6
CONTINUOUS
10
0.305682
20
0.356292
11
0.305507
21
0.356277
0
LINE
8
BLACK
6
CONTINUOUS
10
0.305507
20
0.356277
11
0.305368
21
0.356167
0
LINE
8
BLACK
6
CONTINUOUS
10
0.305368
20
0.356167
11
0.299744
21
0.354293
0
LINE
8
BLACK
6
CONTINUOUS
10
0.299744
20
0.354293
11
0.298871
21
0.354163
0
LINE
8
BLACK
6
CONTINUOUS
10
0.298871
20
0.354163
11
0.29881
21
0.354141
0
LINE
8
BLACK
6
CONTINUOUS
10
0.29881
20
0.354141
11
0.295061
21
0.354141
0
LINE
8
BLACK
6
CONTINUOUS
10
0.295061
20
0.354141
11
0.294191
21
0.354294
0
LINE
8
BLACK
6
CONTINUOUS
10
0.294191
20
0.354294
11
0.294127
21
0.354293
0
LINE
8
BLACK
6
CONTINUOUS
10
0.294127
20
0.354293
11
0.288503
21
0.356167
0
LINE
8
BLACK
6
CONTINUOUS
10
0.288503
20
0.356167
11
0.287601
21
0.356656
0
LINE
8
BLACK
6
CONTINUOUS
10
0.287601
20
0.356656
11
0.287508
21
0.356806
0
LINE
8
BLACK
6
CONTINUOUS
10
0.287508
20
0.356806
11
0.287348
21
0.356881
0
LINE
8
BLACK
6
CONTINUOUS
10
0.287348
20
0.356881
11
0.285474
21
0.358755
0
LINE
8
BLACK
6
CONTINUOUS
10
0.285474
20
0.358755
11
0.284886
21
0.359595
0
LINE
8
BLACK
6
CONTINUOUS
10
0.284886
20
0.359595
11
0.28471
21
0.361608
0
LINE
8
BLACK
6
CONTINUOUS
10
0.28471
20
0.361608
11
0.285868
21
0.363262
0
LINE
8
BLACK
6
CONTINUOUS
10
0.285868
20
0.363262
11
0.287819
21
0.363785
0
LINE
8
BLACK
6
CONTINUOUS
10
0.287819
20
0.363785
11
0.28965
21
0.362931
0
LINE
8
BLACK
6
CONTINUOUS
10
0.28965
20
0.362931
11
0.291031
21
0.361549
0
LINE
8
BLACK
6
CONTINUOUS
10
0.291031
20
0.361549
11
0.29554
21
0.360046
0
LINE
8
BLACK
6
CONTINUOUS
10
0.29554
20
0.360046
11
0.298331
21
0.360046
0
LINE
8
BLACK
6
CONTINUOUS
10
0.298331
20
0.360046
11
0.302839
21
0.361549
0
LINE
8
BLACK
6
CONTINUOUS
10
0.302839
20
0.361549
11
0.305757
21
0.364467
0
LINE
8
BLACK
6
CONTINUOUS
10
0.305757
20
0.364467
11
0.307273
21
0.367498
0
LINE
8
BLACK
6
CONTINUOUS
10
0.307273
20
0.367498
11
0.308981
21
0.37433
0
LINE
8
BLACK
6
CONTINUOUS
10
0.308981
20
0.37433
11
0.308981
21
0.379227
0
LINE
8
BLACK
6
CONTINUOUS
10
0.308981
20
0.379227
11
0.307273
21
0.386059
0
LINE
8
BLACK
6
CONTINUOUS
10
0.307273
20
0.386059
11
0.305757
21
0.38909
0
LINE
8
BLACK
6
CONTINUOUS
10
0.305757
20
0.38909
11
0.302839
21
0.392008
0
LINE
8
BLACK
6
CONTINUOUS
10
0.302839
20
0.392008
11
0.298331
21
0.393511
0
LINE
8
BLACK
6
CONTINUOUS
10
0.298331
20
0.393511
11
0.29554
21
0.393511
0
LINE
8
BLACK
6
CONTINUOUS
10
0.29554
20
0.393511
11
0.291031
21
0.392008
0
LINE
8
BLACK
6
CONTINUOUS
10
0.291031
20
0.392008
11
0.28965
21
0.390626
0
LINE
8
BLACK
6
CONTINUOUS
10
0.28965
20
0.390626
11
0.28881
21
0.390038
0
LINE
8
BLACK
6
CONTINUOUS
10
0.28881
20
0.390038
11
0.286797
21
0.389862
0
LINE
8
BLACK
6
CONTINUOUS
10
0.286797
20
0.389862
11
0.285143
21
0.391021
0
LINE
8
BLACK
6
CONTINUOUS
10
0.285143
20
0.391021
11
0.28462
21
0.392972
0
LINE
8
BLACK
6
CONTINUOUS
10
0.28462
20
0.392972
11
0.285474
21
0.394802
0
LINE
8
BLACK
6
CONTINUOUS
10
0.285474
20
0.394802
11
0.287349
21
0.396677
0
LINE
8
BLACK
6
CONTINUOUS
10
0.287349
20
0.396677
11
0.288189
21
0.397265
0
LINE
8
BLACK
6
CONTINUOUS
10
0.288189
20
0.397265
11
0.288364
21
0.397281
0
LINE
8
BLACK
6
CONTINUOUS
10
0.288364
20
0.397281
11
0.288503
21
0.39739
0
LINE
8
BLACK
6
CONTINUOUS
10
0.288503
20
0.39739
11
0.294127
21
0.399265
0
LINE
8
BLACK
6
CONTINUOUS
10
0.294127
20
0.399265
11
0.295
21
0.399395
0
LINE
8
BLACK
6
CONTINUOUS
10
0.295
20
0.399395
11
0.295061
21
0.399417
0
LINE
8
BLACK
6
CONTINUOUS
10
0.295061
20
0.399417
11
0.29881
21
0.399417
0
LINE
8
BLACK
6
CONTINUOUS
10
0.29881
20
0.399417
11
0.29968
21
0.399263
0
LINE
8
BLACK
6
CONTINUOUS
10
0.401956
20
0.372733
11
0.402648
21
0.371063
0
LINE
8
BLACK
6
CONTINUOUS
10
0.402648
20
0.371063
11
0.401956
21
0.369393
0
LINE
8
BLACK
6
CONTINUOUS
10
0.401956
20
0.369393
11
0.400286
21
0.368701
0
LINE
8
BLACK
6
CONTINUOUS
10
0.400286
20
0.368701
11
0.379714
21
0.368701
0
LINE
8
BLACK
6
CONTINUOUS
10
0.379714
20
0.368701
11
0.378044
21
0.369393
0
LINE
8
BLACK
6
CONTINUOUS
10
0.378044
20
0.369393
11
0.377352
21
0.371063
0
LINE
8
BLACK
6
CONTINUOUS
10
0.377352
20
0.371063
11
0.378044
21
0.372733
0
LINE
8
BLACK
6
CONTINUOUS
10
0.378044
20
0.372733
11
0.379714
21
0.373425
0
LINE
8
BLACK
6
CONTINUOUS
10
0.379714
20
0.373425
11
0.400286
21
0.373425
0
LINE
8
BLACK
6
CONTINUOUS
10
0.400286
20
0.373425
11
0.401956
21
0.372733
0
LINE
8
BLACK
6
CONTINUOUS
10
0.623733
20
0.41061
11
0.624425
21
0.40894
0
LINE
8
BLACK
6
CONTINUOUS
10
0.624425
20
0.40894
11
0.624425
21
0.39106
0
LINE
8
BLACK
6
CONTINUOUS
10
0.624425
20
0.39106
11
0.623733
21
0.38939
0
LINE
8
BLACK
6
CONTINUOUS
10
0.623733
20
0.38939
11
0.622063
21
0.388698
0
LINE
8
BLACK
6
CONTINUOUS
10
0.622063
20
0.388698
11
0.620393
21
0.38939
0
LINE
8
BLACK
6
CONTINUOUS
10
0.620393
20
0.38939
11
0.619701
21
0.39106
0
LINE
8
BLACK
6
CONTINUOUS
10
0.619701
20
0.39106
11
0.619701
21
0.40894
0
LINE
8
BLACK
6
CONTINUOUS
10
0.619701
20
0.40894
11
0.620393
21
0.41061
0
LINE
8
BLACK
6
CONTINUOUS
10
0.620393
20
0.41061
11
0.622063
21
0.411302
0
LINE
8
BLACK
6
CONTINUOUS
10
0.622063
20
0.411302
11
0.623733
21
0.41061
0
LINE
8
BLACK
6
CONTINUOUS
10
0.681607
20
0.41061
11
0.682299
21
0.40894
0
LINE
8
BLACK
6
CONTINUOUS
10
0.682299
20
0.40894
11
0.682299
21
0.39106
0
LINE
8
BLACK
6
CONTINUOUS
10
0.682299
20
0.39106
11
0.681607
21
0.38939
0
LINE
8
BLACK
6
CONTINUOUS
10
0.681607
20
0.38939
11
0.679937
21
0.388698
0
LINE
8
BLACK
6
CONTINUOUS
10
0.679937
20
0.388698
11
0.678267
21
0.38939
0
LINE
8
BLACK
6
CONTINUOUS
10
0.678267
20
0.38939
11
0.677575
21
0.39106
0
LINE
8
BLACK
6
CONTINUOUS
10
0.677575
20
0.39106
11
0.677575
21
0.40894
0
LINE
8
BLACK
6
CONTINUOUS
10
0.677575
20
0.40894
11
0.678267
21
0.41061
0
LINE
8
BLACK
6
CONTINUOUS
10
0.678267
20
0.41061
11
0.679937
21
0.411302
0
LINE
8
BLACK
6
CONTINUOUS
10
0.679937
20
0.411302
11
0.681607
21
0.41061
0
LINE
8
BLACK
6
CONTINUOUS
10
0.401956
20
0.430607
11
0.402648
21
0.428937
0
LINE
8
BLACK
6
CONTINUOUS
10
0.402648
20
0.428937
11
0.401956
21
0.427267
0
LINE
8
BLACK
6
CONTINUOUS
10
0.401956
20
0.427267
11
0.400286
21
0.426575
0
LINE
8
BLACK
6
CONTINUOUS
10
0.400286
20
0.426575
11
0.379714
21
0.426575
0
LINE
8
BLACK
6
CONTINUOUS
10
0.379714
20
0.426575
11
0.378044
21
0.427267
0
LINE
8
BLACK
6
CONTINUOUS
10
0.378044
20
0.427267
11
0.377352
21
0.428937
0
LINE
8
BLACK
6
CONTINUOUS
10
0.377352
20
0.428937
11
0.378044
21
0.430607
0
LINE
8
BLACK
6
CONTINUOUS
10
0.378044
20
0.430607
11
0.379714
21
0.431299
0
LINE
8
BLACK
6
CONTINUOUS
10
0.379714
20
0.431299
11
0.400286
21
0.431299
0
LINE
8
BLACK
6
CONTINUOUS
10
0.400286
20
0.431299
11
0.401956
21
0.430607
0
LINE
8
BLACK
6
CONTINUOUS
10
0.324961
20
0.73622
11
0.326631
21
0.735529
0
LINE
8
BLACK
6
CONTINUOUS
10
0.326631
20
0.735529
11
0.327323
21
0.733858
0
LINE
8
BLACK
6
CONTINUOUS
10
0.327323
20
0.733858
11
0.327323
21
0.52126
0
LINE
8
BLACK
6
CONTINUOUS
10
0.327323
20
0.52126
11
0.326631
21
0.51959
0
LINE
8
BLACK
6
CONTINUOUS
10
0.326631
20
0.51959
11
0.324961
21
0.518898
0
LINE
8
BLACK
6
CONTINUOUS
10
0.324961
20
0.518898
11
0.32329
21
0.51959
0
LINE
8
BLACK
6
CONTINUOUS
10
0.32329
20
0.51959
11
0.322598
21
0.52126
0
LINE
8
BLACK
6
CONTINUOUS
10
0.322598
20
0.52126
11
0.322598
21
0.731496
0
LINE
8
BLACK
6
CONTINUOUS
10
0.322598
20
0.731496
11
0.197402
21
0.731496
0
LINE
8
BLACK
6
CONTINUOUS
10
0.197402
20
0.731496
11
0.197402
21
0.52126
0
LINE
8
BLACK
6
CONTINUOUS
10
0.197402
20
0.52126
11
0.19671
21
0.51959
0
LINE
8
BLACK
6
CONTINUOUS
10
0.19671
20
0.51959
11
0.195039
21
0.518898
0
LINE
8
BLACK
6
CONTINUOUS
10
0.195039
20
0.518898
11
0.193369
21
0.51959
0
LINE
8
BLACK
6
CONTINUOUS
10
0.193369
20
0.51959
11
0.192677
21
0.52126
0
LINE
8
BLACK
6
CONTINUOUS
10
0.192677
20
0.52126
11
0.192677
21
0.733858
0
LINE
8
BLACK
6
CONTINUOUS
10
0.192677
20
0.733858
11
0.193369
21
0.735529
0
LINE
8
BLACK
6
CONTINUOUS
10
0.193369
20
0.735529
11
0.195039
21
0.73622
0
LINE
8
BLACK
6
CONTINUOUS
10
0.195039
20
0.73622
11
0.324961
21
0.73622
0
LINE
8
BLACK
6
CONTINUOUS
10
0.582733
20
0.571956
11
0.583425
21
0.570286
0
LINE
8
BLACK
6
CONTINUOUS
10
0.583425
20
0.570286
11
0.583425
21
0.549714
0
LINE
8
BLACK
6
CONTINUOUS
10
0.583425
20
0.549714
11
0.582733
21
0.548044
0
LINE
8
BLACK
6
CONTINUOUS
10
0.582733
20
0.548044
11
0.581063
21
0.547352
0
LINE
8
BLACK
6
CONTINUOUS
10
0.581063
20
0.547352
11
0.579393
21
0.548044
0
LINE
8
BLACK
6
CONTINUOUS
10
0.579393
20
0.548044
11
0.578701
21
0.549714
0
LINE
8
BLACK
6
CONTINUOUS
10
0.578701
20
0.549714
11
0.578701
21
0.570286
0
LINE
8
BLACK
6
CONTINUOUS
10
0.578701
20
0.570286
11
0.579393
21
0.571956
0
LINE
8
BLACK
6
CONTINUOUS
10
0.579393
20
0.571956
11
0.581063
21
0.572648
0
LINE
8
BLACK
6
CONTINUOUS
10
0.581063
20
0.572648
11
0.582733
21
0.571956
0
LINE
8
BLACK
6
CONTINUOUS
10
0.640607
20
0.571956
11
0.641299
21
0.570286
0
LINE
8
BLACK
6
CONTINUOUS
10
0.641299
20
0.570286
11
0.641299
21
0.549714
0
LINE
8
BLACK
6
CONTINUOUS
10
0.641299
20
0.549714
11
0.640607
21
0.548044
0
LINE
8
BLACK
6
CONTINUOUS
10
0.640607
20
0.548044
11
0.638937
21
0.547352
0
LINE
8
BLACK
6
CONTINUOUS
10
0.638937
20
0.547352
11
0.637267
21
0.548044
0
LINE
8
BLACK
6
CONTINUOUS
10
0.637267
20
0.548044
11
0.636575
21
0.549714
0
LINE
8
BLACK
6
CONTINUOUS
10
0.636575
20
0.549714
11
0.636575
21
0.570286
0
LINE
8
BLACK
6
CONTINUOUS
10
0.636575
20
0.570286
11
0.637267
21
0.571956
0
LINE
8
BLACK
6
CONTINUOUS
10
0.637267
20
0.571956
11
0.638937
21
0.572648
0
LINE
8
BLACK
6
CONTINUOUS
10
0.638937
20
0.572648
11
0.640607
21
0.571956
0
LINE
8
BLACK
6
CONTINUOUS
10
0.153119
20
0.593935
11
0.154231
21
0.59225
0
LINE
8
BLACK
6
CONTINUOUS
10
0.154231
20
0.59225
11
0.154001
21
0.590243
0
LINE
8
BLACK
6
CONTINUOUS
10
0.154001
20
0.590243
11
0.152126
21
0.586494
0
LINE
8
BLACK
6
CONTINUOUS
10
0.152126
20
0.586494
11
0.1516
21
0.585784
0
LINE
8
BLACK
6
CONTINUOUS
10
0.1516
20
0.585784
11
0.151573
21
0.585726
0
LINE
8
BLACK
6
CONTINUOUS
10
0.151573
20
0.585726
11
0.149114
21
0.583268
0
LINE
8
BLACK
6
CONTINUOUS
10
0.149114
20
0.583268
11
0.176528
21
0.583268
0
LINE
8
BLACK
6
CONTINUOUS
10
0.176528
20
0.583268
11
0.176528
21
0.591564
0
LINE
8
BLACK
6
CONTINUOUS
10
0.176528
20
0.591564
11
0.176706
21
0.592573
0
LINE
8
BLACK
6
CONTINUOUS
10
0.176706
20
0.592573
11
0.178005
21
0.594121
0
LINE
8
BLACK
6
CONTINUOUS
10
0.178005
20
0.594121
11
0.179994
21
0.594471
0
LINE
8
BLACK
6
CONTINUOUS
10
0.179994
20
0.594471
11
0.181743
21
0.593462
0
LINE
8
BLACK
6
CONTINUOUS
10
0.181743
20
0.593462
11
0.182434
21
0.591564
0
LINE
8
BLACK
6
CONTINUOUS
10
0.182434
20
0.591564
11
0.182434
21
0.569066
0
LINE
8
BLACK
6
CONTINUOUS
10
0.182434
20
0.569066
11
0.182256
21
0.568056
0
LINE
8
BLACK
6
CONTINUOUS
10
0.182256
20
0.568056
11
0.180957
21
0.566509
0
LINE
8
BLACK
6
CONTINUOUS
10
0.180957
20
0.566509
11
0.178968
21
0.566158
0
LINE
8
BLACK
6
CONTINUOUS
10
0.178968
20
0.566158
11
0.177219
21
0.567168
0
LINE
8
BLACK
6
CONTINUOUS
10
0.177219
20
0.567168
11
0.176528
21
0.569066
0
LINE
8
BLACK
6
CONTINUOUS
10
0.176528
20
0.569066
11
0.176528
21
0.577362
0
LINE
8
BLACK
6
CONTINUOUS
10
0.176528
20
0.577362
11
0.140111
21
0.577362
0
LINE
8
BLACK
6
CONTINUOUS
10
0.140111
20
0.577362
11
0.139101
21
0.57754
0
LINE
8
BLACK
6
CONTINUOUS
10
0.139101
20
0.57754
11
0.138971
21
0.577649
0
LINE
8
BLACK
6
CONTINUOUS
10
0.138971
20
0.577649
11
0.138802
21
0.577668
0
LINE
8
BLACK
6
CONTINUOUS
10
0.138802
20
0.577668
11
0.13821
21
0.578288
0
LINE
8
BLACK
6
CONTINUOUS
10
0.13821
20
0.578288
11
0.137554
21
0.578839
0
LINE
8
BLACK
6
CONTINUOUS
10
0.137554
20
0.578839
11
0.137524
21
0.579006
0
LINE
8
BLACK
6
CONTINUOUS
10
0.137524
20
0.579006
11
0.137407
21
0.579129
0
LINE
8
BLACK
6
CONTINUOUS
10
0.137407
20
0.579129
11
0.137352
21
0.579984
0
LINE
8
BLACK
6
CONTINUOUS
10
0.137352
20
0.579984
11
0.137203
21
0.580828
0
LINE
8
BLACK
6
CONTINUOUS
10
0.137203
20
0.580828
11
0.137288
21
0.580975
0
LINE
8
BLACK
6
CONTINUOUS
10
0.137288
20
0.580975
11
0.137277
21
0.581144
0
LINE
8
BLACK
6
CONTINUOUS
10
0.137277
20
0.581144
11
0.137784
21
0.581835
0
LINE
8
BLACK
6
CONTINUOUS
10
0.137784
20
0.581835
11
0.138213
21
0.582577
0
LINE
8
BLACK
6
CONTINUOUS
10
0.138213
20
0.582577
11
0.138372
21
0.582635
0
LINE
8
BLACK
6
CONTINUOUS
10
0.138372
20
0.582635
11
0.138473
21
0.582772
0
LINE
8
BLACK
6
CONTINUOUS
10
0.138473
20
0.582772
11
0.143854
21
0.586359
0
LINE
8
BLACK
6
CONTINUOUS
10
0.143854
20
0.586359
11
0.147058
21
0.589563
0
LINE
8
BLACK
6
CONTINUOUS
10
0.147058
20
0.589563
11
0.148719
21
0.592884
0
LINE
8
BLACK
6
CONTINUOUS
10
0.148719
20
0.592884
11
0.149329
21
0.593708
0
LINE
8
BLACK
6
CONTINUOUS
10
0.149329
20
0.593708
11
0.151183
21
0.594511
0
LINE
8
BLACK
6
CONTINUOUS
10
0.151183
20
0.594511
11
0.153119
21
0.593935
0
LINE
8
BLACK
6
CONTINUOUS
10
0.179865
20
0.631944
11
0.179994
21
0.631967
0
LINE
8
BLACK
6
CONTINUOUS
10
0.179994
20
0.631967
11
0.180107
21
0.631901
0
LINE
8
BLACK
6
CONTINUOUS
10
0.180107
20
0.631901
11
0.180491
21
0.631834
0
LINE
8
BLACK
6
CONTINUOUS
10
0.180491
20
0.631834
11
0.181079
21
0.63134
0
LINE
8
BLACK
6
CONTINUOUS
10
0.181079
20
0.63134
11
0.181743
21
0.630957
0
LINE
8
BLACK
6
CONTINUOUS
10
0.181743
20
0.630957
11
0.181834
21
0.630707
0
LINE
8
BLACK
6
CONTINUOUS
10
0.181834
20
0.630707
11
0.182038
21
0.630535
0
LINE
8
BLACK
6
CONTINUOUS
10
0.182038
20
0.630535
11
0.182171
21
0.62978
0
LINE
8
BLACK
6
CONTINUOUS
10
0.182171
20
0.62978
11
0.182434
21
0.629059
0
LINE
8
BLACK
6
CONTINUOUS
10
0.182434
20
0.629059
11
0.182434
21
0.619685
0
LINE
8
BLACK
6
CONTINUOUS
10
0.182434
20
0.619685
11
0.182281
21
0.618816
0
LINE
8
BLACK
6
CONTINUOUS
10
0.182281
20
0.618816
11
0.182282
21
0.618751
0
LINE
8
BLACK
6
CONTINUOUS
10
0.182282
20
0.618751
11
0.180408
21
0.613127
0
LINE
8
BLACK
6
CONTINUOUS
10
0.180408
20
0.613127
11
0.179919
21
0.612225
0
LINE
8
BLACK
6
CONTINUOUS
10
0.179919
20
0.612225
11
0.179769
21
0.612133
0
LINE
8
BLACK
6
CONTINUOUS
10
0.179769
20
0.612133
11
0.179694
21
0.611973
0
LINE
8
BLACK
6
CONTINUOUS
10
0.179694
20
0.611973
11
0.175945
21
0.608223
0
LINE
8
BLACK
6
CONTINUOUS
10
0.175945
20
0.608223
11
0.175221
21
0.607717
0
LINE
8
BLACK
6
CONTINUOUS
10
0.175221
20
0.607717
11
0.175177
21
0.60767
0
LINE
8
BLACK
6
CONTINUOUS
10
0.175177
20
0.60767
11
0.171428
21
0.605795
0
LINE
8
BLACK
6
CONTINUOUS
10
0.171428
20
0.605795
11
0.170939
21
0.60565
0
LINE
8
BLACK
6
CONTINUOUS
10
0.170939
20
0.60565
11
0.170823
21
0.605572
0
LINE
8
BLACK
6
CONTINUOUS
10
0.170823
20
0.605572
11
0.163324
21
0.603697
0
LINE
8
BLACK
6
CONTINUOUS
10
0.163324
20
0.603697
11
0.162736
21
0.603656
0
LINE
8
BLACK
6
CONTINUOUS
10
0.162736
20
0.603656
11
0.162608
21
0.603609
0
LINE
8
BLACK
6
CONTINUOUS
10
0.162608
20
0.603609
11
0.156984
21
0.603609
0
LINE
8
BLACK
6
CONTINUOUS
10
0.156984
20
0.603609
11
0.156403
21
0.603711
0
LINE
8
BLACK
6
CONTINUOUS
10
0.156403
20
0.603711
11
0.156268
21
0.603697
0
LINE
8
BLACK
6
CONTINUOUS
10
0.156268
20
0.603697
11
0.148769
21
0.605572
0
LINE
8
BLACK
6
CONTINUOUS
10
0.148769
20
0.605572
11
0.148303
21
0.605779
0
LINE
8
BLACK
6
CONTINUOUS
10
0.148303
20
0.605779
11
0.148164
21
0.605795
0
LINE
8
BLACK
6
CONTINUOUS
10
0.148164
20
0.605795
11
0.144415
21
0.60767
0
LINE
8
BLACK
6
CONTINUOUS
10
0.144415
20
0.60767
11
0.143706
21
0.608196
0
LINE
8
BLACK
6
CONTINUOUS
10
0.143706
20
0.608196
11
0.143647
21
0.608223
0
LINE
8
BLACK
6
CONTINUOUS
10
0.143647
20
0.608223
11
0.139898
21
0.611973
0
LINE
8
BLACK
6
CONTINUOUS
10
0.139898
20
0.611973
11
0.13931
21
0.612813
0
LINE
8
BLACK
6
CONTINUOUS
10
0.13931
20
0.612813
11
0.139294
21
0.612989
0
LINE
8
BLACK
6
CONTINUOUS
10
0.139294
20
0.612989
11
0.139185
21
0.613127
0
LINE
8
BLACK
6
CONTINUOUS
10
0.139185
20
0.613127
11
0.13731
21
0.618751
0
LINE
8
BLACK
6
CONTINUOUS
10
0.13731
20
0.618751
11
0.13718
21
0.619624
0
LINE
8
BLACK
6
CONTINUOUS
10
0.13718
20
0.619624
11
0.137158
21
0.619685
0
LINE
8
BLACK
6
CONTINUOUS
10
0.137158
20
0.619685
11
0.137158
21
0.629059
0
LINE
8
BLACK
6
CONTINUOUS
10
0.137158
20
0.629059
11
0.137226
21
0.629442
0
LINE
8
BLACK
6
CONTINUOUS
10
0.137226
20
0.629442
11
0.137203
21
0.629572
0
LINE
8
BLACK
6
CONTINUOUS
10
0.137203
20
0.629572
11
0.137269
21
0.629685
0
LINE
8
BLACK
6
CONTINUOUS
10
0.137269
20
0.629685
11
0.137336
21
0.630069
0
LINE
8
BLACK
6
CONTINUOUS
10
0.137336
20
0.630069
11
0.137829
21
0.630656
0
LINE
8
BLACK
6
CONTINUOUS
10
0.137829
20
0.630656
11
0.138213
21
0.631321
0
LINE
8
BLACK
6
CONTINUOUS
10
0.138213
20
0.631321
11
0.138463
21
0.631412
0
LINE
8
BLACK
6
CONTINUOUS
10
0.138463
20
0.631412
11
0.138635
21
0.631616
0
LINE
8
BLACK
6
CONTINUOUS
10
0.138635
20
0.631616
11
0.13939
21
0.631749
0
LINE
8
BLACK
6
CONTINUOUS
10
0.13939
20
0.631749
11
0.140111
21
0.632012
0
LINE
8
BLACK
6
CONTINUOUS
10
0.140111
20
0.632012
11
0.179481
21
0.632012
0
LINE
8
BLACK
6
CONTINUOUS
10
0.179481
20
0.632012
11
0.179865
21
0.631944
0
LINE
8
BLACK
6
CONTINUOUS
10
0.143064
20
0.620164
11
0.144567
21
0.615656
0
LINE
8
BLACK
6
CONTINUOUS
10
0.144567
20
0.615656
11
0.147484
21
0.612738
0
LINE
8
BLACK
6
CONTINUOUS
10
0.147484
20
0.612738
11
0.150515
21
0.611222
0
LINE
8
BLACK
6
CONTINUOUS
10
0.150515
20
0.611222
11
0.157347
21
0.609514
0
LINE
8
BLACK
6
CONTINUOUS
10
0.157347
20
0.609514
11
0.162245
21
0.609514
0
LINE
8
BLACK
6
CONTINUOUS
10
0.162245
20
0.609514
11
0.169077
21
0.611222
0
LINE
8
BLACK
6
CONTINUOUS
10
0.169077
20
0.611222
11
0.172108
21
0.612738
0
LINE
8
BLACK
6
CONTINUOUS
10
0.172108
20
0.612738
11
0.175026
21
0.615656
0
LINE
8
BLACK
6
CONTINUOUS
10
0.175026
20
0.615656
11
0.176528
21
0.620164
0
LINE
8
BLACK
6
CONTINUOUS
10
0.176528
20
0.620164
11
0.176528
21
0.626106
0
LINE
8
BLACK
6
CONTINUOUS
10
0.176528
20
0.626106
11
0.143064
21
0.626106
0
LINE
8
BLACK
6
CONTINUOUS
10
0.143064
20
0.626106
11
0.143064
21
0.620164
0
LINE
8
BLACK
6
CONTINUOUS
10
0.601544
20
0.663935
11
0.602657
21
0.66225
0
LINE
8
BLACK
6
CONTINUOUS
10
0.602657
20
0.66225
11
0.602426
21
0.660243
0
LINE
8
BLACK
6
CONTINUOUS
10
0.602426
20
0.660243
11
0.600551
21
0.656494
0
LINE
8
BLACK
6
CONTINUOUS
10
0.600551
20
0.656494
11
0.600025
21
0.655784
0
LINE
8
BLACK
6
CONTINUOUS
10
0.600025
20
0.655784
11
0.599998
21
0.655726
0
LINE
8
BLACK
6
CONTINUOUS
10
0.599998
20
0.655726
11
0.59754
21
0.653268
0
LINE
8
BLACK
6
CONTINUOUS
10
0.59754
20
0.653268
11
0.624954
21
0.653268
0
LINE
8
BLACK
6
CONTINUOUS
10
0.624954
20
0.653268
11
0.624954
21
0.661564
0
LINE
8
BLACK
6
CONTINUOUS
10
0.624954
20
0.661564
11
0.625132
21
0.662573
0
LINE
8
BLACK
6
CONTINUOUS
10
0.625132
20
0.662573
11
0.62643
21
0.664121
0
LINE
8
BLACK
6
CONTINUOUS
10
0.62643
20
0.664121
11
0.628419
21
0.664471
0
LINE
8
BLACK
6
CONTINUOUS
10
0.628419
20
0.664471
11
0.630168
21
0.663462
0
LINE
8
BLACK
6
CONTINUOUS
10
0.630168
20
0.663462
11
0.630859
21
0.661564
0
LINE
8
BLACK
6
CONTINUOUS
10
0.630859
20
0.661564
11
0.630859
21
0.639066
0
LINE
8
BLACK
6
CONTINUOUS
10
0.630859
20
0.639066
11
0.630681
21
0.638056
0
LINE
8
BLACK
6
CONTINUOUS
10
0.630681
20
0.638056
11
0.629383
21
0.636509
0
LINE
8
BLACK
6
CONTINUOUS
10
0.629383
20
0.636509
11
0.627394
21
0.636158
0
LINE
8
BLACK
6
CONTINUOUS
10
0.627394
20
0.636158
11
0.625644
21
0.637168
0
LINE
8
BLACK
6
CONTINUOUS
10
0.625644
20
0.637168
11
0.624954
21
0.639066
0
LINE
8
BLACK
6
CONTINUOUS
10
0.624954
20
0.639066
11
0.624954
21
0.647362
0
LINE
8
BLACK
6
CONTINUOUS
10
0.624954
20
0.647362
11
0.588536
21
0.647362
0
LINE
8
BLACK
6
CONTINUOUS
10
0.588536
20
0.647362
11
0.587526
21
0.64754
0
LINE
8
BLACK
6
CONTINUOUS
10
0.587526
20
0.64754
11
0.587396
21
0.647649
0
LINE
8
BLACK
6
CONTINUOUS
10
0.587396
20
0.647649
11
0.587227
21
0.647668
0
LINE
8
BLACK
6
CONTINUOUS
10
0.587227
20
0.647668
11
0.586636
21
0.648288
0
LINE
8
BLACK
6
CONTINUOUS
10
0.586636
20
0.648288
11
0.585979
21
0.648839
0
LINE
8
BLACK
6
CONTINUOUS
10
0.585979
20
0.648839
11
0.58595
21
0.649006
0
LINE
8
BLACK
6
CONTINUOUS
10
0.58595
20
0.649006
11
0.585832
21
0.649129
0
LINE
8
BLACK
6
CONTINUOUS
10
0.585832
20
0.649129
11
0.585777
21
0.649984
0
LINE
8
BLACK
6
CONTINUOUS
10
0.585777
20
0.649984
11
0.585628
21
0.650828
0
LINE
8
BLACK
6
CONTINUOUS
10
0.585628
20
0.650828
11
0.585713
21
0.650975
0
LINE
8
BLACK
6
CONTINUOUS
10
0.585713
20
0.650975
11
0.585702
21
0.651144
0
LINE
8
BLACK
6
CONTINUOUS
10
0.585702
20
0.651144
11
0.58621
21
0.651835
0
LINE
8
BLACK
6
CONTINUOUS
10
0.58621
20
0.651835
11
0.586638
21
0.652577
0
LINE
8
BLACK
6
CONTINUOUS
10
0.586638
20
0.652577
11
0.586798
21
0.652635
0
LINE
8
BLACK
6
CONTINUOUS
10
0.586798
20
0.652635
11
0.586898
21
0.652772
0
LINE
8
BLACK
6
CONTINUOUS
10
0.586898
20
0.652772
11
0.592279
21
0.656359
0
LINE
8
BLACK
6
CONTINUOUS
10
0.592279
20
0.656359
11
0.595483
21
0.659563
0
LINE
8
BLACK
6
CONTINUOUS
10
0.595483
20
0.659563
11
0.597144
21
0.662884
0
LINE
8
BLACK
6
CONTINUOUS
10
0.597144
20
0.662884
11
0.597755
21
0.663708
0
LINE
8
BLACK
6
CONTINUOUS
10
0.597755
20
0.663708
11
0.599608
21
0.664511
0
LINE
8
BLACK
6
CONTINUOUS
10
0.599608
20
0.664511
11
0.601544
21
0.663935
0
LINE
8
BLACK
6
CONTINUOUS
10
0.611614
20
0.703784
11
0.611749
21
0.703798
0
LINE
8
BLACK
6
CONTINUOUS
10
0.611749
20
0.703798
11
0.619249
21
0.701923
0
LINE
8
BLACK
6
CONTINUOUS
10
0.619249
20
0.701923
11
0.619714
21
0.701716
0
LINE
8
BLACK
6
CONTINUOUS
10
0.619714
20
0.701716
11
0.619853
21
0.7017
0
LINE
8
BLACK
6
CONTINUOUS
10
0.619853
20
0.7017
11
0.623602
21
0.699825
0
LINE
8
BLACK
6
CONTINUOUS
10
0.623602
20
0.699825
11
0.624311
21
0.699299
0
LINE
8
BLACK
6
CONTINUOUS
10
0.624311
20
0.699299
11
0.62437
21
0.699272
0
LINE
8
BLACK
6
CONTINUOUS
10
0.62437
20
0.699272
11
0.628119
21
0.695522
0
LINE
8
BLACK
6
CONTINUOUS
10
0.628119
20
0.695522
11
0.628708
21
0.694682
0
LINE
8
BLACK
6
CONTINUOUS
10
0.628708
20
0.694682
11
0.628723
21
0.694507
0
LINE
8
BLACK
6
CONTINUOUS
10
0.628723
20
0.694507
11
0.628833
21
0.694368
0
LINE
8
BLACK
6
CONTINUOUS
10
0.628833
20
0.694368
11
0.630707
21
0.688744
0
LINE
8
BLACK
6
CONTINUOUS
10
0.630707
20
0.688744
11
0.630837
21
0.687871
0
LINE
8
BLACK
6
CONTINUOUS
10
0.630837
20
0.687871
11
0.630859
21
0.68781
0
LINE
8
BLACK
6
CONTINUOUS
10
0.630859
20
0.68781
11
0.630859
21
0.684061
0
LINE
8
BLACK
6
CONTINUOUS
10
0.630859
20
0.684061
11
0.630706
21
0.683191
0
LINE
8
BLACK
6
CONTINUOUS
10
0.630706
20
0.683191
11
0.630707
21
0.683127
0
LINE
8
BLACK
6
CONTINUOUS
10
0.630707
20
0.683127
11
0.628833
21
0.677503
0
LINE
8
BLACK
6
CONTINUOUS
10
0.628833
20
0.677503
11
0.628344
21
0.676601
0
LINE
8
BLACK
6
CONTINUOUS
10
0.628344
20
0.676601
11
0.628194
21
0.676509
0
LINE
8
BLACK
6
CONTINUOUS
10
0.628194
20
0.676509
11
0.628119
21
0.676349
0
LINE
8
BLACK
6
CONTINUOUS
10
0.628119
20
0.676349
11
0.626245
21
0.674474
0
LINE
8
BLACK
6
CONTINUOUS
10
0.626245
20
0.674474
11
0.625405
21
0.673886
0
LINE
8
BLACK
6
CONTINUOUS
10
0.625405
20
0.673886
11
0.623392
21
0.67371
0
LINE
8
BLACK
6
CONTINUOUS
10
0.623392
20
0.67371
11
0.621738
21
0.674868
0
LINE
8
BLACK
6
CONTINUOUS
10
0.621738
20
0.674868
11
0.621215
21
0.676819
0
LINE
8
BLACK
6
CONTINUOUS
10
0.621215
20
0.676819
11
0.622069
21
0.67865
0
LINE
8
BLACK
6
CONTINUOUS
10
0.622069
20
0.67865
11
0.623451
21
0.680032
0
LINE
8
BLACK
6
CONTINUOUS
10
0.623451
20
0.680032
11
0.624954
21
0.68454
0
LINE
8
BLACK
6
CONTINUOUS
10
0.624954
20
0.68454
11
0.624954
21
0.687331
0
LINE
8
BLACK
6
CONTINUOUS
10
0.624954
20
0.687331
11
0.623451
21
0.69184
0
LINE
8
BLACK
6
CONTINUOUS
10
0.623451
20
0.69184
11
0.620533
21
0.694757
0
LINE
8
BLACK
6
CONTINUOUS
10
0.620533
20
0.694757
11
0.617502
21
0.696273
0
LINE
8
BLACK
6
CONTINUOUS
10
0.617502
20
0.696273
11
0.61067
21
0.697981
0
LINE
8
BLACK
6
CONTINUOUS
10
0.61067
20
0.697981
11
0.605773
21
0.697981
0
LINE
8
BLACK
6
CONTINUOUS
10
0.605773
20
0.697981
11
0.598941
21
0.696273
0
LINE
8
BLACK
6
CONTINUOUS
10
0.598941
20
0.696273
11
0.59591
21
0.694757
0
LINE
8
BLACK
6
CONTINUOUS
10
0.59591
20
0.694757
11
0.592992
21
0.69184
0
LINE
8
BLACK
6
CONTINUOUS
10
0.592992
20
0.69184
11
0.591489
21
0.687331
0
LINE
8
BLACK
6
CONTINUOUS
10
0.591489
20
0.687331
11
0.591489
21
0.68454
0
LINE
8
BLACK
6
CONTINUOUS
10
0.591489
20
0.68454
11
0.592992
21
0.680031
0
LINE
8
BLACK
6
CONTINUOUS
10
0.592992
20
0.680031
11
0.594374
21
0.67865
0
LINE
8
BLACK
6
CONTINUOUS
10
0.594374
20
0.67865
11
0.594962
21
0.67781
0
LINE
8
BLACK
6
CONTINUOUS
10
0.594962
20
0.67781
11
0.595138
21
0.675797
0
LINE
8
BLACK
6
CONTINUOUS
10
0.595138
20
0.675797
11
0.593979
21
0.674143
0
LINE
8
BLACK
6
CONTINUOUS
10
0.593979
20
0.674143
11
0.592028
21
0.67362
0
LINE
8
BLACK
6
CONTINUOUS
10
0.592028
20
0.67362
11
0.590198
21
0.674474
0
LINE
8
BLACK
6
CONTINUOUS
10
0.590198
20
0.674474
11
0.588323
21
0.676349
0
LINE
8
BLACK
6
CONTINUOUS
10
0.588323
20
0.676349
11
0.587735
21
0.677189
0
LINE
8
BLACK
6
CONTINUOUS
10
0.587735
20
0.677189
11
0.587719
21
0.677364
0
LINE
8
BLACK
6
CONTINUOUS
10
0.587719
20
0.677364
11
0.58761
21
0.677503
0
LINE
8
BLACK
6
CONTINUOUS
10
0.58761
20
0.677503
11
0.585735
21
0.683127
0
LINE
8
BLACK
6
CONTINUOUS
10
0.585735
20
0.683127
11
0.585605
21
0.684
0
LINE
8
BLACK
6
CONTINUOUS
10
0.585605
20
0.684
11
0.585583
21
0.684061
0
LINE
8
BLACK
6
CONTINUOUS
10
0.585583
20
0.684061
11
0.585583
21
0.68781
0
LINE
8
BLACK
6
CONTINUOUS
10
0.585583
20
0.68781
11
0.585737
21
0.68868
0
LINE
8
BLACK
6
CONTINUOUS
10
0.585737
20
0.68868
11
0.585735
21
0.688744
0
LINE
8
BLACK
6
CONTINUOUS
10
0.585735
20
0.688744
11
0.58761
21
0.694368
0
LINE
8
BLACK
6
CONTINUOUS
10
0.58761
20
0.694368
11
0.588098
21
0.69527
0
LINE
8
BLACK
6
CONTINUOUS
10
0.588098
20
0.69527
11
0.588248
21
0.695363
0
LINE
8
BLACK
6
CONTINUOUS
10
0.588248
20
0.695363
11
0.588323
21
0.695522
0
LINE
8
BLACK
6
CONTINUOUS
10
0.588323
20
0.695522
11
0.592073
21
0.699272
0
LINE
8
BLACK
6
CONTINUOUS
10
0.592073
20
0.699272
11
0.592796
21
0.699778
0
LINE
8
BLACK
6
CONTINUOUS
10
0.592796
20
0.699778
11
0.59284
21
0.699825
0
LINE
8
BLACK
6
CONTINUOUS
10
0.59284
20
0.699825
11
0.596589
21
0.7017
0
LINE
8
BLACK
6
CONTINUOUS
10
0.596589
20
0.7017
11
0.597078
21
0.701845
0
LINE
8
BLACK
6
CONTINUOUS
10
0.597078
20
0.701845
11
0.597194
21
0.701923
0
LINE
8
BLACK
6
CONTINUOUS
10
0.597194
20
0.701923
11
0.604693
21
0.703798
0
LINE
8
BLACK
6
CONTINUOUS
10
0.604693
20
0.703798
11
0.605281
21
0.70384
0
LINE
8
BLACK
6
CONTINUOUS
10
0.605281
20
0.70384
11
0.605409
21
0.703886
0
LINE
8
BLACK
6
CONTINUOUS
10
0.605409
20
0.703886
11
0.611033
21
0.703886
0
LINE
8
BLACK
6
CONTINUOUS
10
0.611033
20
0.703886
11
0.611614
21
0.703784
0
LINE
8
BLACK
6
CONTINUOUS
10
0.321956
20
0.782733
11
0.322648
21
0.781063
0
LINE
8
BLACK
6
CONTINUOUS
10
0.322648
20
0.781063
11
0.321956
21
0.779393
0
LINE
8
BLACK
6
CONTINUOUS
10
0.321956
20
0.779393
11
0.320286
21
0.778701
0
LINE
8
BLACK
6
CONTINUOUS
10
0.320286
20
0.778701
11
0.299714
21
0.778701
0
LINE
8
BLACK
6
CONTINUOUS
10
0.299714
20
0.778701
11
0.298044
21
0.779393
0
LINE
8
BLACK
6
CONTINUOUS
10
0.298044
20
0.779393
11
0.297352
21
0.781063
0
LINE
8
BLACK
6
CONTINUOUS
10
0.297352
20
0.781063
11
0.298044
21
0.782733
0
LINE
8
BLACK
6
CONTINUOUS
10
0.298044
20
0.782733
11
0.299714
21
0.783425
0
LINE
8
BLACK
6
CONTINUOUS
10
0.299714
20
0.783425
11
0.320286
21
0.783425
0
LINE
8
BLACK
6
CONTINUOUS
10
0.320286
20
0.783425
11
0.321956
21
0.782733
0
LINE
8
BLACK
6
CONTINUOUS
10
0.461956
20
0.782733
11
0.462648
21
0.781063
0
LINE
8
BLACK
6
CONTINUOUS
10
0.462648
20
0.781063
11
0.461956
21
0.779393
0
LINE
8
BLACK
6
CONTINUOUS
10
0.461956
20
0.779393
11
0.460286
21
0.778701
0
LINE
8
BLACK
6
CONTINUOUS
10
0.460286
20
0.778701
11
0.439714
21
0.778701
0
LINE
8
BLACK
6
CONTINUOUS
10
0.439714
20
0.778701
11
0.438044
21
0.779393
0
LINE
8
BLACK
6
CONTINUOUS
10
0.438044
20
0.779393
11
0.437352
21
0.781063
0
LINE
8
BLACK
6
CONTINUOUS
10
0.437352
20
0.781063
11
0.438044
21
0.782733
0
LINE
8
BLACK
6
CONTINUOUS
10
0.438044
20
0.782733
11
0.439714
21
0.783425
0
LINE
8
BLACK
6
CONTINUOUS
10
0.439714
20
0.783425
11
0.460286
21
0.783425
0
LINE
8
BLACK
6
CONTINUOUS
10
0.460286
20
0.783425
11
0.461956
21
0.782733
0
LINE
8
BLACK
6
CONTINUOUS
10
0.623733
20
0.81061
11
0.624425
21
0.80894
0
LINE
8
BLACK
6
CONTINUOUS
10
0.624425
20
0.80894
11
0.624425
21
0.79106
0
LINE
8
BLACK
6
CONTINUOUS
10
0.624425
20
0.79106
11
0.623733
21
0.78939
0
LINE
8
BLACK
6
CONTINUOUS
10
0.623733
20
0.78939
11
0.622063
21
0.788698
0
LINE
8
BLACK
6
CONTINUOUS
10
0.622063
20
0.788698
11
0.620393
21
0.78939
0
LINE
8
BLACK
6
CONTINUOUS
10
0.620393
20
0.78939
11
0.619701
21
0.79106
0
LINE
8
BLACK
6
CONTINUOUS
10
0.619701
20
0.79106
11
0.619701
21
0.80894
0
LINE
8
BLACK
6
CONTINUOUS
10
0.619701
20
0.80894
11
0.620393
21
0.81061
0
LINE
8
BLACK
6
CONTINUOUS
10
0.620393
20
0.81061
11
0.622063
21
0.811302
0
LINE
8
BLACK
6
CONTINUOUS
10
0.622063
20
0.811302
11
0.623733
21
0.81061
0
LINE
8
BLACK
6
CONTINUOUS
10
0.681607
20
0.81061
11
0.682299
21
0.80894
0
LINE
8
BLACK
6
CONTINUOUS
10
0.682299
20
0.80894
11
0.682299
21
0.79106
0
LINE
8
BLACK
6
CONTINUOUS
10
0.682299
20
0.79106
11
0.681607
21
0.78939
0
LINE
8
BLACK
6
CONTINUOUS
10
0.681607
20
0.78939
11
0.679937
21
0.788698
0
LINE
8
BLACK
6
CONTINUOUS
10
0.679937
20
0.788698
11
0.678267
21
0.78939
0
LINE
8
BLACK
6
CONTINUOUS
10
0.678267
20
0.78939
11
0.677575
21
0.79106
0
LINE
8
BLACK
6
CONTINUOUS
10
0.677575
20
0.79106
11
0.677575
21
0.80894
0
LINE
8
BLACK
6
CONTINUOUS
10
0.677575
20
0.80894
11
0.678267
21
0.81061
0
LINE
8
BLACK
6
CONTINUOUS
10
0.678267
20
0.81061
11
0.679937
21
0.811302
0
LINE
8
BLACK
6
CONTINUOUS
10
0.679937
20
0.811302
11
0.681607
21
0.81061
0
LINE
8
BLACK
6
CONTINUOUS
10
0.21568
20
0.843263
11
0.215744
21
0.843265
0
LINE
8
BLACK
6
CONTINUOUS
10
0.215744
20
0.843265
11
0.221368
21
0.84139
0
LINE
8
BLACK
6
CONTINUOUS
10
0.221368
20
0.84139
11
0.22227
21
0.840902
0
LINE
8
BLACK
6
CONTINUOUS
10
0.22227
20
0.840902
11
0.222362
21
0.840752
0
LINE
8
BLACK
6
CONTINUOUS
10
0.222362
20
0.840752
11
0.222522
21
0.840677
0
LINE
8
BLACK
6
CONTINUOUS
10
0.222522
20
0.840677
11
0.226272
21
0.836927
0
LINE
8
BLACK
6
CONTINUOUS
10
0.226272
20
0.836927
11
0.226778
21
0.836204
0
LINE
8
BLACK
6
CONTINUOUS
10
0.226778
20
0.836204
11
0.226825
21
0.83616
0
LINE
8
BLACK
6
CONTINUOUS
10
0.226825
20
0.83616
11
0.2287
21
0.832411
0
LINE
8
BLACK
6
CONTINUOUS
10
0.2287
20
0.832411
11
0.228845
21
0.831922
0
LINE
8
BLACK
6
CONTINUOUS
10
0.228845
20
0.831922
11
0.228923
21
0.831806
0
LINE
8
BLACK
6
CONTINUOUS
10
0.228923
20
0.831806
11
0.230798
21
0.824307
0
LINE
8
BLACK
6
CONTINUOUS
10
0.230798
20
0.824307
11
0.23084
21
0.823719
0
LINE
8
BLACK
6
CONTINUOUS
10
0.23084
20
0.823719
11
0.230886
21
0.823591
0
LINE
8
BLACK
6
CONTINUOUS
10
0.230886
20
0.823591
11
0.230886
21
0.817967
0
LINE
8
BLACK
6
CONTINUOUS
10
0.230886
20
0.817967
11
0.230784
21
0.817386
0
LINE
8
BLACK
6
CONTINUOUS
10
0.230784
20
0.817386
11
0.230798
21
0.817251
0
LINE
8
BLACK
6
CONTINUOUS
10
0.230798
20
0.817251
11
0.228923
21
0.809751
0
LINE
8
BLACK
6
CONTINUOUS
10
0.228923
20
0.809751
11
0.228716
21
0.809286
0
LINE
8
BLACK
6
CONTINUOUS
10
0.228716
20
0.809286
11
0.2287
21
0.809147
0
LINE
8
BLACK
6
CONTINUOUS
10
0.2287
20
0.809147
11
0.226825
21
0.805398
0
LINE
8
BLACK
6
CONTINUOUS
10
0.226825
20
0.805398
11
0.226299
21
0.804689
0
LINE
8
BLACK
6
CONTINUOUS
10
0.226299
20
0.804689
11
0.226272
21
0.80463
0
LINE
8
BLACK
6
CONTINUOUS
10
0.226272
20
0.80463
11
0.222522
21
0.800881
0
LINE
8
BLACK
6
CONTINUOUS
10
0.222522
20
0.800881
11
0.221682
21
0.800292
0
LINE
8
BLACK
6
CONTINUOUS
10
0.221682
20
0.800292
11
0.221507
21
0.800277
0
LINE
8
BLACK
6
CONTINUOUS
10
0.221507
20
0.800277
11
0.221368
21
0.800167
0
LINE
8
BLACK
6
CONTINUOUS
10
0.221368
20
0.800167
11
0.215744
21
0.798293
0
LINE
8
BLACK
6
CONTINUOUS
10
0.215744
20
0.798293
11
0.214871
21
0.798163
0
LINE
8
BLACK
6
CONTINUOUS
10
0.214871
20
0.798163
11
0.21481
21
0.798141
0
LINE
8
BLACK
6
CONTINUOUS
10
0.21481
20
0.798141
11
0.211061
21
0.798141
0
LINE
8
BLACK
6
CONTINUOUS
10
0.211061
20
0.798141
11
0.210191
21
0.798294
0
LINE
8
BLACK
6
CONTINUOUS
10
0.210191
20
0.798294
11
0.210127
21
0.798293
0
LINE
8
BLACK
6
CONTINUOUS
10
0.210127
20
0.798293
11
0.204503
21
0.800167
0
LINE
8
BLACK
6
CONTINUOUS
10
0.204503
20
0.800167
11
0.203601
21
0.800656
0
LINE
8
BLACK
6
CONTINUOUS
10
0.203601
20
0.800656
11
0.203508
21
0.800806
0
LINE
8
BLACK
6
CONTINUOUS
10
0.203508
20
0.800806
11
0.203348
21
0.800881
0
LINE
8
BLACK
6
CONTINUOUS
10
0.203348
20
0.800881
11
0.201474
21
0.802755
0
LINE
8
BLACK
6
CONTINUOUS
10
0.201474
20
0.802755
11
0.200886
21
0.803595
0
LINE
8
BLACK
6
CONTINUOUS
10
0.200886
20
0.803595
11
0.20071
21
0.805608
0
LINE
8
BLACK
6
CONTINUOUS
10
0.20071
20
0.805608
11
0.201868
21
0.807262
0
LINE
8
BLACK
6
CONTINUOUS
10
0.201868
20
0.807262
11
0.203819
21
0.807785
0
LINE
8
BLACK
6
CONTINUOUS
10
0.203819
20
0.807785
11
0.20565
21
0.806931
0
LINE
8
BLACK
6
CONTINUOUS
10
0.20565
20
0.806931
11
0.207031
21
0.805549
0
LINE
8
BLACK
6
CONTINUOUS
10
0.207031
20
0.805549
11
0.21154
21
0.804046
0
LINE
8
BLACK
6
CONTINUOUS
10
0.21154
20
0.804046
11
0.214331
21
0.804046
0
LINE
8
BLACK
6
CONTINUOUS
10
0.214331
20
0.804046
11
0.218839
21
0.805549
0
LINE
8
BLACK
6
CONTINUOUS
10
0.218839
20
0.805549
11
0.221757
21
0.808467
0
LINE
8
BLACK
6
CONTINUOUS
10
0.221757
20
0.808467
11
0.223273
21
0.811498
0
LINE
8
BLACK
6
CONTINUOUS
10
0.223273
20
0.811498
11
0.224981
21
0.81833
0
LINE
8
BLACK
6
CONTINUOUS
10
0.224981
20
0.81833
11
0.224981
21
0.823227
0
LINE
8
BLACK
6
CONTINUOUS
10
0.224981
20
0.823227
11
0.223273
21
0.830059
0
LINE
8
BLACK
6
CONTINUOUS
10
0.223273
20
0.830059
11
0.221757
21
0.83309
0
LINE
8
BLACK
6
CONTINUOUS
10
0.221757
20
0.83309
11
0.218839
21
0.836008
0
LINE
8
BLACK
6
CONTINUOUS
10
0.218839
20
0.836008
11
0.214331
21
0.837511
0
LINE
8
BLACK
6
CONTINUOUS
10
0.214331
20
0.837511
11
0.21154
21
0.837511
0
LINE
8
BLACK
6
CONTINUOUS
10
0.21154
20
0.837511
11
0.207031
21
0.836008
0
LINE
8
BLACK
6
CONTINUOUS
10
0.207031
20
0.836008
11
0.20565
21
0.834626
0
LINE
8
BLACK
6
CONTINUOUS
10
0.20565
20
0.834626
11
0.20481
21
0.834038
0
LINE
8
BLACK
6
CONTINUOUS
10
0.20481
20
0.834038
11
0.202797
21
0.833862
0
LINE
8
BLACK
6
CONTINUOUS
10
0.202797
20
0.833862
11
0.201143
21
0.835021
0
LINE
8
BLACK
6
CONTINUOUS
10
0.201143
20
0.835021
11
0.20062
21
0.836972
0
LINE
8
BLACK
6
CONTINUOUS
10
0.20062
20
0.836972
11
0.201474
21
0.838802
0
LINE
8
BLACK
6
CONTINUOUS
10
0.201474
20
0.838802
11
0.203349
21
0.840677
0
LINE
8
BLACK
6
CONTINUOUS
10
0.203349
20
0.840677
11
0.204189
21
0.841265
0
LINE
8
BLACK
6
CONTINUOUS
10
0.204189
20
0.841265
11
0.204364
21
0.841281
0
LINE
8
BLACK
6
CONTINUOUS
10
0.204364
20
0.841281
11
0.204503
21
0.84139
0
LINE
8
BLACK
6
CONTINUOUS
10
0.204503
20
0.84139
11
0.210127
21
0.843265
0
LINE
8
BLACK
6
CONTINUOUS
10
0.210127
20
0.843265
11
0.211
21
0.843395
0
LINE
8
BLACK
6
CONTINUOUS
10
0.211
20
0.843395
11
0.211061
21
0.843417
0
LINE
8
BLACK
6
CONTINUOUS
10
0.211061
20
0.843417
11
0.21481
21
0.843417
0
LINE
8
BLACK
6
CONTINUOUS
10
0.21481
20
0.843417
11
0.21568
21
0.843263
0
LINE
8
BLACK
6
CONTINUOUS
10
0.180735
20
0.844854
11
0.181991
21
0.843272
0
LINE
8
BLACK
6
CONTINUOUS
10
0.181991
20
0.843272
11
0.191365
21
0.815151
0
LINE
8
BLACK
6
CONTINUOUS
10
0.191365
20
0.815151
11
0.191515
21
0.814136
0
LINE
8
BLACK
6
CONTINUOUS
10
0.191515
20
0.814136
11
0.191432
21
0.813927
0
LINE
8
BLACK
6
CONTINUOUS
10
0.191432
20
0.813927
11
0.191471
21
0.813704
0
LINE
8
BLACK
6
CONTINUOUS
10
0.191471
20
0.813704
11
0.191069
21
0.813007
0
LINE
8
BLACK
6
CONTINUOUS
10
0.191069
20
0.813007
11
0.190773
21
0.812258
0
LINE
8
BLACK
6
CONTINUOUS
10
0.190773
20
0.812258
11
0.190574
21
0.812151
0
LINE
8
BLACK
6
CONTINUOUS
10
0.190574
20
0.812151
11
0.190461
21
0.811955
0
LINE
8
BLACK
6
CONTINUOUS
10
0.190461
20
0.811955
11
0.189705
21
0.81168
0
LINE
8
BLACK
6
CONTINUOUS
10
0.189705
20
0.81168
11
0.188997
21
0.811296
0
LINE
8
BLACK
6
CONTINUOUS
10
0.188997
20
0.811296
11
0.188776
21
0.811342
0
LINE
8
BLACK
6
CONTINUOUS
10
0.188776
20
0.811342
11
0.188564
21
0.811264
0
LINE
8
BLACK
6
CONTINUOUS
10
0.188564
20
0.811264
11
0.172769
21
0.811264
0
LINE
8
BLACK
6
CONTINUOUS
10
0.172769
20
0.811264
11
0.172769
21
0.801094
0
LINE
8
BLACK
6
CONTINUOUS
10
0.172769
20
0.801094
11
0.172591
21
0.800084
0
LINE
8
BLACK
6
CONTINUOUS
10
0.172591
20
0.800084
11
0.171292
21
0.798537
0
LINE
8
BLACK
6
CONTINUOUS
10
0.171292
20
0.798537
11
0.169303
21
0.798186
0
LINE
8
BLACK
6
CONTINUOUS
10
0.169303
20
0.798186
11
0.167554
21
0.799196
0
LINE
8
BLACK
6
CONTINUOUS
10
0.167554
20
0.799196
11
0.166863
21
0.801094
0
LINE
8
BLACK
6
CONTINUOUS
10
0.166863
20
0.801094
11
0.166863
21
0.811264
0
LINE
8
BLACK
6
CONTINUOUS
10
0.166863
20
0.811264
11
0.164192
21
0.811264
0
LINE
8
BLACK
6
CONTINUOUS
10
0.164192
20
0.811264
11
0.163182
21
0.811442
0
LINE
8
BLACK
6
CONTINUOUS
10
0.163182
20
0.811442
11
0.161634
21
0.812741
0
LINE
8
BLACK
6
CONTINUOUS
10
0.161634
20
0.812741
11
0.161284
21
0.81473
0
LINE
8
BLACK
6
CONTINUOUS
10
0.161284
20
0.81473
11
0.162294
21
0.816479
0
LINE
8
BLACK
6
CONTINUOUS
10
0.162294
20
0.816479
11
0.164192
21
0.81717
0
LINE
8
BLACK
6
CONTINUOUS
10
0.164192
20
0.81717
11
0.166863
21
0.81717
0
LINE
8
BLACK
6
CONTINUOUS
10
0.166863
20
0.81717
11
0.166863
21
0.82734
0
LINE
8
BLACK
6
CONTINUOUS
10
0.166863
20
0.82734
11
0.167041
21
0.82835
0
LINE
8
BLACK
6
CONTINUOUS
10
0.167041
20
0.82835
11
0.168339
21
0.829898
0
LINE
8
BLACK
6
CONTINUOUS
10
0.168339
20
0.829898
11
0.170329
21
0.830248
0
LINE
8
BLACK
6
CONTINUOUS
10
0.170329
20
0.830248
11
0.172078
21
0.829238
0
LINE
8
BLACK
6
CONTINUOUS
10
0.172078
20
0.829238
11
0.172769
21
0.82734
0
LINE
8
BLACK
6
CONTINUOUS
10
0.172769
20
0.82734
11
0.172769
21
0.81717
0
LINE
8
BLACK
6
CONTINUOUS
10
0.172769
20
0.81717
11
0.184467
21
0.81717
0
LINE
8
BLACK
6
CONTINUOUS
10
0.184467
20
0.81717
11
0.176388
21
0.841405
0
LINE
8
BLACK
6
CONTINUOUS
10
0.176388
20
0.841405
11
0.176238
21
0.842419
0
LINE
8
BLACK
6
CONTINUOUS
10
0.176238
20
0.842419
11
0.17698
21
0.844298
0
LINE
8
BLACK
6
CONTINUOUS
10
0.17698
20
0.844298
11
0.178757
21
0.845259
0
LINE
8
BLACK
6
CONTINUOUS
10
0.178757
20
0.845259
11
0.180735
21
0.844854
0
LINE
8
BLACK
6
CONTINUOUS
10
0.543949
20
0.866239
11
0.544084
21
0.866125
0
LINE
8
BLACK
6
CONTINUOUS
10
0.544084
20
0.866125
11
0.54426
21
0.866105
0
LINE
8
BLACK
6
CONTINUOUS
10
0.54426
20
0.866105
11
0.548009
21
0.86423
0
LINE
8
BLACK
6
CONTINUOUS
10
0.548009
20
0.86423
11
0.548718
21
0.863704
0
LINE
8
BLACK
6
CONTINUOUS
10
0.548718
20
0.863704
11
0.548777
21
0.863677
0
LINE
8
BLACK
6
CONTINUOUS
10
0.548777
20
0.863677
11
0.550651
21
0.861802
0
LINE
8
BLACK
6
CONTINUOUS
10
0.550651
20
0.861802
11
0.55124
21
0.860962
0
LINE
8
BLACK
6
CONTINUOUS
10
0.55124
20
0.860962
11
0.551416
21
0.85895
0
LINE
8
BLACK
6
CONTINUOUS
10
0.551416
20
0.85895
11
0.550257
21
0.857296
0
LINE
8
BLACK
6
CONTINUOUS
10
0.550257
20
0.857296
11
0.548306
21
0.856773
0
LINE
8
BLACK
6
CONTINUOUS
10
0.548306
20
0.856773
11
0.546476
21
0.857626
0
LINE
8
BLACK
6
CONTINUOUS
10
0.546476
20
0.857626
11
0.54494
21
0.859162
0
LINE
8
BLACK
6
CONTINUOUS
10
0.54494
20
0.859162
11
0.542242
21
0.860511
0
LINE
8
BLACK
6
CONTINUOUS
10
0.542242
20
0.860511
11
0.534262
21
0.860511
0
LINE
8
BLACK
6
CONTINUOUS
10
0.534262
20
0.860511
11
0.531565
21
0.859162
0
LINE
8
BLACK
6
CONTINUOUS
10
0.531565
20
0.859162
11
0.530368
21
0.857965
0
LINE
8
BLACK
6
CONTINUOUS
10
0.530368
20
0.857965
11
0.529019
21
0.855268
0
LINE
8
BLACK
6
CONTINUOUS
10
0.529019
20
0.855268
11
0.529019
21
0.852694
0
LINE
8
BLACK
6
CONTINUOUS
10
0.529019
20
0.852694
11
0.530522
21
0.848186
0
LINE
8
BLACK
6
CONTINUOUS
10
0.530522
20
0.848186
11
0.552526
21
0.826182
0
LINE
8
BLACK
6
CONTINUOUS
10
0.552526
20
0.826182
11
0.552896
21
0.825654
0
LINE
8
BLACK
6
CONTINUOUS
10
0.552896
20
0.825654
11
0.552995
21
0.82557
0
LINE
8
BLACK
6
CONTINUOUS
10
0.552995
20
0.82557
11
0.553009
21
0.825492
0
LINE
8
BLACK
6
CONTINUOUS
10
0.553009
20
0.825492
11
0.553114
21
0.825342
0
LINE
8
BLACK
6
CONTINUOUS
10
0.553114
20
0.825342
11
0.553192
21
0.824456
0
LINE
8
BLACK
6
CONTINUOUS
10
0.553192
20
0.824456
11
0.553346
21
0.823581
0
LINE
8
BLACK
6
CONTINUOUS
10
0.553346
20
0.823581
11
0.553279
21
0.823464
0
LINE
8
BLACK
6
CONTINUOUS
10
0.553279
20
0.823464
11
0.55329
21
0.823329
0
LINE
8
BLACK
6
CONTINUOUS
10
0.55329
20
0.823329
11
0.552781
21
0.822601
0
LINE
8
BLACK
6
CONTINUOUS
10
0.552781
20
0.822601
11
0.552336
21
0.821832
0
LINE
8
BLACK
6
CONTINUOUS
10
0.552336
20
0.821832
11
0.552209
21
0.821786
0
LINE
8
BLACK
6
CONTINUOUS
10
0.552209
20
0.821786
11
0.552132
21
0.821675
0
LINE
8
BLACK
6
CONTINUOUS
10
0.552132
20
0.821675
11
0.551273
21
0.821445
0
LINE
8
BLACK
6
CONTINUOUS
10
0.551273
20
0.821445
11
0.550438
21
0.821141
0
LINE
8
BLACK
6
CONTINUOUS
10
0.550438
20
0.821141
11
0.526066
21
0.821141
0
LINE
8
BLACK
6
CONTINUOUS
10
0.526066
20
0.821141
11
0.525056
21
0.821319
0
LINE
8
BLACK
6
CONTINUOUS
10
0.525056
20
0.821319
11
0.523509
21
0.822617
0
LINE
8
BLACK
6
CONTINUOUS
10
0.523509
20
0.822617
11
0.523158
21
0.824606
0
LINE
8
BLACK
6
CONTINUOUS
10
0.523158
20
0.824606
11
0.524168
21
0.826356
0
LINE
8
BLACK
6
CONTINUOUS
10
0.524168
20
0.826356
11
0.526066
21
0.827046
0
LINE
8
BLACK
6
CONTINUOUS
10
0.526066
20
0.827046
11
0.54331
21
0.827046
0
LINE
8
BLACK
6
CONTINUOUS
10
0.54331
20
0.827046
11
0.525853
21
0.844503
0
LINE
8
BLACK
6
CONTINUOUS
10
0.525853
20
0.844503
11
0.525265
21
0.845343
0
LINE
8
BLACK
6
CONTINUOUS
10
0.525265
20
0.845343
11
0.52525
21
0.845519
0
LINE
8
BLACK
6
CONTINUOUS
10
0.52525
20
0.845519
11
0.52514
21
0.845657
0
LINE
8
BLACK
6
CONTINUOUS
10
0.52514
20
0.845657
11
0.523265
21
0.851281
0
LINE
8
BLACK
6
CONTINUOUS
10
0.523265
20
0.851281
11
0.523136
21
0.852155
0
LINE
8
BLACK
6
CONTINUOUS
10
0.523136
20
0.852155
11
0.523114
21
0.852215
0
LINE
8
BLACK
6
CONTINUOUS
10
0.523114
20
0.852215
11
0.523114
21
0.855965
0
LINE
8
BLACK
6
CONTINUOUS
10
0.523114
20
0.855965
11
0.523292
21
0.856975
0
LINE
8
BLACK
6
CONTINUOUS
10
0.523292
20
0.856975
11
0.523405
21
0.85711
0
LINE
8
BLACK
6
CONTINUOUS
10
0.523405
20
0.85711
11
0.523425
21
0.857285
0
LINE
8
BLACK
6
CONTINUOUS
10
0.523425
20
0.857285
11
0.5253
21
0.861035
0
LINE
8
BLACK
6
CONTINUOUS
10
0.5253
20
0.861035
11
0.525826
21
0.861744
0
LINE
8
BLACK
6
CONTINUOUS
10
0.525826
20
0.861744
11
0.525853
21
0.861802
0
LINE
8
BLACK
6
CONTINUOUS
10
0.525853
20
0.861802
11
0.527728
21
0.863677
0
LINE
8
BLACK
6
CONTINUOUS
10
0.527728
20
0.863677
11
0.528451
21
0.864183
0
LINE
8
BLACK
6
CONTINUOUS
10
0.528451
20
0.864183
11
0.528495
21
0.86423
0
LINE
8
BLACK
6
CONTINUOUS
10
0.528495
20
0.86423
11
0.532245
21
0.866105
0
LINE
8
BLACK
6
CONTINUOUS
10
0.532245
20
0.866105
11
0.533228
21
0.866397
0
LINE
8
BLACK
6
CONTINUOUS
10
0.533228
20
0.866397
11
0.533399
21
0.866356
0
LINE
8
BLACK
6
CONTINUOUS
10
0.533399
20
0.866356
11
0.533565
21
0.866417
0
LINE
8
BLACK
6
CONTINUOUS
10
0.533565
20
0.866417
11
0.542939
21
0.866417
0
LINE
8
BLACK
6
CONTINUOUS
10
0.542939
20
0.866417
11
0.543949
21
0.866239
0
LINE
8
BLACK
6
CONTINUOUS
10
0.57568
20
0.866263
11
0.575744
21
0.866265
0
LINE
8
BLACK
6
CONTINUOUS
10
0.575744
20
0.866265
11
0.581368
21
0.86439
0
LINE
8
BLACK
6
CONTINUOUS
10
0.581368
20
0.86439
11
0.58227
21
0.863902
0
LINE
8
BLACK
6
CONTINUOUS
10
0.58227
20
0.863902
11
0.582362
21
0.863752
0
LINE
8
BLACK
6
CONTINUOUS
10
0.582362
20
0.863752
11
0.582522
21
0.863677
0
LINE
8
BLACK
6
CONTINUOUS
10
0.582522
20
0.863677
11
0.586272
21
0.859927
0
LINE
8
BLACK
6
CONTINUOUS
10
0.586272
20
0.859927
11
0.586778
21
0.859204
0
LINE
8
BLACK
6
CONTINUOUS
10
0.586778
20
0.859204
11
0.586825
21
0.85916
0
LINE
8
BLACK
6
CONTINUOUS
10
0.586825
20
0.85916
11
0.5887
21
0.855411
0
LINE
8
BLACK
6
CONTINUOUS
10
0.5887
20
0.855411
11
0.588845
21
0.854922
0
LINE
8
BLACK
6
CONTINUOUS
10
0.588845
20
0.854922
11
0.588923
21
0.854806
0
LINE
8
BLACK
6
CONTINUOUS
10
0.588923
20
0.854806
11
0.590798
21
0.847307
0
LINE
8
BLACK
6
CONTINUOUS
10
0.590798
20
0.847307
11
0.59084
21
0.846719
0
LINE
8
BLACK
6
CONTINUOUS
10
0.59084
20
0.846719
11
0.590886
21
0.846591
0
LINE
8
BLACK
6
CONTINUOUS
10
0.590886
20
0.846591
11
0.590886
21
0.840967
0
LINE
8
BLACK
6
CONTINUOUS
10
0.590886
20
0.840967
11
0.590784
21
0.840386
0
LINE
8
BLACK
6
CONTINUOUS
10
0.590784
20
0.840386
11
0.590798
21
0.840251
0
LINE
8
BLACK
6
CONTINUOUS
10
0.590798
20
0.840251
11
0.588923
21
0.832751
0
LINE
8
BLACK
6
CONTINUOUS
10
0.588923
20
0.832751
11
0.588716
21
0.832286
0
LINE
8
BLACK
6
CONTINUOUS
10
0.588716
20
0.832286
11
0.5887
21
0.832147
0
LINE
8
BLACK
6
CONTINUOUS
10
0.5887
20
0.832147
11
0.586825
21
0.828398
0
LINE
8
BLACK
6
CONTINUOUS
10
0.586825
20
0.828398
11
0.586299
21
0.827689
0
LINE
8
BLACK
6
CONTINUOUS
10
0.586299
20
0.827689
11
0.586272
21
0.82763
0
LINE
8
BLACK
6
CONTINUOUS
10
0.586272
20
0.82763
11
0.582522
21
0.823881
0
LINE
8
BLACK
6
CONTINUOUS
10
0.582522
20
0.823881
11
0.581682
21
0.823292
0
LINE
8
BLACK
6
CONTINUOUS
10
0.581682
20
0.823292
11
0.581507
21
0.823277
0
LINE
8
BLACK
6
CONTINUOUS
10
0.581507
20
0.823277
11
0.581368
21
0.823167
0
LINE
8
BLACK
6
CONTINUOUS
10
0.581368
20
0.823167
11
0.575744
21
0.821293
0
LINE
8
BLACK
6
CONTINUOUS
10
0.575744
20
0.821293
11
0.574871
21
0.821163
0
LINE
8
BLACK
6
CONTINUOUS
10
0.574871
20
0.821163
11
0.57481
21
0.821141
0
LINE
8
BLACK
6
CONTINUOUS
10
0.57481
20
0.821141
11
0.571061
21
0.821141
0
LINE
8
BLACK
6
CONTINUOUS
10
0.571061
20
0.821141
11
0.570191
21
0.821294
0
LINE
8
BLACK
6
CONTINUOUS
10
0.570191
20
0.821294
11
0.570127
21
0.821293
0
LINE
8
BLACK
6
CONTINUOUS
10
0.570127
20
0.821293
11
0.564503
21
0.823167
0
LINE
8
BLACK
6
CONTINUOUS
10
0.564503
20
0.823167
11
0.563601
21
0.823656
0
LINE
8
BLACK
6
CONTINUOUS
10
0.563601
20
0.823656
11
0.563508
21
0.823806
0
LINE
8
BLACK
6
CONTINUOUS
10
0.563508
20
0.823806
11
0.563348
21
0.823881
0
LINE
8
BLACK
6
CONTINUOUS
10
0.563348
20
0.823881
11
0.561474
21
0.825755
0
LINE
8
BLACK
6
CONTINUOUS
10
0.561474
20
0.825755
11
0.560886
21
0.826595
0
LINE
8
BLACK
6
CONTINUOUS
10
0.560886
20
0.826595
11
0.56071
21
0.828608
0
LINE
8
BLACK
6
CONTINUOUS
10
0.56071
20
0.828608
11
0.561868
21
0.830262
0
LINE
8
BLACK
6
CONTINUOUS
10
0.561868
20
0.830262
11
0.563819
21
0.830785
0
LINE
8
BLACK
6
CONTINUOUS
10
0.563819
20
0.830785
11
0.56565
21
0.829931
0
LINE
8
BLACK
6
CONTINUOUS
10
0.56565
20
0.829931
11
0.567031
21
0.828549
0
LINE
8
BLACK
6
CONTINUOUS
10
0.567031
20
0.828549
11
0.57154
21
0.827046
0
LINE
8
BLACK
6
CONTINUOUS
10
0.57154
20
0.827046
11
0.574331
21
0.827046
0
LINE
8
BLACK
6
CONTINUOUS
10
0.574331
20
0.827046
11
0.578839
21
0.828549
0
LINE
8
BLACK
6
CONTINUOUS
10
0.578839
20
0.828549
11
0.581757
21
0.831467
0
LINE
8
BLACK
6
CONTINUOUS
10
0.581757
20
0.831467
11
0.583273
21
0.834498
0
LINE
8
BLACK
6
CONTINUOUS
10
0.583273
20
0.834498
11
0.584981
21
0.84133
0
LINE
8
BLACK
6
CONTINUOUS
10
0.584981
20
0.84133
11
0.584981
21
0.846227
0
LINE
8
BLACK
6
CONTINUOUS
10
0.584981
20
0.846227
11
0.583273
21
0.853059
0
LINE
8
BLACK
6
CONTINUOUS
10
0.583273
20
0.853059
11
0.581757
21
0.85609
0
LINE
8
BLACK
6
CONTINUOUS
10
0.581757
20
0.85609
11
0.578839
21
0.859008
0
LINE
8
BLACK
6
CONTINUOUS
10
0.578839
20
0.859008
11
0.574331
21
0.860511
0
LINE
8
BLACK
6
CONTINUOUS
10
0.574331
20
0.860511
11
0.57154
21
0.860511
0
LINE
8
BLACK
6
CONTINUOUS
10
0.57154
20
0.860511
11
0.567031
21
0.859008
0
LINE
8
BLACK
6
CONTINUOUS
10
0.567031
20
0.859008
11
0.56565
21
0.857626
0
LINE
8
BLACK
6
CONTINUOUS
10
0.56565
20
0.857626
11
0.56481
21
0.857038
0
LINE
8
BLACK
6
CONTINUOUS
10
0.56481
20
0.857038
11
0.562797
21
0.856862
0
LINE
8
BLACK
6
CONTINUOUS
10
0.562797
20
0.856862
11
0.561143
21
0.858021
0
LINE
8
BLACK
6
CONTINUOUS
10
0.561143
20
0.858021
11
0.56062
21
0.859972
0
LINE
8
BLACK
6
CONTINUOUS
10
0.56062
20
0.859972
11
0.561474
21
0.861802
0
LINE
8
BLACK
6
CONTINUOUS
10
0.561474
20
0.861802
11
0.563349
21
0.863677
0
LINE
8
BLACK
6
CONTINUOUS
10
0.563349
20
0.863677
11
0.564189
21
0.864265
0
LINE
8
BLACK
6
CONTINUOUS
10
0.564189
20
0.864265
11
0.564364
21
0.864281
0
LINE
8
BLACK
6
CONTINUOUS
10
0.564364
20
0.864281
11
0.564503
21
0.86439
0
LINE
8
BLACK
6
CONTINUOUS
10
0.564503
20
0.86439
11
0.570127
21
0.866265
0
LINE
8
BLACK
6
CONTINUOUS
10
0.570127
20
0.866265
11
0.571
21
0.866395
0
LINE
8
BLACK
6
CONTINUOUS
10
0.571
20
0.866395
11
0.571061
21
0.866417
0
LINE
8
BLACK
6
CONTINUOUS
10
0.571061
20
0.866417
11
0.57481
21
0.866417
0
LINE
8
BLACK
6
CONTINUOUS
10
0.57481
20
0.866417
11
0.57568
21
0.866263
0
LINE
8
BLACK
6
CONTINUOUS
10
0.321956
20
0.840607
11
0.322648
21
0.838937
0
LINE
8
BLACK
6
CONTINUOUS
10
0.322648
20
0.838937
11
0.321956
21
0.837267
0
LINE
8
BLACK
6
CONTINUOUS
10
0.321956
20
0.837267
11
0.320286
21
0.836575
0
LINE
8
BLACK
6
CONTINUOUS
10
0.320286
20
0.836575
11
0.299714
21
0.836575
0
LINE
8
BLACK
6
CONTINUOUS
10
0.299714
20
0.836575
11
0.298044
21
0.837267
0
LINE
8
BLACK
6
CONTINUOUS
10
0.298044
20
0.837267
11
0.297352
21
0.838937
0
LINE
8
BLACK
6
CONTINUOUS
10
0.297352
20
0.838937
11
0.298044
21
0.840607
0
LINE
8
BLACK
6
CONTINUOUS
10
0.298044
20
0.840607
11
0.299714
21
0.841299
0
LINE
8
BLACK
6
CONTINUOUS
10
0.299714
20
0.841299
11
0.320286
21
0.841299
0
LINE
8
BLACK
6
CONTINUOUS
10
0.320286
20
0.841299
11
0.321956
21
0.840607
0
LINE
8
BLACK
6
CONTINUOUS
10
0.461956
20
0.840607
11
0.462648
21
0.838937
0
LINE
8
BLACK
6
CONTINUOUS
10
0.462648
20
0.838937
11
0.461956
21
0.837267
0
LINE
8
BLACK
6
CONTINUOUS
10
0.461956
20
0.837267
11
0.460286
21
0.836575
0
LINE
8
BLACK
6
CONTINUOUS
10
0.460286
20
0.836575
11
0.439714
21
0.836575
0
LINE
8
BLACK
6
CONTINUOUS
10
0.439714
20
0.836575
11
0.438044
21
0.837267
0
LINE
8
BLACK
6
CONTINUOUS
10
0.438044
20
0.837267
11
0.437352
21
0.838937
0
LINE
8
BLACK
6
CONTINUOUS
10
0.437352
20
0.838937
11
0.438044
21
0.840607
0
LINE
8
BLACK
6
CONTINUOUS
10
0.438044
20
0.840607
11
0.439714
21
0.841299
0
LINE
8
BLACK
6
CONTINUOUS
10
0.439714
20
0.841299
11
0.460286
21
0.841299
0
LINE
8
BLACK
6
CONTINUOUS
10
0.460286
20
0.841299
11
0.461956
21
0.840607
0
LINE
8
BLACK
6
CONTINUOUS
10
0.668536
20
0.906279
11
0.668671
21
0.90629
0
LINE
8
BLACK
6
CONTINUOUS
10
0.668671
20
0.90629
11
0.669399
21
0.905781
0
LINE
8
BLACK
6
CONTINUOUS
10
0.669399
20
0.905781
11
0.670168
21
0.905336
0
LINE
8
BLACK
6
CONTINUOUS
10
0.670168
20
0.905336
11
0.670214
21
0.905209
0
LINE
8
BLACK
6
CONTINUOUS
10
0.670214
20
0.905209
11
0.670325
21
0.905132
0
LINE
8
BLACK
6
CONTINUOUS
10
0.670325
20
0.905132
11
0.670555
21
0.904273
0
LINE
8
BLACK
6
CONTINUOUS
10
0.670555
20
0.904273
11
0.670859
21
0.903438
0
LINE
8
BLACK
6
CONTINUOUS
10
0.670859
20
0.903438
11
0.670859
21
0.879066
0
LINE
8
BLACK
6
CONTINUOUS
10
0.670859
20
0.879066
11
0.670681
21
0.878056
0
LINE
8
BLACK
6
CONTINUOUS
10
0.670681
20
0.878056
11
0.669383
21
0.876509
0
LINE
8
BLACK
6
CONTINUOUS
10
0.669383
20
0.876509
11
0.667394
21
0.876158
0
LINE
8
BLACK
6
CONTINUOUS
10
0.667394
20
0.876158
11
0.665644
21
0.877168
0
LINE
8
BLACK
6
CONTINUOUS
10
0.665644
20
0.877168
11
0.664954
21
0.879066
0
LINE
8
BLACK
6
CONTINUOUS
10
0.664954
20
0.879066
11
0.664954
21
0.89631
0
LINE
8
BLACK
6
CONTINUOUS
10
0.664954
20
0.89631
11
0.647497
21
0.878853
0
LINE
8
BLACK
6
CONTINUOUS
10
0.647497
20
0.878853
11
0.646657
21
0.878265
0
LINE
8
BLACK
6
CONTINUOUS
10
0.646657
20
0.878265
11
0.646481
21
0.87825
0
LINE
8
BLACK
6
CONTINUOUS
10
0.646481
20
0.87825
11
0.646343
21
0.87814
0
LINE
8
BLACK
6
CONTINUOUS
10
0.646343
20
0.87814
11
0.640719
21
0.876265
0
LINE
8
BLACK
6
CONTINUOUS
10
0.640719
20
0.876265
11
0.639845
21
0.876136
0
LINE
8
BLACK
6
CONTINUOUS
10
0.639845
20
0.876136
11
0.639785
21
0.876114
0
LINE
8
BLACK
6
CONTINUOUS
10
0.639785
20
0.876114
11
0.636035
21
0.876114
0
LINE
8
BLACK
6
CONTINUOUS
10
0.636035
20
0.876114
11
0.635025
21
0.876292
0
LINE
8
BLACK
6
CONTINUOUS
10
0.635025
20
0.876292
11
0.63489
21
0.876405
0
LINE
8
BLACK
6
CONTINUOUS
10
0.63489
20
0.876405
11
0.634715
21
0.876425
0
LINE
8
BLACK
6
CONTINUOUS
10
0.634715
20
0.876425
11
0.630965
21
0.8783
0
LINE
8
BLACK
6
CONTINUOUS
10
0.630965
20
0.8783
11
0.630256
21
0.878826
0
LINE
8
BLACK
6
CONTINUOUS
10
0.630256
20
0.878826
11
0.630198
21
0.878853
0
LINE
8
BLACK
6
CONTINUOUS
10
0.630198
20
0.878853
11
0.628323
21
0.880728
0
LINE
8
BLACK
6
CONTINUOUS
10
0.628323
20
0.880728
11
0.627817
21
0.881451
0
LINE
8
BLACK
6
CONTINUOUS
10
0.627817
20
0.881451
11
0.62777
21
0.881495
0
LINE
8
BLACK
6
CONTINUOUS
10
0.62777
20
0.881495
11
0.625895
21
0.885245
0
LINE
8
BLACK
6
CONTINUOUS
10
0.625895
20
0.885245
11
0.625603
21
0.886228
0
LINE
8
BLACK
6
CONTINUOUS
10
0.625603
20
0.886228
11
0.625644
21
0.8864
0
LINE
8
BLACK
6
CONTINUOUS
10
0.625644
20
0.8864
11
0.625583
21
0.886565
0
LINE
8
BLACK
6
CONTINUOUS
10
0.625583
20
0.886565
11
0.625583
21
0.895939
0
LINE
8
BLACK
6
CONTINUOUS
10
0.625583
20
0.895939
11
0.625761
21
0.896949
0
LINE
8
BLACK
6
CONTINUOUS
10
0.625761
20
0.896949
11
0.625875
21
0.897084
0
LINE
8
BLACK
6
CONTINUOUS
10
0.625875
20
0.897084
11
0.625895
21
0.89726
0
LINE
8
BLACK
6
CONTINUOUS
10
0.625895
20
0.89726
11
0.62777
21
0.901009
0
LINE
8
BLACK
6
CONTINUOUS
10
0.62777
20
0.901009
11
0.628296
21
0.901718
0
LINE
8
BLACK
6
CONTINUOUS
10
0.628296
20
0.901718
11
0.628323
21
0.901777
0
LINE
8
BLACK
6
CONTINUOUS
10
0.628323
20
0.901777
11
0.630198
21
0.903651
0
LINE
8
BLACK
6
CONTINUOUS
10
0.630198
20
0.903651
11
0.631038
21
0.90424
0
LINE
8
BLACK
6
CONTINUOUS
10
0.631038
20
0.90424
11
0.63305
21
0.904416
0
LINE
8
BLACK
6
CONTINUOUS
10
0.63305
20
0.904416
11
0.634704
21
0.903257
0
LINE
8
BLACK
6
CONTINUOUS
10
0.634704
20
0.903257
11
0.635227
21
0.901306
0
LINE
8
BLACK
6
CONTINUOUS
10
0.635227
20
0.901306
11
0.634374
21
0.899476
0
LINE
8
BLACK
6
CONTINUOUS
10
0.634374
20
0.899476
11
0.632838
21
0.89794
0
LINE
8
BLACK
6
CONTINUOUS
10
0.632838
20
0.89794
11
0.631489
21
0.895242
0
LINE
8
BLACK
6
CONTINUOUS
10
0.631489
20
0.895242
11
0.631489
21
0.887262
0
LINE
8
BLACK
6
CONTINUOUS
10
0.631489
20
0.887262
11
0.632838
21
0.884565
0
LINE
8
BLACK
6
CONTINUOUS
10
0.632838
20
0.884565
11
0.634035
21
0.883368
0
LINE
8
BLACK
6
CONTINUOUS
10
0.634035
20
0.883368
11
0.636732
21
0.882019
0
LINE
8
BLACK
6
CONTINUOUS
10
0.636732
20
0.882019
11
0.639306
21
0.882019
0
LINE
8
BLACK
6
CONTINUOUS
10
0.639306
20
0.882019
11
0.643814
21
0.883522
0
LINE
8
BLACK
6
CONTINUOUS
10
0.643814
20
0.883522
11
0.665818
21
0.905526
0
LINE
8
BLACK
6
CONTINUOUS
10
0.665818
20
0.905526
11
0.666346
21
0.905896
0
LINE
8
BLACK
6
CONTINUOUS
10
0.666346
20
0.905896
11
0.66643
21
0.905995
0
LINE
8
BLACK
6
CONTINUOUS
10
0.66643
20
0.905995
11
0.666508
21
0.906009
0
LINE
8
BLACK
6
CONTINUOUS
10
0.666508
20
0.906009
11
0.666658
21
0.906114
0
LINE
8
BLACK
6
CONTINUOUS
10
0.666658
20
0.906114
11
0.667544
21
0.906192
0
LINE
8
BLACK
6
CONTINUOUS
10
0.667544
20
0.906192
11
0.668419
21
0.906346
0
LINE
8
BLACK
6
CONTINUOUS
10
0.668419
20
0.906346
11
0.668536
21
0.906279
0
LINE
8
BLACK
6
CONTINUOUS
10
0.355384
20
0.972885
11
0.355513
21
0.972908
0
LINE
8
BLACK
6
CONTINUOUS
10
0.355513
20
0.972908
11
0.355626
21
0.972842
0
LINE
8
BLACK
6
CONTINUOUS
10
0.355626
20
0.972842
11
0.35601
21
0.972775
0
LINE
8
BLACK
6
CONTINUOUS
10
0.35601
20
0.972775
11
0.356598
21
0.972282
0
LINE
8
BLACK
6
CONTINUOUS
10
0.356598
20
0.972282
11
0.357262
21
0.971898
0
LINE
8
BLACK
6
CONTINUOUS
10
0.357262
20
0.971898
11
0.357353
21
0.971648
0
LINE
8
BLACK
6
CONTINUOUS
10
0.357353
20
0.971648
11
0.357557
21
0.971476
0
LINE
8
BLACK
6
CONTINUOUS
10
0.357557
20
0.971476
11
0.35769
21
0.970721
0
LINE
8
BLACK
6
CONTINUOUS
10
0.35769
20
0.970721
11
0.357953
21
0.97
0
LINE
8
BLACK
6
CONTINUOUS
10
0.357953
20
0.97
11
0.357953
21
0.91
0
LINE
8
BLACK
6
CONTINUOUS
10
0.357953
20
0.91
11
0.357885
21
0.909616
0
LINE
8
BLACK
6
CONTINUOUS
10
0.357885
20
0.909616
11
0.357908
21
0.909487
0
LINE
8
BLACK
6
CONTINUOUS
10
0.357908
20
0.909487
11
0.357842
21
0.909374
0
LINE
8
BLACK
6
CONTINUOUS
10
0.357842
20
0.909374
11
0.357775
21
0.90899
0
LINE
8
BLACK
6
CONTINUOUS
10
0.357775
20
0.90899
11
0.357282
21
0.908402
0
LINE
8
BLACK
6
CONTINUOUS
10
0.357282
20
0.908402
11
0.356898
21
0.907738
0
LINE
8
BLACK
6
CONTINUOUS
10
0.356898
20
0.907738
11
0.356648
21
0.907647
0
LINE
8
BLACK
6
CONTINUOUS
10
0.356648
20
0.907647
11
0.356476
21
0.907443
0
LINE
8
BLACK
6
CONTINUOUS
10
0.356476
20
0.907443
11
0.355721
21
0.90731
0
LINE
8
BLACK
6
CONTINUOUS
10
0.355721
20
0.90731
11
0.355
21
0.907047
0
LINE
8
BLACK
6
CONTINUOUS
10
0.355
20
0.907047
11
0.2525
21
0.907047
0
LINE
8
BLACK
6
CONTINUOUS
10
0.2525
20
0.907047
11
0.252116
21
0.907115
0
LINE
8
BLACK
6
CONTINUOUS
10
0.252116
20
0.907115
11
0.251987
21
0.907092
0
LINE
8
BLACK
6
CONTINUOUS
10
0.251987
20
0.907092
11
0.251874
21
0.907158
0
LINE
8
BLACK
6
CONTINUOUS
10
0.251874
20
0.907158
11
0.25149
21
0.907225
0
LINE
8
BLACK
6
CONTINUOUS
10
0.25149
20
0.907225
11
0.250902
21
0.907718
0
LINE
8
BLACK
6
CONTINUOUS
10
0.250902
20
0.907718
11
0.250238
21
0.908102
0
LINE
8
BLACK
6
CONTINUOUS
10
0.250238
20
0.908102
11
0.250147
21
0.908352
0
LINE
8
BLACK
6
CONTINUOUS
10
0.250147
20
0.908352
11
0.249943
21
0.908524
0
LINE
8
BLACK
6
CONTINUOUS
10
0.249943
20
0.908524
11
0.24981
21
0.909279
0
LINE
8
BLACK
6
CONTINUOUS
10
0.24981
20
0.909279
11
0.249547
21
0.91
0
LINE
8
BLACK
6
CONTINUOUS
10
0.249547
20
0.91
11
0.249547
21
0.97
0
LINE
8
BLACK
6
CONTINUOUS
10
0.249547
20
0.97
11
0.249615
21
0.970384
0
LINE
8
BLACK
6
CONTINUOUS
10
0.249615
20
0.970384
11
0.249592
21
0.970513
0
LINE
8
BLACK
6
CONTINUOUS
10
0.249592
20
0.970513
11
0.249658
21
0.970626
0
LINE
8
BLACK
6
CONTINUOUS
10
0.249658
20
0.970626
11
0.249725
21
0.97101
0
LINE
8
BLACK
6
CONTINUOUS
10
0.249725
20
0.97101
11
0.250218
21
0.971598
0
LINE
8
BLACK
6
CONTINUOUS
10
0.250218
20
0.971598
11
0.250602
21
0.972262
0
LINE
8
BLACK
6
CONTINUOUS
10
0.250602
20
0.972262
11
0.250852
21
0.972353
0
LINE
8
BLACK
6
CONTINUOUS
10
0.250852
20
0.972353
11
0.251024
21
0.972557
0
LINE
8
BLACK
6
CONTINUOUS
10
0.251024
20
0.972557
11
0.251779
21
0.97269
0
LINE
8
BLACK
6
CONTINUOUS
10
0.251779
20
0.97269
11
0.2525
21
0.972953
0
LINE
8
BLACK
6
CONTINUOUS
10
0.2525
20
0.972953
11
0.355
21
0.972953
0
LINE
8
BLACK
6
CONTINUOUS
10
0.355
20
0.972953
11
0.355384
21
0.972885
0
LINE
8
BLACK
6
CONTINUOUS
10
0.285894
20
0.967047
11
0.256638
21
0.947543
0
LINE
8
BLACK
6
CONTINUOUS
10
0.256638
20
0.947543
11
0.255699
21
0.947131
0
LINE
8
BLACK
6
CONTINUOUS
10
0.255699
20
0.947131
11
0.255453
21
0.947158
0
LINE
8
BLACK
6
CONTINUOUS
10
0.255453
20
0.947158
11
0.255453
21
0.912953
0
LINE
8
BLACK
6
CONTINUOUS
10
0.255453
20
0.912953
11
0.352047
21
0.912953
0
LINE
8
BLACK
6
CONTINUOUS
10
0.352047
20
0.912953
11
0.352047
21
0.967047
0
LINE
8
BLACK
6
CONTINUOUS
10
0.352047
20
0.967047
11
0.285894
21
0.967047
0
LINE
8
BLACK
6
CONTINUOUS
10
0.255453
20
0.967047
11
0.255453
21
0.953851
0
LINE
8
BLACK
6
CONTINUOUS
10
0.255453
20
0.953851
11
0.275248
21
0.967047
0
LINE
8
BLACK
6
CONTINUOUS
10
0.275248
20
0.967047
11
0.255453
21
0.967047
0
LINE
8
BLACK
6
CONTINUOUS
10
0.398483
20
0.928918
11
0.398923
21
0.927857
0
LINE
8
BLACK
6
CONTINUOUS
10
0.398923
20
0.927857
11
0.398923
21
0.909286
0
LINE
8
BLACK
6
CONTINUOUS
10
0.398923
20
0.909286
11
0.398483
21
0.908225
0
LINE
8
BLACK
6
CONTINUOUS
10
0.398483
20
0.908225
11
0.397423
21
0.907786
0
LINE
8
BLACK
6
CONTINUOUS
10
0.397423
20
0.907786
11
0.396362
21
0.908225
0
LINE
8
BLACK
6
CONTINUOUS
10
0.396362
20
0.908225
11
0.395923
21
0.909286
0
LINE
8
BLACK
6
CONTINUOUS
10
0.395923
20
0.909286
11
0.395922
21
0.924236
0
LINE
8
BLACK
6
CONTINUOUS
10
0.395922
20
0.924236
11
0.38134
21
0.909654
0
LINE
8
BLACK
6
CONTINUOUS
10
0.38134
20
0.909654
11
0.381018
21
0.90952
0
LINE
8
BLACK
6
CONTINUOUS
10
0.381018
20
0.90952
11
0.380754
21
0.909291
0
LINE
8
BLACK
6
CONTINUOUS
10
0.380754
20
0.909291
11
0.376468
21
0.907863
0
LINE
8
BLACK
6
CONTINUOUS
10
0.376468
20
0.907863
11
0.376222
21
0.90788
0
LINE
8
BLACK
6
CONTINUOUS
10
0.376222
20
0.90788
11
0.375994
21
0.907786
0
LINE
8
BLACK
6
CONTINUOUS
10
0.375994
20
0.907786
11
0.373137
21
0.907786
0
LINE
8
BLACK
6
CONTINUOUS
10
0.373137
20
0.907786
11
0.372814
21
0.907919
0
LINE
8
BLACK
6
CONTINUOUS
10
0.372814
20
0.907919
11
0.372466
21
0.907944
0
LINE
8
BLACK
6
CONTINUOUS
10
0.372466
20
0.907944
11
0.369609
21
0.909373
0
LINE
8
BLACK
6
CONTINUOUS
10
0.369609
20
0.909373
11
0.369447
21
0.909559
0
LINE
8
BLACK
6
CONTINUOUS
10
0.369447
20
0.909559
11
0.369219
21
0.909654
0
LINE
8
BLACK
6
CONTINUOUS
10
0.369219
20
0.909654
11
0.36779
21
0.911082
0
LINE
8
BLACK
6
CONTINUOUS
10
0.36779
20
0.911082
11
0.367696
21
0.91131
0
LINE
8
BLACK
6
CONTINUOUS
10
0.367696
20
0.91131
11
0.367509
21
0.911472
0
LINE
8
BLACK
6
CONTINUOUS
10
0.367509
20
0.911472
11
0.366081
21
0.914329
0
LINE
8
BLACK
6
CONTINUOUS
10
0.366081
20
0.914329
11
0.366056
21
0.914677
0
LINE
8
BLACK
6
CONTINUOUS
10
0.366056
20
0.914677
11
0.365923
21
0.915
0
LINE
8
BLACK
6
CONTINUOUS
10
0.365923
20
0.915
11
0.365923
21
0.922143
0
LINE
8
BLACK
6
CONTINUOUS
10
0.365923
20
0.922143
11
0.366056
21
0.922465
0
LINE
8
BLACK
6
CONTINUOUS
10
0.366056
20
0.922465
11
0.366081
21
0.922814
0
LINE
8
BLACK
6
CONTINUOUS
10
0.366081
20
0.922814
11
0.367509
21
0.925671
0
LINE
8
BLACK
6
CONTINUOUS
10
0.367509
20
0.925671
11
0.367696
21
0.925833
0
LINE
8
BLACK
6
CONTINUOUS
10
0.367696
20
0.925833
11
0.36779
21
0.926061
0
LINE
8
BLACK
6
CONTINUOUS
10
0.36779
20
0.926061
11
0.369219
21
0.927489
0
LINE
8
BLACK
6
CONTINUOUS
10
0.369219
20
0.927489
11
0.37028
21
0.927929
0
LINE
8
BLACK
6
CONTINUOUS
10
0.37028
20
0.927929
11
0.37134
21
0.927489
0
LINE
8
BLACK
6
CONTINUOUS
10
0.37134
20
0.927489
11
0.37178
21
0.926429
0
LINE
8
BLACK
6
CONTINUOUS
10
0.37178
20
0.926429
11
0.37134
21
0.925368
0
LINE
8
BLACK
6
CONTINUOUS
10
0.37134
20
0.925368
11
0.370084
21
0.924111
0
LINE
8
BLACK
6
CONTINUOUS
10
0.370084
20
0.924111
11
0.368923
21
0.921789
0
LINE
8
BLACK
6
CONTINUOUS
10
0.368923
20
0.921789
11
0.368923
21
0.915354
0
LINE
8
BLACK
6
CONTINUOUS
10
0.368923
20
0.915354
11
0.370084
21
0.913031
0
LINE
8
BLACK
6
CONTINUOUS
10
0.370084
20
0.913031
11
0.371168
21
0.911947
0
LINE
8
BLACK
6
CONTINUOUS
10
0.371168
20
0.911947
11
0.373491
21
0.910786
0
LINE
8
BLACK
6
CONTINUOUS
10
0.373491
20
0.910786
11
0.375751
21
0.910786
0
LINE
8
BLACK
6
CONTINUOUS
10
0.375751
20
0.910786
11
0.379469
21
0.912025
0
LINE
8
BLACK
6
CONTINUOUS
10
0.379469
20
0.912025
11
0.396362
21
0.928918
0
LINE
8
BLACK
6
CONTINUOUS
10
0.396362
20
0.928918
11
0.397423
21
0.929357
0
LINE
8
BLACK
6
CONTINUOUS
10
0.397423
20
0.929357
11
0.398483
21
0.928918
0
LINE
8
BLACK
6
CONTINUOUS
10
0.668916
20
0.941834
11
0.670463
21
0.940535
0
LINE
8
BLACK
6
CONTINUOUS
10
0.670463
20
0.940535
11
0.670814
21
0.938546
0
LINE
8
BLACK
6
CONTINUOUS
10
0.670814
20
0.938546
11
0.669804
21
0.936797
0
LINE
8
BLACK
6
CONTINUOUS
10
0.669804
20
0.936797
11
0.667906
21
0.936106
0
LINE
8
BLACK
6
CONTINUOUS
10
0.667906
20
0.936106
11
0.652111
21
0.936106
0
LINE
8
BLACK
6
CONTINUOUS
10
0.652111
20
0.936106
11
0.652111
21
0.931222
0
LINE
8
BLACK
6
CONTINUOUS
10
0.652111
20
0.931222
11
0.6696
21
0.918981
0
LINE
8
BLACK
6
CONTINUOUS
10
0.6696
20
0.918981
11
0.670325
21
0.918256
0
LINE
8
BLACK
6
CONTINUOUS
10
0.670325
20
0.918256
11
0.670848
21
0.916305
0
LINE
8
BLACK
6
CONTINUOUS
10
0.670848
20
0.916305
11
0.669994
21
0.914474
0
LINE
8
BLACK
6
CONTINUOUS
10
0.669994
20
0.914474
11
0.668164
21
0.91362
0
LINE
8
BLACK
6
CONTINUOUS
10
0.668164
20
0.91362
11
0.666213
21
0.914143
0
LINE
8
BLACK
6
CONTINUOUS
10
0.666213
20
0.914143
11
0.652104
21
0.924019
0
LINE
8
BLACK
6
CONTINUOUS
10
0.652104
20
0.924019
11
0.651933
21
0.923051
0
LINE
8
BLACK
6
CONTINUOUS
10
0.651933
20
0.923051
11
0.65182
21
0.922916
0
LINE
8
BLACK
6
CONTINUOUS
10
0.65182
20
0.922916
11
0.6518
21
0.92274
0
LINE
8
BLACK
6
CONTINUOUS
10
0.6518
20
0.92274
11
0.649925
21
0.918991
0
LINE
8
BLACK
6
CONTINUOUS
10
0.649925
20
0.918991
11
0.649399
21
0.918282
0
LINE
8
BLACK
6
CONTINUOUS
10
0.649399
20
0.918282
11
0.649372
21
0.918223
0
LINE
8
BLACK
6
CONTINUOUS
10
0.649372
20
0.918223
11
0.647497
21
0.916349
0
LINE
8
BLACK
6
CONTINUOUS
10
0.647497
20
0.916349
11
0.646774
21
0.915842
0
LINE
8
BLACK
6
CONTINUOUS
10
0.646774
20
0.915842
11
0.64673
21
0.915795
0
LINE
8
BLACK
6
CONTINUOUS
10
0.64673
20
0.915795
11
0.64298
21
0.913921
0
LINE
8
BLACK
6
CONTINUOUS
10
0.64298
20
0.913921
11
0.641997
21
0.913628
0
LINE
8
BLACK
6
CONTINUOUS
10
0.641997
20
0.913628
11
0.641825
21
0.913669
0
LINE
8
BLACK
6
CONTINUOUS
10
0.641825
20
0.913669
11
0.64166
21
0.913609
0
LINE
8
BLACK
6
CONTINUOUS
10
0.64166
20
0.913609
11
0.636035
21
0.913609
0
LINE
8
BLACK
6
CONTINUOUS
10
0.636035
20
0.913609
11
0.635025
21
0.913787
0
LINE
8
BLACK
6
CONTINUOUS
10
0.635025
20
0.913787
11
0.63489
21
0.913901
0
LINE
8
BLACK
6
CONTINUOUS
10
0.63489
20
0.913901
11
0.634715
21
0.913921
0
LINE
8
BLACK
6
CONTINUOUS
10
0.634715
20
0.913921
11
0.630965
21
0.915795
0
LINE
8
BLACK
6
CONTINUOUS
10
0.630965
20
0.915795
11
0.630256
21
0.916321
0
LINE
8
BLACK
6
CONTINUOUS
10
0.630256
20
0.916321
11
0.630198
21
0.916349
0
LINE
8
BLACK
6
CONTINUOUS
10
0.630198
20
0.916349
11
0.628323
21
0.918223
0
LINE
8
BLACK
6
CONTINUOUS
10
0.628323
20
0.918223
11
0.627817
21
0.918946
0
LINE
8
BLACK
6
CONTINUOUS
10
0.627817
20
0.918946
11
0.62777
21
0.918991
0
LINE
8
BLACK
6
CONTINUOUS
10
0.62777
20
0.918991
11
0.625895
21
0.92274
0
LINE
8
BLACK
6
CONTINUOUS
10
0.625895
20
0.92274
11
0.625603
21
0.923723
0
LINE
8
BLACK
6
CONTINUOUS
10
0.625603
20
0.923723
11
0.625644
21
0.923895
0
LINE
8
BLACK
6
CONTINUOUS
10
0.625644
20
0.923895
11
0.625583
21
0.924061
0
LINE
8
BLACK
6
CONTINUOUS
10
0.625583
20
0.924061
11
0.625583
21
0.939059
0
LINE
8
BLACK
6
CONTINUOUS
10
0.625583
20
0.939059
11
0.625651
21
0.939442
0
LINE
8
BLACK
6
CONTINUOUS
10
0.625651
20
0.939442
11
0.625628
21
0.939572
0
LINE
8
BLACK
6
CONTINUOUS
10
0.625628
20
0.939572
11
0.625694
21
0.939685
0
LINE
8
BLACK
6
CONTINUOUS
10
0.625694
20
0.939685
11
0.625761
21
0.940069
0
LINE
8
BLACK
6
CONTINUOUS
10
0.625761
20
0.940069
11
0.626255
21
0.940656
0
LINE
8
BLACK
6
CONTINUOUS
10
0.626255
20
0.940656
11
0.626638
21
0.941321
0
LINE
8
BLACK
6
CONTINUOUS
10
0.626638
20
0.941321
11
0.626889
21
0.941412
0
LINE
8
BLACK
6
CONTINUOUS
10
0.626889
20
0.941412
11
0.62706
21
0.941616
0
LINE
8
BLACK
6
CONTINUOUS
10
0.62706
20
0.941616
11
0.627815
21
0.941749
0
LINE
8
BLACK
6
CONTINUOUS
10
0.627815
20
0.941749
11
0.628536
21
0.942012
0
LINE
8
BLACK
6
CONTINUOUS
10
0.628536
20
0.942012
11
0.667906
21
0.942012
0
LINE
8
BLACK
6
CONTINUOUS
10
0.667906
20
0.942012
11
0.668916
21
0.941834
0
LINE
8
BLACK
6
CONTINUOUS
10
0.631489
20
0.924758
11
0.632838
21
0.92206
0
LINE
8
BLACK
6
CONTINUOUS
10
0.632838
20
0.92206
11
0.634035
21
0.920863
0
LINE
8
BLACK
6
CONTINUOUS
10
0.634035
20
0.920863
11
0.636732
21
0.919514
0
LINE
8
BLACK
6
CONTINUOUS
10
0.636732
20
0.919514
11
0.640962
21
0.919514
0
LINE
8
BLACK
6
CONTINUOUS
10
0.640962
20
0.919514
11
0.64366
21
0.920863
0
LINE
8
BLACK
6
CONTINUOUS
10
0.64366
20
0.920863
11
0.644857
21
0.92206
0
LINE
8
BLACK
6
CONTINUOUS
10
0.644857
20
0.92206
11
0.646206
21
0.924758
0
LINE
8
BLACK
6
CONTINUOUS
10
0.646206
20
0.924758
11
0.646206
21
0.936106
0
LINE
8
BLACK
6
CONTINUOUS
10
0.646206
20
0.936106
11
0.631489
21
0.936106
0
LINE
8
BLACK
6
CONTINUOUS
10
0.631489
20
0.936106
11
0.631489
21
0.924758
0
LINE
8
BLACK
6
CONTINUOUS
10
0.384741
20
0.957856
11
0.384929
21
0.957884
0
LINE
8
BLACK
6
CONTINUOUS
10
0.384929
20
0.957884
11
0.390644
21
0.956455
0
LINE
8
BLACK
6
CONTINUOUS
10
0.390644
20
0.956455
11
0.39078
21
0.956354
0
LINE
8
BLACK
6
CONTINUOUS
10
0.39078
20
0.956354
11
0.390951
21
0.956342
0
LINE
8
BLACK
6
CONTINUOUS
10
0.390951
20
0.956342
11
0.393808
21
0.954913
0
LINE
8
BLACK
6
CONTINUOUS
10
0.393808
20
0.954913
11
0.393969
21
0.954727
0
LINE
8
BLACK
6
CONTINUOUS
10
0.393969
20
0.954727
11
0.394197
21
0.954632
0
LINE
8
BLACK
6
CONTINUOUS
10
0.394197
20
0.954632
11
0.397055
21
0.951775
0
LINE
8
BLACK
6
CONTINUOUS
10
0.397055
20
0.951775
11
0.397188
21
0.951452
0
LINE
8
BLACK
6
CONTINUOUS
10
0.397188
20
0.951452
11
0.397417
21
0.951189
0
LINE
8
BLACK
6
CONTINUOUS
10
0.397417
20
0.951189
11
0.398846
21
0.946903
0
LINE
8
BLACK
6
CONTINUOUS
10
0.398846
20
0.946903
11
0.398828
21
0.946657
0
LINE
8
BLACK
6
CONTINUOUS
10
0.398828
20
0.946657
11
0.398923
21
0.946429
0
LINE
8
BLACK
6
CONTINUOUS
10
0.398923
20
0.946429
11
0.398923
21
0.943571
0
LINE
8
BLACK
6
CONTINUOUS
10
0.398923
20
0.943571
11
0.398828
21
0.943343
0
LINE
8
BLACK
6
CONTINUOUS
10
0.398828
20
0.943343
11
0.398846
21
0.943097
0
LINE
8
BLACK
6
CONTINUOUS
10
0.398846
20
0.943097
11
0.397417
21
0.938811
0
LINE
8
BLACK
6
CONTINUOUS
10
0.397417
20
0.938811
11
0.397188
21
0.938548
0
LINE
8
BLACK
6
CONTINUOUS
10
0.397188
20
0.938548
11
0.397055
21
0.938225
0
LINE
8
BLACK
6
CONTINUOUS
10
0.397055
20
0.938225
11
0.395626
21
0.936796
0
LINE
8
BLACK
6
CONTINUOUS
10
0.395626
20
0.936796
11
0.394565
21
0.936357
0
LINE
8
BLACK
6
CONTINUOUS
10
0.394565
20
0.936357
11
0.393505
21
0.936796
0
LINE
8
BLACK
6
CONTINUOUS
10
0.393505
20
0.936796
11
0.393065
21
0.937857
0
LINE
8
BLACK
6
CONTINUOUS
10
0.393065
20
0.937857
11
0.393505
21
0.938918
0
LINE
8
BLACK
6
CONTINUOUS
10
0.393505
20
0.938918
11
0.394683
21
0.940096
0
LINE
8
BLACK
6
CONTINUOUS
10
0.394683
20
0.940096
11
0.395923
21
0.943815
0
LINE
8
BLACK
6
CONTINUOUS
10
0.395923
20
0.943815
11
0.395923
21
0.946185
0
LINE
8
BLACK
6
CONTINUOUS
10
0.395923
20
0.946185
11
0.394683
21
0.949904
0
LINE
8
BLACK
6
CONTINUOUS
10
0.394683
20
0.949904
11
0.392248
21
0.952339
0
LINE
8
BLACK
6
CONTINUOUS
10
0.392248
20
0.952339
11
0.389756
21
0.953585
0
LINE
8
BLACK
6
CONTINUOUS
10
0.389756
20
0.953585
11
0.384381
21
0.954929
0
LINE
8
BLACK
6
CONTINUOUS
10
0.384381
20
0.954929
11
0.380464
21
0.954929
0
LINE
8
BLACK
6
CONTINUOUS
10
0.380464
20
0.954929
11
0.375089
21
0.953585
0
LINE
8
BLACK
6
CONTINUOUS
10
0.375089
20
0.953585
11
0.372597
21
0.952339
0
LINE
8
BLACK
6
CONTINUOUS
10
0.372597
20
0.952339
11
0.370162
21
0.949904
0
LINE
8
BLACK
6
CONTINUOUS
10
0.370162
20
0.949904
11
0.368923
21
0.946185
0
LINE
8
BLACK
6
CONTINUOUS
10
0.368923
20
0.946185
11
0.368923
21
0.943815
0
LINE
8
BLACK
6
CONTINUOUS
10
0.368923
20
0.943815
11
0.370162
21
0.940096
0
LINE
8
BLACK
6
CONTINUOUS
10
0.370162
20
0.940096
11
0.37134
21
0.938918
0
LINE
8
BLACK
6
CONTINUOUS
10
0.37134
20
0.938918
11
0.37178
21
0.937857
0
LINE
8
BLACK
6
CONTINUOUS
10
0.37178
20
0.937857
11
0.37134
21
0.936796
0
LINE
8
BLACK
6
CONTINUOUS
10
0.37134
20
0.936796
11
0.37028
21
0.936357
0
LINE
8
BLACK
6
CONTINUOUS
10
0.37028
20
0.936357
11
0.369219
21
0.936796
0
LINE
8
BLACK
6
CONTINUOUS
10
0.369219
20
0.936796
11
0.36779
21
0.938225
0
LINE
8
BLACK
6
CONTINUOUS
10
0.36779
20
0.938225
11
0.367657
21
0.938548
0
LINE
8
BLACK
6
CONTINUOUS
10
0.367657
20
0.938548
11
0.367428
21
0.938811
0
LINE
8
BLACK
6
CONTINUOUS
10
0.367428
20
0.938811
11
0.365999
21
0.943097
0
LINE
8
BLACK
6
CONTINUOUS
10
0.365999
20
0.943097
11
0.366017
21
0.943343
0
LINE
8
BLACK
6
CONTINUOUS
10
0.366017
20
0.943343
11
0.365923
21
0.943571
0
LINE
8
BLACK
6
CONTINUOUS
10
0.365923
20
0.943571
11
0.365923
21
0.946429
0
LINE
8
BLACK
6
CONTINUOUS
10
0.365923
20
0.946429
11
0.366017
21
0.946657
0
LINE
8
BLACK
6
CONTINUOUS
10
0.366017
20
0.946657
11
0.365999
21
0.946903
0
LINE
8
BLACK
6
CONTINUOUS
10
0.365999
20
0.946903
11
0.367428
21
0.951189
0
LINE
8
BLACK
6
CONTINUOUS
10
0.367428
20
0.951189
11
0.367657
21
0.951452
0
LINE
8
BLACK
6
CONTINUOUS
10
0.367657
20
0.951452
11
0.36779
21
0.951775
0
LINE
8
BLACK
6
CONTINUOUS
10
0.36779
20
0.951775
11
0.370648
21
0.954632
0
LINE
8
BLACK
6
CONTINUOUS
10
0.370648
20
0.954632
11
0.370876
21
0.954727
0
LINE
8
BLACK
6
CONTINUOUS
10
0.370876
20
0.954727
11
0.371037
21
0.954913
0
LINE
8
BLACK
6
CONTINUOUS
10
0.371037
20
0.954913
11
0.373895
21
0.956342
0
LINE
8
BLACK
6
CONTINUOUS
10
0.373895
20
0.956342
11
0.374065
21
0.956354
0
LINE
8
BLACK
6
CONTINUOUS
10
0.374065
20
0.956354
11
0.374202
21
0.956455
0
LINE
8
BLACK
6
CONTINUOUS
10
0.374202
20
0.956455
11
0.379916
21
0.957884
0
LINE
8
BLACK
6
CONTINUOUS
10
0.379916
20
0.957884
11
0.380104
21
0.957856
0
LINE
8
BLACK
6
CONTINUOUS
10
0.380104
20
0.957856
11
0.38028
21
0.957929
0
LINE
8
BLACK
6
CONTINUOUS
10
0.38028
20
0.957929
11
0.384565
21
0.957929
0
LINE
8
BLACK
6
CONTINUOUS
10
0.384565
20
0.957929
11
0.384741
21
0.957856
0
LINE
8
BLACK
6
CONTINUOUS
10
0.398483
20
0.970346
11
0.398923
21
0.969286
0
LINE
8
BLACK
6
CONTINUOUS
10
0.398923
20
0.969286
11
0.398483
21
0.968225
0
LINE
8
BLACK
6
CONTINUOUS
10
0.398483
20
0.968225
11
0.397423
21
0.967786
0
LINE
8
BLACK
6
CONTINUOUS
10
0.397423
20
0.967786
11
0.367423
21
0.967786
0
LINE
8
BLACK
6
CONTINUOUS
10
0.367423
20
0.967786
11
0.366362
21
0.968225
0
LINE
8
BLACK
6
CONTINUOUS
10
0.366362
20
0.968225
11
0.365923
21
0.969286
0
LINE
8
BLACK
6
CONTINUOUS
10
0.365923
20
0.969286
11
0.366362
21
0.970346
0
LINE
8
BLACK
6
CONTINUOUS
10
0.366362
20
0.970346
11
0.367423
21
0.970786
0
LINE
8
BLACK
6
CONTINUOUS
10
0.367423
20
0.970786
11
0.397423
21
0.970786
0
LINE
8
BLACK
6
CONTINUOUS
10
0.397423
20
0.970786
11
0.398483
21
0.970346
0
CIRCLE
8
BLACK
10
0.85
20
0.25
40
0.00688976
0
CIRCLE
8
BLACK
10
0.75
20
0.25
40
0.00688976
0
CIRCLE
8
BLACK
10
0.85
20
0.35
40
0.00688976
0
CIRCLE
8
BLACK
10
0.75
20
0.35
40
0.00688976
0
CIRCLE
8
BLACK
10
0.85
20
0.45
40
0.00688976
0
CIRCLE
8
BLACK
10
0.75
20
0.45
40
0.00688976
0
CIRCLE
8
BLACK
10
0.85
20
0.55
40
0.00688976
0
CIRCLE
8
BLACK
10
0.75
20
0.55
40
0.00688976
0
CIRCLE
8
BLACK
10
0
20
1.2
40
0.00688976
0
CIRCLE
8
BLACK
10
0.8
20
0
40
0.00688976
0
CIRCLE
8
BLACK
10
0.85
20
0.65
40
0.00688976
0
CIRCLE
8
BLACK
10
0.75
20
0.65
40
0.00688976
0
CIRCLE
8
BLACK
10
0.85
20
0.75
40
0.00688976
0
CIRCLE
8
BLACK
10
0.75
20
0.75
40
0.00688976
0
CIRCLE
8
BLACK
10
0.85
20
0.85
40
0.00688976
0
CIRCLE
8
BLACK
10
0.75
20
0.85
40
0.00688976
0
CIRCLE
8
BLACK
10
0.85
20
0.95
40
0.00688976
0
CIRCLE
8
BLACK
10
0.75
20
0.95
40
0.00688976
0
CIRCLE
8
BLACK
10
0.4
20
0
40
0.00688976
0
CIRCLE
8
BLACK
10
0.3
20
-0.1
40
0.00688976
0
CIRCLE
8
BLACK
10
0.5
20
-0.1
40
0.00688976
0
CIRCLE
8
BLACK
10
0.5
20
0.1
40
0.00688976
0
CIRCLE
8
BLACK
10
0.3
20
0.1
40
0.00688976
0
CIRCLE
8
BLACK
10
0.4
20
0.7
40
0.00688976
0
CIRCLE
8
BLACK
10
0.5
20
0.7
40
0.00688976
0
CIRCLE
8
BLACK
10
0.4
20
0.6
40
0.00688976
0
CIRCLE
8
BLACK
10
0.5
20
0.6
40
0.00688976
0
CIRCLE
8
BLACK
10
0.4
20
0.5
40
0.00688976
0
CIRCLE
8
BLACK
10
0.5
20
0.5
40
0.00688976
0
CIRCLE
8
BLACK
10
0
20
0.8
40
0.00688976
0
CIRCLE
8
BLACK
10
-0.1
20
0.9
40
0.00688976
0
CIRCLE
8
BLACK
10
0.1
20
0.9
40
0.00688976
0
CIRCLE
8
BLACK
10
0.1
20
0.7
40
0.00688976
0
CIRCLE
8
BLACK
10
-0.1
20
0.7
40
0.00688976
0
CIRCLE
8
BLACK
10
0
20
0
40
0.00688976
0
CIRCLE
8
BLACK
10
0.8
20
1.2
40
0.00688976
0
CIRCLE
8
BLACK
10
0.4
20
1.2
40
0.00688976
0
CIRCLE
8
BLACK
10
0.5
20
1.3
40
0.00688976
0
CIRCLE
8
BLACK
10
0.5
20
1.1
40
0.00688976
0
CIRCLE
8
BLACK
10
0.3
20
1.3
40
0.00688976
0
CIRCLE
8
BLACK
10
0.3
20
1.1
40
0.00688976
0
CIRCLE
8
BLACK
10
0
20
0.4
40
0.00688976
0
CIRCLE
8
BLACK
10
-0.1
20
0.3
40
0.00688976
0
CIRCLE
8
BLACK
10
-0.1
20
0.5
40
0.00688976
0
CIRCLE
8
BLACK
10
0.1
20
0.5
40
0.00688976
0
CIRCLE
8
BLACK
10
0.1
20
0.3
40
0.00688976
  0
ENDSEC
  0
EOF
