  0
SECTION
  2
HEADER
  9
$ANGBASE
  50
0.0
  9
$ANGDIR
  70
1
  9
$MEASUREMENT
  70
0
  0
ENDSEC
  0
SECTION
  2
TABLES
  0
TABLE
  2
LTYPE
  70
4
  0
LTYPE
  5
40F
  2
CONTINUOUS
  70
0
  3
Solid line
  72
65
  73
0
  40
0.0
  0
LTYPE
  5
410
  2
DASHDOT
 70
0
  3
Dash Dot ____ _ ____ _
 72
65
 73
4
 40
2.0
 49
1.25
 49
-0.25
 49
0.25
 49
-0.25
  0
LTYPE
  5
411
  2
DASHED
 70
0
  3
Dashed __ __ __ __ __
 72
65
 73
2
 40
0.75
 49
0.5
 49
-0.25
  0
LTYPE
  5
43B
  2
DOTTED
 70
0
  3
Dotted .  .  .  .
 72
65
 73
2
 40
0.2
 49
0.0
 49
-0.2
  0
ENDTAB
  0
TABLE
  2
STYLE
  70
4
  0
STYLE
  2
KICAD
  70
0
  40
0
  41
1
  42
1
  50
0
  71
0
  3
isocp.shx
  0
STYLE
  2
KICADB
  70
0
  40
0
  41
1
  42
1
  50
0
  71
0
  3
isocp.shx
  0
STYLE
  2
KICADI
  70
0
  40
0
  41
1
  42
1
  50
15
  71
0
  3
isocp.shx
  0
STYLE
  2
KICADBI
  70
0
  40
0
  41
1
  42
1
  50
15
  71
0
  3
isocp.shx
  0
ENDTAB
  0
TABLE
  2
LAYER
  70
1
  0
LAYER
  2
BLACK
  70
0
  62
7
  6
CONTINUOUS
  0
ENDTAB
  0
ENDSEC
  0
SECTION
  2
ENTITIES
0
LINE
8
BLACK
6
CONTINUOUS
10
0.309229
20
-0.0476579
11
0.318178
21
-0.0500557
0
LINE
8
BLACK
6
CONTINUOUS
10
0.318178
20
-0.0500557
11
0.326575
21
-0.0539711
0
LINE
8
BLACK
6
CONTINUOUS
10
0.326575
20
-0.0539711
11
0.334164
21
-0.059285
0
LINE
8
BLACK
6
CONTINUOUS
10
0.334164
20
-0.059285
11
0.340715
21
-0.0658361
0
LINE
8
BLACK
6
CONTINUOUS
10
0.340715
20
-0.0658361
11
0.346029
21
-0.0734252
0
LINE
8
BLACK
6
CONTINUOUS
10
0.346029
20
-0.0734252
11
0.349944
21
-0.0818218
0
LINE
8
BLACK
6
CONTINUOUS
10
0.349944
20
-0.0818218
11
0.352342
21
-0.0907707
0
LINE
8
BLACK
6
CONTINUOUS
10
0.352342
20
-0.0907707
11
0.35315
21
-0.1
0
LINE
8
BLACK
6
CONTINUOUS
10
0.35315
20
-0.1
11
0.352342
21
-0.109229
0
LINE
8
BLACK
6
CONTINUOUS
10
0.352342
20
-0.109229
11
0.349944
21
-0.118178
0
LINE
8
BLACK
6
CONTINUOUS
10
0.349944
20
-0.118178
11
0.346029
21
-0.126575
0
LINE
8
BLACK
6
CONTINUOUS
10
0.346029
20
-0.126575
11
0.340715
21
-0.134164
0
LINE
8
BLACK
6
CONTINUOUS
10
0.340715
20
-0.134164
11
0.334164
21
-0.140715
0
LINE
8
BLACK
6
CONTINUOUS
10
0.334164
20
-0.140715
11
0.326575
21
-0.146029
0
LINE
8
BLACK
6
CONTINUOUS
10
0.326575
20
-0.146029
11
0.318178
21
-0.149944
0
LINE
8
BLACK
6
CONTINUOUS
10
0.318178
20
-0.149944
11
0.309229
21
-0.152342
0
LINE
8
BLACK
6
CONTINUOUS
10
0.309229
20
-0.152342
11
0.3
21
-0.15315
0
LINE
8
BLACK
6
CONTINUOUS
10
0.3
20
-0.15315
11
0.290771
21
-0.152342
0
LINE
8
BLACK
6
CONTINUOUS
10
0.290771
20
-0.152342
11
0.281822
21
-0.149944
0
LINE
8
BLACK
6
CONTINUOUS
10
0.281822
20
-0.149944
11
0.273425
21
-0.146029
0
LINE
8
BLACK
6
CONTINUOUS
10
0.273425
20
-0.146029
11
0.265836
21
-0.140715
0
LINE
8
BLACK
6
CONTINUOUS
10
0.265836
20
-0.140715
11
0.259285
21
-0.134164
0
LINE
8
BLACK
6
CONTINUOUS
10
0.259285
20
-0.134164
11
0.253971
21
-0.126575
0
LINE
8
BLACK
6
CONTINUOUS
10
0.253971
20
-0.126575
11
0.250056
21
-0.118178
0
LINE
8
BLACK
6
CONTINUOUS
10
0.250056
20
-0.118178
11
0.247658
21
-0.109229
0
LINE
8
BLACK
6
CONTINUOUS
10
0.247658
20
-0.109229
11
0.24685
21
-0.1
0
LINE
8
BLACK
6
CONTINUOUS
10
0.24685
20
-0.1
11
0.247658
21
-0.0907707
0
LINE
8
BLACK
6
CONTINUOUS
10
0.247658
20
-0.0907707
11
0.250056
21
-0.0818218
0
LINE
8
BLACK
6
CONTINUOUS
10
0.250056
20
-0.0818218
11
0.253971
21
-0.0734252
0
LINE
8
BLACK
6
CONTINUOUS
10
0.253971
20
-0.0734252
11
0.259285
21
-0.0658361
0
LINE
8
BLACK
6
CONTINUOUS
10
0.259285
20
-0.0658361
11
0.265836
21
-0.059285
0
LINE
8
BLACK
6
CONTINUOUS
10
0.265836
20
-0.059285
11
0.273425
21
-0.0539711
0
LINE
8
BLACK
6
CONTINUOUS
10
0.273425
20
-0.0539711
11
0.281822
21
-0.0500557
0
LINE
8
BLACK
6
CONTINUOUS
10
0.281822
20
-0.0500557
11
0.290771
21
-0.0476579
0
LINE
8
BLACK
6
CONTINUOUS
10
0.290771
20
-0.0476579
11
0.3
21
-0.0468504
0
LINE
8
BLACK
6
CONTINUOUS
10
0.3
20
-0.0468504
11
0.309229
21
-0.0476579
0
LINE
8
BLACK
6
CONTINUOUS
10
0.509229
20
-0.0476579
11
0.518178
21
-0.0500557
0
LINE
8
BLACK
6
CONTINUOUS
10
0.518178
20
-0.0500557
11
0.526575
21
-0.0539711
0
LINE
8
BLACK
6
CONTINUOUS
10
0.526575
20
-0.0539711
11
0.534164
21
-0.059285
0
LINE
8
BLACK
6
CONTINUOUS
10
0.534164
20
-0.059285
11
0.540715
21
-0.0658361
0
LINE
8
BLACK
6
CONTINUOUS
10
0.540715
20
-0.0658361
11
0.546029
21
-0.0734252
0
LINE
8
BLACK
6
CONTINUOUS
10
0.546029
20
-0.0734252
11
0.549944
21
-0.0818218
0
LINE
8
BLACK
6
CONTINUOUS
10
0.549944
20
-0.0818218
11
0.552342
21
-0.0907707
0
LINE
8
BLACK
6
CONTINUOUS
10
0.552342
20
-0.0907707
11
0.55315
21
-0.1
0
LINE
8
BLACK
6
CONTINUOUS
10
0.55315
20
-0.1
11
0.552342
21
-0.109229
0
LINE
8
BLACK
6
CONTINUOUS
10
0.552342
20
-0.109229
11
0.549944
21
-0.118178
0
LINE
8
BLACK
6
CONTINUOUS
10
0.549944
20
-0.118178
11
0.546029
21
-0.126575
0
LINE
8
BLACK
6
CONTINUOUS
10
0.546029
20
-0.126575
11
0.540715
21
-0.134164
0
LINE
8
BLACK
6
CONTINUOUS
10
0.540715
20
-0.134164
11
0.534164
21
-0.140715
0
LINE
8
BLACK
6
CONTINUOUS
10
0.534164
20
-0.140715
11
0.526575
21
-0.146029
0
LINE
8
BLACK
6
CONTINUOUS
10
0.526575
20
-0.146029
11
0.518178
21
-0.149944
0
LINE
8
BLACK
6
CONTINUOUS
10
0.518178
20
-0.149944
11
0.509229
21
-0.152342
0
LINE
8
BLACK
6
CONTINUOUS
10
0.509229
20
-0.152342
11
0.5
21
-0.15315
0
LINE
8
BLACK
6
CONTINUOUS
10
0.5
20
-0.15315
11
0.490771
21
-0.152342
0
LINE
8
BLACK
6
CONTINUOUS
10
0.490771
20
-0.152342
11
0.481822
21
-0.149944
0
LINE
8
BLACK
6
CONTINUOUS
10
0.481822
20
-0.149944
11
0.473425
21
-0.146029
0
LINE
8
BLACK
6
CONTINUOUS
10
0.473425
20
-0.146029
11
0.465836
21
-0.140715
0
LINE
8
BLACK
6
CONTINUOUS
10
0.465836
20
-0.140715
11
0.459285
21
-0.134164
0
LINE
8
BLACK
6
CONTINUOUS
10
0.459285
20
-0.134164
11
0.453971
21
-0.126575
0
LINE
8
BLACK
6
CONTINUOUS
10
0.453971
20
-0.126575
11
0.450056
21
-0.118178
0
LINE
8
BLACK
6
CONTINUOUS
10
0.450056
20
-0.118178
11
0.447658
21
-0.109229
0
LINE
8
BLACK
6
CONTINUOUS
10
0.447658
20
-0.109229
11
0.44685
21
-0.1
0
LINE
8
BLACK
6
CONTINUOUS
10
0.44685
20
-0.1
11
0.447658
21
-0.0907707
0
LINE
8
BLACK
6
CONTINUOUS
10
0.447658
20
-0.0907707
11
0.450056
21
-0.0818218
0
LINE
8
BLACK
6
CONTINUOUS
10
0.450056
20
-0.0818218
11
0.453971
21
-0.0734252
0
LINE
8
BLACK
6
CONTINUOUS
10
0.453971
20
-0.0734252
11
0.459285
21
-0.0658361
0
LINE
8
BLACK
6
CONTINUOUS
10
0.459285
20
-0.0658361
11
0.465836
21
-0.059285
0
LINE
8
BLACK
6
CONTINUOUS
10
0.465836
20
-0.059285
11
0.473425
21
-0.0539711
0
LINE
8
BLACK
6
CONTINUOUS
10
0.473425
20
-0.0539711
11
0.481822
21
-0.0500557
0
LINE
8
BLACK
6
CONTINUOUS
10
0.481822
20
-0.0500557
11
0.490771
21
-0.0476579
0
LINE
8
BLACK
6
CONTINUOUS
10
0.490771
20
-0.0476579
11
0.5
21
-0.0468504
0
LINE
8
BLACK
6
CONTINUOUS
10
0.5
20
-0.0468504
11
0.509229
21
-0.0476579
0
LINE
8
BLACK
6
CONTINUOUS
10
0.0205096
20
0.116316
11
0.0338744
21
0.113148
0
LINE
8
BLACK
6
CONTINUOUS
10
0.0338744
20
0.113148
11
0.0467811
21
0.108451
0
LINE
8
BLACK
6
CONTINUOUS
10
0.0467811
20
0.108451
11
0.0590551
21
0.102286
0
LINE
8
BLACK
6
CONTINUOUS
10
0.0590551
20
0.102286
11
0.0705306
21
0.094739
0
LINE
8
BLACK
6
CONTINUOUS
10
0.0705306
20
0.094739
11
0.0810522
21
0.0859103
0
LINE
8
BLACK
6
CONTINUOUS
10
0.0810522
20
0.0859103
11
0.0904777
21
0.0759198
0
LINE
8
BLACK
6
CONTINUOUS
10
0.0904777
20
0.0759198
11
0.0986796
21
0.0649026
0
LINE
8
BLACK
6
CONTINUOUS
10
0.0986796
20
0.0649026
11
0.105547
21
0.0530078
0
LINE
8
BLACK
6
CONTINUOUS
10
0.105547
20
0.0530078
11
0.110987
21
0.0403961
0
LINE
8
BLACK
6
CONTINUOUS
10
0.110987
20
0.0403961
11
0.114927
21
0.0272381
0
LINE
8
BLACK
6
CONTINUOUS
10
0.114927
20
0.0272381
11
0.117312
21
0.0137118
0
LINE
8
BLACK
6
CONTINUOUS
10
0.117312
20
0.0137118
11
0.11811
21
0
0
LINE
8
BLACK
6
CONTINUOUS
10
0.11811
20
0
11
0.117312
21
-0.0137118
0
LINE
8
BLACK
6
CONTINUOUS
10
0.117312
20
-0.0137118
11
0.114927
21
-0.0272381
0
LINE
8
BLACK
6
CONTINUOUS
10
0.114927
20
-0.0272381
11
0.110987
21
-0.0403961
0
LINE
8
BLACK
6
CONTINUOUS
10
0.110987
20
-0.0403961
11
0.105547
21
-0.0530078
0
LINE
8
BLACK
6
CONTINUOUS
10
0.105547
20
-0.0530078
11
0.0986796
21
-0.0649026
0
LINE
8
BLACK
6
CONTINUOUS
10
0.0986796
20
-0.0649026
11
0.0904777
21
-0.0759198
0
LINE
8
BLACK
6
CONTINUOUS
10
0.0904777
20
-0.0759198
11
0.0810522
21
-0.0859103
0
LINE
8
BLACK
6
CONTINUOUS
10
0.0810522
20
-0.0859103
11
0.0705306
21
-0.094739
0
LINE
8
BLACK
6
CONTINUOUS
10
0.0705306
20
-0.094739
11
0.0590551
21
-0.102286
0
LINE
8
BLACK
6
CONTINUOUS
10
0.0590551
20
-0.102286
11
0.0467811
21
-0.108451
0
LINE
8
BLACK
6
CONTINUOUS
10
0.0467811
20
-0.108451
11
0.0338744
21
-0.113148
0
LINE
8
BLACK
6
CONTINUOUS
10
0.0338744
20
-0.113148
11
0.0205096
21
-0.116316
0
LINE
8
BLACK
6
CONTINUOUS
10
0.0205096
20
-0.116316
11
0.00686748
21
-0.11791
0
LINE
8
BLACK
6
CONTINUOUS
10
0.00686748
20
-0.11791
11
-0.00686748
21
-0.11791
0
LINE
8
BLACK
6
CONTINUOUS
10
-0.00686748
20
-0.11791
11
-0.0205096
21
-0.116316
0
LINE
8
BLACK
6
CONTINUOUS
10
-0.0205096
20
-0.116316
11
-0.0338744
21
-0.113148
0
LINE
8
BLACK
6
CONTINUOUS
10
-0.0338744
20
-0.113148
11
-0.0467811
21
-0.108451
0
LINE
8
BLACK
6
CONTINUOUS
10
-0.0467811
20
-0.108451
11
-0.0590551
21
-0.102286
0
LINE
8
BLACK
6
CONTINUOUS
10
-0.0590551
20
-0.102286
11
-0.0705306
21
-0.094739
0
LINE
8
BLACK
6
CONTINUOUS
10
-0.0705306
20
-0.094739
11
-0.0810522
21
-0.0859103
0
LINE
8
BLACK
6
CONTINUOUS
10
-0.0810522
20
-0.0859103
11
-0.0904777
21
-0.0759198
0
LINE
8
BLACK
6
CONTINUOUS
10
-0.0904777
20
-0.0759198
11
-0.0986796
21
-0.0649026
0
LINE
8
BLACK
6
CONTINUOUS
10
-0.0986796
20
-0.0649026
11
-0.105547
21
-0.0530078
0
LINE
8
BLACK
6
CONTINUOUS
10
-0.105547
20
-0.0530078
11
-0.110987
21
-0.0403961
0
LINE
8
BLACK
6
CONTINUOUS
10
-0.110987
20
-0.0403961
11
-0.114927
21
-0.0272381
0
LINE
8
BLACK
6
CONTINUOUS
10
-0.114927
20
-0.0272381
11
-0.117312
21
-0.0137118
0
LINE
8
BLACK
6
CONTINUOUS
10
-0.117312
20
-0.0137118
11
-0.11811
21
0
0
LINE
8
BLACK
6
CONTINUOUS
10
-0.11811
20
0
11
-0.117312
21
0.0137118
0
LINE
8
BLACK
6
CONTINUOUS
10
-0.117312
20
0.0137118
11
-0.114927
21
0.0272381
0
LINE
8
BLACK
6
CONTINUOUS
10
-0.114927
20
0.0272381
11
-0.110987
21
0.0403961
0
LINE
8
BLACK
6
CONTINUOUS
10
-0.110987
20
0.0403961
11
-0.105547
21
0.0530078
0
LINE
8
BLACK
6
CONTINUOUS
10
-0.105547
20
0.0530078
11
-0.0986796
21
0.0649026
0
LINE
8
BLACK
6
CONTINUOUS
10
-0.0986796
20
0.0649026
11
-0.0904777
21
0.0759198
0
LINE
8
BLACK
6
CONTINUOUS
10
-0.0904777
20
0.0759198
11
-0.0810522
21
0.0859103
0
LINE
8
BLACK
6
CONTINUOUS
10
-0.0810522
20
0.0859103
11
-0.0705306
21
0.094739
0
LINE
8
BLACK
6
CONTINUOUS
10
-0.0705306
20
0.094739
11
-0.0590551
21
0.102286
0
LINE
8
BLACK
6
CONTINUOUS
10
-0.0590551
20
0.102286
11
-0.0467811
21
0.108451
0
LINE
8
BLACK
6
CONTINUOUS
10
-0.0467811
20
0.108451
11
-0.0338744
21
0.113148
0
LINE
8
BLACK
6
CONTINUOUS
10
-0.0338744
20
0.113148
11
-0.0205096
21
0.116316
0
LINE
8
BLACK
6
CONTINUOUS
10
-0.0205096
20
0.116316
11
-0.00686748
21
0.11791
0
LINE
8
BLACK
6
CONTINUOUS
10
-0.00686748
20
0.11791
11
0.00686748
21
0.11791
0
LINE
8
BLACK
6
CONTINUOUS
10
0.00686748
20
0.11791
11
0.0205096
21
0.116316
0
LINE
8
BLACK
6
CONTINUOUS
10
0.82051
20
0.116316
11
0.833874
21
0.113148
0
LINE
8
BLACK
6
CONTINUOUS
10
0.833874
20
0.113148
11
0.846781
21
0.108451
0
LINE
8
BLACK
6
CONTINUOUS
10
0.846781
20
0.108451
11
0.859055
21
0.102286
0
LINE
8
BLACK
6
CONTINUOUS
10
0.859055
20
0.102286
11
0.870531
21
0.094739
0
LINE
8
BLACK
6
CONTINUOUS
10
0.870531
20
0.094739
11
0.881052
21
0.0859103
0
LINE
8
BLACK
6
CONTINUOUS
10
0.881052
20
0.0859103
11
0.890478
21
0.0759198
0
LINE
8
BLACK
6
CONTINUOUS
10
0.890478
20
0.0759198
11
0.89868
21
0.0649026
0
LINE
8
BLACK
6
CONTINUOUS
10
0.89868
20
0.0649026
11
0.905547
21
0.0530078
0
LINE
8
BLACK
6
CONTINUOUS
10
0.905547
20
0.0530078
11
0.910987
21
0.0403961
0
LINE
8
BLACK
6
CONTINUOUS
10
0.910987
20
0.0403961
11
0.914927
21
0.0272381
0
LINE
8
BLACK
6
CONTINUOUS
10
0.914927
20
0.0272381
11
0.917312
21
0.0137118
0
LINE
8
BLACK
6
CONTINUOUS
10
0.917312
20
0.0137118
11
0.91811
21
0
0
LINE
8
BLACK
6
CONTINUOUS
10
0.91811
20
0
11
0.917312
21
-0.0137118
0
LINE
8
BLACK
6
CONTINUOUS
10
0.917312
20
-0.0137118
11
0.914927
21
-0.0272381
0
LINE
8
BLACK
6
CONTINUOUS
10
0.914927
20
-0.0272381
11
0.910987
21
-0.0403961
0
LINE
8
BLACK
6
CONTINUOUS
10
0.910987
20
-0.0403961
11
0.905547
21
-0.0530078
0
LINE
8
BLACK
6
CONTINUOUS
10
0.905547
20
-0.0530078
11
0.89868
21
-0.0649026
0
LINE
8
BLACK
6
CONTINUOUS
10
0.89868
20
-0.0649026
11
0.890478
21
-0.0759198
0
LINE
8
BLACK
6
CONTINUOUS
10
0.890478
20
-0.0759198
11
0.881052
21
-0.0859103
0
LINE
8
BLACK
6
CONTINUOUS
10
0.881052
20
-0.0859103
11
0.870531
21
-0.094739
0
LINE
8
BLACK
6
CONTINUOUS
10
0.870531
20
-0.094739
11
0.859055
21
-0.102286
0
LINE
8
BLACK
6
CONTINUOUS
10
0.859055
20
-0.102286
11
0.846781
21
-0.108451
0
LINE
8
BLACK
6
CONTINUOUS
10
0.846781
20
-0.108451
11
0.833874
21
-0.113148
0
LINE
8
BLACK
6
CONTINUOUS
10
0.833874
20
-0.113148
11
0.82051
21
-0.116316
0
LINE
8
BLACK
6
CONTINUOUS
10
0.82051
20
-0.116316
11
0.806867
21
-0.11791
0
LINE
8
BLACK
6
CONTINUOUS
10
0.806867
20
-0.11791
11
0.793133
21
-0.11791
0
LINE
8
BLACK
6
CONTINUOUS
10
0.793133
20
-0.11791
11
0.77949
21
-0.116316
0
LINE
8
BLACK
6
CONTINUOUS
10
0.77949
20
-0.116316
11
0.766126
21
-0.113148
0
LINE
8
BLACK
6
CONTINUOUS
10
0.766126
20
-0.113148
11
0.753219
21
-0.108451
0
LINE
8
BLACK
6
CONTINUOUS
10
0.753219
20
-0.108451
11
0.740945
21
-0.102286
0
LINE
8
BLACK
6
CONTINUOUS
10
0.740945
20
-0.102286
11
0.729469
21
-0.094739
0
LINE
8
BLACK
6
CONTINUOUS
10
0.729469
20
-0.094739
11
0.718948
21
-0.0859103
0
LINE
8
BLACK
6
CONTINUOUS
10
0.718948
20
-0.0859103
11
0.709522
21
-0.0759198
0
LINE
8
BLACK
6
CONTINUOUS
10
0.709522
20
-0.0759198
11
0.70132
21
-0.0649026
0
LINE
8
BLACK
6
CONTINUOUS
10
0.70132
20
-0.0649026
11
0.694453
21
-0.0530078
0
LINE
8
BLACK
6
CONTINUOUS
10
0.694453
20
-0.0530078
11
0.689013
21
-0.0403961
0
LINE
8
BLACK
6
CONTINUOUS
10
0.689013
20
-0.0403961
11
0.685073
21
-0.0272381
0
LINE
8
BLACK
6
CONTINUOUS
10
0.685073
20
-0.0272381
11
0.682688
21
-0.0137118
0
LINE
8
BLACK
6
CONTINUOUS
10
0.682688
20
-0.0137118
11
0.68189
21
0
0
LINE
8
BLACK
6
CONTINUOUS
10
0.68189
20
0
11
0.682688
21
0.0137118
0
LINE
8
BLACK
6
CONTINUOUS
10
0.682688
20
0.0137118
11
0.685073
21
0.0272381
0
LINE
8
BLACK
6
CONTINUOUS
10
0.685073
20
0.0272381
11
0.689013
21
0.0403961
0
LINE
8
BLACK
6
CONTINUOUS
10
0.689013
20
0.0403961
11
0.694453
21
0.0530078
0
LINE
8
BLACK
6
CONTINUOUS
10
0.694453
20
0.0530078
11
0.70132
21
0.0649026
0
LINE
8
BLACK
6
CONTINUOUS
10
0.70132
20
0.0649026
11
0.709522
21
0.0759198
0
LINE
8
BLACK
6
CONTINUOUS
10
0.709522
20
0.0759198
11
0.718948
21
0.0859103
0
LINE
8
BLACK
6
CONTINUOUS
10
0.718948
20
0.0859103
11
0.729469
21
0.094739
0
LINE
8
BLACK
6
CONTINUOUS
10
0.729469
20
0.094739
11
0.740945
21
0.102286
0
LINE
8
BLACK
6
CONTINUOUS
10
0.740945
20
0.102286
11
0.753219
21
0.108451
0
LINE
8
BLACK
6
CONTINUOUS
10
0.753219
20
0.108451
11
0.766126
21
0.113148
0
LINE
8
BLACK
6
CONTINUOUS
10
0.766126
20
0.113148
11
0.77949
21
0.116316
0
LINE
8
BLACK
6
CONTINUOUS
10
0.77949
20
0.116316
11
0.793133
21
0.11791
0
LINE
8
BLACK
6
CONTINUOUS
10
0.793133
20
0.11791
11
0.806867
21
0.11791
0
LINE
8
BLACK
6
CONTINUOUS
10
0.806867
20
0.11791
11
0.82051
21
0.116316
0
LINE
8
BLACK
6
CONTINUOUS
10
0.408546
20
0.048465
11
0.416832
21
0.0462447
0
LINE
8
BLACK
6
CONTINUOUS
10
0.416832
20
0.0462447
11
0.424606
21
0.0426194
0
LINE
8
BLACK
6
CONTINUOUS
10
0.424606
20
0.0426194
11
0.431633
21
0.0376991
0
LINE
8
BLACK
6
CONTINUOUS
10
0.431633
20
0.0376991
11
0.437699
21
0.0316333
0
LINE
8
BLACK
6
CONTINUOUS
10
0.437699
20
0.0316333
11
0.442619
21
0.0246063
0
LINE
8
BLACK
6
CONTINUOUS
10
0.442619
20
0.0246063
11
0.446245
21
0.0168317
0
LINE
8
BLACK
6
CONTINUOUS
10
0.446245
20
0.0168317
11
0.448465
21
0.00854567
0
LINE
8
BLACK
6
CONTINUOUS
10
0.448465
20
0.00854567
11
0.449213
21
0
0
LINE
8
BLACK
6
CONTINUOUS
10
0.449213
20
0
11
0.448465
21
-0.00854567
0
LINE
8
BLACK
6
CONTINUOUS
10
0.448465
20
-0.00854567
11
0.446245
21
-0.0168317
0
LINE
8
BLACK
6
CONTINUOUS
10
0.446245
20
-0.0168317
11
0.442619
21
-0.0246063
0
LINE
8
BLACK
6
CONTINUOUS
10
0.442619
20
-0.0246063
11
0.437699
21
-0.0316333
0
LINE
8
BLACK
6
CONTINUOUS
10
0.437699
20
-0.0316333
11
0.431633
21
-0.0376991
0
LINE
8
BLACK
6
CONTINUOUS
10
0.431633
20
-0.0376991
11
0.424606
21
-0.0426194
0
LINE
8
BLACK
6
CONTINUOUS
10
0.424606
20
-0.0426194
11
0.416832
21
-0.0462447
0
LINE
8
BLACK
6
CONTINUOUS
10
0.416832
20
-0.0462447
11
0.408546
21
-0.048465
0
LINE
8
BLACK
6
CONTINUOUS
10
0.408546
20
-0.048465
11
0.4
21
-0.0492126
0
LINE
8
BLACK
6
CONTINUOUS
10
0.4
20
-0.0492126
11
0.391454
21
-0.048465
0
LINE
8
BLACK
6
CONTINUOUS
10
0.391454
20
-0.048465
11
0.383168
21
-0.0462447
0
LINE
8
BLACK
6
CONTINUOUS
10
0.383168
20
-0.0462447
11
0.375394
21
-0.0426194
0
LINE
8
BLACK
6
CONTINUOUS
10
0.375394
20
-0.0426194
11
0.368367
21
-0.0376991
0
LINE
8
BLACK
6
CONTINUOUS
10
0.368367
20
-0.0376991
11
0.362301
21
-0.0316333
0
LINE
8
BLACK
6
CONTINUOUS
10
0.362301
20
-0.0316333
11
0.357381
21
-0.0246063
0
LINE
8
BLACK
6
CONTINUOUS
10
0.357381
20
-0.0246063
11
0.353755
21
-0.0168317
0
LINE
8
BLACK
6
CONTINUOUS
10
0.353755
20
-0.0168317
11
0.351535
21
-0.00854567
0
LINE
8
BLACK
6
CONTINUOUS
10
0.351535
20
-0.00854567
11
0.350787
21
0
0
LINE
8
BLACK
6
CONTINUOUS
10
0.350787
20
0
11
0.351535
21
0.00854567
0
LINE
8
BLACK
6
CONTINUOUS
10
0.351535
20
0.00854567
11
0.353755
21
0.0168317
0
LINE
8
BLACK
6
CONTINUOUS
10
0.353755
20
0.0168317
11
0.357381
21
0.0246063
0
LINE
8
BLACK
6
CONTINUOUS
10
0.357381
20
0.0246063
11
0.362301
21
0.0316333
0
LINE
8
BLACK
6
CONTINUOUS
10
0.362301
20
0.0316333
11
0.368367
21
0.0376991
0
LINE
8
BLACK
6
CONTINUOUS
10
0.368367
20
0.0376991
11
0.375394
21
0.0426194
0
LINE
8
BLACK
6
CONTINUOUS
10
0.375394
20
0.0426194
11
0.383168
21
0.0462447
0
LINE
8
BLACK
6
CONTINUOUS
10
0.383168
20
0.0462447
11
0.391454
21
0.048465
0
LINE
8
BLACK
6
CONTINUOUS
10
0.391454
20
0.048465
11
0.4
21
0.0492126
0
LINE
8
BLACK
6
CONTINUOUS
10
0.4
20
0.0492126
11
0.408546
21
0.048465
0
LINE
8
BLACK
6
CONTINUOUS
10
0.309229
20
0.152342
11
0.318178
21
0.149944
0
LINE
8
BLACK
6
CONTINUOUS
10
0.318178
20
0.149944
11
0.326575
21
0.146029
0
LINE
8
BLACK
6
CONTINUOUS
10
0.326575
20
0.146029
11
0.334164
21
0.140715
0
LINE
8
BLACK
6
CONTINUOUS
10
0.334164
20
0.140715
11
0.340715
21
0.134164
0
LINE
8
BLACK
6
CONTINUOUS
10
0.340715
20
0.134164
11
0.346029
21
0.126575
0
LINE
8
BLACK
6
CONTINUOUS
10
0.346029
20
0.126575
11
0.349944
21
0.118178
0
LINE
8
BLACK
6
CONTINUOUS
10
0.349944
20
0.118178
11
0.352342
21
0.109229
0
LINE
8
BLACK
6
CONTINUOUS
10
0.352342
20
0.109229
11
0.35315
21
0.1
0
LINE
8
BLACK
6
CONTINUOUS
10
0.35315
20
0.1
11
0.352342
21
0.0907707
0
LINE
8
BLACK
6
CONTINUOUS
10
0.352342
20
0.0907707
11
0.349944
21
0.0818218
0
LINE
8
BLACK
6
CONTINUOUS
10
0.349944
20
0.0818218
11
0.346029
21
0.0734252
0
LINE
8
BLACK
6
CONTINUOUS
10
0.346029
20
0.0734252
11
0.340715
21
0.0658361
0
LINE
8
BLACK
6
CONTINUOUS
10
0.340715
20
0.0658361
11
0.334164
21
0.059285
0
LINE
8
BLACK
6
CONTINUOUS
10
0.334164
20
0.059285
11
0.326575
21
0.0539711
0
LINE
8
BLACK
6
CONTINUOUS
10
0.326575
20
0.0539711
11
0.318178
21
0.0500557
0
LINE
8
BLACK
6
CONTINUOUS
10
0.318178
20
0.0500557
11
0.309229
21
0.0476579
0
LINE
8
BLACK
6
CONTINUOUS
10
0.309229
20
0.0476579
11
0.3
21
0.0468504
0
LINE
8
BLACK
6
CONTINUOUS
10
0.3
20
0.0468504
11
0.290771
21
0.0476579
0
LINE
8
BLACK
6
CONTINUOUS
10
0.290771
20
0.0476579
11
0.281822
21
0.0500557
0
LINE
8
BLACK
6
CONTINUOUS
10
0.281822
20
0.0500557
11
0.273425
21
0.0539711
0
LINE
8
BLACK
6
CONTINUOUS
10
0.273425
20
0.0539711
11
0.265836
21
0.059285
0
LINE
8
BLACK
6
CONTINUOUS
10
0.265836
20
0.059285
11
0.259285
21
0.0658361
0
LINE
8
BLACK
6
CONTINUOUS
10
0.259285
20
0.0658361
11
0.253971
21
0.0734252
0
LINE
8
BLACK
6
CONTINUOUS
10
0.253971
20
0.0734252
11
0.250056
21
0.0818218
0
LINE
8
BLACK
6
CONTINUOUS
10
0.250056
20
0.0818218
11
0.247658
21
0.0907707
0
LINE
8
BLACK
6
CONTINUOUS
10
0.247658
20
0.0907707
11
0.24685
21
0.1
0
LINE
8
BLACK
6
CONTINUOUS
10
0.24685
20
0.1
11
0.247658
21
0.109229
0
LINE
8
BLACK
6
CONTINUOUS
10
0.247658
20
0.109229
11
0.250056
21
0.118178
0
LINE
8
BLACK
6
CONTINUOUS
10
0.250056
20
0.118178
11
0.253971
21
0.126575
0
LINE
8
BLACK
6
CONTINUOUS
10
0.253971
20
0.126575
11
0.259285
21
0.134164
0
LINE
8
BLACK
6
CONTINUOUS
10
0.259285
20
0.134164
11
0.265836
21
0.140715
0
LINE
8
BLACK
6
CONTINUOUS
10
0.265836
20
0.140715
11
0.273425
21
0.146029
0
LINE
8
BLACK
6
CONTINUOUS
10
0.273425
20
0.146029
11
0.281822
21
0.149944
0
LINE
8
BLACK
6
CONTINUOUS
10
0.281822
20
0.149944
11
0.290771
21
0.152342
0
LINE
8
BLACK
6
CONTINUOUS
10
0.290771
20
0.152342
11
0.3
21
0.15315
0
LINE
8
BLACK
6
CONTINUOUS
10
0.3
20
0.15315
11
0.309229
21
0.152342
0
LINE
8
BLACK
6
CONTINUOUS
10
0.509229
20
0.152342
11
0.518178
21
0.149944
0
LINE
8
BLACK
6
CONTINUOUS
10
0.518178
20
0.149944
11
0.526575
21
0.146029
0
LINE
8
BLACK
6
CONTINUOUS
10
0.526575
20
0.146029
11
0.534164
21
0.140715
0
LINE
8
BLACK
6
CONTINUOUS
10
0.534164
20
0.140715
11
0.540715
21
0.134164
0
LINE
8
BLACK
6
CONTINUOUS
10
0.540715
20
0.134164
11
0.546029
21
0.126575
0
LINE
8
BLACK
6
CONTINUOUS
10
0.546029
20
0.126575
11
0.549944
21
0.118178
0
LINE
8
BLACK
6
CONTINUOUS
10
0.549944
20
0.118178
11
0.552342
21
0.109229
0
LINE
8
BLACK
6
CONTINUOUS
10
0.552342
20
0.109229
11
0.55315
21
0.1
0
LINE
8
BLACK
6
CONTINUOUS
10
0.55315
20
0.1
11
0.552342
21
0.0907707
0
LINE
8
BLACK
6
CONTINUOUS
10
0.552342
20
0.0907707
11
0.549944
21
0.0818218
0
LINE
8
BLACK
6
CONTINUOUS
10
0.549944
20
0.0818218
11
0.546029
21
0.0734252
0
LINE
8
BLACK
6
CONTINUOUS
10
0.546029
20
0.0734252
11
0.540715
21
0.0658361
0
LINE
8
BLACK
6
CONTINUOUS
10
0.540715
20
0.0658361
11
0.534164
21
0.059285
0
LINE
8
BLACK
6
CONTINUOUS
10
0.534164
20
0.059285
11
0.526575
21
0.0539711
0
LINE
8
BLACK
6
CONTINUOUS
10
0.526575
20
0.0539711
11
0.518178
21
0.0500557
0
LINE
8
BLACK
6
CONTINUOUS
10
0.518178
20
0.0500557
11
0.509229
21
0.0476579
0
LINE
8
BLACK
6
CONTINUOUS
10
0.509229
20
0.0476579
11
0.5
21
0.0468504
0
LINE
8
BLACK
6
CONTINUOUS
10
0.5
20
0.0468504
11
0.490771
21
0.0476579
0
LINE
8
BLACK
6
CONTINUOUS
10
0.490771
20
0.0476579
11
0.481822
21
0.0500557
0
LINE
8
BLACK
6
CONTINUOUS
10
0.481822
20
0.0500557
11
0.473425
21
0.0539711
0
LINE
8
BLACK
6
CONTINUOUS
10
0.473425
20
0.0539711
11
0.465836
21
0.059285
0
LINE
8
BLACK
6
CONTINUOUS
10
0.465836
20
0.059285
11
0.459285
21
0.0658361
0
LINE
8
BLACK
6
CONTINUOUS
10
0.459285
20
0.0658361
11
0.453971
21
0.0734252
0
LINE
8
BLACK
6
CONTINUOUS
10
0.453971
20
0.0734252
11
0.450056
21
0.0818218
0
LINE
8
BLACK
6
CONTINUOUS
10
0.450056
20
0.0818218
11
0.447658
21
0.0907707
0
LINE
8
BLACK
6
CONTINUOUS
10
0.447658
20
0.0907707
11
0.44685
21
0.1
0
LINE
8
BLACK
6
CONTINUOUS
10
0.44685
20
0.1
11
0.447658
21
0.109229
0
LINE
8
BLACK
6
CONTINUOUS
10
0.447658
20
0.109229
11
0.450056
21
0.118178
0
LINE
8
BLACK
6
CONTINUOUS
10
0.450056
20
0.118178
11
0.453971
21
0.126575
0
LINE
8
BLACK
6
CONTINUOUS
10
0.453971
20
0.126575
11
0.459285
21
0.134164
0
LINE
8
BLACK
6
CONTINUOUS
10
0.459285
20
0.134164
11
0.465836
21
0.140715
0
LINE
8
BLACK
6
CONTINUOUS
10
0.465836
20
0.140715
11
0.473425
21
0.146029
0
LINE
8
BLACK
6
CONTINUOUS
10
0.473425
20
0.146029
11
0.481822
21
0.149944
0
LINE
8
BLACK
6
CONTINUOUS
10
0.481822
20
0.149944
11
0.490771
21
0.152342
0
LINE
8
BLACK
6
CONTINUOUS
10
0.490771
20
0.152342
11
0.5
21
0.15315
0
LINE
8
BLACK
6
CONTINUOUS
10
0.5
20
0.15315
11
0.509229
21
0.152342
0
LINE
8
BLACK
6
CONTINUOUS
10
0.78
20
0.22
11
0.72
21
0.22
0
LINE
8
BLACK
6
CONTINUOUS
10
0.72
20
0.22
11
0.72
21
0.28
0
LINE
8
BLACK
6
CONTINUOUS
10
0.72
20
0.28
11
0.78
21
0.28
0
LINE
8
BLACK
6
CONTINUOUS
10
0.78
20
0.28
11
0.78
21
0.22
0
LINE
8
BLACK
6
CONTINUOUS
10
0.88
20
0.22
11
0.82
21
0.22
0
LINE
8
BLACK
6
CONTINUOUS
10
0.82
20
0.22
11
0.82
21
0.28
0
LINE
8
BLACK
6
CONTINUOUS
10
0.82
20
0.28
11
0.88
21
0.28
0
LINE
8
BLACK
6
CONTINUOUS
10
0.88
20
0.28
11
0.88
21
0.22
0
LINE
8
BLACK
6
CONTINUOUS
10
-0.0907707
20
0.352342
11
-0.0818218
21
0.349944
0
LINE
8
BLACK
6
CONTINUOUS
10
-0.0818218
20
0.349944
11
-0.0734252
21
0.346029
0
LINE
8
BLACK
6
CONTINUOUS
10
-0.0734252
20
0.346029
11
-0.0658361
21
0.340715
0
LINE
8
BLACK
6
CONTINUOUS
10
-0.0658361
20
0.340715
11
-0.059285
21
0.334164
0
LINE
8
BLACK
6
CONTINUOUS
10
-0.059285
20
0.334164
11
-0.0539711
21
0.326575
0
LINE
8
BLACK
6
CONTINUOUS
10
-0.0539711
20
0.326575
11
-0.0500557
21
0.318178
0
LINE
8
BLACK
6
CONTINUOUS
10
-0.0500557
20
0.318178
11
-0.0476579
21
0.309229
0
LINE
8
BLACK
6
CONTINUOUS
10
-0.0476579
20
0.309229
11
-0.0468504
21
0.3
0
LINE
8
BLACK
6
CONTINUOUS
10
-0.0468504
20
0.3
11
-0.0476579
21
0.290771
0
LINE
8
BLACK
6
CONTINUOUS
10
-0.0476579
20
0.290771
11
-0.0500557
21
0.281822
0
LINE
8
BLACK
6
CONTINUOUS
10
-0.0500557
20
0.281822
11
-0.0539711
21
0.273425
0
LINE
8
BLACK
6
CONTINUOUS
10
-0.0539711
20
0.273425
11
-0.059285
21
0.265836
0
LINE
8
BLACK
6
CONTINUOUS
10
-0.059285
20
0.265836
11
-0.0658361
21
0.259285
0
LINE
8
BLACK
6
CONTINUOUS
10
-0.0658361
20
0.259285
11
-0.0734252
21
0.253971
0
LINE
8
BLACK
6
CONTINUOUS
10
-0.0734252
20
0.253971
11
-0.0818218
21
0.250056
0
LINE
8
BLACK
6
CONTINUOUS
10
-0.0818218
20
0.250056
11
-0.0907707
21
0.247658
0
LINE
8
BLACK
6
CONTINUOUS
10
-0.0907707
20
0.247658
11
-0.1
21
0.24685
0
LINE
8
BLACK
6
CONTINUOUS
10
-0.1
20
0.24685
11
-0.109229
21
0.247658
0
LINE
8
BLACK
6
CONTINUOUS
10
-0.109229
20
0.247658
11
-0.118178
21
0.250056
0
LINE
8
BLACK
6
CONTINUOUS
10
-0.118178
20
0.250056
11
-0.126575
21
0.253971
0
LINE
8
BLACK
6
CONTINUOUS
10
-0.126575
20
0.253971
11
-0.134164
21
0.259285
0
LINE
8
BLACK
6
CONTINUOUS
10
-0.134164
20
0.259285
11
-0.140715
21
0.265836
0
LINE
8
BLACK
6
CONTINUOUS
10
-0.140715
20
0.265836
11
-0.146029
21
0.273425
0
LINE
8
BLACK
6
CONTINUOUS
10
-0.146029
20
0.273425
11
-0.149944
21
0.281822
0
LINE
8
BLACK
6
CONTINUOUS
10
-0.149944
20
0.281822
11
-0.152342
21
0.290771
0
LINE
8
BLACK
6
CONTINUOUS
10
-0.152342
20
0.290771
11
-0.15315
21
0.3
0
LINE
8
BLACK
6
CONTINUOUS
10
-0.15315
20
0.3
11
-0.152342
21
0.309229
0
LINE
8
BLACK
6
CONTINUOUS
10
-0.152342
20
0.309229
11
-0.149944
21
0.318178
0
LINE
8
BLACK
6
CONTINUOUS
10
-0.149944
20
0.318178
11
-0.146029
21
0.326575
0
LINE
8
BLACK
6
CONTINUOUS
10
-0.146029
20
0.326575
11
-0.140715
21
0.334164
0
LINE
8
BLACK
6
CONTINUOUS
10
-0.140715
20
0.334164
11
-0.134164
21
0.340715
0
LINE
8
BLACK
6
CONTINUOUS
10
-0.134164
20
0.340715
11
-0.126575
21
0.346029
0
LINE
8
BLACK
6
CONTINUOUS
10
-0.126575
20
0.346029
11
-0.118178
21
0.349944
0
LINE
8
BLACK
6
CONTINUOUS
10
-0.118178
20
0.349944
11
-0.109229
21
0.352342
0
LINE
8
BLACK
6
CONTINUOUS
10
-0.109229
20
0.352342
11
-0.1
21
0.35315
0
LINE
8
BLACK
6
CONTINUOUS
10
-0.1
20
0.35315
11
-0.0907707
21
0.352342
0
LINE
8
BLACK
6
CONTINUOUS
10
0.109229
20
0.352342
11
0.118178
21
0.349944
0
LINE
8
BLACK
6
CONTINUOUS
10
0.118178
20
0.349944
11
0.126575
21
0.346029
0
LINE
8
BLACK
6
CONTINUOUS
10
0.126575
20
0.346029
11
0.134164
21
0.340715
0
LINE
8
BLACK
6
CONTINUOUS
10
0.134164
20
0.340715
11
0.140715
21
0.334164
0
LINE
8
BLACK
6
CONTINUOUS
10
0.140715
20
0.334164
11
0.146029
21
0.326575
0
LINE
8
BLACK
6
CONTINUOUS
10
0.146029
20
0.326575
11
0.149944
21
0.318178
0
LINE
8
BLACK
6
CONTINUOUS
10
0.149944
20
0.318178
11
0.152342
21
0.309229
0
LINE
8
BLACK
6
CONTINUOUS
10
0.152342
20
0.309229
11
0.15315
21
0.3
0
LINE
8
BLACK
6
CONTINUOUS
10
0.15315
20
0.3
11
0.152342
21
0.290771
0
LINE
8
BLACK
6
CONTINUOUS
10
0.152342
20
0.290771
11
0.149944
21
0.281822
0
LINE
8
BLACK
6
CONTINUOUS
10
0.149944
20
0.281822
11
0.146029
21
0.273425
0
LINE
8
BLACK
6
CONTINUOUS
10
0.146029
20
0.273425
11
0.140715
21
0.265836
0
LINE
8
BLACK
6
CONTINUOUS
10
0.140715
20
0.265836
11
0.134164
21
0.259285
0
LINE
8
BLACK
6
CONTINUOUS
10
0.134164
20
0.259285
11
0.126575
21
0.253971
0
LINE
8
BLACK
6
CONTINUOUS
10
0.126575
20
0.253971
11
0.118178
21
0.250056
0
LINE
8
BLACK
6
CONTINUOUS
10
0.118178
20
0.250056
11
0.109229
21
0.247658
0
LINE
8
BLACK
6
CONTINUOUS
10
0.109229
20
0.247658
11
0.1
21
0.24685
0
LINE
8
BLACK
6
CONTINUOUS
10
0.1
20
0.24685
11
0.0907707
21
0.247658
0
LINE
8
BLACK
6
CONTINUOUS
10
0.0907707
20
0.247658
11
0.0818218
21
0.250056
0
LINE
8
BLACK
6
CONTINUOUS
10
0.0818218
20
0.250056
11
0.0734252
21
0.253971
0
LINE
8
BLACK
6
CONTINUOUS
10
0.0734252
20
0.253971
11
0.0658361
21
0.259285
0
LINE
8
BLACK
6
CONTINUOUS
10
0.0658361
20
0.259285
11
0.059285
21
0.265836
0
LINE
8
BLACK
6
CONTINUOUS
10
0.059285
20
0.265836
11
0.0539711
21
0.273425
0
LINE
8
BLACK
6
CONTINUOUS
10
0.0539711
20
0.273425
11
0.0500557
21
0.281822
0
LINE
8
BLACK
6
CONTINUOUS
10
0.0500557
20
0.281822
11
0.0476579
21
0.290771
0
LINE
8
BLACK
6
CONTINUOUS
10
0.0476579
20
0.290771
11
0.0468504
21
0.3
0
LINE
8
BLACK
6
CONTINUOUS
10
0.0468504
20
0.3
11
0.0476579
21
0.309229
0
LINE
8
BLACK
6
CONTINUOUS
10
0.0476579
20
0.309229
11
0.0500557
21
0.318178
0
LINE
8
BLACK
6
CONTINUOUS
10
0.0500557
20
0.318178
11
0.0539711
21
0.326575
0
LINE
8
BLACK
6
CONTINUOUS
10
0.0539711
20
0.326575
11
0.059285
21
0.334164
0
LINE
8
BLACK
6
CONTINUOUS
10
0.059285
20
0.334164
11
0.0658361
21
0.340715
0
LINE
8
BLACK
6
CONTINUOUS
10
0.0658361
20
0.340715
11
0.0734252
21
0.346029
0
LINE
8
BLACK
6
CONTINUOUS
10
0.0734252
20
0.346029
11
0.0818218
21
0.349944
0
LINE
8
BLACK
6
CONTINUOUS
10
0.0818218
20
0.349944
11
0.0907707
21
0.352342
0
LINE
8
BLACK
6
CONTINUOUS
10
0.0907707
20
0.352342
11
0.1
21
0.35315
0
LINE
8
BLACK
6
CONTINUOUS
10
0.1
20
0.35315
11
0.109229
21
0.352342
0
LINE
8
BLACK
6
CONTINUOUS
10
0.78
20
0.32
11
0.72
21
0.32
0
LINE
8
BLACK
6
CONTINUOUS
10
0.72
20
0.32
11
0.72
21
0.38
0
LINE
8
BLACK
6
CONTINUOUS
10
0.72
20
0.38
11
0.78
21
0.38
0
LINE
8
BLACK
6
CONTINUOUS
10
0.78
20
0.38
11
0.78
21
0.32
0
LINE
8
BLACK
6
CONTINUOUS
10
0.88
20
0.32
11
0.82
21
0.32
0
LINE
8
BLACK
6
CONTINUOUS
10
0.82
20
0.32
11
0.82
21
0.38
0
LINE
8
BLACK
6
CONTINUOUS
10
0.82
20
0.38
11
0.88
21
0.38
0
LINE
8
BLACK
6
CONTINUOUS
10
0.88
20
0.38
11
0.88
21
0.32
0
LINE
8
BLACK
6
CONTINUOUS
10
0.00854567
20
0.448465
11
0.0168317
21
0.446245
0
LINE
8
BLACK
6
CONTINUOUS
10
0.0168317
20
0.446245
11
0.0246063
21
0.442619
0
LINE
8
BLACK
6
CONTINUOUS
10
0.0246063
20
0.442619
11
0.0316333
21
0.437699
0
LINE
8
BLACK
6
CONTINUOUS
10
0.0316333
20
0.437699
11
0.0376991
21
0.431633
0
LINE
8
BLACK
6
CONTINUOUS
10
0.0376991
20
0.431633
11
0.0426194
21
0.424606
0
LINE
8
BLACK
6
CONTINUOUS
10
0.0426194
20
0.424606
11
0.0462447
21
0.416832
0
LINE
8
BLACK
6
CONTINUOUS
10
0.0462447
20
0.416832
11
0.048465
21
0.408546
0
LINE
8
BLACK
6
CONTINUOUS
10
0.048465
20
0.408546
11
0.0492126
21
0.4
0
LINE
8
BLACK
6
CONTINUOUS
10
0.0492126
20
0.4
11
0.048465
21
0.391454
0
LINE
8
BLACK
6
CONTINUOUS
10
0.048465
20
0.391454
11
0.0462447
21
0.383168
0
LINE
8
BLACK
6
CONTINUOUS
10
0.0462447
20
0.383168
11
0.0426194
21
0.375394
0
LINE
8
BLACK
6
CONTINUOUS
10
0.0426194
20
0.375394
11
0.0376991
21
0.368367
0
LINE
8
BLACK
6
CONTINUOUS
10
0.0376991
20
0.368367
11
0.0316333
21
0.362301
0
LINE
8
BLACK
6
CONTINUOUS
10
0.0316333
20
0.362301
11
0.0246063
21
0.357381
0
LINE
8
BLACK
6
CONTINUOUS
10
0.0246063
20
0.357381
11
0.0168317
21
0.353755
0
LINE
8
BLACK
6
CONTINUOUS
10
0.0168317
20
0.353755
11
0.00854567
21
0.351535
0
LINE
8
BLACK
6
CONTINUOUS
10
0.00854567
20
0.351535
11
0
21
0.350787
0
LINE
8
BLACK
6
CONTINUOUS
10
0
20
0.350787
11
-0.00854567
21
0.351535
0
LINE
8
BLACK
6
CONTINUOUS
10
-0.00854567
20
0.351535
11
-0.0168317
21
0.353755
0
LINE
8
BLACK
6
CONTINUOUS
10
-0.0168317
20
0.353755
11
-0.0246063
21
0.357381
0
LINE
8
BLACK
6
CONTINUOUS
10
-0.0246063
20
0.357381
11
-0.0316333
21
0.362301
0
LINE
8
BLACK
6
CONTINUOUS
10
-0.0316333
20
0.362301
11
-0.0376991
21
0.368367
0
LINE
8
BLACK
6
CONTINUOUS
10
-0.0376991
20
0.368367
11
-0.0426194
21
0.375394
0
LINE
8
BLACK
6
CONTINUOUS
10
-0.0426194
20
0.375394
11
-0.0462447
21
0.383168
0
LINE
8
BLACK
6
CONTINUOUS
10
-0.0462447
20
0.383168
11
-0.048465
21
0.391454
0
LINE
8
BLACK
6
CONTINUOUS
10
-0.048465
20
0.391454
11
-0.0492126
21
0.4
0
LINE
8
BLACK
6
CONTINUOUS
10
-0.0492126
20
0.4
11
-0.048465
21
0.408546
0
LINE
8
BLACK
6
CONTINUOUS
10
-0.048465
20
0.408546
11
-0.0462447
21
0.416832
0
LINE
8
BLACK
6
CONTINUOUS
10
-0.0462447
20
0.416832
11
-0.0426194
21
0.424606
0
LINE
8
BLACK
6
CONTINUOUS
10
-0.0426194
20
0.424606
11
-0.0376991
21
0.431633
0
LINE
8
BLACK
6
CONTINUOUS
10
-0.0376991
20
0.431633
11
-0.0316333
21
0.437699
0
LINE
8
BLACK
6
CONTINUOUS
10
-0.0316333
20
0.437699
11
-0.0246063
21
0.442619
0
LINE
8
BLACK
6
CONTINUOUS
10
-0.0246063
20
0.442619
11
-0.0168317
21
0.446245
0
LINE
8
BLACK
6
CONTINUOUS
10
-0.0168317
20
0.446245
11
-0.00854567
21
0.448465
0
LINE
8
BLACK
6
CONTINUOUS
10
-0.00854567
20
0.448465
11
0
21
0.449213
0
LINE
8
BLACK
6
CONTINUOUS
10
0
20
0.449213
11
0.00854567
21
0.448465
0
LINE
8
BLACK
6
CONTINUOUS
10
0.78
20
0.42
11
0.72
21
0.42
0
LINE
8
BLACK
6
CONTINUOUS
10
0.72
20
0.42
11
0.72
21
0.48
0
LINE
8
BLACK
6
CONTINUOUS
10
0.72
20
0.48
11
0.78
21
0.48
0
LINE
8
BLACK
6
CONTINUOUS
10
0.78
20
0.48
11
0.78
21
0.42
0
LINE
8
BLACK
6
CONTINUOUS
10
0.88
20
0.42
11
0.82
21
0.42
0
LINE
8
BLACK
6
CONTINUOUS
10
0.82
20
0.42
11
0.82
21
0.48
0
LINE
8
BLACK
6
CONTINUOUS
10
0.82
20
0.48
11
0.88
21
0.48
0
LINE
8
BLACK
6
CONTINUOUS
10
0.88
20
0.48
11
0.88
21
0.42
0
LINE
8
BLACK
6
CONTINUOUS
10
-0.0907707
20
0.552342
11
-0.0818218
21
0.549944
0
LINE
8
BLACK
6
CONTINUOUS
10
-0.0818218
20
0.549944
11
-0.0734252
21
0.546029
0
LINE
8
BLACK
6
CONTINUOUS
10
-0.0734252
20
0.546029
11
-0.0658361
21
0.540715
0
LINE
8
BLACK
6
CONTINUOUS
10
-0.0658361
20
0.540715
11
-0.059285
21
0.534164
0
LINE
8
BLACK
6
CONTINUOUS
10
-0.059285
20
0.534164
11
-0.0539711
21
0.526575
0
LINE
8
BLACK
6
CONTINUOUS
10
-0.0539711
20
0.526575
11
-0.0500557
21
0.518178
0
LINE
8
BLACK
6
CONTINUOUS
10
-0.0500557
20
0.518178
11
-0.0476579
21
0.509229
0
LINE
8
BLACK
6
CONTINUOUS
10
-0.0476579
20
0.509229
11
-0.0468504
21
0.5
0
LINE
8
BLACK
6
CONTINUOUS
10
-0.0468504
20
0.5
11
-0.0476579
21
0.490771
0
LINE
8
BLACK
6
CONTINUOUS
10
-0.0476579
20
0.490771
11
-0.0500557
21
0.481822
0
LINE
8
BLACK
6
CONTINUOUS
10
-0.0500557
20
0.481822
11
-0.0539711
21
0.473425
0
LINE
8
BLACK
6
CONTINUOUS
10
-0.0539711
20
0.473425
11
-0.059285
21
0.465836
0
LINE
8
BLACK
6
CONTINUOUS
10
-0.059285
20
0.465836
11
-0.0658361
21
0.459285
0
LINE
8
BLACK
6
CONTINUOUS
10
-0.0658361
20
0.459285
11
-0.0734252
21
0.453971
0
LINE
8
BLACK
6
CONTINUOUS
10
-0.0734252
20
0.453971
11
-0.0818218
21
0.450056
0
LINE
8
BLACK
6
CONTINUOUS
10
-0.0818218
20
0.450056
11
-0.0907707
21
0.447658
0
LINE
8
BLACK
6
CONTINUOUS
10
-0.0907707
20
0.447658
11
-0.1
21
0.44685
0
LINE
8
BLACK
6
CONTINUOUS
10
-0.1
20
0.44685
11
-0.109229
21
0.447658
0
LINE
8
BLACK
6
CONTINUOUS
10
-0.109229
20
0.447658
11
-0.118178
21
0.450056
0
LINE
8
BLACK
6
CONTINUOUS
10
-0.118178
20
0.450056
11
-0.126575
21
0.453971
0
LINE
8
BLACK
6
CONTINUOUS
10
-0.126575
20
0.453971
11
-0.134164
21
0.459285
0
LINE
8
BLACK
6
CONTINUOUS
10
-0.134164
20
0.459285
11
-0.140715
21
0.465836
0
LINE
8
BLACK
6
CONTINUOUS
10
-0.140715
20
0.465836
11
-0.146029
21
0.473425
0
LINE
8
BLACK
6
CONTINUOUS
10
-0.146029
20
0.473425
11
-0.149944
21
0.481822
0
LINE
8
BLACK
6
CONTINUOUS
10
-0.149944
20
0.481822
11
-0.152342
21
0.490771
0
LINE
8
BLACK
6
CONTINUOUS
10
-0.152342
20
0.490771
11
-0.15315
21
0.5
0
LINE
8
BLACK
6
CONTINUOUS
10
-0.15315
20
0.5
11
-0.152342
21
0.509229
0
LINE
8
BLACK
6
CONTINUOUS
10
-0.152342
20
0.509229
11
-0.149944
21
0.518178
0
LINE
8
BLACK
6
CONTINUOUS
10
-0.149944
20
0.518178
11
-0.146029
21
0.526575
0
LINE
8
BLACK
6
CONTINUOUS
10
-0.146029
20
0.526575
11
-0.140715
21
0.534164
0
LINE
8
BLACK
6
CONTINUOUS
10
-0.140715
20
0.534164
11
-0.134164
21
0.540715
0
LINE
8
BLACK
6
CONTINUOUS
10
-0.134164
20
0.540715
11
-0.126575
21
0.546029
0
LINE
8
BLACK
6
CONTINUOUS
10
-0.126575
20
0.546029
11
-0.118178
21
0.549944
0
LINE
8
BLACK
6
CONTINUOUS
10
-0.118178
20
0.549944
11
-0.109229
21
0.552342
0
LINE
8
BLACK
6
CONTINUOUS
10
-0.109229
20
0.552342
11
-0.1
21
0.55315
0
LINE
8
BLACK
6
CONTINUOUS
10
-0.1
20
0.55315
11
-0.0907707
21
0.552342
0
LINE
8
BLACK
6
CONTINUOUS
10
0.109229
20
0.552342
11
0.118178
21
0.549944
0
LINE
8
BLACK
6
CONTINUOUS
10
0.118178
20
0.549944
11
0.126575
21
0.546029
0
LINE
8
BLACK
6
CONTINUOUS
10
0.126575
20
0.546029
11
0.134164
21
0.540715
0
LINE
8
BLACK
6
CONTINUOUS
10
0.134164
20
0.540715
11
0.140715
21
0.534164
0
LINE
8
BLACK
6
CONTINUOUS
10
0.140715
20
0.534164
11
0.146029
21
0.526575
0
LINE
8
BLACK
6
CONTINUOUS
10
0.146029
20
0.526575
11
0.149944
21
0.518178
0
LINE
8
BLACK
6
CONTINUOUS
10
0.149944
20
0.518178
11
0.152342
21
0.509229
0
LINE
8
BLACK
6
CONTINUOUS
10
0.152342
20
0.509229
11
0.15315
21
0.5
0
LINE
8
BLACK
6
CONTINUOUS
10
0.15315
20
0.5
11
0.152342
21
0.490771
0
LINE
8
BLACK
6
CONTINUOUS
10
0.152342
20
0.490771
11
0.149944
21
0.481822
0
LINE
8
BLACK
6
CONTINUOUS
10
0.149944
20
0.481822
11
0.146029
21
0.473425
0
LINE
8
BLACK
6
CONTINUOUS
10
0.146029
20
0.473425
11
0.140715
21
0.465836
0
LINE
8
BLACK
6
CONTINUOUS
10
0.140715
20
0.465836
11
0.134164
21
0.459285
0
LINE
8
BLACK
6
CONTINUOUS
10
0.134164
20
0.459285
11
0.126575
21
0.453971
0
LINE
8
BLACK
6
CONTINUOUS
10
0.126575
20
0.453971
11
0.118178
21
0.450056
0
LINE
8
BLACK
6
CONTINUOUS
10
0.118178
20
0.450056
11
0.109229
21
0.447658
0
LINE
8
BLACK
6
CONTINUOUS
10
0.109229
20
0.447658
11
0.1
21
0.44685
0
LINE
8
BLACK
6
CONTINUOUS
10
0.1
20
0.44685
11
0.0907707
21
0.447658
0
LINE
8
BLACK
6
CONTINUOUS
10
0.0907707
20
0.447658
11
0.0818218
21
0.450056
0
LINE
8
BLACK
6
CONTINUOUS
10
0.0818218
20
0.450056
11
0.0734252
21
0.453971
0
LINE
8
BLACK
6
CONTINUOUS
10
0.0734252
20
0.453971
11
0.0658361
21
0.459285
0
LINE
8
BLACK
6
CONTINUOUS
10
0.0658361
20
0.459285
11
0.059285
21
0.465836
0
LINE
8
BLACK
6
CONTINUOUS
10
0.059285
20
0.465836
11
0.0539711
21
0.473425
0
LINE
8
BLACK
6
CONTINUOUS
10
0.0539711
20
0.473425
11
0.0500557
21
0.481822
0
LINE
8
BLACK
6
CONTINUOUS
10
0.0500557
20
0.481822
11
0.0476579
21
0.490771
0
LINE
8
BLACK
6
CONTINUOUS
10
0.0476579
20
0.490771
11
0.0468504
21
0.5
0
LINE
8
BLACK
6
CONTINUOUS
10
0.0468504
20
0.5
11
0.0476579
21
0.509229
0
LINE
8
BLACK
6
CONTINUOUS
10
0.0476579
20
0.509229
11
0.0500557
21
0.518178
0
LINE
8
BLACK
6
CONTINUOUS
10
0.0500557
20
0.518178
11
0.0539711
21
0.526575
0
LINE
8
BLACK
6
CONTINUOUS
10
0.0539711
20
0.526575
11
0.059285
21
0.534164
0
LINE
8
BLACK
6
CONTINUOUS
10
0.059285
20
0.534164
11
0.0658361
21
0.540715
0
LINE
8
BLACK
6
CONTINUOUS
10
0.0658361
20
0.540715
11
0.0734252
21
0.546029
0
LINE
8
BLACK
6
CONTINUOUS
10
0.0734252
20
0.546029
11
0.0818218
21
0.549944
0
LINE
8
BLACK
6
CONTINUOUS
10
0.0818218
20
0.549944
11
0.0907707
21
0.552342
0
LINE
8
BLACK
6
CONTINUOUS
10
0.0907707
20
0.552342
11
0.1
21
0.55315
0
LINE
8
BLACK
6
CONTINUOUS
10
0.1
20
0.55315
11
0.109229
21
0.552342
0
LINE
8
BLACK
6
CONTINUOUS
10
0.43
20
0.47
11
0.37
21
0.47
0
LINE
8
BLACK
6
CONTINUOUS
10
0.37
20
0.47
11
0.37
21
0.53
0
LINE
8
BLACK
6
CONTINUOUS
10
0.37
20
0.53
11
0.43
21
0.53
0
LINE
8
BLACK
6
CONTINUOUS
10
0.43
20
0.53
11
0.43
21
0.47
0
LINE
8
BLACK
6
CONTINUOUS
10
0.53
20
0.47
11
0.47
21
0.47
0
LINE
8
BLACK
6
CONTINUOUS
10
0.47
20
0.47
11
0.47
21
0.53
0
LINE
8
BLACK
6
CONTINUOUS
10
0.47
20
0.53
11
0.53
21
0.53
0
LINE
8
BLACK
6
CONTINUOUS
10
0.53
20
0.53
11
0.53
21
0.47
0
LINE
8
BLACK
6
CONTINUOUS
10
0.78
20
0.52
11
0.72
21
0.52
0
LINE
8
BLACK
6
CONTINUOUS
10
0.72
20
0.52
11
0.72
21
0.58
0
LINE
8
BLACK
6
CONTINUOUS
10
0.72
20
0.58
11
0.78
21
0.58
0
LINE
8
BLACK
6
CONTINUOUS
10
0.78
20
0.58
11
0.78
21
0.52
0
LINE
8
BLACK
6
CONTINUOUS
10
0.88
20
0.52
11
0.82
21
0.52
0
LINE
8
BLACK
6
CONTINUOUS
10
0.82
20
0.52
11
0.82
21
0.58
0
LINE
8
BLACK
6
CONTINUOUS
10
0.82
20
0.58
11
0.88
21
0.58
0
LINE
8
BLACK
6
CONTINUOUS
10
0.88
20
0.58
11
0.88
21
0.52
0
LINE
8
BLACK
6
CONTINUOUS
10
0.43
20
0.57
11
0.37
21
0.57
0
LINE
8
BLACK
6
CONTINUOUS
10
0.37
20
0.57
11
0.37
21
0.63
0
LINE
8
BLACK
6
CONTINUOUS
10
0.37
20
0.63
11
0.43
21
0.63
0
LINE
8
BLACK
6
CONTINUOUS
10
0.43
20
0.63
11
0.43
21
0.57
0
LINE
8
BLACK
6
CONTINUOUS
10
0.53
20
0.57
11
0.47
21
0.57
0
LINE
8
BLACK
6
CONTINUOUS
10
0.47
20
0.57
11
0.47
21
0.63
0
LINE
8
BLACK
6
CONTINUOUS
10
0.47
20
0.63
11
0.53
21
0.63
0
LINE
8
BLACK
6
CONTINUOUS
10
0.53
20
0.63
11
0.53
21
0.57
0
LINE
8
BLACK
6
CONTINUOUS
10
0.78
20
0.62
11
0.72
21
0.62
0
LINE
8
BLACK
6
CONTINUOUS
10
0.72
20
0.62
11
0.72
21
0.68
0
LINE
8
BLACK
6
CONTINUOUS
10
0.72
20
0.68
11
0.78
21
0.68
0
LINE
8
BLACK
6
CONTINUOUS
10
0.78
20
0.68
11
0.78
21
0.62
0
LINE
8
BLACK
6
CONTINUOUS
10
0.88
20
0.62
11
0.82
21
0.62
0
LINE
8
BLACK
6
CONTINUOUS
10
0.82
20
0.62
11
0.82
21
0.68
0
LINE
8
BLACK
6
CONTINUOUS
10
0.82
20
0.68
11
0.88
21
0.68
0
LINE
8
BLACK
6
CONTINUOUS
10
0.88
20
0.68
11
0.88
21
0.62
0
LINE
8
BLACK
6
CONTINUOUS
10
-0.0907707
20
0.752342
11
-0.0818218
21
0.749944
0
LINE
8
BLACK
6
CONTINUOUS
10
-0.0818218
20
0.749944
11
-0.0734252
21
0.746029
0
LINE
8
BLACK
6
CONTINUOUS
10
-0.0734252
20
0.746029
11
-0.0658361
21
0.740715
0
LINE
8
BLACK
6
CONTINUOUS
10
-0.0658361
20
0.740715
11
-0.059285
21
0.734164
0
LINE
8
BLACK
6
CONTINUOUS
10
-0.059285
20
0.734164
11
-0.0539711
21
0.726575
0
LINE
8
BLACK
6
CONTINUOUS
10
-0.0539711
20
0.726575
11
-0.0500557
21
0.718178
0
LINE
8
BLACK
6
CONTINUOUS
10
-0.0500557
20
0.718178
11
-0.0476579
21
0.709229
0
LINE
8
BLACK
6
CONTINUOUS
10
-0.0476579
20
0.709229
11
-0.0468504
21
0.7
0
LINE
8
BLACK
6
CONTINUOUS
10
-0.0468504
20
0.7
11
-0.0476579
21
0.690771
0
LINE
8
BLACK
6
CONTINUOUS
10
-0.0476579
20
0.690771
11
-0.0500557
21
0.681822
0
LINE
8
BLACK
6
CONTINUOUS
10
-0.0500557
20
0.681822
11
-0.0539711
21
0.673425
0
LINE
8
BLACK
6
CONTINUOUS
10
-0.0539711
20
0.673425
11
-0.059285
21
0.665836
0
LINE
8
BLACK
6
CONTINUOUS
10
-0.059285
20
0.665836
11
-0.0658361
21
0.659285
0
LINE
8
BLACK
6
CONTINUOUS
10
-0.0658361
20
0.659285
11
-0.0734252
21
0.653971
0
LINE
8
BLACK
6
CONTINUOUS
10
-0.0734252
20
0.653971
11
-0.0818218
21
0.650056
0
LINE
8
BLACK
6
CONTINUOUS
10
-0.0818218
20
0.650056
11
-0.0907707
21
0.647658
0
LINE
8
BLACK
6
CONTINUOUS
10
-0.0907707
20
0.647658
11
-0.1
21
0.64685
0
LINE
8
BLACK
6
CONTINUOUS
10
-0.1
20
0.64685
11
-0.109229
21
0.647658
0
LINE
8
BLACK
6
CONTINUOUS
10
-0.109229
20
0.647658
11
-0.118178
21
0.650056
0
LINE
8
BLACK
6
CONTINUOUS
10
-0.118178
20
0.650056
11
-0.126575
21
0.653971
0
LINE
8
BLACK
6
CONTINUOUS
10
-0.126575
20
0.653971
11
-0.134164
21
0.659285
0
LINE
8
BLACK
6
CONTINUOUS
10
-0.134164
20
0.659285
11
-0.140715
21
0.665836
0
LINE
8
BLACK
6
CONTINUOUS
10
-0.140715
20
0.665836
11
-0.146029
21
0.673425
0
LINE
8
BLACK
6
CONTINUOUS
10
-0.146029
20
0.673425
11
-0.149944
21
0.681822
0
LINE
8
BLACK
6
CONTINUOUS
10
-0.149944
20
0.681822
11
-0.152342
21
0.690771
0
LINE
8
BLACK
6
CONTINUOUS
10
-0.152342
20
0.690771
11
-0.15315
21
0.7
0
LINE
8
BLACK
6
CONTINUOUS
10
-0.15315
20
0.7
11
-0.152342
21
0.709229
0
LINE
8
BLACK
6
CONTINUOUS
10
-0.152342
20
0.709229
11
-0.149944
21
0.718178
0
LINE
8
BLACK
6
CONTINUOUS
10
-0.149944
20
0.718178
11
-0.146029
21
0.726575
0
LINE
8
BLACK
6
CONTINUOUS
10
-0.146029
20
0.726575
11
-0.140715
21
0.734164
0
LINE
8
BLACK
6
CONTINUOUS
10
-0.140715
20
0.734164
11
-0.134164
21
0.740715
0
LINE
8
BLACK
6
CONTINUOUS
10
-0.134164
20
0.740715
11
-0.126575
21
0.746029
0
LINE
8
BLACK
6
CONTINUOUS
10
-0.126575
20
0.746029
11
-0.118178
21
0.749944
0
LINE
8
BLACK
6
CONTINUOUS
10
-0.118178
20
0.749944
11
-0.109229
21
0.752342
0
LINE
8
BLACK
6
CONTINUOUS
10
-0.109229
20
0.752342
11
-0.1
21
0.75315
0
LINE
8
BLACK
6
CONTINUOUS
10
-0.1
20
0.75315
11
-0.0907707
21
0.752342
0
LINE
8
BLACK
6
CONTINUOUS
10
0.109229
20
0.752342
11
0.118178
21
0.749944
0
LINE
8
BLACK
6
CONTINUOUS
10
0.118178
20
0.749944
11
0.126575
21
0.746029
0
LINE
8
BLACK
6
CONTINUOUS
10
0.126575
20
0.746029
11
0.134164
21
0.740715
0
LINE
8
BLACK
6
CONTINUOUS
10
0.134164
20
0.740715
11
0.140715
21
0.734164
0
LINE
8
BLACK
6
CONTINUOUS
10
0.140715
20
0.734164
11
0.146029
21
0.726575
0
LINE
8
BLACK
6
CONTINUOUS
10
0.146029
20
0.726575
11
0.149944
21
0.718178
0
LINE
8
BLACK
6
CONTINUOUS
10
0.149944
20
0.718178
11
0.152342
21
0.709229
0
LINE
8
BLACK
6
CONTINUOUS
10
0.152342
20
0.709229
11
0.15315
21
0.7
0
LINE
8
BLACK
6
CONTINUOUS
10
0.15315
20
0.7
11
0.152342
21
0.690771
0
LINE
8
BLACK
6
CONTINUOUS
10
0.152342
20
0.690771
11
0.149944
21
0.681822
0
LINE
8
BLACK
6
CONTINUOUS
10
0.149944
20
0.681822
11
0.146029
21
0.673425
0
LINE
8
BLACK
6
CONTINUOUS
10
0.146029
20
0.673425
11
0.140715
21
0.665836
0
LINE
8
BLACK
6
CONTINUOUS
10
0.140715
20
0.665836
11
0.134164
21
0.659285
0
LINE
8
BLACK
6
CONTINUOUS
10
0.134164
20
0.659285
11
0.126575
21
0.653971
0
LINE
8
BLACK
6
CONTINUOUS
10
0.126575
20
0.653971
11
0.118178
21
0.650056
0
LINE
8
BLACK
6
CONTINUOUS
10
0.118178
20
0.650056
11
0.109229
21
0.647658
0
LINE
8
BLACK
6
CONTINUOUS
10
0.109229
20
0.647658
11
0.1
21
0.64685
0
LINE
8
BLACK
6
CONTINUOUS
10
0.1
20
0.64685
11
0.0907707
21
0.647658
0
LINE
8
BLACK
6
CONTINUOUS
10
0.0907707
20
0.647658
11
0.0818218
21
0.650056
0
LINE
8
BLACK
6
CONTINUOUS
10
0.0818218
20
0.650056
11
0.0734252
21
0.653971
0
LINE
8
BLACK
6
CONTINUOUS
10
0.0734252
20
0.653971
11
0.0658361
21
0.659285
0
LINE
8
BLACK
6
CONTINUOUS
10
0.0658361
20
0.659285
11
0.059285
21
0.665836
0
LINE
8
BLACK
6
CONTINUOUS
10
0.059285
20
0.665836
11
0.0539711
21
0.673425
0
LINE
8
BLACK
6
CONTINUOUS
10
0.0539711
20
0.673425
11
0.0500557
21
0.681822
0
LINE
8
BLACK
6
CONTINUOUS
10
0.0500557
20
0.681822
11
0.0476579
21
0.690771
0
LINE
8
BLACK
6
CONTINUOUS
10
0.0476579
20
0.690771
11
0.0468504
21
0.7
0
LINE
8
BLACK
6
CONTINUOUS
10
0.0468504
20
0.7
11
0.0476579
21
0.709229
0
LINE
8
BLACK
6
CONTINUOUS
10
0.0476579
20
0.709229
11
0.0500557
21
0.718178
0
LINE
8
BLACK
6
CONTINUOUS
10
0.0500557
20
0.718178
11
0.0539711
21
0.726575
0
LINE
8
BLACK
6
CONTINUOUS
10
0.0539711
20
0.726575
11
0.059285
21
0.734164
0
LINE
8
BLACK
6
CONTINUOUS
10
0.059285
20
0.734164
11
0.0658361
21
0.740715
0
LINE
8
BLACK
6
CONTINUOUS
10
0.0658361
20
0.740715
11
0.0734252
21
0.746029
0
LINE
8
BLACK
6
CONTINUOUS
10
0.0734252
20
0.746029
11
0.0818218
21
0.749944
0
LINE
8
BLACK
6
CONTINUOUS
10
0.0818218
20
0.749944
11
0.0907707
21
0.752342
0
LINE
8
BLACK
6
CONTINUOUS
10
0.0907707
20
0.752342
11
0.1
21
0.75315
0
LINE
8
BLACK
6
CONTINUOUS
10
0.1
20
0.75315
11
0.109229
21
0.752342
0
LINE
8
BLACK
6
CONTINUOUS
10
0.43
20
0.67
11
0.37
21
0.67
0
LINE
8
BLACK
6
CONTINUOUS
10
0.37
20
0.67
11
0.37
21
0.73
0
LINE
8
BLACK
6
CONTINUOUS
10
0.37
20
0.73
11
0.43
21
0.73
0
LINE
8
BLACK
6
CONTINUOUS
10
0.43
20
0.73
11
0.43
21
0.67
0
LINE
8
BLACK
6
CONTINUOUS
10
0.53
20
0.67
11
0.47
21
0.67
0
LINE
8
BLACK
6
CONTINUOUS
10
0.47
20
0.67
11
0.47
21
0.73
0
LINE
8
BLACK
6
CONTINUOUS
10
0.47
20
0.73
11
0.53
21
0.73
0
LINE
8
BLACK
6
CONTINUOUS
10
0.53
20
0.73
11
0.53
21
0.67
0
LINE
8
BLACK
6
CONTINUOUS
10
0.78
20
0.72
11
0.72
21
0.72
0
LINE
8
BLACK
6
CONTINUOUS
10
0.72
20
0.72
11
0.72
21
0.78
0
LINE
8
BLACK
6
CONTINUOUS
10
0.72
20
0.78
11
0.78
21
0.78
0
LINE
8
BLACK
6
CONTINUOUS
10
0.78
20
0.78
11
0.78
21
0.72
0
LINE
8
BLACK
6
CONTINUOUS
10
0.88
20
0.72
11
0.82
21
0.72
0
LINE
8
BLACK
6
CONTINUOUS
10
0.82
20
0.72
11
0.82
21
0.78
0
LINE
8
BLACK
6
CONTINUOUS
10
0.82
20
0.78
11
0.88
21
0.78
0
LINE
8
BLACK
6
CONTINUOUS
10
0.88
20
0.78
11
0.88
21
0.72
0
LINE
8
BLACK
6
CONTINUOUS
10
0.00854567
20
0.848465
11
0.0168317
21
0.846245
0
LINE
8
BLACK
6
CONTINUOUS
10
0.0168317
20
0.846245
11
0.0246063
21
0.842619
0
LINE
8
BLACK
6
CONTINUOUS
10
0.0246063
20
0.842619
11
0.0316333
21
0.837699
0
LINE
8
BLACK
6
CONTINUOUS
10
0.0316333
20
0.837699
11
0.0376991
21
0.831633
0
LINE
8
BLACK
6
CONTINUOUS
10
0.0376991
20
0.831633
11
0.0426194
21
0.824606
0
LINE
8
BLACK
6
CONTINUOUS
10
0.0426194
20
0.824606
11
0.0462447
21
0.816832
0
LINE
8
BLACK
6
CONTINUOUS
10
0.0462447
20
0.816832
11
0.048465
21
0.808546
0
LINE
8
BLACK
6
CONTINUOUS
10
0.048465
20
0.808546
11
0.0492126
21
0.8
0
LINE
8
BLACK
6
CONTINUOUS
10
0.0492126
20
0.8
11
0.048465
21
0.791454
0
LINE
8
BLACK
6
CONTINUOUS
10
0.048465
20
0.791454
11
0.0462447
21
0.783168
0
LINE
8
BLACK
6
CONTINUOUS
10
0.0462447
20
0.783168
11
0.0426194
21
0.775394
0
LINE
8
BLACK
6
CONTINUOUS
10
0.0426194
20
0.775394
11
0.0376991
21
0.768367
0
LINE
8
BLACK
6
CONTINUOUS
10
0.0376991
20
0.768367
11
0.0316333
21
0.762301
0
LINE
8
BLACK
6
CONTINUOUS
10
0.0316333
20
0.762301
11
0.0246063
21
0.757381
0
LINE
8
BLACK
6
CONTINUOUS
10
0.0246063
20
0.757381
11
0.0168317
21
0.753755
0
LINE
8
BLACK
6
CONTINUOUS
10
0.0168317
20
0.753755
11
0.00854567
21
0.751535
0
LINE
8
BLACK
6
CONTINUOUS
10
0.00854567
20
0.751535
11
0
21
0.750787
0
LINE
8
BLACK
6
CONTINUOUS
10
0
20
0.750787
11
-0.00854567
21
0.751535
0
LINE
8
BLACK
6
CONTINUOUS
10
-0.00854567
20
0.751535
11
-0.0168317
21
0.753755
0
LINE
8
BLACK
6
CONTINUOUS
10
-0.0168317
20
0.753755
11
-0.0246063
21
0.757381
0
LINE
8
BLACK
6
CONTINUOUS
10
-0.0246063
20
0.757381
11
-0.0316333
21
0.762301
0
LINE
8
BLACK
6
CONTINUOUS
10
-0.0316333
20
0.762301
11
-0.0376991
21
0.768367
0
LINE
8
BLACK
6
CONTINUOUS
10
-0.0376991
20
0.768367
11
-0.0426194
21
0.775394
0
LINE
8
BLACK
6
CONTINUOUS
10
-0.0426194
20
0.775394
11
-0.0462447
21
0.783168
0
LINE
8
BLACK
6
CONTINUOUS
10
-0.0462447
20
0.783168
11
-0.048465
21
0.791454
0
LINE
8
BLACK
6
CONTINUOUS
10
-0.048465
20
0.791454
11
-0.0492126
21
0.8
0
LINE
8
BLACK
6
CONTINUOUS
10
-0.0492126
20
0.8
11
-0.048465
21
0.808546
0
LINE
8
BLACK
6
CONTINUOUS
10
-0.048465
20
0.808546
11
-0.0462447
21
0.816832
0
LINE
8
BLACK
6
CONTINUOUS
10
-0.0462447
20
0.816832
11
-0.0426194
21
0.824606
0
LINE
8
BLACK
6
CONTINUOUS
10
-0.0426194
20
0.824606
11
-0.0376991
21
0.831633
0
LINE
8
BLACK
6
CONTINUOUS
10
-0.0376991
20
0.831633
11
-0.0316333
21
0.837699
0
LINE
8
BLACK
6
CONTINUOUS
10
-0.0316333
20
0.837699
11
-0.0246063
21
0.842619
0
LINE
8
BLACK
6
CONTINUOUS
10
-0.0246063
20
0.842619
11
-0.0168317
21
0.846245
0
LINE
8
BLACK
6
CONTINUOUS
10
-0.0168317
20
0.846245
11
-0.00854567
21
0.848465
0
LINE
8
BLACK
6
CONTINUOUS
10
-0.00854567
20
0.848465
11
0
21
0.849213
0
LINE
8
BLACK
6
CONTINUOUS
10
0
20
0.849213
11
0.00854567
21
0.848465
0
LINE
8
BLACK
6
CONTINUOUS
10
0.78
20
0.82
11
0.72
21
0.82
0
LINE
8
BLACK
6
CONTINUOUS
10
0.72
20
0.82
11
0.72
21
0.88
0
LINE
8
BLACK
6
CONTINUOUS
10
0.72
20
0.88
11
0.78
21
0.88
0
LINE
8
BLACK
6
CONTINUOUS
10
0.78
20
0.88
11
0.78
21
0.82
0
LINE
8
BLACK
6
CONTINUOUS
10
0.88
20
0.82
11
0.82
21
0.82
0
LINE
8
BLACK
6
CONTINUOUS
10
0.82
20
0.82
11
0.82
21
0.88
0
LINE
8
BLACK
6
CONTINUOUS
10
0.82
20
0.88
11
0.88
21
0.88
0
LINE
8
BLACK
6
CONTINUOUS
10
0.88
20
0.88
11
0.88
21
0.82
0
LINE
8
BLACK
6
CONTINUOUS
10
-0.0907707
20
0.952342
11
-0.0818218
21
0.949944
0
LINE
8
BLACK
6
CONTINUOUS
10
-0.0818218
20
0.949944
11
-0.0734252
21
0.946029
0
LINE
8
BLACK
6
CONTINUOUS
10
-0.0734252
20
0.946029
11
-0.0658361
21
0.940715
0
LINE
8
BLACK
6
CONTINUOUS
10
-0.0658361
20
0.940715
11
-0.059285
21
0.934164
0
LINE
8
BLACK
6
CONTINUOUS
10
-0.059285
20
0.934164
11
-0.0539711
21
0.926575
0
LINE
8
BLACK
6
CONTINUOUS
10
-0.0539711
20
0.926575
11
-0.0500557
21
0.918178
0
LINE
8
BLACK
6
CONTINUOUS
10
-0.0500557
20
0.918178
11
-0.0476579
21
0.909229
0
LINE
8
BLACK
6
CONTINUOUS
10
-0.0476579
20
0.909229
11
-0.0468504
21
0.9
0
LINE
8
BLACK
6
CONTINUOUS
10
-0.0468504
20
0.9
11
-0.0476579
21
0.890771
0
LINE
8
BLACK
6
CONTINUOUS
10
-0.0476579
20
0.890771
11
-0.0500557
21
0.881822
0
LINE
8
BLACK
6
CONTINUOUS
10
-0.0500557
20
0.881822
11
-0.0539711
21
0.873425
0
LINE
8
BLACK
6
CONTINUOUS
10
-0.0539711
20
0.873425
11
-0.059285
21
0.865836
0
LINE
8
BLACK
6
CONTINUOUS
10
-0.059285
20
0.865836
11
-0.0658361
21
0.859285
0
LINE
8
BLACK
6
CONTINUOUS
10
-0.0658361
20
0.859285
11
-0.0734252
21
0.853971
0
LINE
8
BLACK
6
CONTINUOUS
10
-0.0734252
20
0.853971
11
-0.0818218
21
0.850056
0
LINE
8
BLACK
6
CONTINUOUS
10
-0.0818218
20
0.850056
11
-0.0907707
21
0.847658
0
LINE
8
BLACK
6
CONTINUOUS
10
-0.0907707
20
0.847658
11
-0.1
21
0.84685
0
LINE
8
BLACK
6
CONTINUOUS
10
-0.1
20
0.84685
11
-0.109229
21
0.847658
0
LINE
8
BLACK
6
CONTINUOUS
10
-0.109229
20
0.847658
11
-0.118178
21
0.850056
0
LINE
8
BLACK
6
CONTINUOUS
10
-0.118178
20
0.850056
11
-0.126575
21
0.853971
0
LINE
8
BLACK
6
CONTINUOUS
10
-0.126575
20
0.853971
11
-0.134164
21
0.859285
0
LINE
8
BLACK
6
CONTINUOUS
10
-0.134164
20
0.859285
11
-0.140715
21
0.865836
0
LINE
8
BLACK
6
CONTINUOUS
10
-0.140715
20
0.865836
11
-0.146029
21
0.873425
0
LINE
8
BLACK
6
CONTINUOUS
10
-0.146029
20
0.873425
11
-0.149944
21
0.881822
0
LINE
8
BLACK
6
CONTINUOUS
10
-0.149944
20
0.881822
11
-0.152342
21
0.890771
0
LINE
8
BLACK
6
CONTINUOUS
10
-0.152342
20
0.890771
11
-0.15315
21
0.9
0
LINE
8
BLACK
6
CONTINUOUS
10
-0.15315
20
0.9
11
-0.152342
21
0.909229
0
LINE
8
BLACK
6
CONTINUOUS
10
-0.152342
20
0.909229
11
-0.149944
21
0.918178
0
LINE
8
BLACK
6
CONTINUOUS
10
-0.149944
20
0.918178
11
-0.146029
21
0.926575
0
LINE
8
BLACK
6
CONTINUOUS
10
-0.146029
20
0.926575
11
-0.140715
21
0.934164
0
LINE
8
BLACK
6
CONTINUOUS
10
-0.140715
20
0.934164
11
-0.134164
21
0.940715
0
LINE
8
BLACK
6
CONTINUOUS
10
-0.134164
20
0.940715
11
-0.126575
21
0.946029
0
LINE
8
BLACK
6
CONTINUOUS
10
-0.126575
20
0.946029
11
-0.118178
21
0.949944
0
LINE
8
BLACK
6
CONTINUOUS
10
-0.118178
20
0.949944
11
-0.109229
21
0.952342
0
LINE
8
BLACK
6
CONTINUOUS
10
-0.109229
20
0.952342
11
-0.1
21
0.95315
0
LINE
8
BLACK
6
CONTINUOUS
10
-0.1
20
0.95315
11
-0.0907707
21
0.952342
0
LINE
8
BLACK
6
CONTINUOUS
10
0.109229
20
0.952342
11
0.118178
21
0.949944
0
LINE
8
BLACK
6
CONTINUOUS
10
0.118178
20
0.949944
11
0.126575
21
0.946029
0
LINE
8
BLACK
6
CONTINUOUS
10
0.126575
20
0.946029
11
0.134164
21
0.940715
0
LINE
8
BLACK
6
CONTINUOUS
10
0.134164
20
0.940715
11
0.140715
21
0.934164
0
LINE
8
BLACK
6
CONTINUOUS
10
0.140715
20
0.934164
11
0.146029
21
0.926575
0
LINE
8
BLACK
6
CONTINUOUS
10
0.146029
20
0.926575
11
0.149944
21
0.918178
0
LINE
8
BLACK
6
CONTINUOUS
10
0.149944
20
0.918178
11
0.152342
21
0.909229
0
LINE
8
BLACK
6
CONTINUOUS
10
0.152342
20
0.909229
11
0.15315
21
0.9
0
LINE
8
BLACK
6
CONTINUOUS
10
0.15315
20
0.9
11
0.152342
21
0.890771
0
LINE
8
BLACK
6
CONTINUOUS
10
0.152342
20
0.890771
11
0.149944
21
0.881822
0
LINE
8
BLACK
6
CONTINUOUS
10
0.149944
20
0.881822
11
0.146029
21
0.873425
0
LINE
8
BLACK
6
CONTINUOUS
10
0.146029
20
0.873425
11
0.140715
21
0.865836
0
LINE
8
BLACK
6
CONTINUOUS
10
0.140715
20
0.865836
11
0.134164
21
0.859285
0
LINE
8
BLACK
6
CONTINUOUS
10
0.134164
20
0.859285
11
0.126575
21
0.853971
0
LINE
8
BLACK
6
CONTINUOUS
10
0.126575
20
0.853971
11
0.118178
21
0.850056
0
LINE
8
BLACK
6
CONTINUOUS
10
0.118178
20
0.850056
11
0.109229
21
0.847658
0
LINE
8
BLACK
6
CONTINUOUS
10
0.109229
20
0.847658
11
0.1
21
0.84685
0
LINE
8
BLACK
6
CONTINUOUS
10
0.1
20
0.84685
11
0.0907707
21
0.847658
0
LINE
8
BLACK
6
CONTINUOUS
10
0.0907707
20
0.847658
11
0.0818218
21
0.850056
0
LINE
8
BLACK
6
CONTINUOUS
10
0.0818218
20
0.850056
11
0.0734252
21
0.853971
0
LINE
8
BLACK
6
CONTINUOUS
10
0.0734252
20
0.853971
11
0.0658361
21
0.859285
0
LINE
8
BLACK
6
CONTINUOUS
10
0.0658361
20
0.859285
11
0.059285
21
0.865836
0
LINE
8
BLACK
6
CONTINUOUS
10
0.059285
20
0.865836
11
0.0539711
21
0.873425
0
LINE
8
BLACK
6
CONTINUOUS
10
0.0539711
20
0.873425
11
0.0500557
21
0.881822
0
LINE
8
BLACK
6
CONTINUOUS
10
0.0500557
20
0.881822
11
0.0476579
21
0.890771
0
LINE
8
BLACK
6
CONTINUOUS
10
0.0476579
20
0.890771
11
0.0468504
21
0.9
0
LINE
8
BLACK
6
CONTINUOUS
10
0.0468504
20
0.9
11
0.0476579
21
0.909229
0
LINE
8
BLACK
6
CONTINUOUS
10
0.0476579
20
0.909229
11
0.0500557
21
0.918178
0
LINE
8
BLACK
6
CONTINUOUS
10
0.0500557
20
0.918178
11
0.0539711
21
0.926575
0
LINE
8
BLACK
6
CONTINUOUS
10
0.0539711
20
0.926575
11
0.059285
21
0.934164
0
LINE
8
BLACK
6
CONTINUOUS
10
0.059285
20
0.934164
11
0.0658361
21
0.940715
0
LINE
8
BLACK
6
CONTINUOUS
10
0.0658361
20
0.940715
11
0.0734252
21
0.946029
0
LINE
8
BLACK
6
CONTINUOUS
10
0.0734252
20
0.946029
11
0.0818218
21
0.949944
0
LINE
8
BLACK
6
CONTINUOUS
10
0.0818218
20
0.949944
11
0.0907707
21
0.952342
0
LINE
8
BLACK
6
CONTINUOUS
10
0.0907707
20
0.952342
11
0.1
21
0.95315
0
LINE
8
BLACK
6
CONTINUOUS
10
0.1
20
0.95315
11
0.109229
21
0.952342
0
LINE
8
BLACK
6
CONTINUOUS
10
0.78
20
0.92
11
0.72
21
0.92
0
LINE
8
BLACK
6
CONTINUOUS
10
0.72
20
0.92
11
0.72
21
0.98
0
LINE
8
BLACK
6
CONTINUOUS
10
0.72
20
0.98
11
0.78
21
0.98
0
LINE
8
BLACK
6
CONTINUOUS
10
0.78
20
0.98
11
0.78
21
0.92
0
LINE
8
BLACK
6
CONTINUOUS
10
0.88
20
0.92
11
0.82
21
0.92
0
LINE
8
BLACK
6
CONTINUOUS
10
0.82
20
0.92
11
0.82
21
0.98
0
LINE
8
BLACK
6
CONTINUOUS
10
0.82
20
0.98
11
0.88
21
0.98
0
LINE
8
BLACK
6
CONTINUOUS
10
0.88
20
0.98
11
0.88
21
0.92
0
LINE
8
BLACK
6
CONTINUOUS
10
0.309229
20
1.15234
11
0.318178
21
1.14994
0
LINE
8
BLACK
6
CONTINUOUS
10
0.318178
20
1.14994
11
0.326575
21
1.14603
0
LINE
8
BLACK
6
CONTINUOUS
10
0.326575
20
1.14603
11
0.334164
21
1.14071
0
LINE
8
BLACK
6
CONTINUOUS
10
0.334164
20
1.14071
11
0.340715
21
1.13416
0
LINE
8
BLACK
6
CONTINUOUS
10
0.340715
20
1.13416
11
0.346029
21
1.12657
0
LINE
8
BLACK
6
CONTINUOUS
10
0.346029
20
1.12657
11
0.349944
21
1.11818
0
LINE
8
BLACK
6
CONTINUOUS
10
0.349944
20
1.11818
11
0.352342
21
1.10923
0
LINE
8
BLACK
6
CONTINUOUS
10
0.352342
20
1.10923
11
0.35315
21
1.1
0
LINE
8
BLACK
6
CONTINUOUS
10
0.35315
20
1.1
11
0.352342
21
1.09077
0
LINE
8
BLACK
6
CONTINUOUS
10
0.352342
20
1.09077
11
0.349944
21
1.08182
0
LINE
8
BLACK
6
CONTINUOUS
10
0.349944
20
1.08182
11
0.346029
21
1.07343
0
LINE
8
BLACK
6
CONTINUOUS
10
0.346029
20
1.07343
11
0.340715
21
1.06584
0
LINE
8
BLACK
6
CONTINUOUS
10
0.340715
20
1.06584
11
0.334164
21
1.05929
0
LINE
8
BLACK
6
CONTINUOUS
10
0.334164
20
1.05929
11
0.326575
21
1.05397
0
LINE
8
BLACK
6
CONTINUOUS
10
0.326575
20
1.05397
11
0.318178
21
1.05006
0
LINE
8
BLACK
6
CONTINUOUS
10
0.318178
20
1.05006
11
0.309229
21
1.04766
0
LINE
8
BLACK
6
CONTINUOUS
10
0.309229
20
1.04766
11
0.3
21
1.04685
0
LINE
8
BLACK
6
CONTINUOUS
10
0.3
20
1.04685
11
0.290771
21
1.04766
0
LINE
8
BLACK
6
CONTINUOUS
10
0.290771
20
1.04766
11
0.281822
21
1.05006
0
LINE
8
BLACK
6
CONTINUOUS
10
0.281822
20
1.05006
11
0.273425
21
1.05397
0
LINE
8
BLACK
6
CONTINUOUS
10
0.273425
20
1.05397
11
0.265836
21
1.05929
0
LINE
8
BLACK
6
CONTINUOUS
10
0.265836
20
1.05929
11
0.259285
21
1.06584
0
LINE
8
BLACK
6
CONTINUOUS
10
0.259285
20
1.06584
11
0.253971
21
1.07343
0
LINE
8
BLACK
6
CONTINUOUS
10
0.253971
20
1.07343
11
0.250056
21
1.08182
0
LINE
8
BLACK
6
CONTINUOUS
10
0.250056
20
1.08182
11
0.247658
21
1.09077
0
LINE
8
BLACK
6
CONTINUOUS
10
0.247658
20
1.09077
11
0.24685
21
1.1
0
LINE
8
BLACK
6
CONTINUOUS
10
0.24685
20
1.1
11
0.247658
21
1.10923
0
LINE
8
BLACK
6
CONTINUOUS
10
0.247658
20
1.10923
11
0.250056
21
1.11818
0
LINE
8
BLACK
6
CONTINUOUS
10
0.250056
20
1.11818
11
0.253971
21
1.12657
0
LINE
8
BLACK
6
CONTINUOUS
10
0.253971
20
1.12657
11
0.259285
21
1.13416
0
LINE
8
BLACK
6
CONTINUOUS
10
0.259285
20
1.13416
11
0.265836
21
1.14071
0
LINE
8
BLACK
6
CONTINUOUS
10
0.265836
20
1.14071
11
0.273425
21
1.14603
0
LINE
8
BLACK
6
CONTINUOUS
10
0.273425
20
1.14603
11
0.281822
21
1.14994
0
LINE
8
BLACK
6
CONTINUOUS
10
0.281822
20
1.14994
11
0.290771
21
1.15234
0
LINE
8
BLACK
6
CONTINUOUS
10
0.290771
20
1.15234
11
0.3
21
1.15315
0
LINE
8
BLACK
6
CONTINUOUS
10
0.3
20
1.15315
11
0.309229
21
1.15234
0
LINE
8
BLACK
6
CONTINUOUS
10
0.509229
20
1.15234
11
0.518178
21
1.14994
0
LINE
8
BLACK
6
CONTINUOUS
10
0.518178
20
1.14994
11
0.526575
21
1.14603
0
LINE
8
BLACK
6
CONTINUOUS
10
0.526575
20
1.14603
11
0.534164
21
1.14071
0
LINE
8
BLACK
6
CONTINUOUS
10
0.534164
20
1.14071
11
0.540715
21
1.13416
0
LINE
8
BLACK
6
CONTINUOUS
10
0.540715
20
1.13416
11
0.546029
21
1.12657
0
LINE
8
BLACK
6
CONTINUOUS
10
0.546029
20
1.12657
11
0.549944
21
1.11818
0
LINE
8
BLACK
6
CONTINUOUS
10
0.549944
20
1.11818
11
0.552342
21
1.10923
0
LINE
8
BLACK
6
CONTINUOUS
10
0.552342
20
1.10923
11
0.55315
21
1.1
0
LINE
8
BLACK
6
CONTINUOUS
10
0.55315
20
1.1
11
0.552342
21
1.09077
0
LINE
8
BLACK
6
CONTINUOUS
10
0.552342
20
1.09077
11
0.549944
21
1.08182
0
LINE
8
BLACK
6
CONTINUOUS
10
0.549944
20
1.08182
11
0.546029
21
1.07343
0
LINE
8
BLACK
6
CONTINUOUS
10
0.546029
20
1.07343
11
0.540715
21
1.06584
0
LINE
8
BLACK
6
CONTINUOUS
10
0.540715
20
1.06584
11
0.534164
21
1.05929
0
LINE
8
BLACK
6
CONTINUOUS
10
0.534164
20
1.05929
11
0.526575
21
1.05397
0
LINE
8
BLACK
6
CONTINUOUS
10
0.526575
20
1.05397
11
0.518178
21
1.05006
0
LINE
8
BLACK
6
CONTINUOUS
10
0.518178
20
1.05006
11
0.509229
21
1.04766
0
LINE
8
BLACK
6
CONTINUOUS
10
0.509229
20
1.04766
11
0.5
21
1.04685
0
LINE
8
BLACK
6
CONTINUOUS
10
0.5
20
1.04685
11
0.490771
21
1.04766
0
LINE
8
BLACK
6
CONTINUOUS
10
0.490771
20
1.04766
11
0.481822
21
1.05006
0
LINE
8
BLACK
6
CONTINUOUS
10
0.481822
20
1.05006
11
0.473425
21
1.05397
0
LINE
8
BLACK
6
CONTINUOUS
10
0.473425
20
1.05397
11
0.465836
21
1.05929
0
LINE
8
BLACK
6
CONTINUOUS
10
0.465836
20
1.05929
11
0.459285
21
1.06584
0
LINE
8
BLACK
6
CONTINUOUS
10
0.459285
20
1.06584
11
0.453971
21
1.07343
0
LINE
8
BLACK
6
CONTINUOUS
10
0.453971
20
1.07343
11
0.450056
21
1.08182
0
LINE
8
BLACK
6
CONTINUOUS
10
0.450056
20
1.08182
11
0.447658
21
1.09077
0
LINE
8
BLACK
6
CONTINUOUS
10
0.447658
20
1.09077
11
0.44685
21
1.1
0
LINE
8
BLACK
6
CONTINUOUS
10
0.44685
20
1.1
11
0.447658
21
1.10923
0
LINE
8
BLACK
6
CONTINUOUS
10
0.447658
20
1.10923
11
0.450056
21
1.11818
0
LINE
8
BLACK
6
CONTINUOUS
10
0.450056
20
1.11818
11
0.453971
21
1.12657
0
LINE
8
BLACK
6
CONTINUOUS
10
0.453971
20
1.12657
11
0.459285
21
1.13416
0
LINE
8
BLACK
6
CONTINUOUS
10
0.459285
20
1.13416
11
0.465836
21
1.14071
0
LINE
8
BLACK
6
CONTINUOUS
10
0.465836
20
1.14071
11
0.473425
21
1.14603
0
LINE
8
BLACK
6
CONTINUOUS
10
0.473425
20
1.14603
11
0.481822
21
1.14994
0
LINE
8
BLACK
6
CONTINUOUS
10
0.481822
20
1.14994
11
0.490771
21
1.15234
0
LINE
8
BLACK
6
CONTINUOUS
10
0.490771
20
1.15234
11
0.5
21
1.15315
0
LINE
8
BLACK
6
CONTINUOUS
10
0.5
20
1.15315
11
0.509229
21
1.15234
0
LINE
8
BLACK
6
CONTINUOUS
10
0.0205096
20
1.31632
11
0.0338744
21
1.31315
0
LINE
8
BLACK
6
CONTINUOUS
10
0.0338744
20
1.31315
11
0.0467811
21
1.30845
0
LINE
8
BLACK
6
CONTINUOUS
10
0.0467811
20
1.30845
11
0.0590551
21
1.30229
0
LINE
8
BLACK
6
CONTINUOUS
10
0.0590551
20
1.30229
11
0.0705306
21
1.29474
0
LINE
8
BLACK
6
CONTINUOUS
10
0.0705306
20
1.29474
11
0.0810522
21
1.28591
0
LINE
8
BLACK
6
CONTINUOUS
10
0.0810522
20
1.28591
11
0.0904777
21
1.27592
0
LINE
8
BLACK
6
CONTINUOUS
10
0.0904777
20
1.27592
11
0.0986796
21
1.2649
0
LINE
8
BLACK
6
CONTINUOUS
10
0.0986796
20
1.2649
11
0.105547
21
1.25301
0
LINE
8
BLACK
6
CONTINUOUS
10
0.105547
20
1.25301
11
0.110987
21
1.2404
0
LINE
8
BLACK
6
CONTINUOUS
10
0.110987
20
1.2404
11
0.114927
21
1.22724
0
LINE
8
BLACK
6
CONTINUOUS
10
0.114927
20
1.22724
11
0.117312
21
1.21371
0
LINE
8
BLACK
6
CONTINUOUS
10
0.117312
20
1.21371
11
0.11811
21
1.2
0
LINE
8
BLACK
6
CONTINUOUS
10
0.11811
20
1.2
11
0.117312
21
1.18629
0
LINE
8
BLACK
6
CONTINUOUS
10
0.117312
20
1.18629
11
0.114927
21
1.17276
0
LINE
8
BLACK
6
CONTINUOUS
10
0.114927
20
1.17276
11
0.110987
21
1.1596
0
LINE
8
BLACK
6
CONTINUOUS
10
0.110987
20
1.1596
11
0.105547
21
1.14699
0
LINE
8
BLACK
6
CONTINUOUS
10
0.105547
20
1.14699
11
0.0986796
21
1.1351
0
LINE
8
BLACK
6
CONTINUOUS
10
0.0986796
20
1.1351
11
0.0904777
21
1.12408
0
LINE
8
BLACK
6
CONTINUOUS
10
0.0904777
20
1.12408
11
0.0810522
21
1.11409
0
LINE
8
BLACK
6
CONTINUOUS
10
0.0810522
20
1.11409
11
0.0705306
21
1.10526
0
LINE
8
BLACK
6
CONTINUOUS
10
0.0705306
20
1.10526
11
0.0590551
21
1.09771
0
LINE
8
BLACK
6
CONTINUOUS
10
0.0590551
20
1.09771
11
0.0467811
21
1.09155
0
LINE
8
BLACK
6
CONTINUOUS
10
0.0467811
20
1.09155
11
0.0338744
21
1.08685
0
LINE
8
BLACK
6
CONTINUOUS
10
0.0338744
20
1.08685
11
0.0205096
21
1.08368
0
LINE
8
BLACK
6
CONTINUOUS
10
0.0205096
20
1.08368
11
0.00686748
21
1.08209
0
LINE
8
BLACK
6
CONTINUOUS
10
0.00686748
20
1.08209
11
-0.00686748
21
1.08209
0
LINE
8
BLACK
6
CONTINUOUS
10
-0.00686748
20
1.08209
11
-0.0205096
21
1.08368
0
LINE
8
BLACK
6
CONTINUOUS
10
-0.0205096
20
1.08368
11
-0.0338744
21
1.08685
0
LINE
8
BLACK
6
CONTINUOUS
10
-0.0338744
20
1.08685
11
-0.0467811
21
1.09155
0
LINE
8
BLACK
6
CONTINUOUS
10
-0.0467811
20
1.09155
11
-0.0590551
21
1.09771
0
LINE
8
BLACK
6
CONTINUOUS
10
-0.0590551
20
1.09771
11
-0.0705306
21
1.10526
0
LINE
8
BLACK
6
CONTINUOUS
10
-0.0705306
20
1.10526
11
-0.0810522
21
1.11409
0
LINE
8
BLACK
6
CONTINUOUS
10
-0.0810522
20
1.11409
11
-0.0904777
21
1.12408
0
LINE
8
BLACK
6
CONTINUOUS
10
-0.0904777
20
1.12408
11
-0.0986796
21
1.1351
0
LINE
8
BLACK
6
CONTINUOUS
10
-0.0986796
20
1.1351
11
-0.105547
21
1.14699
0
LINE
8
BLACK
6
CONTINUOUS
10
-0.105547
20
1.14699
11
-0.110987
21
1.1596
0
LINE
8
BLACK
6
CONTINUOUS
10
-0.110987
20
1.1596
11
-0.114927
21
1.17276
0
LINE
8
BLACK
6
CONTINUOUS
10
-0.114927
20
1.17276
11
-0.117312
21
1.18629
0
LINE
8
BLACK
6
CONTINUOUS
10
-0.117312
20
1.18629
11
-0.11811
21
1.2
0
LINE
8
BLACK
6
CONTINUOUS
10
-0.11811
20
1.2
11
-0.117312
21
1.21371
0
LINE
8
BLACK
6
CONTINUOUS
10
-0.117312
20
1.21371
11
-0.114927
21
1.22724
0
LINE
8
BLACK
6
CONTINUOUS
10
-0.114927
20
1.22724
11
-0.110987
21
1.2404
0
LINE
8
BLACK
6
CONTINUOUS
10
-0.110987
20
1.2404
11
-0.105547
21
1.25301
0
LINE
8
BLACK
6
CONTINUOUS
10
-0.105547
20
1.25301
11
-0.0986796
21
1.2649
0
LINE
8
BLACK
6
CONTINUOUS
10
-0.0986796
20
1.2649
11
-0.0904777
21
1.27592
0
LINE
8
BLACK
6
CONTINUOUS
10
-0.0904777
20
1.27592
11
-0.0810522
21
1.28591
0
LINE
8
BLACK
6
CONTINUOUS
10
-0.0810522
20
1.28591
11
-0.0705306
21
1.29474
0
LINE
8
BLACK
6
CONTINUOUS
10
-0.0705306
20
1.29474
11
-0.0590551
21
1.30229
0
LINE
8
BLACK
6
CONTINUOUS
10
-0.0590551
20
1.30229
11
-0.0467811
21
1.30845
0
LINE
8
BLACK
6
CONTINUOUS
10
-0.0467811
20
1.30845
11
-0.0338744
21
1.31315
0
LINE
8
BLACK
6
CONTINUOUS
10
-0.0338744
20
1.31315
11
-0.0205096
21
1.31632
0
LINE
8
BLACK
6
CONTINUOUS
10
-0.0205096
20
1.31632
11
-0.00686748
21
1.31791
0
LINE
8
BLACK
6
CONTINUOUS
10
-0.00686748
20
1.31791
11
0.00686748
21
1.31791
0
LINE
8
BLACK
6
CONTINUOUS
10
0.00686748
20
1.31791
11
0.0205096
21
1.31632
0
LINE
8
BLACK
6
CONTINUOUS
10
0.82051
20
1.31632
11
0.833874
21
1.31315
0
LINE
8
BLACK
6
CONTINUOUS
10
0.833874
20
1.31315
11
0.846781
21
1.30845
0
LINE
8
BLACK
6
CONTINUOUS
10
0.846781
20
1.30845
11
0.859055
21
1.30229
0
LINE
8
BLACK
6
CONTINUOUS
10
0.859055
20
1.30229
11
0.870531
21
1.29474
0
LINE
8
BLACK
6
CONTINUOUS
10
0.870531
20
1.29474
11
0.881052
21
1.28591
0
LINE
8
BLACK
6
CONTINUOUS
10
0.881052
20
1.28591
11
0.890478
21
1.27592
0
LINE
8
BLACK
6
CONTINUOUS
10
0.890478
20
1.27592
11
0.89868
21
1.2649
0
LINE
8
BLACK
6
CONTINUOUS
10
0.89868
20
1.2649
11
0.905547
21
1.25301
0
LINE
8
BLACK
6
CONTINUOUS
10
0.905547
20
1.25301
11
0.910987
21
1.2404
0
LINE
8
BLACK
6
CONTINUOUS
10
0.910987
20
1.2404
11
0.914927
21
1.22724
0
LINE
8
BLACK
6
CONTINUOUS
10
0.914927
20
1.22724
11
0.917312
21
1.21371
0
LINE
8
BLACK
6
CONTINUOUS
10
0.917312
20
1.21371
11
0.91811
21
1.2
0
LINE
8
BLACK
6
CONTINUOUS
10
0.91811
20
1.2
11
0.917312
21
1.18629
0
LINE
8
BLACK
6
CONTINUOUS
10
0.917312
20
1.18629
11
0.914927
21
1.17276
0
LINE
8
BLACK
6
CONTINUOUS
10
0.914927
20
1.17276
11
0.910987
21
1.1596
0
LINE
8
BLACK
6
CONTINUOUS
10
0.910987
20
1.1596
11
0.905547
21
1.14699
0
LINE
8
BLACK
6
CONTINUOUS
10
0.905547
20
1.14699
11
0.89868
21
1.1351
0
LINE
8
BLACK
6
CONTINUOUS
10
0.89868
20
1.1351
11
0.890478
21
1.12408
0
LINE
8
BLACK
6
CONTINUOUS
10
0.890478
20
1.12408
11
0.881052
21
1.11409
0
LINE
8
BLACK
6
CONTINUOUS
10
0.881052
20
1.11409
11
0.870531
21
1.10526
0
LINE
8
BLACK
6
CONTINUOUS
10
0.870531
20
1.10526
11
0.859055
21
1.09771
0
LINE
8
BLACK
6
CONTINUOUS
10
0.859055
20
1.09771
11
0.846781
21
1.09155
0
LINE
8
BLACK
6
CONTINUOUS
10
0.846781
20
1.09155
11
0.833874
21
1.08685
0
LINE
8
BLACK
6
CONTINUOUS
10
0.833874
20
1.08685
11
0.82051
21
1.08368
0
LINE
8
BLACK
6
CONTINUOUS
10
0.82051
20
1.08368
11
0.806867
21
1.08209
0
LINE
8
BLACK
6
CONTINUOUS
10
0.806867
20
1.08209
11
0.793133
21
1.08209
0
LINE
8
BLACK
6
CONTINUOUS
10
0.793133
20
1.08209
11
0.77949
21
1.08368
0
LINE
8
BLACK
6
CONTINUOUS
10
0.77949
20
1.08368
11
0.766126
21
1.08685
0
LINE
8
BLACK
6
CONTINUOUS
10
0.766126
20
1.08685
11
0.753219
21
1.09155
0
LINE
8
BLACK
6
CONTINUOUS
10
0.753219
20
1.09155
11
0.740945
21
1.09771
0
LINE
8
BLACK
6
CONTINUOUS
10
0.740945
20
1.09771
11
0.729469
21
1.10526
0
LINE
8
BLACK
6
CONTINUOUS
10
0.729469
20
1.10526
11
0.718948
21
1.11409
0
LINE
8
BLACK
6
CONTINUOUS
10
0.718948
20
1.11409
11
0.709522
21
1.12408
0
LINE
8
BLACK
6
CONTINUOUS
10
0.709522
20
1.12408
11
0.70132
21
1.1351
0
LINE
8
BLACK
6
CONTINUOUS
10
0.70132
20
1.1351
11
0.694453
21
1.14699
0
LINE
8
BLACK
6
CONTINUOUS
10
0.694453
20
1.14699
11
0.689013
21
1.1596
0
LINE
8
BLACK
6
CONTINUOUS
10
0.689013
20
1.1596
11
0.685073
21
1.17276
0
LINE
8
BLACK
6
CONTINUOUS
10
0.685073
20
1.17276
11
0.682688
21
1.18629
0
LINE
8
BLACK
6
CONTINUOUS
10
0.682688
20
1.18629
11
0.68189
21
1.2
0
LINE
8
BLACK
6
CONTINUOUS
10
0.68189
20
1.2
11
0.682688
21
1.21371
0
LINE
8
BLACK
6
CONTINUOUS
10
0.682688
20
1.21371
11
0.685073
21
1.22724
0
LINE
8
BLACK
6
CONTINUOUS
10
0.685073
20
1.22724
11
0.689013
21
1.2404
0
LINE
8
BLACK
6
CONTINUOUS
10
0.689013
20
1.2404
11
0.694453
21
1.25301
0
LINE
8
BLACK
6
CONTINUOUS
10
0.694453
20
1.25301
11
0.70132
21
1.2649
0
LINE
8
BLACK
6
CONTINUOUS
10
0.70132
20
1.2649
11
0.709522
21
1.27592
0
LINE
8
BLACK
6
CONTINUOUS
10
0.709522
20
1.27592
11
0.718948
21
1.28591
0
LINE
8
BLACK
6
CONTINUOUS
10
0.718948
20
1.28591
11
0.729469
21
1.29474
0
LINE
8
BLACK
6
CONTINUOUS
10
0.729469
20
1.29474
11
0.740945
21
1.30229
0
LINE
8
BLACK
6
CONTINUOUS
10
0.740945
20
1.30229
11
0.753219
21
1.30845
0
LINE
8
BLACK
6
CONTINUOUS
10
0.753219
20
1.30845
11
0.766126
21
1.31315
0
LINE
8
BLACK
6
CONTINUOUS
10
0.766126
20
1.31315
11
0.77949
21
1.31632
0
LINE
8
BLACK
6
CONTINUOUS
10
0.77949
20
1.31632
11
0.793133
21
1.31791
0
LINE
8
BLACK
6
CONTINUOUS
10
0.793133
20
1.31791
11
0.806867
21
1.31791
0
LINE
8
BLACK
6
CONTINUOUS
10
0.806867
20
1.31791
11
0.82051
21
1.31632
0
LINE
8
BLACK
6
CONTINUOUS
10
0.408546
20
1.24846
11
0.416832
21
1.24624
0
LINE
8
BLACK
6
CONTINUOUS
10
0.416832
20
1.24624
11
0.424606
21
1.24262
0
LINE
8
BLACK
6
CONTINUOUS
10
0.424606
20
1.24262
11
0.431633
21
1.2377
0
LINE
8
BLACK
6
CONTINUOUS
10
0.431633
20
1.2377
11
0.437699
21
1.23163
0
LINE
8
BLACK
6
CONTINUOUS
10
0.437699
20
1.23163
11
0.442619
21
1.22461
0
LINE
8
BLACK
6
CONTINUOUS
10
0.442619
20
1.22461
11
0.446245
21
1.21683
0
LINE
8
BLACK
6
CONTINUOUS
10
0.446245
20
1.21683
11
0.448465
21
1.20855
0
LINE
8
BLACK
6
CONTINUOUS
10
0.448465
20
1.20855
11
0.449213
21
1.2
0
LINE
8
BLACK
6
CONTINUOUS
10
0.449213
20
1.2
11
0.448465
21
1.19145
0
LINE
8
BLACK
6
CONTINUOUS
10
0.448465
20
1.19145
11
0.446245
21
1.18317
0
LINE
8
BLACK
6
CONTINUOUS
10
0.446245
20
1.18317
11
0.442619
21
1.17539
0
LINE
8
BLACK
6
CONTINUOUS
10
0.442619
20
1.17539
11
0.437699
21
1.16837
0
LINE
8
BLACK
6
CONTINUOUS
10
0.437699
20
1.16837
11
0.431633
21
1.1623
0
LINE
8
BLACK
6
CONTINUOUS
10
0.431633
20
1.1623
11
0.424606
21
1.15738
0
LINE
8
BLACK
6
CONTINUOUS
10
0.424606
20
1.15738
11
0.416832
21
1.15376
0
LINE
8
BLACK
6
CONTINUOUS
10
0.416832
20
1.15376
11
0.408546
21
1.15154
0
LINE
8
BLACK
6
CONTINUOUS
10
0.408546
20
1.15154
11
0.4
21
1.15079
0
LINE
8
BLACK
6
CONTINUOUS
10
0.4
20
1.15079
11
0.391454
21
1.15154
0
LINE
8
BLACK
6
CONTINUOUS
10
0.391454
20
1.15154
11
0.383168
21
1.15376
0
LINE
8
BLACK
6
CONTINUOUS
10
0.383168
20
1.15376
11
0.375394
21
1.15738
0
LINE
8
BLACK
6
CONTINUOUS
10
0.375394
20
1.15738
11
0.368367
21
1.1623
0
LINE
8
BLACK
6
CONTINUOUS
10
0.368367
20
1.1623
11
0.362301
21
1.16837
0
LINE
8
BLACK
6
CONTINUOUS
10
0.362301
20
1.16837
11
0.357381
21
1.17539
0
LINE
8
BLACK
6
CONTINUOUS
10
0.357381
20
1.17539
11
0.353755
21
1.18317
0
LINE
8
BLACK
6
CONTINUOUS
10
0.353755
20
1.18317
11
0.351535
21
1.19145
0
LINE
8
BLACK
6
CONTINUOUS
10
0.351535
20
1.19145
11
0.350787
21
1.2
0
LINE
8
BLACK
6
CONTINUOUS
10
0.350787
20
1.2
11
0.351535
21
1.20855
0
LINE
8
BLACK
6
CONTINUOUS
10
0.351535
20
1.20855
11
0.353755
21
1.21683
0
LINE
8
BLACK
6
CONTINUOUS
10
0.353755
20
1.21683
11
0.357381
21
1.22461
0
LINE
8
BLACK
6
CONTINUOUS
10
0.357381
20
1.22461
11
0.362301
21
1.23163
0
LINE
8
BLACK
6
CONTINUOUS
10
0.362301
20
1.23163
11
0.368367
21
1.2377
0
LINE
8
BLACK
6
CONTINUOUS
10
0.368367
20
1.2377
11
0.375394
21
1.24262
0
LINE
8
BLACK
6
CONTINUOUS
10
0.375394
20
1.24262
11
0.383168
21
1.24624
0
LINE
8
BLACK
6
CONTINUOUS
10
0.383168
20
1.24624
11
0.391454
21
1.24846
0
LINE
8
BLACK
6
CONTINUOUS
10
0.391454
20
1.24846
11
0.4
21
1.24921
0
LINE
8
BLACK
6
CONTINUOUS
10
0.4
20
1.24921
11
0.408546
21
1.24846
0
LINE
8
BLACK
6
CONTINUOUS
10
0.309229
20
1.35234
11
0.318178
21
1.34994
0
LINE
8
BLACK
6
CONTINUOUS
10
0.318178
20
1.34994
11
0.326575
21
1.34603
0
LINE
8
BLACK
6
CONTINUOUS
10
0.326575
20
1.34603
11
0.334164
21
1.34071
0
LINE
8
BLACK
6
CONTINUOUS
10
0.334164
20
1.34071
11
0.340715
21
1.33416
0
LINE
8
BLACK
6
CONTINUOUS
10
0.340715
20
1.33416
11
0.346029
21
1.32657
0
LINE
8
BLACK
6
CONTINUOUS
10
0.346029
20
1.32657
11
0.349944
21
1.31818
0
LINE
8
BLACK
6
CONTINUOUS
10
0.349944
20
1.31818
11
0.352342
21
1.30923
0
LINE
8
BLACK
6
CONTINUOUS
10
0.352342
20
1.30923
11
0.35315
21
1.3
0
LINE
8
BLACK
6
CONTINUOUS
10
0.35315
20
1.3
11
0.352342
21
1.29077
0
LINE
8
BLACK
6
CONTINUOUS
10
0.352342
20
1.29077
11
0.349944
21
1.28182
0
LINE
8
BLACK
6
CONTINUOUS
10
0.349944
20
1.28182
11
0.346029
21
1.27343
0
LINE
8
BLACK
6
CONTINUOUS
10
0.346029
20
1.27343
11
0.340715
21
1.26584
0
LINE
8
BLACK
6
CONTINUOUS
10
0.340715
20
1.26584
11
0.334164
21
1.25929
0
LINE
8
BLACK
6
CONTINUOUS
10
0.334164
20
1.25929
11
0.326575
21
1.25397
0
LINE
8
BLACK
6
CONTINUOUS
10
0.326575
20
1.25397
11
0.318178
21
1.25006
0
LINE
8
BLACK
6
CONTINUOUS
10
0.318178
20
1.25006
11
0.309229
21
1.24766
0
LINE
8
BLACK
6
CONTINUOUS
10
0.309229
20
1.24766
11
0.3
21
1.24685
0
LINE
8
BLACK
6
CONTINUOUS
10
0.3
20
1.24685
11
0.290771
21
1.24766
0
LINE
8
BLACK
6
CONTINUOUS
10
0.290771
20
1.24766
11
0.281822
21
1.25006
0
LINE
8
BLACK
6
CONTINUOUS
10
0.281822
20
1.25006
11
0.273425
21
1.25397
0
LINE
8
BLACK
6
CONTINUOUS
10
0.273425
20
1.25397
11
0.265836
21
1.25929
0
LINE
8
BLACK
6
CONTINUOUS
10
0.265836
20
1.25929
11
0.259285
21
1.26584
0
LINE
8
BLACK
6
CONTINUOUS
10
0.259285
20
1.26584
11
0.253971
21
1.27343
0
LINE
8
BLACK
6
CONTINUOUS
10
0.253971
20
1.27343
11
0.250056
21
1.28182
0
LINE
8
BLACK
6
CONTINUOUS
10
0.250056
20
1.28182
11
0.247658
21
1.29077
0
LINE
8
BLACK
6
CONTINUOUS
10
0.247658
20
1.29077
11
0.24685
21
1.3
0
LINE
8
BLACK
6
CONTINUOUS
10
0.24685
20
1.3
11
0.247658
21
1.30923
0
LINE
8
BLACK
6
CONTINUOUS
10
0.247658
20
1.30923
11
0.250056
21
1.31818
0
LINE
8
BLACK
6
CONTINUOUS
10
0.250056
20
1.31818
11
0.253971
21
1.32657
0
LINE
8
BLACK
6
CONTINUOUS
10
0.253971
20
1.32657
11
0.259285
21
1.33416
0
LINE
8
BLACK
6
CONTINUOUS
10
0.259285
20
1.33416
11
0.265836
21
1.34071
0
LINE
8
BLACK
6
CONTINUOUS
10
0.265836
20
1.34071
11
0.273425
21
1.34603
0
LINE
8
BLACK
6
CONTINUOUS
10
0.273425
20
1.34603
11
0.281822
21
1.34994
0
LINE
8
BLACK
6
CONTINUOUS
10
0.281822
20
1.34994
11
0.290771
21
1.35234
0
LINE
8
BLACK
6
CONTINUOUS
10
0.290771
20
1.35234
11
0.3
21
1.35315
0
LINE
8
BLACK
6
CONTINUOUS
10
0.3
20
1.35315
11
0.309229
21
1.35234
0
LINE
8
BLACK
6
CONTINUOUS
10
0.509229
20
1.35234
11
0.518178
21
1.34994
0
LINE
8
BLACK
6
CONTINUOUS
10
0.518178
20
1.34994
11
0.526575
21
1.34603
0
LINE
8
BLACK
6
CONTINUOUS
10
0.526575
20
1.34603
11
0.534164
21
1.34071
0
LINE
8
BLACK
6
CONTINUOUS
10
0.534164
20
1.34071
11
0.540715
21
1.33416
0
LINE
8
BLACK
6
CONTINUOUS
10
0.540715
20
1.33416
11
0.546029
21
1.32657
0
LINE
8
BLACK
6
CONTINUOUS
10
0.546029
20
1.32657
11
0.549944
21
1.31818
0
LINE
8
BLACK
6
CONTINUOUS
10
0.549944
20
1.31818
11
0.552342
21
1.30923
0
LINE
8
BLACK
6
CONTINUOUS
10
0.552342
20
1.30923
11
0.55315
21
1.3
0
LINE
8
BLACK
6
CONTINUOUS
10
0.55315
20
1.3
11
0.552342
21
1.29077
0
LINE
8
BLACK
6
CONTINUOUS
10
0.552342
20
1.29077
11
0.549944
21
1.28182
0
LINE
8
BLACK
6
CONTINUOUS
10
0.549944
20
1.28182
11
0.546029
21
1.27343
0
LINE
8
BLACK
6
CONTINUOUS
10
0.546029
20
1.27343
11
0.540715
21
1.26584
0
LINE
8
BLACK
6
CONTINUOUS
10
0.540715
20
1.26584
11
0.534164
21
1.25929
0
LINE
8
BLACK
6
CONTINUOUS
10
0.534164
20
1.25929
11
0.526575
21
1.25397
0
LINE
8
BLACK
6
CONTINUOUS
10
0.526575
20
1.25397
11
0.518178
21
1.25006
0
LINE
8
BLACK
6
CONTINUOUS
10
0.518178
20
1.25006
11
0.509229
21
1.24766
0
LINE
8
BLACK
6
CONTINUOUS
10
0.509229
20
1.24766
11
0.5
21
1.24685
0
LINE
8
BLACK
6
CONTINUOUS
10
0.5
20
1.24685
11
0.490771
21
1.24766
0
LINE
8
BLACK
6
CONTINUOUS
10
0.490771
20
1.24766
11
0.481822
21
1.25006
0
LINE
8
BLACK
6
CONTINUOUS
10
0.481822
20
1.25006
11
0.473425
21
1.25397
0
LINE
8
BLACK
6
CONTINUOUS
10
0.473425
20
1.25397
11
0.465836
21
1.25929
0
LINE
8
BLACK
6
CONTINUOUS
10
0.465836
20
1.25929
11
0.459285
21
1.26584
0
LINE
8
BLACK
6
CONTINUOUS
10
0.459285
20
1.26584
11
0.453971
21
1.27343
0
LINE
8
BLACK
6
CONTINUOUS
10
0.453971
20
1.27343
11
0.450056
21
1.28182
0
LINE
8
BLACK
6
CONTINUOUS
10
0.450056
20
1.28182
11
0.447658
21
1.29077
0
LINE
8
BLACK
6
CONTINUOUS
10
0.447658
20
1.29077
11
0.44685
21
1.3
0
LINE
8
BLACK
6
CONTINUOUS
10
0.44685
20
1.3
11
0.447658
21
1.30923
0
LINE
8
BLACK
6
CONTINUOUS
10
0.447658
20
1.30923
11
0.450056
21
1.31818
0
LINE
8
BLACK
6
CONTINUOUS
10
0.450056
20
1.31818
11
0.453971
21
1.32657
0
LINE
8
BLACK
6
CONTINUOUS
10
0.453971
20
1.32657
11
0.459285
21
1.33416
0
LINE
8
BLACK
6
CONTINUOUS
10
0.459285
20
1.33416
11
0.465836
21
1.34071
0
LINE
8
BLACK
6
CONTINUOUS
10
0.465836
20
1.34071
11
0.473425
21
1.34603
0
LINE
8
BLACK
6
CONTINUOUS
10
0.473425
20
1.34603
11
0.481822
21
1.34994
0
LINE
8
BLACK
6
CONTINUOUS
10
0.481822
20
1.34994
11
0.490771
21
1.35234
0
LINE
8
BLACK
6
CONTINUOUS
10
0.490771
20
1.35234
11
0.5
21
1.35315
0
LINE
8
BLACK
6
CONTINUOUS
10
0.5
20
1.35315
11
0.509229
21
1.35234
  0
ENDSEC
  0
EOF
