  0
SECTION
  2
HEADER
  9
$ANGBASE
  50
0.0
  9
$ANGDIR
  70
1
  9
$MEASUREMENT
  70
0
  0
ENDSEC
  0
SECTION
  2
TABLES
  0
TABLE
  2
LTYPE
  70
4
  0
LTYPE
  5
40F
  2
CONTINUOUS
  70
0
  3
Solid line
  72
65
  73
0
  40
0.0
  0
LTYPE
  5
410
  2
DASHDOT
 70
0
  3
Dash Dot ____ _ ____ _
 72
65
 73
4
 40
2.0
 49
1.25
 49
-0.25
 49
0.25
 49
-0.25
  0
LTYPE
  5
411
  2
DASHED
 70
0
  3
Dashed __ __ __ __ __
 72
65
 73
2
 40
0.75
 49
0.5
 49
-0.25
  0
LTYPE
  5
43B
  2
DOTTED
 70
0
  3
Dotted .  .  .  .
 72
65
 73
2
 40
0.2
 49
0.0
 49
-0.2
  0
ENDTAB
  0
TABLE
  2
STYLE
  70
4
  0
STYLE
  2
KICAD
  70
0
  40
0
  41
1
  42
1
  50
0
  71
0
  3
isocp.shx
  0
STYLE
  2
KICADB
  70
0
  40
0
  41
1
  42
1
  50
0
  71
0
  3
isocp.shx
  0
STYLE
  2
KICADI
  70
0
  40
0
  41
1
  42
1
  50
15
  71
0
  3
isocp.shx
  0
STYLE
  2
KICADBI
  70
0
  40
0
  41
1
  42
1
  50
15
  71
0
  3
isocp.shx
  0
ENDTAB
  0
TABLE
  2
LAYER
  70
1
  0
LAYER
  2
BLACK
  70
0
  62
7
  6
CONTINUOUS
  0
ENDTAB
  0
ENDSEC
  0
SECTION
  2
ENTITIES
0
LINE
8
BLACK
6
CONTINUOUS
10
0.44101
20
-0.134021
11
0.442557
21
-0.135319
0
LINE
8
BLACK
6
CONTINUOUS
10
0.442557
20
-0.135319
11
0.442908
21
-0.137308
0
LINE
8
BLACK
6
CONTINUOUS
10
0.442908
20
-0.137308
11
0.441898
21
-0.139057
0
LINE
8
BLACK
6
CONTINUOUS
10
0.441898
20
-0.139057
11
0.44
21
-0.139748
0
LINE
8
BLACK
6
CONTINUOUS
10
0.44
20
-0.139748
11
0.36
21
-0.139748
0
LINE
8
BLACK
6
CONTINUOUS
10
0.36
20
-0.139748
11
0.35899
21
-0.13957
0
LINE
8
BLACK
6
CONTINUOUS
10
0.35899
20
-0.13957
11
0.357443
21
-0.138272
0
LINE
8
BLACK
6
CONTINUOUS
10
0.357443
20
-0.138272
11
0.357092
21
-0.136283
0
LINE
8
BLACK
6
CONTINUOUS
10
0.357092
20
-0.136283
11
0.358102
21
-0.134533
0
LINE
8
BLACK
6
CONTINUOUS
10
0.358102
20
-0.134533
11
0.36
21
-0.133843
0
LINE
8
BLACK
6
CONTINUOUS
10
0.36
20
-0.133843
11
0.44
21
-0.133843
0
LINE
8
BLACK
6
CONTINUOUS
10
0.44
20
-0.133843
11
0.44101
21
-0.134021
0
LINE
8
BLACK
6
CONTINUOUS
10
0.264467
20
0.041898
11
0.265157
21
0.04
0
LINE
8
BLACK
6
CONTINUOUS
10
0.265157
20
0.04
11
0.265157
21
-0.04
0
LINE
8
BLACK
6
CONTINUOUS
10
0.265157
20
-0.04
11
0.264979
21
-0.0410099
0
LINE
8
BLACK
6
CONTINUOUS
10
0.264979
20
-0.0410099
11
0.263681
21
-0.0425572
0
LINE
8
BLACK
6
CONTINUOUS
10
0.263681
20
-0.0425572
11
0.261692
21
-0.0429079
0
LINE
8
BLACK
6
CONTINUOUS
10
0.261692
20
-0.0429079
11
0.259943
21
-0.041898
0
LINE
8
BLACK
6
CONTINUOUS
10
0.259943
20
-0.041898
11
0.259252
21
-0.04
0
LINE
8
BLACK
6
CONTINUOUS
10
0.259252
20
-0.04
11
0.259252
21
0.04
0
LINE
8
BLACK
6
CONTINUOUS
10
0.259252
20
0.04
11
0.25943
21
0.0410099
0
LINE
8
BLACK
6
CONTINUOUS
10
0.25943
20
0.0410099
11
0.260728
21
0.0425572
0
LINE
8
BLACK
6
CONTINUOUS
10
0.260728
20
0.0425572
11
0.262717
21
0.0429079
0
LINE
8
BLACK
6
CONTINUOUS
10
0.262717
20
0.0429079
11
0.264467
21
0.041898
0
LINE
8
BLACK
6
CONTINUOUS
10
0.540057
20
0.041898
11
0.540748
21
0.04
0
LINE
8
BLACK
6
CONTINUOUS
10
0.540748
20
0.04
11
0.540748
21
-0.04
0
LINE
8
BLACK
6
CONTINUOUS
10
0.540748
20
-0.04
11
0.54057
21
-0.0410099
0
LINE
8
BLACK
6
CONTINUOUS
10
0.54057
20
-0.0410099
11
0.539272
21
-0.0425572
0
LINE
8
BLACK
6
CONTINUOUS
10
0.539272
20
-0.0425572
11
0.537283
21
-0.0429079
0
LINE
8
BLACK
6
CONTINUOUS
10
0.537283
20
-0.0429079
11
0.535533
21
-0.041898
0
LINE
8
BLACK
6
CONTINUOUS
10
0.535533
20
-0.041898
11
0.534843
21
-0.04
0
LINE
8
BLACK
6
CONTINUOUS
10
0.534843
20
-0.04
11
0.534843
21
0.04
0
LINE
8
BLACK
6
CONTINUOUS
10
0.534843
20
0.04
11
0.535021
21
0.0410099
0
LINE
8
BLACK
6
CONTINUOUS
10
0.535021
20
0.0410099
11
0.536319
21
0.0425572
0
LINE
8
BLACK
6
CONTINUOUS
10
0.536319
20
0.0425572
11
0.538308
21
0.0429079
0
LINE
8
BLACK
6
CONTINUOUS
10
0.538308
20
0.0429079
11
0.540057
21
0.041898
0
LINE
8
BLACK
6
CONTINUOUS
10
0.44101
20
0.14057
11
0.442557
21
0.139272
0
LINE
8
BLACK
6
CONTINUOUS
10
0.442557
20
0.139272
11
0.442908
21
0.137283
0
LINE
8
BLACK
6
CONTINUOUS
10
0.442908
20
0.137283
11
0.441898
21
0.135533
0
LINE
8
BLACK
6
CONTINUOUS
10
0.441898
20
0.135533
11
0.44
21
0.134843
0
LINE
8
BLACK
6
CONTINUOUS
10
0.44
20
0.134843
11
0.36
21
0.134843
0
LINE
8
BLACK
6
CONTINUOUS
10
0.36
20
0.134843
11
0.35899
21
0.135021
0
LINE
8
BLACK
6
CONTINUOUS
10
0.35899
20
0.135021
11
0.357443
21
0.136319
0
LINE
8
BLACK
6
CONTINUOUS
10
0.357443
20
0.136319
11
0.357092
21
0.138308
0
LINE
8
BLACK
6
CONTINUOUS
10
0.357092
20
0.138308
11
0.358102
21
0.140057
0
LINE
8
BLACK
6
CONTINUOUS
10
0.358102
20
0.140057
11
0.36
21
0.140748
0
LINE
8
BLACK
6
CONTINUOUS
10
0.36
20
0.140748
11
0.44
21
0.140748
0
LINE
8
BLACK
6
CONTINUOUS
10
0.44
20
0.140748
11
0.44101
21
0.14057
0
LINE
8
BLACK
6
CONTINUOUS
10
0.902885
20
0.199616
11
0.902908
21
0.199487
0
LINE
8
BLACK
6
CONTINUOUS
10
0.902908
20
0.199487
11
0.902842
21
0.199374
0
LINE
8
BLACK
6
CONTINUOUS
10
0.902842
20
0.199374
11
0.902775
21
0.19899
0
LINE
8
BLACK
6
CONTINUOUS
10
0.902775
20
0.19899
11
0.902282
21
0.198402
0
LINE
8
BLACK
6
CONTINUOUS
10
0.902282
20
0.198402
11
0.901898
21
0.197738
0
LINE
8
BLACK
6
CONTINUOUS
10
0.901898
20
0.197738
11
0.901648
21
0.197647
0
LINE
8
BLACK
6
CONTINUOUS
10
0.901648
20
0.197647
11
0.901476
21
0.197443
0
LINE
8
BLACK
6
CONTINUOUS
10
0.901476
20
0.197443
11
0.900721
21
0.19731
0
LINE
8
BLACK
6
CONTINUOUS
10
0.900721
20
0.19731
11
0.9
21
0.197047
0
LINE
8
BLACK
6
CONTINUOUS
10
0.9
20
0.197047
11
0.7
21
0.197047
0
LINE
8
BLACK
6
CONTINUOUS
10
0.7
20
0.197047
11
0.699616
21
0.197115
0
LINE
8
BLACK
6
CONTINUOUS
10
0.699616
20
0.197115
11
0.699487
21
0.197092
0
LINE
8
BLACK
6
CONTINUOUS
10
0.699487
20
0.197092
11
0.699374
21
0.197158
0
LINE
8
BLACK
6
CONTINUOUS
10
0.699374
20
0.197158
11
0.69899
21
0.197225
0
LINE
8
BLACK
6
CONTINUOUS
10
0.69899
20
0.197225
11
0.698402
21
0.197718
0
LINE
8
BLACK
6
CONTINUOUS
10
0.698402
20
0.197718
11
0.697738
21
0.198102
0
LINE
8
BLACK
6
CONTINUOUS
10
0.697738
20
0.198102
11
0.697647
21
0.198352
0
LINE
8
BLACK
6
CONTINUOUS
10
0.697647
20
0.198352
11
0.697443
21
0.198524
0
LINE
8
BLACK
6
CONTINUOUS
10
0.697443
20
0.198524
11
0.69731
21
0.199279
0
LINE
8
BLACK
6
CONTINUOUS
10
0.69731
20
0.199279
11
0.697047
21
0.2
0
LINE
8
BLACK
6
CONTINUOUS
10
0.697047
20
0.2
11
0.697047
21
1
0
LINE
8
BLACK
6
CONTINUOUS
10
0.697047
20
1
11
0.697115
21
1.00038
0
LINE
8
BLACK
6
CONTINUOUS
10
0.697115
20
1.00038
11
0.697092
21
1.00051
0
LINE
8
BLACK
6
CONTINUOUS
10
0.697092
20
1.00051
11
0.697158
21
1.00063
0
LINE
8
BLACK
6
CONTINUOUS
10
0.697158
20
1.00063
11
0.697225
21
1.00101
0
LINE
8
BLACK
6
CONTINUOUS
10
0.697225
20
1.00101
11
0.697718
21
1.0016
0
LINE
8
BLACK
6
CONTINUOUS
10
0.697718
20
1.0016
11
0.698102
21
1.00226
0
LINE
8
BLACK
6
CONTINUOUS
10
0.698102
20
1.00226
11
0.698352
21
1.00235
0
LINE
8
BLACK
6
CONTINUOUS
10
0.698352
20
1.00235
11
0.698524
21
1.00256
0
LINE
8
BLACK
6
CONTINUOUS
10
0.698524
20
1.00256
11
0.699279
21
1.00269
0
LINE
8
BLACK
6
CONTINUOUS
10
0.699279
20
1.00269
11
0.7
21
1.00295
0
LINE
8
BLACK
6
CONTINUOUS
10
0.7
20
1.00295
11
0.9
21
1.00295
0
LINE
8
BLACK
6
CONTINUOUS
10
0.9
20
1.00295
11
0.900384
21
1.00289
0
LINE
8
BLACK
6
CONTINUOUS
10
0.900384
20
1.00289
11
0.900513
21
1.00291
0
LINE
8
BLACK
6
CONTINUOUS
10
0.900513
20
1.00291
11
0.900626
21
1.00284
0
LINE
8
BLACK
6
CONTINUOUS
10
0.900626
20
1.00284
11
0.90101
21
1.00277
0
LINE
8
BLACK
6
CONTINUOUS
10
0.90101
20
1.00277
11
0.901598
21
1.00228
0
LINE
8
BLACK
6
CONTINUOUS
10
0.901598
20
1.00228
11
0.902262
21
1.0019
0
LINE
8
BLACK
6
CONTINUOUS
10
0.902262
20
1.0019
11
0.902353
21
1.00165
0
LINE
8
BLACK
6
CONTINUOUS
10
0.902353
20
1.00165
11
0.902557
21
1.00148
0
LINE
8
BLACK
6
CONTINUOUS
10
0.902557
20
1.00148
11
0.90269
21
1.00072
0
LINE
8
BLACK
6
CONTINUOUS
10
0.90269
20
1.00072
11
0.902953
21
1
0
LINE
8
BLACK
6
CONTINUOUS
10
0.902953
20
1
11
0.902953
21
0.2
0
LINE
8
BLACK
6
CONTINUOUS
10
0.902953
20
0.2
11
0.902885
21
0.199616
0
LINE
8
BLACK
6
CONTINUOUS
10
0.702953
20
0.597047
11
0.702953
21
0.202953
0
LINE
8
BLACK
6
CONTINUOUS
10
0.702953
20
0.202953
11
0.897047
21
0.202953
0
LINE
8
BLACK
6
CONTINUOUS
10
0.897047
20
0.202953
11
0.897047
21
0.597047
0
LINE
8
BLACK
6
CONTINUOUS
10
0.897047
20
0.597047
11
0.702953
21
0.597047
0
LINE
8
BLACK
6
CONTINUOUS
10
0.702953
20
0.997047
11
0.702953
21
0.602953
0
LINE
8
BLACK
6
CONTINUOUS
10
0.702953
20
0.602953
11
0.897047
21
0.602953
0
LINE
8
BLACK
6
CONTINUOUS
10
0.897047
20
0.602953
11
0.897047
21
0.997047
0
LINE
8
BLACK
6
CONTINUOUS
10
0.897047
20
0.997047
11
0.702953
21
0.997047
0
LINE
8
BLACK
6
CONTINUOUS
10
0.78
20
0.22
11
0.72
21
0.22
0
LINE
8
BLACK
6
CONTINUOUS
10
0.72
20
0.22
11
0.72
21
0.28
0
LINE
8
BLACK
6
CONTINUOUS
10
0.72
20
0.28
11
0.78
21
0.28
0
LINE
8
BLACK
6
CONTINUOUS
10
0.78
20
0.28
11
0.78
21
0.22
0
LINE
8
BLACK
6
CONTINUOUS
10
0.88
20
0.22
11
0.82
21
0.22
0
LINE
8
BLACK
6
CONTINUOUS
10
0.82
20
0.22
11
0.82
21
0.28
0
LINE
8
BLACK
6
CONTINUOUS
10
0.82
20
0.28
11
0.88
21
0.28
0
LINE
8
BLACK
6
CONTINUOUS
10
0.88
20
0.28
11
0.88
21
0.22
0
LINE
8
BLACK
6
CONTINUOUS
10
0.88
20
0.32
11
0.82
21
0.32
0
LINE
8
BLACK
6
CONTINUOUS
10
0.82
20
0.32
11
0.82
21
0.38
0
LINE
8
BLACK
6
CONTINUOUS
10
0.82
20
0.38
11
0.88
21
0.38
0
LINE
8
BLACK
6
CONTINUOUS
10
0.88
20
0.38
11
0.88
21
0.32
0
LINE
8
BLACK
6
CONTINUOUS
10
0.78
20
0.32
11
0.72
21
0.32
0
LINE
8
BLACK
6
CONTINUOUS
10
0.72
20
0.32
11
0.72
21
0.38
0
LINE
8
BLACK
6
CONTINUOUS
10
0.72
20
0.38
11
0.78
21
0.38
0
LINE
8
BLACK
6
CONTINUOUS
10
0.78
20
0.38
11
0.78
21
0.32
0
LINE
8
BLACK
6
CONTINUOUS
10
0.88
20
0.42
11
0.82
21
0.42
0
LINE
8
BLACK
6
CONTINUOUS
10
0.82
20
0.42
11
0.82
21
0.48
0
LINE
8
BLACK
6
CONTINUOUS
10
0.82
20
0.48
11
0.88
21
0.48
0
LINE
8
BLACK
6
CONTINUOUS
10
0.88
20
0.48
11
0.88
21
0.42
0
LINE
8
BLACK
6
CONTINUOUS
10
0.78
20
0.42
11
0.72
21
0.42
0
LINE
8
BLACK
6
CONTINUOUS
10
0.72
20
0.42
11
0.72
21
0.48
0
LINE
8
BLACK
6
CONTINUOUS
10
0.72
20
0.48
11
0.78
21
0.48
0
LINE
8
BLACK
6
CONTINUOUS
10
0.78
20
0.48
11
0.78
21
0.42
0
LINE
8
BLACK
6
CONTINUOUS
10
0.78
20
0.52
11
0.72
21
0.52
0
LINE
8
BLACK
6
CONTINUOUS
10
0.72
20
0.52
11
0.72
21
0.58
0
LINE
8
BLACK
6
CONTINUOUS
10
0.72
20
0.58
11
0.78
21
0.58
0
LINE
8
BLACK
6
CONTINUOUS
10
0.78
20
0.58
11
0.78
21
0.52
0
LINE
8
BLACK
6
CONTINUOUS
10
0.88
20
0.52
11
0.82
21
0.52
0
LINE
8
BLACK
6
CONTINUOUS
10
0.82
20
0.52
11
0.82
21
0.58
0
LINE
8
BLACK
6
CONTINUOUS
10
0.82
20
0.58
11
0.88
21
0.58
0
LINE
8
BLACK
6
CONTINUOUS
10
0.88
20
0.58
11
0.88
21
0.52
0
LINE
8
BLACK
6
CONTINUOUS
10
0.78
20
0.62
11
0.72
21
0.62
0
LINE
8
BLACK
6
CONTINUOUS
10
0.72
20
0.62
11
0.72
21
0.68
0
LINE
8
BLACK
6
CONTINUOUS
10
0.72
20
0.68
11
0.78
21
0.68
0
LINE
8
BLACK
6
CONTINUOUS
10
0.78
20
0.68
11
0.78
21
0.62
0
LINE
8
BLACK
6
CONTINUOUS
10
0.88
20
0.62
11
0.82
21
0.62
0
LINE
8
BLACK
6
CONTINUOUS
10
0.82
20
0.62
11
0.82
21
0.68
0
LINE
8
BLACK
6
CONTINUOUS
10
0.82
20
0.68
11
0.88
21
0.68
0
LINE
8
BLACK
6
CONTINUOUS
10
0.88
20
0.68
11
0.88
21
0.62
0
LINE
8
BLACK
6
CONTINUOUS
10
0.78
20
0.72
11
0.72
21
0.72
0
LINE
8
BLACK
6
CONTINUOUS
10
0.72
20
0.72
11
0.72
21
0.78
0
LINE
8
BLACK
6
CONTINUOUS
10
0.72
20
0.78
11
0.78
21
0.78
0
LINE
8
BLACK
6
CONTINUOUS
10
0.78
20
0.78
11
0.78
21
0.72
0
LINE
8
BLACK
6
CONTINUOUS
10
0.88
20
0.72
11
0.82
21
0.72
0
LINE
8
BLACK
6
CONTINUOUS
10
0.82
20
0.72
11
0.82
21
0.78
0
LINE
8
BLACK
6
CONTINUOUS
10
0.82
20
0.78
11
0.88
21
0.78
0
LINE
8
BLACK
6
CONTINUOUS
10
0.88
20
0.78
11
0.88
21
0.72
0
LINE
8
BLACK
6
CONTINUOUS
10
0.78
20
0.82
11
0.72
21
0.82
0
LINE
8
BLACK
6
CONTINUOUS
10
0.72
20
0.82
11
0.72
21
0.88
0
LINE
8
BLACK
6
CONTINUOUS
10
0.72
20
0.88
11
0.78
21
0.88
0
LINE
8
BLACK
6
CONTINUOUS
10
0.78
20
0.88
11
0.78
21
0.82
0
LINE
8
BLACK
6
CONTINUOUS
10
0.88
20
0.82
11
0.82
21
0.82
0
LINE
8
BLACK
6
CONTINUOUS
10
0.82
20
0.82
11
0.82
21
0.88
0
LINE
8
BLACK
6
CONTINUOUS
10
0.82
20
0.88
11
0.88
21
0.88
0
LINE
8
BLACK
6
CONTINUOUS
10
0.88
20
0.88
11
0.88
21
0.82
0
LINE
8
BLACK
6
CONTINUOUS
10
0.88
20
0.92
11
0.82
21
0.92
0
LINE
8
BLACK
6
CONTINUOUS
10
0.82
20
0.92
11
0.82
21
0.98
0
LINE
8
BLACK
6
CONTINUOUS
10
0.82
20
0.98
11
0.88
21
0.98
0
LINE
8
BLACK
6
CONTINUOUS
10
0.88
20
0.98
11
0.88
21
0.92
0
LINE
8
BLACK
6
CONTINUOUS
10
0.78
20
0.92
11
0.72
21
0.92
0
LINE
8
BLACK
6
CONTINUOUS
10
0.72
20
0.92
11
0.72
21
0.98
0
LINE
8
BLACK
6
CONTINUOUS
10
0.72
20
0.98
11
0.78
21
0.98
0
LINE
8
BLACK
6
CONTINUOUS
10
0.78
20
0.98
11
0.78
21
0.92
0
LINE
8
BLACK
6
CONTINUOUS
10
0.0410099
20
0.265979
11
0.0425572
21
0.264681
0
LINE
8
BLACK
6
CONTINUOUS
10
0.0425572
20
0.264681
11
0.0429079
21
0.262692
0
LINE
8
BLACK
6
CONTINUOUS
10
0.0429079
20
0.262692
11
0.041898
21
0.260943
0
LINE
8
BLACK
6
CONTINUOUS
10
0.041898
20
0.260943
11
0.04
21
0.260252
0
LINE
8
BLACK
6
CONTINUOUS
10
0.04
20
0.260252
11
-0.04
21
0.260252
0
LINE
8
BLACK
6
CONTINUOUS
10
-0.04
20
0.260252
11
-0.0410099
21
0.26043
0
LINE
8
BLACK
6
CONTINUOUS
10
-0.0410099
20
0.26043
11
-0.0425572
21
0.261728
0
LINE
8
BLACK
6
CONTINUOUS
10
-0.0425572
20
0.261728
11
-0.0429079
21
0.263717
0
LINE
8
BLACK
6
CONTINUOUS
10
-0.0429079
20
0.263717
11
-0.041898
21
0.265467
0
LINE
8
BLACK
6
CONTINUOUS
10
-0.041898
20
0.265467
11
-0.04
21
0.266157
0
LINE
8
BLACK
6
CONTINUOUS
10
-0.04
20
0.266157
11
0.04
21
0.266157
0
LINE
8
BLACK
6
CONTINUOUS
10
0.04
20
0.266157
11
0.0410099
21
0.265979
0
LINE
8
BLACK
6
CONTINUOUS
10
0.140057
20
0.441898
11
0.140748
21
0.44
0
LINE
8
BLACK
6
CONTINUOUS
10
0.140748
20
0.44
11
0.140748
21
0.36
0
LINE
8
BLACK
6
CONTINUOUS
10
0.140748
20
0.36
11
0.14057
21
0.35899
0
LINE
8
BLACK
6
CONTINUOUS
10
0.14057
20
0.35899
11
0.139272
21
0.357443
0
LINE
8
BLACK
6
CONTINUOUS
10
0.139272
20
0.357443
11
0.137283
21
0.357092
0
LINE
8
BLACK
6
CONTINUOUS
10
0.137283
20
0.357092
11
0.135533
21
0.358102
0
LINE
8
BLACK
6
CONTINUOUS
10
0.135533
20
0.358102
11
0.134843
21
0.36
0
LINE
8
BLACK
6
CONTINUOUS
10
0.134843
20
0.36
11
0.134843
21
0.44
0
LINE
8
BLACK
6
CONTINUOUS
10
0.134843
20
0.44
11
0.135021
21
0.44101
0
LINE
8
BLACK
6
CONTINUOUS
10
0.135021
20
0.44101
11
0.136319
21
0.442557
0
LINE
8
BLACK
6
CONTINUOUS
10
0.136319
20
0.442557
11
0.138308
21
0.442908
0
LINE
8
BLACK
6
CONTINUOUS
10
0.138308
20
0.442908
11
0.140057
21
0.441898
0
LINE
8
BLACK
6
CONTINUOUS
10
-0.135533
20
0.441898
11
-0.134843
21
0.44
0
LINE
8
BLACK
6
CONTINUOUS
10
-0.134843
20
0.44
11
-0.134843
21
0.36
0
LINE
8
BLACK
6
CONTINUOUS
10
-0.134843
20
0.36
11
-0.135021
21
0.35899
0
LINE
8
BLACK
6
CONTINUOUS
10
-0.135021
20
0.35899
11
-0.136319
21
0.357443
0
LINE
8
BLACK
6
CONTINUOUS
10
-0.136319
20
0.357443
11
-0.138308
21
0.357092
0
LINE
8
BLACK
6
CONTINUOUS
10
-0.138308
20
0.357092
11
-0.140057
21
0.358102
0
LINE
8
BLACK
6
CONTINUOUS
10
-0.140057
20
0.358102
11
-0.140748
21
0.36
0
LINE
8
BLACK
6
CONTINUOUS
10
-0.140748
20
0.36
11
-0.140748
21
0.44
0
LINE
8
BLACK
6
CONTINUOUS
10
-0.140748
20
0.44
11
-0.14057
21
0.44101
0
LINE
8
BLACK
6
CONTINUOUS
10
-0.14057
20
0.44101
11
-0.139272
21
0.442557
0
LINE
8
BLACK
6
CONTINUOUS
10
-0.139272
20
0.442557
11
-0.137283
21
0.442908
0
LINE
8
BLACK
6
CONTINUOUS
10
-0.137283
20
0.442908
11
-0.135533
21
0.441898
0
LINE
8
BLACK
6
CONTINUOUS
10
0.550384
20
0.752885
11
0.550513
21
0.752908
0
LINE
8
BLACK
6
CONTINUOUS
10
0.550513
20
0.752908
11
0.550626
21
0.752842
0
LINE
8
BLACK
6
CONTINUOUS
10
0.550626
20
0.752842
11
0.55101
21
0.752775
0
LINE
8
BLACK
6
CONTINUOUS
10
0.55101
20
0.752775
11
0.551598
21
0.752282
0
LINE
8
BLACK
6
CONTINUOUS
10
0.551598
20
0.752282
11
0.552262
21
0.751898
0
LINE
8
BLACK
6
CONTINUOUS
10
0.552262
20
0.751898
11
0.552353
21
0.751648
0
LINE
8
BLACK
6
CONTINUOUS
10
0.552353
20
0.751648
11
0.552557
21
0.751476
0
LINE
8
BLACK
6
CONTINUOUS
10
0.552557
20
0.751476
11
0.55269
21
0.750721
0
LINE
8
BLACK
6
CONTINUOUS
10
0.55269
20
0.750721
11
0.552953
21
0.75
0
LINE
8
BLACK
6
CONTINUOUS
10
0.552953
20
0.75
11
0.552953
21
0.45
0
LINE
8
BLACK
6
CONTINUOUS
10
0.552953
20
0.45
11
0.552885
21
0.449616
0
LINE
8
BLACK
6
CONTINUOUS
10
0.552885
20
0.449616
11
0.552908
21
0.449487
0
LINE
8
BLACK
6
CONTINUOUS
10
0.552908
20
0.449487
11
0.552842
21
0.449374
0
LINE
8
BLACK
6
CONTINUOUS
10
0.552842
20
0.449374
11
0.552775
21
0.44899
0
LINE
8
BLACK
6
CONTINUOUS
10
0.552775
20
0.44899
11
0.552282
21
0.448402
0
LINE
8
BLACK
6
CONTINUOUS
10
0.552282
20
0.448402
11
0.551898
21
0.447738
0
LINE
8
BLACK
6
CONTINUOUS
10
0.551898
20
0.447738
11
0.551648
21
0.447647
0
LINE
8
BLACK
6
CONTINUOUS
10
0.551648
20
0.447647
11
0.551476
21
0.447443
0
LINE
8
BLACK
6
CONTINUOUS
10
0.551476
20
0.447443
11
0.550721
21
0.44731
0
LINE
8
BLACK
6
CONTINUOUS
10
0.550721
20
0.44731
11
0.55
21
0.447047
0
LINE
8
BLACK
6
CONTINUOUS
10
0.55
20
0.447047
11
0.35
21
0.447047
0
LINE
8
BLACK
6
CONTINUOUS
10
0.35
20
0.447047
11
0.349616
21
0.447115
0
LINE
8
BLACK
6
CONTINUOUS
10
0.349616
20
0.447115
11
0.349487
21
0.447092
0
LINE
8
BLACK
6
CONTINUOUS
10
0.349487
20
0.447092
11
0.349374
21
0.447158
0
LINE
8
BLACK
6
CONTINUOUS
10
0.349374
20
0.447158
11
0.34899
21
0.447225
0
LINE
8
BLACK
6
CONTINUOUS
10
0.34899
20
0.447225
11
0.348402
21
0.447718
0
LINE
8
BLACK
6
CONTINUOUS
10
0.348402
20
0.447718
11
0.347738
21
0.448102
0
LINE
8
BLACK
6
CONTINUOUS
10
0.347738
20
0.448102
11
0.347647
21
0.448352
0
LINE
8
BLACK
6
CONTINUOUS
10
0.347647
20
0.448352
11
0.347443
21
0.448524
0
LINE
8
BLACK
6
CONTINUOUS
10
0.347443
20
0.448524
11
0.34731
21
0.449279
0
LINE
8
BLACK
6
CONTINUOUS
10
0.34731
20
0.449279
11
0.347047
21
0.45
0
LINE
8
BLACK
6
CONTINUOUS
10
0.347047
20
0.45
11
0.347047
21
0.75
0
LINE
8
BLACK
6
CONTINUOUS
10
0.347047
20
0.75
11
0.347115
21
0.750384
0
LINE
8
BLACK
6
CONTINUOUS
10
0.347115
20
0.750384
11
0.347092
21
0.750513
0
LINE
8
BLACK
6
CONTINUOUS
10
0.347092
20
0.750513
11
0.347158
21
0.750626
0
LINE
8
BLACK
6
CONTINUOUS
10
0.347158
20
0.750626
11
0.347225
21
0.75101
0
LINE
8
BLACK
6
CONTINUOUS
10
0.347225
20
0.75101
11
0.347718
21
0.751598
0
LINE
8
BLACK
6
CONTINUOUS
10
0.347718
20
0.751598
11
0.348102
21
0.752262
0
LINE
8
BLACK
6
CONTINUOUS
10
0.348102
20
0.752262
11
0.348352
21
0.752353
0
LINE
8
BLACK
6
CONTINUOUS
10
0.348352
20
0.752353
11
0.348524
21
0.752557
0
LINE
8
BLACK
6
CONTINUOUS
10
0.348524
20
0.752557
11
0.349279
21
0.75269
0
LINE
8
BLACK
6
CONTINUOUS
10
0.349279
20
0.75269
11
0.35
21
0.752953
0
LINE
8
BLACK
6
CONTINUOUS
10
0.35
20
0.752953
11
0.55
21
0.752953
0
LINE
8
BLACK
6
CONTINUOUS
10
0.55
20
0.752953
11
0.550384
21
0.752885
0
LINE
8
BLACK
6
CONTINUOUS
10
0.352953
20
0.747047
11
0.352953
21
0.452953
0
LINE
8
BLACK
6
CONTINUOUS
10
0.352953
20
0.452953
11
0.547047
21
0.452953
0
LINE
8
BLACK
6
CONTINUOUS
10
0.547047
20
0.452953
11
0.547047
21
0.747047
0
LINE
8
BLACK
6
CONTINUOUS
10
0.547047
20
0.747047
11
0.352953
21
0.747047
0
LINE
8
BLACK
6
CONTINUOUS
10
0.0410099
20
0.54057
11
0.0425572
21
0.539272
0
LINE
8
BLACK
6
CONTINUOUS
10
0.0425572
20
0.539272
11
0.0429079
21
0.537283
0
LINE
8
BLACK
6
CONTINUOUS
10
0.0429079
20
0.537283
11
0.041898
21
0.535533
0
LINE
8
BLACK
6
CONTINUOUS
10
0.041898
20
0.535533
11
0.04
21
0.534843
0
LINE
8
BLACK
6
CONTINUOUS
10
0.04
20
0.534843
11
-0.04
21
0.534843
0
LINE
8
BLACK
6
CONTINUOUS
10
-0.04
20
0.534843
11
-0.0410099
21
0.535021
0
LINE
8
BLACK
6
CONTINUOUS
10
-0.0410099
20
0.535021
11
-0.0425572
21
0.536319
0
LINE
8
BLACK
6
CONTINUOUS
10
-0.0425572
20
0.536319
11
-0.0429079
21
0.538308
0
LINE
8
BLACK
6
CONTINUOUS
10
-0.0429079
20
0.538308
11
-0.041898
21
0.540057
0
LINE
8
BLACK
6
CONTINUOUS
10
-0.041898
20
0.540057
11
-0.04
21
0.540748
0
LINE
8
BLACK
6
CONTINUOUS
10
-0.04
20
0.540748
11
0.04
21
0.540748
0
LINE
8
BLACK
6
CONTINUOUS
10
0.04
20
0.540748
11
0.0410099
21
0.54057
0
LINE
8
BLACK
6
CONTINUOUS
10
0.0410099
20
0.665979
11
0.0425572
21
0.664681
0
LINE
8
BLACK
6
CONTINUOUS
10
0.0425572
20
0.664681
11
0.0429079
21
0.662692
0
LINE
8
BLACK
6
CONTINUOUS
10
0.0429079
20
0.662692
11
0.041898
21
0.660943
0
LINE
8
BLACK
6
CONTINUOUS
10
0.041898
20
0.660943
11
0.04
21
0.660252
0
LINE
8
BLACK
6
CONTINUOUS
10
0.04
20
0.660252
11
-0.04
21
0.660252
0
LINE
8
BLACK
6
CONTINUOUS
10
-0.04
20
0.660252
11
-0.0410099
21
0.66043
0
LINE
8
BLACK
6
CONTINUOUS
10
-0.0410099
20
0.66043
11
-0.0425572
21
0.661728
0
LINE
8
BLACK
6
CONTINUOUS
10
-0.0425572
20
0.661728
11
-0.0429079
21
0.663717
0
LINE
8
BLACK
6
CONTINUOUS
10
-0.0429079
20
0.663717
11
-0.041898
21
0.665467
0
LINE
8
BLACK
6
CONTINUOUS
10
-0.041898
20
0.665467
11
-0.04
21
0.666157
0
LINE
8
BLACK
6
CONTINUOUS
10
-0.04
20
0.666157
11
0.04
21
0.666157
0
LINE
8
BLACK
6
CONTINUOUS
10
0.04
20
0.666157
11
0.0410099
21
0.665979
0
LINE
8
BLACK
6
CONTINUOUS
10
0.140057
20
0.841898
11
0.140748
21
0.84
0
LINE
8
BLACK
6
CONTINUOUS
10
0.140748
20
0.84
11
0.140748
21
0.76
0
LINE
8
BLACK
6
CONTINUOUS
10
0.140748
20
0.76
11
0.14057
21
0.75899
0
LINE
8
BLACK
6
CONTINUOUS
10
0.14057
20
0.75899
11
0.139272
21
0.757443
0
LINE
8
BLACK
6
CONTINUOUS
10
0.139272
20
0.757443
11
0.137283
21
0.757092
0
LINE
8
BLACK
6
CONTINUOUS
10
0.137283
20
0.757092
11
0.135533
21
0.758102
0
LINE
8
BLACK
6
CONTINUOUS
10
0.135533
20
0.758102
11
0.134843
21
0.76
0
LINE
8
BLACK
6
CONTINUOUS
10
0.134843
20
0.76
11
0.134843
21
0.84
0
LINE
8
BLACK
6
CONTINUOUS
10
0.134843
20
0.84
11
0.135021
21
0.84101
0
LINE
8
BLACK
6
CONTINUOUS
10
0.135021
20
0.84101
11
0.136319
21
0.842557
0
LINE
8
BLACK
6
CONTINUOUS
10
0.136319
20
0.842557
11
0.138308
21
0.842908
0
LINE
8
BLACK
6
CONTINUOUS
10
0.138308
20
0.842908
11
0.140057
21
0.841898
0
LINE
8
BLACK
6
CONTINUOUS
10
-0.135533
20
0.841898
11
-0.134843
21
0.84
0
LINE
8
BLACK
6
CONTINUOUS
10
-0.134843
20
0.84
11
-0.134843
21
0.76
0
LINE
8
BLACK
6
CONTINUOUS
10
-0.134843
20
0.76
11
-0.135021
21
0.75899
0
LINE
8
BLACK
6
CONTINUOUS
10
-0.135021
20
0.75899
11
-0.136319
21
0.757443
0
LINE
8
BLACK
6
CONTINUOUS
10
-0.136319
20
0.757443
11
-0.138308
21
0.757092
0
LINE
8
BLACK
6
CONTINUOUS
10
-0.138308
20
0.757092
11
-0.140057
21
0.758102
0
LINE
8
BLACK
6
CONTINUOUS
10
-0.140057
20
0.758102
11
-0.140748
21
0.76
0
LINE
8
BLACK
6
CONTINUOUS
10
-0.140748
20
0.76
11
-0.140748
21
0.84
0
LINE
8
BLACK
6
CONTINUOUS
10
-0.140748
20
0.84
11
-0.14057
21
0.84101
0
LINE
8
BLACK
6
CONTINUOUS
10
-0.14057
20
0.84101
11
-0.139272
21
0.842557
0
LINE
8
BLACK
6
CONTINUOUS
10
-0.139272
20
0.842557
11
-0.137283
21
0.842908
0
LINE
8
BLACK
6
CONTINUOUS
10
-0.137283
20
0.842908
11
-0.135533
21
0.841898
0
LINE
8
BLACK
6
CONTINUOUS
10
0.0410099
20
0.94057
11
0.0425572
21
0.939272
0
LINE
8
BLACK
6
CONTINUOUS
10
0.0425572
20
0.939272
11
0.0429079
21
0.937283
0
LINE
8
BLACK
6
CONTINUOUS
10
0.0429079
20
0.937283
11
0.041898
21
0.935533
0
LINE
8
BLACK
6
CONTINUOUS
10
0.041898
20
0.935533
11
0.04
21
0.934843
0
LINE
8
BLACK
6
CONTINUOUS
10
0.04
20
0.934843
11
-0.04
21
0.934843
0
LINE
8
BLACK
6
CONTINUOUS
10
-0.04
20
0.934843
11
-0.0410099
21
0.935021
0
LINE
8
BLACK
6
CONTINUOUS
10
-0.0410099
20
0.935021
11
-0.0425572
21
0.936319
0
LINE
8
BLACK
6
CONTINUOUS
10
-0.0425572
20
0.936319
11
-0.0429079
21
0.938308
0
LINE
8
BLACK
6
CONTINUOUS
10
-0.0429079
20
0.938308
11
-0.041898
21
0.940057
0
LINE
8
BLACK
6
CONTINUOUS
10
-0.041898
20
0.940057
11
-0.04
21
0.940748
0
LINE
8
BLACK
6
CONTINUOUS
10
-0.04
20
0.940748
11
0.04
21
0.940748
0
LINE
8
BLACK
6
CONTINUOUS
10
0.04
20
0.940748
11
0.0410099
21
0.94057
0
LINE
8
BLACK
6
CONTINUOUS
10
0.44101
20
1.06598
11
0.442557
21
1.06468
0
LINE
8
BLACK
6
CONTINUOUS
10
0.442557
20
1.06468
11
0.442908
21
1.06269
0
LINE
8
BLACK
6
CONTINUOUS
10
0.442908
20
1.06269
11
0.441898
21
1.06094
0
LINE
8
BLACK
6
CONTINUOUS
10
0.441898
20
1.06094
11
0.44
21
1.06025
0
LINE
8
BLACK
6
CONTINUOUS
10
0.44
20
1.06025
11
0.36
21
1.06025
0
LINE
8
BLACK
6
CONTINUOUS
10
0.36
20
1.06025
11
0.35899
21
1.06043
0
LINE
8
BLACK
6
CONTINUOUS
10
0.35899
20
1.06043
11
0.357443
21
1.06173
0
LINE
8
BLACK
6
CONTINUOUS
10
0.357443
20
1.06173
11
0.357092
21
1.06372
0
LINE
8
BLACK
6
CONTINUOUS
10
0.357092
20
1.06372
11
0.358102
21
1.06547
0
LINE
8
BLACK
6
CONTINUOUS
10
0.358102
20
1.06547
11
0.36
21
1.06616
0
LINE
8
BLACK
6
CONTINUOUS
10
0.36
20
1.06616
11
0.44
21
1.06616
0
LINE
8
BLACK
6
CONTINUOUS
10
0.44
20
1.06616
11
0.44101
21
1.06598
0
LINE
8
BLACK
6
CONTINUOUS
10
0.264467
20
1.2419
11
0.265157
21
1.24
0
LINE
8
BLACK
6
CONTINUOUS
10
0.265157
20
1.24
11
0.265157
21
1.16
0
LINE
8
BLACK
6
CONTINUOUS
10
0.265157
20
1.16
11
0.264979
21
1.15899
0
LINE
8
BLACK
6
CONTINUOUS
10
0.264979
20
1.15899
11
0.263681
21
1.15744
0
LINE
8
BLACK
6
CONTINUOUS
10
0.263681
20
1.15744
11
0.261692
21
1.15709
0
LINE
8
BLACK
6
CONTINUOUS
10
0.261692
20
1.15709
11
0.259943
21
1.1581
0
LINE
8
BLACK
6
CONTINUOUS
10
0.259943
20
1.1581
11
0.259252
21
1.16
0
LINE
8
BLACK
6
CONTINUOUS
10
0.259252
20
1.16
11
0.259252
21
1.24
0
LINE
8
BLACK
6
CONTINUOUS
10
0.259252
20
1.24
11
0.25943
21
1.24101
0
LINE
8
BLACK
6
CONTINUOUS
10
0.25943
20
1.24101
11
0.260728
21
1.24256
0
LINE
8
BLACK
6
CONTINUOUS
10
0.260728
20
1.24256
11
0.262717
21
1.24291
0
LINE
8
BLACK
6
CONTINUOUS
10
0.262717
20
1.24291
11
0.264467
21
1.2419
0
LINE
8
BLACK
6
CONTINUOUS
10
0.540057
20
1.2419
11
0.540748
21
1.24
0
LINE
8
BLACK
6
CONTINUOUS
10
0.540748
20
1.24
11
0.540748
21
1.16
0
LINE
8
BLACK
6
CONTINUOUS
10
0.540748
20
1.16
11
0.54057
21
1.15899
0
LINE
8
BLACK
6
CONTINUOUS
10
0.54057
20
1.15899
11
0.539272
21
1.15744
0
LINE
8
BLACK
6
CONTINUOUS
10
0.539272
20
1.15744
11
0.537283
21
1.15709
0
LINE
8
BLACK
6
CONTINUOUS
10
0.537283
20
1.15709
11
0.535533
21
1.1581
0
LINE
8
BLACK
6
CONTINUOUS
10
0.535533
20
1.1581
11
0.534843
21
1.16
0
LINE
8
BLACK
6
CONTINUOUS
10
0.534843
20
1.16
11
0.534843
21
1.24
0
LINE
8
BLACK
6
CONTINUOUS
10
0.534843
20
1.24
11
0.535021
21
1.24101
0
LINE
8
BLACK
6
CONTINUOUS
10
0.535021
20
1.24101
11
0.536319
21
1.24256
0
LINE
8
BLACK
6
CONTINUOUS
10
0.536319
20
1.24256
11
0.538308
21
1.24291
0
LINE
8
BLACK
6
CONTINUOUS
10
0.538308
20
1.24291
11
0.540057
21
1.2419
0
LINE
8
BLACK
6
CONTINUOUS
10
0.44101
20
1.34057
11
0.442557
21
1.33927
0
LINE
8
BLACK
6
CONTINUOUS
10
0.442557
20
1.33927
11
0.442908
21
1.33728
0
LINE
8
BLACK
6
CONTINUOUS
10
0.442908
20
1.33728
11
0.441898
21
1.33553
0
LINE
8
BLACK
6
CONTINUOUS
10
0.441898
20
1.33553
11
0.44
21
1.33484
0
LINE
8
BLACK
6
CONTINUOUS
10
0.44
20
1.33484
11
0.36
21
1.33484
0
LINE
8
BLACK
6
CONTINUOUS
10
0.36
20
1.33484
11
0.35899
21
1.33502
0
LINE
8
BLACK
6
CONTINUOUS
10
0.35899
20
1.33502
11
0.357443
21
1.33632
0
LINE
8
BLACK
6
CONTINUOUS
10
0.357443
20
1.33632
11
0.357092
21
1.33831
0
LINE
8
BLACK
6
CONTINUOUS
10
0.357092
20
1.33831
11
0.358102
21
1.34006
0
LINE
8
BLACK
6
CONTINUOUS
10
0.358102
20
1.34006
11
0.36
21
1.34075
0
LINE
8
BLACK
6
CONTINUOUS
10
0.36
20
1.34075
11
0.44
21
1.34075
0
LINE
8
BLACK
6
CONTINUOUS
10
0.44
20
1.34075
11
0.44101
21
1.34057
  0
ENDSEC
  0
EOF
