  0
SECTION
  2
HEADER
  9
$ANGBASE
  50
0.0
  9
$ANGDIR
  70
1
  9
$MEASUREMENT
  70
0
  0
ENDSEC
  0
SECTION
  2
TABLES
  0
TABLE
  2
LTYPE
  70
4
  0
LTYPE
  5
40F
  2
CONTINUOUS
  70
0
  3
Solid line
  72
65
  73
0
  40
0.0
  0
LTYPE
  5
410
  2
DASHDOT
 70
0
  3
Dash Dot ____ _ ____ _
 72
65
 73
4
 40
2.0
 49
1.25
 49
-0.25
 49
0.25
 49
-0.25
  0
LTYPE
  5
411
  2
DASHED
 70
0
  3
Dashed __ __ __ __ __
 72
65
 73
2
 40
0.75
 49
0.5
 49
-0.25
  0
LTYPE
  5
43B
  2
DOTTED
 70
0
  3
Dotted .  .  .  .
 72
65
 73
2
 40
0.2
 49
0.0
 49
-0.2
  0
ENDTAB
  0
TABLE
  2
STYLE
  70
4
  0
STYLE
  2
KICAD
  70
0
  40
0
  41
1
  42
1
  50
0
  71
0
  3
isocp.shx
  0
STYLE
  2
KICADB
  70
0
  40
0
  41
1
  42
1
  50
0
  71
0
  3
isocp.shx
  0
STYLE
  2
KICADI
  70
0
  40
0
  41
1
  42
1
  50
15
  71
0
  3
isocp.shx
  0
STYLE
  2
KICADBI
  70
0
  40
0
  41
1
  42
1
  50
15
  71
0
  3
isocp.shx
  0
ENDTAB
  0
TABLE
  2
LAYER
  70
1
  0
LAYER
  2
BLACK
  70
0
  62
7
  6
CONTINUOUS
  0
ENDTAB
  0
ENDSEC
  0
SECTION
  2
ENTITIES
0
LINE
8
BLACK
6
CONTINUOUS
10
0.40734
20
0.311607
11
0.408031
21
0.309937
0
LINE
8
BLACK
6
CONTINUOUS
10
0.408031
20
0.309937
11
0.408031
21
0.22785
0
LINE
8
BLACK
6
CONTINUOUS
10
0.408031
20
0.22785
11
0.40734
21
0.22618
0
LINE
8
BLACK
6
CONTINUOUS
10
0.40734
20
0.22618
11
0.405669
21
0.225488
0
LINE
8
BLACK
6
CONTINUOUS
10
0.405669
20
0.225488
11
0.403999
21
0.22618
0
LINE
8
BLACK
6
CONTINUOUS
10
0.403999
20
0.22618
11
0.403307
21
0.22785
0
LINE
8
BLACK
6
CONTINUOUS
10
0.403307
20
0.22785
11
0.403307
21
0.309937
0
LINE
8
BLACK
6
CONTINUOUS
10
0.403307
20
0.309937
11
0.403999
21
0.311607
0
LINE
8
BLACK
6
CONTINUOUS
10
0.403999
20
0.311607
11
0.405669
21
0.312299
0
LINE
8
BLACK
6
CONTINUOUS
10
0.405669
20
0.312299
11
0.40734
21
0.311607
0
LINE
8
BLACK
6
CONTINUOUS
10
0.428219
20
0.265561
11
0.429332
21
0.263876
0
LINE
8
BLACK
6
CONTINUOUS
10
0.429332
20
0.263876
11
0.429101
21
0.261869
0
LINE
8
BLACK
6
CONTINUOUS
10
0.429101
20
0.261869
11
0.427227
21
0.25812
0
LINE
8
BLACK
6
CONTINUOUS
10
0.427227
20
0.25812
11
0.426701
21
0.257411
0
LINE
8
BLACK
6
CONTINUOUS
10
0.426701
20
0.257411
11
0.426674
21
0.257352
0
LINE
8
BLACK
6
CONTINUOUS
10
0.426674
20
0.257352
11
0.424215
21
0.254894
0
LINE
8
BLACK
6
CONTINUOUS
10
0.424215
20
0.254894
11
0.451629
21
0.254894
0
LINE
8
BLACK
6
CONTINUOUS
10
0.451629
20
0.254894
11
0.451629
21
0.26319
0
LINE
8
BLACK
6
CONTINUOUS
10
0.451629
20
0.26319
11
0.451807
21
0.2642
0
LINE
8
BLACK
6
CONTINUOUS
10
0.451807
20
0.2642
11
0.453106
21
0.265747
0
LINE
8
BLACK
6
CONTINUOUS
10
0.453106
20
0.265747
11
0.455095
21
0.266098
0
LINE
8
BLACK
6
CONTINUOUS
10
0.455095
20
0.266098
11
0.456844
21
0.265088
0
LINE
8
BLACK
6
CONTINUOUS
10
0.456844
20
0.265088
11
0.457535
21
0.26319
0
LINE
8
BLACK
6
CONTINUOUS
10
0.457535
20
0.26319
11
0.457535
21
0.240693
0
LINE
8
BLACK
6
CONTINUOUS
10
0.457535
20
0.240693
11
0.457357
21
0.239683
0
LINE
8
BLACK
6
CONTINUOUS
10
0.457357
20
0.239683
11
0.456058
21
0.238135
0
LINE
8
BLACK
6
CONTINUOUS
10
0.456058
20
0.238135
11
0.454069
21
0.237785
0
LINE
8
BLACK
6
CONTINUOUS
10
0.454069
20
0.237785
11
0.45232
21
0.238795
0
LINE
8
BLACK
6
CONTINUOUS
10
0.45232
20
0.238795
11
0.451629
21
0.240693
0
LINE
8
BLACK
6
CONTINUOUS
10
0.451629
20
0.240693
11
0.451629
21
0.248988
0
LINE
8
BLACK
6
CONTINUOUS
10
0.451629
20
0.248988
11
0.415212
21
0.248988
0
LINE
8
BLACK
6
CONTINUOUS
10
0.415212
20
0.248988
11
0.414202
21
0.249166
0
LINE
8
BLACK
6
CONTINUOUS
10
0.414202
20
0.249166
11
0.414072
21
0.249276
0
LINE
8
BLACK
6
CONTINUOUS
10
0.414072
20
0.249276
11
0.413903
21
0.249294
0
LINE
8
BLACK
6
CONTINUOUS
10
0.413903
20
0.249294
11
0.413311
21
0.249914
0
LINE
8
BLACK
6
CONTINUOUS
10
0.413311
20
0.249914
11
0.412655
21
0.250465
0
LINE
8
BLACK
6
CONTINUOUS
10
0.412655
20
0.250465
11
0.412625
21
0.250632
0
LINE
8
BLACK
6
CONTINUOUS
10
0.412625
20
0.250632
11
0.412508
21
0.250755
0
LINE
8
BLACK
6
CONTINUOUS
10
0.412508
20
0.250755
11
0.412453
21
0.25161
0
LINE
8
BLACK
6
CONTINUOUS
10
0.412453
20
0.25161
11
0.412304
21
0.252454
0
LINE
8
BLACK
6
CONTINUOUS
10
0.412304
20
0.252454
11
0.412389
21
0.252601
0
LINE
8
BLACK
6
CONTINUOUS
10
0.412389
20
0.252601
11
0.412378
21
0.25277
0
LINE
8
BLACK
6
CONTINUOUS
10
0.412378
20
0.25277
11
0.412885
21
0.253461
0
LINE
8
BLACK
6
CONTINUOUS
10
0.412885
20
0.253461
11
0.413314
21
0.254203
0
LINE
8
BLACK
6
CONTINUOUS
10
0.413314
20
0.254203
11
0.413473
21
0.254261
0
LINE
8
BLACK
6
CONTINUOUS
10
0.413473
20
0.254261
11
0.413574
21
0.254398
0
LINE
8
BLACK
6
CONTINUOUS
10
0.413574
20
0.254398
11
0.418955
21
0.257985
0
LINE
8
BLACK
6
CONTINUOUS
10
0.418955
20
0.257985
11
0.422159
21
0.261189
0
LINE
8
BLACK
6
CONTINUOUS
10
0.422159
20
0.261189
11
0.423819
21
0.26451
0
LINE
8
BLACK
6
CONTINUOUS
10
0.423819
20
0.26451
11
0.42443
21
0.265334
0
LINE
8
BLACK
6
CONTINUOUS
10
0.42443
20
0.265334
11
0.426284
21
0.266137
0
LINE
8
BLACK
6
CONTINUOUS
10
0.426284
20
0.266137
11
0.428219
21
0.265561
0
LINE
8
BLACK
6
CONTINUOUS
10
0.316001
20
0.311607
11
0.316693
21
0.309937
0
LINE
8
BLACK
6
CONTINUOUS
10
0.316693
20
0.309937
11
0.316693
21
0.254425
0
LINE
8
BLACK
6
CONTINUOUS
10
0.316693
20
0.254425
11
0.316001
21
0.252755
0
LINE
8
BLACK
6
CONTINUOUS
10
0.316001
20
0.252755
11
0.314331
21
0.252063
0
LINE
8
BLACK
6
CONTINUOUS
10
0.314331
20
0.252063
11
0.31266
21
0.252755
0
LINE
8
BLACK
6
CONTINUOUS
10
0.31266
20
0.252755
11
0.311969
21
0.254425
0
LINE
8
BLACK
6
CONTINUOUS
10
0.311969
20
0.254425
11
0.311969
21
0.309937
0
LINE
8
BLACK
6
CONTINUOUS
10
0.311969
20
0.309937
11
0.31266
21
0.311607
0
LINE
8
BLACK
6
CONTINUOUS
10
0.31266
20
0.311607
11
0.314331
21
0.312299
0
LINE
8
BLACK
6
CONTINUOUS
10
0.314331
20
0.312299
11
0.316001
21
0.311607
0
LINE
8
BLACK
6
CONTINUOUS
10
0.641448
20
0.283935
11
0.642561
21
0.28225
0
LINE
8
BLACK
6
CONTINUOUS
10
0.642561
20
0.28225
11
0.64233
21
0.280243
0
LINE
8
BLACK
6
CONTINUOUS
10
0.64233
20
0.280243
11
0.640455
21
0.276494
0
LINE
8
BLACK
6
CONTINUOUS
10
0.640455
20
0.276494
11
0.639929
21
0.275784
0
LINE
8
BLACK
6
CONTINUOUS
10
0.639929
20
0.275784
11
0.639902
21
0.275726
0
LINE
8
BLACK
6
CONTINUOUS
10
0.639902
20
0.275726
11
0.637444
21
0.273268
0
LINE
8
BLACK
6
CONTINUOUS
10
0.637444
20
0.273268
11
0.664857
21
0.273268
0
LINE
8
BLACK
6
CONTINUOUS
10
0.664857
20
0.273268
11
0.664857
21
0.281564
0
LINE
8
BLACK
6
CONTINUOUS
10
0.664857
20
0.281564
11
0.665036
21
0.282574
0
LINE
8
BLACK
6
CONTINUOUS
10
0.665036
20
0.282574
11
0.666334
21
0.284121
0
LINE
8
BLACK
6
CONTINUOUS
10
0.666334
20
0.284121
11
0.668323
21
0.284471
0
LINE
8
BLACK
6
CONTINUOUS
10
0.668323
20
0.284471
11
0.670072
21
0.283462
0
LINE
8
BLACK
6
CONTINUOUS
10
0.670072
20
0.283462
11
0.670763
21
0.281564
0
LINE
8
BLACK
6
CONTINUOUS
10
0.670763
20
0.281564
11
0.670763
21
0.259066
0
LINE
8
BLACK
6
CONTINUOUS
10
0.670763
20
0.259066
11
0.670585
21
0.258056
0
LINE
8
BLACK
6
CONTINUOUS
10
0.670585
20
0.258056
11
0.669287
21
0.256509
0
LINE
8
BLACK
6
CONTINUOUS
10
0.669287
20
0.256509
11
0.667297
21
0.256158
0
LINE
8
BLACK
6
CONTINUOUS
10
0.667297
20
0.256158
11
0.665548
21
0.257168
0
LINE
8
BLACK
6
CONTINUOUS
10
0.665548
20
0.257168
11
0.664857
21
0.259066
0
LINE
8
BLACK
6
CONTINUOUS
10
0.664857
20
0.259066
11
0.664857
21
0.267362
0
LINE
8
BLACK
6
CONTINUOUS
10
0.664857
20
0.267362
11
0.62844
21
0.267362
0
LINE
8
BLACK
6
CONTINUOUS
10
0.62844
20
0.267362
11
0.62743
21
0.26754
0
LINE
8
BLACK
6
CONTINUOUS
10
0.62743
20
0.26754
11
0.6273
21
0.267649
0
LINE
8
BLACK
6
CONTINUOUS
10
0.6273
20
0.267649
11
0.627131
21
0.267668
0
LINE
8
BLACK
6
CONTINUOUS
10
0.627131
20
0.267668
11
0.626539
21
0.268288
0
LINE
8
BLACK
6
CONTINUOUS
10
0.626539
20
0.268288
11
0.625883
21
0.268839
0
LINE
8
BLACK
6
CONTINUOUS
10
0.625883
20
0.268839
11
0.625854
21
0.269006
0
LINE
8
BLACK
6
CONTINUOUS
10
0.625854
20
0.269006
11
0.625736
21
0.269129
0
LINE
8
BLACK
6
CONTINUOUS
10
0.625736
20
0.269129
11
0.625681
21
0.269984
0
LINE
8
BLACK
6
CONTINUOUS
10
0.625681
20
0.269984
11
0.625532
21
0.270828
0
LINE
8
BLACK
6
CONTINUOUS
10
0.625532
20
0.270828
11
0.625617
21
0.270975
0
LINE
8
BLACK
6
CONTINUOUS
10
0.625617
20
0.270975
11
0.625606
21
0.271144
0
LINE
8
BLACK
6
CONTINUOUS
10
0.625606
20
0.271144
11
0.626114
21
0.271835
0
LINE
8
BLACK
6
CONTINUOUS
10
0.626114
20
0.271835
11
0.626542
21
0.272577
0
LINE
8
BLACK
6
CONTINUOUS
10
0.626542
20
0.272577
11
0.626702
21
0.272635
0
LINE
8
BLACK
6
CONTINUOUS
10
0.626702
20
0.272635
11
0.626802
21
0.272772
0
LINE
8
BLACK
6
CONTINUOUS
10
0.626802
20
0.272772
11
0.632183
21
0.276359
0
LINE
8
BLACK
6
CONTINUOUS
10
0.632183
20
0.276359
11
0.635387
21
0.279563
0
LINE
8
BLACK
6
CONTINUOUS
10
0.635387
20
0.279563
11
0.637048
21
0.282884
0
LINE
8
BLACK
6
CONTINUOUS
10
0.637048
20
0.282884
11
0.637659
21
0.283708
0
LINE
8
BLACK
6
CONTINUOUS
10
0.637659
20
0.283708
11
0.639512
21
0.284511
0
LINE
8
BLACK
6
CONTINUOUS
10
0.639512
20
0.284511
11
0.641448
21
0.283935
0
LINE
8
BLACK
6
CONTINUOUS
10
0.438289
20
0.30541
11
0.438425
21
0.305424
0
LINE
8
BLACK
6
CONTINUOUS
10
0.438425
20
0.305424
11
0.445924
21
0.30355
0
LINE
8
BLACK
6
CONTINUOUS
10
0.445924
20
0.30355
11
0.44639
21
0.303342
0
LINE
8
BLACK
6
CONTINUOUS
10
0.44639
20
0.303342
11
0.446529
21
0.303326
0
LINE
8
BLACK
6
CONTINUOUS
10
0.446529
20
0.303326
11
0.450278
21
0.301451
0
LINE
8
BLACK
6
CONTINUOUS
10
0.450278
20
0.301451
11
0.450987
21
0.300925
0
LINE
8
BLACK
6
CONTINUOUS
10
0.450987
20
0.300925
11
0.451046
21
0.300898
0
LINE
8
BLACK
6
CONTINUOUS
10
0.451046
20
0.300898
11
0.454795
21
0.297149
0
LINE
8
BLACK
6
CONTINUOUS
10
0.454795
20
0.297149
11
0.455383
21
0.296309
0
LINE
8
BLACK
6
CONTINUOUS
10
0.455383
20
0.296309
11
0.455399
21
0.296133
0
LINE
8
BLACK
6
CONTINUOUS
10
0.455399
20
0.296133
11
0.455508
21
0.295994
0
LINE
8
BLACK
6
CONTINUOUS
10
0.455508
20
0.295994
11
0.457383
21
0.29037
0
LINE
8
BLACK
6
CONTINUOUS
10
0.457383
20
0.29037
11
0.457513
21
0.289497
0
LINE
8
BLACK
6
CONTINUOUS
10
0.457513
20
0.289497
11
0.457535
21
0.289436
0
LINE
8
BLACK
6
CONTINUOUS
10
0.457535
20
0.289436
11
0.457535
21
0.285687
0
LINE
8
BLACK
6
CONTINUOUS
10
0.457535
20
0.285687
11
0.457381
21
0.284818
0
LINE
8
BLACK
6
CONTINUOUS
10
0.457381
20
0.284818
11
0.457383
21
0.284753
0
LINE
8
BLACK
6
CONTINUOUS
10
0.457383
20
0.284753
11
0.455508
21
0.279129
0
LINE
8
BLACK
6
CONTINUOUS
10
0.455508
20
0.279129
11
0.45502
21
0.278227
0
LINE
8
BLACK
6
CONTINUOUS
10
0.45502
20
0.278227
11
0.45487
21
0.278135
0
LINE
8
BLACK
6
CONTINUOUS
10
0.45487
20
0.278135
11
0.454795
21
0.277975
0
LINE
8
BLACK
6
CONTINUOUS
10
0.454795
20
0.277975
11
0.45292
21
0.2761
0
LINE
8
BLACK
6
CONTINUOUS
10
0.45292
20
0.2761
11
0.45208
21
0.275512
0
LINE
8
BLACK
6
CONTINUOUS
10
0.45208
20
0.275512
11
0.450068
21
0.275336
0
LINE
8
BLACK
6
CONTINUOUS
10
0.450068
20
0.275336
11
0.448414
21
0.276494
0
LINE
8
BLACK
6
CONTINUOUS
10
0.448414
20
0.276494
11
0.447891
21
0.278445
0
LINE
8
BLACK
6
CONTINUOUS
10
0.447891
20
0.278445
11
0.448744
21
0.280276
0
LINE
8
BLACK
6
CONTINUOUS
10
0.448744
20
0.280276
11
0.450126
21
0.281658
0
LINE
8
BLACK
6
CONTINUOUS
10
0.450126
20
0.281658
11
0.451629
21
0.286166
0
LINE
8
BLACK
6
CONTINUOUS
10
0.451629
20
0.286166
11
0.451629
21
0.288957
0
LINE
8
BLACK
6
CONTINUOUS
10
0.451629
20
0.288957
11
0.450126
21
0.293466
0
LINE
8
BLACK
6
CONTINUOUS
10
0.450126
20
0.293466
11
0.447209
21
0.296384
0
LINE
8
BLACK
6
CONTINUOUS
10
0.447209
20
0.296384
11
0.444177
21
0.297899
0
LINE
8
BLACK
6
CONTINUOUS
10
0.444177
20
0.297899
11
0.437345
21
0.299607
0
LINE
8
BLACK
6
CONTINUOUS
10
0.437345
20
0.299607
11
0.432448
21
0.299607
0
LINE
8
BLACK
6
CONTINUOUS
10
0.432448
20
0.299607
11
0.425616
21
0.297899
0
LINE
8
BLACK
6
CONTINUOUS
10
0.425616
20
0.297899
11
0.422585
21
0.296384
0
LINE
8
BLACK
6
CONTINUOUS
10
0.422585
20
0.296384
11
0.419667
21
0.293466
0
LINE
8
BLACK
6
CONTINUOUS
10
0.419667
20
0.293466
11
0.418165
21
0.288957
0
LINE
8
BLACK
6
CONTINUOUS
10
0.418165
20
0.288957
11
0.418165
21
0.286166
0
LINE
8
BLACK
6
CONTINUOUS
10
0.418165
20
0.286166
11
0.419667
21
0.281658
0
LINE
8
BLACK
6
CONTINUOUS
10
0.419667
20
0.281658
11
0.421049
21
0.280276
0
LINE
8
BLACK
6
CONTINUOUS
10
0.421049
20
0.280276
11
0.421637
21
0.279436
0
LINE
8
BLACK
6
CONTINUOUS
10
0.421637
20
0.279436
11
0.421814
21
0.277424
0
LINE
8
BLACK
6
CONTINUOUS
10
0.421814
20
0.277424
11
0.420655
21
0.275769
0
LINE
8
BLACK
6
CONTINUOUS
10
0.420655
20
0.275769
11
0.418704
21
0.275246
0
LINE
8
BLACK
6
CONTINUOUS
10
0.418704
20
0.275246
11
0.416873
21
0.2761
0
LINE
8
BLACK
6
CONTINUOUS
10
0.416873
20
0.2761
11
0.414999
21
0.277975
0
LINE
8
BLACK
6
CONTINUOUS
10
0.414999
20
0.277975
11
0.414411
21
0.278815
0
LINE
8
BLACK
6
CONTINUOUS
10
0.414411
20
0.278815
11
0.414395
21
0.278991
0
LINE
8
BLACK
6
CONTINUOUS
10
0.414395
20
0.278991
11
0.414285
21
0.279129
0
LINE
8
BLACK
6
CONTINUOUS
10
0.414285
20
0.279129
11
0.412411
21
0.284753
0
LINE
8
BLACK
6
CONTINUOUS
10
0.412411
20
0.284753
11
0.412281
21
0.285626
0
LINE
8
BLACK
6
CONTINUOUS
10
0.412281
20
0.285626
11
0.412259
21
0.285687
0
LINE
8
BLACK
6
CONTINUOUS
10
0.412259
20
0.285687
11
0.412259
21
0.289436
0
LINE
8
BLACK
6
CONTINUOUS
10
0.412259
20
0.289436
11
0.412412
21
0.290306
0
LINE
8
BLACK
6
CONTINUOUS
10
0.412412
20
0.290306
11
0.412411
21
0.29037
0
LINE
8
BLACK
6
CONTINUOUS
10
0.412411
20
0.29037
11
0.414285
21
0.295995
0
LINE
8
BLACK
6
CONTINUOUS
10
0.414285
20
0.295995
11
0.414774
21
0.296896
0
LINE
8
BLACK
6
CONTINUOUS
10
0.414774
20
0.296896
11
0.414924
21
0.296989
0
LINE
8
BLACK
6
CONTINUOUS
10
0.414924
20
0.296989
11
0.414999
21
0.297149
0
LINE
8
BLACK
6
CONTINUOUS
10
0.414999
20
0.297149
11
0.418748
21
0.300898
0
LINE
8
BLACK
6
CONTINUOUS
10
0.418748
20
0.300898
11
0.419471
21
0.301405
0
LINE
8
BLACK
6
CONTINUOUS
10
0.419471
20
0.301405
11
0.419516
21
0.301451
0
LINE
8
BLACK
6
CONTINUOUS
10
0.419516
20
0.301451
11
0.423265
21
0.303326
0
LINE
8
BLACK
6
CONTINUOUS
10
0.423265
20
0.303326
11
0.423754
21
0.303471
0
LINE
8
BLACK
6
CONTINUOUS
10
0.423754
20
0.303471
11
0.423869
21
0.30355
0
LINE
8
BLACK
6
CONTINUOUS
10
0.423869
20
0.30355
11
0.431369
21
0.305424
0
LINE
8
BLACK
6
CONTINUOUS
10
0.431369
20
0.305424
11
0.431956
21
0.305466
0
LINE
8
BLACK
6
CONTINUOUS
10
0.431956
20
0.305466
11
0.432085
21
0.305513
0
LINE
8
BLACK
6
CONTINUOUS
10
0.432085
20
0.305513
11
0.437709
21
0.305513
0
LINE
8
BLACK
6
CONTINUOUS
10
0.437709
20
0.305513
11
0.438289
21
0.30541
0
LINE
8
BLACK
6
CONTINUOUS
10
0.66882
20
0.321834
11
0.670367
21
0.320535
0
LINE
8
BLACK
6
CONTINUOUS
10
0.670367
20
0.320535
11
0.670718
21
0.318546
0
LINE
8
BLACK
6
CONTINUOUS
10
0.670718
20
0.318546
11
0.669708
21
0.316797
0
LINE
8
BLACK
6
CONTINUOUS
10
0.669708
20
0.316797
11
0.66781
21
0.316106
0
LINE
8
BLACK
6
CONTINUOUS
10
0.66781
20
0.316106
11
0.652015
21
0.316106
0
LINE
8
BLACK
6
CONTINUOUS
10
0.652015
20
0.316106
11
0.652015
21
0.311222
0
LINE
8
BLACK
6
CONTINUOUS
10
0.652015
20
0.311222
11
0.669504
21
0.298981
0
LINE
8
BLACK
6
CONTINUOUS
10
0.669504
20
0.298981
11
0.670229
21
0.298256
0
LINE
8
BLACK
6
CONTINUOUS
10
0.670229
20
0.298256
11
0.670752
21
0.296305
0
LINE
8
BLACK
6
CONTINUOUS
10
0.670752
20
0.296305
11
0.669898
21
0.294474
0
LINE
8
BLACK
6
CONTINUOUS
10
0.669898
20
0.294474
11
0.668068
21
0.29362
0
LINE
8
BLACK
6
CONTINUOUS
10
0.668068
20
0.29362
11
0.666117
21
0.294143
0
LINE
8
BLACK
6
CONTINUOUS
10
0.666117
20
0.294143
11
0.652008
21
0.304019
0
LINE
8
BLACK
6
CONTINUOUS
10
0.652008
20
0.304019
11
0.651837
21
0.303051
0
LINE
8
BLACK
6
CONTINUOUS
10
0.651837
20
0.303051
11
0.651724
21
0.302916
0
LINE
8
BLACK
6
CONTINUOUS
10
0.651724
20
0.302916
11
0.651704
21
0.30274
0
LINE
8
BLACK
6
CONTINUOUS
10
0.651704
20
0.30274
11
0.649829
21
0.298991
0
LINE
8
BLACK
6
CONTINUOUS
10
0.649829
20
0.298991
11
0.649303
21
0.298282
0
LINE
8
BLACK
6
CONTINUOUS
10
0.649303
20
0.298282
11
0.649276
21
0.298223
0
LINE
8
BLACK
6
CONTINUOUS
10
0.649276
20
0.298223
11
0.647401
21
0.296349
0
LINE
8
BLACK
6
CONTINUOUS
10
0.647401
20
0.296349
11
0.646678
21
0.295842
0
LINE
8
BLACK
6
CONTINUOUS
10
0.646678
20
0.295842
11
0.646634
21
0.295795
0
LINE
8
BLACK
6
CONTINUOUS
10
0.646634
20
0.295795
11
0.642884
21
0.293921
0
LINE
8
BLACK
6
CONTINUOUS
10
0.642884
20
0.293921
11
0.641901
21
0.293628
0
LINE
8
BLACK
6
CONTINUOUS
10
0.641901
20
0.293628
11
0.641729
21
0.293669
0
LINE
8
BLACK
6
CONTINUOUS
10
0.641729
20
0.293669
11
0.641564
21
0.293609
0
LINE
8
BLACK
6
CONTINUOUS
10
0.641564
20
0.293609
11
0.635939
21
0.293609
0
LINE
8
BLACK
6
CONTINUOUS
10
0.635939
20
0.293609
11
0.634929
21
0.293787
0
LINE
8
BLACK
6
CONTINUOUS
10
0.634929
20
0.293787
11
0.634794
21
0.2939
0
LINE
8
BLACK
6
CONTINUOUS
10
0.634794
20
0.2939
11
0.634619
21
0.293921
0
LINE
8
BLACK
6
CONTINUOUS
10
0.634619
20
0.293921
11
0.630869
21
0.295795
0
LINE
8
BLACK
6
CONTINUOUS
10
0.630869
20
0.295795
11
0.63016
21
0.296321
0
LINE
8
BLACK
6
CONTINUOUS
10
0.63016
20
0.296321
11
0.630102
21
0.296349
0
LINE
8
BLACK
6
CONTINUOUS
10
0.630102
20
0.296349
11
0.628227
21
0.298223
0
LINE
8
BLACK
6
CONTINUOUS
10
0.628227
20
0.298223
11
0.627721
21
0.298946
0
LINE
8
BLACK
6
CONTINUOUS
10
0.627721
20
0.298946
11
0.627674
21
0.298991
0
LINE
8
BLACK
6
CONTINUOUS
10
0.627674
20
0.298991
11
0.625799
21
0.30274
0
LINE
8
BLACK
6
CONTINUOUS
10
0.625799
20
0.30274
11
0.625507
21
0.303723
0
LINE
8
BLACK
6
CONTINUOUS
10
0.625507
20
0.303723
11
0.625548
21
0.303895
0
LINE
8
BLACK
6
CONTINUOUS
10
0.625548
20
0.303895
11
0.625487
21
0.304061
0
LINE
8
BLACK
6
CONTINUOUS
10
0.625487
20
0.304061
11
0.625487
21
0.319059
0
LINE
8
BLACK
6
CONTINUOUS
10
0.625487
20
0.319059
11
0.625555
21
0.319442
0
LINE
8
BLACK
6
CONTINUOUS
10
0.625555
20
0.319442
11
0.625532
21
0.319572
0
LINE
8
BLACK
6
CONTINUOUS
10
0.625532
20
0.319572
11
0.625598
21
0.319685
0
LINE
8
BLACK
6
CONTINUOUS
10
0.625598
20
0.319685
11
0.625665
21
0.320069
0
LINE
8
BLACK
6
CONTINUOUS
10
0.625665
20
0.320069
11
0.626159
21
0.320656
0
LINE
8
BLACK
6
CONTINUOUS
10
0.626159
20
0.320656
11
0.626542
21
0.321321
0
LINE
8
BLACK
6
CONTINUOUS
10
0.626542
20
0.321321
11
0.626793
21
0.321412
0
LINE
8
BLACK
6
CONTINUOUS
10
0.626793
20
0.321412
11
0.626964
21
0.321616
0
LINE
8
BLACK
6
CONTINUOUS
10
0.626964
20
0.321616
11
0.627719
21
0.321749
0
LINE
8
BLACK
6
CONTINUOUS
10
0.627719
20
0.321749
11
0.62844
21
0.322012
0
LINE
8
BLACK
6
CONTINUOUS
10
0.62844
20
0.322012
11
0.66781
21
0.322012
0
LINE
8
BLACK
6
CONTINUOUS
10
0.66781
20
0.322012
11
0.66882
21
0.321834
0
LINE
8
BLACK
6
CONTINUOUS
10
0.631393
20
0.316106
11
0.631393
21
0.304758
0
LINE
8
BLACK
6
CONTINUOUS
10
0.631393
20
0.304758
11
0.632742
21
0.30206
0
LINE
8
BLACK
6
CONTINUOUS
10
0.632742
20
0.30206
11
0.633939
21
0.300863
0
LINE
8
BLACK
6
CONTINUOUS
10
0.633939
20
0.300863
11
0.636636
21
0.299514
0
LINE
8
BLACK
6
CONTINUOUS
10
0.636636
20
0.299514
11
0.640866
21
0.299514
0
LINE
8
BLACK
6
CONTINUOUS
10
0.640866
20
0.299514
11
0.643564
21
0.300863
0
LINE
8
BLACK
6
CONTINUOUS
10
0.643564
20
0.300863
11
0.644761
21
0.30206
0
LINE
8
BLACK
6
CONTINUOUS
10
0.644761
20
0.30206
11
0.64611
21
0.304758
0
LINE
8
BLACK
6
CONTINUOUS
10
0.64611
20
0.304758
11
0.64611
21
0.316106
0
LINE
8
BLACK
6
CONTINUOUS
10
0.64611
20
0.316106
11
0.631393
21
0.316106
0
LINE
8
BLACK
6
CONTINUOUS
10
0.455592
20
0.322207
11
0.457139
21
0.320909
0
LINE
8
BLACK
6
CONTINUOUS
10
0.457139
20
0.320909
11
0.45749
21
0.31892
0
LINE
8
BLACK
6
CONTINUOUS
10
0.45749
20
0.31892
11
0.45648
21
0.317171
0
LINE
8
BLACK
6
CONTINUOUS
10
0.45648
20
0.317171
11
0.454582
21
0.31648
0
LINE
8
BLACK
6
CONTINUOUS
10
0.454582
20
0.31648
11
0.415212
21
0.31648
0
LINE
8
BLACK
6
CONTINUOUS
10
0.415212
20
0.31648
11
0.414202
21
0.316658
0
LINE
8
BLACK
6
CONTINUOUS
10
0.414202
20
0.316658
11
0.412655
21
0.317956
0
LINE
8
BLACK
6
CONTINUOUS
10
0.412655
20
0.317956
11
0.412304
21
0.319945
0
LINE
8
BLACK
6
CONTINUOUS
10
0.412304
20
0.319945
11
0.413314
21
0.321695
0
LINE
8
BLACK
6
CONTINUOUS
10
0.413314
20
0.321695
11
0.415212
21
0.322385
0
LINE
8
BLACK
6
CONTINUOUS
10
0.415212
20
0.322385
11
0.454582
21
0.322385
0
LINE
8
BLACK
6
CONTINUOUS
10
0.454582
20
0.322385
11
0.455592
21
0.322207
0
LINE
8
BLACK
6
CONTINUOUS
10
0.401956
20
0.372733
11
0.402648
21
0.371063
0
LINE
8
BLACK
6
CONTINUOUS
10
0.402648
20
0.371063
11
0.401956
21
0.369393
0
LINE
8
BLACK
6
CONTINUOUS
10
0.401956
20
0.369393
11
0.400286
21
0.368701
0
LINE
8
BLACK
6
CONTINUOUS
10
0.400286
20
0.368701
11
0.379714
21
0.368701
0
LINE
8
BLACK
6
CONTINUOUS
10
0.379714
20
0.368701
11
0.378044
21
0.369393
0
LINE
8
BLACK
6
CONTINUOUS
10
0.378044
20
0.369393
11
0.377352
21
0.371063
0
LINE
8
BLACK
6
CONTINUOUS
10
0.377352
20
0.371063
11
0.378044
21
0.372733
0
LINE
8
BLACK
6
CONTINUOUS
10
0.378044
20
0.372733
11
0.379714
21
0.373425
0
LINE
8
BLACK
6
CONTINUOUS
10
0.379714
20
0.373425
11
0.400286
21
0.373425
0
LINE
8
BLACK
6
CONTINUOUS
10
0.400286
20
0.373425
11
0.401956
21
0.372733
0
LINE
8
BLACK
6
CONTINUOUS
10
0.29868
20
0.424359
11
0.298744
21
0.424361
0
LINE
8
BLACK
6
CONTINUOUS
10
0.298744
20
0.424361
11
0.304368
21
0.422486
0
LINE
8
BLACK
6
CONTINUOUS
10
0.304368
20
0.422486
11
0.30527
21
0.421998
0
LINE
8
BLACK
6
CONTINUOUS
10
0.30527
20
0.421998
11
0.305363
21
0.421848
0
LINE
8
BLACK
6
CONTINUOUS
10
0.305363
20
0.421848
11
0.305522
21
0.421773
0
LINE
8
BLACK
6
CONTINUOUS
10
0.305522
20
0.421773
11
0.309272
21
0.418023
0
LINE
8
BLACK
6
CONTINUOUS
10
0.309272
20
0.418023
11
0.309778
21
0.4173
0
LINE
8
BLACK
6
CONTINUOUS
10
0.309778
20
0.4173
11
0.309825
21
0.417256
0
LINE
8
BLACK
6
CONTINUOUS
10
0.309825
20
0.417256
11
0.3117
21
0.413506
0
LINE
8
BLACK
6
CONTINUOUS
10
0.3117
20
0.413506
11
0.311845
21
0.413018
0
LINE
8
BLACK
6
CONTINUOUS
10
0.311845
20
0.413018
11
0.311923
21
0.412902
0
LINE
8
BLACK
6
CONTINUOUS
10
0.311923
20
0.412902
11
0.313798
21
0.405403
0
LINE
8
BLACK
6
CONTINUOUS
10
0.313798
20
0.405403
11
0.31384
21
0.404815
0
LINE
8
BLACK
6
CONTINUOUS
10
0.31384
20
0.404815
11
0.313886
21
0.404687
0
LINE
8
BLACK
6
CONTINUOUS
10
0.313886
20
0.404687
11
0.313886
21
0.399063
0
LINE
8
BLACK
6
CONTINUOUS
10
0.313886
20
0.399063
11
0.313784
21
0.398482
0
LINE
8
BLACK
6
CONTINUOUS
10
0.313784
20
0.398482
11
0.313798
21
0.398346
0
LINE
8
BLACK
6
CONTINUOUS
10
0.313798
20
0.398346
11
0.311923
21
0.390847
0
LINE
8
BLACK
6
CONTINUOUS
10
0.311923
20
0.390847
11
0.311716
21
0.390382
0
LINE
8
BLACK
6
CONTINUOUS
10
0.311716
20
0.390382
11
0.3117
21
0.390243
0
LINE
8
BLACK
6
CONTINUOUS
10
0.3117
20
0.390243
11
0.309825
21
0.386494
0
LINE
8
BLACK
6
CONTINUOUS
10
0.309825
20
0.386494
11
0.309299
21
0.385784
0
LINE
8
BLACK
6
CONTINUOUS
10
0.309299
20
0.385784
11
0.309272
21
0.385726
0
LINE
8
BLACK
6
CONTINUOUS
10
0.309272
20
0.385726
11
0.305522
21
0.381977
0
LINE
8
BLACK
6
CONTINUOUS
10
0.305522
20
0.381977
11
0.304682
21
0.381388
0
LINE
8
BLACK
6
CONTINUOUS
10
0.304682
20
0.381388
11
0.304507
21
0.381373
0
LINE
8
BLACK
6
CONTINUOUS
10
0.304507
20
0.381373
11
0.304368
21
0.381263
0
LINE
8
BLACK
6
CONTINUOUS
10
0.304368
20
0.381263
11
0.298744
21
0.379389
0
LINE
8
BLACK
6
CONTINUOUS
10
0.298744
20
0.379389
11
0.297871
21
0.379259
0
LINE
8
BLACK
6
CONTINUOUS
10
0.297871
20
0.379259
11
0.29781
21
0.379237
0
LINE
8
BLACK
6
CONTINUOUS
10
0.29781
20
0.379237
11
0.294061
21
0.379237
0
LINE
8
BLACK
6
CONTINUOUS
10
0.294061
20
0.379237
11
0.293191
21
0.37939
0
LINE
8
BLACK
6
CONTINUOUS
10
0.293191
20
0.37939
11
0.293127
21
0.379389
0
LINE
8
BLACK
6
CONTINUOUS
10
0.293127
20
0.379389
11
0.287503
21
0.381263
0
LINE
8
BLACK
6
CONTINUOUS
10
0.287503
20
0.381263
11
0.286601
21
0.381752
0
LINE
8
BLACK
6
CONTINUOUS
10
0.286601
20
0.381752
11
0.286509
21
0.381902
0
LINE
8
BLACK
6
CONTINUOUS
10
0.286509
20
0.381902
11
0.286349
21
0.381977
0
LINE
8
BLACK
6
CONTINUOUS
10
0.286349
20
0.381977
11
0.284474
21
0.383851
0
LINE
8
BLACK
6
CONTINUOUS
10
0.284474
20
0.383851
11
0.283886
21
0.384691
0
LINE
8
BLACK
6
CONTINUOUS
10
0.283886
20
0.384691
11
0.283709
21
0.386704
0
LINE
8
BLACK
6
CONTINUOUS
10
0.283709
20
0.386704
11
0.284868
21
0.388358
0
LINE
8
BLACK
6
CONTINUOUS
10
0.284868
20
0.388358
11
0.286819
21
0.388881
0
LINE
8
BLACK
6
CONTINUOUS
10
0.286819
20
0.388881
11
0.28865
21
0.388027
0
LINE
8
BLACK
6
CONTINUOUS
10
0.28865
20
0.388027
11
0.290031
21
0.386645
0
LINE
8
BLACK
6
CONTINUOUS
10
0.290031
20
0.386645
11
0.29454
21
0.385143
0
LINE
8
BLACK
6
CONTINUOUS
10
0.29454
20
0.385143
11
0.297331
21
0.385143
0
LINE
8
BLACK
6
CONTINUOUS
10
0.297331
20
0.385143
11
0.30184
21
0.386645
0
LINE
8
BLACK
6
CONTINUOUS
10
0.30184
20
0.386645
11
0.304757
21
0.389563
0
LINE
8
BLACK
6
CONTINUOUS
10
0.304757
20
0.389563
11
0.306273
21
0.392594
0
LINE
8
BLACK
6
CONTINUOUS
10
0.306273
20
0.392594
11
0.307981
21
0.399426
0
LINE
8
BLACK
6
CONTINUOUS
10
0.307981
20
0.399426
11
0.307981
21
0.404323
0
LINE
8
BLACK
6
CONTINUOUS
10
0.307981
20
0.404323
11
0.306273
21
0.411155
0
LINE
8
BLACK
6
CONTINUOUS
10
0.306273
20
0.411155
11
0.304757
21
0.414186
0
LINE
8
BLACK
6
CONTINUOUS
10
0.304757
20
0.414186
11
0.30184
21
0.417104
0
LINE
8
BLACK
6
CONTINUOUS
10
0.30184
20
0.417104
11
0.297331
21
0.418607
0
LINE
8
BLACK
6
CONTINUOUS
10
0.297331
20
0.418607
11
0.29454
21
0.418607
0
LINE
8
BLACK
6
CONTINUOUS
10
0.29454
20
0.418607
11
0.290031
21
0.417104
0
LINE
8
BLACK
6
CONTINUOUS
10
0.290031
20
0.417104
11
0.28865
21
0.415722
0
LINE
8
BLACK
6
CONTINUOUS
10
0.28865
20
0.415722
11
0.28781
21
0.415134
0
LINE
8
BLACK
6
CONTINUOUS
10
0.28781
20
0.415134
11
0.285797
21
0.414958
0
LINE
8
BLACK
6
CONTINUOUS
10
0.285797
20
0.414958
11
0.284143
21
0.416117
0
LINE
8
BLACK
6
CONTINUOUS
10
0.284143
20
0.416117
11
0.28362
21
0.418068
0
LINE
8
BLACK
6
CONTINUOUS
10
0.28362
20
0.418068
11
0.284474
21
0.419898
0
LINE
8
BLACK
6
CONTINUOUS
10
0.284474
20
0.419898
11
0.286349
21
0.421773
0
LINE
8
BLACK
6
CONTINUOUS
10
0.286349
20
0.421773
11
0.287189
21
0.422361
0
LINE
8
BLACK
6
CONTINUOUS
10
0.287189
20
0.422361
11
0.287364
21
0.422377
0
LINE
8
BLACK
6
CONTINUOUS
10
0.287364
20
0.422377
11
0.287503
21
0.422486
0
LINE
8
BLACK
6
CONTINUOUS
10
0.287503
20
0.422486
11
0.293127
21
0.424361
0
LINE
8
BLACK
6
CONTINUOUS
10
0.293127
20
0.424361
11
0.294
21
0.424491
0
LINE
8
BLACK
6
CONTINUOUS
10
0.294
20
0.424491
11
0.294061
21
0.424513
0
LINE
8
BLACK
6
CONTINUOUS
10
0.294061
20
0.424513
11
0.29781
21
0.424513
0
LINE
8
BLACK
6
CONTINUOUS
10
0.29781
20
0.424513
11
0.29868
21
0.424359
0
LINE
8
BLACK
6
CONTINUOUS
10
0.274448
20
0.424335
11
0.275995
21
0.423036
0
LINE
8
BLACK
6
CONTINUOUS
10
0.275995
20
0.423036
11
0.276346
21
0.421047
0
LINE
8
BLACK
6
CONTINUOUS
10
0.276346
20
0.421047
11
0.275336
21
0.419298
0
LINE
8
BLACK
6
CONTINUOUS
10
0.275336
20
0.419298
11
0.273438
21
0.418607
0
LINE
8
BLACK
6
CONTINUOUS
10
0.273438
20
0.418607
11
0.255574
21
0.418607
0
LINE
8
BLACK
6
CONTINUOUS
10
0.255574
20
0.418607
11
0.264412
21
0.408506
0
LINE
8
BLACK
6
CONTINUOUS
10
0.264412
20
0.408506
11
0.264642
21
0.408126
0
LINE
8
BLACK
6
CONTINUOUS
10
0.264642
20
0.408126
11
0.264747
21
0.408038
0
LINE
8
BLACK
6
CONTINUOUS
10
0.264747
20
0.408038
11
0.264768
21
0.407918
0
LINE
8
BLACK
6
CONTINUOUS
10
0.264768
20
0.407918
11
0.264943
21
0.407629
0
LINE
8
BLACK
6
CONTINUOUS
10
0.264943
20
0.407629
11
0.264959
21
0.406833
0
LINE
8
BLACK
6
CONTINUOUS
10
0.264959
20
0.406833
11
0.265098
21
0.406049
0
LINE
8
BLACK
6
CONTINUOUS
10
0.265098
20
0.406049
11
0.26498
21
0.405845
0
LINE
8
BLACK
6
CONTINUOUS
10
0.26498
20
0.405845
11
0.264985
21
0.405609
0
LINE
8
BLACK
6
CONTINUOUS
10
0.264985
20
0.405609
11
0.264486
21
0.404989
0
LINE
8
BLACK
6
CONTINUOUS
10
0.264486
20
0.404989
11
0.264088
21
0.4043
0
LINE
8
BLACK
6
CONTINUOUS
10
0.264088
20
0.4043
11
0.263866
21
0.404219
0
LINE
8
BLACK
6
CONTINUOUS
10
0.263866
20
0.404219
11
0.263719
21
0.404036
0
LINE
8
BLACK
6
CONTINUOUS
10
0.263719
20
0.404036
11
0.262938
21
0.403881
0
LINE
8
BLACK
6
CONTINUOUS
10
0.262938
20
0.403881
11
0.26219
21
0.403609
0
LINE
8
BLACK
6
CONTINUOUS
10
0.26219
20
0.403609
11
0.257262
21
0.403609
0
LINE
8
BLACK
6
CONTINUOUS
10
0.257262
20
0.403609
11
0.254565
21
0.40226
0
LINE
8
BLACK
6
CONTINUOUS
10
0.254565
20
0.40226
11
0.253368
21
0.401063
0
LINE
8
BLACK
6
CONTINUOUS
10
0.253368
20
0.401063
11
0.252019
21
0.398366
0
LINE
8
BLACK
6
CONTINUOUS
10
0.252019
20
0.398366
11
0.252019
21
0.390386
0
LINE
8
BLACK
6
CONTINUOUS
10
0.252019
20
0.390386
11
0.253368
21
0.387688
0
LINE
8
BLACK
6
CONTINUOUS
10
0.253368
20
0.387688
11
0.254565
21
0.386491
0
LINE
8
BLACK
6
CONTINUOUS
10
0.254565
20
0.386491
11
0.257262
21
0.385143
0
LINE
8
BLACK
6
CONTINUOUS
10
0.257262
20
0.385143
11
0.267117
21
0.385143
0
LINE
8
BLACK
6
CONTINUOUS
10
0.267117
20
0.385143
11
0.269814
21
0.386491
0
LINE
8
BLACK
6
CONTINUOUS
10
0.269814
20
0.386491
11
0.27135
21
0.388027
0
LINE
8
BLACK
6
CONTINUOUS
10
0.27135
20
0.388027
11
0.27219
21
0.388615
0
LINE
8
BLACK
6
CONTINUOUS
10
0.27219
20
0.388615
11
0.274203
21
0.388791
0
LINE
8
BLACK
6
CONTINUOUS
10
0.274203
20
0.388791
11
0.275857
21
0.387633
0
LINE
8
BLACK
6
CONTINUOUS
10
0.275857
20
0.387633
11
0.27638
21
0.385682
0
LINE
8
BLACK
6
CONTINUOUS
10
0.27638
20
0.385682
11
0.275526
21
0.383851
0
LINE
8
BLACK
6
CONTINUOUS
10
0.275526
20
0.383851
11
0.273651
21
0.381977
0
LINE
8
BLACK
6
CONTINUOUS
10
0.273651
20
0.381977
11
0.272928
21
0.38147
0
LINE
8
BLACK
6
CONTINUOUS
10
0.272928
20
0.38147
11
0.272884
21
0.381424
0
LINE
8
BLACK
6
CONTINUOUS
10
0.272884
20
0.381424
11
0.269135
21
0.379549
0
LINE
8
BLACK
6
CONTINUOUS
10
0.269135
20
0.379549
11
0.268152
21
0.379256
0
LINE
8
BLACK
6
CONTINUOUS
10
0.268152
20
0.379256
11
0.26798
21
0.379297
0
LINE
8
BLACK
6
CONTINUOUS
10
0.26798
20
0.379297
11
0.267814
21
0.379237
0
LINE
8
BLACK
6
CONTINUOUS
10
0.267814
20
0.379237
11
0.256565
21
0.379237
0
LINE
8
BLACK
6
CONTINUOUS
10
0.256565
20
0.379237
11
0.255555
21
0.379415
0
LINE
8
BLACK
6
CONTINUOUS
10
0.255555
20
0.379415
11
0.25542
21
0.379529
0
LINE
8
BLACK
6
CONTINUOUS
10
0.25542
20
0.379529
11
0.255245
21
0.379549
0
LINE
8
BLACK
6
CONTINUOUS
10
0.255245
20
0.379549
11
0.251495
21
0.381424
0
LINE
8
BLACK
6
CONTINUOUS
10
0.251495
20
0.381424
11
0.250786
21
0.381949
0
LINE
8
BLACK
6
CONTINUOUS
10
0.250786
20
0.381949
11
0.250728
21
0.381977
0
LINE
8
BLACK
6
CONTINUOUS
10
0.250728
20
0.381977
11
0.248853
21
0.383851
0
LINE
8
BLACK
6
CONTINUOUS
10
0.248853
20
0.383851
11
0.248347
21
0.384574
0
LINE
8
BLACK
6
CONTINUOUS
10
0.248347
20
0.384574
11
0.2483
21
0.384619
0
LINE
8
BLACK
6
CONTINUOUS
10
0.2483
20
0.384619
11
0.246425
21
0.388368
0
LINE
8
BLACK
6
CONTINUOUS
10
0.246425
20
0.388368
11
0.246133
21
0.389351
0
LINE
8
BLACK
6
CONTINUOUS
10
0.246133
20
0.389351
11
0.246174
21
0.389523
0
LINE
8
BLACK
6
CONTINUOUS
10
0.246174
20
0.389523
11
0.246114
21
0.389689
0
LINE
8
BLACK
6
CONTINUOUS
10
0.246114
20
0.389689
11
0.246114
21
0.399063
0
LINE
8
BLACK
6
CONTINUOUS
10
0.246114
20
0.399063
11
0.246292
21
0.400073
0
LINE
8
BLACK
6
CONTINUOUS
10
0.246292
20
0.400073
11
0.246405
21
0.400208
0
LINE
8
BLACK
6
CONTINUOUS
10
0.246405
20
0.400208
11
0.246425
21
0.400383
0
LINE
8
BLACK
6
CONTINUOUS
10
0.246425
20
0.400383
11
0.2483
21
0.404133
0
LINE
8
BLACK
6
CONTINUOUS
10
0.2483
20
0.404133
11
0.248826
21
0.404842
0
LINE
8
BLACK
6
CONTINUOUS
10
0.248826
20
0.404842
11
0.248853
21
0.4049
0
LINE
8
BLACK
6
CONTINUOUS
10
0.248853
20
0.4049
11
0.250728
21
0.406775
0
LINE
8
BLACK
6
CONTINUOUS
10
0.250728
20
0.406775
11
0.251451
21
0.407281
0
LINE
8
BLACK
6
CONTINUOUS
10
0.251451
20
0.407281
11
0.251495
21
0.407328
0
LINE
8
BLACK
6
CONTINUOUS
10
0.251495
20
0.407328
11
0.255245
21
0.409203
0
LINE
8
BLACK
6
CONTINUOUS
10
0.255245
20
0.409203
11
0.255809
21
0.40937
0
LINE
8
BLACK
6
CONTINUOUS
10
0.255809
20
0.40937
11
0.246844
21
0.419615
0
LINE
8
BLACK
6
CONTINUOUS
10
0.246844
20
0.419615
11
0.246614
21
0.419995
0
LINE
8
BLACK
6
CONTINUOUS
10
0.246614
20
0.419995
11
0.246509
21
0.420083
0
LINE
8
BLACK
6
CONTINUOUS
10
0.246509
20
0.420083
11
0.246488
21
0.420204
0
LINE
8
BLACK
6
CONTINUOUS
10
0.246488
20
0.420204
11
0.246313
21
0.420493
0
LINE
8
BLACK
6
CONTINUOUS
10
0.246313
20
0.420493
11
0.246297
21
0.421289
0
LINE
8
BLACK
6
CONTINUOUS
10
0.246297
20
0.421289
11
0.246158
21
0.422073
0
LINE
8
BLACK
6
CONTINUOUS
10
0.246158
20
0.422073
11
0.246276
21
0.422277
0
LINE
8
BLACK
6
CONTINUOUS
10
0.246276
20
0.422277
11
0.246271
21
0.422512
0
LINE
8
BLACK
6
CONTINUOUS
10
0.246271
20
0.422512
11
0.24677
21
0.423132
0
LINE
8
BLACK
6
CONTINUOUS
10
0.24677
20
0.423132
11
0.247168
21
0.423822
0
LINE
8
BLACK
6
CONTINUOUS
10
0.247168
20
0.423822
11
0.24739
21
0.423902
0
LINE
8
BLACK
6
CONTINUOUS
10
0.24739
20
0.423902
11
0.247537
21
0.424086
0
LINE
8
BLACK
6
CONTINUOUS
10
0.247537
20
0.424086
11
0.248318
21
0.42424
0
LINE
8
BLACK
6
CONTINUOUS
10
0.248318
20
0.42424
11
0.249066
21
0.424513
0
LINE
8
BLACK
6
CONTINUOUS
10
0.249066
20
0.424513
11
0.273438
21
0.424513
0
LINE
8
BLACK
6
CONTINUOUS
10
0.273438
20
0.424513
11
0.274448
21
0.424335
0
LINE
8
BLACK
6
CONTINUOUS
10
0.623733
20
0.41061
11
0.624425
21
0.40894
0
LINE
8
BLACK
6
CONTINUOUS
10
0.624425
20
0.40894
11
0.624425
21
0.39106
0
LINE
8
BLACK
6
CONTINUOUS
10
0.624425
20
0.39106
11
0.623733
21
0.38939
0
LINE
8
BLACK
6
CONTINUOUS
10
0.623733
20
0.38939
11
0.622063
21
0.388698
0
LINE
8
BLACK
6
CONTINUOUS
10
0.622063
20
0.388698
11
0.620393
21
0.38939
0
LINE
8
BLACK
6
CONTINUOUS
10
0.620393
20
0.38939
11
0.619701
21
0.39106
0
LINE
8
BLACK
6
CONTINUOUS
10
0.619701
20
0.39106
11
0.619701
21
0.40894
0
LINE
8
BLACK
6
CONTINUOUS
10
0.619701
20
0.40894
11
0.620393
21
0.41061
0
LINE
8
BLACK
6
CONTINUOUS
10
0.620393
20
0.41061
11
0.622063
21
0.411302
0
LINE
8
BLACK
6
CONTINUOUS
10
0.622063
20
0.411302
11
0.623733
21
0.41061
0
LINE
8
BLACK
6
CONTINUOUS
10
0.681607
20
0.41061
11
0.682299
21
0.40894
0
LINE
8
BLACK
6
CONTINUOUS
10
0.682299
20
0.40894
11
0.682299
21
0.39106
0
LINE
8
BLACK
6
CONTINUOUS
10
0.682299
20
0.39106
11
0.681607
21
0.38939
0
LINE
8
BLACK
6
CONTINUOUS
10
0.681607
20
0.38939
11
0.679937
21
0.388698
0
LINE
8
BLACK
6
CONTINUOUS
10
0.679937
20
0.388698
11
0.678267
21
0.38939
0
LINE
8
BLACK
6
CONTINUOUS
10
0.678267
20
0.38939
11
0.677575
21
0.39106
0
LINE
8
BLACK
6
CONTINUOUS
10
0.677575
20
0.39106
11
0.677575
21
0.40894
0
LINE
8
BLACK
6
CONTINUOUS
10
0.677575
20
0.40894
11
0.678267
21
0.41061
0
LINE
8
BLACK
6
CONTINUOUS
10
0.678267
20
0.41061
11
0.679937
21
0.411302
0
LINE
8
BLACK
6
CONTINUOUS
10
0.679937
20
0.411302
11
0.681607
21
0.41061
0
LINE
8
BLACK
6
CONTINUOUS
10
0.401956
20
0.430607
11
0.402648
21
0.428937
0
LINE
8
BLACK
6
CONTINUOUS
10
0.402648
20
0.428937
11
0.401956
21
0.427267
0
LINE
8
BLACK
6
CONTINUOUS
10
0.401956
20
0.427267
11
0.400286
21
0.426575
0
LINE
8
BLACK
6
CONTINUOUS
10
0.400286
20
0.426575
11
0.379714
21
0.426575
0
LINE
8
BLACK
6
CONTINUOUS
10
0.379714
20
0.426575
11
0.378044
21
0.427267
0
LINE
8
BLACK
6
CONTINUOUS
10
0.378044
20
0.427267
11
0.377352
21
0.428937
0
LINE
8
BLACK
6
CONTINUOUS
10
0.377352
20
0.428937
11
0.378044
21
0.430607
0
LINE
8
BLACK
6
CONTINUOUS
10
0.378044
20
0.430607
11
0.379714
21
0.431299
0
LINE
8
BLACK
6
CONTINUOUS
10
0.379714
20
0.431299
11
0.400286
21
0.431299
0
LINE
8
BLACK
6
CONTINUOUS
10
0.400286
20
0.431299
11
0.401956
21
0.430607
0
LINE
8
BLACK
6
CONTINUOUS
10
0.326631
20
0.735529
11
0.327323
21
0.733858
0
LINE
8
BLACK
6
CONTINUOUS
10
0.327323
20
0.733858
11
0.327323
21
0.52126
0
LINE
8
BLACK
6
CONTINUOUS
10
0.327323
20
0.52126
11
0.326631
21
0.51959
0
LINE
8
BLACK
6
CONTINUOUS
10
0.326631
20
0.51959
11
0.324961
21
0.518898
0
LINE
8
BLACK
6
CONTINUOUS
10
0.324961
20
0.518898
11
0.32329
21
0.51959
0
LINE
8
BLACK
6
CONTINUOUS
10
0.32329
20
0.51959
11
0.322598
21
0.52126
0
LINE
8
BLACK
6
CONTINUOUS
10
0.322598
20
0.52126
11
0.322598
21
0.731496
0
LINE
8
BLACK
6
CONTINUOUS
10
0.322598
20
0.731496
11
0.197402
21
0.731496
0
LINE
8
BLACK
6
CONTINUOUS
10
0.197402
20
0.731496
11
0.197402
21
0.52126
0
LINE
8
BLACK
6
CONTINUOUS
10
0.197402
20
0.52126
11
0.19671
21
0.51959
0
LINE
8
BLACK
6
CONTINUOUS
10
0.19671
20
0.51959
11
0.195039
21
0.518898
0
LINE
8
BLACK
6
CONTINUOUS
10
0.195039
20
0.518898
11
0.193369
21
0.51959
0
LINE
8
BLACK
6
CONTINUOUS
10
0.193369
20
0.51959
11
0.192677
21
0.52126
0
LINE
8
BLACK
6
CONTINUOUS
10
0.192677
20
0.52126
11
0.192677
21
0.733858
0
LINE
8
BLACK
6
CONTINUOUS
10
0.192677
20
0.733858
11
0.193369
21
0.735529
0
LINE
8
BLACK
6
CONTINUOUS
10
0.193369
20
0.735529
11
0.195039
21
0.73622
0
LINE
8
BLACK
6
CONTINUOUS
10
0.195039
20
0.73622
11
0.324961
21
0.73622
0
LINE
8
BLACK
6
CONTINUOUS
10
0.324961
20
0.73622
11
0.326631
21
0.735529
0
LINE
8
BLACK
6
CONTINUOUS
10
0.582733
20
0.571956
11
0.583425
21
0.570286
0
LINE
8
BLACK
6
CONTINUOUS
10
0.583425
20
0.570286
11
0.583425
21
0.549714
0
LINE
8
BLACK
6
CONTINUOUS
10
0.583425
20
0.549714
11
0.582733
21
0.548044
0
LINE
8
BLACK
6
CONTINUOUS
10
0.582733
20
0.548044
11
0.581063
21
0.547352
0
LINE
8
BLACK
6
CONTINUOUS
10
0.581063
20
0.547352
11
0.579393
21
0.548044
0
LINE
8
BLACK
6
CONTINUOUS
10
0.579393
20
0.548044
11
0.578701
21
0.549714
0
LINE
8
BLACK
6
CONTINUOUS
10
0.578701
20
0.549714
11
0.578701
21
0.570286
0
LINE
8
BLACK
6
CONTINUOUS
10
0.578701
20
0.570286
11
0.579393
21
0.571956
0
LINE
8
BLACK
6
CONTINUOUS
10
0.579393
20
0.571956
11
0.581063
21
0.572648
0
LINE
8
BLACK
6
CONTINUOUS
10
0.581063
20
0.572648
11
0.582733
21
0.571956
0
LINE
8
BLACK
6
CONTINUOUS
10
0.640607
20
0.571956
11
0.641299
21
0.570286
0
LINE
8
BLACK
6
CONTINUOUS
10
0.641299
20
0.570286
11
0.641299
21
0.549714
0
LINE
8
BLACK
6
CONTINUOUS
10
0.641299
20
0.549714
11
0.640607
21
0.548044
0
LINE
8
BLACK
6
CONTINUOUS
10
0.640607
20
0.548044
11
0.638937
21
0.547352
0
LINE
8
BLACK
6
CONTINUOUS
10
0.638937
20
0.547352
11
0.637267
21
0.548044
0
LINE
8
BLACK
6
CONTINUOUS
10
0.637267
20
0.548044
11
0.636575
21
0.549714
0
LINE
8
BLACK
6
CONTINUOUS
10
0.636575
20
0.549714
11
0.636575
21
0.570286
0
LINE
8
BLACK
6
CONTINUOUS
10
0.636575
20
0.570286
11
0.637267
21
0.571956
0
LINE
8
BLACK
6
CONTINUOUS
10
0.637267
20
0.571956
11
0.638937
21
0.572648
0
LINE
8
BLACK
6
CONTINUOUS
10
0.638937
20
0.572648
11
0.640607
21
0.571956
0
LINE
8
BLACK
6
CONTINUOUS
10
0.153023
20
0.593935
11
0.154136
21
0.59225
0
LINE
8
BLACK
6
CONTINUOUS
10
0.154136
20
0.59225
11
0.153905
21
0.590243
0
LINE
8
BLACK
6
CONTINUOUS
10
0.153905
20
0.590243
11
0.15203
21
0.586494
0
LINE
8
BLACK
6
CONTINUOUS
10
0.15203
20
0.586494
11
0.151504
21
0.585784
0
LINE
8
BLACK
6
CONTINUOUS
10
0.151504
20
0.585784
11
0.151477
21
0.585726
0
LINE
8
BLACK
6
CONTINUOUS
10
0.151477
20
0.585726
11
0.149018
21
0.583268
0
LINE
8
BLACK
6
CONTINUOUS
10
0.149018
20
0.583268
11
0.176432
21
0.583268
0
LINE
8
BLACK
6
CONTINUOUS
10
0.176432
20
0.583268
11
0.176432
21
0.591564
0
LINE
8
BLACK
6
CONTINUOUS
10
0.176432
20
0.591564
11
0.17661
21
0.592574
0
LINE
8
BLACK
6
CONTINUOUS
10
0.17661
20
0.592574
11
0.177909
21
0.594121
0
LINE
8
BLACK
6
CONTINUOUS
10
0.177909
20
0.594121
11
0.179898
21
0.594471
0
LINE
8
BLACK
6
CONTINUOUS
10
0.179898
20
0.594471
11
0.181647
21
0.593462
0
LINE
8
BLACK
6
CONTINUOUS
10
0.181647
20
0.593462
11
0.182338
21
0.591564
0
LINE
8
BLACK
6
CONTINUOUS
10
0.182338
20
0.591564
11
0.182338
21
0.569066
0
LINE
8
BLACK
6
CONTINUOUS
10
0.182338
20
0.569066
11
0.18216
21
0.568056
0
LINE
8
BLACK
6
CONTINUOUS
10
0.18216
20
0.568056
11
0.180861
21
0.566509
0
LINE
8
BLACK
6
CONTINUOUS
10
0.180861
20
0.566509
11
0.178872
21
0.566158
0
LINE
8
BLACK
6
CONTINUOUS
10
0.178872
20
0.566158
11
0.177123
21
0.567168
0
LINE
8
BLACK
6
CONTINUOUS
10
0.177123
20
0.567168
11
0.176432
21
0.569066
0
LINE
8
BLACK
6
CONTINUOUS
10
0.176432
20
0.569066
11
0.176432
21
0.577362
0
LINE
8
BLACK
6
CONTINUOUS
10
0.176432
20
0.577362
11
0.140015
21
0.577362
0
LINE
8
BLACK
6
CONTINUOUS
10
0.140015
20
0.577362
11
0.139005
21
0.57754
0
LINE
8
BLACK
6
CONTINUOUS
10
0.139005
20
0.57754
11
0.138875
21
0.577649
0
LINE
8
BLACK
6
CONTINUOUS
10
0.138875
20
0.577649
11
0.138706
21
0.577668
0
LINE
8
BLACK
6
CONTINUOUS
10
0.138706
20
0.577668
11
0.138114
21
0.578288
0
LINE
8
BLACK
6
CONTINUOUS
10
0.138114
20
0.578288
11
0.137458
21
0.578839
0
LINE
8
BLACK
6
CONTINUOUS
10
0.137458
20
0.578839
11
0.137428
21
0.579006
0
LINE
8
BLACK
6
CONTINUOUS
10
0.137428
20
0.579006
11
0.137311
21
0.579129
0
LINE
8
BLACK
6
CONTINUOUS
10
0.137311
20
0.579129
11
0.137256
21
0.579984
0
LINE
8
BLACK
6
CONTINUOUS
10
0.137256
20
0.579984
11
0.137107
21
0.580828
0
LINE
8
BLACK
6
CONTINUOUS
10
0.137107
20
0.580828
11
0.137192
21
0.580975
0
LINE
8
BLACK
6
CONTINUOUS
10
0.137192
20
0.580975
11
0.137181
21
0.581144
0
LINE
8
BLACK
6
CONTINUOUS
10
0.137181
20
0.581144
11
0.137689
21
0.581835
0
LINE
8
BLACK
6
CONTINUOUS
10
0.137689
20
0.581835
11
0.138117
21
0.582577
0
LINE
8
BLACK
6
CONTINUOUS
10
0.138117
20
0.582577
11
0.138276
21
0.582635
0
LINE
8
BLACK
6
CONTINUOUS
10
0.138276
20
0.582635
11
0.138377
21
0.582772
0
LINE
8
BLACK
6
CONTINUOUS
10
0.138377
20
0.582772
11
0.143758
21
0.586359
0
LINE
8
BLACK
6
CONTINUOUS
10
0.143758
20
0.586359
11
0.146962
21
0.589563
0
LINE
8
BLACK
6
CONTINUOUS
10
0.146962
20
0.589563
11
0.148623
21
0.592884
0
LINE
8
BLACK
6
CONTINUOUS
10
0.148623
20
0.592884
11
0.149233
21
0.593708
0
LINE
8
BLACK
6
CONTINUOUS
10
0.149233
20
0.593708
11
0.151087
21
0.594511
0
LINE
8
BLACK
6
CONTINUOUS
10
0.151087
20
0.594511
11
0.153023
21
0.593935
0
LINE
8
BLACK
6
CONTINUOUS
10
0.179769
20
0.631944
11
0.179898
21
0.631967
0
LINE
8
BLACK
6
CONTINUOUS
10
0.179898
20
0.631967
11
0.180011
21
0.631901
0
LINE
8
BLACK
6
CONTINUOUS
10
0.180011
20
0.631901
11
0.180395
21
0.631834
0
LINE
8
BLACK
6
CONTINUOUS
10
0.180395
20
0.631834
11
0.180983
21
0.63134
0
LINE
8
BLACK
6
CONTINUOUS
10
0.180983
20
0.63134
11
0.181647
21
0.630957
0
LINE
8
BLACK
6
CONTINUOUS
10
0.181647
20
0.630957
11
0.181738
21
0.630707
0
LINE
8
BLACK
6
CONTINUOUS
10
0.181738
20
0.630707
11
0.181942
21
0.630535
0
LINE
8
BLACK
6
CONTINUOUS
10
0.181942
20
0.630535
11
0.182075
21
0.62978
0
LINE
8
BLACK
6
CONTINUOUS
10
0.182075
20
0.62978
11
0.182338
21
0.629059
0
LINE
8
BLACK
6
CONTINUOUS
10
0.182338
20
0.629059
11
0.182338
21
0.619685
0
LINE
8
BLACK
6
CONTINUOUS
10
0.182338
20
0.619685
11
0.182184
21
0.618816
0
LINE
8
BLACK
6
CONTINUOUS
10
0.182184
20
0.618816
11
0.182186
21
0.618751
0
LINE
8
BLACK
6
CONTINUOUS
10
0.182186
20
0.618751
11
0.180311
21
0.613127
0
LINE
8
BLACK
6
CONTINUOUS
10
0.180311
20
0.613127
11
0.179823
21
0.612225
0
LINE
8
BLACK
6
CONTINUOUS
10
0.179823
20
0.612225
11
0.179673
21
0.612133
0
LINE
8
BLACK
6
CONTINUOUS
10
0.179673
20
0.612133
11
0.179598
21
0.611973
0
LINE
8
BLACK
6
CONTINUOUS
10
0.179598
20
0.611973
11
0.175849
21
0.608223
0
LINE
8
BLACK
6
CONTINUOUS
10
0.175849
20
0.608223
11
0.175126
21
0.607717
0
LINE
8
BLACK
6
CONTINUOUS
10
0.175126
20
0.607717
11
0.175081
21
0.60767
0
LINE
8
BLACK
6
CONTINUOUS
10
0.175081
20
0.60767
11
0.171332
21
0.605795
0
LINE
8
BLACK
6
CONTINUOUS
10
0.171332
20
0.605795
11
0.170843
21
0.60565
0
LINE
8
BLACK
6
CONTINUOUS
10
0.170843
20
0.60565
11
0.170727
21
0.605572
0
LINE
8
BLACK
6
CONTINUOUS
10
0.170727
20
0.605572
11
0.163228
21
0.603697
0
LINE
8
BLACK
6
CONTINUOUS
10
0.163228
20
0.603697
11
0.16264
21
0.603656
0
LINE
8
BLACK
6
CONTINUOUS
10
0.16264
20
0.603656
11
0.162512
21
0.603609
0
LINE
8
BLACK
6
CONTINUOUS
10
0.162512
20
0.603609
11
0.156888
21
0.603609
0
LINE
8
BLACK
6
CONTINUOUS
10
0.156888
20
0.603609
11
0.156307
21
0.603711
0
LINE
8
BLACK
6
CONTINUOUS
10
0.156307
20
0.603711
11
0.156172
21
0.603697
0
LINE
8
BLACK
6
CONTINUOUS
10
0.156172
20
0.603697
11
0.148673
21
0.605572
0
LINE
8
BLACK
6
CONTINUOUS
10
0.148673
20
0.605572
11
0.148207
21
0.605779
0
LINE
8
BLACK
6
CONTINUOUS
10
0.148207
20
0.605779
11
0.148068
21
0.605795
0
LINE
8
BLACK
6
CONTINUOUS
10
0.148068
20
0.605795
11
0.144319
21
0.60767
0
LINE
8
BLACK
6
CONTINUOUS
10
0.144319
20
0.60767
11
0.14361
21
0.608196
0
LINE
8
BLACK
6
CONTINUOUS
10
0.14361
20
0.608196
11
0.143551
21
0.608223
0
LINE
8
BLACK
6
CONTINUOUS
10
0.143551
20
0.608223
11
0.139802
21
0.611973
0
LINE
8
BLACK
6
CONTINUOUS
10
0.139802
20
0.611973
11
0.139214
21
0.612813
0
LINE
8
BLACK
6
CONTINUOUS
10
0.139214
20
0.612813
11
0.139198
21
0.612989
0
LINE
8
BLACK
6
CONTINUOUS
10
0.139198
20
0.612989
11
0.139089
21
0.613127
0
LINE
8
BLACK
6
CONTINUOUS
10
0.139089
20
0.613127
11
0.137214
21
0.618751
0
LINE
8
BLACK
6
CONTINUOUS
10
0.137214
20
0.618751
11
0.137084
21
0.619624
0
LINE
8
BLACK
6
CONTINUOUS
10
0.137084
20
0.619624
11
0.137062
21
0.619685
0
LINE
8
BLACK
6
CONTINUOUS
10
0.137062
20
0.619685
11
0.137062
21
0.629059
0
LINE
8
BLACK
6
CONTINUOUS
10
0.137062
20
0.629059
11
0.13713
21
0.629442
0
LINE
8
BLACK
6
CONTINUOUS
10
0.13713
20
0.629442
11
0.137107
21
0.629572
0
LINE
8
BLACK
6
CONTINUOUS
10
0.137107
20
0.629572
11
0.137173
21
0.629685
0
LINE
8
BLACK
6
CONTINUOUS
10
0.137173
20
0.629685
11
0.13724
21
0.630069
0
LINE
8
BLACK
6
CONTINUOUS
10
0.13724
20
0.630069
11
0.137733
21
0.630656
0
LINE
8
BLACK
6
CONTINUOUS
10
0.137733
20
0.630656
11
0.138117
21
0.631321
0
LINE
8
BLACK
6
CONTINUOUS
10
0.138117
20
0.631321
11
0.138367
21
0.631412
0
LINE
8
BLACK
6
CONTINUOUS
10
0.138367
20
0.631412
11
0.138539
21
0.631616
0
LINE
8
BLACK
6
CONTINUOUS
10
0.138539
20
0.631616
11
0.139294
21
0.631749
0
LINE
8
BLACK
6
CONTINUOUS
10
0.139294
20
0.631749
11
0.140015
21
0.632012
0
LINE
8
BLACK
6
CONTINUOUS
10
0.140015
20
0.632012
11
0.179385
21
0.632012
0
LINE
8
BLACK
6
CONTINUOUS
10
0.179385
20
0.632012
11
0.179769
21
0.631944
0
LINE
8
BLACK
6
CONTINUOUS
10
0.142968
20
0.626106
11
0.142968
21
0.620164
0
LINE
8
BLACK
6
CONTINUOUS
10
0.142968
20
0.620164
11
0.144471
21
0.615656
0
LINE
8
BLACK
6
CONTINUOUS
10
0.144471
20
0.615656
11
0.147388
21
0.612738
0
LINE
8
BLACK
6
CONTINUOUS
10
0.147388
20
0.612738
11
0.150419
21
0.611222
0
LINE
8
BLACK
6
CONTINUOUS
10
0.150419
20
0.611222
11
0.157251
21
0.609514
0
LINE
8
BLACK
6
CONTINUOUS
10
0.157251
20
0.609514
11
0.162149
21
0.609514
0
LINE
8
BLACK
6
CONTINUOUS
10
0.162149
20
0.609514
11
0.168981
21
0.611222
0
LINE
8
BLACK
6
CONTINUOUS
10
0.168981
20
0.611222
11
0.172012
21
0.612738
0
LINE
8
BLACK
6
CONTINUOUS
10
0.172012
20
0.612738
11
0.174929
21
0.615656
0
LINE
8
BLACK
6
CONTINUOUS
10
0.174929
20
0.615656
11
0.176432
21
0.620164
0
LINE
8
BLACK
6
CONTINUOUS
10
0.176432
20
0.620164
11
0.176432
21
0.626106
0
LINE
8
BLACK
6
CONTINUOUS
10
0.176432
20
0.626106
11
0.142968
21
0.626106
0
LINE
8
BLACK
6
CONTINUOUS
10
0.601448
20
0.663935
11
0.602561
21
0.66225
0
LINE
8
BLACK
6
CONTINUOUS
10
0.602561
20
0.66225
11
0.60233
21
0.660243
0
LINE
8
BLACK
6
CONTINUOUS
10
0.60233
20
0.660243
11
0.600455
21
0.656494
0
LINE
8
BLACK
6
CONTINUOUS
10
0.600455
20
0.656494
11
0.599929
21
0.655784
0
LINE
8
BLACK
6
CONTINUOUS
10
0.599929
20
0.655784
11
0.599902
21
0.655726
0
LINE
8
BLACK
6
CONTINUOUS
10
0.599902
20
0.655726
11
0.597444
21
0.653268
0
LINE
8
BLACK
6
CONTINUOUS
10
0.597444
20
0.653268
11
0.624857
21
0.653268
0
LINE
8
BLACK
6
CONTINUOUS
10
0.624857
20
0.653268
11
0.624857
21
0.661564
0
LINE
8
BLACK
6
CONTINUOUS
10
0.624857
20
0.661564
11
0.625036
21
0.662574
0
LINE
8
BLACK
6
CONTINUOUS
10
0.625036
20
0.662574
11
0.626334
21
0.664121
0
LINE
8
BLACK
6
CONTINUOUS
10
0.626334
20
0.664121
11
0.628323
21
0.664471
0
LINE
8
BLACK
6
CONTINUOUS
10
0.628323
20
0.664471
11
0.630072
21
0.663462
0
LINE
8
BLACK
6
CONTINUOUS
10
0.630072
20
0.663462
11
0.630763
21
0.661564
0
LINE
8
BLACK
6
CONTINUOUS
10
0.630763
20
0.661564
11
0.630763
21
0.639066
0
LINE
8
BLACK
6
CONTINUOUS
10
0.630763
20
0.639066
11
0.630585
21
0.638056
0
LINE
8
BLACK
6
CONTINUOUS
10
0.630585
20
0.638056
11
0.629287
21
0.636509
0
LINE
8
BLACK
6
CONTINUOUS
10
0.629287
20
0.636509
11
0.627297
21
0.636158
0
LINE
8
BLACK
6
CONTINUOUS
10
0.627297
20
0.636158
11
0.625548
21
0.637168
0
LINE
8
BLACK
6
CONTINUOUS
10
0.625548
20
0.637168
11
0.624857
21
0.639066
0
LINE
8
BLACK
6
CONTINUOUS
10
0.624857
20
0.639066
11
0.624857
21
0.647362
0
LINE
8
BLACK
6
CONTINUOUS
10
0.624857
20
0.647362
11
0.58844
21
0.647362
0
LINE
8
BLACK
6
CONTINUOUS
10
0.58844
20
0.647362
11
0.58743
21
0.64754
0
LINE
8
BLACK
6
CONTINUOUS
10
0.58743
20
0.64754
11
0.5873
21
0.647649
0
LINE
8
BLACK
6
CONTINUOUS
10
0.5873
20
0.647649
11
0.587131
21
0.647668
0
LINE
8
BLACK
6
CONTINUOUS
10
0.587131
20
0.647668
11
0.586539
21
0.648288
0
LINE
8
BLACK
6
CONTINUOUS
10
0.586539
20
0.648288
11
0.585883
21
0.648839
0
LINE
8
BLACK
6
CONTINUOUS
10
0.585883
20
0.648839
11
0.585854
21
0.649006
0
LINE
8
BLACK
6
CONTINUOUS
10
0.585854
20
0.649006
11
0.585736
21
0.649129
0
LINE
8
BLACK
6
CONTINUOUS
10
0.585736
20
0.649129
11
0.585681
21
0.649984
0
LINE
8
BLACK
6
CONTINUOUS
10
0.585681
20
0.649984
11
0.585532
21
0.650828
0
LINE
8
BLACK
6
CONTINUOUS
10
0.585532
20
0.650828
11
0.585617
21
0.650975
0
LINE
8
BLACK
6
CONTINUOUS
10
0.585617
20
0.650975
11
0.585606
21
0.651144
0
LINE
8
BLACK
6
CONTINUOUS
10
0.585606
20
0.651144
11
0.586114
21
0.651835
0
LINE
8
BLACK
6
CONTINUOUS
10
0.586114
20
0.651835
11
0.586542
21
0.652577
0
LINE
8
BLACK
6
CONTINUOUS
10
0.586542
20
0.652577
11
0.586702
21
0.652635
0
LINE
8
BLACK
6
CONTINUOUS
10
0.586702
20
0.652635
11
0.586802
21
0.652772
0
LINE
8
BLACK
6
CONTINUOUS
10
0.586802
20
0.652772
11
0.592183
21
0.656359
0
LINE
8
BLACK
6
CONTINUOUS
10
0.592183
20
0.656359
11
0.595387
21
0.659563
0
LINE
8
BLACK
6
CONTINUOUS
10
0.595387
20
0.659563
11
0.597048
21
0.662884
0
LINE
8
BLACK
6
CONTINUOUS
10
0.597048
20
0.662884
11
0.597659
21
0.663708
0
LINE
8
BLACK
6
CONTINUOUS
10
0.597659
20
0.663708
11
0.599512
21
0.664511
0
LINE
8
BLACK
6
CONTINUOUS
10
0.599512
20
0.664511
11
0.601448
21
0.663935
0
LINE
8
BLACK
6
CONTINUOUS
10
0.611518
20
0.703784
11
0.611654
21
0.703798
0
LINE
8
BLACK
6
CONTINUOUS
10
0.611654
20
0.703798
11
0.619153
21
0.701924
0
LINE
8
BLACK
6
CONTINUOUS
10
0.619153
20
0.701924
11
0.619618
21
0.701716
0
LINE
8
BLACK
6
CONTINUOUS
10
0.619618
20
0.701716
11
0.619757
21
0.7017
0
LINE
8
BLACK
6
CONTINUOUS
10
0.619757
20
0.7017
11
0.623506
21
0.699825
0
LINE
8
BLACK
6
CONTINUOUS
10
0.623506
20
0.699825
11
0.624216
21
0.699299
0
LINE
8
BLACK
6
CONTINUOUS
10
0.624216
20
0.699299
11
0.624274
21
0.699272
0
LINE
8
BLACK
6
CONTINUOUS
10
0.624274
20
0.699272
11
0.628023
21
0.695523
0
LINE
8
BLACK
6
CONTINUOUS
10
0.628023
20
0.695523
11
0.628612
21
0.694682
0
LINE
8
BLACK
6
CONTINUOUS
10
0.628612
20
0.694682
11
0.628627
21
0.694507
0
LINE
8
BLACK
6
CONTINUOUS
10
0.628627
20
0.694507
11
0.628737
21
0.694368
0
LINE
8
BLACK
6
CONTINUOUS
10
0.628737
20
0.694368
11
0.630611
21
0.688744
0
LINE
8
BLACK
6
CONTINUOUS
10
0.630611
20
0.688744
11
0.630741
21
0.687871
0
LINE
8
BLACK
6
CONTINUOUS
10
0.630741
20
0.687871
11
0.630763
21
0.68781
0
LINE
8
BLACK
6
CONTINUOUS
10
0.630763
20
0.68781
11
0.630763
21
0.684061
0
LINE
8
BLACK
6
CONTINUOUS
10
0.630763
20
0.684061
11
0.63061
21
0.683191
0
LINE
8
BLACK
6
CONTINUOUS
10
0.63061
20
0.683191
11
0.630611
21
0.683127
0
LINE
8
BLACK
6
CONTINUOUS
10
0.630611
20
0.683127
11
0.628737
21
0.677503
0
LINE
8
BLACK
6
CONTINUOUS
10
0.628737
20
0.677503
11
0.628248
21
0.676601
0
LINE
8
BLACK
6
CONTINUOUS
10
0.628248
20
0.676601
11
0.628098
21
0.676509
0
LINE
8
BLACK
6
CONTINUOUS
10
0.628098
20
0.676509
11
0.628023
21
0.676349
0
LINE
8
BLACK
6
CONTINUOUS
10
0.628023
20
0.676349
11
0.626149
21
0.674474
0
LINE
8
BLACK
6
CONTINUOUS
10
0.626149
20
0.674474
11
0.625309
21
0.673886
0
LINE
8
BLACK
6
CONTINUOUS
10
0.625309
20
0.673886
11
0.623296
21
0.67371
0
LINE
8
BLACK
6
CONTINUOUS
10
0.623296
20
0.67371
11
0.621642
21
0.674868
0
LINE
8
BLACK
6
CONTINUOUS
10
0.621642
20
0.674868
11
0.621119
21
0.676819
0
LINE
8
BLACK
6
CONTINUOUS
10
0.621119
20
0.676819
11
0.621973
21
0.67865
0
LINE
8
BLACK
6
CONTINUOUS
10
0.621973
20
0.67865
11
0.623355
21
0.680031
0
LINE
8
BLACK
6
CONTINUOUS
10
0.623355
20
0.680031
11
0.624857
21
0.68454
0
LINE
8
BLACK
6
CONTINUOUS
10
0.624857
20
0.68454
11
0.624857
21
0.687331
0
LINE
8
BLACK
6
CONTINUOUS
10
0.624857
20
0.687331
11
0.623355
21
0.69184
0
LINE
8
BLACK
6
CONTINUOUS
10
0.623355
20
0.69184
11
0.620437
21
0.694757
0
LINE
8
BLACK
6
CONTINUOUS
10
0.620437
20
0.694757
11
0.617406
21
0.696273
0
LINE
8
BLACK
6
CONTINUOUS
10
0.617406
20
0.696273
11
0.610574
21
0.697981
0
LINE
8
BLACK
6
CONTINUOUS
10
0.610574
20
0.697981
11
0.605677
21
0.697981
0
LINE
8
BLACK
6
CONTINUOUS
10
0.605677
20
0.697981
11
0.598845
21
0.696273
0
LINE
8
BLACK
6
CONTINUOUS
10
0.598845
20
0.696273
11
0.595814
21
0.694757
0
LINE
8
BLACK
6
CONTINUOUS
10
0.595814
20
0.694757
11
0.592896
21
0.69184
0
LINE
8
BLACK
6
CONTINUOUS
10
0.592896
20
0.69184
11
0.591393
21
0.687331
0
LINE
8
BLACK
6
CONTINUOUS
10
0.591393
20
0.687331
11
0.591393
21
0.68454
0
LINE
8
BLACK
6
CONTINUOUS
10
0.591393
20
0.68454
11
0.592896
21
0.680031
0
LINE
8
BLACK
6
CONTINUOUS
10
0.592896
20
0.680031
11
0.594278
21
0.67865
0
LINE
8
BLACK
6
CONTINUOUS
10
0.594278
20
0.67865
11
0.594866
21
0.67781
0
LINE
8
BLACK
6
CONTINUOUS
10
0.594866
20
0.67781
11
0.595042
21
0.675797
0
LINE
8
BLACK
6
CONTINUOUS
10
0.595042
20
0.675797
11
0.593883
21
0.674143
0
LINE
8
BLACK
6
CONTINUOUS
10
0.593883
20
0.674143
11
0.591932
21
0.67362
0
LINE
8
BLACK
6
CONTINUOUS
10
0.591932
20
0.67362
11
0.590102
21
0.674474
0
LINE
8
BLACK
6
CONTINUOUS
10
0.590102
20
0.674474
11
0.588227
21
0.676349
0
LINE
8
BLACK
6
CONTINUOUS
10
0.588227
20
0.676349
11
0.587639
21
0.677189
0
LINE
8
BLACK
6
CONTINUOUS
10
0.587639
20
0.677189
11
0.587623
21
0.677364
0
LINE
8
BLACK
6
CONTINUOUS
10
0.587623
20
0.677364
11
0.587514
21
0.677503
0
LINE
8
BLACK
6
CONTINUOUS
10
0.587514
20
0.677503
11
0.585639
21
0.683127
0
LINE
8
BLACK
6
CONTINUOUS
10
0.585639
20
0.683127
11
0.585509
21
0.684
0
LINE
8
BLACK
6
CONTINUOUS
10
0.585509
20
0.684
11
0.585487
21
0.684061
0
LINE
8
BLACK
6
CONTINUOUS
10
0.585487
20
0.684061
11
0.585487
21
0.68781
0
LINE
8
BLACK
6
CONTINUOUS
10
0.585487
20
0.68781
11
0.585641
21
0.68868
0
LINE
8
BLACK
6
CONTINUOUS
10
0.585641
20
0.68868
11
0.585639
21
0.688744
0
LINE
8
BLACK
6
CONTINUOUS
10
0.585639
20
0.688744
11
0.587514
21
0.694368
0
LINE
8
BLACK
6
CONTINUOUS
10
0.587514
20
0.694368
11
0.588002
21
0.69527
0
LINE
8
BLACK
6
CONTINUOUS
10
0.588002
20
0.69527
11
0.588152
21
0.695363
0
LINE
8
BLACK
6
CONTINUOUS
10
0.588152
20
0.695363
11
0.588227
21
0.695523
0
LINE
8
BLACK
6
CONTINUOUS
10
0.588227
20
0.695523
11
0.591977
21
0.699272
0
LINE
8
BLACK
6
CONTINUOUS
10
0.591977
20
0.699272
11
0.5927
21
0.699778
0
LINE
8
BLACK
6
CONTINUOUS
10
0.5927
20
0.699778
11
0.592744
21
0.699825
0
LINE
8
BLACK
6
CONTINUOUS
10
0.592744
20
0.699825
11
0.596494
21
0.7017
0
LINE
8
BLACK
6
CONTINUOUS
10
0.596494
20
0.7017
11
0.596982
21
0.701845
0
LINE
8
BLACK
6
CONTINUOUS
10
0.596982
20
0.701845
11
0.597098
21
0.701924
0
LINE
8
BLACK
6
CONTINUOUS
10
0.597098
20
0.701924
11
0.604597
21
0.703798
0
LINE
8
BLACK
6
CONTINUOUS
10
0.604597
20
0.703798
11
0.605185
21
0.70384
0
LINE
8
BLACK
6
CONTINUOUS
10
0.605185
20
0.70384
11
0.605313
21
0.703886
0
LINE
8
BLACK
6
CONTINUOUS
10
0.605313
20
0.703886
11
0.610937
21
0.703886
0
LINE
8
BLACK
6
CONTINUOUS
10
0.610937
20
0.703886
11
0.611518
21
0.703784
0
LINE
8
BLACK
6
CONTINUOUS
10
0.321956
20
0.782733
11
0.322648
21
0.781063
0
LINE
8
BLACK
6
CONTINUOUS
10
0.322648
20
0.781063
11
0.321956
21
0.779393
0
LINE
8
BLACK
6
CONTINUOUS
10
0.321956
20
0.779393
11
0.320286
21
0.778701
0
LINE
8
BLACK
6
CONTINUOUS
10
0.320286
20
0.778701
11
0.299714
21
0.778701
0
LINE
8
BLACK
6
CONTINUOUS
10
0.299714
20
0.778701
11
0.298044
21
0.779393
0
LINE
8
BLACK
6
CONTINUOUS
10
0.298044
20
0.779393
11
0.297352
21
0.781063
0
LINE
8
BLACK
6
CONTINUOUS
10
0.297352
20
0.781063
11
0.298044
21
0.782733
0
LINE
8
BLACK
6
CONTINUOUS
10
0.298044
20
0.782733
11
0.299714
21
0.783425
0
LINE
8
BLACK
6
CONTINUOUS
10
0.299714
20
0.783425
11
0.320286
21
0.783425
0
LINE
8
BLACK
6
CONTINUOUS
10
0.320286
20
0.783425
11
0.321956
21
0.782733
0
LINE
8
BLACK
6
CONTINUOUS
10
0.461956
20
0.782733
11
0.462648
21
0.781063
0
LINE
8
BLACK
6
CONTINUOUS
10
0.462648
20
0.781063
11
0.461956
21
0.779393
0
LINE
8
BLACK
6
CONTINUOUS
10
0.461956
20
0.779393
11
0.460286
21
0.778701
0
LINE
8
BLACK
6
CONTINUOUS
10
0.460286
20
0.778701
11
0.439714
21
0.778701
0
LINE
8
BLACK
6
CONTINUOUS
10
0.439714
20
0.778701
11
0.438044
21
0.779393
0
LINE
8
BLACK
6
CONTINUOUS
10
0.438044
20
0.779393
11
0.437352
21
0.781063
0
LINE
8
BLACK
6
CONTINUOUS
10
0.437352
20
0.781063
11
0.438044
21
0.782733
0
LINE
8
BLACK
6
CONTINUOUS
10
0.438044
20
0.782733
11
0.439714
21
0.783425
0
LINE
8
BLACK
6
CONTINUOUS
10
0.439714
20
0.783425
11
0.460286
21
0.783425
0
LINE
8
BLACK
6
CONTINUOUS
10
0.460286
20
0.783425
11
0.461956
21
0.782733
0
LINE
8
BLACK
6
CONTINUOUS
10
0.681607
20
0.81061
11
0.682299
21
0.80894
0
LINE
8
BLACK
6
CONTINUOUS
10
0.682299
20
0.80894
11
0.682299
21
0.79106
0
LINE
8
BLACK
6
CONTINUOUS
10
0.682299
20
0.79106
11
0.681607
21
0.78939
0
LINE
8
BLACK
6
CONTINUOUS
10
0.681607
20
0.78939
11
0.679937
21
0.788698
0
LINE
8
BLACK
6
CONTINUOUS
10
0.679937
20
0.788698
11
0.678267
21
0.78939
0
LINE
8
BLACK
6
CONTINUOUS
10
0.678267
20
0.78939
11
0.677575
21
0.79106
0
LINE
8
BLACK
6
CONTINUOUS
10
0.677575
20
0.79106
11
0.677575
21
0.80894
0
LINE
8
BLACK
6
CONTINUOUS
10
0.677575
20
0.80894
11
0.678267
21
0.81061
0
LINE
8
BLACK
6
CONTINUOUS
10
0.678267
20
0.81061
11
0.679937
21
0.811302
0
LINE
8
BLACK
6
CONTINUOUS
10
0.679937
20
0.811302
11
0.681607
21
0.81061
0
LINE
8
BLACK
6
CONTINUOUS
10
0.623733
20
0.81061
11
0.624425
21
0.80894
0
LINE
8
BLACK
6
CONTINUOUS
10
0.624425
20
0.80894
11
0.624425
21
0.79106
0
LINE
8
BLACK
6
CONTINUOUS
10
0.624425
20
0.79106
11
0.623733
21
0.78939
0
LINE
8
BLACK
6
CONTINUOUS
10
0.623733
20
0.78939
11
0.622063
21
0.788698
0
LINE
8
BLACK
6
CONTINUOUS
10
0.622063
20
0.788698
11
0.620393
21
0.78939
0
LINE
8
BLACK
6
CONTINUOUS
10
0.620393
20
0.78939
11
0.619701
21
0.79106
0
LINE
8
BLACK
6
CONTINUOUS
10
0.619701
20
0.79106
11
0.619701
21
0.80894
0
LINE
8
BLACK
6
CONTINUOUS
10
0.619701
20
0.80894
11
0.620393
21
0.81061
0
LINE
8
BLACK
6
CONTINUOUS
10
0.620393
20
0.81061
11
0.622063
21
0.811302
0
LINE
8
BLACK
6
CONTINUOUS
10
0.622063
20
0.811302
11
0.623733
21
0.81061
0
LINE
8
BLACK
6
CONTINUOUS
10
0.546949
20
0.834335
11
0.547084
21
0.834221
0
LINE
8
BLACK
6
CONTINUOUS
10
0.547084
20
0.834221
11
0.54726
21
0.834201
0
LINE
8
BLACK
6
CONTINUOUS
10
0.54726
20
0.834201
11
0.551009
21
0.832326
0
LINE
8
BLACK
6
CONTINUOUS
10
0.551009
20
0.832326
11
0.551718
21
0.8318
0
LINE
8
BLACK
6
CONTINUOUS
10
0.551718
20
0.8318
11
0.551777
21
0.831773
0
LINE
8
BLACK
6
CONTINUOUS
10
0.551777
20
0.831773
11
0.553651
21
0.829898
0
LINE
8
BLACK
6
CONTINUOUS
10
0.553651
20
0.829898
11
0.55424
21
0.829058
0
LINE
8
BLACK
6
CONTINUOUS
10
0.55424
20
0.829058
11
0.554416
21
0.827046
0
LINE
8
BLACK
6
CONTINUOUS
10
0.554416
20
0.827046
11
0.553257
21
0.825391
0
LINE
8
BLACK
6
CONTINUOUS
10
0.553257
20
0.825391
11
0.551306
21
0.824869
0
LINE
8
BLACK
6
CONTINUOUS
10
0.551306
20
0.824869
11
0.549476
21
0.825722
0
LINE
8
BLACK
6
CONTINUOUS
10
0.549476
20
0.825722
11
0.54794
21
0.827258
0
LINE
8
BLACK
6
CONTINUOUS
10
0.54794
20
0.827258
11
0.545242
21
0.828607
0
LINE
8
BLACK
6
CONTINUOUS
10
0.545242
20
0.828607
11
0.537262
21
0.828607
0
LINE
8
BLACK
6
CONTINUOUS
10
0.537262
20
0.828607
11
0.534565
21
0.827258
0
LINE
8
BLACK
6
CONTINUOUS
10
0.534565
20
0.827258
11
0.533368
21
0.826061
0
LINE
8
BLACK
6
CONTINUOUS
10
0.533368
20
0.826061
11
0.532019
21
0.823364
0
LINE
8
BLACK
6
CONTINUOUS
10
0.532019
20
0.823364
11
0.532019
21
0.82079
0
LINE
8
BLACK
6
CONTINUOUS
10
0.532019
20
0.82079
11
0.533522
21
0.816282
0
LINE
8
BLACK
6
CONTINUOUS
10
0.533522
20
0.816282
11
0.555526
21
0.794278
0
LINE
8
BLACK
6
CONTINUOUS
10
0.555526
20
0.794278
11
0.555896
21
0.79375
0
LINE
8
BLACK
6
CONTINUOUS
10
0.555896
20
0.79375
11
0.555995
21
0.793666
0
LINE
8
BLACK
6
CONTINUOUS
10
0.555995
20
0.793666
11
0.556009
21
0.793588
0
LINE
8
BLACK
6
CONTINUOUS
10
0.556009
20
0.793588
11
0.556114
21
0.793438
0
LINE
8
BLACK
6
CONTINUOUS
10
0.556114
20
0.793438
11
0.556192
21
0.792552
0
LINE
8
BLACK
6
CONTINUOUS
10
0.556192
20
0.792552
11
0.556346
21
0.791677
0
LINE
8
BLACK
6
CONTINUOUS
10
0.556346
20
0.791677
11
0.556279
21
0.79156
0
LINE
8
BLACK
6
CONTINUOUS
10
0.556279
20
0.79156
11
0.55629
21
0.791426
0
LINE
8
BLACK
6
CONTINUOUS
10
0.55629
20
0.791426
11
0.555781
21
0.790697
0
LINE
8
BLACK
6
CONTINUOUS
10
0.555781
20
0.790697
11
0.555336
21
0.789928
0
LINE
8
BLACK
6
CONTINUOUS
10
0.555336
20
0.789928
11
0.555209
21
0.789882
0
LINE
8
BLACK
6
CONTINUOUS
10
0.555209
20
0.789882
11
0.555132
21
0.789771
0
LINE
8
BLACK
6
CONTINUOUS
10
0.555132
20
0.789771
11
0.554273
21
0.789541
0
LINE
8
BLACK
6
CONTINUOUS
10
0.554273
20
0.789541
11
0.553438
21
0.789237
0
LINE
8
BLACK
6
CONTINUOUS
10
0.553438
20
0.789237
11
0.529066
21
0.789237
0
LINE
8
BLACK
6
CONTINUOUS
10
0.529066
20
0.789237
11
0.528056
21
0.789415
0
LINE
8
BLACK
6
CONTINUOUS
10
0.528056
20
0.789415
11
0.526509
21
0.790713
0
LINE
8
BLACK
6
CONTINUOUS
10
0.526509
20
0.790713
11
0.526158
21
0.792703
0
LINE
8
BLACK
6
CONTINUOUS
10
0.526158
20
0.792703
11
0.527168
21
0.794452
0
LINE
8
BLACK
6
CONTINUOUS
10
0.527168
20
0.794452
11
0.529066
21
0.795143
0
LINE
8
BLACK
6
CONTINUOUS
10
0.529066
20
0.795143
11
0.54631
21
0.795143
0
LINE
8
BLACK
6
CONTINUOUS
10
0.54631
20
0.795143
11
0.528853
21
0.812599
0
LINE
8
BLACK
6
CONTINUOUS
10
0.528853
20
0.812599
11
0.528265
21
0.813439
0
LINE
8
BLACK
6
CONTINUOUS
10
0.528265
20
0.813439
11
0.52825
21
0.813615
0
LINE
8
BLACK
6
CONTINUOUS
10
0.52825
20
0.813615
11
0.52814
21
0.813753
0
LINE
8
BLACK
6
CONTINUOUS
10
0.52814
20
0.813753
11
0.526265
21
0.819377
0
LINE
8
BLACK
6
CONTINUOUS
10
0.526265
20
0.819377
11
0.526136
21
0.820251
0
LINE
8
BLACK
6
CONTINUOUS
10
0.526136
20
0.820251
11
0.526114
21
0.820311
0
LINE
8
BLACK
6
CONTINUOUS
10
0.526114
20
0.820311
11
0.526114
21
0.824061
0
LINE
8
BLACK
6
CONTINUOUS
10
0.526114
20
0.824061
11
0.526292
21
0.825071
0
LINE
8
BLACK
6
CONTINUOUS
10
0.526292
20
0.825071
11
0.526405
21
0.825206
0
LINE
8
BLACK
6
CONTINUOUS
10
0.526405
20
0.825206
11
0.526425
21
0.825381
0
LINE
8
BLACK
6
CONTINUOUS
10
0.526425
20
0.825381
11
0.5283
21
0.829131
0
LINE
8
BLACK
6
CONTINUOUS
10
0.5283
20
0.829131
11
0.528826
21
0.82984
0
LINE
8
BLACK
6
CONTINUOUS
10
0.528826
20
0.82984
11
0.528853
21
0.829898
0
LINE
8
BLACK
6
CONTINUOUS
10
0.528853
20
0.829898
11
0.530728
21
0.831773
0
LINE
8
BLACK
6
CONTINUOUS
10
0.530728
20
0.831773
11
0.531451
21
0.832279
0
LINE
8
BLACK
6
CONTINUOUS
10
0.531451
20
0.832279
11
0.531495
21
0.832326
0
LINE
8
BLACK
6
CONTINUOUS
10
0.531495
20
0.832326
11
0.535245
21
0.834201
0
LINE
8
BLACK
6
CONTINUOUS
10
0.535245
20
0.834201
11
0.536228
21
0.834493
0
LINE
8
BLACK
6
CONTINUOUS
10
0.536228
20
0.834493
11
0.536399
21
0.834452
0
LINE
8
BLACK
6
CONTINUOUS
10
0.536399
20
0.834452
11
0.536565
21
0.834513
0
LINE
8
BLACK
6
CONTINUOUS
10
0.536565
20
0.834513
11
0.545939
21
0.834513
0
LINE
8
BLACK
6
CONTINUOUS
10
0.545939
20
0.834513
11
0.546949
21
0.834335
0
LINE
8
BLACK
6
CONTINUOUS
10
0.57868
20
0.834359
11
0.578744
21
0.834361
0
LINE
8
BLACK
6
CONTINUOUS
10
0.578744
20
0.834361
11
0.584368
21
0.832486
0
LINE
8
BLACK
6
CONTINUOUS
10
0.584368
20
0.832486
11
0.58527
21
0.831998
0
LINE
8
BLACK
6
CONTINUOUS
10
0.58527
20
0.831998
11
0.585363
21
0.831848
0
LINE
8
BLACK
6
CONTINUOUS
10
0.585363
20
0.831848
11
0.585522
21
0.831773
0
LINE
8
BLACK
6
CONTINUOUS
10
0.585522
20
0.831773
11
0.589272
21
0.828023
0
LINE
8
BLACK
6
CONTINUOUS
10
0.589272
20
0.828023
11
0.589778
21
0.8273
0
LINE
8
BLACK
6
CONTINUOUS
10
0.589778
20
0.8273
11
0.589825
21
0.827256
0
LINE
8
BLACK
6
CONTINUOUS
10
0.589825
20
0.827256
11
0.5917
21
0.823506
0
LINE
8
BLACK
6
CONTINUOUS
10
0.5917
20
0.823506
11
0.591845
21
0.823018
0
LINE
8
BLACK
6
CONTINUOUS
10
0.591845
20
0.823018
11
0.591923
21
0.822902
0
LINE
8
BLACK
6
CONTINUOUS
10
0.591923
20
0.822902
11
0.593798
21
0.815403
0
LINE
8
BLACK
6
CONTINUOUS
10
0.593798
20
0.815403
11
0.59384
21
0.814815
0
LINE
8
BLACK
6
CONTINUOUS
10
0.59384
20
0.814815
11
0.593886
21
0.814687
0
LINE
8
BLACK
6
CONTINUOUS
10
0.593886
20
0.814687
11
0.593886
21
0.809063
0
LINE
8
BLACK
6
CONTINUOUS
10
0.593886
20
0.809063
11
0.593784
21
0.808482
0
LINE
8
BLACK
6
CONTINUOUS
10
0.593784
20
0.808482
11
0.593798
21
0.808346
0
LINE
8
BLACK
6
CONTINUOUS
10
0.593798
20
0.808346
11
0.591923
21
0.800847
0
LINE
8
BLACK
6
CONTINUOUS
10
0.591923
20
0.800847
11
0.591716
21
0.800382
0
LINE
8
BLACK
6
CONTINUOUS
10
0.591716
20
0.800382
11
0.5917
21
0.800243
0
LINE
8
BLACK
6
CONTINUOUS
10
0.5917
20
0.800243
11
0.589825
21
0.796494
0
LINE
8
BLACK
6
CONTINUOUS
10
0.589825
20
0.796494
11
0.589299
21
0.795784
0
LINE
8
BLACK
6
CONTINUOUS
10
0.589299
20
0.795784
11
0.589272
21
0.795726
0
LINE
8
BLACK
6
CONTINUOUS
10
0.589272
20
0.795726
11
0.585522
21
0.791977
0
LINE
8
BLACK
6
CONTINUOUS
10
0.585522
20
0.791977
11
0.584682
21
0.791388
0
LINE
8
BLACK
6
CONTINUOUS
10
0.584682
20
0.791388
11
0.584507
21
0.791373
0
LINE
8
BLACK
6
CONTINUOUS
10
0.584507
20
0.791373
11
0.584368
21
0.791263
0
LINE
8
BLACK
6
CONTINUOUS
10
0.584368
20
0.791263
11
0.578744
21
0.789389
0
LINE
8
BLACK
6
CONTINUOUS
10
0.578744
20
0.789389
11
0.577871
21
0.789259
0
LINE
8
BLACK
6
CONTINUOUS
10
0.577871
20
0.789259
11
0.57781
21
0.789237
0
LINE
8
BLACK
6
CONTINUOUS
10
0.57781
20
0.789237
11
0.574061
21
0.789237
0
LINE
8
BLACK
6
CONTINUOUS
10
0.574061
20
0.789237
11
0.573191
21
0.78939
0
LINE
8
BLACK
6
CONTINUOUS
10
0.573191
20
0.78939
11
0.573127
21
0.789389
0
LINE
8
BLACK
6
CONTINUOUS
10
0.573127
20
0.789389
11
0.567503
21
0.791263
0
LINE
8
BLACK
6
CONTINUOUS
10
0.567503
20
0.791263
11
0.566601
21
0.791752
0
LINE
8
BLACK
6
CONTINUOUS
10
0.566601
20
0.791752
11
0.566509
21
0.791902
0
LINE
8
BLACK
6
CONTINUOUS
10
0.566509
20
0.791902
11
0.566349
21
0.791977
0
LINE
8
BLACK
6
CONTINUOUS
10
0.566349
20
0.791977
11
0.564474
21
0.793851
0
LINE
8
BLACK
6
CONTINUOUS
10
0.564474
20
0.793851
11
0.563886
21
0.794691
0
LINE
8
BLACK
6
CONTINUOUS
10
0.563886
20
0.794691
11
0.563709
21
0.796704
0
LINE
8
BLACK
6
CONTINUOUS
10
0.563709
20
0.796704
11
0.564868
21
0.798358
0
LINE
8
BLACK
6
CONTINUOUS
10
0.564868
20
0.798358
11
0.566819
21
0.798881
0
LINE
8
BLACK
6
CONTINUOUS
10
0.566819
20
0.798881
11
0.56865
21
0.798027
0
LINE
8
BLACK
6
CONTINUOUS
10
0.56865
20
0.798027
11
0.570031
21
0.796645
0
LINE
8
BLACK
6
CONTINUOUS
10
0.570031
20
0.796645
11
0.57454
21
0.795143
0
LINE
8
BLACK
6
CONTINUOUS
10
0.57454
20
0.795143
11
0.577331
21
0.795143
0
LINE
8
BLACK
6
CONTINUOUS
10
0.577331
20
0.795143
11
0.58184
21
0.796645
0
LINE
8
BLACK
6
CONTINUOUS
10
0.58184
20
0.796645
11
0.584757
21
0.799563
0
LINE
8
BLACK
6
CONTINUOUS
10
0.584757
20
0.799563
11
0.586273
21
0.802594
0
LINE
8
BLACK
6
CONTINUOUS
10
0.586273
20
0.802594
11
0.587981
21
0.809426
0
LINE
8
BLACK
6
CONTINUOUS
10
0.587981
20
0.809426
11
0.587981
21
0.814323
0
LINE
8
BLACK
6
CONTINUOUS
10
0.587981
20
0.814323
11
0.586273
21
0.821155
0
LINE
8
BLACK
6
CONTINUOUS
10
0.586273
20
0.821155
11
0.584757
21
0.824186
0
LINE
8
BLACK
6
CONTINUOUS
10
0.584757
20
0.824186
11
0.58184
21
0.827104
0
LINE
8
BLACK
6
CONTINUOUS
10
0.58184
20
0.827104
11
0.577331
21
0.828607
0
LINE
8
BLACK
6
CONTINUOUS
10
0.577331
20
0.828607
11
0.57454
21
0.828607
0
LINE
8
BLACK
6
CONTINUOUS
10
0.57454
20
0.828607
11
0.570031
21
0.827104
0
LINE
8
BLACK
6
CONTINUOUS
10
0.570031
20
0.827104
11
0.56865
21
0.825722
0
LINE
8
BLACK
6
CONTINUOUS
10
0.56865
20
0.825722
11
0.56781
21
0.825134
0
LINE
8
BLACK
6
CONTINUOUS
10
0.56781
20
0.825134
11
0.565797
21
0.824958
0
LINE
8
BLACK
6
CONTINUOUS
10
0.565797
20
0.824958
11
0.564143
21
0.826117
0
LINE
8
BLACK
6
CONTINUOUS
10
0.564143
20
0.826117
11
0.56362
21
0.828068
0
LINE
8
BLACK
6
CONTINUOUS
10
0.56362
20
0.828068
11
0.564474
21
0.829898
0
LINE
8
BLACK
6
CONTINUOUS
10
0.564474
20
0.829898
11
0.566349
21
0.831773
0
LINE
8
BLACK
6
CONTINUOUS
10
0.566349
20
0.831773
11
0.567189
21
0.832361
0
LINE
8
BLACK
6
CONTINUOUS
10
0.567189
20
0.832361
11
0.567364
21
0.832377
0
LINE
8
BLACK
6
CONTINUOUS
10
0.567364
20
0.832377
11
0.567503
21
0.832486
0
LINE
8
BLACK
6
CONTINUOUS
10
0.567503
20
0.832486
11
0.573127
21
0.834361
0
LINE
8
BLACK
6
CONTINUOUS
10
0.573127
20
0.834361
11
0.574
21
0.834491
0
LINE
8
BLACK
6
CONTINUOUS
10
0.574
20
0.834491
11
0.574061
21
0.834513
0
LINE
8
BLACK
6
CONTINUOUS
10
0.574061
20
0.834513
11
0.57781
21
0.834513
0
LINE
8
BLACK
6
CONTINUOUS
10
0.57781
20
0.834513
11
0.57868
21
0.834359
0
LINE
8
BLACK
6
CONTINUOUS
10
0.21868
20
0.834359
11
0.218744
21
0.834361
0
LINE
8
BLACK
6
CONTINUOUS
10
0.218744
20
0.834361
11
0.224368
21
0.832486
0
LINE
8
BLACK
6
CONTINUOUS
10
0.224368
20
0.832486
11
0.22527
21
0.831998
0
LINE
8
BLACK
6
CONTINUOUS
10
0.22527
20
0.831998
11
0.225363
21
0.831848
0
LINE
8
BLACK
6
CONTINUOUS
10
0.225363
20
0.831848
11
0.225522
21
0.831773
0
LINE
8
BLACK
6
CONTINUOUS
10
0.225522
20
0.831773
11
0.229272
21
0.828023
0
LINE
8
BLACK
6
CONTINUOUS
10
0.229272
20
0.828023
11
0.229778
21
0.8273
0
LINE
8
BLACK
6
CONTINUOUS
10
0.229778
20
0.8273
11
0.229825
21
0.827256
0
LINE
8
BLACK
6
CONTINUOUS
10
0.229825
20
0.827256
11
0.2317
21
0.823506
0
LINE
8
BLACK
6
CONTINUOUS
10
0.2317
20
0.823506
11
0.231845
21
0.823018
0
LINE
8
BLACK
6
CONTINUOUS
10
0.231845
20
0.823018
11
0.231923
21
0.822902
0
LINE
8
BLACK
6
CONTINUOUS
10
0.231923
20
0.822902
11
0.233798
21
0.815403
0
LINE
8
BLACK
6
CONTINUOUS
10
0.233798
20
0.815403
11
0.23384
21
0.814815
0
LINE
8
BLACK
6
CONTINUOUS
10
0.23384
20
0.814815
11
0.233886
21
0.814687
0
LINE
8
BLACK
6
CONTINUOUS
10
0.233886
20
0.814687
11
0.233886
21
0.809063
0
LINE
8
BLACK
6
CONTINUOUS
10
0.233886
20
0.809063
11
0.233784
21
0.808482
0
LINE
8
BLACK
6
CONTINUOUS
10
0.233784
20
0.808482
11
0.233798
21
0.808346
0
LINE
8
BLACK
6
CONTINUOUS
10
0.233798
20
0.808346
11
0.231923
21
0.800847
0
LINE
8
BLACK
6
CONTINUOUS
10
0.231923
20
0.800847
11
0.231716
21
0.800382
0
LINE
8
BLACK
6
CONTINUOUS
10
0.231716
20
0.800382
11
0.2317
21
0.800243
0
LINE
8
BLACK
6
CONTINUOUS
10
0.2317
20
0.800243
11
0.229825
21
0.796494
0
LINE
8
BLACK
6
CONTINUOUS
10
0.229825
20
0.796494
11
0.229299
21
0.795784
0
LINE
8
BLACK
6
CONTINUOUS
10
0.229299
20
0.795784
11
0.229272
21
0.795726
0
LINE
8
BLACK
6
CONTINUOUS
10
0.229272
20
0.795726
11
0.225522
21
0.791977
0
LINE
8
BLACK
6
CONTINUOUS
10
0.225522
20
0.791977
11
0.224682
21
0.791388
0
LINE
8
BLACK
6
CONTINUOUS
10
0.224682
20
0.791388
11
0.224507
21
0.791373
0
LINE
8
BLACK
6
CONTINUOUS
10
0.224507
20
0.791373
11
0.224368
21
0.791263
0
LINE
8
BLACK
6
CONTINUOUS
10
0.224368
20
0.791263
11
0.218744
21
0.789389
0
LINE
8
BLACK
6
CONTINUOUS
10
0.218744
20
0.789389
11
0.217871
21
0.789259
0
LINE
8
BLACK
6
CONTINUOUS
10
0.217871
20
0.789259
11
0.21781
21
0.789237
0
LINE
8
BLACK
6
CONTINUOUS
10
0.21781
20
0.789237
11
0.214061
21
0.789237
0
LINE
8
BLACK
6
CONTINUOUS
10
0.214061
20
0.789237
11
0.213191
21
0.78939
0
LINE
8
BLACK
6
CONTINUOUS
10
0.213191
20
0.78939
11
0.213127
21
0.789389
0
LINE
8
BLACK
6
CONTINUOUS
10
0.213127
20
0.789389
11
0.207503
21
0.791263
0
LINE
8
BLACK
6
CONTINUOUS
10
0.207503
20
0.791263
11
0.206601
21
0.791752
0
LINE
8
BLACK
6
CONTINUOUS
10
0.206601
20
0.791752
11
0.206509
21
0.791902
0
LINE
8
BLACK
6
CONTINUOUS
10
0.206509
20
0.791902
11
0.206349
21
0.791977
0
LINE
8
BLACK
6
CONTINUOUS
10
0.206349
20
0.791977
11
0.204474
21
0.793851
0
LINE
8
BLACK
6
CONTINUOUS
10
0.204474
20
0.793851
11
0.203886
21
0.794691
0
LINE
8
BLACK
6
CONTINUOUS
10
0.203886
20
0.794691
11
0.203709
21
0.796704
0
LINE
8
BLACK
6
CONTINUOUS
10
0.203709
20
0.796704
11
0.204868
21
0.798358
0
LINE
8
BLACK
6
CONTINUOUS
10
0.204868
20
0.798358
11
0.206819
21
0.798881
0
LINE
8
BLACK
6
CONTINUOUS
10
0.206819
20
0.798881
11
0.20865
21
0.798027
0
LINE
8
BLACK
6
CONTINUOUS
10
0.20865
20
0.798027
11
0.210031
21
0.796645
0
LINE
8
BLACK
6
CONTINUOUS
10
0.210031
20
0.796645
11
0.21454
21
0.795143
0
LINE
8
BLACK
6
CONTINUOUS
10
0.21454
20
0.795143
11
0.217331
21
0.795143
0
LINE
8
BLACK
6
CONTINUOUS
10
0.217331
20
0.795143
11
0.22184
21
0.796645
0
LINE
8
BLACK
6
CONTINUOUS
10
0.22184
20
0.796645
11
0.224757
21
0.799563
0
LINE
8
BLACK
6
CONTINUOUS
10
0.224757
20
0.799563
11
0.226273
21
0.802594
0
LINE
8
BLACK
6
CONTINUOUS
10
0.226273
20
0.802594
11
0.227981
21
0.809426
0
LINE
8
BLACK
6
CONTINUOUS
10
0.227981
20
0.809426
11
0.227981
21
0.814323
0
LINE
8
BLACK
6
CONTINUOUS
10
0.227981
20
0.814323
11
0.226273
21
0.821155
0
LINE
8
BLACK
6
CONTINUOUS
10
0.226273
20
0.821155
11
0.224757
21
0.824186
0
LINE
8
BLACK
6
CONTINUOUS
10
0.224757
20
0.824186
11
0.22184
21
0.827104
0
LINE
8
BLACK
6
CONTINUOUS
10
0.22184
20
0.827104
11
0.217331
21
0.828607
0
LINE
8
BLACK
6
CONTINUOUS
10
0.217331
20
0.828607
11
0.21454
21
0.828607
0
LINE
8
BLACK
6
CONTINUOUS
10
0.21454
20
0.828607
11
0.210031
21
0.827104
0
LINE
8
BLACK
6
CONTINUOUS
10
0.210031
20
0.827104
11
0.20865
21
0.825722
0
LINE
8
BLACK
6
CONTINUOUS
10
0.20865
20
0.825722
11
0.20781
21
0.825134
0
LINE
8
BLACK
6
CONTINUOUS
10
0.20781
20
0.825134
11
0.205797
21
0.824958
0
LINE
8
BLACK
6
CONTINUOUS
10
0.205797
20
0.824958
11
0.204143
21
0.826117
0
LINE
8
BLACK
6
CONTINUOUS
10
0.204143
20
0.826117
11
0.20362
21
0.828068
0
LINE
8
BLACK
6
CONTINUOUS
10
0.20362
20
0.828068
11
0.204474
21
0.829898
0
LINE
8
BLACK
6
CONTINUOUS
10
0.204474
20
0.829898
11
0.206349
21
0.831773
0
LINE
8
BLACK
6
CONTINUOUS
10
0.206349
20
0.831773
11
0.207189
21
0.832361
0
LINE
8
BLACK
6
CONTINUOUS
10
0.207189
20
0.832361
11
0.207364
21
0.832377
0
LINE
8
BLACK
6
CONTINUOUS
10
0.207364
20
0.832377
11
0.207503
21
0.832486
0
LINE
8
BLACK
6
CONTINUOUS
10
0.207503
20
0.832486
11
0.213127
21
0.834361
0
LINE
8
BLACK
6
CONTINUOUS
10
0.213127
20
0.834361
11
0.214
21
0.834491
0
LINE
8
BLACK
6
CONTINUOUS
10
0.214
20
0.834491
11
0.214061
21
0.834513
0
LINE
8
BLACK
6
CONTINUOUS
10
0.214061
20
0.834513
11
0.21781
21
0.834513
0
LINE
8
BLACK
6
CONTINUOUS
10
0.21781
20
0.834513
11
0.21868
21
0.834359
0
LINE
8
BLACK
6
CONTINUOUS
10
0.183735
20
0.83595
11
0.184991
21
0.834368
0
LINE
8
BLACK
6
CONTINUOUS
10
0.184991
20
0.834368
11
0.194365
21
0.806247
0
LINE
8
BLACK
6
CONTINUOUS
10
0.194365
20
0.806247
11
0.194515
21
0.805232
0
LINE
8
BLACK
6
CONTINUOUS
10
0.194515
20
0.805232
11
0.194432
21
0.805023
0
LINE
8
BLACK
6
CONTINUOUS
10
0.194432
20
0.805023
11
0.194471
21
0.8048
0
LINE
8
BLACK
6
CONTINUOUS
10
0.194471
20
0.8048
11
0.194069
21
0.804103
0
LINE
8
BLACK
6
CONTINUOUS
10
0.194069
20
0.804103
11
0.193773
21
0.803354
0
LINE
8
BLACK
6
CONTINUOUS
10
0.193773
20
0.803354
11
0.193574
21
0.803247
0
LINE
8
BLACK
6
CONTINUOUS
10
0.193574
20
0.803247
11
0.193462
21
0.803051
0
LINE
8
BLACK
6
CONTINUOUS
10
0.193462
20
0.803051
11
0.192705
21
0.802776
0
LINE
8
BLACK
6
CONTINUOUS
10
0.192705
20
0.802776
11
0.191997
21
0.802392
0
LINE
8
BLACK
6
CONTINUOUS
10
0.191997
20
0.802392
11
0.191776
21
0.802438
0
LINE
8
BLACK
6
CONTINUOUS
10
0.191776
20
0.802438
11
0.191564
21
0.80236
0
LINE
8
BLACK
6
CONTINUOUS
10
0.191564
20
0.80236
11
0.175769
21
0.80236
0
LINE
8
BLACK
6
CONTINUOUS
10
0.175769
20
0.80236
11
0.175769
21
0.79219
0
LINE
8
BLACK
6
CONTINUOUS
10
0.175769
20
0.79219
11
0.175591
21
0.79118
0
LINE
8
BLACK
6
CONTINUOUS
10
0.175591
20
0.79118
11
0.174292
21
0.789633
0
LINE
8
BLACK
6
CONTINUOUS
10
0.174292
20
0.789633
11
0.172303
21
0.789282
0
LINE
8
BLACK
6
CONTINUOUS
10
0.172303
20
0.789282
11
0.170554
21
0.790292
0
LINE
8
BLACK
6
CONTINUOUS
10
0.170554
20
0.790292
11
0.169863
21
0.79219
0
LINE
8
BLACK
6
CONTINUOUS
10
0.169863
20
0.79219
11
0.169863
21
0.80236
0
LINE
8
BLACK
6
CONTINUOUS
10
0.169863
20
0.80236
11
0.167192
21
0.80236
0
LINE
8
BLACK
6
CONTINUOUS
10
0.167192
20
0.80236
11
0.166182
21
0.802538
0
LINE
8
BLACK
6
CONTINUOUS
10
0.166182
20
0.802538
11
0.164634
21
0.803837
0
LINE
8
BLACK
6
CONTINUOUS
10
0.164634
20
0.803837
11
0.164284
21
0.805826
0
LINE
8
BLACK
6
CONTINUOUS
10
0.164284
20
0.805826
11
0.165294
21
0.807575
0
LINE
8
BLACK
6
CONTINUOUS
10
0.165294
20
0.807575
11
0.167192
21
0.808266
0
LINE
8
BLACK
6
CONTINUOUS
10
0.167192
20
0.808266
11
0.169863
21
0.808266
0
LINE
8
BLACK
6
CONTINUOUS
10
0.169863
20
0.808266
11
0.169863
21
0.818436
0
LINE
8
BLACK
6
CONTINUOUS
10
0.169863
20
0.818436
11
0.170041
21
0.819446
0
LINE
8
BLACK
6
CONTINUOUS
10
0.170041
20
0.819446
11
0.171339
21
0.820994
0
LINE
8
BLACK
6
CONTINUOUS
10
0.171339
20
0.820994
11
0.173329
21
0.821344
0
LINE
8
BLACK
6
CONTINUOUS
10
0.173329
20
0.821344
11
0.175078
21
0.820334
0
LINE
8
BLACK
6
CONTINUOUS
10
0.175078
20
0.820334
11
0.175769
21
0.818436
0
LINE
8
BLACK
6
CONTINUOUS
10
0.175769
20
0.818436
11
0.175769
21
0.808266
0
LINE
8
BLACK
6
CONTINUOUS
10
0.175769
20
0.808266
11
0.187467
21
0.808266
0
LINE
8
BLACK
6
CONTINUOUS
10
0.187467
20
0.808266
11
0.179389
21
0.832501
0
LINE
8
BLACK
6
CONTINUOUS
10
0.179389
20
0.832501
11
0.179238
21
0.833515
0
LINE
8
BLACK
6
CONTINUOUS
10
0.179238
20
0.833515
11
0.17998
21
0.835394
0
LINE
8
BLACK
6
CONTINUOUS
10
0.17998
20
0.835394
11
0.181757
21
0.836355
0
LINE
8
BLACK
6
CONTINUOUS
10
0.181757
20
0.836355
11
0.183735
21
0.83595
0
LINE
8
BLACK
6
CONTINUOUS
10
0.321956
20
0.840607
11
0.322648
21
0.838937
0
LINE
8
BLACK
6
CONTINUOUS
10
0.322648
20
0.838937
11
0.321956
21
0.837267
0
LINE
8
BLACK
6
CONTINUOUS
10
0.321956
20
0.837267
11
0.320286
21
0.836575
0
LINE
8
BLACK
6
CONTINUOUS
10
0.320286
20
0.836575
11
0.299714
21
0.836575
0
LINE
8
BLACK
6
CONTINUOUS
10
0.299714
20
0.836575
11
0.298044
21
0.837267
0
LINE
8
BLACK
6
CONTINUOUS
10
0.298044
20
0.837267
11
0.297352
21
0.838937
0
LINE
8
BLACK
6
CONTINUOUS
10
0.297352
20
0.838937
11
0.298044
21
0.840607
0
LINE
8
BLACK
6
CONTINUOUS
10
0.298044
20
0.840607
11
0.299714
21
0.841299
0
LINE
8
BLACK
6
CONTINUOUS
10
0.299714
20
0.841299
11
0.320286
21
0.841299
0
LINE
8
BLACK
6
CONTINUOUS
10
0.320286
20
0.841299
11
0.321956
21
0.840607
0
LINE
8
BLACK
6
CONTINUOUS
10
0.461956
20
0.840607
11
0.462648
21
0.838937
0
LINE
8
BLACK
6
CONTINUOUS
10
0.462648
20
0.838937
11
0.461956
21
0.837267
0
LINE
8
BLACK
6
CONTINUOUS
10
0.461956
20
0.837267
11
0.460286
21
0.836575
0
LINE
8
BLACK
6
CONTINUOUS
10
0.460286
20
0.836575
11
0.439714
21
0.836575
0
LINE
8
BLACK
6
CONTINUOUS
10
0.439714
20
0.836575
11
0.438044
21
0.837267
0
LINE
8
BLACK
6
CONTINUOUS
10
0.438044
20
0.837267
11
0.437352
21
0.838937
0
LINE
8
BLACK
6
CONTINUOUS
10
0.437352
20
0.838937
11
0.438044
21
0.840607
0
LINE
8
BLACK
6
CONTINUOUS
10
0.438044
20
0.840607
11
0.439714
21
0.841299
0
LINE
8
BLACK
6
CONTINUOUS
10
0.439714
20
0.841299
11
0.460286
21
0.841299
0
LINE
8
BLACK
6
CONTINUOUS
10
0.460286
20
0.841299
11
0.461956
21
0.840607
0
LINE
8
BLACK
6
CONTINUOUS
10
0.66844
20
0.906279
11
0.668574
21
0.906291
0
LINE
8
BLACK
6
CONTINUOUS
10
0.668574
20
0.906291
11
0.669303
21
0.905781
0
LINE
8
BLACK
6
CONTINUOUS
10
0.669303
20
0.905781
11
0.670072
21
0.905336
0
LINE
8
BLACK
6
CONTINUOUS
10
0.670072
20
0.905336
11
0.670118
21
0.905209
0
LINE
8
BLACK
6
CONTINUOUS
10
0.670118
20
0.905209
11
0.670229
21
0.905132
0
LINE
8
BLACK
6
CONTINUOUS
10
0.670229
20
0.905132
11
0.670459
21
0.904273
0
LINE
8
BLACK
6
CONTINUOUS
10
0.670459
20
0.904273
11
0.670763
21
0.903438
0
LINE
8
BLACK
6
CONTINUOUS
10
0.670763
20
0.903438
11
0.670763
21
0.879066
0
LINE
8
BLACK
6
CONTINUOUS
10
0.670763
20
0.879066
11
0.670585
21
0.878056
0
LINE
8
BLACK
6
CONTINUOUS
10
0.670585
20
0.878056
11
0.669287
21
0.876509
0
LINE
8
BLACK
6
CONTINUOUS
10
0.669287
20
0.876509
11
0.667297
21
0.876158
0
LINE
8
BLACK
6
CONTINUOUS
10
0.667297
20
0.876158
11
0.665548
21
0.877168
0
LINE
8
BLACK
6
CONTINUOUS
10
0.665548
20
0.877168
11
0.664857
21
0.879066
0
LINE
8
BLACK
6
CONTINUOUS
10
0.664857
20
0.879066
11
0.664857
21
0.89631
0
LINE
8
BLACK
6
CONTINUOUS
10
0.664857
20
0.89631
11
0.647401
21
0.878853
0
LINE
8
BLACK
6
CONTINUOUS
10
0.647401
20
0.878853
11
0.646561
21
0.878265
0
LINE
8
BLACK
6
CONTINUOUS
10
0.646561
20
0.878265
11
0.646385
21
0.87825
0
LINE
8
BLACK
6
CONTINUOUS
10
0.646385
20
0.87825
11
0.646247
21
0.87814
0
LINE
8
BLACK
6
CONTINUOUS
10
0.646247
20
0.87814
11
0.640623
21
0.876265
0
LINE
8
BLACK
6
CONTINUOUS
10
0.640623
20
0.876265
11
0.639749
21
0.876136
0
LINE
8
BLACK
6
CONTINUOUS
10
0.639749
20
0.876136
11
0.639689
21
0.876114
0
LINE
8
BLACK
6
CONTINUOUS
10
0.639689
20
0.876114
11
0.635939
21
0.876114
0
LINE
8
BLACK
6
CONTINUOUS
10
0.635939
20
0.876114
11
0.634929
21
0.876292
0
LINE
8
BLACK
6
CONTINUOUS
10
0.634929
20
0.876292
11
0.634794
21
0.876405
0
LINE
8
BLACK
6
CONTINUOUS
10
0.634794
20
0.876405
11
0.634619
21
0.876425
0
LINE
8
BLACK
6
CONTINUOUS
10
0.634619
20
0.876425
11
0.630869
21
0.8783
0
LINE
8
BLACK
6
CONTINUOUS
10
0.630869
20
0.8783
11
0.63016
21
0.878826
0
LINE
8
BLACK
6
CONTINUOUS
10
0.63016
20
0.878826
11
0.630102
21
0.878853
0
LINE
8
BLACK
6
CONTINUOUS
10
0.630102
20
0.878853
11
0.628227
21
0.880728
0
LINE
8
BLACK
6
CONTINUOUS
10
0.628227
20
0.880728
11
0.627721
21
0.881451
0
LINE
8
BLACK
6
CONTINUOUS
10
0.627721
20
0.881451
11
0.627674
21
0.881495
0
LINE
8
BLACK
6
CONTINUOUS
10
0.627674
20
0.881495
11
0.625799
21
0.885245
0
LINE
8
BLACK
6
CONTINUOUS
10
0.625799
20
0.885245
11
0.625507
21
0.886228
0
LINE
8
BLACK
6
CONTINUOUS
10
0.625507
20
0.886228
11
0.625548
21
0.8864
0
LINE
8
BLACK
6
CONTINUOUS
10
0.625548
20
0.8864
11
0.625487
21
0.886565
0
LINE
8
BLACK
6
CONTINUOUS
10
0.625487
20
0.886565
11
0.625487
21
0.895939
0
LINE
8
BLACK
6
CONTINUOUS
10
0.625487
20
0.895939
11
0.625665
21
0.896949
0
LINE
8
BLACK
6
CONTINUOUS
10
0.625665
20
0.896949
11
0.625779
21
0.897084
0
LINE
8
BLACK
6
CONTINUOUS
10
0.625779
20
0.897084
11
0.625799
21
0.89726
0
LINE
8
BLACK
6
CONTINUOUS
10
0.625799
20
0.89726
11
0.627674
21
0.901009
0
LINE
8
BLACK
6
CONTINUOUS
10
0.627674
20
0.901009
11
0.6282
21
0.901718
0
LINE
8
BLACK
6
CONTINUOUS
10
0.6282
20
0.901718
11
0.628227
21
0.901777
0
LINE
8
BLACK
6
CONTINUOUS
10
0.628227
20
0.901777
11
0.630102
21
0.903651
0
LINE
8
BLACK
6
CONTINUOUS
10
0.630102
20
0.903651
11
0.630942
21
0.90424
0
LINE
8
BLACK
6
CONTINUOUS
10
0.630942
20
0.90424
11
0.632954
21
0.904416
0
LINE
8
BLACK
6
CONTINUOUS
10
0.632954
20
0.904416
11
0.634609
21
0.903257
0
LINE
8
BLACK
6
CONTINUOUS
10
0.634609
20
0.903257
11
0.635131
21
0.901306
0
LINE
8
BLACK
6
CONTINUOUS
10
0.635131
20
0.901306
11
0.634278
21
0.899476
0
LINE
8
BLACK
6
CONTINUOUS
10
0.634278
20
0.899476
11
0.632742
21
0.89794
0
LINE
8
BLACK
6
CONTINUOUS
10
0.632742
20
0.89794
11
0.631393
21
0.895242
0
LINE
8
BLACK
6
CONTINUOUS
10
0.631393
20
0.895242
11
0.631393
21
0.887263
0
LINE
8
BLACK
6
CONTINUOUS
10
0.631393
20
0.887263
11
0.632742
21
0.884565
0
LINE
8
BLACK
6
CONTINUOUS
10
0.632742
20
0.884565
11
0.633939
21
0.883368
0
LINE
8
BLACK
6
CONTINUOUS
10
0.633939
20
0.883368
11
0.636636
21
0.882019
0
LINE
8
BLACK
6
CONTINUOUS
10
0.636636
20
0.882019
11
0.63921
21
0.882019
0
LINE
8
BLACK
6
CONTINUOUS
10
0.63921
20
0.882019
11
0.643718
21
0.883522
0
LINE
8
BLACK
6
CONTINUOUS
10
0.643718
20
0.883522
11
0.665722
21
0.905526
0
LINE
8
BLACK
6
CONTINUOUS
10
0.665722
20
0.905526
11
0.66625
21
0.905896
0
LINE
8
BLACK
6
CONTINUOUS
10
0.66625
20
0.905896
11
0.666334
21
0.905996
0
LINE
8
BLACK
6
CONTINUOUS
10
0.666334
20
0.905996
11
0.666412
21
0.906009
0
LINE
8
BLACK
6
CONTINUOUS
10
0.666412
20
0.906009
11
0.666562
21
0.906114
0
LINE
8
BLACK
6
CONTINUOUS
10
0.666562
20
0.906114
11
0.667448
21
0.906192
0
LINE
8
BLACK
6
CONTINUOUS
10
0.667448
20
0.906192
11
0.668323
21
0.906346
0
LINE
8
BLACK
6
CONTINUOUS
10
0.668323
20
0.906346
11
0.66844
21
0.906279
0
LINE
8
BLACK
6
CONTINUOUS
10
0.355384
20
0.972885
11
0.355513
21
0.972908
0
LINE
8
BLACK
6
CONTINUOUS
10
0.355513
20
0.972908
11
0.355626
21
0.972842
0
LINE
8
BLACK
6
CONTINUOUS
10
0.355626
20
0.972842
11
0.35601
21
0.972775
0
LINE
8
BLACK
6
CONTINUOUS
10
0.35601
20
0.972775
11
0.356598
21
0.972282
0
LINE
8
BLACK
6
CONTINUOUS
10
0.356598
20
0.972282
11
0.357262
21
0.971898
0
LINE
8
BLACK
6
CONTINUOUS
10
0.357262
20
0.971898
11
0.357353
21
0.971648
0
LINE
8
BLACK
6
CONTINUOUS
10
0.357353
20
0.971648
11
0.357557
21
0.971476
0
LINE
8
BLACK
6
CONTINUOUS
10
0.357557
20
0.971476
11
0.35769
21
0.970721
0
LINE
8
BLACK
6
CONTINUOUS
10
0.35769
20
0.970721
11
0.357953
21
0.97
0
LINE
8
BLACK
6
CONTINUOUS
10
0.357953
20
0.97
11
0.357953
21
0.91
0
LINE
8
BLACK
6
CONTINUOUS
10
0.357953
20
0.91
11
0.357885
21
0.909616
0
LINE
8
BLACK
6
CONTINUOUS
10
0.357885
20
0.909616
11
0.357908
21
0.909487
0
LINE
8
BLACK
6
CONTINUOUS
10
0.357908
20
0.909487
11
0.357842
21
0.909374
0
LINE
8
BLACK
6
CONTINUOUS
10
0.357842
20
0.909374
11
0.357775
21
0.90899
0
LINE
8
BLACK
6
CONTINUOUS
10
0.357775
20
0.90899
11
0.357282
21
0.908402
0
LINE
8
BLACK
6
CONTINUOUS
10
0.357282
20
0.908402
11
0.356898
21
0.907738
0
LINE
8
BLACK
6
CONTINUOUS
10
0.356898
20
0.907738
11
0.356648
21
0.907647
0
LINE
8
BLACK
6
CONTINUOUS
10
0.356648
20
0.907647
11
0.356476
21
0.907443
0
LINE
8
BLACK
6
CONTINUOUS
10
0.356476
20
0.907443
11
0.355721
21
0.90731
0
LINE
8
BLACK
6
CONTINUOUS
10
0.355721
20
0.90731
11
0.355
21
0.907047
0
LINE
8
BLACK
6
CONTINUOUS
10
0.355
20
0.907047
11
0.2525
21
0.907047
0
LINE
8
BLACK
6
CONTINUOUS
10
0.2525
20
0.907047
11
0.252116
21
0.907115
0
LINE
8
BLACK
6
CONTINUOUS
10
0.252116
20
0.907115
11
0.251987
21
0.907092
0
LINE
8
BLACK
6
CONTINUOUS
10
0.251987
20
0.907092
11
0.251874
21
0.907158
0
LINE
8
BLACK
6
CONTINUOUS
10
0.251874
20
0.907158
11
0.25149
21
0.907225
0
LINE
8
BLACK
6
CONTINUOUS
10
0.25149
20
0.907225
11
0.250902
21
0.907718
0
LINE
8
BLACK
6
CONTINUOUS
10
0.250902
20
0.907718
11
0.250238
21
0.908102
0
LINE
8
BLACK
6
CONTINUOUS
10
0.250238
20
0.908102
11
0.250147
21
0.908352
0
LINE
8
BLACK
6
CONTINUOUS
10
0.250147
20
0.908352
11
0.249943
21
0.908524
0
LINE
8
BLACK
6
CONTINUOUS
10
0.249943
20
0.908524
11
0.24981
21
0.909279
0
LINE
8
BLACK
6
CONTINUOUS
10
0.24981
20
0.909279
11
0.249547
21
0.91
0
LINE
8
BLACK
6
CONTINUOUS
10
0.249547
20
0.91
11
0.249547
21
0.97
0
LINE
8
BLACK
6
CONTINUOUS
10
0.249547
20
0.97
11
0.249615
21
0.970384
0
LINE
8
BLACK
6
CONTINUOUS
10
0.249615
20
0.970384
11
0.249592
21
0.970513
0
LINE
8
BLACK
6
CONTINUOUS
10
0.249592
20
0.970513
11
0.249658
21
0.970626
0
LINE
8
BLACK
6
CONTINUOUS
10
0.249658
20
0.970626
11
0.249725
21
0.97101
0
LINE
8
BLACK
6
CONTINUOUS
10
0.249725
20
0.97101
11
0.250218
21
0.971598
0
LINE
8
BLACK
6
CONTINUOUS
10
0.250218
20
0.971598
11
0.250602
21
0.972262
0
LINE
8
BLACK
6
CONTINUOUS
10
0.250602
20
0.972262
11
0.250852
21
0.972353
0
LINE
8
BLACK
6
CONTINUOUS
10
0.250852
20
0.972353
11
0.251024
21
0.972557
0
LINE
8
BLACK
6
CONTINUOUS
10
0.251024
20
0.972557
11
0.251779
21
0.97269
0
LINE
8
BLACK
6
CONTINUOUS
10
0.251779
20
0.97269
11
0.2525
21
0.972953
0
LINE
8
BLACK
6
CONTINUOUS
10
0.2525
20
0.972953
11
0.355
21
0.972953
0
LINE
8
BLACK
6
CONTINUOUS
10
0.355
20
0.972953
11
0.355384
21
0.972885
0
LINE
8
BLACK
6
CONTINUOUS
10
0.285894
20
0.967047
11
0.256638
21
0.947543
0
LINE
8
BLACK
6
CONTINUOUS
10
0.256638
20
0.947543
11
0.255699
21
0.947131
0
LINE
8
BLACK
6
CONTINUOUS
10
0.255699
20
0.947131
11
0.255453
21
0.947158
0
LINE
8
BLACK
6
CONTINUOUS
10
0.255453
20
0.947158
11
0.255453
21
0.912953
0
LINE
8
BLACK
6
CONTINUOUS
10
0.255453
20
0.912953
11
0.352047
21
0.912953
0
LINE
8
BLACK
6
CONTINUOUS
10
0.352047
20
0.912953
11
0.352047
21
0.967047
0
LINE
8
BLACK
6
CONTINUOUS
10
0.352047
20
0.967047
11
0.285894
21
0.967047
0
LINE
8
BLACK
6
CONTINUOUS
10
0.255453
20
0.967047
11
0.255453
21
0.953851
0
LINE
8
BLACK
6
CONTINUOUS
10
0.255453
20
0.953851
11
0.275248
21
0.967047
0
LINE
8
BLACK
6
CONTINUOUS
10
0.275248
20
0.967047
11
0.255453
21
0.967047
0
LINE
8
BLACK
6
CONTINUOUS
10
0.398332
20
0.928918
11
0.398771
21
0.927857
0
LINE
8
BLACK
6
CONTINUOUS
10
0.398771
20
0.927857
11
0.398771
21
0.927857
0
LINE
8
BLACK
6
CONTINUOUS
10
0.398771
20
0.927857
11
0.398771
21
0.909286
0
LINE
8
BLACK
6
CONTINUOUS
10
0.398771
20
0.909286
11
0.398332
21
0.908225
0
LINE
8
BLACK
6
CONTINUOUS
10
0.398332
20
0.908225
11
0.397271
21
0.907786
0
LINE
8
BLACK
6
CONTINUOUS
10
0.397271
20
0.907786
11
0.396211
21
0.908225
0
LINE
8
BLACK
6
CONTINUOUS
10
0.396211
20
0.908225
11
0.395771
21
0.909286
0
LINE
8
BLACK
6
CONTINUOUS
10
0.395771
20
0.909286
11
0.395771
21
0.924236
0
LINE
8
BLACK
6
CONTINUOUS
10
0.395771
20
0.924236
11
0.381189
21
0.909654
0
LINE
8
BLACK
6
CONTINUOUS
10
0.381189
20
0.909654
11
0.380867
21
0.90952
0
LINE
8
BLACK
6
CONTINUOUS
10
0.380867
20
0.90952
11
0.380603
21
0.909291
0
LINE
8
BLACK
6
CONTINUOUS
10
0.380603
20
0.909291
11
0.376317
21
0.907863
0
LINE
8
BLACK
6
CONTINUOUS
10
0.376317
20
0.907863
11
0.376071
21
0.90788
0
LINE
8
BLACK
6
CONTINUOUS
10
0.376071
20
0.90788
11
0.375843
21
0.907786
0
LINE
8
BLACK
6
CONTINUOUS
10
0.375843
20
0.907786
11
0.372986
21
0.907786
0
LINE
8
BLACK
6
CONTINUOUS
10
0.372986
20
0.907786
11
0.372663
21
0.907919
0
LINE
8
BLACK
6
CONTINUOUS
10
0.372663
20
0.907919
11
0.372315
21
0.907944
0
LINE
8
BLACK
6
CONTINUOUS
10
0.372315
20
0.907944
11
0.369458
21
0.909373
0
LINE
8
BLACK
6
CONTINUOUS
10
0.369458
20
0.909373
11
0.369296
21
0.909559
0
LINE
8
BLACK
6
CONTINUOUS
10
0.369296
20
0.909559
11
0.369068
21
0.909654
0
LINE
8
BLACK
6
CONTINUOUS
10
0.369068
20
0.909654
11
0.367639
21
0.911082
0
LINE
8
BLACK
6
CONTINUOUS
10
0.367639
20
0.911082
11
0.367545
21
0.91131
0
LINE
8
BLACK
6
CONTINUOUS
10
0.367545
20
0.91131
11
0.367358
21
0.911472
0
LINE
8
BLACK
6
CONTINUOUS
10
0.367358
20
0.911472
11
0.36593
21
0.914329
0
LINE
8
BLACK
6
CONTINUOUS
10
0.36593
20
0.914329
11
0.365905
21
0.914677
0
LINE
8
BLACK
6
CONTINUOUS
10
0.365905
20
0.914677
11
0.365771
21
0.915
0
LINE
8
BLACK
6
CONTINUOUS
10
0.365771
20
0.915
11
0.365771
21
0.922143
0
LINE
8
BLACK
6
CONTINUOUS
10
0.365771
20
0.922143
11
0.365905
21
0.922465
0
LINE
8
BLACK
6
CONTINUOUS
10
0.365905
20
0.922465
11
0.36593
21
0.922814
0
LINE
8
BLACK
6
CONTINUOUS
10
0.36593
20
0.922814
11
0.367358
21
0.925671
0
LINE
8
BLACK
6
CONTINUOUS
10
0.367358
20
0.925671
11
0.367545
21
0.925833
0
LINE
8
BLACK
6
CONTINUOUS
10
0.367545
20
0.925833
11
0.367639
21
0.926061
0
LINE
8
BLACK
6
CONTINUOUS
10
0.367639
20
0.926061
11
0.369068
21
0.927489
0
LINE
8
BLACK
6
CONTINUOUS
10
0.369068
20
0.927489
11
0.370129
21
0.927929
0
LINE
8
BLACK
6
CONTINUOUS
10
0.370129
20
0.927929
11
0.371189
21
0.927489
0
LINE
8
BLACK
6
CONTINUOUS
10
0.371189
20
0.927489
11
0.371629
21
0.926429
0
LINE
8
BLACK
6
CONTINUOUS
10
0.371629
20
0.926429
11
0.371189
21
0.925368
0
LINE
8
BLACK
6
CONTINUOUS
10
0.371189
20
0.925368
11
0.369933
21
0.924112
0
LINE
8
BLACK
6
CONTINUOUS
10
0.369933
20
0.924112
11
0.368771
21
0.921789
0
LINE
8
BLACK
6
CONTINUOUS
10
0.368771
20
0.921789
11
0.368771
21
0.915354
0
LINE
8
BLACK
6
CONTINUOUS
10
0.368771
20
0.915354
11
0.369933
21
0.913031
0
LINE
8
BLACK
6
CONTINUOUS
10
0.369933
20
0.913031
11
0.371017
21
0.911947
0
LINE
8
BLACK
6
CONTINUOUS
10
0.371017
20
0.911947
11
0.37334
21
0.910786
0
LINE
8
BLACK
6
CONTINUOUS
10
0.37334
20
0.910786
11
0.375599
21
0.910786
0
LINE
8
BLACK
6
CONTINUOUS
10
0.375599
20
0.910786
11
0.379318
21
0.912025
0
LINE
8
BLACK
6
CONTINUOUS
10
0.379318
20
0.912025
11
0.396211
21
0.928918
0
LINE
8
BLACK
6
CONTINUOUS
10
0.396211
20
0.928918
11
0.396211
21
0.928918
0
LINE
8
BLACK
6
CONTINUOUS
10
0.396211
20
0.928918
11
0.396521
21
0.929047
0
LINE
8
BLACK
6
CONTINUOUS
10
0.396521
20
0.929047
11
0.397271
21
0.929357
0
LINE
8
BLACK
6
CONTINUOUS
10
0.397271
20
0.929357
11
0.398332
21
0.928918
0
LINE
8
BLACK
6
CONTINUOUS
10
0.66882
20
0.941834
11
0.670367
21
0.940535
0
LINE
8
BLACK
6
CONTINUOUS
10
0.670367
20
0.940535
11
0.670718
21
0.938546
0
LINE
8
BLACK
6
CONTINUOUS
10
0.670718
20
0.938546
11
0.669708
21
0.936797
0
LINE
8
BLACK
6
CONTINUOUS
10
0.669708
20
0.936797
11
0.66781
21
0.936106
0
LINE
8
BLACK
6
CONTINUOUS
10
0.66781
20
0.936106
11
0.652015
21
0.936106
0
LINE
8
BLACK
6
CONTINUOUS
10
0.652015
20
0.936106
11
0.652015
21
0.931222
0
LINE
8
BLACK
6
CONTINUOUS
10
0.652015
20
0.931222
11
0.669504
21
0.918981
0
LINE
8
BLACK
6
CONTINUOUS
10
0.669504
20
0.918981
11
0.670229
21
0.918256
0
LINE
8
BLACK
6
CONTINUOUS
10
0.670229
20
0.918256
11
0.670752
21
0.916305
0
LINE
8
BLACK
6
CONTINUOUS
10
0.670752
20
0.916305
11
0.669898
21
0.914474
0
LINE
8
BLACK
6
CONTINUOUS
10
0.669898
20
0.914474
11
0.668068
21
0.91362
0
LINE
8
BLACK
6
CONTINUOUS
10
0.668068
20
0.91362
11
0.666117
21
0.914143
0
LINE
8
BLACK
6
CONTINUOUS
10
0.666117
20
0.914143
11
0.652008
21
0.924019
0
LINE
8
BLACK
6
CONTINUOUS
10
0.652008
20
0.924019
11
0.651837
21
0.923051
0
LINE
8
BLACK
6
CONTINUOUS
10
0.651837
20
0.923051
11
0.651724
21
0.922916
0
LINE
8
BLACK
6
CONTINUOUS
10
0.651724
20
0.922916
11
0.651704
21
0.92274
0
LINE
8
BLACK
6
CONTINUOUS
10
0.651704
20
0.92274
11
0.649829
21
0.918991
0
LINE
8
BLACK
6
CONTINUOUS
10
0.649829
20
0.918991
11
0.649303
21
0.918282
0
LINE
8
BLACK
6
CONTINUOUS
10
0.649303
20
0.918282
11
0.649276
21
0.918223
0
LINE
8
BLACK
6
CONTINUOUS
10
0.649276
20
0.918223
11
0.647401
21
0.916349
0
LINE
8
BLACK
6
CONTINUOUS
10
0.647401
20
0.916349
11
0.646678
21
0.915842
0
LINE
8
BLACK
6
CONTINUOUS
10
0.646678
20
0.915842
11
0.646634
21
0.915795
0
LINE
8
BLACK
6
CONTINUOUS
10
0.646634
20
0.915795
11
0.642884
21
0.913921
0
LINE
8
BLACK
6
CONTINUOUS
10
0.642884
20
0.913921
11
0.641901
21
0.913628
0
LINE
8
BLACK
6
CONTINUOUS
10
0.641901
20
0.913628
11
0.641729
21
0.913669
0
LINE
8
BLACK
6
CONTINUOUS
10
0.641729
20
0.913669
11
0.641564
21
0.913609
0
LINE
8
BLACK
6
CONTINUOUS
10
0.641564
20
0.913609
11
0.635939
21
0.913609
0
LINE
8
BLACK
6
CONTINUOUS
10
0.635939
20
0.913609
11
0.634929
21
0.913787
0
LINE
8
BLACK
6
CONTINUOUS
10
0.634929
20
0.913787
11
0.634794
21
0.9139
0
LINE
8
BLACK
6
CONTINUOUS
10
0.634794
20
0.9139
11
0.634619
21
0.913921
0
LINE
8
BLACK
6
CONTINUOUS
10
0.634619
20
0.913921
11
0.630869
21
0.915795
0
LINE
8
BLACK
6
CONTINUOUS
10
0.630869
20
0.915795
11
0.63016
21
0.916321
0
LINE
8
BLACK
6
CONTINUOUS
10
0.63016
20
0.916321
11
0.630102
21
0.916349
0
LINE
8
BLACK
6
CONTINUOUS
10
0.630102
20
0.916349
11
0.628227
21
0.918223
0
LINE
8
BLACK
6
CONTINUOUS
10
0.628227
20
0.918223
11
0.627721
21
0.918946
0
LINE
8
BLACK
6
CONTINUOUS
10
0.627721
20
0.918946
11
0.627674
21
0.918991
0
LINE
8
BLACK
6
CONTINUOUS
10
0.627674
20
0.918991
11
0.625799
21
0.92274
0
LINE
8
BLACK
6
CONTINUOUS
10
0.625799
20
0.92274
11
0.625507
21
0.923723
0
LINE
8
BLACK
6
CONTINUOUS
10
0.625507
20
0.923723
11
0.625548
21
0.923895
0
LINE
8
BLACK
6
CONTINUOUS
10
0.625548
20
0.923895
11
0.625487
21
0.924061
0
LINE
8
BLACK
6
CONTINUOUS
10
0.625487
20
0.924061
11
0.625487
21
0.939059
0
LINE
8
BLACK
6
CONTINUOUS
10
0.625487
20
0.939059
11
0.625555
21
0.939442
0
LINE
8
BLACK
6
CONTINUOUS
10
0.625555
20
0.939442
11
0.625532
21
0.939572
0
LINE
8
BLACK
6
CONTINUOUS
10
0.625532
20
0.939572
11
0.625598
21
0.939685
0
LINE
8
BLACK
6
CONTINUOUS
10
0.625598
20
0.939685
11
0.625665
21
0.940069
0
LINE
8
BLACK
6
CONTINUOUS
10
0.625665
20
0.940069
11
0.626159
21
0.940656
0
LINE
8
BLACK
6
CONTINUOUS
10
0.626159
20
0.940656
11
0.626542
21
0.941321
0
LINE
8
BLACK
6
CONTINUOUS
10
0.626542
20
0.941321
11
0.626793
21
0.941412
0
LINE
8
BLACK
6
CONTINUOUS
10
0.626793
20
0.941412
11
0.626964
21
0.941616
0
LINE
8
BLACK
6
CONTINUOUS
10
0.626964
20
0.941616
11
0.627719
21
0.941749
0
LINE
8
BLACK
6
CONTINUOUS
10
0.627719
20
0.941749
11
0.62844
21
0.942012
0
LINE
8
BLACK
6
CONTINUOUS
10
0.62844
20
0.942012
11
0.66781
21
0.942012
0
LINE
8
BLACK
6
CONTINUOUS
10
0.66781
20
0.942012
11
0.66882
21
0.941834
0
LINE
8
BLACK
6
CONTINUOUS
10
0.631393
20
0.936106
11
0.631393
21
0.924758
0
LINE
8
BLACK
6
CONTINUOUS
10
0.631393
20
0.924758
11
0.632742
21
0.92206
0
LINE
8
BLACK
6
CONTINUOUS
10
0.632742
20
0.92206
11
0.633939
21
0.920863
0
LINE
8
BLACK
6
CONTINUOUS
10
0.633939
20
0.920863
11
0.636636
21
0.919514
0
LINE
8
BLACK
6
CONTINUOUS
10
0.636636
20
0.919514
11
0.640866
21
0.919514
0
LINE
8
BLACK
6
CONTINUOUS
10
0.640866
20
0.919514
11
0.643564
21
0.920863
0
LINE
8
BLACK
6
CONTINUOUS
10
0.643564
20
0.920863
11
0.644761
21
0.92206
0
LINE
8
BLACK
6
CONTINUOUS
10
0.644761
20
0.92206
11
0.64611
21
0.924758
0
LINE
8
BLACK
6
CONTINUOUS
10
0.64611
20
0.924758
11
0.64611
21
0.936106
0
LINE
8
BLACK
6
CONTINUOUS
10
0.64611
20
0.936106
11
0.631393
21
0.936106
0
LINE
8
BLACK
6
CONTINUOUS
10
0.38459
20
0.957856
11
0.384778
21
0.957884
0
LINE
8
BLACK
6
CONTINUOUS
10
0.384778
20
0.957884
11
0.390492
21
0.956455
0
LINE
8
BLACK
6
CONTINUOUS
10
0.390492
20
0.956455
11
0.390629
21
0.956354
0
LINE
8
BLACK
6
CONTINUOUS
10
0.390629
20
0.956354
11
0.390799
21
0.956342
0
LINE
8
BLACK
6
CONTINUOUS
10
0.390799
20
0.956342
11
0.393657
21
0.954913
0
LINE
8
BLACK
6
CONTINUOUS
10
0.393657
20
0.954913
11
0.393818
21
0.954727
0
LINE
8
BLACK
6
CONTINUOUS
10
0.393818
20
0.954727
11
0.394046
21
0.954632
0
LINE
8
BLACK
6
CONTINUOUS
10
0.394046
20
0.954632
11
0.396904
21
0.951775
0
LINE
8
BLACK
6
CONTINUOUS
10
0.396904
20
0.951775
11
0.397037
21
0.951452
0
LINE
8
BLACK
6
CONTINUOUS
10
0.397037
20
0.951452
11
0.397266
21
0.951189
0
LINE
8
BLACK
6
CONTINUOUS
10
0.397266
20
0.951189
11
0.398694
21
0.946903
0
LINE
8
BLACK
6
CONTINUOUS
10
0.398694
20
0.946903
11
0.398677
21
0.946657
0
LINE
8
BLACK
6
CONTINUOUS
10
0.398677
20
0.946657
11
0.398771
21
0.946429
0
LINE
8
BLACK
6
CONTINUOUS
10
0.398771
20
0.946429
11
0.398771
21
0.943571
0
LINE
8
BLACK
6
CONTINUOUS
10
0.398771
20
0.943571
11
0.398677
21
0.943343
0
LINE
8
BLACK
6
CONTINUOUS
10
0.398677
20
0.943343
11
0.398694
21
0.943097
0
LINE
8
BLACK
6
CONTINUOUS
10
0.398694
20
0.943097
11
0.397266
21
0.938811
0
LINE
8
BLACK
6
CONTINUOUS
10
0.397266
20
0.938811
11
0.397037
21
0.938548
0
LINE
8
BLACK
6
CONTINUOUS
10
0.397037
20
0.938548
11
0.396904
21
0.938225
0
LINE
8
BLACK
6
CONTINUOUS
10
0.396904
20
0.938225
11
0.395475
21
0.936796
0
LINE
8
BLACK
6
CONTINUOUS
10
0.395475
20
0.936796
11
0.394414
21
0.936357
0
LINE
8
BLACK
6
CONTINUOUS
10
0.394414
20
0.936357
11
0.393354
21
0.936796
0
LINE
8
BLACK
6
CONTINUOUS
10
0.393354
20
0.936796
11
0.392914
21
0.937857
0
LINE
8
BLACK
6
CONTINUOUS
10
0.392914
20
0.937857
11
0.393354
21
0.938918
0
LINE
8
BLACK
6
CONTINUOUS
10
0.393354
20
0.938918
11
0.394532
21
0.940096
0
LINE
8
BLACK
6
CONTINUOUS
10
0.394532
20
0.940096
11
0.395771
21
0.943815
0
LINE
8
BLACK
6
CONTINUOUS
10
0.395771
20
0.943815
11
0.395771
21
0.946185
0
LINE
8
BLACK
6
CONTINUOUS
10
0.395771
20
0.946185
11
0.394532
21
0.949904
0
LINE
8
BLACK
6
CONTINUOUS
10
0.394532
20
0.949904
11
0.392097
21
0.952339
0
LINE
8
BLACK
6
CONTINUOUS
10
0.392097
20
0.952339
11
0.389605
21
0.953585
0
LINE
8
BLACK
6
CONTINUOUS
10
0.389605
20
0.953585
11
0.38423
21
0.954929
0
LINE
8
BLACK
6
CONTINUOUS
10
0.38423
20
0.954929
11
0.380313
21
0.954929
0
LINE
8
BLACK
6
CONTINUOUS
10
0.380313
20
0.954929
11
0.374938
21
0.953585
0
LINE
8
BLACK
6
CONTINUOUS
10
0.374938
20
0.953585
11
0.372446
21
0.952339
0
LINE
8
BLACK
6
CONTINUOUS
10
0.372446
20
0.952339
11
0.370011
21
0.949904
0
LINE
8
BLACK
6
CONTINUOUS
10
0.370011
20
0.949904
11
0.368771
21
0.946185
0
LINE
8
BLACK
6
CONTINUOUS
10
0.368771
20
0.946185
11
0.368771
21
0.943815
0
LINE
8
BLACK
6
CONTINUOUS
10
0.368771
20
0.943815
11
0.370011
21
0.940096
0
LINE
8
BLACK
6
CONTINUOUS
10
0.370011
20
0.940096
11
0.371189
21
0.938918
0
LINE
8
BLACK
6
CONTINUOUS
10
0.371189
20
0.938918
11
0.371629
21
0.937857
0
LINE
8
BLACK
6
CONTINUOUS
10
0.371629
20
0.937857
11
0.371189
21
0.936796
0
LINE
8
BLACK
6
CONTINUOUS
10
0.371189
20
0.936796
11
0.370129
21
0.936357
0
LINE
8
BLACK
6
CONTINUOUS
10
0.370129
20
0.936357
11
0.369068
21
0.936797
0
LINE
8
BLACK
6
CONTINUOUS
10
0.369068
20
0.936797
11
0.367639
21
0.938225
0
LINE
8
BLACK
6
CONTINUOUS
10
0.367639
20
0.938225
11
0.367506
21
0.938548
0
LINE
8
BLACK
6
CONTINUOUS
10
0.367506
20
0.938548
11
0.367277
21
0.938811
0
LINE
8
BLACK
6
CONTINUOUS
10
0.367277
20
0.938811
11
0.365848
21
0.943097
0
LINE
8
BLACK
6
CONTINUOUS
10
0.365848
20
0.943097
11
0.365866
21
0.943343
0
LINE
8
BLACK
6
CONTINUOUS
10
0.365866
20
0.943343
11
0.365771
21
0.943571
0
LINE
8
BLACK
6
CONTINUOUS
10
0.365771
20
0.943571
11
0.365771
21
0.946429
0
LINE
8
BLACK
6
CONTINUOUS
10
0.365771
20
0.946429
11
0.365866
21
0.946657
0
LINE
8
BLACK
6
CONTINUOUS
10
0.365866
20
0.946657
11
0.365848
21
0.946903
0
LINE
8
BLACK
6
CONTINUOUS
10
0.365848
20
0.946903
11
0.367277
21
0.951189
0
LINE
8
BLACK
6
CONTINUOUS
10
0.367277
20
0.951189
11
0.367506
21
0.951452
0
LINE
8
BLACK
6
CONTINUOUS
10
0.367506
20
0.951452
11
0.367639
21
0.951775
0
LINE
8
BLACK
6
CONTINUOUS
10
0.367639
20
0.951775
11
0.370496
21
0.954632
0
LINE
8
BLACK
6
CONTINUOUS
10
0.370496
20
0.954632
11
0.370725
21
0.954727
0
LINE
8
BLACK
6
CONTINUOUS
10
0.370725
20
0.954727
11
0.370886
21
0.954913
0
LINE
8
BLACK
6
CONTINUOUS
10
0.370886
20
0.954913
11
0.373743
21
0.956342
0
LINE
8
BLACK
6
CONTINUOUS
10
0.373743
20
0.956342
11
0.373914
21
0.956354
0
LINE
8
BLACK
6
CONTINUOUS
10
0.373914
20
0.956354
11
0.37405
21
0.956455
0
LINE
8
BLACK
6
CONTINUOUS
10
0.37405
20
0.956455
11
0.379765
21
0.957884
0
LINE
8
BLACK
6
CONTINUOUS
10
0.379765
20
0.957884
11
0.379953
21
0.957856
0
LINE
8
BLACK
6
CONTINUOUS
10
0.379953
20
0.957856
11
0.380129
21
0.957929
0
LINE
8
BLACK
6
CONTINUOUS
10
0.380129
20
0.957929
11
0.384414
21
0.957929
0
LINE
8
BLACK
6
CONTINUOUS
10
0.384414
20
0.957929
11
0.38459
21
0.957856
0
LINE
8
BLACK
6
CONTINUOUS
10
0.398332
20
0.970346
11
0.398771
21
0.969286
0
LINE
8
BLACK
6
CONTINUOUS
10
0.398771
20
0.969286
11
0.398332
21
0.968225
0
LINE
8
BLACK
6
CONTINUOUS
10
0.398332
20
0.968225
11
0.397271
21
0.967786
0
LINE
8
BLACK
6
CONTINUOUS
10
0.397271
20
0.967786
11
0.367271
21
0.967786
0
LINE
8
BLACK
6
CONTINUOUS
10
0.367271
20
0.967786
11
0.366211
21
0.968225
0
LINE
8
BLACK
6
CONTINUOUS
10
0.366211
20
0.968225
11
0.365771
21
0.969286
0
LINE
8
BLACK
6
CONTINUOUS
10
0.365771
20
0.969286
11
0.366211
21
0.970346
0
LINE
8
BLACK
6
CONTINUOUS
10
0.366211
20
0.970346
11
0.367271
21
0.970786
0
LINE
8
BLACK
6
CONTINUOUS
10
0.367271
20
0.970786
11
0.397271
21
0.970786
0
LINE
8
BLACK
6
CONTINUOUS
10
0.397271
20
0.970786
11
0.398332
21
0.970346
  0
ENDSEC
  0
EOF
