  0
SECTION
  2
HEADER
  9
$ANGBASE
  50
0.0
  9
$ANGDIR
  70
1
  9
$MEASUREMENT
  70
0
  0
ENDSEC
  0
SECTION
  2
TABLES
  0
TABLE
  2
LTYPE
  70
4
  0
LTYPE
  5
40F
  2
CONTINUOUS
  70
0
  3
Solid line
  72
65
  73
0
  40
0.0
  0
LTYPE
  5
410
  2
DASHDOT
 70
0
  3
Dash Dot ____ _ ____ _
 72
65
 73
4
 40
2.0
 49
1.25
 49
-0.25
 49
0.25
 49
-0.25
  0
LTYPE
  5
411
  2
DASHED
 70
0
  3
Dashed __ __ __ __ __
 72
65
 73
2
 40
0.75
 49
0.5
 49
-0.25
  0
LTYPE
  5
43B
  2
DOTTED
 70
0
  3
Dotted .  .  .  .
 72
65
 73
2
 40
0.2
 49
0.0
 49
-0.2
  0
ENDTAB
  0
TABLE
  2
STYLE
  70
4
  0
STYLE
  2
KICAD
  70
0
  40
0
  41
1
  42
1
  50
0
  71
0
  3
isocp.shx
  0
STYLE
  2
KICADB
  70
0
  40
0
  41
1
  42
1
  50
0
  71
0
  3
isocp.shx
  0
STYLE
  2
KICADI
  70
0
  40
0
  41
1
  42
1
  50
15
  71
0
  3
isocp.shx
  0
STYLE
  2
KICADBI
  70
0
  40
0
  41
1
  42
1
  50
15
  71
0
  3
isocp.shx
  0
ENDTAB
  0
TABLE
  2
LAYER
  70
1
  0
LAYER
  2
BLACK
  70
0
  62
7
  6
CONTINUOUS
  0
ENDTAB
  0
ENDSEC
  0
SECTION
  2
ENTITIES
0
LINE
8
BLACK
6
CONTINUOUS
10
-0.35899
20
-0.134021
11
-0.357443
21
-0.135319
0
LINE
8
BLACK
6
CONTINUOUS
10
-0.357443
20
-0.135319
11
-0.357092
21
-0.137308
0
LINE
8
BLACK
6
CONTINUOUS
10
-0.357092
20
-0.137308
11
-0.358102
21
-0.139057
0
LINE
8
BLACK
6
CONTINUOUS
10
-0.358102
20
-0.139057
11
-0.36
21
-0.139748
0
LINE
8
BLACK
6
CONTINUOUS
10
-0.36
20
-0.139748
11
-0.44
21
-0.139748
0
LINE
8
BLACK
6
CONTINUOUS
10
-0.44
20
-0.139748
11
-0.44101
21
-0.13957
0
LINE
8
BLACK
6
CONTINUOUS
10
-0.44101
20
-0.13957
11
-0.442557
21
-0.138272
0
LINE
8
BLACK
6
CONTINUOUS
10
-0.442557
20
-0.138272
11
-0.442908
21
-0.136283
0
LINE
8
BLACK
6
CONTINUOUS
10
-0.442908
20
-0.136283
11
-0.441898
21
-0.134533
0
LINE
8
BLACK
6
CONTINUOUS
10
-0.441898
20
-0.134533
11
-0.44
21
-0.133843
0
LINE
8
BLACK
6
CONTINUOUS
10
-0.44
20
-0.133843
11
-0.36
21
-0.133843
0
LINE
8
BLACK
6
CONTINUOUS
10
-0.36
20
-0.133843
11
-0.35899
21
-0.134021
0
LINE
8
BLACK
6
CONTINUOUS
10
-0.535533
20
0.041898
11
-0.534843
21
0.04
0
LINE
8
BLACK
6
CONTINUOUS
10
-0.534843
20
0.04
11
-0.534843
21
-0.04
0
LINE
8
BLACK
6
CONTINUOUS
10
-0.534843
20
-0.04
11
-0.535021
21
-0.0410099
0
LINE
8
BLACK
6
CONTINUOUS
10
-0.535021
20
-0.0410099
11
-0.536319
21
-0.0425572
0
LINE
8
BLACK
6
CONTINUOUS
10
-0.536319
20
-0.0425572
11
-0.538308
21
-0.0429079
0
LINE
8
BLACK
6
CONTINUOUS
10
-0.538308
20
-0.0429079
11
-0.540057
21
-0.041898
0
LINE
8
BLACK
6
CONTINUOUS
10
-0.540057
20
-0.041898
11
-0.540748
21
-0.04
0
LINE
8
BLACK
6
CONTINUOUS
10
-0.540748
20
-0.04
11
-0.540748
21
0.04
0
LINE
8
BLACK
6
CONTINUOUS
10
-0.540748
20
0.04
11
-0.54057
21
0.0410099
0
LINE
8
BLACK
6
CONTINUOUS
10
-0.54057
20
0.0410099
11
-0.539272
21
0.0425572
0
LINE
8
BLACK
6
CONTINUOUS
10
-0.539272
20
0.0425572
11
-0.537283
21
0.0429079
0
LINE
8
BLACK
6
CONTINUOUS
10
-0.537283
20
0.0429079
11
-0.535533
21
0.041898
0
LINE
8
BLACK
6
CONTINUOUS
10
-0.259943
20
0.041898
11
-0.259252
21
0.04
0
LINE
8
BLACK
6
CONTINUOUS
10
-0.259252
20
0.04
11
-0.259252
21
-0.04
0
LINE
8
BLACK
6
CONTINUOUS
10
-0.259252
20
-0.04
11
-0.25943
21
-0.0410099
0
LINE
8
BLACK
6
CONTINUOUS
10
-0.25943
20
-0.0410099
11
-0.260728
21
-0.0425572
0
LINE
8
BLACK
6
CONTINUOUS
10
-0.260728
20
-0.0425572
11
-0.262717
21
-0.0429079
0
LINE
8
BLACK
6
CONTINUOUS
10
-0.262717
20
-0.0429079
11
-0.264467
21
-0.041898
0
LINE
8
BLACK
6
CONTINUOUS
10
-0.264467
20
-0.041898
11
-0.265157
21
-0.04
0
LINE
8
BLACK
6
CONTINUOUS
10
-0.265157
20
-0.04
11
-0.265157
21
0.04
0
LINE
8
BLACK
6
CONTINUOUS
10
-0.265157
20
0.04
11
-0.264979
21
0.0410099
0
LINE
8
BLACK
6
CONTINUOUS
10
-0.264979
20
0.0410099
11
-0.263681
21
0.0425572
0
LINE
8
BLACK
6
CONTINUOUS
10
-0.263681
20
0.0425572
11
-0.261692
21
0.0429079
0
LINE
8
BLACK
6
CONTINUOUS
10
-0.261692
20
0.0429079
11
-0.259943
21
0.041898
0
LINE
8
BLACK
6
CONTINUOUS
10
-1.55962
20
0.492885
11
-1.55949
21
0.492908
0
LINE
8
BLACK
6
CONTINUOUS
10
-1.55949
20
0.492908
11
-1.55937
21
0.492842
0
LINE
8
BLACK
6
CONTINUOUS
10
-1.55937
20
0.492842
11
-1.55899
21
0.492775
0
LINE
8
BLACK
6
CONTINUOUS
10
-1.55899
20
0.492775
11
-1.5584
21
0.492282
0
LINE
8
BLACK
6
CONTINUOUS
10
-1.5584
20
0.492282
11
-1.55774
21
0.491898
0
LINE
8
BLACK
6
CONTINUOUS
10
-1.55774
20
0.491898
11
-1.55765
21
0.491648
0
LINE
8
BLACK
6
CONTINUOUS
10
-1.55765
20
0.491648
11
-1.55744
21
0.491476
0
LINE
8
BLACK
6
CONTINUOUS
10
-1.55744
20
0.491476
11
-1.55731
21
0.490721
0
LINE
8
BLACK
6
CONTINUOUS
10
-1.55731
20
0.490721
11
-1.55705
21
0.49
0
LINE
8
BLACK
6
CONTINUOUS
10
-1.55705
20
0.49
11
-1.55705
21
0.09
0
LINE
8
BLACK
6
CONTINUOUS
10
-1.55705
20
0.09
11
-1.55711
21
0.0896165
0
LINE
8
BLACK
6
CONTINUOUS
10
-1.55711
20
0.0896165
11
-1.55709
21
0.0894872
0
LINE
8
BLACK
6
CONTINUOUS
10
-1.55709
20
0.0894872
11
-1.55716
21
0.0893736
0
LINE
8
BLACK
6
CONTINUOUS
10
-1.55716
20
0.0893736
11
-1.55723
21
0.0889901
0
LINE
8
BLACK
6
CONTINUOUS
10
-1.55723
20
0.0889901
11
-1.55772
21
0.0884024
0
LINE
8
BLACK
6
CONTINUOUS
10
-1.55772
20
0.0884024
11
-1.5581
21
0.0877381
0
LINE
8
BLACK
6
CONTINUOUS
10
-1.5581
20
0.0877381
11
-1.55835
21
0.087647
0
LINE
8
BLACK
6
CONTINUOUS
10
-1.55835
20
0.087647
11
-1.55852
21
0.0874428
0
LINE
8
BLACK
6
CONTINUOUS
10
-1.55852
20
0.0874428
11
-1.55928
21
0.0873096
0
LINE
8
BLACK
6
CONTINUOUS
10
-1.55928
20
0.0873096
11
-1.56
21
0.0870472
0
LINE
8
BLACK
6
CONTINUOUS
10
-1.56
20
0.0870472
11
-1.76
21
0.0870472
0
LINE
8
BLACK
6
CONTINUOUS
10
-1.76
20
0.0870472
11
-1.76038
21
0.0871149
0
LINE
8
BLACK
6
CONTINUOUS
10
-1.76038
20
0.0871149
11
-1.76051
21
0.0870921
0
LINE
8
BLACK
6
CONTINUOUS
10
-1.76051
20
0.0870921
11
-1.76063
21
0.0871577
0
LINE
8
BLACK
6
CONTINUOUS
10
-1.76063
20
0.0871577
11
-1.76101
21
0.0872253
0
LINE
8
BLACK
6
CONTINUOUS
10
-1.76101
20
0.0872253
11
-1.7616
21
0.0877185
0
LINE
8
BLACK
6
CONTINUOUS
10
-1.7616
20
0.0877185
11
-1.76226
21
0.088102
0
LINE
8
BLACK
6
CONTINUOUS
10
-1.76226
20
0.088102
11
-1.76235
21
0.0883524
0
LINE
8
BLACK
6
CONTINUOUS
10
-1.76235
20
0.0883524
11
-1.76256
21
0.0885236
0
LINE
8
BLACK
6
CONTINUOUS
10
-1.76256
20
0.0885236
11
-1.76269
21
0.0892792
0
LINE
8
BLACK
6
CONTINUOUS
10
-1.76269
20
0.0892792
11
-1.76295
21
0.09
0
LINE
8
BLACK
6
CONTINUOUS
10
-1.76295
20
0.09
11
-1.76295
21
0.49
0
LINE
8
BLACK
6
CONTINUOUS
10
-1.76295
20
0.49
11
-1.76289
21
0.490384
0
LINE
8
BLACK
6
CONTINUOUS
10
-1.76289
20
0.490384
11
-1.76291
21
0.490513
0
LINE
8
BLACK
6
CONTINUOUS
10
-1.76291
20
0.490513
11
-1.76284
21
0.490626
0
LINE
8
BLACK
6
CONTINUOUS
10
-1.76284
20
0.490626
11
-1.76277
21
0.49101
0
LINE
8
BLACK
6
CONTINUOUS
10
-1.76277
20
0.49101
11
-1.76228
21
0.491598
0
LINE
8
BLACK
6
CONTINUOUS
10
-1.76228
20
0.491598
11
-1.7619
21
0.492262
0
LINE
8
BLACK
6
CONTINUOUS
10
-1.7619
20
0.492262
11
-1.76165
21
0.492353
0
LINE
8
BLACK
6
CONTINUOUS
10
-1.76165
20
0.492353
11
-1.76148
21
0.492557
0
LINE
8
BLACK
6
CONTINUOUS
10
-1.76148
20
0.492557
11
-1.76072
21
0.49269
0
LINE
8
BLACK
6
CONTINUOUS
10
-1.76072
20
0.49269
11
-1.76
21
0.492953
0
LINE
8
BLACK
6
CONTINUOUS
10
-1.76
20
0.492953
11
-1.56
21
0.492953
0
LINE
8
BLACK
6
CONTINUOUS
10
-1.56
20
0.492953
11
-1.55962
21
0.492885
0
LINE
8
BLACK
6
CONTINUOUS
10
-1.75705
20
0.487047
11
-1.75705
21
0.0929528
0
LINE
8
BLACK
6
CONTINUOUS
10
-1.75705
20
0.0929528
11
-1.56295
21
0.0929528
0
LINE
8
BLACK
6
CONTINUOUS
10
-1.56295
20
0.0929528
11
-1.56295
21
0.487047
0
LINE
8
BLACK
6
CONTINUOUS
10
-1.56295
20
0.487047
11
-1.75705
21
0.487047
0
LINE
8
BLACK
6
CONTINUOUS
10
-1.68
20
0.11
11
-1.74
21
0.11
0
LINE
8
BLACK
6
CONTINUOUS
10
-1.74
20
0.11
11
-1.74
21
0.17
0
LINE
8
BLACK
6
CONTINUOUS
10
-1.74
20
0.17
11
-1.68
21
0.17
0
LINE
8
BLACK
6
CONTINUOUS
10
-1.68
20
0.17
11
-1.68
21
0.11
0
LINE
8
BLACK
6
CONTINUOUS
10
-1.58
20
0.11
11
-1.64
21
0.11
0
LINE
8
BLACK
6
CONTINUOUS
10
-1.64
20
0.11
11
-1.64
21
0.17
0
LINE
8
BLACK
6
CONTINUOUS
10
-1.64
20
0.17
11
-1.58
21
0.17
0
LINE
8
BLACK
6
CONTINUOUS
10
-1.58
20
0.17
11
-1.58
21
0.11
0
LINE
8
BLACK
6
CONTINUOUS
10
-1.68
20
0.21
11
-1.74
21
0.21
0
LINE
8
BLACK
6
CONTINUOUS
10
-1.74
20
0.21
11
-1.74
21
0.27
0
LINE
8
BLACK
6
CONTINUOUS
10
-1.74
20
0.27
11
-1.68
21
0.27
0
LINE
8
BLACK
6
CONTINUOUS
10
-1.68
20
0.27
11
-1.68
21
0.21
0
LINE
8
BLACK
6
CONTINUOUS
10
-1.58
20
0.21
11
-1.64
21
0.21
0
LINE
8
BLACK
6
CONTINUOUS
10
-1.64
20
0.21
11
-1.64
21
0.27
0
LINE
8
BLACK
6
CONTINUOUS
10
-1.64
20
0.27
11
-1.58
21
0.27
0
LINE
8
BLACK
6
CONTINUOUS
10
-1.58
20
0.27
11
-1.58
21
0.21
0
LINE
8
BLACK
6
CONTINUOUS
10
-1.58
20
0.31
11
-1.64
21
0.31
0
LINE
8
BLACK
6
CONTINUOUS
10
-1.64
20
0.31
11
-1.64
21
0.37
0
LINE
8
BLACK
6
CONTINUOUS
10
-1.64
20
0.37
11
-1.58
21
0.37
0
LINE
8
BLACK
6
CONTINUOUS
10
-1.58
20
0.37
11
-1.58
21
0.31
0
LINE
8
BLACK
6
CONTINUOUS
10
-1.68
20
0.31
11
-1.74
21
0.31
0
LINE
8
BLACK
6
CONTINUOUS
10
-1.74
20
0.31
11
-1.74
21
0.37
0
LINE
8
BLACK
6
CONTINUOUS
10
-1.74
20
0.37
11
-1.68
21
0.37
0
LINE
8
BLACK
6
CONTINUOUS
10
-1.68
20
0.37
11
-1.68
21
0.31
0
LINE
8
BLACK
6
CONTINUOUS
10
-1.68
20
0.41
11
-1.74
21
0.41
0
LINE
8
BLACK
6
CONTINUOUS
10
-1.74
20
0.41
11
-1.74
21
0.47
0
LINE
8
BLACK
6
CONTINUOUS
10
-1.74
20
0.47
11
-1.68
21
0.47
0
LINE
8
BLACK
6
CONTINUOUS
10
-1.68
20
0.47
11
-1.68
21
0.41
0
LINE
8
BLACK
6
CONTINUOUS
10
-1.58
20
0.41
11
-1.64
21
0.41
0
LINE
8
BLACK
6
CONTINUOUS
10
-1.64
20
0.41
11
-1.64
21
0.47
0
LINE
8
BLACK
6
CONTINUOUS
10
-1.64
20
0.47
11
-1.58
21
0.47
0
LINE
8
BLACK
6
CONTINUOUS
10
-1.58
20
0.47
11
-1.58
21
0.41
0
LINE
8
BLACK
6
CONTINUOUS
10
-0.35899
20
0.14057
11
-0.357443
21
0.139272
0
LINE
8
BLACK
6
CONTINUOUS
10
-0.357443
20
0.139272
11
-0.357092
21
0.137283
0
LINE
8
BLACK
6
CONTINUOUS
10
-0.357092
20
0.137283
11
-0.358102
21
0.135533
0
LINE
8
BLACK
6
CONTINUOUS
10
-0.358102
20
0.135533
11
-0.36
21
0.134843
0
LINE
8
BLACK
6
CONTINUOUS
10
-0.36
20
0.134843
11
-0.44
21
0.134843
0
LINE
8
BLACK
6
CONTINUOUS
10
-0.44
20
0.134843
11
-0.44101
21
0.135021
0
LINE
8
BLACK
6
CONTINUOUS
10
-0.44101
20
0.135021
11
-0.442557
21
0.136319
0
LINE
8
BLACK
6
CONTINUOUS
10
-0.442557
20
0.136319
11
-0.442908
21
0.138308
0
LINE
8
BLACK
6
CONTINUOUS
10
-0.442908
20
0.138308
11
-0.441898
21
0.140057
0
LINE
8
BLACK
6
CONTINUOUS
10
-0.441898
20
0.140057
11
-0.44
21
0.140748
0
LINE
8
BLACK
6
CONTINUOUS
10
-0.44
20
0.140748
11
-0.36
21
0.140748
0
LINE
8
BLACK
6
CONTINUOUS
10
-0.36
20
0.140748
11
-0.35899
21
0.14057
0
LINE
8
BLACK
6
CONTINUOUS
10
-0.362432
20
0.235902
11
-0.360885
21
0.234604
0
LINE
8
BLACK
6
CONTINUOUS
10
-0.360885
20
0.234604
11
-0.360534
21
0.232614
0
LINE
8
BLACK
6
CONTINUOUS
10
-0.360534
20
0.232614
11
-0.361544
21
0.230865
0
LINE
8
BLACK
6
CONTINUOUS
10
-0.361544
20
0.230865
11
-0.363442
21
0.230174
0
LINE
8
BLACK
6
CONTINUOUS
10
-0.363442
20
0.230174
11
-0.388891
21
0.230174
0
LINE
8
BLACK
6
CONTINUOUS
10
-0.388891
20
0.230174
11
-0.390757
21
0.211523
0
LINE
8
BLACK
6
CONTINUOUS
10
-0.390757
20
0.211523
11
-0.38726
21
0.213271
0
LINE
8
BLACK
6
CONTINUOUS
10
-0.38726
20
0.213271
11
-0.386277
21
0.213563
0
LINE
8
BLACK
6
CONTINUOUS
10
-0.386277
20
0.213563
11
-0.386105
21
0.213522
0
LINE
8
BLACK
6
CONTINUOUS
10
-0.386105
20
0.213522
11
-0.385939
21
0.213583
0
LINE
8
BLACK
6
CONTINUOUS
10
-0.385939
20
0.213583
11
-0.371879
21
0.213583
0
LINE
8
BLACK
6
CONTINUOUS
10
-0.371879
20
0.213583
11
-0.370869
21
0.213405
0
LINE
8
BLACK
6
CONTINUOUS
10
-0.370869
20
0.213405
11
-0.370733
21
0.213291
0
LINE
8
BLACK
6
CONTINUOUS
10
-0.370733
20
0.213291
11
-0.370558
21
0.213271
0
LINE
8
BLACK
6
CONTINUOUS
10
-0.370558
20
0.213271
11
-0.364934
21
0.210459
0
LINE
8
BLACK
6
CONTINUOUS
10
-0.364934
20
0.210459
11
-0.364225
21
0.209933
0
LINE
8
BLACK
6
CONTINUOUS
10
-0.364225
20
0.209933
11
-0.364166
21
0.209906
0
LINE
8
BLACK
6
CONTINUOUS
10
-0.364166
20
0.209906
11
-0.361354
21
0.207094
0
LINE
8
BLACK
6
CONTINUOUS
10
-0.361354
20
0.207094
11
-0.360848
21
0.20637
0
LINE
8
BLACK
6
CONTINUOUS
10
-0.360848
20
0.20637
11
-0.360801
21
0.206326
0
LINE
8
BLACK
6
CONTINUOUS
10
-0.360801
20
0.206326
11
-0.357989
21
0.200702
0
LINE
8
BLACK
6
CONTINUOUS
10
-0.357989
20
0.200702
11
-0.357697
21
0.199719
0
LINE
8
BLACK
6
CONTINUOUS
10
-0.357697
20
0.199719
11
-0.357738
21
0.199547
0
LINE
8
BLACK
6
CONTINUOUS
10
-0.357738
20
0.199547
11
-0.357677
21
0.199381
0
LINE
8
BLACK
6
CONTINUOUS
10
-0.357677
20
0.199381
11
-0.357677
21
0.185321
0
LINE
8
BLACK
6
CONTINUOUS
10
-0.357677
20
0.185321
11
-0.357855
21
0.184311
0
LINE
8
BLACK
6
CONTINUOUS
10
-0.357855
20
0.184311
11
-0.357969
21
0.184175
0
LINE
8
BLACK
6
CONTINUOUS
10
-0.357969
20
0.184175
11
-0.357989
21
0.184
0
LINE
8
BLACK
6
CONTINUOUS
10
-0.357989
20
0.184
11
-0.360801
21
0.178376
0
LINE
8
BLACK
6
CONTINUOUS
10
-0.360801
20
0.178376
11
-0.361327
21
0.177667
0
LINE
8
BLACK
6
CONTINUOUS
10
-0.361327
20
0.177667
11
-0.361354
21
0.177608
0
LINE
8
BLACK
6
CONTINUOUS
10
-0.361354
20
0.177608
11
-0.364166
21
0.174796
0
LINE
8
BLACK
6
CONTINUOUS
10
-0.364166
20
0.174796
11
-0.364889
21
0.17429
0
LINE
8
BLACK
6
CONTINUOUS
10
-0.364889
20
0.17429
11
-0.364934
21
0.174243
0
LINE
8
BLACK
6
CONTINUOUS
10
-0.364934
20
0.174243
11
-0.370558
21
0.171431
0
LINE
8
BLACK
6
CONTINUOUS
10
-0.370558
20
0.171431
11
-0.371541
21
0.171139
0
LINE
8
BLACK
6
CONTINUOUS
10
-0.371541
20
0.171139
11
-0.371713
21
0.17118
0
LINE
8
BLACK
6
CONTINUOUS
10
-0.371713
20
0.17118
11
-0.371879
21
0.171119
0
LINE
8
BLACK
6
CONTINUOUS
10
-0.371879
20
0.171119
11
-0.385939
21
0.171119
0
LINE
8
BLACK
6
CONTINUOUS
10
-0.385939
20
0.171119
11
-0.386949
21
0.171297
0
LINE
8
BLACK
6
CONTINUOUS
10
-0.386949
20
0.171297
11
-0.387084
21
0.171411
0
LINE
8
BLACK
6
CONTINUOUS
10
-0.387084
20
0.171411
11
-0.38726
21
0.171431
0
LINE
8
BLACK
6
CONTINUOUS
10
-0.38726
20
0.171431
11
-0.392884
21
0.174243
0
LINE
8
BLACK
6
CONTINUOUS
10
-0.392884
20
0.174243
11
-0.393593
21
0.174769
0
LINE
8
BLACK
6
CONTINUOUS
10
-0.393593
20
0.174769
11
-0.393651
21
0.174796
0
LINE
8
BLACK
6
CONTINUOUS
10
-0.393651
20
0.174796
11
-0.396464
21
0.177608
0
LINE
8
BLACK
6
CONTINUOUS
10
-0.396464
20
0.177608
11
-0.397052
21
0.178448
0
LINE
8
BLACK
6
CONTINUOUS
10
-0.397052
20
0.178448
11
-0.397228
21
0.180461
0
LINE
8
BLACK
6
CONTINUOUS
10
-0.397228
20
0.180461
11
-0.396069
21
0.182115
0
LINE
8
BLACK
6
CONTINUOUS
10
-0.396069
20
0.182115
11
-0.394118
21
0.182638
0
LINE
8
BLACK
6
CONTINUOUS
10
-0.394118
20
0.182638
11
-0.392288
21
0.181784
0
LINE
8
BLACK
6
CONTINUOUS
10
-0.392288
20
0.181784
11
-0.389814
21
0.179311
0
LINE
8
BLACK
6
CONTINUOUS
10
-0.389814
20
0.179311
11
-0.385242
21
0.177025
0
LINE
8
BLACK
6
CONTINUOUS
10
-0.385242
20
0.177025
11
-0.372576
21
0.177025
0
LINE
8
BLACK
6
CONTINUOUS
10
-0.372576
20
0.177025
11
-0.368003
21
0.179311
0
LINE
8
BLACK
6
CONTINUOUS
10
-0.368003
20
0.179311
11
-0.365869
21
0.181445
0
LINE
8
BLACK
6
CONTINUOUS
10
-0.365869
20
0.181445
11
-0.363583
21
0.186018
0
LINE
8
BLACK
6
CONTINUOUS
10
-0.363583
20
0.186018
11
-0.363583
21
0.198684
0
LINE
8
BLACK
6
CONTINUOUS
10
-0.363583
20
0.198684
11
-0.365869
21
0.203257
0
LINE
8
BLACK
6
CONTINUOUS
10
-0.365869
20
0.203257
11
-0.368003
21
0.205391
0
LINE
8
BLACK
6
CONTINUOUS
10
-0.368003
20
0.205391
11
-0.372576
21
0.207677
0
LINE
8
BLACK
6
CONTINUOUS
10
-0.372576
20
0.207677
11
-0.385242
21
0.207677
0
LINE
8
BLACK
6
CONTINUOUS
10
-0.385242
20
0.207677
11
-0.389814
21
0.205391
0
LINE
8
BLACK
6
CONTINUOUS
10
-0.389814
20
0.205391
11
-0.392288
21
0.202918
0
LINE
8
BLACK
6
CONTINUOUS
10
-0.392288
20
0.202918
11
-0.393128
21
0.20233
0
LINE
8
BLACK
6
CONTINUOUS
10
-0.393128
20
0.20233
11
-0.393147
21
0.202328
0
LINE
8
BLACK
6
CONTINUOUS
10
-0.393147
20
0.202328
11
-0.393161
21
0.202314
0
LINE
8
BLACK
6
CONTINUOUS
10
-0.393161
20
0.202314
11
-0.394151
21
0.20224
0
LINE
8
BLACK
6
CONTINUOUS
10
-0.394151
20
0.20224
11
-0.39514
21
0.202153
0
LINE
8
BLACK
6
CONTINUOUS
10
-0.39514
20
0.202153
11
-0.395156
21
0.202165
0
LINE
8
BLACK
6
CONTINUOUS
10
-0.395156
20
0.202165
11
-0.395175
21
0.202163
0
LINE
8
BLACK
6
CONTINUOUS
10
-0.395175
20
0.202163
11
-0.395981
21
0.202742
0
LINE
8
BLACK
6
CONTINUOUS
10
-0.395981
20
0.202742
11
-0.396794
21
0.203312
0
LINE
8
BLACK
6
CONTINUOUS
10
-0.396794
20
0.203312
11
-0.3968
21
0.203331
0
LINE
8
BLACK
6
CONTINUOUS
10
-0.3968
20
0.203331
11
-0.396815
21
0.203342
0
LINE
8
BLACK
6
CONTINUOUS
10
-0.396815
20
0.203342
11
-0.39706
21
0.204304
0
LINE
8
BLACK
6
CONTINUOUS
10
-0.39706
20
0.204304
11
-0.397317
21
0.205263
0
LINE
8
BLACK
6
CONTINUOUS
10
-0.397317
20
0.205263
11
-0.397309
21
0.205281
0
LINE
8
BLACK
6
CONTINUOUS
10
-0.397309
20
0.205281
11
-0.397314
21
0.205299
0
LINE
8
BLACK
6
CONTINUOUS
10
-0.397314
20
0.205299
11
-0.394502
21
0.233421
0
LINE
8
BLACK
6
CONTINUOUS
10
-0.394502
20
0.233421
11
-0.394459
21
0.233571
0
LINE
8
BLACK
6
CONTINUOUS
10
-0.394459
20
0.233571
11
-0.394471
21
0.23364
0
LINE
8
BLACK
6
CONTINUOUS
10
-0.394471
20
0.23364
11
-0.39441
21
0.233746
0
LINE
8
BLACK
6
CONTINUOUS
10
-0.39441
20
0.233746
11
-0.394224
21
0.234408
0
LINE
8
BLACK
6
CONTINUOUS
10
-0.394224
20
0.234408
11
-0.393775
21
0.234846
0
LINE
8
BLACK
6
CONTINUOUS
10
-0.393775
20
0.234846
11
-0.393462
21
0.235389
0
LINE
8
BLACK
6
CONTINUOUS
10
-0.393462
20
0.235389
11
-0.393074
21
0.23553
0
LINE
8
BLACK
6
CONTINUOUS
10
-0.393074
20
0.23553
11
-0.392778
21
0.235819
0
LINE
8
BLACK
6
CONTINUOUS
10
-0.392778
20
0.235819
11
-0.392153
21
0.235865
0
LINE
8
BLACK
6
CONTINUOUS
10
-0.392153
20
0.235865
11
-0.391564
21
0.23608
0
LINE
8
BLACK
6
CONTINUOUS
10
-0.391564
20
0.23608
11
-0.363442
21
0.23608
0
LINE
8
BLACK
6
CONTINUOUS
10
-0.363442
20
0.23608
11
-0.362432
21
0.235902
0
LINE
8
BLACK
6
CONTINUOUS
10
-0.417423
20
0.235025
11
-0.416732
21
0.233127
0
LINE
8
BLACK
6
CONTINUOUS
10
-0.416732
20
0.233127
11
-0.416732
21
0.190945
0
LINE
8
BLACK
6
CONTINUOUS
10
-0.416732
20
0.190945
11
-0.416886
21
0.190075
0
LINE
8
BLACK
6
CONTINUOUS
10
-0.416886
20
0.190075
11
-0.416884
21
0.190011
0
LINE
8
BLACK
6
CONTINUOUS
10
-0.416884
20
0.190011
11
-0.419696
21
0.181575
0
LINE
8
BLACK
6
CONTINUOUS
10
-0.419696
20
0.181575
11
-0.420184
21
0.180673
0
LINE
8
BLACK
6
CONTINUOUS
10
-0.420184
20
0.180673
11
-0.420335
21
0.180581
0
LINE
8
BLACK
6
CONTINUOUS
10
-0.420335
20
0.180581
11
-0.420409
21
0.180421
0
LINE
8
BLACK
6
CONTINUOUS
10
-0.420409
20
0.180421
11
-0.426034
21
0.174796
0
LINE
8
BLACK
6
CONTINUOUS
10
-0.426034
20
0.174796
11
-0.426874
21
0.174208
0
LINE
8
BLACK
6
CONTINUOUS
10
-0.426874
20
0.174208
11
-0.427049
21
0.174193
0
LINE
8
BLACK
6
CONTINUOUS
10
-0.427049
20
0.174193
11
-0.427188
21
0.174083
0
LINE
8
BLACK
6
CONTINUOUS
10
-0.427188
20
0.174083
11
-0.435624
21
0.171271
0
LINE
8
BLACK
6
CONTINUOUS
10
-0.435624
20
0.171271
11
-0.436497
21
0.171141
0
LINE
8
BLACK
6
CONTINUOUS
10
-0.436497
20
0.171141
11
-0.436558
21
0.171119
0
LINE
8
BLACK
6
CONTINUOUS
10
-0.436558
20
0.171119
11
-0.442182
21
0.171119
0
LINE
8
BLACK
6
CONTINUOUS
10
-0.442182
20
0.171119
11
-0.443192
21
0.171297
0
LINE
8
BLACK
6
CONTINUOUS
10
-0.443192
20
0.171297
11
-0.444739
21
0.172596
0
LINE
8
BLACK
6
CONTINUOUS
10
-0.444739
20
0.172596
11
-0.44509
21
0.174585
0
LINE
8
BLACK
6
CONTINUOUS
10
-0.44509
20
0.174585
11
-0.44408
21
0.176334
0
LINE
8
BLACK
6
CONTINUOUS
10
-0.44408
20
0.176334
11
-0.442182
21
0.177025
0
LINE
8
BLACK
6
CONTINUOUS
10
-0.442182
20
0.177025
11
-0.437037
21
0.177025
0
LINE
8
BLACK
6
CONTINUOUS
10
-0.437037
20
0.177025
11
-0.429717
21
0.179465
0
LINE
8
BLACK
6
CONTINUOUS
10
-0.429717
20
0.179465
11
-0.425078
21
0.184104
0
LINE
8
BLACK
6
CONTINUOUS
10
-0.425078
20
0.184104
11
-0.422638
21
0.191424
0
LINE
8
BLACK
6
CONTINUOUS
10
-0.422638
20
0.191424
11
-0.422638
21
0.233127
0
LINE
8
BLACK
6
CONTINUOUS
10
-0.422638
20
0.233127
11
-0.42246
21
0.234137
0
LINE
8
BLACK
6
CONTINUOUS
10
-0.42246
20
0.234137
11
-0.421161
21
0.235684
0
LINE
8
BLACK
6
CONTINUOUS
10
-0.421161
20
0.235684
11
-0.419172
21
0.236035
0
LINE
8
BLACK
6
CONTINUOUS
10
-0.419172
20
0.236035
11
-0.417423
21
0.235025
0
LINE
8
BLACK
6
CONTINUOUS
10
-0.35899
20
0.265979
11
-0.357443
21
0.264681
0
LINE
8
BLACK
6
CONTINUOUS
10
-0.357443
20
0.264681
11
-0.357092
21
0.262692
0
LINE
8
BLACK
6
CONTINUOUS
10
-0.357092
20
0.262692
11
-0.358102
21
0.260943
0
LINE
8
BLACK
6
CONTINUOUS
10
-0.358102
20
0.260943
11
-0.36
21
0.260252
0
LINE
8
BLACK
6
CONTINUOUS
10
-0.36
20
0.260252
11
-0.44
21
0.260252
0
LINE
8
BLACK
6
CONTINUOUS
10
-0.44
20
0.260252
11
-0.44101
21
0.26043
0
LINE
8
BLACK
6
CONTINUOUS
10
-0.44101
20
0.26043
11
-0.442557
21
0.261728
0
LINE
8
BLACK
6
CONTINUOUS
10
-0.442557
20
0.261728
11
-0.442908
21
0.263717
0
LINE
8
BLACK
6
CONTINUOUS
10
-0.442908
20
0.263717
11
-0.441898
21
0.265467
0
LINE
8
BLACK
6
CONTINUOUS
10
-0.441898
20
0.265467
11
-0.44
21
0.266157
0
LINE
8
BLACK
6
CONTINUOUS
10
-0.44
20
0.266157
11
-0.36
21
0.266157
0
LINE
8
BLACK
6
CONTINUOUS
10
-0.36
20
0.266157
11
-0.35899
21
0.265979
0
LINE
8
BLACK
6
CONTINUOUS
10
-1.03971
20
0.35535
11
-1.03959
21
0.355373
0
LINE
8
BLACK
6
CONTINUOUS
10
-1.03959
20
0.355373
11
-1.03947
21
0.355308
0
LINE
8
BLACK
6
CONTINUOUS
10
-1.03947
20
0.355308
11
-1.03909
21
0.35524
0
LINE
8
BLACK
6
CONTINUOUS
10
-1.03909
20
0.35524
11
-1.0385
21
0.354747
0
LINE
8
BLACK
6
CONTINUOUS
10
-1.0385
20
0.354747
11
-1.03784
21
0.354363
0
LINE
8
BLACK
6
CONTINUOUS
10
-1.03784
20
0.354363
11
-1.03775
21
0.354113
0
LINE
8
BLACK
6
CONTINUOUS
10
-1.03775
20
0.354113
11
-1.03754
21
0.353942
0
LINE
8
BLACK
6
CONTINUOUS
10
-1.03754
20
0.353942
11
-1.03741
21
0.353186
0
LINE
8
BLACK
6
CONTINUOUS
10
-1.03741
20
0.353186
11
-1.03715
21
0.352465
0
LINE
8
BLACK
6
CONTINUOUS
10
-1.03715
20
0.352465
11
-1.03715
21
0.313177
0
LINE
8
BLACK
6
CONTINUOUS
10
-1.03715
20
0.313177
11
-1.03225
21
0.313177
0
LINE
8
BLACK
6
CONTINUOUS
10
-1.03225
20
0.313177
11
-1.03119
21
0.312738
0
LINE
8
BLACK
6
CONTINUOUS
10
-1.03119
20
0.312738
11
-1.03075
21
0.311677
0
LINE
8
BLACK
6
CONTINUOUS
10
-1.03075
20
0.311677
11
-1.03119
21
0.310617
0
LINE
8
BLACK
6
CONTINUOUS
10
-1.03119
20
0.310617
11
-1.03225
21
0.310177
0
LINE
8
BLACK
6
CONTINUOUS
10
-1.03225
20
0.310177
11
-1.03715
21
0.310177
0
LINE
8
BLACK
6
CONTINUOUS
10
-1.03715
20
0.310177
11
-1.03715
21
0.292465
0
LINE
8
BLACK
6
CONTINUOUS
10
-1.03715
20
0.292465
11
-1.03721
21
0.292082
0
LINE
8
BLACK
6
CONTINUOUS
10
-1.03721
20
0.292082
11
-1.03719
21
0.291953
0
LINE
8
BLACK
6
CONTINUOUS
10
-1.03719
20
0.291953
11
-1.03726
21
0.291839
0
LINE
8
BLACK
6
CONTINUOUS
10
-1.03726
20
0.291839
11
-1.03732
21
0.291455
0
LINE
8
BLACK
6
CONTINUOUS
10
-1.03732
20
0.291455
11
-1.03782
21
0.290868
0
LINE
8
BLACK
6
CONTINUOUS
10
-1.03782
20
0.290868
11
-1.0382
21
0.290203
0
LINE
8
BLACK
6
CONTINUOUS
10
-1.0382
20
0.290203
11
-1.03845
21
0.290112
0
LINE
8
BLACK
6
CONTINUOUS
10
-1.03845
20
0.290112
11
-1.03862
21
0.289908
0
LINE
8
BLACK
6
CONTINUOUS
10
-1.03862
20
0.289908
11
-1.03938
21
0.289775
0
LINE
8
BLACK
6
CONTINUOUS
10
-1.03938
20
0.289775
11
-1.0401
21
0.289513
0
LINE
8
BLACK
6
CONTINUOUS
10
-1.0401
20
0.289513
11
-1.1426
21
0.289513
0
LINE
8
BLACK
6
CONTINUOUS
10
-1.1426
20
0.289513
11
-1.14298
21
0.28958
0
LINE
8
BLACK
6
CONTINUOUS
10
-1.14298
20
0.28958
11
-1.14311
21
0.289557
0
LINE
8
BLACK
6
CONTINUOUS
10
-1.14311
20
0.289557
11
-1.14322
21
0.289623
0
LINE
8
BLACK
6
CONTINUOUS
10
-1.14322
20
0.289623
11
-1.14361
21
0.289691
0
LINE
8
BLACK
6
CONTINUOUS
10
-1.14361
20
0.289691
11
-1.1442
21
0.290184
0
LINE
8
BLACK
6
CONTINUOUS
10
-1.1442
20
0.290184
11
-1.14486
21
0.290567
0
LINE
8
BLACK
6
CONTINUOUS
10
-1.14486
20
0.290567
11
-1.14495
21
0.290818
0
LINE
8
BLACK
6
CONTINUOUS
10
-1.14495
20
0.290818
11
-1.14516
21
0.290989
0
LINE
8
BLACK
6
CONTINUOUS
10
-1.14516
20
0.290989
11
-1.14529
21
0.291745
0
LINE
8
BLACK
6
CONTINUOUS
10
-1.14529
20
0.291745
11
-1.14555
21
0.292465
0
LINE
8
BLACK
6
CONTINUOUS
10
-1.14555
20
0.292465
11
-1.14555
21
0.352465
0
LINE
8
BLACK
6
CONTINUOUS
10
-1.14555
20
0.352465
11
-1.14548
21
0.352849
0
LINE
8
BLACK
6
CONTINUOUS
10
-1.14548
20
0.352849
11
-1.14551
21
0.352978
0
LINE
8
BLACK
6
CONTINUOUS
10
-1.14551
20
0.352978
11
-1.14544
21
0.353092
0
LINE
8
BLACK
6
CONTINUOUS
10
-1.14544
20
0.353092
11
-1.14537
21
0.353475
0
LINE
8
BLACK
6
CONTINUOUS
10
-1.14537
20
0.353475
11
-1.14488
21
0.354063
0
LINE
8
BLACK
6
CONTINUOUS
10
-1.14488
20
0.354063
11
-1.1445
21
0.354727
0
LINE
8
BLACK
6
CONTINUOUS
10
-1.1445
20
0.354727
11
-1.14425
21
0.354818
0
LINE
8
BLACK
6
CONTINUOUS
10
-1.14425
20
0.354818
11
-1.14407
21
0.355023
0
LINE
8
BLACK
6
CONTINUOUS
10
-1.14407
20
0.355023
11
-1.14332
21
0.355156
0
LINE
8
BLACK
6
CONTINUOUS
10
-1.14332
20
0.355156
11
-1.1426
21
0.355418
0
LINE
8
BLACK
6
CONTINUOUS
10
-1.1426
20
0.355418
11
-1.0401
21
0.355418
0
LINE
8
BLACK
6
CONTINUOUS
10
-1.0401
20
0.355418
11
-1.03971
21
0.35535
0
LINE
8
BLACK
6
CONTINUOUS
10
-1.13965
20
0.295418
11
-1.11985
21
0.295418
0
LINE
8
BLACK
6
CONTINUOUS
10
-1.11985
20
0.295418
11
-1.13965
21
0.308615
0
LINE
8
BLACK
6
CONTINUOUS
10
-1.13965
20
0.308615
11
-1.13965
21
0.295418
0
LINE
8
BLACK
6
CONTINUOUS
10
-1.13965
20
0.349513
11
-1.13965
21
0.334611
0
LINE
8
BLACK
6
CONTINUOUS
10
-1.13965
20
0.334611
11
-1.13952
21
0.33462
0
LINE
8
BLACK
6
CONTINUOUS
10
-1.13952
20
0.33462
11
-1.13919
21
0.334753
0
LINE
8
BLACK
6
CONTINUOUS
10
-1.13919
20
0.334753
11
-1.1345
21
0.334753
0
LINE
8
BLACK
6
CONTINUOUS
10
-1.1345
20
0.334753
11
-1.13418
21
0.33462
0
LINE
8
BLACK
6
CONTINUOUS
10
-1.13418
20
0.33462
11
-1.13383
21
0.334595
0
LINE
8
BLACK
6
CONTINUOUS
10
-1.13383
20
0.334595
11
-1.13196
21
0.333657
0
LINE
8
BLACK
6
CONTINUOUS
10
-1.13196
20
0.333657
11
-1.13179
21
0.333471
0
LINE
8
BLACK
6
CONTINUOUS
10
-1.13179
20
0.333471
11
-1.13157
21
0.333376
0
LINE
8
BLACK
6
CONTINUOUS
10
-1.13157
20
0.333376
11
-1.13063
21
0.332438
0
LINE
8
BLACK
6
CONTINUOUS
10
-1.13063
20
0.332438
11
-1.13053
21
0.33221
0
LINE
8
BLACK
6
CONTINUOUS
10
-1.13053
20
0.33221
11
-1.13035
21
0.332048
0
LINE
8
BLACK
6
CONTINUOUS
10
-1.13035
20
0.332048
11
-1.12941
21
0.330172
0
LINE
8
BLACK
6
CONTINUOUS
10
-1.12941
20
0.330172
11
-1.12938
21
0.329824
0
LINE
8
BLACK
6
CONTINUOUS
10
-1.12938
20
0.329824
11
-1.12925
21
0.329501
0
LINE
8
BLACK
6
CONTINUOUS
10
-1.12925
20
0.329501
11
-1.12925
21
0.327625
0
LINE
8
BLACK
6
CONTINUOUS
10
-1.12925
20
0.327625
11
-1.12935
21
0.327397
0
LINE
8
BLACK
6
CONTINUOUS
10
-1.12935
20
0.327397
11
-1.12933
21
0.327151
0
LINE
8
BLACK
6
CONTINUOUS
10
-1.12933
20
0.327151
11
-1.13027
21
0.324336
0
LINE
8
BLACK
6
CONTINUOUS
10
-1.13027
20
0.324336
11
-1.13049
21
0.324072
0
LINE
8
BLACK
6
CONTINUOUS
10
-1.13049
20
0.324072
11
-1.13063
21
0.32375
0
LINE
8
BLACK
6
CONTINUOUS
10
-1.13063
20
0.32375
11
-1.13926
21
0.315117
0
LINE
8
BLACK
6
CONTINUOUS
10
-1.13926
20
0.315117
11
-1.139
21
0.315053
0
LINE
8
BLACK
6
CONTINUOUS
10
-1.139
20
0.315053
11
-1.13075
21
0.315053
0
LINE
8
BLACK
6
CONTINUOUS
10
-1.13075
20
0.315053
11
-1.12969
21
0.314614
0
LINE
8
BLACK
6
CONTINUOUS
10
-1.12969
20
0.314614
11
-1.12925
21
0.313553
0
LINE
8
BLACK
6
CONTINUOUS
10
-1.12925
20
0.313553
11
-1.12969
21
0.312493
0
LINE
8
BLACK
6
CONTINUOUS
10
-1.12969
20
0.312493
11
-1.13075
21
0.312053
0
LINE
8
BLACK
6
CONTINUOUS
10
-1.13075
20
0.312053
11
-1.13416
21
0.312053
0
LINE
8
BLACK
6
CONTINUOUS
10
-1.13416
20
0.312053
11
-1.1092
21
0.295418
0
LINE
8
BLACK
6
CONTINUOUS
10
-1.1092
20
0.295418
11
-1.04305
21
0.295418
0
LINE
8
BLACK
6
CONTINUOUS
10
-1.04305
20
0.295418
11
-1.04305
21
0.310177
0
LINE
8
BLACK
6
CONTINUOUS
10
-1.04305
20
0.310177
11
-1.04726
21
0.310177
0
LINE
8
BLACK
6
CONTINUOUS
10
-1.04726
20
0.310177
11
-1.04832
21
0.310617
0
LINE
8
BLACK
6
CONTINUOUS
10
-1.04832
20
0.310617
11
-1.04876
21
0.311677
0
LINE
8
BLACK
6
CONTINUOUS
10
-1.04876
20
0.311677
11
-1.04832
21
0.312738
0
LINE
8
BLACK
6
CONTINUOUS
10
-1.04832
20
0.312738
11
-1.04726
21
0.313177
0
LINE
8
BLACK
6
CONTINUOUS
10
-1.04726
20
0.313177
11
-1.04305
21
0.313177
0
LINE
8
BLACK
6
CONTINUOUS
10
-1.04305
20
0.313177
11
-1.04305
21
0.349513
0
LINE
8
BLACK
6
CONTINUOUS
10
-1.04305
20
0.349513
11
-1.13965
21
0.349513
0
LINE
8
BLACK
6
CONTINUOUS
10
-1.13884
20
0.331753
11
-1.13965
21
0.33135
0
LINE
8
BLACK
6
CONTINUOUS
10
-1.13965
20
0.33135
11
-1.13965
21
0.318975
0
LINE
8
BLACK
6
CONTINUOUS
10
-1.13965
20
0.318975
11
-1.133
21
0.325621
0
LINE
8
BLACK
6
CONTINUOUS
10
-1.133
20
0.325621
11
-1.13225
21
0.327868
0
LINE
8
BLACK
6
CONTINUOUS
10
-1.13225
20
0.327868
11
-1.13225
21
0.329147
0
LINE
8
BLACK
6
CONTINUOUS
10
-1.13225
20
0.329147
11
-1.13292
21
0.330489
0
LINE
8
BLACK
6
CONTINUOUS
10
-1.13292
20
0.330489
11
-1.13352
21
0.331083
0
LINE
8
BLACK
6
CONTINUOUS
10
-1.13352
20
0.331083
11
-1.13486
21
0.331753
0
LINE
8
BLACK
6
CONTINUOUS
10
-1.13486
20
0.331753
11
-1.13884
21
0.331753
0
LINE
8
BLACK
6
CONTINUOUS
10
-1.07135
20
0.334627
11
-1.07102
21
0.334613
0
LINE
8
BLACK
6
CONTINUOUS
10
-1.07102
20
0.334613
11
-1.07084
21
0.334416
0
LINE
8
BLACK
6
CONTINUOUS
10
-1.07084
20
0.334416
11
-1.07059
21
0.334314
0
LINE
8
BLACK
6
CONTINUOUS
10
-1.07059
20
0.334314
11
-1.07046
21
0.334009
0
LINE
8
BLACK
6
CONTINUOUS
10
-1.07046
20
0.334009
11
-1.07024
21
0.333766
0
LINE
8
BLACK
6
CONTINUOUS
10
-1.07024
20
0.333766
11
-1.07025
21
0.3335
0
LINE
8
BLACK
6
CONTINUOUS
10
-1.07025
20
0.3335
11
-1.07015
21
0.333253
0
LINE
8
BLACK
6
CONTINUOUS
10
-1.07015
20
0.333253
11
-1.07015
21
0.313553
0
LINE
8
BLACK
6
CONTINUOUS
10
-1.07015
20
0.313553
11
-1.07059
21
0.312493
0
LINE
8
BLACK
6
CONTINUOUS
10
-1.07059
20
0.312493
11
-1.07165
21
0.312053
0
LINE
8
BLACK
6
CONTINUOUS
10
-1.07165
20
0.312053
11
-1.07271
21
0.312493
0
LINE
8
BLACK
6
CONTINUOUS
10
-1.07271
20
0.312493
11
-1.07315
21
0.313553
0
LINE
8
BLACK
6
CONTINUOUS
10
-1.07315
20
0.313553
11
-1.07315
21
0.326492
0
LINE
8
BLACK
6
CONTINUOUS
10
-1.07315
20
0.326492
11
-1.07686
21
0.318548
0
LINE
8
BLACK
6
CONTINUOUS
10
-1.07686
20
0.318548
11
-1.07724
21
0.318201
0
LINE
8
BLACK
6
CONTINUOUS
10
-1.07724
20
0.318201
11
-1.07758
21
0.317823
0
LINE
8
BLACK
6
CONTINUOUS
10
-1.07758
20
0.317823
11
-1.07765
21
0.31782
0
LINE
8
BLACK
6
CONTINUOUS
10
-1.07765
20
0.31782
11
-1.0777
21
0.317772
0
LINE
8
BLACK
6
CONTINUOUS
10
-1.0777
20
0.317772
11
-1.07822
21
0.317795
0
LINE
8
BLACK
6
CONTINUOUS
10
-1.07822
20
0.317795
11
-1.07873
21
0.317772
0
LINE
8
BLACK
6
CONTINUOUS
10
-1.07873
20
0.317772
11
-1.07878
21
0.31782
0
LINE
8
BLACK
6
CONTINUOUS
10
-1.07878
20
0.31782
11
-1.07885
21
0.317823
0
LINE
8
BLACK
6
CONTINUOUS
10
-1.07885
20
0.317823
11
-1.0792
21
0.318201
0
LINE
8
BLACK
6
CONTINUOUS
10
-1.0792
20
0.318201
11
-1.07958
21
0.318548
0
LINE
8
BLACK
6
CONTINUOUS
10
-1.07958
20
0.318548
11
-1.08328
21
0.326492
0
LINE
8
BLACK
6
CONTINUOUS
10
-1.08328
20
0.326492
11
-1.08328
21
0.313553
0
LINE
8
BLACK
6
CONTINUOUS
10
-1.08328
20
0.313553
11
-1.08372
21
0.312493
0
LINE
8
BLACK
6
CONTINUOUS
10
-1.08372
20
0.312493
11
-1.08478
21
0.312053
0
LINE
8
BLACK
6
CONTINUOUS
10
-1.08478
20
0.312053
11
-1.08584
21
0.312493
0
LINE
8
BLACK
6
CONTINUOUS
10
-1.08584
20
0.312493
11
-1.08628
21
0.313553
0
LINE
8
BLACK
6
CONTINUOUS
10
-1.08628
20
0.313553
11
-1.08628
21
0.333253
0
LINE
8
BLACK
6
CONTINUOUS
10
-1.08628
20
0.333253
11
-1.08618
21
0.3335
0
LINE
8
BLACK
6
CONTINUOUS
10
-1.08618
20
0.3335
11
-1.08619
21
0.333766
0
LINE
8
BLACK
6
CONTINUOUS
10
-1.08619
20
0.333766
11
-1.08597
21
0.334009
0
LINE
8
BLACK
6
CONTINUOUS
10
-1.08597
20
0.334009
11
-1.08584
21
0.334314
0
LINE
8
BLACK
6
CONTINUOUS
10
-1.08584
20
0.334314
11
-1.0856
21
0.334416
0
LINE
8
BLACK
6
CONTINUOUS
10
-1.0856
20
0.334416
11
-1.08542
21
0.334613
0
LINE
8
BLACK
6
CONTINUOUS
10
-1.08542
20
0.334613
11
-1.08509
21
0.334627
0
LINE
8
BLACK
6
CONTINUOUS
10
-1.08509
20
0.334627
11
-1.08478
21
0.334753
0
LINE
8
BLACK
6
CONTINUOUS
10
-1.08478
20
0.334753
11
-1.08454
21
0.334651
0
LINE
8
BLACK
6
CONTINUOUS
10
-1.08454
20
0.334651
11
-1.08427
21
0.334663
0
LINE
8
BLACK
6
CONTINUOUS
10
-1.08427
20
0.334663
11
-1.08403
21
0.33444
0
LINE
8
BLACK
6
CONTINUOUS
10
-1.08403
20
0.33444
11
-1.08372
21
0.334314
0
LINE
8
BLACK
6
CONTINUOUS
10
-1.08372
20
0.334314
11
-1.08362
21
0.334068
0
LINE
8
BLACK
6
CONTINUOUS
10
-1.08362
20
0.334068
11
-1.08342
21
0.333888
0
LINE
8
BLACK
6
CONTINUOUS
10
-1.08342
20
0.333888
11
-1.07822
21
0.322729
0
LINE
8
BLACK
6
CONTINUOUS
10
-1.07822
20
0.322729
11
-1.07301
21
0.333888
0
LINE
8
BLACK
6
CONTINUOUS
10
-1.07301
20
0.333888
11
-1.07281
21
0.334068
0
LINE
8
BLACK
6
CONTINUOUS
10
-1.07281
20
0.334068
11
-1.07271
21
0.334314
0
LINE
8
BLACK
6
CONTINUOUS
10
-1.07271
20
0.334314
11
-1.07241
21
0.33444
0
LINE
8
BLACK
6
CONTINUOUS
10
-1.07241
20
0.33444
11
-1.07216
21
0.334663
0
LINE
8
BLACK
6
CONTINUOUS
10
-1.07216
20
0.334663
11
-1.0719
21
0.334651
0
LINE
8
BLACK
6
CONTINUOUS
10
-1.0719
20
0.334651
11
-1.07165
21
0.334753
0
LINE
8
BLACK
6
CONTINUOUS
10
-1.07165
20
0.334753
11
-1.07135
21
0.334627
0
LINE
8
BLACK
6
CONTINUOUS
10
-1.09759
20
0.33462
11
-1.09725
21
0.334595
0
LINE
8
BLACK
6
CONTINUOUS
10
-1.09725
20
0.334595
11
-1.09537
21
0.333657
0
LINE
8
BLACK
6
CONTINUOUS
10
-1.09537
20
0.333657
11
-1.09521
21
0.33347
0
LINE
8
BLACK
6
CONTINUOUS
10
-1.09521
20
0.33347
11
-1.09498
21
0.333376
0
LINE
8
BLACK
6
CONTINUOUS
10
-1.09498
20
0.333376
11
-1.09404
21
0.332438
0
LINE
8
BLACK
6
CONTINUOUS
10
-1.09404
20
0.332438
11
-1.09395
21
0.33221
0
LINE
8
BLACK
6
CONTINUOUS
10
-1.09395
20
0.33221
11
-1.09376
21
0.332048
0
LINE
8
BLACK
6
CONTINUOUS
10
-1.09376
20
0.332048
11
-1.09282
21
0.330172
0
LINE
8
BLACK
6
CONTINUOUS
10
-1.09282
20
0.330172
11
-1.09281
21
0.330002
0
LINE
8
BLACK
6
CONTINUOUS
10
-1.09281
20
0.330002
11
-1.09271
21
0.329865
0
LINE
8
BLACK
6
CONTINUOUS
10
-1.09271
20
0.329865
11
-1.09177
21
0.326113
0
LINE
8
BLACK
6
CONTINUOUS
10
-1.09177
20
0.326113
11
-1.0918
21
0.325924
0
LINE
8
BLACK
6
CONTINUOUS
10
-1.0918
20
0.325924
11
-1.09173
21
0.325749
0
LINE
8
BLACK
6
CONTINUOUS
10
-1.09173
20
0.325749
11
-1.09173
21
0.321058
0
LINE
8
BLACK
6
CONTINUOUS
10
-1.09173
20
0.321058
11
-1.0918
21
0.320883
0
LINE
8
BLACK
6
CONTINUOUS
10
-1.0918
20
0.320883
11
-1.09177
21
0.320694
0
LINE
8
BLACK
6
CONTINUOUS
10
-1.09177
20
0.320694
11
-1.09271
21
0.316942
0
LINE
8
BLACK
6
CONTINUOUS
10
-1.09271
20
0.316942
11
-1.09281
21
0.316805
0
LINE
8
BLACK
6
CONTINUOUS
10
-1.09281
20
0.316805
11
-1.09282
21
0.316635
0
LINE
8
BLACK
6
CONTINUOUS
10
-1.09282
20
0.316635
11
-1.09376
21
0.314759
0
LINE
8
BLACK
6
CONTINUOUS
10
-1.09376
20
0.314759
11
-1.09395
21
0.314597
0
LINE
8
BLACK
6
CONTINUOUS
10
-1.09395
20
0.314597
11
-1.09404
21
0.314369
0
LINE
8
BLACK
6
CONTINUOUS
10
-1.09404
20
0.314369
11
-1.09498
21
0.313431
0
LINE
8
BLACK
6
CONTINUOUS
10
-1.09498
20
0.313431
11
-1.09521
21
0.313336
0
LINE
8
BLACK
6
CONTINUOUS
10
-1.09521
20
0.313336
11
-1.09537
21
0.31315
0
LINE
8
BLACK
6
CONTINUOUS
10
-1.09537
20
0.31315
11
-1.09725
21
0.312212
0
LINE
8
BLACK
6
CONTINUOUS
10
-1.09725
20
0.312212
11
-1.09759
21
0.312187
0
LINE
8
BLACK
6
CONTINUOUS
10
-1.09759
20
0.312187
11
-1.09792
21
0.312053
0
LINE
8
BLACK
6
CONTINUOUS
10
-1.09792
20
0.312053
11
-1.09979
21
0.312053
0
LINE
8
BLACK
6
CONTINUOUS
10
-1.09979
20
0.312053
11
-1.10012
21
0.312187
0
LINE
8
BLACK
6
CONTINUOUS
10
-1.10012
20
0.312187
11
-1.10046
21
0.312212
0
LINE
8
BLACK
6
CONTINUOUS
10
-1.10046
20
0.312212
11
-1.10234
21
0.31315
0
LINE
8
BLACK
6
CONTINUOUS
10
-1.10234
20
0.31315
11
-1.1025
21
0.313336
0
LINE
8
BLACK
6
CONTINUOUS
10
-1.1025
20
0.313336
11
-1.10273
21
0.313431
0
LINE
8
BLACK
6
CONTINUOUS
10
-1.10273
20
0.313431
11
-1.10367
21
0.314369
0
LINE
8
BLACK
6
CONTINUOUS
10
-1.10367
20
0.314369
11
-1.10376
21
0.314597
0
LINE
8
BLACK
6
CONTINUOUS
10
-1.10376
20
0.314597
11
-1.10395
21
0.314759
0
LINE
8
BLACK
6
CONTINUOUS
10
-1.10395
20
0.314759
11
-1.10489
21
0.316635
0
LINE
8
BLACK
6
CONTINUOUS
10
-1.10489
20
0.316635
11
-1.1049
21
0.316805
0
LINE
8
BLACK
6
CONTINUOUS
10
-1.1049
20
0.316805
11
-1.105
21
0.316942
0
LINE
8
BLACK
6
CONTINUOUS
10
-1.105
20
0.316942
11
-1.10594
21
0.320694
0
LINE
8
BLACK
6
CONTINUOUS
10
-1.10594
20
0.320694
11
-1.10591
21
0.320883
0
LINE
8
BLACK
6
CONTINUOUS
10
-1.10591
20
0.320883
11
-1.10598
21
0.321058
0
LINE
8
BLACK
6
CONTINUOUS
10
-1.10598
20
0.321058
11
-1.10598
21
0.325749
0
LINE
8
BLACK
6
CONTINUOUS
10
-1.10598
20
0.325749
11
-1.10591
21
0.325924
0
LINE
8
BLACK
6
CONTINUOUS
10
-1.10591
20
0.325924
11
-1.10594
21
0.326113
0
LINE
8
BLACK
6
CONTINUOUS
10
-1.10594
20
0.326113
11
-1.105
21
0.329865
0
LINE
8
BLACK
6
CONTINUOUS
10
-1.105
20
0.329865
11
-1.1049
21
0.330002
0
LINE
8
BLACK
6
CONTINUOUS
10
-1.1049
20
0.330002
11
-1.10489
21
0.330172
0
LINE
8
BLACK
6
CONTINUOUS
10
-1.10489
20
0.330172
11
-1.10395
21
0.332048
0
LINE
8
BLACK
6
CONTINUOUS
10
-1.10395
20
0.332048
11
-1.10376
21
0.33221
0
LINE
8
BLACK
6
CONTINUOUS
10
-1.10376
20
0.33221
11
-1.10367
21
0.332438
0
LINE
8
BLACK
6
CONTINUOUS
10
-1.10367
20
0.332438
11
-1.10273
21
0.333376
0
LINE
8
BLACK
6
CONTINUOUS
10
-1.10273
20
0.333376
11
-1.1025
21
0.33347
0
LINE
8
BLACK
6
CONTINUOUS
10
-1.1025
20
0.33347
11
-1.10234
21
0.333657
0
LINE
8
BLACK
6
CONTINUOUS
10
-1.10234
20
0.333657
11
-1.10046
21
0.334595
0
LINE
8
BLACK
6
CONTINUOUS
10
-1.10046
20
0.334595
11
-1.10012
21
0.33462
0
LINE
8
BLACK
6
CONTINUOUS
10
-1.10012
20
0.33462
11
-1.09979
21
0.334753
0
LINE
8
BLACK
6
CONTINUOUS
10
-1.09979
20
0.334753
11
-1.09792
21
0.334753
0
LINE
8
BLACK
6
CONTINUOUS
10
-1.09792
20
0.334753
11
-1.09759
21
0.33462
0
LINE
8
BLACK
6
CONTINUOUS
10
-1.09944
20
0.331753
11
-1.10078
21
0.331083
0
LINE
8
BLACK
6
CONTINUOUS
10
-1.10078
20
0.331083
11
-1.10138
21
0.330489
0
LINE
8
BLACK
6
CONTINUOUS
10
-1.10138
20
0.330489
11
-1.10213
21
0.328977
0
LINE
8
BLACK
6
CONTINUOUS
10
-1.10213
20
0.328977
11
-1.10298
21
0.325564
0
LINE
8
BLACK
6
CONTINUOUS
10
-1.10298
20
0.325564
11
-1.10298
21
0.321243
0
LINE
8
BLACK
6
CONTINUOUS
10
-1.10298
20
0.321243
11
-1.10213
21
0.31783
0
LINE
8
BLACK
6
CONTINUOUS
10
-1.10213
20
0.31783
11
-1.10138
21
0.316318
0
LINE
8
BLACK
6
CONTINUOUS
10
-1.10138
20
0.316318
11
-1.10078
21
0.315724
0
LINE
8
BLACK
6
CONTINUOUS
10
-1.10078
20
0.315724
11
-1.09944
21
0.315053
0
LINE
8
BLACK
6
CONTINUOUS
10
-1.09944
20
0.315053
11
-1.09827
21
0.315053
0
LINE
8
BLACK
6
CONTINUOUS
10
-1.09827
20
0.315053
11
-1.09693
21
0.315724
0
LINE
8
BLACK
6
CONTINUOUS
10
-1.09693
20
0.315724
11
-1.09634
21
0.316318
0
LINE
8
BLACK
6
CONTINUOUS
10
-1.09634
20
0.316318
11
-1.09558
21
0.31783
0
LINE
8
BLACK
6
CONTINUOUS
10
-1.09558
20
0.31783
11
-1.09473
21
0.321243
0
LINE
8
BLACK
6
CONTINUOUS
10
-1.09473
20
0.321243
11
-1.09473
21
0.325564
0
LINE
8
BLACK
6
CONTINUOUS
10
-1.09473
20
0.325564
11
-1.09558
21
0.328977
0
LINE
8
BLACK
6
CONTINUOUS
10
-1.09558
20
0.328977
11
-1.09634
21
0.330489
0
LINE
8
BLACK
6
CONTINUOUS
10
-1.09634
20
0.330489
11
-1.09693
21
0.331083
0
LINE
8
BLACK
6
CONTINUOUS
10
-1.09693
20
0.331083
11
-1.09827
21
0.331753
0
LINE
8
BLACK
6
CONTINUOUS
10
-1.09827
20
0.331753
11
-1.09944
21
0.331753
0
LINE
8
BLACK
6
CONTINUOUS
10
-1.04995
20
0.334314
11
-1.04951
21
0.333253
0
LINE
8
BLACK
6
CONTINUOUS
10
-1.04951
20
0.333253
11
-1.04995
21
0.332193
0
LINE
8
BLACK
6
CONTINUOUS
10
-1.04995
20
0.332193
11
-1.05747
21
0.32467
0
LINE
8
BLACK
6
CONTINUOUS
10
-1.05747
20
0.32467
11
-1.04981
21
0.314453
0
LINE
8
BLACK
6
CONTINUOUS
10
-1.04981
20
0.314453
11
-1.04953
21
0.313341
0
LINE
8
BLACK
6
CONTINUOUS
10
-1.04953
20
0.313341
11
-1.05011
21
0.312353
0
LINE
8
BLACK
6
CONTINUOUS
10
-1.05011
20
0.312353
11
-1.05122
21
0.312069
0
LINE
8
BLACK
6
CONTINUOUS
10
-1.05122
20
0.312069
11
-1.05221
21
0.312653
0
LINE
8
BLACK
6
CONTINUOUS
10
-1.05221
20
0.312653
11
-1.05962
21
0.322527
0
LINE
8
BLACK
6
CONTINUOUS
10
-1.05962
20
0.322527
11
-1.06077
21
0.321375
0
LINE
8
BLACK
6
CONTINUOUS
10
-1.06077
20
0.321375
11
-1.06077
21
0.313553
0
LINE
8
BLACK
6
CONTINUOUS
10
-1.06077
20
0.313553
11
-1.06121
21
0.312493
0
LINE
8
BLACK
6
CONTINUOUS
10
-1.06121
20
0.312493
11
-1.06227
21
0.312053
0
LINE
8
BLACK
6
CONTINUOUS
10
-1.06227
20
0.312053
11
-1.06333
21
0.312493
0
LINE
8
BLACK
6
CONTINUOUS
10
-1.06333
20
0.312493
11
-1.06377
21
0.313553
0
LINE
8
BLACK
6
CONTINUOUS
10
-1.06377
20
0.313553
11
-1.06377
21
0.333253
0
LINE
8
BLACK
6
CONTINUOUS
10
-1.06377
20
0.333253
11
-1.06333
21
0.334314
0
LINE
8
BLACK
6
CONTINUOUS
10
-1.06333
20
0.334314
11
-1.06227
21
0.334753
0
LINE
8
BLACK
6
CONTINUOUS
10
-1.06227
20
0.334753
11
-1.06121
21
0.334314
0
LINE
8
BLACK
6
CONTINUOUS
10
-1.06121
20
0.334314
11
-1.06077
21
0.333253
0
LINE
8
BLACK
6
CONTINUOUS
10
-1.06077
20
0.333253
11
-1.06077
21
0.325618
0
LINE
8
BLACK
6
CONTINUOUS
10
-1.06077
20
0.325618
11
-1.05207
21
0.334314
0
LINE
8
BLACK
6
CONTINUOUS
10
-1.05207
20
0.334314
11
-1.05101
21
0.334753
0
LINE
8
BLACK
6
CONTINUOUS
10
-1.05101
20
0.334753
11
-1.04995
21
0.334314
0
LINE
8
BLACK
6
CONTINUOUS
10
-1.11542
20
0.33462
11
-1.11507
21
0.334595
0
LINE
8
BLACK
6
CONTINUOUS
10
-1.11507
20
0.334595
11
-1.11319
21
0.333657
0
LINE
8
BLACK
6
CONTINUOUS
10
-1.11319
20
0.333657
11
-1.11303
21
0.33347
0
LINE
8
BLACK
6
CONTINUOUS
10
-1.11303
20
0.33347
11
-1.1128
21
0.333376
0
LINE
8
BLACK
6
CONTINUOUS
10
-1.1128
20
0.333376
11
-1.11187
21
0.332438
0
LINE
8
BLACK
6
CONTINUOUS
10
-1.11187
20
0.332438
11
-1.11177
21
0.33221
0
LINE
8
BLACK
6
CONTINUOUS
10
-1.11177
20
0.33221
11
-1.11159
21
0.332048
0
LINE
8
BLACK
6
CONTINUOUS
10
-1.11159
20
0.332048
11
-1.11065
21
0.330172
0
LINE
8
BLACK
6
CONTINUOUS
10
-1.11065
20
0.330172
11
-1.11062
21
0.329824
0
LINE
8
BLACK
6
CONTINUOUS
10
-1.11062
20
0.329824
11
-1.11049
21
0.329501
0
LINE
8
BLACK
6
CONTINUOUS
10
-1.11049
20
0.329501
11
-1.11049
21
0.327625
0
LINE
8
BLACK
6
CONTINUOUS
10
-1.11049
20
0.327625
11
-1.11058
21
0.327397
0
LINE
8
BLACK
6
CONTINUOUS
10
-1.11058
20
0.327397
11
-1.11057
21
0.327151
0
LINE
8
BLACK
6
CONTINUOUS
10
-1.11057
20
0.327151
11
-1.1115
21
0.324336
0
LINE
8
BLACK
6
CONTINUOUS
10
-1.1115
20
0.324336
11
-1.11173
21
0.324073
0
LINE
8
BLACK
6
CONTINUOUS
10
-1.11173
20
0.324073
11
-1.11187
21
0.32375
0
LINE
8
BLACK
6
CONTINUOUS
10
-1.11187
20
0.32375
11
-1.12056
21
0.315053
0
LINE
8
BLACK
6
CONTINUOUS
10
-1.12056
20
0.315053
11
-1.11199
21
0.315053
0
LINE
8
BLACK
6
CONTINUOUS
10
-1.11199
20
0.315053
11
-1.11093
21
0.314614
0
LINE
8
BLACK
6
CONTINUOUS
10
-1.11093
20
0.314614
11
-1.11049
21
0.313553
0
LINE
8
BLACK
6
CONTINUOUS
10
-1.11049
20
0.313553
11
-1.11093
21
0.312493
0
LINE
8
BLACK
6
CONTINUOUS
10
-1.11093
20
0.312493
11
-1.11199
21
0.312053
0
LINE
8
BLACK
6
CONTINUOUS
10
-1.11199
20
0.312053
11
-1.12418
21
0.312053
0
LINE
8
BLACK
6
CONTINUOUS
10
-1.12418
20
0.312053
11
-1.12524
21
0.312493
0
LINE
8
BLACK
6
CONTINUOUS
10
-1.12524
20
0.312493
11
-1.12568
21
0.313553
0
LINE
8
BLACK
6
CONTINUOUS
10
-1.12568
20
0.313553
11
-1.12524
21
0.314614
0
LINE
8
BLACK
6
CONTINUOUS
10
-1.12524
20
0.314614
11
-1.11424
21
0.325621
0
LINE
8
BLACK
6
CONTINUOUS
10
-1.11424
20
0.325621
11
-1.11349
21
0.327868
0
LINE
8
BLACK
6
CONTINUOUS
10
-1.11349
20
0.327868
11
-1.11349
21
0.329147
0
LINE
8
BLACK
6
CONTINUOUS
10
-1.11349
20
0.329147
11
-1.11416
21
0.330489
0
LINE
8
BLACK
6
CONTINUOUS
10
-1.11416
20
0.330489
11
-1.11475
21
0.331083
0
LINE
8
BLACK
6
CONTINUOUS
10
-1.11475
20
0.331083
11
-1.1161
21
0.331753
0
LINE
8
BLACK
6
CONTINUOUS
10
-1.1161
20
0.331753
11
-1.12008
21
0.331753
0
LINE
8
BLACK
6
CONTINUOUS
10
-1.12008
20
0.331753
11
-1.12142
21
0.331083
0
LINE
8
BLACK
6
CONTINUOUS
10
-1.12142
20
0.331083
11
-1.12219
21
0.330317
0
LINE
8
BLACK
6
CONTINUOUS
10
-1.12219
20
0.330317
11
-1.12325
21
0.329877
0
LINE
8
BLACK
6
CONTINUOUS
10
-1.12325
20
0.329877
11
-1.12431
21
0.330317
0
LINE
8
BLACK
6
CONTINUOUS
10
-1.12431
20
0.330317
11
-1.12475
21
0.331377
0
LINE
8
BLACK
6
CONTINUOUS
10
-1.12475
20
0.331377
11
-1.12431
21
0.332438
0
LINE
8
BLACK
6
CONTINUOUS
10
-1.12431
20
0.332438
11
-1.12337
21
0.333376
0
LINE
8
BLACK
6
CONTINUOUS
10
-1.12337
20
0.333376
11
-1.12314
21
0.33347
0
LINE
8
BLACK
6
CONTINUOUS
10
-1.12314
20
0.33347
11
-1.12298
21
0.333657
0
LINE
8
BLACK
6
CONTINUOUS
10
-1.12298
20
0.333657
11
-1.1211
21
0.334595
0
LINE
8
BLACK
6
CONTINUOUS
10
-1.1211
20
0.334595
11
-1.12075
21
0.33462
0
LINE
8
BLACK
6
CONTINUOUS
10
-1.12075
20
0.33462
11
-1.12043
21
0.334753
0
LINE
8
BLACK
6
CONTINUOUS
10
-1.12043
20
0.334753
11
-1.11574
21
0.334753
0
LINE
8
BLACK
6
CONTINUOUS
10
-1.11574
20
0.334753
11
-1.11542
21
0.33462
0
LINE
8
BLACK
6
CONTINUOUS
10
-0.996766
20
0.29424
11
-0.996327
21
0.29318
0
LINE
8
BLACK
6
CONTINUOUS
10
-0.996327
20
0.29318
11
-0.996766
21
0.292119
0
LINE
8
BLACK
6
CONTINUOUS
10
-0.996766
20
0.292119
11
-0.997827
21
0.29168
0
LINE
8
BLACK
6
CONTINUOUS
10
-0.997827
20
0.29168
11
-1.02783
21
0.29168
0
LINE
8
BLACK
6
CONTINUOUS
10
-1.02783
20
0.29168
11
-1.02889
21
0.292119
0
LINE
8
BLACK
6
CONTINUOUS
10
-1.02889
20
0.292119
11
-1.02933
21
0.29318
0
LINE
8
BLACK
6
CONTINUOUS
10
-1.02933
20
0.29318
11
-1.02889
21
0.29424
0
LINE
8
BLACK
6
CONTINUOUS
10
-1.02889
20
0.29424
11
-1.02783
21
0.29468
0
LINE
8
BLACK
6
CONTINUOUS
10
-1.02783
20
0.29468
11
-0.997827
21
0.29468
0
LINE
8
BLACK
6
CONTINUOUS
10
-0.997827
20
0.29468
11
-0.996766
21
0.29424
0
LINE
8
BLACK
6
CONTINUOUS
10
-0.899393
20
0.296001
11
-0.898701
21
0.294331
0
LINE
8
BLACK
6
CONTINUOUS
10
-0.898701
20
0.294331
11
-0.899393
21
0.29266
0
LINE
8
BLACK
6
CONTINUOUS
10
-0.899393
20
0.29266
11
-0.901063
21
0.291969
0
LINE
8
BLACK
6
CONTINUOUS
10
-0.901063
20
0.291969
11
-0.956575
21
0.291969
0
LINE
8
BLACK
6
CONTINUOUS
10
-0.956575
20
0.291969
11
-0.958245
21
0.29266
0
LINE
8
BLACK
6
CONTINUOUS
10
-0.958245
20
0.29266
11
-0.958937
21
0.294331
0
LINE
8
BLACK
6
CONTINUOUS
10
-0.958937
20
0.294331
11
-0.958245
21
0.296001
0
LINE
8
BLACK
6
CONTINUOUS
10
-0.958245
20
0.296001
11
-0.956575
21
0.296693
0
LINE
8
BLACK
6
CONTINUOUS
10
-0.956575
20
0.296693
11
-0.901063
21
0.296693
0
LINE
8
BLACK
6
CONTINUOUS
10
-0.901063
20
0.296693
11
-0.899393
21
0.296001
0
LINE
8
BLACK
6
CONTINUOUS
10
-1.01903
20
0.354585
11
-1.01878
21
0.354603
0
LINE
8
BLACK
6
CONTINUOUS
10
-1.01878
20
0.354603
11
-1.0145
21
0.353174
0
LINE
8
BLACK
6
CONTINUOUS
10
-1.0145
20
0.353174
11
-1.01423
21
0.352945
0
LINE
8
BLACK
6
CONTINUOUS
10
-1.01423
20
0.352945
11
-1.01391
21
0.352812
0
LINE
8
BLACK
6
CONTINUOUS
10
-1.01391
20
0.352812
11
-0.999327
21
0.33823
0
LINE
8
BLACK
6
CONTINUOUS
10
-0.999327
20
0.33823
11
-0.999327
21
0.35318
0
LINE
8
BLACK
6
CONTINUOUS
10
-0.999327
20
0.35318
11
-0.998888
21
0.35424
0
LINE
8
BLACK
6
CONTINUOUS
10
-0.998888
20
0.35424
11
-0.997827
21
0.35468
0
LINE
8
BLACK
6
CONTINUOUS
10
-0.997827
20
0.35468
11
-0.996766
21
0.35424
0
LINE
8
BLACK
6
CONTINUOUS
10
-0.996766
20
0.35424
11
-0.996327
21
0.35318
0
LINE
8
BLACK
6
CONTINUOUS
10
-0.996327
20
0.35318
11
-0.996327
21
0.334608
0
LINE
8
BLACK
6
CONTINUOUS
10
-0.996327
20
0.334608
11
-0.996327
21
0.334608
0
LINE
8
BLACK
6
CONTINUOUS
10
-0.996327
20
0.334608
11
-0.996766
21
0.333548
0
LINE
8
BLACK
6
CONTINUOUS
10
-0.996766
20
0.333548
11
-0.996773
21
0.333545
0
LINE
8
BLACK
6
CONTINUOUS
10
-0.996773
20
0.333545
11
-0.996709
21
0.333471
0
LINE
8
BLACK
6
CONTINUOUS
10
-0.996709
20
0.333471
11
-0.996481
21
0.333376
0
LINE
8
BLACK
6
CONTINUOUS
10
-0.996481
20
0.333376
11
-0.994604
21
0.3315
0
LINE
8
BLACK
6
CONTINUOUS
10
-0.994604
20
0.3315
11
-0.99445
21
0.331127
0
LINE
8
BLACK
6
CONTINUOUS
10
-0.99445
20
0.331127
11
-0.99421
21
0.330803
0
LINE
8
BLACK
6
CONTINUOUS
10
-0.99421
20
0.330803
11
-0.993272
21
0.327051
0
LINE
8
BLACK
6
CONTINUOUS
10
-0.993272
20
0.327051
11
-0.9933
21
0.326863
0
LINE
8
BLACK
6
CONTINUOUS
10
-0.9933
20
0.326863
11
-0.993227
21
0.326687
0
LINE
8
BLACK
6
CONTINUOUS
10
-0.993227
20
0.326687
11
-0.993227
21
0.32012
0
LINE
8
BLACK
6
CONTINUOUS
10
-0.993227
20
0.32012
11
-0.9933
21
0.319944
0
LINE
8
BLACK
6
CONTINUOUS
10
-0.9933
20
0.319944
11
-0.993272
21
0.319756
0
LINE
8
BLACK
6
CONTINUOUS
10
-0.993272
20
0.319756
11
-0.99421
21
0.316004
0
LINE
8
BLACK
6
CONTINUOUS
10
-0.99421
20
0.316004
11
-0.99445
21
0.31568
0
LINE
8
BLACK
6
CONTINUOUS
10
-0.99445
20
0.31568
11
-0.994604
21
0.315307
0
LINE
8
BLACK
6
CONTINUOUS
10
-0.994604
20
0.315307
11
-0.996481
21
0.313431
0
LINE
8
BLACK
6
CONTINUOUS
10
-0.996481
20
0.313431
11
-0.996709
21
0.313336
0
LINE
8
BLACK
6
CONTINUOUS
10
-0.996709
20
0.313336
11
-0.99687
21
0.31315
0
LINE
8
BLACK
6
CONTINUOUS
10
-0.99687
20
0.31315
11
-0.997276
21
0.312947
0
LINE
8
BLACK
6
CONTINUOUS
10
-0.997276
20
0.312947
11
-0.997833
21
0.311277
0
LINE
8
BLACK
6
CONTINUOUS
10
-0.997833
20
0.311277
11
-0.998061
21
0.311013
0
LINE
8
BLACK
6
CONTINUOUS
10
-0.998061
20
0.311013
11
-0.998195
21
0.31069
0
LINE
8
BLACK
6
CONTINUOUS
10
-0.998195
20
0.31069
11
-1.00105
21
0.307833
0
LINE
8
BLACK
6
CONTINUOUS
10
-1.00105
20
0.307833
11
-1.00128
21
0.307739
0
LINE
8
BLACK
6
CONTINUOUS
10
-1.00128
20
0.307739
11
-1.00144
21
0.307552
0
LINE
8
BLACK
6
CONTINUOUS
10
-1.00144
20
0.307552
11
-1.0043
21
0.306124
0
LINE
8
BLACK
6
CONTINUOUS
10
-1.0043
20
0.306124
11
-1.00447
21
0.306112
0
LINE
8
BLACK
6
CONTINUOUS
10
-1.00447
20
0.306112
11
-1.00461
21
0.30601
0
LINE
8
BLACK
6
CONTINUOUS
10
-1.00461
20
0.30601
11
-1.01032
21
0.304582
0
LINE
8
BLACK
6
CONTINUOUS
10
-1.01032
20
0.304582
11
-1.01051
21
0.30461
0
LINE
8
BLACK
6
CONTINUOUS
10
-1.01051
20
0.30461
11
-1.01068
21
0.304537
0
LINE
8
BLACK
6
CONTINUOUS
10
-1.01068
20
0.304537
11
-1.01497
21
0.304537
0
LINE
8
BLACK
6
CONTINUOUS
10
-1.01497
20
0.304537
11
-1.01515
21
0.30461
0
LINE
8
BLACK
6
CONTINUOUS
10
-1.01515
20
0.30461
11
-1.01533
21
0.304582
0
LINE
8
BLACK
6
CONTINUOUS
10
-1.01533
20
0.304582
11
-1.02105
21
0.30601
0
LINE
8
BLACK
6
CONTINUOUS
10
-1.02105
20
0.30601
11
-1.02118
21
0.306112
0
LINE
8
BLACK
6
CONTINUOUS
10
-1.02118
20
0.306112
11
-1.02136
21
0.306124
0
LINE
8
BLACK
6
CONTINUOUS
10
-1.02136
20
0.306124
11
-1.02421
21
0.307552
0
LINE
8
BLACK
6
CONTINUOUS
10
-1.02421
20
0.307552
11
-1.02437
21
0.307739
0
LINE
8
BLACK
6
CONTINUOUS
10
-1.02437
20
0.307739
11
-1.0246
21
0.307833
0
LINE
8
BLACK
6
CONTINUOUS
10
-1.0246
20
0.307833
11
-1.02746
21
0.31069
0
LINE
8
BLACK
6
CONTINUOUS
10
-1.02746
20
0.31069
11
-1.02759
21
0.311013
0
LINE
8
BLACK
6
CONTINUOUS
10
-1.02759
20
0.311013
11
-1.02782
21
0.311277
0
LINE
8
BLACK
6
CONTINUOUS
10
-1.02782
20
0.311277
11
-1.02816
21
0.312303
0
LINE
8
BLACK
6
CONTINUOUS
10
-1.02816
20
0.312303
11
-1.02862
21
0.312493
0
LINE
8
BLACK
6
CONTINUOUS
10
-1.02862
20
0.312493
11
-1.02906
21
0.313553
0
LINE
8
BLACK
6
CONTINUOUS
10
-1.02906
20
0.313553
11
-1.02906
21
0.314993
0
LINE
8
BLACK
6
CONTINUOUS
10
-1.02906
20
0.314993
11
-1.02925
21
0.315562
0
LINE
8
BLACK
6
CONTINUOUS
10
-1.02925
20
0.315562
11
-1.02923
21
0.315809
0
LINE
8
BLACK
6
CONTINUOUS
10
-1.02923
20
0.315809
11
-1.02933
21
0.316037
0
LINE
8
BLACK
6
CONTINUOUS
10
-1.02933
20
0.316037
11
-1.02933
21
0.318894
0
LINE
8
BLACK
6
CONTINUOUS
10
-1.02933
20
0.318894
11
-1.02923
21
0.319122
0
LINE
8
BLACK
6
CONTINUOUS
10
-1.02923
20
0.319122
11
-1.02925
21
0.319368
0
LINE
8
BLACK
6
CONTINUOUS
10
-1.02925
20
0.319368
11
-1.02906
21
0.319937
0
LINE
8
BLACK
6
CONTINUOUS
10
-1.02906
20
0.319937
11
-1.02906
21
0.333253
0
LINE
8
BLACK
6
CONTINUOUS
10
-1.02906
20
0.333253
11
-1.02898
21
0.333444
0
LINE
8
BLACK
6
CONTINUOUS
10
-1.02898
20
0.333444
11
-1.02901
21
0.333648
0
LINE
8
BLACK
6
CONTINUOUS
10
-1.02901
20
0.333648
11
-1.02877
21
0.333955
0
LINE
8
BLACK
6
CONTINUOUS
10
-1.02877
20
0.333955
11
-1.02862
21
0.334314
0
LINE
8
BLACK
6
CONTINUOUS
10
-1.02862
20
0.334314
11
-1.02843
21
0.334393
0
LINE
8
BLACK
6
CONTINUOUS
10
-1.02843
20
0.334393
11
-1.0283
21
0.334556
0
LINE
8
BLACK
6
CONTINUOUS
10
-1.0283
20
0.334556
11
-1.02792
21
0.334605
0
LINE
8
BLACK
6
CONTINUOUS
10
-1.02792
20
0.334605
11
-1.02756
21
0.334753
0
LINE
8
BLACK
6
CONTINUOUS
10
-1.02756
20
0.334753
11
-1.02737
21
0.334675
0
LINE
8
BLACK
6
CONTINUOUS
10
-1.02737
20
0.334675
11
-1.02717
21
0.334701
0
LINE
8
BLACK
6
CONTINUOUS
10
-1.02717
20
0.334701
11
-1.02686
21
0.334463
0
LINE
8
BLACK
6
CONTINUOUS
10
-1.02686
20
0.334463
11
-1.0265
21
0.334314
0
LINE
8
BLACK
6
CONTINUOUS
10
-1.0265
20
0.334314
11
-1.02642
21
0.334124
0
LINE
8
BLACK
6
CONTINUOUS
10
-1.02642
20
0.334124
11
-1.02626
21
0.333998
0
LINE
8
BLACK
6
CONTINUOUS
10
-1.02626
20
0.333998
11
-1.0178
21
0.319202
0
LINE
8
BLACK
6
CONTINUOUS
10
-1.0178
20
0.319202
11
-1.0178
21
0.333253
0
LINE
8
BLACK
6
CONTINUOUS
10
-1.0178
20
0.333253
11
-1.01736
21
0.334314
0
LINE
8
BLACK
6
CONTINUOUS
10
-1.01736
20
0.334314
11
-1.0163
21
0.334753
0
LINE
8
BLACK
6
CONTINUOUS
10
-1.0163
20
0.334753
11
-1.01524
21
0.334314
0
LINE
8
BLACK
6
CONTINUOUS
10
-1.01524
20
0.334314
11
-1.0148
21
0.333253
0
LINE
8
BLACK
6
CONTINUOUS
10
-1.0148
20
0.333253
11
-1.0148
21
0.313553
0
LINE
8
BLACK
6
CONTINUOUS
10
-1.0148
20
0.313553
11
-1.01488
21
0.313363
0
LINE
8
BLACK
6
CONTINUOUS
10
-1.01488
20
0.313363
11
-1.01486
21
0.313159
0
LINE
8
BLACK
6
CONTINUOUS
10
-1.01486
20
0.313159
11
-1.01509
21
0.312852
0
LINE
8
BLACK
6
CONTINUOUS
10
-1.01509
20
0.312852
11
-1.01524
21
0.312493
0
LINE
8
BLACK
6
CONTINUOUS
10
-1.01524
20
0.312493
11
-1.01543
21
0.312414
0
LINE
8
BLACK
6
CONTINUOUS
10
-1.01543
20
0.312414
11
-1.01556
21
0.312251
0
LINE
8
BLACK
6
CONTINUOUS
10
-1.01556
20
0.312251
11
-1.01594
21
0.312202
0
LINE
8
BLACK
6
CONTINUOUS
10
-1.01594
20
0.312202
11
-1.0163
21
0.312053
0
LINE
8
BLACK
6
CONTINUOUS
10
-1.0163
20
0.312053
11
-1.01649
21
0.312132
0
LINE
8
BLACK
6
CONTINUOUS
10
-1.01649
20
0.312132
11
-1.0167
21
0.312106
0
LINE
8
BLACK
6
CONTINUOUS
10
-1.0167
20
0.312106
11
-1.017
21
0.312344
0
LINE
8
BLACK
6
CONTINUOUS
10
-1.017
20
0.312344
11
-1.01736
21
0.312493
0
LINE
8
BLACK
6
CONTINUOUS
10
-1.01736
20
0.312493
11
-1.01744
21
0.312683
0
LINE
8
BLACK
6
CONTINUOUS
10
-1.01744
20
0.312683
11
-1.01761
21
0.312809
0
LINE
8
BLACK
6
CONTINUOUS
10
-1.01761
20
0.312809
11
-1.02384
21
0.323717
0
LINE
8
BLACK
6
CONTINUOUS
10
-1.02384
20
0.323717
11
-1.02391
21
0.323548
0
LINE
8
BLACK
6
CONTINUOUS
10
-1.02391
20
0.323548
11
-1.02509
21
0.322369
0
LINE
8
BLACK
6
CONTINUOUS
10
-1.02509
20
0.322369
11
-1.02606
21
0.31945
0
LINE
8
BLACK
6
CONTINUOUS
10
-1.02606
20
0.31945
11
-1.02606
21
0.31548
0
LINE
8
BLACK
6
CONTINUOUS
10
-1.02606
20
0.31548
11
-1.02509
21
0.312561
0
LINE
8
BLACK
6
CONTINUOUS
10
-1.02509
20
0.312561
11
-1.02265
21
0.310127
0
LINE
8
BLACK
6
CONTINUOUS
10
-1.02265
20
0.310127
11
-1.02016
21
0.308881
0
LINE
8
BLACK
6
CONTINUOUS
10
-1.02016
20
0.308881
11
-1.01479
21
0.307537
0
LINE
8
BLACK
6
CONTINUOUS
10
-1.01479
20
0.307537
11
-1.01087
21
0.307537
0
LINE
8
BLACK
6
CONTINUOUS
10
-1.01087
20
0.307537
11
-1.00549
21
0.308881
0
LINE
8
BLACK
6
CONTINUOUS
10
-1.00549
20
0.308881
11
-1.003
21
0.310127
0
LINE
8
BLACK
6
CONTINUOUS
10
-1.003
20
0.310127
11
-1.00107
21
0.312053
0
LINE
8
BLACK
6
CONTINUOUS
10
-1.00107
20
0.312053
11
-1.00317
21
0.312053
0
LINE
8
BLACK
6
CONTINUOUS
10
-1.00317
20
0.312053
11
-1.00349
21
0.312187
0
LINE
8
BLACK
6
CONTINUOUS
10
-1.00349
20
0.312187
11
-1.00384
21
0.312212
0
LINE
8
BLACK
6
CONTINUOUS
10
-1.00384
20
0.312212
11
-1.00572
21
0.31315
0
LINE
8
BLACK
6
CONTINUOUS
10
-1.00572
20
0.31315
11
-1.00588
21
0.313336
0
LINE
8
BLACK
6
CONTINUOUS
10
-1.00588
20
0.313336
11
-1.00611
21
0.313431
0
LINE
8
BLACK
6
CONTINUOUS
10
-1.00611
20
0.313431
11
-1.00798
21
0.315307
0
LINE
8
BLACK
6
CONTINUOUS
10
-1.00798
20
0.315307
11
-1.00814
21
0.31568
0
LINE
8
BLACK
6
CONTINUOUS
10
-1.00814
20
0.31568
11
-1.00838
21
0.316004
0
LINE
8
BLACK
6
CONTINUOUS
10
-1.00838
20
0.316004
11
-1.00932
21
0.319756
0
LINE
8
BLACK
6
CONTINUOUS
10
-1.00932
20
0.319756
11
-1.00929
21
0.319944
0
LINE
8
BLACK
6
CONTINUOUS
10
-1.00929
20
0.319944
11
-1.00936
21
0.32012
0
LINE
8
BLACK
6
CONTINUOUS
10
-1.00936
20
0.32012
11
-1.00936
21
0.326687
0
LINE
8
BLACK
6
CONTINUOUS
10
-1.00936
20
0.326687
11
-1.00929
21
0.326863
0
LINE
8
BLACK
6
CONTINUOUS
10
-1.00929
20
0.326863
11
-1.00932
21
0.327051
0
LINE
8
BLACK
6
CONTINUOUS
10
-1.00932
20
0.327051
11
-1.00838
21
0.330803
0
LINE
8
BLACK
6
CONTINUOUS
10
-1.00838
20
0.330803
11
-1.00814
21
0.331127
0
LINE
8
BLACK
6
CONTINUOUS
10
-1.00814
20
0.331127
11
-1.00798
21
0.3315
0
LINE
8
BLACK
6
CONTINUOUS
10
-1.00798
20
0.3315
11
-1.00611
21
0.333376
0
LINE
8
BLACK
6
CONTINUOUS
10
-1.00611
20
0.333376
11
-1.00588
21
0.333471
0
LINE
8
BLACK
6
CONTINUOUS
10
-1.00588
20
0.333471
11
-1.00572
21
0.333657
0
LINE
8
BLACK
6
CONTINUOUS
10
-1.00572
20
0.333657
11
-1.00384
21
0.334595
0
LINE
8
BLACK
6
CONTINUOUS
10
-1.00384
20
0.334595
11
-1.00349
21
0.33462
0
LINE
8
BLACK
6
CONTINUOUS
10
-1.00349
20
0.33462
11
-1.00317
21
0.334753
0
LINE
8
BLACK
6
CONTINUOUS
10
-1.00317
20
0.334753
11
-1.00009
21
0.334753
0
LINE
8
BLACK
6
CONTINUOUS
10
-1.00009
20
0.334753
11
-1.01578
21
0.35044
0
LINE
8
BLACK
6
CONTINUOUS
10
-1.01578
20
0.35044
11
-1.0195
21
0.35168
0
LINE
8
BLACK
6
CONTINUOUS
10
-1.0195
20
0.35168
11
-1.02176
21
0.35168
0
LINE
8
BLACK
6
CONTINUOUS
10
-1.02176
20
0.35168
11
-1.02408
21
0.350518
0
LINE
8
BLACK
6
CONTINUOUS
10
-1.02408
20
0.350518
11
-1.02517
21
0.349434
0
LINE
8
BLACK
6
CONTINUOUS
10
-1.02517
20
0.349434
11
-1.02633
21
0.347111
0
LINE
8
BLACK
6
CONTINUOUS
10
-1.02633
20
0.347111
11
-1.02633
21
0.340677
0
LINE
8
BLACK
6
CONTINUOUS
10
-1.02633
20
0.340677
11
-1.02517
21
0.338354
0
LINE
8
BLACK
6
CONTINUOUS
10
-1.02517
20
0.338354
11
-1.02391
21
0.337097
0
LINE
8
BLACK
6
CONTINUOUS
10
-1.02391
20
0.337097
11
-1.02347
21
0.336037
0
LINE
8
BLACK
6
CONTINUOUS
10
-1.02347
20
0.336037
11
-1.02391
21
0.334976
0
LINE
8
BLACK
6
CONTINUOUS
10
-1.02391
20
0.334976
11
-1.02497
21
0.334537
0
LINE
8
BLACK
6
CONTINUOUS
10
-1.02497
20
0.334537
11
-1.02603
21
0.334976
0
LINE
8
BLACK
6
CONTINUOUS
10
-1.02603
20
0.334976
11
-1.02746
21
0.336405
0
LINE
8
BLACK
6
CONTINUOUS
10
-1.02746
20
0.336405
11
-1.02755
21
0.336633
0
LINE
8
BLACK
6
CONTINUOUS
10
-1.02755
20
0.336633
11
-1.02774
21
0.336795
0
LINE
8
BLACK
6
CONTINUOUS
10
-1.02774
20
0.336795
11
-1.02917
21
0.339652
0
LINE
8
BLACK
6
CONTINUOUS
10
-1.02917
20
0.339652
11
-1.02919
21
0.34
0
LINE
8
BLACK
6
CONTINUOUS
10
-1.02919
20
0.34
11
-1.02933
21
0.340323
0
LINE
8
BLACK
6
CONTINUOUS
10
-1.02933
20
0.340323
11
-1.02933
21
0.347465
0
LINE
8
BLACK
6
CONTINUOUS
10
-1.02933
20
0.347465
11
-1.02919
21
0.347788
0
LINE
8
BLACK
6
CONTINUOUS
10
-1.02919
20
0.347788
11
-1.02917
21
0.348136
0
LINE
8
BLACK
6
CONTINUOUS
10
-1.02917
20
0.348136
11
-1.02774
21
0.350993
0
LINE
8
BLACK
6
CONTINUOUS
10
-1.02774
20
0.350993
11
-1.02755
21
0.351155
0
LINE
8
BLACK
6
CONTINUOUS
10
-1.02755
20
0.351155
11
-1.02746
21
0.351383
0
LINE
8
BLACK
6
CONTINUOUS
10
-1.02746
20
0.351383
11
-1.02603
21
0.352812
0
LINE
8
BLACK
6
CONTINUOUS
10
-1.02603
20
0.352812
11
-1.0258
21
0.352906
0
LINE
8
BLACK
6
CONTINUOUS
10
-1.0258
20
0.352906
11
-1.02564
21
0.353093
0
LINE
8
BLACK
6
CONTINUOUS
10
-1.02564
20
0.353093
11
-1.02278
21
0.354521
0
LINE
8
BLACK
6
CONTINUOUS
10
-1.02278
20
0.354521
11
-1.02244
21
0.354546
0
LINE
8
BLACK
6
CONTINUOUS
10
-1.02244
20
0.354546
11
-1.02211
21
0.35468
0
LINE
8
BLACK
6
CONTINUOUS
10
-1.02211
20
0.35468
11
-1.01926
21
0.35468
0
LINE
8
BLACK
6
CONTINUOUS
10
-1.01926
20
0.35468
11
-1.01903
21
0.354585
0
LINE
8
BLACK
6
CONTINUOUS
10
-1.00282
20
0.331753
11
-1.00416
21
0.331083
0
LINE
8
BLACK
6
CONTINUOUS
10
-1.00416
20
0.331083
11
-1.00557
21
0.329672
0
LINE
8
BLACK
6
CONTINUOUS
10
-1.00557
20
0.329672
11
-1.00636
21
0.326502
0
LINE
8
BLACK
6
CONTINUOUS
10
-1.00636
20
0.326502
11
-1.00636
21
0.320305
0
LINE
8
BLACK
6
CONTINUOUS
10
-1.00636
20
0.320305
11
-1.00557
21
0.317135
0
LINE
8
BLACK
6
CONTINUOUS
10
-1.00557
20
0.317135
11
-1.00416
21
0.315724
0
LINE
8
BLACK
6
CONTINUOUS
10
-1.00416
20
0.315724
11
-1.00282
21
0.315053
0
LINE
8
BLACK
6
CONTINUOUS
10
-1.00282
20
0.315053
11
-0.999772
21
0.315053
0
LINE
8
BLACK
6
CONTINUOUS
10
-0.999772
20
0.315053
11
-0.999729
21
0.315075
0
LINE
8
BLACK
6
CONTINUOUS
10
-0.999729
20
0.315075
11
-0.999327
21
0.31628
0
LINE
8
BLACK
6
CONTINUOUS
10
-0.999327
20
0.31628
11
-0.999327
21
0.318651
0
LINE
8
BLACK
6
CONTINUOUS
10
-0.999327
20
0.318651
11
-1.00057
21
0.322369
0
LINE
8
BLACK
6
CONTINUOUS
10
-1.00057
20
0.322369
11
-1.00174
21
0.323548
0
LINE
8
BLACK
6
CONTINUOUS
10
-1.00174
20
0.323548
11
-1.00218
21
0.324608
0
LINE
8
BLACK
6
CONTINUOUS
10
-1.00218
20
0.324608
11
-1.00174
21
0.325669
0
LINE
8
BLACK
6
CONTINUOUS
10
-1.00174
20
0.325669
11
-1.00068
21
0.326108
0
LINE
8
BLACK
6
CONTINUOUS
10
-1.00068
20
0.326108
11
-0.999624
21
0.325669
0
LINE
8
BLACK
6
CONTINUOUS
10
-0.999624
20
0.325669
11
-0.998195
21
0.32424
0
LINE
8
BLACK
6
CONTINUOUS
10
-0.998195
20
0.32424
11
-0.998061
21
0.323918
0
LINE
8
BLACK
6
CONTINUOUS
10
-0.998061
20
0.323918
11
-0.997833
21
0.323654
0
LINE
8
BLACK
6
CONTINUOUS
10
-0.997833
20
0.323654
11
-0.996437
21
0.319466
0
LINE
8
BLACK
6
CONTINUOUS
10
-0.996437
20
0.319466
11
-0.996227
21
0.320305
0
LINE
8
BLACK
6
CONTINUOUS
10
-0.996227
20
0.320305
11
-0.996227
21
0.326502
0
LINE
8
BLACK
6
CONTINUOUS
10
-0.996227
20
0.326502
11
-0.99702
21
0.329672
0
LINE
8
BLACK
6
CONTINUOUS
10
-0.99702
20
0.329672
11
-0.99843
21
0.331083
0
LINE
8
BLACK
6
CONTINUOUS
10
-0.99843
20
0.331083
11
-0.999772
21
0.331753
0
LINE
8
BLACK
6
CONTINUOUS
10
-0.999772
20
0.331753
11
-1.00282
21
0.331753
0
LINE
8
BLACK
6
CONTINUOUS
10
-1.02606
20
0.325639
11
-1.02603
21
0.325669
0
LINE
8
BLACK
6
CONTINUOUS
10
-1.02603
20
0.325669
11
-1.02516
21
0.326029
0
LINE
8
BLACK
6
CONTINUOUS
10
-1.02516
20
0.326029
11
-1.02606
21
0.327605
0
LINE
8
BLACK
6
CONTINUOUS
10
-1.02606
20
0.327605
11
-1.02606
21
0.325639
0
LINE
8
BLACK
6
CONTINUOUS
10
-1.16815
20
0.334314
11
-1.16771
21
0.333253
0
LINE
8
BLACK
6
CONTINUOUS
10
-1.16771
20
0.333253
11
-1.16771
21
0.313553
0
LINE
8
BLACK
6
CONTINUOUS
10
-1.16771
20
0.313553
11
-1.16815
21
0.312493
0
LINE
8
BLACK
6
CONTINUOUS
10
-1.16815
20
0.312493
11
-1.16921
21
0.312053
0
LINE
8
BLACK
6
CONTINUOUS
10
-1.16921
20
0.312053
11
-1.17027
21
0.312493
0
LINE
8
BLACK
6
CONTINUOUS
10
-1.17027
20
0.312493
11
-1.17071
21
0.313553
0
LINE
8
BLACK
6
CONTINUOUS
10
-1.17071
20
0.313553
11
-1.17071
21
0.322373
0
LINE
8
BLACK
6
CONTINUOUS
10
-1.17071
20
0.322373
11
-1.17897
21
0.322373
0
LINE
8
BLACK
6
CONTINUOUS
10
-1.17897
20
0.322373
11
-1.17897
21
0.313553
0
LINE
8
BLACK
6
CONTINUOUS
10
-1.17897
20
0.313553
11
-1.17941
21
0.312493
0
LINE
8
BLACK
6
CONTINUOUS
10
-1.17941
20
0.312493
11
-1.18047
21
0.312053
0
LINE
8
BLACK
6
CONTINUOUS
10
-1.18047
20
0.312053
11
-1.18153
21
0.312493
0
LINE
8
BLACK
6
CONTINUOUS
10
-1.18153
20
0.312493
11
-1.18197
21
0.313553
0
LINE
8
BLACK
6
CONTINUOUS
10
-1.18197
20
0.313553
11
-1.18197
21
0.333253
0
LINE
8
BLACK
6
CONTINUOUS
10
-1.18197
20
0.333253
11
-1.18153
21
0.334314
0
LINE
8
BLACK
6
CONTINUOUS
10
-1.18153
20
0.334314
11
-1.18047
21
0.334753
0
LINE
8
BLACK
6
CONTINUOUS
10
-1.18047
20
0.334753
11
-1.17941
21
0.334314
0
LINE
8
BLACK
6
CONTINUOUS
10
-1.17941
20
0.334314
11
-1.17897
21
0.333253
0
LINE
8
BLACK
6
CONTINUOUS
10
-1.17897
20
0.333253
11
-1.17897
21
0.325373
0
LINE
8
BLACK
6
CONTINUOUS
10
-1.17897
20
0.325373
11
-1.17071
21
0.325373
0
LINE
8
BLACK
6
CONTINUOUS
10
-1.17071
20
0.325373
11
-1.17071
21
0.333253
0
LINE
8
BLACK
6
CONTINUOUS
10
-1.17071
20
0.333253
11
-1.17027
21
0.334314
0
LINE
8
BLACK
6
CONTINUOUS
10
-1.17027
20
0.334314
11
-1.16921
21
0.334753
0
LINE
8
BLACK
6
CONTINUOUS
10
-1.16921
20
0.334753
11
-1.16815
21
0.334314
0
LINE
8
BLACK
6
CONTINUOUS
10
-0.959695
20
0.33462
11
-0.959347
21
0.334595
0
LINE
8
BLACK
6
CONTINUOUS
10
-0.959347
20
0.334595
11
-0.95747
21
0.333657
0
LINE
8
BLACK
6
CONTINUOUS
10
-0.95747
20
0.333657
11
-0.957309
21
0.33347
0
LINE
8
BLACK
6
CONTINUOUS
10
-0.957309
20
0.33347
11
-0.957081
21
0.333376
0
LINE
8
BLACK
6
CONTINUOUS
10
-0.957081
20
0.333376
11
-0.956143
21
0.332438
0
LINE
8
BLACK
6
CONTINUOUS
10
-0.956143
20
0.332438
11
-0.956048
21
0.33221
0
LINE
8
BLACK
6
CONTINUOUS
10
-0.956048
20
0.33221
11
-0.955862
21
0.332048
0
LINE
8
BLACK
6
CONTINUOUS
10
-0.955862
20
0.332048
11
-0.954923
21
0.330172
0
LINE
8
BLACK
6
CONTINUOUS
10
-0.954923
20
0.330172
11
-0.954899
21
0.329824
0
LINE
8
BLACK
6
CONTINUOUS
10
-0.954899
20
0.329824
11
-0.954765
21
0.329501
0
LINE
8
BLACK
6
CONTINUOUS
10
-0.954765
20
0.329501
11
-0.954765
21
0.327625
0
LINE
8
BLACK
6
CONTINUOUS
10
-0.954765
20
0.327625
11
-0.954899
21
0.327302
0
LINE
8
BLACK
6
CONTINUOUS
10
-0.954899
20
0.327302
11
-0.954923
21
0.326954
0
LINE
8
BLACK
6
CONTINUOUS
10
-0.954923
20
0.326954
11
-0.955862
21
0.325078
0
LINE
8
BLACK
6
CONTINUOUS
10
-0.955862
20
0.325078
11
-0.956048
21
0.324916
0
LINE
8
BLACK
6
CONTINUOUS
10
-0.956048
20
0.324916
11
-0.956143
21
0.324688
0
LINE
8
BLACK
6
CONTINUOUS
10
-0.956143
20
0.324688
11
-0.956592
21
0.324239
0
LINE
8
BLACK
6
CONTINUOUS
10
-0.956592
20
0.324239
11
-0.956465
21
0.324129
0
LINE
8
BLACK
6
CONTINUOUS
10
-0.956465
20
0.324129
11
-0.956143
21
0.323995
0
LINE
8
BLACK
6
CONTINUOUS
10
-0.956143
20
0.323995
11
-0.955204
21
0.323057
0
LINE
8
BLACK
6
CONTINUOUS
10
-0.955204
20
0.323057
11
-0.95511
21
0.322829
0
LINE
8
BLACK
6
CONTINUOUS
10
-0.95511
20
0.322829
11
-0.954923
21
0.322667
0
LINE
8
BLACK
6
CONTINUOUS
10
-0.954923
20
0.322667
11
-0.953985
21
0.320791
0
LINE
8
BLACK
6
CONTINUOUS
10
-0.953985
20
0.320791
11
-0.953961
21
0.320443
0
LINE
8
BLACK
6
CONTINUOUS
10
-0.953961
20
0.320443
11
-0.953827
21
0.32012
0
LINE
8
BLACK
6
CONTINUOUS
10
-0.953827
20
0.32012
11
-0.953827
21
0.317306
0
LINE
8
BLACK
6
CONTINUOUS
10
-0.953827
20
0.317306
11
-0.953961
21
0.316983
0
LINE
8
BLACK
6
CONTINUOUS
10
-0.953961
20
0.316983
11
-0.953985
21
0.316635
0
LINE
8
BLACK
6
CONTINUOUS
10
-0.953985
20
0.316635
11
-0.954923
21
0.314759
0
LINE
8
BLACK
6
CONTINUOUS
10
-0.954923
20
0.314759
11
-0.95511
21
0.314597
0
LINE
8
BLACK
6
CONTINUOUS
10
-0.95511
20
0.314597
11
-0.955204
21
0.314369
0
LINE
8
BLACK
6
CONTINUOUS
10
-0.955204
20
0.314369
11
-0.956143
21
0.313431
0
LINE
8
BLACK
6
CONTINUOUS
10
-0.956143
20
0.313431
11
-0.956371
21
0.313336
0
LINE
8
BLACK
6
CONTINUOUS
10
-0.956371
20
0.313336
11
-0.956532
21
0.31315
0
LINE
8
BLACK
6
CONTINUOUS
10
-0.956532
20
0.31315
11
-0.958409
21
0.312212
0
LINE
8
BLACK
6
CONTINUOUS
10
-0.958409
20
0.312212
11
-0.958757
21
0.312187
0
LINE
8
BLACK
6
CONTINUOUS
10
-0.958757
20
0.312187
11
-0.959079
21
0.312053
0
LINE
8
BLACK
6
CONTINUOUS
10
-0.959079
20
0.312053
11
-0.966584
21
0.312053
0
LINE
8
BLACK
6
CONTINUOUS
10
-0.966584
20
0.312053
11
-0.967645
21
0.312493
0
LINE
8
BLACK
6
CONTINUOUS
10
-0.967645
20
0.312493
11
-0.968084
21
0.313553
0
LINE
8
BLACK
6
CONTINUOUS
10
-0.968084
20
0.313553
11
-0.968084
21
0.333253
0
LINE
8
BLACK
6
CONTINUOUS
10
-0.968084
20
0.333253
11
-0.967645
21
0.334314
0
LINE
8
BLACK
6
CONTINUOUS
10
-0.967645
20
0.334314
11
-0.966584
21
0.334753
0
LINE
8
BLACK
6
CONTINUOUS
10
-0.966584
20
0.334753
11
-0.960017
21
0.334753
0
LINE
8
BLACK
6
CONTINUOUS
10
-0.960017
20
0.334753
11
-0.959695
21
0.33462
0
LINE
8
BLACK
6
CONTINUOUS
10
-0.965084
20
0.322373
11
-0.965084
21
0.315053
0
LINE
8
BLACK
6
CONTINUOUS
10
-0.965084
20
0.315053
11
-0.959434
21
0.315053
0
LINE
8
BLACK
6
CONTINUOUS
10
-0.959434
20
0.315053
11
-0.958092
21
0.315724
0
LINE
8
BLACK
6
CONTINUOUS
10
-0.958092
20
0.315724
11
-0.957498
21
0.316318
0
LINE
8
BLACK
6
CONTINUOUS
10
-0.957498
20
0.316318
11
-0.956827
21
0.31766
0
LINE
8
BLACK
6
CONTINUOUS
10
-0.956827
20
0.31766
11
-0.956827
21
0.319766
0
LINE
8
BLACK
6
CONTINUOUS
10
-0.956827
20
0.319766
11
-0.957498
21
0.321108
0
LINE
8
BLACK
6
CONTINUOUS
10
-0.957498
20
0.321108
11
-0.958013
21
0.321623
0
LINE
8
BLACK
6
CONTINUOUS
10
-0.958013
20
0.321623
11
-0.960261
21
0.322373
0
LINE
8
BLACK
6
CONTINUOUS
10
-0.960261
20
0.322373
11
-0.965084
21
0.322373
0
LINE
8
BLACK
6
CONTINUOUS
10
-0.965084
20
0.331753
11
-0.965084
21
0.325373
0
LINE
8
BLACK
6
CONTINUOUS
10
-0.965084
20
0.325373
11
-0.960372
21
0.325373
0
LINE
8
BLACK
6
CONTINUOUS
10
-0.960372
20
0.325373
11
-0.95903
21
0.326043
0
LINE
8
BLACK
6
CONTINUOUS
10
-0.95903
20
0.326043
11
-0.958436
21
0.326637
0
LINE
8
BLACK
6
CONTINUOUS
10
-0.958436
20
0.326637
11
-0.957765
21
0.327979
0
LINE
8
BLACK
6
CONTINUOUS
10
-0.957765
20
0.327979
11
-0.957765
21
0.329147
0
LINE
8
BLACK
6
CONTINUOUS
10
-0.957765
20
0.329147
11
-0.958436
21
0.330489
0
LINE
8
BLACK
6
CONTINUOUS
10
-0.958436
20
0.330489
11
-0.95903
21
0.331083
0
LINE
8
BLACK
6
CONTINUOUS
10
-0.95903
20
0.331083
11
-0.960372
21
0.331753
0
LINE
8
BLACK
6
CONTINUOUS
10
-0.960372
20
0.331753
11
-0.965084
21
0.331753
0
LINE
8
BLACK
6
CONTINUOUS
10
-1.18955
20
0.334627
11
-1.18922
21
0.334613
0
LINE
8
BLACK
6
CONTINUOUS
10
-1.18922
20
0.334613
11
-1.18904
21
0.334416
0
LINE
8
BLACK
6
CONTINUOUS
10
-1.18904
20
0.334416
11
-1.18879
21
0.334314
0
LINE
8
BLACK
6
CONTINUOUS
10
-1.18879
20
0.334314
11
-1.18866
21
0.334009
0
LINE
8
BLACK
6
CONTINUOUS
10
-1.18866
20
0.334009
11
-1.18844
21
0.333766
0
LINE
8
BLACK
6
CONTINUOUS
10
-1.18844
20
0.333766
11
-1.18845
21
0.3335
0
LINE
8
BLACK
6
CONTINUOUS
10
-1.18845
20
0.3335
11
-1.18835
21
0.333253
0
LINE
8
BLACK
6
CONTINUOUS
10
-1.18835
20
0.333253
11
-1.18835
21
0.313553
0
LINE
8
BLACK
6
CONTINUOUS
10
-1.18835
20
0.313553
11
-1.18879
21
0.312493
0
LINE
8
BLACK
6
CONTINUOUS
10
-1.18879
20
0.312493
11
-1.18985
21
0.312053
0
LINE
8
BLACK
6
CONTINUOUS
10
-1.18985
20
0.312053
11
-1.19091
21
0.312493
0
LINE
8
BLACK
6
CONTINUOUS
10
-1.19091
20
0.312493
11
-1.19135
21
0.313553
0
LINE
8
BLACK
6
CONTINUOUS
10
-1.19135
20
0.313553
11
-1.19135
21
0.326492
0
LINE
8
BLACK
6
CONTINUOUS
10
-1.19135
20
0.326492
11
-1.19506
21
0.318548
0
LINE
8
BLACK
6
CONTINUOUS
10
-1.19506
20
0.318548
11
-1.19544
21
0.318201
0
LINE
8
BLACK
6
CONTINUOUS
10
-1.19544
20
0.318201
11
-1.19578
21
0.317823
0
LINE
8
BLACK
6
CONTINUOUS
10
-1.19578
20
0.317823
11
-1.19585
21
0.31782
0
LINE
8
BLACK
6
CONTINUOUS
10
-1.19585
20
0.31782
11
-1.1959
21
0.317772
0
LINE
8
BLACK
6
CONTINUOUS
10
-1.1959
20
0.317772
11
-1.19642
21
0.317795
0
LINE
8
BLACK
6
CONTINUOUS
10
-1.19642
20
0.317795
11
-1.19693
21
0.317772
0
LINE
8
BLACK
6
CONTINUOUS
10
-1.19693
20
0.317772
11
-1.19698
21
0.31782
0
LINE
8
BLACK
6
CONTINUOUS
10
-1.19698
20
0.31782
11
-1.19705
21
0.317823
0
LINE
8
BLACK
6
CONTINUOUS
10
-1.19705
20
0.317823
11
-1.1974
21
0.318201
0
LINE
8
BLACK
6
CONTINUOUS
10
-1.1974
20
0.318201
11
-1.19778
21
0.318548
0
LINE
8
BLACK
6
CONTINUOUS
10
-1.19778
20
0.318548
11
-1.20148
21
0.326492
0
LINE
8
BLACK
6
CONTINUOUS
10
-1.20148
20
0.326492
11
-1.20148
21
0.313553
0
LINE
8
BLACK
6
CONTINUOUS
10
-1.20148
20
0.313553
11
-1.20192
21
0.312493
0
LINE
8
BLACK
6
CONTINUOUS
10
-1.20192
20
0.312493
11
-1.20298
21
0.312053
0
LINE
8
BLACK
6
CONTINUOUS
10
-1.20298
20
0.312053
11
-1.20404
21
0.312493
0
LINE
8
BLACK
6
CONTINUOUS
10
-1.20404
20
0.312493
11
-1.20448
21
0.313553
0
LINE
8
BLACK
6
CONTINUOUS
10
-1.20448
20
0.313553
11
-1.20448
21
0.333253
0
LINE
8
BLACK
6
CONTINUOUS
10
-1.20448
20
0.333253
11
-1.20438
21
0.3335
0
LINE
8
BLACK
6
CONTINUOUS
10
-1.20438
20
0.3335
11
-1.20439
21
0.333766
0
LINE
8
BLACK
6
CONTINUOUS
10
-1.20439
20
0.333766
11
-1.20417
21
0.334009
0
LINE
8
BLACK
6
CONTINUOUS
10
-1.20417
20
0.334009
11
-1.20404
21
0.334314
0
LINE
8
BLACK
6
CONTINUOUS
10
-1.20404
20
0.334314
11
-1.2038
21
0.334416
0
LINE
8
BLACK
6
CONTINUOUS
10
-1.2038
20
0.334416
11
-1.20362
21
0.334613
0
LINE
8
BLACK
6
CONTINUOUS
10
-1.20362
20
0.334613
11
-1.20329
21
0.334627
0
LINE
8
BLACK
6
CONTINUOUS
10
-1.20329
20
0.334627
11
-1.20298
21
0.334753
0
LINE
8
BLACK
6
CONTINUOUS
10
-1.20298
20
0.334753
11
-1.20274
21
0.334651
0
LINE
8
BLACK
6
CONTINUOUS
10
-1.20274
20
0.334651
11
-1.20247
21
0.334663
0
LINE
8
BLACK
6
CONTINUOUS
10
-1.20247
20
0.334663
11
-1.20223
21
0.33444
0
LINE
8
BLACK
6
CONTINUOUS
10
-1.20223
20
0.33444
11
-1.20192
21
0.334314
0
LINE
8
BLACK
6
CONTINUOUS
10
-1.20192
20
0.334314
11
-1.20182
21
0.334068
0
LINE
8
BLACK
6
CONTINUOUS
10
-1.20182
20
0.334068
11
-1.20162
21
0.333888
0
LINE
8
BLACK
6
CONTINUOUS
10
-1.20162
20
0.333888
11
-1.19642
21
0.322729
0
LINE
8
BLACK
6
CONTINUOUS
10
-1.19642
20
0.322729
11
-1.19121
21
0.333888
0
LINE
8
BLACK
6
CONTINUOUS
10
-1.19121
20
0.333888
11
-1.19101
21
0.334068
0
LINE
8
BLACK
6
CONTINUOUS
10
-1.19101
20
0.334068
11
-1.19091
21
0.334314
0
LINE
8
BLACK
6
CONTINUOUS
10
-1.19091
20
0.334314
11
-1.19061
21
0.33444
0
LINE
8
BLACK
6
CONTINUOUS
10
-1.19061
20
0.33444
11
-1.19036
21
0.334663
0
LINE
8
BLACK
6
CONTINUOUS
10
-1.19036
20
0.334663
11
-1.1901
21
0.334651
0
LINE
8
BLACK
6
CONTINUOUS
10
-1.1901
20
0.334651
11
-1.18985
21
0.334753
0
LINE
8
BLACK
6
CONTINUOUS
10
-1.18985
20
0.334753
11
-1.18955
21
0.334627
0
LINE
8
BLACK
6
CONTINUOUS
10
-1.21787
20
0.334314
11
-1.21743
21
0.333253
0
LINE
8
BLACK
6
CONTINUOUS
10
-1.21743
20
0.333253
11
-1.21743
21
0.315053
0
LINE
8
BLACK
6
CONTINUOUS
10
-1.21743
20
0.315053
11
-1.20955
21
0.315053
0
LINE
8
BLACK
6
CONTINUOUS
10
-1.20955
20
0.315053
11
-1.20849
21
0.314614
0
LINE
8
BLACK
6
CONTINUOUS
10
-1.20849
20
0.314614
11
-1.20805
21
0.313553
0
LINE
8
BLACK
6
CONTINUOUS
10
-1.20805
20
0.313553
11
-1.20849
21
0.312493
0
LINE
8
BLACK
6
CONTINUOUS
10
-1.20849
20
0.312493
11
-1.20955
21
0.312053
0
LINE
8
BLACK
6
CONTINUOUS
10
-1.20955
20
0.312053
11
-1.21893
21
0.312053
0
LINE
8
BLACK
6
CONTINUOUS
10
-1.21893
20
0.312053
11
-1.21999
21
0.312493
0
LINE
8
BLACK
6
CONTINUOUS
10
-1.21999
20
0.312493
11
-1.22043
21
0.313553
0
LINE
8
BLACK
6
CONTINUOUS
10
-1.22043
20
0.313553
11
-1.22043
21
0.333253
0
LINE
8
BLACK
6
CONTINUOUS
10
-1.22043
20
0.333253
11
-1.21999
21
0.334314
0
LINE
8
BLACK
6
CONTINUOUS
10
-1.21999
20
0.334314
11
-1.21893
21
0.334753
0
LINE
8
BLACK
6
CONTINUOUS
10
-1.21893
20
0.334753
11
-1.21787
21
0.334314
0
LINE
8
BLACK
6
CONTINUOUS
10
-0.978457
20
0.33462
11
-0.978109
21
0.334595
0
LINE
8
BLACK
6
CONTINUOUS
10
-0.978109
20
0.334595
11
-0.976232
21
0.333657
0
LINE
8
BLACK
6
CONTINUOUS
10
-0.976232
20
0.333657
11
-0.976071
21
0.333471
0
LINE
8
BLACK
6
CONTINUOUS
10
-0.976071
20
0.333471
11
-0.975843
21
0.333376
0
LINE
8
BLACK
6
CONTINUOUS
10
-0.975843
20
0.333376
11
-0.974904
21
0.332438
0
LINE
8
BLACK
6
CONTINUOUS
10
-0.974904
20
0.332438
11
-0.97481
21
0.33221
0
LINE
8
BLACK
6
CONTINUOUS
10
-0.97481
20
0.33221
11
-0.974623
21
0.332048
0
LINE
8
BLACK
6
CONTINUOUS
10
-0.974623
20
0.332048
11
-0.973685
21
0.330172
0
LINE
8
BLACK
6
CONTINUOUS
10
-0.973685
20
0.330172
11
-0.973661
21
0.329824
0
LINE
8
BLACK
6
CONTINUOUS
10
-0.973661
20
0.329824
11
-0.973527
21
0.329501
0
LINE
8
BLACK
6
CONTINUOUS
10
-0.973527
20
0.329501
11
-0.973527
21
0.326687
0
LINE
8
BLACK
6
CONTINUOUS
10
-0.973527
20
0.326687
11
-0.973661
21
0.326364
0
LINE
8
BLACK
6
CONTINUOUS
10
-0.973661
20
0.326364
11
-0.973685
21
0.326016
0
LINE
8
BLACK
6
CONTINUOUS
10
-0.973685
20
0.326016
11
-0.974623
21
0.32414
0
LINE
8
BLACK
6
CONTINUOUS
10
-0.974623
20
0.32414
11
-0.97481
21
0.323978
0
LINE
8
BLACK
6
CONTINUOUS
10
-0.97481
20
0.323978
11
-0.974904
21
0.32375
0
LINE
8
BLACK
6
CONTINUOUS
10
-0.974904
20
0.32375
11
-0.975843
21
0.322812
0
LINE
8
BLACK
6
CONTINUOUS
10
-0.975843
20
0.322812
11
-0.976071
21
0.322717
0
LINE
8
BLACK
6
CONTINUOUS
10
-0.976071
20
0.322717
11
-0.976232
21
0.322531
0
LINE
8
BLACK
6
CONTINUOUS
10
-0.976232
20
0.322531
11
-0.978109
21
0.321593
0
LINE
8
BLACK
6
CONTINUOUS
10
-0.978109
20
0.321593
11
-0.978457
21
0.321568
0
LINE
8
BLACK
6
CONTINUOUS
10
-0.978457
20
0.321568
11
-0.978779
21
0.321434
0
LINE
8
BLACK
6
CONTINUOUS
10
-0.978779
20
0.321434
11
-0.984784
21
0.321434
0
LINE
8
BLACK
6
CONTINUOUS
10
-0.984784
20
0.321434
11
-0.984784
21
0.313553
0
LINE
8
BLACK
6
CONTINUOUS
10
-0.984784
20
0.313553
11
-0.985224
21
0.312493
0
LINE
8
BLACK
6
CONTINUOUS
10
-0.985224
20
0.312493
11
-0.986284
21
0.312053
0
LINE
8
BLACK
6
CONTINUOUS
10
-0.986284
20
0.312053
11
-0.987345
21
0.312493
0
LINE
8
BLACK
6
CONTINUOUS
10
-0.987345
20
0.312493
11
-0.987784
21
0.313553
0
LINE
8
BLACK
6
CONTINUOUS
10
-0.987784
20
0.313553
11
-0.987784
21
0.333253
0
LINE
8
BLACK
6
CONTINUOUS
10
-0.987784
20
0.333253
11
-0.987345
21
0.334314
0
LINE
8
BLACK
6
CONTINUOUS
10
-0.987345
20
0.334314
11
-0.986284
21
0.334753
0
LINE
8
BLACK
6
CONTINUOUS
10
-0.986284
20
0.334753
11
-0.978779
21
0.334753
0
LINE
8
BLACK
6
CONTINUOUS
10
-0.978779
20
0.334753
11
-0.978457
21
0.33462
0
LINE
8
BLACK
6
CONTINUOUS
10
-0.984784
20
0.331753
11
-0.984784
21
0.324434
0
LINE
8
BLACK
6
CONTINUOUS
10
-0.984784
20
0.324434
11
-0.979134
21
0.324434
0
LINE
8
BLACK
6
CONTINUOUS
10
-0.979134
20
0.324434
11
-0.977792
21
0.325105
0
LINE
8
BLACK
6
CONTINUOUS
10
-0.977792
20
0.325105
11
-0.977198
21
0.325699
0
LINE
8
BLACK
6
CONTINUOUS
10
-0.977198
20
0.325699
11
-0.976527
21
0.327041
0
LINE
8
BLACK
6
CONTINUOUS
10
-0.976527
20
0.327041
11
-0.976527
21
0.329147
0
LINE
8
BLACK
6
CONTINUOUS
10
-0.976527
20
0.329147
11
-0.977198
21
0.330489
0
LINE
8
BLACK
6
CONTINUOUS
10
-0.977198
20
0.330489
11
-0.977792
21
0.331083
0
LINE
8
BLACK
6
CONTINUOUS
10
-0.977792
20
0.331083
11
-0.979134
21
0.331753
0
LINE
8
BLACK
6
CONTINUOUS
10
-0.979134
20
0.331753
11
-0.984784
21
0.331753
0
LINE
8
BLACK
6
CONTINUOUS
10
-1.14829
20
0.334636
11
-1.14798
21
0.334632
0
LINE
8
BLACK
6
CONTINUOUS
10
-1.14798
20
0.334632
11
-1.14778
21
0.334425
0
LINE
8
BLACK
6
CONTINUOUS
10
-1.14778
20
0.334425
11
-1.14751
21
0.334314
0
LINE
8
BLACK
6
CONTINUOUS
10
-1.14751
20
0.334314
11
-1.1474
21
0.33403
0
LINE
8
BLACK
6
CONTINUOUS
10
-1.1474
20
0.33403
11
-1.14718
21
0.333811
0
LINE
8
BLACK
6
CONTINUOUS
10
-1.14718
20
0.333811
11
-1.14719
21
0.333521
0
LINE
8
BLACK
6
CONTINUOUS
10
-1.14719
20
0.333521
11
-1.14707
21
0.333253
0
LINE
8
BLACK
6
CONTINUOUS
10
-1.14707
20
0.333253
11
-1.14719
21
0.33297
0
LINE
8
BLACK
6
CONTINUOUS
10
-1.14719
20
0.33297
11
-1.1472
21
0.332663
0
LINE
8
BLACK
6
CONTINUOUS
10
-1.1472
20
0.332663
11
-1.15564
21
0.312963
0
LINE
8
BLACK
6
CONTINUOUS
10
-1.15564
20
0.312963
11
-1.15646
21
0.312161
0
LINE
8
BLACK
6
CONTINUOUS
10
-1.15646
20
0.312161
11
-1.15761
21
0.312175
0
LINE
8
BLACK
6
CONTINUOUS
10
-1.15761
20
0.312175
11
-1.15841
21
0.312996
0
LINE
8
BLACK
6
CONTINUOUS
10
-1.15841
20
0.312996
11
-1.1584
21
0.314144
0
LINE
8
BLACK
6
CONTINUOUS
10
-1.1584
20
0.314144
11
-1.15085
21
0.331753
0
LINE
8
BLACK
6
CONTINUOUS
10
-1.15085
20
0.331753
11
-1.16171
21
0.331753
0
LINE
8
BLACK
6
CONTINUOUS
10
-1.16171
20
0.331753
11
-1.16277
21
0.332193
0
LINE
8
BLACK
6
CONTINUOUS
10
-1.16277
20
0.332193
11
-1.16321
21
0.333253
0
LINE
8
BLACK
6
CONTINUOUS
10
-1.16321
20
0.333253
11
-1.16277
21
0.334314
0
LINE
8
BLACK
6
CONTINUOUS
10
-1.16277
20
0.334314
11
-1.16171
21
0.334753
0
LINE
8
BLACK
6
CONTINUOUS
10
-1.16171
20
0.334753
11
-1.14857
21
0.334753
0
LINE
8
BLACK
6
CONTINUOUS
10
-1.14857
20
0.334753
11
-1.14829
21
0.334636
0
LINE
8
BLACK
6
CONTINUOUS
10
-0.259943
20
0.441898
11
-0.259252
21
0.44
0
LINE
8
BLACK
6
CONTINUOUS
10
-0.259252
20
0.44
11
-0.259252
21
0.36
0
LINE
8
BLACK
6
CONTINUOUS
10
-0.259252
20
0.36
11
-0.25943
21
0.35899
0
LINE
8
BLACK
6
CONTINUOUS
10
-0.25943
20
0.35899
11
-0.260728
21
0.357443
0
LINE
8
BLACK
6
CONTINUOUS
10
-0.260728
20
0.357443
11
-0.262717
21
0.357092
0
LINE
8
BLACK
6
CONTINUOUS
10
-0.262717
20
0.357092
11
-0.264467
21
0.358102
0
LINE
8
BLACK
6
CONTINUOUS
10
-0.264467
20
0.358102
11
-0.265157
21
0.36
0
LINE
8
BLACK
6
CONTINUOUS
10
-0.265157
20
0.36
11
-0.265157
21
0.44
0
LINE
8
BLACK
6
CONTINUOUS
10
-0.265157
20
0.44
11
-0.264979
21
0.44101
0
LINE
8
BLACK
6
CONTINUOUS
10
-0.264979
20
0.44101
11
-0.263681
21
0.442557
0
LINE
8
BLACK
6
CONTINUOUS
10
-0.263681
20
0.442557
11
-0.261692
21
0.442908
0
LINE
8
BLACK
6
CONTINUOUS
10
-0.261692
20
0.442908
11
-0.259943
21
0.441898
0
LINE
8
BLACK
6
CONTINUOUS
10
-0.535533
20
0.441898
11
-0.534843
21
0.44
0
LINE
8
BLACK
6
CONTINUOUS
10
-0.534843
20
0.44
11
-0.534843
21
0.36
0
LINE
8
BLACK
6
CONTINUOUS
10
-0.534843
20
0.36
11
-0.535021
21
0.35899
0
LINE
8
BLACK
6
CONTINUOUS
10
-0.535021
20
0.35899
11
-0.536319
21
0.357443
0
LINE
8
BLACK
6
CONTINUOUS
10
-0.536319
20
0.357443
11
-0.538308
21
0.357092
0
LINE
8
BLACK
6
CONTINUOUS
10
-0.538308
20
0.357092
11
-0.540057
21
0.358102
0
LINE
8
BLACK
6
CONTINUOUS
10
-0.540057
20
0.358102
11
-0.540748
21
0.36
0
LINE
8
BLACK
6
CONTINUOUS
10
-0.540748
20
0.36
11
-0.540748
21
0.44
0
LINE
8
BLACK
6
CONTINUOUS
10
-0.540748
20
0.44
11
-0.54057
21
0.44101
0
LINE
8
BLACK
6
CONTINUOUS
10
-0.54057
20
0.44101
11
-0.539272
21
0.442557
0
LINE
8
BLACK
6
CONTINUOUS
10
-0.539272
20
0.442557
11
-0.537283
21
0.442908
0
LINE
8
BLACK
6
CONTINUOUS
10
-0.537283
20
0.442908
11
-0.535533
21
0.441898
0
LINE
8
BLACK
6
CONTINUOUS
10
-0.899393
20
0.38734
11
-0.898701
21
0.385669
0
LINE
8
BLACK
6
CONTINUOUS
10
-0.898701
20
0.385669
11
-0.899393
21
0.383999
0
LINE
8
BLACK
6
CONTINUOUS
10
-0.899393
20
0.383999
11
-0.901063
21
0.383307
0
LINE
8
BLACK
6
CONTINUOUS
10
-0.901063
20
0.383307
11
-0.98315
21
0.383307
0
LINE
8
BLACK
6
CONTINUOUS
10
-0.98315
20
0.383307
11
-0.98482
21
0.383999
0
LINE
8
BLACK
6
CONTINUOUS
10
-0.98482
20
0.383999
11
-0.985512
21
0.385669
0
LINE
8
BLACK
6
CONTINUOUS
10
-0.985512
20
0.385669
11
-0.98482
21
0.38734
0
LINE
8
BLACK
6
CONTINUOUS
10
-0.98482
20
0.38734
11
-0.98315
21
0.388031
0
LINE
8
BLACK
6
CONTINUOUS
10
-0.98315
20
0.388031
11
-0.901063
21
0.388031
0
LINE
8
BLACK
6
CONTINUOUS
10
-0.901063
20
0.388031
11
-0.899393
21
0.38734
0
LINE
8
BLACK
6
CONTINUOUS
10
-0.933818
20
0.441131
11
-0.933753
21
0.441133
0
LINE
8
BLACK
6
CONTINUOUS
10
-0.933753
20
0.441133
11
-0.928129
21
0.439258
0
LINE
8
BLACK
6
CONTINUOUS
10
-0.928129
20
0.439258
11
-0.927227
21
0.43877
0
LINE
8
BLACK
6
CONTINUOUS
10
-0.927227
20
0.43877
11
-0.927135
21
0.438619
0
LINE
8
BLACK
6
CONTINUOUS
10
-0.927135
20
0.438619
11
-0.926975
21
0.438545
0
LINE
8
BLACK
6
CONTINUOUS
10
-0.926975
20
0.438545
11
-0.9251
21
0.43667
0
LINE
8
BLACK
6
CONTINUOUS
10
-0.9251
20
0.43667
11
-0.924512
21
0.43583
0
LINE
8
BLACK
6
CONTINUOUS
10
-0.924512
20
0.43583
11
-0.924336
21
0.433818
0
LINE
8
BLACK
6
CONTINUOUS
10
-0.924336
20
0.433818
11
-0.925494
21
0.432163
0
LINE
8
BLACK
6
CONTINUOUS
10
-0.925494
20
0.432163
11
-0.927445
21
0.43164
0
LINE
8
BLACK
6
CONTINUOUS
10
-0.927445
20
0.43164
11
-0.929276
21
0.432494
0
LINE
8
BLACK
6
CONTINUOUS
10
-0.929276
20
0.432494
11
-0.930658
21
0.433876
0
LINE
8
BLACK
6
CONTINUOUS
10
-0.930658
20
0.433876
11
-0.935166
21
0.435379
0
LINE
8
BLACK
6
CONTINUOUS
10
-0.935166
20
0.435379
11
-0.937957
21
0.435379
0
LINE
8
BLACK
6
CONTINUOUS
10
-0.937957
20
0.435379
11
-0.942466
21
0.433876
0
LINE
8
BLACK
6
CONTINUOUS
10
-0.942466
20
0.433876
11
-0.945384
21
0.430958
0
LINE
8
BLACK
6
CONTINUOUS
10
-0.945384
20
0.430958
11
-0.946899
21
0.427927
0
LINE
8
BLACK
6
CONTINUOUS
10
-0.946899
20
0.427927
11
-0.948607
21
0.421095
0
LINE
8
BLACK
6
CONTINUOUS
10
-0.948607
20
0.421095
11
-0.948607
21
0.416198
0
LINE
8
BLACK
6
CONTINUOUS
10
-0.948607
20
0.416198
11
-0.946899
21
0.409366
0
LINE
8
BLACK
6
CONTINUOUS
10
-0.946899
20
0.409366
11
-0.945384
21
0.406335
0
LINE
8
BLACK
6
CONTINUOUS
10
-0.945384
20
0.406335
11
-0.942466
21
0.403417
0
LINE
8
BLACK
6
CONTINUOUS
10
-0.942466
20
0.403417
11
-0.937957
21
0.401914
0
LINE
8
BLACK
6
CONTINUOUS
10
-0.937957
20
0.401914
11
-0.935166
21
0.401914
0
LINE
8
BLACK
6
CONTINUOUS
10
-0.935166
20
0.401914
11
-0.930658
21
0.403417
0
LINE
8
BLACK
6
CONTINUOUS
10
-0.930658
20
0.403417
11
-0.929276
21
0.404799
0
LINE
8
BLACK
6
CONTINUOUS
10
-0.929276
20
0.404799
11
-0.928436
21
0.405387
0
LINE
8
BLACK
6
CONTINUOUS
10
-0.928436
20
0.405387
11
-0.926424
21
0.405563
0
LINE
8
BLACK
6
CONTINUOUS
10
-0.926424
20
0.405563
11
-0.924769
21
0.404405
0
LINE
8
BLACK
6
CONTINUOUS
10
-0.924769
20
0.404405
11
-0.924246
21
0.402454
0
LINE
8
BLACK
6
CONTINUOUS
10
-0.924246
20
0.402454
11
-0.9251
21
0.400623
0
LINE
8
BLACK
6
CONTINUOUS
10
-0.9251
20
0.400623
11
-0.926975
21
0.398748
0
LINE
8
BLACK
6
CONTINUOUS
10
-0.926975
20
0.398748
11
-0.927815
21
0.39816
0
LINE
8
BLACK
6
CONTINUOUS
10
-0.927815
20
0.39816
11
-0.927991
21
0.398145
0
LINE
8
BLACK
6
CONTINUOUS
10
-0.927991
20
0.398145
11
-0.928129
21
0.398035
0
LINE
8
BLACK
6
CONTINUOUS
10
-0.928129
20
0.398035
11
-0.933753
21
0.39616
0
LINE
8
BLACK
6
CONTINUOUS
10
-0.933753
20
0.39616
11
-0.934626
21
0.396031
0
LINE
8
BLACK
6
CONTINUOUS
10
-0.934626
20
0.396031
11
-0.934687
21
0.396009
0
LINE
8
BLACK
6
CONTINUOUS
10
-0.934687
20
0.396009
11
-0.938436
21
0.396009
0
LINE
8
BLACK
6
CONTINUOUS
10
-0.938436
20
0.396009
11
-0.939306
21
0.396162
0
LINE
8
BLACK
6
CONTINUOUS
10
-0.939306
20
0.396162
11
-0.93937
21
0.39616
0
LINE
8
BLACK
6
CONTINUOUS
10
-0.93937
20
0.39616
11
-0.944994
21
0.398035
0
LINE
8
BLACK
6
CONTINUOUS
10
-0.944994
20
0.398035
11
-0.945896
21
0.398523
0
LINE
8
BLACK
6
CONTINUOUS
10
-0.945896
20
0.398523
11
-0.945989
21
0.398674
0
LINE
8
BLACK
6
CONTINUOUS
10
-0.945989
20
0.398674
11
-0.946149
21
0.398748
0
LINE
8
BLACK
6
CONTINUOUS
10
-0.946149
20
0.398748
11
-0.949898
21
0.402498
0
LINE
8
BLACK
6
CONTINUOUS
10
-0.949898
20
0.402498
11
-0.950404
21
0.403221
0
LINE
8
BLACK
6
CONTINUOUS
10
-0.950404
20
0.403221
11
-0.950451
21
0.403265
0
LINE
8
BLACK
6
CONTINUOUS
10
-0.950451
20
0.403265
11
-0.952326
21
0.407015
0
LINE
8
BLACK
6
CONTINUOUS
10
-0.952326
20
0.407015
11
-0.952471
21
0.407503
0
LINE
8
BLACK
6
CONTINUOUS
10
-0.952471
20
0.407503
11
-0.95255
21
0.407619
0
LINE
8
BLACK
6
CONTINUOUS
10
-0.95255
20
0.407619
11
-0.954424
21
0.415118
0
LINE
8
BLACK
6
CONTINUOUS
10
-0.954424
20
0.415118
11
-0.954466
21
0.415706
0
LINE
8
BLACK
6
CONTINUOUS
10
-0.954466
20
0.415706
11
-0.954513
21
0.415834
0
LINE
8
BLACK
6
CONTINUOUS
10
-0.954513
20
0.415834
11
-0.954513
21
0.421459
0
LINE
8
BLACK
6
CONTINUOUS
10
-0.954513
20
0.421459
11
-0.95441
21
0.422039
0
LINE
8
BLACK
6
CONTINUOUS
10
-0.95441
20
0.422039
11
-0.954424
21
0.422175
0
LINE
8
BLACK
6
CONTINUOUS
10
-0.954424
20
0.422175
11
-0.95255
21
0.429674
0
LINE
8
BLACK
6
CONTINUOUS
10
-0.95255
20
0.429674
11
-0.952342
21
0.430139
0
LINE
8
BLACK
6
CONTINUOUS
10
-0.952342
20
0.430139
11
-0.952326
21
0.430278
0
LINE
8
BLACK
6
CONTINUOUS
10
-0.952326
20
0.430278
11
-0.950451
21
0.434028
0
LINE
8
BLACK
6
CONTINUOUS
10
-0.950451
20
0.434028
11
-0.949925
21
0.434737
0
LINE
8
BLACK
6
CONTINUOUS
10
-0.949925
20
0.434737
11
-0.949898
21
0.434795
0
LINE
8
BLACK
6
CONTINUOUS
10
-0.949898
20
0.434795
11
-0.946149
21
0.438545
0
LINE
8
BLACK
6
CONTINUOUS
10
-0.946149
20
0.438545
11
-0.945309
21
0.439133
0
LINE
8
BLACK
6
CONTINUOUS
10
-0.945309
20
0.439133
11
-0.945133
21
0.439148
0
LINE
8
BLACK
6
CONTINUOUS
10
-0.945133
20
0.439148
11
-0.944995
21
0.439258
0
LINE
8
BLACK
6
CONTINUOUS
10
-0.944995
20
0.439258
11
-0.93937
21
0.441133
0
LINE
8
BLACK
6
CONTINUOUS
10
-0.93937
20
0.441133
11
-0.938497
21
0.441262
0
LINE
8
BLACK
6
CONTINUOUS
10
-0.938497
20
0.441262
11
-0.938436
21
0.441284
0
LINE
8
BLACK
6
CONTINUOUS
10
-0.938436
20
0.441284
11
-0.934687
21
0.441284
0
LINE
8
BLACK
6
CONTINUOUS
10
-0.934687
20
0.441284
11
-0.933818
21
0.441131
0
LINE
8
BLACK
6
CONTINUOUS
10
-0.900596
20
0.44121
11
-0.900428
21
0.441239
0
LINE
8
BLACK
6
CONTINUOUS
10
-0.900428
20
0.441239
11
-0.899686
21
0.440811
0
LINE
8
BLACK
6
CONTINUOUS
10
-0.899686
20
0.440811
11
-0.898901
21
0.440467
0
LINE
8
BLACK
6
CONTINUOUS
10
-0.898901
20
0.440467
11
-0.898826
21
0.440314
0
LINE
8
BLACK
6
CONTINUOUS
10
-0.898826
20
0.440314
11
-0.898679
21
0.440229
0
LINE
8
BLACK
6
CONTINUOUS
10
-0.898679
20
0.440229
11
-0.898386
21
0.439424
0
LINE
8
BLACK
6
CONTINUOUS
10
-0.898386
20
0.439424
11
-0.898006
21
0.438656
0
LINE
8
BLACK
6
CONTINUOUS
10
-0.898006
20
0.438656
11
-0.898046
21
0.438491
0
LINE
8
BLACK
6
CONTINUOUS
10
-0.898046
20
0.438491
11
-0.897988
21
0.438331
0
LINE
8
BLACK
6
CONTINUOUS
10
-0.897988
20
0.438331
11
-0.897988
21
0.401914
0
LINE
8
BLACK
6
CONTINUOUS
10
-0.897988
20
0.401914
11
-0.889693
21
0.401914
0
LINE
8
BLACK
6
CONTINUOUS
10
-0.889693
20
0.401914
11
-0.888683
21
0.401736
0
LINE
8
BLACK
6
CONTINUOUS
10
-0.888683
20
0.401736
11
-0.887135
21
0.400438
0
LINE
8
BLACK
6
CONTINUOUS
10
-0.887135
20
0.400438
11
-0.886785
21
0.398449
0
LINE
8
BLACK
6
CONTINUOUS
10
-0.886785
20
0.398449
11
-0.887795
21
0.396699
0
LINE
8
BLACK
6
CONTINUOUS
10
-0.887795
20
0.396699
11
-0.889693
21
0.396009
0
LINE
8
BLACK
6
CONTINUOUS
10
-0.889693
20
0.396009
11
-0.91219
21
0.396009
0
LINE
8
BLACK
6
CONTINUOUS
10
-0.91219
20
0.396009
11
-0.9132
21
0.396187
0
LINE
8
BLACK
6
CONTINUOUS
10
-0.9132
20
0.396187
11
-0.914747
21
0.397485
0
LINE
8
BLACK
6
CONTINUOUS
10
-0.914747
20
0.397485
11
-0.915098
21
0.399474
0
LINE
8
BLACK
6
CONTINUOUS
10
-0.915098
20
0.399474
11
-0.914088
21
0.401223
0
LINE
8
BLACK
6
CONTINUOUS
10
-0.914088
20
0.401223
11
-0.91219
21
0.401914
0
LINE
8
BLACK
6
CONTINUOUS
10
-0.91219
20
0.401914
11
-0.903894
21
0.401914
0
LINE
8
BLACK
6
CONTINUOUS
10
-0.903894
20
0.401914
11
-0.903894
21
0.429328
0
LINE
8
BLACK
6
CONTINUOUS
10
-0.903894
20
0.429328
11
-0.906352
21
0.42687
0
LINE
8
BLACK
6
CONTINUOUS
10
-0.906352
20
0.42687
11
-0.907075
21
0.426363
0
LINE
8
BLACK
6
CONTINUOUS
10
-0.907075
20
0.426363
11
-0.90712
21
0.426317
0
LINE
8
BLACK
6
CONTINUOUS
10
-0.90712
20
0.426317
11
-0.910869
21
0.424442
0
LINE
8
BLACK
6
CONTINUOUS
10
-0.910869
20
0.424442
11
-0.911852
21
0.424149
0
LINE
8
BLACK
6
CONTINUOUS
10
-0.911852
20
0.424149
11
-0.913817
21
0.424619
0
LINE
8
BLACK
6
CONTINUOUS
10
-0.913817
20
0.424619
11
-0.91502
21
0.426241
0
LINE
8
BLACK
6
CONTINUOUS
10
-0.91502
20
0.426241
11
-0.914899
21
0.428257
0
LINE
8
BLACK
6
CONTINUOUS
10
-0.914899
20
0.428257
11
-0.91351
21
0.429724
0
LINE
8
BLACK
6
CONTINUOUS
10
-0.91351
20
0.429724
11
-0.910189
21
0.431384
0
LINE
8
BLACK
6
CONTINUOUS
10
-0.910189
20
0.431384
11
-0.906985
21
0.434588
0
LINE
8
BLACK
6
CONTINUOUS
10
-0.906985
20
0.434588
11
-0.903398
21
0.439969
0
LINE
8
BLACK
6
CONTINUOUS
10
-0.903398
20
0.439969
11
-0.90269
21
0.440711
0
LINE
8
BLACK
6
CONTINUOUS
10
-0.90269
20
0.440711
11
-0.902527
21
0.440759
0
LINE
8
BLACK
6
CONTINUOUS
10
-0.902527
20
0.440759
11
-0.902418
21
0.440889
0
LINE
8
BLACK
6
CONTINUOUS
10
-0.902418
20
0.440889
11
-0.901574
21
0.441037
0
LINE
8
BLACK
6
CONTINUOUS
10
-0.901574
20
0.441037
11
-0.900751
21
0.441278
0
LINE
8
BLACK
6
CONTINUOUS
10
-0.900751
20
0.441278
11
-0.900596
21
0.44121
0
LINE
8
BLACK
6
CONTINUOUS
10
-0.966171
20
0.440229
11
-0.96548
21
0.438331
0
LINE
8
BLACK
6
CONTINUOUS
10
-0.96548
20
0.438331
11
-0.96548
21
0.398961
0
LINE
8
BLACK
6
CONTINUOUS
10
-0.96548
20
0.398961
11
-0.965658
21
0.397951
0
LINE
8
BLACK
6
CONTINUOUS
10
-0.965658
20
0.397951
11
-0.966956
21
0.396404
0
LINE
8
BLACK
6
CONTINUOUS
10
-0.966956
20
0.396404
11
-0.968945
21
0.396054
0
LINE
8
BLACK
6
CONTINUOUS
10
-0.968945
20
0.396054
11
-0.970695
21
0.397063
0
LINE
8
BLACK
6
CONTINUOUS
10
-0.970695
20
0.397063
11
-0.971385
21
0.398961
0
LINE
8
BLACK
6
CONTINUOUS
10
-0.971385
20
0.398961
11
-0.971385
21
0.438331
0
LINE
8
BLACK
6
CONTINUOUS
10
-0.971385
20
0.438331
11
-0.971207
21
0.439341
0
LINE
8
BLACK
6
CONTINUOUS
10
-0.971207
20
0.439341
11
-0.969909
21
0.440889
0
LINE
8
BLACK
6
CONTINUOUS
10
-0.969909
20
0.440889
11
-0.96792
21
0.441239
0
LINE
8
BLACK
6
CONTINUOUS
10
-0.96792
20
0.441239
11
-0.966171
21
0.440229
0
LINE
8
BLACK
6
CONTINUOUS
10
-1.78132
20
0.430399
11
-1.78161
21
0.431095
0
LINE
8
BLACK
6
CONTINUOUS
10
-1.78161
20
0.431095
11
-1.78132
21
0.431791
0
LINE
8
BLACK
6
CONTINUOUS
10
-1.78132
20
0.431791
11
-1.78062
21
0.432079
0
LINE
8
BLACK
6
CONTINUOUS
10
-1.78062
20
0.432079
11
-1.77598
21
0.432079
0
LINE
8
BLACK
6
CONTINUOUS
10
-1.77598
20
0.432079
11
-1.77598
21
0.447529
0
LINE
8
BLACK
6
CONTINUOUS
10
-1.77598
20
0.447529
11
-1.77606
21
0.447422
0
LINE
8
BLACK
6
CONTINUOUS
10
-1.77606
20
0.447422
11
-1.77614
21
0.447365
0
LINE
8
BLACK
6
CONTINUOUS
10
-1.77614
20
0.447365
11
-1.77618
21
0.447272
0
LINE
8
BLACK
6
CONTINUOUS
10
-1.77618
20
0.447272
11
-1.77805
21
0.445397
0
LINE
8
BLACK
6
CONTINUOUS
10
-1.77805
20
0.445397
11
-1.7782
21
0.445335
0
LINE
8
BLACK
6
CONTINUOUS
10
-1.7782
20
0.445335
11
-1.77831
21
0.445213
0
LINE
8
BLACK
6
CONTINUOUS
10
-1.77831
20
0.445213
11
-1.78018
21
0.444275
0
LINE
8
BLACK
6
CONTINUOUS
10
-1.78018
20
0.444275
11
-1.78094
21
0.444222
0
LINE
8
BLACK
6
CONTINUOUS
10
-1.78094
20
0.444222
11
-1.7815
21
0.444715
0
LINE
8
BLACK
6
CONTINUOUS
10
-1.7815
20
0.444715
11
-1.78156
21
0.445467
0
LINE
8
BLACK
6
CONTINUOUS
10
-1.78156
20
0.445467
11
-1.78106
21
0.446036
0
LINE
8
BLACK
6
CONTINUOUS
10
-1.78106
20
0.446036
11
-1.77933
21
0.446902
0
LINE
8
BLACK
6
CONTINUOUS
10
-1.77933
20
0.446902
11
-1.77764
21
0.448595
0
LINE
8
BLACK
6
CONTINUOUS
10
-1.77764
20
0.448595
11
-1.77582
21
0.451326
0
LINE
8
BLACK
6
CONTINUOUS
10
-1.77582
20
0.451326
11
-1.77573
21
0.451382
0
LINE
8
BLACK
6
CONTINUOUS
10
-1.77573
20
0.451382
11
-1.7757
21
0.451476
0
LINE
8
BLACK
6
CONTINUOUS
10
-1.7757
20
0.451476
11
-1.77543
21
0.451586
0
LINE
8
BLACK
6
CONTINUOUS
10
-1.77543
20
0.451586
11
-1.77519
21
0.451745
0
LINE
8
BLACK
6
CONTINUOUS
10
-1.77519
20
0.451745
11
-1.77509
21
0.451725
0
LINE
8
BLACK
6
CONTINUOUS
10
-1.77509
20
0.451725
11
-1.775
21
0.451764
0
LINE
8
BLACK
6
CONTINUOUS
10
-1.775
20
0.451764
11
-1.77474
21
0.451654
0
LINE
8
BLACK
6
CONTINUOUS
10
-1.77474
20
0.451654
11
-1.77445
21
0.451599
0
LINE
8
BLACK
6
CONTINUOUS
10
-1.77445
20
0.451599
11
-1.7744
21
0.451515
0
LINE
8
BLACK
6
CONTINUOUS
10
-1.7744
20
0.451515
11
-1.7743
21
0.451476
0
LINE
8
BLACK
6
CONTINUOUS
10
-1.7743
20
0.451476
11
-1.77419
21
0.451211
0
LINE
8
BLACK
6
CONTINUOUS
10
-1.77419
20
0.451211
11
-1.77403
21
0.450973
0
LINE
8
BLACK
6
CONTINUOUS
10
-1.77403
20
0.450973
11
-1.77405
21
0.450874
0
LINE
8
BLACK
6
CONTINUOUS
10
-1.77405
20
0.450874
11
-1.77402
21
0.45078
0
LINE
8
BLACK
6
CONTINUOUS
10
-1.77402
20
0.45078
11
-1.77402
21
0.432079
0
LINE
8
BLACK
6
CONTINUOUS
10
-1.77402
20
0.432079
11
-1.76938
21
0.432079
0
LINE
8
BLACK
6
CONTINUOUS
10
-1.76938
20
0.432079
11
-1.76868
21
0.431791
0
LINE
8
BLACK
6
CONTINUOUS
10
-1.76868
20
0.431791
11
-1.76839
21
0.431095
0
LINE
8
BLACK
6
CONTINUOUS
10
-1.76839
20
0.431095
11
-1.76868
21
0.430399
0
LINE
8
BLACK
6
CONTINUOUS
10
-1.76868
20
0.430399
11
-1.76938
21
0.430111
0
LINE
8
BLACK
6
CONTINUOUS
10
-1.76938
20
0.430111
11
-1.78062
21
0.430111
0
LINE
8
BLACK
6
CONTINUOUS
10
-1.78062
20
0.430111
11
-1.78132
21
0.430399
0
LINE
8
BLACK
6
CONTINUOUS
10
1.30038
20
0.752885
11
1.30051
21
0.752908
0
LINE
8
BLACK
6
CONTINUOUS
10
1.30051
20
0.752908
11
1.30063
21
0.752842
0
LINE
8
BLACK
6
CONTINUOUS
10
1.30063
20
0.752842
11
1.30101
21
0.752775
0
LINE
8
BLACK
6
CONTINUOUS
10
1.30101
20
0.752775
11
1.3016
21
0.752282
0
LINE
8
BLACK
6
CONTINUOUS
10
1.3016
20
0.752282
11
1.30226
21
0.751898
0
LINE
8
BLACK
6
CONTINUOUS
10
1.30226
20
0.751898
11
1.30235
21
0.751648
0
LINE
8
BLACK
6
CONTINUOUS
10
1.30235
20
0.751648
11
1.30256
21
0.751476
0
LINE
8
BLACK
6
CONTINUOUS
10
1.30256
20
0.751476
11
1.30269
21
0.750721
0
LINE
8
BLACK
6
CONTINUOUS
10
1.30269
20
0.750721
11
1.30295
21
0.75
0
LINE
8
BLACK
6
CONTINUOUS
10
1.30295
20
0.75
11
1.30295
21
0.45
0
LINE
8
BLACK
6
CONTINUOUS
10
1.30295
20
0.45
11
1.30289
21
0.449616
0
LINE
8
BLACK
6
CONTINUOUS
10
1.30289
20
0.449616
11
1.30291
21
0.449487
0
LINE
8
BLACK
6
CONTINUOUS
10
1.30291
20
0.449487
11
1.30284
21
0.449374
0
LINE
8
BLACK
6
CONTINUOUS
10
1.30284
20
0.449374
11
1.30277
21
0.44899
0
LINE
8
BLACK
6
CONTINUOUS
10
1.30277
20
0.44899
11
1.30228
21
0.448402
0
LINE
8
BLACK
6
CONTINUOUS
10
1.30228
20
0.448402
11
1.3019
21
0.447738
0
LINE
8
BLACK
6
CONTINUOUS
10
1.3019
20
0.447738
11
1.30165
21
0.447647
0
LINE
8
BLACK
6
CONTINUOUS
10
1.30165
20
0.447647
11
1.30148
21
0.447443
0
LINE
8
BLACK
6
CONTINUOUS
10
1.30148
20
0.447443
11
1.30072
21
0.44731
0
LINE
8
BLACK
6
CONTINUOUS
10
1.30072
20
0.44731
11
1.3
21
0.447047
0
LINE
8
BLACK
6
CONTINUOUS
10
1.3
20
0.447047
11
1.1
21
0.447047
0
LINE
8
BLACK
6
CONTINUOUS
10
1.1
20
0.447047
11
1.09962
21
0.447115
0
LINE
8
BLACK
6
CONTINUOUS
10
1.09962
20
0.447115
11
1.09949
21
0.447092
0
LINE
8
BLACK
6
CONTINUOUS
10
1.09949
20
0.447092
11
1.09937
21
0.447158
0
LINE
8
BLACK
6
CONTINUOUS
10
1.09937
20
0.447158
11
1.09899
21
0.447225
0
LINE
8
BLACK
6
CONTINUOUS
10
1.09899
20
0.447225
11
1.0984
21
0.447718
0
LINE
8
BLACK
6
CONTINUOUS
10
1.0984
20
0.447718
11
1.09774
21
0.448102
0
LINE
8
BLACK
6
CONTINUOUS
10
1.09774
20
0.448102
11
1.09765
21
0.448352
0
LINE
8
BLACK
6
CONTINUOUS
10
1.09765
20
0.448352
11
1.09744
21
0.448524
0
LINE
8
BLACK
6
CONTINUOUS
10
1.09744
20
0.448524
11
1.09731
21
0.449279
0
LINE
8
BLACK
6
CONTINUOUS
10
1.09731
20
0.449279
11
1.09705
21
0.45
0
LINE
8
BLACK
6
CONTINUOUS
10
1.09705
20
0.45
11
1.09705
21
0.75
0
LINE
8
BLACK
6
CONTINUOUS
10
1.09705
20
0.75
11
1.09711
21
0.750384
0
LINE
8
BLACK
6
CONTINUOUS
10
1.09711
20
0.750384
11
1.09709
21
0.750513
0
LINE
8
BLACK
6
CONTINUOUS
10
1.09709
20
0.750513
11
1.09716
21
0.750626
0
LINE
8
BLACK
6
CONTINUOUS
10
1.09716
20
0.750626
11
1.09723
21
0.75101
0
LINE
8
BLACK
6
CONTINUOUS
10
1.09723
20
0.75101
11
1.09772
21
0.751598
0
LINE
8
BLACK
6
CONTINUOUS
10
1.09772
20
0.751598
11
1.0981
21
0.752262
0
LINE
8
BLACK
6
CONTINUOUS
10
1.0981
20
0.752262
11
1.09835
21
0.752353
0
LINE
8
BLACK
6
CONTINUOUS
10
1.09835
20
0.752353
11
1.09852
21
0.752557
0
LINE
8
BLACK
6
CONTINUOUS
10
1.09852
20
0.752557
11
1.09928
21
0.75269
0
LINE
8
BLACK
6
CONTINUOUS
10
1.09928
20
0.75269
11
1.1
21
0.752953
0
LINE
8
BLACK
6
CONTINUOUS
10
1.1
20
0.752953
11
1.3
21
0.752953
0
LINE
8
BLACK
6
CONTINUOUS
10
1.3
20
0.752953
11
1.30038
21
0.752885
0
LINE
8
BLACK
6
CONTINUOUS
10
1.10295
20
0.747047
11
1.10295
21
0.452953
0
LINE
8
BLACK
6
CONTINUOUS
10
1.10295
20
0.452953
11
1.29705
21
0.452953
0
LINE
8
BLACK
6
CONTINUOUS
10
1.29705
20
0.452953
11
1.29705
21
0.747047
0
LINE
8
BLACK
6
CONTINUOUS
10
1.29705
20
0.747047
11
1.10295
21
0.747047
0
LINE
8
BLACK
6
CONTINUOUS
10
-1.26804
20
0.482733
11
-1.26735
21
0.481063
0
LINE
8
BLACK
6
CONTINUOUS
10
-1.26735
20
0.481063
11
-1.26804
21
0.479393
0
LINE
8
BLACK
6
CONTINUOUS
10
-1.26804
20
0.479393
11
-1.26971
21
0.478701
0
LINE
8
BLACK
6
CONTINUOUS
10
-1.26971
20
0.478701
11
-1.29029
21
0.478701
0
LINE
8
BLACK
6
CONTINUOUS
10
-1.29029
20
0.478701
11
-1.29196
21
0.479393
0
LINE
8
BLACK
6
CONTINUOUS
10
-1.29196
20
0.479393
11
-1.29265
21
0.481063
0
LINE
8
BLACK
6
CONTINUOUS
10
-1.29265
20
0.481063
11
-1.29196
21
0.482733
0
LINE
8
BLACK
6
CONTINUOUS
10
-1.29196
20
0.482733
11
-1.29029
21
0.483425
0
LINE
8
BLACK
6
CONTINUOUS
10
-1.29029
20
0.483425
11
-1.26971
21
0.483425
0
LINE
8
BLACK
6
CONTINUOUS
10
-1.26971
20
0.483425
11
-1.26804
21
0.482733
0
LINE
8
BLACK
6
CONTINUOUS
10
-0.35899
20
0.54057
11
-0.357443
21
0.539272
0
LINE
8
BLACK
6
CONTINUOUS
10
-0.357443
20
0.539272
11
-0.357092
21
0.537283
0
LINE
8
BLACK
6
CONTINUOUS
10
-0.357092
20
0.537283
11
-0.358102
21
0.535533
0
LINE
8
BLACK
6
CONTINUOUS
10
-0.358102
20
0.535533
11
-0.36
21
0.534843
0
LINE
8
BLACK
6
CONTINUOUS
10
-0.36
20
0.534843
11
-0.44
21
0.534843
0
LINE
8
BLACK
6
CONTINUOUS
10
-0.44
20
0.534843
11
-0.44101
21
0.535021
0
LINE
8
BLACK
6
CONTINUOUS
10
-0.44101
20
0.535021
11
-0.442557
21
0.536319
0
LINE
8
BLACK
6
CONTINUOUS
10
-0.442557
20
0.536319
11
-0.442908
21
0.538308
0
LINE
8
BLACK
6
CONTINUOUS
10
-0.442908
20
0.538308
11
-0.441898
21
0.540057
0
LINE
8
BLACK
6
CONTINUOUS
10
-0.441898
20
0.540057
11
-0.44
21
0.540748
0
LINE
8
BLACK
6
CONTINUOUS
10
-0.44
20
0.540748
11
-0.36
21
0.540748
0
LINE
8
BLACK
6
CONTINUOUS
10
-0.36
20
0.540748
11
-0.35899
21
0.54057
0
LINE
8
BLACK
6
CONTINUOUS
10
-1.26804
20
0.540607
11
-1.26735
21
0.538937
0
LINE
8
BLACK
6
CONTINUOUS
10
-1.26735
20
0.538937
11
-1.26804
21
0.537267
0
LINE
8
BLACK
6
CONTINUOUS
10
-1.26804
20
0.537267
11
-1.26971
21
0.536575
0
LINE
8
BLACK
6
CONTINUOUS
10
-1.26971
20
0.536575
11
-1.29029
21
0.536575
0
LINE
8
BLACK
6
CONTINUOUS
10
-1.29029
20
0.536575
11
-1.29196
21
0.537267
0
LINE
8
BLACK
6
CONTINUOUS
10
-1.29196
20
0.537267
11
-1.29265
21
0.538937
0
LINE
8
BLACK
6
CONTINUOUS
10
-1.29265
20
0.538937
11
-1.29196
21
0.540607
0
LINE
8
BLACK
6
CONTINUOUS
10
-1.29196
20
0.540607
11
-1.29029
21
0.541299
0
LINE
8
BLACK
6
CONTINUOUS
10
-1.29029
20
0.541299
11
-1.26971
21
0.541299
0
LINE
8
BLACK
6
CONTINUOUS
10
-1.26971
20
0.541299
11
-1.26804
21
0.540607
0
LINE
8
BLACK
6
CONTINUOUS
10
-1.26804
20
0.601237
11
-1.2678
21
0.600654
0
LINE
8
BLACK
6
CONTINUOUS
10
-1.2678
20
0.600654
11
-1.24907
21
0.600654
0
LINE
8
BLACK
6
CONTINUOUS
10
-1.24907
20
0.600654
11
-1.24863
21
0.600577
0
LINE
8
BLACK
6
CONTINUOUS
10
-1.24863
20
0.600577
11
-1.24849
21
0.600598
0
LINE
8
BLACK
6
CONTINUOUS
10
-1.24849
20
0.600598
11
-1.24839
21
0.600535
0
LINE
8
BLACK
6
CONTINUOUS
10
-1.24839
20
0.600535
11
-1.24806
21
0.600476
0
LINE
8
BLACK
6
CONTINUOUS
10
-1.24806
20
0.600476
11
-1.24745
21
0.599964
0
LINE
8
BLACK
6
CONTINUOUS
10
-1.24745
20
0.599964
11
-1.24677
21
0.599552
0
LINE
8
BLACK
6
CONTINUOUS
10
-1.24677
20
0.599552
11
-1.24669
21
0.599329
0
LINE
8
BLACK
6
CONTINUOUS
10
-1.24669
20
0.599329
11
-1.24651
21
0.599178
0
LINE
8
BLACK
6
CONTINUOUS
10
-1.24651
20
0.599178
11
-1.24637
21
0.598394
0
LINE
8
BLACK
6
CONTINUOUS
10
-1.24637
20
0.598394
11
-1.24611
21
0.59764
0
LINE
8
BLACK
6
CONTINUOUS
10
-1.24611
20
0.59764
11
-1.2462
21
0.597421
0
LINE
8
BLACK
6
CONTINUOUS
10
-1.2462
20
0.597421
11
-1.24616
21
0.597189
0
LINE
8
BLACK
6
CONTINUOUS
10
-1.24616
20
0.597189
11
-1.24656
21
0.596499
0
LINE
8
BLACK
6
CONTINUOUS
10
-1.24656
20
0.596499
11
-1.24684
21
0.595757
0
LINE
8
BLACK
6
CONTINUOUS
10
-1.24684
20
0.595757
11
-1.2558
21
0.585521
0
LINE
8
BLACK
6
CONTINUOUS
10
-1.2558
20
0.585521
11
-1.25556
21
0.585478
0
LINE
8
BLACK
6
CONTINUOUS
10
-1.25556
20
0.585478
11
-1.25542
21
0.585365
0
LINE
8
BLACK
6
CONTINUOUS
10
-1.25542
20
0.585365
11
-1.25524
21
0.585344
0
LINE
8
BLACK
6
CONTINUOUS
10
-1.25524
20
0.585344
11
-1.2515
21
0.58347
0
LINE
8
BLACK
6
CONTINUOUS
10
-1.2515
20
0.58347
11
-1.25079
21
0.582944
0
LINE
8
BLACK
6
CONTINUOUS
10
-1.25079
20
0.582944
11
-1.25073
21
0.582917
0
LINE
8
BLACK
6
CONTINUOUS
10
-1.25073
20
0.582917
11
-1.24885
21
0.581042
0
LINE
8
BLACK
6
CONTINUOUS
10
-1.24885
20
0.581042
11
-1.24835
21
0.580319
0
LINE
8
BLACK
6
CONTINUOUS
10
-1.24835
20
0.580319
11
-1.2483
21
0.580274
0
LINE
8
BLACK
6
CONTINUOUS
10
-1.2483
20
0.580274
11
-1.24643
21
0.576525
0
LINE
8
BLACK
6
CONTINUOUS
10
-1.24643
20
0.576525
11
-1.24613
21
0.575542
0
LINE
8
BLACK
6
CONTINUOUS
10
-1.24613
20
0.575542
11
-1.24617
21
0.57537
0
LINE
8
BLACK
6
CONTINUOUS
10
-1.24617
20
0.57537
11
-1.24611
21
0.575204
0
LINE
8
BLACK
6
CONTINUOUS
10
-1.24611
20
0.575204
11
-1.24611
21
0.565831
0
LINE
8
BLACK
6
CONTINUOUS
10
-1.24611
20
0.565831
11
-1.24629
21
0.564821
0
LINE
8
BLACK
6
CONTINUOUS
10
-1.24629
20
0.564821
11
-1.24641
21
0.564685
0
LINE
8
BLACK
6
CONTINUOUS
10
-1.24641
20
0.564685
11
-1.24643
21
0.56451
0
LINE
8
BLACK
6
CONTINUOUS
10
-1.24643
20
0.56451
11
-1.2483
21
0.560761
0
LINE
8
BLACK
6
CONTINUOUS
10
-1.2483
20
0.560761
11
-1.24883
21
0.560051
0
LINE
8
BLACK
6
CONTINUOUS
10
-1.24883
20
0.560051
11
-1.24885
21
0.559993
0
LINE
8
BLACK
6
CONTINUOUS
10
-1.24885
20
0.559993
11
-1.25073
21
0.558118
0
LINE
8
BLACK
6
CONTINUOUS
10
-1.25073
20
0.558118
11
-1.25145
21
0.557612
0
LINE
8
BLACK
6
CONTINUOUS
10
-1.25145
20
0.557612
11
-1.2515
21
0.557565
0
LINE
8
BLACK
6
CONTINUOUS
10
-1.2515
20
0.557565
11
-1.25524
21
0.55569
0
LINE
8
BLACK
6
CONTINUOUS
10
-1.25524
20
0.55569
11
-1.25623
21
0.555398
0
LINE
8
BLACK
6
CONTINUOUS
10
-1.25623
20
0.555398
11
-1.2564
21
0.555439
0
LINE
8
BLACK
6
CONTINUOUS
10
-1.2564
20
0.555439
11
-1.25657
21
0.555379
0
LINE
8
BLACK
6
CONTINUOUS
10
-1.25657
20
0.555379
11
-1.26781
21
0.555379
0
LINE
8
BLACK
6
CONTINUOUS
10
-1.26781
20
0.555379
11
-1.26882
21
0.555557
0
LINE
8
BLACK
6
CONTINUOUS
10
-1.26882
20
0.555557
11
-1.26896
21
0.55567
0
LINE
8
BLACK
6
CONTINUOUS
10
-1.26896
20
0.55567
11
-1.26913
21
0.55569
0
LINE
8
BLACK
6
CONTINUOUS
10
-1.26913
20
0.55569
11
-1.27288
21
0.557565
0
LINE
8
BLACK
6
CONTINUOUS
10
-1.27288
20
0.557565
11
-1.27359
21
0.558091
0
LINE
8
BLACK
6
CONTINUOUS
10
-1.27359
20
0.558091
11
-1.27365
21
0.558118
0
LINE
8
BLACK
6
CONTINUOUS
10
-1.27365
20
0.558118
11
-1.27553
21
0.559993
0
LINE
8
BLACK
6
CONTINUOUS
10
-1.27553
20
0.559993
11
-1.27611
21
0.560833
0
LINE
8
BLACK
6
CONTINUOUS
10
-1.27611
20
0.560833
11
-1.27629
21
0.562845
0
LINE
8
BLACK
6
CONTINUOUS
10
-1.27629
20
0.562845
11
-1.27513
21
0.5645
0
LINE
8
BLACK
6
CONTINUOUS
10
-1.27513
20
0.5645
11
-1.27318
21
0.565023
0
LINE
8
BLACK
6
CONTINUOUS
10
-1.27318
20
0.565023
11
-1.27135
21
0.564169
0
LINE
8
BLACK
6
CONTINUOUS
10
-1.27135
20
0.564169
11
-1.26981
21
0.562633
0
LINE
8
BLACK
6
CONTINUOUS
10
-1.26981
20
0.562633
11
-1.26712
21
0.561284
0
LINE
8
BLACK
6
CONTINUOUS
10
-1.26712
20
0.561284
11
-1.25726
21
0.561284
0
LINE
8
BLACK
6
CONTINUOUS
10
-1.25726
20
0.561284
11
-1.25456
21
0.562633
0
LINE
8
BLACK
6
CONTINUOUS
10
-1.25456
20
0.562633
11
-1.25337
21
0.56383
0
LINE
8
BLACK
6
CONTINUOUS
10
-1.25337
20
0.56383
11
-1.25202
21
0.566528
0
LINE
8
BLACK
6
CONTINUOUS
10
-1.25202
20
0.566528
11
-1.25202
21
0.574507
0
LINE
8
BLACK
6
CONTINUOUS
10
-1.25202
20
0.574507
11
-1.25337
21
0.577205
0
LINE
8
BLACK
6
CONTINUOUS
10
-1.25337
20
0.577205
11
-1.25456
21
0.578402
0
LINE
8
BLACK
6
CONTINUOUS
10
-1.25456
20
0.578402
11
-1.25726
21
0.579751
0
LINE
8
BLACK
6
CONTINUOUS
10
-1.25726
20
0.579751
11
-1.26219
21
0.579751
0
LINE
8
BLACK
6
CONTINUOUS
10
-1.26219
20
0.579751
11
-1.26263
21
0.579828
0
LINE
8
BLACK
6
CONTINUOUS
10
-1.26263
20
0.579828
11
-1.26276
21
0.579807
0
LINE
8
BLACK
6
CONTINUOUS
10
-1.26276
20
0.579807
11
-1.26287
21
0.57987
0
LINE
8
BLACK
6
CONTINUOUS
10
-1.26287
20
0.57987
11
-1.2632
21
0.579929
0
LINE
8
BLACK
6
CONTINUOUS
10
-1.2632
20
0.579929
11
-1.26381
21
0.58044
0
LINE
8
BLACK
6
CONTINUOUS
10
-1.26381
20
0.58044
11
-1.26449
21
0.580853
0
LINE
8
BLACK
6
CONTINUOUS
10
-1.26449
20
0.580853
11
-1.26457
21
0.581076
0
LINE
8
BLACK
6
CONTINUOUS
10
-1.26457
20
0.581076
11
-1.26475
21
0.581227
0
LINE
8
BLACK
6
CONTINUOUS
10
-1.26475
20
0.581227
11
-1.26489
21
0.582011
0
LINE
8
BLACK
6
CONTINUOUS
10
-1.26489
20
0.582011
11
-1.26514
21
0.582765
0
LINE
8
BLACK
6
CONTINUOUS
10
-1.26514
20
0.582765
11
-1.26506
21
0.582984
0
LINE
8
BLACK
6
CONTINUOUS
10
-1.26506
20
0.582984
11
-1.2651
21
0.583216
0
LINE
8
BLACK
6
CONTINUOUS
10
-1.2651
20
0.583216
11
-1.2647
21
0.583906
0
LINE
8
BLACK
6
CONTINUOUS
10
-1.2647
20
0.583906
11
-1.26441
21
0.584648
0
LINE
8
BLACK
6
CONTINUOUS
10
-1.26441
20
0.584648
11
-1.25557
21
0.594749
0
LINE
8
BLACK
6
CONTINUOUS
10
-1.25557
20
0.594749
11
-1.27344
21
0.594749
0
LINE
8
BLACK
6
CONTINUOUS
10
-1.27344
20
0.594749
11
-1.27445
21
0.594927
0
LINE
8
BLACK
6
CONTINUOUS
10
-1.27445
20
0.594927
11
-1.276
21
0.596225
0
LINE
8
BLACK
6
CONTINUOUS
10
-1.276
20
0.596225
11
-1.27617
21
0.597205
0
LINE
8
BLACK
6
CONTINUOUS
10
-1.27617
20
0.597205
11
-1.28564
21
0.597205
0
LINE
8
BLACK
6
CONTINUOUS
10
-1.28564
20
0.597205
11
-1.28447
21
0.59604
0
LINE
8
BLACK
6
CONTINUOUS
10
-1.28447
20
0.59604
11
-1.28389
21
0.5952
0
LINE
8
BLACK
6
CONTINUOUS
10
-1.28389
20
0.5952
11
-1.28371
21
0.593188
0
LINE
8
BLACK
6
CONTINUOUS
10
-1.28371
20
0.593188
11
-1.28487
21
0.591533
0
LINE
8
BLACK
6
CONTINUOUS
10
-1.28487
20
0.591533
11
-1.28682
21
0.591011
0
LINE
8
BLACK
6
CONTINUOUS
10
-1.28682
20
0.591011
11
-1.28865
21
0.591864
0
LINE
8
BLACK
6
CONTINUOUS
10
-1.28865
20
0.591864
11
-1.29003
21
0.593246
0
LINE
8
BLACK
6
CONTINUOUS
10
-1.29003
20
0.593246
11
-1.29454
21
0.594749
0
LINE
8
BLACK
6
CONTINUOUS
10
-1.29454
20
0.594749
11
-1.29733
21
0.594749
0
LINE
8
BLACK
6
CONTINUOUS
10
-1.29733
20
0.594749
11
-1.30184
21
0.593246
0
LINE
8
BLACK
6
CONTINUOUS
10
-1.30184
20
0.593246
11
-1.30476
21
0.590328
0
LINE
8
BLACK
6
CONTINUOUS
10
-1.30476
20
0.590328
11
-1.30627
21
0.587297
0
LINE
8
BLACK
6
CONTINUOUS
10
-1.30627
20
0.587297
11
-1.30798
21
0.580465
0
LINE
8
BLACK
6
CONTINUOUS
10
-1.30798
20
0.580465
11
-1.30798
21
0.575568
0
LINE
8
BLACK
6
CONTINUOUS
10
-1.30798
20
0.575568
11
-1.30627
21
0.568736
0
LINE
8
BLACK
6
CONTINUOUS
10
-1.30627
20
0.568736
11
-1.30476
21
0.565705
0
LINE
8
BLACK
6
CONTINUOUS
10
-1.30476
20
0.565705
11
-1.30184
21
0.562787
0
LINE
8
BLACK
6
CONTINUOUS
10
-1.30184
20
0.562787
11
-1.29733
21
0.561284
0
LINE
8
BLACK
6
CONTINUOUS
10
-1.29733
20
0.561284
11
-1.29454
21
0.561284
0
LINE
8
BLACK
6
CONTINUOUS
10
-1.29454
20
0.561284
11
-1.29003
21
0.562787
0
LINE
8
BLACK
6
CONTINUOUS
10
-1.29003
20
0.562787
11
-1.28865
21
0.564169
0
LINE
8
BLACK
6
CONTINUOUS
10
-1.28865
20
0.564169
11
-1.28781
21
0.564757
0
LINE
8
BLACK
6
CONTINUOUS
10
-1.28781
20
0.564757
11
-1.2858
21
0.564933
0
LINE
8
BLACK
6
CONTINUOUS
10
-1.2858
20
0.564933
11
-1.28414
21
0.563775
0
LINE
8
BLACK
6
CONTINUOUS
10
-1.28414
20
0.563775
11
-1.28362
21
0.561824
0
LINE
8
BLACK
6
CONTINUOUS
10
-1.28362
20
0.561824
11
-1.28447
21
0.559993
0
LINE
8
BLACK
6
CONTINUOUS
10
-1.28447
20
0.559993
11
-1.28635
21
0.558118
0
LINE
8
BLACK
6
CONTINUOUS
10
-1.28635
20
0.558118
11
-1.28719
21
0.55753
0
LINE
8
BLACK
6
CONTINUOUS
10
-1.28719
20
0.55753
11
-1.28736
21
0.557515
0
LINE
8
BLACK
6
CONTINUOUS
10
-1.28736
20
0.557515
11
-1.2875
21
0.557405
0
LINE
8
BLACK
6
CONTINUOUS
10
-1.2875
20
0.557405
11
-1.29313
21
0.55553
0
LINE
8
BLACK
6
CONTINUOUS
10
-1.29313
20
0.55553
11
-1.294
21
0.555401
0
LINE
8
BLACK
6
CONTINUOUS
10
-1.294
20
0.555401
11
-1.29406
21
0.555379
0
LINE
8
BLACK
6
CONTINUOUS
10
-1.29406
20
0.555379
11
-1.29781
21
0.555379
0
LINE
8
BLACK
6
CONTINUOUS
10
-1.29781
20
0.555379
11
-1.29868
21
0.555532
0
LINE
8
BLACK
6
CONTINUOUS
10
-1.29868
20
0.555532
11
-1.29874
21
0.55553
0
LINE
8
BLACK
6
CONTINUOUS
10
-1.29874
20
0.55553
11
-1.30437
21
0.557405
0
LINE
8
BLACK
6
CONTINUOUS
10
-1.30437
20
0.557405
11
-1.30527
21
0.557893
0
LINE
8
BLACK
6
CONTINUOUS
10
-1.30527
20
0.557893
11
-1.30536
21
0.558044
0
LINE
8
BLACK
6
CONTINUOUS
10
-1.30536
20
0.558044
11
-1.30552
21
0.558118
0
LINE
8
BLACK
6
CONTINUOUS
10
-1.30552
20
0.558118
11
-1.30927
21
0.561868
0
LINE
8
BLACK
6
CONTINUOUS
10
-1.30927
20
0.561868
11
-1.30978
21
0.562591
0
LINE
8
BLACK
6
CONTINUOUS
10
-1.30978
20
0.562591
11
-1.30983
21
0.562635
0
LINE
8
BLACK
6
CONTINUOUS
10
-1.30983
20
0.562635
11
-1.3117
21
0.566385
0
LINE
8
BLACK
6
CONTINUOUS
10
-1.3117
20
0.566385
11
-1.31185
21
0.566873
0
LINE
8
BLACK
6
CONTINUOUS
10
-1.31185
20
0.566873
11
-1.31192
21
0.566989
0
LINE
8
BLACK
6
CONTINUOUS
10
-1.31192
20
0.566989
11
-1.3138
21
0.574488
0
LINE
8
BLACK
6
CONTINUOUS
10
-1.3138
20
0.574488
11
-1.31384
21
0.575076
0
LINE
8
BLACK
6
CONTINUOUS
10
-1.31384
20
0.575076
11
-1.31389
21
0.575204
0
LINE
8
BLACK
6
CONTINUOUS
10
-1.31389
20
0.575204
11
-1.31389
21
0.580829
0
LINE
8
BLACK
6
CONTINUOUS
10
-1.31389
20
0.580829
11
-1.31378
21
0.581409
0
LINE
8
BLACK
6
CONTINUOUS
10
-1.31378
20
0.581409
11
-1.3138
21
0.581545
0
LINE
8
BLACK
6
CONTINUOUS
10
-1.3138
20
0.581545
11
-1.31192
21
0.589044
0
LINE
8
BLACK
6
CONTINUOUS
10
-1.31192
20
0.589044
11
-1.31172
21
0.589509
0
LINE
8
BLACK
6
CONTINUOUS
10
-1.31172
20
0.589509
11
-1.3117
21
0.589648
0
LINE
8
BLACK
6
CONTINUOUS
10
-1.3117
20
0.589648
11
-1.30983
21
0.593398
0
LINE
8
BLACK
6
CONTINUOUS
10
-1.30983
20
0.593398
11
-1.3093
21
0.594107
0
LINE
8
BLACK
6
CONTINUOUS
10
-1.3093
20
0.594107
11
-1.30927
21
0.594165
0
LINE
8
BLACK
6
CONTINUOUS
10
-1.30927
20
0.594165
11
-1.30552
21
0.597915
0
LINE
8
BLACK
6
CONTINUOUS
10
-1.30552
20
0.597915
11
-1.30468
21
0.598503
0
LINE
8
BLACK
6
CONTINUOUS
10
-1.30468
20
0.598503
11
-1.30451
21
0.598518
0
LINE
8
BLACK
6
CONTINUOUS
10
-1.30451
20
0.598518
11
-1.30437
21
0.598628
0
LINE
8
BLACK
6
CONTINUOUS
10
-1.30437
20
0.598628
11
-1.29874
21
0.600503
0
LINE
8
BLACK
6
CONTINUOUS
10
-1.29874
20
0.600503
11
-1.29787
21
0.600632
0
LINE
8
BLACK
6
CONTINUOUS
10
-1.29787
20
0.600632
11
-1.29781
21
0.600654
0
LINE
8
BLACK
6
CONTINUOUS
10
-1.29781
20
0.600654
11
-1.29406
21
0.600654
0
LINE
8
BLACK
6
CONTINUOUS
10
-1.29406
20
0.600654
11
-1.29319
21
0.600501
0
LINE
8
BLACK
6
CONTINUOUS
10
-1.29319
20
0.600501
11
-1.29313
21
0.600503
0
LINE
8
BLACK
6
CONTINUOUS
10
-1.29313
20
0.600503
11
-1.29237
21
0.600249
0
LINE
8
BLACK
6
CONTINUOUS
10
-1.29237
20
0.600249
11
-1.29196
21
0.601237
0
LINE
8
BLACK
6
CONTINUOUS
10
-1.29196
20
0.601237
11
-1.29029
21
0.601929
0
LINE
8
BLACK
6
CONTINUOUS
10
-1.29029
20
0.601929
11
-1.26971
21
0.601929
0
LINE
8
BLACK
6
CONTINUOUS
10
-1.26971
20
0.601929
11
-1.26804
21
0.601237
0
LINE
8
BLACK
6
CONTINUOUS
10
-0.417423
20
0.635025
11
-0.416732
21
0.633127
0
LINE
8
BLACK
6
CONTINUOUS
10
-0.416732
20
0.633127
11
-0.416732
21
0.590945
0
LINE
8
BLACK
6
CONTINUOUS
10
-0.416732
20
0.590945
11
-0.416886
21
0.590075
0
LINE
8
BLACK
6
CONTINUOUS
10
-0.416886
20
0.590075
11
-0.416884
21
0.590011
0
LINE
8
BLACK
6
CONTINUOUS
10
-0.416884
20
0.590011
11
-0.419696
21
0.581575
0
LINE
8
BLACK
6
CONTINUOUS
10
-0.419696
20
0.581575
11
-0.420184
21
0.580673
0
LINE
8
BLACK
6
CONTINUOUS
10
-0.420184
20
0.580673
11
-0.420335
21
0.580581
0
LINE
8
BLACK
6
CONTINUOUS
10
-0.420335
20
0.580581
11
-0.420409
21
0.580421
0
LINE
8
BLACK
6
CONTINUOUS
10
-0.420409
20
0.580421
11
-0.426034
21
0.574796
0
LINE
8
BLACK
6
CONTINUOUS
10
-0.426034
20
0.574796
11
-0.426874
21
0.574208
0
LINE
8
BLACK
6
CONTINUOUS
10
-0.426874
20
0.574208
11
-0.427049
21
0.574193
0
LINE
8
BLACK
6
CONTINUOUS
10
-0.427049
20
0.574193
11
-0.427188
21
0.574083
0
LINE
8
BLACK
6
CONTINUOUS
10
-0.427188
20
0.574083
11
-0.435624
21
0.571271
0
LINE
8
BLACK
6
CONTINUOUS
10
-0.435624
20
0.571271
11
-0.436497
21
0.571141
0
LINE
8
BLACK
6
CONTINUOUS
10
-0.436497
20
0.571141
11
-0.436558
21
0.571119
0
LINE
8
BLACK
6
CONTINUOUS
10
-0.436558
20
0.571119
11
-0.442182
21
0.571119
0
LINE
8
BLACK
6
CONTINUOUS
10
-0.442182
20
0.571119
11
-0.443192
21
0.571297
0
LINE
8
BLACK
6
CONTINUOUS
10
-0.443192
20
0.571297
11
-0.444739
21
0.572596
0
LINE
8
BLACK
6
CONTINUOUS
10
-0.444739
20
0.572596
11
-0.44509
21
0.574585
0
LINE
8
BLACK
6
CONTINUOUS
10
-0.44509
20
0.574585
11
-0.44408
21
0.576334
0
LINE
8
BLACK
6
CONTINUOUS
10
-0.44408
20
0.576334
11
-0.442182
21
0.577025
0
LINE
8
BLACK
6
CONTINUOUS
10
-0.442182
20
0.577025
11
-0.437037
21
0.577025
0
LINE
8
BLACK
6
CONTINUOUS
10
-0.437037
20
0.577025
11
-0.429717
21
0.579465
0
LINE
8
BLACK
6
CONTINUOUS
10
-0.429717
20
0.579465
11
-0.425078
21
0.584104
0
LINE
8
BLACK
6
CONTINUOUS
10
-0.425078
20
0.584104
11
-0.422638
21
0.591424
0
LINE
8
BLACK
6
CONTINUOUS
10
-0.422638
20
0.591424
11
-0.422638
21
0.633127
0
LINE
8
BLACK
6
CONTINUOUS
10
-0.422638
20
0.633127
11
-0.42246
21
0.634137
0
LINE
8
BLACK
6
CONTINUOUS
10
-0.42246
20
0.634137
11
-0.421161
21
0.635684
0
LINE
8
BLACK
6
CONTINUOUS
10
-0.421161
20
0.635684
11
-0.419172
21
0.636035
0
LINE
8
BLACK
6
CONTINUOUS
10
-0.419172
20
0.636035
11
-0.417423
21
0.635025
0
LINE
8
BLACK
6
CONTINUOUS
10
-0.378909
20
0.638536
11
-0.377569
21
0.637025
0
LINE
8
BLACK
6
CONTINUOUS
10
-0.377569
20
0.637025
11
-0.377514
21
0.635006
0
LINE
8
BLACK
6
CONTINUOUS
10
-0.377514
20
0.635006
11
-0.390279
21
0.59671
0
LINE
8
BLACK
6
CONTINUOUS
10
-0.390279
20
0.59671
11
-0.369207
21
0.59671
0
LINE
8
BLACK
6
CONTINUOUS
10
-0.369207
20
0.59671
11
-0.369207
21
0.613442
0
LINE
8
BLACK
6
CONTINUOUS
10
-0.369207
20
0.613442
11
-0.369029
21
0.614452
0
LINE
8
BLACK
6
CONTINUOUS
10
-0.369029
20
0.614452
11
-0.367731
21
0.615999
0
LINE
8
BLACK
6
CONTINUOUS
10
-0.367731
20
0.615999
11
-0.365741
21
0.61635
0
LINE
8
BLACK
6
CONTINUOUS
10
-0.365741
20
0.61635
11
-0.363992
21
0.61534
0
LINE
8
BLACK
6
CONTINUOUS
10
-0.363992
20
0.61534
11
-0.363301
21
0.613442
0
LINE
8
BLACK
6
CONTINUOUS
10
-0.363301
20
0.613442
11
-0.363301
21
0.59671
0
LINE
8
BLACK
6
CONTINUOUS
10
-0.363301
20
0.59671
11
-0.357818
21
0.59671
0
LINE
8
BLACK
6
CONTINUOUS
10
-0.357818
20
0.59671
11
-0.356808
21
0.596532
0
LINE
8
BLACK
6
CONTINUOUS
10
-0.356808
20
0.596532
11
-0.355261
21
0.595233
0
LINE
8
BLACK
6
CONTINUOUS
10
-0.355261
20
0.595233
11
-0.35491
21
0.593244
0
LINE
8
BLACK
6
CONTINUOUS
10
-0.35491
20
0.593244
11
-0.35592
21
0.591495
0
LINE
8
BLACK
6
CONTINUOUS
10
-0.35592
20
0.591495
11
-0.357818
21
0.590804
0
LINE
8
BLACK
6
CONTINUOUS
10
-0.357818
20
0.590804
11
-0.363301
21
0.590804
0
LINE
8
BLACK
6
CONTINUOUS
10
-0.363301
20
0.590804
11
-0.363301
21
0.574072
0
LINE
8
BLACK
6
CONTINUOUS
10
-0.363301
20
0.574072
11
-0.36348
21
0.573062
0
LINE
8
BLACK
6
CONTINUOUS
10
-0.36348
20
0.573062
11
-0.364778
21
0.571515
0
LINE
8
BLACK
6
CONTINUOUS
10
-0.364778
20
0.571515
11
-0.366767
21
0.571164
0
LINE
8
BLACK
6
CONTINUOUS
10
-0.366767
20
0.571164
11
-0.368516
21
0.572174
0
LINE
8
BLACK
6
CONTINUOUS
10
-0.368516
20
0.572174
11
-0.369207
21
0.574072
0
LINE
8
BLACK
6
CONTINUOUS
10
-0.369207
20
0.574072
11
-0.369207
21
0.590804
0
LINE
8
BLACK
6
CONTINUOUS
10
-0.369207
20
0.590804
11
-0.394376
21
0.590804
0
LINE
8
BLACK
6
CONTINUOUS
10
-0.394376
20
0.590804
11
-0.395386
21
0.590982
0
LINE
8
BLACK
6
CONTINUOUS
10
-0.395386
20
0.590982
11
-0.395559
21
0.591127
0
LINE
8
BLACK
6
CONTINUOUS
10
-0.395559
20
0.591127
11
-0.395782
21
0.591161
0
LINE
8
BLACK
6
CONTINUOUS
10
-0.395782
20
0.591161
11
-0.396316
21
0.591763
0
LINE
8
BLACK
6
CONTINUOUS
10
-0.396316
20
0.591763
11
-0.396933
21
0.592281
0
LINE
8
BLACK
6
CONTINUOUS
10
-0.396933
20
0.592281
11
-0.396972
21
0.592503
0
LINE
8
BLACK
6
CONTINUOUS
10
-0.396972
20
0.592503
11
-0.397122
21
0.592672
0
LINE
8
BLACK
6
CONTINUOUS
10
-0.397122
20
0.592672
11
-0.397144
21
0.593477
0
LINE
8
BLACK
6
CONTINUOUS
10
-0.397144
20
0.593477
11
-0.397284
21
0.59427
0
LINE
8
BLACK
6
CONTINUOUS
10
-0.397284
20
0.59427
11
-0.397171
21
0.594465
0
LINE
8
BLACK
6
CONTINUOUS
10
-0.397171
20
0.594465
11
-0.397177
21
0.594691
0
LINE
8
BLACK
6
CONTINUOUS
10
-0.397177
20
0.594691
11
-0.383116
21
0.636873
0
LINE
8
BLACK
6
CONTINUOUS
10
-0.383116
20
0.636873
11
-0.382628
21
0.637775
0
LINE
8
BLACK
6
CONTINUOUS
10
-0.382628
20
0.637775
11
-0.380907
21
0.638832
0
LINE
8
BLACK
6
CONTINUOUS
10
-0.380907
20
0.638832
11
-0.378909
21
0.638536
0
LINE
8
BLACK
6
CONTINUOUS
10
-1.09498
20
0.602418
11
-1.09429
21
0.600748
0
LINE
8
BLACK
6
CONTINUOUS
10
-1.09429
20
0.600748
11
-1.09498
21
0.599078
0
LINE
8
BLACK
6
CONTINUOUS
10
-1.09498
20
0.599078
11
-1.09665
21
0.598386
0
LINE
8
BLACK
6
CONTINUOUS
10
-1.09665
20
0.598386
11
-1.11453
21
0.598386
0
LINE
8
BLACK
6
CONTINUOUS
10
-1.11453
20
0.598386
11
-1.1162
21
0.599078
0
LINE
8
BLACK
6
CONTINUOUS
10
-1.1162
20
0.599078
11
-1.11689
21
0.600748
0
LINE
8
BLACK
6
CONTINUOUS
10
-1.11689
20
0.600748
11
-1.1162
21
0.602418
0
LINE
8
BLACK
6
CONTINUOUS
10
-1.1162
20
0.602418
11
-1.11453
21
0.60311
0
LINE
8
BLACK
6
CONTINUOUS
10
-1.11453
20
0.60311
11
-1.09665
21
0.60311
0
LINE
8
BLACK
6
CONTINUOUS
10
-1.09665
20
0.60311
11
-1.09498
21
0.602418
0
LINE
8
BLACK
6
CONTINUOUS
10
-1.59064
20
1.01367
11
-1.59051
21
1.0137
0
LINE
8
BLACK
6
CONTINUOUS
10
-1.59051
20
1.0137
11
-1.5904
21
1.01363
0
LINE
8
BLACK
6
CONTINUOUS
10
-1.5904
20
1.01363
11
-1.59001
21
1.01356
0
LINE
8
BLACK
6
CONTINUOUS
10
-1.59001
20
1.01356
11
-1.58943
21
1.01307
0
LINE
8
BLACK
6
CONTINUOUS
10
-1.58943
20
1.01307
11
-1.58876
21
1.01269
0
LINE
8
BLACK
6
CONTINUOUS
10
-1.58876
20
1.01269
11
-1.58867
21
1.01244
0
LINE
8
BLACK
6
CONTINUOUS
10
-1.58867
20
1.01244
11
-1.58847
21
1.01226
0
LINE
8
BLACK
6
CONTINUOUS
10
-1.58847
20
1.01226
11
-1.58833
21
1.01151
0
LINE
8
BLACK
6
CONTINUOUS
10
-1.58833
20
1.01151
11
-1.58807
21
1.01079
0
LINE
8
BLACK
6
CONTINUOUS
10
-1.58807
20
1.01079
11
-1.58807
21
0.610787
0
LINE
8
BLACK
6
CONTINUOUS
10
-1.58807
20
0.610787
11
-1.58814
21
0.610404
0
LINE
8
BLACK
6
CONTINUOUS
10
-1.58814
20
0.610404
11
-1.58812
21
0.610275
0
LINE
8
BLACK
6
CONTINUOUS
10
-1.58812
20
0.610275
11
-1.58818
21
0.610161
0
LINE
8
BLACK
6
CONTINUOUS
10
-1.58818
20
0.610161
11
-1.58825
21
0.609777
0
LINE
8
BLACK
6
CONTINUOUS
10
-1.58825
20
0.609777
11
-1.58874
21
0.60919
0
LINE
8
BLACK
6
CONTINUOUS
10
-1.58874
20
0.60919
11
-1.58913
21
0.608525
0
LINE
8
BLACK
6
CONTINUOUS
10
-1.58913
20
0.608525
11
-1.58938
21
0.608434
0
LINE
8
BLACK
6
CONTINUOUS
10
-1.58938
20
0.608434
11
-1.58955
21
0.60823
0
LINE
8
BLACK
6
CONTINUOUS
10
-1.58955
20
0.60823
11
-1.5903
21
0.608097
0
LINE
8
BLACK
6
CONTINUOUS
10
-1.5903
20
0.608097
11
-1.59102
21
0.607835
0
LINE
8
BLACK
6
CONTINUOUS
10
-1.59102
20
0.607835
11
-1.79102
21
0.607835
0
LINE
8
BLACK
6
CONTINUOUS
10
-1.79102
20
0.607835
11
-1.79141
21
0.607902
0
LINE
8
BLACK
6
CONTINUOUS
10
-1.79141
20
0.607902
11
-1.79154
21
0.607879
0
LINE
8
BLACK
6
CONTINUOUS
10
-1.79154
20
0.607879
11
-1.79165
21
0.607945
0
LINE
8
BLACK
6
CONTINUOUS
10
-1.79165
20
0.607945
11
-1.79203
21
0.608013
0
LINE
8
BLACK
6
CONTINUOUS
10
-1.79203
20
0.608013
11
-1.79262
21
0.608506
0
LINE
8
BLACK
6
CONTINUOUS
10
-1.79262
20
0.608506
11
-1.79329
21
0.608889
0
LINE
8
BLACK
6
CONTINUOUS
10
-1.79329
20
0.608889
11
-1.79338
21
0.60914
0
LINE
8
BLACK
6
CONTINUOUS
10
-1.79338
20
0.60914
11
-1.79358
21
0.609311
0
LINE
8
BLACK
6
CONTINUOUS
10
-1.79358
20
0.609311
11
-1.79371
21
0.610067
0
LINE
8
BLACK
6
CONTINUOUS
10
-1.79371
20
0.610067
11
-1.79398
21
0.610787
0
LINE
8
BLACK
6
CONTINUOUS
10
-1.79398
20
0.610787
11
-1.79398
21
1.01079
0
LINE
8
BLACK
6
CONTINUOUS
10
-1.79398
20
1.01079
11
-1.79391
21
1.01117
0
LINE
8
BLACK
6
CONTINUOUS
10
-1.79391
20
1.01117
11
-1.79393
21
1.0113
0
LINE
8
BLACK
6
CONTINUOUS
10
-1.79393
20
1.0113
11
-1.79387
21
1.01141
0
LINE
8
BLACK
6
CONTINUOUS
10
-1.79387
20
1.01141
11
-1.7938
21
1.0118
0
LINE
8
BLACK
6
CONTINUOUS
10
-1.7938
20
1.0118
11
-1.79331
21
1.01238
0
LINE
8
BLACK
6
CONTINUOUS
10
-1.79331
20
1.01238
11
-1.79292
21
1.01305
0
LINE
8
BLACK
6
CONTINUOUS
10
-1.79292
20
1.01305
11
-1.79267
21
1.01314
0
LINE
8
BLACK
6
CONTINUOUS
10
-1.79267
20
1.01314
11
-1.7925
21
1.01334
0
LINE
8
BLACK
6
CONTINUOUS
10
-1.7925
20
1.01334
11
-1.79174
21
1.01348
0
LINE
8
BLACK
6
CONTINUOUS
10
-1.79174
20
1.01348
11
-1.79102
21
1.01374
0
LINE
8
BLACK
6
CONTINUOUS
10
-1.79102
20
1.01374
11
-1.59102
21
1.01374
0
LINE
8
BLACK
6
CONTINUOUS
10
-1.59102
20
1.01374
11
-1.59064
21
1.01367
0
LINE
8
BLACK
6
CONTINUOUS
10
-1.78807
20
1.00783
11
-1.78807
21
0.61374
0
LINE
8
BLACK
6
CONTINUOUS
10
-1.78807
20
0.61374
11
-1.59398
21
0.61374
0
LINE
8
BLACK
6
CONTINUOUS
10
-1.59398
20
0.61374
11
-1.59398
21
1.00783
0
LINE
8
BLACK
6
CONTINUOUS
10
-1.59398
20
1.00783
11
-1.78807
21
1.00783
0
LINE
8
BLACK
6
CONTINUOUS
10
-1.61102
20
0.630787
11
-1.67102
21
0.630787
0
LINE
8
BLACK
6
CONTINUOUS
10
-1.67102
20
0.630787
11
-1.67102
21
0.690787
0
LINE
8
BLACK
6
CONTINUOUS
10
-1.67102
20
0.690787
11
-1.61102
21
0.690787
0
LINE
8
BLACK
6
CONTINUOUS
10
-1.61102
20
0.690787
11
-1.61102
21
0.630787
0
LINE
8
BLACK
6
CONTINUOUS
10
-1.71102
20
0.630787
11
-1.77102
21
0.630787
0
LINE
8
BLACK
6
CONTINUOUS
10
-1.77102
20
0.630787
11
-1.77102
21
0.690787
0
LINE
8
BLACK
6
CONTINUOUS
10
-1.77102
20
0.690787
11
-1.71102
21
0.690787
0
LINE
8
BLACK
6
CONTINUOUS
10
-1.71102
20
0.690787
11
-1.71102
21
0.630787
0
LINE
8
BLACK
6
CONTINUOUS
10
-1.71102
20
0.730787
11
-1.77102
21
0.730787
0
LINE
8
BLACK
6
CONTINUOUS
10
-1.77102
20
0.730787
11
-1.77102
21
0.790787
0
LINE
8
BLACK
6
CONTINUOUS
10
-1.77102
20
0.790787
11
-1.71102
21
0.790787
0
LINE
8
BLACK
6
CONTINUOUS
10
-1.71102
20
0.790787
11
-1.71102
21
0.730787
0
LINE
8
BLACK
6
CONTINUOUS
10
-1.61102
20
0.730787
11
-1.67102
21
0.730787
0
LINE
8
BLACK
6
CONTINUOUS
10
-1.67102
20
0.730787
11
-1.67102
21
0.790787
0
LINE
8
BLACK
6
CONTINUOUS
10
-1.67102
20
0.790787
11
-1.61102
21
0.790787
0
LINE
8
BLACK
6
CONTINUOUS
10
-1.61102
20
0.790787
11
-1.61102
21
0.730787
0
LINE
8
BLACK
6
CONTINUOUS
10
-1.61102
20
0.830787
11
-1.67102
21
0.830787
0
LINE
8
BLACK
6
CONTINUOUS
10
-1.67102
20
0.830787
11
-1.67102
21
0.890787
0
LINE
8
BLACK
6
CONTINUOUS
10
-1.67102
20
0.890787
11
-1.61102
21
0.890787
0
LINE
8
BLACK
6
CONTINUOUS
10
-1.61102
20
0.890787
11
-1.61102
21
0.830787
0
LINE
8
BLACK
6
CONTINUOUS
10
-1.71102
20
0.830787
11
-1.77102
21
0.830787
0
LINE
8
BLACK
6
CONTINUOUS
10
-1.77102
20
0.830787
11
-1.77102
21
0.890787
0
LINE
8
BLACK
6
CONTINUOUS
10
-1.77102
20
0.890787
11
-1.71102
21
0.890787
0
LINE
8
BLACK
6
CONTINUOUS
10
-1.71102
20
0.890787
11
-1.71102
21
0.830787
0
LINE
8
BLACK
6
CONTINUOUS
10
-1.61102
20
0.930787
11
-1.67102
21
0.930787
0
LINE
8
BLACK
6
CONTINUOUS
10
-1.67102
20
0.930787
11
-1.67102
21
0.990787
0
LINE
8
BLACK
6
CONTINUOUS
10
-1.67102
20
0.990787
11
-1.61102
21
0.990787
0
LINE
8
BLACK
6
CONTINUOUS
10
-1.61102
20
0.990787
11
-1.61102
21
0.930787
0
LINE
8
BLACK
6
CONTINUOUS
10
-1.71102
20
0.930787
11
-1.77102
21
0.930787
0
LINE
8
BLACK
6
CONTINUOUS
10
-1.77102
20
0.930787
11
-1.77102
21
0.990787
0
LINE
8
BLACK
6
CONTINUOUS
10
-1.77102
20
0.990787
11
-1.71102
21
0.990787
0
LINE
8
BLACK
6
CONTINUOUS
10
-1.71102
20
0.990787
11
-1.71102
21
0.930787
0
LINE
8
BLACK
6
CONTINUOUS
10
-1.26804
20
0.659111
11
-1.26735
21
0.657441
0
LINE
8
BLACK
6
CONTINUOUS
10
-1.26735
20
0.657441
11
-1.26804
21
0.655771
0
LINE
8
BLACK
6
CONTINUOUS
10
-1.26804
20
0.655771
11
-1.26971
21
0.655079
0
LINE
8
BLACK
6
CONTINUOUS
10
-1.26971
20
0.655079
11
-1.29029
21
0.655079
0
LINE
8
BLACK
6
CONTINUOUS
10
-1.29029
20
0.655079
11
-1.29196
21
0.655771
0
LINE
8
BLACK
6
CONTINUOUS
10
-1.29196
20
0.655771
11
-1.29265
21
0.657441
0
LINE
8
BLACK
6
CONTINUOUS
10
-1.29265
20
0.657441
11
-1.29196
21
0.659111
0
LINE
8
BLACK
6
CONTINUOUS
10
-1.29196
20
0.659111
11
-1.29029
21
0.659803
0
LINE
8
BLACK
6
CONTINUOUS
10
-1.29029
20
0.659803
11
-1.26971
21
0.659803
0
LINE
8
BLACK
6
CONTINUOUS
10
-1.26971
20
0.659803
11
-1.26804
21
0.659111
0
LINE
8
BLACK
6
CONTINUOUS
10
-1.09498
20
0.660292
11
-1.09429
21
0.658622
0
LINE
8
BLACK
6
CONTINUOUS
10
-1.09429
20
0.658622
11
-1.09498
21
0.656952
0
LINE
8
BLACK
6
CONTINUOUS
10
-1.09498
20
0.656952
11
-1.09665
21
0.65626
0
LINE
8
BLACK
6
CONTINUOUS
10
-1.09665
20
0.65626
11
-1.11453
21
0.65626
0
LINE
8
BLACK
6
CONTINUOUS
10
-1.11453
20
0.65626
11
-1.1162
21
0.656952
0
LINE
8
BLACK
6
CONTINUOUS
10
-1.1162
20
0.656952
11
-1.11689
21
0.658622
0
LINE
8
BLACK
6
CONTINUOUS
10
-1.11689
20
0.658622
11
-1.1162
21
0.660292
0
LINE
8
BLACK
6
CONTINUOUS
10
-1.1162
20
0.660292
11
-1.11453
21
0.660984
0
LINE
8
BLACK
6
CONTINUOUS
10
-1.11453
20
0.660984
11
-1.09665
21
0.660984
0
LINE
8
BLACK
6
CONTINUOUS
10
-1.09665
20
0.660984
11
-1.09498
21
0.660292
0
LINE
8
BLACK
6
CONTINUOUS
10
-0.35899
20
0.665979
11
-0.357443
21
0.664681
0
LINE
8
BLACK
6
CONTINUOUS
10
-0.357443
20
0.664681
11
-0.357092
21
0.662692
0
LINE
8
BLACK
6
CONTINUOUS
10
-0.357092
20
0.662692
11
-0.358102
21
0.660943
0
LINE
8
BLACK
6
CONTINUOUS
10
-0.358102
20
0.660943
11
-0.36
21
0.660252
0
LINE
8
BLACK
6
CONTINUOUS
10
-0.36
20
0.660252
11
-0.44
21
0.660252
0
LINE
8
BLACK
6
CONTINUOUS
10
-0.44
20
0.660252
11
-0.44101
21
0.66043
0
LINE
8
BLACK
6
CONTINUOUS
10
-0.44101
20
0.66043
11
-0.442557
21
0.661728
0
LINE
8
BLACK
6
CONTINUOUS
10
-0.442557
20
0.661728
11
-0.442908
21
0.663717
0
LINE
8
BLACK
6
CONTINUOUS
10
-0.442908
20
0.663717
11
-0.441898
21
0.665467
0
LINE
8
BLACK
6
CONTINUOUS
10
-0.441898
20
0.665467
11
-0.44
21
0.666157
0
LINE
8
BLACK
6
CONTINUOUS
10
-0.44
20
0.666157
11
-0.36
21
0.666157
0
LINE
8
BLACK
6
CONTINUOUS
10
-0.36
20
0.666157
11
-0.35899
21
0.665979
0
LINE
8
BLACK
6
CONTINUOUS
10
-1.08556
20
0.719084
11
-1.08539
21
0.719113
0
LINE
8
BLACK
6
CONTINUOUS
10
-1.08539
20
0.719113
11
-1.08465
21
0.718685
0
LINE
8
BLACK
6
CONTINUOUS
10
-1.08465
20
0.718685
11
-1.08387
21
0.718341
0
LINE
8
BLACK
6
CONTINUOUS
10
-1.08387
20
0.718341
11
-1.08379
21
0.718188
0
LINE
8
BLACK
6
CONTINUOUS
10
-1.08379
20
0.718188
11
-1.08364
21
0.718104
0
LINE
8
BLACK
6
CONTINUOUS
10
-1.08364
20
0.718104
11
-1.08335
21
0.717298
0
LINE
8
BLACK
6
CONTINUOUS
10
-1.08335
20
0.717298
11
-1.08297
21
0.71653
0
LINE
8
BLACK
6
CONTINUOUS
10
-1.08297
20
0.71653
11
-1.08301
21
0.716365
0
LINE
8
BLACK
6
CONTINUOUS
10
-1.08301
20
0.716365
11
-1.08295
21
0.716206
0
LINE
8
BLACK
6
CONTINUOUS
10
-1.08295
20
0.716206
11
-1.08295
21
0.679788
0
LINE
8
BLACK
6
CONTINUOUS
10
-1.08295
20
0.679788
11
-1.07466
21
0.679788
0
LINE
8
BLACK
6
CONTINUOUS
10
-1.07466
20
0.679788
11
-1.07365
21
0.67961
0
LINE
8
BLACK
6
CONTINUOUS
10
-1.07365
20
0.67961
11
-1.0721
21
0.678312
0
LINE
8
BLACK
6
CONTINUOUS
10
-1.0721
20
0.678312
11
-1.07175
21
0.676323
0
LINE
8
BLACK
6
CONTINUOUS
10
-1.07175
20
0.676323
11
-1.07276
21
0.674574
0
LINE
8
BLACK
6
CONTINUOUS
10
-1.07276
20
0.674574
11
-1.07466
21
0.673883
0
LINE
8
BLACK
6
CONTINUOUS
10
-1.07466
20
0.673883
11
-1.09715
21
0.673883
0
LINE
8
BLACK
6
CONTINUOUS
10
-1.09715
20
0.673883
11
-1.09816
21
0.674061
0
LINE
8
BLACK
6
CONTINUOUS
10
-1.09816
20
0.674061
11
-1.09971
21
0.675359
0
LINE
8
BLACK
6
CONTINUOUS
10
-1.09971
20
0.675359
11
-1.10006
21
0.677348
0
LINE
8
BLACK
6
CONTINUOUS
10
-1.10006
20
0.677348
11
-1.09905
21
0.679097
0
LINE
8
BLACK
6
CONTINUOUS
10
-1.09905
20
0.679097
11
-1.09715
21
0.679788
0
LINE
8
BLACK
6
CONTINUOUS
10
-1.09715
20
0.679788
11
-1.08886
21
0.679788
0
LINE
8
BLACK
6
CONTINUOUS
10
-1.08886
20
0.679788
11
-1.08886
21
0.707202
0
LINE
8
BLACK
6
CONTINUOUS
10
-1.08886
20
0.707202
11
-1.09132
21
0.704744
0
LINE
8
BLACK
6
CONTINUOUS
10
-1.09132
20
0.704744
11
-1.09204
21
0.704237
0
LINE
8
BLACK
6
CONTINUOUS
10
-1.09204
20
0.704237
11
-1.09208
21
0.704191
0
LINE
8
BLACK
6
CONTINUOUS
10
-1.09208
20
0.704191
11
-1.09583
21
0.702316
0
LINE
8
BLACK
6
CONTINUOUS
10
-1.09583
20
0.702316
11
-1.09682
21
0.702024
0
LINE
8
BLACK
6
CONTINUOUS
10
-1.09682
20
0.702024
11
-1.09878
21
0.702493
0
LINE
8
BLACK
6
CONTINUOUS
10
-1.09878
20
0.702493
11
-1.09998
21
0.704115
0
LINE
8
BLACK
6
CONTINUOUS
10
-1.09998
20
0.704115
11
-1.09986
21
0.706131
0
LINE
8
BLACK
6
CONTINUOUS
10
-1.09986
20
0.706131
11
-1.09847
21
0.707598
0
LINE
8
BLACK
6
CONTINUOUS
10
-1.09847
20
0.707598
11
-1.09515
21
0.709258
0
LINE
8
BLACK
6
CONTINUOUS
10
-1.09515
20
0.709258
11
-1.09195
21
0.712462
0
LINE
8
BLACK
6
CONTINUOUS
10
-1.09195
20
0.712462
11
-1.08836
21
0.717843
0
LINE
8
BLACK
6
CONTINUOUS
10
-1.08836
20
0.717843
11
-1.08765
21
0.718585
0
LINE
8
BLACK
6
CONTINUOUS
10
-1.08765
20
0.718585
11
-1.08749
21
0.718633
0
LINE
8
BLACK
6
CONTINUOUS
10
-1.08749
20
0.718633
11
-1.08738
21
0.718763
0
LINE
8
BLACK
6
CONTINUOUS
10
-1.08738
20
0.718763
11
-1.08654
21
0.718912
0
LINE
8
BLACK
6
CONTINUOUS
10
-1.08654
20
0.718912
11
-1.08572
21
0.719152
0
LINE
8
BLACK
6
CONTINUOUS
10
-1.08572
20
0.719152
11
-1.08556
21
0.719084
0
LINE
8
BLACK
6
CONTINUOUS
10
-1.29319
20
0.719005
11
-1.29313
21
0.719007
0
LINE
8
BLACK
6
CONTINUOUS
10
-1.29313
20
0.719007
11
-1.2875
21
0.717132
0
LINE
8
BLACK
6
CONTINUOUS
10
-1.2875
20
0.717132
11
-1.2866
21
0.716644
0
LINE
8
BLACK
6
CONTINUOUS
10
-1.2866
20
0.716644
11
-1.28651
21
0.716493
0
LINE
8
BLACK
6
CONTINUOUS
10
-1.28651
20
0.716493
11
-1.28635
21
0.716419
0
LINE
8
BLACK
6
CONTINUOUS
10
-1.28635
20
0.716419
11
-1.28447
21
0.714544
0
LINE
8
BLACK
6
CONTINUOUS
10
-1.28447
20
0.714544
11
-1.28389
21
0.713704
0
LINE
8
BLACK
6
CONTINUOUS
10
-1.28389
20
0.713704
11
-1.28371
21
0.711692
0
LINE
8
BLACK
6
CONTINUOUS
10
-1.28371
20
0.711692
11
-1.28487
21
0.710037
0
LINE
8
BLACK
6
CONTINUOUS
10
-1.28487
20
0.710037
11
-1.28682
21
0.709514
0
LINE
8
BLACK
6
CONTINUOUS
10
-1.28682
20
0.709514
11
-1.28865
21
0.710368
0
LINE
8
BLACK
6
CONTINUOUS
10
-1.28865
20
0.710368
11
-1.29003
21
0.71175
0
LINE
8
BLACK
6
CONTINUOUS
10
-1.29003
20
0.71175
11
-1.29454
21
0.713253
0
LINE
8
BLACK
6
CONTINUOUS
10
-1.29454
20
0.713253
11
-1.29733
21
0.713253
0
LINE
8
BLACK
6
CONTINUOUS
10
-1.29733
20
0.713253
11
-1.30184
21
0.71175
0
LINE
8
BLACK
6
CONTINUOUS
10
-1.30184
20
0.71175
11
-1.30476
21
0.708832
0
LINE
8
BLACK
6
CONTINUOUS
10
-1.30476
20
0.708832
11
-1.30627
21
0.705801
0
LINE
8
BLACK
6
CONTINUOUS
10
-1.30627
20
0.705801
11
-1.30798
21
0.698969
0
LINE
8
BLACK
6
CONTINUOUS
10
-1.30798
20
0.698969
11
-1.30798
21
0.694072
0
LINE
8
BLACK
6
CONTINUOUS
10
-1.30798
20
0.694072
11
-1.30627
21
0.68724
0
LINE
8
BLACK
6
CONTINUOUS
10
-1.30627
20
0.68724
11
-1.30476
21
0.684209
0
LINE
8
BLACK
6
CONTINUOUS
10
-1.30476
20
0.684209
11
-1.30184
21
0.681291
0
LINE
8
BLACK
6
CONTINUOUS
10
-1.30184
20
0.681291
11
-1.29733
21
0.679788
0
LINE
8
BLACK
6
CONTINUOUS
10
-1.29733
20
0.679788
11
-1.29454
21
0.679788
0
LINE
8
BLACK
6
CONTINUOUS
10
-1.29454
20
0.679788
11
-1.29003
21
0.681291
0
LINE
8
BLACK
6
CONTINUOUS
10
-1.29003
20
0.681291
11
-1.28865
21
0.682673
0
LINE
8
BLACK
6
CONTINUOUS
10
-1.28865
20
0.682673
11
-1.28781
21
0.683261
0
LINE
8
BLACK
6
CONTINUOUS
10
-1.28781
20
0.683261
11
-1.2858
21
0.683437
0
LINE
8
BLACK
6
CONTINUOUS
10
-1.2858
20
0.683437
11
-1.28414
21
0.682279
0
LINE
8
BLACK
6
CONTINUOUS
10
-1.28414
20
0.682279
11
-1.28362
21
0.680328
0
LINE
8
BLACK
6
CONTINUOUS
10
-1.28362
20
0.680328
11
-1.28447
21
0.678497
0
LINE
8
BLACK
6
CONTINUOUS
10
-1.28447
20
0.678497
11
-1.28635
21
0.676622
0
LINE
8
BLACK
6
CONTINUOUS
10
-1.28635
20
0.676622
11
-1.28719
21
0.676034
0
LINE
8
BLACK
6
CONTINUOUS
10
-1.28719
20
0.676034
11
-1.28736
21
0.676019
0
LINE
8
BLACK
6
CONTINUOUS
10
-1.28736
20
0.676019
11
-1.2875
21
0.675909
0
LINE
8
BLACK
6
CONTINUOUS
10
-1.2875
20
0.675909
11
-1.29313
21
0.674034
0
LINE
8
BLACK
6
CONTINUOUS
10
-1.29313
20
0.674034
11
-1.294
21
0.673905
0
LINE
8
BLACK
6
CONTINUOUS
10
-1.294
20
0.673905
11
-1.29406
21
0.673883
0
LINE
8
BLACK
6
CONTINUOUS
10
-1.29406
20
0.673883
11
-1.29781
21
0.673883
0
LINE
8
BLACK
6
CONTINUOUS
10
-1.29781
20
0.673883
11
-1.29868
21
0.674036
0
LINE
8
BLACK
6
CONTINUOUS
10
-1.29868
20
0.674036
11
-1.29874
21
0.674034
0
LINE
8
BLACK
6
CONTINUOUS
10
-1.29874
20
0.674034
11
-1.30437
21
0.675909
0
LINE
8
BLACK
6
CONTINUOUS
10
-1.30437
20
0.675909
11
-1.30527
21
0.676397
0
LINE
8
BLACK
6
CONTINUOUS
10
-1.30527
20
0.676397
11
-1.30536
21
0.676548
0
LINE
8
BLACK
6
CONTINUOUS
10
-1.30536
20
0.676548
11
-1.30552
21
0.676622
0
LINE
8
BLACK
6
CONTINUOUS
10
-1.30552
20
0.676622
11
-1.30927
21
0.680372
0
LINE
8
BLACK
6
CONTINUOUS
10
-1.30927
20
0.680372
11
-1.30978
21
0.681095
0
LINE
8
BLACK
6
CONTINUOUS
10
-1.30978
20
0.681095
11
-1.30983
21
0.681139
0
LINE
8
BLACK
6
CONTINUOUS
10
-1.30983
20
0.681139
11
-1.3117
21
0.684889
0
LINE
8
BLACK
6
CONTINUOUS
10
-1.3117
20
0.684889
11
-1.31185
21
0.685377
0
LINE
8
BLACK
6
CONTINUOUS
10
-1.31185
20
0.685377
11
-1.31192
21
0.685493
0
LINE
8
BLACK
6
CONTINUOUS
10
-1.31192
20
0.685493
11
-1.3138
21
0.692992
0
LINE
8
BLACK
6
CONTINUOUS
10
-1.3138
20
0.692992
11
-1.31384
21
0.69358
0
LINE
8
BLACK
6
CONTINUOUS
10
-1.31384
20
0.69358
11
-1.31389
21
0.693708
0
LINE
8
BLACK
6
CONTINUOUS
10
-1.31389
20
0.693708
11
-1.31389
21
0.699333
0
LINE
8
BLACK
6
CONTINUOUS
10
-1.31389
20
0.699333
11
-1.31378
21
0.699913
0
LINE
8
BLACK
6
CONTINUOUS
10
-1.31378
20
0.699913
11
-1.3138
21
0.700049
0
LINE
8
BLACK
6
CONTINUOUS
10
-1.3138
20
0.700049
11
-1.31192
21
0.707548
0
LINE
8
BLACK
6
CONTINUOUS
10
-1.31192
20
0.707548
11
-1.31172
21
0.708013
0
LINE
8
BLACK
6
CONTINUOUS
10
-1.31172
20
0.708013
11
-1.3117
21
0.708152
0
LINE
8
BLACK
6
CONTINUOUS
10
-1.3117
20
0.708152
11
-1.30983
21
0.711902
0
LINE
8
BLACK
6
CONTINUOUS
10
-1.30983
20
0.711902
11
-1.3093
21
0.712611
0
LINE
8
BLACK
6
CONTINUOUS
10
-1.3093
20
0.712611
11
-1.30927
21
0.712669
0
LINE
8
BLACK
6
CONTINUOUS
10
-1.30927
20
0.712669
11
-1.30552
21
0.716419
0
LINE
8
BLACK
6
CONTINUOUS
10
-1.30552
20
0.716419
11
-1.30468
21
0.717007
0
LINE
8
BLACK
6
CONTINUOUS
10
-1.30468
20
0.717007
11
-1.30451
21
0.717022
0
LINE
8
BLACK
6
CONTINUOUS
10
-1.30451
20
0.717022
11
-1.30437
21
0.717132
0
LINE
8
BLACK
6
CONTINUOUS
10
-1.30437
20
0.717132
11
-1.29874
21
0.719007
0
LINE
8
BLACK
6
CONTINUOUS
10
-1.29874
20
0.719007
11
-1.29787
21
0.719136
0
LINE
8
BLACK
6
CONTINUOUS
10
-1.29787
20
0.719136
11
-1.29781
21
0.719158
0
LINE
8
BLACK
6
CONTINUOUS
10
-1.29781
20
0.719158
11
-1.29406
21
0.719158
0
LINE
8
BLACK
6
CONTINUOUS
10
-1.29406
20
0.719158
11
-1.29319
21
0.719005
0
LINE
8
BLACK
6
CONTINUOUS
10
-1.26078
20
0.720677
11
-1.25944
21
0.719166
0
LINE
8
BLACK
6
CONTINUOUS
10
-1.25944
20
0.719166
11
-1.25939
21
0.717147
0
LINE
8
BLACK
6
CONTINUOUS
10
-1.25939
20
0.717147
11
-1.26747
21
0.692912
0
LINE
8
BLACK
6
CONTINUOUS
10
-1.26747
20
0.692912
11
-1.25577
21
0.692912
0
LINE
8
BLACK
6
CONTINUOUS
10
-1.25577
20
0.692912
11
-1.25577
21
0.703082
0
LINE
8
BLACK
6
CONTINUOUS
10
-1.25577
20
0.703082
11
-1.25559
21
0.704092
0
LINE
8
BLACK
6
CONTINUOUS
10
-1.25559
20
0.704092
11
-1.25429
21
0.705639
0
LINE
8
BLACK
6
CONTINUOUS
10
-1.25429
20
0.705639
11
-1.2523
21
0.70599
0
LINE
8
BLACK
6
CONTINUOUS
10
-1.2523
20
0.70599
11
-1.25055
21
0.70498
0
LINE
8
BLACK
6
CONTINUOUS
10
-1.25055
20
0.70498
11
-1.24986
21
0.703082
0
LINE
8
BLACK
6
CONTINUOUS
10
-1.24986
20
0.703082
11
-1.24986
21
0.692912
0
LINE
8
BLACK
6
CONTINUOUS
10
-1.24986
20
0.692912
11
-1.24719
21
0.692912
0
LINE
8
BLACK
6
CONTINUOUS
10
-1.24719
20
0.692912
11
-1.24618
21
0.692733
0
LINE
8
BLACK
6
CONTINUOUS
10
-1.24618
20
0.692733
11
-1.24463
21
0.691435
0
LINE
8
BLACK
6
CONTINUOUS
10
-1.24463
20
0.691435
11
-1.24428
21
0.689446
0
LINE
8
BLACK
6
CONTINUOUS
10
-1.24428
20
0.689446
11
-1.24529
21
0.687697
0
LINE
8
BLACK
6
CONTINUOUS
10
-1.24529
20
0.687697
11
-1.24719
21
0.687006
0
LINE
8
BLACK
6
CONTINUOUS
10
-1.24719
20
0.687006
11
-1.24986
21
0.687006
0
LINE
8
BLACK
6
CONTINUOUS
10
-1.24986
20
0.687006
11
-1.24986
21
0.676835
0
LINE
8
BLACK
6
CONTINUOUS
10
-1.24986
20
0.676835
11
-1.25004
21
0.675826
0
LINE
8
BLACK
6
CONTINUOUS
10
-1.25004
20
0.675826
11
-1.25134
21
0.674278
0
LINE
8
BLACK
6
CONTINUOUS
10
-1.25134
20
0.674278
11
-1.25333
21
0.673928
0
LINE
8
BLACK
6
CONTINUOUS
10
-1.25333
20
0.673928
11
-1.25508
21
0.674937
0
LINE
8
BLACK
6
CONTINUOUS
10
-1.25508
20
0.674937
11
-1.25577
21
0.676835
0
LINE
8
BLACK
6
CONTINUOUS
10
-1.25577
20
0.676835
11
-1.25577
21
0.687006
0
LINE
8
BLACK
6
CONTINUOUS
10
-1.25577
20
0.687006
11
-1.27156
21
0.687006
0
LINE
8
BLACK
6
CONTINUOUS
10
-1.27156
20
0.687006
11
-1.27257
21
0.687184
0
LINE
8
BLACK
6
CONTINUOUS
10
-1.27257
20
0.687184
11
-1.27275
21
0.687329
0
LINE
8
BLACK
6
CONTINUOUS
10
-1.27275
20
0.687329
11
-1.27297
21
0.687362
0
LINE
8
BLACK
6
CONTINUOUS
10
-1.27297
20
0.687362
11
-1.2735
21
0.687965
0
LINE
8
BLACK
6
CONTINUOUS
10
-1.2735
20
0.687965
11
-1.27412
21
0.688482
0
LINE
8
BLACK
6
CONTINUOUS
10
-1.27412
20
0.688482
11
-1.27416
21
0.688705
0
LINE
8
BLACK
6
CONTINUOUS
10
-1.27416
20
0.688705
11
-1.27431
21
0.688873
0
LINE
8
BLACK
6
CONTINUOUS
10
-1.27431
20
0.688873
11
-1.27433
21
0.689678
0
LINE
8
BLACK
6
CONTINUOUS
10
-1.27433
20
0.689678
11
-1.27447
21
0.690472
0
LINE
8
BLACK
6
CONTINUOUS
10
-1.27447
20
0.690472
11
-1.27436
21
0.690667
0
LINE
8
BLACK
6
CONTINUOUS
10
-1.27436
20
0.690667
11
-1.27436
21
0.690893
0
LINE
8
BLACK
6
CONTINUOUS
10
-1.27436
20
0.690893
11
-1.26499
21
0.719014
0
LINE
8
BLACK
6
CONTINUOUS
10
-1.26499
20
0.719014
11
-1.2645
21
0.719916
0
LINE
8
BLACK
6
CONTINUOUS
10
-1.2645
20
0.719916
11
-1.26278
21
0.720973
0
LINE
8
BLACK
6
CONTINUOUS
10
-1.26278
20
0.720973
11
-1.26078
21
0.720677
0
LINE
8
BLACK
6
CONTINUOUS
10
-1.11864
20
0.71898
11
-1.11851
21
0.718867
0
LINE
8
BLACK
6
CONTINUOUS
10
-1.11851
20
0.718867
11
-1.11833
21
0.718847
0
LINE
8
BLACK
6
CONTINUOUS
10
-1.11833
20
0.718847
11
-1.11458
21
0.716972
0
LINE
8
BLACK
6
CONTINUOUS
10
-1.11458
20
0.716972
11
-1.11387
21
0.716446
0
LINE
8
BLACK
6
CONTINUOUS
10
-1.11387
20
0.716446
11
-1.11381
21
0.716419
0
LINE
8
BLACK
6
CONTINUOUS
10
-1.11381
20
0.716419
11
-1.11194
21
0.714544
0
LINE
8
BLACK
6
CONTINUOUS
10
-1.11194
20
0.714544
11
-1.11143
21
0.713821
0
LINE
8
BLACK
6
CONTINUOUS
10
-1.11143
20
0.713821
11
-1.11139
21
0.713776
0
LINE
8
BLACK
6
CONTINUOUS
10
-1.11139
20
0.713776
11
-1.10951
21
0.710027
0
LINE
8
BLACK
6
CONTINUOUS
10
-1.10951
20
0.710027
11
-1.10922
21
0.709044
0
LINE
8
BLACK
6
CONTINUOUS
10
-1.10922
20
0.709044
11
-1.10926
21
0.708872
0
LINE
8
BLACK
6
CONTINUOUS
10
-1.10926
20
0.708872
11
-1.1092
21
0.708706
0
LINE
8
BLACK
6
CONTINUOUS
10
-1.1092
20
0.708706
11
-1.1092
21
0.703082
0
LINE
8
BLACK
6
CONTINUOUS
10
-1.1092
20
0.703082
11
-1.10938
21
0.702072
0
LINE
8
BLACK
6
CONTINUOUS
10
-1.10938
20
0.702072
11
-1.10949
21
0.701937
0
LINE
8
BLACK
6
CONTINUOUS
10
-1.10949
20
0.701937
11
-1.10951
21
0.701762
0
LINE
8
BLACK
6
CONTINUOUS
10
-1.10951
20
0.701762
11
-1.11139
21
0.698012
0
LINE
8
BLACK
6
CONTINUOUS
10
-1.11139
20
0.698012
11
-1.11191
21
0.697303
0
LINE
8
BLACK
6
CONTINUOUS
10
-1.11191
20
0.697303
11
-1.11194
21
0.697245
0
LINE
8
BLACK
6
CONTINUOUS
10
-1.11194
20
0.697245
11
-1.11381
21
0.69537
0
LINE
8
BLACK
6
CONTINUOUS
10
-1.11381
20
0.69537
11
-1.11454
21
0.694864
0
LINE
8
BLACK
6
CONTINUOUS
10
-1.11454
20
0.694864
11
-1.11458
21
0.694817
0
LINE
8
BLACK
6
CONTINUOUS
10
-1.11458
20
0.694817
11
-1.11833
21
0.692942
0
LINE
8
BLACK
6
CONTINUOUS
10
-1.11833
20
0.692942
11
-1.11931
21
0.69265
0
LINE
8
BLACK
6
CONTINUOUS
10
-1.11931
20
0.69265
11
-1.11949
21
0.692691
0
LINE
8
BLACK
6
CONTINUOUS
10
-1.11949
20
0.692691
11
-1.11961
21
0.692644
0
LINE
8
BLACK
6
CONTINUOUS
10
-1.11961
20
0.692644
11
-1.10973
21
0.678529
0
LINE
8
BLACK
6
CONTINUOUS
10
-1.10973
20
0.678529
11
-1.1093
21
0.677599
0
LINE
8
BLACK
6
CONTINUOUS
10
-1.1093
20
0.677599
11
-1.10948
21
0.675587
0
LINE
8
BLACK
6
CONTINUOUS
10
-1.10948
20
0.675587
11
-1.1109
21
0.674159
0
LINE
8
BLACK
6
CONTINUOUS
10
-1.1109
20
0.674159
11
-1.11292
21
0.673983
0
LINE
8
BLACK
6
CONTINUOUS
10
-1.11292
20
0.673983
11
-1.11457
21
0.675142
0
LINE
8
BLACK
6
CONTINUOUS
10
-1.11457
20
0.675142
11
-1.12681
21
0.69263
0
LINE
8
BLACK
6
CONTINUOUS
10
-1.12681
20
0.69263
11
-1.1317
21
0.69263
0
LINE
8
BLACK
6
CONTINUOUS
10
-1.1317
20
0.69263
11
-1.1317
21
0.676835
0
LINE
8
BLACK
6
CONTINUOUS
10
-1.1317
20
0.676835
11
-1.13187
21
0.675826
0
LINE
8
BLACK
6
CONTINUOUS
10
-1.13187
20
0.675826
11
-1.13317
21
0.674278
0
LINE
8
BLACK
6
CONTINUOUS
10
-1.13317
20
0.674278
11
-1.13516
21
0.673928
0
LINE
8
BLACK
6
CONTINUOUS
10
-1.13516
20
0.673928
11
-1.13691
21
0.674937
0
LINE
8
BLACK
6
CONTINUOUS
10
-1.13691
20
0.674937
11
-1.1376
21
0.676835
0
LINE
8
BLACK
6
CONTINUOUS
10
-1.1376
20
0.676835
11
-1.1376
21
0.716206
0
LINE
8
BLACK
6
CONTINUOUS
10
-1.1376
20
0.716206
11
-1.13753
21
0.716589
0
LINE
8
BLACK
6
CONTINUOUS
10
-1.13753
20
0.716589
11
-1.13756
21
0.716718
0
LINE
8
BLACK
6
CONTINUOUS
10
-1.13756
20
0.716718
11
-1.13749
21
0.716832
0
LINE
8
BLACK
6
CONTINUOUS
10
-1.13749
20
0.716832
11
-1.13742
21
0.717215
0
LINE
8
BLACK
6
CONTINUOUS
10
-1.13742
20
0.717215
11
-1.13693
21
0.717803
0
LINE
8
BLACK
6
CONTINUOUS
10
-1.13693
20
0.717803
11
-1.13655
21
0.718467
0
LINE
8
BLACK
6
CONTINUOUS
10
-1.13655
20
0.718467
11
-1.1363
21
0.718559
0
LINE
8
BLACK
6
CONTINUOUS
10
-1.1363
20
0.718559
11
-1.13613
21
0.718763
0
LINE
8
BLACK
6
CONTINUOUS
10
-1.13613
20
0.718763
11
-1.13537
21
0.718896
0
LINE
8
BLACK
6
CONTINUOUS
10
-1.13537
20
0.718896
11
-1.13465
21
0.719158
0
LINE
8
BLACK
6
CONTINUOUS
10
-1.13465
20
0.719158
11
-1.11965
21
0.719158
0
LINE
8
BLACK
6
CONTINUOUS
10
-1.11965
20
0.719158
11
-1.11864
21
0.71898
0
LINE
8
BLACK
6
CONTINUOUS
10
-1.1317
20
0.713253
11
-1.1317
21
0.698536
0
LINE
8
BLACK
6
CONTINUOUS
10
-1.1317
20
0.698536
11
-1.12035
21
0.698536
0
LINE
8
BLACK
6
CONTINUOUS
10
-1.12035
20
0.698536
11
-1.11765
21
0.699885
0
LINE
8
BLACK
6
CONTINUOUS
10
-1.11765
20
0.699885
11
-1.11645
21
0.701082
0
LINE
8
BLACK
6
CONTINUOUS
10
-1.11645
20
0.701082
11
-1.11511
21
0.703779
0
LINE
8
BLACK
6
CONTINUOUS
10
-1.11511
20
0.703779
11
-1.11511
21
0.708009
0
LINE
8
BLACK
6
CONTINUOUS
10
-1.11511
20
0.708009
11
-1.11645
21
0.710707
0
LINE
8
BLACK
6
CONTINUOUS
10
-1.11645
20
0.710707
11
-1.11765
21
0.711904
0
LINE
8
BLACK
6
CONTINUOUS
10
-1.11765
20
0.711904
11
-1.12035
21
0.713253
0
LINE
8
BLACK
6
CONTINUOUS
10
-1.12035
20
0.713253
11
-1.1317
21
0.713253
0
LINE
8
BLACK
6
CONTINUOUS
10
-0.259943
20
0.841898
11
-0.259252
21
0.84
0
LINE
8
BLACK
6
CONTINUOUS
10
-0.259252
20
0.84
11
-0.259252
21
0.76
0
LINE
8
BLACK
6
CONTINUOUS
10
-0.259252
20
0.76
11
-0.25943
21
0.75899
0
LINE
8
BLACK
6
CONTINUOUS
10
-0.25943
20
0.75899
11
-0.260728
21
0.757443
0
LINE
8
BLACK
6
CONTINUOUS
10
-0.260728
20
0.757443
11
-0.262717
21
0.757092
0
LINE
8
BLACK
6
CONTINUOUS
10
-0.262717
20
0.757092
11
-0.264467
21
0.758102
0
LINE
8
BLACK
6
CONTINUOUS
10
-0.264467
20
0.758102
11
-0.265157
21
0.76
0
LINE
8
BLACK
6
CONTINUOUS
10
-0.265157
20
0.76
11
-0.265157
21
0.84
0
LINE
8
BLACK
6
CONTINUOUS
10
-0.265157
20
0.84
11
-0.264979
21
0.84101
0
LINE
8
BLACK
6
CONTINUOUS
10
-0.264979
20
0.84101
11
-0.263681
21
0.842557
0
LINE
8
BLACK
6
CONTINUOUS
10
-0.263681
20
0.842557
11
-0.261692
21
0.842908
0
LINE
8
BLACK
6
CONTINUOUS
10
-0.261692
20
0.842908
11
-0.259943
21
0.841898
0
LINE
8
BLACK
6
CONTINUOUS
10
-0.535533
20
0.841898
11
-0.534843
21
0.84
0
LINE
8
BLACK
6
CONTINUOUS
10
-0.534843
20
0.84
11
-0.534843
21
0.76
0
LINE
8
BLACK
6
CONTINUOUS
10
-0.534843
20
0.76
11
-0.535021
21
0.75899
0
LINE
8
BLACK
6
CONTINUOUS
10
-0.535021
20
0.75899
11
-0.536319
21
0.757443
0
LINE
8
BLACK
6
CONTINUOUS
10
-0.536319
20
0.757443
11
-0.538308
21
0.757092
0
LINE
8
BLACK
6
CONTINUOUS
10
-0.538308
20
0.757092
11
-0.540057
21
0.758102
0
LINE
8
BLACK
6
CONTINUOUS
10
-0.540057
20
0.758102
11
-0.540748
21
0.76
0
LINE
8
BLACK
6
CONTINUOUS
10
-0.540748
20
0.76
11
-0.540748
21
0.84
0
LINE
8
BLACK
6
CONTINUOUS
10
-0.540748
20
0.84
11
-0.54057
21
0.84101
0
LINE
8
BLACK
6
CONTINUOUS
10
-0.54057
20
0.84101
11
-0.539272
21
0.842557
0
LINE
8
BLACK
6
CONTINUOUS
10
-0.539272
20
0.842557
11
-0.537283
21
0.842908
0
LINE
8
BLACK
6
CONTINUOUS
10
-0.537283
20
0.842908
11
-0.535533
21
0.841898
0
LINE
8
BLACK
6
CONTINUOUS
10
-0.35899
20
0.94057
11
-0.357443
21
0.939272
0
LINE
8
BLACK
6
CONTINUOUS
10
-0.357443
20
0.939272
11
-0.357092
21
0.937283
0
LINE
8
BLACK
6
CONTINUOUS
10
-0.357092
20
0.937283
11
-0.358102
21
0.935533
0
LINE
8
BLACK
6
CONTINUOUS
10
-0.358102
20
0.935533
11
-0.36
21
0.934843
0
LINE
8
BLACK
6
CONTINUOUS
10
-0.36
20
0.934843
11
-0.44
21
0.934843
0
LINE
8
BLACK
6
CONTINUOUS
10
-0.44
20
0.934843
11
-0.44101
21
0.935021
0
LINE
8
BLACK
6
CONTINUOUS
10
-0.44101
20
0.935021
11
-0.442557
21
0.936319
0
LINE
8
BLACK
6
CONTINUOUS
10
-0.442557
20
0.936319
11
-0.442908
21
0.938308
0
LINE
8
BLACK
6
CONTINUOUS
10
-0.442908
20
0.938308
11
-0.441898
21
0.940057
0
LINE
8
BLACK
6
CONTINUOUS
10
-0.441898
20
0.940057
11
-0.44
21
0.940748
0
LINE
8
BLACK
6
CONTINUOUS
10
-0.44
20
0.940748
11
-0.36
21
0.940748
0
LINE
8
BLACK
6
CONTINUOUS
10
-0.36
20
0.940748
11
-0.35899
21
0.94057
0
LINE
8
BLACK
6
CONTINUOUS
10
-0.779626
20
0.948088
11
-0.778934
21
0.946417
0
LINE
8
BLACK
6
CONTINUOUS
10
-0.778934
20
0.946417
11
-0.779626
21
0.944747
0
LINE
8
BLACK
6
CONTINUOUS
10
-0.779626
20
0.944747
11
-0.781297
21
0.944055
0
LINE
8
BLACK
6
CONTINUOUS
10
-0.781297
20
0.944055
11
-0.799176
21
0.944055
0
LINE
8
BLACK
6
CONTINUOUS
10
-0.799176
20
0.944055
11
-0.800846
21
0.944747
0
LINE
8
BLACK
6
CONTINUOUS
10
-0.800846
20
0.944747
11
-0.801538
21
0.946417
0
LINE
8
BLACK
6
CONTINUOUS
10
-0.801538
20
0.946417
11
-0.800846
21
0.948088
0
LINE
8
BLACK
6
CONTINUOUS
10
-0.800846
20
0.948088
11
-0.799176
21
0.94878
0
LINE
8
BLACK
6
CONTINUOUS
10
-0.799176
20
0.94878
11
-0.781297
21
0.94878
0
LINE
8
BLACK
6
CONTINUOUS
10
-0.781297
20
0.94878
11
-0.779626
21
0.948088
0
LINE
8
BLACK
6
CONTINUOUS
10
-1.81234
20
0.951186
11
-1.81263
21
0.951882
0
LINE
8
BLACK
6
CONTINUOUS
10
-1.81263
20
0.951882
11
-1.81234
21
0.952578
0
LINE
8
BLACK
6
CONTINUOUS
10
-1.81234
20
0.952578
11
-1.81165
21
0.952867
0
LINE
8
BLACK
6
CONTINUOUS
10
-1.81165
20
0.952867
11
-1.80701
21
0.952867
0
LINE
8
BLACK
6
CONTINUOUS
10
-1.80701
20
0.952867
11
-1.80701
21
0.968317
0
LINE
8
BLACK
6
CONTINUOUS
10
-1.80701
20
0.968317
11
-1.80708
21
0.968209
0
LINE
8
BLACK
6
CONTINUOUS
10
-1.80708
20
0.968209
11
-1.80716
21
0.968153
0
LINE
8
BLACK
6
CONTINUOUS
10
-1.80716
20
0.968153
11
-1.8072
21
0.968059
0
LINE
8
BLACK
6
CONTINUOUS
10
-1.8072
20
0.968059
11
-1.80908
21
0.966184
0
LINE
8
BLACK
6
CONTINUOUS
10
-1.80908
20
0.966184
11
-1.80923
21
0.966122
0
LINE
8
BLACK
6
CONTINUOUS
10
-1.80923
20
0.966122
11
-1.80933
21
0.966
0
LINE
8
BLACK
6
CONTINUOUS
10
-1.80933
20
0.966
11
-1.81121
21
0.965063
0
LINE
8
BLACK
6
CONTINUOUS
10
-1.81121
20
0.965063
11
-1.81196
21
0.965009
0
LINE
8
BLACK
6
CONTINUOUS
10
-1.81196
20
0.965009
11
-1.81253
21
0.965503
0
LINE
8
BLACK
6
CONTINUOUS
10
-1.81253
20
0.965503
11
-1.81258
21
0.966254
0
LINE
8
BLACK
6
CONTINUOUS
10
-1.81258
20
0.966254
11
-1.81209
21
0.966823
0
LINE
8
BLACK
6
CONTINUOUS
10
-1.81209
20
0.966823
11
-1.81036
21
0.967689
0
LINE
8
BLACK
6
CONTINUOUS
10
-1.81036
20
0.967689
11
-1.80866
21
0.969382
0
LINE
8
BLACK
6
CONTINUOUS
10
-1.80866
20
0.969382
11
-1.80684
21
0.972113
0
LINE
8
BLACK
6
CONTINUOUS
10
-1.80684
20
0.972113
11
-1.80676
21
0.97217
0
LINE
8
BLACK
6
CONTINUOUS
10
-1.80676
20
0.97217
11
-1.80672
21
0.972263
0
LINE
8
BLACK
6
CONTINUOUS
10
-1.80672
20
0.972263
11
-1.80645
21
0.972373
0
LINE
8
BLACK
6
CONTINUOUS
10
-1.80645
20
0.972373
11
-1.80622
21
0.972532
0
LINE
8
BLACK
6
CONTINUOUS
10
-1.80622
20
0.972532
11
-1.80612
21
0.972513
0
LINE
8
BLACK
6
CONTINUOUS
10
-1.80612
20
0.972513
11
-1.80602
21
0.972552
0
LINE
8
BLACK
6
CONTINUOUS
10
-1.80602
20
0.972552
11
-1.80576
21
0.972442
0
LINE
8
BLACK
6
CONTINUOUS
10
-1.80576
20
0.972442
11
-1.80548
21
0.972386
0
LINE
8
BLACK
6
CONTINUOUS
10
-1.80548
20
0.972386
11
-1.80542
21
0.972302
0
LINE
8
BLACK
6
CONTINUOUS
10
-1.80542
20
0.972302
11
-1.80533
21
0.972263
0
LINE
8
BLACK
6
CONTINUOUS
10
-1.80533
20
0.972263
11
-1.80522
21
0.971998
0
LINE
8
BLACK
6
CONTINUOUS
10
-1.80522
20
0.971998
11
-1.80506
21
0.97176
0
LINE
8
BLACK
6
CONTINUOUS
10
-1.80506
20
0.97176
11
-1.80508
21
0.971661
0
LINE
8
BLACK
6
CONTINUOUS
10
-1.80508
20
0.971661
11
-1.80504
21
0.971567
0
LINE
8
BLACK
6
CONTINUOUS
10
-1.80504
20
0.971567
11
-1.80504
21
0.952867
0
LINE
8
BLACK
6
CONTINUOUS
10
-1.80504
20
0.952867
11
-1.8004
21
0.952867
0
LINE
8
BLACK
6
CONTINUOUS
10
-1.8004
20
0.952867
11
-1.7997
21
0.952578
0
LINE
8
BLACK
6
CONTINUOUS
10
-1.7997
20
0.952578
11
-1.79942
21
0.951882
0
LINE
8
BLACK
6
CONTINUOUS
10
-1.79942
20
0.951882
11
-1.7997
21
0.951186
0
LINE
8
BLACK
6
CONTINUOUS
10
-1.7997
20
0.951186
11
-1.8004
21
0.950898
0
LINE
8
BLACK
6
CONTINUOUS
10
-1.8004
20
0.950898
11
-1.81165
21
0.950898
0
LINE
8
BLACK
6
CONTINUOUS
10
-1.81165
20
0.950898
11
-1.81234
21
0.951186
0
LINE
8
BLACK
6
CONTINUOUS
10
-0.360193
20
1.036
11
-0.360057
21
1.03602
0
LINE
8
BLACK
6
CONTINUOUS
10
-0.360057
20
1.03602
11
-0.359952
21
1.03596
0
LINE
8
BLACK
6
CONTINUOUS
10
-0.359952
20
1.03596
11
-0.35962
21
1.0359
0
LINE
8
BLACK
6
CONTINUOUS
10
-0.35962
20
1.0359
11
-0.35901
21
1.03539
0
LINE
8
BLACK
6
CONTINUOUS
10
-0.35901
20
1.03539
11
-0.358329
21
1.03498
0
LINE
8
BLACK
6
CONTINUOUS
10
-0.358329
20
1.03498
11
-0.358253
21
1.03475
0
LINE
8
BLACK
6
CONTINUOUS
10
-0.358253
20
1.03475
11
-0.358073
21
1.0346
0
LINE
8
BLACK
6
CONTINUOUS
10
-0.358073
20
1.0346
11
-0.357934
21
1.03382
0
LINE
8
BLACK
6
CONTINUOUS
10
-0.357934
20
1.03382
11
-0.357678
21
1.03307
0
LINE
8
BLACK
6
CONTINUOUS
10
-0.357678
20
1.03307
11
-0.357763
21
1.03285
0
LINE
8
BLACK
6
CONTINUOUS
10
-0.357763
20
1.03285
11
-0.357722
21
1.03261
0
LINE
8
BLACK
6
CONTINUOUS
10
-0.357722
20
1.03261
11
-0.35812
21
1.03192
0
LINE
8
BLACK
6
CONTINUOUS
10
-0.35812
20
1.03192
11
-0.358408
21
1.03118
0
LINE
8
BLACK
6
CONTINUOUS
10
-0.358408
20
1.03118
11
-0.373808
21
1.01358
0
LINE
8
BLACK
6
CONTINUOUS
10
-0.373808
20
1.01358
11
-0.371879
21
1.01358
0
LINE
8
BLACK
6
CONTINUOUS
10
-0.371879
20
1.01358
11
-0.370869
21
1.0134
0
LINE
8
BLACK
6
CONTINUOUS
10
-0.370869
20
1.0134
11
-0.370733
21
1.01329
0
LINE
8
BLACK
6
CONTINUOUS
10
-0.370733
20
1.01329
11
-0.370558
21
1.01327
0
LINE
8
BLACK
6
CONTINUOUS
10
-0.370558
20
1.01327
11
-0.364934
21
1.01046
0
LINE
8
BLACK
6
CONTINUOUS
10
-0.364934
20
1.01046
11
-0.364225
21
1.00993
0
LINE
8
BLACK
6
CONTINUOUS
10
-0.364225
20
1.00993
11
-0.364166
21
1.00991
0
LINE
8
BLACK
6
CONTINUOUS
10
-0.364166
20
1.00991
11
-0.361354
21
1.00709
0
LINE
8
BLACK
6
CONTINUOUS
10
-0.361354
20
1.00709
11
-0.360848
21
1.00637
0
LINE
8
BLACK
6
CONTINUOUS
10
-0.360848
20
1.00637
11
-0.360801
21
1.00633
0
LINE
8
BLACK
6
CONTINUOUS
10
-0.360801
20
1.00633
11
-0.357989
21
1.0007
0
LINE
8
BLACK
6
CONTINUOUS
10
-0.357989
20
1.0007
11
-0.357697
21
0.999719
0
LINE
8
BLACK
6
CONTINUOUS
10
-0.357697
20
0.999719
11
-0.357738
21
0.999547
0
LINE
8
BLACK
6
CONTINUOUS
10
-0.357738
20
0.999547
11
-0.357677
21
0.999381
0
LINE
8
BLACK
6
CONTINUOUS
10
-0.357677
20
0.999381
11
-0.357677
21
0.985321
0
LINE
8
BLACK
6
CONTINUOUS
10
-0.357677
20
0.985321
11
-0.357855
21
0.984311
0
LINE
8
BLACK
6
CONTINUOUS
10
-0.357855
20
0.984311
11
-0.357969
21
0.984175
0
LINE
8
BLACK
6
CONTINUOUS
10
-0.357969
20
0.984175
11
-0.357989
21
0.984
0
LINE
8
BLACK
6
CONTINUOUS
10
-0.357989
20
0.984
11
-0.360801
21
0.978376
0
LINE
8
BLACK
6
CONTINUOUS
10
-0.360801
20
0.978376
11
-0.361327
21
0.977667
0
LINE
8
BLACK
6
CONTINUOUS
10
-0.361327
20
0.977667
11
-0.361354
21
0.977608
0
LINE
8
BLACK
6
CONTINUOUS
10
-0.361354
20
0.977608
11
-0.364166
21
0.974796
0
LINE
8
BLACK
6
CONTINUOUS
10
-0.364166
20
0.974796
11
-0.364889
21
0.97429
0
LINE
8
BLACK
6
CONTINUOUS
10
-0.364889
20
0.97429
11
-0.364934
21
0.974243
0
LINE
8
BLACK
6
CONTINUOUS
10
-0.364934
20
0.974243
11
-0.370558
21
0.971431
0
LINE
8
BLACK
6
CONTINUOUS
10
-0.370558
20
0.971431
11
-0.371541
21
0.971139
0
LINE
8
BLACK
6
CONTINUOUS
10
-0.371541
20
0.971139
11
-0.371713
21
0.97118
0
LINE
8
BLACK
6
CONTINUOUS
10
-0.371713
20
0.97118
11
-0.371879
21
0.971119
0
LINE
8
BLACK
6
CONTINUOUS
10
-0.371879
20
0.971119
11
-0.388751
21
0.971119
0
LINE
8
BLACK
6
CONTINUOUS
10
-0.388751
20
0.971119
11
-0.389761
21
0.971297
0
LINE
8
BLACK
6
CONTINUOUS
10
-0.389761
20
0.971297
11
-0.389897
21
0.971411
0
LINE
8
BLACK
6
CONTINUOUS
10
-0.389897
20
0.971411
11
-0.390072
21
0.971431
0
LINE
8
BLACK
6
CONTINUOUS
10
-0.390072
20
0.971431
11
-0.395696
21
0.974243
0
LINE
8
BLACK
6
CONTINUOUS
10
-0.395696
20
0.974243
11
-0.396405
21
0.974769
0
LINE
8
BLACK
6
CONTINUOUS
10
-0.396405
20
0.974769
11
-0.396464
21
0.974796
0
LINE
8
BLACK
6
CONTINUOUS
10
-0.396464
20
0.974796
11
-0.399276
21
0.977608
0
LINE
8
BLACK
6
CONTINUOUS
10
-0.399276
20
0.977608
11
-0.399864
21
0.978448
0
LINE
8
BLACK
6
CONTINUOUS
10
-0.399864
20
0.978448
11
-0.40004
21
0.980461
0
LINE
8
BLACK
6
CONTINUOUS
10
-0.40004
20
0.980461
11
-0.398882
21
0.982115
0
LINE
8
BLACK
6
CONTINUOUS
10
-0.398882
20
0.982115
11
-0.396931
21
0.982638
0
LINE
8
BLACK
6
CONTINUOUS
10
-0.396931
20
0.982638
11
-0.3951
21
0.981784
0
LINE
8
BLACK
6
CONTINUOUS
10
-0.3951
20
0.981784
11
-0.392627
21
0.979311
0
LINE
8
BLACK
6
CONTINUOUS
10
-0.392627
20
0.979311
11
-0.388054
21
0.977025
0
LINE
8
BLACK
6
CONTINUOUS
10
-0.388054
20
0.977025
11
-0.372576
21
0.977025
0
LINE
8
BLACK
6
CONTINUOUS
10
-0.372576
20
0.977025
11
-0.368003
21
0.979311
0
LINE
8
BLACK
6
CONTINUOUS
10
-0.368003
20
0.979311
11
-0.365869
21
0.981445
0
LINE
8
BLACK
6
CONTINUOUS
10
-0.365869
20
0.981445
11
-0.363583
21
0.986018
0
LINE
8
BLACK
6
CONTINUOUS
10
-0.363583
20
0.986018
11
-0.363583
21
0.998684
0
LINE
8
BLACK
6
CONTINUOUS
10
-0.363583
20
0.998684
11
-0.365869
21
1.00326
0
LINE
8
BLACK
6
CONTINUOUS
10
-0.365869
20
1.00326
11
-0.368003
21
1.00539
0
LINE
8
BLACK
6
CONTINUOUS
10
-0.368003
20
1.00539
11
-0.372576
21
1.00768
0
LINE
8
BLACK
6
CONTINUOUS
10
-0.372576
20
1.00768
11
-0.380315
21
1.00768
0
LINE
8
BLACK
6
CONTINUOUS
10
-0.380315
20
1.00768
11
-0.380752
21
1.00775
0
LINE
8
BLACK
6
CONTINUOUS
10
-0.380752
20
1.00775
11
-0.380888
21
1.00773
0
LINE
8
BLACK
6
CONTINUOUS
10
-0.380888
20
1.00773
11
-0.380992
21
1.0078
0
LINE
8
BLACK
6
CONTINUOUS
10
-0.380992
20
1.0078
11
-0.381325
21
1.00786
0
LINE
8
BLACK
6
CONTINUOUS
10
-0.381325
20
1.00786
11
-0.381935
21
1.00837
0
LINE
8
BLACK
6
CONTINUOUS
10
-0.381935
20
1.00837
11
-0.382616
21
1.00878
0
LINE
8
BLACK
6
CONTINUOUS
10
-0.382616
20
1.00878
11
-0.382692
21
1.009
0
LINE
8
BLACK
6
CONTINUOUS
10
-0.382692
20
1.009
11
-0.382872
21
1.00915
0
LINE
8
BLACK
6
CONTINUOUS
10
-0.382872
20
1.00915
11
-0.38301
21
1.00994
0
LINE
8
BLACK
6
CONTINUOUS
10
-0.38301
20
1.00994
11
-0.383267
21
1.01069
0
LINE
8
BLACK
6
CONTINUOUS
10
-0.383267
20
1.01069
11
-0.383182
21
1.01091
0
LINE
8
BLACK
6
CONTINUOUS
10
-0.383182
20
1.01091
11
-0.383223
21
1.01114
0
LINE
8
BLACK
6
CONTINUOUS
10
-0.383223
20
1.01114
11
-0.382825
21
1.01183
0
LINE
8
BLACK
6
CONTINUOUS
10
-0.382825
20
1.01183
11
-0.382537
21
1.01257
0
LINE
8
BLACK
6
CONTINUOUS
10
-0.382537
20
1.01257
11
-0.367137
21
1.03017
0
LINE
8
BLACK
6
CONTINUOUS
10
-0.367137
20
1.03017
11
-0.397188
21
1.03017
0
LINE
8
BLACK
6
CONTINUOUS
10
-0.397188
20
1.03017
11
-0.398198
21
1.03035
0
LINE
8
BLACK
6
CONTINUOUS
10
-0.398198
20
1.03035
11
-0.399745
21
1.03165
0
LINE
8
BLACK
6
CONTINUOUS
10
-0.399745
20
1.03165
11
-0.400096
21
1.03364
0
LINE
8
BLACK
6
CONTINUOUS
10
-0.400096
20
1.03364
11
-0.399086
21
1.03539
0
LINE
8
BLACK
6
CONTINUOUS
10
-0.399086
20
1.03539
11
-0.397188
21
1.03608
0
LINE
8
BLACK
6
CONTINUOUS
10
-0.397188
20
1.03608
11
-0.36063
21
1.03608
0
LINE
8
BLACK
6
CONTINUOUS
10
-0.36063
20
1.03608
11
-0.360193
21
1.036
0
LINE
8
BLACK
6
CONTINUOUS
10
-0.417423
20
1.03503
11
-0.416732
21
1.03313
0
LINE
8
BLACK
6
CONTINUOUS
10
-0.416732
20
1.03313
11
-0.416732
21
0.990945
0
LINE
8
BLACK
6
CONTINUOUS
10
-0.416732
20
0.990945
11
-0.416886
21
0.990075
0
LINE
8
BLACK
6
CONTINUOUS
10
-0.416886
20
0.990075
11
-0.416884
21
0.990011
0
LINE
8
BLACK
6
CONTINUOUS
10
-0.416884
20
0.990011
11
-0.419696
21
0.981575
0
LINE
8
BLACK
6
CONTINUOUS
10
-0.419696
20
0.981575
11
-0.420184
21
0.980673
0
LINE
8
BLACK
6
CONTINUOUS
10
-0.420184
20
0.980673
11
-0.420335
21
0.980581
0
LINE
8
BLACK
6
CONTINUOUS
10
-0.420335
20
0.980581
11
-0.420409
21
0.980421
0
LINE
8
BLACK
6
CONTINUOUS
10
-0.420409
20
0.980421
11
-0.426034
21
0.974796
0
LINE
8
BLACK
6
CONTINUOUS
10
-0.426034
20
0.974796
11
-0.426874
21
0.974208
0
LINE
8
BLACK
6
CONTINUOUS
10
-0.426874
20
0.974208
11
-0.427049
21
0.974193
0
LINE
8
BLACK
6
CONTINUOUS
10
-0.427049
20
0.974193
11
-0.427188
21
0.974083
0
LINE
8
BLACK
6
CONTINUOUS
10
-0.427188
20
0.974083
11
-0.435624
21
0.971271
0
LINE
8
BLACK
6
CONTINUOUS
10
-0.435624
20
0.971271
11
-0.436497
21
0.971141
0
LINE
8
BLACK
6
CONTINUOUS
10
-0.436497
20
0.971141
11
-0.436558
21
0.971119
0
LINE
8
BLACK
6
CONTINUOUS
10
-0.436558
20
0.971119
11
-0.442182
21
0.971119
0
LINE
8
BLACK
6
CONTINUOUS
10
-0.442182
20
0.971119
11
-0.443192
21
0.971297
0
LINE
8
BLACK
6
CONTINUOUS
10
-0.443192
20
0.971297
11
-0.444739
21
0.972596
0
LINE
8
BLACK
6
CONTINUOUS
10
-0.444739
20
0.972596
11
-0.44509
21
0.974585
0
LINE
8
BLACK
6
CONTINUOUS
10
-0.44509
20
0.974585
11
-0.44408
21
0.976334
0
LINE
8
BLACK
6
CONTINUOUS
10
-0.44408
20
0.976334
11
-0.442182
21
0.977025
0
LINE
8
BLACK
6
CONTINUOUS
10
-0.442182
20
0.977025
11
-0.437037
21
0.977025
0
LINE
8
BLACK
6
CONTINUOUS
10
-0.437037
20
0.977025
11
-0.429717
21
0.979465
0
LINE
8
BLACK
6
CONTINUOUS
10
-0.429717
20
0.979465
11
-0.425078
21
0.984104
0
LINE
8
BLACK
6
CONTINUOUS
10
-0.425078
20
0.984104
11
-0.422638
21
0.991424
0
LINE
8
BLACK
6
CONTINUOUS
10
-0.422638
20
0.991424
11
-0.422638
21
1.03313
0
LINE
8
BLACK
6
CONTINUOUS
10
-0.422638
20
1.03313
11
-0.42246
21
1.03414
0
LINE
8
BLACK
6
CONTINUOUS
10
-0.42246
20
1.03414
11
-0.421161
21
1.03568
0
LINE
8
BLACK
6
CONTINUOUS
10
-0.421161
20
1.03568
11
-0.419172
21
1.03604
0
LINE
8
BLACK
6
CONTINUOUS
10
-0.419172
20
1.03604
11
-0.417423
21
1.03503
0
LINE
8
BLACK
6
CONTINUOUS
10
-0.779626
20
1.00596
11
-0.778934
21
1.00429
0
LINE
8
BLACK
6
CONTINUOUS
10
-0.778934
20
1.00429
11
-0.779626
21
1.00262
0
LINE
8
BLACK
6
CONTINUOUS
10
-0.779626
20
1.00262
11
-0.781297
21
1.00193
0
LINE
8
BLACK
6
CONTINUOUS
10
-0.781297
20
1.00193
11
-0.799176
21
1.00193
0
LINE
8
BLACK
6
CONTINUOUS
10
-0.799176
20
1.00193
11
-0.800846
21
1.00262
0
LINE
8
BLACK
6
CONTINUOUS
10
-0.800846
20
1.00262
11
-0.801538
21
1.00429
0
LINE
8
BLACK
6
CONTINUOUS
10
-0.801538
20
1.00429
11
-0.800846
21
1.00596
0
LINE
8
BLACK
6
CONTINUOUS
10
-0.800846
20
1.00596
11
-0.799176
21
1.00665
0
LINE
8
BLACK
6
CONTINUOUS
10
-0.799176
20
1.00665
11
-0.781297
21
1.00665
0
LINE
8
BLACK
6
CONTINUOUS
10
-0.781297
20
1.00665
11
-0.779626
21
1.00596
0
LINE
8
BLACK
6
CONTINUOUS
10
-0.765792
20
1.06465
11
-0.765656
21
1.06454
0
LINE
8
BLACK
6
CONTINUOUS
10
-0.765656
20
1.06454
11
-0.765481
21
1.06452
0
LINE
8
BLACK
6
CONTINUOUS
10
-0.765481
20
1.06452
11
-0.761732
21
1.06264
0
LINE
8
BLACK
6
CONTINUOUS
10
-0.761732
20
1.06264
11
-0.761023
21
1.06212
0
LINE
8
BLACK
6
CONTINUOUS
10
-0.761023
20
1.06212
11
-0.760964
21
1.06209
0
LINE
8
BLACK
6
CONTINUOUS
10
-0.760964
20
1.06209
11
-0.759089
21
1.06021
0
LINE
8
BLACK
6
CONTINUOUS
10
-0.759089
20
1.06021
11
-0.758583
21
1.05949
0
LINE
8
BLACK
6
CONTINUOUS
10
-0.758583
20
1.05949
11
-0.758536
21
1.05945
0
LINE
8
BLACK
6
CONTINUOUS
10
-0.758536
20
1.05945
11
-0.756662
21
1.0557
0
LINE
8
BLACK
6
CONTINUOUS
10
-0.756662
20
1.0557
11
-0.756369
21
1.05471
0
LINE
8
BLACK
6
CONTINUOUS
10
-0.756369
20
1.05471
11
-0.75641
21
1.05454
0
LINE
8
BLACK
6
CONTINUOUS
10
-0.75641
20
1.05454
11
-0.75635
21
1.05438
0
LINE
8
BLACK
6
CONTINUOUS
10
-0.75635
20
1.05438
11
-0.75635
21
1.05063
0
LINE
8
BLACK
6
CONTINUOUS
10
-0.75635
20
1.05063
11
-0.756503
21
1.04976
0
LINE
8
BLACK
6
CONTINUOUS
10
-0.756503
20
1.04976
11
-0.756501
21
1.04969
0
LINE
8
BLACK
6
CONTINUOUS
10
-0.756501
20
1.04969
11
-0.758376
21
1.04407
0
LINE
8
BLACK
6
CONTINUOUS
10
-0.758376
20
1.04407
11
-0.758864
21
1.04317
0
LINE
8
BLACK
6
CONTINUOUS
10
-0.758864
20
1.04317
11
-0.759015
21
1.04307
0
LINE
8
BLACK
6
CONTINUOUS
10
-0.759015
20
1.04307
11
-0.759089
21
1.04291
0
LINE
8
BLACK
6
CONTINUOUS
10
-0.759089
20
1.04291
11
-0.776546
21
1.02546
0
LINE
8
BLACK
6
CONTINUOUS
10
-0.776546
20
1.02546
11
-0.759303
21
1.02546
0
LINE
8
BLACK
6
CONTINUOUS
10
-0.759303
20
1.02546
11
-0.758293
21
1.02528
0
LINE
8
BLACK
6
CONTINUOUS
10
-0.758293
20
1.02528
11
-0.756745
21
1.02398
0
LINE
8
BLACK
6
CONTINUOUS
10
-0.756745
20
1.02398
11
-0.756395
21
1.02199
0
LINE
8
BLACK
6
CONTINUOUS
10
-0.756395
20
1.02199
11
-0.757405
21
1.02024
0
LINE
8
BLACK
6
CONTINUOUS
10
-0.757405
20
1.02024
11
-0.759303
21
1.01955
0
LINE
8
BLACK
6
CONTINUOUS
10
-0.759303
20
1.01955
11
-0.783675
21
1.01955
0
LINE
8
BLACK
6
CONTINUOUS
10
-0.783675
20
1.01955
11
-0.784309
21
1.01966
0
LINE
8
BLACK
6
CONTINUOUS
10
-0.784309
20
1.01966
11
-0.784439
21
1.01965
0
LINE
8
BLACK
6
CONTINUOUS
10
-0.784439
20
1.01965
11
-0.784504
21
1.0197
0
LINE
8
BLACK
6
CONTINUOUS
10
-0.784504
20
1.0197
11
-0.784684
21
1.01973
0
LINE
8
BLACK
6
CONTINUOUS
10
-0.784684
20
1.01973
11
-0.785365
21
1.0203
0
LINE
8
BLACK
6
CONTINUOUS
10
-0.785365
20
1.0203
11
-0.786093
21
1.02081
0
LINE
8
BLACK
6
CONTINUOUS
10
-0.786093
20
1.02081
11
-0.786128
21
1.02094
0
LINE
8
BLACK
6
CONTINUOUS
10
-0.786128
20
1.02094
11
-0.786232
21
1.02103
0
LINE
8
BLACK
6
CONTINUOUS
10
-0.786232
20
1.02103
11
-0.786386
21
1.0219
0
LINE
8
BLACK
6
CONTINUOUS
10
-0.786386
20
1.0219
11
-0.786616
21
1.02276
0
LINE
8
BLACK
6
CONTINUOUS
10
-0.786616
20
1.02276
11
-0.786559
21
1.02288
0
LINE
8
BLACK
6
CONTINUOUS
10
-0.786559
20
1.02288
11
-0.786582
21
1.02302
0
LINE
8
BLACK
6
CONTINUOUS
10
-0.786582
20
1.02302
11
-0.786138
21
1.02379
0
LINE
8
BLACK
6
CONTINUOUS
10
-0.786138
20
1.02379
11
-0.785762
21
1.02459
0
LINE
8
BLACK
6
CONTINUOUS
10
-0.785762
20
1.02459
11
-0.763758
21
1.0466
0
LINE
8
BLACK
6
CONTINUOUS
10
-0.763758
20
1.0466
11
-0.762255
21
1.05111
0
LINE
8
BLACK
6
CONTINUOUS
10
-0.762255
20
1.05111
11
-0.762255
21
1.05368
0
LINE
8
BLACK
6
CONTINUOUS
10
-0.762255
20
1.05368
11
-0.763604
21
1.05638
0
LINE
8
BLACK
6
CONTINUOUS
10
-0.763604
20
1.05638
11
-0.764801
21
1.05757
0
LINE
8
BLACK
6
CONTINUOUS
10
-0.764801
20
1.05757
11
-0.767499
21
1.05892
0
LINE
8
BLACK
6
CONTINUOUS
10
-0.767499
20
1.05892
11
-0.775478
21
1.05892
0
LINE
8
BLACK
6
CONTINUOUS
10
-0.775478
20
1.05892
11
-0.778176
21
1.05757
0
LINE
8
BLACK
6
CONTINUOUS
10
-0.778176
20
1.05757
11
-0.779712
21
1.05604
0
LINE
8
BLACK
6
CONTINUOUS
10
-0.779712
20
1.05604
11
-0.780552
21
1.05545
0
LINE
8
BLACK
6
CONTINUOUS
10
-0.780552
20
1.05545
11
-0.782564
21
1.05527
0
LINE
8
BLACK
6
CONTINUOUS
10
-0.782564
20
1.05527
11
-0.784219
21
1.05643
0
LINE
8
BLACK
6
CONTINUOUS
10
-0.784219
20
1.05643
11
-0.784741
21
1.05838
0
LINE
8
BLACK
6
CONTINUOUS
10
-0.784741
20
1.05838
11
-0.783888
21
1.06021
0
LINE
8
BLACK
6
CONTINUOUS
10
-0.783888
20
1.06021
11
-0.782013
21
1.06209
0
LINE
8
BLACK
6
CONTINUOUS
10
-0.782013
20
1.06209
11
-0.78129
21
1.06259
0
LINE
8
BLACK
6
CONTINUOUS
10
-0.78129
20
1.06259
11
-0.781246
21
1.06264
0
LINE
8
BLACK
6
CONTINUOUS
10
-0.781246
20
1.06264
11
-0.777496
21
1.06452
0
LINE
8
BLACK
6
CONTINUOUS
10
-0.777496
20
1.06452
11
-0.776513
21
1.06481
0
LINE
8
BLACK
6
CONTINUOUS
10
-0.776513
20
1.06481
11
-0.776341
21
1.06477
0
LINE
8
BLACK
6
CONTINUOUS
10
-0.776341
20
1.06477
11
-0.776176
21
1.06483
0
LINE
8
BLACK
6
CONTINUOUS
10
-0.776176
20
1.06483
11
-0.766802
21
1.06483
0
LINE
8
BLACK
6
CONTINUOUS
10
-0.766802
20
1.06483
11
-0.765792
21
1.06465
0
LINE
8
BLACK
6
CONTINUOUS
10
-0.803287
20
1.06465
11
-0.803152
21
1.06454
0
LINE
8
BLACK
6
CONTINUOUS
10
-0.803152
20
1.06454
11
-0.802976
21
1.06452
0
LINE
8
BLACK
6
CONTINUOUS
10
-0.802976
20
1.06452
11
-0.799227
21
1.06264
0
LINE
8
BLACK
6
CONTINUOUS
10
-0.799227
20
1.06264
11
-0.798518
21
1.06212
0
LINE
8
BLACK
6
CONTINUOUS
10
-0.798518
20
1.06212
11
-0.79846
21
1.06209
0
LINE
8
BLACK
6
CONTINUOUS
10
-0.79846
20
1.06209
11
-0.796585
21
1.06021
0
LINE
8
BLACK
6
CONTINUOUS
10
-0.796585
20
1.06021
11
-0.796078
21
1.05949
0
LINE
8
BLACK
6
CONTINUOUS
10
-0.796078
20
1.05949
11
-0.796032
21
1.05945
0
LINE
8
BLACK
6
CONTINUOUS
10
-0.796032
20
1.05945
11
-0.794157
21
1.0557
0
LINE
8
BLACK
6
CONTINUOUS
10
-0.794157
20
1.0557
11
-0.793865
21
1.05471
0
LINE
8
BLACK
6
CONTINUOUS
10
-0.793865
20
1.05471
11
-0.793906
21
1.05454
0
LINE
8
BLACK
6
CONTINUOUS
10
-0.793906
20
1.05454
11
-0.793845
21
1.05438
0
LINE
8
BLACK
6
CONTINUOUS
10
-0.793845
20
1.05438
11
-0.793845
21
1.04875
0
LINE
8
BLACK
6
CONTINUOUS
10
-0.793845
20
1.04875
11
-0.794023
21
1.04774
0
LINE
8
BLACK
6
CONTINUOUS
10
-0.794023
20
1.04774
11
-0.794137
21
1.04761
0
LINE
8
BLACK
6
CONTINUOUS
10
-0.794137
20
1.04761
11
-0.794157
21
1.04743
0
LINE
8
BLACK
6
CONTINUOUS
10
-0.794157
20
1.04743
11
-0.796032
21
1.04368
0
LINE
8
BLACK
6
CONTINUOUS
10
-0.796032
20
1.04368
11
-0.796558
21
1.04297
0
LINE
8
BLACK
6
CONTINUOUS
10
-0.796558
20
1.04297
11
-0.796585
21
1.04291
0
LINE
8
BLACK
6
CONTINUOUS
10
-0.796585
20
1.04291
11
-0.79846
21
1.04104
0
LINE
8
BLACK
6
CONTINUOUS
10
-0.79846
20
1.04104
11
-0.799183
21
1.04053
0
LINE
8
BLACK
6
CONTINUOUS
10
-0.799183
20
1.04053
11
-0.799227
21
1.04049
0
LINE
8
BLACK
6
CONTINUOUS
10
-0.799227
20
1.04049
11
-0.802976
21
1.03861
0
LINE
8
BLACK
6
CONTINUOUS
10
-0.802976
20
1.03861
11
-0.803959
21
1.03832
0
LINE
8
BLACK
6
CONTINUOUS
10
-0.803959
20
1.03832
11
-0.804131
21
1.03836
0
LINE
8
BLACK
6
CONTINUOUS
10
-0.804131
20
1.03836
11
-0.80426
21
1.03831
0
LINE
8
BLACK
6
CONTINUOUS
10
-0.80426
20
1.03831
11
-0.794379
21
1.0242
0
LINE
8
BLACK
6
CONTINUOUS
10
-0.794379
20
1.0242
11
-0.793946
21
1.02327
0
LINE
8
BLACK
6
CONTINUOUS
10
-0.793946
20
1.02327
11
-0.794122
21
1.02126
0
LINE
8
BLACK
6
CONTINUOUS
10
-0.794122
20
1.02126
11
-0.79555
21
1.01983
0
LINE
8
BLACK
6
CONTINUOUS
10
-0.79555
20
1.01983
11
-0.797563
21
1.01965
0
LINE
8
BLACK
6
CONTINUOUS
10
-0.797563
20
1.01965
11
-0.799217
21
1.02081
0
LINE
8
BLACK
6
CONTINUOUS
10
-0.799217
20
1.02081
11
-0.811459
21
1.0383
0
LINE
8
BLACK
6
CONTINUOUS
10
-0.811459
20
1.0383
11
-0.816342
21
1.0383
0
LINE
8
BLACK
6
CONTINUOUS
10
-0.816342
20
1.0383
11
-0.816342
21
1.0225
0
LINE
8
BLACK
6
CONTINUOUS
10
-0.816342
20
1.0225
11
-0.81652
21
1.02149
0
LINE
8
BLACK
6
CONTINUOUS
10
-0.81652
20
1.02149
11
-0.817819
21
1.01995
0
LINE
8
BLACK
6
CONTINUOUS
10
-0.817819
20
1.01995
11
-0.819808
21
1.0196
0
LINE
8
BLACK
6
CONTINUOUS
10
-0.819808
20
1.0196
11
-0.821557
21
1.02061
0
LINE
8
BLACK
6
CONTINUOUS
10
-0.821557
20
1.02061
11
-0.822248
21
1.0225
0
LINE
8
BLACK
6
CONTINUOUS
10
-0.822248
20
1.0225
11
-0.822248
21
1.06187
0
LINE
8
BLACK
6
CONTINUOUS
10
-0.822248
20
1.06187
11
-0.82218
21
1.06226
0
LINE
8
BLACK
6
CONTINUOUS
10
-0.82218
20
1.06226
11
-0.822203
21
1.06239
0
LINE
8
BLACK
6
CONTINUOUS
10
-0.822203
20
1.06239
11
-0.822137
21
1.0625
0
LINE
8
BLACK
6
CONTINUOUS
10
-0.822137
20
1.0625
11
-0.82207
21
1.06288
0
LINE
8
BLACK
6
CONTINUOUS
10
-0.82207
20
1.06288
11
-0.821577
21
1.06347
0
LINE
8
BLACK
6
CONTINUOUS
10
-0.821577
20
1.06347
11
-0.821193
21
1.06414
0
LINE
8
BLACK
6
CONTINUOUS
10
-0.821193
20
1.06414
11
-0.820943
21
1.06423
0
LINE
8
BLACK
6
CONTINUOUS
10
-0.820943
20
1.06423
11
-0.820771
21
1.06443
0
LINE
8
BLACK
6
CONTINUOUS
10
-0.820771
20
1.06443
11
-0.820016
21
1.06457
0
LINE
8
BLACK
6
CONTINUOUS
10
-0.820016
20
1.06457
11
-0.819295
21
1.06483
0
LINE
8
BLACK
6
CONTINUOUS
10
-0.819295
20
1.06483
11
-0.804297
21
1.06483
0
LINE
8
BLACK
6
CONTINUOUS
10
-0.804297
20
1.06483
11
-0.803287
21
1.06465
0
LINE
8
BLACK
6
CONTINUOUS
10
-0.816342
20
1.05892
11
-0.816342
21
1.04421
0
LINE
8
BLACK
6
CONTINUOUS
10
-0.816342
20
1.04421
11
-0.804994
21
1.04421
0
LINE
8
BLACK
6
CONTINUOUS
10
-0.804994
20
1.04421
11
-0.802297
21
1.04555
0
LINE
8
BLACK
6
CONTINUOUS
10
-0.802297
20
1.04555
11
-0.801099
21
1.04675
0
LINE
8
BLACK
6
CONTINUOUS
10
-0.801099
20
1.04675
11
-0.799751
21
1.04945
0
LINE
8
BLACK
6
CONTINUOUS
10
-0.799751
20
1.04945
11
-0.799751
21
1.05368
0
LINE
8
BLACK
6
CONTINUOUS
10
-0.799751
20
1.05368
11
-0.801099
21
1.05638
0
LINE
8
BLACK
6
CONTINUOUS
10
-0.801099
20
1.05638
11
-0.802297
21
1.05757
0
LINE
8
BLACK
6
CONTINUOUS
10
-0.802297
20
1.05757
11
-0.804994
21
1.05892
0
LINE
8
BLACK
6
CONTINUOUS
10
-0.804994
20
1.05892
11
-0.816342
21
1.05892
0
LINE
8
BLACK
6
CONTINUOUS
10
-0.35899
20
1.06598
11
-0.357443
21
1.06468
0
LINE
8
BLACK
6
CONTINUOUS
10
-0.357443
20
1.06468
11
-0.357092
21
1.06269
0
LINE
8
BLACK
6
CONTINUOUS
10
-0.357092
20
1.06269
11
-0.358102
21
1.06094
0
LINE
8
BLACK
6
CONTINUOUS
10
-0.358102
20
1.06094
11
-0.36
21
1.06025
0
LINE
8
BLACK
6
CONTINUOUS
10
-0.36
20
1.06025
11
-0.44
21
1.06025
0
LINE
8
BLACK
6
CONTINUOUS
10
-0.44
20
1.06025
11
-0.44101
21
1.06043
0
LINE
8
BLACK
6
CONTINUOUS
10
-0.44101
20
1.06043
11
-0.442557
21
1.06173
0
LINE
8
BLACK
6
CONTINUOUS
10
-0.442557
20
1.06173
11
-0.442908
21
1.06372
0
LINE
8
BLACK
6
CONTINUOUS
10
-0.442908
20
1.06372
11
-0.441898
21
1.06547
0
LINE
8
BLACK
6
CONTINUOUS
10
-0.441898
20
1.06547
11
-0.44
21
1.06616
0
LINE
8
BLACK
6
CONTINUOUS
10
-0.44
20
1.06616
11
-0.36
21
1.06616
0
LINE
8
BLACK
6
CONTINUOUS
10
-0.36
20
1.06616
11
-0.35899
21
1.06598
0
LINE
8
BLACK
6
CONTINUOUS
10
-0.535533
20
1.2419
11
-0.534843
21
1.24
0
LINE
8
BLACK
6
CONTINUOUS
10
-0.534843
20
1.24
11
-0.534843
21
1.16
0
LINE
8
BLACK
6
CONTINUOUS
10
-0.534843
20
1.16
11
-0.535021
21
1.15899
0
LINE
8
BLACK
6
CONTINUOUS
10
-0.535021
20
1.15899
11
-0.536319
21
1.15744
0
LINE
8
BLACK
6
CONTINUOUS
10
-0.536319
20
1.15744
11
-0.538308
21
1.15709
0
LINE
8
BLACK
6
CONTINUOUS
10
-0.538308
20
1.15709
11
-0.540057
21
1.1581
0
LINE
8
BLACK
6
CONTINUOUS
10
-0.540057
20
1.1581
11
-0.540748
21
1.16
0
LINE
8
BLACK
6
CONTINUOUS
10
-0.540748
20
1.16
11
-0.540748
21
1.24
0
LINE
8
BLACK
6
CONTINUOUS
10
-0.540748
20
1.24
11
-0.54057
21
1.24101
0
LINE
8
BLACK
6
CONTINUOUS
10
-0.54057
20
1.24101
11
-0.539272
21
1.24256
0
LINE
8
BLACK
6
CONTINUOUS
10
-0.539272
20
1.24256
11
-0.537283
21
1.24291
0
LINE
8
BLACK
6
CONTINUOUS
10
-0.537283
20
1.24291
11
-0.535533
21
1.2419
0
LINE
8
BLACK
6
CONTINUOUS
10
-0.259943
20
1.2419
11
-0.259252
21
1.24
0
LINE
8
BLACK
6
CONTINUOUS
10
-0.259252
20
1.24
11
-0.259252
21
1.16
0
LINE
8
BLACK
6
CONTINUOUS
10
-0.259252
20
1.16
11
-0.25943
21
1.15899
0
LINE
8
BLACK
6
CONTINUOUS
10
-0.25943
20
1.15899
11
-0.260728
21
1.15744
0
LINE
8
BLACK
6
CONTINUOUS
10
-0.260728
20
1.15744
11
-0.262717
21
1.15709
0
LINE
8
BLACK
6
CONTINUOUS
10
-0.262717
20
1.15709
11
-0.264467
21
1.1581
0
LINE
8
BLACK
6
CONTINUOUS
10
-0.264467
20
1.1581
11
-0.265157
21
1.16
0
LINE
8
BLACK
6
CONTINUOUS
10
-0.265157
20
1.16
11
-0.265157
21
1.24
0
LINE
8
BLACK
6
CONTINUOUS
10
-0.265157
20
1.24
11
-0.264979
21
1.24101
0
LINE
8
BLACK
6
CONTINUOUS
10
-0.264979
20
1.24101
11
-0.263681
21
1.24256
0
LINE
8
BLACK
6
CONTINUOUS
10
-0.263681
20
1.24256
11
-0.261692
21
1.24291
0
LINE
8
BLACK
6
CONTINUOUS
10
-0.261692
20
1.24291
11
-0.259943
21
1.2419
0
LINE
8
BLACK
6
CONTINUOUS
10
-0.35899
20
1.34057
11
-0.357443
21
1.33927
0
LINE
8
BLACK
6
CONTINUOUS
10
-0.357443
20
1.33927
11
-0.357092
21
1.33728
0
LINE
8
BLACK
6
CONTINUOUS
10
-0.357092
20
1.33728
11
-0.358102
21
1.33553
0
LINE
8
BLACK
6
CONTINUOUS
10
-0.358102
20
1.33553
11
-0.36
21
1.33484
0
LINE
8
BLACK
6
CONTINUOUS
10
-0.36
20
1.33484
11
-0.44
21
1.33484
0
LINE
8
BLACK
6
CONTINUOUS
10
-0.44
20
1.33484
11
-0.44101
21
1.33502
0
LINE
8
BLACK
6
CONTINUOUS
10
-0.44101
20
1.33502
11
-0.442557
21
1.33632
0
LINE
8
BLACK
6
CONTINUOUS
10
-0.442557
20
1.33632
11
-0.442908
21
1.33831
0
LINE
8
BLACK
6
CONTINUOUS
10
-0.442908
20
1.33831
11
-0.441898
21
1.34006
0
LINE
8
BLACK
6
CONTINUOUS
10
-0.441898
20
1.34006
11
-0.44
21
1.34075
0
LINE
8
BLACK
6
CONTINUOUS
10
-0.44
20
1.34075
11
-0.36
21
1.34075
0
LINE
8
BLACK
6
CONTINUOUS
10
-0.36
20
1.34075
11
-0.35899
21
1.34057
0
LINE
8
BLACK
6
CONTINUOUS
10
-0.370869
20
1.4359
11
-0.370733
21
1.43579
0
LINE
8
BLACK
6
CONTINUOUS
10
-0.370733
20
1.43579
11
-0.370558
21
1.43577
0
LINE
8
BLACK
6
CONTINUOUS
10
-0.370558
20
1.43577
11
-0.364934
21
1.43296
0
LINE
8
BLACK
6
CONTINUOUS
10
-0.364934
20
1.43296
11
-0.364225
21
1.43243
0
LINE
8
BLACK
6
CONTINUOUS
10
-0.364225
20
1.43243
11
-0.364166
21
1.4324
0
LINE
8
BLACK
6
CONTINUOUS
10
-0.364166
20
1.4324
11
-0.361354
21
1.42959
0
LINE
8
BLACK
6
CONTINUOUS
10
-0.361354
20
1.42959
11
-0.360848
21
1.42887
0
LINE
8
BLACK
6
CONTINUOUS
10
-0.360848
20
1.42887
11
-0.360801
21
1.42882
0
LINE
8
BLACK
6
CONTINUOUS
10
-0.360801
20
1.42882
11
-0.357989
21
1.4232
0
LINE
8
BLACK
6
CONTINUOUS
10
-0.357989
20
1.4232
11
-0.357697
21
1.42222
0
LINE
8
BLACK
6
CONTINUOUS
10
-0.357697
20
1.42222
11
-0.357738
21
1.42204
0
LINE
8
BLACK
6
CONTINUOUS
10
-0.357738
20
1.42204
11
-0.357677
21
1.42188
0
LINE
8
BLACK
6
CONTINUOUS
10
-0.357677
20
1.42188
11
-0.357677
21
1.41625
0
LINE
8
BLACK
6
CONTINUOUS
10
-0.357677
20
1.41625
11
-0.35783
21
1.41538
0
LINE
8
BLACK
6
CONTINUOUS
10
-0.35783
20
1.41538
11
-0.357829
21
1.41532
0
LINE
8
BLACK
6
CONTINUOUS
10
-0.357829
20
1.41532
11
-0.360641
21
1.40688
0
LINE
8
BLACK
6
CONTINUOUS
10
-0.360641
20
1.40688
11
-0.361129
21
1.40598
0
LINE
8
BLACK
6
CONTINUOUS
10
-0.361129
20
1.40598
11
-0.36128
21
1.40589
0
LINE
8
BLACK
6
CONTINUOUS
10
-0.36128
20
1.40589
11
-0.361354
21
1.40573
0
LINE
8
BLACK
6
CONTINUOUS
10
-0.361354
20
1.40573
11
-0.390059
21
1.37702
0
LINE
8
BLACK
6
CONTINUOUS
10
-0.390059
20
1.37702
11
-0.36063
21
1.37702
0
LINE
8
BLACK
6
CONTINUOUS
10
-0.36063
20
1.37702
11
-0.35962
21
1.37685
0
LINE
8
BLACK
6
CONTINUOUS
10
-0.35962
20
1.37685
11
-0.358073
21
1.37555
0
LINE
8
BLACK
6
CONTINUOUS
10
-0.358073
20
1.37555
11
-0.357722
21
1.37356
0
LINE
8
BLACK
6
CONTINUOUS
10
-0.357722
20
1.37356
11
-0.358732
21
1.37181
0
LINE
8
BLACK
6
CONTINUOUS
10
-0.358732
20
1.37181
11
-0.36063
21
1.37112
0
LINE
8
BLACK
6
CONTINUOUS
10
-0.36063
20
1.37112
11
-0.397188
21
1.37112
0
LINE
8
BLACK
6
CONTINUOUS
10
-0.397188
20
1.37112
11
-0.397823
21
1.37123
0
LINE
8
BLACK
6
CONTINUOUS
10
-0.397823
20
1.37123
11
-0.397952
21
1.37122
0
LINE
8
BLACK
6
CONTINUOUS
10
-0.397952
20
1.37122
11
-0.398017
21
1.37127
0
LINE
8
BLACK
6
CONTINUOUS
10
-0.398017
20
1.37127
11
-0.398198
21
1.3713
0
LINE
8
BLACK
6
CONTINUOUS
10
-0.398198
20
1.3713
11
-0.398879
21
1.37187
0
LINE
8
BLACK
6
CONTINUOUS
10
-0.398879
20
1.37187
11
-0.399607
21
1.37238
0
LINE
8
BLACK
6
CONTINUOUS
10
-0.399607
20
1.37238
11
-0.399642
21
1.37251
0
LINE
8
BLACK
6
CONTINUOUS
10
-0.399642
20
1.37251
11
-0.399745
21
1.3726
0
LINE
8
BLACK
6
CONTINUOUS
10
-0.399745
20
1.3726
11
-0.399899
21
1.37347
0
LINE
8
BLACK
6
CONTINUOUS
10
-0.399899
20
1.37347
11
-0.400129
21
1.37433
0
LINE
8
BLACK
6
CONTINUOUS
10
-0.400129
20
1.37433
11
-0.400072
21
1.37445
0
LINE
8
BLACK
6
CONTINUOUS
10
-0.400072
20
1.37445
11
-0.400096
21
1.37458
0
LINE
8
BLACK
6
CONTINUOUS
10
-0.400096
20
1.37458
11
-0.399651
21
1.37535
0
LINE
8
BLACK
6
CONTINUOUS
10
-0.399651
20
1.37535
11
-0.399276
21
1.37616
0
LINE
8
BLACK
6
CONTINUOUS
10
-0.399276
20
1.37616
11
-0.366023
21
1.40941
0
LINE
8
BLACK
6
CONTINUOUS
10
-0.366023
20
1.40941
11
-0.363583
21
1.41673
0
LINE
8
BLACK
6
CONTINUOUS
10
-0.363583
20
1.41673
11
-0.363583
21
1.42118
0
LINE
8
BLACK
6
CONTINUOUS
10
-0.363583
20
1.42118
11
-0.365869
21
1.42575
0
LINE
8
BLACK
6
CONTINUOUS
10
-0.365869
20
1.42575
11
-0.368003
21
1.42789
0
LINE
8
BLACK
6
CONTINUOUS
10
-0.368003
20
1.42789
11
-0.372576
21
1.43017
0
LINE
8
BLACK
6
CONTINUOUS
10
-0.372576
20
1.43017
11
-0.385242
21
1.43017
0
LINE
8
BLACK
6
CONTINUOUS
10
-0.385242
20
1.43017
11
-0.389814
21
1.42789
0
LINE
8
BLACK
6
CONTINUOUS
10
-0.389814
20
1.42789
11
-0.392288
21
1.42541
0
LINE
8
BLACK
6
CONTINUOUS
10
-0.392288
20
1.42541
11
-0.393128
21
1.42483
0
LINE
8
BLACK
6
CONTINUOUS
10
-0.393128
20
1.42483
11
-0.39514
21
1.42465
0
LINE
8
BLACK
6
CONTINUOUS
10
-0.39514
20
1.42465
11
-0.396794
21
1.42581
0
LINE
8
BLACK
6
CONTINUOUS
10
-0.396794
20
1.42581
11
-0.397317
21
1.42776
0
LINE
8
BLACK
6
CONTINUOUS
10
-0.397317
20
1.42776
11
-0.396464
21
1.42959
0
LINE
8
BLACK
6
CONTINUOUS
10
-0.396464
20
1.42959
11
-0.393651
21
1.4324
0
LINE
8
BLACK
6
CONTINUOUS
10
-0.393651
20
1.4324
11
-0.392928
21
1.43291
0
LINE
8
BLACK
6
CONTINUOUS
10
-0.392928
20
1.43291
11
-0.392884
21
1.43296
0
LINE
8
BLACK
6
CONTINUOUS
10
-0.392884
20
1.43296
11
-0.38726
21
1.43577
0
LINE
8
BLACK
6
CONTINUOUS
10
-0.38726
20
1.43577
11
-0.386277
21
1.43606
0
LINE
8
BLACK
6
CONTINUOUS
10
-0.386277
20
1.43606
11
-0.386105
21
1.43602
0
LINE
8
BLACK
6
CONTINUOUS
10
-0.386105
20
1.43602
11
-0.385939
21
1.43608
0
LINE
8
BLACK
6
CONTINUOUS
10
-0.385939
20
1.43608
11
-0.371879
21
1.43608
0
LINE
8
BLACK
6
CONTINUOUS
10
-0.371879
20
1.43608
11
-0.370869
21
1.4359
0
LINE
8
BLACK
6
CONTINUOUS
10
-0.417423
20
1.43503
11
-0.416732
21
1.43313
0
LINE
8
BLACK
6
CONTINUOUS
10
-0.416732
20
1.43313
11
-0.416732
21
1.39094
0
LINE
8
BLACK
6
CONTINUOUS
10
-0.416732
20
1.39094
11
-0.416886
21
1.39008
0
LINE
8
BLACK
6
CONTINUOUS
10
-0.416886
20
1.39008
11
-0.416884
21
1.39001
0
LINE
8
BLACK
6
CONTINUOUS
10
-0.416884
20
1.39001
11
-0.419696
21
1.38157
0
LINE
8
BLACK
6
CONTINUOUS
10
-0.419696
20
1.38157
11
-0.420184
21
1.38067
0
LINE
8
BLACK
6
CONTINUOUS
10
-0.420184
20
1.38067
11
-0.420335
21
1.38058
0
LINE
8
BLACK
6
CONTINUOUS
10
-0.420335
20
1.38058
11
-0.420409
21
1.38042
0
LINE
8
BLACK
6
CONTINUOUS
10
-0.420409
20
1.38042
11
-0.426034
21
1.3748
0
LINE
8
BLACK
6
CONTINUOUS
10
-0.426034
20
1.3748
11
-0.426874
21
1.37421
0
LINE
8
BLACK
6
CONTINUOUS
10
-0.426874
20
1.37421
11
-0.427049
21
1.37419
0
LINE
8
BLACK
6
CONTINUOUS
10
-0.427049
20
1.37419
11
-0.427188
21
1.37408
0
LINE
8
BLACK
6
CONTINUOUS
10
-0.427188
20
1.37408
11
-0.435624
21
1.37127
0
LINE
8
BLACK
6
CONTINUOUS
10
-0.435624
20
1.37127
11
-0.436497
21
1.37114
0
LINE
8
BLACK
6
CONTINUOUS
10
-0.436497
20
1.37114
11
-0.436558
21
1.37112
0
LINE
8
BLACK
6
CONTINUOUS
10
-0.436558
20
1.37112
11
-0.442182
21
1.37112
0
LINE
8
BLACK
6
CONTINUOUS
10
-0.442182
20
1.37112
11
-0.443192
21
1.3713
0
LINE
8
BLACK
6
CONTINUOUS
10
-0.443192
20
1.3713
11
-0.444739
21
1.3726
0
LINE
8
BLACK
6
CONTINUOUS
10
-0.444739
20
1.3726
11
-0.44509
21
1.37458
0
LINE
8
BLACK
6
CONTINUOUS
10
-0.44509
20
1.37458
11
-0.44408
21
1.37633
0
LINE
8
BLACK
6
CONTINUOUS
10
-0.44408
20
1.37633
11
-0.442182
21
1.37702
0
LINE
8
BLACK
6
CONTINUOUS
10
-0.442182
20
1.37702
11
-0.437037
21
1.37702
0
LINE
8
BLACK
6
CONTINUOUS
10
-0.437037
20
1.37702
11
-0.429717
21
1.37946
0
LINE
8
BLACK
6
CONTINUOUS
10
-0.429717
20
1.37946
11
-0.425078
21
1.3841
0
LINE
8
BLACK
6
CONTINUOUS
10
-0.425078
20
1.3841
11
-0.422638
21
1.39142
0
LINE
8
BLACK
6
CONTINUOUS
10
-0.422638
20
1.39142
11
-0.422638
21
1.43313
0
LINE
8
BLACK
6
CONTINUOUS
10
-0.422638
20
1.43313
11
-0.42246
21
1.43414
0
LINE
8
BLACK
6
CONTINUOUS
10
-0.42246
20
1.43414
11
-0.421161
21
1.43568
0
LINE
8
BLACK
6
CONTINUOUS
10
-0.421161
20
1.43568
11
-0.419172
21
1.43604
0
LINE
8
BLACK
6
CONTINUOUS
10
-0.419172
20
1.43604
11
-0.417423
21
1.43503
  0
ENDSEC
  0
EOF
