  0
SECTION
  2
HEADER
  9
$ANGBASE
  50
0.0
  9
$ANGDIR
  70
1
  9
$MEASUREMENT
  70
0
  0
ENDSEC
  0
SECTION
  2
TABLES
  0
TABLE
  2
LTYPE
  70
4
  0
LTYPE
  5
40F
  2
CONTINUOUS
  70
0
  3
Solid line
  72
65
  73
0
  40
0.0
  0
LTYPE
  5
410
  2
DASHDOT
 70
0
  3
Dash Dot ____ _ ____ _
 72
65
 73
4
 40
2.0
 49
1.25
 49
-0.25
 49
0.25
 49
-0.25
  0
LTYPE
  5
411
  2
DASHED
 70
0
  3
Dashed __ __ __ __ __
 72
65
 73
2
 40
0.75
 49
0.5
 49
-0.25
  0
LTYPE
  5
43B
  2
DOTTED
 70
0
  3
Dotted .  .  .  .
 72
65
 73
2
 40
0.2
 49
0.0
 49
-0.2
  0
ENDTAB
  0
TABLE
  2
STYLE
  70
4
  0
STYLE
  2
KICAD
  70
0
  40
0
  41
1
  42
1
  50
0
  71
0
  3
isocp.shx
  0
STYLE
  2
KICADB
  70
0
  40
0
  41
1
  42
1
  50
0
  71
0
  3
isocp.shx
  0
STYLE
  2
KICADI
  70
0
  40
0
  41
1
  42
1
  50
15
  71
0
  3
isocp.shx
  0
STYLE
  2
KICADBI
  70
0
  40
0
  41
1
  42
1
  50
15
  71
0
  3
isocp.shx
  0
ENDTAB
  0
TABLE
  2
LAYER
  70
1
  0
LAYER
  2
BLACK
  70
0
  62
7
  6
CONTINUOUS
  0
ENDTAB
  0
ENDSEC
  0
SECTION
  2
ENTITIES
0
LINE
8
BLACK
6
CONTINUOUS
10
0.3398530708661417
20
0.2718420472440945
11
0.3411303543307087
21
0.2709886220472441
0
LINE
8
BLACK
6
CONTINUOUS
10
0.3411303543307087
20
0.2709886220472441
11
0.341983779527559
21
0.2697113385826772
0
LINE
8
BLACK
6
CONTINUOUS
10
0.341983779527559
20
0.2697113385826772
11
0.3422834645669292
21
0.2682047244094488
0
LINE
8
BLACK
6
CONTINUOUS
10
0.3422834645669292
20
0.2682047244094488
11
0.3422834645669292
21
0.2239133858267716
0
LINE
8
BLACK
6
CONTINUOUS
10
0.3422834645669292
20
0.2239133858267716
11
0.341983779527559
21
0.2224067716535433
0
LINE
8
BLACK
6
CONTINUOUS
10
0.341983779527559
20
0.2224067716535433
11
0.3411303543307087
21
0.2211294881889764
0
LINE
8
BLACK
6
CONTINUOUS
10
0.3411303543307087
20
0.2211294881889764
11
0.3398530708661417
21
0.220276062992126
0
LINE
8
BLACK
6
CONTINUOUS
10
0.3398530708661417
20
0.220276062992126
11
0.3383464566929134
21
0.2199763779527559
0
LINE
8
BLACK
6
CONTINUOUS
10
0.3383464566929134
20
0.2199763779527559
11
0.3304724409448819
21
0.2199763779527559
0
LINE
8
BLACK
6
CONTINUOUS
10
0.3304724409448819
20
0.2199763779527559
11
0.3289658267716535
21
0.220276062992126
0
LINE
8
BLACK
6
CONTINUOUS
10
0.3289658267716535
20
0.220276062992126
11
0.3276885433070866
21
0.2211294881889764
0
LINE
8
BLACK
6
CONTINUOUS
10
0.3276885433070866
20
0.2211294881889764
11
0.3268351181102362
21
0.2224067716535433
0
LINE
8
BLACK
6
CONTINUOUS
10
0.3268351181102362
20
0.2224067716535433
11
0.3265354330708661
21
0.2239133858267716
0
LINE
8
BLACK
6
CONTINUOUS
10
0.3265354330708661
20
0.2239133858267716
11
0.3265354330708661
21
0.2682047244094488
0
LINE
8
BLACK
6
CONTINUOUS
10
0.3265354330708661
20
0.2682047244094488
11
0.3268351181102362
21
0.2697113385826772
0
LINE
8
BLACK
6
CONTINUOUS
10
0.3268351181102362
20
0.2697113385826772
11
0.3276885433070866
21
0.2709886220472441
0
LINE
8
BLACK
6
CONTINUOUS
10
0.3276885433070866
20
0.2709886220472441
11
0.3289658267716535
21
0.2718420472440945
0
LINE
8
BLACK
6
CONTINUOUS
10
0.3289658267716535
20
0.2718420472440945
11
0.3304724409448819
21
0.2721417322834646
0
LINE
8
BLACK
6
CONTINUOUS
10
0.3304724409448819
20
0.2721417322834646
11
0.3383464566929134
21
0.2721417322834646
0
LINE
8
BLACK
6
CONTINUOUS
10
0.3383464566929134
20
0.2721417322834646
11
0.3398530708661417
21
0.2718420472440945
0
LINE
8
BLACK
6
CONTINUOUS
10
0.3654436220472441
20
0.2718420472440945
11
0.366720905511811
21
0.2709886220472441
0
LINE
8
BLACK
6
CONTINUOUS
10
0.366720905511811
20
0.2709886220472441
11
0.3675743307086614
21
0.2697113385826772
0
LINE
8
BLACK
6
CONTINUOUS
10
0.3675743307086614
20
0.2697113385826772
11
0.3678740157480315
21
0.2682047244094488
0
LINE
8
BLACK
6
CONTINUOUS
10
0.3678740157480315
20
0.2682047244094488
11
0.3678740157480315
21
0.2239133858267716
0
LINE
8
BLACK
6
CONTINUOUS
10
0.3678740157480315
20
0.2239133858267716
11
0.3675743307086614
21
0.2224067716535433
0
LINE
8
BLACK
6
CONTINUOUS
10
0.3675743307086614
20
0.2224067716535433
11
0.366720905511811
21
0.2211294881889764
0
LINE
8
BLACK
6
CONTINUOUS
10
0.366720905511811
20
0.2211294881889764
11
0.3654436220472441
21
0.220276062992126
0
LINE
8
BLACK
6
CONTINUOUS
10
0.3654436220472441
20
0.220276062992126
11
0.3639370078740157
21
0.2199763779527559
0
LINE
8
BLACK
6
CONTINUOUS
10
0.3639370078740157
20
0.2199763779527559
11
0.3560629921259842
21
0.2199763779527559
0
LINE
8
BLACK
6
CONTINUOUS
10
0.3560629921259842
20
0.2199763779527559
11
0.3545563779527559
21
0.220276062992126
0
LINE
8
BLACK
6
CONTINUOUS
10
0.3545563779527559
20
0.220276062992126
11
0.3532790944881889
21
0.2211294881889764
0
LINE
8
BLACK
6
CONTINUOUS
10
0.3532790944881889
20
0.2211294881889764
11
0.3524256692913386
21
0.2224067716535433
0
LINE
8
BLACK
6
CONTINUOUS
10
0.3524256692913386
20
0.2224067716535433
11
0.3521259842519685
21
0.2239133858267716
0
LINE
8
BLACK
6
CONTINUOUS
10
0.3521259842519685
20
0.2239133858267716
11
0.3521259842519685
21
0.2682047244094488
0
LINE
8
BLACK
6
CONTINUOUS
10
0.3521259842519685
20
0.2682047244094488
11
0.3524256692913386
21
0.2697113385826772
0
LINE
8
BLACK
6
CONTINUOUS
10
0.3524256692913386
20
0.2697113385826772
11
0.3532790944881889
21
0.2709886220472441
0
LINE
8
BLACK
6
CONTINUOUS
10
0.3532790944881889
20
0.2709886220472441
11
0.3545563779527559
21
0.2718420472440945
0
LINE
8
BLACK
6
CONTINUOUS
10
0.3545563779527559
20
0.2718420472440945
11
0.3560629921259842
21
0.2721417322834646
0
LINE
8
BLACK
6
CONTINUOUS
10
0.3560629921259842
20
0.2721417322834646
11
0.3639370078740157
21
0.2721417322834646
0
LINE
8
BLACK
6
CONTINUOUS
10
0.3639370078740157
20
0.2721417322834646
11
0.3654436220472441
21
0.2718420472440945
0
LINE
8
BLACK
6
CONTINUOUS
10
0.3910341732283464
20
0.2718420472440945
11
0.3923114566929134
21
0.2709886220472441
0
LINE
8
BLACK
6
CONTINUOUS
10
0.3923114566929134
20
0.2709886220472441
11
0.3931648818897638
21
0.2697113385826772
0
LINE
8
BLACK
6
CONTINUOUS
10
0.3931648818897638
20
0.2697113385826772
11
0.3934645669291338
21
0.2682047244094488
0
LINE
8
BLACK
6
CONTINUOUS
10
0.3934645669291338
20
0.2682047244094488
11
0.3934645669291338
21
0.2239133858267716
0
LINE
8
BLACK
6
CONTINUOUS
10
0.3934645669291338
20
0.2239133858267716
11
0.3931648818897638
21
0.2224067716535433
0
LINE
8
BLACK
6
CONTINUOUS
10
0.3931648818897638
20
0.2224067716535433
11
0.3923114566929134
21
0.2211294881889764
0
LINE
8
BLACK
6
CONTINUOUS
10
0.3923114566929134
20
0.2211294881889764
11
0.3910341732283464
21
0.220276062992126
0
LINE
8
BLACK
6
CONTINUOUS
10
0.3910341732283464
20
0.220276062992126
11
0.3895275590551181
21
0.2199763779527559
0
LINE
8
BLACK
6
CONTINUOUS
10
0.3895275590551181
20
0.2199763779527559
11
0.3816535433070866
21
0.2199763779527559
0
LINE
8
BLACK
6
CONTINUOUS
10
0.3816535433070866
20
0.2199763779527559
11
0.3801469291338583
21
0.220276062992126
0
LINE
8
BLACK
6
CONTINUOUS
10
0.3801469291338583
20
0.220276062992126
11
0.3788696456692913
21
0.2211294881889764
0
LINE
8
BLACK
6
CONTINUOUS
10
0.3788696456692913
20
0.2211294881889764
11
0.3780162204724409
21
0.2224067716535433
0
LINE
8
BLACK
6
CONTINUOUS
10
0.3780162204724409
20
0.2224067716535433
11
0.3777165354330709
21
0.2239133858267716
0
LINE
8
BLACK
6
CONTINUOUS
10
0.3777165354330709
20
0.2239133858267716
11
0.3777165354330709
21
0.2682047244094488
0
LINE
8
BLACK
6
CONTINUOUS
10
0.3777165354330709
20
0.2682047244094488
11
0.3780162204724409
21
0.2697113385826772
0
LINE
8
BLACK
6
CONTINUOUS
10
0.3780162204724409
20
0.2697113385826772
11
0.3788696456692913
21
0.2709886220472441
0
LINE
8
BLACK
6
CONTINUOUS
10
0.3788696456692913
20
0.2709886220472441
11
0.3801469291338583
21
0.2718420472440945
0
LINE
8
BLACK
6
CONTINUOUS
10
0.3801469291338583
20
0.2718420472440945
11
0.3816535433070866
21
0.2721417322834646
0
LINE
8
BLACK
6
CONTINUOUS
10
0.3816535433070866
20
0.2721417322834646
11
0.3895275590551181
21
0.2721417322834646
0
LINE
8
BLACK
6
CONTINUOUS
10
0.3895275590551181
20
0.2721417322834646
11
0.3910341732283464
21
0.2718420472440945
0
LINE
8
BLACK
6
CONTINUOUS
10
0.3398530708661417
20
0.341723937007874
11
0.3411303543307087
21
0.3408705118110236
0
LINE
8
BLACK
6
CONTINUOUS
10
0.3411303543307087
20
0.3408705118110236
11
0.341983779527559
21
0.3395932283464567
0
LINE
8
BLACK
6
CONTINUOUS
10
0.341983779527559
20
0.3395932283464567
11
0.3422834645669292
21
0.3380866141732283
0
LINE
8
BLACK
6
CONTINUOUS
10
0.3422834645669292
20
0.3380866141732283
11
0.3422834645669292
21
0.2937952755905512
0
LINE
8
BLACK
6
CONTINUOUS
10
0.3422834645669292
20
0.2937952755905512
11
0.341983779527559
21
0.2922886614173228
0
LINE
8
BLACK
6
CONTINUOUS
10
0.341983779527559
20
0.2922886614173228
11
0.3411303543307087
21
0.2910113779527559
0
LINE
8
BLACK
6
CONTINUOUS
10
0.3411303543307087
20
0.2910113779527559
11
0.3398530708661417
21
0.2901579527559055
0
LINE
8
BLACK
6
CONTINUOUS
10
0.3398530708661417
20
0.2901579527559055
11
0.3383464566929134
21
0.2898582677165354
0
LINE
8
BLACK
6
CONTINUOUS
10
0.3383464566929134
20
0.2898582677165354
11
0.3304724409448819
21
0.2898582677165354
0
LINE
8
BLACK
6
CONTINUOUS
10
0.3304724409448819
20
0.2898582677165354
11
0.3289658267716535
21
0.2901579527559055
0
LINE
8
BLACK
6
CONTINUOUS
10
0.3289658267716535
20
0.2901579527559055
11
0.3276885433070866
21
0.2910113779527559
0
LINE
8
BLACK
6
CONTINUOUS
10
0.3276885433070866
20
0.2910113779527559
11
0.3268351181102362
21
0.2922886614173228
0
LINE
8
BLACK
6
CONTINUOUS
10
0.3268351181102362
20
0.2922886614173228
11
0.3265354330708661
21
0.2937952755905512
0
LINE
8
BLACK
6
CONTINUOUS
10
0.3265354330708661
20
0.2937952755905512
11
0.3265354330708661
21
0.3380866141732283
0
LINE
8
BLACK
6
CONTINUOUS
10
0.3265354330708661
20
0.3380866141732283
11
0.3268351181102362
21
0.3395932283464567
0
LINE
8
BLACK
6
CONTINUOUS
10
0.3268351181102362
20
0.3395932283464567
11
0.3276885433070866
21
0.3408705118110236
0
LINE
8
BLACK
6
CONTINUOUS
10
0.3276885433070866
20
0.3408705118110236
11
0.3289658267716535
21
0.341723937007874
0
LINE
8
BLACK
6
CONTINUOUS
10
0.3289658267716535
20
0.341723937007874
11
0.3304724409448819
21
0.3420236220472441
0
LINE
8
BLACK
6
CONTINUOUS
10
0.3304724409448819
20
0.3420236220472441
11
0.3383464566929134
21
0.3420236220472441
0
LINE
8
BLACK
6
CONTINUOUS
10
0.3383464566929134
20
0.3420236220472441
11
0.3398530708661417
21
0.341723937007874
0
LINE
8
BLACK
6
CONTINUOUS
10
0.3654436220472441
20
0.341723937007874
11
0.366720905511811
21
0.3408705118110236
0
LINE
8
BLACK
6
CONTINUOUS
10
0.366720905511811
20
0.3408705118110236
11
0.3675743307086614
21
0.3395932283464567
0
LINE
8
BLACK
6
CONTINUOUS
10
0.3675743307086614
20
0.3395932283464567
11
0.3678740157480315
21
0.3380866141732283
0
LINE
8
BLACK
6
CONTINUOUS
10
0.3678740157480315
20
0.3380866141732283
11
0.3678740157480315
21
0.2937952755905512
0
LINE
8
BLACK
6
CONTINUOUS
10
0.3678740157480315
20
0.2937952755905512
11
0.3675743307086614
21
0.2922886614173228
0
LINE
8
BLACK
6
CONTINUOUS
10
0.3675743307086614
20
0.2922886614173228
11
0.366720905511811
21
0.2910113779527559
0
LINE
8
BLACK
6
CONTINUOUS
10
0.366720905511811
20
0.2910113779527559
11
0.3654436220472441
21
0.2901579527559055
0
LINE
8
BLACK
6
CONTINUOUS
10
0.3654436220472441
20
0.2901579527559055
11
0.3639370078740157
21
0.2898582677165354
0
LINE
8
BLACK
6
CONTINUOUS
10
0.3639370078740157
20
0.2898582677165354
11
0.3560629921259842
21
0.2898582677165354
0
LINE
8
BLACK
6
CONTINUOUS
10
0.3560629921259842
20
0.2898582677165354
11
0.3545563779527559
21
0.2901579527559055
0
LINE
8
BLACK
6
CONTINUOUS
10
0.3545563779527559
20
0.2901579527559055
11
0.3532790944881889
21
0.2910113779527559
0
LINE
8
BLACK
6
CONTINUOUS
10
0.3532790944881889
20
0.2910113779527559
11
0.3524256692913386
21
0.2922886614173228
0
LINE
8
BLACK
6
CONTINUOUS
10
0.3524256692913386
20
0.2922886614173228
11
0.3521259842519685
21
0.2937952755905512
0
LINE
8
BLACK
6
CONTINUOUS
10
0.3521259842519685
20
0.2937952755905512
11
0.3521259842519685
21
0.3380866141732283
0
LINE
8
BLACK
6
CONTINUOUS
10
0.3521259842519685
20
0.3380866141732283
11
0.3524256692913386
21
0.3395932283464567
0
LINE
8
BLACK
6
CONTINUOUS
10
0.3524256692913386
20
0.3395932283464567
11
0.3532790944881889
21
0.3408705118110236
0
LINE
8
BLACK
6
CONTINUOUS
10
0.3532790944881889
20
0.3408705118110236
11
0.3545563779527559
21
0.341723937007874
0
LINE
8
BLACK
6
CONTINUOUS
10
0.3545563779527559
20
0.341723937007874
11
0.3560629921259842
21
0.3420236220472441
0
LINE
8
BLACK
6
CONTINUOUS
10
0.3560629921259842
20
0.3420236220472441
11
0.3639370078740157
21
0.3420236220472441
0
LINE
8
BLACK
6
CONTINUOUS
10
0.3639370078740157
20
0.3420236220472441
11
0.3654436220472441
21
0.341723937007874
0
LINE
8
BLACK
6
CONTINUOUS
10
0.3910341732283464
20
0.341723937007874
11
0.3923114566929134
21
0.3408705118110236
0
LINE
8
BLACK
6
CONTINUOUS
10
0.3923114566929134
20
0.3408705118110236
11
0.3931648818897638
21
0.3395932283464567
0
LINE
8
BLACK
6
CONTINUOUS
10
0.3931648818897638
20
0.3395932283464567
11
0.3934645669291338
21
0.3380866141732283
0
LINE
8
BLACK
6
CONTINUOUS
10
0.3934645669291338
20
0.3380866141732283
11
0.3934645669291338
21
0.2937952755905512
0
LINE
8
BLACK
6
CONTINUOUS
10
0.3934645669291338
20
0.2937952755905512
11
0.3931648818897638
21
0.2922886614173228
0
LINE
8
BLACK
6
CONTINUOUS
10
0.3931648818897638
20
0.2922886614173228
11
0.3923114566929134
21
0.2910113779527559
0
LINE
8
BLACK
6
CONTINUOUS
10
0.3923114566929134
20
0.2910113779527559
11
0.3910341732283464
21
0.2901579527559055
0
LINE
8
BLACK
6
CONTINUOUS
10
0.3910341732283464
20
0.2901579527559055
11
0.3895275590551181
21
0.2898582677165354
0
LINE
8
BLACK
6
CONTINUOUS
10
0.3895275590551181
20
0.2898582677165354
11
0.3816535433070866
21
0.2898582677165354
0
LINE
8
BLACK
6
CONTINUOUS
10
0.3816535433070866
20
0.2898582677165354
11
0.3801469291338583
21
0.2901579527559055
0
LINE
8
BLACK
6
CONTINUOUS
10
0.3801469291338583
20
0.2901579527559055
11
0.3788696456692913
21
0.2910113779527559
0
LINE
8
BLACK
6
CONTINUOUS
10
0.3788696456692913
20
0.2910113779527559
11
0.3780162204724409
21
0.2922886614173228
0
LINE
8
BLACK
6
CONTINUOUS
10
0.3780162204724409
20
0.2922886614173228
11
0.3777165354330709
21
0.2937952755905512
0
LINE
8
BLACK
6
CONTINUOUS
10
0.3777165354330709
20
0.2937952755905512
11
0.3777165354330709
21
0.3380866141732283
0
LINE
8
BLACK
6
CONTINUOUS
10
0.3777165354330709
20
0.3380866141732283
11
0.3780162204724409
21
0.3395932283464567
0
LINE
8
BLACK
6
CONTINUOUS
10
0.3780162204724409
20
0.3395932283464567
11
0.3788696456692913
21
0.3408705118110236
0
LINE
8
BLACK
6
CONTINUOUS
10
0.3788696456692913
20
0.3408705118110236
11
0.3801469291338583
21
0.341723937007874
0
LINE
8
BLACK
6
CONTINUOUS
10
0.3801469291338583
20
0.341723937007874
11
0.3816535433070866
21
0.3420236220472441
0
LINE
8
BLACK
6
CONTINUOUS
10
0.3816535433070866
20
0.3420236220472441
11
0.3895275590551181
21
0.3420236220472441
0
LINE
8
BLACK
6
CONTINUOUS
10
0.3895275590551181
20
0.3420236220472441
11
0.3910341732283464
21
0.341723937007874
0
LINE
8
BLACK
6
CONTINUOUS
10
0.6724831102362204
20
0.3835027559055118
11
0.6756762598425197
21
0.3813691732283465
0
LINE
8
BLACK
6
CONTINUOUS
10
0.6756762598425197
20
0.3813691732283465
11
0.677809842519685
21
0.3781760236220472
0
LINE
8
BLACK
6
CONTINUOUS
10
0.677809842519685
20
0.3781760236220472
11
0.6785590551181102
21
0.3744094488188976
0
LINE
8
BLACK
6
CONTINUOUS
10
0.6785590551181102
20
0.3744094488188976
11
0.6785590551181102
21
0.353740157480315
0
LINE
8
BLACK
6
CONTINUOUS
10
0.6785590551181102
20
0.353740157480315
11
0.677809842519685
21
0.3499735826771653
0
LINE
8
BLACK
6
CONTINUOUS
10
0.677809842519685
20
0.3499735826771653
11
0.6756762598425197
21
0.3467804330708661
0
LINE
8
BLACK
6
CONTINUOUS
10
0.6756762598425197
20
0.3467804330708661
11
0.6724831102362204
21
0.3446468503937008
0
LINE
8
BLACK
6
CONTINUOUS
10
0.6724831102362204
20
0.3446468503937008
11
0.6687165354330709
21
0.3438976377952756
0
LINE
8
BLACK
6
CONTINUOUS
10
0.6687165354330709
20
0.3438976377952756
11
0.6332834645669291
21
0.3438976377952756
0
LINE
8
BLACK
6
CONTINUOUS
10
0.6332834645669291
20
0.3438976377952756
11
0.6295168897637795
21
0.3446468503937008
0
LINE
8
BLACK
6
CONTINUOUS
10
0.6295168897637795
20
0.3446468503937008
11
0.6263237401574803
21
0.3467804330708661
0
LINE
8
BLACK
6
CONTINUOUS
10
0.6263237401574803
20
0.3467804330708661
11
0.6241901574803149
21
0.3499735826771653
0
LINE
8
BLACK
6
CONTINUOUS
10
0.6241901574803149
20
0.3499735826771653
11
0.6234409448818897
21
0.353740157480315
0
LINE
8
BLACK
6
CONTINUOUS
10
0.6234409448818897
20
0.353740157480315
11
0.6234409448818897
21
0.3744094488188976
0
LINE
8
BLACK
6
CONTINUOUS
10
0.6234409448818897
20
0.3744094488188976
11
0.6241901574803149
21
0.3781760236220472
0
LINE
8
BLACK
6
CONTINUOUS
10
0.6241901574803149
20
0.3781760236220472
11
0.6263237401574803
21
0.3813691732283465
0
LINE
8
BLACK
6
CONTINUOUS
10
0.6263237401574803
20
0.3813691732283465
11
0.6295168897637795
21
0.3835027559055118
0
LINE
8
BLACK
6
CONTINUOUS
10
0.6295168897637795
20
0.3835027559055118
11
0.6332834645669291
21
0.384251968503937
0
LINE
8
BLACK
6
CONTINUOUS
10
0.6332834645669291
20
0.384251968503937
11
0.6687165354330709
21
0.384251968503937
0
LINE
8
BLACK
6
CONTINUOUS
10
0.6687165354330709
20
0.384251968503937
11
0.6724831102362204
21
0.3835027559055118
0
LINE
8
BLACK
6
CONTINUOUS
10
0.3662075196850393
20
0.4277940944881889
11
0.3694006692913386
21
0.4256605118110236
0
LINE
8
BLACK
6
CONTINUOUS
10
0.3694006692913386
20
0.4256605118110236
11
0.3715342519685039
21
0.4224673622047244
0
LINE
8
BLACK
6
CONTINUOUS
10
0.3715342519685039
20
0.4224673622047244
11
0.3722834645669291
21
0.4187007874015748
0
LINE
8
BLACK
6
CONTINUOUS
10
0.3722834645669291
20
0.4187007874015748
11
0.3722834645669291
21
0.3812992125984252
0
LINE
8
BLACK
6
CONTINUOUS
10
0.3722834645669291
20
0.3812992125984252
11
0.3715342519685039
21
0.3775326377952756
0
LINE
8
BLACK
6
CONTINUOUS
10
0.3715342519685039
20
0.3775326377952756
11
0.3694006692913386
21
0.3743394881889764
0
LINE
8
BLACK
6
CONTINUOUS
10
0.3694006692913386
20
0.3743394881889764
11
0.3662075196850393
21
0.372205905511811
0
LINE
8
BLACK
6
CONTINUOUS
10
0.3662075196850393
20
0.372205905511811
11
0.3624409448818898
21
0.3714566929133858
0
LINE
8
BLACK
6
CONTINUOUS
10
0.3624409448818898
20
0.3714566929133858
11
0.342755905511811
21
0.3714566929133858
0
LINE
8
BLACK
6
CONTINUOUS
10
0.342755905511811
20
0.3714566929133858
11
0.3389893307086614
21
0.372205905511811
0
LINE
8
BLACK
6
CONTINUOUS
10
0.3389893307086614
20
0.372205905511811
11
0.3357961811023622
21
0.3743394881889764
0
LINE
8
BLACK
6
CONTINUOUS
10
0.3357961811023622
20
0.3743394881889764
11
0.3336625984251969
21
0.3775326377952756
0
LINE
8
BLACK
6
CONTINUOUS
10
0.3336625984251969
20
0.3775326377952756
11
0.3329133858267717
21
0.3812992125984252
0
LINE
8
BLACK
6
CONTINUOUS
10
0.3329133858267717
20
0.3812992125984252
11
0.3329133858267717
21
0.4187007874015748
0
LINE
8
BLACK
6
CONTINUOUS
10
0.3329133858267717
20
0.4187007874015748
11
0.3336625984251969
21
0.4224673622047244
0
LINE
8
BLACK
6
CONTINUOUS
10
0.3336625984251969
20
0.4224673622047244
11
0.3357961811023622
21
0.4256605118110236
0
LINE
8
BLACK
6
CONTINUOUS
10
0.3357961811023622
20
0.4256605118110236
11
0.3389893307086614
21
0.4277940944881889
0
LINE
8
BLACK
6
CONTINUOUS
10
0.3389893307086614
20
0.4277940944881889
11
0.342755905511811
21
0.4285433070866141
0
LINE
8
BLACK
6
CONTINUOUS
10
0.342755905511811
20
0.4285433070866141
11
0.3624409448818898
21
0.4285433070866141
0
LINE
8
BLACK
6
CONTINUOUS
10
0.3624409448818898
20
0.4285433070866141
11
0.3662075196850393
21
0.4277940944881889
0
LINE
8
BLACK
6
CONTINUOUS
10
0.4410106692913386
20
0.4277940944881889
11
0.4442038188976378
21
0.4256605118110236
0
LINE
8
BLACK
6
CONTINUOUS
10
0.4442038188976378
20
0.4256605118110236
11
0.4463374015748031
21
0.4224673622047244
0
LINE
8
BLACK
6
CONTINUOUS
10
0.4463374015748031
20
0.4224673622047244
11
0.4470866141732283
21
0.4187007874015748
0
LINE
8
BLACK
6
CONTINUOUS
10
0.4470866141732283
20
0.4187007874015748
11
0.4470866141732283
21
0.3812992125984252
0
LINE
8
BLACK
6
CONTINUOUS
10
0.4470866141732283
20
0.3812992125984252
11
0.4463374015748031
21
0.3775326377952756
0
LINE
8
BLACK
6
CONTINUOUS
10
0.4463374015748031
20
0.3775326377952756
11
0.4442038188976378
21
0.3743394881889764
0
LINE
8
BLACK
6
CONTINUOUS
10
0.4442038188976378
20
0.3743394881889764
11
0.4410106692913386
21
0.372205905511811
0
LINE
8
BLACK
6
CONTINUOUS
10
0.4410106692913386
20
0.372205905511811
11
0.437244094488189
21
0.3714566929133858
0
LINE
8
BLACK
6
CONTINUOUS
10
0.437244094488189
20
0.3714566929133858
11
0.4175590551181102
21
0.3714566929133858
0
LINE
8
BLACK
6
CONTINUOUS
10
0.4175590551181102
20
0.3714566929133858
11
0.4137924803149606
21
0.372205905511811
0
LINE
8
BLACK
6
CONTINUOUS
10
0.4137924803149606
20
0.372205905511811
11
0.4105993307086614
21
0.3743394881889764
0
LINE
8
BLACK
6
CONTINUOUS
10
0.4105993307086614
20
0.3743394881889764
11
0.408465748031496
21
0.3775326377952756
0
LINE
8
BLACK
6
CONTINUOUS
10
0.408465748031496
20
0.3775326377952756
11
0.4077165354330708
21
0.3812992125984252
0
LINE
8
BLACK
6
CONTINUOUS
10
0.4077165354330708
20
0.3812992125984252
11
0.4077165354330708
21
0.4187007874015748
0
LINE
8
BLACK
6
CONTINUOUS
10
0.4077165354330708
20
0.4187007874015748
11
0.408465748031496
21
0.4224673622047244
0
LINE
8
BLACK
6
CONTINUOUS
10
0.408465748031496
20
0.4224673622047244
11
0.4105993307086614
21
0.4256605118110236
0
LINE
8
BLACK
6
CONTINUOUS
10
0.4105993307086614
20
0.4256605118110236
11
0.4137924803149606
21
0.4277940944881889
0
LINE
8
BLACK
6
CONTINUOUS
10
0.4137924803149606
20
0.4277940944881889
11
0.4175590551181102
21
0.4285433070866141
0
LINE
8
BLACK
6
CONTINUOUS
10
0.4175590551181102
20
0.4285433070866141
11
0.437244094488189
21
0.4285433070866141
0
LINE
8
BLACK
6
CONTINUOUS
10
0.437244094488189
20
0.4285433070866141
11
0.4410106692913386
21
0.4277940944881889
0
LINE
8
BLACK
6
CONTINUOUS
10
0.6724831102362204
20
0.4553531496062992
11
0.6756762598425197
21
0.4532195669291338
0
LINE
8
BLACK
6
CONTINUOUS
10
0.6756762598425197
20
0.4532195669291338
11
0.677809842519685
21
0.4500264173228347
0
LINE
8
BLACK
6
CONTINUOUS
10
0.677809842519685
20
0.4500264173228347
11
0.6785590551181102
21
0.446259842519685
0
LINE
8
BLACK
6
CONTINUOUS
10
0.6785590551181102
20
0.446259842519685
11
0.6785590551181102
21
0.4255905511811023
0
LINE
8
BLACK
6
CONTINUOUS
10
0.6785590551181102
20
0.4255905511811023
11
0.677809842519685
21
0.4218239763779528
0
LINE
8
BLACK
6
CONTINUOUS
10
0.677809842519685
20
0.4218239763779528
11
0.6756762598425197
21
0.4186308267716535
0
LINE
8
BLACK
6
CONTINUOUS
10
0.6756762598425197
20
0.4186308267716535
11
0.6724831102362204
21
0.4164972440944882
0
LINE
8
BLACK
6
CONTINUOUS
10
0.6724831102362204
20
0.4164972440944882
11
0.6687165354330709
21
0.415748031496063
0
LINE
8
BLACK
6
CONTINUOUS
10
0.6687165354330709
20
0.415748031496063
11
0.6332834645669291
21
0.415748031496063
0
LINE
8
BLACK
6
CONTINUOUS
10
0.6332834645669291
20
0.415748031496063
11
0.6295168897637795
21
0.4164972440944882
0
LINE
8
BLACK
6
CONTINUOUS
10
0.6295168897637795
20
0.4164972440944882
11
0.6263237401574803
21
0.4186308267716535
0
LINE
8
BLACK
6
CONTINUOUS
10
0.6263237401574803
20
0.4186308267716535
11
0.6241901574803149
21
0.4218239763779528
0
LINE
8
BLACK
6
CONTINUOUS
10
0.6241901574803149
20
0.4218239763779528
11
0.6234409448818897
21
0.4255905511811023
0
LINE
8
BLACK
6
CONTINUOUS
10
0.6234409448818897
20
0.4255905511811023
11
0.6234409448818897
21
0.446259842519685
0
LINE
8
BLACK
6
CONTINUOUS
10
0.6234409448818897
20
0.446259842519685
11
0.6241901574803149
21
0.4500264173228347
0
LINE
8
BLACK
6
CONTINUOUS
10
0.6241901574803149
20
0.4500264173228347
11
0.6263237401574803
21
0.4532195669291338
0
LINE
8
BLACK
6
CONTINUOUS
10
0.6263237401574803
20
0.4532195669291338
11
0.6295168897637795
21
0.4553531496062992
0
LINE
8
BLACK
6
CONTINUOUS
10
0.6295168897637795
20
0.4553531496062992
11
0.6332834645669291
21
0.4561023622047244
0
LINE
8
BLACK
6
CONTINUOUS
10
0.6332834645669291
20
0.4561023622047244
11
0.6687165354330709
21
0.4561023622047244
0
LINE
8
BLACK
6
CONTINUOUS
10
0.6687165354330709
20
0.4561023622047244
11
0.6724831102362204
21
0.4553531496062992
0
LINE
8
BLACK
6
CONTINUOUS
10
0.289357125984252
20
0.5697232283464567
11
0.2925502755905512
21
0.5675896456692914
0
LINE
8
BLACK
6
CONTINUOUS
10
0.2925502755905512
20
0.5675896456692914
11
0.2946838582677165
21
0.5643964960629921
0
LINE
8
BLACK
6
CONTINUOUS
10
0.2946838582677165
20
0.5643964960629921
11
0.2954330708661417
21
0.5606299212598425
0
LINE
8
BLACK
6
CONTINUOUS
10
0.2954330708661417
20
0.5606299212598425
11
0.2954330708661417
21
0.4818897637795275
0
LINE
8
BLACK
6
CONTINUOUS
10
0.2954330708661417
20
0.4818897637795275
11
0.2946838582677165
21
0.478123188976378
0
LINE
8
BLACK
6
CONTINUOUS
10
0.2946838582677165
20
0.478123188976378
11
0.2925502755905512
21
0.4749300393700787
0
LINE
8
BLACK
6
CONTINUOUS
10
0.2925502755905512
20
0.4749300393700787
11
0.289357125984252
21
0.4727964566929134
0
LINE
8
BLACK
6
CONTINUOUS
10
0.289357125984252
20
0.4727964566929134
11
0.2855905511811024
21
0.4720472440944882
0
LINE
8
BLACK
6
CONTINUOUS
10
0.2855905511811024
20
0.4720472440944882
11
0.2344094488188976
21
0.4720472440944882
0
LINE
8
BLACK
6
CONTINUOUS
10
0.2344094488188976
20
0.4720472440944882
11
0.230642874015748
21
0.4727964566929134
0
LINE
8
BLACK
6
CONTINUOUS
10
0.230642874015748
20
0.4727964566929134
11
0.2274497244094488
21
0.4749300393700787
0
LINE
8
BLACK
6
CONTINUOUS
10
0.2274497244094488
20
0.4749300393700787
11
0.2253161417322835
21
0.478123188976378
0
LINE
8
BLACK
6
CONTINUOUS
10
0.2253161417322835
20
0.478123188976378
11
0.2245669291338583
21
0.4818897637795275
0
LINE
8
BLACK
6
CONTINUOUS
10
0.2245669291338583
20
0.4818897637795275
11
0.2245669291338583
21
0.5606299212598425
0
LINE
8
BLACK
6
CONTINUOUS
10
0.2245669291338583
20
0.5606299212598425
11
0.2253161417322835
21
0.5643964960629921
0
LINE
8
BLACK
6
CONTINUOUS
10
0.2253161417322835
20
0.5643964960629921
11
0.2274497244094488
21
0.5675896456692914
0
LINE
8
BLACK
6
CONTINUOUS
10
0.2274497244094488
20
0.5675896456692914
11
0.230642874015748
21
0.5697232283464567
0
LINE
8
BLACK
6
CONTINUOUS
10
0.230642874015748
20
0.5697232283464567
11
0.2344094488188976
21
0.5704724409448819
0
LINE
8
BLACK
6
CONTINUOUS
10
0.2344094488188976
20
0.5704724409448819
11
0.2855905511811024
21
0.5704724409448819
0
LINE
8
BLACK
6
CONTINUOUS
10
0.2855905511811024
20
0.5704724409448819
11
0.289357125984252
21
0.5697232283464567
0
LINE
8
BLACK
6
CONTINUOUS
10
0.6324673622047244
20
0.5415342519685039
11
0.6356605118110236
21
0.5394006692913386
0
LINE
8
BLACK
6
CONTINUOUS
10
0.6356605118110236
20
0.5394006692913386
11
0.6377940944881889
21
0.5362075196850393
0
LINE
8
BLACK
6
CONTINUOUS
10
0.6377940944881889
20
0.5362075196850393
11
0.6385433070866141
21
0.5324409448818898
0
LINE
8
BLACK
6
CONTINUOUS
10
0.6385433070866141
20
0.5324409448818898
11
0.6385433070866141
21
0.512755905511811
0
LINE
8
BLACK
6
CONTINUOUS
10
0.6385433070866141
20
0.512755905511811
11
0.6377940944881889
21
0.5089893307086614
0
LINE
8
BLACK
6
CONTINUOUS
10
0.6377940944881889
20
0.5089893307086614
11
0.6356605118110236
21
0.5057961811023622
0
LINE
8
BLACK
6
CONTINUOUS
10
0.6356605118110236
20
0.5057961811023622
11
0.6324673622047244
21
0.5036625984251968
0
LINE
8
BLACK
6
CONTINUOUS
10
0.6324673622047244
20
0.5036625984251968
11
0.6287007874015748
21
0.5029133858267717
0
LINE
8
BLACK
6
CONTINUOUS
10
0.6287007874015748
20
0.5029133858267717
11
0.5912992125984252
21
0.5029133858267717
0
LINE
8
BLACK
6
CONTINUOUS
10
0.5912992125984252
20
0.5029133858267717
11
0.5875326377952755
21
0.5036625984251968
0
LINE
8
BLACK
6
CONTINUOUS
10
0.5875326377952755
20
0.5036625984251968
11
0.5843394881889764
21
0.5057961811023622
0
LINE
8
BLACK
6
CONTINUOUS
10
0.5843394881889764
20
0.5057961811023622
11
0.5822059055118111
21
0.5089893307086614
0
LINE
8
BLACK
6
CONTINUOUS
10
0.5822059055118111
20
0.5089893307086614
11
0.5814566929133859
21
0.512755905511811
0
LINE
8
BLACK
6
CONTINUOUS
10
0.5814566929133859
20
0.512755905511811
11
0.5814566929133859
21
0.5324409448818898
0
LINE
8
BLACK
6
CONTINUOUS
10
0.5814566929133859
20
0.5324409448818898
11
0.5822059055118111
21
0.5362075196850393
0
LINE
8
BLACK
6
CONTINUOUS
10
0.5822059055118111
20
0.5362075196850393
11
0.5843394881889764
21
0.5394006692913386
0
LINE
8
BLACK
6
CONTINUOUS
10
0.5843394881889764
20
0.5394006692913386
11
0.5875326377952755
21
0.5415342519685039
0
LINE
8
BLACK
6
CONTINUOUS
10
0.5875326377952755
20
0.5415342519685039
11
0.5912992125984252
21
0.5422834645669291
0
LINE
8
BLACK
6
CONTINUOUS
10
0.5912992125984252
20
0.5422834645669291
11
0.6287007874015748
21
0.5422834645669291
0
LINE
8
BLACK
6
CONTINUOUS
10
0.6287007874015748
20
0.5422834645669291
11
0.6324673622047244
21
0.5415342519685039
0
LINE
8
BLACK
6
CONTINUOUS
10
0.6324673622047244
20
0.6163374015748031
11
0.6356605118110236
21
0.6142038188976378
0
LINE
8
BLACK
6
CONTINUOUS
10
0.6356605118110236
20
0.6142038188976378
11
0.6377940944881889
21
0.6110106692913385
0
LINE
8
BLACK
6
CONTINUOUS
10
0.6377940944881889
20
0.6110106692913385
11
0.6385433070866141
21
0.6072440944881889
0
LINE
8
BLACK
6
CONTINUOUS
10
0.6385433070866141
20
0.6072440944881889
11
0.6385433070866141
21
0.5875590551181102
0
LINE
8
BLACK
6
CONTINUOUS
10
0.6385433070866141
20
0.5875590551181102
11
0.6377940944881889
21
0.5837924803149607
0
LINE
8
BLACK
6
CONTINUOUS
10
0.6377940944881889
20
0.5837924803149607
11
0.6356605118110236
21
0.5805993307086614
0
LINE
8
BLACK
6
CONTINUOUS
10
0.6356605118110236
20
0.5805993307086614
11
0.6324673622047244
21
0.5784657480314961
0
LINE
8
BLACK
6
CONTINUOUS
10
0.6324673622047244
20
0.5784657480314961
11
0.6287007874015748
21
0.5777165354330709
0
LINE
8
BLACK
6
CONTINUOUS
10
0.6287007874015748
20
0.5777165354330709
11
0.5912992125984252
21
0.5777165354330709
0
LINE
8
BLACK
6
CONTINUOUS
10
0.5912992125984252
20
0.5777165354330709
11
0.5875326377952755
21
0.5784657480314961
0
LINE
8
BLACK
6
CONTINUOUS
10
0.5875326377952755
20
0.5784657480314961
11
0.5843394881889764
21
0.5805993307086614
0
LINE
8
BLACK
6
CONTINUOUS
10
0.5843394881889764
20
0.5805993307086614
11
0.5822059055118111
21
0.5837924803149607
0
LINE
8
BLACK
6
CONTINUOUS
10
0.5822059055118111
20
0.5837924803149607
11
0.5814566929133859
21
0.5875590551181102
0
LINE
8
BLACK
6
CONTINUOUS
10
0.5814566929133859
20
0.5875590551181102
11
0.5814566929133859
21
0.6072440944881889
0
LINE
8
BLACK
6
CONTINUOUS
10
0.5814566929133859
20
0.6072440944881889
11
0.5822059055118111
21
0.6110106692913385
0
LINE
8
BLACK
6
CONTINUOUS
10
0.5822059055118111
20
0.6110106692913385
11
0.5843394881889764
21
0.6142038188976378
0
LINE
8
BLACK
6
CONTINUOUS
10
0.5843394881889764
20
0.6142038188976378
11
0.5875326377952755
21
0.6163374015748031
0
LINE
8
BLACK
6
CONTINUOUS
10
0.5875326377952755
20
0.6163374015748031
11
0.5912992125984252
21
0.6170866141732283
0
LINE
8
BLACK
6
CONTINUOUS
10
0.5912992125984252
20
0.6170866141732283
11
0.6287007874015748
21
0.6170866141732283
0
LINE
8
BLACK
6
CONTINUOUS
10
0.6287007874015748
20
0.6170866141732283
11
0.6324673622047244
21
0.6163374015748031
0
LINE
8
BLACK
6
CONTINUOUS
10
0.289357125984252
20
0.7272035433070866
11
0.2925502755905512
21
0.7250699606299212
0
LINE
8
BLACK
6
CONTINUOUS
10
0.2925502755905512
20
0.7250699606299212
11
0.2946838582677165
21
0.721876811023622
0
LINE
8
BLACK
6
CONTINUOUS
10
0.2946838582677165
20
0.721876811023622
11
0.2954330708661417
21
0.7181102362204724
0
LINE
8
BLACK
6
CONTINUOUS
10
0.2954330708661417
20
0.7181102362204724
11
0.2954330708661417
21
0.6393700787401575
0
LINE
8
BLACK
6
CONTINUOUS
10
0.2954330708661417
20
0.6393700787401575
11
0.2946838582677165
21
0.6356035039370078
0
LINE
8
BLACK
6
CONTINUOUS
10
0.2946838582677165
20
0.6356035039370078
11
0.2925502755905512
21
0.6324103543307087
0
LINE
8
BLACK
6
CONTINUOUS
10
0.2925502755905512
20
0.6324103543307087
11
0.289357125984252
21
0.6302767716535433
0
LINE
8
BLACK
6
CONTINUOUS
10
0.289357125984252
20
0.6302767716535433
11
0.2855905511811024
21
0.6295275590551181
0
LINE
8
BLACK
6
CONTINUOUS
10
0.2855905511811024
20
0.6295275590551181
11
0.2344094488188976
21
0.6295275590551181
0
LINE
8
BLACK
6
CONTINUOUS
10
0.2344094488188976
20
0.6295275590551181
11
0.230642874015748
21
0.6302767716535433
0
LINE
8
BLACK
6
CONTINUOUS
10
0.230642874015748
20
0.6302767716535433
11
0.2274497244094488
21
0.6324103543307087
0
LINE
8
BLACK
6
CONTINUOUS
10
0.2274497244094488
20
0.6324103543307087
11
0.2253161417322835
21
0.6356035039370078
0
LINE
8
BLACK
6
CONTINUOUS
10
0.2253161417322835
20
0.6356035039370078
11
0.2245669291338583
21
0.6393700787401575
0
LINE
8
BLACK
6
CONTINUOUS
10
0.2245669291338583
20
0.6393700787401575
11
0.2245669291338583
21
0.7181102362204724
0
LINE
8
BLACK
6
CONTINUOUS
10
0.2245669291338583
20
0.7181102362204724
11
0.2253161417322835
21
0.721876811023622
0
LINE
8
BLACK
6
CONTINUOUS
10
0.2253161417322835
20
0.721876811023622
11
0.2274497244094488
21
0.7250699606299212
0
LINE
8
BLACK
6
CONTINUOUS
10
0.2274497244094488
20
0.7250699606299212
11
0.230642874015748
21
0.7272035433070866
0
LINE
8
BLACK
6
CONTINUOUS
10
0.230642874015748
20
0.7272035433070866
11
0.2344094488188976
21
0.7279527559055118
0
LINE
8
BLACK
6
CONTINUOUS
10
0.2344094488188976
20
0.7279527559055118
11
0.2855905511811024
21
0.7279527559055118
0
LINE
8
BLACK
6
CONTINUOUS
10
0.2855905511811024
20
0.7279527559055118
11
0.289357125984252
21
0.7272035433070866
0
LINE
8
BLACK
6
CONTINUOUS
10
0.6724831102362204
20
0.7835027559055118
11
0.6756762598425197
21
0.7813691732283464
0
LINE
8
BLACK
6
CONTINUOUS
10
0.6756762598425197
20
0.7813691732283464
11
0.677809842519685
21
0.7781760236220472
0
LINE
8
BLACK
6
CONTINUOUS
10
0.677809842519685
20
0.7781760236220472
11
0.6785590551181102
21
0.7744094488188976
0
LINE
8
BLACK
6
CONTINUOUS
10
0.6785590551181102
20
0.7744094488188976
11
0.6785590551181102
21
0.753740157480315
0
LINE
8
BLACK
6
CONTINUOUS
10
0.6785590551181102
20
0.753740157480315
11
0.677809842519685
21
0.7499735826771653
0
LINE
8
BLACK
6
CONTINUOUS
10
0.677809842519685
20
0.7499735826771653
11
0.6756762598425197
21
0.7467804330708662
0
LINE
8
BLACK
6
CONTINUOUS
10
0.6756762598425197
20
0.7467804330708662
11
0.6724831102362204
21
0.7446468503937008
0
LINE
8
BLACK
6
CONTINUOUS
10
0.6724831102362204
20
0.7446468503937008
11
0.6687165354330709
21
0.7438976377952756
0
LINE
8
BLACK
6
CONTINUOUS
10
0.6687165354330709
20
0.7438976377952756
11
0.6332834645669291
21
0.7438976377952756
0
LINE
8
BLACK
6
CONTINUOUS
10
0.6332834645669291
20
0.7438976377952756
11
0.6295168897637795
21
0.7446468503937008
0
LINE
8
BLACK
6
CONTINUOUS
10
0.6295168897637795
20
0.7446468503937008
11
0.6263237401574803
21
0.7467804330708662
0
LINE
8
BLACK
6
CONTINUOUS
10
0.6263237401574803
20
0.7467804330708662
11
0.6241901574803149
21
0.7499735826771653
0
LINE
8
BLACK
6
CONTINUOUS
10
0.6241901574803149
20
0.7499735826771653
11
0.6234409448818897
21
0.753740157480315
0
LINE
8
BLACK
6
CONTINUOUS
10
0.6234409448818897
20
0.753740157480315
11
0.6234409448818897
21
0.7744094488188976
0
LINE
8
BLACK
6
CONTINUOUS
10
0.6234409448818897
20
0.7744094488188976
11
0.6241901574803149
21
0.7781760236220472
0
LINE
8
BLACK
6
CONTINUOUS
10
0.6241901574803149
20
0.7781760236220472
11
0.6263237401574803
21
0.7813691732283464
0
LINE
8
BLACK
6
CONTINUOUS
10
0.6263237401574803
20
0.7813691732283464
11
0.6295168897637795
21
0.7835027559055118
0
LINE
8
BLACK
6
CONTINUOUS
10
0.6295168897637795
20
0.7835027559055118
11
0.6332834645669291
21
0.784251968503937
0
LINE
8
BLACK
6
CONTINUOUS
10
0.6332834645669291
20
0.784251968503937
11
0.6687165354330709
21
0.784251968503937
0
LINE
8
BLACK
6
CONTINUOUS
10
0.6687165354330709
20
0.784251968503937
11
0.6724831102362204
21
0.7835027559055118
0
LINE
8
BLACK
6
CONTINUOUS
10
0.2862075196850394
20
0.837794094488189
11
0.2894006692913386
21
0.8356605118110236
0
LINE
8
BLACK
6
CONTINUOUS
10
0.2894006692913386
20
0.8356605118110236
11
0.2915342519685039
21
0.8324673622047244
0
LINE
8
BLACK
6
CONTINUOUS
10
0.2915342519685039
20
0.8324673622047244
11
0.2922834645669291
21
0.8287007874015748
0
LINE
8
BLACK
6
CONTINUOUS
10
0.2922834645669291
20
0.8287007874015748
11
0.2922834645669291
21
0.7912992125984252
0
LINE
8
BLACK
6
CONTINUOUS
10
0.2922834645669291
20
0.7912992125984252
11
0.2915342519685039
21
0.7875326377952756
0
LINE
8
BLACK
6
CONTINUOUS
10
0.2915342519685039
20
0.7875326377952756
11
0.2894006692913386
21
0.7843394881889764
0
LINE
8
BLACK
6
CONTINUOUS
10
0.2894006692913386
20
0.7843394881889764
11
0.2862075196850394
21
0.782205905511811
0
LINE
8
BLACK
6
CONTINUOUS
10
0.2862075196850394
20
0.782205905511811
11
0.2824409448818898
21
0.7814566929133858
0
LINE
8
BLACK
6
CONTINUOUS
10
0.2824409448818898
20
0.7814566929133858
11
0.262755905511811
21
0.7814566929133858
0
LINE
8
BLACK
6
CONTINUOUS
10
0.262755905511811
20
0.7814566929133858
11
0.2589893307086614
21
0.782205905511811
0
LINE
8
BLACK
6
CONTINUOUS
10
0.2589893307086614
20
0.782205905511811
11
0.2557961811023622
21
0.7843394881889764
0
LINE
8
BLACK
6
CONTINUOUS
10
0.2557961811023622
20
0.7843394881889764
11
0.2536625984251968
21
0.7875326377952756
0
LINE
8
BLACK
6
CONTINUOUS
10
0.2536625984251968
20
0.7875326377952756
11
0.2529133858267716
21
0.7912992125984252
0
LINE
8
BLACK
6
CONTINUOUS
10
0.2529133858267716
20
0.7912992125984252
11
0.2529133858267716
21
0.8287007874015748
0
LINE
8
BLACK
6
CONTINUOUS
10
0.2529133858267716
20
0.8287007874015748
11
0.2536625984251968
21
0.8324673622047244
0
LINE
8
BLACK
6
CONTINUOUS
10
0.2536625984251968
20
0.8324673622047244
11
0.2557961811023622
21
0.8356605118110236
0
LINE
8
BLACK
6
CONTINUOUS
10
0.2557961811023622
20
0.8356605118110236
11
0.2589893307086614
21
0.837794094488189
0
LINE
8
BLACK
6
CONTINUOUS
10
0.2589893307086614
20
0.837794094488189
11
0.262755905511811
21
0.8385433070866142
0
LINE
8
BLACK
6
CONTINUOUS
10
0.262755905511811
20
0.8385433070866142
11
0.2824409448818898
21
0.8385433070866142
0
LINE
8
BLACK
6
CONTINUOUS
10
0.2824409448818898
20
0.8385433070866142
11
0.2862075196850394
21
0.837794094488189
0
LINE
8
BLACK
6
CONTINUOUS
10
0.3610106692913386
20
0.837794094488189
11
0.3642038188976378
21
0.8356605118110236
0
LINE
8
BLACK
6
CONTINUOUS
10
0.3642038188976378
20
0.8356605118110236
11
0.3663374015748032
21
0.8324673622047244
0
LINE
8
BLACK
6
CONTINUOUS
10
0.3663374015748032
20
0.8324673622047244
11
0.3670866141732284
21
0.8287007874015748
0
LINE
8
BLACK
6
CONTINUOUS
10
0.3670866141732284
20
0.8287007874015748
11
0.3670866141732284
21
0.7912992125984252
0
LINE
8
BLACK
6
CONTINUOUS
10
0.3670866141732284
20
0.7912992125984252
11
0.3663374015748032
21
0.7875326377952756
0
LINE
8
BLACK
6
CONTINUOUS
10
0.3663374015748032
20
0.7875326377952756
11
0.3642038188976378
21
0.7843394881889764
0
LINE
8
BLACK
6
CONTINUOUS
10
0.3642038188976378
20
0.7843394881889764
11
0.3610106692913386
21
0.782205905511811
0
LINE
8
BLACK
6
CONTINUOUS
10
0.3610106692913386
20
0.782205905511811
11
0.3572440944881889
21
0.7814566929133858
0
LINE
8
BLACK
6
CONTINUOUS
10
0.3572440944881889
20
0.7814566929133858
11
0.3375590551181102
21
0.7814566929133858
0
LINE
8
BLACK
6
CONTINUOUS
10
0.3375590551181102
20
0.7814566929133858
11
0.3337924803149606
21
0.782205905511811
0
LINE
8
BLACK
6
CONTINUOUS
10
0.3337924803149606
20
0.782205905511811
11
0.3305993307086614
21
0.7843394881889764
0
LINE
8
BLACK
6
CONTINUOUS
10
0.3305993307086614
20
0.7843394881889764
11
0.328465748031496
21
0.7875326377952756
0
LINE
8
BLACK
6
CONTINUOUS
10
0.328465748031496
20
0.7875326377952756
11
0.3277165354330708
21
0.7912992125984252
0
LINE
8
BLACK
6
CONTINUOUS
10
0.3277165354330708
20
0.7912992125984252
11
0.3277165354330708
21
0.8287007874015748
0
LINE
8
BLACK
6
CONTINUOUS
10
0.3277165354330708
20
0.8287007874015748
11
0.328465748031496
21
0.8324673622047244
0
LINE
8
BLACK
6
CONTINUOUS
10
0.328465748031496
20
0.8324673622047244
11
0.3305993307086614
21
0.8356605118110236
0
LINE
8
BLACK
6
CONTINUOUS
10
0.3305993307086614
20
0.8356605118110236
11
0.3337924803149606
21
0.837794094488189
0
LINE
8
BLACK
6
CONTINUOUS
10
0.3337924803149606
20
0.837794094488189
11
0.3375590551181102
21
0.8385433070866142
0
LINE
8
BLACK
6
CONTINUOUS
10
0.3375590551181102
20
0.8385433070866142
11
0.3572440944881889
21
0.8385433070866142
0
LINE
8
BLACK
6
CONTINUOUS
10
0.3572440944881889
20
0.8385433070866142
11
0.3610106692913386
21
0.837794094488189
0
LINE
8
BLACK
6
CONTINUOUS
10
0.4262075196850393
20
0.837794094488189
11
0.4294006692913386
21
0.8356605118110236
0
LINE
8
BLACK
6
CONTINUOUS
10
0.4294006692913386
20
0.8356605118110236
11
0.4315342519685039
21
0.8324673622047244
0
LINE
8
BLACK
6
CONTINUOUS
10
0.4315342519685039
20
0.8324673622047244
11
0.4322834645669291
21
0.8287007874015748
0
LINE
8
BLACK
6
CONTINUOUS
10
0.4322834645669291
20
0.8287007874015748
11
0.4322834645669291
21
0.7912992125984252
0
LINE
8
BLACK
6
CONTINUOUS
10
0.4322834645669291
20
0.7912992125984252
11
0.4315342519685039
21
0.7875326377952756
0
LINE
8
BLACK
6
CONTINUOUS
10
0.4315342519685039
20
0.7875326377952756
11
0.4294006692913386
21
0.7843394881889764
0
LINE
8
BLACK
6
CONTINUOUS
10
0.4294006692913386
20
0.7843394881889764
11
0.4262075196850393
21
0.782205905511811
0
LINE
8
BLACK
6
CONTINUOUS
10
0.4262075196850393
20
0.782205905511811
11
0.4224409448818898
21
0.7814566929133858
0
LINE
8
BLACK
6
CONTINUOUS
10
0.4224409448818898
20
0.7814566929133858
11
0.402755905511811
21
0.7814566929133858
0
LINE
8
BLACK
6
CONTINUOUS
10
0.402755905511811
20
0.7814566929133858
11
0.3989893307086614
21
0.782205905511811
0
LINE
8
BLACK
6
CONTINUOUS
10
0.3989893307086614
20
0.782205905511811
11
0.3957961811023622
21
0.7843394881889764
0
LINE
8
BLACK
6
CONTINUOUS
10
0.3957961811023622
20
0.7843394881889764
11
0.3936625984251969
21
0.7875326377952756
0
LINE
8
BLACK
6
CONTINUOUS
10
0.3936625984251969
20
0.7875326377952756
11
0.3929133858267717
21
0.7912992125984252
0
LINE
8
BLACK
6
CONTINUOUS
10
0.3929133858267717
20
0.7912992125984252
11
0.3929133858267717
21
0.8287007874015748
0
LINE
8
BLACK
6
CONTINUOUS
10
0.3929133858267717
20
0.8287007874015748
11
0.3936625984251969
21
0.8324673622047244
0
LINE
8
BLACK
6
CONTINUOUS
10
0.3936625984251969
20
0.8324673622047244
11
0.3957961811023622
21
0.8356605118110236
0
LINE
8
BLACK
6
CONTINUOUS
10
0.3957961811023622
20
0.8356605118110236
11
0.3989893307086614
21
0.837794094488189
0
LINE
8
BLACK
6
CONTINUOUS
10
0.3989893307086614
20
0.837794094488189
11
0.402755905511811
21
0.8385433070866142
0
LINE
8
BLACK
6
CONTINUOUS
10
0.402755905511811
20
0.8385433070866142
11
0.4224409448818898
21
0.8385433070866142
0
LINE
8
BLACK
6
CONTINUOUS
10
0.4224409448818898
20
0.8385433070866142
11
0.4262075196850393
21
0.837794094488189
0
LINE
8
BLACK
6
CONTINUOUS
10
0.5010106692913385
20
0.837794094488189
11
0.5042038188976378
21
0.8356605118110236
0
LINE
8
BLACK
6
CONTINUOUS
10
0.5042038188976378
20
0.8356605118110236
11
0.5063374015748031
21
0.8324673622047244
0
LINE
8
BLACK
6
CONTINUOUS
10
0.5063374015748031
20
0.8324673622047244
11
0.5070866141732283
21
0.8287007874015748
0
LINE
8
BLACK
6
CONTINUOUS
10
0.5070866141732283
20
0.8287007874015748
11
0.5070866141732283
21
0.7912992125984252
0
LINE
8
BLACK
6
CONTINUOUS
10
0.5070866141732283
20
0.7912992125984252
11
0.5063374015748031
21
0.7875326377952756
0
LINE
8
BLACK
6
CONTINUOUS
10
0.5063374015748031
20
0.7875326377952756
11
0.5042038188976378
21
0.7843394881889764
0
LINE
8
BLACK
6
CONTINUOUS
10
0.5042038188976378
20
0.7843394881889764
11
0.5010106692913385
21
0.782205905511811
0
LINE
8
BLACK
6
CONTINUOUS
10
0.5010106692913385
20
0.782205905511811
11
0.497244094488189
21
0.7814566929133858
0
LINE
8
BLACK
6
CONTINUOUS
10
0.497244094488189
20
0.7814566929133858
11
0.4775590551181102
21
0.7814566929133858
0
LINE
8
BLACK
6
CONTINUOUS
10
0.4775590551181102
20
0.7814566929133858
11
0.4737924803149606
21
0.782205905511811
0
LINE
8
BLACK
6
CONTINUOUS
10
0.4737924803149606
20
0.782205905511811
11
0.4705993307086614
21
0.7843394881889764
0
LINE
8
BLACK
6
CONTINUOUS
10
0.4705993307086614
20
0.7843394881889764
11
0.468465748031496
21
0.7875326377952756
0
LINE
8
BLACK
6
CONTINUOUS
10
0.468465748031496
20
0.7875326377952756
11
0.4677165354330708
21
0.7912992125984252
0
LINE
8
BLACK
6
CONTINUOUS
10
0.4677165354330708
20
0.7912992125984252
11
0.4677165354330708
21
0.8287007874015748
0
LINE
8
BLACK
6
CONTINUOUS
10
0.4677165354330708
20
0.8287007874015748
11
0.468465748031496
21
0.8324673622047244
0
LINE
8
BLACK
6
CONTINUOUS
10
0.468465748031496
20
0.8324673622047244
11
0.4705993307086614
21
0.8356605118110236
0
LINE
8
BLACK
6
CONTINUOUS
10
0.4705993307086614
20
0.8356605118110236
11
0.4737924803149606
21
0.837794094488189
0
LINE
8
BLACK
6
CONTINUOUS
10
0.4737924803149606
20
0.837794094488189
11
0.4775590551181102
21
0.8385433070866142
0
LINE
8
BLACK
6
CONTINUOUS
10
0.4775590551181102
20
0.8385433070866142
11
0.497244094488189
21
0.8385433070866142
0
LINE
8
BLACK
6
CONTINUOUS
10
0.497244094488189
20
0.8385433070866142
11
0.5010106692913385
21
0.837794094488189
0
LINE
8
BLACK
6
CONTINUOUS
10
0.6724831102362204
20
0.8553531496062992
11
0.6756762598425197
21
0.8532195669291338
0
LINE
8
BLACK
6
CONTINUOUS
10
0.6756762598425197
20
0.8532195669291338
11
0.677809842519685
21
0.8500264173228346
0
LINE
8
BLACK
6
CONTINUOUS
10
0.677809842519685
20
0.8500264173228346
11
0.6785590551181102
21
0.846259842519685
0
LINE
8
BLACK
6
CONTINUOUS
10
0.6785590551181102
20
0.846259842519685
11
0.6785590551181102
21
0.8255905511811024
0
LINE
8
BLACK
6
CONTINUOUS
10
0.6785590551181102
20
0.8255905511811024
11
0.677809842519685
21
0.8218239763779528
0
LINE
8
BLACK
6
CONTINUOUS
10
0.677809842519685
20
0.8218239763779528
11
0.6756762598425197
21
0.8186308267716536
0
LINE
8
BLACK
6
CONTINUOUS
10
0.6756762598425197
20
0.8186308267716536
11
0.6724831102362204
21
0.8164972440944882
0
LINE
8
BLACK
6
CONTINUOUS
10
0.6724831102362204
20
0.8164972440944882
11
0.6687165354330709
21
0.815748031496063
0
LINE
8
BLACK
6
CONTINUOUS
10
0.6687165354330709
20
0.815748031496063
11
0.6332834645669291
21
0.815748031496063
0
LINE
8
BLACK
6
CONTINUOUS
10
0.6332834645669291
20
0.815748031496063
11
0.6295168897637795
21
0.8164972440944882
0
LINE
8
BLACK
6
CONTINUOUS
10
0.6295168897637795
20
0.8164972440944882
11
0.6263237401574803
21
0.8186308267716536
0
LINE
8
BLACK
6
CONTINUOUS
10
0.6263237401574803
20
0.8186308267716536
11
0.6241901574803149
21
0.8218239763779528
0
LINE
8
BLACK
6
CONTINUOUS
10
0.6241901574803149
20
0.8218239763779528
11
0.6234409448818897
21
0.8255905511811024
0
LINE
8
BLACK
6
CONTINUOUS
10
0.6234409448818897
20
0.8255905511811024
11
0.6234409448818897
21
0.846259842519685
0
LINE
8
BLACK
6
CONTINUOUS
10
0.6234409448818897
20
0.846259842519685
11
0.6241901574803149
21
0.8500264173228346
0
LINE
8
BLACK
6
CONTINUOUS
10
0.6241901574803149
20
0.8500264173228346
11
0.6263237401574803
21
0.8532195669291338
0
LINE
8
BLACK
6
CONTINUOUS
10
0.6263237401574803
20
0.8532195669291338
11
0.6295168897637795
21
0.8553531496062992
0
LINE
8
BLACK
6
CONTINUOUS
10
0.6295168897637795
20
0.8553531496062992
11
0.6332834645669291
21
0.8561023622047244
0
LINE
8
BLACK
6
CONTINUOUS
10
0.6332834645669291
20
0.8561023622047244
11
0.6687165354330709
21
0.8561023622047244
0
LINE
8
BLACK
6
CONTINUOUS
10
0.6687165354330709
20
0.8561023622047244
11
0.6724831102362204
21
0.8553531496062992
0
LINE
8
BLACK
6
CONTINUOUS
10
0.2757638976377953
20
0.92084968503937
11
0.2776797637795276
21
0.9195695275590551
0
LINE
8
BLACK
6
CONTINUOUS
10
0.2776797637795276
20
0.9195695275590551
11
0.2789599212598425
21
0.9176536614173229
0
LINE
8
BLACK
6
CONTINUOUS
10
0.2789599212598425
20
0.9176536614173229
11
0.2794094488188976
21
0.9153937007874016
0
LINE
8
BLACK
6
CONTINUOUS
10
0.2794094488188976
20
0.9153937007874016
11
0.2794094488188976
21
0.8750393700787401
0
LINE
8
BLACK
6
CONTINUOUS
10
0.2794094488188976
20
0.8750393700787401
11
0.2789599212598425
21
0.8727794094488189
0
LINE
8
BLACK
6
CONTINUOUS
10
0.2789599212598425
20
0.8727794094488189
11
0.2776797637795276
21
0.8708635433070866
0
LINE
8
BLACK
6
CONTINUOUS
10
0.2776797637795276
20
0.8708635433070866
11
0.2757638976377953
21
0.8695833858267716
0
LINE
8
BLACK
6
CONTINUOUS
10
0.2757638976377953
20
0.8695833858267716
11
0.273503937007874
21
0.8691338582677165
0
LINE
8
BLACK
6
CONTINUOUS
10
0.273503937007874
20
0.8691338582677165
11
0.2616929133858268
21
0.8691338582677165
0
LINE
8
BLACK
6
CONTINUOUS
10
0.2616929133858268
20
0.8691338582677165
11
0.2594329527559055
21
0.8695833858267716
0
LINE
8
BLACK
6
CONTINUOUS
10
0.2594329527559055
20
0.8695833858267716
11
0.2575170866141732
21
0.8708635433070866
0
LINE
8
BLACK
6
CONTINUOUS
10
0.2575170866141732
20
0.8708635433070866
11
0.2562369291338583
21
0.8727794094488189
0
LINE
8
BLACK
6
CONTINUOUS
10
0.2562369291338583
20
0.8727794094488189
11
0.2557874015748031
21
0.8750393700787401
0
LINE
8
BLACK
6
CONTINUOUS
10
0.2557874015748031
20
0.8750393700787401
11
0.2557874015748031
21
0.9153937007874016
0
LINE
8
BLACK
6
CONTINUOUS
10
0.2557874015748031
20
0.9153937007874016
11
0.2562369291338583
21
0.9176536614173229
0
LINE
8
BLACK
6
CONTINUOUS
10
0.2562369291338583
20
0.9176536614173229
11
0.2575170866141732
21
0.9195695275590551
0
LINE
8
BLACK
6
CONTINUOUS
10
0.2575170866141732
20
0.9195695275590551
11
0.2594329527559055
21
0.92084968503937
0
LINE
8
BLACK
6
CONTINUOUS
10
0.2594329527559055
20
0.92084968503937
11
0.2616929133858268
21
0.9212992125984252
0
LINE
8
BLACK
6
CONTINUOUS
10
0.2616929133858268
20
0.9212992125984252
11
0.273503937007874
21
0.9212992125984252
0
LINE
8
BLACK
6
CONTINUOUS
10
0.273503937007874
20
0.9212992125984252
11
0.2757638976377953
21
0.92084968503937
0
LINE
8
BLACK
6
CONTINUOUS
10
0.3131654724409449
20
0.92084968503937
11
0.3150813385826772
21
0.9195695275590551
0
LINE
8
BLACK
6
CONTINUOUS
10
0.3150813385826772
20
0.9195695275590551
11
0.3163614960629921
21
0.9176536614173229
0
LINE
8
BLACK
6
CONTINUOUS
10
0.3163614960629921
20
0.9176536614173229
11
0.3168110236220472
21
0.9153937007874016
0
LINE
8
BLACK
6
CONTINUOUS
10
0.3168110236220472
20
0.9153937007874016
11
0.3168110236220472
21
0.8750393700787401
0
LINE
8
BLACK
6
CONTINUOUS
10
0.3168110236220472
20
0.8750393700787401
11
0.3163614960629921
21
0.8727794094488189
0
LINE
8
BLACK
6
CONTINUOUS
10
0.3163614960629921
20
0.8727794094488189
11
0.3150813385826772
21
0.8708635433070866
0
LINE
8
BLACK
6
CONTINUOUS
10
0.3150813385826772
20
0.8708635433070866
11
0.3131654724409449
21
0.8695833858267716
0
LINE
8
BLACK
6
CONTINUOUS
10
0.3131654724409449
20
0.8695833858267716
11
0.3109055118110236
21
0.8691338582677165
0
LINE
8
BLACK
6
CONTINUOUS
10
0.3109055118110236
20
0.8691338582677165
11
0.2990944881889764
21
0.8691338582677165
0
LINE
8
BLACK
6
CONTINUOUS
10
0.2990944881889764
20
0.8691338582677165
11
0.2968345275590551
21
0.8695833858267716
0
LINE
8
BLACK
6
CONTINUOUS
10
0.2968345275590551
20
0.8695833858267716
11
0.2949186614173228
21
0.8708635433070866
0
LINE
8
BLACK
6
CONTINUOUS
10
0.2949186614173228
20
0.8708635433070866
11
0.2936385039370079
21
0.8727794094488189
0
LINE
8
BLACK
6
CONTINUOUS
10
0.2936385039370079
20
0.8727794094488189
11
0.2931889763779528
21
0.8750393700787401
0
LINE
8
BLACK
6
CONTINUOUS
10
0.2931889763779528
20
0.8750393700787401
11
0.2931889763779528
21
0.9153937007874016
0
LINE
8
BLACK
6
CONTINUOUS
10
0.2931889763779528
20
0.9153937007874016
11
0.2936385039370079
21
0.9176536614173229
0
LINE
8
BLACK
6
CONTINUOUS
10
0.2936385039370079
20
0.9176536614173229
11
0.2949186614173228
21
0.9195695275590551
0
LINE
8
BLACK
6
CONTINUOUS
10
0.2949186614173228
20
0.9195695275590551
11
0.2968345275590551
21
0.92084968503937
0
LINE
8
BLACK
6
CONTINUOUS
10
0.2968345275590551
20
0.92084968503937
11
0.2990944881889764
21
0.9212992125984252
0
LINE
8
BLACK
6
CONTINUOUS
10
0.2990944881889764
20
0.9212992125984252
11
0.3109055118110236
21
0.9212992125984252
0
LINE
8
BLACK
6
CONTINUOUS
10
0.3109055118110236
20
0.9212992125984252
11
0.3131654724409449
21
0.92084968503937
0
LINE
8
BLACK
6
CONTINUOUS
10
0.3505670472440945
20
0.92084968503937
11
0.3524829133858268
21
0.9195695275590551
0
LINE
8
BLACK
6
CONTINUOUS
10
0.3524829133858268
20
0.9195695275590551
11
0.3537630708661417
21
0.9176536614173229
0
LINE
8
BLACK
6
CONTINUOUS
10
0.3537630708661417
20
0.9176536614173229
11
0.3542125984251969
21
0.9153937007874016
0
LINE
8
BLACK
6
CONTINUOUS
10
0.3542125984251969
20
0.9153937007874016
11
0.3542125984251969
21
0.8750393700787401
0
LINE
8
BLACK
6
CONTINUOUS
10
0.3542125984251969
20
0.8750393700787401
11
0.3537630708661417
21
0.8727794094488189
0
LINE
8
BLACK
6
CONTINUOUS
10
0.3537630708661417
20
0.8727794094488189
11
0.3524829133858268
21
0.8708635433070866
0
LINE
8
BLACK
6
CONTINUOUS
10
0.3524829133858268
20
0.8708635433070866
11
0.3505670472440945
21
0.8695833858267716
0
LINE
8
BLACK
6
CONTINUOUS
10
0.3505670472440945
20
0.8695833858267716
11
0.3483070866141732
21
0.8691338582677165
0
LINE
8
BLACK
6
CONTINUOUS
10
0.3483070866141732
20
0.8691338582677165
11
0.336496062992126
21
0.8691338582677165
0
LINE
8
BLACK
6
CONTINUOUS
10
0.336496062992126
20
0.8691338582677165
11
0.3342361023622047
21
0.8695833858267716
0
LINE
8
BLACK
6
CONTINUOUS
10
0.3342361023622047
20
0.8695833858267716
11
0.3323202362204724
21
0.8708635433070866
0
LINE
8
BLACK
6
CONTINUOUS
10
0.3323202362204724
20
0.8708635433070866
11
0.3310400787401575
21
0.8727794094488189
0
LINE
8
BLACK
6
CONTINUOUS
10
0.3310400787401575
20
0.8727794094488189
11
0.3305905511811024
21
0.8750393700787401
0
LINE
8
BLACK
6
CONTINUOUS
10
0.3305905511811024
20
0.8750393700787401
11
0.3305905511811024
21
0.9153937007874016
0
LINE
8
BLACK
6
CONTINUOUS
10
0.3305905511811024
20
0.9153937007874016
11
0.3310400787401575
21
0.9176536614173229
0
LINE
8
BLACK
6
CONTINUOUS
10
0.3310400787401575
20
0.9176536614173229
11
0.3323202362204724
21
0.9195695275590551
0
LINE
8
BLACK
6
CONTINUOUS
10
0.3323202362204724
20
0.9195695275590551
11
0.3342361023622047
21
0.92084968503937
0
LINE
8
BLACK
6
CONTINUOUS
10
0.3342361023622047
20
0.92084968503937
11
0.336496062992126
21
0.9212992125984252
0
LINE
8
BLACK
6
CONTINUOUS
10
0.336496062992126
20
0.9212992125984252
11
0.3483070866141732
21
0.9212992125984252
0
LINE
8
BLACK
6
CONTINUOUS
10
0.3483070866141732
20
0.9212992125984252
11
0.3505670472440945
21
0.92084968503937
0
LINE
8
BLACK
6
CONTINUOUS
10
0.2757638976377953
20
1.0104166141732283
11
0.2776797637795276
21
1.0091364566929133
0
LINE
8
BLACK
6
CONTINUOUS
10
0.2776797637795276
20
1.0091364566929133
11
0.2789599212598425
21
1.0072205905511811
0
LINE
8
BLACK
6
CONTINUOUS
10
0.2789599212598425
20
1.0072205905511811
11
0.2794094488188976
21
1.0049606299212599
0
LINE
8
BLACK
6
CONTINUOUS
10
0.2794094488188976
20
1.0049606299212599
11
0.2794094488188976
21
0.9646062992125984
0
LINE
8
BLACK
6
CONTINUOUS
10
0.2794094488188976
20
0.9646062992125984
11
0.2789599212598425
21
0.9623463385826772
0
LINE
8
BLACK
6
CONTINUOUS
10
0.2789599212598425
20
0.9623463385826772
11
0.2776797637795276
21
0.9604304724409448
0
LINE
8
BLACK
6
CONTINUOUS
10
0.2776797637795276
20
0.9604304724409448
11
0.2757638976377953
21
0.9591503149606299
0
LINE
8
BLACK
6
CONTINUOUS
10
0.2757638976377953
20
0.9591503149606299
11
0.273503937007874
21
0.9587007874015748
0
LINE
8
BLACK
6
CONTINUOUS
10
0.273503937007874
20
0.9587007874015748
11
0.2616929133858268
21
0.9587007874015748
0
LINE
8
BLACK
6
CONTINUOUS
10
0.2616929133858268
20
0.9587007874015748
11
0.2594329527559055
21
0.9591503149606299
0
LINE
8
BLACK
6
CONTINUOUS
10
0.2594329527559055
20
0.9591503149606299
11
0.2575170866141732
21
0.9604304724409448
0
LINE
8
BLACK
6
CONTINUOUS
10
0.2575170866141732
20
0.9604304724409448
11
0.2562369291338583
21
0.9623463385826772
0
LINE
8
BLACK
6
CONTINUOUS
10
0.2562369291338583
20
0.9623463385826772
11
0.2557874015748031
21
0.9646062992125984
0
LINE
8
BLACK
6
CONTINUOUS
10
0.2557874015748031
20
0.9646062992125984
11
0.2557874015748031
21
1.0049606299212599
0
LINE
8
BLACK
6
CONTINUOUS
10
0.2557874015748031
20
1.0049606299212599
11
0.2562369291338583
21
1.0072205905511811
0
LINE
8
BLACK
6
CONTINUOUS
10
0.2562369291338583
20
1.0072205905511811
11
0.2575170866141732
21
1.0091364566929133
0
LINE
8
BLACK
6
CONTINUOUS
10
0.2575170866141732
20
1.0091364566929133
11
0.2594329527559055
21
1.0104166141732283
0
LINE
8
BLACK
6
CONTINUOUS
10
0.2594329527559055
20
1.0104166141732283
11
0.2616929133858268
21
1.0108661417322835
0
LINE
8
BLACK
6
CONTINUOUS
10
0.2616929133858268
20
1.0108661417322835
11
0.273503937007874
21
1.0108661417322835
0
LINE
8
BLACK
6
CONTINUOUS
10
0.273503937007874
20
1.0108661417322835
11
0.2757638976377953
21
1.0104166141732283
0
LINE
8
BLACK
6
CONTINUOUS
10
0.3131654724409449
20
1.0104166141732283
11
0.3150813385826772
21
1.0091364566929133
0
LINE
8
BLACK
6
CONTINUOUS
10
0.3150813385826772
20
1.0091364566929133
11
0.3163614960629921
21
1.0072205905511811
0
LINE
8
BLACK
6
CONTINUOUS
10
0.3163614960629921
20
1.0072205905511811
11
0.3168110236220472
21
1.0049606299212599
0
LINE
8
BLACK
6
CONTINUOUS
10
0.3168110236220472
20
1.0049606299212599
11
0.3168110236220472
21
0.9646062992125984
0
LINE
8
BLACK
6
CONTINUOUS
10
0.3168110236220472
20
0.9646062992125984
11
0.3163614960629921
21
0.9623463385826772
0
LINE
8
BLACK
6
CONTINUOUS
10
0.3163614960629921
20
0.9623463385826772
11
0.3150813385826772
21
0.9604304724409448
0
LINE
8
BLACK
6
CONTINUOUS
10
0.3150813385826772
20
0.9604304724409448
11
0.3131654724409449
21
0.9591503149606299
0
LINE
8
BLACK
6
CONTINUOUS
10
0.3131654724409449
20
0.9591503149606299
11
0.3109055118110236
21
0.9587007874015748
0
LINE
8
BLACK
6
CONTINUOUS
10
0.3109055118110236
20
0.9587007874015748
11
0.2990944881889764
21
0.9587007874015748
0
LINE
8
BLACK
6
CONTINUOUS
10
0.2990944881889764
20
0.9587007874015748
11
0.2968345275590551
21
0.9591503149606299
0
LINE
8
BLACK
6
CONTINUOUS
10
0.2968345275590551
20
0.9591503149606299
11
0.2949186614173228
21
0.9604304724409448
0
LINE
8
BLACK
6
CONTINUOUS
10
0.2949186614173228
20
0.9604304724409448
11
0.2936385039370079
21
0.9623463385826772
0
LINE
8
BLACK
6
CONTINUOUS
10
0.2936385039370079
20
0.9623463385826772
11
0.2931889763779528
21
0.9646062992125984
0
LINE
8
BLACK
6
CONTINUOUS
10
0.2931889763779528
20
0.9646062992125984
11
0.2931889763779528
21
1.0049606299212599
0
LINE
8
BLACK
6
CONTINUOUS
10
0.2931889763779528
20
1.0049606299212599
11
0.2936385039370079
21
1.0072205905511811
0
LINE
8
BLACK
6
CONTINUOUS
10
0.2936385039370079
20
1.0072205905511811
11
0.2949186614173228
21
1.0091364566929133
0
LINE
8
BLACK
6
CONTINUOUS
10
0.2949186614173228
20
1.0091364566929133
11
0.2968345275590551
21
1.0104166141732283
0
LINE
8
BLACK
6
CONTINUOUS
10
0.2968345275590551
20
1.0104166141732283
11
0.2990944881889764
21
1.0108661417322835
0
LINE
8
BLACK
6
CONTINUOUS
10
0.2990944881889764
20
1.0108661417322835
11
0.3109055118110236
21
1.0108661417322835
0
LINE
8
BLACK
6
CONTINUOUS
10
0.3109055118110236
20
1.0108661417322835
11
0.3131654724409449
21
1.0104166141732283
0
LINE
8
BLACK
6
CONTINUOUS
10
0.3505670472440945
20
1.0104166141732283
11
0.3524829133858268
21
1.0091364566929133
0
LINE
8
BLACK
6
CONTINUOUS
10
0.3524829133858268
20
1.0091364566929133
11
0.3537630708661417
21
1.0072205905511811
0
LINE
8
BLACK
6
CONTINUOUS
10
0.3537630708661417
20
1.0072205905511811
11
0.3542125984251969
21
1.0049606299212599
0
LINE
8
BLACK
6
CONTINUOUS
10
0.3542125984251969
20
1.0049606299212599
11
0.3542125984251969
21
0.9646062992125984
0
LINE
8
BLACK
6
CONTINUOUS
10
0.3542125984251969
20
0.9646062992125984
11
0.3537630708661417
21
0.9623463385826772
0
LINE
8
BLACK
6
CONTINUOUS
10
0.3537630708661417
20
0.9623463385826772
11
0.3524829133858268
21
0.9604304724409448
0
LINE
8
BLACK
6
CONTINUOUS
10
0.3524829133858268
20
0.9604304724409448
11
0.3505670472440945
21
0.9591503149606299
0
LINE
8
BLACK
6
CONTINUOUS
10
0.3505670472440945
20
0.9591503149606299
11
0.3483070866141732
21
0.9587007874015748
0
LINE
8
BLACK
6
CONTINUOUS
10
0.3483070866141732
20
0.9587007874015748
11
0.336496062992126
21
0.9587007874015748
0
LINE
8
BLACK
6
CONTINUOUS
10
0.336496062992126
20
0.9587007874015748
11
0.3342361023622047
21
0.9591503149606299
0
LINE
8
BLACK
6
CONTINUOUS
10
0.3342361023622047
20
0.9591503149606299
11
0.3323202362204724
21
0.9604304724409448
0
LINE
8
BLACK
6
CONTINUOUS
10
0.3323202362204724
20
0.9604304724409448
11
0.3310400787401575
21
0.9623463385826772
0
LINE
8
BLACK
6
CONTINUOUS
10
0.3310400787401575
20
0.9623463385826772
11
0.3305905511811024
21
0.9646062992125984
0
LINE
8
BLACK
6
CONTINUOUS
10
0.3305905511811024
20
0.9646062992125984
11
0.3305905511811024
21
1.0049606299212599
0
LINE
8
BLACK
6
CONTINUOUS
10
0.3305905511811024
20
1.0049606299212599
11
0.3310400787401575
21
1.0072205905511811
0
LINE
8
BLACK
6
CONTINUOUS
10
0.3310400787401575
20
1.0072205905511811
11
0.3323202362204724
21
1.0091364566929133
0
LINE
8
BLACK
6
CONTINUOUS
10
0.3323202362204724
20
1.0091364566929133
11
0.3342361023622047
21
1.0104166141732283
0
LINE
8
BLACK
6
CONTINUOUS
10
0.3342361023622047
20
1.0104166141732283
11
0.336496062992126
21
1.0108661417322835
0
LINE
8
BLACK
6
CONTINUOUS
10
0.336496062992126
20
1.0108661417322835
11
0.3483070866141732
21
1.0108661417322835
0
LINE
8
BLACK
6
CONTINUOUS
10
0.3483070866141732
20
1.0108661417322835
11
0.3505670472440945
21
1.0104166141732283
0
CIRCLE
8
BLACK
10
0.85
20
0.25
40
0.0068897637795276
0
CIRCLE
8
BLACK
10
0.75
20
0.25
40
0.0068897637795276
0
CIRCLE
8
BLACK
10
0.85
20
0.35
40
0.0068897637795276
0
CIRCLE
8
BLACK
10
0.75
20
0.35
40
0.0068897637795276
0
CIRCLE
8
BLACK
10
0.85
20
0.45
40
0.0068897637795276
0
CIRCLE
8
BLACK
10
0.75
20
0.45
40
0.0068897637795276
0
CIRCLE
8
BLACK
10
0.85
20
0.5499999999999999
40
0.0068897637795276
0
CIRCLE
8
BLACK
10
0.75
20
0.5499999999999999
40
0.0068897637795276
0
CIRCLE
8
BLACK
10
0.
20
1.2
40
0.0068897637795276
0
CIRCLE
8
BLACK
10
0.7999999999999999
20
0.
40
0.0068897637795276
0
CIRCLE
8
BLACK
10
0.85
20
0.65
40
0.0068897637795276
0
CIRCLE
8
BLACK
10
0.75
20
0.65
40
0.0068897637795276
0
CIRCLE
8
BLACK
10
0.85
20
0.75
40
0.0068897637795276
0
CIRCLE
8
BLACK
10
0.75
20
0.75
40
0.0068897637795276
0
CIRCLE
8
BLACK
10
0.85
20
0.85
40
0.0068897637795276
0
CIRCLE
8
BLACK
10
0.75
20
0.85
40
0.0068897637795276
0
CIRCLE
8
BLACK
10
0.85
20
0.95
40
0.0068897637795276
0
CIRCLE
8
BLACK
10
0.75
20
0.95
40
0.0068897637795276
0
CIRCLE
8
BLACK
10
0.4
20
0.
40
0.0068897637795276
0
CIRCLE
8
BLACK
10
0.3
20
0.1
40
0.0068897637795276
0
CIRCLE
8
BLACK
10
0.3
20
-0.1
40
0.0068897637795276
0
CIRCLE
8
BLACK
10
0.5
20
0.1
40
0.0068897637795276
0
CIRCLE
8
BLACK
10
0.5
20
-0.1
40
0.0068897637795276
0
CIRCLE
8
BLACK
10
0.4
20
0.7
40
0.0068897637795276
0
CIRCLE
8
BLACK
10
0.5
20
0.7
40
0.0068897637795276
0
CIRCLE
8
BLACK
10
0.4
20
0.6
40
0.0068897637795276
0
CIRCLE
8
BLACK
10
0.5
20
0.6
40
0.0068897637795276
0
CIRCLE
8
BLACK
10
0.4
20
0.5
40
0.0068897637795276
0
CIRCLE
8
BLACK
10
0.5
20
0.5
40
0.0068897637795276
0
CIRCLE
8
BLACK
10
0.
20
0.7999999999999999
40
0.0068897637795276
0
CIRCLE
8
BLACK
10
-0.1
20
0.9
40
0.0068897637795276
0
CIRCLE
8
BLACK
10
-0.1
20
0.7
40
0.0068897637795276
0
CIRCLE
8
BLACK
10
0.1
20
0.9
40
0.0068897637795276
0
CIRCLE
8
BLACK
10
0.1
20
0.7
40
0.0068897637795276
0
CIRCLE
8
BLACK
10
0.
20
0.
40
0.0068897637795276
0
CIRCLE
8
BLACK
10
0.7999999999999999
20
1.2
40
0.0068897637795276
0
CIRCLE
8
BLACK
10
0.4
20
1.2
40
0.0068897637795276
0
CIRCLE
8
BLACK
10
0.3
20
1.3
40
0.0068897637795276
0
CIRCLE
8
BLACK
10
0.3
20
1.0999999999999999
40
0.0068897637795276
0
CIRCLE
8
BLACK
10
0.5
20
1.3
40
0.0068897637795276
0
CIRCLE
8
BLACK
10
0.5
20
1.0999999999999999
40
0.0068897637795276
0
CIRCLE
8
BLACK
10
0.
20
0.4
40
0.0068897637795276
0
CIRCLE
8
BLACK
10
-0.1
20
0.5
40
0.0068897637795276
0
CIRCLE
8
BLACK
10
-0.1
20
0.3
40
0.0068897637795276
0
CIRCLE
8
BLACK
10
0.1
20
0.5
40
0.0068897637795276
0
CIRCLE
8
BLACK
10
0.1
20
0.3
40
0.0068897637795276
  0
ENDSEC
  0
EOF
