  0
SECTION
  2
HEADER
  9
$ANGBASE
  50
0.0
  9
$ANGDIR
  70
1
  9
$MEASUREMENT
  70
0
  0
ENDSEC
  0
SECTION
  2
TABLES
  0
TABLE
  2
LTYPE
  70
4
  0
LTYPE
  5
40F
  2
CONTINUOUS
  70
0
  3
Solid line
  72
65
  73
0
  40
0.0
  0
LTYPE
  5
410
  2
DASHDOT
 70
0
  3
Dash Dot ____ _ ____ _
 72
65
 73
4
 40
2.0
 49
1.25
 49
-0.25
 49
0.25
 49
-0.25
  0
LTYPE
  5
411
  2
DASHED
 70
0
  3
Dashed __ __ __ __ __
 72
65
 73
2
 40
0.75
 49
0.5
 49
-0.25
  0
LTYPE
  5
43B
  2
DOTTED
 70
0
  3
Dotted .  .  .  .
 72
65
 73
2
 40
0.2
 49
0.0
 49
-0.2
  0
ENDTAB
  0
TABLE
  2
STYLE
  70
4
  0
STYLE
  2
KICAD
  70
0
  40
0
  41
1
  42
1
  50
0
  71
0
  3
isocp.shx
  0
STYLE
  2
KICADB
  70
0
  40
0
  41
1
  42
1
  50
0
  71
0
  3
isocp.shx
  0
STYLE
  2
KICADI
  70
0
  40
0
  41
1
  42
1
  50
15
  71
0
  3
isocp.shx
  0
STYLE
  2
KICADBI
  70
0
  40
0
  41
1
  42
1
  50
15
  71
0
  3
isocp.shx
  0
ENDTAB
  0
TABLE
  2
LAYER
  70
1
  0
LAYER
  2
BLACK
  70
0
  62
7
  6
CONTINUOUS
  0
ENDTAB
  0
ENDSEC
  0
SECTION
  2
ENTITIES
0
LINE
8
BLACK
6
CONTINUOUS
10
-1.11776
20
0.252765
11
-1.13744
21
0.252765
0
LINE
8
BLACK
6
CONTINUOUS
10
-1.13744
20
0.252765
11
-1.13744
21
0.292165
0
LINE
8
BLACK
6
CONTINUOUS
10
-1.13744
20
0.292165
11
-1.11776
21
0.292165
0
LINE
8
BLACK
6
CONTINUOUS
10
-1.11776
20
0.292165
11
-1.11776
21
0.252765
0
LINE
8
BLACK
6
CONTINUOUS
10
-1.08026
20
0.252765
11
-1.09994
21
0.252765
0
LINE
8
BLACK
6
CONTINUOUS
10
-1.09994
20
0.252765
11
-1.09994
21
0.292165
0
LINE
8
BLACK
6
CONTINUOUS
10
-1.09994
20
0.292165
11
-1.08026
21
0.292165
0
LINE
8
BLACK
6
CONTINUOUS
10
-1.08026
20
0.292165
11
-1.08026
21
0.252765
0
LINE
8
BLACK
6
CONTINUOUS
10
-1.04276
20
0.252765
11
-1.06244
21
0.252765
0
LINE
8
BLACK
6
CONTINUOUS
10
-1.06244
20
0.252765
11
-1.06244
21
0.292165
0
LINE
8
BLACK
6
CONTINUOUS
10
-1.06244
20
0.292165
11
-1.04276
21
0.292165
0
LINE
8
BLACK
6
CONTINUOUS
10
-1.04276
20
0.292165
11
-1.04276
21
0.252765
0
LINE
8
BLACK
6
CONTINUOUS
10
-0.874882
20
0.308504
11
-0.914252
21
0.308504
0
LINE
8
BLACK
6
CONTINUOUS
10
-0.914252
20
0.308504
11
-0.914252
21
0.320315
0
LINE
8
BLACK
6
CONTINUOUS
10
-0.914252
20
0.320315
11
-0.874882
21
0.320315
0
LINE
8
BLACK
6
CONTINUOUS
10
-0.874882
20
0.320315
11
-0.874882
21
0.308504
0
LINE
8
BLACK
6
CONTINUOUS
10
-0.945748
20
0.308504
11
-0.985118
21
0.308504
0
LINE
8
BLACK
6
CONTINUOUS
10
-0.985118
20
0.308504
11
-0.985118
21
0.320315
0
LINE
8
BLACK
6
CONTINUOUS
10
-0.985118
20
0.320315
11
-0.945748
21
0.320315
0
LINE
8
BLACK
6
CONTINUOUS
10
-0.945748
20
0.320315
11
-0.945748
21
0.308504
0
LINE
8
BLACK
6
CONTINUOUS
10
-0.874882
20
0.334094
11
-0.914252
21
0.334094
0
LINE
8
BLACK
6
CONTINUOUS
10
-0.914252
20
0.334094
11
-0.914252
21
0.345906
0
LINE
8
BLACK
6
CONTINUOUS
10
-0.914252
20
0.345906
11
-0.874882
21
0.345906
0
LINE
8
BLACK
6
CONTINUOUS
10
-0.874882
20
0.345906
11
-0.874882
21
0.334094
0
LINE
8
BLACK
6
CONTINUOUS
10
-0.945748
20
0.334094
11
-0.985118
21
0.334094
0
LINE
8
BLACK
6
CONTINUOUS
10
-0.985118
20
0.334094
11
-0.985118
21
0.345906
0
LINE
8
BLACK
6
CONTINUOUS
10
-0.985118
20
0.345906
11
-0.945748
21
0.345906
0
LINE
8
BLACK
6
CONTINUOUS
10
-0.945748
20
0.345906
11
-0.945748
21
0.334094
0
LINE
8
BLACK
6
CONTINUOUS
10
-1.04274
20
0.352765
11
-1.06246
21
0.352765
0
LINE
8
BLACK
6
CONTINUOUS
10
-1.06246
20
0.352765
11
-1.06246
21
0.392165
0
LINE
8
BLACK
6
CONTINUOUS
10
-1.06246
20
0.392165
11
-1.04274
21
0.392165
0
LINE
8
BLACK
6
CONTINUOUS
10
-1.04274
20
0.392165
11
-1.04274
21
0.352765
0
LINE
8
BLACK
6
CONTINUOUS
10
-1.08026
20
0.352765
11
-1.09994
21
0.352765
0
LINE
8
BLACK
6
CONTINUOUS
10
-1.09994
20
0.352765
11
-1.09994
21
0.392165
0
LINE
8
BLACK
6
CONTINUOUS
10
-1.09994
20
0.392165
11
-1.08026
21
0.392165
0
LINE
8
BLACK
6
CONTINUOUS
10
-1.08026
20
0.392165
11
-1.08026
21
0.352765
0
LINE
8
BLACK
6
CONTINUOUS
10
-1.11776
20
0.352765
11
-1.13744
21
0.352765
0
LINE
8
BLACK
6
CONTINUOUS
10
-1.13744
20
0.352765
11
-1.13744
21
0.392165
0
LINE
8
BLACK
6
CONTINUOUS
10
-1.13744
20
0.392165
11
-1.11776
21
0.392165
0
LINE
8
BLACK
6
CONTINUOUS
10
-1.11776
20
0.392165
11
-1.11776
21
0.352765
0
LINE
8
BLACK
6
CONTINUOUS
10
-0.874882
20
0.359685
11
-0.914252
21
0.359685
0
LINE
8
BLACK
6
CONTINUOUS
10
-0.914252
20
0.359685
11
-0.914252
21
0.371496
0
LINE
8
BLACK
6
CONTINUOUS
10
-0.914252
20
0.371496
11
-0.874882
21
0.371496
0
LINE
8
BLACK
6
CONTINUOUS
10
-0.874882
20
0.371496
11
-0.874882
21
0.359685
0
LINE
8
BLACK
6
CONTINUOUS
10
-0.945748
20
0.359685
11
-0.985118
21
0.359685
0
LINE
8
BLACK
6
CONTINUOUS
10
-0.985118
20
0.359685
11
-0.985118
21
0.371496
0
LINE
8
BLACK
6
CONTINUOUS
10
-0.985118
20
0.371496
11
-0.945748
21
0.371496
0
LINE
8
BLACK
6
CONTINUOUS
10
-0.945748
20
0.371496
11
-0.945748
21
0.359685
0
LINE
8
BLACK
6
CONTINUOUS
10
-1.30379
20
0.537794
11
-1.3006
21
0.535661
0
LINE
8
BLACK
6
CONTINUOUS
10
-1.3006
20
0.535661
11
-1.29847
21
0.532467
0
LINE
8
BLACK
6
CONTINUOUS
10
-1.29847
20
0.532467
11
-1.29772
21
0.528701
0
LINE
8
BLACK
6
CONTINUOUS
10
-1.29772
20
0.528701
11
-1.29772
21
0.491299
0
LINE
8
BLACK
6
CONTINUOUS
10
-1.29772
20
0.491299
11
-1.29847
21
0.487533
0
LINE
8
BLACK
6
CONTINUOUS
10
-1.29847
20
0.487533
11
-1.3006
21
0.484339
0
LINE
8
BLACK
6
CONTINUOUS
10
-1.3006
20
0.484339
11
-1.30379
21
0.482206
0
LINE
8
BLACK
6
CONTINUOUS
10
-1.30379
20
0.482206
11
-1.30756
21
0.481457
0
LINE
8
BLACK
6
CONTINUOUS
10
-1.30756
20
0.481457
11
-1.32724
21
0.481457
0
LINE
8
BLACK
6
CONTINUOUS
10
-1.32724
20
0.481457
11
-1.33101
21
0.482206
0
LINE
8
BLACK
6
CONTINUOUS
10
-1.33101
20
0.482206
11
-1.3342
21
0.484339
0
LINE
8
BLACK
6
CONTINUOUS
10
-1.3342
20
0.484339
11
-1.33634
21
0.487533
0
LINE
8
BLACK
6
CONTINUOUS
10
-1.33634
20
0.487533
11
-1.33709
21
0.491299
0
LINE
8
BLACK
6
CONTINUOUS
10
-1.33709
20
0.491299
11
-1.33709
21
0.528701
0
LINE
8
BLACK
6
CONTINUOUS
10
-1.33709
20
0.528701
11
-1.33634
21
0.532467
0
LINE
8
BLACK
6
CONTINUOUS
10
-1.33634
20
0.532467
11
-1.3342
21
0.535661
0
LINE
8
BLACK
6
CONTINUOUS
10
-1.3342
20
0.535661
11
-1.33101
21
0.537794
0
LINE
8
BLACK
6
CONTINUOUS
10
-1.33101
20
0.537794
11
-1.32724
21
0.538543
0
LINE
8
BLACK
6
CONTINUOUS
10
-1.32724
20
0.538543
11
-1.30756
21
0.538543
0
LINE
8
BLACK
6
CONTINUOUS
10
-1.30756
20
0.538543
11
-1.30379
21
0.537794
0
LINE
8
BLACK
6
CONTINUOUS
10
-1.22899
20
0.537794
11
-1.2258
21
0.535661
0
LINE
8
BLACK
6
CONTINUOUS
10
-1.2258
20
0.535661
11
-1.22366
21
0.532467
0
LINE
8
BLACK
6
CONTINUOUS
10
-1.22366
20
0.532467
11
-1.22291
21
0.528701
0
LINE
8
BLACK
6
CONTINUOUS
10
-1.22291
20
0.528701
11
-1.22291
21
0.491299
0
LINE
8
BLACK
6
CONTINUOUS
10
-1.22291
20
0.491299
11
-1.22366
21
0.487533
0
LINE
8
BLACK
6
CONTINUOUS
10
-1.22366
20
0.487533
11
-1.2258
21
0.484339
0
LINE
8
BLACK
6
CONTINUOUS
10
-1.2258
20
0.484339
11
-1.22899
21
0.482206
0
LINE
8
BLACK
6
CONTINUOUS
10
-1.22899
20
0.482206
11
-1.23276
21
0.481457
0
LINE
8
BLACK
6
CONTINUOUS
10
-1.23276
20
0.481457
11
-1.25244
21
0.481457
0
LINE
8
BLACK
6
CONTINUOUS
10
-1.25244
20
0.481457
11
-1.25621
21
0.482206
0
LINE
8
BLACK
6
CONTINUOUS
10
-1.25621
20
0.482206
11
-1.2594
21
0.484339
0
LINE
8
BLACK
6
CONTINUOUS
10
-1.2594
20
0.484339
11
-1.26153
21
0.487533
0
LINE
8
BLACK
6
CONTINUOUS
10
-1.26153
20
0.487533
11
-1.26228
21
0.491299
0
LINE
8
BLACK
6
CONTINUOUS
10
-1.26228
20
0.491299
11
-1.26228
21
0.528701
0
LINE
8
BLACK
6
CONTINUOUS
10
-1.26228
20
0.528701
11
-1.26153
21
0.532467
0
LINE
8
BLACK
6
CONTINUOUS
10
-1.26153
20
0.532467
11
-1.2594
21
0.535661
0
LINE
8
BLACK
6
CONTINUOUS
10
-1.2594
20
0.535661
11
-1.25621
21
0.537794
0
LINE
8
BLACK
6
CONTINUOUS
10
-1.25621
20
0.537794
11
-1.25244
21
0.538543
0
LINE
8
BLACK
6
CONTINUOUS
10
-1.25244
20
0.538543
11
-1.23276
21
0.538543
0
LINE
8
BLACK
6
CONTINUOUS
10
-1.23276
20
0.538543
11
-1.22899
21
0.537794
0
LINE
8
BLACK
6
CONTINUOUS
10
-1.22899
20
0.656298
11
-1.2258
21
0.654164
0
LINE
8
BLACK
6
CONTINUOUS
10
-1.2258
20
0.654164
11
-1.22366
21
0.650971
0
LINE
8
BLACK
6
CONTINUOUS
10
-1.22366
20
0.650971
11
-1.22291
21
0.647205
0
LINE
8
BLACK
6
CONTINUOUS
10
-1.22291
20
0.647205
11
-1.22291
21
0.609803
0
LINE
8
BLACK
6
CONTINUOUS
10
-1.22291
20
0.609803
11
-1.22366
21
0.606037
0
LINE
8
BLACK
6
CONTINUOUS
10
-1.22366
20
0.606037
11
-1.2258
21
0.602843
0
LINE
8
BLACK
6
CONTINUOUS
10
-1.2258
20
0.602843
11
-1.22899
21
0.60071
0
LINE
8
BLACK
6
CONTINUOUS
10
-1.22899
20
0.60071
11
-1.23276
21
0.599961
0
LINE
8
BLACK
6
CONTINUOUS
10
-1.23276
20
0.599961
11
-1.25244
21
0.599961
0
LINE
8
BLACK
6
CONTINUOUS
10
-1.25244
20
0.599961
11
-1.25621
21
0.60071
0
LINE
8
BLACK
6
CONTINUOUS
10
-1.25621
20
0.60071
11
-1.2594
21
0.602843
0
LINE
8
BLACK
6
CONTINUOUS
10
-1.2594
20
0.602843
11
-1.26153
21
0.606037
0
LINE
8
BLACK
6
CONTINUOUS
10
-1.26153
20
0.606037
11
-1.26228
21
0.609803
0
LINE
8
BLACK
6
CONTINUOUS
10
-1.26228
20
0.609803
11
-1.26228
21
0.647205
0
LINE
8
BLACK
6
CONTINUOUS
10
-1.26228
20
0.647205
11
-1.26153
21
0.650971
0
LINE
8
BLACK
6
CONTINUOUS
10
-1.26153
20
0.650971
11
-1.2594
21
0.654164
0
LINE
8
BLACK
6
CONTINUOUS
10
-1.2594
20
0.654164
11
-1.25621
21
0.656298
0
LINE
8
BLACK
6
CONTINUOUS
10
-1.25621
20
0.656298
11
-1.25244
21
0.657047
0
LINE
8
BLACK
6
CONTINUOUS
10
-1.25244
20
0.657047
11
-1.23276
21
0.657047
0
LINE
8
BLACK
6
CONTINUOUS
10
-1.23276
20
0.657047
11
-1.22899
21
0.656298
0
LINE
8
BLACK
6
CONTINUOUS
10
-1.30379
20
0.656298
11
-1.3006
21
0.654164
0
LINE
8
BLACK
6
CONTINUOUS
10
-1.3006
20
0.654164
11
-1.29847
21
0.650971
0
LINE
8
BLACK
6
CONTINUOUS
10
-1.29847
20
0.650971
11
-1.29772
21
0.647205
0
LINE
8
BLACK
6
CONTINUOUS
10
-1.29772
20
0.647205
11
-1.29772
21
0.609803
0
LINE
8
BLACK
6
CONTINUOUS
10
-1.29772
20
0.609803
11
-1.29847
21
0.606037
0
LINE
8
BLACK
6
CONTINUOUS
10
-1.29847
20
0.606037
11
-1.3006
21
0.602843
0
LINE
8
BLACK
6
CONTINUOUS
10
-1.3006
20
0.602843
11
-1.30379
21
0.60071
0
LINE
8
BLACK
6
CONTINUOUS
10
-1.30379
20
0.60071
11
-1.30756
21
0.599961
0
LINE
8
BLACK
6
CONTINUOUS
10
-1.30756
20
0.599961
11
-1.32724
21
0.599961
0
LINE
8
BLACK
6
CONTINUOUS
10
-1.32724
20
0.599961
11
-1.33101
21
0.60071
0
LINE
8
BLACK
6
CONTINUOUS
10
-1.33101
20
0.60071
11
-1.3342
21
0.602843
0
LINE
8
BLACK
6
CONTINUOUS
10
-1.3342
20
0.602843
11
-1.33634
21
0.606037
0
LINE
8
BLACK
6
CONTINUOUS
10
-1.33634
20
0.606037
11
-1.33709
21
0.609803
0
LINE
8
BLACK
6
CONTINUOUS
10
-1.33709
20
0.609803
11
-1.33709
21
0.647205
0
LINE
8
BLACK
6
CONTINUOUS
10
-1.33709
20
0.647205
11
-1.33634
21
0.650971
0
LINE
8
BLACK
6
CONTINUOUS
10
-1.33634
20
0.650971
11
-1.3342
21
0.654164
0
LINE
8
BLACK
6
CONTINUOUS
10
-1.3342
20
0.654164
11
-1.33101
21
0.656298
0
LINE
8
BLACK
6
CONTINUOUS
10
-1.33101
20
0.656298
11
-1.32724
21
0.657047
0
LINE
8
BLACK
6
CONTINUOUS
10
-1.32724
20
0.657047
11
-1.30756
21
0.657047
0
LINE
8
BLACK
6
CONTINUOUS
10
-1.30756
20
0.657047
11
-1.30379
21
0.656298
0
LINE
8
BLACK
6
CONTINUOUS
10
-1.12741
20
0.656495
11
-1.12422
21
0.654361
0
LINE
8
BLACK
6
CONTINUOUS
10
-1.12422
20
0.654361
11
-1.12209
21
0.651168
0
LINE
8
BLACK
6
CONTINUOUS
10
-1.12209
20
0.651168
11
-1.12134
21
0.647402
0
LINE
8
BLACK
6
CONTINUOUS
10
-1.12134
20
0.647402
11
-1.12134
21
0.611969
0
LINE
8
BLACK
6
CONTINUOUS
10
-1.12134
20
0.611969
11
-1.12209
21
0.608202
0
LINE
8
BLACK
6
CONTINUOUS
10
-1.12209
20
0.608202
11
-1.12422
21
0.605009
0
LINE
8
BLACK
6
CONTINUOUS
10
-1.12422
20
0.605009
11
-1.12741
21
0.602875
0
LINE
8
BLACK
6
CONTINUOUS
10
-1.12741
20
0.602875
11
-1.13118
21
0.602126
0
LINE
8
BLACK
6
CONTINUOUS
10
-1.13118
20
0.602126
11
-1.15185
21
0.602126
0
LINE
8
BLACK
6
CONTINUOUS
10
-1.15185
20
0.602126
11
-1.15562
21
0.602875
0
LINE
8
BLACK
6
CONTINUOUS
10
-1.15562
20
0.602875
11
-1.15881
21
0.605009
0
LINE
8
BLACK
6
CONTINUOUS
10
-1.15881
20
0.605009
11
-1.16094
21
0.608202
0
LINE
8
BLACK
6
CONTINUOUS
10
-1.16094
20
0.608202
11
-1.16169
21
0.611969
0
LINE
8
BLACK
6
CONTINUOUS
10
-1.16169
20
0.611969
11
-1.16169
21
0.647402
0
LINE
8
BLACK
6
CONTINUOUS
10
-1.16169
20
0.647402
11
-1.16094
21
0.651168
0
LINE
8
BLACK
6
CONTINUOUS
10
-1.16094
20
0.651168
11
-1.15881
21
0.654361
0
LINE
8
BLACK
6
CONTINUOUS
10
-1.15881
20
0.654361
11
-1.15562
21
0.656495
0
LINE
8
BLACK
6
CONTINUOUS
10
-1.15562
20
0.656495
11
-1.15185
21
0.657244
0
LINE
8
BLACK
6
CONTINUOUS
10
-1.15185
20
0.657244
11
-1.13118
21
0.657244
0
LINE
8
BLACK
6
CONTINUOUS
10
-1.13118
20
0.657244
11
-1.12741
21
0.656495
0
LINE
8
BLACK
6
CONTINUOUS
10
-1.05556
20
0.656495
11
-1.05237
21
0.654361
0
LINE
8
BLACK
6
CONTINUOUS
10
-1.05237
20
0.654361
11
-1.05024
21
0.651168
0
LINE
8
BLACK
6
CONTINUOUS
10
-1.05024
20
0.651168
11
-1.04949
21
0.647402
0
LINE
8
BLACK
6
CONTINUOUS
10
-1.04949
20
0.647402
11
-1.04949
21
0.611969
0
LINE
8
BLACK
6
CONTINUOUS
10
-1.04949
20
0.611969
11
-1.05024
21
0.608202
0
LINE
8
BLACK
6
CONTINUOUS
10
-1.05024
20
0.608202
11
-1.05237
21
0.605009
0
LINE
8
BLACK
6
CONTINUOUS
10
-1.05237
20
0.605009
11
-1.05556
21
0.602875
0
LINE
8
BLACK
6
CONTINUOUS
10
-1.05556
20
0.602875
11
-1.05933
21
0.602126
0
LINE
8
BLACK
6
CONTINUOUS
10
-1.05933
20
0.602126
11
-1.08
21
0.602126
0
LINE
8
BLACK
6
CONTINUOUS
10
-1.08
20
0.602126
11
-1.08377
21
0.602875
0
LINE
8
BLACK
6
CONTINUOUS
10
-1.08377
20
0.602875
11
-1.08696
21
0.605009
0
LINE
8
BLACK
6
CONTINUOUS
10
-1.08696
20
0.605009
11
-1.08909
21
0.608202
0
LINE
8
BLACK
6
CONTINUOUS
10
-1.08909
20
0.608202
11
-1.08984
21
0.611969
0
LINE
8
BLACK
6
CONTINUOUS
10
-1.08984
20
0.611969
11
-1.08984
21
0.647402
0
LINE
8
BLACK
6
CONTINUOUS
10
-1.08984
20
0.647402
11
-1.08909
21
0.651168
0
LINE
8
BLACK
6
CONTINUOUS
10
-1.08909
20
0.651168
11
-1.08696
21
0.654361
0
LINE
8
BLACK
6
CONTINUOUS
10
-1.08696
20
0.654361
11
-1.08377
21
0.656495
0
LINE
8
BLACK
6
CONTINUOUS
10
-1.08377
20
0.656495
11
-1.08
21
0.657244
0
LINE
8
BLACK
6
CONTINUOUS
10
-1.08
20
0.657244
11
-1.05933
21
0.657244
0
LINE
8
BLACK
6
CONTINUOUS
10
-1.05933
20
0.657244
11
-1.05556
21
0.656495
0
LINE
8
BLACK
6
CONTINUOUS
10
-0.74021
20
1.00216
11
-0.737017
21
1.00003
0
LINE
8
BLACK
6
CONTINUOUS
10
-0.737017
20
1.00003
11
-0.734883
21
0.996837
0
LINE
8
BLACK
6
CONTINUOUS
10
-0.734883
20
0.996837
11
-0.734134
21
0.993071
0
LINE
8
BLACK
6
CONTINUOUS
10
-0.734134
20
0.993071
11
-0.734134
21
0.957638
0
LINE
8
BLACK
6
CONTINUOUS
10
-0.734134
20
0.957638
11
-0.734883
21
0.953871
0
LINE
8
BLACK
6
CONTINUOUS
10
-0.734883
20
0.953871
11
-0.737017
21
0.950678
0
LINE
8
BLACK
6
CONTINUOUS
10
-0.737017
20
0.950678
11
-0.74021
21
0.948544
0
LINE
8
BLACK
6
CONTINUOUS
10
-0.74021
20
0.948544
11
-0.743976
21
0.947795
0
LINE
8
BLACK
6
CONTINUOUS
10
-0.743976
20
0.947795
11
-0.764646
21
0.947795
0
LINE
8
BLACK
6
CONTINUOUS
10
-0.764646
20
0.947795
11
-0.768412
21
0.948544
0
LINE
8
BLACK
6
CONTINUOUS
10
-0.768412
20
0.948544
11
-0.771605
21
0.950678
0
LINE
8
BLACK
6
CONTINUOUS
10
-0.771605
20
0.950678
11
-0.773739
21
0.953871
0
LINE
8
BLACK
6
CONTINUOUS
10
-0.773739
20
0.953871
11
-0.774488
21
0.957638
0
LINE
8
BLACK
6
CONTINUOUS
10
-0.774488
20
0.957638
11
-0.774488
21
0.993071
0
LINE
8
BLACK
6
CONTINUOUS
10
-0.774488
20
0.993071
11
-0.773739
21
0.996837
0
LINE
8
BLACK
6
CONTINUOUS
10
-0.773739
20
0.996837
11
-0.771605
21
1.00003
0
LINE
8
BLACK
6
CONTINUOUS
10
-0.771605
20
1.00003
11
-0.768412
21
1.00216
0
LINE
8
BLACK
6
CONTINUOUS
10
-0.768412
20
1.00216
11
-0.764646
21
1.00291
0
LINE
8
BLACK
6
CONTINUOUS
10
-0.764646
20
1.00291
11
-0.743976
21
1.00291
0
LINE
8
BLACK
6
CONTINUOUS
10
-0.743976
20
1.00291
11
-0.74021
21
1.00216
0
LINE
8
BLACK
6
CONTINUOUS
10
-0.81206
20
1.00216
11
-0.808867
21
1.00003
0
LINE
8
BLACK
6
CONTINUOUS
10
-0.808867
20
1.00003
11
-0.806733
21
0.996837
0
LINE
8
BLACK
6
CONTINUOUS
10
-0.806733
20
0.996837
11
-0.805984
21
0.993071
0
LINE
8
BLACK
6
CONTINUOUS
10
-0.805984
20
0.993071
11
-0.805984
21
0.957638
0
LINE
8
BLACK
6
CONTINUOUS
10
-0.805984
20
0.957638
11
-0.806733
21
0.953871
0
LINE
8
BLACK
6
CONTINUOUS
10
-0.806733
20
0.953871
11
-0.808867
21
0.950678
0
LINE
8
BLACK
6
CONTINUOUS
10
-0.808867
20
0.950678
11
-0.81206
21
0.948544
0
LINE
8
BLACK
6
CONTINUOUS
10
-0.81206
20
0.948544
11
-0.815827
21
0.947795
0
LINE
8
BLACK
6
CONTINUOUS
10
-0.815827
20
0.947795
11
-0.836496
21
0.947795
0
LINE
8
BLACK
6
CONTINUOUS
10
-0.836496
20
0.947795
11
-0.840263
21
0.948544
0
LINE
8
BLACK
6
CONTINUOUS
10
-0.840263
20
0.948544
11
-0.843456
21
0.950678
0
LINE
8
BLACK
6
CONTINUOUS
10
-0.843456
20
0.950678
11
-0.845589
21
0.953871
0
LINE
8
BLACK
6
CONTINUOUS
10
-0.845589
20
0.953871
11
-0.846339
21
0.957638
0
LINE
8
BLACK
6
CONTINUOUS
10
-0.846339
20
0.957638
11
-0.846339
21
0.993071
0
LINE
8
BLACK
6
CONTINUOUS
10
-0.846339
20
0.993071
11
-0.845589
21
0.996837
0
LINE
8
BLACK
6
CONTINUOUS
10
-0.845589
20
0.996837
11
-0.843456
21
1.00003
0
LINE
8
BLACK
6
CONTINUOUS
10
-0.843456
20
1.00003
11
-0.840263
21
1.00216
0
LINE
8
BLACK
6
CONTINUOUS
10
-0.840263
20
1.00216
11
-0.836496
21
1.00291
0
LINE
8
BLACK
6
CONTINUOUS
10
-0.836496
20
1.00291
11
-0.815827
21
1.00291
0
LINE
8
BLACK
6
CONTINUOUS
10
-0.815827
20
1.00291
11
-0.81206
21
1.00216
  0
ENDSEC
  0
EOF
