  0
SECTION
  2
HEADER
  9
$ANGBASE
  50
0.0
  9
$ANGDIR
  70
1
  9
$MEASUREMENT
  70
0
  0
ENDSEC
  0
SECTION
  2
TABLES
  0
TABLE
  2
LTYPE
  70
4
  0
LTYPE
  5
40F
  2
CONTINUOUS
  70
0
  3
Solid line
  72
65
  73
0
  40
0.0
  0
LTYPE
  5
410
  2
DASHDOT
 70
0
  3
Dash Dot ____ _ ____ _
 72
65
 73
4
 40
2.0
 49
1.25
 49
-0.25
 49
0.25
 49
-0.25
  0
LTYPE
  5
411
  2
DASHED
 70
0
  3
Dashed __ __ __ __ __
 72
65
 73
2
 40
0.75
 49
0.5
 49
-0.25
  0
LTYPE
  5
43B
  2
DOTTED
 70
0
  3
Dotted .  .  .  .
 72
65
 73
2
 40
0.2
 49
0.0
 49
-0.2
  0
ENDTAB
  0
TABLE
  2
STYLE
  70
4
  0
STYLE
  2
KICAD
  70
0
  40
0
  41
1
  42
1
  50
0
  71
0
  3
isocp.shx
  0
STYLE
  2
KICADB
  70
0
  40
0
  41
1
  42
1
  50
0
  71
0
  3
isocp.shx
  0
STYLE
  2
KICADI
  70
0
  40
0
  41
1
  42
1
  50
15
  71
0
  3
isocp.shx
  0
STYLE
  2
KICADBI
  70
0
  40
0
  41
1
  42
1
  50
15
  71
0
  3
isocp.shx
  0
ENDTAB
  0
TABLE
  2
LAYER
  70
1
  0
LAYER
  2
BLACK
  70
0
  62
7
  6
CONTINUOUS
  0
ENDTAB
  0
ENDSEC
  0
SECTION
  2
ENTITIES
0
LINE
8
BLACK
6
CONTINUOUS
10
0.408546
20
0.048465
11
0.416832
21
0.0462447
0
LINE
8
BLACK
6
CONTINUOUS
10
0.416832
20
0.0462447
11
0.424606
21
0.0426194
0
LINE
8
BLACK
6
CONTINUOUS
10
0.424606
20
0.0426194
11
0.431633
21
0.0376991
0
LINE
8
BLACK
6
CONTINUOUS
10
0.431633
20
0.0376991
11
0.437699
21
0.0316333
0
LINE
8
BLACK
6
CONTINUOUS
10
0.437699
20
0.0316333
11
0.442619
21
0.0246063
0
LINE
8
BLACK
6
CONTINUOUS
10
0.442619
20
0.0246063
11
0.446245
21
0.0168317
0
LINE
8
BLACK
6
CONTINUOUS
10
0.446245
20
0.0168317
11
0.448465
21
0.00854567
0
LINE
8
BLACK
6
CONTINUOUS
10
0.448465
20
0.00854567
11
0.449213
21
0
0
LINE
8
BLACK
6
CONTINUOUS
10
0.449213
20
0
11
0.448465
21
-0.00854567
0
LINE
8
BLACK
6
CONTINUOUS
10
0.448465
20
-0.00854567
11
0.446245
21
-0.0168317
0
LINE
8
BLACK
6
CONTINUOUS
10
0.446245
20
-0.0168317
11
0.442619
21
-0.0246063
0
LINE
8
BLACK
6
CONTINUOUS
10
0.442619
20
-0.0246063
11
0.437699
21
-0.0316333
0
LINE
8
BLACK
6
CONTINUOUS
10
0.437699
20
-0.0316333
11
0.431633
21
-0.0376991
0
LINE
8
BLACK
6
CONTINUOUS
10
0.431633
20
-0.0376991
11
0.424606
21
-0.0426194
0
LINE
8
BLACK
6
CONTINUOUS
10
0.424606
20
-0.0426194
11
0.416832
21
-0.0462447
0
LINE
8
BLACK
6
CONTINUOUS
10
0.416832
20
-0.0462447
11
0.408546
21
-0.048465
0
LINE
8
BLACK
6
CONTINUOUS
10
0.408546
20
-0.048465
11
0.4
21
-0.0492126
0
LINE
8
BLACK
6
CONTINUOUS
10
0.4
20
-0.0492126
11
0.391454
21
-0.048465
0
LINE
8
BLACK
6
CONTINUOUS
10
0.391454
20
-0.048465
11
0.383168
21
-0.0462447
0
LINE
8
BLACK
6
CONTINUOUS
10
0.383168
20
-0.0462447
11
0.375394
21
-0.0426194
0
LINE
8
BLACK
6
CONTINUOUS
10
0.375394
20
-0.0426194
11
0.368367
21
-0.0376991
0
LINE
8
BLACK
6
CONTINUOUS
10
0.368367
20
-0.0376991
11
0.362301
21
-0.0316333
0
LINE
8
BLACK
6
CONTINUOUS
10
0.362301
20
-0.0316333
11
0.357381
21
-0.0246063
0
LINE
8
BLACK
6
CONTINUOUS
10
0.357381
20
-0.0246063
11
0.353755
21
-0.0168317
0
LINE
8
BLACK
6
CONTINUOUS
10
0.353755
20
-0.0168317
11
0.351535
21
-0.00854567
0
LINE
8
BLACK
6
CONTINUOUS
10
0.351535
20
-0.00854567
11
0.350787
21
0
0
LINE
8
BLACK
6
CONTINUOUS
10
0.350787
20
0
11
0.351535
21
0.00854567
0
LINE
8
BLACK
6
CONTINUOUS
10
0.351535
20
0.00854567
11
0.353755
21
0.0168317
0
LINE
8
BLACK
6
CONTINUOUS
10
0.353755
20
0.0168317
11
0.357381
21
0.0246063
0
LINE
8
BLACK
6
CONTINUOUS
10
0.357381
20
0.0246063
11
0.362301
21
0.0316333
0
LINE
8
BLACK
6
CONTINUOUS
10
0.362301
20
0.0316333
11
0.368367
21
0.0376991
0
LINE
8
BLACK
6
CONTINUOUS
10
0.368367
20
0.0376991
11
0.375394
21
0.0426194
0
LINE
8
BLACK
6
CONTINUOUS
10
0.375394
20
0.0426194
11
0.383168
21
0.0462447
0
LINE
8
BLACK
6
CONTINUOUS
10
0.383168
20
0.0462447
11
0.391454
21
0.048465
0
LINE
8
BLACK
6
CONTINUOUS
10
0.391454
20
0.048465
11
0.4
21
0.0492126
0
LINE
8
BLACK
6
CONTINUOUS
10
0.4
20
0.0492126
11
0.408546
21
0.048465
0
LINE
8
BLACK
6
CONTINUOUS
10
0.00854567
20
0.448465
11
0.0168317
21
0.446245
0
LINE
8
BLACK
6
CONTINUOUS
10
0.0168317
20
0.446245
11
0.0246063
21
0.442619
0
LINE
8
BLACK
6
CONTINUOUS
10
0.0246063
20
0.442619
11
0.0316333
21
0.437699
0
LINE
8
BLACK
6
CONTINUOUS
10
0.0316333
20
0.437699
11
0.0376991
21
0.431633
0
LINE
8
BLACK
6
CONTINUOUS
10
0.0376991
20
0.431633
11
0.0426194
21
0.424606
0
LINE
8
BLACK
6
CONTINUOUS
10
0.0426194
20
0.424606
11
0.0462447
21
0.416832
0
LINE
8
BLACK
6
CONTINUOUS
10
0.0462447
20
0.416832
11
0.048465
21
0.408546
0
LINE
8
BLACK
6
CONTINUOUS
10
0.048465
20
0.408546
11
0.0492126
21
0.4
0
LINE
8
BLACK
6
CONTINUOUS
10
0.0492126
20
0.4
11
0.048465
21
0.391454
0
LINE
8
BLACK
6
CONTINUOUS
10
0.048465
20
0.391454
11
0.0462447
21
0.383168
0
LINE
8
BLACK
6
CONTINUOUS
10
0.0462447
20
0.383168
11
0.0426194
21
0.375394
0
LINE
8
BLACK
6
CONTINUOUS
10
0.0426194
20
0.375394
11
0.0376991
21
0.368367
0
LINE
8
BLACK
6
CONTINUOUS
10
0.0376991
20
0.368367
11
0.0316333
21
0.362301
0
LINE
8
BLACK
6
CONTINUOUS
10
0.0316333
20
0.362301
11
0.0246063
21
0.357381
0
LINE
8
BLACK
6
CONTINUOUS
10
0.0246063
20
0.357381
11
0.0168317
21
0.353755
0
LINE
8
BLACK
6
CONTINUOUS
10
0.0168317
20
0.353755
11
0.00854567
21
0.351535
0
LINE
8
BLACK
6
CONTINUOUS
10
0.00854567
20
0.351535
11
0
21
0.350787
0
LINE
8
BLACK
6
CONTINUOUS
10
0
20
0.350787
11
-0.00854567
21
0.351535
0
LINE
8
BLACK
6
CONTINUOUS
10
-0.00854567
20
0.351535
11
-0.0168317
21
0.353755
0
LINE
8
BLACK
6
CONTINUOUS
10
-0.0168317
20
0.353755
11
-0.0246063
21
0.357381
0
LINE
8
BLACK
6
CONTINUOUS
10
-0.0246063
20
0.357381
11
-0.0316333
21
0.362301
0
LINE
8
BLACK
6
CONTINUOUS
10
-0.0316333
20
0.362301
11
-0.0376991
21
0.368367
0
LINE
8
BLACK
6
CONTINUOUS
10
-0.0376991
20
0.368367
11
-0.0426194
21
0.375394
0
LINE
8
BLACK
6
CONTINUOUS
10
-0.0426194
20
0.375394
11
-0.0462447
21
0.383168
0
LINE
8
BLACK
6
CONTINUOUS
10
-0.0462447
20
0.383168
11
-0.048465
21
0.391454
0
LINE
8
BLACK
6
CONTINUOUS
10
-0.048465
20
0.391454
11
-0.0492126
21
0.4
0
LINE
8
BLACK
6
CONTINUOUS
10
-0.0492126
20
0.4
11
-0.048465
21
0.408546
0
LINE
8
BLACK
6
CONTINUOUS
10
-0.048465
20
0.408546
11
-0.0462447
21
0.416832
0
LINE
8
BLACK
6
CONTINUOUS
10
-0.0462447
20
0.416832
11
-0.0426194
21
0.424606
0
LINE
8
BLACK
6
CONTINUOUS
10
-0.0426194
20
0.424606
11
-0.0376991
21
0.431633
0
LINE
8
BLACK
6
CONTINUOUS
10
-0.0376991
20
0.431633
11
-0.0316333
21
0.437699
0
LINE
8
BLACK
6
CONTINUOUS
10
-0.0316333
20
0.437699
11
-0.0246063
21
0.442619
0
LINE
8
BLACK
6
CONTINUOUS
10
-0.0246063
20
0.442619
11
-0.0168317
21
0.446245
0
LINE
8
BLACK
6
CONTINUOUS
10
-0.0168317
20
0.446245
11
-0.00854567
21
0.448465
0
LINE
8
BLACK
6
CONTINUOUS
10
-0.00854567
20
0.448465
11
0
21
0.449213
0
LINE
8
BLACK
6
CONTINUOUS
10
0
20
0.449213
11
0.00854567
21
0.448465
0
LINE
8
BLACK
6
CONTINUOUS
10
0.78
20
0.32
11
0.72
21
0.32
0
LINE
8
BLACK
6
CONTINUOUS
10
0.72
20
0.32
11
0.72
21
0.38
0
LINE
8
BLACK
6
CONTINUOUS
10
0.72
20
0.38
11
0.78
21
0.38
0
LINE
8
BLACK
6
CONTINUOUS
10
0.78
20
0.38
11
0.78
21
0.32
0
LINE
8
BLACK
6
CONTINUOUS
10
0.88
20
0.32
11
0.82
21
0.32
0
LINE
8
BLACK
6
CONTINUOUS
10
0.82
20
0.32
11
0.82
21
0.38
0
LINE
8
BLACK
6
CONTINUOUS
10
0.82
20
0.38
11
0.88
21
0.38
0
LINE
8
BLACK
6
CONTINUOUS
10
0.88
20
0.38
11
0.88
21
0.32
0
LINE
8
BLACK
6
CONTINUOUS
10
0.78
20
0.42
11
0.72
21
0.42
0
LINE
8
BLACK
6
CONTINUOUS
10
0.72
20
0.42
11
0.72
21
0.48
0
LINE
8
BLACK
6
CONTINUOUS
10
0.72
20
0.48
11
0.78
21
0.48
0
LINE
8
BLACK
6
CONTINUOUS
10
0.78
20
0.48
11
0.78
21
0.42
0
LINE
8
BLACK
6
CONTINUOUS
10
0.88
20
0.42
11
0.82
21
0.42
0
LINE
8
BLACK
6
CONTINUOUS
10
0.82
20
0.42
11
0.82
21
0.48
0
LINE
8
BLACK
6
CONTINUOUS
10
0.82
20
0.48
11
0.88
21
0.48
0
LINE
8
BLACK
6
CONTINUOUS
10
0.88
20
0.48
11
0.88
21
0.42
0
LINE
8
BLACK
6
CONTINUOUS
10
0.43
20
0.57
11
0.37
21
0.57
0
LINE
8
BLACK
6
CONTINUOUS
10
0.37
20
0.57
11
0.37
21
0.63
0
LINE
8
BLACK
6
CONTINUOUS
10
0.37
20
0.63
11
0.43
21
0.63
0
LINE
8
BLACK
6
CONTINUOUS
10
0.43
20
0.63
11
0.43
21
0.57
0
LINE
8
BLACK
6
CONTINUOUS
10
0.53
20
0.57
11
0.47
21
0.57
0
LINE
8
BLACK
6
CONTINUOUS
10
0.47
20
0.57
11
0.47
21
0.63
0
LINE
8
BLACK
6
CONTINUOUS
10
0.47
20
0.63
11
0.53
21
0.63
0
LINE
8
BLACK
6
CONTINUOUS
10
0.53
20
0.63
11
0.53
21
0.57
0
LINE
8
BLACK
6
CONTINUOUS
10
0.00854567
20
0.848465
11
0.0168317
21
0.846245
0
LINE
8
BLACK
6
CONTINUOUS
10
0.0168317
20
0.846245
11
0.0246063
21
0.842619
0
LINE
8
BLACK
6
CONTINUOUS
10
0.0246063
20
0.842619
11
0.0316333
21
0.837699
0
LINE
8
BLACK
6
CONTINUOUS
10
0.0316333
20
0.837699
11
0.0376991
21
0.831633
0
LINE
8
BLACK
6
CONTINUOUS
10
0.0376991
20
0.831633
11
0.0426194
21
0.824606
0
LINE
8
BLACK
6
CONTINUOUS
10
0.0426194
20
0.824606
11
0.0462447
21
0.816832
0
LINE
8
BLACK
6
CONTINUOUS
10
0.0462447
20
0.816832
11
0.048465
21
0.808546
0
LINE
8
BLACK
6
CONTINUOUS
10
0.048465
20
0.808546
11
0.0492126
21
0.8
0
LINE
8
BLACK
6
CONTINUOUS
10
0.0492126
20
0.8
11
0.048465
21
0.791454
0
LINE
8
BLACK
6
CONTINUOUS
10
0.048465
20
0.791454
11
0.0462447
21
0.783168
0
LINE
8
BLACK
6
CONTINUOUS
10
0.0462447
20
0.783168
11
0.0426194
21
0.775394
0
LINE
8
BLACK
6
CONTINUOUS
10
0.0426194
20
0.775394
11
0.0376991
21
0.768367
0
LINE
8
BLACK
6
CONTINUOUS
10
0.0376991
20
0.768367
11
0.0316333
21
0.762301
0
LINE
8
BLACK
6
CONTINUOUS
10
0.0316333
20
0.762301
11
0.0246063
21
0.757381
0
LINE
8
BLACK
6
CONTINUOUS
10
0.0246063
20
0.757381
11
0.0168317
21
0.753755
0
LINE
8
BLACK
6
CONTINUOUS
10
0.0168317
20
0.753755
11
0.00854567
21
0.751535
0
LINE
8
BLACK
6
CONTINUOUS
10
0.00854567
20
0.751535
11
0
21
0.750787
0
LINE
8
BLACK
6
CONTINUOUS
10
0
20
0.750787
11
-0.00854567
21
0.751535
0
LINE
8
BLACK
6
CONTINUOUS
10
-0.00854567
20
0.751535
11
-0.0168317
21
0.753755
0
LINE
8
BLACK
6
CONTINUOUS
10
-0.0168317
20
0.753755
11
-0.0246063
21
0.757381
0
LINE
8
BLACK
6
CONTINUOUS
10
-0.0246063
20
0.757381
11
-0.0316333
21
0.762301
0
LINE
8
BLACK
6
CONTINUOUS
10
-0.0316333
20
0.762301
11
-0.0376991
21
0.768367
0
LINE
8
BLACK
6
CONTINUOUS
10
-0.0376991
20
0.768367
11
-0.0426194
21
0.775394
0
LINE
8
BLACK
6
CONTINUOUS
10
-0.0426194
20
0.775394
11
-0.0462447
21
0.783168
0
LINE
8
BLACK
6
CONTINUOUS
10
-0.0462447
20
0.783168
11
-0.048465
21
0.791454
0
LINE
8
BLACK
6
CONTINUOUS
10
-0.048465
20
0.791454
11
-0.0492126
21
0.8
0
LINE
8
BLACK
6
CONTINUOUS
10
-0.0492126
20
0.8
11
-0.048465
21
0.808546
0
LINE
8
BLACK
6
CONTINUOUS
10
-0.048465
20
0.808546
11
-0.0462447
21
0.816832
0
LINE
8
BLACK
6
CONTINUOUS
10
-0.0462447
20
0.816832
11
-0.0426194
21
0.824606
0
LINE
8
BLACK
6
CONTINUOUS
10
-0.0426194
20
0.824606
11
-0.0376991
21
0.831633
0
LINE
8
BLACK
6
CONTINUOUS
10
-0.0376991
20
0.831633
11
-0.0316333
21
0.837699
0
LINE
8
BLACK
6
CONTINUOUS
10
-0.0316333
20
0.837699
11
-0.0246063
21
0.842619
0
LINE
8
BLACK
6
CONTINUOUS
10
-0.0246063
20
0.842619
11
-0.0168317
21
0.846245
0
LINE
8
BLACK
6
CONTINUOUS
10
-0.0168317
20
0.846245
11
-0.00854567
21
0.848465
0
LINE
8
BLACK
6
CONTINUOUS
10
-0.00854567
20
0.848465
11
0
21
0.849213
0
LINE
8
BLACK
6
CONTINUOUS
10
0
20
0.849213
11
0.00854567
21
0.848465
0
LINE
8
BLACK
6
CONTINUOUS
10
0.78
20
0.72
11
0.72
21
0.72
0
LINE
8
BLACK
6
CONTINUOUS
10
0.72
20
0.72
11
0.72
21
0.78
0
LINE
8
BLACK
6
CONTINUOUS
10
0.72
20
0.78
11
0.78
21
0.78
0
LINE
8
BLACK
6
CONTINUOUS
10
0.78
20
0.78
11
0.78
21
0.72
0
LINE
8
BLACK
6
CONTINUOUS
10
0.88
20
0.72
11
0.82
21
0.72
0
LINE
8
BLACK
6
CONTINUOUS
10
0.82
20
0.72
11
0.82
21
0.78
0
LINE
8
BLACK
6
CONTINUOUS
10
0.82
20
0.78
11
0.88
21
0.78
0
LINE
8
BLACK
6
CONTINUOUS
10
0.88
20
0.78
11
0.88
21
0.72
0
LINE
8
BLACK
6
CONTINUOUS
10
0.78
20
0.82
11
0.72
21
0.82
0
LINE
8
BLACK
6
CONTINUOUS
10
0.72
20
0.82
11
0.72
21
0.88
0
LINE
8
BLACK
6
CONTINUOUS
10
0.72
20
0.88
11
0.78
21
0.88
0
LINE
8
BLACK
6
CONTINUOUS
10
0.78
20
0.88
11
0.78
21
0.82
0
LINE
8
BLACK
6
CONTINUOUS
10
0.88
20
0.82
11
0.82
21
0.82
0
LINE
8
BLACK
6
CONTINUOUS
10
0.82
20
0.82
11
0.82
21
0.88
0
LINE
8
BLACK
6
CONTINUOUS
10
0.82
20
0.88
11
0.88
21
0.88
0
LINE
8
BLACK
6
CONTINUOUS
10
0.88
20
0.88
11
0.88
21
0.82
0
LINE
8
BLACK
6
CONTINUOUS
10
0.408546
20
1.24846
11
0.416832
21
1.24624
0
LINE
8
BLACK
6
CONTINUOUS
10
0.416832
20
1.24624
11
0.424606
21
1.24262
0
LINE
8
BLACK
6
CONTINUOUS
10
0.424606
20
1.24262
11
0.431633
21
1.2377
0
LINE
8
BLACK
6
CONTINUOUS
10
0.431633
20
1.2377
11
0.437699
21
1.23163
0
LINE
8
BLACK
6
CONTINUOUS
10
0.437699
20
1.23163
11
0.442619
21
1.22461
0
LINE
8
BLACK
6
CONTINUOUS
10
0.442619
20
1.22461
11
0.446245
21
1.21683
0
LINE
8
BLACK
6
CONTINUOUS
10
0.446245
20
1.21683
11
0.448465
21
1.20855
0
LINE
8
BLACK
6
CONTINUOUS
10
0.448465
20
1.20855
11
0.449213
21
1.2
0
LINE
8
BLACK
6
CONTINUOUS
10
0.449213
20
1.2
11
0.448465
21
1.19145
0
LINE
8
BLACK
6
CONTINUOUS
10
0.448465
20
1.19145
11
0.446245
21
1.18317
0
LINE
8
BLACK
6
CONTINUOUS
10
0.446245
20
1.18317
11
0.442619
21
1.17539
0
LINE
8
BLACK
6
CONTINUOUS
10
0.442619
20
1.17539
11
0.437699
21
1.16837
0
LINE
8
BLACK
6
CONTINUOUS
10
0.437699
20
1.16837
11
0.431633
21
1.1623
0
LINE
8
BLACK
6
CONTINUOUS
10
0.431633
20
1.1623
11
0.424606
21
1.15738
0
LINE
8
BLACK
6
CONTINUOUS
10
0.424606
20
1.15738
11
0.416832
21
1.15376
0
LINE
8
BLACK
6
CONTINUOUS
10
0.416832
20
1.15376
11
0.408546
21
1.15154
0
LINE
8
BLACK
6
CONTINUOUS
10
0.408546
20
1.15154
11
0.4
21
1.15079
0
LINE
8
BLACK
6
CONTINUOUS
10
0.4
20
1.15079
11
0.391454
21
1.15154
0
LINE
8
BLACK
6
CONTINUOUS
10
0.391454
20
1.15154
11
0.383168
21
1.15376
0
LINE
8
BLACK
6
CONTINUOUS
10
0.383168
20
1.15376
11
0.375394
21
1.15738
0
LINE
8
BLACK
6
CONTINUOUS
10
0.375394
20
1.15738
11
0.368367
21
1.1623
0
LINE
8
BLACK
6
CONTINUOUS
10
0.368367
20
1.1623
11
0.362301
21
1.16837
0
LINE
8
BLACK
6
CONTINUOUS
10
0.362301
20
1.16837
11
0.357381
21
1.17539
0
LINE
8
BLACK
6
CONTINUOUS
10
0.357381
20
1.17539
11
0.353755
21
1.18317
0
LINE
8
BLACK
6
CONTINUOUS
10
0.353755
20
1.18317
11
0.351535
21
1.19145
0
LINE
8
BLACK
6
CONTINUOUS
10
0.351535
20
1.19145
11
0.350787
21
1.2
0
LINE
8
BLACK
6
CONTINUOUS
10
0.350787
20
1.2
11
0.351535
21
1.20855
0
LINE
8
BLACK
6
CONTINUOUS
10
0.351535
20
1.20855
11
0.353755
21
1.21683
0
LINE
8
BLACK
6
CONTINUOUS
10
0.353755
20
1.21683
11
0.357381
21
1.22461
0
LINE
8
BLACK
6
CONTINUOUS
10
0.357381
20
1.22461
11
0.362301
21
1.23163
0
LINE
8
BLACK
6
CONTINUOUS
10
0.362301
20
1.23163
11
0.368367
21
1.2377
0
LINE
8
BLACK
6
CONTINUOUS
10
0.368367
20
1.2377
11
0.375394
21
1.24262
0
LINE
8
BLACK
6
CONTINUOUS
10
0.375394
20
1.24262
11
0.383168
21
1.24624
0
LINE
8
BLACK
6
CONTINUOUS
10
0.383168
20
1.24624
11
0.391454
21
1.24846
0
LINE
8
BLACK
6
CONTINUOUS
10
0.391454
20
1.24846
11
0.4
21
1.24921
0
LINE
8
BLACK
6
CONTINUOUS
10
0.4
20
1.24921
11
0.408546
21
1.24846
0
LINE
8
BLACK
6
CONTINUOUS
10
0.987308
20
1.3888
11
0.989138
21
1.38669
0
LINE
8
BLACK
6
CONTINUOUS
10
0.989138
20
1.38669
11
0.989587
21
1.38463
0
LINE
8
BLACK
6
CONTINUOUS
10
0.989587
20
1.38463
11
0.989587
21
-0.184626
0
LINE
8
BLACK
6
CONTINUOUS
10
0.989587
20
-0.184626
11
0.988799
21
-0.187308
0
LINE
8
BLACK
6
CONTINUOUS
10
0.988799
20
-0.187308
11
0.986687
21
-0.189138
0
LINE
8
BLACK
6
CONTINUOUS
10
0.986687
20
-0.189138
11
0.984626
21
-0.189587
0
LINE
8
BLACK
6
CONTINUOUS
10
0.984626
20
-0.189587
11
-0.184626
21
-0.189587
0
LINE
8
BLACK
6
CONTINUOUS
10
-0.184626
20
-0.189587
11
-0.187308
21
-0.188799
0
LINE
8
BLACK
6
CONTINUOUS
10
-0.187308
20
-0.188799
11
-0.189138
21
-0.186687
0
LINE
8
BLACK
6
CONTINUOUS
10
-0.189138
20
-0.186687
11
-0.189587
21
-0.184626
0
LINE
8
BLACK
6
CONTINUOUS
10
-0.189587
20
-0.184626
11
-0.189587
21
-0.1
0
LINE
8
BLACK
6
CONTINUOUS
10
-0.189587
20
-0.1
11
-0.189587
21
0
0
LINE
8
BLACK
6
CONTINUOUS
10
-0.189587
20
0
11
-0.189587
21
0.3
0
LINE
8
BLACK
6
CONTINUOUS
10
-0.189587
20
0.3
11
-0.189587
21
0.7
0
LINE
8
BLACK
6
CONTINUOUS
10
-0.189587
20
0.7
11
-0.189587
21
1.1
0
LINE
8
BLACK
6
CONTINUOUS
10
-0.189587
20
1.1
11
-0.189587
21
1.38463
0
LINE
8
BLACK
6
CONTINUOUS
10
-0.189587
20
1.38463
11
-0.188799
21
1.38731
0
LINE
8
BLACK
6
CONTINUOUS
10
-0.188799
20
1.38731
11
-0.186687
21
1.38914
0
LINE
8
BLACK
6
CONTINUOUS
10
-0.186687
20
1.38914
11
-0.184626
21
1.38959
0
LINE
8
BLACK
6
CONTINUOUS
10
-0.184626
20
1.38959
11
0.984626
21
1.38959
0
LINE
8
BLACK
6
CONTINUOUS
10
0.984626
20
1.38959
11
0.987308
21
1.3888
0
LINE
8
BLACK
6
CONTINUOUS
10
0.326575
20
-0.146029
11
0.318178
21
-0.149944
0
LINE
8
BLACK
6
CONTINUOUS
10
0.318178
20
-0.149944
11
0.309229
21
-0.152342
0
LINE
8
BLACK
6
CONTINUOUS
10
0.309229
20
-0.152342
11
0.3
21
-0.15315
0
LINE
8
BLACK
6
CONTINUOUS
10
0.3
20
-0.15315
11
0.290771
21
-0.152342
0
LINE
8
BLACK
6
CONTINUOUS
10
0.290771
20
-0.152342
11
0.281822
21
-0.149944
0
LINE
8
BLACK
6
CONTINUOUS
10
0.281822
20
-0.149944
11
0.273425
21
-0.146029
0
LINE
8
BLACK
6
CONTINUOUS
10
0.273425
20
-0.146029
11
0.270301
21
-0.143841
0
LINE
8
BLACK
6
CONTINUOUS
10
0.270301
20
-0.143841
11
0.255831
21
-0.158311
0
LINE
8
BLACK
6
CONTINUOUS
10
0.255831
20
-0.158311
11
0.255831
21
-0.158311
0
LINE
8
BLACK
6
CONTINUOUS
10
0.255831
20
-0.158311
11
0.260351
21
-0.161694
0
LINE
8
BLACK
6
CONTINUOUS
10
0.260351
20
-0.161694
11
0.269535
21
-0.166709
0
LINE
8
BLACK
6
CONTINUOUS
10
0.269535
20
-0.166709
11
0.279339
21
-0.170366
0
LINE
8
BLACK
6
CONTINUOUS
10
0.279339
20
-0.170366
11
0.289563
21
-0.17259
0
LINE
8
BLACK
6
CONTINUOUS
10
0.289563
20
-0.17259
11
0.3
21
-0.173336
0
LINE
8
BLACK
6
CONTINUOUS
10
0.3
20
-0.173336
11
0.310437
21
-0.17259
0
LINE
8
BLACK
6
CONTINUOUS
10
0.310437
20
-0.17259
11
0.320661
21
-0.170366
0
LINE
8
BLACK
6
CONTINUOUS
10
0.320661
20
-0.170366
11
0.330465
21
-0.166709
0
LINE
8
BLACK
6
CONTINUOUS
10
0.330465
20
-0.166709
11
0.339649
21
-0.161695
0
LINE
8
BLACK
6
CONTINUOUS
10
0.339649
20
-0.161695
11
0.344169
21
-0.158311
0
LINE
8
BLACK
6
CONTINUOUS
10
0.344169
20
-0.158311
11
0.344169
21
-0.158311
0
LINE
8
BLACK
6
CONTINUOUS
10
0.344169
20
-0.158311
11
0.329699
21
-0.143841
0
LINE
8
BLACK
6
CONTINUOUS
10
0.329699
20
-0.143841
11
0.326575
21
-0.146029
0
LINE
8
BLACK
6
CONTINUOUS
10
0.526575
20
-0.146029
11
0.518178
21
-0.149944
0
LINE
8
BLACK
6
CONTINUOUS
10
0.518178
20
-0.149944
11
0.509229
21
-0.152342
0
LINE
8
BLACK
6
CONTINUOUS
10
0.509229
20
-0.152342
11
0.5
21
-0.15315
0
LINE
8
BLACK
6
CONTINUOUS
10
0.5
20
-0.15315
11
0.490771
21
-0.152342
0
LINE
8
BLACK
6
CONTINUOUS
10
0.490771
20
-0.152342
11
0.481822
21
-0.149944
0
LINE
8
BLACK
6
CONTINUOUS
10
0.481822
20
-0.149944
11
0.473425
21
-0.146029
0
LINE
8
BLACK
6
CONTINUOUS
10
0.473425
20
-0.146029
11
0.470301
21
-0.143841
0
LINE
8
BLACK
6
CONTINUOUS
10
0.470301
20
-0.143841
11
0.455831
21
-0.158311
0
LINE
8
BLACK
6
CONTINUOUS
10
0.455831
20
-0.158311
11
0.455831
21
-0.158311
0
LINE
8
BLACK
6
CONTINUOUS
10
0.455831
20
-0.158311
11
0.460351
21
-0.161694
0
LINE
8
BLACK
6
CONTINUOUS
10
0.460351
20
-0.161694
11
0.469535
21
-0.166709
0
LINE
8
BLACK
6
CONTINUOUS
10
0.469535
20
-0.166709
11
0.479339
21
-0.170366
0
LINE
8
BLACK
6
CONTINUOUS
10
0.479339
20
-0.170366
11
0.489563
21
-0.17259
0
LINE
8
BLACK
6
CONTINUOUS
10
0.489563
20
-0.17259
11
0.5
21
-0.173336
0
LINE
8
BLACK
6
CONTINUOUS
10
0.5
20
-0.173336
11
0.510437
21
-0.17259
0
LINE
8
BLACK
6
CONTINUOUS
10
0.510437
20
-0.17259
11
0.520661
21
-0.170366
0
LINE
8
BLACK
6
CONTINUOUS
10
0.520661
20
-0.170366
11
0.530465
21
-0.166709
0
LINE
8
BLACK
6
CONTINUOUS
10
0.530465
20
-0.166709
11
0.539649
21
-0.161695
0
LINE
8
BLACK
6
CONTINUOUS
10
0.539649
20
-0.161695
11
0.544169
21
-0.158311
0
LINE
8
BLACK
6
CONTINUOUS
10
0.544169
20
-0.158311
11
0.544169
21
-0.158311
0
LINE
8
BLACK
6
CONTINUOUS
10
0.544169
20
-0.158311
11
0.529699
21
-0.143841
0
LINE
8
BLACK
6
CONTINUOUS
10
0.529699
20
-0.143841
11
0.526575
21
-0.146029
0
LINE
8
BLACK
6
CONTINUOUS
10
0.241689
20
-0.0558312
11
0.238305
21
-0.0603513
0
LINE
8
BLACK
6
CONTINUOUS
10
0.238305
20
-0.0603513
11
0.233291
21
-0.0695348
0
LINE
8
BLACK
6
CONTINUOUS
10
0.233291
20
-0.0695348
11
0.229634
21
-0.0793388
0
LINE
8
BLACK
6
CONTINUOUS
10
0.229634
20
-0.0793388
11
0.22741
21
-0.0895633
0
LINE
8
BLACK
6
CONTINUOUS
10
0.22741
20
-0.0895633
11
0.226664
21
-0.1
0
LINE
8
BLACK
6
CONTINUOUS
10
0.226664
20
-0.1
11
0.22741
21
-0.110437
0
LINE
8
BLACK
6
CONTINUOUS
10
0.22741
20
-0.110437
11
0.229634
21
-0.120661
0
LINE
8
BLACK
6
CONTINUOUS
10
0.229634
20
-0.120661
11
0.233291
21
-0.130465
0
LINE
8
BLACK
6
CONTINUOUS
10
0.233291
20
-0.130465
11
0.238305
21
-0.139649
0
LINE
8
BLACK
6
CONTINUOUS
10
0.238305
20
-0.139649
11
0.241689
21
-0.144169
0
LINE
8
BLACK
6
CONTINUOUS
10
0.241689
20
-0.144169
11
0.241689
21
-0.144169
0
LINE
8
BLACK
6
CONTINUOUS
10
0.241689
20
-0.144169
11
0.256159
21
-0.129699
0
LINE
8
BLACK
6
CONTINUOUS
10
0.256159
20
-0.129699
11
0.253971
21
-0.126575
0
LINE
8
BLACK
6
CONTINUOUS
10
0.253971
20
-0.126575
11
0.250056
21
-0.118178
0
LINE
8
BLACK
6
CONTINUOUS
10
0.250056
20
-0.118178
11
0.247658
21
-0.109229
0
LINE
8
BLACK
6
CONTINUOUS
10
0.247658
20
-0.109229
11
0.24685
21
-0.1
0
LINE
8
BLACK
6
CONTINUOUS
10
0.24685
20
-0.1
11
0.247658
21
-0.0907707
0
LINE
8
BLACK
6
CONTINUOUS
10
0.247658
20
-0.0907707
11
0.250056
21
-0.0818218
0
LINE
8
BLACK
6
CONTINUOUS
10
0.250056
20
-0.0818218
11
0.253971
21
-0.0734252
0
LINE
8
BLACK
6
CONTINUOUS
10
0.253971
20
-0.0734252
11
0.256159
21
-0.0703009
0
LINE
8
BLACK
6
CONTINUOUS
10
0.256159
20
-0.0703009
11
0.241689
21
-0.0558312
0
LINE
8
BLACK
6
CONTINUOUS
10
0.241689
20
-0.0558312
11
0.241689
21
-0.0558312
0
LINE
8
BLACK
6
CONTINUOUS
10
0.441689
20
0.144169
11
0.438305
21
0.139649
0
LINE
8
BLACK
6
CONTINUOUS
10
0.438305
20
0.139649
11
0.433291
21
0.130465
0
LINE
8
BLACK
6
CONTINUOUS
10
0.433291
20
0.130465
11
0.429634
21
0.120661
0
LINE
8
BLACK
6
CONTINUOUS
10
0.429634
20
0.120661
11
0.42741
21
0.110437
0
LINE
8
BLACK
6
CONTINUOUS
10
0.42741
20
0.110437
11
0.426664
21
0.1
0
LINE
8
BLACK
6
CONTINUOUS
10
0.426664
20
0.1
11
0.42741
21
0.0895633
0
LINE
8
BLACK
6
CONTINUOUS
10
0.42741
20
0.0895633
11
0.429634
21
0.0793389
0
LINE
8
BLACK
6
CONTINUOUS
10
0.429634
20
0.0793389
11
0.432949
21
0.0704527
0
LINE
8
BLACK
6
CONTINUOUS
10
0.432949
20
0.0704527
11
0.433148
21
0.0676646
0
LINE
8
BLACK
6
CONTINUOUS
10
0.433148
20
0.0676646
11
0.431808
21
0.0652114
0
LINE
8
BLACK
6
CONTINUOUS
10
0.431808
20
0.0652114
11
0.429355
21
0.0638719
0
LINE
8
BLACK
6
CONTINUOUS
10
0.429355
20
0.0638719
11
0.426567
21
0.0640712
0
LINE
8
BLACK
6
CONTINUOUS
10
0.426567
20
0.0640712
11
0.426148
21
0.0642497
0
LINE
8
BLACK
6
CONTINUOUS
10
0.426148
20
0.0642497
11
0.425364
21
0.0646272
0
LINE
8
BLACK
6
CONTINUOUS
10
0.425364
20
0.0646272
11
0.425364
21
0.0646274
0
LINE
8
BLACK
6
CONTINUOUS
10
0.425364
20
0.0646274
11
0.415449
21
0.0676857
0
LINE
8
BLACK
6
CONTINUOUS
10
0.415449
20
0.0676857
11
0.415449
21
0.0676857
0
LINE
8
BLACK
6
CONTINUOUS
10
0.415449
20
0.0676857
11
0.415449
21
0.0676857
0
LINE
8
BLACK
6
CONTINUOUS
10
0.415449
20
0.0676857
11
0.405188
21
0.0692323
0
LINE
8
BLACK
6
CONTINUOUS
10
0.405188
20
0.0692323
11
0.394812
21
0.0692323
0
LINE
8
BLACK
6
CONTINUOUS
10
0.394812
20
0.0692323
11
0.384551
21
0.0676857
0
LINE
8
BLACK
6
CONTINUOUS
10
0.384551
20
0.0676857
11
0.384551
21
0.0676857
0
LINE
8
BLACK
6
CONTINUOUS
10
0.384551
20
0.0676857
11
0.384551
21
0.0676857
0
LINE
8
BLACK
6
CONTINUOUS
10
0.384551
20
0.0676857
11
0.374636
21
0.0646274
0
LINE
8
BLACK
6
CONTINUOUS
10
0.374636
20
0.0646274
11
0.374635
21
0.0646272
0
LINE
8
BLACK
6
CONTINUOUS
10
0.374635
20
0.0646272
11
0.373851
21
0.0642496
0
LINE
8
BLACK
6
CONTINUOUS
10
0.373851
20
0.0642496
11
0.371094
21
0.0637956
0
LINE
8
BLACK
6
CONTINUOUS
10
0.371094
20
0.0637956
11
0.368528
21
0.0649047
0
LINE
8
BLACK
6
CONTINUOUS
10
0.368528
20
0.0649047
11
0.366969
21
0.0672248
0
LINE
8
BLACK
6
CONTINUOUS
10
0.366969
20
0.0672248
11
0.366912
21
0.0700194
0
LINE
8
BLACK
6
CONTINUOUS
10
0.366912
20
0.0700194
11
0.367051
21
0.0704527
0
LINE
8
BLACK
6
CONTINUOUS
10
0.367051
20
0.0704527
11
0.370366
21
0.0793386
0
LINE
8
BLACK
6
CONTINUOUS
10
0.370366
20
0.0793386
11
0.37259
21
0.0895633
0
LINE
8
BLACK
6
CONTINUOUS
10
0.37259
20
0.0895633
11
0.373336
21
0.1
0
LINE
8
BLACK
6
CONTINUOUS
10
0.373336
20
0.1
11
0.37259
21
0.110437
0
LINE
8
BLACK
6
CONTINUOUS
10
0.37259
20
0.110437
11
0.370366
21
0.120661
0
LINE
8
BLACK
6
CONTINUOUS
10
0.370366
20
0.120661
11
0.366709
21
0.130465
0
LINE
8
BLACK
6
CONTINUOUS
10
0.366709
20
0.130465
11
0.361694
21
0.139649
0
LINE
8
BLACK
6
CONTINUOUS
10
0.361694
20
0.139649
11
0.358311
21
0.144169
0
LINE
8
BLACK
6
CONTINUOUS
10
0.358311
20
0.144169
11
0.358311
21
0.144169
0
LINE
8
BLACK
6
CONTINUOUS
10
0.358311
20
0.144169
11
0.343841
21
0.129699
0
LINE
8
BLACK
6
CONTINUOUS
10
0.343841
20
0.129699
11
0.346029
21
0.126575
0
LINE
8
BLACK
6
CONTINUOUS
10
0.346029
20
0.126575
11
0.349944
21
0.118178
0
LINE
8
BLACK
6
CONTINUOUS
10
0.349944
20
0.118178
11
0.352342
21
0.109229
0
LINE
8
BLACK
6
CONTINUOUS
10
0.352342
20
0.109229
11
0.35315
21
0.1
0
LINE
8
BLACK
6
CONTINUOUS
10
0.35315
20
0.1
11
0.352342
21
0.0907707
0
LINE
8
BLACK
6
CONTINUOUS
10
0.352342
20
0.0907707
11
0.349944
21
0.0818218
0
LINE
8
BLACK
6
CONTINUOUS
10
0.349944
20
0.0818218
11
0.346029
21
0.0734252
0
LINE
8
BLACK
6
CONTINUOUS
10
0.346029
20
0.0734252
11
0.340715
21
0.0658361
0
LINE
8
BLACK
6
CONTINUOUS
10
0.340715
20
0.0658361
11
0.334164
21
0.059285
0
LINE
8
BLACK
6
CONTINUOUS
10
0.334164
20
0.059285
11
0.326575
21
0.0539711
0
LINE
8
BLACK
6
CONTINUOUS
10
0.326575
20
0.0539711
11
0.318178
21
0.0500557
0
LINE
8
BLACK
6
CONTINUOUS
10
0.318178
20
0.0500557
11
0.309229
21
0.0476579
0
LINE
8
BLACK
6
CONTINUOUS
10
0.309229
20
0.0476579
11
0.3
21
0.0468504
0
LINE
8
BLACK
6
CONTINUOUS
10
0.3
20
0.0468504
11
0.290771
21
0.0476579
0
LINE
8
BLACK
6
CONTINUOUS
10
0.290771
20
0.0476579
11
0.281822
21
0.0500557
0
LINE
8
BLACK
6
CONTINUOUS
10
0.281822
20
0.0500557
11
0.273425
21
0.0539711
0
LINE
8
BLACK
6
CONTINUOUS
10
0.273425
20
0.0539711
11
0.270301
21
0.0561588
0
LINE
8
BLACK
6
CONTINUOUS
10
0.270301
20
0.0561588
11
0.255831
21
0.0416892
0
LINE
8
BLACK
6
CONTINUOUS
10
0.255831
20
0.0416892
11
0.255831
21
0.0416891
0
LINE
8
BLACK
6
CONTINUOUS
10
0.255831
20
0.0416891
11
0.260351
21
0.0383056
0
LINE
8
BLACK
6
CONTINUOUS
10
0.260351
20
0.0383056
11
0.269535
21
0.0332909
0
LINE
8
BLACK
6
CONTINUOUS
10
0.269535
20
0.0332909
11
0.279339
21
0.0296342
0
LINE
8
BLACK
6
CONTINUOUS
10
0.279339
20
0.0296342
11
0.289563
21
0.02741
0
LINE
8
BLACK
6
CONTINUOUS
10
0.289563
20
0.02741
11
0.3
21
0.0266636
0
LINE
8
BLACK
6
CONTINUOUS
10
0.3
20
0.0266636
11
0.310437
21
0.02741
0
LINE
8
BLACK
6
CONTINUOUS
10
0.310437
20
0.02741
11
0.320661
21
0.0296342
0
LINE
8
BLACK
6
CONTINUOUS
10
0.320661
20
0.0296342
11
0.329692
21
0.0330027
0
LINE
8
BLACK
6
CONTINUOUS
10
0.329692
20
0.0330027
11
0.33248
21
0.0332021
0
LINE
8
BLACK
6
CONTINUOUS
10
0.33248
20
0.0332021
11
0.334934
21
0.0318625
0
LINE
8
BLACK
6
CONTINUOUS
10
0.334934
20
0.0318625
11
0.336273
21
0.0294093
0
LINE
8
BLACK
6
CONTINUOUS
10
0.336273
20
0.0294093
11
0.336074
21
0.0266213
0
LINE
8
BLACK
6
CONTINUOUS
10
0.336074
20
0.0266213
11
0.336044
21
0.0265425
0
LINE
8
BLACK
6
CONTINUOUS
10
0.336044
20
0.0265425
11
0.333658
21
0.0204636
0
LINE
8
BLACK
6
CONTINUOUS
10
0.333658
20
0.0204636
11
0.331402
21
0.0105797
0
LINE
8
BLACK
6
CONTINUOUS
10
0.331402
20
0.0105797
11
0.331349
21
0.0103475
0
LINE
8
BLACK
6
CONTINUOUS
10
0.331349
20
0.0103475
11
0.330574
21
0
0
LINE
8
BLACK
6
CONTINUOUS
10
0.330574
20
0
11
0.331349
21
-0.0103475
0
LINE
8
BLACK
6
CONTINUOUS
10
0.331349
20
-0.0103475
11
0.331349
21
-0.0103476
0
LINE
8
BLACK
6
CONTINUOUS
10
0.331349
20
-0.0103476
11
0.333658
21
-0.0204636
0
LINE
8
BLACK
6
CONTINUOUS
10
0.333658
20
-0.0204636
11
0.336044
21
-0.0265424
0
LINE
8
BLACK
6
CONTINUOUS
10
0.336044
20
-0.0265424
11
0.33629
21
-0.0293267
0
LINE
8
BLACK
6
CONTINUOUS
10
0.33629
20
-0.0293267
11
0.334993
21
-0.0318023
0
LINE
8
BLACK
6
CONTINUOUS
10
0.334993
20
-0.0318023
11
0.332563
21
-0.0331834
0
LINE
8
BLACK
6
CONTINUOUS
10
0.332563
20
-0.0331834
11
0.329772
21
-0.0330314
0
LINE
8
BLACK
6
CONTINUOUS
10
0.329772
20
-0.0330314
11
0.329692
21
-0.0330026
0
LINE
8
BLACK
6
CONTINUOUS
10
0.329692
20
-0.0330026
11
0.320661
21
-0.0296342
0
LINE
8
BLACK
6
CONTINUOUS
10
0.320661
20
-0.0296342
11
0.310437
21
-0.02741
0
LINE
8
BLACK
6
CONTINUOUS
10
0.310437
20
-0.02741
11
0.3
21
-0.0266635
0
LINE
8
BLACK
6
CONTINUOUS
10
0.3
20
-0.0266635
11
0.289563
21
-0.02741
0
LINE
8
BLACK
6
CONTINUOUS
10
0.289563
20
-0.02741
11
0.279339
21
-0.0296341
0
LINE
8
BLACK
6
CONTINUOUS
10
0.279339
20
-0.0296341
11
0.269535
21
-0.0332908
0
LINE
8
BLACK
6
CONTINUOUS
10
0.269535
20
-0.0332908
11
0.260351
21
-0.0383054
0
LINE
8
BLACK
6
CONTINUOUS
10
0.260351
20
-0.0383054
11
0.255831
21
-0.0416891
0
LINE
8
BLACK
6
CONTINUOUS
10
0.255831
20
-0.0416891
11
0.255831
21
-0.0416891
0
LINE
8
BLACK
6
CONTINUOUS
10
0.255831
20
-0.0416891
11
0.270301
21
-0.0561588
0
LINE
8
BLACK
6
CONTINUOUS
10
0.270301
20
-0.0561588
11
0.273425
21
-0.0539711
0
LINE
8
BLACK
6
CONTINUOUS
10
0.273425
20
-0.0539711
11
0.281822
21
-0.0500557
0
LINE
8
BLACK
6
CONTINUOUS
10
0.281822
20
-0.0500557
11
0.290771
21
-0.0476579
0
LINE
8
BLACK
6
CONTINUOUS
10
0.290771
20
-0.0476579
11
0.3
21
-0.0468504
0
LINE
8
BLACK
6
CONTINUOUS
10
0.3
20
-0.0468504
11
0.309229
21
-0.0476579
0
LINE
8
BLACK
6
CONTINUOUS
10
0.309229
20
-0.0476579
11
0.318178
21
-0.0500557
0
LINE
8
BLACK
6
CONTINUOUS
10
0.318178
20
-0.0500557
11
0.326575
21
-0.0539711
0
LINE
8
BLACK
6
CONTINUOUS
10
0.326575
20
-0.0539711
11
0.334164
21
-0.059285
0
LINE
8
BLACK
6
CONTINUOUS
10
0.334164
20
-0.059285
11
0.340715
21
-0.0658361
0
LINE
8
BLACK
6
CONTINUOUS
10
0.340715
20
-0.0658361
11
0.346029
21
-0.0734252
0
LINE
8
BLACK
6
CONTINUOUS
10
0.346029
20
-0.0734252
11
0.349944
21
-0.0818218
0
LINE
8
BLACK
6
CONTINUOUS
10
0.349944
20
-0.0818218
11
0.352342
21
-0.0907707
0
LINE
8
BLACK
6
CONTINUOUS
10
0.352342
20
-0.0907707
11
0.35315
21
-0.1
0
LINE
8
BLACK
6
CONTINUOUS
10
0.35315
20
-0.1
11
0.352342
21
-0.109229
0
LINE
8
BLACK
6
CONTINUOUS
10
0.352342
20
-0.109229
11
0.349944
21
-0.118178
0
LINE
8
BLACK
6
CONTINUOUS
10
0.349944
20
-0.118178
11
0.346029
21
-0.126575
0
LINE
8
BLACK
6
CONTINUOUS
10
0.346029
20
-0.126575
11
0.343841
21
-0.129699
0
LINE
8
BLACK
6
CONTINUOUS
10
0.343841
20
-0.129699
11
0.358311
21
-0.144169
0
LINE
8
BLACK
6
CONTINUOUS
10
0.358311
20
-0.144169
11
0.358311
21
-0.144169
0
LINE
8
BLACK
6
CONTINUOUS
10
0.358311
20
-0.144169
11
0.361695
21
-0.139649
0
LINE
8
BLACK
6
CONTINUOUS
10
0.361695
20
-0.139649
11
0.366709
21
-0.130465
0
LINE
8
BLACK
6
CONTINUOUS
10
0.366709
20
-0.130465
11
0.370366
21
-0.120661
0
LINE
8
BLACK
6
CONTINUOUS
10
0.370366
20
-0.120661
11
0.37259
21
-0.110437
0
LINE
8
BLACK
6
CONTINUOUS
10
0.37259
20
-0.110437
11
0.373336
21
-0.1
0
LINE
8
BLACK
6
CONTINUOUS
10
0.373336
20
-0.1
11
0.37259
21
-0.0895633
0
LINE
8
BLACK
6
CONTINUOUS
10
0.37259
20
-0.0895633
11
0.370366
21
-0.0793388
0
LINE
8
BLACK
6
CONTINUOUS
10
0.370366
20
-0.0793388
11
0.367051
21
-0.0704526
0
LINE
8
BLACK
6
CONTINUOUS
10
0.367051
20
-0.0704526
11
0.366852
21
-0.0676646
0
LINE
8
BLACK
6
CONTINUOUS
10
0.366852
20
-0.0676646
11
0.368192
21
-0.0652114
0
LINE
8
BLACK
6
CONTINUOUS
10
0.368192
20
-0.0652114
11
0.370645
21
-0.0638718
0
LINE
8
BLACK
6
CONTINUOUS
10
0.370645
20
-0.0638718
11
0.373433
21
-0.0640712
0
LINE
8
BLACK
6
CONTINUOUS
10
0.373433
20
-0.0640712
11
0.373852
21
-0.0642497
0
LINE
8
BLACK
6
CONTINUOUS
10
0.373852
20
-0.0642497
11
0.374636
21
-0.0646272
0
LINE
8
BLACK
6
CONTINUOUS
10
0.374636
20
-0.0646272
11
0.374636
21
-0.0646272
0
LINE
8
BLACK
6
CONTINUOUS
10
0.374636
20
-0.0646272
11
0.374636
21
-0.0646274
0
LINE
8
BLACK
6
CONTINUOUS
10
0.374636
20
-0.0646274
11
0.384551
21
-0.0676856
0
LINE
8
BLACK
6
CONTINUOUS
10
0.384551
20
-0.0676856
11
0.384551
21
-0.0676856
0
LINE
8
BLACK
6
CONTINUOUS
10
0.384551
20
-0.0676856
11
0.384551
21
-0.0676857
0
LINE
8
BLACK
6
CONTINUOUS
10
0.384551
20
-0.0676857
11
0.394812
21
-0.0692323
0
LINE
8
BLACK
6
CONTINUOUS
10
0.394812
20
-0.0692323
11
0.394812
21
-0.0692323
0
LINE
8
BLACK
6
CONTINUOUS
10
0.394812
20
-0.0692323
11
0.405188
21
-0.0692323
0
LINE
8
BLACK
6
CONTINUOUS
10
0.405188
20
-0.0692323
11
0.405188
21
-0.0692323
0
LINE
8
BLACK
6
CONTINUOUS
10
0.405188
20
-0.0692323
11
0.415449
21
-0.0676857
0
LINE
8
BLACK
6
CONTINUOUS
10
0.415449
20
-0.0676857
11
0.415517
21
-0.0676646
0
LINE
8
BLACK
6
CONTINUOUS
10
0.415517
20
-0.0676646
11
0.425364
21
-0.0646274
0
LINE
8
BLACK
6
CONTINUOUS
10
0.425364
20
-0.0646274
11
0.425364
21
-0.0646273
0
LINE
8
BLACK
6
CONTINUOUS
10
0.425364
20
-0.0646273
11
0.425364
21
-0.0646272
0
LINE
8
BLACK
6
CONTINUOUS
10
0.425364
20
-0.0646272
11
0.426148
21
-0.0642497
0
LINE
8
BLACK
6
CONTINUOUS
10
0.426148
20
-0.0642497
11
0.428906
21
-0.0637955
0
LINE
8
BLACK
6
CONTINUOUS
10
0.428906
20
-0.0637955
11
0.431472
21
-0.0649045
0
LINE
8
BLACK
6
CONTINUOUS
10
0.431472
20
-0.0649045
11
0.433031
21
-0.0672246
0
LINE
8
BLACK
6
CONTINUOUS
10
0.433031
20
-0.0672246
11
0.433088
21
-0.0700191
0
LINE
8
BLACK
6
CONTINUOUS
10
0.433088
20
-0.0700191
11
0.432949
21
-0.0704526
0
LINE
8
BLACK
6
CONTINUOUS
10
0.432949
20
-0.0704526
11
0.429634
21
-0.0793387
0
LINE
8
BLACK
6
CONTINUOUS
10
0.429634
20
-0.0793387
11
0.42741
21
-0.0895633
0
LINE
8
BLACK
6
CONTINUOUS
10
0.42741
20
-0.0895633
11
0.426664
21
-0.1
0
LINE
8
BLACK
6
CONTINUOUS
10
0.426664
20
-0.1
11
0.42741
21
-0.110437
0
LINE
8
BLACK
6
CONTINUOUS
10
0.42741
20
-0.110437
11
0.429634
21
-0.120661
0
LINE
8
BLACK
6
CONTINUOUS
10
0.429634
20
-0.120661
11
0.433291
21
-0.130465
0
LINE
8
BLACK
6
CONTINUOUS
10
0.433291
20
-0.130465
11
0.438305
21
-0.139649
0
LINE
8
BLACK
6
CONTINUOUS
10
0.438305
20
-0.139649
11
0.441689
21
-0.144169
0
LINE
8
BLACK
6
CONTINUOUS
10
0.441689
20
-0.144169
11
0.441689
21
-0.144169
0
LINE
8
BLACK
6
CONTINUOUS
10
0.441689
20
-0.144169
11
0.456159
21
-0.129699
0
LINE
8
BLACK
6
CONTINUOUS
10
0.456159
20
-0.129699
11
0.453971
21
-0.126575
0
LINE
8
BLACK
6
CONTINUOUS
10
0.453971
20
-0.126575
11
0.450056
21
-0.118178
0
LINE
8
BLACK
6
CONTINUOUS
10
0.450056
20
-0.118178
11
0.447658
21
-0.109229
0
LINE
8
BLACK
6
CONTINUOUS
10
0.447658
20
-0.109229
11
0.44685
21
-0.1
0
LINE
8
BLACK
6
CONTINUOUS
10
0.44685
20
-0.1
11
0.447658
21
-0.0907707
0
LINE
8
BLACK
6
CONTINUOUS
10
0.447658
20
-0.0907707
11
0.450056
21
-0.0818218
0
LINE
8
BLACK
6
CONTINUOUS
10
0.450056
20
-0.0818218
11
0.453971
21
-0.0734252
0
LINE
8
BLACK
6
CONTINUOUS
10
0.453971
20
-0.0734252
11
0.459285
21
-0.0658361
0
LINE
8
BLACK
6
CONTINUOUS
10
0.459285
20
-0.0658361
11
0.465836
21
-0.059285
0
LINE
8
BLACK
6
CONTINUOUS
10
0.465836
20
-0.059285
11
0.473425
21
-0.0539711
0
LINE
8
BLACK
6
CONTINUOUS
10
0.473425
20
-0.0539711
11
0.481822
21
-0.0500557
0
LINE
8
BLACK
6
CONTINUOUS
10
0.481822
20
-0.0500557
11
0.490771
21
-0.0476579
0
LINE
8
BLACK
6
CONTINUOUS
10
0.490771
20
-0.0476579
11
0.5
21
-0.0468504
0
LINE
8
BLACK
6
CONTINUOUS
10
0.5
20
-0.0468504
11
0.509229
21
-0.0476579
0
LINE
8
BLACK
6
CONTINUOUS
10
0.509229
20
-0.0476579
11
0.518178
21
-0.0500557
0
LINE
8
BLACK
6
CONTINUOUS
10
0.518178
20
-0.0500557
11
0.526575
21
-0.0539711
0
LINE
8
BLACK
6
CONTINUOUS
10
0.526575
20
-0.0539711
11
0.529699
21
-0.0561587
0
LINE
8
BLACK
6
CONTINUOUS
10
0.529699
20
-0.0561587
11
0.544169
21
-0.0416891
0
LINE
8
BLACK
6
CONTINUOUS
10
0.544169
20
-0.0416891
11
0.539649
21
-0.0383054
0
LINE
8
BLACK
6
CONTINUOUS
10
0.539649
20
-0.0383054
11
0.530465
21
-0.0332908
0
LINE
8
BLACK
6
CONTINUOUS
10
0.530465
20
-0.0332908
11
0.520661
21
-0.0296341
0
LINE
8
BLACK
6
CONTINUOUS
10
0.520661
20
-0.0296341
11
0.510437
21
-0.02741
0
LINE
8
BLACK
6
CONTINUOUS
10
0.510437
20
-0.02741
11
0.5
21
-0.0266635
0
LINE
8
BLACK
6
CONTINUOUS
10
0.5
20
-0.0266635
11
0.489563
21
-0.02741
0
LINE
8
BLACK
6
CONTINUOUS
10
0.489563
20
-0.02741
11
0.479339
21
-0.0296342
0
LINE
8
BLACK
6
CONTINUOUS
10
0.479339
20
-0.0296342
11
0.470308
21
-0.0330026
0
LINE
8
BLACK
6
CONTINUOUS
10
0.470308
20
-0.0330026
11
0.467519
21
-0.033202
0
LINE
8
BLACK
6
CONTINUOUS
10
0.467519
20
-0.033202
11
0.465066
21
-0.0318624
0
LINE
8
BLACK
6
CONTINUOUS
10
0.465066
20
-0.0318624
11
0.463727
21
-0.0294092
0
LINE
8
BLACK
6
CONTINUOUS
10
0.463727
20
-0.0294092
11
0.463926
21
-0.0266212
0
LINE
8
BLACK
6
CONTINUOUS
10
0.463926
20
-0.0266212
11
0.463955
21
-0.0265461
0
LINE
8
BLACK
6
CONTINUOUS
10
0.463955
20
-0.0265461
11
0.466342
21
-0.0204638
0
LINE
8
BLACK
6
CONTINUOUS
10
0.466342
20
-0.0204638
11
0.468651
21
-0.0103475
0
LINE
8
BLACK
6
CONTINUOUS
10
0.468651
20
-0.0103475
11
0.469426
21
0
0
LINE
8
BLACK
6
CONTINUOUS
10
0.469426
20
0
11
0.468651
21
0.0103475
0
LINE
8
BLACK
6
CONTINUOUS
10
0.468651
20
0.0103475
11
0.466342
21
0.0204638
0
LINE
8
BLACK
6
CONTINUOUS
10
0.466342
20
0.0204638
11
0.463956
21
0.0265426
0
LINE
8
BLACK
6
CONTINUOUS
10
0.463956
20
0.0265426
11
0.463709
21
0.0293267
0
LINE
8
BLACK
6
CONTINUOUS
10
0.463709
20
0.0293267
11
0.465007
21
0.0318024
0
LINE
8
BLACK
6
CONTINUOUS
10
0.465007
20
0.0318024
11
0.467437
21
0.0331834
0
LINE
8
BLACK
6
CONTINUOUS
10
0.467437
20
0.0331834
11
0.470228
21
0.0330315
0
LINE
8
BLACK
6
CONTINUOUS
10
0.470228
20
0.0330315
11
0.470308
21
0.0330027
0
LINE
8
BLACK
6
CONTINUOUS
10
0.470308
20
0.0330027
11
0.479339
21
0.0296342
0
LINE
8
BLACK
6
CONTINUOUS
10
0.479339
20
0.0296342
11
0.489563
21
0.02741
0
LINE
8
BLACK
6
CONTINUOUS
10
0.489563
20
0.02741
11
0.5
21
0.0266636
0
LINE
8
BLACK
6
CONTINUOUS
10
0.5
20
0.0266636
11
0.510437
21
0.02741
0
LINE
8
BLACK
6
CONTINUOUS
10
0.510437
20
0.02741
11
0.520661
21
0.0296342
0
LINE
8
BLACK
6
CONTINUOUS
10
0.520661
20
0.0296342
11
0.530465
21
0.0332909
0
LINE
8
BLACK
6
CONTINUOUS
10
0.530465
20
0.0332909
11
0.539649
21
0.0383054
0
LINE
8
BLACK
6
CONTINUOUS
10
0.539649
20
0.0383054
11
0.544169
21
0.0416892
0
LINE
8
BLACK
6
CONTINUOUS
10
0.544169
20
0.0416892
11
0.544169
21
0.0416892
0
LINE
8
BLACK
6
CONTINUOUS
10
0.544169
20
0.0416892
11
0.529699
21
0.0561588
0
LINE
8
BLACK
6
CONTINUOUS
10
0.529699
20
0.0561588
11
0.526575
21
0.0539711
0
LINE
8
BLACK
6
CONTINUOUS
10
0.526575
20
0.0539711
11
0.518178
21
0.0500557
0
LINE
8
BLACK
6
CONTINUOUS
10
0.518178
20
0.0500557
11
0.509229
21
0.0476579
0
LINE
8
BLACK
6
CONTINUOUS
10
0.509229
20
0.0476579
11
0.5
21
0.0468504
0
LINE
8
BLACK
6
CONTINUOUS
10
0.5
20
0.0468504
11
0.490771
21
0.0476579
0
LINE
8
BLACK
6
CONTINUOUS
10
0.490771
20
0.0476579
11
0.481822
21
0.0500557
0
LINE
8
BLACK
6
CONTINUOUS
10
0.481822
20
0.0500557
11
0.473425
21
0.0539711
0
LINE
8
BLACK
6
CONTINUOUS
10
0.473425
20
0.0539711
11
0.465836
21
0.059285
0
LINE
8
BLACK
6
CONTINUOUS
10
0.465836
20
0.059285
11
0.459285
21
0.0658361
0
LINE
8
BLACK
6
CONTINUOUS
10
0.459285
20
0.0658361
11
0.453971
21
0.0734252
0
LINE
8
BLACK
6
CONTINUOUS
10
0.453971
20
0.0734252
11
0.450056
21
0.0818218
0
LINE
8
BLACK
6
CONTINUOUS
10
0.450056
20
0.0818218
11
0.447658
21
0.0907707
0
LINE
8
BLACK
6
CONTINUOUS
10
0.447658
20
0.0907707
11
0.44685
21
0.1
0
LINE
8
BLACK
6
CONTINUOUS
10
0.44685
20
0.1
11
0.447658
21
0.109229
0
LINE
8
BLACK
6
CONTINUOUS
10
0.447658
20
0.109229
11
0.450056
21
0.118178
0
LINE
8
BLACK
6
CONTINUOUS
10
0.450056
20
0.118178
11
0.453971
21
0.126575
0
LINE
8
BLACK
6
CONTINUOUS
10
0.453971
20
0.126575
11
0.456159
21
0.129699
0
LINE
8
BLACK
6
CONTINUOUS
10
0.456159
20
0.129699
11
0.441689
21
0.144169
0
LINE
8
BLACK
6
CONTINUOUS
10
0.441689
20
0.144169
11
0.441689
21
0.144169
0
LINE
8
BLACK
6
CONTINUOUS
10
0.543841
20
-0.0703008
11
0.546029
21
-0.0734252
0
LINE
8
BLACK
6
CONTINUOUS
10
0.546029
20
-0.0734252
11
0.549944
21
-0.0818218
0
LINE
8
BLACK
6
CONTINUOUS
10
0.549944
20
-0.0818218
11
0.552342
21
-0.0907707
0
LINE
8
BLACK
6
CONTINUOUS
10
0.552342
20
-0.0907707
11
0.55315
21
-0.1
0
LINE
8
BLACK
6
CONTINUOUS
10
0.55315
20
-0.1
11
0.552342
21
-0.109229
0
LINE
8
BLACK
6
CONTINUOUS
10
0.552342
20
-0.109229
11
0.549944
21
-0.118178
0
LINE
8
BLACK
6
CONTINUOUS
10
0.549944
20
-0.118178
11
0.546029
21
-0.126575
0
LINE
8
BLACK
6
CONTINUOUS
10
0.546029
20
-0.126575
11
0.543841
21
-0.129699
0
LINE
8
BLACK
6
CONTINUOUS
10
0.543841
20
-0.129699
11
0.558311
21
-0.144169
0
LINE
8
BLACK
6
CONTINUOUS
10
0.558311
20
-0.144169
11
0.558311
21
-0.144169
0
LINE
8
BLACK
6
CONTINUOUS
10
0.558311
20
-0.144169
11
0.561695
21
-0.139649
0
LINE
8
BLACK
6
CONTINUOUS
10
0.561695
20
-0.139649
11
0.566709
21
-0.130465
0
LINE
8
BLACK
6
CONTINUOUS
10
0.566709
20
-0.130465
11
0.570366
21
-0.120661
0
LINE
8
BLACK
6
CONTINUOUS
10
0.570366
20
-0.120661
11
0.57259
21
-0.110437
0
LINE
8
BLACK
6
CONTINUOUS
10
0.57259
20
-0.110437
11
0.573336
21
-0.1
0
LINE
8
BLACK
6
CONTINUOUS
10
0.573336
20
-0.1
11
0.57259
21
-0.0895633
0
LINE
8
BLACK
6
CONTINUOUS
10
0.57259
20
-0.0895633
11
0.570366
21
-0.0793388
0
LINE
8
BLACK
6
CONTINUOUS
10
0.570366
20
-0.0793388
11
0.566709
21
-0.0695348
0
LINE
8
BLACK
6
CONTINUOUS
10
0.566709
20
-0.0695348
11
0.561694
21
-0.0603511
0
LINE
8
BLACK
6
CONTINUOUS
10
0.561694
20
-0.0603511
11
0.558311
21
-0.0558312
0
LINE
8
BLACK
6
CONTINUOUS
10
0.558311
20
-0.0558312
11
0.558311
21
-0.0558312
0
LINE
8
BLACK
6
CONTINUOUS
10
0.558311
20
-0.0558312
11
0.543841
21
-0.0703008
0
LINE
8
BLACK
6
CONTINUOUS
10
0.241689
20
0.144169
11
0.238305
21
0.139649
0
LINE
8
BLACK
6
CONTINUOUS
10
0.238305
20
0.139649
11
0.233291
21
0.130465
0
LINE
8
BLACK
6
CONTINUOUS
10
0.233291
20
0.130465
11
0.229634
21
0.120661
0
LINE
8
BLACK
6
CONTINUOUS
10
0.229634
20
0.120661
11
0.22741
21
0.110437
0
LINE
8
BLACK
6
CONTINUOUS
10
0.22741
20
0.110437
11
0.226664
21
0.1
0
LINE
8
BLACK
6
CONTINUOUS
10
0.226664
20
0.1
11
0.22741
21
0.0895633
0
LINE
8
BLACK
6
CONTINUOUS
10
0.22741
20
0.0895633
11
0.229634
21
0.0793389
0
LINE
8
BLACK
6
CONTINUOUS
10
0.229634
20
0.0793389
11
0.233291
21
0.0695349
0
LINE
8
BLACK
6
CONTINUOUS
10
0.233291
20
0.0695349
11
0.238305
21
0.0603513
0
LINE
8
BLACK
6
CONTINUOUS
10
0.238305
20
0.0603513
11
0.241689
21
0.0558313
0
LINE
8
BLACK
6
CONTINUOUS
10
0.241689
20
0.0558313
11
0.241689
21
0.0558313
0
LINE
8
BLACK
6
CONTINUOUS
10
0.241689
20
0.0558313
11
0.256159
21
0.0703009
0
LINE
8
BLACK
6
CONTINUOUS
10
0.256159
20
0.0703009
11
0.253971
21
0.0734252
0
LINE
8
BLACK
6
CONTINUOUS
10
0.253971
20
0.0734252
11
0.250056
21
0.0818218
0
LINE
8
BLACK
6
CONTINUOUS
10
0.250056
20
0.0818218
11
0.247658
21
0.0907707
0
LINE
8
BLACK
6
CONTINUOUS
10
0.247658
20
0.0907707
11
0.24685
21
0.1
0
LINE
8
BLACK
6
CONTINUOUS
10
0.24685
20
0.1
11
0.247658
21
0.109229
0
LINE
8
BLACK
6
CONTINUOUS
10
0.247658
20
0.109229
11
0.250056
21
0.118178
0
LINE
8
BLACK
6
CONTINUOUS
10
0.250056
20
0.118178
11
0.253971
21
0.126575
0
LINE
8
BLACK
6
CONTINUOUS
10
0.253971
20
0.126575
11
0.256159
21
0.129699
0
LINE
8
BLACK
6
CONTINUOUS
10
0.256159
20
0.129699
11
0.241689
21
0.144169
0
LINE
8
BLACK
6
CONTINUOUS
10
0.241689
20
0.144169
11
0.241689
21
0.144169
0
LINE
8
BLACK
6
CONTINUOUS
10
0.543841
20
0.129699
11
0.546029
21
0.126575
0
LINE
8
BLACK
6
CONTINUOUS
10
0.546029
20
0.126575
11
0.549944
21
0.118178
0
LINE
8
BLACK
6
CONTINUOUS
10
0.549944
20
0.118178
11
0.552342
21
0.109229
0
LINE
8
BLACK
6
CONTINUOUS
10
0.552342
20
0.109229
11
0.55315
21
0.1
0
LINE
8
BLACK
6
CONTINUOUS
10
0.55315
20
0.1
11
0.552342
21
0.0907707
0
LINE
8
BLACK
6
CONTINUOUS
10
0.552342
20
0.0907707
11
0.549944
21
0.0818218
0
LINE
8
BLACK
6
CONTINUOUS
10
0.549944
20
0.0818218
11
0.546029
21
0.0734252
0
LINE
8
BLACK
6
CONTINUOUS
10
0.546029
20
0.0734252
11
0.543841
21
0.0703009
0
LINE
8
BLACK
6
CONTINUOUS
10
0.543841
20
0.0703009
11
0.558311
21
0.0558313
0
LINE
8
BLACK
6
CONTINUOUS
10
0.558311
20
0.0558313
11
0.558311
21
0.0558313
0
LINE
8
BLACK
6
CONTINUOUS
10
0.558311
20
0.0558313
11
0.561695
21
0.0603513
0
LINE
8
BLACK
6
CONTINUOUS
10
0.561695
20
0.0603513
11
0.566709
21
0.0695349
0
LINE
8
BLACK
6
CONTINUOUS
10
0.566709
20
0.0695349
11
0.570366
21
0.0793389
0
LINE
8
BLACK
6
CONTINUOUS
10
0.570366
20
0.0793389
11
0.57259
21
0.0895633
0
LINE
8
BLACK
6
CONTINUOUS
10
0.57259
20
0.0895633
11
0.573336
21
0.1
0
LINE
8
BLACK
6
CONTINUOUS
10
0.573336
20
0.1
11
0.57259
21
0.110437
0
LINE
8
BLACK
6
CONTINUOUS
10
0.57259
20
0.110437
11
0.570366
21
0.120661
0
LINE
8
BLACK
6
CONTINUOUS
10
0.570366
20
0.120661
11
0.566709
21
0.130465
0
LINE
8
BLACK
6
CONTINUOUS
10
0.566709
20
0.130465
11
0.561694
21
0.139649
0
LINE
8
BLACK
6
CONTINUOUS
10
0.561694
20
0.139649
11
0.558311
21
0.144169
0
LINE
8
BLACK
6
CONTINUOUS
10
0.558311
20
0.144169
11
0.558311
21
0.144169
0
LINE
8
BLACK
6
CONTINUOUS
10
0.558311
20
0.144169
11
0.543841
21
0.129699
0
LINE
8
BLACK
6
CONTINUOUS
10
0.289563
20
0.17259
11
0.279339
21
0.170366
0
LINE
8
BLACK
6
CONTINUOUS
10
0.279339
20
0.170366
11
0.269535
21
0.166709
0
LINE
8
BLACK
6
CONTINUOUS
10
0.269535
20
0.166709
11
0.260351
21
0.161695
0
LINE
8
BLACK
6
CONTINUOUS
10
0.260351
20
0.161695
11
0.255831
21
0.158311
0
LINE
8
BLACK
6
CONTINUOUS
10
0.255831
20
0.158311
11
0.255831
21
0.158311
0
LINE
8
BLACK
6
CONTINUOUS
10
0.255831
20
0.158311
11
0.270301
21
0.143841
0
LINE
8
BLACK
6
CONTINUOUS
10
0.270301
20
0.143841
11
0.273425
21
0.146029
0
LINE
8
BLACK
6
CONTINUOUS
10
0.273425
20
0.146029
11
0.281822
21
0.149944
0
LINE
8
BLACK
6
CONTINUOUS
10
0.281822
20
0.149944
11
0.290771
21
0.152342
0
LINE
8
BLACK
6
CONTINUOUS
10
0.290771
20
0.152342
11
0.3
21
0.15315
0
LINE
8
BLACK
6
CONTINUOUS
10
0.3
20
0.15315
11
0.309229
21
0.152342
0
LINE
8
BLACK
6
CONTINUOUS
10
0.309229
20
0.152342
11
0.318178
21
0.149944
0
LINE
8
BLACK
6
CONTINUOUS
10
0.318178
20
0.149944
11
0.326575
21
0.146029
0
LINE
8
BLACK
6
CONTINUOUS
10
0.326575
20
0.146029
11
0.329699
21
0.143841
0
LINE
8
BLACK
6
CONTINUOUS
10
0.329699
20
0.143841
11
0.344169
21
0.158311
0
LINE
8
BLACK
6
CONTINUOUS
10
0.344169
20
0.158311
11
0.339649
21
0.161695
0
LINE
8
BLACK
6
CONTINUOUS
10
0.339649
20
0.161695
11
0.330465
21
0.166709
0
LINE
8
BLACK
6
CONTINUOUS
10
0.330465
20
0.166709
11
0.320661
21
0.170366
0
LINE
8
BLACK
6
CONTINUOUS
10
0.320661
20
0.170366
11
0.310437
21
0.17259
0
LINE
8
BLACK
6
CONTINUOUS
10
0.310437
20
0.17259
11
0.3
21
0.173336
0
LINE
8
BLACK
6
CONTINUOUS
10
0.3
20
0.173336
11
0.289563
21
0.17259
0
LINE
8
BLACK
6
CONTINUOUS
10
0.489563
20
0.17259
11
0.479339
21
0.170366
0
LINE
8
BLACK
6
CONTINUOUS
10
0.479339
20
0.170366
11
0.469535
21
0.166709
0
LINE
8
BLACK
6
CONTINUOUS
10
0.469535
20
0.166709
11
0.460351
21
0.161695
0
LINE
8
BLACK
6
CONTINUOUS
10
0.460351
20
0.161695
11
0.455831
21
0.158311
0
LINE
8
BLACK
6
CONTINUOUS
10
0.455831
20
0.158311
11
0.455831
21
0.158311
0
LINE
8
BLACK
6
CONTINUOUS
10
0.455831
20
0.158311
11
0.470301
21
0.143841
0
LINE
8
BLACK
6
CONTINUOUS
10
0.470301
20
0.143841
11
0.473425
21
0.146029
0
LINE
8
BLACK
6
CONTINUOUS
10
0.473425
20
0.146029
11
0.481822
21
0.149944
0
LINE
8
BLACK
6
CONTINUOUS
10
0.481822
20
0.149944
11
0.490771
21
0.152342
0
LINE
8
BLACK
6
CONTINUOUS
10
0.490771
20
0.152342
11
0.5
21
0.15315
0
LINE
8
BLACK
6
CONTINUOUS
10
0.5
20
0.15315
11
0.509229
21
0.152342
0
LINE
8
BLACK
6
CONTINUOUS
10
0.509229
20
0.152342
11
0.518178
21
0.149944
0
LINE
8
BLACK
6
CONTINUOUS
10
0.518178
20
0.149944
11
0.526575
21
0.146029
0
LINE
8
BLACK
6
CONTINUOUS
10
0.526575
20
0.146029
11
0.529699
21
0.143841
0
LINE
8
BLACK
6
CONTINUOUS
10
0.529699
20
0.143841
11
0.544169
21
0.158311
0
LINE
8
BLACK
6
CONTINUOUS
10
0.544169
20
0.158311
11
0.539649
21
0.161695
0
LINE
8
BLACK
6
CONTINUOUS
10
0.539649
20
0.161695
11
0.530465
21
0.166709
0
LINE
8
BLACK
6
CONTINUOUS
10
0.530465
20
0.166709
11
0.520661
21
0.170366
0
LINE
8
BLACK
6
CONTINUOUS
10
0.520661
20
0.170366
11
0.510437
21
0.17259
0
LINE
8
BLACK
6
CONTINUOUS
10
0.510437
20
0.17259
11
0.5
21
0.173336
0
LINE
8
BLACK
6
CONTINUOUS
10
0.5
20
0.173336
11
0.489563
21
0.17259
0
LINE
8
BLACK
6
CONTINUOUS
10
0.7
20
0.24
11
0.7
21
0.218087
0
LINE
8
BLACK
6
CONTINUOUS
10
0.7
20
0.218087
11
0.700256
21
0.215705
0
LINE
8
BLACK
6
CONTINUOUS
10
0.700256
20
0.215705
11
0.702266
21
0.210316
0
LINE
8
BLACK
6
CONTINUOUS
10
0.702266
20
0.210316
11
0.702266
21
0.210316
0
LINE
8
BLACK
6
CONTINUOUS
10
0.702266
20
0.210316
11
0.705712
21
0.205712
0
LINE
8
BLACK
6
CONTINUOUS
10
0.705712
20
0.205712
11
0.710316
21
0.202266
0
LINE
8
BLACK
6
CONTINUOUS
10
0.710316
20
0.202266
11
0.715705
21
0.200256
0
LINE
8
BLACK
6
CONTINUOUS
10
0.715705
20
0.200256
11
0.718087
21
0.2
0
LINE
8
BLACK
6
CONTINUOUS
10
0.718087
20
0.2
11
0.718087
21
0.2
0
LINE
8
BLACK
6
CONTINUOUS
10
0.718087
20
0.2
11
0.74
21
0.2
0
LINE
8
BLACK
6
CONTINUOUS
10
0.74
20
0.2
11
0.74
21
0.22
0
LINE
8
BLACK
6
CONTINUOUS
10
0.74
20
0.22
11
0.72
21
0.22
0
LINE
8
BLACK
6
CONTINUOUS
10
0.72
20
0.22
11
0.72
21
0.24
0
LINE
8
BLACK
6
CONTINUOUS
10
0.72
20
0.24
11
0.7
21
0.24
0
LINE
8
BLACK
6
CONTINUOUS
10
0.78
20
0.24
11
0.78
21
0.22
0
LINE
8
BLACK
6
CONTINUOUS
10
0.78
20
0.22
11
0.76
21
0.22
0
LINE
8
BLACK
6
CONTINUOUS
10
0.76
20
0.22
11
0.76
21
0.2
0
LINE
8
BLACK
6
CONTINUOUS
10
0.76
20
0.2
11
0.781913
21
0.2
0
LINE
8
BLACK
6
CONTINUOUS
10
0.781913
20
0.2
11
0.781913
21
0.2
0
LINE
8
BLACK
6
CONTINUOUS
10
0.781913
20
0.2
11
0.784295
21
0.200256
0
LINE
8
BLACK
6
CONTINUOUS
10
0.784295
20
0.200256
11
0.789684
21
0.202266
0
LINE
8
BLACK
6
CONTINUOUS
10
0.789684
20
0.202266
11
0.789684
21
0.202266
0
LINE
8
BLACK
6
CONTINUOUS
10
0.789684
20
0.202266
11
0.794288
21
0.205712
0
LINE
8
BLACK
6
CONTINUOUS
10
0.794288
20
0.205712
11
0.796029
21
0.208038
0
LINE
8
BLACK
6
CONTINUOUS
10
0.796029
20
0.208038
11
0.798266
21
0.209714
0
LINE
8
BLACK
6
CONTINUOUS
10
0.798266
20
0.209714
11
0.801054
21
0.209913
0
LINE
8
BLACK
6
CONTINUOUS
10
0.801054
20
0.209913
11
0.803508
21
0.208573
0
LINE
8
BLACK
6
CONTINUOUS
10
0.803508
20
0.208573
11
0.803971
21
0.208039
0
LINE
8
BLACK
6
CONTINUOUS
10
0.803971
20
0.208039
11
0.805712
21
0.205712
0
LINE
8
BLACK
6
CONTINUOUS
10
0.805712
20
0.205712
11
0.810316
21
0.202266
0
LINE
8
BLACK
6
CONTINUOUS
10
0.810316
20
0.202266
11
0.815705
21
0.200256
0
LINE
8
BLACK
6
CONTINUOUS
10
0.815705
20
0.200256
11
0.818087
21
0.2
0
LINE
8
BLACK
6
CONTINUOUS
10
0.818087
20
0.2
11
0.818087
21
0.2
0
LINE
8
BLACK
6
CONTINUOUS
10
0.818087
20
0.2
11
0.84
21
0.2
0
LINE
8
BLACK
6
CONTINUOUS
10
0.84
20
0.2
11
0.84
21
0.22
0
LINE
8
BLACK
6
CONTINUOUS
10
0.84
20
0.22
11
0.82
21
0.22
0
LINE
8
BLACK
6
CONTINUOUS
10
0.82
20
0.22
11
0.82
21
0.24
0
LINE
8
BLACK
6
CONTINUOUS
10
0.82
20
0.24
11
0.78
21
0.24
0
LINE
8
BLACK
6
CONTINUOUS
10
0.88
20
0.22
11
0.86
21
0.22
0
LINE
8
BLACK
6
CONTINUOUS
10
0.86
20
0.22
11
0.86
21
0.2
0
LINE
8
BLACK
6
CONTINUOUS
10
0.86
20
0.2
11
0.881913
21
0.2
0
LINE
8
BLACK
6
CONTINUOUS
10
0.881913
20
0.2
11
0.881913
21
0.2
0
LINE
8
BLACK
6
CONTINUOUS
10
0.881913
20
0.2
11
0.884295
21
0.200256
0
LINE
8
BLACK
6
CONTINUOUS
10
0.884295
20
0.200256
11
0.889684
21
0.202266
0
LINE
8
BLACK
6
CONTINUOUS
10
0.889684
20
0.202266
11
0.889684
21
0.202266
0
LINE
8
BLACK
6
CONTINUOUS
10
0.889684
20
0.202266
11
0.894288
21
0.205712
0
LINE
8
BLACK
6
CONTINUOUS
10
0.894288
20
0.205712
11
0.897734
21
0.210316
0
LINE
8
BLACK
6
CONTINUOUS
10
0.897734
20
0.210316
11
0.897734
21
0.210316
0
LINE
8
BLACK
6
CONTINUOUS
10
0.897734
20
0.210316
11
0.899744
21
0.215705
0
LINE
8
BLACK
6
CONTINUOUS
10
0.899744
20
0.215705
11
0.9
21
0.218087
0
LINE
8
BLACK
6
CONTINUOUS
10
0.9
20
0.218087
11
0.9
21
0.218087
0
LINE
8
BLACK
6
CONTINUOUS
10
0.9
20
0.218087
11
0.9
21
0.24
0
LINE
8
BLACK
6
CONTINUOUS
10
0.9
20
0.24
11
0.88
21
0.24
0
LINE
8
BLACK
6
CONTINUOUS
10
0.88
20
0.24
11
0.88
21
0.22
0
LINE
8
BLACK
6
CONTINUOUS
10
-0.0734252
20
0.253971
11
-0.0818218
21
0.250056
0
LINE
8
BLACK
6
CONTINUOUS
10
-0.0818218
20
0.250056
11
-0.0907707
21
0.247658
0
LINE
8
BLACK
6
CONTINUOUS
10
-0.0907707
20
0.247658
11
-0.1
21
0.24685
0
LINE
8
BLACK
6
CONTINUOUS
10
-0.1
20
0.24685
11
-0.109229
21
0.247658
0
LINE
8
BLACK
6
CONTINUOUS
10
-0.109229
20
0.247658
11
-0.118178
21
0.250056
0
LINE
8
BLACK
6
CONTINUOUS
10
-0.118178
20
0.250056
11
-0.126575
21
0.253971
0
LINE
8
BLACK
6
CONTINUOUS
10
-0.126575
20
0.253971
11
-0.129699
21
0.256159
0
LINE
8
BLACK
6
CONTINUOUS
10
-0.129699
20
0.256159
11
-0.144169
21
0.241689
0
LINE
8
BLACK
6
CONTINUOUS
10
-0.144169
20
0.241689
11
-0.144169
21
0.241689
0
LINE
8
BLACK
6
CONTINUOUS
10
-0.144169
20
0.241689
11
-0.139649
21
0.238306
0
LINE
8
BLACK
6
CONTINUOUS
10
-0.139649
20
0.238306
11
-0.130465
21
0.233291
0
LINE
8
BLACK
6
CONTINUOUS
10
-0.130465
20
0.233291
11
-0.120661
21
0.229634
0
LINE
8
BLACK
6
CONTINUOUS
10
-0.120661
20
0.229634
11
-0.110437
21
0.22741
0
LINE
8
BLACK
6
CONTINUOUS
10
-0.110437
20
0.22741
11
-0.1
21
0.226664
0
LINE
8
BLACK
6
CONTINUOUS
10
-0.1
20
0.226664
11
-0.0895633
21
0.22741
0
LINE
8
BLACK
6
CONTINUOUS
10
-0.0895633
20
0.22741
11
-0.0793389
21
0.229634
0
LINE
8
BLACK
6
CONTINUOUS
10
-0.0793389
20
0.229634
11
-0.0695349
21
0.233291
0
LINE
8
BLACK
6
CONTINUOUS
10
-0.0695349
20
0.233291
11
-0.0603513
21
0.238305
0
LINE
8
BLACK
6
CONTINUOUS
10
-0.0603513
20
0.238305
11
-0.0558313
21
0.241689
0
LINE
8
BLACK
6
CONTINUOUS
10
-0.0558313
20
0.241689
11
-0.0558313
21
0.241689
0
LINE
8
BLACK
6
CONTINUOUS
10
-0.0558313
20
0.241689
11
-0.0703009
21
0.256159
0
LINE
8
BLACK
6
CONTINUOUS
10
-0.0703009
20
0.256159
11
-0.0734252
21
0.253971
0
LINE
8
BLACK
6
CONTINUOUS
10
0.126575
20
0.253971
11
0.118178
21
0.250056
0
LINE
8
BLACK
6
CONTINUOUS
10
0.118178
20
0.250056
11
0.109229
21
0.247658
0
LINE
8
BLACK
6
CONTINUOUS
10
0.109229
20
0.247658
11
0.1
21
0.24685
0
LINE
8
BLACK
6
CONTINUOUS
10
0.1
20
0.24685
11
0.0907707
21
0.247658
0
LINE
8
BLACK
6
CONTINUOUS
10
0.0907707
20
0.247658
11
0.0818218
21
0.250056
0
LINE
8
BLACK
6
CONTINUOUS
10
0.0818218
20
0.250056
11
0.0734252
21
0.253971
0
LINE
8
BLACK
6
CONTINUOUS
10
0.0734252
20
0.253971
11
0.0703008
21
0.256159
0
LINE
8
BLACK
6
CONTINUOUS
10
0.0703008
20
0.256159
11
0.0558312
21
0.241689
0
LINE
8
BLACK
6
CONTINUOUS
10
0.0558312
20
0.241689
11
0.0558312
21
0.241689
0
LINE
8
BLACK
6
CONTINUOUS
10
0.0558312
20
0.241689
11
0.0603511
21
0.238306
0
LINE
8
BLACK
6
CONTINUOUS
10
0.0603511
20
0.238306
11
0.0695348
21
0.233291
0
LINE
8
BLACK
6
CONTINUOUS
10
0.0695348
20
0.233291
11
0.0793388
21
0.229634
0
LINE
8
BLACK
6
CONTINUOUS
10
0.0793388
20
0.229634
11
0.0895633
21
0.22741
0
LINE
8
BLACK
6
CONTINUOUS
10
0.0895633
20
0.22741
11
0.1
21
0.226664
0
LINE
8
BLACK
6
CONTINUOUS
10
0.1
20
0.226664
11
0.110437
21
0.22741
0
LINE
8
BLACK
6
CONTINUOUS
10
0.110437
20
0.22741
11
0.120661
21
0.229634
0
LINE
8
BLACK
6
CONTINUOUS
10
0.120661
20
0.229634
11
0.130465
21
0.233291
0
LINE
8
BLACK
6
CONTINUOUS
10
0.130465
20
0.233291
11
0.139649
21
0.238305
0
LINE
8
BLACK
6
CONTINUOUS
10
0.139649
20
0.238305
11
0.144169
21
0.241689
0
LINE
8
BLACK
6
CONTINUOUS
10
0.144169
20
0.241689
11
0.144169
21
0.241689
0
LINE
8
BLACK
6
CONTINUOUS
10
0.144169
20
0.241689
11
0.129699
21
0.256159
0
LINE
8
BLACK
6
CONTINUOUS
10
0.129699
20
0.256159
11
0.126575
21
0.253971
0
LINE
8
BLACK
6
CONTINUOUS
10
0.0416891
20
0.544169
11
0.0383054
21
0.539649
0
LINE
8
BLACK
6
CONTINUOUS
10
0.0383054
20
0.539649
11
0.0332908
21
0.530465
0
LINE
8
BLACK
6
CONTINUOUS
10
0.0332908
20
0.530465
11
0.0296341
21
0.520661
0
LINE
8
BLACK
6
CONTINUOUS
10
0.0296341
20
0.520661
11
0.02741
21
0.510437
0
LINE
8
BLACK
6
CONTINUOUS
10
0.02741
20
0.510437
11
0.0266635
21
0.5
0
LINE
8
BLACK
6
CONTINUOUS
10
0.0266635
20
0.5
11
0.02741
21
0.489563
0
LINE
8
BLACK
6
CONTINUOUS
10
0.02741
20
0.489563
11
0.0296341
21
0.479339
0
LINE
8
BLACK
6
CONTINUOUS
10
0.0296341
20
0.479339
11
0.0329485
21
0.470453
0
LINE
8
BLACK
6
CONTINUOUS
10
0.0329485
20
0.470453
11
0.033148
21
0.467665
0
LINE
8
BLACK
6
CONTINUOUS
10
0.033148
20
0.467665
11
0.0318084
21
0.465211
0
LINE
8
BLACK
6
CONTINUOUS
10
0.0318084
20
0.465211
11
0.0293551
21
0.463872
0
LINE
8
BLACK
6
CONTINUOUS
10
0.0293551
20
0.463872
11
0.0265671
21
0.464071
0
LINE
8
BLACK
6
CONTINUOUS
10
0.0265671
20
0.464071
11
0.0261484
21
0.46425
0
LINE
8
BLACK
6
CONTINUOUS
10
0.0261484
20
0.46425
11
0.0253645
21
0.464627
0
LINE
8
BLACK
6
CONTINUOUS
10
0.0253645
20
0.464627
11
0.025364
21
0.464627
0
LINE
8
BLACK
6
CONTINUOUS
10
0.025364
20
0.464627
11
0.0154492
21
0.467686
0
LINE
8
BLACK
6
CONTINUOUS
10
0.0154492
20
0.467686
11
0.0154489
21
0.467686
0
LINE
8
BLACK
6
CONTINUOUS
10
0.0154489
20
0.467686
11
0.0154488
21
0.467686
0
LINE
8
BLACK
6
CONTINUOUS
10
0.0154488
20
0.467686
11
0.00518823
21
0.469232
0
LINE
8
BLACK
6
CONTINUOUS
10
0.00518823
20
0.469232
11
-0.00518823
21
0.469232
0
LINE
8
BLACK
6
CONTINUOUS
10
-0.00518823
20
0.469232
11
-0.0154488
21
0.467686
0
LINE
8
BLACK
6
CONTINUOUS
10
-0.0154488
20
0.467686
11
-0.0154489
21
0.467686
0
LINE
8
BLACK
6
CONTINUOUS
10
-0.0154489
20
0.467686
11
-0.0154493
21
0.467686
0
LINE
8
BLACK
6
CONTINUOUS
10
-0.0154493
20
0.467686
11
-0.025364
21
0.464627
0
LINE
8
BLACK
6
CONTINUOUS
10
-0.025364
20
0.464627
11
-0.0253646
21
0.464627
0
LINE
8
BLACK
6
CONTINUOUS
10
-0.0253646
20
0.464627
11
-0.0261485
21
0.46425
0
LINE
8
BLACK
6
CONTINUOUS
10
-0.0261485
20
0.46425
11
-0.0289065
21
0.463796
0
LINE
8
BLACK
6
CONTINUOUS
10
-0.0289065
20
0.463796
11
-0.0314722
21
0.464905
0
LINE
8
BLACK
6
CONTINUOUS
10
-0.0314722
20
0.464905
11
-0.0330309
21
0.467225
0
LINE
8
BLACK
6
CONTINUOUS
10
-0.0330309
20
0.467225
11
-0.0330879
21
0.470019
0
LINE
8
BLACK
6
CONTINUOUS
10
-0.0330879
20
0.470019
11
-0.0329485
21
0.470453
0
LINE
8
BLACK
6
CONTINUOUS
10
-0.0329485
20
0.470453
11
-0.0296343
21
0.479339
0
LINE
8
BLACK
6
CONTINUOUS
10
-0.0296343
20
0.479339
11
-0.02741
21
0.489563
0
LINE
8
BLACK
6
CONTINUOUS
10
-0.02741
20
0.489563
11
-0.0266636
21
0.5
0
LINE
8
BLACK
6
CONTINUOUS
10
-0.0266636
20
0.5
11
-0.02741
21
0.510437
0
LINE
8
BLACK
6
CONTINUOUS
10
-0.02741
20
0.510437
11
-0.0296342
21
0.520661
0
LINE
8
BLACK
6
CONTINUOUS
10
-0.0296342
20
0.520661
11
-0.0332909
21
0.530465
0
LINE
8
BLACK
6
CONTINUOUS
10
-0.0332909
20
0.530465
11
-0.0383056
21
0.539649
0
LINE
8
BLACK
6
CONTINUOUS
10
-0.0383056
20
0.539649
11
-0.0416891
21
0.544169
0
LINE
8
BLACK
6
CONTINUOUS
10
-0.0416891
20
0.544169
11
-0.0416892
21
0.544169
0
LINE
8
BLACK
6
CONTINUOUS
10
-0.0416892
20
0.544169
11
-0.0561588
21
0.529699
0
LINE
8
BLACK
6
CONTINUOUS
10
-0.0561588
20
0.529699
11
-0.0539711
21
0.526575
0
LINE
8
BLACK
6
CONTINUOUS
10
-0.0539711
20
0.526575
11
-0.0500557
21
0.518178
0
LINE
8
BLACK
6
CONTINUOUS
10
-0.0500557
20
0.518178
11
-0.0476579
21
0.509229
0
LINE
8
BLACK
6
CONTINUOUS
10
-0.0476579
20
0.509229
11
-0.0468504
21
0.5
0
LINE
8
BLACK
6
CONTINUOUS
10
-0.0468504
20
0.5
11
-0.0476579
21
0.490771
0
LINE
8
BLACK
6
CONTINUOUS
10
-0.0476579
20
0.490771
11
-0.0500557
21
0.481822
0
LINE
8
BLACK
6
CONTINUOUS
10
-0.0500557
20
0.481822
11
-0.0539711
21
0.473425
0
LINE
8
BLACK
6
CONTINUOUS
10
-0.0539711
20
0.473425
11
-0.059285
21
0.465836
0
LINE
8
BLACK
6
CONTINUOUS
10
-0.059285
20
0.465836
11
-0.0658361
21
0.459285
0
LINE
8
BLACK
6
CONTINUOUS
10
-0.0658361
20
0.459285
11
-0.0734252
21
0.453971
0
LINE
8
BLACK
6
CONTINUOUS
10
-0.0734252
20
0.453971
11
-0.0818218
21
0.450056
0
LINE
8
BLACK
6
CONTINUOUS
10
-0.0818218
20
0.450056
11
-0.0907707
21
0.447658
0
LINE
8
BLACK
6
CONTINUOUS
10
-0.0907707
20
0.447658
11
-0.1
21
0.44685
0
LINE
8
BLACK
6
CONTINUOUS
10
-0.1
20
0.44685
11
-0.109229
21
0.447658
0
LINE
8
BLACK
6
CONTINUOUS
10
-0.109229
20
0.447658
11
-0.118178
21
0.450056
0
LINE
8
BLACK
6
CONTINUOUS
10
-0.118178
20
0.450056
11
-0.126575
21
0.453971
0
LINE
8
BLACK
6
CONTINUOUS
10
-0.126575
20
0.453971
11
-0.129699
21
0.456159
0
LINE
8
BLACK
6
CONTINUOUS
10
-0.129699
20
0.456159
11
-0.144169
21
0.441689
0
LINE
8
BLACK
6
CONTINUOUS
10
-0.144169
20
0.441689
11
-0.144169
21
0.441689
0
LINE
8
BLACK
6
CONTINUOUS
10
-0.144169
20
0.441689
11
-0.139649
21
0.438306
0
LINE
8
BLACK
6
CONTINUOUS
10
-0.139649
20
0.438306
11
-0.130465
21
0.433291
0
LINE
8
BLACK
6
CONTINUOUS
10
-0.130465
20
0.433291
11
-0.120661
21
0.429634
0
LINE
8
BLACK
6
CONTINUOUS
10
-0.120661
20
0.429634
11
-0.110437
21
0.42741
0
LINE
8
BLACK
6
CONTINUOUS
10
-0.110437
20
0.42741
11
-0.1
21
0.426664
0
LINE
8
BLACK
6
CONTINUOUS
10
-0.1
20
0.426664
11
-0.0895633
21
0.42741
0
LINE
8
BLACK
6
CONTINUOUS
10
-0.0895633
20
0.42741
11
-0.0793389
21
0.429634
0
LINE
8
BLACK
6
CONTINUOUS
10
-0.0793389
20
0.429634
11
-0.0703076
21
0.433003
0
LINE
8
BLACK
6
CONTINUOUS
10
-0.0703076
20
0.433003
11
-0.0675196
21
0.433202
0
LINE
8
BLACK
6
CONTINUOUS
10
-0.0675196
20
0.433202
11
-0.0650663
21
0.431863
0
LINE
8
BLACK
6
CONTINUOUS
10
-0.0650663
20
0.431863
11
-0.0637268
21
0.429409
0
LINE
8
BLACK
6
CONTINUOUS
10
-0.0637268
20
0.429409
11
-0.0639261
21
0.426621
0
LINE
8
BLACK
6
CONTINUOUS
10
-0.0639261
20
0.426621
11
-0.0639563
21
0.426542
0
LINE
8
BLACK
6
CONTINUOUS
10
-0.0639563
20
0.426542
11
-0.0663421
21
0.420464
0
LINE
8
BLACK
6
CONTINUOUS
10
-0.0663421
20
0.420464
11
-0.0674292
21
0.415701
0
LINE
8
BLACK
6
CONTINUOUS
10
-0.0674292
20
0.415701
11
-0.068651
21
0.410347
0
LINE
8
BLACK
6
CONTINUOUS
10
-0.068651
20
0.410347
11
-0.0694264
21
0.4
0
LINE
8
BLACK
6
CONTINUOUS
10
-0.0694264
20
0.4
11
-0.068651
21
0.389653
0
LINE
8
BLACK
6
CONTINUOUS
10
-0.068651
20
0.389653
11
-0.0686509
21
0.389652
0
LINE
8
BLACK
6
CONTINUOUS
10
-0.0686509
20
0.389652
11
-0.0663421
21
0.379536
0
LINE
8
BLACK
6
CONTINUOUS
10
-0.0663421
20
0.379536
11
-0.0639563
21
0.373458
0
LINE
8
BLACK
6
CONTINUOUS
10
-0.0639563
20
0.373458
11
-0.0637095
21
0.370673
0
LINE
8
BLACK
6
CONTINUOUS
10
-0.0637095
20
0.370673
11
-0.0650072
21
0.368198
0
LINE
8
BLACK
6
CONTINUOUS
10
-0.0650072
20
0.368198
11
-0.0674373
21
0.366817
0
LINE
8
BLACK
6
CONTINUOUS
10
-0.0674373
20
0.366817
11
-0.0702283
21
0.366969
0
LINE
8
BLACK
6
CONTINUOUS
10
-0.0702283
20
0.366969
11
-0.0703076
21
0.366997
0
LINE
8
BLACK
6
CONTINUOUS
10
-0.0703076
20
0.366997
11
-0.0793387
21
0.370366
0
LINE
8
BLACK
6
CONTINUOUS
10
-0.0793387
20
0.370366
11
-0.0895633
21
0.37259
0
LINE
8
BLACK
6
CONTINUOUS
10
-0.0895633
20
0.37259
11
-0.1
21
0.373336
0
LINE
8
BLACK
6
CONTINUOUS
10
-0.1
20
0.373336
11
-0.110437
21
0.37259
0
LINE
8
BLACK
6
CONTINUOUS
10
-0.110437
20
0.37259
11
-0.120661
21
0.370366
0
LINE
8
BLACK
6
CONTINUOUS
10
-0.120661
20
0.370366
11
-0.130465
21
0.366709
0
LINE
8
BLACK
6
CONTINUOUS
10
-0.130465
20
0.366709
11
-0.139649
21
0.361695
0
LINE
8
BLACK
6
CONTINUOUS
10
-0.139649
20
0.361695
11
-0.144169
21
0.358311
0
LINE
8
BLACK
6
CONTINUOUS
10
-0.144169
20
0.358311
11
-0.144169
21
0.358311
0
LINE
8
BLACK
6
CONTINUOUS
10
-0.144169
20
0.358311
11
-0.129699
21
0.343841
0
LINE
8
BLACK
6
CONTINUOUS
10
-0.129699
20
0.343841
11
-0.126575
21
0.346029
0
LINE
8
BLACK
6
CONTINUOUS
10
-0.126575
20
0.346029
11
-0.118178
21
0.349944
0
LINE
8
BLACK
6
CONTINUOUS
10
-0.118178
20
0.349944
11
-0.109229
21
0.352342
0
LINE
8
BLACK
6
CONTINUOUS
10
-0.109229
20
0.352342
11
-0.1
21
0.35315
0
LINE
8
BLACK
6
CONTINUOUS
10
-0.1
20
0.35315
11
-0.0907707
21
0.352342
0
LINE
8
BLACK
6
CONTINUOUS
10
-0.0907707
20
0.352342
11
-0.0818218
21
0.349944
0
LINE
8
BLACK
6
CONTINUOUS
10
-0.0818218
20
0.349944
11
-0.0734252
21
0.346029
0
LINE
8
BLACK
6
CONTINUOUS
10
-0.0734252
20
0.346029
11
-0.0658361
21
0.340715
0
LINE
8
BLACK
6
CONTINUOUS
10
-0.0658361
20
0.340715
11
-0.059285
21
0.334164
0
LINE
8
BLACK
6
CONTINUOUS
10
-0.059285
20
0.334164
11
-0.0539711
21
0.326575
0
LINE
8
BLACK
6
CONTINUOUS
10
-0.0539711
20
0.326575
11
-0.0500557
21
0.318178
0
LINE
8
BLACK
6
CONTINUOUS
10
-0.0500557
20
0.318178
11
-0.0476579
21
0.309229
0
LINE
8
BLACK
6
CONTINUOUS
10
-0.0476579
20
0.309229
11
-0.0468504
21
0.3
0
LINE
8
BLACK
6
CONTINUOUS
10
-0.0468504
20
0.3
11
-0.0476579
21
0.290771
0
LINE
8
BLACK
6
CONTINUOUS
10
-0.0476579
20
0.290771
11
-0.0500557
21
0.281822
0
LINE
8
BLACK
6
CONTINUOUS
10
-0.0500557
20
0.281822
11
-0.0539711
21
0.273425
0
LINE
8
BLACK
6
CONTINUOUS
10
-0.0539711
20
0.273425
11
-0.0561588
21
0.270301
0
LINE
8
BLACK
6
CONTINUOUS
10
-0.0561588
20
0.270301
11
-0.0416892
21
0.255831
0
LINE
8
BLACK
6
CONTINUOUS
10
-0.0416892
20
0.255831
11
-0.0416892
21
0.255831
0
LINE
8
BLACK
6
CONTINUOUS
10
-0.0416892
20
0.255831
11
-0.0383054
21
0.260351
0
LINE
8
BLACK
6
CONTINUOUS
10
-0.0383054
20
0.260351
11
-0.0332909
21
0.269535
0
LINE
8
BLACK
6
CONTINUOUS
10
-0.0332909
20
0.269535
11
-0.0296342
21
0.279339
0
LINE
8
BLACK
6
CONTINUOUS
10
-0.0296342
20
0.279339
11
-0.02741
21
0.289563
0
LINE
8
BLACK
6
CONTINUOUS
10
-0.02741
20
0.289563
11
-0.0266636
21
0.3
0
LINE
8
BLACK
6
CONTINUOUS
10
-0.0266636
20
0.3
11
-0.02741
21
0.310437
0
LINE
8
BLACK
6
CONTINUOUS
10
-0.02741
20
0.310437
11
-0.0296342
21
0.320661
0
LINE
8
BLACK
6
CONTINUOUS
10
-0.0296342
20
0.320661
11
-0.0329486
21
0.329547
0
LINE
8
BLACK
6
CONTINUOUS
10
-0.0329486
20
0.329547
11
-0.033148
21
0.332335
0
LINE
8
BLACK
6
CONTINUOUS
10
-0.033148
20
0.332335
11
-0.0318084
21
0.334789
0
LINE
8
BLACK
6
CONTINUOUS
10
-0.0318084
20
0.334789
11
-0.0293552
21
0.336128
0
LINE
8
BLACK
6
CONTINUOUS
10
-0.0293552
20
0.336128
11
-0.0265672
21
0.335929
0
LINE
8
BLACK
6
CONTINUOUS
10
-0.0265672
20
0.335929
11
-0.0261483
21
0.33575
0
LINE
8
BLACK
6
CONTINUOUS
10
-0.0261483
20
0.33575
11
-0.0253643
21
0.335373
0
LINE
8
BLACK
6
CONTINUOUS
10
-0.0253643
20
0.335373
11
-0.0253642
21
0.335373
0
LINE
8
BLACK
6
CONTINUOUS
10
-0.0253642
20
0.335373
11
-0.025364
21
0.335373
0
LINE
8
BLACK
6
CONTINUOUS
10
-0.025364
20
0.335373
11
-0.0154493
21
0.332314
0
LINE
8
BLACK
6
CONTINUOUS
10
-0.0154493
20
0.332314
11
-0.0154492
21
0.332314
0
LINE
8
BLACK
6
CONTINUOUS
10
-0.0154492
20
0.332314
11
-0.0154488
21
0.332314
0
LINE
8
BLACK
6
CONTINUOUS
10
-0.0154488
20
0.332314
11
-0.00518823
21
0.330768
0
LINE
8
BLACK
6
CONTINUOUS
10
-0.00518823
20
0.330768
11
-0.00518807
21
0.330768
0
LINE
8
BLACK
6
CONTINUOUS
10
-0.00518807
20
0.330768
11
0.00518807
21
0.330768
0
LINE
8
BLACK
6
CONTINUOUS
10
0.00518807
20
0.330768
11
0.00518823
21
0.330768
0
LINE
8
BLACK
6
CONTINUOUS
10
0.00518823
20
0.330768
11
0.0154488
21
0.332314
0
LINE
8
BLACK
6
CONTINUOUS
10
0.0154488
20
0.332314
11
0.0155174
21
0.332335
0
LINE
8
BLACK
6
CONTINUOUS
10
0.0155174
20
0.332335
11
0.025364
21
0.335373
0
LINE
8
BLACK
6
CONTINUOUS
10
0.025364
20
0.335373
11
0.0253641
21
0.335373
0
LINE
8
BLACK
6
CONTINUOUS
10
0.0253641
20
0.335373
11
0.0253643
21
0.335373
0
LINE
8
BLACK
6
CONTINUOUS
10
0.0253643
20
0.335373
11
0.0261483
21
0.33575
0
LINE
8
BLACK
6
CONTINUOUS
10
0.0261483
20
0.33575
11
0.0289062
21
0.336204
0
LINE
8
BLACK
6
CONTINUOUS
10
0.0289062
20
0.336204
11
0.031472
21
0.335096
0
LINE
8
BLACK
6
CONTINUOUS
10
0.031472
20
0.335096
11
0.0330308
21
0.332775
0
LINE
8
BLACK
6
CONTINUOUS
10
0.0330308
20
0.332775
11
0.0330879
21
0.329981
0
LINE
8
BLACK
6
CONTINUOUS
10
0.0330879
20
0.329981
11
0.0329485
21
0.329547
0
LINE
8
BLACK
6
CONTINUOUS
10
0.0329485
20
0.329547
11
0.0296342
21
0.320661
0
LINE
8
BLACK
6
CONTINUOUS
10
0.0296342
20
0.320661
11
0.02741
21
0.310437
0
LINE
8
BLACK
6
CONTINUOUS
10
0.02741
20
0.310437
11
0.0266635
21
0.3
0
LINE
8
BLACK
6
CONTINUOUS
10
0.0266635
20
0.3
11
0.02741
21
0.289563
0
LINE
8
BLACK
6
CONTINUOUS
10
0.02741
20
0.289563
11
0.0296341
21
0.279339
0
LINE
8
BLACK
6
CONTINUOUS
10
0.0296341
20
0.279339
11
0.0332908
21
0.269535
0
LINE
8
BLACK
6
CONTINUOUS
10
0.0332908
20
0.269535
11
0.0383054
21
0.260351
0
LINE
8
BLACK
6
CONTINUOUS
10
0.0383054
20
0.260351
11
0.0416891
21
0.255831
0
LINE
8
BLACK
6
CONTINUOUS
10
0.0416891
20
0.255831
11
0.0416891
21
0.255831
0
LINE
8
BLACK
6
CONTINUOUS
10
0.0416891
20
0.255831
11
0.0561587
21
0.270301
0
LINE
8
BLACK
6
CONTINUOUS
10
0.0561587
20
0.270301
11
0.0539711
21
0.273425
0
LINE
8
BLACK
6
CONTINUOUS
10
0.0539711
20
0.273425
11
0.0500557
21
0.281822
0
LINE
8
BLACK
6
CONTINUOUS
10
0.0500557
20
0.281822
11
0.0476579
21
0.290771
0
LINE
8
BLACK
6
CONTINUOUS
10
0.0476579
20
0.290771
11
0.0468504
21
0.3
0
LINE
8
BLACK
6
CONTINUOUS
10
0.0468504
20
0.3
11
0.0476579
21
0.309229
0
LINE
8
BLACK
6
CONTINUOUS
10
0.0476579
20
0.309229
11
0.0500557
21
0.318178
0
LINE
8
BLACK
6
CONTINUOUS
10
0.0500557
20
0.318178
11
0.0539711
21
0.326575
0
LINE
8
BLACK
6
CONTINUOUS
10
0.0539711
20
0.326575
11
0.059285
21
0.334164
0
LINE
8
BLACK
6
CONTINUOUS
10
0.059285
20
0.334164
11
0.0658361
21
0.340715
0
LINE
8
BLACK
6
CONTINUOUS
10
0.0658361
20
0.340715
11
0.0734252
21
0.346029
0
LINE
8
BLACK
6
CONTINUOUS
10
0.0734252
20
0.346029
11
0.0818218
21
0.349944
0
LINE
8
BLACK
6
CONTINUOUS
10
0.0818218
20
0.349944
11
0.0907707
21
0.352342
0
LINE
8
BLACK
6
CONTINUOUS
10
0.0907707
20
0.352342
11
0.1
21
0.35315
0
LINE
8
BLACK
6
CONTINUOUS
10
0.1
20
0.35315
11
0.109229
21
0.352342
0
LINE
8
BLACK
6
CONTINUOUS
10
0.109229
20
0.352342
11
0.118178
21
0.349944
0
LINE
8
BLACK
6
CONTINUOUS
10
0.118178
20
0.349944
11
0.126575
21
0.346029
0
LINE
8
BLACK
6
CONTINUOUS
10
0.126575
20
0.346029
11
0.129699
21
0.343841
0
LINE
8
BLACK
6
CONTINUOUS
10
0.129699
20
0.343841
11
0.144169
21
0.358311
0
LINE
8
BLACK
6
CONTINUOUS
10
0.144169
20
0.358311
11
0.139649
21
0.361695
0
LINE
8
BLACK
6
CONTINUOUS
10
0.139649
20
0.361695
11
0.130465
21
0.366709
0
LINE
8
BLACK
6
CONTINUOUS
10
0.130465
20
0.366709
11
0.120661
21
0.370366
0
LINE
8
BLACK
6
CONTINUOUS
10
0.120661
20
0.370366
11
0.110437
21
0.37259
0
LINE
8
BLACK
6
CONTINUOUS
10
0.110437
20
0.37259
11
0.1
21
0.373336
0
LINE
8
BLACK
6
CONTINUOUS
10
0.1
20
0.373336
11
0.0895633
21
0.37259
0
LINE
8
BLACK
6
CONTINUOUS
10
0.0895633
20
0.37259
11
0.0793387
21
0.370366
0
LINE
8
BLACK
6
CONTINUOUS
10
0.0793387
20
0.370366
11
0.0703075
21
0.366997
0
LINE
8
BLACK
6
CONTINUOUS
10
0.0703075
20
0.366997
11
0.0675195
21
0.366798
0
LINE
8
BLACK
6
CONTINUOUS
10
0.0675195
20
0.366798
11
0.0650663
21
0.368138
0
LINE
8
BLACK
6
CONTINUOUS
10
0.0650663
20
0.368138
11
0.0637267
21
0.370591
0
LINE
8
BLACK
6
CONTINUOUS
10
0.0637267
20
0.370591
11
0.0639261
21
0.373379
0
LINE
8
BLACK
6
CONTINUOUS
10
0.0639261
20
0.373379
11
0.0639548
21
0.373454
0
LINE
8
BLACK
6
CONTINUOUS
10
0.0639548
20
0.373454
11
0.066342
21
0.379536
0
LINE
8
BLACK
6
CONTINUOUS
10
0.066342
20
0.379536
11
0.068651
21
0.389653
0
LINE
8
BLACK
6
CONTINUOUS
10
0.068651
20
0.389653
11
0.0694264
21
0.4
0
LINE
8
BLACK
6
CONTINUOUS
10
0.0694264
20
0.4
11
0.068651
21
0.410347
0
LINE
8
BLACK
6
CONTINUOUS
10
0.068651
20
0.410347
11
0.066342
21
0.420464
0
LINE
8
BLACK
6
CONTINUOUS
10
0.066342
20
0.420464
11
0.0639562
21
0.426543
0
LINE
8
BLACK
6
CONTINUOUS
10
0.0639562
20
0.426543
11
0.0637095
21
0.429327
0
LINE
8
BLACK
6
CONTINUOUS
10
0.0637095
20
0.429327
11
0.0650072
21
0.431802
0
LINE
8
BLACK
6
CONTINUOUS
10
0.0650072
20
0.431802
11
0.0674372
21
0.433183
0
LINE
8
BLACK
6
CONTINUOUS
10
0.0674372
20
0.433183
11
0.0702283
21
0.433031
0
LINE
8
BLACK
6
CONTINUOUS
10
0.0702283
20
0.433031
11
0.0703076
21
0.433003
0
LINE
8
BLACK
6
CONTINUOUS
10
0.0703076
20
0.433003
11
0.0793388
21
0.429634
0
LINE
8
BLACK
6
CONTINUOUS
10
0.0793388
20
0.429634
11
0.0895633
21
0.42741
0
LINE
8
BLACK
6
CONTINUOUS
10
0.0895633
20
0.42741
11
0.1
21
0.426664
0
LINE
8
BLACK
6
CONTINUOUS
10
0.1
20
0.426664
11
0.110437
21
0.42741
0
LINE
8
BLACK
6
CONTINUOUS
10
0.110437
20
0.42741
11
0.120661
21
0.429634
0
LINE
8
BLACK
6
CONTINUOUS
10
0.120661
20
0.429634
11
0.130465
21
0.433291
0
LINE
8
BLACK
6
CONTINUOUS
10
0.130465
20
0.433291
11
0.139649
21
0.438305
0
LINE
8
BLACK
6
CONTINUOUS
10
0.139649
20
0.438305
11
0.144169
21
0.441689
0
LINE
8
BLACK
6
CONTINUOUS
10
0.144169
20
0.441689
11
0.144169
21
0.441689
0
LINE
8
BLACK
6
CONTINUOUS
10
0.144169
20
0.441689
11
0.129699
21
0.456159
0
LINE
8
BLACK
6
CONTINUOUS
10
0.129699
20
0.456159
11
0.126575
21
0.453971
0
LINE
8
BLACK
6
CONTINUOUS
10
0.126575
20
0.453971
11
0.118178
21
0.450056
0
LINE
8
BLACK
6
CONTINUOUS
10
0.118178
20
0.450056
11
0.109229
21
0.447658
0
LINE
8
BLACK
6
CONTINUOUS
10
0.109229
20
0.447658
11
0.1
21
0.44685
0
LINE
8
BLACK
6
CONTINUOUS
10
0.1
20
0.44685
11
0.0907707
21
0.447658
0
LINE
8
BLACK
6
CONTINUOUS
10
0.0907707
20
0.447658
11
0.0818218
21
0.450056
0
LINE
8
BLACK
6
CONTINUOUS
10
0.0818218
20
0.450056
11
0.0734252
21
0.453971
0
LINE
8
BLACK
6
CONTINUOUS
10
0.0734252
20
0.453971
11
0.0658361
21
0.459285
0
LINE
8
BLACK
6
CONTINUOUS
10
0.0658361
20
0.459285
11
0.059285
21
0.465836
0
LINE
8
BLACK
6
CONTINUOUS
10
0.059285
20
0.465836
11
0.0539711
21
0.473425
0
LINE
8
BLACK
6
CONTINUOUS
10
0.0539711
20
0.473425
11
0.0500557
21
0.481822
0
LINE
8
BLACK
6
CONTINUOUS
10
0.0500557
20
0.481822
11
0.0476579
21
0.490771
0
LINE
8
BLACK
6
CONTINUOUS
10
0.0476579
20
0.490771
11
0.0468504
21
0.5
0
LINE
8
BLACK
6
CONTINUOUS
10
0.0468504
20
0.5
11
0.0476579
21
0.509229
0
LINE
8
BLACK
6
CONTINUOUS
10
0.0476579
20
0.509229
11
0.0500557
21
0.518178
0
LINE
8
BLACK
6
CONTINUOUS
10
0.0500557
20
0.518178
11
0.0539711
21
0.526575
0
LINE
8
BLACK
6
CONTINUOUS
10
0.0539711
20
0.526575
11
0.0561588
21
0.529699
0
LINE
8
BLACK
6
CONTINUOUS
10
0.0561588
20
0.529699
11
0.0416891
21
0.544169
0
LINE
8
BLACK
6
CONTINUOUS
10
0.0416891
20
0.544169
11
0.0416891
21
0.544169
0
LINE
8
BLACK
6
CONTINUOUS
10
0.170366
20
0.320661
11
0.166709
21
0.330465
0
LINE
8
BLACK
6
CONTINUOUS
10
0.166709
20
0.330465
11
0.161694
21
0.339649
0
LINE
8
BLACK
6
CONTINUOUS
10
0.161694
20
0.339649
11
0.158311
21
0.344169
0
LINE
8
BLACK
6
CONTINUOUS
10
0.158311
20
0.344169
11
0.158311
21
0.344169
0
LINE
8
BLACK
6
CONTINUOUS
10
0.158311
20
0.344169
11
0.143841
21
0.329699
0
LINE
8
BLACK
6
CONTINUOUS
10
0.143841
20
0.329699
11
0.146029
21
0.326575
0
LINE
8
BLACK
6
CONTINUOUS
10
0.146029
20
0.326575
11
0.149944
21
0.318178
0
LINE
8
BLACK
6
CONTINUOUS
10
0.149944
20
0.318178
11
0.152342
21
0.309229
0
LINE
8
BLACK
6
CONTINUOUS
10
0.152342
20
0.309229
11
0.15315
21
0.3
0
LINE
8
BLACK
6
CONTINUOUS
10
0.15315
20
0.3
11
0.152342
21
0.290771
0
LINE
8
BLACK
6
CONTINUOUS
10
0.152342
20
0.290771
11
0.149944
21
0.281822
0
LINE
8
BLACK
6
CONTINUOUS
10
0.149944
20
0.281822
11
0.146029
21
0.273425
0
LINE
8
BLACK
6
CONTINUOUS
10
0.146029
20
0.273425
11
0.143841
21
0.270301
0
LINE
8
BLACK
6
CONTINUOUS
10
0.143841
20
0.270301
11
0.158311
21
0.255831
0
LINE
8
BLACK
6
CONTINUOUS
10
0.158311
20
0.255831
11
0.158311
21
0.255831
0
LINE
8
BLACK
6
CONTINUOUS
10
0.158311
20
0.255831
11
0.161695
21
0.260351
0
LINE
8
BLACK
6
CONTINUOUS
10
0.161695
20
0.260351
11
0.166709
21
0.269535
0
LINE
8
BLACK
6
CONTINUOUS
10
0.166709
20
0.269535
11
0.170366
21
0.279339
0
LINE
8
BLACK
6
CONTINUOUS
10
0.170366
20
0.279339
11
0.17259
21
0.289563
0
LINE
8
BLACK
6
CONTINUOUS
10
0.17259
20
0.289563
11
0.173336
21
0.3
0
LINE
8
BLACK
6
CONTINUOUS
10
0.173336
20
0.3
11
0.17259
21
0.310437
0
LINE
8
BLACK
6
CONTINUOUS
10
0.17259
20
0.310437
11
0.170926
21
0.318085
0
LINE
8
BLACK
6
CONTINUOUS
10
0.170926
20
0.318085
11
0.170366
21
0.320661
0
LINE
8
BLACK
6
CONTINUOUS
10
0.700237
20
0.315701
11
0.700237
21
0.315701
0
LINE
8
BLACK
6
CONTINUOUS
10
0.700237
20
0.315701
11
0.702248
21
0.310307
0
LINE
8
BLACK
6
CONTINUOUS
10
0.702248
20
0.310307
11
0.702249
21
0.310307
0
LINE
8
BLACK
6
CONTINUOUS
10
0.702249
20
0.310307
11
0.705698
21
0.305698
0
LINE
8
BLACK
6
CONTINUOUS
10
0.705698
20
0.305698
11
0.705698
21
0.305698
0
LINE
8
BLACK
6
CONTINUOUS
10
0.705698
20
0.305698
11
0.705698
21
0.305698
0
LINE
8
BLACK
6
CONTINUOUS
10
0.705698
20
0.305698
11
0.706036
21
0.305446
0
LINE
8
BLACK
6
CONTINUOUS
10
0.706036
20
0.305446
11
0.708022
21
0.303959
0
LINE
8
BLACK
6
CONTINUOUS
10
0.708022
20
0.303959
11
0.709697
21
0.301721
0
LINE
8
BLACK
6
CONTINUOUS
10
0.709697
20
0.301721
11
0.709896
21
0.298933
0
LINE
8
BLACK
6
CONTINUOUS
10
0.709896
20
0.298933
11
0.708557
21
0.29648
0
LINE
8
BLACK
6
CONTINUOUS
10
0.708557
20
0.29648
11
0.708022
21
0.296017
0
LINE
8
BLACK
6
CONTINUOUS
10
0.708022
20
0.296017
11
0.705712
21
0.294288
0
LINE
8
BLACK
6
CONTINUOUS
10
0.705712
20
0.294288
11
0.702266
21
0.289684
0
LINE
8
BLACK
6
CONTINUOUS
10
0.702266
20
0.289684
11
0.702266
21
0.289684
0
LINE
8
BLACK
6
CONTINUOUS
10
0.702266
20
0.289684
11
0.700256
21
0.284295
0
LINE
8
BLACK
6
CONTINUOUS
10
0.700256
20
0.284295
11
0.7
21
0.281913
0
LINE
8
BLACK
6
CONTINUOUS
10
0.7
20
0.281913
11
0.7
21
0.26
0
LINE
8
BLACK
6
CONTINUOUS
10
0.7
20
0.26
11
0.72
21
0.26
0
LINE
8
BLACK
6
CONTINUOUS
10
0.72
20
0.26
11
0.72
21
0.28
0
LINE
8
BLACK
6
CONTINUOUS
10
0.72
20
0.28
11
0.78
21
0.28
0
LINE
8
BLACK
6
CONTINUOUS
10
0.78
20
0.28
11
0.78
21
0.26
0
LINE
8
BLACK
6
CONTINUOUS
10
0.78
20
0.26
11
0.82
21
0.26
0
LINE
8
BLACK
6
CONTINUOUS
10
0.82
20
0.26
11
0.82
21
0.28
0
LINE
8
BLACK
6
CONTINUOUS
10
0.82
20
0.28
11
0.88
21
0.28
0
LINE
8
BLACK
6
CONTINUOUS
10
0.88
20
0.28
11
0.88
21
0.26
0
LINE
8
BLACK
6
CONTINUOUS
10
0.88
20
0.26
11
0.9
21
0.26
0
LINE
8
BLACK
6
CONTINUOUS
10
0.9
20
0.26
11
0.9
21
0.281913
0
LINE
8
BLACK
6
CONTINUOUS
10
0.9
20
0.281913
11
0.9
21
0.281913
0
LINE
8
BLACK
6
CONTINUOUS
10
0.9
20
0.281913
11
0.899744
21
0.284295
0
LINE
8
BLACK
6
CONTINUOUS
10
0.899744
20
0.284295
11
0.897734
21
0.289684
0
LINE
8
BLACK
6
CONTINUOUS
10
0.897734
20
0.289684
11
0.897734
21
0.289684
0
LINE
8
BLACK
6
CONTINUOUS
10
0.897734
20
0.289684
11
0.894288
21
0.294288
0
LINE
8
BLACK
6
CONTINUOUS
10
0.894288
20
0.294288
11
0.891978
21
0.296017
0
LINE
8
BLACK
6
CONTINUOUS
10
0.891978
20
0.296017
11
0.890303
21
0.298254
0
LINE
8
BLACK
6
CONTINUOUS
10
0.890303
20
0.298254
11
0.890104
21
0.301042
0
LINE
8
BLACK
6
CONTINUOUS
10
0.890104
20
0.301042
11
0.891443
21
0.303495
0
LINE
8
BLACK
6
CONTINUOUS
10
0.891443
20
0.303495
11
0.891978
21
0.303959
0
LINE
8
BLACK
6
CONTINUOUS
10
0.891978
20
0.303959
11
0.894302
21
0.305698
0
LINE
8
BLACK
6
CONTINUOUS
10
0.894302
20
0.305698
11
0.897751
21
0.310307
0
LINE
8
BLACK
6
CONTINUOUS
10
0.897751
20
0.310307
11
0.897751
21
0.310307
0
LINE
8
BLACK
6
CONTINUOUS
10
0.897751
20
0.310307
11
0.897752
21
0.310307
0
LINE
8
BLACK
6
CONTINUOUS
10
0.897752
20
0.310307
11
0.899763
21
0.315701
0
LINE
8
BLACK
6
CONTINUOUS
10
0.899763
20
0.315701
11
0.899771
21
0.315768
0
LINE
8
BLACK
6
CONTINUOUS
10
0.899771
20
0.315768
11
0.90002
21
0.318085
0
LINE
8
BLACK
6
CONTINUOUS
10
0.90002
20
0.318085
11
0.90002
21
0.318085
0
LINE
8
BLACK
6
CONTINUOUS
10
0.90002
20
0.318085
11
0.90002
21
0.381915
0
LINE
8
BLACK
6
CONTINUOUS
10
0.90002
20
0.381915
11
0.90002
21
0.381915
0
LINE
8
BLACK
6
CONTINUOUS
10
0.90002
20
0.381915
11
0.899763
21
0.384299
0
LINE
8
BLACK
6
CONTINUOUS
10
0.899763
20
0.384299
11
0.899763
21
0.384299
0
LINE
8
BLACK
6
CONTINUOUS
10
0.899763
20
0.384299
11
0.898619
21
0.387367
0
LINE
8
BLACK
6
CONTINUOUS
10
0.898619
20
0.387367
11
0.897752
21
0.389693
0
LINE
8
BLACK
6
CONTINUOUS
10
0.897752
20
0.389693
11
0.897751
21
0.389693
0
LINE
8
BLACK
6
CONTINUOUS
10
0.897751
20
0.389693
11
0.897751
21
0.389693
0
LINE
8
BLACK
6
CONTINUOUS
10
0.897751
20
0.389693
11
0.894302
21
0.394302
0
LINE
8
BLACK
6
CONTINUOUS
10
0.894302
20
0.394302
11
0.891994
21
0.396029
0
LINE
8
BLACK
6
CONTINUOUS
10
0.891994
20
0.396029
11
0.890319
21
0.398266
0
LINE
8
BLACK
6
CONTINUOUS
10
0.890319
20
0.398266
11
0.89012
21
0.401054
0
LINE
8
BLACK
6
CONTINUOUS
10
0.89012
20
0.401054
11
0.891459
21
0.403508
0
LINE
8
BLACK
6
CONTINUOUS
10
0.891459
20
0.403508
11
0.891994
21
0.403971
0
LINE
8
BLACK
6
CONTINUOUS
10
0.891994
20
0.403971
11
0.894302
21
0.405698
0
LINE
8
BLACK
6
CONTINUOUS
10
0.894302
20
0.405698
11
0.897751
21
0.410307
0
LINE
8
BLACK
6
CONTINUOUS
10
0.897751
20
0.410307
11
0.897751
21
0.410307
0
LINE
8
BLACK
6
CONTINUOUS
10
0.897751
20
0.410307
11
0.897752
21
0.410307
0
LINE
8
BLACK
6
CONTINUOUS
10
0.897752
20
0.410307
11
0.899763
21
0.415701
0
LINE
8
BLACK
6
CONTINUOUS
10
0.899763
20
0.415701
11
0.90002
21
0.418085
0
LINE
8
BLACK
6
CONTINUOUS
10
0.90002
20
0.418085
11
0.90002
21
0.481915
0
LINE
8
BLACK
6
CONTINUOUS
10
0.90002
20
0.481915
11
0.9
21
0.482098
0
LINE
8
BLACK
6
CONTINUOUS
10
0.9
20
0.482098
11
0.899763
21
0.484299
0
LINE
8
BLACK
6
CONTINUOUS
10
0.899763
20
0.484299
11
0.899763
21
0.484299
0
LINE
8
BLACK
6
CONTINUOUS
10
0.899763
20
0.484299
11
0.897752
21
0.489693
0
LINE
8
BLACK
6
CONTINUOUS
10
0.897752
20
0.489693
11
0.897751
21
0.489693
0
LINE
8
BLACK
6
CONTINUOUS
10
0.897751
20
0.489693
11
0.894302
21
0.494302
0
LINE
8
BLACK
6
CONTINUOUS
10
0.894302
20
0.494302
11
0.889693
21
0.497751
0
LINE
8
BLACK
6
CONTINUOUS
10
0.889693
20
0.497751
11
0.889693
21
0.497752
0
LINE
8
BLACK
6
CONTINUOUS
10
0.889693
20
0.497752
11
0.884299
21
0.499763
0
LINE
8
BLACK
6
CONTINUOUS
10
0.884299
20
0.499763
11
0.884299
21
0.499763
0
LINE
8
BLACK
6
CONTINUOUS
10
0.884299
20
0.499763
11
0.881915
21
0.50002
0
LINE
8
BLACK
6
CONTINUOUS
10
0.881915
20
0.50002
11
0.881915
21
0.50002
0
LINE
8
BLACK
6
CONTINUOUS
10
0.881915
20
0.50002
11
0.818085
21
0.50002
0
LINE
8
BLACK
6
CONTINUOUS
10
0.818085
20
0.50002
11
0.818085
21
0.50002
0
LINE
8
BLACK
6
CONTINUOUS
10
0.818085
20
0.50002
11
0.815701
21
0.499763
0
LINE
8
BLACK
6
CONTINUOUS
10
0.815701
20
0.499763
11
0.815701
21
0.499763
0
LINE
8
BLACK
6
CONTINUOUS
10
0.815701
20
0.499763
11
0.810307
21
0.497752
0
LINE
8
BLACK
6
CONTINUOUS
10
0.810307
20
0.497752
11
0.810307
21
0.497751
0
LINE
8
BLACK
6
CONTINUOUS
10
0.810307
20
0.497751
11
0.805698
21
0.494302
0
LINE
8
BLACK
6
CONTINUOUS
10
0.805698
20
0.494302
11
0.803971
21
0.491994
0
LINE
8
BLACK
6
CONTINUOUS
10
0.803971
20
0.491994
11
0.801734
21
0.490319
0
LINE
8
BLACK
6
CONTINUOUS
10
0.801734
20
0.490319
11
0.798946
21
0.49012
0
LINE
8
BLACK
6
CONTINUOUS
10
0.798946
20
0.49012
11
0.796492
21
0.49146
0
LINE
8
BLACK
6
CONTINUOUS
10
0.796492
20
0.49146
11
0.796029
21
0.491994
0
LINE
8
BLACK
6
CONTINUOUS
10
0.796029
20
0.491994
11
0.794302
21
0.494302
0
LINE
8
BLACK
6
CONTINUOUS
10
0.794302
20
0.494302
11
0.789693
21
0.497751
0
LINE
8
BLACK
6
CONTINUOUS
10
0.789693
20
0.497751
11
0.789693
21
0.497752
0
LINE
8
BLACK
6
CONTINUOUS
10
0.789693
20
0.497752
11
0.784299
21
0.499763
0
LINE
8
BLACK
6
CONTINUOUS
10
0.784299
20
0.499763
11
0.784299
21
0.499763
0
LINE
8
BLACK
6
CONTINUOUS
10
0.784299
20
0.499763
11
0.781915
21
0.50002
0
LINE
8
BLACK
6
CONTINUOUS
10
0.781915
20
0.50002
11
0.781915
21
0.50002
0
LINE
8
BLACK
6
CONTINUOUS
10
0.781915
20
0.50002
11
0.718085
21
0.50002
0
LINE
8
BLACK
6
CONTINUOUS
10
0.718085
20
0.50002
11
0.718085
21
0.50002
0
LINE
8
BLACK
6
CONTINUOUS
10
0.718085
20
0.50002
11
0.715701
21
0.499763
0
LINE
8
BLACK
6
CONTINUOUS
10
0.715701
20
0.499763
11
0.715701
21
0.499763
0
LINE
8
BLACK
6
CONTINUOUS
10
0.715701
20
0.499763
11
0.710307
21
0.497752
0
LINE
8
BLACK
6
CONTINUOUS
10
0.710307
20
0.497752
11
0.710307
21
0.497751
0
LINE
8
BLACK
6
CONTINUOUS
10
0.710307
20
0.497751
11
0.705698
21
0.494302
0
LINE
8
BLACK
6
CONTINUOUS
10
0.705698
20
0.494302
11
0.702249
21
0.489693
0
LINE
8
BLACK
6
CONTINUOUS
10
0.702249
20
0.489693
11
0.702248
21
0.489693
0
LINE
8
BLACK
6
CONTINUOUS
10
0.702248
20
0.489693
11
0.700237
21
0.484299
0
LINE
8
BLACK
6
CONTINUOUS
10
0.700237
20
0.484299
11
0.700237
21
0.484299
0
LINE
8
BLACK
6
CONTINUOUS
10
0.700237
20
0.484299
11
0.69998
21
0.481915
0
LINE
8
BLACK
6
CONTINUOUS
10
0.69998
20
0.481915
11
0.69998
21
0.418085
0
LINE
8
BLACK
6
CONTINUOUS
10
0.69998
20
0.418085
11
0.700237
21
0.415701
0
LINE
8
BLACK
6
CONTINUOUS
10
0.700237
20
0.415701
11
0.700237
21
0.415701
0
LINE
8
BLACK
6
CONTINUOUS
10
0.700237
20
0.415701
11
0.702248
21
0.410307
0
LINE
8
BLACK
6
CONTINUOUS
10
0.702248
20
0.410307
11
0.702249
21
0.410307
0
LINE
8
BLACK
6
CONTINUOUS
10
0.702249
20
0.410307
11
0.705698
21
0.405698
0
LINE
8
BLACK
6
CONTINUOUS
10
0.705698
20
0.405698
11
0.708006
21
0.403971
0
LINE
8
BLACK
6
CONTINUOUS
10
0.708006
20
0.403971
11
0.709681
21
0.401734
0
LINE
8
BLACK
6
CONTINUOUS
10
0.709681
20
0.401734
11
0.70988
21
0.398946
0
LINE
8
BLACK
6
CONTINUOUS
10
0.70988
20
0.398946
11
0.70854
21
0.396492
0
LINE
8
BLACK
6
CONTINUOUS
10
0.70854
20
0.396492
11
0.708006
21
0.396029
0
LINE
8
BLACK
6
CONTINUOUS
10
0.708006
20
0.396029
11
0.705698
21
0.394302
0
LINE
8
BLACK
6
CONTINUOUS
10
0.705698
20
0.394302
11
0.702249
21
0.389693
0
LINE
8
BLACK
6
CONTINUOUS
10
0.702249
20
0.389693
11
0.702248
21
0.389693
0
LINE
8
BLACK
6
CONTINUOUS
10
0.702248
20
0.389693
11
0.700237
21
0.384299
0
LINE
8
BLACK
6
CONTINUOUS
10
0.700237
20
0.384299
11
0.700237
21
0.384299
0
LINE
8
BLACK
6
CONTINUOUS
10
0.700237
20
0.384299
11
0.69998
21
0.381915
0
LINE
8
BLACK
6
CONTINUOUS
10
0.69998
20
0.381915
11
0.69998
21
0.318085
0
LINE
8
BLACK
6
CONTINUOUS
10
0.69998
20
0.318085
11
0.700237
21
0.315701
0
LINE
8
BLACK
6
CONTINUOUS
10
0.35
20
0.49
11
0.35
21
0.468087
0
LINE
8
BLACK
6
CONTINUOUS
10
0.35
20
0.468087
11
0.350256
21
0.465705
0
LINE
8
BLACK
6
CONTINUOUS
10
0.350256
20
0.465705
11
0.352266
21
0.460316
0
LINE
8
BLACK
6
CONTINUOUS
10
0.352266
20
0.460316
11
0.352266
21
0.460316
0
LINE
8
BLACK
6
CONTINUOUS
10
0.352266
20
0.460316
11
0.355712
21
0.455712
0
LINE
8
BLACK
6
CONTINUOUS
10
0.355712
20
0.455712
11
0.360316
21
0.452266
0
LINE
8
BLACK
6
CONTINUOUS
10
0.360316
20
0.452266
11
0.365705
21
0.450256
0
LINE
8
BLACK
6
CONTINUOUS
10
0.365705
20
0.450256
11
0.368087
21
0.45
0
LINE
8
BLACK
6
CONTINUOUS
10
0.368087
20
0.45
11
0.368087
21
0.45
0
LINE
8
BLACK
6
CONTINUOUS
10
0.368087
20
0.45
11
0.39
21
0.45
0
LINE
8
BLACK
6
CONTINUOUS
10
0.39
20
0.45
11
0.39
21
0.47
0
LINE
8
BLACK
6
CONTINUOUS
10
0.39
20
0.47
11
0.37
21
0.47
0
LINE
8
BLACK
6
CONTINUOUS
10
0.37
20
0.47
11
0.37
21
0.49
0
LINE
8
BLACK
6
CONTINUOUS
10
0.37
20
0.49
11
0.35
21
0.49
0
LINE
8
BLACK
6
CONTINUOUS
10
0.43
20
0.49
11
0.43
21
0.47
0
LINE
8
BLACK
6
CONTINUOUS
10
0.43
20
0.47
11
0.41
21
0.47
0
LINE
8
BLACK
6
CONTINUOUS
10
0.41
20
0.47
11
0.41
21
0.45
0
LINE
8
BLACK
6
CONTINUOUS
10
0.41
20
0.45
11
0.431913
21
0.45
0
LINE
8
BLACK
6
CONTINUOUS
10
0.431913
20
0.45
11
0.431913
21
0.45
0
LINE
8
BLACK
6
CONTINUOUS
10
0.431913
20
0.45
11
0.434295
21
0.450256
0
LINE
8
BLACK
6
CONTINUOUS
10
0.434295
20
0.450256
11
0.439684
21
0.452266
0
LINE
8
BLACK
6
CONTINUOUS
10
0.439684
20
0.452266
11
0.439684
21
0.452266
0
LINE
8
BLACK
6
CONTINUOUS
10
0.439684
20
0.452266
11
0.444288
21
0.455712
0
LINE
8
BLACK
6
CONTINUOUS
10
0.444288
20
0.455712
11
0.446029
21
0.458038
0
LINE
8
BLACK
6
CONTINUOUS
10
0.446029
20
0.458038
11
0.448266
21
0.459714
0
LINE
8
BLACK
6
CONTINUOUS
10
0.448266
20
0.459714
11
0.451054
21
0.459913
0
LINE
8
BLACK
6
CONTINUOUS
10
0.451054
20
0.459913
11
0.453508
21
0.458573
0
LINE
8
BLACK
6
CONTINUOUS
10
0.453508
20
0.458573
11
0.453971
21
0.458038
0
LINE
8
BLACK
6
CONTINUOUS
10
0.453971
20
0.458038
11
0.455712
21
0.455712
0
LINE
8
BLACK
6
CONTINUOUS
10
0.455712
20
0.455712
11
0.460316
21
0.452266
0
LINE
8
BLACK
6
CONTINUOUS
10
0.460316
20
0.452266
11
0.465705
21
0.450256
0
LINE
8
BLACK
6
CONTINUOUS
10
0.465705
20
0.450256
11
0.468087
21
0.45
0
LINE
8
BLACK
6
CONTINUOUS
10
0.468087
20
0.45
11
0.468087
21
0.45
0
LINE
8
BLACK
6
CONTINUOUS
10
0.468087
20
0.45
11
0.49
21
0.45
0
LINE
8
BLACK
6
CONTINUOUS
10
0.49
20
0.45
11
0.49
21
0.47
0
LINE
8
BLACK
6
CONTINUOUS
10
0.49
20
0.47
11
0.47
21
0.47
0
LINE
8
BLACK
6
CONTINUOUS
10
0.47
20
0.47
11
0.47
21
0.49
0
LINE
8
BLACK
6
CONTINUOUS
10
0.47
20
0.49
11
0.43
21
0.49
0
LINE
8
BLACK
6
CONTINUOUS
10
0.53
20
0.47
11
0.51
21
0.47
0
LINE
8
BLACK
6
CONTINUOUS
10
0.51
20
0.47
11
0.51
21
0.45
0
LINE
8
BLACK
6
CONTINUOUS
10
0.51
20
0.45
11
0.531913
21
0.45
0
LINE
8
BLACK
6
CONTINUOUS
10
0.531913
20
0.45
11
0.531913
21
0.45
0
LINE
8
BLACK
6
CONTINUOUS
10
0.531913
20
0.45
11
0.534295
21
0.450256
0
LINE
8
BLACK
6
CONTINUOUS
10
0.534295
20
0.450256
11
0.539684
21
0.452266
0
LINE
8
BLACK
6
CONTINUOUS
10
0.539684
20
0.452266
11
0.539684
21
0.452266
0
LINE
8
BLACK
6
CONTINUOUS
10
0.539684
20
0.452266
11
0.544288
21
0.455712
0
LINE
8
BLACK
6
CONTINUOUS
10
0.544288
20
0.455712
11
0.547734
21
0.460316
0
LINE
8
BLACK
6
CONTINUOUS
10
0.547734
20
0.460316
11
0.547734
21
0.460316
0
LINE
8
BLACK
6
CONTINUOUS
10
0.547734
20
0.460316
11
0.549744
21
0.465705
0
LINE
8
BLACK
6
CONTINUOUS
10
0.549744
20
0.465705
11
0.55
21
0.468087
0
LINE
8
BLACK
6
CONTINUOUS
10
0.55
20
0.468087
11
0.55
21
0.468087
0
LINE
8
BLACK
6
CONTINUOUS
10
0.55
20
0.468087
11
0.55
21
0.49
0
LINE
8
BLACK
6
CONTINUOUS
10
0.55
20
0.49
11
0.53
21
0.49
0
LINE
8
BLACK
6
CONTINUOUS
10
0.53
20
0.49
11
0.53
21
0.47
0
LINE
8
BLACK
6
CONTINUOUS
10
-0.158311
20
0.544169
11
-0.161695
21
0.539649
0
LINE
8
BLACK
6
CONTINUOUS
10
-0.161695
20
0.539649
11
-0.166709
21
0.530465
0
LINE
8
BLACK
6
CONTINUOUS
10
-0.166709
20
0.530465
11
-0.170366
21
0.520661
0
LINE
8
BLACK
6
CONTINUOUS
10
-0.170366
20
0.520661
11
-0.17259
21
0.510437
0
LINE
8
BLACK
6
CONTINUOUS
10
-0.17259
20
0.510437
11
-0.173336
21
0.5
0
LINE
8
BLACK
6
CONTINUOUS
10
-0.173336
20
0.5
11
-0.17259
21
0.489563
0
LINE
8
BLACK
6
CONTINUOUS
10
-0.17259
20
0.489563
11
-0.170366
21
0.479339
0
LINE
8
BLACK
6
CONTINUOUS
10
-0.170366
20
0.479339
11
-0.166709
21
0.469535
0
LINE
8
BLACK
6
CONTINUOUS
10
-0.166709
20
0.469535
11
-0.161695
21
0.460351
0
LINE
8
BLACK
6
CONTINUOUS
10
-0.161695
20
0.460351
11
-0.158311
21
0.455831
0
LINE
8
BLACK
6
CONTINUOUS
10
-0.158311
20
0.455831
11
-0.158311
21
0.455831
0
LINE
8
BLACK
6
CONTINUOUS
10
-0.158311
20
0.455831
11
-0.143841
21
0.470301
0
LINE
8
BLACK
6
CONTINUOUS
10
-0.143841
20
0.470301
11
-0.146029
21
0.473425
0
LINE
8
BLACK
6
CONTINUOUS
10
-0.146029
20
0.473425
11
-0.149944
21
0.481822
0
LINE
8
BLACK
6
CONTINUOUS
10
-0.149944
20
0.481822
11
-0.152342
21
0.490771
0
LINE
8
BLACK
6
CONTINUOUS
10
-0.152342
20
0.490771
11
-0.15315
21
0.5
0
LINE
8
BLACK
6
CONTINUOUS
10
-0.15315
20
0.5
11
-0.152342
21
0.509229
0
LINE
8
BLACK
6
CONTINUOUS
10
-0.152342
20
0.509229
11
-0.149944
21
0.518178
0
LINE
8
BLACK
6
CONTINUOUS
10
-0.149944
20
0.518178
11
-0.146029
21
0.526575
0
LINE
8
BLACK
6
CONTINUOUS
10
-0.146029
20
0.526575
11
-0.143841
21
0.529699
0
LINE
8
BLACK
6
CONTINUOUS
10
-0.143841
20
0.529699
11
-0.158311
21
0.544169
0
LINE
8
BLACK
6
CONTINUOUS
10
-0.158311
20
0.544169
11
-0.158311
21
0.544169
0
LINE
8
BLACK
6
CONTINUOUS
10
0.143841
20
0.529699
11
0.146029
21
0.526575
0
LINE
8
BLACK
6
CONTINUOUS
10
0.146029
20
0.526575
11
0.149944
21
0.518178
0
LINE
8
BLACK
6
CONTINUOUS
10
0.149944
20
0.518178
11
0.152342
21
0.509229
0
LINE
8
BLACK
6
CONTINUOUS
10
0.152342
20
0.509229
11
0.15315
21
0.5
0
LINE
8
BLACK
6
CONTINUOUS
10
0.15315
20
0.5
11
0.152342
21
0.490771
0
LINE
8
BLACK
6
CONTINUOUS
10
0.152342
20
0.490771
11
0.149944
21
0.481822
0
LINE
8
BLACK
6
CONTINUOUS
10
0.149944
20
0.481822
11
0.146029
21
0.473425
0
LINE
8
BLACK
6
CONTINUOUS
10
0.146029
20
0.473425
11
0.143841
21
0.470301
0
LINE
8
BLACK
6
CONTINUOUS
10
0.143841
20
0.470301
11
0.158311
21
0.455831
0
LINE
8
BLACK
6
CONTINUOUS
10
0.158311
20
0.455831
11
0.158311
21
0.455831
0
LINE
8
BLACK
6
CONTINUOUS
10
0.158311
20
0.455831
11
0.161695
21
0.460351
0
LINE
8
BLACK
6
CONTINUOUS
10
0.161695
20
0.460351
11
0.166709
21
0.469535
0
LINE
8
BLACK
6
CONTINUOUS
10
0.166709
20
0.469535
11
0.170366
21
0.479339
0
LINE
8
BLACK
6
CONTINUOUS
10
0.170366
20
0.479339
11
0.17259
21
0.489563
0
LINE
8
BLACK
6
CONTINUOUS
10
0.17259
20
0.489563
11
0.173336
21
0.5
0
LINE
8
BLACK
6
CONTINUOUS
10
0.173336
20
0.5
11
0.17259
21
0.510437
0
LINE
8
BLACK
6
CONTINUOUS
10
0.17259
20
0.510437
11
0.170366
21
0.520661
0
LINE
8
BLACK
6
CONTINUOUS
10
0.170366
20
0.520661
11
0.166709
21
0.530465
0
LINE
8
BLACK
6
CONTINUOUS
10
0.166709
20
0.530465
11
0.161694
21
0.539649
0
LINE
8
BLACK
6
CONTINUOUS
10
0.161694
20
0.539649
11
0.158311
21
0.544169
0
LINE
8
BLACK
6
CONTINUOUS
10
0.158311
20
0.544169
11
0.158311
21
0.544169
0
LINE
8
BLACK
6
CONTINUOUS
10
0.158311
20
0.544169
11
0.143841
21
0.529699
0
LINE
8
BLACK
6
CONTINUOUS
10
0.120661
20
0.570366
11
0.110437
21
0.57259
0
LINE
8
BLACK
6
CONTINUOUS
10
0.110437
20
0.57259
11
0.1
21
0.573336
0
LINE
8
BLACK
6
CONTINUOUS
10
0.1
20
0.573336
11
0.0895633
21
0.57259
0
LINE
8
BLACK
6
CONTINUOUS
10
0.0895633
20
0.57259
11
0.0793388
21
0.570366
0
LINE
8
BLACK
6
CONTINUOUS
10
0.0793388
20
0.570366
11
0.0695348
21
0.566709
0
LINE
8
BLACK
6
CONTINUOUS
10
0.0695348
20
0.566709
11
0.0603513
21
0.561695
0
LINE
8
BLACK
6
CONTINUOUS
10
0.0603513
20
0.561695
11
0.0558312
21
0.558311
0
LINE
8
BLACK
6
CONTINUOUS
10
0.0558312
20
0.558311
11
0.0558312
21
0.558311
0
LINE
8
BLACK
6
CONTINUOUS
10
0.0558312
20
0.558311
11
0.0703009
21
0.543841
0
LINE
8
BLACK
6
CONTINUOUS
10
0.0703009
20
0.543841
11
0.0734252
21
0.546029
0
LINE
8
BLACK
6
CONTINUOUS
10
0.0734252
20
0.546029
11
0.0818218
21
0.549944
0
LINE
8
BLACK
6
CONTINUOUS
10
0.0818218
20
0.549944
11
0.0907707
21
0.552342
0
LINE
8
BLACK
6
CONTINUOUS
10
0.0907707
20
0.552342
11
0.1
21
0.55315
0
LINE
8
BLACK
6
CONTINUOUS
10
0.1
20
0.55315
11
0.109229
21
0.552342
0
LINE
8
BLACK
6
CONTINUOUS
10
0.109229
20
0.552342
11
0.118178
21
0.549944
0
LINE
8
BLACK
6
CONTINUOUS
10
0.118178
20
0.549944
11
0.126575
21
0.546029
0
LINE
8
BLACK
6
CONTINUOUS
10
0.126575
20
0.546029
11
0.129699
21
0.543841
0
LINE
8
BLACK
6
CONTINUOUS
10
0.129699
20
0.543841
11
0.144169
21
0.558311
0
LINE
8
BLACK
6
CONTINUOUS
10
0.144169
20
0.558311
11
0.139649
21
0.561695
0
LINE
8
BLACK
6
CONTINUOUS
10
0.139649
20
0.561695
11
0.130465
21
0.566709
0
LINE
8
BLACK
6
CONTINUOUS
10
0.130465
20
0.566709
11
0.126777
21
0.568085
0
LINE
8
BLACK
6
CONTINUOUS
10
0.126777
20
0.568085
11
0.120661
21
0.570366
0
LINE
8
BLACK
6
CONTINUOUS
10
-0.110437
20
0.57259
11
-0.120661
21
0.570366
0
LINE
8
BLACK
6
CONTINUOUS
10
-0.120661
20
0.570366
11
-0.130465
21
0.566709
0
LINE
8
BLACK
6
CONTINUOUS
10
-0.130465
20
0.566709
11
-0.139649
21
0.561695
0
LINE
8
BLACK
6
CONTINUOUS
10
-0.139649
20
0.561695
11
-0.144169
21
0.558311
0
LINE
8
BLACK
6
CONTINUOUS
10
-0.144169
20
0.558311
11
-0.144169
21
0.558311
0
LINE
8
BLACK
6
CONTINUOUS
10
-0.144169
20
0.558311
11
-0.129699
21
0.543841
0
LINE
8
BLACK
6
CONTINUOUS
10
-0.129699
20
0.543841
11
-0.126575
21
0.546029
0
LINE
8
BLACK
6
CONTINUOUS
10
-0.126575
20
0.546029
11
-0.118178
21
0.549944
0
LINE
8
BLACK
6
CONTINUOUS
10
-0.118178
20
0.549944
11
-0.109229
21
0.552342
0
LINE
8
BLACK
6
CONTINUOUS
10
-0.109229
20
0.552342
11
-0.1
21
0.55315
0
LINE
8
BLACK
6
CONTINUOUS
10
-0.1
20
0.55315
11
-0.0907707
21
0.552342
0
LINE
8
BLACK
6
CONTINUOUS
10
-0.0907707
20
0.552342
11
-0.0818218
21
0.549944
0
LINE
8
BLACK
6
CONTINUOUS
10
-0.0818218
20
0.549944
11
-0.0734252
21
0.546029
0
LINE
8
BLACK
6
CONTINUOUS
10
-0.0734252
20
0.546029
11
-0.0703009
21
0.543841
0
LINE
8
BLACK
6
CONTINUOUS
10
-0.0703009
20
0.543841
11
-0.0558313
21
0.558311
0
LINE
8
BLACK
6
CONTINUOUS
10
-0.0558313
20
0.558311
11
-0.0603513
21
0.561695
0
LINE
8
BLACK
6
CONTINUOUS
10
-0.0603513
20
0.561695
11
-0.0695349
21
0.566709
0
LINE
8
BLACK
6
CONTINUOUS
10
-0.0695349
20
0.566709
11
-0.0793389
21
0.570366
0
LINE
8
BLACK
6
CONTINUOUS
10
-0.0793389
20
0.570366
11
-0.0895633
21
0.57259
0
LINE
8
BLACK
6
CONTINUOUS
10
-0.0895633
20
0.57259
11
-0.1
21
0.573336
0
LINE
8
BLACK
6
CONTINUOUS
10
-0.1
20
0.573336
11
-0.110437
21
0.57259
0
LINE
8
BLACK
6
CONTINUOUS
10
0.350237
20
0.565701
11
0.350237
21
0.565701
0
LINE
8
BLACK
6
CONTINUOUS
10
0.350237
20
0.565701
11
0.352248
21
0.560307
0
LINE
8
BLACK
6
CONTINUOUS
10
0.352248
20
0.560307
11
0.352249
21
0.560307
0
LINE
8
BLACK
6
CONTINUOUS
10
0.352249
20
0.560307
11
0.355698
21
0.555698
0
LINE
8
BLACK
6
CONTINUOUS
10
0.355698
20
0.555698
11
0.355698
21
0.555698
0
LINE
8
BLACK
6
CONTINUOUS
10
0.355698
20
0.555698
11
0.355698
21
0.555698
0
LINE
8
BLACK
6
CONTINUOUS
10
0.355698
20
0.555698
11
0.357121
21
0.554633
0
LINE
8
BLACK
6
CONTINUOUS
10
0.357121
20
0.554633
11
0.358022
21
0.553959
0
LINE
8
BLACK
6
CONTINUOUS
10
0.358022
20
0.553959
11
0.359697
21
0.551721
0
LINE
8
BLACK
6
CONTINUOUS
10
0.359697
20
0.551721
11
0.359896
21
0.548933
0
LINE
8
BLACK
6
CONTINUOUS
10
0.359896
20
0.548933
11
0.358557
21
0.54648
0
LINE
8
BLACK
6
CONTINUOUS
10
0.358557
20
0.54648
11
0.358022
21
0.546017
0
LINE
8
BLACK
6
CONTINUOUS
10
0.358022
20
0.546017
11
0.355712
21
0.544288
0
LINE
8
BLACK
6
CONTINUOUS
10
0.355712
20
0.544288
11
0.352266
21
0.539684
0
LINE
8
BLACK
6
CONTINUOUS
10
0.352266
20
0.539684
11
0.352266
21
0.539684
0
LINE
8
BLACK
6
CONTINUOUS
10
0.352266
20
0.539684
11
0.350256
21
0.534295
0
LINE
8
BLACK
6
CONTINUOUS
10
0.350256
20
0.534295
11
0.35
21
0.531913
0
LINE
8
BLACK
6
CONTINUOUS
10
0.35
20
0.531913
11
0.35
21
0.51
0
LINE
8
BLACK
6
CONTINUOUS
10
0.35
20
0.51
11
0.37
21
0.51
0
LINE
8
BLACK
6
CONTINUOUS
10
0.37
20
0.51
11
0.37
21
0.53
0
LINE
8
BLACK
6
CONTINUOUS
10
0.37
20
0.53
11
0.43
21
0.53
0
LINE
8
BLACK
6
CONTINUOUS
10
0.43
20
0.53
11
0.43
21
0.51
0
LINE
8
BLACK
6
CONTINUOUS
10
0.43
20
0.51
11
0.47
21
0.51
0
LINE
8
BLACK
6
CONTINUOUS
10
0.47
20
0.51
11
0.47
21
0.53
0
LINE
8
BLACK
6
CONTINUOUS
10
0.47
20
0.53
11
0.53
21
0.53
0
LINE
8
BLACK
6
CONTINUOUS
10
0.53
20
0.53
11
0.53
21
0.51
0
LINE
8
BLACK
6
CONTINUOUS
10
0.53
20
0.51
11
0.55
21
0.51
0
LINE
8
BLACK
6
CONTINUOUS
10
0.55
20
0.51
11
0.55
21
0.531913
0
LINE
8
BLACK
6
CONTINUOUS
10
0.55
20
0.531913
11
0.55
21
0.531913
0
LINE
8
BLACK
6
CONTINUOUS
10
0.55
20
0.531913
11
0.549744
21
0.534295
0
LINE
8
BLACK
6
CONTINUOUS
10
0.549744
20
0.534295
11
0.547734
21
0.539684
0
LINE
8
BLACK
6
CONTINUOUS
10
0.547734
20
0.539684
11
0.547734
21
0.539684
0
LINE
8
BLACK
6
CONTINUOUS
10
0.547734
20
0.539684
11
0.544288
21
0.544288
0
LINE
8
BLACK
6
CONTINUOUS
10
0.544288
20
0.544288
11
0.541978
21
0.546017
0
LINE
8
BLACK
6
CONTINUOUS
10
0.541978
20
0.546017
11
0.540303
21
0.548254
0
LINE
8
BLACK
6
CONTINUOUS
10
0.540303
20
0.548254
11
0.540104
21
0.551042
0
LINE
8
BLACK
6
CONTINUOUS
10
0.540104
20
0.551042
11
0.540257
21
0.551323
0
LINE
8
BLACK
6
CONTINUOUS
10
0.540257
20
0.551323
11
0.541443
21
0.553495
0
LINE
8
BLACK
6
CONTINUOUS
10
0.541443
20
0.553495
11
0.541978
21
0.553959
0
LINE
8
BLACK
6
CONTINUOUS
10
0.541978
20
0.553959
11
0.544302
21
0.555698
0
LINE
8
BLACK
6
CONTINUOUS
10
0.544302
20
0.555698
11
0.547751
21
0.560307
0
LINE
8
BLACK
6
CONTINUOUS
10
0.547751
20
0.560307
11
0.547751
21
0.560307
0
LINE
8
BLACK
6
CONTINUOUS
10
0.547751
20
0.560307
11
0.547752
21
0.560307
0
LINE
8
BLACK
6
CONTINUOUS
10
0.547752
20
0.560307
11
0.549763
21
0.565701
0
LINE
8
BLACK
6
CONTINUOUS
10
0.549763
20
0.565701
11
0.54979
21
0.565945
0
LINE
8
BLACK
6
CONTINUOUS
10
0.54979
20
0.565945
11
0.55002
21
0.568085
0
LINE
8
BLACK
6
CONTINUOUS
10
0.55002
20
0.568085
11
0.55002
21
0.568085
0
LINE
8
BLACK
6
CONTINUOUS
10
0.55002
20
0.568085
11
0.55002
21
0.631915
0
LINE
8
BLACK
6
CONTINUOUS
10
0.55002
20
0.631915
11
0.55002
21
0.631915
0
LINE
8
BLACK
6
CONTINUOUS
10
0.55002
20
0.631915
11
0.549763
21
0.634299
0
LINE
8
BLACK
6
CONTINUOUS
10
0.549763
20
0.634299
11
0.549763
21
0.634299
0
LINE
8
BLACK
6
CONTINUOUS
10
0.549763
20
0.634299
11
0.547752
21
0.639693
0
LINE
8
BLACK
6
CONTINUOUS
10
0.547752
20
0.639693
11
0.547751
21
0.639693
0
LINE
8
BLACK
6
CONTINUOUS
10
0.547751
20
0.639693
11
0.544876
21
0.643534
0
LINE
8
BLACK
6
CONTINUOUS
10
0.544876
20
0.643534
11
0.544302
21
0.644302
0
LINE
8
BLACK
6
CONTINUOUS
10
0.544302
20
0.644302
11
0.544302
21
0.644302
0
LINE
8
BLACK
6
CONTINUOUS
10
0.544302
20
0.644302
11
0.541978
21
0.646041
0
LINE
8
BLACK
6
CONTINUOUS
10
0.541978
20
0.646041
11
0.540303
21
0.648279
0
LINE
8
BLACK
6
CONTINUOUS
10
0.540303
20
0.648279
11
0.540104
21
0.651067
0
LINE
8
BLACK
6
CONTINUOUS
10
0.540104
20
0.651067
11
0.540243
21
0.651323
0
LINE
8
BLACK
6
CONTINUOUS
10
0.540243
20
0.651323
11
0.541443
21
0.65352
0
LINE
8
BLACK
6
CONTINUOUS
10
0.541443
20
0.65352
11
0.541978
21
0.653984
0
LINE
8
BLACK
6
CONTINUOUS
10
0.541978
20
0.653984
11
0.544288
21
0.655712
0
LINE
8
BLACK
6
CONTINUOUS
10
0.544288
20
0.655712
11
0.547734
21
0.660316
0
LINE
8
BLACK
6
CONTINUOUS
10
0.547734
20
0.660316
11
0.547734
21
0.660316
0
LINE
8
BLACK
6
CONTINUOUS
10
0.547734
20
0.660316
11
0.549744
21
0.665705
0
LINE
8
BLACK
6
CONTINUOUS
10
0.549744
20
0.665705
11
0.55
21
0.668087
0
LINE
8
BLACK
6
CONTINUOUS
10
0.55
20
0.668087
11
0.55
21
0.668087
0
LINE
8
BLACK
6
CONTINUOUS
10
0.55
20
0.668087
11
0.55
21
0.69
0
LINE
8
BLACK
6
CONTINUOUS
10
0.55
20
0.69
11
0.53
21
0.69
0
LINE
8
BLACK
6
CONTINUOUS
10
0.53
20
0.69
11
0.53
21
0.67
0
LINE
8
BLACK
6
CONTINUOUS
10
0.53
20
0.67
11
0.47
21
0.67
0
LINE
8
BLACK
6
CONTINUOUS
10
0.47
20
0.67
11
0.47
21
0.69
0
LINE
8
BLACK
6
CONTINUOUS
10
0.47
20
0.69
11
0.43
21
0.69
0
LINE
8
BLACK
6
CONTINUOUS
10
0.43
20
0.69
11
0.43
21
0.67
0
LINE
8
BLACK
6
CONTINUOUS
10
0.43
20
0.67
11
0.37
21
0.67
0
LINE
8
BLACK
6
CONTINUOUS
10
0.37
20
0.67
11
0.37
21
0.69
0
LINE
8
BLACK
6
CONTINUOUS
10
0.37
20
0.69
11
0.35
21
0.69
0
LINE
8
BLACK
6
CONTINUOUS
10
0.35
20
0.69
11
0.35
21
0.668087
0
LINE
8
BLACK
6
CONTINUOUS
10
0.35
20
0.668087
11
0.350256
21
0.665705
0
LINE
8
BLACK
6
CONTINUOUS
10
0.350256
20
0.665705
11
0.352266
21
0.660316
0
LINE
8
BLACK
6
CONTINUOUS
10
0.352266
20
0.660316
11
0.352266
21
0.660316
0
LINE
8
BLACK
6
CONTINUOUS
10
0.352266
20
0.660316
11
0.355712
21
0.655712
0
LINE
8
BLACK
6
CONTINUOUS
10
0.355712
20
0.655712
11
0.358022
21
0.653984
0
LINE
8
BLACK
6
CONTINUOUS
10
0.358022
20
0.653984
11
0.359697
21
0.651746
0
LINE
8
BLACK
6
CONTINUOUS
10
0.359697
20
0.651746
11
0.359896
21
0.648958
0
LINE
8
BLACK
6
CONTINUOUS
10
0.359896
20
0.648958
11
0.358557
21
0.646505
0
LINE
8
BLACK
6
CONTINUOUS
10
0.358557
20
0.646505
11
0.358022
21
0.646041
0
LINE
8
BLACK
6
CONTINUOUS
10
0.358022
20
0.646041
11
0.355698
21
0.644302
0
LINE
8
BLACK
6
CONTINUOUS
10
0.355698
20
0.644302
11
0.352249
21
0.639693
0
LINE
8
BLACK
6
CONTINUOUS
10
0.352249
20
0.639693
11
0.352248
21
0.639693
0
LINE
8
BLACK
6
CONTINUOUS
10
0.352248
20
0.639693
11
0.350237
21
0.634299
0
LINE
8
BLACK
6
CONTINUOUS
10
0.350237
20
0.634299
11
0.350237
21
0.634299
0
LINE
8
BLACK
6
CONTINUOUS
10
0.350237
20
0.634299
11
0.34998
21
0.631915
0
LINE
8
BLACK
6
CONTINUOUS
10
0.34998
20
0.631915
11
0.34998
21
0.568085
0
LINE
8
BLACK
6
CONTINUOUS
10
0.34998
20
0.568085
11
0.350237
21
0.565701
0
LINE
8
BLACK
6
CONTINUOUS
10
-0.0734252
20
0.653971
11
-0.0818218
21
0.650056
0
LINE
8
BLACK
6
CONTINUOUS
10
-0.0818218
20
0.650056
11
-0.0907707
21
0.647658
0
LINE
8
BLACK
6
CONTINUOUS
10
-0.0907707
20
0.647658
11
-0.1
21
0.64685
0
LINE
8
BLACK
6
CONTINUOUS
10
-0.1
20
0.64685
11
-0.109229
21
0.647658
0
LINE
8
BLACK
6
CONTINUOUS
10
-0.109229
20
0.647658
11
-0.118178
21
0.650056
0
LINE
8
BLACK
6
CONTINUOUS
10
-0.118178
20
0.650056
11
-0.126575
21
0.653971
0
LINE
8
BLACK
6
CONTINUOUS
10
-0.126575
20
0.653971
11
-0.129699
21
0.656159
0
LINE
8
BLACK
6
CONTINUOUS
10
-0.129699
20
0.656159
11
-0.144169
21
0.641689
0
LINE
8
BLACK
6
CONTINUOUS
10
-0.144169
20
0.641689
11
-0.144169
21
0.641689
0
LINE
8
BLACK
6
CONTINUOUS
10
-0.144169
20
0.641689
11
-0.139649
21
0.638306
0
LINE
8
BLACK
6
CONTINUOUS
10
-0.139649
20
0.638306
11
-0.130465
21
0.633291
0
LINE
8
BLACK
6
CONTINUOUS
10
-0.130465
20
0.633291
11
-0.120661
21
0.629634
0
LINE
8
BLACK
6
CONTINUOUS
10
-0.120661
20
0.629634
11
-0.110437
21
0.62741
0
LINE
8
BLACK
6
CONTINUOUS
10
-0.110437
20
0.62741
11
-0.1
21
0.626664
0
LINE
8
BLACK
6
CONTINUOUS
10
-0.1
20
0.626664
11
-0.0895633
21
0.62741
0
LINE
8
BLACK
6
CONTINUOUS
10
-0.0895633
20
0.62741
11
-0.0793389
21
0.629634
0
LINE
8
BLACK
6
CONTINUOUS
10
-0.0793389
20
0.629634
11
-0.0695349
21
0.633291
0
LINE
8
BLACK
6
CONTINUOUS
10
-0.0695349
20
0.633291
11
-0.0603513
21
0.638305
0
LINE
8
BLACK
6
CONTINUOUS
10
-0.0603513
20
0.638305
11
-0.0558313
21
0.641689
0
LINE
8
BLACK
6
CONTINUOUS
10
-0.0558313
20
0.641689
11
-0.0558313
21
0.641689
0
LINE
8
BLACK
6
CONTINUOUS
10
-0.0558313
20
0.641689
11
-0.0703009
21
0.656159
0
LINE
8
BLACK
6
CONTINUOUS
10
-0.0703009
20
0.656159
11
-0.0734252
21
0.653971
0
LINE
8
BLACK
6
CONTINUOUS
10
0.126575
20
0.653971
11
0.118178
21
0.650056
0
LINE
8
BLACK
6
CONTINUOUS
10
0.118178
20
0.650056
11
0.109229
21
0.647658
0
LINE
8
BLACK
6
CONTINUOUS
10
0.109229
20
0.647658
11
0.1
21
0.64685
0
LINE
8
BLACK
6
CONTINUOUS
10
0.1
20
0.64685
11
0.0907707
21
0.647658
0
LINE
8
BLACK
6
CONTINUOUS
10
0.0907707
20
0.647658
11
0.0818218
21
0.650056
0
LINE
8
BLACK
6
CONTINUOUS
10
0.0818218
20
0.650056
11
0.0734252
21
0.653971
0
LINE
8
BLACK
6
CONTINUOUS
10
0.0734252
20
0.653971
11
0.0703008
21
0.656159
0
LINE
8
BLACK
6
CONTINUOUS
10
0.0703008
20
0.656159
11
0.0558312
21
0.641689
0
LINE
8
BLACK
6
CONTINUOUS
10
0.0558312
20
0.641689
11
0.0558312
21
0.641689
0
LINE
8
BLACK
6
CONTINUOUS
10
0.0558312
20
0.641689
11
0.0603511
21
0.638306
0
LINE
8
BLACK
6
CONTINUOUS
10
0.0603511
20
0.638306
11
0.0695348
21
0.633291
0
LINE
8
BLACK
6
CONTINUOUS
10
0.0695348
20
0.633291
11
0.0793388
21
0.629634
0
LINE
8
BLACK
6
CONTINUOUS
10
0.0793388
20
0.629634
11
0.0895633
21
0.62741
0
LINE
8
BLACK
6
CONTINUOUS
10
0.0895633
20
0.62741
11
0.1
21
0.626664
0
LINE
8
BLACK
6
CONTINUOUS
10
0.1
20
0.626664
11
0.110437
21
0.62741
0
LINE
8
BLACK
6
CONTINUOUS
10
0.110437
20
0.62741
11
0.120661
21
0.629634
0
LINE
8
BLACK
6
CONTINUOUS
10
0.120661
20
0.629634
11
0.130465
21
0.633291
0
LINE
8
BLACK
6
CONTINUOUS
10
0.130465
20
0.633291
11
0.139649
21
0.638305
0
LINE
8
BLACK
6
CONTINUOUS
10
0.139649
20
0.638305
11
0.144169
21
0.641689
0
LINE
8
BLACK
6
CONTINUOUS
10
0.144169
20
0.641689
11
0.144169
21
0.641689
0
LINE
8
BLACK
6
CONTINUOUS
10
0.144169
20
0.641689
11
0.129699
21
0.656159
0
LINE
8
BLACK
6
CONTINUOUS
10
0.129699
20
0.656159
11
0.126575
21
0.653971
0
LINE
8
BLACK
6
CONTINUOUS
10
0.0416891
20
0.944169
11
0.0383054
21
0.939649
0
LINE
8
BLACK
6
CONTINUOUS
10
0.0383054
20
0.939649
11
0.0332908
21
0.930465
0
LINE
8
BLACK
6
CONTINUOUS
10
0.0332908
20
0.930465
11
0.0296341
21
0.920661
0
LINE
8
BLACK
6
CONTINUOUS
10
0.0296341
20
0.920661
11
0.02741
21
0.910437
0
LINE
8
BLACK
6
CONTINUOUS
10
0.02741
20
0.910437
11
0.0266635
21
0.9
0
LINE
8
BLACK
6
CONTINUOUS
10
0.0266635
20
0.9
11
0.02741
21
0.889563
0
LINE
8
BLACK
6
CONTINUOUS
10
0.02741
20
0.889563
11
0.0296341
21
0.879339
0
LINE
8
BLACK
6
CONTINUOUS
10
0.0296341
20
0.879339
11
0.0329485
21
0.870453
0
LINE
8
BLACK
6
CONTINUOUS
10
0.0329485
20
0.870453
11
0.033148
21
0.867665
0
LINE
8
BLACK
6
CONTINUOUS
10
0.033148
20
0.867665
11
0.0318084
21
0.865211
0
LINE
8
BLACK
6
CONTINUOUS
10
0.0318084
20
0.865211
11
0.0293551
21
0.863872
0
LINE
8
BLACK
6
CONTINUOUS
10
0.0293551
20
0.863872
11
0.0265671
21
0.864071
0
LINE
8
BLACK
6
CONTINUOUS
10
0.0265671
20
0.864071
11
0.0261484
21
0.86425
0
LINE
8
BLACK
6
CONTINUOUS
10
0.0261484
20
0.86425
11
0.0253645
21
0.864627
0
LINE
8
BLACK
6
CONTINUOUS
10
0.0253645
20
0.864627
11
0.025364
21
0.864627
0
LINE
8
BLACK
6
CONTINUOUS
10
0.025364
20
0.864627
11
0.0154492
21
0.867686
0
LINE
8
BLACK
6
CONTINUOUS
10
0.0154492
20
0.867686
11
0.0154489
21
0.867686
0
LINE
8
BLACK
6
CONTINUOUS
10
0.0154489
20
0.867686
11
0.0154488
21
0.867686
0
LINE
8
BLACK
6
CONTINUOUS
10
0.0154488
20
0.867686
11
0.00518823
21
0.869232
0
LINE
8
BLACK
6
CONTINUOUS
10
0.00518823
20
0.869232
11
-0.00518823
21
0.869232
0
LINE
8
BLACK
6
CONTINUOUS
10
-0.00518823
20
0.869232
11
-0.0154488
21
0.867686
0
LINE
8
BLACK
6
CONTINUOUS
10
-0.0154488
20
0.867686
11
-0.0154489
21
0.867686
0
LINE
8
BLACK
6
CONTINUOUS
10
-0.0154489
20
0.867686
11
-0.0154493
21
0.867686
0
LINE
8
BLACK
6
CONTINUOUS
10
-0.0154493
20
0.867686
11
-0.025364
21
0.864627
0
LINE
8
BLACK
6
CONTINUOUS
10
-0.025364
20
0.864627
11
-0.0253646
21
0.864627
0
LINE
8
BLACK
6
CONTINUOUS
10
-0.0253646
20
0.864627
11
-0.0261485
21
0.86425
0
LINE
8
BLACK
6
CONTINUOUS
10
-0.0261485
20
0.86425
11
-0.0289065
21
0.863796
0
LINE
8
BLACK
6
CONTINUOUS
10
-0.0289065
20
0.863796
11
-0.0314722
21
0.864905
0
LINE
8
BLACK
6
CONTINUOUS
10
-0.0314722
20
0.864905
11
-0.0330309
21
0.867225
0
LINE
8
BLACK
6
CONTINUOUS
10
-0.0330309
20
0.867225
11
-0.0330879
21
0.870019
0
LINE
8
BLACK
6
CONTINUOUS
10
-0.0330879
20
0.870019
11
-0.0329485
21
0.870453
0
LINE
8
BLACK
6
CONTINUOUS
10
-0.0329485
20
0.870453
11
-0.0296343
21
0.879339
0
LINE
8
BLACK
6
CONTINUOUS
10
-0.0296343
20
0.879339
11
-0.02741
21
0.889563
0
LINE
8
BLACK
6
CONTINUOUS
10
-0.02741
20
0.889563
11
-0.0266636
21
0.9
0
LINE
8
BLACK
6
CONTINUOUS
10
-0.0266636
20
0.9
11
-0.02741
21
0.910437
0
LINE
8
BLACK
6
CONTINUOUS
10
-0.02741
20
0.910437
11
-0.0296342
21
0.920661
0
LINE
8
BLACK
6
CONTINUOUS
10
-0.0296342
20
0.920661
11
-0.0332909
21
0.930465
0
LINE
8
BLACK
6
CONTINUOUS
10
-0.0332909
20
0.930465
11
-0.0383056
21
0.939649
0
LINE
8
BLACK
6
CONTINUOUS
10
-0.0383056
20
0.939649
11
-0.0416891
21
0.944169
0
LINE
8
BLACK
6
CONTINUOUS
10
-0.0416891
20
0.944169
11
-0.0416892
21
0.944169
0
LINE
8
BLACK
6
CONTINUOUS
10
-0.0416892
20
0.944169
11
-0.0561588
21
0.929699
0
LINE
8
BLACK
6
CONTINUOUS
10
-0.0561588
20
0.929699
11
-0.0539711
21
0.926575
0
LINE
8
BLACK
6
CONTINUOUS
10
-0.0539711
20
0.926575
11
-0.0500557
21
0.918178
0
LINE
8
BLACK
6
CONTINUOUS
10
-0.0500557
20
0.918178
11
-0.0476579
21
0.909229
0
LINE
8
BLACK
6
CONTINUOUS
10
-0.0476579
20
0.909229
11
-0.0468504
21
0.9
0
LINE
8
BLACK
6
CONTINUOUS
10
-0.0468504
20
0.9
11
-0.0476579
21
0.890771
0
LINE
8
BLACK
6
CONTINUOUS
10
-0.0476579
20
0.890771
11
-0.0500557
21
0.881822
0
LINE
8
BLACK
6
CONTINUOUS
10
-0.0500557
20
0.881822
11
-0.0539711
21
0.873425
0
LINE
8
BLACK
6
CONTINUOUS
10
-0.0539711
20
0.873425
11
-0.059285
21
0.865836
0
LINE
8
BLACK
6
CONTINUOUS
10
-0.059285
20
0.865836
11
-0.0658361
21
0.859285
0
LINE
8
BLACK
6
CONTINUOUS
10
-0.0658361
20
0.859285
11
-0.0734252
21
0.853971
0
LINE
8
BLACK
6
CONTINUOUS
10
-0.0734252
20
0.853971
11
-0.0818218
21
0.850056
0
LINE
8
BLACK
6
CONTINUOUS
10
-0.0818218
20
0.850056
11
-0.0907707
21
0.847658
0
LINE
8
BLACK
6
CONTINUOUS
10
-0.0907707
20
0.847658
11
-0.1
21
0.84685
0
LINE
8
BLACK
6
CONTINUOUS
10
-0.1
20
0.84685
11
-0.109229
21
0.847658
0
LINE
8
BLACK
6
CONTINUOUS
10
-0.109229
20
0.847658
11
-0.118178
21
0.850056
0
LINE
8
BLACK
6
CONTINUOUS
10
-0.118178
20
0.850056
11
-0.126575
21
0.853971
0
LINE
8
BLACK
6
CONTINUOUS
10
-0.126575
20
0.853971
11
-0.129699
21
0.856159
0
LINE
8
BLACK
6
CONTINUOUS
10
-0.129699
20
0.856159
11
-0.144169
21
0.841689
0
LINE
8
BLACK
6
CONTINUOUS
10
-0.144169
20
0.841689
11
-0.144169
21
0.841689
0
LINE
8
BLACK
6
CONTINUOUS
10
-0.144169
20
0.841689
11
-0.139649
21
0.838306
0
LINE
8
BLACK
6
CONTINUOUS
10
-0.139649
20
0.838306
11
-0.130465
21
0.833291
0
LINE
8
BLACK
6
CONTINUOUS
10
-0.130465
20
0.833291
11
-0.120661
21
0.829634
0
LINE
8
BLACK
6
CONTINUOUS
10
-0.120661
20
0.829634
11
-0.110437
21
0.82741
0
LINE
8
BLACK
6
CONTINUOUS
10
-0.110437
20
0.82741
11
-0.1
21
0.826664
0
LINE
8
BLACK
6
CONTINUOUS
10
-0.1
20
0.826664
11
-0.0895633
21
0.82741
0
LINE
8
BLACK
6
CONTINUOUS
10
-0.0895633
20
0.82741
11
-0.0793389
21
0.829634
0
LINE
8
BLACK
6
CONTINUOUS
10
-0.0793389
20
0.829634
11
-0.0703076
21
0.833003
0
LINE
8
BLACK
6
CONTINUOUS
10
-0.0703076
20
0.833003
11
-0.0675196
21
0.833202
0
LINE
8
BLACK
6
CONTINUOUS
10
-0.0675196
20
0.833202
11
-0.0650663
21
0.831863
0
LINE
8
BLACK
6
CONTINUOUS
10
-0.0650663
20
0.831863
11
-0.0637268
21
0.829409
0
LINE
8
BLACK
6
CONTINUOUS
10
-0.0637268
20
0.829409
11
-0.0639261
21
0.826621
0
LINE
8
BLACK
6
CONTINUOUS
10
-0.0639261
20
0.826621
11
-0.0639563
21
0.826542
0
LINE
8
BLACK
6
CONTINUOUS
10
-0.0639563
20
0.826542
11
-0.0663421
21
0.820464
0
LINE
8
BLACK
6
CONTINUOUS
10
-0.0663421
20
0.820464
11
-0.0674292
21
0.815701
0
LINE
8
BLACK
6
CONTINUOUS
10
-0.0674292
20
0.815701
11
-0.068651
21
0.810347
0
LINE
8
BLACK
6
CONTINUOUS
10
-0.068651
20
0.810347
11
-0.0694264
21
0.8
0
LINE
8
BLACK
6
CONTINUOUS
10
-0.0694264
20
0.8
11
-0.068651
21
0.789653
0
LINE
8
BLACK
6
CONTINUOUS
10
-0.068651
20
0.789653
11
-0.0686509
21
0.789652
0
LINE
8
BLACK
6
CONTINUOUS
10
-0.0686509
20
0.789652
11
-0.0663421
21
0.779536
0
LINE
8
BLACK
6
CONTINUOUS
10
-0.0663421
20
0.779536
11
-0.0639563
21
0.773458
0
LINE
8
BLACK
6
CONTINUOUS
10
-0.0639563
20
0.773458
11
-0.0637095
21
0.770673
0
LINE
8
BLACK
6
CONTINUOUS
10
-0.0637095
20
0.770673
11
-0.0650072
21
0.768198
0
LINE
8
BLACK
6
CONTINUOUS
10
-0.0650072
20
0.768198
11
-0.0674373
21
0.766817
0
LINE
8
BLACK
6
CONTINUOUS
10
-0.0674373
20
0.766817
11
-0.0702283
21
0.766969
0
LINE
8
BLACK
6
CONTINUOUS
10
-0.0702283
20
0.766969
11
-0.0703076
21
0.766997
0
LINE
8
BLACK
6
CONTINUOUS
10
-0.0703076
20
0.766997
11
-0.0793387
21
0.770366
0
LINE
8
BLACK
6
CONTINUOUS
10
-0.0793387
20
0.770366
11
-0.0895633
21
0.77259
0
LINE
8
BLACK
6
CONTINUOUS
10
-0.0895633
20
0.77259
11
-0.1
21
0.773336
0
LINE
8
BLACK
6
CONTINUOUS
10
-0.1
20
0.773336
11
-0.110437
21
0.77259
0
LINE
8
BLACK
6
CONTINUOUS
10
-0.110437
20
0.77259
11
-0.120661
21
0.770366
0
LINE
8
BLACK
6
CONTINUOUS
10
-0.120661
20
0.770366
11
-0.130465
21
0.766709
0
LINE
8
BLACK
6
CONTINUOUS
10
-0.130465
20
0.766709
11
-0.139649
21
0.761695
0
LINE
8
BLACK
6
CONTINUOUS
10
-0.139649
20
0.761695
11
-0.144169
21
0.758311
0
LINE
8
BLACK
6
CONTINUOUS
10
-0.144169
20
0.758311
11
-0.144169
21
0.758311
0
LINE
8
BLACK
6
CONTINUOUS
10
-0.144169
20
0.758311
11
-0.129699
21
0.743841
0
LINE
8
BLACK
6
CONTINUOUS
10
-0.129699
20
0.743841
11
-0.126575
21
0.746029
0
LINE
8
BLACK
6
CONTINUOUS
10
-0.126575
20
0.746029
11
-0.118178
21
0.749944
0
LINE
8
BLACK
6
CONTINUOUS
10
-0.118178
20
0.749944
11
-0.109229
21
0.752342
0
LINE
8
BLACK
6
CONTINUOUS
10
-0.109229
20
0.752342
11
-0.1
21
0.75315
0
LINE
8
BLACK
6
CONTINUOUS
10
-0.1
20
0.75315
11
-0.0907707
21
0.752342
0
LINE
8
BLACK
6
CONTINUOUS
10
-0.0907707
20
0.752342
11
-0.0818218
21
0.749944
0
LINE
8
BLACK
6
CONTINUOUS
10
-0.0818218
20
0.749944
11
-0.0734252
21
0.746029
0
LINE
8
BLACK
6
CONTINUOUS
10
-0.0734252
20
0.746029
11
-0.0658361
21
0.740715
0
LINE
8
BLACK
6
CONTINUOUS
10
-0.0658361
20
0.740715
11
-0.059285
21
0.734164
0
LINE
8
BLACK
6
CONTINUOUS
10
-0.059285
20
0.734164
11
-0.0539711
21
0.726575
0
LINE
8
BLACK
6
CONTINUOUS
10
-0.0539711
20
0.726575
11
-0.0500557
21
0.718178
0
LINE
8
BLACK
6
CONTINUOUS
10
-0.0500557
20
0.718178
11
-0.0476579
21
0.709229
0
LINE
8
BLACK
6
CONTINUOUS
10
-0.0476579
20
0.709229
11
-0.0468504
21
0.7
0
LINE
8
BLACK
6
CONTINUOUS
10
-0.0468504
20
0.7
11
-0.0476579
21
0.690771
0
LINE
8
BLACK
6
CONTINUOUS
10
-0.0476579
20
0.690771
11
-0.0500557
21
0.681822
0
LINE
8
BLACK
6
CONTINUOUS
10
-0.0500557
20
0.681822
11
-0.0539711
21
0.673425
0
LINE
8
BLACK
6
CONTINUOUS
10
-0.0539711
20
0.673425
11
-0.0561588
21
0.670301
0
LINE
8
BLACK
6
CONTINUOUS
10
-0.0561588
20
0.670301
11
-0.0416892
21
0.655831
0
LINE
8
BLACK
6
CONTINUOUS
10
-0.0416892
20
0.655831
11
-0.0416892
21
0.655831
0
LINE
8
BLACK
6
CONTINUOUS
10
-0.0416892
20
0.655831
11
-0.0383054
21
0.660351
0
LINE
8
BLACK
6
CONTINUOUS
10
-0.0383054
20
0.660351
11
-0.0332909
21
0.669535
0
LINE
8
BLACK
6
CONTINUOUS
10
-0.0332909
20
0.669535
11
-0.0296342
21
0.679339
0
LINE
8
BLACK
6
CONTINUOUS
10
-0.0296342
20
0.679339
11
-0.02741
21
0.689563
0
LINE
8
BLACK
6
CONTINUOUS
10
-0.02741
20
0.689563
11
-0.0266636
21
0.7
0
LINE
8
BLACK
6
CONTINUOUS
10
-0.0266636
20
0.7
11
-0.02741
21
0.710437
0
LINE
8
BLACK
6
CONTINUOUS
10
-0.02741
20
0.710437
11
-0.0296342
21
0.720661
0
LINE
8
BLACK
6
CONTINUOUS
10
-0.0296342
20
0.720661
11
-0.0329486
21
0.729547
0
LINE
8
BLACK
6
CONTINUOUS
10
-0.0329486
20
0.729547
11
-0.033148
21
0.732335
0
LINE
8
BLACK
6
CONTINUOUS
10
-0.033148
20
0.732335
11
-0.0318084
21
0.734789
0
LINE
8
BLACK
6
CONTINUOUS
10
-0.0318084
20
0.734789
11
-0.0293552
21
0.736128
0
LINE
8
BLACK
6
CONTINUOUS
10
-0.0293552
20
0.736128
11
-0.0265672
21
0.735929
0
LINE
8
BLACK
6
CONTINUOUS
10
-0.0265672
20
0.735929
11
-0.0261483
21
0.73575
0
LINE
8
BLACK
6
CONTINUOUS
10
-0.0261483
20
0.73575
11
-0.0253643
21
0.735373
0
LINE
8
BLACK
6
CONTINUOUS
10
-0.0253643
20
0.735373
11
-0.0253642
21
0.735373
0
LINE
8
BLACK
6
CONTINUOUS
10
-0.0253642
20
0.735373
11
-0.025364
21
0.735373
0
LINE
8
BLACK
6
CONTINUOUS
10
-0.025364
20
0.735373
11
-0.0154493
21
0.732314
0
LINE
8
BLACK
6
CONTINUOUS
10
-0.0154493
20
0.732314
11
-0.0154492
21
0.732314
0
LINE
8
BLACK
6
CONTINUOUS
10
-0.0154492
20
0.732314
11
-0.0154488
21
0.732314
0
LINE
8
BLACK
6
CONTINUOUS
10
-0.0154488
20
0.732314
11
-0.00518823
21
0.730768
0
LINE
8
BLACK
6
CONTINUOUS
10
-0.00518823
20
0.730768
11
-0.00518807
21
0.730768
0
LINE
8
BLACK
6
CONTINUOUS
10
-0.00518807
20
0.730768
11
0.00518807
21
0.730768
0
LINE
8
BLACK
6
CONTINUOUS
10
0.00518807
20
0.730768
11
0.00518823
21
0.730768
0
LINE
8
BLACK
6
CONTINUOUS
10
0.00518823
20
0.730768
11
0.0154488
21
0.732314
0
LINE
8
BLACK
6
CONTINUOUS
10
0.0154488
20
0.732314
11
0.0155174
21
0.732335
0
LINE
8
BLACK
6
CONTINUOUS
10
0.0155174
20
0.732335
11
0.025364
21
0.735373
0
LINE
8
BLACK
6
CONTINUOUS
10
0.025364
20
0.735373
11
0.0253641
21
0.735373
0
LINE
8
BLACK
6
CONTINUOUS
10
0.0253641
20
0.735373
11
0.0253643
21
0.735373
0
LINE
8
BLACK
6
CONTINUOUS
10
0.0253643
20
0.735373
11
0.0261483
21
0.73575
0
LINE
8
BLACK
6
CONTINUOUS
10
0.0261483
20
0.73575
11
0.0289062
21
0.736204
0
LINE
8
BLACK
6
CONTINUOUS
10
0.0289062
20
0.736204
11
0.031472
21
0.735096
0
LINE
8
BLACK
6
CONTINUOUS
10
0.031472
20
0.735096
11
0.0330308
21
0.732775
0
LINE
8
BLACK
6
CONTINUOUS
10
0.0330308
20
0.732775
11
0.0330879
21
0.729981
0
LINE
8
BLACK
6
CONTINUOUS
10
0.0330879
20
0.729981
11
0.0329485
21
0.729547
0
LINE
8
BLACK
6
CONTINUOUS
10
0.0329485
20
0.729547
11
0.0296342
21
0.720661
0
LINE
8
BLACK
6
CONTINUOUS
10
0.0296342
20
0.720661
11
0.02741
21
0.710437
0
LINE
8
BLACK
6
CONTINUOUS
10
0.02741
20
0.710437
11
0.0266635
21
0.7
0
LINE
8
BLACK
6
CONTINUOUS
10
0.0266635
20
0.7
11
0.02741
21
0.689563
0
LINE
8
BLACK
6
CONTINUOUS
10
0.02741
20
0.689563
11
0.0296341
21
0.679339
0
LINE
8
BLACK
6
CONTINUOUS
10
0.0296341
20
0.679339
11
0.0332908
21
0.669535
0
LINE
8
BLACK
6
CONTINUOUS
10
0.0332908
20
0.669535
11
0.0383054
21
0.660351
0
LINE
8
BLACK
6
CONTINUOUS
10
0.0383054
20
0.660351
11
0.0416891
21
0.655831
0
LINE
8
BLACK
6
CONTINUOUS
10
0.0416891
20
0.655831
11
0.0416891
21
0.655831
0
LINE
8
BLACK
6
CONTINUOUS
10
0.0416891
20
0.655831
11
0.0561587
21
0.670301
0
LINE
8
BLACK
6
CONTINUOUS
10
0.0561587
20
0.670301
11
0.0539711
21
0.673425
0
LINE
8
BLACK
6
CONTINUOUS
10
0.0539711
20
0.673425
11
0.0500557
21
0.681822
0
LINE
8
BLACK
6
CONTINUOUS
10
0.0500557
20
0.681822
11
0.0476579
21
0.690771
0
LINE
8
BLACK
6
CONTINUOUS
10
0.0476579
20
0.690771
11
0.0468504
21
0.7
0
LINE
8
BLACK
6
CONTINUOUS
10
0.0468504
20
0.7
11
0.0476579
21
0.709229
0
LINE
8
BLACK
6
CONTINUOUS
10
0.0476579
20
0.709229
11
0.0500557
21
0.718178
0
LINE
8
BLACK
6
CONTINUOUS
10
0.0500557
20
0.718178
11
0.0539711
21
0.726575
0
LINE
8
BLACK
6
CONTINUOUS
10
0.0539711
20
0.726575
11
0.059285
21
0.734164
0
LINE
8
BLACK
6
CONTINUOUS
10
0.059285
20
0.734164
11
0.0658361
21
0.740715
0
LINE
8
BLACK
6
CONTINUOUS
10
0.0658361
20
0.740715
11
0.0734252
21
0.746029
0
LINE
8
BLACK
6
CONTINUOUS
10
0.0734252
20
0.746029
11
0.0818218
21
0.749944
0
LINE
8
BLACK
6
CONTINUOUS
10
0.0818218
20
0.749944
11
0.0907707
21
0.752342
0
LINE
8
BLACK
6
CONTINUOUS
10
0.0907707
20
0.752342
11
0.1
21
0.75315
0
LINE
8
BLACK
6
CONTINUOUS
10
0.1
20
0.75315
11
0.109229
21
0.752342
0
LINE
8
BLACK
6
CONTINUOUS
10
0.109229
20
0.752342
11
0.118178
21
0.749944
0
LINE
8
BLACK
6
CONTINUOUS
10
0.118178
20
0.749944
11
0.126575
21
0.746029
0
LINE
8
BLACK
6
CONTINUOUS
10
0.126575
20
0.746029
11
0.129699
21
0.743841
0
LINE
8
BLACK
6
CONTINUOUS
10
0.129699
20
0.743841
11
0.144169
21
0.758311
0
LINE
8
BLACK
6
CONTINUOUS
10
0.144169
20
0.758311
11
0.139649
21
0.761695
0
LINE
8
BLACK
6
CONTINUOUS
10
0.139649
20
0.761695
11
0.130465
21
0.766709
0
LINE
8
BLACK
6
CONTINUOUS
10
0.130465
20
0.766709
11
0.120661
21
0.770366
0
LINE
8
BLACK
6
CONTINUOUS
10
0.120661
20
0.770366
11
0.110437
21
0.77259
0
LINE
8
BLACK
6
CONTINUOUS
10
0.110437
20
0.77259
11
0.1
21
0.773336
0
LINE
8
BLACK
6
CONTINUOUS
10
0.1
20
0.773336
11
0.0895633
21
0.77259
0
LINE
8
BLACK
6
CONTINUOUS
10
0.0895633
20
0.77259
11
0.0793387
21
0.770366
0
LINE
8
BLACK
6
CONTINUOUS
10
0.0793387
20
0.770366
11
0.0703075
21
0.766997
0
LINE
8
BLACK
6
CONTINUOUS
10
0.0703075
20
0.766997
11
0.0675195
21
0.766798
0
LINE
8
BLACK
6
CONTINUOUS
10
0.0675195
20
0.766798
11
0.0650663
21
0.768138
0
LINE
8
BLACK
6
CONTINUOUS
10
0.0650663
20
0.768138
11
0.0637267
21
0.770591
0
LINE
8
BLACK
6
CONTINUOUS
10
0.0637267
20
0.770591
11
0.0639261
21
0.773379
0
LINE
8
BLACK
6
CONTINUOUS
10
0.0639261
20
0.773379
11
0.0639548
21
0.773454
0
LINE
8
BLACK
6
CONTINUOUS
10
0.0639548
20
0.773454
11
0.066342
21
0.779536
0
LINE
8
BLACK
6
CONTINUOUS
10
0.066342
20
0.779536
11
0.068651
21
0.789653
0
LINE
8
BLACK
6
CONTINUOUS
10
0.068651
20
0.789653
11
0.0694264
21
0.8
0
LINE
8
BLACK
6
CONTINUOUS
10
0.0694264
20
0.8
11
0.068651
21
0.810347
0
LINE
8
BLACK
6
CONTINUOUS
10
0.068651
20
0.810347
11
0.066342
21
0.820464
0
LINE
8
BLACK
6
CONTINUOUS
10
0.066342
20
0.820464
11
0.0639562
21
0.826543
0
LINE
8
BLACK
6
CONTINUOUS
10
0.0639562
20
0.826543
11
0.0637095
21
0.829327
0
LINE
8
BLACK
6
CONTINUOUS
10
0.0637095
20
0.829327
11
0.0650072
21
0.831802
0
LINE
8
BLACK
6
CONTINUOUS
10
0.0650072
20
0.831802
11
0.0674372
21
0.833183
0
LINE
8
BLACK
6
CONTINUOUS
10
0.0674372
20
0.833183
11
0.0702283
21
0.833031
0
LINE
8
BLACK
6
CONTINUOUS
10
0.0702283
20
0.833031
11
0.0703076
21
0.833003
0
LINE
8
BLACK
6
CONTINUOUS
10
0.0703076
20
0.833003
11
0.0793388
21
0.829634
0
LINE
8
BLACK
6
CONTINUOUS
10
0.0793388
20
0.829634
11
0.0895633
21
0.82741
0
LINE
8
BLACK
6
CONTINUOUS
10
0.0895633
20
0.82741
11
0.1
21
0.826664
0
LINE
8
BLACK
6
CONTINUOUS
10
0.1
20
0.826664
11
0.110437
21
0.82741
0
LINE
8
BLACK
6
CONTINUOUS
10
0.110437
20
0.82741
11
0.120661
21
0.829634
0
LINE
8
BLACK
6
CONTINUOUS
10
0.120661
20
0.829634
11
0.130465
21
0.833291
0
LINE
8
BLACK
6
CONTINUOUS
10
0.130465
20
0.833291
11
0.139649
21
0.838305
0
LINE
8
BLACK
6
CONTINUOUS
10
0.139649
20
0.838305
11
0.144169
21
0.841689
0
LINE
8
BLACK
6
CONTINUOUS
10
0.144169
20
0.841689
11
0.144169
21
0.841689
0
LINE
8
BLACK
6
CONTINUOUS
10
0.144169
20
0.841689
11
0.129699
21
0.856159
0
LINE
8
BLACK
6
CONTINUOUS
10
0.129699
20
0.856159
11
0.126575
21
0.853971
0
LINE
8
BLACK
6
CONTINUOUS
10
0.126575
20
0.853971
11
0.118178
21
0.850056
0
LINE
8
BLACK
6
CONTINUOUS
10
0.118178
20
0.850056
11
0.109229
21
0.847658
0
LINE
8
BLACK
6
CONTINUOUS
10
0.109229
20
0.847658
11
0.1
21
0.84685
0
LINE
8
BLACK
6
CONTINUOUS
10
0.1
20
0.84685
11
0.0907707
21
0.847658
0
LINE
8
BLACK
6
CONTINUOUS
10
0.0907707
20
0.847658
11
0.0818218
21
0.850056
0
LINE
8
BLACK
6
CONTINUOUS
10
0.0818218
20
0.850056
11
0.0734252
21
0.853971
0
LINE
8
BLACK
6
CONTINUOUS
10
0.0734252
20
0.853971
11
0.0658361
21
0.859285
0
LINE
8
BLACK
6
CONTINUOUS
10
0.0658361
20
0.859285
11
0.059285
21
0.865836
0
LINE
8
BLACK
6
CONTINUOUS
10
0.059285
20
0.865836
11
0.0539711
21
0.873425
0
LINE
8
BLACK
6
CONTINUOUS
10
0.0539711
20
0.873425
11
0.0500557
21
0.881822
0
LINE
8
BLACK
6
CONTINUOUS
10
0.0500557
20
0.881822
11
0.0476579
21
0.890771
0
LINE
8
BLACK
6
CONTINUOUS
10
0.0476579
20
0.890771
11
0.0468504
21
0.9
0
LINE
8
BLACK
6
CONTINUOUS
10
0.0468504
20
0.9
11
0.0476579
21
0.909229
0
LINE
8
BLACK
6
CONTINUOUS
10
0.0476579
20
0.909229
11
0.0500557
21
0.918178
0
LINE
8
BLACK
6
CONTINUOUS
10
0.0500557
20
0.918178
11
0.0539711
21
0.926575
0
LINE
8
BLACK
6
CONTINUOUS
10
0.0539711
20
0.926575
11
0.0561588
21
0.929699
0
LINE
8
BLACK
6
CONTINUOUS
10
0.0561588
20
0.929699
11
0.0416891
21
0.944169
0
LINE
8
BLACK
6
CONTINUOUS
10
0.0416891
20
0.944169
11
0.0416891
21
0.944169
0
LINE
8
BLACK
6
CONTINUOUS
10
0.143841
20
0.729699
11
0.146029
21
0.726575
0
LINE
8
BLACK
6
CONTINUOUS
10
0.146029
20
0.726575
11
0.149944
21
0.718178
0
LINE
8
BLACK
6
CONTINUOUS
10
0.149944
20
0.718178
11
0.152342
21
0.709229
0
LINE
8
BLACK
6
CONTINUOUS
10
0.152342
20
0.709229
11
0.15315
21
0.7
0
LINE
8
BLACK
6
CONTINUOUS
10
0.15315
20
0.7
11
0.152342
21
0.690771
0
LINE
8
BLACK
6
CONTINUOUS
10
0.152342
20
0.690771
11
0.149944
21
0.681822
0
LINE
8
BLACK
6
CONTINUOUS
10
0.149944
20
0.681822
11
0.146029
21
0.673425
0
LINE
8
BLACK
6
CONTINUOUS
10
0.146029
20
0.673425
11
0.143841
21
0.670301
0
LINE
8
BLACK
6
CONTINUOUS
10
0.143841
20
0.670301
11
0.158311
21
0.655831
0
LINE
8
BLACK
6
CONTINUOUS
10
0.158311
20
0.655831
11
0.158311
21
0.655831
0
LINE
8
BLACK
6
CONTINUOUS
10
0.158311
20
0.655831
11
0.161695
21
0.660351
0
LINE
8
BLACK
6
CONTINUOUS
10
0.161695
20
0.660351
11
0.166709
21
0.669535
0
LINE
8
BLACK
6
CONTINUOUS
10
0.166709
20
0.669535
11
0.170366
21
0.679339
0
LINE
8
BLACK
6
CONTINUOUS
10
0.170366
20
0.679339
11
0.17259
21
0.689563
0
LINE
8
BLACK
6
CONTINUOUS
10
0.17259
20
0.689563
11
0.173336
21
0.7
0
LINE
8
BLACK
6
CONTINUOUS
10
0.173336
20
0.7
11
0.17259
21
0.710437
0
LINE
8
BLACK
6
CONTINUOUS
10
0.17259
20
0.710437
11
0.170366
21
0.720661
0
LINE
8
BLACK
6
CONTINUOUS
10
0.170366
20
0.720661
11
0.166709
21
0.730465
0
LINE
8
BLACK
6
CONTINUOUS
10
0.166709
20
0.730465
11
0.161694
21
0.739649
0
LINE
8
BLACK
6
CONTINUOUS
10
0.161694
20
0.739649
11
0.158311
21
0.744169
0
LINE
8
BLACK
6
CONTINUOUS
10
0.158311
20
0.744169
11
0.158311
21
0.744169
0
LINE
8
BLACK
6
CONTINUOUS
10
0.158311
20
0.744169
11
0.143841
21
0.729699
0
LINE
8
BLACK
6
CONTINUOUS
10
0.55
20
0.731913
11
0.55
21
0.731913
0
LINE
8
BLACK
6
CONTINUOUS
10
0.55
20
0.731913
11
0.549744
21
0.734295
0
LINE
8
BLACK
6
CONTINUOUS
10
0.549744
20
0.734295
11
0.547734
21
0.739684
0
LINE
8
BLACK
6
CONTINUOUS
10
0.547734
20
0.739684
11
0.547734
21
0.739684
0
LINE
8
BLACK
6
CONTINUOUS
10
0.547734
20
0.739684
11
0.544288
21
0.744288
0
LINE
8
BLACK
6
CONTINUOUS
10
0.544288
20
0.744288
11
0.539684
21
0.747734
0
LINE
8
BLACK
6
CONTINUOUS
10
0.539684
20
0.747734
11
0.534295
21
0.749744
0
LINE
8
BLACK
6
CONTINUOUS
10
0.534295
20
0.749744
11
0.531913
21
0.75
0
LINE
8
BLACK
6
CONTINUOUS
10
0.531913
20
0.75
11
0.51
21
0.75
0
LINE
8
BLACK
6
CONTINUOUS
10
0.51
20
0.75
11
0.51
21
0.73
0
LINE
8
BLACK
6
CONTINUOUS
10
0.51
20
0.73
11
0.53
21
0.73
0
LINE
8
BLACK
6
CONTINUOUS
10
0.53
20
0.73
11
0.53
21
0.71
0
LINE
8
BLACK
6
CONTINUOUS
10
0.53
20
0.71
11
0.55
21
0.71
0
LINE
8
BLACK
6
CONTINUOUS
10
0.55
20
0.71
11
0.55
21
0.718085
0
LINE
8
BLACK
6
CONTINUOUS
10
0.55
20
0.718085
11
0.55
21
0.731913
0
LINE
8
BLACK
6
CONTINUOUS
10
0.41
20
0.73
11
0.43
21
0.73
0
LINE
8
BLACK
6
CONTINUOUS
10
0.43
20
0.73
11
0.43
21
0.71
0
LINE
8
BLACK
6
CONTINUOUS
10
0.43
20
0.71
11
0.47
21
0.71
0
LINE
8
BLACK
6
CONTINUOUS
10
0.47
20
0.71
11
0.47
21
0.73
0
LINE
8
BLACK
6
CONTINUOUS
10
0.47
20
0.73
11
0.49
21
0.73
0
LINE
8
BLACK
6
CONTINUOUS
10
0.49
20
0.73
11
0.49
21
0.75
0
LINE
8
BLACK
6
CONTINUOUS
10
0.49
20
0.75
11
0.468087
21
0.75
0
LINE
8
BLACK
6
CONTINUOUS
10
0.468087
20
0.75
11
0.465705
21
0.749744
0
LINE
8
BLACK
6
CONTINUOUS
10
0.465705
20
0.749744
11
0.460316
21
0.747734
0
LINE
8
BLACK
6
CONTINUOUS
10
0.460316
20
0.747734
11
0.460316
21
0.747734
0
LINE
8
BLACK
6
CONTINUOUS
10
0.460316
20
0.747734
11
0.455712
21
0.744288
0
LINE
8
BLACK
6
CONTINUOUS
10
0.455712
20
0.744288
11
0.453971
21
0.741962
0
LINE
8
BLACK
6
CONTINUOUS
10
0.453971
20
0.741962
11
0.451734
21
0.740286
0
LINE
8
BLACK
6
CONTINUOUS
10
0.451734
20
0.740286
11
0.448946
21
0.740087
0
LINE
8
BLACK
6
CONTINUOUS
10
0.448946
20
0.740087
11
0.446492
21
0.741427
0
LINE
8
BLACK
6
CONTINUOUS
10
0.446492
20
0.741427
11
0.446029
21
0.741962
0
LINE
8
BLACK
6
CONTINUOUS
10
0.446029
20
0.741962
11
0.444287
21
0.744288
0
LINE
8
BLACK
6
CONTINUOUS
10
0.444287
20
0.744288
11
0.439684
21
0.747734
0
LINE
8
BLACK
6
CONTINUOUS
10
0.439684
20
0.747734
11
0.434295
21
0.749744
0
LINE
8
BLACK
6
CONTINUOUS
10
0.434295
20
0.749744
11
0.431913
21
0.75
0
LINE
8
BLACK
6
CONTINUOUS
10
0.431913
20
0.75
11
0.41
21
0.75
0
LINE
8
BLACK
6
CONTINUOUS
10
0.41
20
0.75
11
0.41
21
0.73
0
LINE
8
BLACK
6
CONTINUOUS
10
0.365705
20
0.749744
11
0.360316
21
0.747734
0
LINE
8
BLACK
6
CONTINUOUS
10
0.360316
20
0.747734
11
0.360316
21
0.747734
0
LINE
8
BLACK
6
CONTINUOUS
10
0.360316
20
0.747734
11
0.355712
21
0.744288
0
LINE
8
BLACK
6
CONTINUOUS
10
0.355712
20
0.744288
11
0.352266
21
0.739684
0
LINE
8
BLACK
6
CONTINUOUS
10
0.352266
20
0.739684
11
0.352266
21
0.739684
0
LINE
8
BLACK
6
CONTINUOUS
10
0.352266
20
0.739684
11
0.350256
21
0.734295
0
LINE
8
BLACK
6
CONTINUOUS
10
0.350256
20
0.734295
11
0.35
21
0.731913
0
LINE
8
BLACK
6
CONTINUOUS
10
0.35
20
0.731913
11
0.35
21
0.71
0
LINE
8
BLACK
6
CONTINUOUS
10
0.35
20
0.71
11
0.37
21
0.71
0
LINE
8
BLACK
6
CONTINUOUS
10
0.37
20
0.71
11
0.37
21
0.73
0
LINE
8
BLACK
6
CONTINUOUS
10
0.37
20
0.73
11
0.39
21
0.73
0
LINE
8
BLACK
6
CONTINUOUS
10
0.39
20
0.73
11
0.39
21
0.75
0
LINE
8
BLACK
6
CONTINUOUS
10
0.39
20
0.75
11
0.368087
21
0.75
0
LINE
8
BLACK
6
CONTINUOUS
10
0.368087
20
0.75
11
0.365705
21
0.749744
0
LINE
8
BLACK
6
CONTINUOUS
10
0.700237
20
0.715701
11
0.700237
21
0.715701
0
LINE
8
BLACK
6
CONTINUOUS
10
0.700237
20
0.715701
11
0.702248
21
0.710307
0
LINE
8
BLACK
6
CONTINUOUS
10
0.702248
20
0.710307
11
0.702249
21
0.710307
0
LINE
8
BLACK
6
CONTINUOUS
10
0.702249
20
0.710307
11
0.705698
21
0.705698
0
LINE
8
BLACK
6
CONTINUOUS
10
0.705698
20
0.705698
11
0.710307
21
0.702249
0
LINE
8
BLACK
6
CONTINUOUS
10
0.710307
20
0.702249
11
0.710307
21
0.702249
0
LINE
8
BLACK
6
CONTINUOUS
10
0.710307
20
0.702249
11
0.710307
21
0.702248
0
LINE
8
BLACK
6
CONTINUOUS
10
0.710307
20
0.702248
11
0.711449
21
0.701822
0
LINE
8
BLACK
6
CONTINUOUS
10
0.711449
20
0.701822
11
0.715701
21
0.700237
0
LINE
8
BLACK
6
CONTINUOUS
10
0.715701
20
0.700237
11
0.715701
21
0.700237
0
LINE
8
BLACK
6
CONTINUOUS
10
0.715701
20
0.700237
11
0.718085
21
0.69998
0
LINE
8
BLACK
6
CONTINUOUS
10
0.718085
20
0.69998
11
0.718085
21
0.69998
0
LINE
8
BLACK
6
CONTINUOUS
10
0.718085
20
0.69998
11
0.718085
21
0.69998
0
LINE
8
BLACK
6
CONTINUOUS
10
0.718085
20
0.69998
11
0.718085
21
0.69998
0
LINE
8
BLACK
6
CONTINUOUS
10
0.718085
20
0.69998
11
0.781915
21
0.69998
0
LINE
8
BLACK
6
CONTINUOUS
10
0.781915
20
0.69998
11
0.781915
21
0.69998
0
LINE
8
BLACK
6
CONTINUOUS
10
0.781915
20
0.69998
11
0.781915
21
0.69998
0
LINE
8
BLACK
6
CONTINUOUS
10
0.781915
20
0.69998
11
0.781915
21
0.69998
0
LINE
8
BLACK
6
CONTINUOUS
10
0.781915
20
0.69998
11
0.784299
21
0.700237
0
LINE
8
BLACK
6
CONTINUOUS
10
0.784299
20
0.700237
11
0.784299
21
0.700237
0
LINE
8
BLACK
6
CONTINUOUS
10
0.784299
20
0.700237
11
0.784299
21
0.700237
0
LINE
8
BLACK
6
CONTINUOUS
10
0.784299
20
0.700237
11
0.789693
21
0.702248
0
LINE
8
BLACK
6
CONTINUOUS
10
0.789693
20
0.702248
11
0.794302
21
0.705698
0
LINE
8
BLACK
6
CONTINUOUS
10
0.794302
20
0.705698
11
0.796029
21
0.708006
0
LINE
8
BLACK
6
CONTINUOUS
10
0.796029
20
0.708006
11
0.798266
21
0.709681
0
LINE
8
BLACK
6
CONTINUOUS
10
0.798266
20
0.709681
11
0.801054
21
0.70988
0
LINE
8
BLACK
6
CONTINUOUS
10
0.801054
20
0.70988
11
0.803508
21
0.708541
0
LINE
8
BLACK
6
CONTINUOUS
10
0.803508
20
0.708541
11
0.803971
21
0.708006
0
LINE
8
BLACK
6
CONTINUOUS
10
0.803971
20
0.708006
11
0.805698
21
0.705698
0
LINE
8
BLACK
6
CONTINUOUS
10
0.805698
20
0.705698
11
0.810307
21
0.702249
0
LINE
8
BLACK
6
CONTINUOUS
10
0.810307
20
0.702249
11
0.810307
21
0.702249
0
LINE
8
BLACK
6
CONTINUOUS
10
0.810307
20
0.702249
11
0.810307
21
0.702248
0
LINE
8
BLACK
6
CONTINUOUS
10
0.810307
20
0.702248
11
0.811449
21
0.701822
0
LINE
8
BLACK
6
CONTINUOUS
10
0.811449
20
0.701822
11
0.815701
21
0.700237
0
LINE
8
BLACK
6
CONTINUOUS
10
0.815701
20
0.700237
11
0.815701
21
0.700237
0
LINE
8
BLACK
6
CONTINUOUS
10
0.815701
20
0.700237
11
0.818085
21
0.69998
0
LINE
8
BLACK
6
CONTINUOUS
10
0.818085
20
0.69998
11
0.818085
21
0.69998
0
LINE
8
BLACK
6
CONTINUOUS
10
0.818085
20
0.69998
11
0.818085
21
0.69998
0
LINE
8
BLACK
6
CONTINUOUS
10
0.818085
20
0.69998
11
0.818085
21
0.69998
0
LINE
8
BLACK
6
CONTINUOUS
10
0.818085
20
0.69998
11
0.881915
21
0.69998
0
LINE
8
BLACK
6
CONTINUOUS
10
0.881915
20
0.69998
11
0.881915
21
0.69998
0
LINE
8
BLACK
6
CONTINUOUS
10
0.881915
20
0.69998
11
0.881915
21
0.69998
0
LINE
8
BLACK
6
CONTINUOUS
10
0.881915
20
0.69998
11
0.881915
21
0.69998
0
LINE
8
BLACK
6
CONTINUOUS
10
0.881915
20
0.69998
11
0.884299
21
0.700237
0
LINE
8
BLACK
6
CONTINUOUS
10
0.884299
20
0.700237
11
0.884299
21
0.700237
0
LINE
8
BLACK
6
CONTINUOUS
10
0.884299
20
0.700237
11
0.884299
21
0.700237
0
LINE
8
BLACK
6
CONTINUOUS
10
0.884299
20
0.700237
11
0.889693
21
0.702248
0
LINE
8
BLACK
6
CONTINUOUS
10
0.889693
20
0.702248
11
0.894302
21
0.705698
0
LINE
8
BLACK
6
CONTINUOUS
10
0.894302
20
0.705698
11
0.897752
21
0.710307
0
LINE
8
BLACK
6
CONTINUOUS
10
0.897752
20
0.710307
11
0.899763
21
0.715701
0
LINE
8
BLACK
6
CONTINUOUS
10
0.899763
20
0.715701
11
0.899771
21
0.715768
0
LINE
8
BLACK
6
CONTINUOUS
10
0.899771
20
0.715768
11
0.90002
21
0.718085
0
LINE
8
BLACK
6
CONTINUOUS
10
0.90002
20
0.718085
11
0.90002
21
0.718085
0
LINE
8
BLACK
6
CONTINUOUS
10
0.90002
20
0.718085
11
0.90002
21
0.781915
0
LINE
8
BLACK
6
CONTINUOUS
10
0.90002
20
0.781915
11
0.90002
21
0.781915
0
LINE
8
BLACK
6
CONTINUOUS
10
0.90002
20
0.781915
11
0.899763
21
0.784299
0
LINE
8
BLACK
6
CONTINUOUS
10
0.899763
20
0.784299
11
0.899763
21
0.784299
0
LINE
8
BLACK
6
CONTINUOUS
10
0.899763
20
0.784299
11
0.898619
21
0.787367
0
LINE
8
BLACK
6
CONTINUOUS
10
0.898619
20
0.787367
11
0.897752
21
0.789693
0
LINE
8
BLACK
6
CONTINUOUS
10
0.897752
20
0.789693
11
0.897751
21
0.789693
0
LINE
8
BLACK
6
CONTINUOUS
10
0.897751
20
0.789693
11
0.897751
21
0.789693
0
LINE
8
BLACK
6
CONTINUOUS
10
0.897751
20
0.789693
11
0.894302
21
0.794302
0
LINE
8
BLACK
6
CONTINUOUS
10
0.894302
20
0.794302
11
0.891994
21
0.796029
0
LINE
8
BLACK
6
CONTINUOUS
10
0.891994
20
0.796029
11
0.890319
21
0.798267
0
LINE
8
BLACK
6
CONTINUOUS
10
0.890319
20
0.798267
11
0.89012
21
0.801055
0
LINE
8
BLACK
6
CONTINUOUS
10
0.89012
20
0.801055
11
0.89146
21
0.803508
0
LINE
8
BLACK
6
CONTINUOUS
10
0.89146
20
0.803508
11
0.891994
21
0.803971
0
LINE
8
BLACK
6
CONTINUOUS
10
0.891994
20
0.803971
11
0.894302
21
0.805698
0
LINE
8
BLACK
6
CONTINUOUS
10
0.894302
20
0.805698
11
0.897752
21
0.810307
0
LINE
8
BLACK
6
CONTINUOUS
10
0.897752
20
0.810307
11
0.899763
21
0.815701
0
LINE
8
BLACK
6
CONTINUOUS
10
0.899763
20
0.815701
11
0.90002
21
0.818085
0
LINE
8
BLACK
6
CONTINUOUS
10
0.90002
20
0.818085
11
0.90002
21
0.881915
0
LINE
8
BLACK
6
CONTINUOUS
10
0.90002
20
0.881915
11
0.9
21
0.882098
0
LINE
8
BLACK
6
CONTINUOUS
10
0.9
20
0.882098
11
0.899763
21
0.884299
0
LINE
8
BLACK
6
CONTINUOUS
10
0.899763
20
0.884299
11
0.899763
21
0.884299
0
LINE
8
BLACK
6
CONTINUOUS
10
0.899763
20
0.884299
11
0.897752
21
0.889693
0
LINE
8
BLACK
6
CONTINUOUS
10
0.897752
20
0.889693
11
0.897751
21
0.889693
0
LINE
8
BLACK
6
CONTINUOUS
10
0.897751
20
0.889693
11
0.894998
21
0.893372
0
LINE
8
BLACK
6
CONTINUOUS
10
0.894998
20
0.893372
11
0.894302
21
0.894302
0
LINE
8
BLACK
6
CONTINUOUS
10
0.894302
20
0.894302
11
0.894302
21
0.894302
0
LINE
8
BLACK
6
CONTINUOUS
10
0.894302
20
0.894302
11
0.891978
21
0.896041
0
LINE
8
BLACK
6
CONTINUOUS
10
0.891978
20
0.896041
11
0.890303
21
0.898279
0
LINE
8
BLACK
6
CONTINUOUS
10
0.890303
20
0.898279
11
0.890104
21
0.901067
0
LINE
8
BLACK
6
CONTINUOUS
10
0.890104
20
0.901067
11
0.891443
21
0.90352
0
LINE
8
BLACK
6
CONTINUOUS
10
0.891443
20
0.90352
11
0.891978
21
0.903984
0
LINE
8
BLACK
6
CONTINUOUS
10
0.891978
20
0.903984
11
0.894288
21
0.905712
0
LINE
8
BLACK
6
CONTINUOUS
10
0.894288
20
0.905712
11
0.897734
21
0.910316
0
LINE
8
BLACK
6
CONTINUOUS
10
0.897734
20
0.910316
11
0.897734
21
0.910316
0
LINE
8
BLACK
6
CONTINUOUS
10
0.897734
20
0.910316
11
0.899744
21
0.915705
0
LINE
8
BLACK
6
CONTINUOUS
10
0.899744
20
0.915705
11
0.9
21
0.918087
0
LINE
8
BLACK
6
CONTINUOUS
10
0.9
20
0.918087
11
0.9
21
0.918087
0
LINE
8
BLACK
6
CONTINUOUS
10
0.9
20
0.918087
11
0.9
21
0.94
0
LINE
8
BLACK
6
CONTINUOUS
10
0.9
20
0.94
11
0.88
21
0.94
0
LINE
8
BLACK
6
CONTINUOUS
10
0.88
20
0.94
11
0.88
21
0.92
0
LINE
8
BLACK
6
CONTINUOUS
10
0.88
20
0.92
11
0.82
21
0.92
0
LINE
8
BLACK
6
CONTINUOUS
10
0.82
20
0.92
11
0.82
21
0.94
0
LINE
8
BLACK
6
CONTINUOUS
10
0.82
20
0.94
11
0.78
21
0.94
0
LINE
8
BLACK
6
CONTINUOUS
10
0.78
20
0.94
11
0.78
21
0.92
0
LINE
8
BLACK
6
CONTINUOUS
10
0.78
20
0.92
11
0.72
21
0.92
0
LINE
8
BLACK
6
CONTINUOUS
10
0.72
20
0.92
11
0.72
21
0.94
0
LINE
8
BLACK
6
CONTINUOUS
10
0.72
20
0.94
11
0.7
21
0.94
0
LINE
8
BLACK
6
CONTINUOUS
10
0.7
20
0.94
11
0.7
21
0.918087
0
LINE
8
BLACK
6
CONTINUOUS
10
0.7
20
0.918087
11
0.700256
21
0.915705
0
LINE
8
BLACK
6
CONTINUOUS
10
0.700256
20
0.915705
11
0.702266
21
0.910316
0
LINE
8
BLACK
6
CONTINUOUS
10
0.702266
20
0.910316
11
0.702266
21
0.910316
0
LINE
8
BLACK
6
CONTINUOUS
10
0.702266
20
0.910316
11
0.705712
21
0.905712
0
LINE
8
BLACK
6
CONTINUOUS
10
0.705712
20
0.905712
11
0.708022
21
0.903984
0
LINE
8
BLACK
6
CONTINUOUS
10
0.708022
20
0.903984
11
0.709697
21
0.901746
0
LINE
8
BLACK
6
CONTINUOUS
10
0.709697
20
0.901746
11
0.709896
21
0.898958
0
LINE
8
BLACK
6
CONTINUOUS
10
0.709896
20
0.898958
11
0.708557
21
0.896505
0
LINE
8
BLACK
6
CONTINUOUS
10
0.708557
20
0.896505
11
0.708022
21
0.896041
0
LINE
8
BLACK
6
CONTINUOUS
10
0.708022
20
0.896041
11
0.705698
21
0.894302
0
LINE
8
BLACK
6
CONTINUOUS
10
0.705698
20
0.894302
11
0.702249
21
0.889693
0
LINE
8
BLACK
6
CONTINUOUS
10
0.702249
20
0.889693
11
0.702248
21
0.889693
0
LINE
8
BLACK
6
CONTINUOUS
10
0.702248
20
0.889693
11
0.700237
21
0.884299
0
LINE
8
BLACK
6
CONTINUOUS
10
0.700237
20
0.884299
11
0.700237
21
0.884299
0
LINE
8
BLACK
6
CONTINUOUS
10
0.700237
20
0.884299
11
0.69998
21
0.881915
0
LINE
8
BLACK
6
CONTINUOUS
10
0.69998
20
0.881915
11
0.69998
21
0.818085
0
LINE
8
BLACK
6
CONTINUOUS
10
0.69998
20
0.818085
11
0.700237
21
0.815701
0
LINE
8
BLACK
6
CONTINUOUS
10
0.700237
20
0.815701
11
0.700237
21
0.815701
0
LINE
8
BLACK
6
CONTINUOUS
10
0.700237
20
0.815701
11
0.702248
21
0.810307
0
LINE
8
BLACK
6
CONTINUOUS
10
0.702248
20
0.810307
11
0.702249
21
0.810307
0
LINE
8
BLACK
6
CONTINUOUS
10
0.702249
20
0.810307
11
0.705698
21
0.805698
0
LINE
8
BLACK
6
CONTINUOUS
10
0.705698
20
0.805698
11
0.708006
21
0.803971
0
LINE
8
BLACK
6
CONTINUOUS
10
0.708006
20
0.803971
11
0.709681
21
0.801734
0
LINE
8
BLACK
6
CONTINUOUS
10
0.709681
20
0.801734
11
0.70988
21
0.798946
0
LINE
8
BLACK
6
CONTINUOUS
10
0.70988
20
0.798946
11
0.70854
21
0.796492
0
LINE
8
BLACK
6
CONTINUOUS
10
0.70854
20
0.796492
11
0.708006
21
0.796029
0
LINE
8
BLACK
6
CONTINUOUS
10
0.708006
20
0.796029
11
0.705698
21
0.794302
0
LINE
8
BLACK
6
CONTINUOUS
10
0.705698
20
0.794302
11
0.702249
21
0.789693
0
LINE
8
BLACK
6
CONTINUOUS
10
0.702249
20
0.789693
11
0.702248
21
0.789693
0
LINE
8
BLACK
6
CONTINUOUS
10
0.702248
20
0.789693
11
0.700237
21
0.784299
0
LINE
8
BLACK
6
CONTINUOUS
10
0.700237
20
0.784299
11
0.700237
21
0.784299
0
LINE
8
BLACK
6
CONTINUOUS
10
0.700237
20
0.784299
11
0.69998
21
0.781915
0
LINE
8
BLACK
6
CONTINUOUS
10
0.69998
20
0.781915
11
0.69998
21
0.718085
0
LINE
8
BLACK
6
CONTINUOUS
10
0.69998
20
0.718085
11
0.700237
21
0.715701
0
LINE
8
BLACK
6
CONTINUOUS
10
-0.158311
20
0.944169
11
-0.161695
21
0.939649
0
LINE
8
BLACK
6
CONTINUOUS
10
-0.161695
20
0.939649
11
-0.166709
21
0.930465
0
LINE
8
BLACK
6
CONTINUOUS
10
-0.166709
20
0.930465
11
-0.170366
21
0.920661
0
LINE
8
BLACK
6
CONTINUOUS
10
-0.170366
20
0.920661
11
-0.17259
21
0.910437
0
LINE
8
BLACK
6
CONTINUOUS
10
-0.17259
20
0.910437
11
-0.173336
21
0.9
0
LINE
8
BLACK
6
CONTINUOUS
10
-0.173336
20
0.9
11
-0.17259
21
0.889563
0
LINE
8
BLACK
6
CONTINUOUS
10
-0.17259
20
0.889563
11
-0.170366
21
0.879339
0
LINE
8
BLACK
6
CONTINUOUS
10
-0.170366
20
0.879339
11
-0.166709
21
0.869535
0
LINE
8
BLACK
6
CONTINUOUS
10
-0.166709
20
0.869535
11
-0.161695
21
0.860351
0
LINE
8
BLACK
6
CONTINUOUS
10
-0.161695
20
0.860351
11
-0.158311
21
0.855831
0
LINE
8
BLACK
6
CONTINUOUS
10
-0.158311
20
0.855831
11
-0.158311
21
0.855831
0
LINE
8
BLACK
6
CONTINUOUS
10
-0.158311
20
0.855831
11
-0.143841
21
0.870301
0
LINE
8
BLACK
6
CONTINUOUS
10
-0.143841
20
0.870301
11
-0.146029
21
0.873425
0
LINE
8
BLACK
6
CONTINUOUS
10
-0.146029
20
0.873425
11
-0.149944
21
0.881822
0
LINE
8
BLACK
6
CONTINUOUS
10
-0.149944
20
0.881822
11
-0.152342
21
0.890771
0
LINE
8
BLACK
6
CONTINUOUS
10
-0.152342
20
0.890771
11
-0.15315
21
0.9
0
LINE
8
BLACK
6
CONTINUOUS
10
-0.15315
20
0.9
11
-0.152342
21
0.909229
0
LINE
8
BLACK
6
CONTINUOUS
10
-0.152342
20
0.909229
11
-0.149944
21
0.918178
0
LINE
8
BLACK
6
CONTINUOUS
10
-0.149944
20
0.918178
11
-0.146029
21
0.926575
0
LINE
8
BLACK
6
CONTINUOUS
10
-0.146029
20
0.926575
11
-0.143841
21
0.929699
0
LINE
8
BLACK
6
CONTINUOUS
10
-0.143841
20
0.929699
11
-0.158311
21
0.944169
0
LINE
8
BLACK
6
CONTINUOUS
10
-0.158311
20
0.944169
11
-0.158311
21
0.944169
0
LINE
8
BLACK
6
CONTINUOUS
10
0.143841
20
0.929699
11
0.146029
21
0.926575
0
LINE
8
BLACK
6
CONTINUOUS
10
0.146029
20
0.926575
11
0.149944
21
0.918178
0
LINE
8
BLACK
6
CONTINUOUS
10
0.149944
20
0.918178
11
0.152342
21
0.909229
0
LINE
8
BLACK
6
CONTINUOUS
10
0.152342
20
0.909229
11
0.15315
21
0.9
0
LINE
8
BLACK
6
CONTINUOUS
10
0.15315
20
0.9
11
0.152342
21
0.890771
0
LINE
8
BLACK
6
CONTINUOUS
10
0.152342
20
0.890771
11
0.149944
21
0.881822
0
LINE
8
BLACK
6
CONTINUOUS
10
0.149944
20
0.881822
11
0.146029
21
0.873425
0
LINE
8
BLACK
6
CONTINUOUS
10
0.146029
20
0.873425
11
0.143841
21
0.870301
0
LINE
8
BLACK
6
CONTINUOUS
10
0.143841
20
0.870301
11
0.158311
21
0.855831
0
LINE
8
BLACK
6
CONTINUOUS
10
0.158311
20
0.855831
11
0.158311
21
0.855831
0
LINE
8
BLACK
6
CONTINUOUS
10
0.158311
20
0.855831
11
0.161695
21
0.860351
0
LINE
8
BLACK
6
CONTINUOUS
10
0.161695
20
0.860351
11
0.166709
21
0.869535
0
LINE
8
BLACK
6
CONTINUOUS
10
0.166709
20
0.869535
11
0.170366
21
0.879339
0
LINE
8
BLACK
6
CONTINUOUS
10
0.170366
20
0.879339
11
0.17259
21
0.889563
0
LINE
8
BLACK
6
CONTINUOUS
10
0.17259
20
0.889563
11
0.173336
21
0.9
0
LINE
8
BLACK
6
CONTINUOUS
10
0.173336
20
0.9
11
0.17259
21
0.910437
0
LINE
8
BLACK
6
CONTINUOUS
10
0.17259
20
0.910437
11
0.170366
21
0.920661
0
LINE
8
BLACK
6
CONTINUOUS
10
0.170366
20
0.920661
11
0.166709
21
0.930465
0
LINE
8
BLACK
6
CONTINUOUS
10
0.166709
20
0.930465
11
0.161694
21
0.939649
0
LINE
8
BLACK
6
CONTINUOUS
10
0.161694
20
0.939649
11
0.158311
21
0.944169
0
LINE
8
BLACK
6
CONTINUOUS
10
0.158311
20
0.944169
11
0.158311
21
0.944169
0
LINE
8
BLACK
6
CONTINUOUS
10
0.158311
20
0.944169
11
0.143841
21
0.929699
0
LINE
8
BLACK
6
CONTINUOUS
10
-0.110437
20
0.97259
11
-0.120661
21
0.970366
0
LINE
8
BLACK
6
CONTINUOUS
10
-0.120661
20
0.970366
11
-0.130465
21
0.966709
0
LINE
8
BLACK
6
CONTINUOUS
10
-0.130465
20
0.966709
11
-0.139649
21
0.961695
0
LINE
8
BLACK
6
CONTINUOUS
10
-0.139649
20
0.961695
11
-0.144169
21
0.958311
0
LINE
8
BLACK
6
CONTINUOUS
10
-0.144169
20
0.958311
11
-0.144169
21
0.958311
0
LINE
8
BLACK
6
CONTINUOUS
10
-0.144169
20
0.958311
11
-0.129699
21
0.943841
0
LINE
8
BLACK
6
CONTINUOUS
10
-0.129699
20
0.943841
11
-0.126575
21
0.946029
0
LINE
8
BLACK
6
CONTINUOUS
10
-0.126575
20
0.946029
11
-0.118178
21
0.949944
0
LINE
8
BLACK
6
CONTINUOUS
10
-0.118178
20
0.949944
11
-0.109229
21
0.952342
0
LINE
8
BLACK
6
CONTINUOUS
10
-0.109229
20
0.952342
11
-0.1
21
0.95315
0
LINE
8
BLACK
6
CONTINUOUS
10
-0.1
20
0.95315
11
-0.0907707
21
0.952342
0
LINE
8
BLACK
6
CONTINUOUS
10
-0.0907707
20
0.952342
11
-0.0818218
21
0.949944
0
LINE
8
BLACK
6
CONTINUOUS
10
-0.0818218
20
0.949944
11
-0.0734252
21
0.946029
0
LINE
8
BLACK
6
CONTINUOUS
10
-0.0734252
20
0.946029
11
-0.0703009
21
0.943841
0
LINE
8
BLACK
6
CONTINUOUS
10
-0.0703009
20
0.943841
11
-0.0558313
21
0.958311
0
LINE
8
BLACK
6
CONTINUOUS
10
-0.0558313
20
0.958311
11
-0.0603513
21
0.961695
0
LINE
8
BLACK
6
CONTINUOUS
10
-0.0603513
20
0.961695
11
-0.0695349
21
0.966709
0
LINE
8
BLACK
6
CONTINUOUS
10
-0.0695349
20
0.966709
11
-0.0793389
21
0.970366
0
LINE
8
BLACK
6
CONTINUOUS
10
-0.0793389
20
0.970366
11
-0.0895633
21
0.97259
0
LINE
8
BLACK
6
CONTINUOUS
10
-0.0895633
20
0.97259
11
-0.1
21
0.973336
0
LINE
8
BLACK
6
CONTINUOUS
10
-0.1
20
0.973336
11
-0.110437
21
0.97259
0
LINE
8
BLACK
6
CONTINUOUS
10
0.0895633
20
0.97259
11
0.0793388
21
0.970366
0
LINE
8
BLACK
6
CONTINUOUS
10
0.0793388
20
0.970366
11
0.0695348
21
0.966709
0
LINE
8
BLACK
6
CONTINUOUS
10
0.0695348
20
0.966709
11
0.0603513
21
0.961695
0
LINE
8
BLACK
6
CONTINUOUS
10
0.0603513
20
0.961695
11
0.0558312
21
0.958311
0
LINE
8
BLACK
6
CONTINUOUS
10
0.0558312
20
0.958311
11
0.0558312
21
0.958311
0
LINE
8
BLACK
6
CONTINUOUS
10
0.0558312
20
0.958311
11
0.0703009
21
0.943841
0
LINE
8
BLACK
6
CONTINUOUS
10
0.0703009
20
0.943841
11
0.0734252
21
0.946029
0
LINE
8
BLACK
6
CONTINUOUS
10
0.0734252
20
0.946029
11
0.0818218
21
0.949944
0
LINE
8
BLACK
6
CONTINUOUS
10
0.0818218
20
0.949944
11
0.0907707
21
0.952342
0
LINE
8
BLACK
6
CONTINUOUS
10
0.0907707
20
0.952342
11
0.1
21
0.95315
0
LINE
8
BLACK
6
CONTINUOUS
10
0.1
20
0.95315
11
0.109229
21
0.952342
0
LINE
8
BLACK
6
CONTINUOUS
10
0.109229
20
0.952342
11
0.118178
21
0.949944
0
LINE
8
BLACK
6
CONTINUOUS
10
0.118178
20
0.949944
11
0.126575
21
0.946029
0
LINE
8
BLACK
6
CONTINUOUS
10
0.126575
20
0.946029
11
0.129699
21
0.943841
0
LINE
8
BLACK
6
CONTINUOUS
10
0.129699
20
0.943841
11
0.144169
21
0.958311
0
LINE
8
BLACK
6
CONTINUOUS
10
0.144169
20
0.958311
11
0.139649
21
0.961695
0
LINE
8
BLACK
6
CONTINUOUS
10
0.139649
20
0.961695
11
0.130465
21
0.966709
0
LINE
8
BLACK
6
CONTINUOUS
10
0.130465
20
0.966709
11
0.120661
21
0.970366
0
LINE
8
BLACK
6
CONTINUOUS
10
0.120661
20
0.970366
11
0.110437
21
0.97259
0
LINE
8
BLACK
6
CONTINUOUS
10
0.110437
20
0.97259
11
0.1
21
0.973336
0
LINE
8
BLACK
6
CONTINUOUS
10
0.1
20
0.973336
11
0.0895633
21
0.97259
0
LINE
8
BLACK
6
CONTINUOUS
10
0.86
20
0.98
11
0.88
21
0.98
0
LINE
8
BLACK
6
CONTINUOUS
10
0.88
20
0.98
11
0.88
21
0.96
0
LINE
8
BLACK
6
CONTINUOUS
10
0.88
20
0.96
11
0.9
21
0.96
0
LINE
8
BLACK
6
CONTINUOUS
10
0.9
20
0.96
11
0.9
21
0.981913
0
LINE
8
BLACK
6
CONTINUOUS
10
0.9
20
0.981913
11
0.9
21
0.981913
0
LINE
8
BLACK
6
CONTINUOUS
10
0.9
20
0.981913
11
0.899744
21
0.984295
0
LINE
8
BLACK
6
CONTINUOUS
10
0.899744
20
0.984295
11
0.897734
21
0.989684
0
LINE
8
BLACK
6
CONTINUOUS
10
0.897734
20
0.989684
11
0.897734
21
0.989684
0
LINE
8
BLACK
6
CONTINUOUS
10
0.897734
20
0.989684
11
0.894288
21
0.994288
0
LINE
8
BLACK
6
CONTINUOUS
10
0.894288
20
0.994288
11
0.889684
21
0.997734
0
LINE
8
BLACK
6
CONTINUOUS
10
0.889684
20
0.997734
11
0.884295
21
0.999744
0
LINE
8
BLACK
6
CONTINUOUS
10
0.884295
20
0.999744
11
0.881913
21
1
0
LINE
8
BLACK
6
CONTINUOUS
10
0.881913
20
1
11
0.86
21
1
0
LINE
8
BLACK
6
CONTINUOUS
10
0.86
20
1
11
0.86
21
0.98
0
LINE
8
BLACK
6
CONTINUOUS
10
0.76
20
0.98
11
0.78
21
0.98
0
LINE
8
BLACK
6
CONTINUOUS
10
0.78
20
0.98
11
0.78
21
0.96
0
LINE
8
BLACK
6
CONTINUOUS
10
0.78
20
0.96
11
0.82
21
0.96
0
LINE
8
BLACK
6
CONTINUOUS
10
0.82
20
0.96
11
0.82
21
0.98
0
LINE
8
BLACK
6
CONTINUOUS
10
0.82
20
0.98
11
0.84
21
0.98
0
LINE
8
BLACK
6
CONTINUOUS
10
0.84
20
0.98
11
0.84
21
1
0
LINE
8
BLACK
6
CONTINUOUS
10
0.84
20
1
11
0.818087
21
1
0
LINE
8
BLACK
6
CONTINUOUS
10
0.818087
20
1
11
0.815705
21
0.999744
0
LINE
8
BLACK
6
CONTINUOUS
10
0.815705
20
0.999744
11
0.810316
21
0.997734
0
LINE
8
BLACK
6
CONTINUOUS
10
0.810316
20
0.997734
11
0.810316
21
0.997734
0
LINE
8
BLACK
6
CONTINUOUS
10
0.810316
20
0.997734
11
0.805712
21
0.994288
0
LINE
8
BLACK
6
CONTINUOUS
10
0.805712
20
0.994288
11
0.803971
21
0.991962
0
LINE
8
BLACK
6
CONTINUOUS
10
0.803971
20
0.991962
11
0.801734
21
0.990286
0
LINE
8
BLACK
6
CONTINUOUS
10
0.801734
20
0.990286
11
0.798946
21
0.990087
0
LINE
8
BLACK
6
CONTINUOUS
10
0.798946
20
0.990087
11
0.796492
21
0.991427
0
LINE
8
BLACK
6
CONTINUOUS
10
0.796492
20
0.991427
11
0.796029
21
0.991962
0
LINE
8
BLACK
6
CONTINUOUS
10
0.796029
20
0.991962
11
0.794287
21
0.994288
0
LINE
8
BLACK
6
CONTINUOUS
10
0.794287
20
0.994288
11
0.789684
21
0.997734
0
LINE
8
BLACK
6
CONTINUOUS
10
0.789684
20
0.997734
11
0.784295
21
0.999744
0
LINE
8
BLACK
6
CONTINUOUS
10
0.784295
20
0.999744
11
0.781913
21
1
0
LINE
8
BLACK
6
CONTINUOUS
10
0.781913
20
1
11
0.76
21
1
0
LINE
8
BLACK
6
CONTINUOUS
10
0.76
20
1
11
0.76
21
0.98
0
LINE
8
BLACK
6
CONTINUOUS
10
0.715705
20
0.999744
11
0.710316
21
0.997734
0
LINE
8
BLACK
6
CONTINUOUS
10
0.710316
20
0.997734
11
0.710316
21
0.997734
0
LINE
8
BLACK
6
CONTINUOUS
10
0.710316
20
0.997734
11
0.705712
21
0.994288
0
LINE
8
BLACK
6
CONTINUOUS
10
0.705712
20
0.994288
11
0.702266
21
0.989684
0
LINE
8
BLACK
6
CONTINUOUS
10
0.702266
20
0.989684
11
0.702266
21
0.989684
0
LINE
8
BLACK
6
CONTINUOUS
10
0.702266
20
0.989684
11
0.700256
21
0.984295
0
LINE
8
BLACK
6
CONTINUOUS
10
0.700256
20
0.984295
11
0.7
21
0.981913
0
LINE
8
BLACK
6
CONTINUOUS
10
0.7
20
0.981913
11
0.7
21
0.96
0
LINE
8
BLACK
6
CONTINUOUS
10
0.7
20
0.96
11
0.72
21
0.96
0
LINE
8
BLACK
6
CONTINUOUS
10
0.72
20
0.96
11
0.72
21
0.98
0
LINE
8
BLACK
6
CONTINUOUS
10
0.72
20
0.98
11
0.74
21
0.98
0
LINE
8
BLACK
6
CONTINUOUS
10
0.74
20
0.98
11
0.74
21
1
0
LINE
8
BLACK
6
CONTINUOUS
10
0.74
20
1
11
0.718087
21
1
0
LINE
8
BLACK
6
CONTINUOUS
10
0.718087
20
1
11
0.715705
21
0.999744
0
LINE
8
BLACK
6
CONTINUOUS
10
0.326575
20
1.05397
11
0.318178
21
1.05006
0
LINE
8
BLACK
6
CONTINUOUS
10
0.318178
20
1.05006
11
0.309229
21
1.04766
0
LINE
8
BLACK
6
CONTINUOUS
10
0.309229
20
1.04766
11
0.3
21
1.04685
0
LINE
8
BLACK
6
CONTINUOUS
10
0.3
20
1.04685
11
0.290771
21
1.04766
0
LINE
8
BLACK
6
CONTINUOUS
10
0.290771
20
1.04766
11
0.281822
21
1.05006
0
LINE
8
BLACK
6
CONTINUOUS
10
0.281822
20
1.05006
11
0.273425
21
1.05397
0
LINE
8
BLACK
6
CONTINUOUS
10
0.273425
20
1.05397
11
0.270301
21
1.05616
0
LINE
8
BLACK
6
CONTINUOUS
10
0.270301
20
1.05616
11
0.255831
21
1.04169
0
LINE
8
BLACK
6
CONTINUOUS
10
0.255831
20
1.04169
11
0.255831
21
1.04169
0
LINE
8
BLACK
6
CONTINUOUS
10
0.255831
20
1.04169
11
0.260351
21
1.03831
0
LINE
8
BLACK
6
CONTINUOUS
10
0.260351
20
1.03831
11
0.269535
21
1.03329
0
LINE
8
BLACK
6
CONTINUOUS
10
0.269535
20
1.03329
11
0.279339
21
1.02963
0
LINE
8
BLACK
6
CONTINUOUS
10
0.279339
20
1.02963
11
0.289563
21
1.02741
0
LINE
8
BLACK
6
CONTINUOUS
10
0.289563
20
1.02741
11
0.3
21
1.02666
0
LINE
8
BLACK
6
CONTINUOUS
10
0.3
20
1.02666
11
0.310437
21
1.02741
0
LINE
8
BLACK
6
CONTINUOUS
10
0.310437
20
1.02741
11
0.320661
21
1.02963
0
LINE
8
BLACK
6
CONTINUOUS
10
0.320661
20
1.02963
11
0.330465
21
1.03329
0
LINE
8
BLACK
6
CONTINUOUS
10
0.330465
20
1.03329
11
0.339649
21
1.03831
0
LINE
8
BLACK
6
CONTINUOUS
10
0.339649
20
1.03831
11
0.344169
21
1.04169
0
LINE
8
BLACK
6
CONTINUOUS
10
0.344169
20
1.04169
11
0.344169
21
1.04169
0
LINE
8
BLACK
6
CONTINUOUS
10
0.344169
20
1.04169
11
0.329699
21
1.05616
0
LINE
8
BLACK
6
CONTINUOUS
10
0.329699
20
1.05616
11
0.326575
21
1.05397
0
LINE
8
BLACK
6
CONTINUOUS
10
0.526575
20
1.05397
11
0.518178
21
1.05006
0
LINE
8
BLACK
6
CONTINUOUS
10
0.518178
20
1.05006
11
0.509229
21
1.04766
0
LINE
8
BLACK
6
CONTINUOUS
10
0.509229
20
1.04766
11
0.5
21
1.04685
0
LINE
8
BLACK
6
CONTINUOUS
10
0.5
20
1.04685
11
0.490771
21
1.04766
0
LINE
8
BLACK
6
CONTINUOUS
10
0.490771
20
1.04766
11
0.481822
21
1.05006
0
LINE
8
BLACK
6
CONTINUOUS
10
0.481822
20
1.05006
11
0.473425
21
1.05397
0
LINE
8
BLACK
6
CONTINUOUS
10
0.473425
20
1.05397
11
0.470301
21
1.05616
0
LINE
8
BLACK
6
CONTINUOUS
10
0.470301
20
1.05616
11
0.455831
21
1.04169
0
LINE
8
BLACK
6
CONTINUOUS
10
0.455831
20
1.04169
11
0.455831
21
1.04169
0
LINE
8
BLACK
6
CONTINUOUS
10
0.455831
20
1.04169
11
0.460351
21
1.03831
0
LINE
8
BLACK
6
CONTINUOUS
10
0.460351
20
1.03831
11
0.469535
21
1.03329
0
LINE
8
BLACK
6
CONTINUOUS
10
0.469535
20
1.03329
11
0.479339
21
1.02963
0
LINE
8
BLACK
6
CONTINUOUS
10
0.479339
20
1.02963
11
0.489563
21
1.02741
0
LINE
8
BLACK
6
CONTINUOUS
10
0.489563
20
1.02741
11
0.5
21
1.02666
0
LINE
8
BLACK
6
CONTINUOUS
10
0.5
20
1.02666
11
0.510437
21
1.02741
0
LINE
8
BLACK
6
CONTINUOUS
10
0.510437
20
1.02741
11
0.520661
21
1.02963
0
LINE
8
BLACK
6
CONTINUOUS
10
0.520661
20
1.02963
11
0.530465
21
1.03329
0
LINE
8
BLACK
6
CONTINUOUS
10
0.530465
20
1.03329
11
0.539649
21
1.03831
0
LINE
8
BLACK
6
CONTINUOUS
10
0.539649
20
1.03831
11
0.544169
21
1.04169
0
LINE
8
BLACK
6
CONTINUOUS
10
0.544169
20
1.04169
11
0.544169
21
1.04169
0
LINE
8
BLACK
6
CONTINUOUS
10
0.544169
20
1.04169
11
0.529699
21
1.05616
0
LINE
8
BLACK
6
CONTINUOUS
10
0.529699
20
1.05616
11
0.526575
21
1.05397
0
LINE
8
BLACK
6
CONTINUOUS
10
0.241689
20
1.14417
11
0.238305
21
1.13965
0
LINE
8
BLACK
6
CONTINUOUS
10
0.238305
20
1.13965
11
0.233291
21
1.13047
0
LINE
8
BLACK
6
CONTINUOUS
10
0.233291
20
1.13047
11
0.229634
21
1.12066
0
LINE
8
BLACK
6
CONTINUOUS
10
0.229634
20
1.12066
11
0.22741
21
1.11044
0
LINE
8
BLACK
6
CONTINUOUS
10
0.22741
20
1.11044
11
0.226664
21
1.1
0
LINE
8
BLACK
6
CONTINUOUS
10
0.226664
20
1.1
11
0.22741
21
1.08956
0
LINE
8
BLACK
6
CONTINUOUS
10
0.22741
20
1.08956
11
0.229634
21
1.07934
0
LINE
8
BLACK
6
CONTINUOUS
10
0.229634
20
1.07934
11
0.233291
21
1.06953
0
LINE
8
BLACK
6
CONTINUOUS
10
0.233291
20
1.06953
11
0.238305
21
1.06035
0
LINE
8
BLACK
6
CONTINUOUS
10
0.238305
20
1.06035
11
0.241689
21
1.05583
0
LINE
8
BLACK
6
CONTINUOUS
10
0.241689
20
1.05583
11
0.241689
21
1.05583
0
LINE
8
BLACK
6
CONTINUOUS
10
0.241689
20
1.05583
11
0.256159
21
1.0703
0
LINE
8
BLACK
6
CONTINUOUS
10
0.256159
20
1.0703
11
0.253971
21
1.07343
0
LINE
8
BLACK
6
CONTINUOUS
10
0.253971
20
1.07343
11
0.250056
21
1.08182
0
LINE
8
BLACK
6
CONTINUOUS
10
0.250056
20
1.08182
11
0.247658
21
1.09077
0
LINE
8
BLACK
6
CONTINUOUS
10
0.247658
20
1.09077
11
0.24685
21
1.1
0
LINE
8
BLACK
6
CONTINUOUS
10
0.24685
20
1.1
11
0.247658
21
1.10923
0
LINE
8
BLACK
6
CONTINUOUS
10
0.247658
20
1.10923
11
0.250056
21
1.11818
0
LINE
8
BLACK
6
CONTINUOUS
10
0.250056
20
1.11818
11
0.253971
21
1.12657
0
LINE
8
BLACK
6
CONTINUOUS
10
0.253971
20
1.12657
11
0.256159
21
1.1297
0
LINE
8
BLACK
6
CONTINUOUS
10
0.256159
20
1.1297
11
0.241689
21
1.14417
0
LINE
8
BLACK
6
CONTINUOUS
10
0.241689
20
1.14417
11
0.241689
21
1.14417
0
LINE
8
BLACK
6
CONTINUOUS
10
0.441689
20
1.34417
11
0.438305
21
1.33965
0
LINE
8
BLACK
6
CONTINUOUS
10
0.438305
20
1.33965
11
0.433291
21
1.33047
0
LINE
8
BLACK
6
CONTINUOUS
10
0.433291
20
1.33047
11
0.429634
21
1.32066
0
LINE
8
BLACK
6
CONTINUOUS
10
0.429634
20
1.32066
11
0.42741
21
1.31044
0
LINE
8
BLACK
6
CONTINUOUS
10
0.42741
20
1.31044
11
0.426664
21
1.3
0
LINE
8
BLACK
6
CONTINUOUS
10
0.426664
20
1.3
11
0.42741
21
1.28956
0
LINE
8
BLACK
6
CONTINUOUS
10
0.42741
20
1.28956
11
0.429634
21
1.27934
0
LINE
8
BLACK
6
CONTINUOUS
10
0.429634
20
1.27934
11
0.432949
21
1.27045
0
LINE
8
BLACK
6
CONTINUOUS
10
0.432949
20
1.27045
11
0.433148
21
1.26766
0
LINE
8
BLACK
6
CONTINUOUS
10
0.433148
20
1.26766
11
0.431808
21
1.26521
0
LINE
8
BLACK
6
CONTINUOUS
10
0.431808
20
1.26521
11
0.429355
21
1.26387
0
LINE
8
BLACK
6
CONTINUOUS
10
0.429355
20
1.26387
11
0.426567
21
1.26407
0
LINE
8
BLACK
6
CONTINUOUS
10
0.426567
20
1.26407
11
0.426148
21
1.26425
0
LINE
8
BLACK
6
CONTINUOUS
10
0.426148
20
1.26425
11
0.425364
21
1.26463
0
LINE
8
BLACK
6
CONTINUOUS
10
0.425364
20
1.26463
11
0.425364
21
1.26463
0
LINE
8
BLACK
6
CONTINUOUS
10
0.425364
20
1.26463
11
0.415449
21
1.26769
0
LINE
8
BLACK
6
CONTINUOUS
10
0.415449
20
1.26769
11
0.415449
21
1.26769
0
LINE
8
BLACK
6
CONTINUOUS
10
0.415449
20
1.26769
11
0.415449
21
1.26769
0
LINE
8
BLACK
6
CONTINUOUS
10
0.415449
20
1.26769
11
0.405188
21
1.26923
0
LINE
8
BLACK
6
CONTINUOUS
10
0.405188
20
1.26923
11
0.394812
21
1.26923
0
LINE
8
BLACK
6
CONTINUOUS
10
0.394812
20
1.26923
11
0.384551
21
1.26769
0
LINE
8
BLACK
6
CONTINUOUS
10
0.384551
20
1.26769
11
0.384551
21
1.26769
0
LINE
8
BLACK
6
CONTINUOUS
10
0.384551
20
1.26769
11
0.384551
21
1.26769
0
LINE
8
BLACK
6
CONTINUOUS
10
0.384551
20
1.26769
11
0.374636
21
1.26463
0
LINE
8
BLACK
6
CONTINUOUS
10
0.374636
20
1.26463
11
0.374635
21
1.26463
0
LINE
8
BLACK
6
CONTINUOUS
10
0.374635
20
1.26463
11
0.373851
21
1.26425
0
LINE
8
BLACK
6
CONTINUOUS
10
0.373851
20
1.26425
11
0.371094
21
1.2638
0
LINE
8
BLACK
6
CONTINUOUS
10
0.371094
20
1.2638
11
0.368528
21
1.2649
0
LINE
8
BLACK
6
CONTINUOUS
10
0.368528
20
1.2649
11
0.366969
21
1.26722
0
LINE
8
BLACK
6
CONTINUOUS
10
0.366969
20
1.26722
11
0.366912
21
1.27002
0
LINE
8
BLACK
6
CONTINUOUS
10
0.366912
20
1.27002
11
0.367051
21
1.27045
0
LINE
8
BLACK
6
CONTINUOUS
10
0.367051
20
1.27045
11
0.370366
21
1.27934
0
LINE
8
BLACK
6
CONTINUOUS
10
0.370366
20
1.27934
11
0.37259
21
1.28956
0
LINE
8
BLACK
6
CONTINUOUS
10
0.37259
20
1.28956
11
0.373336
21
1.3
0
LINE
8
BLACK
6
CONTINUOUS
10
0.373336
20
1.3
11
0.37259
21
1.31044
0
LINE
8
BLACK
6
CONTINUOUS
10
0.37259
20
1.31044
11
0.370366
21
1.32066
0
LINE
8
BLACK
6
CONTINUOUS
10
0.370366
20
1.32066
11
0.366709
21
1.33047
0
LINE
8
BLACK
6
CONTINUOUS
10
0.366709
20
1.33047
11
0.361694
21
1.33965
0
LINE
8
BLACK
6
CONTINUOUS
10
0.361694
20
1.33965
11
0.358311
21
1.34417
0
LINE
8
BLACK
6
CONTINUOUS
10
0.358311
20
1.34417
11
0.358311
21
1.34417
0
LINE
8
BLACK
6
CONTINUOUS
10
0.358311
20
1.34417
11
0.343841
21
1.3297
0
LINE
8
BLACK
6
CONTINUOUS
10
0.343841
20
1.3297
11
0.346029
21
1.32657
0
LINE
8
BLACK
6
CONTINUOUS
10
0.346029
20
1.32657
11
0.349944
21
1.31818
0
LINE
8
BLACK
6
CONTINUOUS
10
0.349944
20
1.31818
11
0.352342
21
1.30923
0
LINE
8
BLACK
6
CONTINUOUS
10
0.352342
20
1.30923
11
0.35315
21
1.3
0
LINE
8
BLACK
6
CONTINUOUS
10
0.35315
20
1.3
11
0.352342
21
1.29077
0
LINE
8
BLACK
6
CONTINUOUS
10
0.352342
20
1.29077
11
0.349944
21
1.28182
0
LINE
8
BLACK
6
CONTINUOUS
10
0.349944
20
1.28182
11
0.346029
21
1.27343
0
LINE
8
BLACK
6
CONTINUOUS
10
0.346029
20
1.27343
11
0.340715
21
1.26584
0
LINE
8
BLACK
6
CONTINUOUS
10
0.340715
20
1.26584
11
0.334164
21
1.25929
0
LINE
8
BLACK
6
CONTINUOUS
10
0.334164
20
1.25929
11
0.326575
21
1.25397
0
LINE
8
BLACK
6
CONTINUOUS
10
0.326575
20
1.25397
11
0.318178
21
1.25006
0
LINE
8
BLACK
6
CONTINUOUS
10
0.318178
20
1.25006
11
0.309229
21
1.24766
0
LINE
8
BLACK
6
CONTINUOUS
10
0.309229
20
1.24766
11
0.3
21
1.24685
0
LINE
8
BLACK
6
CONTINUOUS
10
0.3
20
1.24685
11
0.290771
21
1.24766
0
LINE
8
BLACK
6
CONTINUOUS
10
0.290771
20
1.24766
11
0.281822
21
1.25006
0
LINE
8
BLACK
6
CONTINUOUS
10
0.281822
20
1.25006
11
0.273425
21
1.25397
0
LINE
8
BLACK
6
CONTINUOUS
10
0.273425
20
1.25397
11
0.270301
21
1.25616
0
LINE
8
BLACK
6
CONTINUOUS
10
0.270301
20
1.25616
11
0.255831
21
1.24169
0
LINE
8
BLACK
6
CONTINUOUS
10
0.255831
20
1.24169
11
0.255831
21
1.24169
0
LINE
8
BLACK
6
CONTINUOUS
10
0.255831
20
1.24169
11
0.260351
21
1.23831
0
LINE
8
BLACK
6
CONTINUOUS
10
0.260351
20
1.23831
11
0.269535
21
1.23329
0
LINE
8
BLACK
6
CONTINUOUS
10
0.269535
20
1.23329
11
0.279339
21
1.22963
0
LINE
8
BLACK
6
CONTINUOUS
10
0.279339
20
1.22963
11
0.289563
21
1.22741
0
LINE
8
BLACK
6
CONTINUOUS
10
0.289563
20
1.22741
11
0.3
21
1.22666
0
LINE
8
BLACK
6
CONTINUOUS
10
0.3
20
1.22666
11
0.310437
21
1.22741
0
LINE
8
BLACK
6
CONTINUOUS
10
0.310437
20
1.22741
11
0.320661
21
1.22963
0
LINE
8
BLACK
6
CONTINUOUS
10
0.320661
20
1.22963
11
0.329692
21
1.233
0
LINE
8
BLACK
6
CONTINUOUS
10
0.329692
20
1.233
11
0.33248
21
1.2332
0
LINE
8
BLACK
6
CONTINUOUS
10
0.33248
20
1.2332
11
0.334934
21
1.23186
0
LINE
8
BLACK
6
CONTINUOUS
10
0.334934
20
1.23186
11
0.336273
21
1.22941
0
LINE
8
BLACK
6
CONTINUOUS
10
0.336273
20
1.22941
11
0.336074
21
1.22662
0
LINE
8
BLACK
6
CONTINUOUS
10
0.336074
20
1.22662
11
0.336044
21
1.22654
0
LINE
8
BLACK
6
CONTINUOUS
10
0.336044
20
1.22654
11
0.333658
21
1.22046
0
LINE
8
BLACK
6
CONTINUOUS
10
0.333658
20
1.22046
11
0.331349
21
1.21035
0
LINE
8
BLACK
6
CONTINUOUS
10
0.331349
20
1.21035
11
0.331349
21
1.21035
0
LINE
8
BLACK
6
CONTINUOUS
10
0.331349
20
1.21035
11
0.330574
21
1.2
0
LINE
8
BLACK
6
CONTINUOUS
10
0.330574
20
1.2
11
0.331349
21
1.18965
0
LINE
8
BLACK
6
CONTINUOUS
10
0.331349
20
1.18965
11
0.331349
21
1.18965
0
LINE
8
BLACK
6
CONTINUOUS
10
0.331349
20
1.18965
11
0.333658
21
1.17954
0
LINE
8
BLACK
6
CONTINUOUS
10
0.333658
20
1.17954
11
0.336044
21
1.17346
0
LINE
8
BLACK
6
CONTINUOUS
10
0.336044
20
1.17346
11
0.33629
21
1.17067
0
LINE
8
BLACK
6
CONTINUOUS
10
0.33629
20
1.17067
11
0.334993
21
1.1682
0
LINE
8
BLACK
6
CONTINUOUS
10
0.334993
20
1.1682
11
0.332563
21
1.16682
0
LINE
8
BLACK
6
CONTINUOUS
10
0.332563
20
1.16682
11
0.329772
21
1.16697
0
LINE
8
BLACK
6
CONTINUOUS
10
0.329772
20
1.16697
11
0.329692
21
1.167
0
LINE
8
BLACK
6
CONTINUOUS
10
0.329692
20
1.167
11
0.320661
21
1.17037
0
LINE
8
BLACK
6
CONTINUOUS
10
0.320661
20
1.17037
11
0.310437
21
1.17259
0
LINE
8
BLACK
6
CONTINUOUS
10
0.310437
20
1.17259
11
0.3
21
1.17334
0
LINE
8
BLACK
6
CONTINUOUS
10
0.3
20
1.17334
11
0.289563
21
1.17259
0
LINE
8
BLACK
6
CONTINUOUS
10
0.289563
20
1.17259
11
0.279339
21
1.17037
0
LINE
8
BLACK
6
CONTINUOUS
10
0.279339
20
1.17037
11
0.269535
21
1.16671
0
LINE
8
BLACK
6
CONTINUOUS
10
0.269535
20
1.16671
11
0.260351
21
1.16169
0
LINE
8
BLACK
6
CONTINUOUS
10
0.260351
20
1.16169
11
0.255831
21
1.15831
0
LINE
8
BLACK
6
CONTINUOUS
10
0.255831
20
1.15831
11
0.255831
21
1.15831
0
LINE
8
BLACK
6
CONTINUOUS
10
0.255831
20
1.15831
11
0.270301
21
1.14384
0
LINE
8
BLACK
6
CONTINUOUS
10
0.270301
20
1.14384
11
0.273425
21
1.14603
0
LINE
8
BLACK
6
CONTINUOUS
10
0.273425
20
1.14603
11
0.281822
21
1.14994
0
LINE
8
BLACK
6
CONTINUOUS
10
0.281822
20
1.14994
11
0.290771
21
1.15234
0
LINE
8
BLACK
6
CONTINUOUS
10
0.290771
20
1.15234
11
0.3
21
1.15315
0
LINE
8
BLACK
6
CONTINUOUS
10
0.3
20
1.15315
11
0.309229
21
1.15234
0
LINE
8
BLACK
6
CONTINUOUS
10
0.309229
20
1.15234
11
0.318178
21
1.14994
0
LINE
8
BLACK
6
CONTINUOUS
10
0.318178
20
1.14994
11
0.326575
21
1.14603
0
LINE
8
BLACK
6
CONTINUOUS
10
0.326575
20
1.14603
11
0.334164
21
1.14071
0
LINE
8
BLACK
6
CONTINUOUS
10
0.334164
20
1.14071
11
0.340715
21
1.13416
0
LINE
8
BLACK
6
CONTINUOUS
10
0.340715
20
1.13416
11
0.346029
21
1.12657
0
LINE
8
BLACK
6
CONTINUOUS
10
0.346029
20
1.12657
11
0.349944
21
1.11818
0
LINE
8
BLACK
6
CONTINUOUS
10
0.349944
20
1.11818
11
0.352342
21
1.10923
0
LINE
8
BLACK
6
CONTINUOUS
10
0.352342
20
1.10923
11
0.35315
21
1.1
0
LINE
8
BLACK
6
CONTINUOUS
10
0.35315
20
1.1
11
0.352342
21
1.09077
0
LINE
8
BLACK
6
CONTINUOUS
10
0.352342
20
1.09077
11
0.349944
21
1.08182
0
LINE
8
BLACK
6
CONTINUOUS
10
0.349944
20
1.08182
11
0.346029
21
1.07343
0
LINE
8
BLACK
6
CONTINUOUS
10
0.346029
20
1.07343
11
0.343841
21
1.0703
0
LINE
8
BLACK
6
CONTINUOUS
10
0.343841
20
1.0703
11
0.358311
21
1.05583
0
LINE
8
BLACK
6
CONTINUOUS
10
0.358311
20
1.05583
11
0.358311
21
1.05583
0
LINE
8
BLACK
6
CONTINUOUS
10
0.358311
20
1.05583
11
0.361695
21
1.06035
0
LINE
8
BLACK
6
CONTINUOUS
10
0.361695
20
1.06035
11
0.366709
21
1.06953
0
LINE
8
BLACK
6
CONTINUOUS
10
0.366709
20
1.06953
11
0.370366
21
1.07934
0
LINE
8
BLACK
6
CONTINUOUS
10
0.370366
20
1.07934
11
0.37259
21
1.08956
0
LINE
8
BLACK
6
CONTINUOUS
10
0.37259
20
1.08956
11
0.373336
21
1.1
0
LINE
8
BLACK
6
CONTINUOUS
10
0.373336
20
1.1
11
0.37259
21
1.11044
0
LINE
8
BLACK
6
CONTINUOUS
10
0.37259
20
1.11044
11
0.370366
21
1.12066
0
LINE
8
BLACK
6
CONTINUOUS
10
0.370366
20
1.12066
11
0.367051
21
1.12955
0
LINE
8
BLACK
6
CONTINUOUS
10
0.367051
20
1.12955
11
0.366852
21
1.13234
0
LINE
8
BLACK
6
CONTINUOUS
10
0.366852
20
1.13234
11
0.368192
21
1.13479
0
LINE
8
BLACK
6
CONTINUOUS
10
0.368192
20
1.13479
11
0.370645
21
1.13613
0
LINE
8
BLACK
6
CONTINUOUS
10
0.370645
20
1.13613
11
0.373433
21
1.13593
0
LINE
8
BLACK
6
CONTINUOUS
10
0.373433
20
1.13593
11
0.373852
21
1.13575
0
LINE
8
BLACK
6
CONTINUOUS
10
0.373852
20
1.13575
11
0.374636
21
1.13537
0
LINE
8
BLACK
6
CONTINUOUS
10
0.374636
20
1.13537
11
0.374636
21
1.13537
0
LINE
8
BLACK
6
CONTINUOUS
10
0.374636
20
1.13537
11
0.374636
21
1.13537
0
LINE
8
BLACK
6
CONTINUOUS
10
0.374636
20
1.13537
11
0.384551
21
1.13231
0
LINE
8
BLACK
6
CONTINUOUS
10
0.384551
20
1.13231
11
0.384551
21
1.13231
0
LINE
8
BLACK
6
CONTINUOUS
10
0.384551
20
1.13231
11
0.384551
21
1.13231
0
LINE
8
BLACK
6
CONTINUOUS
10
0.384551
20
1.13231
11
0.394812
21
1.13077
0
LINE
8
BLACK
6
CONTINUOUS
10
0.394812
20
1.13077
11
0.394812
21
1.13077
0
LINE
8
BLACK
6
CONTINUOUS
10
0.394812
20
1.13077
11
0.405188
21
1.13077
0
LINE
8
BLACK
6
CONTINUOUS
10
0.405188
20
1.13077
11
0.405188
21
1.13077
0
LINE
8
BLACK
6
CONTINUOUS
10
0.405188
20
1.13077
11
0.415449
21
1.13231
0
LINE
8
BLACK
6
CONTINUOUS
10
0.415449
20
1.13231
11
0.415517
21
1.13234
0
LINE
8
BLACK
6
CONTINUOUS
10
0.415517
20
1.13234
11
0.425364
21
1.13537
0
LINE
8
BLACK
6
CONTINUOUS
10
0.425364
20
1.13537
11
0.425364
21
1.13537
0
LINE
8
BLACK
6
CONTINUOUS
10
0.425364
20
1.13537
11
0.425364
21
1.13537
0
LINE
8
BLACK
6
CONTINUOUS
10
0.425364
20
1.13537
11
0.426148
21
1.13575
0
LINE
8
BLACK
6
CONTINUOUS
10
0.426148
20
1.13575
11
0.428906
21
1.1362
0
LINE
8
BLACK
6
CONTINUOUS
10
0.428906
20
1.1362
11
0.431472
21
1.1351
0
LINE
8
BLACK
6
CONTINUOUS
10
0.431472
20
1.1351
11
0.433031
21
1.13278
0
LINE
8
BLACK
6
CONTINUOUS
10
0.433031
20
1.13278
11
0.433088
21
1.12998
0
LINE
8
BLACK
6
CONTINUOUS
10
0.433088
20
1.12998
11
0.432949
21
1.12955
0
LINE
8
BLACK
6
CONTINUOUS
10
0.432949
20
1.12955
11
0.429634
21
1.12066
0
LINE
8
BLACK
6
CONTINUOUS
10
0.429634
20
1.12066
11
0.42741
21
1.11044
0
LINE
8
BLACK
6
CONTINUOUS
10
0.42741
20
1.11044
11
0.426664
21
1.1
0
LINE
8
BLACK
6
CONTINUOUS
10
0.426664
20
1.1
11
0.42741
21
1.08956
0
LINE
8
BLACK
6
CONTINUOUS
10
0.42741
20
1.08956
11
0.429634
21
1.07934
0
LINE
8
BLACK
6
CONTINUOUS
10
0.429634
20
1.07934
11
0.433291
21
1.06953
0
LINE
8
BLACK
6
CONTINUOUS
10
0.433291
20
1.06953
11
0.438305
21
1.06035
0
LINE
8
BLACK
6
CONTINUOUS
10
0.438305
20
1.06035
11
0.441689
21
1.05583
0
LINE
8
BLACK
6
CONTINUOUS
10
0.441689
20
1.05583
11
0.441689
21
1.05583
0
LINE
8
BLACK
6
CONTINUOUS
10
0.441689
20
1.05583
11
0.456159
21
1.0703
0
LINE
8
BLACK
6
CONTINUOUS
10
0.456159
20
1.0703
11
0.453971
21
1.07343
0
LINE
8
BLACK
6
CONTINUOUS
10
0.453971
20
1.07343
11
0.450056
21
1.08182
0
LINE
8
BLACK
6
CONTINUOUS
10
0.450056
20
1.08182
11
0.447658
21
1.09077
0
LINE
8
BLACK
6
CONTINUOUS
10
0.447658
20
1.09077
11
0.44685
21
1.1
0
LINE
8
BLACK
6
CONTINUOUS
10
0.44685
20
1.1
11
0.447658
21
1.10923
0
LINE
8
BLACK
6
CONTINUOUS
10
0.447658
20
1.10923
11
0.450056
21
1.11818
0
LINE
8
BLACK
6
CONTINUOUS
10
0.450056
20
1.11818
11
0.453971
21
1.12657
0
LINE
8
BLACK
6
CONTINUOUS
10
0.453971
20
1.12657
11
0.459285
21
1.13416
0
LINE
8
BLACK
6
CONTINUOUS
10
0.459285
20
1.13416
11
0.465836
21
1.14071
0
LINE
8
BLACK
6
CONTINUOUS
10
0.465836
20
1.14071
11
0.473425
21
1.14603
0
LINE
8
BLACK
6
CONTINUOUS
10
0.473425
20
1.14603
11
0.481822
21
1.14994
0
LINE
8
BLACK
6
CONTINUOUS
10
0.481822
20
1.14994
11
0.490771
21
1.15234
0
LINE
8
BLACK
6
CONTINUOUS
10
0.490771
20
1.15234
11
0.5
21
1.15315
0
LINE
8
BLACK
6
CONTINUOUS
10
0.5
20
1.15315
11
0.509229
21
1.15234
0
LINE
8
BLACK
6
CONTINUOUS
10
0.509229
20
1.15234
11
0.518178
21
1.14994
0
LINE
8
BLACK
6
CONTINUOUS
10
0.518178
20
1.14994
11
0.526575
21
1.14603
0
LINE
8
BLACK
6
CONTINUOUS
10
0.526575
20
1.14603
11
0.529699
21
1.14384
0
LINE
8
BLACK
6
CONTINUOUS
10
0.529699
20
1.14384
11
0.544169
21
1.15831
0
LINE
8
BLACK
6
CONTINUOUS
10
0.544169
20
1.15831
11
0.539649
21
1.16169
0
LINE
8
BLACK
6
CONTINUOUS
10
0.539649
20
1.16169
11
0.530465
21
1.16671
0
LINE
8
BLACK
6
CONTINUOUS
10
0.530465
20
1.16671
11
0.520661
21
1.17037
0
LINE
8
BLACK
6
CONTINUOUS
10
0.520661
20
1.17037
11
0.510437
21
1.17259
0
LINE
8
BLACK
6
CONTINUOUS
10
0.510437
20
1.17259
11
0.5
21
1.17334
0
LINE
8
BLACK
6
CONTINUOUS
10
0.5
20
1.17334
11
0.489563
21
1.17259
0
LINE
8
BLACK
6
CONTINUOUS
10
0.489563
20
1.17259
11
0.479339
21
1.17037
0
LINE
8
BLACK
6
CONTINUOUS
10
0.479339
20
1.17037
11
0.470308
21
1.167
0
LINE
8
BLACK
6
CONTINUOUS
10
0.470308
20
1.167
11
0.467519
21
1.1668
0
LINE
8
BLACK
6
CONTINUOUS
10
0.467519
20
1.1668
11
0.465066
21
1.16814
0
LINE
8
BLACK
6
CONTINUOUS
10
0.465066
20
1.16814
11
0.463727
21
1.17059
0
LINE
8
BLACK
6
CONTINUOUS
10
0.463727
20
1.17059
11
0.463926
21
1.17338
0
LINE
8
BLACK
6
CONTINUOUS
10
0.463926
20
1.17338
11
0.463955
21
1.17345
0
LINE
8
BLACK
6
CONTINUOUS
10
0.463955
20
1.17345
11
0.466342
21
1.17954
0
LINE
8
BLACK
6
CONTINUOUS
10
0.466342
20
1.17954
11
0.468651
21
1.18965
0
LINE
8
BLACK
6
CONTINUOUS
10
0.468651
20
1.18965
11
0.469426
21
1.2
0
LINE
8
BLACK
6
CONTINUOUS
10
0.469426
20
1.2
11
0.468651
21
1.21035
0
LINE
8
BLACK
6
CONTINUOUS
10
0.468651
20
1.21035
11
0.466342
21
1.22046
0
LINE
8
BLACK
6
CONTINUOUS
10
0.466342
20
1.22046
11
0.463956
21
1.22654
0
LINE
8
BLACK
6
CONTINUOUS
10
0.463956
20
1.22654
11
0.463709
21
1.22933
0
LINE
8
BLACK
6
CONTINUOUS
10
0.463709
20
1.22933
11
0.465007
21
1.2318
0
LINE
8
BLACK
6
CONTINUOUS
10
0.465007
20
1.2318
11
0.467437
21
1.23318
0
LINE
8
BLACK
6
CONTINUOUS
10
0.467437
20
1.23318
11
0.470228
21
1.23303
0
LINE
8
BLACK
6
CONTINUOUS
10
0.470228
20
1.23303
11
0.470308
21
1.233
0
LINE
8
BLACK
6
CONTINUOUS
10
0.470308
20
1.233
11
0.479339
21
1.22963
0
LINE
8
BLACK
6
CONTINUOUS
10
0.479339
20
1.22963
11
0.489563
21
1.22741
0
LINE
8
BLACK
6
CONTINUOUS
10
0.489563
20
1.22741
11
0.5
21
1.22666
0
LINE
8
BLACK
6
CONTINUOUS
10
0.5
20
1.22666
11
0.510437
21
1.22741
0
LINE
8
BLACK
6
CONTINUOUS
10
0.510437
20
1.22741
11
0.520661
21
1.22963
0
LINE
8
BLACK
6
CONTINUOUS
10
0.520661
20
1.22963
11
0.530465
21
1.23329
0
LINE
8
BLACK
6
CONTINUOUS
10
0.530465
20
1.23329
11
0.539649
21
1.23831
0
LINE
8
BLACK
6
CONTINUOUS
10
0.539649
20
1.23831
11
0.544169
21
1.24169
0
LINE
8
BLACK
6
CONTINUOUS
10
0.544169
20
1.24169
11
0.544169
21
1.24169
0
LINE
8
BLACK
6
CONTINUOUS
10
0.544169
20
1.24169
11
0.529699
21
1.25616
0
LINE
8
BLACK
6
CONTINUOUS
10
0.529699
20
1.25616
11
0.526575
21
1.25397
0
LINE
8
BLACK
6
CONTINUOUS
10
0.526575
20
1.25397
11
0.518178
21
1.25006
0
LINE
8
BLACK
6
CONTINUOUS
10
0.518178
20
1.25006
11
0.509229
21
1.24766
0
LINE
8
BLACK
6
CONTINUOUS
10
0.509229
20
1.24766
11
0.5
21
1.24685
0
LINE
8
BLACK
6
CONTINUOUS
10
0.5
20
1.24685
11
0.490771
21
1.24766
0
LINE
8
BLACK
6
CONTINUOUS
10
0.490771
20
1.24766
11
0.481822
21
1.25006
0
LINE
8
BLACK
6
CONTINUOUS
10
0.481822
20
1.25006
11
0.473425
21
1.25397
0
LINE
8
BLACK
6
CONTINUOUS
10
0.473425
20
1.25397
11
0.465836
21
1.25929
0
LINE
8
BLACK
6
CONTINUOUS
10
0.465836
20
1.25929
11
0.459285
21
1.26584
0
LINE
8
BLACK
6
CONTINUOUS
10
0.459285
20
1.26584
11
0.453971
21
1.27343
0
LINE
8
BLACK
6
CONTINUOUS
10
0.453971
20
1.27343
11
0.450056
21
1.28182
0
LINE
8
BLACK
6
CONTINUOUS
10
0.450056
20
1.28182
11
0.447658
21
1.29077
0
LINE
8
BLACK
6
CONTINUOUS
10
0.447658
20
1.29077
11
0.44685
21
1.3
0
LINE
8
BLACK
6
CONTINUOUS
10
0.44685
20
1.3
11
0.447658
21
1.30923
0
LINE
8
BLACK
6
CONTINUOUS
10
0.447658
20
1.30923
11
0.450056
21
1.31818
0
LINE
8
BLACK
6
CONTINUOUS
10
0.450056
20
1.31818
11
0.453971
21
1.32657
0
LINE
8
BLACK
6
CONTINUOUS
10
0.453971
20
1.32657
11
0.456159
21
1.3297
0
LINE
8
BLACK
6
CONTINUOUS
10
0.456159
20
1.3297
11
0.441689
21
1.34417
0
LINE
8
BLACK
6
CONTINUOUS
10
0.441689
20
1.34417
11
0.441689
21
1.34417
0
LINE
8
BLACK
6
CONTINUOUS
10
0.543841
20
1.1297
11
0.546029
21
1.12657
0
LINE
8
BLACK
6
CONTINUOUS
10
0.546029
20
1.12657
11
0.549944
21
1.11818
0
LINE
8
BLACK
6
CONTINUOUS
10
0.549944
20
1.11818
11
0.552342
21
1.10923
0
LINE
8
BLACK
6
CONTINUOUS
10
0.552342
20
1.10923
11
0.55315
21
1.1
0
LINE
8
BLACK
6
CONTINUOUS
10
0.55315
20
1.1
11
0.552342
21
1.09077
0
LINE
8
BLACK
6
CONTINUOUS
10
0.552342
20
1.09077
11
0.549944
21
1.08182
0
LINE
8
BLACK
6
CONTINUOUS
10
0.549944
20
1.08182
11
0.546029
21
1.07343
0
LINE
8
BLACK
6
CONTINUOUS
10
0.546029
20
1.07343
11
0.543841
21
1.0703
0
LINE
8
BLACK
6
CONTINUOUS
10
0.543841
20
1.0703
11
0.558311
21
1.05583
0
LINE
8
BLACK
6
CONTINUOUS
10
0.558311
20
1.05583
11
0.558311
21
1.05583
0
LINE
8
BLACK
6
CONTINUOUS
10
0.558311
20
1.05583
11
0.561695
21
1.06035
0
LINE
8
BLACK
6
CONTINUOUS
10
0.561695
20
1.06035
11
0.566709
21
1.06953
0
LINE
8
BLACK
6
CONTINUOUS
10
0.566709
20
1.06953
11
0.570366
21
1.07934
0
LINE
8
BLACK
6
CONTINUOUS
10
0.570366
20
1.07934
11
0.57259
21
1.08956
0
LINE
8
BLACK
6
CONTINUOUS
10
0.57259
20
1.08956
11
0.573336
21
1.1
0
LINE
8
BLACK
6
CONTINUOUS
10
0.573336
20
1.1
11
0.57259
21
1.11044
0
LINE
8
BLACK
6
CONTINUOUS
10
0.57259
20
1.11044
11
0.570366
21
1.12066
0
LINE
8
BLACK
6
CONTINUOUS
10
0.570366
20
1.12066
11
0.566709
21
1.13047
0
LINE
8
BLACK
6
CONTINUOUS
10
0.566709
20
1.13047
11
0.561694
21
1.13965
0
LINE
8
BLACK
6
CONTINUOUS
10
0.561694
20
1.13965
11
0.558311
21
1.14417
0
LINE
8
BLACK
6
CONTINUOUS
10
0.558311
20
1.14417
11
0.558311
21
1.14417
0
LINE
8
BLACK
6
CONTINUOUS
10
0.558311
20
1.14417
11
0.543841
21
1.1297
0
LINE
8
BLACK
6
CONTINUOUS
10
0.241689
20
1.34417
11
0.238305
21
1.33965
0
LINE
8
BLACK
6
CONTINUOUS
10
0.238305
20
1.33965
11
0.233291
21
1.33047
0
LINE
8
BLACK
6
CONTINUOUS
10
0.233291
20
1.33047
11
0.229634
21
1.32066
0
LINE
8
BLACK
6
CONTINUOUS
10
0.229634
20
1.32066
11
0.22741
21
1.31044
0
LINE
8
BLACK
6
CONTINUOUS
10
0.22741
20
1.31044
11
0.226664
21
1.3
0
LINE
8
BLACK
6
CONTINUOUS
10
0.226664
20
1.3
11
0.22741
21
1.28956
0
LINE
8
BLACK
6
CONTINUOUS
10
0.22741
20
1.28956
11
0.229634
21
1.27934
0
LINE
8
BLACK
6
CONTINUOUS
10
0.229634
20
1.27934
11
0.233291
21
1.26953
0
LINE
8
BLACK
6
CONTINUOUS
10
0.233291
20
1.26953
11
0.238305
21
1.26035
0
LINE
8
BLACK
6
CONTINUOUS
10
0.238305
20
1.26035
11
0.241689
21
1.25583
0
LINE
8
BLACK
6
CONTINUOUS
10
0.241689
20
1.25583
11
0.241689
21
1.25583
0
LINE
8
BLACK
6
CONTINUOUS
10
0.241689
20
1.25583
11
0.256159
21
1.2703
0
LINE
8
BLACK
6
CONTINUOUS
10
0.256159
20
1.2703
11
0.253971
21
1.27343
0
LINE
8
BLACK
6
CONTINUOUS
10
0.253971
20
1.27343
11
0.250056
21
1.28182
0
LINE
8
BLACK
6
CONTINUOUS
10
0.250056
20
1.28182
11
0.247658
21
1.29077
0
LINE
8
BLACK
6
CONTINUOUS
10
0.247658
20
1.29077
11
0.24685
21
1.3
0
LINE
8
BLACK
6
CONTINUOUS
10
0.24685
20
1.3
11
0.247658
21
1.30923
0
LINE
8
BLACK
6
CONTINUOUS
10
0.247658
20
1.30923
11
0.250056
21
1.31818
0
LINE
8
BLACK
6
CONTINUOUS
10
0.250056
20
1.31818
11
0.253971
21
1.32657
0
LINE
8
BLACK
6
CONTINUOUS
10
0.253971
20
1.32657
11
0.256159
21
1.3297
0
LINE
8
BLACK
6
CONTINUOUS
10
0.256159
20
1.3297
11
0.241689
21
1.34417
0
LINE
8
BLACK
6
CONTINUOUS
10
0.241689
20
1.34417
11
0.241689
21
1.34417
0
LINE
8
BLACK
6
CONTINUOUS
10
0.543841
20
1.3297
11
0.546029
21
1.32657
0
LINE
8
BLACK
6
CONTINUOUS
10
0.546029
20
1.32657
11
0.549944
21
1.31818
0
LINE
8
BLACK
6
CONTINUOUS
10
0.549944
20
1.31818
11
0.552342
21
1.30923
0
LINE
8
BLACK
6
CONTINUOUS
10
0.552342
20
1.30923
11
0.55315
21
1.3
0
LINE
8
BLACK
6
CONTINUOUS
10
0.55315
20
1.3
11
0.552342
21
1.29077
0
LINE
8
BLACK
6
CONTINUOUS
10
0.552342
20
1.29077
11
0.549944
21
1.28182
0
LINE
8
BLACK
6
CONTINUOUS
10
0.549944
20
1.28182
11
0.546029
21
1.27343
0
LINE
8
BLACK
6
CONTINUOUS
10
0.546029
20
1.27343
11
0.543841
21
1.2703
0
LINE
8
BLACK
6
CONTINUOUS
10
0.543841
20
1.2703
11
0.558311
21
1.25583
0
LINE
8
BLACK
6
CONTINUOUS
10
0.558311
20
1.25583
11
0.558311
21
1.25583
0
LINE
8
BLACK
6
CONTINUOUS
10
0.558311
20
1.25583
11
0.561695
21
1.26035
0
LINE
8
BLACK
6
CONTINUOUS
10
0.561695
20
1.26035
11
0.566709
21
1.26953
0
LINE
8
BLACK
6
CONTINUOUS
10
0.566709
20
1.26953
11
0.570366
21
1.27934
0
LINE
8
BLACK
6
CONTINUOUS
10
0.570366
20
1.27934
11
0.57259
21
1.28956
0
LINE
8
BLACK
6
CONTINUOUS
10
0.57259
20
1.28956
11
0.573336
21
1.3
0
LINE
8
BLACK
6
CONTINUOUS
10
0.573336
20
1.3
11
0.57259
21
1.31044
0
LINE
8
BLACK
6
CONTINUOUS
10
0.57259
20
1.31044
11
0.570366
21
1.32066
0
LINE
8
BLACK
6
CONTINUOUS
10
0.570366
20
1.32066
11
0.566709
21
1.33047
0
LINE
8
BLACK
6
CONTINUOUS
10
0.566709
20
1.33047
11
0.561694
21
1.33965
0
LINE
8
BLACK
6
CONTINUOUS
10
0.561694
20
1.33965
11
0.558311
21
1.34417
0
LINE
8
BLACK
6
CONTINUOUS
10
0.558311
20
1.34417
11
0.558311
21
1.34417
0
LINE
8
BLACK
6
CONTINUOUS
10
0.558311
20
1.34417
11
0.543841
21
1.3297
0
LINE
8
BLACK
6
CONTINUOUS
10
0.289563
20
1.37259
11
0.279339
21
1.37037
0
LINE
8
BLACK
6
CONTINUOUS
10
0.279339
20
1.37037
11
0.269535
21
1.36671
0
LINE
8
BLACK
6
CONTINUOUS
10
0.269535
20
1.36671
11
0.260351
21
1.36169
0
LINE
8
BLACK
6
CONTINUOUS
10
0.260351
20
1.36169
11
0.255831
21
1.35831
0
LINE
8
BLACK
6
CONTINUOUS
10
0.255831
20
1.35831
11
0.255831
21
1.35831
0
LINE
8
BLACK
6
CONTINUOUS
10
0.255831
20
1.35831
11
0.270301
21
1.34384
0
LINE
8
BLACK
6
CONTINUOUS
10
0.270301
20
1.34384
11
0.273425
21
1.34603
0
LINE
8
BLACK
6
CONTINUOUS
10
0.273425
20
1.34603
11
0.281822
21
1.34994
0
LINE
8
BLACK
6
CONTINUOUS
10
0.281822
20
1.34994
11
0.290771
21
1.35234
0
LINE
8
BLACK
6
CONTINUOUS
10
0.290771
20
1.35234
11
0.3
21
1.35315
0
LINE
8
BLACK
6
CONTINUOUS
10
0.3
20
1.35315
11
0.309229
21
1.35234
0
LINE
8
BLACK
6
CONTINUOUS
10
0.309229
20
1.35234
11
0.318178
21
1.34994
0
LINE
8
BLACK
6
CONTINUOUS
10
0.318178
20
1.34994
11
0.326575
21
1.34603
0
LINE
8
BLACK
6
CONTINUOUS
10
0.326575
20
1.34603
11
0.329699
21
1.34384
0
LINE
8
BLACK
6
CONTINUOUS
10
0.329699
20
1.34384
11
0.344169
21
1.35831
0
LINE
8
BLACK
6
CONTINUOUS
10
0.344169
20
1.35831
11
0.339649
21
1.36169
0
LINE
8
BLACK
6
CONTINUOUS
10
0.339649
20
1.36169
11
0.330465
21
1.36671
0
LINE
8
BLACK
6
CONTINUOUS
10
0.330465
20
1.36671
11
0.320661
21
1.37037
0
LINE
8
BLACK
6
CONTINUOUS
10
0.320661
20
1.37037
11
0.310437
21
1.37259
0
LINE
8
BLACK
6
CONTINUOUS
10
0.310437
20
1.37259
11
0.3
21
1.37334
0
LINE
8
BLACK
6
CONTINUOUS
10
0.3
20
1.37334
11
0.289563
21
1.37259
0
LINE
8
BLACK
6
CONTINUOUS
10
0.489563
20
1.37259
11
0.479339
21
1.37037
0
LINE
8
BLACK
6
CONTINUOUS
10
0.479339
20
1.37037
11
0.469535
21
1.36671
0
LINE
8
BLACK
6
CONTINUOUS
10
0.469535
20
1.36671
11
0.460351
21
1.36169
0
LINE
8
BLACK
6
CONTINUOUS
10
0.460351
20
1.36169
11
0.455831
21
1.35831
0
LINE
8
BLACK
6
CONTINUOUS
10
0.455831
20
1.35831
11
0.455831
21
1.35831
0
LINE
8
BLACK
6
CONTINUOUS
10
0.455831
20
1.35831
11
0.470301
21
1.34384
0
LINE
8
BLACK
6
CONTINUOUS
10
0.470301
20
1.34384
11
0.473425
21
1.34603
0
LINE
8
BLACK
6
CONTINUOUS
10
0.473425
20
1.34603
11
0.481822
21
1.34994
0
LINE
8
BLACK
6
CONTINUOUS
10
0.481822
20
1.34994
11
0.490771
21
1.35234
0
LINE
8
BLACK
6
CONTINUOUS
10
0.490771
20
1.35234
11
0.5
21
1.35315
0
LINE
8
BLACK
6
CONTINUOUS
10
0.5
20
1.35315
11
0.509229
21
1.35234
0
LINE
8
BLACK
6
CONTINUOUS
10
0.509229
20
1.35234
11
0.518178
21
1.34994
0
LINE
8
BLACK
6
CONTINUOUS
10
0.518178
20
1.34994
11
0.526575
21
1.34603
0
LINE
8
BLACK
6
CONTINUOUS
10
0.526575
20
1.34603
11
0.529699
21
1.34384
0
LINE
8
BLACK
6
CONTINUOUS
10
0.529699
20
1.34384
11
0.544169
21
1.35831
0
LINE
8
BLACK
6
CONTINUOUS
10
0.544169
20
1.35831
11
0.539649
21
1.36169
0
LINE
8
BLACK
6
CONTINUOUS
10
0.539649
20
1.36169
11
0.530465
21
1.36671
0
LINE
8
BLACK
6
CONTINUOUS
10
0.530465
20
1.36671
11
0.520661
21
1.37037
0
LINE
8
BLACK
6
CONTINUOUS
10
0.520661
20
1.37037
11
0.510437
21
1.37259
0
LINE
8
BLACK
6
CONTINUOUS
10
0.510437
20
1.37259
11
0.5
21
1.37334
0
LINE
8
BLACK
6
CONTINUOUS
10
0.5
20
1.37334
11
0.489563
21
1.37259
0
LINE
8
BLACK
6
CONTINUOUS
10
-0.17259
20
0.289563
11
-0.170366
21
0.279339
0
LINE
8
BLACK
6
CONTINUOUS
10
-0.170366
20
0.279339
11
-0.166709
21
0.269535
0
LINE
8
BLACK
6
CONTINUOUS
10
-0.166709
20
0.269535
11
-0.161695
21
0.260351
0
LINE
8
BLACK
6
CONTINUOUS
10
-0.161695
20
0.260351
11
-0.158311
21
0.255831
0
LINE
8
BLACK
6
CONTINUOUS
10
-0.158311
20
0.255831
11
-0.158311
21
0.255831
0
LINE
8
BLACK
6
CONTINUOUS
10
-0.158311
20
0.255831
11
-0.143841
21
0.270301
0
LINE
8
BLACK
6
CONTINUOUS
10
-0.143841
20
0.270301
11
-0.146029
21
0.273425
0
LINE
8
BLACK
6
CONTINUOUS
10
-0.146029
20
0.273425
11
-0.149944
21
0.281822
0
LINE
8
BLACK
6
CONTINUOUS
10
-0.149944
20
0.281822
11
-0.152342
21
0.290771
0
LINE
8
BLACK
6
CONTINUOUS
10
-0.152342
20
0.290771
11
-0.15315
21
0.3
0
LINE
8
BLACK
6
CONTINUOUS
10
-0.15315
20
0.3
11
-0.152342
21
0.309229
0
LINE
8
BLACK
6
CONTINUOUS
10
-0.152342
20
0.309229
11
-0.149944
21
0.318178
0
LINE
8
BLACK
6
CONTINUOUS
10
-0.149944
20
0.318178
11
-0.146029
21
0.326575
0
LINE
8
BLACK
6
CONTINUOUS
10
-0.146029
20
0.326575
11
-0.143841
21
0.329699
0
LINE
8
BLACK
6
CONTINUOUS
10
-0.143841
20
0.329699
11
-0.158311
21
0.344169
0
LINE
8
BLACK
6
CONTINUOUS
10
-0.158311
20
0.344169
11
-0.158311
21
0.344169
0
LINE
8
BLACK
6
CONTINUOUS
10
-0.158311
20
0.344169
11
-0.161695
21
0.339649
0
LINE
8
BLACK
6
CONTINUOUS
10
-0.161695
20
0.339649
11
-0.166709
21
0.330465
0
LINE
8
BLACK
6
CONTINUOUS
10
-0.166709
20
0.330465
11
-0.170366
21
0.320661
0
LINE
8
BLACK
6
CONTINUOUS
10
-0.170366
20
0.320661
11
-0.17259
21
0.310437
0
LINE
8
BLACK
6
CONTINUOUS
10
-0.17259
20
0.310437
11
-0.173336
21
0.3
0
LINE
8
BLACK
6
CONTINUOUS
10
-0.173336
20
0.3
11
-0.17259
21
0.289563
0
LINE
8
BLACK
6
CONTINUOUS
10
-0.17259
20
0.689563
11
-0.170366
21
0.679339
0
LINE
8
BLACK
6
CONTINUOUS
10
-0.170366
20
0.679339
11
-0.166709
21
0.669535
0
LINE
8
BLACK
6
CONTINUOUS
10
-0.166709
20
0.669535
11
-0.161695
21
0.660351
0
LINE
8
BLACK
6
CONTINUOUS
10
-0.161695
20
0.660351
11
-0.158311
21
0.655831
0
LINE
8
BLACK
6
CONTINUOUS
10
-0.158311
20
0.655831
11
-0.158311
21
0.655831
0
LINE
8
BLACK
6
CONTINUOUS
10
-0.158311
20
0.655831
11
-0.143841
21
0.670301
0
LINE
8
BLACK
6
CONTINUOUS
10
-0.143841
20
0.670301
11
-0.146029
21
0.673425
0
LINE
8
BLACK
6
CONTINUOUS
10
-0.146029
20
0.673425
11
-0.149944
21
0.681822
0
LINE
8
BLACK
6
CONTINUOUS
10
-0.149944
20
0.681822
11
-0.152342
21
0.690771
0
LINE
8
BLACK
6
CONTINUOUS
10
-0.152342
20
0.690771
11
-0.15315
21
0.7
0
LINE
8
BLACK
6
CONTINUOUS
10
-0.15315
20
0.7
11
-0.152342
21
0.709229
0
LINE
8
BLACK
6
CONTINUOUS
10
-0.152342
20
0.709229
11
-0.149944
21
0.718178
0
LINE
8
BLACK
6
CONTINUOUS
10
-0.149944
20
0.718178
11
-0.146029
21
0.726575
0
LINE
8
BLACK
6
CONTINUOUS
10
-0.146029
20
0.726575
11
-0.143841
21
0.729699
0
LINE
8
BLACK
6
CONTINUOUS
10
-0.143841
20
0.729699
11
-0.158311
21
0.744169
0
LINE
8
BLACK
6
CONTINUOUS
10
-0.158311
20
0.744169
11
-0.158311
21
0.744169
0
LINE
8
BLACK
6
CONTINUOUS
10
-0.158311
20
0.744169
11
-0.161695
21
0.739649
0
LINE
8
BLACK
6
CONTINUOUS
10
-0.161695
20
0.739649
11
-0.166709
21
0.730465
0
LINE
8
BLACK
6
CONTINUOUS
10
-0.166709
20
0.730465
11
-0.170366
21
0.720661
0
LINE
8
BLACK
6
CONTINUOUS
10
-0.170366
20
0.720661
11
-0.17259
21
0.710437
0
LINE
8
BLACK
6
CONTINUOUS
10
-0.17259
20
0.710437
11
-0.173336
21
0.7
0
LINE
8
BLACK
6
CONTINUOUS
10
-0.173336
20
0.7
11
-0.17259
21
0.689563
0
CIRCLE
8
BLACK
10
0.85
20
0.25
40
0.00688976
0
CIRCLE
8
BLACK
10
0.75
20
0.25
40
0.00688976
0
CIRCLE
8
BLACK
10
0.85
20
0.35
40
0.00688976
0
CIRCLE
8
BLACK
10
0.75
20
0.35
40
0.00688976
0
CIRCLE
8
BLACK
10
0.85
20
0.45
40
0.00688976
0
CIRCLE
8
BLACK
10
0.75
20
0.45
40
0.00688976
0
CIRCLE
8
BLACK
10
0.85
20
0.55
40
0.00688976
0
CIRCLE
8
BLACK
10
0.75
20
0.55
40
0.00688976
0
CIRCLE
8
BLACK
10
0
20
1.2
40
0.00688976
0
CIRCLE
8
BLACK
10
0.8
20
0
40
0.00688976
0
CIRCLE
8
BLACK
10
0.85
20
0.65
40
0.00688976
0
CIRCLE
8
BLACK
10
0.75
20
0.65
40
0.00688976
0
CIRCLE
8
BLACK
10
0.85
20
0.75
40
0.00688976
0
CIRCLE
8
BLACK
10
0.75
20
0.75
40
0.00688976
0
CIRCLE
8
BLACK
10
0.85
20
0.85
40
0.00688976
0
CIRCLE
8
BLACK
10
0.75
20
0.85
40
0.00688976
0
CIRCLE
8
BLACK
10
0.85
20
0.95
40
0.00688976
0
CIRCLE
8
BLACK
10
0.75
20
0.95
40
0.00688976
0
CIRCLE
8
BLACK
10
0.4
20
0
40
0.00688976
0
CIRCLE
8
BLACK
10
0.3
20
-0.1
40
0.00688976
0
CIRCLE
8
BLACK
10
0.5
20
-0.1
40
0.00688976
0
CIRCLE
8
BLACK
10
0.5
20
0.1
40
0.00688976
0
CIRCLE
8
BLACK
10
0.3
20
0.1
40
0.00688976
0
CIRCLE
8
BLACK
10
0.4
20
0.7
40
0.00688976
0
CIRCLE
8
BLACK
10
0.5
20
0.7
40
0.00688976
0
CIRCLE
8
BLACK
10
0.4
20
0.6
40
0.00688976
0
CIRCLE
8
BLACK
10
0.5
20
0.6
40
0.00688976
0
CIRCLE
8
BLACK
10
0.4
20
0.5
40
0.00688976
0
CIRCLE
8
BLACK
10
0.5
20
0.5
40
0.00688976
0
CIRCLE
8
BLACK
10
0
20
0.8
40
0.00688976
0
CIRCLE
8
BLACK
10
-0.1
20
0.9
40
0.00688976
0
CIRCLE
8
BLACK
10
0.1
20
0.9
40
0.00688976
0
CIRCLE
8
BLACK
10
0.1
20
0.7
40
0.00688976
0
CIRCLE
8
BLACK
10
-0.1
20
0.7
40
0.00688976
0
CIRCLE
8
BLACK
10
0
20
0
40
0.00688976
0
CIRCLE
8
BLACK
10
0.8
20
1.2
40
0.00688976
0
CIRCLE
8
BLACK
10
0.4
20
1.2
40
0.00688976
0
CIRCLE
8
BLACK
10
0.5
20
1.3
40
0.00688976
0
CIRCLE
8
BLACK
10
0.5
20
1.1
40
0.00688976
0
CIRCLE
8
BLACK
10
0.3
20
1.3
40
0.00688976
0
CIRCLE
8
BLACK
10
0.3
20
1.1
40
0.00688976
0
CIRCLE
8
BLACK
10
0
20
0.4
40
0.00688976
0
CIRCLE
8
BLACK
10
-0.1
20
0.3
40
0.00688976
0
CIRCLE
8
BLACK
10
-0.1
20
0.5
40
0.00688976
0
CIRCLE
8
BLACK
10
0.1
20
0.5
40
0.00688976
0
CIRCLE
8
BLACK
10
0.1
20
0.3
40
0.00688976
0
CIRCLE
8
BLACK
10
0.27
20
0.94
40
0.00787402
0
CIRCLE
8
BLACK
10
0.21
20
0.82
40
0.00787402
0
CIRCLE
8
BLACK
10
0.305
20
0.94
40
0.00787402
0
CIRCLE
8
BLACK
10
0.49
20
0.38
40
0.00787402
0
CIRCLE
8
BLACK
10
0.395
20
0.195
40
0.00787402
0
CIRCLE
8
BLACK
10
0.21
20
0.78
40
0.00787402
0
CIRCLE
8
BLACK
10
0.29
20
0.43
40
0.00787402
0
CIRCLE
8
BLACK
10
0.43
20
0.88
40
0.00787402
0
CIRCLE
8
BLACK
10
0.25
20
0.43
40
0.00787402
0
CIRCLE
8
BLACK
10
0.55
20
0.8
40
0.00787402
0
CIRCLE
8
BLACK
10
0.36
20
0.195
40
0.00787402
0
CIRCLE
8
BLACK
10
0.59
20
0.47
40
0.00787402
0
CIRCLE
8
BLACK
10
0.49
20
0.42
40
0.00787402
0
CIRCLE
8
BLACK
10
0.47
20
0.88
40
0.00787402
0
CIRCLE
8
BLACK
10
0.21
20
0.43
40
0.00787402
  0
ENDSEC
  0
EOF
