  0
SECTION
  2
HEADER
  9
$ANGBASE
  50
0.0
  9
$ANGDIR
  70
1
  9
$MEASUREMENT
  70
0
  0
ENDSEC
  0
SECTION
  2
TABLES
  0
TABLE
  2
LTYPE
  70
4
  0
LTYPE
  5
40F
  2
CONTINUOUS
  70
0
  3
Solid line
  72
65
  73
0
  40
0.0
  0
LTYPE
  5
410
  2
DASHDOT
 70
0
  3
Dash Dot ____ _ ____ _
 72
65
 73
4
 40
2.0
 49
1.25
 49
-0.25
 49
0.25
 49
-0.25
  0
LTYPE
  5
411
  2
DASHED
 70
0
  3
Dashed __ __ __ __ __
 72
65
 73
2
 40
0.75
 49
0.5
 49
-0.25
  0
LTYPE
  5
43B
  2
DOTTED
 70
0
  3
Dotted .  .  .  .
 72
65
 73
2
 40
0.2
 49
0.0
 49
-0.2
  0
ENDTAB
  0
TABLE
  2
STYLE
  70
4
  0
STYLE
  2
KICAD
  70
0
  40
0
  41
1
  42
1
  50
0
  71
0
  3
isocp.shx
  0
STYLE
  2
KICADB
  70
0
  40
0
  41
1
  42
1
  50
0
  71
0
  3
isocp.shx
  0
STYLE
  2
KICADI
  70
0
  40
0
  41
1
  42
1
  50
15
  71
0
  3
isocp.shx
  0
STYLE
  2
KICADBI
  70
0
  40
0
  41
1
  42
1
  50
15
  71
0
  3
isocp.shx
  0
ENDTAB
  0
TABLE
  2
LAYER
  70
1
  0
LAYER
  2
BLACK
  70
0
  62
7
  6
CONTINUOUS
  0
ENDTAB
  0
ENDSEC
  0
SECTION
  2
ENTITIES
0
LINE
8
BLACK
6
CONTINUOUS
10
-0.997625
20
0.288123
11
-0.997913
21
0.288819
0
LINE
8
BLACK
6
CONTINUOUS
10
-0.997913
20
0.288819
11
-0.997913
21
0.391181
0
LINE
8
BLACK
6
CONTINUOUS
10
-0.997913
20
0.391181
11
-0.997625
21
0.391877
0
LINE
8
BLACK
6
CONTINUOUS
10
-0.997625
20
0.391877
11
-0.996929
21
0.392165
0
LINE
8
BLACK
6
CONTINUOUS
10
-0.996929
20
0.392165
11
-0.863071
21
0.392165
0
LINE
8
BLACK
6
CONTINUOUS
10
-0.863071
20
0.392165
11
-0.862375
21
0.391877
0
LINE
8
BLACK
6
CONTINUOUS
10
-0.862375
20
0.391877
11
-0.862087
21
0.391181
0
LINE
8
BLACK
6
CONTINUOUS
10
-0.862087
20
0.391181
11
-0.862087
21
0.288819
0
LINE
8
BLACK
6
CONTINUOUS
10
-0.862087
20
0.288819
11
-0.862375
21
0.288123
0
LINE
8
BLACK
6
CONTINUOUS
10
-0.862375
20
0.288123
11
-0.863071
21
0.287835
0
LINE
8
BLACK
6
CONTINUOUS
10
-0.863071
20
0.287835
11
-0.996929
21
0.287835
0
LINE
8
BLACK
6
CONTINUOUS
10
-0.996929
20
0.287835
11
-0.997625
21
0.288123
0
LINE
8
BLACK
6
CONTINUOUS
10
-0.995945
20
0.390197
11
-0.995945
21
0.289803
0
LINE
8
BLACK
6
CONTINUOUS
10
-0.995945
20
0.289803
11
-0.864055
21
0.289803
0
LINE
8
BLACK
6
CONTINUOUS
10
-0.864055
20
0.289803
11
-0.864055
21
0.390197
0
LINE
8
BLACK
6
CONTINUOUS
10
-0.864055
20
0.390197
11
-0.995945
21
0.390197
0
LINE
8
BLACK
6
CONTINUOUS
10
-1.34763
20
0.470721
11
-1.34791
21
0.471417
0
LINE
8
BLACK
6
CONTINUOUS
10
-1.34791
20
0.471417
11
-1.34791
21
0.548583
0
LINE
8
BLACK
6
CONTINUOUS
10
-1.34791
20
0.548583
11
-1.34763
21
0.549279
0
LINE
8
BLACK
6
CONTINUOUS
10
-1.34763
20
0.549279
11
-1.34693
21
0.549567
0
LINE
8
BLACK
6
CONTINUOUS
10
-1.34693
20
0.549567
11
-1.21307
21
0.549567
0
LINE
8
BLACK
6
CONTINUOUS
10
-1.21307
20
0.549567
11
-1.21237
21
0.549279
0
LINE
8
BLACK
6
CONTINUOUS
10
-1.21237
20
0.549279
11
-1.21209
21
0.548583
0
LINE
8
BLACK
6
CONTINUOUS
10
-1.21209
20
0.548583
11
-1.21209
21
0.471417
0
LINE
8
BLACK
6
CONTINUOUS
10
-1.21209
20
0.471417
11
-1.21237
21
0.470721
0
LINE
8
BLACK
6
CONTINUOUS
10
-1.21237
20
0.470721
11
-1.21307
21
0.470433
0
LINE
8
BLACK
6
CONTINUOUS
10
-1.21307
20
0.470433
11
-1.34693
21
0.470433
0
LINE
8
BLACK
6
CONTINUOUS
10
-1.34693
20
0.470433
11
-1.34763
21
0.470721
0
LINE
8
BLACK
6
CONTINUOUS
10
-1.34594
20
0.547598
11
-1.34594
21
0.472402
0
LINE
8
BLACK
6
CONTINUOUS
10
-1.34594
20
0.472402
11
-1.21406
21
0.472402
0
LINE
8
BLACK
6
CONTINUOUS
10
-1.21406
20
0.472402
11
-1.21406
21
0.547598
0
LINE
8
BLACK
6
CONTINUOUS
10
-1.21406
20
0.547598
11
-1.34594
21
0.547598
0
LINE
8
BLACK
6
CONTINUOUS
10
-1.34763
20
0.589225
11
-1.34791
21
0.589921
0
LINE
8
BLACK
6
CONTINUOUS
10
-1.34791
20
0.589921
11
-1.34791
21
0.667087
0
LINE
8
BLACK
6
CONTINUOUS
10
-1.34791
20
0.667087
11
-1.34763
21
0.667783
0
LINE
8
BLACK
6
CONTINUOUS
10
-1.34763
20
0.667783
11
-1.34693
21
0.668071
0
LINE
8
BLACK
6
CONTINUOUS
10
-1.34693
20
0.668071
11
-1.21307
21
0.668071
0
LINE
8
BLACK
6
CONTINUOUS
10
-1.21307
20
0.668071
11
-1.21237
21
0.667783
0
LINE
8
BLACK
6
CONTINUOUS
10
-1.21237
20
0.667783
11
-1.21209
21
0.667087
0
LINE
8
BLACK
6
CONTINUOUS
10
-1.21209
20
0.667087
11
-1.21209
21
0.589921
0
LINE
8
BLACK
6
CONTINUOUS
10
-1.21209
20
0.589921
11
-1.21237
21
0.589225
0
LINE
8
BLACK
6
CONTINUOUS
10
-1.21237
20
0.589225
11
-1.21307
21
0.588937
0
LINE
8
BLACK
6
CONTINUOUS
10
-1.21307
20
0.588937
11
-1.34693
21
0.588937
0
LINE
8
BLACK
6
CONTINUOUS
10
-1.34693
20
0.588937
11
-1.34763
21
0.589225
0
LINE
8
BLACK
6
CONTINUOUS
10
-1.34594
20
0.666102
11
-1.34594
21
0.590906
0
LINE
8
BLACK
6
CONTINUOUS
10
-1.34594
20
0.590906
11
-1.21406
21
0.590906
0
LINE
8
BLACK
6
CONTINUOUS
10
-1.21406
20
0.590906
11
-1.21406
21
0.666102
0
LINE
8
BLACK
6
CONTINUOUS
10
-1.21406
20
0.666102
11
-1.34594
21
0.666102
0
LINE
8
BLACK
6
CONTINUOUS
10
-1.17243
20
0.591587
11
-1.17272
21
0.592283
0
LINE
8
BLACK
6
CONTINUOUS
10
-1.17272
20
0.592283
11
-1.17272
21
0.667087
0
LINE
8
BLACK
6
CONTINUOUS
10
-1.17272
20
0.667087
11
-1.17243
21
0.667783
0
LINE
8
BLACK
6
CONTINUOUS
10
-1.17243
20
0.667783
11
-1.17173
21
0.668071
0
LINE
8
BLACK
6
CONTINUOUS
10
-1.17173
20
0.668071
11
-1.03945
21
0.668071
0
LINE
8
BLACK
6
CONTINUOUS
10
-1.03945
20
0.668071
11
-1.03875
21
0.667783
0
LINE
8
BLACK
6
CONTINUOUS
10
-1.03875
20
0.667783
11
-1.03846
21
0.667087
0
LINE
8
BLACK
6
CONTINUOUS
10
-1.03846
20
0.667087
11
-1.03846
21
0.592283
0
LINE
8
BLACK
6
CONTINUOUS
10
-1.03846
20
0.592283
11
-1.03875
21
0.591587
0
LINE
8
BLACK
6
CONTINUOUS
10
-1.03875
20
0.591587
11
-1.03945
21
0.591299
0
LINE
8
BLACK
6
CONTINUOUS
10
-1.03945
20
0.591299
11
-1.17173
21
0.591299
0
LINE
8
BLACK
6
CONTINUOUS
10
-1.17173
20
0.591299
11
-1.17243
21
0.591587
0
LINE
8
BLACK
6
CONTINUOUS
10
-1.17075
20
0.666102
11
-1.17075
21
0.593268
0
LINE
8
BLACK
6
CONTINUOUS
10
-1.17075
20
0.593268
11
-1.04043
21
0.593268
0
LINE
8
BLACK
6
CONTINUOUS
10
-1.04043
20
0.593268
11
-1.04043
21
0.666102
0
LINE
8
BLACK
6
CONTINUOUS
10
-1.04043
20
0.666102
11
-1.17075
21
0.666102
0
LINE
8
BLACK
6
CONTINUOUS
10
-0.857074
20
0.937257
11
-0.857362
21
0.937953
0
LINE
8
BLACK
6
CONTINUOUS
10
-0.857362
20
0.937953
11
-0.857362
21
1.01276
0
LINE
8
BLACK
6
CONTINUOUS
10
-0.857362
20
1.01276
11
-0.857074
21
1.01345
0
LINE
8
BLACK
6
CONTINUOUS
10
-0.857074
20
1.01345
11
-0.856378
21
1.01374
0
LINE
8
BLACK
6
CONTINUOUS
10
-0.856378
20
1.01374
11
-0.724094
21
1.01374
0
LINE
8
BLACK
6
CONTINUOUS
10
-0.724094
20
1.01374
11
-0.723399
21
1.01345
0
LINE
8
BLACK
6
CONTINUOUS
10
-0.723399
20
1.01345
11
-0.72311
21
1.01276
0
LINE
8
BLACK
6
CONTINUOUS
10
-0.72311
20
1.01276
11
-0.72311
21
0.937953
0
LINE
8
BLACK
6
CONTINUOUS
10
-0.72311
20
0.937953
11
-0.723399
21
0.937257
0
LINE
8
BLACK
6
CONTINUOUS
10
-0.723399
20
0.937257
11
-0.724094
21
0.936969
0
LINE
8
BLACK
6
CONTINUOUS
10
-0.724094
20
0.936969
11
-0.856378
21
0.936969
0
LINE
8
BLACK
6
CONTINUOUS
10
-0.856378
20
0.936969
11
-0.857074
21
0.937257
0
LINE
8
BLACK
6
CONTINUOUS
10
-0.855394
20
1.01177
11
-0.855394
21
0.938937
0
LINE
8
BLACK
6
CONTINUOUS
10
-0.855394
20
0.938937
11
-0.725079
21
0.938937
0
LINE
8
BLACK
6
CONTINUOUS
10
-0.725079
20
0.938937
11
-0.725079
21
1.01177
0
LINE
8
BLACK
6
CONTINUOUS
10
-0.725079
20
1.01177
11
-0.855394
21
1.01177
  0
ENDSEC
  0
EOF
