  0
SECTION
  2
HEADER
  9
$ANGBASE
  50
0.0
  9
$ANGDIR
  70
1
  9
$MEASUREMENT
  70
0
  0
ENDSEC
  0
SECTION
  2
TABLES
  0
TABLE
  2
LTYPE
  70
4
  0
LTYPE
  5
40F
  2
CONTINUOUS
  70
0
  3
Solid line
  72
65
  73
0
  40
0.0
  0
LTYPE
  5
410
  2
DASHDOT
 70
0
  3
Dash Dot ____ _ ____ _
 72
65
 73
4
 40
2.0
 49
1.25
 49
-0.25
 49
0.25
 49
-0.25
  0
LTYPE
  5
411
  2
DASHED
 70
0
  3
Dashed __ __ __ __ __
 72
65
 73
2
 40
0.75
 49
0.5
 49
-0.25
  0
LTYPE
  5
43B
  2
DOTTED
 70
0
  3
Dotted .  .  .  .
 72
65
 73
2
 40
0.2
 49
0.0
 49
-0.2
  0
ENDTAB
  0
TABLE
  2
STYLE
  70
4
  0
STYLE
  2
KICAD
  70
0
  40
0
  41
1
  42
1
  50
0
  71
0
  3
isocp.shx
  0
STYLE
  2
KICADB
  70
0
  40
0
  41
1
  42
1
  50
0
  71
0
  3
isocp.shx
  0
STYLE
  2
KICADI
  70
0
  40
0
  41
1
  42
1
  50
15
  71
0
  3
isocp.shx
  0
STYLE
  2
KICADBI
  70
0
  40
0
  41
1
  42
1
  50
15
  71
0
  3
isocp.shx
  0
ENDTAB
  0
TABLE
  2
LAYER
  70
1
  0
LAYER
  2
BLACK
  70
0
  62
7
  6
CONTINUOUS
  0
ENDTAB
  0
ENDSEC
  0
SECTION
  2
ENTITIES
0
LINE
8
BLACK
6
CONTINUOUS
10
0.44101
20
-0.134021
11
0.442557
21
-0.135319
0
LINE
8
BLACK
6
CONTINUOUS
10
0.442557
20
-0.135319
11
0.442908
21
-0.137308
0
LINE
8
BLACK
6
CONTINUOUS
10
0.442908
20
-0.137308
11
0.441898
21
-0.139057
0
LINE
8
BLACK
6
CONTINUOUS
10
0.441898
20
-0.139057
11
0.44
21
-0.139748
0
LINE
8
BLACK
6
CONTINUOUS
10
0.44
20
-0.139748
11
0.36
21
-0.139748
0
LINE
8
BLACK
6
CONTINUOUS
10
0.36
20
-0.139748
11
0.35899
21
-0.13957
0
LINE
8
BLACK
6
CONTINUOUS
10
0.35899
20
-0.13957
11
0.357443
21
-0.138272
0
LINE
8
BLACK
6
CONTINUOUS
10
0.357443
20
-0.138272
11
0.357092
21
-0.136283
0
LINE
8
BLACK
6
CONTINUOUS
10
0.357092
20
-0.136283
11
0.358102
21
-0.134533
0
LINE
8
BLACK
6
CONTINUOUS
10
0.358102
20
-0.134533
11
0.36
21
-0.133843
0
LINE
8
BLACK
6
CONTINUOUS
10
0.36
20
-0.133843
11
0.44
21
-0.133843
0
LINE
8
BLACK
6
CONTINUOUS
10
0.44
20
-0.133843
11
0.44101
21
-0.134021
0
LINE
8
BLACK
6
CONTINUOUS
10
0.264467
20
0.041898
11
0.265157
21
0.04
0
LINE
8
BLACK
6
CONTINUOUS
10
0.265157
20
0.04
11
0.265157
21
-0.04
0
LINE
8
BLACK
6
CONTINUOUS
10
0.265157
20
-0.04
11
0.264979
21
-0.0410099
0
LINE
8
BLACK
6
CONTINUOUS
10
0.264979
20
-0.0410099
11
0.263681
21
-0.0425572
0
LINE
8
BLACK
6
CONTINUOUS
10
0.263681
20
-0.0425572
11
0.261692
21
-0.0429079
0
LINE
8
BLACK
6
CONTINUOUS
10
0.261692
20
-0.0429079
11
0.259943
21
-0.041898
0
LINE
8
BLACK
6
CONTINUOUS
10
0.259943
20
-0.041898
11
0.259252
21
-0.04
0
LINE
8
BLACK
6
CONTINUOUS
10
0.259252
20
-0.04
11
0.259252
21
0.04
0
LINE
8
BLACK
6
CONTINUOUS
10
0.259252
20
0.04
11
0.25943
21
0.0410099
0
LINE
8
BLACK
6
CONTINUOUS
10
0.25943
20
0.0410099
11
0.260728
21
0.0425572
0
LINE
8
BLACK
6
CONTINUOUS
10
0.260728
20
0.0425572
11
0.262717
21
0.0429079
0
LINE
8
BLACK
6
CONTINUOUS
10
0.262717
20
0.0429079
11
0.264467
21
0.041898
0
LINE
8
BLACK
6
CONTINUOUS
10
0.540057
20
0.041898
11
0.540748
21
0.04
0
LINE
8
BLACK
6
CONTINUOUS
10
0.540748
20
0.04
11
0.540748
21
-0.04
0
LINE
8
BLACK
6
CONTINUOUS
10
0.540748
20
-0.04
11
0.54057
21
-0.0410099
0
LINE
8
BLACK
6
CONTINUOUS
10
0.54057
20
-0.0410099
11
0.539272
21
-0.0425572
0
LINE
8
BLACK
6
CONTINUOUS
10
0.539272
20
-0.0425572
11
0.537283
21
-0.0429079
0
LINE
8
BLACK
6
CONTINUOUS
10
0.537283
20
-0.0429079
11
0.535533
21
-0.041898
0
LINE
8
BLACK
6
CONTINUOUS
10
0.535533
20
-0.041898
11
0.534843
21
-0.04
0
LINE
8
BLACK
6
CONTINUOUS
10
0.534843
20
-0.04
11
0.534843
21
0.04
0
LINE
8
BLACK
6
CONTINUOUS
10
0.534843
20
0.04
11
0.535021
21
0.0410099
0
LINE
8
BLACK
6
CONTINUOUS
10
0.535021
20
0.0410099
11
0.536319
21
0.0425572
0
LINE
8
BLACK
6
CONTINUOUS
10
0.536319
20
0.0425572
11
0.538308
21
0.0429079
0
LINE
8
BLACK
6
CONTINUOUS
10
0.538308
20
0.0429079
11
0.540057
21
0.041898
0
LINE
8
BLACK
6
CONTINUOUS
10
0.44101
20
0.14057
11
0.442557
21
0.139272
0
LINE
8
BLACK
6
CONTINUOUS
10
0.442557
20
0.139272
11
0.442908
21
0.137283
0
LINE
8
BLACK
6
CONTINUOUS
10
0.442908
20
0.137283
11
0.441898
21
0.135533
0
LINE
8
BLACK
6
CONTINUOUS
10
0.441898
20
0.135533
11
0.44
21
0.134843
0
LINE
8
BLACK
6
CONTINUOUS
10
0.44
20
0.134843
11
0.36
21
0.134843
0
LINE
8
BLACK
6
CONTINUOUS
10
0.36
20
0.134843
11
0.35899
21
0.135021
0
LINE
8
BLACK
6
CONTINUOUS
10
0.35899
20
0.135021
11
0.357443
21
0.136319
0
LINE
8
BLACK
6
CONTINUOUS
10
0.357443
20
0.136319
11
0.357092
21
0.138308
0
LINE
8
BLACK
6
CONTINUOUS
10
0.357092
20
0.138308
11
0.358102
21
0.140057
0
LINE
8
BLACK
6
CONTINUOUS
10
0.358102
20
0.140057
11
0.36
21
0.140748
0
LINE
8
BLACK
6
CONTINUOUS
10
0.36
20
0.140748
11
0.44
21
0.140748
0
LINE
8
BLACK
6
CONTINUOUS
10
0.44
20
0.140748
11
0.44101
21
0.14057
0
LINE
8
BLACK
6
CONTINUOUS
10
0.902885
20
0.199616
11
0.902908
21
0.199487
0
LINE
8
BLACK
6
CONTINUOUS
10
0.902908
20
0.199487
11
0.902842
21
0.199374
0
LINE
8
BLACK
6
CONTINUOUS
10
0.902842
20
0.199374
11
0.902775
21
0.19899
0
LINE
8
BLACK
6
CONTINUOUS
10
0.902775
20
0.19899
11
0.902282
21
0.198402
0
LINE
8
BLACK
6
CONTINUOUS
10
0.902282
20
0.198402
11
0.901898
21
0.197738
0
LINE
8
BLACK
6
CONTINUOUS
10
0.901898
20
0.197738
11
0.901648
21
0.197647
0
LINE
8
BLACK
6
CONTINUOUS
10
0.901648
20
0.197647
11
0.901476
21
0.197443
0
LINE
8
BLACK
6
CONTINUOUS
10
0.901476
20
0.197443
11
0.900721
21
0.19731
0
LINE
8
BLACK
6
CONTINUOUS
10
0.900721
20
0.19731
11
0.9
21
0.197047
0
LINE
8
BLACK
6
CONTINUOUS
10
0.9
20
0.197047
11
0.7
21
0.197047
0
LINE
8
BLACK
6
CONTINUOUS
10
0.7
20
0.197047
11
0.699616
21
0.197115
0
LINE
8
BLACK
6
CONTINUOUS
10
0.699616
20
0.197115
11
0.699487
21
0.197092
0
LINE
8
BLACK
6
CONTINUOUS
10
0.699487
20
0.197092
11
0.699374
21
0.197158
0
LINE
8
BLACK
6
CONTINUOUS
10
0.699374
20
0.197158
11
0.69899
21
0.197225
0
LINE
8
BLACK
6
CONTINUOUS
10
0.69899
20
0.197225
11
0.698402
21
0.197718
0
LINE
8
BLACK
6
CONTINUOUS
10
0.698402
20
0.197718
11
0.697738
21
0.198102
0
LINE
8
BLACK
6
CONTINUOUS
10
0.697738
20
0.198102
11
0.697647
21
0.198352
0
LINE
8
BLACK
6
CONTINUOUS
10
0.697647
20
0.198352
11
0.697443
21
0.198524
0
LINE
8
BLACK
6
CONTINUOUS
10
0.697443
20
0.198524
11
0.69731
21
0.199279
0
LINE
8
BLACK
6
CONTINUOUS
10
0.69731
20
0.199279
11
0.697047
21
0.2
0
LINE
8
BLACK
6
CONTINUOUS
10
0.697047
20
0.2
11
0.697047
21
1
0
LINE
8
BLACK
6
CONTINUOUS
10
0.697047
20
1
11
0.697115
21
1.00038
0
LINE
8
BLACK
6
CONTINUOUS
10
0.697115
20
1.00038
11
0.697092
21
1.00051
0
LINE
8
BLACK
6
CONTINUOUS
10
0.697092
20
1.00051
11
0.697158
21
1.00063
0
LINE
8
BLACK
6
CONTINUOUS
10
0.697158
20
1.00063
11
0.697225
21
1.00101
0
LINE
8
BLACK
6
CONTINUOUS
10
0.697225
20
1.00101
11
0.697718
21
1.0016
0
LINE
8
BLACK
6
CONTINUOUS
10
0.697718
20
1.0016
11
0.698102
21
1.00226
0
LINE
8
BLACK
6
CONTINUOUS
10
0.698102
20
1.00226
11
0.698352
21
1.00235
0
LINE
8
BLACK
6
CONTINUOUS
10
0.698352
20
1.00235
11
0.698524
21
1.00256
0
LINE
8
BLACK
6
CONTINUOUS
10
0.698524
20
1.00256
11
0.699279
21
1.00269
0
LINE
8
BLACK
6
CONTINUOUS
10
0.699279
20
1.00269
11
0.7
21
1.00295
0
LINE
8
BLACK
6
CONTINUOUS
10
0.7
20
1.00295
11
0.9
21
1.00295
0
LINE
8
BLACK
6
CONTINUOUS
10
0.9
20
1.00295
11
0.900384
21
1.00289
0
LINE
8
BLACK
6
CONTINUOUS
10
0.900384
20
1.00289
11
0.900513
21
1.00291
0
LINE
8
BLACK
6
CONTINUOUS
10
0.900513
20
1.00291
11
0.900626
21
1.00284
0
LINE
8
BLACK
6
CONTINUOUS
10
0.900626
20
1.00284
11
0.90101
21
1.00277
0
LINE
8
BLACK
6
CONTINUOUS
10
0.90101
20
1.00277
11
0.901598
21
1.00228
0
LINE
8
BLACK
6
CONTINUOUS
10
0.901598
20
1.00228
11
0.902262
21
1.0019
0
LINE
8
BLACK
6
CONTINUOUS
10
0.902262
20
1.0019
11
0.902353
21
1.00165
0
LINE
8
BLACK
6
CONTINUOUS
10
0.902353
20
1.00165
11
0.902557
21
1.00148
0
LINE
8
BLACK
6
CONTINUOUS
10
0.902557
20
1.00148
11
0.90269
21
1.00072
0
LINE
8
BLACK
6
CONTINUOUS
10
0.90269
20
1.00072
11
0.902953
21
1
0
LINE
8
BLACK
6
CONTINUOUS
10
0.902953
20
1
11
0.902953
21
0.2
0
LINE
8
BLACK
6
CONTINUOUS
10
0.902953
20
0.2
11
0.902885
21
0.199616
0
LINE
8
BLACK
6
CONTINUOUS
10
0.702953
20
0.597047
11
0.702953
21
0.202953
0
LINE
8
BLACK
6
CONTINUOUS
10
0.702953
20
0.202953
11
0.897047
21
0.202953
0
LINE
8
BLACK
6
CONTINUOUS
10
0.897047
20
0.202953
11
0.897047
21
0.597047
0
LINE
8
BLACK
6
CONTINUOUS
10
0.897047
20
0.597047
11
0.702953
21
0.597047
0
LINE
8
BLACK
6
CONTINUOUS
10
0.702953
20
0.997047
11
0.702953
21
0.602953
0
LINE
8
BLACK
6
CONTINUOUS
10
0.702953
20
0.602953
11
0.897047
21
0.602953
0
LINE
8
BLACK
6
CONTINUOUS
10
0.897047
20
0.602953
11
0.897047
21
0.997047
0
LINE
8
BLACK
6
CONTINUOUS
10
0.897047
20
0.997047
11
0.702953
21
0.997047
0
LINE
8
BLACK
6
CONTINUOUS
10
0.88
20
0.22
11
0.82
21
0.22
0
LINE
8
BLACK
6
CONTINUOUS
10
0.82
20
0.22
11
0.82
21
0.28
0
LINE
8
BLACK
6
CONTINUOUS
10
0.82
20
0.28
11
0.88
21
0.28
0
LINE
8
BLACK
6
CONTINUOUS
10
0.88
20
0.28
11
0.88
21
0.22
0
LINE
8
BLACK
6
CONTINUOUS
10
0.78
20
0.22
11
0.72
21
0.22
0
LINE
8
BLACK
6
CONTINUOUS
10
0.72
20
0.22
11
0.72
21
0.28
0
LINE
8
BLACK
6
CONTINUOUS
10
0.72
20
0.28
11
0.78
21
0.28
0
LINE
8
BLACK
6
CONTINUOUS
10
0.78
20
0.28
11
0.78
21
0.22
0
LINE
8
BLACK
6
CONTINUOUS
10
0.78
20
0.32
11
0.72
21
0.32
0
LINE
8
BLACK
6
CONTINUOUS
10
0.72
20
0.32
11
0.72
21
0.38
0
LINE
8
BLACK
6
CONTINUOUS
10
0.72
20
0.38
11
0.78
21
0.38
0
LINE
8
BLACK
6
CONTINUOUS
10
0.78
20
0.38
11
0.78
21
0.32
0
LINE
8
BLACK
6
CONTINUOUS
10
0.88
20
0.32
11
0.82
21
0.32
0
LINE
8
BLACK
6
CONTINUOUS
10
0.82
20
0.32
11
0.82
21
0.38
0
LINE
8
BLACK
6
CONTINUOUS
10
0.82
20
0.38
11
0.88
21
0.38
0
LINE
8
BLACK
6
CONTINUOUS
10
0.88
20
0.38
11
0.88
21
0.32
0
LINE
8
BLACK
6
CONTINUOUS
10
0.78
20
0.42
11
0.72
21
0.42
0
LINE
8
BLACK
6
CONTINUOUS
10
0.72
20
0.42
11
0.72
21
0.48
0
LINE
8
BLACK
6
CONTINUOUS
10
0.72
20
0.48
11
0.78
21
0.48
0
LINE
8
BLACK
6
CONTINUOUS
10
0.78
20
0.48
11
0.78
21
0.42
0
LINE
8
BLACK
6
CONTINUOUS
10
0.88
20
0.42
11
0.82
21
0.42
0
LINE
8
BLACK
6
CONTINUOUS
10
0.82
20
0.42
11
0.82
21
0.48
0
LINE
8
BLACK
6
CONTINUOUS
10
0.82
20
0.48
11
0.88
21
0.48
0
LINE
8
BLACK
6
CONTINUOUS
10
0.88
20
0.48
11
0.88
21
0.42
0
LINE
8
BLACK
6
CONTINUOUS
10
0.88
20
0.52
11
0.82
21
0.52
0
LINE
8
BLACK
6
CONTINUOUS
10
0.82
20
0.52
11
0.82
21
0.58
0
LINE
8
BLACK
6
CONTINUOUS
10
0.82
20
0.58
11
0.88
21
0.58
0
LINE
8
BLACK
6
CONTINUOUS
10
0.88
20
0.58
11
0.88
21
0.52
0
LINE
8
BLACK
6
CONTINUOUS
10
0.78
20
0.52
11
0.72
21
0.52
0
LINE
8
BLACK
6
CONTINUOUS
10
0.72
20
0.52
11
0.72
21
0.58
0
LINE
8
BLACK
6
CONTINUOUS
10
0.72
20
0.58
11
0.78
21
0.58
0
LINE
8
BLACK
6
CONTINUOUS
10
0.78
20
0.58
11
0.78
21
0.52
0
LINE
8
BLACK
6
CONTINUOUS
10
0.88
20
0.62
11
0.82
21
0.62
0
LINE
8
BLACK
6
CONTINUOUS
10
0.82
20
0.62
11
0.82
21
0.68
0
LINE
8
BLACK
6
CONTINUOUS
10
0.82
20
0.68
11
0.88
21
0.68
0
LINE
8
BLACK
6
CONTINUOUS
10
0.88
20
0.68
11
0.88
21
0.62
0
LINE
8
BLACK
6
CONTINUOUS
10
0.78
20
0.62
11
0.72
21
0.62
0
LINE
8
BLACK
6
CONTINUOUS
10
0.72
20
0.62
11
0.72
21
0.68
0
LINE
8
BLACK
6
CONTINUOUS
10
0.72
20
0.68
11
0.78
21
0.68
0
LINE
8
BLACK
6
CONTINUOUS
10
0.78
20
0.68
11
0.78
21
0.62
0
LINE
8
BLACK
6
CONTINUOUS
10
0.88
20
0.72
11
0.82
21
0.72
0
LINE
8
BLACK
6
CONTINUOUS
10
0.82
20
0.72
11
0.82
21
0.78
0
LINE
8
BLACK
6
CONTINUOUS
10
0.82
20
0.78
11
0.88
21
0.78
0
LINE
8
BLACK
6
CONTINUOUS
10
0.88
20
0.78
11
0.88
21
0.72
0
LINE
8
BLACK
6
CONTINUOUS
10
0.78
20
0.72
11
0.72
21
0.72
0
LINE
8
BLACK
6
CONTINUOUS
10
0.72
20
0.72
11
0.72
21
0.78
0
LINE
8
BLACK
6
CONTINUOUS
10
0.72
20
0.78
11
0.78
21
0.78
0
LINE
8
BLACK
6
CONTINUOUS
10
0.78
20
0.78
11
0.78
21
0.72
0
LINE
8
BLACK
6
CONTINUOUS
10
0.88
20
0.82
11
0.82
21
0.82
0
LINE
8
BLACK
6
CONTINUOUS
10
0.82
20
0.82
11
0.82
21
0.88
0
LINE
8
BLACK
6
CONTINUOUS
10
0.82
20
0.88
11
0.88
21
0.88
0
LINE
8
BLACK
6
CONTINUOUS
10
0.88
20
0.88
11
0.88
21
0.82
0
LINE
8
BLACK
6
CONTINUOUS
10
0.78
20
0.82
11
0.72
21
0.82
0
LINE
8
BLACK
6
CONTINUOUS
10
0.72
20
0.82
11
0.72
21
0.88
0
LINE
8
BLACK
6
CONTINUOUS
10
0.72
20
0.88
11
0.78
21
0.88
0
LINE
8
BLACK
6
CONTINUOUS
10
0.78
20
0.88
11
0.78
21
0.82
0
LINE
8
BLACK
6
CONTINUOUS
10
0.78
20
0.92
11
0.72
21
0.92
0
LINE
8
BLACK
6
CONTINUOUS
10
0.72
20
0.92
11
0.72
21
0.98
0
LINE
8
BLACK
6
CONTINUOUS
10
0.72
20
0.98
11
0.78
21
0.98
0
LINE
8
BLACK
6
CONTINUOUS
10
0.78
20
0.98
11
0.78
21
0.92
0
LINE
8
BLACK
6
CONTINUOUS
10
0.88
20
0.92
11
0.82
21
0.92
0
LINE
8
BLACK
6
CONTINUOUS
10
0.82
20
0.92
11
0.82
21
0.98
0
LINE
8
BLACK
6
CONTINUOUS
10
0.82
20
0.98
11
0.88
21
0.98
0
LINE
8
BLACK
6
CONTINUOUS
10
0.88
20
0.98
11
0.88
21
0.92
0
LINE
8
BLACK
6
CONTINUOUS
10
0.368959
20
0.253328
11
0.369692
21
0.25156
0
LINE
8
BLACK
6
CONTINUOUS
10
0.369692
20
0.25156
11
0.369692
21
0.21469
0
LINE
8
BLACK
6
CONTINUOUS
10
0.369692
20
0.21469
11
0.385939
21
0.21469
0
LINE
8
BLACK
6
CONTINUOUS
10
0.385939
20
0.21469
11
0.387707
21
0.213958
0
LINE
8
BLACK
6
CONTINUOUS
10
0.387707
20
0.213958
11
0.388439
21
0.21219
0
LINE
8
BLACK
6
CONTINUOUS
10
0.388439
20
0.21219
11
0.387707
21
0.210422
0
LINE
8
BLACK
6
CONTINUOUS
10
0.387707
20
0.210422
11
0.385939
21
0.20969
0
LINE
8
BLACK
6
CONTINUOUS
10
0.385939
20
0.20969
11
0.367192
21
0.20969
0
LINE
8
BLACK
6
CONTINUOUS
10
0.367192
20
0.20969
11
0.365424
21
0.210422
0
LINE
8
BLACK
6
CONTINUOUS
10
0.365424
20
0.210422
11
0.364692
21
0.21219
0
LINE
8
BLACK
6
CONTINUOUS
10
0.364692
20
0.21219
11
0.364692
21
0.25156
0
LINE
8
BLACK
6
CONTINUOUS
10
0.364692
20
0.25156
11
0.365424
21
0.253328
0
LINE
8
BLACK
6
CONTINUOUS
10
0.365424
20
0.253328
11
0.367192
21
0.25406
0
LINE
8
BLACK
6
CONTINUOUS
10
0.367192
20
0.25406
11
0.368959
21
0.253328
0
LINE
8
BLACK
6
CONTINUOUS
10
0.449574
20
0.243954
11
0.450306
21
0.242186
0
LINE
8
BLACK
6
CONTINUOUS
10
0.450306
20
0.242186
11
0.450306
21
0.229688
0
LINE
8
BLACK
6
CONTINUOUS
10
0.450306
20
0.229688
11
0.462805
21
0.229688
0
LINE
8
BLACK
6
CONTINUOUS
10
0.462805
20
0.229688
11
0.464572
21
0.228956
0
LINE
8
BLACK
6
CONTINUOUS
10
0.464572
20
0.228956
11
0.465305
21
0.227188
0
LINE
8
BLACK
6
CONTINUOUS
10
0.465305
20
0.227188
11
0.464572
21
0.22542
0
LINE
8
BLACK
6
CONTINUOUS
10
0.464572
20
0.22542
11
0.462805
21
0.224688
0
LINE
8
BLACK
6
CONTINUOUS
10
0.462805
20
0.224688
11
0.450306
21
0.224688
0
LINE
8
BLACK
6
CONTINUOUS
10
0.450306
20
0.224688
11
0.450306
21
0.21219
0
LINE
8
BLACK
6
CONTINUOUS
10
0.450306
20
0.21219
11
0.449574
21
0.210422
0
LINE
8
BLACK
6
CONTINUOUS
10
0.449574
20
0.210422
11
0.447806
21
0.20969
0
LINE
8
BLACK
6
CONTINUOUS
10
0.447806
20
0.20969
11
0.446039
21
0.210422
0
LINE
8
BLACK
6
CONTINUOUS
10
0.446039
20
0.210422
11
0.445306
21
0.21219
0
LINE
8
BLACK
6
CONTINUOUS
10
0.445306
20
0.21219
11
0.445306
21
0.224688
0
LINE
8
BLACK
6
CONTINUOUS
10
0.445306
20
0.224688
11
0.432808
21
0.224688
0
LINE
8
BLACK
6
CONTINUOUS
10
0.432808
20
0.224688
11
0.431041
21
0.22542
0
LINE
8
BLACK
6
CONTINUOUS
10
0.431041
20
0.22542
11
0.430308
21
0.227188
0
LINE
8
BLACK
6
CONTINUOUS
10
0.430308
20
0.227188
11
0.431041
21
0.228956
0
LINE
8
BLACK
6
CONTINUOUS
10
0.431041
20
0.228956
11
0.432808
21
0.229688
0
LINE
8
BLACK
6
CONTINUOUS
10
0.432808
20
0.229688
11
0.445306
21
0.229688
0
LINE
8
BLACK
6
CONTINUOUS
10
0.445306
20
0.229688
11
0.445306
21
0.242186
0
LINE
8
BLACK
6
CONTINUOUS
10
0.445306
20
0.242186
11
0.446039
21
0.243954
0
LINE
8
BLACK
6
CONTINUOUS
10
0.446039
20
0.243954
11
0.447806
21
0.244686
0
LINE
8
BLACK
6
CONTINUOUS
10
0.447806
20
0.244686
11
0.449574
21
0.243954
0
LINE
8
BLACK
6
CONTINUOUS
10
0.355836
20
0.253328
11
0.356568
21
0.25156
0
LINE
8
BLACK
6
CONTINUOUS
10
0.356568
20
0.25156
11
0.355836
21
0.249792
0
LINE
8
BLACK
6
CONTINUOUS
10
0.355836
20
0.249792
11
0.354068
21
0.24906
0
LINE
8
BLACK
6
CONTINUOUS
10
0.354068
20
0.24906
11
0.34532
21
0.24906
0
LINE
8
BLACK
6
CONTINUOUS
10
0.34532
20
0.24906
11
0.34532
21
0.21219
0
LINE
8
BLACK
6
CONTINUOUS
10
0.34532
20
0.21219
11
0.344587
21
0.210422
0
LINE
8
BLACK
6
CONTINUOUS
10
0.344587
20
0.210422
11
0.34282
21
0.20969
0
LINE
8
BLACK
6
CONTINUOUS
10
0.34282
20
0.20969
11
0.341052
21
0.210422
0
LINE
8
BLACK
6
CONTINUOUS
10
0.341052
20
0.210422
11
0.34032
21
0.21219
0
LINE
8
BLACK
6
CONTINUOUS
10
0.34032
20
0.21219
11
0.34032
21
0.24906
0
LINE
8
BLACK
6
CONTINUOUS
10
0.34032
20
0.24906
11
0.331571
21
0.24906
0
LINE
8
BLACK
6
CONTINUOUS
10
0.331571
20
0.24906
11
0.329803
21
0.249792
0
LINE
8
BLACK
6
CONTINUOUS
10
0.329803
20
0.249792
11
0.329071
21
0.25156
0
LINE
8
BLACK
6
CONTINUOUS
10
0.329071
20
0.25156
11
0.329803
21
0.253328
0
LINE
8
BLACK
6
CONTINUOUS
10
0.329803
20
0.253328
11
0.331571
21
0.25406
0
LINE
8
BLACK
6
CONTINUOUS
10
0.331571
20
0.25406
11
0.354068
21
0.25406
0
LINE
8
BLACK
6
CONTINUOUS
10
0.354068
20
0.25406
11
0.355836
21
0.253328
0
LINE
8
BLACK
6
CONTINUOUS
10
0.421921
20
0.252678
11
0.422057
21
0.250769
0
LINE
8
BLACK
6
CONTINUOUS
10
0.422057
20
0.250769
11
0.408933
21
0.211399
0
LINE
8
BLACK
6
CONTINUOUS
10
0.408933
20
0.211399
11
0.408811
21
0.211258
0
LINE
8
BLACK
6
CONTINUOUS
10
0.408811
20
0.211258
11
0.408798
21
0.211072
0
LINE
8
BLACK
6
CONTINUOUS
10
0.408798
20
0.211072
11
0.408199
21
0.210553
0
LINE
8
BLACK
6
CONTINUOUS
10
0.408199
20
0.210553
11
0.40768
21
0.209954
0
LINE
8
BLACK
6
CONTINUOUS
10
0.40768
20
0.209954
11
0.407493
21
0.20994
0
LINE
8
BLACK
6
CONTINUOUS
10
0.407493
20
0.20994
11
0.407352
21
0.209818
0
LINE
8
BLACK
6
CONTINUOUS
10
0.407352
20
0.209818
11
0.406562
21
0.209874
0
LINE
8
BLACK
6
CONTINUOUS
10
0.406562
20
0.209874
11
0.405771
21
0.209818
0
LINE
8
BLACK
6
CONTINUOUS
10
0.405771
20
0.209818
11
0.40563
21
0.209941
0
LINE
8
BLACK
6
CONTINUOUS
10
0.40563
20
0.209941
11
0.405444
21
0.209954
0
LINE
8
BLACK
6
CONTINUOUS
10
0.405444
20
0.209954
11
0.404924
21
0.210552
0
LINE
8
BLACK
6
CONTINUOUS
10
0.404924
20
0.210552
11
0.404326
21
0.211072
0
LINE
8
BLACK
6
CONTINUOUS
10
0.404326
20
0.211072
11
0.404312
21
0.211258
0
LINE
8
BLACK
6
CONTINUOUS
10
0.404312
20
0.211258
11
0.40419
21
0.211399
0
LINE
8
BLACK
6
CONTINUOUS
10
0.40419
20
0.211399
11
0.391067
21
0.250769
0
LINE
8
BLACK
6
CONTINUOUS
10
0.391067
20
0.250769
11
0.391202
21
0.252678
0
LINE
8
BLACK
6
CONTINUOUS
10
0.391202
20
0.252678
11
0.392648
21
0.253932
0
LINE
8
BLACK
6
CONTINUOUS
10
0.392648
20
0.253932
11
0.394556
21
0.253796
0
LINE
8
BLACK
6
CONTINUOUS
10
0.394556
20
0.253796
11
0.39581
21
0.25235
0
LINE
8
BLACK
6
CONTINUOUS
10
0.39581
20
0.25235
11
0.406562
21
0.220095
0
LINE
8
BLACK
6
CONTINUOUS
10
0.406562
20
0.220095
11
0.417313
21
0.25235
0
LINE
8
BLACK
6
CONTINUOUS
10
0.417313
20
0.25235
11
0.418567
21
0.253796
0
LINE
8
BLACK
6
CONTINUOUS
10
0.418567
20
0.253796
11
0.420476
21
0.253932
0
LINE
8
BLACK
6
CONTINUOUS
10
0.420476
20
0.253932
11
0.421921
21
0.252678
0
LINE
8
BLACK
6
CONTINUOUS
10
0.0410099
20
0.265979
11
0.0425572
21
0.264681
0
LINE
8
BLACK
6
CONTINUOUS
10
0.0425572
20
0.264681
11
0.0429079
21
0.262692
0
LINE
8
BLACK
6
CONTINUOUS
10
0.0429079
20
0.262692
11
0.041898
21
0.260943
0
LINE
8
BLACK
6
CONTINUOUS
10
0.041898
20
0.260943
11
0.04
21
0.260252
0
LINE
8
BLACK
6
CONTINUOUS
10
0.04
20
0.260252
11
-0.04
21
0.260252
0
LINE
8
BLACK
6
CONTINUOUS
10
-0.04
20
0.260252
11
-0.0410099
21
0.26043
0
LINE
8
BLACK
6
CONTINUOUS
10
-0.0410099
20
0.26043
11
-0.0425572
21
0.261728
0
LINE
8
BLACK
6
CONTINUOUS
10
-0.0425572
20
0.261728
11
-0.0429079
21
0.263717
0
LINE
8
BLACK
6
CONTINUOUS
10
-0.0429079
20
0.263717
11
-0.041898
21
0.265467
0
LINE
8
BLACK
6
CONTINUOUS
10
-0.041898
20
0.265467
11
-0.04
21
0.266157
0
LINE
8
BLACK
6
CONTINUOUS
10
-0.04
20
0.266157
11
0.04
21
0.266157
0
LINE
8
BLACK
6
CONTINUOUS
10
0.04
20
0.266157
11
0.0410099
21
0.265979
0
LINE
8
BLACK
6
CONTINUOUS
10
0.230208
20
0.355836
11
0.23094
21
0.354068
0
LINE
8
BLACK
6
CONTINUOUS
10
0.23094
20
0.354068
11
0.23094
21
0.34532
0
LINE
8
BLACK
6
CONTINUOUS
10
0.23094
20
0.34532
11
0.26781
21
0.34532
0
LINE
8
BLACK
6
CONTINUOUS
10
0.26781
20
0.34532
11
0.269578
21
0.344587
0
LINE
8
BLACK
6
CONTINUOUS
10
0.269578
20
0.344587
11
0.27031
21
0.34282
0
LINE
8
BLACK
6
CONTINUOUS
10
0.27031
20
0.34282
11
0.269578
21
0.341052
0
LINE
8
BLACK
6
CONTINUOUS
10
0.269578
20
0.341052
11
0.26781
21
0.34032
0
LINE
8
BLACK
6
CONTINUOUS
10
0.26781
20
0.34032
11
0.23094
21
0.34032
0
LINE
8
BLACK
6
CONTINUOUS
10
0.23094
20
0.34032
11
0.23094
21
0.331571
0
LINE
8
BLACK
6
CONTINUOUS
10
0.23094
20
0.331571
11
0.230208
21
0.329803
0
LINE
8
BLACK
6
CONTINUOUS
10
0.230208
20
0.329803
11
0.22844
21
0.329071
0
LINE
8
BLACK
6
CONTINUOUS
10
0.22844
20
0.329071
11
0.226672
21
0.329803
0
LINE
8
BLACK
6
CONTINUOUS
10
0.226672
20
0.329803
11
0.22594
21
0.331571
0
LINE
8
BLACK
6
CONTINUOUS
10
0.22594
20
0.331571
11
0.22594
21
0.354068
0
LINE
8
BLACK
6
CONTINUOUS
10
0.22594
20
0.354068
11
0.226672
21
0.355836
0
LINE
8
BLACK
6
CONTINUOUS
10
0.226672
20
0.355836
11
0.22844
21
0.356568
0
LINE
8
BLACK
6
CONTINUOUS
10
0.22844
20
0.356568
11
0.230208
21
0.355836
0
LINE
8
BLACK
6
CONTINUOUS
10
0.666273
20
0.377396
11
0.667005
21
0.375628
0
LINE
8
BLACK
6
CONTINUOUS
10
0.667005
20
0.375628
11
0.667005
21
0.36313
0
LINE
8
BLACK
6
CONTINUOUS
10
0.667005
20
0.36313
11
0.679503
21
0.36313
0
LINE
8
BLACK
6
CONTINUOUS
10
0.679503
20
0.36313
11
0.681271
21
0.362398
0
LINE
8
BLACK
6
CONTINUOUS
10
0.681271
20
0.362398
11
0.682003
21
0.36063
0
LINE
8
BLACK
6
CONTINUOUS
10
0.682003
20
0.36063
11
0.681271
21
0.358862
0
LINE
8
BLACK
6
CONTINUOUS
10
0.681271
20
0.358862
11
0.679503
21
0.35813
0
LINE
8
BLACK
6
CONTINUOUS
10
0.679503
20
0.35813
11
0.667005
21
0.35813
0
LINE
8
BLACK
6
CONTINUOUS
10
0.667005
20
0.35813
11
0.667005
21
0.345632
0
LINE
8
BLACK
6
CONTINUOUS
10
0.667005
20
0.345632
11
0.666273
21
0.343864
0
LINE
8
BLACK
6
CONTINUOUS
10
0.666273
20
0.343864
11
0.664505
21
0.343132
0
LINE
8
BLACK
6
CONTINUOUS
10
0.664505
20
0.343132
11
0.662737
21
0.343864
0
LINE
8
BLACK
6
CONTINUOUS
10
0.662737
20
0.343864
11
0.662005
21
0.345632
0
LINE
8
BLACK
6
CONTINUOUS
10
0.662005
20
0.345632
11
0.662005
21
0.35813
0
LINE
8
BLACK
6
CONTINUOUS
10
0.662005
20
0.35813
11
0.649507
21
0.35813
0
LINE
8
BLACK
6
CONTINUOUS
10
0.649507
20
0.35813
11
0.647739
21
0.358862
0
LINE
8
BLACK
6
CONTINUOUS
10
0.647739
20
0.358862
11
0.647007
21
0.36063
0
LINE
8
BLACK
6
CONTINUOUS
10
0.647007
20
0.36063
11
0.647739
21
0.362398
0
LINE
8
BLACK
6
CONTINUOUS
10
0.647739
20
0.362398
11
0.649507
21
0.36313
0
LINE
8
BLACK
6
CONTINUOUS
10
0.649507
20
0.36313
11
0.662005
21
0.36313
0
LINE
8
BLACK
6
CONTINUOUS
10
0.662005
20
0.36313
11
0.662005
21
0.375628
0
LINE
8
BLACK
6
CONTINUOUS
10
0.662005
20
0.375628
11
0.662737
21
0.377396
0
LINE
8
BLACK
6
CONTINUOUS
10
0.662737
20
0.377396
11
0.664505
21
0.378128
0
LINE
8
BLACK
6
CONTINUOUS
10
0.664505
20
0.378128
11
0.666273
21
0.377396
0
LINE
8
BLACK
6
CONTINUOUS
10
0.578515
20
0.380208
11
0.579247
21
0.37844
0
LINE
8
BLACK
6
CONTINUOUS
10
0.579247
20
0.37844
11
0.579247
21
0.369692
0
LINE
8
BLACK
6
CONTINUOUS
10
0.579247
20
0.369692
11
0.616117
21
0.369692
0
LINE
8
BLACK
6
CONTINUOUS
10
0.616117
20
0.369692
11
0.617885
21
0.368959
0
LINE
8
BLACK
6
CONTINUOUS
10
0.617885
20
0.368959
11
0.618617
21
0.367192
0
LINE
8
BLACK
6
CONTINUOUS
10
0.618617
20
0.367192
11
0.617885
21
0.365424
0
LINE
8
BLACK
6
CONTINUOUS
10
0.617885
20
0.365424
11
0.616117
21
0.364692
0
LINE
8
BLACK
6
CONTINUOUS
10
0.616117
20
0.364692
11
0.579247
21
0.364692
0
LINE
8
BLACK
6
CONTINUOUS
10
0.579247
20
0.364692
11
0.579247
21
0.355943
0
LINE
8
BLACK
6
CONTINUOUS
10
0.579247
20
0.355943
11
0.578515
21
0.354175
0
LINE
8
BLACK
6
CONTINUOUS
10
0.578515
20
0.354175
11
0.576747
21
0.353443
0
LINE
8
BLACK
6
CONTINUOUS
10
0.576747
20
0.353443
11
0.574979
21
0.354175
0
LINE
8
BLACK
6
CONTINUOUS
10
0.574979
20
0.354175
11
0.574247
21
0.355943
0
LINE
8
BLACK
6
CONTINUOUS
10
0.574247
20
0.355943
11
0.574247
21
0.37844
0
LINE
8
BLACK
6
CONTINUOUS
10
0.574247
20
0.37844
11
0.574979
21
0.380208
0
LINE
8
BLACK
6
CONTINUOUS
10
0.574979
20
0.380208
11
0.576747
21
0.38094
0
LINE
8
BLACK
6
CONTINUOUS
10
0.576747
20
0.38094
11
0.578515
21
0.380208
0
LINE
8
BLACK
6
CONTINUOUS
10
-0.135533
20
0.441898
11
-0.134843
21
0.44
0
LINE
8
BLACK
6
CONTINUOUS
10
-0.134843
20
0.44
11
-0.134843
21
0.36
0
LINE
8
BLACK
6
CONTINUOUS
10
-0.134843
20
0.36
11
-0.135021
21
0.35899
0
LINE
8
BLACK
6
CONTINUOUS
10
-0.135021
20
0.35899
11
-0.136319
21
0.357443
0
LINE
8
BLACK
6
CONTINUOUS
10
-0.136319
20
0.357443
11
-0.138308
21
0.357092
0
LINE
8
BLACK
6
CONTINUOUS
10
-0.138308
20
0.357092
11
-0.140057
21
0.358102
0
LINE
8
BLACK
6
CONTINUOUS
10
-0.140057
20
0.358102
11
-0.140748
21
0.36
0
LINE
8
BLACK
6
CONTINUOUS
10
-0.140748
20
0.36
11
-0.140748
21
0.44
0
LINE
8
BLACK
6
CONTINUOUS
10
-0.140748
20
0.44
11
-0.14057
21
0.44101
0
LINE
8
BLACK
6
CONTINUOUS
10
-0.14057
20
0.44101
11
-0.139272
21
0.442557
0
LINE
8
BLACK
6
CONTINUOUS
10
-0.139272
20
0.442557
11
-0.137283
21
0.442908
0
LINE
8
BLACK
6
CONTINUOUS
10
-0.137283
20
0.442908
11
-0.135533
21
0.441898
0
LINE
8
BLACK
6
CONTINUOUS
10
0.140057
20
0.441898
11
0.140748
21
0.44
0
LINE
8
BLACK
6
CONTINUOUS
10
0.140748
20
0.44
11
0.140748
21
0.36
0
LINE
8
BLACK
6
CONTINUOUS
10
0.140748
20
0.36
11
0.14057
21
0.35899
0
LINE
8
BLACK
6
CONTINUOUS
10
0.14057
20
0.35899
11
0.139272
21
0.357443
0
LINE
8
BLACK
6
CONTINUOUS
10
0.139272
20
0.357443
11
0.137283
21
0.357092
0
LINE
8
BLACK
6
CONTINUOUS
10
0.137283
20
0.357092
11
0.135533
21
0.358102
0
LINE
8
BLACK
6
CONTINUOUS
10
0.135533
20
0.358102
11
0.134843
21
0.36
0
LINE
8
BLACK
6
CONTINUOUS
10
0.134843
20
0.36
11
0.134843
21
0.44
0
LINE
8
BLACK
6
CONTINUOUS
10
0.134843
20
0.44
11
0.135021
21
0.44101
0
LINE
8
BLACK
6
CONTINUOUS
10
0.135021
20
0.44101
11
0.136319
21
0.442557
0
LINE
8
BLACK
6
CONTINUOUS
10
0.136319
20
0.442557
11
0.138308
21
0.442908
0
LINE
8
BLACK
6
CONTINUOUS
10
0.138308
20
0.442908
11
0.140057
21
0.441898
0
LINE
8
BLACK
6
CONTINUOUS
10
0.226672
20
0.365424
11
0.22594
21
0.367192
0
LINE
8
BLACK
6
CONTINUOUS
10
0.22594
20
0.367192
11
0.226672
21
0.368959
0
LINE
8
BLACK
6
CONTINUOUS
10
0.226672
20
0.368959
11
0.22844
21
0.369692
0
LINE
8
BLACK
6
CONTINUOUS
10
0.22844
20
0.369692
11
0.26531
21
0.369692
0
LINE
8
BLACK
6
CONTINUOUS
10
0.26531
20
0.369692
11
0.26531
21
0.385939
0
LINE
8
BLACK
6
CONTINUOUS
10
0.26531
20
0.385939
11
0.266042
21
0.387707
0
LINE
8
BLACK
6
CONTINUOUS
10
0.266042
20
0.387707
11
0.26781
21
0.388439
0
LINE
8
BLACK
6
CONTINUOUS
10
0.26781
20
0.388439
11
0.269578
21
0.387707
0
LINE
8
BLACK
6
CONTINUOUS
10
0.269578
20
0.387707
11
0.27031
21
0.385939
0
LINE
8
BLACK
6
CONTINUOUS
10
0.27031
20
0.385939
11
0.27031
21
0.367192
0
LINE
8
BLACK
6
CONTINUOUS
10
0.27031
20
0.367192
11
0.269578
21
0.365424
0
LINE
8
BLACK
6
CONTINUOUS
10
0.269578
20
0.365424
11
0.26781
21
0.364692
0
LINE
8
BLACK
6
CONTINUOUS
10
0.26781
20
0.364692
11
0.22844
21
0.364692
0
LINE
8
BLACK
6
CONTINUOUS
10
0.22844
20
0.364692
11
0.226672
21
0.365424
0
LINE
8
BLACK
6
CONTINUOUS
10
0.574979
20
0.389796
11
0.574247
21
0.391564
0
LINE
8
BLACK
6
CONTINUOUS
10
0.574247
20
0.391564
11
0.574979
21
0.393331
0
LINE
8
BLACK
6
CONTINUOUS
10
0.574979
20
0.393331
11
0.576747
21
0.394064
0
LINE
8
BLACK
6
CONTINUOUS
10
0.576747
20
0.394064
11
0.613617
21
0.394064
0
LINE
8
BLACK
6
CONTINUOUS
10
0.613617
20
0.394064
11
0.613617
21
0.410311
0
LINE
8
BLACK
6
CONTINUOUS
10
0.613617
20
0.410311
11
0.61435
21
0.412079
0
LINE
8
BLACK
6
CONTINUOUS
10
0.61435
20
0.412079
11
0.616117
21
0.412811
0
LINE
8
BLACK
6
CONTINUOUS
10
0.616117
20
0.412811
11
0.617885
21
0.412079
0
LINE
8
BLACK
6
CONTINUOUS
10
0.617885
20
0.412079
11
0.618617
21
0.410311
0
LINE
8
BLACK
6
CONTINUOUS
10
0.618617
20
0.410311
11
0.618617
21
0.391564
0
LINE
8
BLACK
6
CONTINUOUS
10
0.618617
20
0.391564
11
0.617885
21
0.389796
0
LINE
8
BLACK
6
CONTINUOUS
10
0.617885
20
0.389796
11
0.616117
21
0.389064
0
LINE
8
BLACK
6
CONTINUOUS
10
0.616117
20
0.389064
11
0.576747
21
0.389064
0
LINE
8
BLACK
6
CONTINUOUS
10
0.576747
20
0.389064
11
0.574979
21
0.389796
0
LINE
8
BLACK
6
CONTINUOUS
10
0.268601
20
0.408933
11
0.268742
21
0.408811
0
LINE
8
BLACK
6
CONTINUOUS
10
0.268742
20
0.408811
11
0.268928
21
0.408798
0
LINE
8
BLACK
6
CONTINUOUS
10
0.268928
20
0.408798
11
0.269447
21
0.408199
0
LINE
8
BLACK
6
CONTINUOUS
10
0.269447
20
0.408199
11
0.270046
21
0.40768
0
LINE
8
BLACK
6
CONTINUOUS
10
0.270046
20
0.40768
11
0.270059
21
0.407493
0
LINE
8
BLACK
6
CONTINUOUS
10
0.270059
20
0.407493
11
0.270182
21
0.407352
0
LINE
8
BLACK
6
CONTINUOUS
10
0.270182
20
0.407352
11
0.270126
21
0.406562
0
LINE
8
BLACK
6
CONTINUOUS
10
0.270126
20
0.406562
11
0.270182
21
0.405771
0
LINE
8
BLACK
6
CONTINUOUS
10
0.270182
20
0.405771
11
0.270059
21
0.40563
0
LINE
8
BLACK
6
CONTINUOUS
10
0.270059
20
0.40563
11
0.270046
21
0.405444
0
LINE
8
BLACK
6
CONTINUOUS
10
0.270046
20
0.405444
11
0.269447
21
0.404924
0
LINE
8
BLACK
6
CONTINUOUS
10
0.269447
20
0.404924
11
0.268928
21
0.404326
0
LINE
8
BLACK
6
CONTINUOUS
10
0.268928
20
0.404326
11
0.268742
21
0.404312
0
LINE
8
BLACK
6
CONTINUOUS
10
0.268742
20
0.404312
11
0.268601
21
0.40419
0
LINE
8
BLACK
6
CONTINUOUS
10
0.268601
20
0.40419
11
0.229231
21
0.391067
0
LINE
8
BLACK
6
CONTINUOUS
10
0.229231
20
0.391067
11
0.227322
21
0.391202
0
LINE
8
BLACK
6
CONTINUOUS
10
0.227322
20
0.391202
11
0.226068
21
0.392648
0
LINE
8
BLACK
6
CONTINUOUS
10
0.226068
20
0.392648
11
0.226204
21
0.394556
0
LINE
8
BLACK
6
CONTINUOUS
10
0.226204
20
0.394556
11
0.22765
21
0.39581
0
LINE
8
BLACK
6
CONTINUOUS
10
0.22765
20
0.39581
11
0.259905
21
0.406562
0
LINE
8
BLACK
6
CONTINUOUS
10
0.259905
20
0.406562
11
0.22765
21
0.417313
0
LINE
8
BLACK
6
CONTINUOUS
10
0.22765
20
0.417313
11
0.226204
21
0.418567
0
LINE
8
BLACK
6
CONTINUOUS
10
0.226204
20
0.418567
11
0.226068
21
0.420476
0
LINE
8
BLACK
6
CONTINUOUS
10
0.226068
20
0.420476
11
0.227322
21
0.421921
0
LINE
8
BLACK
6
CONTINUOUS
10
0.227322
20
0.421921
11
0.229231
21
0.422057
0
LINE
8
BLACK
6
CONTINUOUS
10
0.229231
20
0.422057
11
0.268601
21
0.408933
0
LINE
8
BLACK
6
CONTINUOUS
10
0.616908
20
0.433305
11
0.617049
21
0.433183
0
LINE
8
BLACK
6
CONTINUOUS
10
0.617049
20
0.433183
11
0.617235
21
0.43317
0
LINE
8
BLACK
6
CONTINUOUS
10
0.617235
20
0.43317
11
0.617755
21
0.432571
0
LINE
8
BLACK
6
CONTINUOUS
10
0.617755
20
0.432571
11
0.618353
21
0.432052
0
LINE
8
BLACK
6
CONTINUOUS
10
0.618353
20
0.432052
11
0.618367
21
0.431865
0
LINE
8
BLACK
6
CONTINUOUS
10
0.618367
20
0.431865
11
0.618489
21
0.431724
0
LINE
8
BLACK
6
CONTINUOUS
10
0.618489
20
0.431724
11
0.618433
21
0.430933
0
LINE
8
BLACK
6
CONTINUOUS
10
0.618433
20
0.430933
11
0.618489
21
0.430143
0
LINE
8
BLACK
6
CONTINUOUS
10
0.618489
20
0.430143
11
0.618367
21
0.430002
0
LINE
8
BLACK
6
CONTINUOUS
10
0.618367
20
0.430002
11
0.618353
21
0.429816
0
LINE
8
BLACK
6
CONTINUOUS
10
0.618353
20
0.429816
11
0.617754
21
0.429296
0
LINE
8
BLACK
6
CONTINUOUS
10
0.617754
20
0.429296
11
0.617235
21
0.428698
0
LINE
8
BLACK
6
CONTINUOUS
10
0.617235
20
0.428698
11
0.617049
21
0.428684
0
LINE
8
BLACK
6
CONTINUOUS
10
0.617049
20
0.428684
11
0.616908
21
0.428562
0
LINE
8
BLACK
6
CONTINUOUS
10
0.616908
20
0.428562
11
0.577538
21
0.415439
0
LINE
8
BLACK
6
CONTINUOUS
10
0.577538
20
0.415439
11
0.575629
21
0.415574
0
LINE
8
BLACK
6
CONTINUOUS
10
0.575629
20
0.415574
11
0.574376
21
0.41702
0
LINE
8
BLACK
6
CONTINUOUS
10
0.574376
20
0.41702
11
0.574511
21
0.418928
0
LINE
8
BLACK
6
CONTINUOUS
10
0.574511
20
0.418928
11
0.575957
21
0.420182
0
LINE
8
BLACK
6
CONTINUOUS
10
0.575957
20
0.420182
11
0.608212
21
0.430934
0
LINE
8
BLACK
6
CONTINUOUS
10
0.608212
20
0.430934
11
0.575957
21
0.441685
0
LINE
8
BLACK
6
CONTINUOUS
10
0.575957
20
0.441685
11
0.574511
21
0.442939
0
LINE
8
BLACK
6
CONTINUOUS
10
0.574511
20
0.442939
11
0.574376
21
0.444848
0
LINE
8
BLACK
6
CONTINUOUS
10
0.574376
20
0.444848
11
0.575629
21
0.446293
0
LINE
8
BLACK
6
CONTINUOUS
10
0.575629
20
0.446293
11
0.577538
21
0.446429
0
LINE
8
BLACK
6
CONTINUOUS
10
0.577538
20
0.446429
11
0.616908
21
0.433305
0
LINE
8
BLACK
6
CONTINUOUS
10
0.666273
20
0.456136
11
0.667005
21
0.454368
0
LINE
8
BLACK
6
CONTINUOUS
10
0.667005
20
0.454368
11
0.667005
21
0.424372
0
LINE
8
BLACK
6
CONTINUOUS
10
0.667005
20
0.424372
11
0.666273
21
0.422604
0
LINE
8
BLACK
6
CONTINUOUS
10
0.666273
20
0.422604
11
0.664505
21
0.421872
0
LINE
8
BLACK
6
CONTINUOUS
10
0.664505
20
0.421872
11
0.662737
21
0.422604
0
LINE
8
BLACK
6
CONTINUOUS
10
0.662737
20
0.422604
11
0.662005
21
0.424372
0
LINE
8
BLACK
6
CONTINUOUS
10
0.662005
20
0.424372
11
0.662005
21
0.454368
0
LINE
8
BLACK
6
CONTINUOUS
10
0.662005
20
0.454368
11
0.662737
21
0.456136
0
LINE
8
BLACK
6
CONTINUOUS
10
0.662737
20
0.456136
11
0.664505
21
0.456868
0
LINE
8
BLACK
6
CONTINUOUS
10
0.664505
20
0.456868
11
0.666273
21
0.456136
0
LINE
8
BLACK
6
CONTINUOUS
10
0.25458
20
0.464572
11
0.255312
21
0.462805
0
LINE
8
BLACK
6
CONTINUOUS
10
0.255312
20
0.462805
11
0.255312
21
0.432808
0
LINE
8
BLACK
6
CONTINUOUS
10
0.255312
20
0.432808
11
0.25458
21
0.431041
0
LINE
8
BLACK
6
CONTINUOUS
10
0.25458
20
0.431041
11
0.252812
21
0.430308
0
LINE
8
BLACK
6
CONTINUOUS
10
0.252812
20
0.430308
11
0.251044
21
0.431041
0
LINE
8
BLACK
6
CONTINUOUS
10
0.251044
20
0.431041
11
0.250312
21
0.432808
0
LINE
8
BLACK
6
CONTINUOUS
10
0.250312
20
0.432808
11
0.250312
21
0.462805
0
LINE
8
BLACK
6
CONTINUOUS
10
0.250312
20
0.462805
11
0.251044
21
0.464572
0
LINE
8
BLACK
6
CONTINUOUS
10
0.251044
20
0.464572
11
0.252812
21
0.465305
0
LINE
8
BLACK
6
CONTINUOUS
10
0.252812
20
0.465305
11
0.25458
21
0.464572
0
LINE
8
BLACK
6
CONTINUOUS
10
0.550384
20
0.752885
11
0.550513
21
0.752908
0
LINE
8
BLACK
6
CONTINUOUS
10
0.550513
20
0.752908
11
0.550626
21
0.752842
0
LINE
8
BLACK
6
CONTINUOUS
10
0.550626
20
0.752842
11
0.55101
21
0.752775
0
LINE
8
BLACK
6
CONTINUOUS
10
0.55101
20
0.752775
11
0.551598
21
0.752282
0
LINE
8
BLACK
6
CONTINUOUS
10
0.551598
20
0.752282
11
0.552262
21
0.751898
0
LINE
8
BLACK
6
CONTINUOUS
10
0.552262
20
0.751898
11
0.552353
21
0.751648
0
LINE
8
BLACK
6
CONTINUOUS
10
0.552353
20
0.751648
11
0.552557
21
0.751476
0
LINE
8
BLACK
6
CONTINUOUS
10
0.552557
20
0.751476
11
0.55269
21
0.750721
0
LINE
8
BLACK
6
CONTINUOUS
10
0.55269
20
0.750721
11
0.552953
21
0.75
0
LINE
8
BLACK
6
CONTINUOUS
10
0.552953
20
0.75
11
0.552953
21
0.45
0
LINE
8
BLACK
6
CONTINUOUS
10
0.552953
20
0.45
11
0.552885
21
0.449616
0
LINE
8
BLACK
6
CONTINUOUS
10
0.552885
20
0.449616
11
0.552908
21
0.449487
0
LINE
8
BLACK
6
CONTINUOUS
10
0.552908
20
0.449487
11
0.552842
21
0.449374
0
LINE
8
BLACK
6
CONTINUOUS
10
0.552842
20
0.449374
11
0.552775
21
0.44899
0
LINE
8
BLACK
6
CONTINUOUS
10
0.552775
20
0.44899
11
0.552282
21
0.448402
0
LINE
8
BLACK
6
CONTINUOUS
10
0.552282
20
0.448402
11
0.551898
21
0.447738
0
LINE
8
BLACK
6
CONTINUOUS
10
0.551898
20
0.447738
11
0.551648
21
0.447647
0
LINE
8
BLACK
6
CONTINUOUS
10
0.551648
20
0.447647
11
0.551476
21
0.447443
0
LINE
8
BLACK
6
CONTINUOUS
10
0.551476
20
0.447443
11
0.550721
21
0.44731
0
LINE
8
BLACK
6
CONTINUOUS
10
0.550721
20
0.44731
11
0.55
21
0.447047
0
LINE
8
BLACK
6
CONTINUOUS
10
0.55
20
0.447047
11
0.35
21
0.447047
0
LINE
8
BLACK
6
CONTINUOUS
10
0.35
20
0.447047
11
0.349616
21
0.447115
0
LINE
8
BLACK
6
CONTINUOUS
10
0.349616
20
0.447115
11
0.349487
21
0.447092
0
LINE
8
BLACK
6
CONTINUOUS
10
0.349487
20
0.447092
11
0.349374
21
0.447158
0
LINE
8
BLACK
6
CONTINUOUS
10
0.349374
20
0.447158
11
0.34899
21
0.447225
0
LINE
8
BLACK
6
CONTINUOUS
10
0.34899
20
0.447225
11
0.348402
21
0.447718
0
LINE
8
BLACK
6
CONTINUOUS
10
0.348402
20
0.447718
11
0.347738
21
0.448102
0
LINE
8
BLACK
6
CONTINUOUS
10
0.347738
20
0.448102
11
0.347647
21
0.448352
0
LINE
8
BLACK
6
CONTINUOUS
10
0.347647
20
0.448352
11
0.347443
21
0.448524
0
LINE
8
BLACK
6
CONTINUOUS
10
0.347443
20
0.448524
11
0.34731
21
0.449279
0
LINE
8
BLACK
6
CONTINUOUS
10
0.34731
20
0.449279
11
0.347047
21
0.45
0
LINE
8
BLACK
6
CONTINUOUS
10
0.347047
20
0.45
11
0.347047
21
0.75
0
LINE
8
BLACK
6
CONTINUOUS
10
0.347047
20
0.75
11
0.347115
21
0.750384
0
LINE
8
BLACK
6
CONTINUOUS
10
0.347115
20
0.750384
11
0.347092
21
0.750513
0
LINE
8
BLACK
6
CONTINUOUS
10
0.347092
20
0.750513
11
0.347158
21
0.750626
0
LINE
8
BLACK
6
CONTINUOUS
10
0.347158
20
0.750626
11
0.347225
21
0.75101
0
LINE
8
BLACK
6
CONTINUOUS
10
0.347225
20
0.75101
11
0.347718
21
0.751598
0
LINE
8
BLACK
6
CONTINUOUS
10
0.347718
20
0.751598
11
0.348102
21
0.752262
0
LINE
8
BLACK
6
CONTINUOUS
10
0.348102
20
0.752262
11
0.348352
21
0.752353
0
LINE
8
BLACK
6
CONTINUOUS
10
0.348352
20
0.752353
11
0.348524
21
0.752557
0
LINE
8
BLACK
6
CONTINUOUS
10
0.348524
20
0.752557
11
0.349279
21
0.75269
0
LINE
8
BLACK
6
CONTINUOUS
10
0.349279
20
0.75269
11
0.35
21
0.752953
0
LINE
8
BLACK
6
CONTINUOUS
10
0.35
20
0.752953
11
0.55
21
0.752953
0
LINE
8
BLACK
6
CONTINUOUS
10
0.55
20
0.752953
11
0.550384
21
0.752885
0
LINE
8
BLACK
6
CONTINUOUS
10
0.352953
20
0.747047
11
0.352953
21
0.452953
0
LINE
8
BLACK
6
CONTINUOUS
10
0.352953
20
0.452953
11
0.547047
21
0.452953
0
LINE
8
BLACK
6
CONTINUOUS
10
0.547047
20
0.452953
11
0.547047
21
0.747047
0
LINE
8
BLACK
6
CONTINUOUS
10
0.547047
20
0.747047
11
0.352953
21
0.747047
0
LINE
8
BLACK
6
CONTINUOUS
10
0.310069
20
0.497356
11
0.310479
21
0.497385
0
LINE
8
BLACK
6
CONTINUOUS
10
0.310479
20
0.497385
11
0.316104
21
0.49551
0
LINE
8
BLACK
6
CONTINUOUS
10
0.316104
20
0.49551
11
0.316543
21
0.495129
0
LINE
8
BLACK
6
CONTINUOUS
10
0.316543
20
0.495129
11
0.317081
21
0.494906
0
LINE
8
BLACK
6
CONTINUOUS
10
0.317081
20
0.494906
11
0.33531
21
0.476677
0
LINE
8
BLACK
6
CONTINUOUS
10
0.33531
20
0.476677
11
0.33531
21
0.495013
0
LINE
8
BLACK
6
CONTINUOUS
10
0.33531
20
0.495013
11
0.336042
21
0.496781
0
LINE
8
BLACK
6
CONTINUOUS
10
0.336042
20
0.496781
11
0.33781
21
0.497513
0
LINE
8
BLACK
6
CONTINUOUS
10
0.33781
20
0.497513
11
0.339578
21
0.496781
0
LINE
8
BLACK
6
CONTINUOUS
10
0.339578
20
0.496781
11
0.34031
21
0.495013
0
LINE
8
BLACK
6
CONTINUOUS
10
0.34031
20
0.495013
11
0.34031
21
0.470641
0
LINE
8
BLACK
6
CONTINUOUS
10
0.34031
20
0.470641
11
0.339578
21
0.468873
0
LINE
8
BLACK
6
CONTINUOUS
10
0.339578
20
0.468873
11
0.33781
21
0.468141
0
LINE
8
BLACK
6
CONTINUOUS
10
0.33781
20
0.468141
11
0.336042
21
0.468873
0
LINE
8
BLACK
6
CONTINUOUS
10
0.336042
20
0.468873
11
0.313963
21
0.490953
0
LINE
8
BLACK
6
CONTINUOUS
10
0.313963
20
0.490953
11
0.309283
21
0.492513
0
LINE
8
BLACK
6
CONTINUOUS
10
0.309283
20
0.492513
11
0.306529
21
0.492513
0
LINE
8
BLACK
6
CONTINUOUS
10
0.306529
20
0.492513
11
0.303671
21
0.491084
0
LINE
8
BLACK
6
CONTINUOUS
10
0.303671
20
0.491084
11
0.30237
21
0.489783
0
LINE
8
BLACK
6
CONTINUOUS
10
0.30237
20
0.489783
11
0.30094
21
0.486924
0
LINE
8
BLACK
6
CONTINUOUS
10
0.30094
20
0.486924
11
0.30094
21
0.47873
0
LINE
8
BLACK
6
CONTINUOUS
10
0.30094
20
0.47873
11
0.30237
21
0.475872
0
LINE
8
BLACK
6
CONTINUOUS
10
0.30237
20
0.475872
11
0.303957
21
0.474284
0
LINE
8
BLACK
6
CONTINUOUS
10
0.303957
20
0.474284
11
0.30469
21
0.472516
0
LINE
8
BLACK
6
CONTINUOUS
10
0.30469
20
0.472516
11
0.303957
21
0.470748
0
LINE
8
BLACK
6
CONTINUOUS
10
0.303957
20
0.470748
11
0.30219
21
0.470016
0
LINE
8
BLACK
6
CONTINUOUS
10
0.30219
20
0.470016
11
0.300422
21
0.470748
0
LINE
8
BLACK
6
CONTINUOUS
10
0.300422
20
0.470748
11
0.298547
21
0.472623
0
LINE
8
BLACK
6
CONTINUOUS
10
0.298547
20
0.472623
11
0.29839
21
0.473003
0
LINE
8
BLACK
6
CONTINUOUS
10
0.29839
20
0.473003
11
0.298079
21
0.473273
0
LINE
8
BLACK
6
CONTINUOUS
10
0.298079
20
0.473273
11
0.296204
21
0.477022
0
LINE
8
BLACK
6
CONTINUOUS
10
0.296204
20
0.477022
11
0.296163
21
0.477603
0
LINE
8
BLACK
6
CONTINUOUS
10
0.296163
20
0.477603
11
0.29594
21
0.47814
0
LINE
8
BLACK
6
CONTINUOUS
10
0.29594
20
0.47814
11
0.29594
21
0.487514
0
LINE
8
BLACK
6
CONTINUOUS
10
0.29594
20
0.487514
11
0.296163
21
0.488052
0
LINE
8
BLACK
6
CONTINUOUS
10
0.296163
20
0.488052
11
0.296204
21
0.488632
0
LINE
8
BLACK
6
CONTINUOUS
10
0.296204
20
0.488632
11
0.298079
21
0.492382
0
LINE
8
BLACK
6
CONTINUOUS
10
0.298079
20
0.492382
11
0.29839
21
0.492651
0
LINE
8
BLACK
6
CONTINUOUS
10
0.29839
20
0.492651
11
0.298547
21
0.493031
0
LINE
8
BLACK
6
CONTINUOUS
10
0.298547
20
0.493031
11
0.300422
21
0.494906
0
LINE
8
BLACK
6
CONTINUOUS
10
0.300422
20
0.494906
11
0.300802
21
0.495064
0
LINE
8
BLACK
6
CONTINUOUS
10
0.300802
20
0.495064
11
0.301072
21
0.495374
0
LINE
8
BLACK
6
CONTINUOUS
10
0.301072
20
0.495374
11
0.304821
21
0.497249
0
LINE
8
BLACK
6
CONTINUOUS
10
0.304821
20
0.497249
11
0.305402
21
0.49729
0
LINE
8
BLACK
6
CONTINUOUS
10
0.305402
20
0.49729
11
0.305939
21
0.497513
0
LINE
8
BLACK
6
CONTINUOUS
10
0.305939
20
0.497513
11
0.309689
21
0.497513
0
LINE
8
BLACK
6
CONTINUOUS
10
0.309689
20
0.497513
11
0.310069
21
0.497356
0
LINE
8
BLACK
6
CONTINUOUS
10
0.337703
20
0.515529
11
0.339578
21
0.513654
0
LINE
8
BLACK
6
CONTINUOUS
10
0.339578
20
0.513654
11
0.339578
21
0.513654
0
LINE
8
BLACK
6
CONTINUOUS
10
0.339578
20
0.513654
11
0.34031
21
0.511886
0
LINE
8
BLACK
6
CONTINUOUS
10
0.34031
20
0.511886
11
0.339792
21
0.510636
0
LINE
8
BLACK
6
CONTINUOUS
10
0.339792
20
0.510636
11
0.339578
21
0.510118
0
LINE
8
BLACK
6
CONTINUOUS
10
0.339578
20
0.510118
11
0.337703
21
0.508244
0
LINE
8
BLACK
6
CONTINUOUS
10
0.337703
20
0.508244
11
0.335935
21
0.507511
0
LINE
8
BLACK
6
CONTINUOUS
10
0.335935
20
0.507511
11
0.334685
21
0.508029
0
LINE
8
BLACK
6
CONTINUOUS
10
0.334685
20
0.508029
11
0.334168
21
0.508244
0
LINE
8
BLACK
6
CONTINUOUS
10
0.334168
20
0.508244
11
0.332293
21
0.510118
0
LINE
8
BLACK
6
CONTINUOUS
10
0.332293
20
0.510118
11
0.331561
21
0.511886
0
LINE
8
BLACK
6
CONTINUOUS
10
0.331561
20
0.511886
11
0.332293
21
0.513654
0
LINE
8
BLACK
6
CONTINUOUS
10
0.332293
20
0.513654
11
0.334168
21
0.515529
0
LINE
8
BLACK
6
CONTINUOUS
10
0.334168
20
0.515529
11
0.334685
21
0.515743
0
LINE
8
BLACK
6
CONTINUOUS
10
0.334685
20
0.515743
11
0.335935
21
0.516261
0
LINE
8
BLACK
6
CONTINUOUS
10
0.335935
20
0.516261
11
0.337703
21
0.515529
0
LINE
8
BLACK
6
CONTINUOUS
10
0.326455
20
0.554899
11
0.327187
21
0.553131
0
LINE
8
BLACK
6
CONTINUOUS
10
0.327187
20
0.553131
11
0.327187
21
0.550007
0
LINE
8
BLACK
6
CONTINUOUS
10
0.327187
20
0.550007
11
0.33781
21
0.550007
0
LINE
8
BLACK
6
CONTINUOUS
10
0.33781
20
0.550007
11
0.339578
21
0.549274
0
LINE
8
BLACK
6
CONTINUOUS
10
0.339578
20
0.549274
11
0.34031
21
0.547507
0
LINE
8
BLACK
6
CONTINUOUS
10
0.34031
20
0.547507
11
0.339578
21
0.545739
0
LINE
8
BLACK
6
CONTINUOUS
10
0.339578
20
0.545739
11
0.33781
21
0.545007
0
LINE
8
BLACK
6
CONTINUOUS
10
0.33781
20
0.545007
11
0.327187
21
0.545007
0
LINE
8
BLACK
6
CONTINUOUS
10
0.327187
20
0.545007
11
0.327187
21
0.528759
0
LINE
8
BLACK
6
CONTINUOUS
10
0.327187
20
0.528759
11
0.327029
21
0.528379
0
LINE
8
BLACK
6
CONTINUOUS
10
0.327029
20
0.528379
11
0.327059
21
0.527968
0
LINE
8
BLACK
6
CONTINUOUS
10
0.327059
20
0.527968
11
0.326677
21
0.527529
0
LINE
8
BLACK
6
CONTINUOUS
10
0.326677
20
0.527529
11
0.326455
21
0.526991
0
LINE
8
BLACK
6
CONTINUOUS
10
0.326455
20
0.526991
11
0.326074
21
0.526834
0
LINE
8
BLACK
6
CONTINUOUS
10
0.326074
20
0.526834
11
0.325805
21
0.526523
0
LINE
8
BLACK
6
CONTINUOUS
10
0.325805
20
0.526523
11
0.325225
21
0.526482
0
LINE
8
BLACK
6
CONTINUOUS
10
0.325225
20
0.526482
11
0.324687
21
0.526259
0
LINE
8
BLACK
6
CONTINUOUS
10
0.324687
20
0.526259
11
0.324307
21
0.526416
0
LINE
8
BLACK
6
CONTINUOUS
10
0.324307
20
0.526416
11
0.323896
21
0.526387
0
LINE
8
BLACK
6
CONTINUOUS
10
0.323896
20
0.526387
11
0.295775
21
0.535761
0
LINE
8
BLACK
6
CONTINUOUS
10
0.295775
20
0.535761
11
0.294329
21
0.537015
0
LINE
8
BLACK
6
CONTINUOUS
10
0.294329
20
0.537015
11
0.294194
21
0.538923
0
LINE
8
BLACK
6
CONTINUOUS
10
0.294194
20
0.538923
11
0.295447
21
0.540369
0
LINE
8
BLACK
6
CONTINUOUS
10
0.295447
20
0.540369
11
0.297356
21
0.540504
0
LINE
8
BLACK
6
CONTINUOUS
10
0.297356
20
0.540504
11
0.322187
21
0.532228
0
LINE
8
BLACK
6
CONTINUOUS
10
0.322187
20
0.532228
11
0.322187
21
0.545007
0
LINE
8
BLACK
6
CONTINUOUS
10
0.322187
20
0.545007
11
0.311564
21
0.545007
0
LINE
8
BLACK
6
CONTINUOUS
10
0.311564
20
0.545007
11
0.309796
21
0.545739
0
LINE
8
BLACK
6
CONTINUOUS
10
0.309796
20
0.545739
11
0.309064
21
0.547507
0
LINE
8
BLACK
6
CONTINUOUS
10
0.309064
20
0.547507
11
0.309796
21
0.549274
0
LINE
8
BLACK
6
CONTINUOUS
10
0.309796
20
0.549274
11
0.311564
21
0.550007
0
LINE
8
BLACK
6
CONTINUOUS
10
0.311564
20
0.550007
11
0.322187
21
0.550007
0
LINE
8
BLACK
6
CONTINUOUS
10
0.322187
20
0.550007
11
0.322187
21
0.553131
0
LINE
8
BLACK
6
CONTINUOUS
10
0.322187
20
0.553131
11
0.322919
21
0.554899
0
LINE
8
BLACK
6
CONTINUOUS
10
0.322919
20
0.554899
11
0.324687
21
0.555631
0
LINE
8
BLACK
6
CONTINUOUS
10
0.324687
20
0.555631
11
0.326455
21
0.554899
0
LINE
8
BLACK
6
CONTINUOUS
10
0.0410099
20
0.54057
11
0.0425572
21
0.539272
0
LINE
8
BLACK
6
CONTINUOUS
10
0.0425572
20
0.539272
11
0.0429079
21
0.537283
0
LINE
8
BLACK
6
CONTINUOUS
10
0.0429079
20
0.537283
11
0.041898
21
0.535533
0
LINE
8
BLACK
6
CONTINUOUS
10
0.041898
20
0.535533
11
0.04
21
0.534843
0
LINE
8
BLACK
6
CONTINUOUS
10
0.04
20
0.534843
11
-0.04
21
0.534843
0
LINE
8
BLACK
6
CONTINUOUS
10
-0.04
20
0.534843
11
-0.0410099
21
0.535021
0
LINE
8
BLACK
6
CONTINUOUS
10
-0.0410099
20
0.535021
11
-0.0425572
21
0.536319
0
LINE
8
BLACK
6
CONTINUOUS
10
-0.0425572
20
0.536319
11
-0.0429079
21
0.538308
0
LINE
8
BLACK
6
CONTINUOUS
10
-0.0429079
20
0.538308
11
-0.041898
21
0.540057
0
LINE
8
BLACK
6
CONTINUOUS
10
-0.041898
20
0.540057
11
-0.04
21
0.540748
0
LINE
8
BLACK
6
CONTINUOUS
10
-0.04
20
0.540748
11
0.04
21
0.540748
0
LINE
8
BLACK
6
CONTINUOUS
10
0.04
20
0.540748
11
0.0410099
21
0.54057
0
LINE
8
BLACK
6
CONTINUOUS
10
0.32458
20
0.599893
11
0.325312
21
0.598125
0
LINE
8
BLACK
6
CONTINUOUS
10
0.325312
20
0.598125
11
0.325312
21
0.568129
0
LINE
8
BLACK
6
CONTINUOUS
10
0.325312
20
0.568129
11
0.32458
21
0.566361
0
LINE
8
BLACK
6
CONTINUOUS
10
0.32458
20
0.566361
11
0.322812
21
0.565629
0
LINE
8
BLACK
6
CONTINUOUS
10
0.322812
20
0.565629
11
0.321044
21
0.566361
0
LINE
8
BLACK
6
CONTINUOUS
10
0.321044
20
0.566361
11
0.320312
21
0.568129
0
LINE
8
BLACK
6
CONTINUOUS
10
0.320312
20
0.568129
11
0.320312
21
0.598125
0
LINE
8
BLACK
6
CONTINUOUS
10
0.320312
20
0.598125
11
0.321044
21
0.599893
0
LINE
8
BLACK
6
CONTINUOUS
10
0.321044
20
0.599893
11
0.322812
21
0.600625
0
LINE
8
BLACK
6
CONTINUOUS
10
0.322812
20
0.600625
11
0.32458
21
0.599893
0
LINE
8
BLACK
6
CONTINUOUS
10
0.330849
20
0.639773
11
0.331429
21
0.639731
0
LINE
8
BLACK
6
CONTINUOUS
10
0.331429
20
0.639731
11
0.335179
21
0.637857
0
LINE
8
BLACK
6
CONTINUOUS
10
0.335179
20
0.637857
11
0.335448
21
0.637546
0
LINE
8
BLACK
6
CONTINUOUS
10
0.335448
20
0.637546
11
0.335828
21
0.637388
0
LINE
8
BLACK
6
CONTINUOUS
10
0.335828
20
0.637388
11
0.337703
21
0.635514
0
LINE
8
BLACK
6
CONTINUOUS
10
0.337703
20
0.635514
11
0.337861
21
0.635133
0
LINE
8
BLACK
6
CONTINUOUS
10
0.337861
20
0.635133
11
0.338172
21
0.634864
0
LINE
8
BLACK
6
CONTINUOUS
10
0.338172
20
0.634864
11
0.340046
21
0.631114
0
LINE
8
BLACK
6
CONTINUOUS
10
0.340046
20
0.631114
11
0.340088
21
0.630534
0
LINE
8
BLACK
6
CONTINUOUS
10
0.340088
20
0.630534
11
0.34031
21
0.629996
0
LINE
8
BLACK
6
CONTINUOUS
10
0.34031
20
0.629996
11
0.34031
21
0.620622
0
LINE
8
BLACK
6
CONTINUOUS
10
0.34031
20
0.620622
11
0.340088
21
0.620085
0
LINE
8
BLACK
6
CONTINUOUS
10
0.340088
20
0.620085
11
0.340046
21
0.619504
0
LINE
8
BLACK
6
CONTINUOUS
10
0.340046
20
0.619504
11
0.338172
21
0.615755
0
LINE
8
BLACK
6
CONTINUOUS
10
0.338172
20
0.615755
11
0.337861
21
0.615485
0
LINE
8
BLACK
6
CONTINUOUS
10
0.337861
20
0.615485
11
0.337703
21
0.615105
0
LINE
8
BLACK
6
CONTINUOUS
10
0.337703
20
0.615105
11
0.335828
21
0.61323
0
LINE
8
BLACK
6
CONTINUOUS
10
0.335828
20
0.61323
11
0.334061
21
0.612498
0
LINE
8
BLACK
6
CONTINUOUS
10
0.334061
20
0.612498
11
0.332293
21
0.61323
0
LINE
8
BLACK
6
CONTINUOUS
10
0.332293
20
0.61323
11
0.331561
21
0.614998
0
LINE
8
BLACK
6
CONTINUOUS
10
0.331561
20
0.614998
11
0.332293
21
0.616766
0
LINE
8
BLACK
6
CONTINUOUS
10
0.332293
20
0.616766
11
0.333881
21
0.618354
0
LINE
8
BLACK
6
CONTINUOUS
10
0.333881
20
0.618354
11
0.33531
21
0.621213
0
LINE
8
BLACK
6
CONTINUOUS
10
0.33531
20
0.621213
11
0.33531
21
0.629406
0
LINE
8
BLACK
6
CONTINUOUS
10
0.33531
20
0.629406
11
0.333881
21
0.632265
0
LINE
8
BLACK
6
CONTINUOUS
10
0.333881
20
0.632265
11
0.33258
21
0.633566
0
LINE
8
BLACK
6
CONTINUOUS
10
0.33258
20
0.633566
11
0.329721
21
0.634995
0
LINE
8
BLACK
6
CONTINUOUS
10
0.329721
20
0.634995
11
0.321528
21
0.634995
0
LINE
8
BLACK
6
CONTINUOUS
10
0.321528
20
0.634995
11
0.318669
21
0.633566
0
LINE
8
BLACK
6
CONTINUOUS
10
0.318669
20
0.633566
11
0.317368
21
0.632265
0
LINE
8
BLACK
6
CONTINUOUS
10
0.317368
20
0.632265
11
0.315938
21
0.629406
0
LINE
8
BLACK
6
CONTINUOUS
10
0.315938
20
0.629406
11
0.315938
21
0.621213
0
LINE
8
BLACK
6
CONTINUOUS
10
0.315938
20
0.621213
11
0.317368
21
0.618354
0
LINE
8
BLACK
6
CONTINUOUS
10
0.317368
20
0.618354
11
0.318956
21
0.616766
0
LINE
8
BLACK
6
CONTINUOUS
10
0.318956
20
0.616766
11
0.319006
21
0.616644
0
LINE
8
BLACK
6
CONTINUOUS
10
0.319006
20
0.616644
11
0.319123
21
0.616581
0
LINE
8
BLACK
6
CONTINUOUS
10
0.319123
20
0.616581
11
0.319366
21
0.615775
0
LINE
8
BLACK
6
CONTINUOUS
10
0.319366
20
0.615775
11
0.319688
21
0.614998
0
LINE
8
BLACK
6
CONTINUOUS
10
0.319688
20
0.614998
11
0.319637
21
0.614876
0
LINE
8
BLACK
6
CONTINUOUS
10
0.319637
20
0.614876
11
0.319675
21
0.614749
0
LINE
8
BLACK
6
CONTINUOUS
10
0.319675
20
0.614749
11
0.319278
21
0.614008
0
LINE
8
BLACK
6
CONTINUOUS
10
0.319278
20
0.614008
11
0.318956
21
0.61323
0
LINE
8
BLACK
6
CONTINUOUS
10
0.318956
20
0.61323
11
0.318833
21
0.61318
0
LINE
8
BLACK
6
CONTINUOUS
10
0.318833
20
0.61318
11
0.318771
21
0.613063
0
LINE
8
BLACK
6
CONTINUOUS
10
0.318771
20
0.613063
11
0.317965
21
0.61282
0
LINE
8
BLACK
6
CONTINUOUS
10
0.317965
20
0.61282
11
0.317188
21
0.612498
0
LINE
8
BLACK
6
CONTINUOUS
10
0.317188
20
0.612498
11
0.317066
21
0.612549
0
LINE
8
BLACK
6
CONTINUOUS
10
0.317066
20
0.612549
11
0.316939
21
0.612511
0
LINE
8
BLACK
6
CONTINUOUS
10
0.316939
20
0.612511
11
0.298191
21
0.614385
0
LINE
8
BLACK
6
CONTINUOUS
10
0.298191
20
0.614385
11
0.29745
21
0.614783
0
LINE
8
BLACK
6
CONTINUOUS
10
0.29745
20
0.614783
11
0.296672
21
0.615105
0
LINE
8
BLACK
6
CONTINUOUS
10
0.296672
20
0.615105
11
0.296622
21
0.615227
0
LINE
8
BLACK
6
CONTINUOUS
10
0.296622
20
0.615227
11
0.296505
21
0.61529
0
LINE
8
BLACK
6
CONTINUOUS
10
0.296505
20
0.61529
11
0.296262
21
0.616095
0
LINE
8
BLACK
6
CONTINUOUS
10
0.296262
20
0.616095
11
0.29594
21
0.616873
0
LINE
8
BLACK
6
CONTINUOUS
10
0.29594
20
0.616873
11
0.29594
21
0.635621
0
LINE
8
BLACK
6
CONTINUOUS
10
0.29594
20
0.635621
11
0.296672
21
0.637388
0
LINE
8
BLACK
6
CONTINUOUS
10
0.296672
20
0.637388
11
0.29844
21
0.638121
0
LINE
8
BLACK
6
CONTINUOUS
10
0.29844
20
0.638121
11
0.300208
21
0.637388
0
LINE
8
BLACK
6
CONTINUOUS
10
0.300208
20
0.637388
11
0.30094
21
0.635621
0
LINE
8
BLACK
6
CONTINUOUS
10
0.30094
20
0.635621
11
0.30094
21
0.619135
0
LINE
8
BLACK
6
CONTINUOUS
10
0.30094
20
0.619135
11
0.311937
21
0.618036
0
LINE
8
BLACK
6
CONTINUOUS
10
0.311937
20
0.618036
11
0.311202
21
0.619504
0
LINE
8
BLACK
6
CONTINUOUS
10
0.311202
20
0.619504
11
0.311161
21
0.620085
0
LINE
8
BLACK
6
CONTINUOUS
10
0.311161
20
0.620085
11
0.310938
21
0.620622
0
LINE
8
BLACK
6
CONTINUOUS
10
0.310938
20
0.620622
11
0.310938
21
0.629996
0
LINE
8
BLACK
6
CONTINUOUS
10
0.310938
20
0.629996
11
0.311161
21
0.630534
0
LINE
8
BLACK
6
CONTINUOUS
10
0.311161
20
0.630534
11
0.311202
21
0.631114
0
LINE
8
BLACK
6
CONTINUOUS
10
0.311202
20
0.631114
11
0.313077
21
0.634864
0
LINE
8
BLACK
6
CONTINUOUS
10
0.313077
20
0.634864
11
0.313388
21
0.635133
0
LINE
8
BLACK
6
CONTINUOUS
10
0.313388
20
0.635133
11
0.313545
21
0.635514
0
LINE
8
BLACK
6
CONTINUOUS
10
0.313545
20
0.635514
11
0.31542
21
0.637388
0
LINE
8
BLACK
6
CONTINUOUS
10
0.31542
20
0.637388
11
0.3158
21
0.637546
0
LINE
8
BLACK
6
CONTINUOUS
10
0.3158
20
0.637546
11
0.31607
21
0.637857
0
LINE
8
BLACK
6
CONTINUOUS
10
0.31607
20
0.637857
11
0.319819
21
0.639731
0
LINE
8
BLACK
6
CONTINUOUS
10
0.319819
20
0.639731
11
0.3204
21
0.639773
0
LINE
8
BLACK
6
CONTINUOUS
10
0.3204
20
0.639773
11
0.320937
21
0.639995
0
LINE
8
BLACK
6
CONTINUOUS
10
0.320937
20
0.639995
11
0.330311
21
0.639995
0
LINE
8
BLACK
6
CONTINUOUS
10
0.330311
20
0.639995
11
0.330849
21
0.639773
0
LINE
8
BLACK
6
CONTINUOUS
10
0.337703
20
0.658011
11
0.339578
21
0.656136
0
LINE
8
BLACK
6
CONTINUOUS
10
0.339578
20
0.656136
11
0.339578
21
0.656136
0
LINE
8
BLACK
6
CONTINUOUS
10
0.339578
20
0.656136
11
0.34031
21
0.654368
0
LINE
8
BLACK
6
CONTINUOUS
10
0.34031
20
0.654368
11
0.339792
21
0.653118
0
LINE
8
BLACK
6
CONTINUOUS
10
0.339792
20
0.653118
11
0.339578
21
0.6526
0
LINE
8
BLACK
6
CONTINUOUS
10
0.339578
20
0.6526
11
0.337703
21
0.650726
0
LINE
8
BLACK
6
CONTINUOUS
10
0.337703
20
0.650726
11
0.335935
21
0.649993
0
LINE
8
BLACK
6
CONTINUOUS
10
0.335935
20
0.649993
11
0.334685
21
0.650511
0
LINE
8
BLACK
6
CONTINUOUS
10
0.334685
20
0.650511
11
0.334168
21
0.650726
0
LINE
8
BLACK
6
CONTINUOUS
10
0.334168
20
0.650726
11
0.332293
21
0.6526
0
LINE
8
BLACK
6
CONTINUOUS
10
0.332293
20
0.6526
11
0.331561
21
0.654368
0
LINE
8
BLACK
6
CONTINUOUS
10
0.331561
20
0.654368
11
0.332293
21
0.656136
0
LINE
8
BLACK
6
CONTINUOUS
10
0.332293
20
0.656136
11
0.334168
21
0.658011
0
LINE
8
BLACK
6
CONTINUOUS
10
0.334168
20
0.658011
11
0.334685
21
0.658225
0
LINE
8
BLACK
6
CONTINUOUS
10
0.334685
20
0.658225
11
0.335935
21
0.658743
0
LINE
8
BLACK
6
CONTINUOUS
10
0.335935
20
0.658743
11
0.337703
21
0.658011
0
LINE
8
BLACK
6
CONTINUOUS
10
0.0410099
20
0.665979
11
0.0425572
21
0.664681
0
LINE
8
BLACK
6
CONTINUOUS
10
0.0425572
20
0.664681
11
0.0429079
21
0.662692
0
LINE
8
BLACK
6
CONTINUOUS
10
0.0429079
20
0.662692
11
0.041898
21
0.660943
0
LINE
8
BLACK
6
CONTINUOUS
10
0.041898
20
0.660943
11
0.04
21
0.660252
0
LINE
8
BLACK
6
CONTINUOUS
10
0.04
20
0.660252
11
-0.04
21
0.660252
0
LINE
8
BLACK
6
CONTINUOUS
10
-0.04
20
0.660252
11
-0.0410099
21
0.66043
0
LINE
8
BLACK
6
CONTINUOUS
10
-0.0410099
20
0.66043
11
-0.0425572
21
0.661728
0
LINE
8
BLACK
6
CONTINUOUS
10
-0.0425572
20
0.661728
11
-0.0429079
21
0.663717
0
LINE
8
BLACK
6
CONTINUOUS
10
-0.0429079
20
0.663717
11
-0.041898
21
0.665467
0
LINE
8
BLACK
6
CONTINUOUS
10
-0.041898
20
0.665467
11
-0.04
21
0.666157
0
LINE
8
BLACK
6
CONTINUOUS
10
-0.04
20
0.666157
11
0.04
21
0.666157
0
LINE
8
BLACK
6
CONTINUOUS
10
0.04
20
0.666157
11
0.0410099
21
0.665979
0
LINE
8
BLACK
6
CONTINUOUS
10
0.330849
20
0.696016
11
0.331429
21
0.695974
0
LINE
8
BLACK
6
CONTINUOUS
10
0.331429
20
0.695974
11
0.335179
21
0.6941
0
LINE
8
BLACK
6
CONTINUOUS
10
0.335179
20
0.6941
11
0.335448
21
0.693789
0
LINE
8
BLACK
6
CONTINUOUS
10
0.335448
20
0.693789
11
0.335828
21
0.693631
0
LINE
8
BLACK
6
CONTINUOUS
10
0.335828
20
0.693631
11
0.337703
21
0.691757
0
LINE
8
BLACK
6
CONTINUOUS
10
0.337703
20
0.691757
11
0.337861
21
0.691376
0
LINE
8
BLACK
6
CONTINUOUS
10
0.337861
20
0.691376
11
0.338172
21
0.691107
0
LINE
8
BLACK
6
CONTINUOUS
10
0.338172
20
0.691107
11
0.340046
21
0.687357
0
LINE
8
BLACK
6
CONTINUOUS
10
0.340046
20
0.687357
11
0.340088
21
0.686777
0
LINE
8
BLACK
6
CONTINUOUS
10
0.340088
20
0.686777
11
0.34031
21
0.686239
0
LINE
8
BLACK
6
CONTINUOUS
10
0.34031
20
0.686239
11
0.34031
21
0.676865
0
LINE
8
BLACK
6
CONTINUOUS
10
0.34031
20
0.676865
11
0.340088
21
0.676328
0
LINE
8
BLACK
6
CONTINUOUS
10
0.340088
20
0.676328
11
0.340046
21
0.675747
0
LINE
8
BLACK
6
CONTINUOUS
10
0.340046
20
0.675747
11
0.338172
21
0.671998
0
LINE
8
BLACK
6
CONTINUOUS
10
0.338172
20
0.671998
11
0.337861
21
0.671728
0
LINE
8
BLACK
6
CONTINUOUS
10
0.337861
20
0.671728
11
0.337703
21
0.671348
0
LINE
8
BLACK
6
CONTINUOUS
10
0.337703
20
0.671348
11
0.335828
21
0.669473
0
LINE
8
BLACK
6
CONTINUOUS
10
0.335828
20
0.669473
11
0.334061
21
0.668741
0
LINE
8
BLACK
6
CONTINUOUS
10
0.334061
20
0.668741
11
0.332293
21
0.669473
0
LINE
8
BLACK
6
CONTINUOUS
10
0.332293
20
0.669473
11
0.331561
21
0.671241
0
LINE
8
BLACK
6
CONTINUOUS
10
0.331561
20
0.671241
11
0.332293
21
0.673009
0
LINE
8
BLACK
6
CONTINUOUS
10
0.332293
20
0.673009
11
0.333881
21
0.674597
0
LINE
8
BLACK
6
CONTINUOUS
10
0.333881
20
0.674597
11
0.33531
21
0.677456
0
LINE
8
BLACK
6
CONTINUOUS
10
0.33531
20
0.677456
11
0.33531
21
0.685649
0
LINE
8
BLACK
6
CONTINUOUS
10
0.33531
20
0.685649
11
0.333881
21
0.688508
0
LINE
8
BLACK
6
CONTINUOUS
10
0.333881
20
0.688508
11
0.33258
21
0.689809
0
LINE
8
BLACK
6
CONTINUOUS
10
0.33258
20
0.689809
11
0.329721
21
0.691238
0
LINE
8
BLACK
6
CONTINUOUS
10
0.329721
20
0.691238
11
0.321528
21
0.691238
0
LINE
8
BLACK
6
CONTINUOUS
10
0.321528
20
0.691238
11
0.318669
21
0.689809
0
LINE
8
BLACK
6
CONTINUOUS
10
0.318669
20
0.689809
11
0.317368
21
0.688508
0
LINE
8
BLACK
6
CONTINUOUS
10
0.317368
20
0.688508
11
0.315938
21
0.685649
0
LINE
8
BLACK
6
CONTINUOUS
10
0.315938
20
0.685649
11
0.315938
21
0.677456
0
LINE
8
BLACK
6
CONTINUOUS
10
0.315938
20
0.677456
11
0.317368
21
0.674597
0
LINE
8
BLACK
6
CONTINUOUS
10
0.317368
20
0.674597
11
0.318956
21
0.673009
0
LINE
8
BLACK
6
CONTINUOUS
10
0.318956
20
0.673009
11
0.319006
21
0.672887
0
LINE
8
BLACK
6
CONTINUOUS
10
0.319006
20
0.672887
11
0.319123
21
0.672824
0
LINE
8
BLACK
6
CONTINUOUS
10
0.319123
20
0.672824
11
0.319366
21
0.672018
0
LINE
8
BLACK
6
CONTINUOUS
10
0.319366
20
0.672018
11
0.319688
21
0.671241
0
LINE
8
BLACK
6
CONTINUOUS
10
0.319688
20
0.671241
11
0.319637
21
0.671119
0
LINE
8
BLACK
6
CONTINUOUS
10
0.319637
20
0.671119
11
0.319675
21
0.670992
0
LINE
8
BLACK
6
CONTINUOUS
10
0.319675
20
0.670992
11
0.319278
21
0.670251
0
LINE
8
BLACK
6
CONTINUOUS
10
0.319278
20
0.670251
11
0.318956
21
0.669473
0
LINE
8
BLACK
6
CONTINUOUS
10
0.318956
20
0.669473
11
0.318833
21
0.669423
0
LINE
8
BLACK
6
CONTINUOUS
10
0.318833
20
0.669423
11
0.318771
21
0.669306
0
LINE
8
BLACK
6
CONTINUOUS
10
0.318771
20
0.669306
11
0.317965
21
0.669063
0
LINE
8
BLACK
6
CONTINUOUS
10
0.317965
20
0.669063
11
0.317188
21
0.668741
0
LINE
8
BLACK
6
CONTINUOUS
10
0.317188
20
0.668741
11
0.317066
21
0.668792
0
LINE
8
BLACK
6
CONTINUOUS
10
0.317066
20
0.668792
11
0.316939
21
0.668754
0
LINE
8
BLACK
6
CONTINUOUS
10
0.316939
20
0.668754
11
0.298191
21
0.670628
0
LINE
8
BLACK
6
CONTINUOUS
10
0.298191
20
0.670628
11
0.29745
21
0.671026
0
LINE
8
BLACK
6
CONTINUOUS
10
0.29745
20
0.671026
11
0.296672
21
0.671348
0
LINE
8
BLACK
6
CONTINUOUS
10
0.296672
20
0.671348
11
0.296622
21
0.67147
0
LINE
8
BLACK
6
CONTINUOUS
10
0.296622
20
0.67147
11
0.296505
21
0.671533
0
LINE
8
BLACK
6
CONTINUOUS
10
0.296505
20
0.671533
11
0.296262
21
0.672338
0
LINE
8
BLACK
6
CONTINUOUS
10
0.296262
20
0.672338
11
0.29594
21
0.673116
0
LINE
8
BLACK
6
CONTINUOUS
10
0.29594
20
0.673116
11
0.29594
21
0.691864
0
LINE
8
BLACK
6
CONTINUOUS
10
0.29594
20
0.691864
11
0.296672
21
0.693631
0
LINE
8
BLACK
6
CONTINUOUS
10
0.296672
20
0.693631
11
0.29844
21
0.694364
0
LINE
8
BLACK
6
CONTINUOUS
10
0.29844
20
0.694364
11
0.300208
21
0.693631
0
LINE
8
BLACK
6
CONTINUOUS
10
0.300208
20
0.693631
11
0.30094
21
0.691864
0
LINE
8
BLACK
6
CONTINUOUS
10
0.30094
20
0.691864
11
0.30094
21
0.675378
0
LINE
8
BLACK
6
CONTINUOUS
10
0.30094
20
0.675378
11
0.311937
21
0.674279
0
LINE
8
BLACK
6
CONTINUOUS
10
0.311937
20
0.674279
11
0.311202
21
0.675747
0
LINE
8
BLACK
6
CONTINUOUS
10
0.311202
20
0.675747
11
0.311161
21
0.676328
0
LINE
8
BLACK
6
CONTINUOUS
10
0.311161
20
0.676328
11
0.310938
21
0.676865
0
LINE
8
BLACK
6
CONTINUOUS
10
0.310938
20
0.676865
11
0.310938
21
0.686239
0
LINE
8
BLACK
6
CONTINUOUS
10
0.310938
20
0.686239
11
0.311161
21
0.686777
0
LINE
8
BLACK
6
CONTINUOUS
10
0.311161
20
0.686777
11
0.311202
21
0.687357
0
LINE
8
BLACK
6
CONTINUOUS
10
0.311202
20
0.687357
11
0.313077
21
0.691107
0
LINE
8
BLACK
6
CONTINUOUS
10
0.313077
20
0.691107
11
0.313388
21
0.691376
0
LINE
8
BLACK
6
CONTINUOUS
10
0.313388
20
0.691376
11
0.313545
21
0.691757
0
LINE
8
BLACK
6
CONTINUOUS
10
0.313545
20
0.691757
11
0.31542
21
0.693631
0
LINE
8
BLACK
6
CONTINUOUS
10
0.31542
20
0.693631
11
0.3158
21
0.693789
0
LINE
8
BLACK
6
CONTINUOUS
10
0.3158
20
0.693789
11
0.31607
21
0.6941
0
LINE
8
BLACK
6
CONTINUOUS
10
0.31607
20
0.6941
11
0.319819
21
0.695974
0
LINE
8
BLACK
6
CONTINUOUS
10
0.319819
20
0.695974
11
0.3204
21
0.696016
0
LINE
8
BLACK
6
CONTINUOUS
10
0.3204
20
0.696016
11
0.320937
21
0.696238
0
LINE
8
BLACK
6
CONTINUOUS
10
0.320937
20
0.696238
11
0.330311
21
0.696238
0
LINE
8
BLACK
6
CONTINUOUS
10
0.330311
20
0.696238
11
0.330849
21
0.696016
0
LINE
8
BLACK
6
CONTINUOUS
10
0.338601
20
0.720482
11
0.338742
21
0.72036
0
LINE
8
BLACK
6
CONTINUOUS
10
0.338742
20
0.72036
11
0.338928
21
0.720346
0
LINE
8
BLACK
6
CONTINUOUS
10
0.338928
20
0.720346
11
0.339447
21
0.719748
0
LINE
8
BLACK
6
CONTINUOUS
10
0.339447
20
0.719748
11
0.340046
21
0.719228
0
LINE
8
BLACK
6
CONTINUOUS
10
0.340046
20
0.719228
11
0.34006
21
0.719042
0
LINE
8
BLACK
6
CONTINUOUS
10
0.34006
20
0.719042
11
0.340182
21
0.718901
0
LINE
8
BLACK
6
CONTINUOUS
10
0.340182
20
0.718901
11
0.340126
21
0.718111
0
LINE
8
BLACK
6
CONTINUOUS
10
0.340126
20
0.718111
11
0.340182
21
0.71732
0
LINE
8
BLACK
6
CONTINUOUS
10
0.340182
20
0.71732
11
0.340059
21
0.717178
0
LINE
8
BLACK
6
CONTINUOUS
10
0.340059
20
0.717178
11
0.340046
21
0.716992
0
LINE
8
BLACK
6
CONTINUOUS
10
0.340046
20
0.716992
11
0.339448
21
0.716473
0
LINE
8
BLACK
6
CONTINUOUS
10
0.339448
20
0.716473
11
0.338928
21
0.715874
0
LINE
8
BLACK
6
CONTINUOUS
10
0.338928
20
0.715874
11
0.338742
21
0.715861
0
LINE
8
BLACK
6
CONTINUOUS
10
0.338742
20
0.715861
11
0.338601
21
0.715739
0
LINE
8
BLACK
6
CONTINUOUS
10
0.338601
20
0.715739
11
0.299231
21
0.702615
0
LINE
8
BLACK
6
CONTINUOUS
10
0.299231
20
0.702615
11
0.297322
21
0.702751
0
LINE
8
BLACK
6
CONTINUOUS
10
0.297322
20
0.702751
11
0.296068
21
0.704196
0
LINE
8
BLACK
6
CONTINUOUS
10
0.296068
20
0.704196
11
0.296204
21
0.706105
0
LINE
8
BLACK
6
CONTINUOUS
10
0.296204
20
0.706105
11
0.29765
21
0.707359
0
LINE
8
BLACK
6
CONTINUOUS
10
0.29765
20
0.707359
11
0.329905
21
0.71811
0
LINE
8
BLACK
6
CONTINUOUS
10
0.329905
20
0.71811
11
0.29765
21
0.728862
0
LINE
8
BLACK
6
CONTINUOUS
10
0.29765
20
0.728862
11
0.296204
21
0.730116
0
LINE
8
BLACK
6
CONTINUOUS
10
0.296204
20
0.730116
11
0.296068
21
0.732024
0
LINE
8
BLACK
6
CONTINUOUS
10
0.296068
20
0.732024
11
0.297322
21
0.73347
0
LINE
8
BLACK
6
CONTINUOUS
10
0.297322
20
0.73347
11
0.299231
21
0.733605
0
LINE
8
BLACK
6
CONTINUOUS
10
0.299231
20
0.733605
11
0.338601
21
0.720482
0
LINE
8
BLACK
6
CONTINUOUS
10
0.226672
20
0.724179
11
0.22594
21
0.725947
0
LINE
8
BLACK
6
CONTINUOUS
10
0.22594
20
0.725947
11
0.226672
21
0.727715
0
LINE
8
BLACK
6
CONTINUOUS
10
0.226672
20
0.727715
11
0.22844
21
0.728447
0
LINE
8
BLACK
6
CONTINUOUS
10
0.22844
20
0.728447
11
0.26531
21
0.728447
0
LINE
8
BLACK
6
CONTINUOUS
10
0.26531
20
0.728447
11
0.26531
21
0.744694
0
LINE
8
BLACK
6
CONTINUOUS
10
0.26531
20
0.744694
11
0.266042
21
0.746462
0
LINE
8
BLACK
6
CONTINUOUS
10
0.266042
20
0.746462
11
0.26781
21
0.747194
0
LINE
8
BLACK
6
CONTINUOUS
10
0.26781
20
0.747194
11
0.269578
21
0.746462
0
LINE
8
BLACK
6
CONTINUOUS
10
0.269578
20
0.746462
11
0.27031
21
0.744694
0
LINE
8
BLACK
6
CONTINUOUS
10
0.27031
20
0.744694
11
0.27031
21
0.725947
0
LINE
8
BLACK
6
CONTINUOUS
10
0.27031
20
0.725947
11
0.269578
21
0.724179
0
LINE
8
BLACK
6
CONTINUOUS
10
0.269578
20
0.724179
11
0.26781
21
0.723447
0
LINE
8
BLACK
6
CONTINUOUS
10
0.26781
20
0.723447
11
0.22844
21
0.723447
0
LINE
8
BLACK
6
CONTINUOUS
10
0.22844
20
0.723447
11
0.226672
21
0.724179
0
LINE
8
BLACK
6
CONTINUOUS
10
0.666273
20
0.777396
11
0.667005
21
0.775628
0
LINE
8
BLACK
6
CONTINUOUS
10
0.667005
20
0.775628
11
0.667005
21
0.76313
0
LINE
8
BLACK
6
CONTINUOUS
10
0.667005
20
0.76313
11
0.679503
21
0.76313
0
LINE
8
BLACK
6
CONTINUOUS
10
0.679503
20
0.76313
11
0.681271
21
0.762398
0
LINE
8
BLACK
6
CONTINUOUS
10
0.681271
20
0.762398
11
0.682003
21
0.76063
0
LINE
8
BLACK
6
CONTINUOUS
10
0.682003
20
0.76063
11
0.681271
21
0.758862
0
LINE
8
BLACK
6
CONTINUOUS
10
0.681271
20
0.758862
11
0.679503
21
0.75813
0
LINE
8
BLACK
6
CONTINUOUS
10
0.679503
20
0.75813
11
0.667005
21
0.75813
0
LINE
8
BLACK
6
CONTINUOUS
10
0.667005
20
0.75813
11
0.667005
21
0.745632
0
LINE
8
BLACK
6
CONTINUOUS
10
0.667005
20
0.745632
11
0.666273
21
0.743864
0
LINE
8
BLACK
6
CONTINUOUS
10
0.666273
20
0.743864
11
0.664505
21
0.743132
0
LINE
8
BLACK
6
CONTINUOUS
10
0.664505
20
0.743132
11
0.662737
21
0.743864
0
LINE
8
BLACK
6
CONTINUOUS
10
0.662737
20
0.743864
11
0.662005
21
0.745632
0
LINE
8
BLACK
6
CONTINUOUS
10
0.662005
20
0.745632
11
0.662005
21
0.75813
0
LINE
8
BLACK
6
CONTINUOUS
10
0.662005
20
0.75813
11
0.649507
21
0.75813
0
LINE
8
BLACK
6
CONTINUOUS
10
0.649507
20
0.75813
11
0.647739
21
0.758862
0
LINE
8
BLACK
6
CONTINUOUS
10
0.647739
20
0.758862
11
0.647007
21
0.76063
0
LINE
8
BLACK
6
CONTINUOUS
10
0.647007
20
0.76063
11
0.647739
21
0.762398
0
LINE
8
BLACK
6
CONTINUOUS
10
0.647739
20
0.762398
11
0.649507
21
0.76313
0
LINE
8
BLACK
6
CONTINUOUS
10
0.649507
20
0.76313
11
0.662005
21
0.76313
0
LINE
8
BLACK
6
CONTINUOUS
10
0.662005
20
0.76313
11
0.662005
21
0.775628
0
LINE
8
BLACK
6
CONTINUOUS
10
0.662005
20
0.775628
11
0.662737
21
0.777396
0
LINE
8
BLACK
6
CONTINUOUS
10
0.662737
20
0.777396
11
0.664505
21
0.778128
0
LINE
8
BLACK
6
CONTINUOUS
10
0.664505
20
0.778128
11
0.666273
21
0.777396
0
LINE
8
BLACK
6
CONTINUOUS
10
0.574979
20
0.748551
11
0.574247
21
0.750319
0
LINE
8
BLACK
6
CONTINUOUS
10
0.574247
20
0.750319
11
0.574979
21
0.752086
0
LINE
8
BLACK
6
CONTINUOUS
10
0.574979
20
0.752086
11
0.576747
21
0.752819
0
LINE
8
BLACK
6
CONTINUOUS
10
0.576747
20
0.752819
11
0.613617
21
0.752819
0
LINE
8
BLACK
6
CONTINUOUS
10
0.613617
20
0.752819
11
0.613617
21
0.769066
0
LINE
8
BLACK
6
CONTINUOUS
10
0.613617
20
0.769066
11
0.61435
21
0.770834
0
LINE
8
BLACK
6
CONTINUOUS
10
0.61435
20
0.770834
11
0.616117
21
0.771566
0
LINE
8
BLACK
6
CONTINUOUS
10
0.616117
20
0.771566
11
0.617885
21
0.770834
0
LINE
8
BLACK
6
CONTINUOUS
10
0.617885
20
0.770834
11
0.618617
21
0.769066
0
LINE
8
BLACK
6
CONTINUOUS
10
0.618617
20
0.769066
11
0.618617
21
0.750319
0
LINE
8
BLACK
6
CONTINUOUS
10
0.618617
20
0.750319
11
0.617885
21
0.748551
0
LINE
8
BLACK
6
CONTINUOUS
10
0.617885
20
0.748551
11
0.616117
21
0.747819
0
LINE
8
BLACK
6
CONTINUOUS
10
0.616117
20
0.747819
11
0.576747
21
0.747819
0
LINE
8
BLACK
6
CONTINUOUS
10
0.576747
20
0.747819
11
0.574979
21
0.748551
0
LINE
8
BLACK
6
CONTINUOUS
10
0.269578
20
0.785832
11
0.27031
21
0.784065
0
LINE
8
BLACK
6
CONTINUOUS
10
0.27031
20
0.784065
11
0.269578
21
0.782297
0
LINE
8
BLACK
6
CONTINUOUS
10
0.269578
20
0.782297
11
0.26781
21
0.781565
0
LINE
8
BLACK
6
CONTINUOUS
10
0.26781
20
0.781565
11
0.239709
21
0.781565
0
LINE
8
BLACK
6
CONTINUOUS
10
0.239709
20
0.781565
11
0.257619
21
0.773207
0
LINE
8
BLACK
6
CONTINUOUS
10
0.257619
20
0.773207
11
0.258196
21
0.772576
0
LINE
8
BLACK
6
CONTINUOUS
10
0.258196
20
0.772576
11
0.258827
21
0.771998
0
LINE
8
BLACK
6
CONTINUOUS
10
0.258827
20
0.771998
11
0.258832
21
0.771882
0
LINE
8
BLACK
6
CONTINUOUS
10
0.258832
20
0.771882
11
0.258911
21
0.771796
0
LINE
8
BLACK
6
CONTINUOUS
10
0.258911
20
0.771796
11
0.258874
21
0.770941
0
LINE
8
BLACK
6
CONTINUOUS
10
0.258874
20
0.770941
11
0.258911
21
0.770087
0
LINE
8
BLACK
6
CONTINUOUS
10
0.258911
20
0.770087
11
0.258832
21
0.770001
0
LINE
8
BLACK
6
CONTINUOUS
10
0.258832
20
0.770001
11
0.258827
21
0.769884
0
LINE
8
BLACK
6
CONTINUOUS
10
0.258827
20
0.769884
11
0.258196
21
0.769306
0
LINE
8
BLACK
6
CONTINUOUS
10
0.258196
20
0.769306
11
0.257619
21
0.768676
0
LINE
8
BLACK
6
CONTINUOUS
10
0.257619
20
0.768676
11
0.239709
21
0.760318
0
LINE
8
BLACK
6
CONTINUOUS
10
0.239709
20
0.760318
11
0.26781
21
0.760318
0
LINE
8
BLACK
6
CONTINUOUS
10
0.26781
20
0.760318
11
0.269578
21
0.759586
0
LINE
8
BLACK
6
CONTINUOUS
10
0.269578
20
0.759586
11
0.27031
21
0.757818
0
LINE
8
BLACK
6
CONTINUOUS
10
0.27031
20
0.757818
11
0.269578
21
0.75605
0
LINE
8
BLACK
6
CONTINUOUS
10
0.269578
20
0.75605
11
0.26781
21
0.755318
0
LINE
8
BLACK
6
CONTINUOUS
10
0.26781
20
0.755318
11
0.22844
21
0.755318
0
LINE
8
BLACK
6
CONTINUOUS
10
0.22844
20
0.755318
11
0.22803
21
0.755488
0
LINE
8
BLACK
6
CONTINUOUS
10
0.22803
20
0.755488
11
0.227586
21
0.755468
0
LINE
8
BLACK
6
CONTINUOUS
10
0.227586
20
0.755468
11
0.22718
21
0.75584
0
LINE
8
BLACK
6
CONTINUOUS
10
0.22718
20
0.75584
11
0.226672
21
0.75605
0
LINE
8
BLACK
6
CONTINUOUS
10
0.226672
20
0.75605
11
0.226502
21
0.756461
0
LINE
8
BLACK
6
CONTINUOUS
10
0.226502
20
0.756461
11
0.226175
21
0.756761
0
LINE
8
BLACK
6
CONTINUOUS
10
0.226175
20
0.756761
11
0.226151
21
0.75731
0
LINE
8
BLACK
6
CONTINUOUS
10
0.226151
20
0.75731
11
0.22594
21
0.757818
0
LINE
8
BLACK
6
CONTINUOUS
10
0.22594
20
0.757818
11
0.22611
21
0.758228
0
LINE
8
BLACK
6
CONTINUOUS
10
0.22611
20
0.758228
11
0.226091
21
0.758672
0
LINE
8
BLACK
6
CONTINUOUS
10
0.226091
20
0.758672
11
0.226462
21
0.759078
0
LINE
8
BLACK
6
CONTINUOUS
10
0.226462
20
0.759078
11
0.226672
21
0.759586
0
LINE
8
BLACK
6
CONTINUOUS
10
0.226672
20
0.759586
11
0.227083
21
0.759756
0
LINE
8
BLACK
6
CONTINUOUS
10
0.227083
20
0.759756
11
0.227383
21
0.760083
0
LINE
8
BLACK
6
CONTINUOUS
10
0.227383
20
0.760083
11
0.25065
21
0.770941
0
LINE
8
BLACK
6
CONTINUOUS
10
0.25065
20
0.770941
11
0.227383
21
0.781799
0
LINE
8
BLACK
6
CONTINUOUS
10
0.227383
20
0.781799
11
0.227083
21
0.782127
0
LINE
8
BLACK
6
CONTINUOUS
10
0.227083
20
0.782127
11
0.226672
21
0.782297
0
LINE
8
BLACK
6
CONTINUOUS
10
0.226672
20
0.782297
11
0.226462
21
0.782805
0
LINE
8
BLACK
6
CONTINUOUS
10
0.226462
20
0.782805
11
0.226091
21
0.78321
0
LINE
8
BLACK
6
CONTINUOUS
10
0.226091
20
0.78321
11
0.22611
21
0.783654
0
LINE
8
BLACK
6
CONTINUOUS
10
0.22611
20
0.783654
11
0.22594
21
0.784065
0
LINE
8
BLACK
6
CONTINUOUS
10
0.22594
20
0.784065
11
0.226151
21
0.784572
0
LINE
8
BLACK
6
CONTINUOUS
10
0.226151
20
0.784572
11
0.226175
21
0.785122
0
LINE
8
BLACK
6
CONTINUOUS
10
0.226175
20
0.785122
11
0.226502
21
0.785422
0
LINE
8
BLACK
6
CONTINUOUS
10
0.226502
20
0.785422
11
0.226672
21
0.785832
0
LINE
8
BLACK
6
CONTINUOUS
10
0.226672
20
0.785832
11
0.22718
21
0.786043
0
LINE
8
BLACK
6
CONTINUOUS
10
0.22718
20
0.786043
11
0.227586
21
0.786414
0
LINE
8
BLACK
6
CONTINUOUS
10
0.227586
20
0.786414
11
0.22803
21
0.786394
0
LINE
8
BLACK
6
CONTINUOUS
10
0.22803
20
0.786394
11
0.22844
21
0.786565
0
LINE
8
BLACK
6
CONTINUOUS
10
0.22844
20
0.786565
11
0.26781
21
0.786565
0
LINE
8
BLACK
6
CONTINUOUS
10
0.26781
20
0.786565
11
0.269578
21
0.785832
0
LINE
8
BLACK
6
CONTINUOUS
10
-0.135533
20
0.841898
11
-0.134843
21
0.84
0
LINE
8
BLACK
6
CONTINUOUS
10
-0.134843
20
0.84
11
-0.134843
21
0.76
0
LINE
8
BLACK
6
CONTINUOUS
10
-0.134843
20
0.76
11
-0.135021
21
0.75899
0
LINE
8
BLACK
6
CONTINUOUS
10
-0.135021
20
0.75899
11
-0.136319
21
0.757443
0
LINE
8
BLACK
6
CONTINUOUS
10
-0.136319
20
0.757443
11
-0.138308
21
0.757092
0
LINE
8
BLACK
6
CONTINUOUS
10
-0.138308
20
0.757092
11
-0.140057
21
0.758102
0
LINE
8
BLACK
6
CONTINUOUS
10
-0.140057
20
0.758102
11
-0.140748
21
0.76
0
LINE
8
BLACK
6
CONTINUOUS
10
-0.140748
20
0.76
11
-0.140748
21
0.84
0
LINE
8
BLACK
6
CONTINUOUS
10
-0.140748
20
0.84
11
-0.14057
21
0.84101
0
LINE
8
BLACK
6
CONTINUOUS
10
-0.14057
20
0.84101
11
-0.139272
21
0.842557
0
LINE
8
BLACK
6
CONTINUOUS
10
-0.139272
20
0.842557
11
-0.137283
21
0.842908
0
LINE
8
BLACK
6
CONTINUOUS
10
-0.137283
20
0.842908
11
-0.135533
21
0.841898
0
LINE
8
BLACK
6
CONTINUOUS
10
0.140057
20
0.841898
11
0.140748
21
0.84
0
LINE
8
BLACK
6
CONTINUOUS
10
0.140748
20
0.84
11
0.140748
21
0.76
0
LINE
8
BLACK
6
CONTINUOUS
10
0.140748
20
0.76
11
0.14057
21
0.75899
0
LINE
8
BLACK
6
CONTINUOUS
10
0.14057
20
0.75899
11
0.139272
21
0.757443
0
LINE
8
BLACK
6
CONTINUOUS
10
0.139272
20
0.757443
11
0.137283
21
0.757092
0
LINE
8
BLACK
6
CONTINUOUS
10
0.137283
20
0.757092
11
0.135533
21
0.758102
0
LINE
8
BLACK
6
CONTINUOUS
10
0.135533
20
0.758102
11
0.134843
21
0.76
0
LINE
8
BLACK
6
CONTINUOUS
10
0.134843
20
0.76
11
0.134843
21
0.84
0
LINE
8
BLACK
6
CONTINUOUS
10
0.134843
20
0.84
11
0.135021
21
0.84101
0
LINE
8
BLACK
6
CONTINUOUS
10
0.135021
20
0.84101
11
0.136319
21
0.842557
0
LINE
8
BLACK
6
CONTINUOUS
10
0.136319
20
0.842557
11
0.138308
21
0.842908
0
LINE
8
BLACK
6
CONTINUOUS
10
0.138308
20
0.842908
11
0.140057
21
0.841898
0
LINE
8
BLACK
6
CONTINUOUS
10
0.617885
20
0.810204
11
0.618617
21
0.808436
0
LINE
8
BLACK
6
CONTINUOUS
10
0.618617
20
0.808436
11
0.617885
21
0.806669
0
LINE
8
BLACK
6
CONTINUOUS
10
0.617885
20
0.806669
11
0.616117
21
0.805936
0
LINE
8
BLACK
6
CONTINUOUS
10
0.616117
20
0.805936
11
0.588016
21
0.805936
0
LINE
8
BLACK
6
CONTINUOUS
10
0.588016
20
0.805936
11
0.605926
21
0.797579
0
LINE
8
BLACK
6
CONTINUOUS
10
0.605926
20
0.797579
11
0.606503
21
0.796948
0
LINE
8
BLACK
6
CONTINUOUS
10
0.606503
20
0.796948
11
0.607134
21
0.79637
0
LINE
8
BLACK
6
CONTINUOUS
10
0.607134
20
0.79637
11
0.607139
21
0.796254
0
LINE
8
BLACK
6
CONTINUOUS
10
0.607139
20
0.796254
11
0.607218
21
0.796167
0
LINE
8
BLACK
6
CONTINUOUS
10
0.607218
20
0.796167
11
0.607181
21
0.795313
0
LINE
8
BLACK
6
CONTINUOUS
10
0.607181
20
0.795313
11
0.607218
21
0.794459
0
LINE
8
BLACK
6
CONTINUOUS
10
0.607218
20
0.794459
11
0.607139
21
0.794373
0
LINE
8
BLACK
6
CONTINUOUS
10
0.607139
20
0.794373
11
0.607134
21
0.794256
0
LINE
8
BLACK
6
CONTINUOUS
10
0.607134
20
0.794256
11
0.606503
21
0.793678
0
LINE
8
BLACK
6
CONTINUOUS
10
0.606503
20
0.793678
11
0.605926
21
0.793048
0
LINE
8
BLACK
6
CONTINUOUS
10
0.605926
20
0.793048
11
0.588016
21
0.78469
0
LINE
8
BLACK
6
CONTINUOUS
10
0.588016
20
0.78469
11
0.616117
21
0.78469
0
LINE
8
BLACK
6
CONTINUOUS
10
0.616117
20
0.78469
11
0.617885
21
0.783958
0
LINE
8
BLACK
6
CONTINUOUS
10
0.617885
20
0.783958
11
0.618617
21
0.78219
0
LINE
8
BLACK
6
CONTINUOUS
10
0.618617
20
0.78219
11
0.617885
21
0.780422
0
LINE
8
BLACK
6
CONTINUOUS
10
0.617885
20
0.780422
11
0.616117
21
0.77969
0
LINE
8
BLACK
6
CONTINUOUS
10
0.616117
20
0.77969
11
0.576747
21
0.77969
0
LINE
8
BLACK
6
CONTINUOUS
10
0.576747
20
0.77969
11
0.576337
21
0.77986
0
LINE
8
BLACK
6
CONTINUOUS
10
0.576337
20
0.77986
11
0.575893
21
0.77984
0
LINE
8
BLACK
6
CONTINUOUS
10
0.575893
20
0.77984
11
0.575487
21
0.780212
0
LINE
8
BLACK
6
CONTINUOUS
10
0.575487
20
0.780212
11
0.574979
21
0.780422
0
LINE
8
BLACK
6
CONTINUOUS
10
0.574979
20
0.780422
11
0.574809
21
0.780832
0
LINE
8
BLACK
6
CONTINUOUS
10
0.574809
20
0.780832
11
0.574482
21
0.781133
0
LINE
8
BLACK
6
CONTINUOUS
10
0.574482
20
0.781133
11
0.574458
21
0.781682
0
LINE
8
BLACK
6
CONTINUOUS
10
0.574458
20
0.781682
11
0.574247
21
0.78219
0
LINE
8
BLACK
6
CONTINUOUS
10
0.574247
20
0.78219
11
0.574417
21
0.7826
0
LINE
8
BLACK
6
CONTINUOUS
10
0.574417
20
0.7826
11
0.574398
21
0.783044
0
LINE
8
BLACK
6
CONTINUOUS
10
0.574398
20
0.783044
11
0.574769
21
0.78345
0
LINE
8
BLACK
6
CONTINUOUS
10
0.574769
20
0.78345
11
0.574979
21
0.783958
0
LINE
8
BLACK
6
CONTINUOUS
10
0.574979
20
0.783958
11
0.57539
21
0.784128
0
LINE
8
BLACK
6
CONTINUOUS
10
0.57539
20
0.784128
11
0.57569
21
0.784455
0
LINE
8
BLACK
6
CONTINUOUS
10
0.57569
20
0.784455
11
0.598957
21
0.795313
0
LINE
8
BLACK
6
CONTINUOUS
10
0.598957
20
0.795313
11
0.57569
21
0.806171
0
LINE
8
BLACK
6
CONTINUOUS
10
0.57569
20
0.806171
11
0.57539
21
0.806499
0
LINE
8
BLACK
6
CONTINUOUS
10
0.57539
20
0.806499
11
0.574979
21
0.806669
0
LINE
8
BLACK
6
CONTINUOUS
10
0.574979
20
0.806669
11
0.574769
21
0.807177
0
LINE
8
BLACK
6
CONTINUOUS
10
0.574769
20
0.807177
11
0.574398
21
0.807582
0
LINE
8
BLACK
6
CONTINUOUS
10
0.574398
20
0.807582
11
0.574417
21
0.808026
0
LINE
8
BLACK
6
CONTINUOUS
10
0.574417
20
0.808026
11
0.574247
21
0.808436
0
LINE
8
BLACK
6
CONTINUOUS
10
0.574247
20
0.808436
11
0.574458
21
0.808944
0
LINE
8
BLACK
6
CONTINUOUS
10
0.574458
20
0.808944
11
0.574482
21
0.809494
0
LINE
8
BLACK
6
CONTINUOUS
10
0.574482
20
0.809494
11
0.574809
21
0.809794
0
LINE
8
BLACK
6
CONTINUOUS
10
0.574809
20
0.809794
11
0.574979
21
0.810204
0
LINE
8
BLACK
6
CONTINUOUS
10
0.574979
20
0.810204
11
0.575487
21
0.810415
0
LINE
8
BLACK
6
CONTINUOUS
10
0.575487
20
0.810415
11
0.575893
21
0.810786
0
LINE
8
BLACK
6
CONTINUOUS
10
0.575893
20
0.810786
11
0.576337
21
0.810766
0
LINE
8
BLACK
6
CONTINUOUS
10
0.576337
20
0.810766
11
0.576747
21
0.810936
0
LINE
8
BLACK
6
CONTINUOUS
10
0.576747
20
0.810936
11
0.616117
21
0.810936
0
LINE
8
BLACK
6
CONTINUOUS
10
0.616117
20
0.810936
11
0.617885
21
0.810204
0
LINE
8
BLACK
6
CONTINUOUS
10
0.226672
20
0.801044
11
0.22594
21
0.802812
0
LINE
8
BLACK
6
CONTINUOUS
10
0.22594
20
0.802812
11
0.226672
21
0.80458
0
LINE
8
BLACK
6
CONTINUOUS
10
0.226672
20
0.80458
11
0.22844
21
0.805312
0
LINE
8
BLACK
6
CONTINUOUS
10
0.22844
20
0.805312
11
0.244688
21
0.805312
0
LINE
8
BLACK
6
CONTINUOUS
10
0.244688
20
0.805312
11
0.244688
21
0.822809
0
LINE
8
BLACK
6
CONTINUOUS
10
0.244688
20
0.822809
11
0.22844
21
0.822809
0
LINE
8
BLACK
6
CONTINUOUS
10
0.22844
20
0.822809
11
0.226672
21
0.823542
0
LINE
8
BLACK
6
CONTINUOUS
10
0.226672
20
0.823542
11
0.22594
21
0.825309
0
LINE
8
BLACK
6
CONTINUOUS
10
0.22594
20
0.825309
11
0.226672
21
0.827077
0
LINE
8
BLACK
6
CONTINUOUS
10
0.226672
20
0.827077
11
0.22844
21
0.827809
0
LINE
8
BLACK
6
CONTINUOUS
10
0.22844
20
0.827809
11
0.26781
21
0.827809
0
LINE
8
BLACK
6
CONTINUOUS
10
0.26781
20
0.827809
11
0.269578
21
0.827077
0
LINE
8
BLACK
6
CONTINUOUS
10
0.269578
20
0.827077
11
0.27031
21
0.825309
0
LINE
8
BLACK
6
CONTINUOUS
10
0.27031
20
0.825309
11
0.269578
21
0.823542
0
LINE
8
BLACK
6
CONTINUOUS
10
0.269578
20
0.823542
11
0.26781
21
0.822809
0
LINE
8
BLACK
6
CONTINUOUS
10
0.26781
20
0.822809
11
0.249688
21
0.822809
0
LINE
8
BLACK
6
CONTINUOUS
10
0.249688
20
0.822809
11
0.249688
21
0.805312
0
LINE
8
BLACK
6
CONTINUOUS
10
0.249688
20
0.805312
11
0.26781
21
0.805312
0
LINE
8
BLACK
6
CONTINUOUS
10
0.26781
20
0.805312
11
0.269578
21
0.80458
0
LINE
8
BLACK
6
CONTINUOUS
10
0.269578
20
0.80458
11
0.27031
21
0.802812
0
LINE
8
BLACK
6
CONTINUOUS
10
0.27031
20
0.802812
11
0.269578
21
0.801044
0
LINE
8
BLACK
6
CONTINUOUS
10
0.269578
20
0.801044
11
0.26781
21
0.800312
0
LINE
8
BLACK
6
CONTINUOUS
10
0.26781
20
0.800312
11
0.22844
21
0.800312
0
LINE
8
BLACK
6
CONTINUOUS
10
0.22844
20
0.800312
11
0.226672
21
0.801044
0
LINE
8
BLACK
6
CONTINUOUS
10
0.666273
20
0.856136
11
0.667005
21
0.854368
0
LINE
8
BLACK
6
CONTINUOUS
10
0.667005
20
0.854368
11
0.667005
21
0.824372
0
LINE
8
BLACK
6
CONTINUOUS
10
0.667005
20
0.824372
11
0.666273
21
0.822604
0
LINE
8
BLACK
6
CONTINUOUS
10
0.666273
20
0.822604
11
0.664505
21
0.821872
0
LINE
8
BLACK
6
CONTINUOUS
10
0.664505
20
0.821872
11
0.662737
21
0.822604
0
LINE
8
BLACK
6
CONTINUOUS
10
0.662737
20
0.822604
11
0.662005
21
0.824372
0
LINE
8
BLACK
6
CONTINUOUS
10
0.662005
20
0.824372
11
0.662005
21
0.854368
0
LINE
8
BLACK
6
CONTINUOUS
10
0.662005
20
0.854368
11
0.662737
21
0.856136
0
LINE
8
BLACK
6
CONTINUOUS
10
0.662737
20
0.856136
11
0.664505
21
0.856868
0
LINE
8
BLACK
6
CONTINUOUS
10
0.664505
20
0.856868
11
0.666273
21
0.856136
0
LINE
8
BLACK
6
CONTINUOUS
10
0.574979
20
0.825416
11
0.574247
21
0.827184
0
LINE
8
BLACK
6
CONTINUOUS
10
0.574247
20
0.827184
11
0.574979
21
0.828952
0
LINE
8
BLACK
6
CONTINUOUS
10
0.574979
20
0.828952
11
0.576747
21
0.829684
0
LINE
8
BLACK
6
CONTINUOUS
10
0.576747
20
0.829684
11
0.592995
21
0.829684
0
LINE
8
BLACK
6
CONTINUOUS
10
0.592995
20
0.829684
11
0.592995
21
0.847181
0
LINE
8
BLACK
6
CONTINUOUS
10
0.592995
20
0.847181
11
0.576747
21
0.847181
0
LINE
8
BLACK
6
CONTINUOUS
10
0.576747
20
0.847181
11
0.574979
21
0.847914
0
LINE
8
BLACK
6
CONTINUOUS
10
0.574979
20
0.847914
11
0.574247
21
0.849681
0
LINE
8
BLACK
6
CONTINUOUS
10
0.574247
20
0.849681
11
0.574979
21
0.851449
0
LINE
8
BLACK
6
CONTINUOUS
10
0.574979
20
0.851449
11
0.576747
21
0.852181
0
LINE
8
BLACK
6
CONTINUOUS
10
0.576747
20
0.852181
11
0.616117
21
0.852181
0
LINE
8
BLACK
6
CONTINUOUS
10
0.616117
20
0.852181
11
0.617885
21
0.851449
0
LINE
8
BLACK
6
CONTINUOUS
10
0.617885
20
0.851449
11
0.618617
21
0.849681
0
LINE
8
BLACK
6
CONTINUOUS
10
0.618617
20
0.849681
11
0.617885
21
0.847914
0
LINE
8
BLACK
6
CONTINUOUS
10
0.617885
20
0.847914
11
0.616117
21
0.847181
0
LINE
8
BLACK
6
CONTINUOUS
10
0.616117
20
0.847181
11
0.597995
21
0.847181
0
LINE
8
BLACK
6
CONTINUOUS
10
0.597995
20
0.847181
11
0.597995
21
0.829684
0
LINE
8
BLACK
6
CONTINUOUS
10
0.597995
20
0.829684
11
0.616117
21
0.829684
0
LINE
8
BLACK
6
CONTINUOUS
10
0.616117
20
0.829684
11
0.617885
21
0.828952
0
LINE
8
BLACK
6
CONTINUOUS
10
0.617885
20
0.828952
11
0.618617
21
0.827184
0
LINE
8
BLACK
6
CONTINUOUS
10
0.618617
20
0.827184
11
0.617885
21
0.825416
0
LINE
8
BLACK
6
CONTINUOUS
10
0.617885
20
0.825416
11
0.616117
21
0.824684
0
LINE
8
BLACK
6
CONTINUOUS
10
0.616117
20
0.824684
11
0.576747
21
0.824684
0
LINE
8
BLACK
6
CONTINUOUS
10
0.576747
20
0.824684
11
0.574979
21
0.825416
0
LINE
8
BLACK
6
CONTINUOUS
10
0.25458
20
0.875821
11
0.255312
21
0.874053
0
LINE
8
BLACK
6
CONTINUOUS
10
0.255312
20
0.874053
11
0.255312
21
0.861555
0
LINE
8
BLACK
6
CONTINUOUS
10
0.255312
20
0.861555
11
0.26781
21
0.861555
0
LINE
8
BLACK
6
CONTINUOUS
10
0.26781
20
0.861555
11
0.269578
21
0.860823
0
LINE
8
BLACK
6
CONTINUOUS
10
0.269578
20
0.860823
11
0.27031
21
0.859055
0
LINE
8
BLACK
6
CONTINUOUS
10
0.27031
20
0.859055
11
0.269578
21
0.857287
0
LINE
8
BLACK
6
CONTINUOUS
10
0.269578
20
0.857287
11
0.26781
21
0.856555
0
LINE
8
BLACK
6
CONTINUOUS
10
0.26781
20
0.856555
11
0.255312
21
0.856555
0
LINE
8
BLACK
6
CONTINUOUS
10
0.255312
20
0.856555
11
0.255312
21
0.844057
0
LINE
8
BLACK
6
CONTINUOUS
10
0.255312
20
0.844057
11
0.25458
21
0.842289
0
LINE
8
BLACK
6
CONTINUOUS
10
0.25458
20
0.842289
11
0.252812
21
0.841557
0
LINE
8
BLACK
6
CONTINUOUS
10
0.252812
20
0.841557
11
0.251044
21
0.842289
0
LINE
8
BLACK
6
CONTINUOUS
10
0.251044
20
0.842289
11
0.250312
21
0.844057
0
LINE
8
BLACK
6
CONTINUOUS
10
0.250312
20
0.844057
11
0.250312
21
0.856555
0
LINE
8
BLACK
6
CONTINUOUS
10
0.250312
20
0.856555
11
0.237814
21
0.856555
0
LINE
8
BLACK
6
CONTINUOUS
10
0.237814
20
0.856555
11
0.236046
21
0.857287
0
LINE
8
BLACK
6
CONTINUOUS
10
0.236046
20
0.857287
11
0.235314
21
0.859055
0
LINE
8
BLACK
6
CONTINUOUS
10
0.235314
20
0.859055
11
0.236046
21
0.860823
0
LINE
8
BLACK
6
CONTINUOUS
10
0.236046
20
0.860823
11
0.237814
21
0.861555
0
LINE
8
BLACK
6
CONTINUOUS
10
0.237814
20
0.861555
11
0.250312
21
0.861555
0
LINE
8
BLACK
6
CONTINUOUS
10
0.250312
20
0.861555
11
0.250312
21
0.874053
0
LINE
8
BLACK
6
CONTINUOUS
10
0.250312
20
0.874053
11
0.251044
21
0.875821
0
LINE
8
BLACK
6
CONTINUOUS
10
0.251044
20
0.875821
11
0.252812
21
0.876553
0
LINE
8
BLACK
6
CONTINUOUS
10
0.252812
20
0.876553
11
0.25458
21
0.875821
0
LINE
8
BLACK
6
CONTINUOUS
10
0.374767
20
0.943902
11
0.375178
21
0.943932
0
LINE
8
BLACK
6
CONTINUOUS
10
0.375178
20
0.943932
11
0.380802
21
0.942057
0
LINE
8
BLACK
6
CONTINUOUS
10
0.380802
20
0.942057
11
0.381241
21
0.941675
0
LINE
8
BLACK
6
CONTINUOUS
10
0.381241
20
0.941675
11
0.381779
21
0.941453
0
LINE
8
BLACK
6
CONTINUOUS
10
0.381779
20
0.941453
11
0.383654
21
0.939578
0
LINE
8
BLACK
6
CONTINUOUS
10
0.383654
20
0.939578
11
0.384386
21
0.93781
0
LINE
8
BLACK
6
CONTINUOUS
10
0.384386
20
0.93781
11
0.383654
21
0.936043
0
LINE
8
BLACK
6
CONTINUOUS
10
0.383654
20
0.936043
11
0.381886
21
0.93531
0
LINE
8
BLACK
6
CONTINUOUS
10
0.381886
20
0.93531
11
0.380118
21
0.936043
0
LINE
8
BLACK
6
CONTINUOUS
10
0.380118
20
0.936043
11
0.378661
21
0.9375
0
LINE
8
BLACK
6
CONTINUOUS
10
0.378661
20
0.9375
11
0.373981
21
0.93906
0
LINE
8
BLACK
6
CONTINUOUS
10
0.373981
20
0.93906
11
0.371043
21
0.93906
0
LINE
8
BLACK
6
CONTINUOUS
10
0.371043
20
0.93906
11
0.366364
21
0.9375
0
LINE
8
BLACK
6
CONTINUOUS
10
0.366364
20
0.9375
11
0.363318
21
0.934455
0
LINE
8
BLACK
6
CONTINUOUS
10
0.363318
20
0.934455
11
0.361748
21
0.931313
0
LINE
8
BLACK
6
CONTINUOUS
10
0.361748
20
0.931313
11
0.360014
21
0.924379
0
LINE
8
BLACK
6
CONTINUOUS
10
0.360014
20
0.924379
11
0.360014
21
0.91937
0
LINE
8
BLACK
6
CONTINUOUS
10
0.360014
20
0.91937
11
0.361748
21
0.912436
0
LINE
8
BLACK
6
CONTINUOUS
10
0.361748
20
0.912436
11
0.363318
21
0.909295
0
LINE
8
BLACK
6
CONTINUOUS
10
0.363318
20
0.909295
11
0.366364
21
0.90625
0
LINE
8
BLACK
6
CONTINUOUS
10
0.366364
20
0.90625
11
0.371043
21
0.90469
0
LINE
8
BLACK
6
CONTINUOUS
10
0.371043
20
0.90469
11
0.373981
21
0.90469
0
LINE
8
BLACK
6
CONTINUOUS
10
0.373981
20
0.90469
11
0.378661
21
0.90625
0
LINE
8
BLACK
6
CONTINUOUS
10
0.378661
20
0.90625
11
0.380118
21
0.907707
0
LINE
8
BLACK
6
CONTINUOUS
10
0.380118
20
0.907707
11
0.381886
21
0.908439
0
LINE
8
BLACK
6
CONTINUOUS
10
0.381886
20
0.908439
11
0.383654
21
0.907707
0
LINE
8
BLACK
6
CONTINUOUS
10
0.383654
20
0.907707
11
0.384386
21
0.905939
0
LINE
8
BLACK
6
CONTINUOUS
10
0.384386
20
0.905939
11
0.383654
21
0.904171
0
LINE
8
BLACK
6
CONTINUOUS
10
0.383654
20
0.904171
11
0.381779
21
0.902297
0
LINE
8
BLACK
6
CONTINUOUS
10
0.381779
20
0.902297
11
0.381241
21
0.902074
0
LINE
8
BLACK
6
CONTINUOUS
10
0.381241
20
0.902074
11
0.380802
21
0.901693
0
LINE
8
BLACK
6
CONTINUOUS
10
0.380802
20
0.901693
11
0.375177
21
0.899818
0
LINE
8
BLACK
6
CONTINUOUS
10
0.375177
20
0.899818
11
0.374767
21
0.899847
0
LINE
8
BLACK
6
CONTINUOUS
10
0.374767
20
0.899847
11
0.374387
21
0.89969
0
LINE
8
BLACK
6
CONTINUOUS
10
0.374387
20
0.89969
11
0.370637
21
0.89969
0
LINE
8
BLACK
6
CONTINUOUS
10
0.370637
20
0.89969
11
0.370257
21
0.899847
0
LINE
8
BLACK
6
CONTINUOUS
10
0.370257
20
0.899847
11
0.369847
21
0.899818
0
LINE
8
BLACK
6
CONTINUOUS
10
0.369847
20
0.899818
11
0.364223
21
0.901693
0
LINE
8
BLACK
6
CONTINUOUS
10
0.364223
20
0.901693
11
0.363783
21
0.902074
0
LINE
8
BLACK
6
CONTINUOUS
10
0.363783
20
0.902074
11
0.363245
21
0.902297
0
LINE
8
BLACK
6
CONTINUOUS
10
0.363245
20
0.902297
11
0.359496
21
0.906046
0
LINE
8
BLACK
6
CONTINUOUS
10
0.359496
20
0.906046
11
0.359338
21
0.906426
0
LINE
8
BLACK
6
CONTINUOUS
10
0.359338
20
0.906426
11
0.359028
21
0.906696
0
LINE
8
BLACK
6
CONTINUOUS
10
0.359028
20
0.906696
11
0.357153
21
0.910446
0
LINE
8
BLACK
6
CONTINUOUS
10
0.357153
20
0.910446
11
0.357133
21
0.910729
0
LINE
8
BLACK
6
CONTINUOUS
10
0.357133
20
0.910729
11
0.356963
21
0.910957
0
LINE
8
BLACK
6
CONTINUOUS
10
0.356963
20
0.910957
11
0.355089
21
0.918456
0
LINE
8
BLACK
6
CONTINUOUS
10
0.355089
20
0.918456
11
0.355135
21
0.91877
0
LINE
8
BLACK
6
CONTINUOUS
10
0.355135
20
0.91877
11
0.355014
21
0.919063
0
LINE
8
BLACK
6
CONTINUOUS
10
0.355014
20
0.919063
11
0.355014
21
0.924687
0
LINE
8
BLACK
6
CONTINUOUS
10
0.355014
20
0.924687
11
0.355135
21
0.92498
0
LINE
8
BLACK
6
CONTINUOUS
10
0.355135
20
0.92498
11
0.355089
21
0.925293
0
LINE
8
BLACK
6
CONTINUOUS
10
0.355089
20
0.925293
11
0.356963
21
0.932792
0
LINE
8
BLACK
6
CONTINUOUS
10
0.356963
20
0.932792
11
0.357133
21
0.933021
0
LINE
8
BLACK
6
CONTINUOUS
10
0.357133
20
0.933021
11
0.357153
21
0.933304
0
LINE
8
BLACK
6
CONTINUOUS
10
0.357153
20
0.933304
11
0.359028
21
0.937054
0
LINE
8
BLACK
6
CONTINUOUS
10
0.359028
20
0.937054
11
0.359338
21
0.937323
0
LINE
8
BLACK
6
CONTINUOUS
10
0.359338
20
0.937323
11
0.359496
21
0.937703
0
LINE
8
BLACK
6
CONTINUOUS
10
0.359496
20
0.937703
11
0.363245
21
0.941453
0
LINE
8
BLACK
6
CONTINUOUS
10
0.363245
20
0.941453
11
0.363783
21
0.941675
0
LINE
8
BLACK
6
CONTINUOUS
10
0.363783
20
0.941675
11
0.364223
21
0.942057
0
LINE
8
BLACK
6
CONTINUOUS
10
0.364223
20
0.942057
11
0.369847
21
0.943932
0
LINE
8
BLACK
6
CONTINUOUS
10
0.369847
20
0.943932
11
0.370257
21
0.943902
0
LINE
8
BLACK
6
CONTINUOUS
10
0.370257
20
0.943902
11
0.370637
21
0.94406
0
LINE
8
BLACK
6
CONTINUOUS
10
0.370637
20
0.94406
11
0.374387
21
0.94406
0
LINE
8
BLACK
6
CONTINUOUS
10
0.374387
20
0.94406
11
0.374767
21
0.943902
0
LINE
8
BLACK
6
CONTINUOUS
10
0.500534
20
0.943837
11
0.501114
21
0.943796
0
LINE
8
BLACK
6
CONTINUOUS
10
0.501114
20
0.943796
11
0.504864
21
0.941921
0
LINE
8
BLACK
6
CONTINUOUS
10
0.504864
20
0.941921
11
0.505133
21
0.94161
0
LINE
8
BLACK
6
CONTINUOUS
10
0.505133
20
0.94161
11
0.505514
21
0.941453
0
LINE
8
BLACK
6
CONTINUOUS
10
0.505514
20
0.941453
11
0.507388
21
0.939578
0
LINE
8
BLACK
6
CONTINUOUS
10
0.507388
20
0.939578
11
0.507546
21
0.939198
0
LINE
8
BLACK
6
CONTINUOUS
10
0.507546
20
0.939198
11
0.507857
21
0.938928
0
LINE
8
BLACK
6
CONTINUOUS
10
0.507857
20
0.938928
11
0.509731
21
0.935179
0
LINE
8
BLACK
6
CONTINUOUS
10
0.509731
20
0.935179
11
0.509773
21
0.934598
0
LINE
8
BLACK
6
CONTINUOUS
10
0.509773
20
0.934598
11
0.509995
21
0.934061
0
LINE
8
BLACK
6
CONTINUOUS
10
0.509995
20
0.934061
11
0.509995
21
0.928436
0
LINE
8
BLACK
6
CONTINUOUS
10
0.509995
20
0.928436
11
0.509773
21
0.927899
0
LINE
8
BLACK
6
CONTINUOUS
10
0.509773
20
0.927899
11
0.509731
21
0.927318
0
LINE
8
BLACK
6
CONTINUOUS
10
0.509731
20
0.927318
11
0.507857
21
0.923569
0
LINE
8
BLACK
6
CONTINUOUS
10
0.507857
20
0.923569
11
0.507546
21
0.923299
0
LINE
8
BLACK
6
CONTINUOUS
10
0.507546
20
0.923299
11
0.507388
21
0.922919
0
LINE
8
BLACK
6
CONTINUOUS
10
0.507388
20
0.922919
11
0.505514
21
0.921044
0
LINE
8
BLACK
6
CONTINUOUS
10
0.505514
20
0.921044
11
0.505133
21
0.920887
0
LINE
8
BLACK
6
CONTINUOUS
10
0.505133
20
0.920887
11
0.504864
21
0.920576
0
LINE
8
BLACK
6
CONTINUOUS
10
0.504864
20
0.920576
11
0.501114
21
0.918701
0
LINE
8
BLACK
6
CONTINUOUS
10
0.501114
20
0.918701
11
0.500534
21
0.91866
0
LINE
8
BLACK
6
CONTINUOUS
10
0.500534
20
0.91866
11
0.499996
21
0.918437
0
LINE
8
BLACK
6
CONTINUOUS
10
0.499996
20
0.918437
11
0.487498
21
0.918437
0
LINE
8
BLACK
6
CONTINUOUS
10
0.487498
20
0.918437
11
0.487498
21
0.90219
0
LINE
8
BLACK
6
CONTINUOUS
10
0.487498
20
0.90219
11
0.486766
21
0.900422
0
LINE
8
BLACK
6
CONTINUOUS
10
0.486766
20
0.900422
11
0.484998
21
0.89969
0
LINE
8
BLACK
6
CONTINUOUS
10
0.484998
20
0.89969
11
0.48323
21
0.900422
0
LINE
8
BLACK
6
CONTINUOUS
10
0.48323
20
0.900422
11
0.482498
21
0.90219
0
LINE
8
BLACK
6
CONTINUOUS
10
0.482498
20
0.90219
11
0.482498
21
0.94156
0
LINE
8
BLACK
6
CONTINUOUS
10
0.482498
20
0.94156
11
0.48323
21
0.943328
0
LINE
8
BLACK
6
CONTINUOUS
10
0.48323
20
0.943328
11
0.484998
21
0.94406
0
LINE
8
BLACK
6
CONTINUOUS
10
0.484998
20
0.94406
11
0.499996
21
0.94406
0
LINE
8
BLACK
6
CONTINUOUS
10
0.499996
20
0.94406
11
0.500534
21
0.943837
0
LINE
8
BLACK
6
CONTINUOUS
10
0.487498
20
0.93906
11
0.487498
21
0.923437
0
LINE
8
BLACK
6
CONTINUOUS
10
0.487498
20
0.923437
11
0.499406
21
0.923437
0
LINE
8
BLACK
6
CONTINUOUS
10
0.499406
20
0.923437
11
0.502265
21
0.924867
0
LINE
8
BLACK
6
CONTINUOUS
10
0.502265
20
0.924867
11
0.503566
21
0.926168
0
LINE
8
BLACK
6
CONTINUOUS
10
0.503566
20
0.926168
11
0.504995
21
0.929027
0
LINE
8
BLACK
6
CONTINUOUS
10
0.504995
20
0.929027
11
0.504995
21
0.933471
0
LINE
8
BLACK
6
CONTINUOUS
10
0.504995
20
0.933471
11
0.503566
21
0.936329
0
LINE
8
BLACK
6
CONTINUOUS
10
0.503566
20
0.936329
11
0.502265
21
0.93763
0
LINE
8
BLACK
6
CONTINUOUS
10
0.502265
20
0.93763
11
0.499406
21
0.93906
0
LINE
8
BLACK
6
CONTINUOUS
10
0.499406
20
0.93906
11
0.487498
21
0.93906
0
LINE
8
BLACK
6
CONTINUOUS
10
0.558221
20
0.900422
11
0.557489
21
0.90219
0
LINE
8
BLACK
6
CONTINUOUS
10
0.557489
20
0.90219
11
0.558221
21
0.903958
0
LINE
8
BLACK
6
CONTINUOUS
10
0.558221
20
0.903958
11
0.559989
21
0.90469
0
LINE
8
BLACK
6
CONTINUOUS
10
0.559989
20
0.90469
11
0.568737
21
0.90469
0
LINE
8
BLACK
6
CONTINUOUS
10
0.568737
20
0.90469
11
0.568737
21
0.93365
0
LINE
8
BLACK
6
CONTINUOUS
10
0.568737
20
0.93365
11
0.565506
21
0.930418
0
LINE
8
BLACK
6
CONTINUOUS
10
0.565506
20
0.930418
11
0.565126
21
0.930261
0
LINE
8
BLACK
6
CONTINUOUS
10
0.565126
20
0.930261
11
0.564856
21
0.92995
0
LINE
8
BLACK
6
CONTINUOUS
10
0.564856
20
0.92995
11
0.561107
21
0.928075
0
LINE
8
BLACK
6
CONTINUOUS
10
0.561107
20
0.928075
11
0.559198
21
0.92794
0
LINE
8
BLACK
6
CONTINUOUS
10
0.559198
20
0.92794
11
0.557753
21
0.929193
0
LINE
8
BLACK
6
CONTINUOUS
10
0.557753
20
0.929193
11
0.557617
21
0.931102
0
LINE
8
BLACK
6
CONTINUOUS
10
0.557617
20
0.931102
11
0.558871
21
0.932547
0
LINE
8
BLACK
6
CONTINUOUS
10
0.558871
20
0.932547
11
0.562257
21
0.934241
0
LINE
8
BLACK
6
CONTINUOUS
10
0.562257
20
0.934241
11
0.565545
21
0.937528
0
LINE
8
BLACK
6
CONTINUOUS
10
0.565545
20
0.937528
11
0.569157
21
0.942947
0
LINE
8
BLACK
6
CONTINUOUS
10
0.569157
20
0.942947
11
0.569371
21
0.94309
0
LINE
8
BLACK
6
CONTINUOUS
10
0.569371
20
0.94309
11
0.56947
21
0.943328
0
LINE
8
BLACK
6
CONTINUOUS
10
0.56947
20
0.943328
11
0.570142
21
0.943606
0
LINE
8
BLACK
6
CONTINUOUS
10
0.570142
20
0.943606
11
0.570747
21
0.944011
0
LINE
8
BLACK
6
CONTINUOUS
10
0.570747
20
0.944011
11
0.571
21
0.943961
0
LINE
8
BLACK
6
CONTINUOUS
10
0.571
20
0.943961
11
0.571237
21
0.94406
0
LINE
8
BLACK
6
CONTINUOUS
10
0.571237
20
0.94406
11
0.57191
21
0.943781
0
LINE
8
BLACK
6
CONTINUOUS
10
0.57191
20
0.943781
11
0.572624
21
0.94364
0
LINE
8
BLACK
6
CONTINUOUS
10
0.572624
20
0.94364
11
0.572767
21
0.943426
0
LINE
8
BLACK
6
CONTINUOUS
10
0.572767
20
0.943426
11
0.573005
21
0.943328
0
LINE
8
BLACK
6
CONTINUOUS
10
0.573005
20
0.943328
11
0.573284
21
0.942655
0
LINE
8
BLACK
6
CONTINUOUS
10
0.573284
20
0.942655
11
0.573689
21
0.94205
0
LINE
8
BLACK
6
CONTINUOUS
10
0.573689
20
0.94205
11
0.573639
21
0.941798
0
LINE
8
BLACK
6
CONTINUOUS
10
0.573639
20
0.941798
11
0.573737
21
0.94156
0
LINE
8
BLACK
6
CONTINUOUS
10
0.573737
20
0.94156
11
0.573737
21
0.90469
0
LINE
8
BLACK
6
CONTINUOUS
10
0.573737
20
0.90469
11
0.582486
21
0.90469
0
LINE
8
BLACK
6
CONTINUOUS
10
0.582486
20
0.90469
11
0.584254
21
0.903958
0
LINE
8
BLACK
6
CONTINUOUS
10
0.584254
20
0.903958
11
0.584986
21
0.90219
0
LINE
8
BLACK
6
CONTINUOUS
10
0.584986
20
0.90219
11
0.584254
21
0.900422
0
LINE
8
BLACK
6
CONTINUOUS
10
0.584254
20
0.900422
11
0.582486
21
0.89969
0
LINE
8
BLACK
6
CONTINUOUS
10
0.582486
20
0.89969
11
0.559989
21
0.89969
0
LINE
8
BLACK
6
CONTINUOUS
10
0.559989
20
0.89969
11
0.558221
21
0.900422
0
LINE
8
BLACK
6
CONTINUOUS
10
0.414295
20
0.943837
11
0.414875
21
0.943796
0
LINE
8
BLACK
6
CONTINUOUS
10
0.414875
20
0.943796
11
0.418625
21
0.941921
0
LINE
8
BLACK
6
CONTINUOUS
10
0.418625
20
0.941921
11
0.418894
21
0.94161
0
LINE
8
BLACK
6
CONTINUOUS
10
0.418894
20
0.94161
11
0.419274
21
0.941453
0
LINE
8
BLACK
6
CONTINUOUS
10
0.419274
20
0.941453
11
0.423024
21
0.937703
0
LINE
8
BLACK
6
CONTINUOUS
10
0.423024
20
0.937703
11
0.423281
21
0.937082
0
LINE
8
BLACK
6
CONTINUOUS
10
0.423281
20
0.937082
11
0.423681
21
0.936542
0
LINE
8
BLACK
6
CONTINUOUS
10
0.423681
20
0.936542
11
0.425556
21
0.929043
0
LINE
8
BLACK
6
CONTINUOUS
10
0.425556
20
0.929043
11
0.42551
21
0.928729
0
LINE
8
BLACK
6
CONTINUOUS
10
0.42551
20
0.928729
11
0.425631
21
0.928436
0
LINE
8
BLACK
6
CONTINUOUS
10
0.425631
20
0.928436
11
0.425631
21
0.915313
0
LINE
8
BLACK
6
CONTINUOUS
10
0.425631
20
0.915313
11
0.42551
21
0.91502
0
LINE
8
BLACK
6
CONTINUOUS
10
0.42551
20
0.91502
11
0.425556
21
0.914707
0
LINE
8
BLACK
6
CONTINUOUS
10
0.425556
20
0.914707
11
0.423681
21
0.907208
0
LINE
8
BLACK
6
CONTINUOUS
10
0.423681
20
0.907208
11
0.423281
21
0.906667
0
LINE
8
BLACK
6
CONTINUOUS
10
0.423281
20
0.906667
11
0.423024
21
0.906046
0
LINE
8
BLACK
6
CONTINUOUS
10
0.423024
20
0.906046
11
0.419274
21
0.902297
0
LINE
8
BLACK
6
CONTINUOUS
10
0.419274
20
0.902297
11
0.418894
21
0.902139
0
LINE
8
BLACK
6
CONTINUOUS
10
0.418894
20
0.902139
11
0.418625
21
0.901828
0
LINE
8
BLACK
6
CONTINUOUS
10
0.418625
20
0.901828
11
0.414875
21
0.899954
0
LINE
8
BLACK
6
CONTINUOUS
10
0.414875
20
0.899954
11
0.414295
21
0.899912
0
LINE
8
BLACK
6
CONTINUOUS
10
0.414295
20
0.899912
11
0.413757
21
0.89969
0
LINE
8
BLACK
6
CONTINUOUS
10
0.413757
20
0.89969
11
0.406258
21
0.89969
0
LINE
8
BLACK
6
CONTINUOUS
10
0.406258
20
0.89969
11
0.40572
21
0.899912
0
LINE
8
BLACK
6
CONTINUOUS
10
0.40572
20
0.899912
11
0.40514
21
0.899954
0
LINE
8
BLACK
6
CONTINUOUS
10
0.40514
20
0.899954
11
0.40139
21
0.901828
0
LINE
8
BLACK
6
CONTINUOUS
10
0.40139
20
0.901828
11
0.401121
21
0.902139
0
LINE
8
BLACK
6
CONTINUOUS
10
0.401121
20
0.902139
11
0.400741
21
0.902297
0
LINE
8
BLACK
6
CONTINUOUS
10
0.400741
20
0.902297
11
0.396991
21
0.906046
0
LINE
8
BLACK
6
CONTINUOUS
10
0.396991
20
0.906046
11
0.396734
21
0.906667
0
LINE
8
BLACK
6
CONTINUOUS
10
0.396734
20
0.906667
11
0.396334
21
0.907208
0
LINE
8
BLACK
6
CONTINUOUS
10
0.396334
20
0.907208
11
0.394459
21
0.914707
0
LINE
8
BLACK
6
CONTINUOUS
10
0.394459
20
0.914707
11
0.394505
21
0.91502
0
LINE
8
BLACK
6
CONTINUOUS
10
0.394505
20
0.91502
11
0.394384
21
0.915313
0
LINE
8
BLACK
6
CONTINUOUS
10
0.394384
20
0.915313
11
0.394384
21
0.928436
0
LINE
8
BLACK
6
CONTINUOUS
10
0.394384
20
0.928436
11
0.394505
21
0.928729
0
LINE
8
BLACK
6
CONTINUOUS
10
0.394505
20
0.928729
11
0.394459
21
0.929043
0
LINE
8
BLACK
6
CONTINUOUS
10
0.394459
20
0.929043
11
0.396334
21
0.936542
0
LINE
8
BLACK
6
CONTINUOUS
10
0.396334
20
0.936542
11
0.396734
21
0.937082
0
LINE
8
BLACK
6
CONTINUOUS
10
0.396734
20
0.937082
11
0.396991
21
0.937703
0
LINE
8
BLACK
6
CONTINUOUS
10
0.396991
20
0.937703
11
0.400741
21
0.941453
0
LINE
8
BLACK
6
CONTINUOUS
10
0.400741
20
0.941453
11
0.401121
21
0.94161
0
LINE
8
BLACK
6
CONTINUOUS
10
0.401121
20
0.94161
11
0.40139
21
0.941921
0
LINE
8
BLACK
6
CONTINUOUS
10
0.40139
20
0.941921
11
0.40514
21
0.943796
0
LINE
8
BLACK
6
CONTINUOUS
10
0.40514
20
0.943796
11
0.40572
21
0.943837
0
LINE
8
BLACK
6
CONTINUOUS
10
0.40572
20
0.943837
11
0.406258
21
0.94406
0
LINE
8
BLACK
6
CONTINUOUS
10
0.406258
20
0.94406
11
0.413757
21
0.94406
0
LINE
8
BLACK
6
CONTINUOUS
10
0.413757
20
0.94406
11
0.414295
21
0.943837
0
LINE
8
BLACK
6
CONTINUOUS
10
0.406848
20
0.93906
11
0.403989
21
0.93763
0
LINE
8
BLACK
6
CONTINUOUS
10
0.403989
20
0.93763
11
0.401016
21
0.934657
0
LINE
8
BLACK
6
CONTINUOUS
10
0.401016
20
0.934657
11
0.399384
21
0.928129
0
LINE
8
BLACK
6
CONTINUOUS
10
0.399384
20
0.928129
11
0.399384
21
0.915621
0
LINE
8
BLACK
6
CONTINUOUS
10
0.399384
20
0.915621
11
0.401016
21
0.909092
0
LINE
8
BLACK
6
CONTINUOUS
10
0.401016
20
0.909092
11
0.403989
21
0.906119
0
LINE
8
BLACK
6
CONTINUOUS
10
0.403989
20
0.906119
11
0.406848
21
0.90469
0
LINE
8
BLACK
6
CONTINUOUS
10
0.406848
20
0.90469
11
0.413167
21
0.90469
0
LINE
8
BLACK
6
CONTINUOUS
10
0.413167
20
0.90469
11
0.416026
21
0.906119
0
LINE
8
BLACK
6
CONTINUOUS
10
0.416026
20
0.906119
11
0.418999
21
0.909092
0
LINE
8
BLACK
6
CONTINUOUS
10
0.418999
20
0.909092
11
0.420631
21
0.915621
0
LINE
8
BLACK
6
CONTINUOUS
10
0.420631
20
0.915621
11
0.420631
21
0.928129
0
LINE
8
BLACK
6
CONTINUOUS
10
0.420631
20
0.928129
11
0.418999
21
0.934657
0
LINE
8
BLACK
6
CONTINUOUS
10
0.418999
20
0.934657
11
0.416026
21
0.93763
0
LINE
8
BLACK
6
CONTINUOUS
10
0.416026
20
0.93763
11
0.413167
21
0.93906
0
LINE
8
BLACK
6
CONTINUOUS
10
0.413167
20
0.93906
11
0.406848
21
0.93906
0
LINE
8
BLACK
6
CONTINUOUS
10
0.466758
20
0.943849
11
0.467308
21
0.943825
0
LINE
8
BLACK
6
CONTINUOUS
10
0.467308
20
0.943825
11
0.467608
21
0.943498
0
LINE
8
BLACK
6
CONTINUOUS
10
0.467608
20
0.943498
11
0.468018
21
0.943328
0
LINE
8
BLACK
6
CONTINUOUS
10
0.468018
20
0.943328
11
0.468229
21
0.94282
0
LINE
8
BLACK
6
CONTINUOUS
10
0.468229
20
0.94282
11
0.4686
21
0.942414
0
LINE
8
BLACK
6
CONTINUOUS
10
0.4686
20
0.942414
11
0.46858
21
0.94197
0
LINE
8
BLACK
6
CONTINUOUS
10
0.46858
20
0.94197
11
0.46875
21
0.94156
0
LINE
8
BLACK
6
CONTINUOUS
10
0.46875
20
0.94156
11
0.46875
21
0.90219
0
LINE
8
BLACK
6
CONTINUOUS
10
0.46875
20
0.90219
11
0.468018
21
0.900422
0
LINE
8
BLACK
6
CONTINUOUS
10
0.468018
20
0.900422
11
0.46625
21
0.89969
0
LINE
8
BLACK
6
CONTINUOUS
10
0.46625
20
0.89969
11
0.464483
21
0.900422
0
LINE
8
BLACK
6
CONTINUOUS
10
0.464483
20
0.900422
11
0.46375
21
0.90219
0
LINE
8
BLACK
6
CONTINUOUS
10
0.46375
20
0.90219
11
0.46375
21
0.930291
0
LINE
8
BLACK
6
CONTINUOUS
10
0.46375
20
0.930291
11
0.455393
21
0.912381
0
LINE
8
BLACK
6
CONTINUOUS
10
0.455393
20
0.912381
11
0.454762
21
0.911804
0
LINE
8
BLACK
6
CONTINUOUS
10
0.454762
20
0.911804
11
0.454184
21
0.911173
0
LINE
8
BLACK
6
CONTINUOUS
10
0.454184
20
0.911173
11
0.454068
21
0.911168
0
LINE
8
BLACK
6
CONTINUOUS
10
0.454068
20
0.911168
11
0.453981
21
0.911089
0
LINE
8
BLACK
6
CONTINUOUS
10
0.453981
20
0.911089
11
0.453127
21
0.911126
0
LINE
8
BLACK
6
CONTINUOUS
10
0.453127
20
0.911126
11
0.452273
21
0.911089
0
LINE
8
BLACK
6
CONTINUOUS
10
0.452273
20
0.911089
11
0.452187
21
0.911168
0
LINE
8
BLACK
6
CONTINUOUS
10
0.452187
20
0.911168
11
0.45207
21
0.911173
0
LINE
8
BLACK
6
CONTINUOUS
10
0.45207
20
0.911173
11
0.451492
21
0.911804
0
LINE
8
BLACK
6
CONTINUOUS
10
0.451492
20
0.911804
11
0.450862
21
0.912381
0
LINE
8
BLACK
6
CONTINUOUS
10
0.450862
20
0.912381
11
0.442504
21
0.930291
0
LINE
8
BLACK
6
CONTINUOUS
10
0.442504
20
0.930291
11
0.442504
21
0.90219
0
LINE
8
BLACK
6
CONTINUOUS
10
0.442504
20
0.90219
11
0.441771
21
0.900422
0
LINE
8
BLACK
6
CONTINUOUS
10
0.441771
20
0.900422
11
0.440004
21
0.89969
0
LINE
8
BLACK
6
CONTINUOUS
10
0.440004
20
0.89969
11
0.438236
21
0.900422
0
LINE
8
BLACK
6
CONTINUOUS
10
0.438236
20
0.900422
11
0.437504
21
0.90219
0
LINE
8
BLACK
6
CONTINUOUS
10
0.437504
20
0.90219
11
0.437504
21
0.94156
0
LINE
8
BLACK
6
CONTINUOUS
10
0.437504
20
0.94156
11
0.437674
21
0.94197
0
LINE
8
BLACK
6
CONTINUOUS
10
0.437674
20
0.94197
11
0.437654
21
0.942414
0
LINE
8
BLACK
6
CONTINUOUS
10
0.437654
20
0.942414
11
0.438026
21
0.94282
0
LINE
8
BLACK
6
CONTINUOUS
10
0.438026
20
0.94282
11
0.438236
21
0.943328
0
LINE
8
BLACK
6
CONTINUOUS
10
0.438236
20
0.943328
11
0.438646
21
0.943498
0
LINE
8
BLACK
6
CONTINUOUS
10
0.438646
20
0.943498
11
0.438947
21
0.943825
0
LINE
8
BLACK
6
CONTINUOUS
10
0.438947
20
0.943825
11
0.439496
21
0.943849
0
LINE
8
BLACK
6
CONTINUOUS
10
0.439496
20
0.943849
11
0.440004
21
0.94406
0
LINE
8
BLACK
6
CONTINUOUS
10
0.440004
20
0.94406
11
0.440414
21
0.94389
0
LINE
8
BLACK
6
CONTINUOUS
10
0.440414
20
0.94389
11
0.440858
21
0.943909
0
LINE
8
BLACK
6
CONTINUOUS
10
0.440858
20
0.943909
11
0.441264
21
0.943538
0
LINE
8
BLACK
6
CONTINUOUS
10
0.441264
20
0.943538
11
0.441771
21
0.943328
0
LINE
8
BLACK
6
CONTINUOUS
10
0.441771
20
0.943328
11
0.441942
21
0.942917
0
LINE
8
BLACK
6
CONTINUOUS
10
0.441942
20
0.942917
11
0.442269
21
0.942617
0
LINE
8
BLACK
6
CONTINUOUS
10
0.442269
20
0.942617
11
0.453127
21
0.91935
0
LINE
8
BLACK
6
CONTINUOUS
10
0.453127
20
0.91935
11
0.463985
21
0.942617
0
LINE
8
BLACK
6
CONTINUOUS
10
0.463985
20
0.942617
11
0.464313
21
0.942917
0
LINE
8
BLACK
6
CONTINUOUS
10
0.464313
20
0.942917
11
0.464483
21
0.943328
0
LINE
8
BLACK
6
CONTINUOUS
10
0.464483
20
0.943328
11
0.464991
21
0.943538
0
LINE
8
BLACK
6
CONTINUOUS
10
0.464991
20
0.943538
11
0.465396
21
0.943909
0
LINE
8
BLACK
6
CONTINUOUS
10
0.465396
20
0.943909
11
0.46584
21
0.94389
0
LINE
8
BLACK
6
CONTINUOUS
10
0.46584
20
0.94389
11
0.46625
21
0.94406
0
LINE
8
BLACK
6
CONTINUOUS
10
0.46625
20
0.94406
11
0.466758
21
0.943849
0
LINE
8
BLACK
6
CONTINUOUS
10
0.536154
20
0.943837
11
0.536735
21
0.943796
0
LINE
8
BLACK
6
CONTINUOUS
10
0.536735
20
0.943796
11
0.540484
21
0.941921
0
LINE
8
BLACK
6
CONTINUOUS
10
0.540484
20
0.941921
11
0.540754
21
0.94161
0
LINE
8
BLACK
6
CONTINUOUS
10
0.540754
20
0.94161
11
0.541134
21
0.941453
0
LINE
8
BLACK
6
CONTINUOUS
10
0.541134
20
0.941453
11
0.543009
21
0.939578
0
LINE
8
BLACK
6
CONTINUOUS
10
0.543009
20
0.939578
11
0.543166
21
0.939198
0
LINE
8
BLACK
6
CONTINUOUS
10
0.543166
20
0.939198
11
0.543477
21
0.938928
0
LINE
8
BLACK
6
CONTINUOUS
10
0.543477
20
0.938928
11
0.545352
21
0.935179
0
LINE
8
BLACK
6
CONTINUOUS
10
0.545352
20
0.935179
11
0.545372
21
0.934895
0
LINE
8
BLACK
6
CONTINUOUS
10
0.545372
20
0.934895
11
0.545541
21
0.934667
0
LINE
8
BLACK
6
CONTINUOUS
10
0.545541
20
0.934667
11
0.547416
21
0.927168
0
LINE
8
BLACK
6
CONTINUOUS
10
0.547416
20
0.927168
11
0.547369
21
0.926855
0
LINE
8
BLACK
6
CONTINUOUS
10
0.547369
20
0.926855
11
0.547491
21
0.926562
0
LINE
8
BLACK
6
CONTINUOUS
10
0.547491
20
0.926562
11
0.547491
21
0.917188
0
LINE
8
BLACK
6
CONTINUOUS
10
0.547491
20
0.917188
11
0.547369
21
0.916895
0
LINE
8
BLACK
6
CONTINUOUS
10
0.547369
20
0.916895
11
0.547416
21
0.916582
0
LINE
8
BLACK
6
CONTINUOUS
10
0.547416
20
0.916582
11
0.545541
21
0.909082
0
LINE
8
BLACK
6
CONTINUOUS
10
0.545541
20
0.909082
11
0.545372
21
0.908854
0
LINE
8
BLACK
6
CONTINUOUS
10
0.545372
20
0.908854
11
0.545352
21
0.908571
0
LINE
8
BLACK
6
CONTINUOUS
10
0.545352
20
0.908571
11
0.543477
21
0.904821
0
LINE
8
BLACK
6
CONTINUOUS
10
0.543477
20
0.904821
11
0.543166
21
0.904552
0
LINE
8
BLACK
6
CONTINUOUS
10
0.543166
20
0.904552
11
0.543009
21
0.904171
0
LINE
8
BLACK
6
CONTINUOUS
10
0.543009
20
0.904171
11
0.541134
21
0.902297
0
LINE
8
BLACK
6
CONTINUOUS
10
0.541134
20
0.902297
11
0.540754
21
0.902139
0
LINE
8
BLACK
6
CONTINUOUS
10
0.540754
20
0.902139
11
0.540484
21
0.901828
0
LINE
8
BLACK
6
CONTINUOUS
10
0.540484
20
0.901828
11
0.536735
21
0.899954
0
LINE
8
BLACK
6
CONTINUOUS
10
0.536735
20
0.899954
11
0.536154
21
0.899912
0
LINE
8
BLACK
6
CONTINUOUS
10
0.536154
20
0.899912
11
0.535617
21
0.89969
0
LINE
8
BLACK
6
CONTINUOUS
10
0.535617
20
0.89969
11
0.531867
21
0.89969
0
LINE
8
BLACK
6
CONTINUOUS
10
0.531867
20
0.89969
11
0.53133
21
0.899912
0
LINE
8
BLACK
6
CONTINUOUS
10
0.53133
20
0.899912
11
0.530749
21
0.899954
0
LINE
8
BLACK
6
CONTINUOUS
10
0.530749
20
0.899954
11
0.527
21
0.901828
0
LINE
8
BLACK
6
CONTINUOUS
10
0.527
20
0.901828
11
0.52673
21
0.902139
0
LINE
8
BLACK
6
CONTINUOUS
10
0.52673
20
0.902139
11
0.52635
21
0.902297
0
LINE
8
BLACK
6
CONTINUOUS
10
0.52635
20
0.902297
11
0.524475
21
0.904172
0
LINE
8
BLACK
6
CONTINUOUS
10
0.524475
20
0.904172
11
0.524318
21
0.904552
0
LINE
8
BLACK
6
CONTINUOUS
10
0.524318
20
0.904552
11
0.524007
21
0.904821
0
LINE
8
BLACK
6
CONTINUOUS
10
0.524007
20
0.904821
11
0.522132
21
0.908571
0
LINE
8
BLACK
6
CONTINUOUS
10
0.522132
20
0.908571
11
0.522112
21
0.908854
0
LINE
8
BLACK
6
CONTINUOUS
10
0.522112
20
0.908854
11
0.521943
21
0.909082
0
LINE
8
BLACK
6
CONTINUOUS
10
0.521943
20
0.909082
11
0.520068
21
0.916582
0
LINE
8
BLACK
6
CONTINUOUS
10
0.520068
20
0.916582
11
0.520115
21
0.916895
0
LINE
8
BLACK
6
CONTINUOUS
10
0.520115
20
0.916895
11
0.519993
21
0.917188
0
LINE
8
BLACK
6
CONTINUOUS
10
0.519993
20
0.917188
11
0.519993
21
0.926562
0
LINE
8
BLACK
6
CONTINUOUS
10
0.519993
20
0.926562
11
0.520115
21
0.926855
0
LINE
8
BLACK
6
CONTINUOUS
10
0.520115
20
0.926855
11
0.520068
21
0.927168
0
LINE
8
BLACK
6
CONTINUOUS
10
0.520068
20
0.927168
11
0.521943
21
0.934667
0
LINE
8
BLACK
6
CONTINUOUS
10
0.521943
20
0.934667
11
0.522112
21
0.934895
0
LINE
8
BLACK
6
CONTINUOUS
10
0.522112
20
0.934895
11
0.522132
21
0.935179
0
LINE
8
BLACK
6
CONTINUOUS
10
0.522132
20
0.935179
11
0.524007
21
0.938928
0
LINE
8
BLACK
6
CONTINUOUS
10
0.524007
20
0.938928
11
0.524318
21
0.939198
0
LINE
8
BLACK
6
CONTINUOUS
10
0.524318
20
0.939198
11
0.524475
21
0.939578
0
LINE
8
BLACK
6
CONTINUOUS
10
0.524475
20
0.939578
11
0.52635
21
0.941453
0
LINE
8
BLACK
6
CONTINUOUS
10
0.52635
20
0.941453
11
0.52673
21
0.94161
0
LINE
8
BLACK
6
CONTINUOUS
10
0.52673
20
0.94161
11
0.527
21
0.941921
0
LINE
8
BLACK
6
CONTINUOUS
10
0.527
20
0.941921
11
0.530749
21
0.943796
0
LINE
8
BLACK
6
CONTINUOUS
10
0.530749
20
0.943796
11
0.53133
21
0.943837
0
LINE
8
BLACK
6
CONTINUOUS
10
0.53133
20
0.943837
11
0.531867
21
0.94406
0
LINE
8
BLACK
6
CONTINUOUS
10
0.531867
20
0.94406
11
0.535617
21
0.94406
0
LINE
8
BLACK
6
CONTINUOUS
10
0.535617
20
0.94406
11
0.536154
21
0.943837
0
LINE
8
BLACK
6
CONTINUOUS
10
0.532457
20
0.93906
11
0.529599
21
0.93763
0
LINE
8
BLACK
6
CONTINUOUS
10
0.529599
20
0.93763
11
0.528298
21
0.936329
0
LINE
8
BLACK
6
CONTINUOUS
10
0.528298
20
0.936329
11
0.526727
21
0.933188
0
LINE
8
BLACK
6
CONTINUOUS
10
0.526727
20
0.933188
11
0.524993
21
0.926254
0
LINE
8
BLACK
6
CONTINUOUS
10
0.524993
20
0.926254
11
0.524993
21
0.917496
0
LINE
8
BLACK
6
CONTINUOUS
10
0.524993
20
0.917496
11
0.526727
21
0.910561
0
LINE
8
BLACK
6
CONTINUOUS
10
0.526727
20
0.910561
11
0.528298
21
0.90742
0
LINE
8
BLACK
6
CONTINUOUS
10
0.528298
20
0.90742
11
0.529599
21
0.906119
0
LINE
8
BLACK
6
CONTINUOUS
10
0.529599
20
0.906119
11
0.532457
21
0.90469
0
LINE
8
BLACK
6
CONTINUOUS
10
0.532457
20
0.90469
11
0.535027
21
0.90469
0
LINE
8
BLACK
6
CONTINUOUS
10
0.535027
20
0.90469
11
0.537885
21
0.906119
0
LINE
8
BLACK
6
CONTINUOUS
10
0.537885
20
0.906119
11
0.539186
21
0.90742
0
LINE
8
BLACK
6
CONTINUOUS
10
0.539186
20
0.90742
11
0.540757
21
0.910561
0
LINE
8
BLACK
6
CONTINUOUS
10
0.540757
20
0.910561
11
0.542491
21
0.917496
0
LINE
8
BLACK
6
CONTINUOUS
10
0.542491
20
0.917496
11
0.542491
21
0.926254
0
LINE
8
BLACK
6
CONTINUOUS
10
0.542491
20
0.926254
11
0.540757
21
0.933188
0
LINE
8
BLACK
6
CONTINUOUS
10
0.540757
20
0.933188
11
0.539186
21
0.936329
0
LINE
8
BLACK
6
CONTINUOUS
10
0.539186
20
0.936329
11
0.537885
21
0.93763
0
LINE
8
BLACK
6
CONTINUOUS
10
0.537885
20
0.93763
11
0.535027
21
0.93906
0
LINE
8
BLACK
6
CONTINUOUS
10
0.535027
20
0.93906
11
0.532457
21
0.93906
0
LINE
8
BLACK
6
CONTINUOUS
10
0.334074
20
0.943809
11
0.33426
21
0.943796
0
LINE
8
BLACK
6
CONTINUOUS
10
0.33426
20
0.943796
11
0.334779
21
0.943197
0
LINE
8
BLACK
6
CONTINUOUS
10
0.334779
20
0.943197
11
0.335378
21
0.942678
0
LINE
8
BLACK
6
CONTINUOUS
10
0.335378
20
0.942678
11
0.335391
21
0.942491
0
LINE
8
BLACK
6
CONTINUOUS
10
0.335391
20
0.942491
11
0.335514
21
0.94235
0
LINE
8
BLACK
6
CONTINUOUS
10
0.335514
20
0.94235
11
0.348637
21
0.90298
0
LINE
8
BLACK
6
CONTINUOUS
10
0.348637
20
0.90298
11
0.348501
21
0.901072
0
LINE
8
BLACK
6
CONTINUOUS
10
0.348501
20
0.901072
11
0.347056
21
0.899818
0
LINE
8
BLACK
6
CONTINUOUS
10
0.347056
20
0.899818
11
0.345147
21
0.899954
0
LINE
8
BLACK
6
CONTINUOUS
10
0.345147
20
0.899954
11
0.343894
21
0.901399
0
LINE
8
BLACK
6
CONTINUOUS
10
0.343894
20
0.901399
11
0.340714
21
0.910938
0
LINE
8
BLACK
6
CONTINUOUS
10
0.340714
20
0.910938
11
0.32557
21
0.910938
0
LINE
8
BLACK
6
CONTINUOUS
10
0.32557
20
0.910938
11
0.32239
21
0.901399
0
LINE
8
BLACK
6
CONTINUOUS
10
0.32239
20
0.901399
11
0.321137
21
0.899954
0
LINE
8
BLACK
6
CONTINUOUS
10
0.321137
20
0.899954
11
0.319228
21
0.899818
0
LINE
8
BLACK
6
CONTINUOUS
10
0.319228
20
0.899818
11
0.317783
21
0.901072
0
LINE
8
BLACK
6
CONTINUOUS
10
0.317783
20
0.901072
11
0.317647
21
0.90298
0
LINE
8
BLACK
6
CONTINUOUS
10
0.317647
20
0.90298
11
0.33077
21
0.94235
0
LINE
8
BLACK
6
CONTINUOUS
10
0.33077
20
0.94235
11
0.330893
21
0.942492
0
LINE
8
BLACK
6
CONTINUOUS
10
0.330893
20
0.942492
11
0.330906
21
0.942678
0
LINE
8
BLACK
6
CONTINUOUS
10
0.330906
20
0.942678
11
0.331505
21
0.943197
0
LINE
8
BLACK
6
CONTINUOUS
10
0.331505
20
0.943197
11
0.332024
21
0.943796
0
LINE
8
BLACK
6
CONTINUOUS
10
0.332024
20
0.943796
11
0.33221
21
0.943809
0
LINE
8
BLACK
6
CONTINUOUS
10
0.33221
20
0.943809
11
0.332352
21
0.943932
0
LINE
8
BLACK
6
CONTINUOUS
10
0.332352
20
0.943932
11
0.333142
21
0.943875
0
LINE
8
BLACK
6
CONTINUOUS
10
0.333142
20
0.943875
11
0.333933
21
0.943932
0
LINE
8
BLACK
6
CONTINUOUS
10
0.333933
20
0.943932
11
0.334074
21
0.943809
0
LINE
8
BLACK
6
CONTINUOUS
10
0.327237
20
0.915938
11
0.339047
21
0.915938
0
LINE
8
BLACK
6
CONTINUOUS
10
0.339047
20
0.915938
11
0.333142
21
0.933654
0
LINE
8
BLACK
6
CONTINUOUS
10
0.333142
20
0.933654
11
0.327237
21
0.915938
0
LINE
8
BLACK
6
CONTINUOUS
10
0.60779
20
0.943809
11
0.607976
21
0.943796
0
LINE
8
BLACK
6
CONTINUOUS
10
0.607976
20
0.943796
11
0.608495
21
0.943197
0
LINE
8
BLACK
6
CONTINUOUS
10
0.608495
20
0.943197
11
0.609094
21
0.942678
0
LINE
8
BLACK
6
CONTINUOUS
10
0.609094
20
0.942678
11
0.609107
21
0.942491
0
LINE
8
BLACK
6
CONTINUOUS
10
0.609107
20
0.942491
11
0.60923
21
0.94235
0
LINE
8
BLACK
6
CONTINUOUS
10
0.60923
20
0.94235
11
0.622353
21
0.90298
0
LINE
8
BLACK
6
CONTINUOUS
10
0.622353
20
0.90298
11
0.622217
21
0.901072
0
LINE
8
BLACK
6
CONTINUOUS
10
0.622217
20
0.901072
11
0.620772
21
0.899818
0
LINE
8
BLACK
6
CONTINUOUS
10
0.620772
20
0.899818
11
0.618863
21
0.899954
0
LINE
8
BLACK
6
CONTINUOUS
10
0.618863
20
0.899954
11
0.617609
21
0.901399
0
LINE
8
BLACK
6
CONTINUOUS
10
0.617609
20
0.901399
11
0.61443
21
0.910938
0
LINE
8
BLACK
6
CONTINUOUS
10
0.61443
20
0.910938
11
0.599286
21
0.910938
0
LINE
8
BLACK
6
CONTINUOUS
10
0.599286
20
0.910938
11
0.596106
21
0.901399
0
LINE
8
BLACK
6
CONTINUOUS
10
0.596106
20
0.901399
11
0.594853
21
0.899954
0
LINE
8
BLACK
6
CONTINUOUS
10
0.594853
20
0.899954
11
0.592944
21
0.899818
0
LINE
8
BLACK
6
CONTINUOUS
10
0.592944
20
0.899818
11
0.591498
21
0.901072
0
LINE
8
BLACK
6
CONTINUOUS
10
0.591498
20
0.901072
11
0.591363
21
0.90298
0
LINE
8
BLACK
6
CONTINUOUS
10
0.591363
20
0.90298
11
0.604486
21
0.94235
0
LINE
8
BLACK
6
CONTINUOUS
10
0.604486
20
0.94235
11
0.604609
21
0.942492
0
LINE
8
BLACK
6
CONTINUOUS
10
0.604609
20
0.942492
11
0.604622
21
0.942678
0
LINE
8
BLACK
6
CONTINUOUS
10
0.604622
20
0.942678
11
0.605221
21
0.943197
0
LINE
8
BLACK
6
CONTINUOUS
10
0.605221
20
0.943197
11
0.60574
21
0.943796
0
LINE
8
BLACK
6
CONTINUOUS
10
0.60574
20
0.943796
11
0.605926
21
0.943809
0
LINE
8
BLACK
6
CONTINUOUS
10
0.605926
20
0.943809
11
0.606067
21
0.943932
0
LINE
8
BLACK
6
CONTINUOUS
10
0.606067
20
0.943932
11
0.606858
21
0.943875
0
LINE
8
BLACK
6
CONTINUOUS
10
0.606858
20
0.943875
11
0.607648
21
0.943932
0
LINE
8
BLACK
6
CONTINUOUS
10
0.607648
20
0.943932
11
0.60779
21
0.943809
0
LINE
8
BLACK
6
CONTINUOUS
10
0.600953
20
0.915938
11
0.612763
21
0.915938
0
LINE
8
BLACK
6
CONTINUOUS
10
0.612763
20
0.915938
11
0.606858
21
0.933654
0
LINE
8
BLACK
6
CONTINUOUS
10
0.606858
20
0.933654
11
0.600953
21
0.915938
0
LINE
8
BLACK
6
CONTINUOUS
10
0.0410099
20
0.94057
11
0.0425572
21
0.939272
0
LINE
8
BLACK
6
CONTINUOUS
10
0.0425572
20
0.939272
11
0.0429079
21
0.937283
0
LINE
8
BLACK
6
CONTINUOUS
10
0.0429079
20
0.937283
11
0.041898
21
0.935533
0
LINE
8
BLACK
6
CONTINUOUS
10
0.041898
20
0.935533
11
0.04
21
0.934843
0
LINE
8
BLACK
6
CONTINUOUS
10
0.04
20
0.934843
11
-0.04
21
0.934843
0
LINE
8
BLACK
6
CONTINUOUS
10
-0.04
20
0.934843
11
-0.0410099
21
0.935021
0
LINE
8
BLACK
6
CONTINUOUS
10
-0.0410099
20
0.935021
11
-0.0425572
21
0.936319
0
LINE
8
BLACK
6
CONTINUOUS
10
-0.0425572
20
0.936319
11
-0.0429079
21
0.938308
0
LINE
8
BLACK
6
CONTINUOUS
10
-0.0429079
20
0.938308
11
-0.041898
21
0.940057
0
LINE
8
BLACK
6
CONTINUOUS
10
-0.041898
20
0.940057
11
-0.04
21
0.940748
0
LINE
8
BLACK
6
CONTINUOUS
10
-0.04
20
0.940748
11
0.04
21
0.940748
0
LINE
8
BLACK
6
CONTINUOUS
10
0.04
20
0.940748
11
0.0410099
21
0.94057
0
LINE
8
BLACK
6
CONTINUOUS
10
0.427077
20
1.02333
11
0.427809
21
1.02156
0
LINE
8
BLACK
6
CONTINUOUS
10
0.427809
20
1.02156
11
0.427809
21
0.98219
0
LINE
8
BLACK
6
CONTINUOUS
10
0.427809
20
0.98219
11
0.427077
21
0.980422
0
LINE
8
BLACK
6
CONTINUOUS
10
0.427077
20
0.980422
11
0.425309
21
0.97969
0
LINE
8
BLACK
6
CONTINUOUS
10
0.425309
20
0.97969
11
0.423542
21
0.980422
0
LINE
8
BLACK
6
CONTINUOUS
10
0.423542
20
0.980422
11
0.422809
21
0.98219
0
LINE
8
BLACK
6
CONTINUOUS
10
0.422809
20
0.98219
11
0.422809
21
1.00031
0
LINE
8
BLACK
6
CONTINUOUS
10
0.422809
20
1.00031
11
0.405312
21
1.00031
0
LINE
8
BLACK
6
CONTINUOUS
10
0.405312
20
1.00031
11
0.405312
21
0.98219
0
LINE
8
BLACK
6
CONTINUOUS
10
0.405312
20
0.98219
11
0.40458
21
0.980422
0
LINE
8
BLACK
6
CONTINUOUS
10
0.40458
20
0.980422
11
0.402812
21
0.97969
0
LINE
8
BLACK
6
CONTINUOUS
10
0.402812
20
0.97969
11
0.401044
21
0.980422
0
LINE
8
BLACK
6
CONTINUOUS
10
0.401044
20
0.980422
11
0.400312
21
0.98219
0
LINE
8
BLACK
6
CONTINUOUS
10
0.400312
20
0.98219
11
0.400312
21
1.02156
0
LINE
8
BLACK
6
CONTINUOUS
10
0.400312
20
1.02156
11
0.401044
21
1.02333
0
LINE
8
BLACK
6
CONTINUOUS
10
0.401044
20
1.02333
11
0.402812
21
1.02406
0
LINE
8
BLACK
6
CONTINUOUS
10
0.402812
20
1.02406
11
0.40458
21
1.02333
0
LINE
8
BLACK
6
CONTINUOUS
10
0.40458
20
1.02333
11
0.405312
21
1.02156
0
LINE
8
BLACK
6
CONTINUOUS
10
0.405312
20
1.02156
11
0.405312
21
1.00531
0
LINE
8
BLACK
6
CONTINUOUS
10
0.405312
20
1.00531
11
0.422809
21
1.00531
0
LINE
8
BLACK
6
CONTINUOUS
10
0.422809
20
1.00531
11
0.422809
21
1.02156
0
LINE
8
BLACK
6
CONTINUOUS
10
0.422809
20
1.02156
11
0.423542
21
1.02333
0
LINE
8
BLACK
6
CONTINUOUS
10
0.423542
20
1.02333
11
0.425309
21
1.02406
0
LINE
8
BLACK
6
CONTINUOUS
10
0.425309
20
1.02406
11
0.427077
21
1.02333
0
LINE
8
BLACK
6
CONTINUOUS
10
0.384572
20
1.02385
11
0.385122
21
1.02383
0
LINE
8
BLACK
6
CONTINUOUS
10
0.385122
20
1.02383
11
0.385422
21
1.0235
0
LINE
8
BLACK
6
CONTINUOUS
10
0.385422
20
1.0235
11
0.385832
21
1.02333
0
LINE
8
BLACK
6
CONTINUOUS
10
0.385832
20
1.02333
11
0.386043
21
1.02282
0
LINE
8
BLACK
6
CONTINUOUS
10
0.386043
20
1.02282
11
0.386414
21
1.02241
0
LINE
8
BLACK
6
CONTINUOUS
10
0.386414
20
1.02241
11
0.386394
21
1.02197
0
LINE
8
BLACK
6
CONTINUOUS
10
0.386394
20
1.02197
11
0.386564
21
1.02156
0
LINE
8
BLACK
6
CONTINUOUS
10
0.386564
20
1.02156
11
0.386564
21
0.98219
0
LINE
8
BLACK
6
CONTINUOUS
10
0.386564
20
0.98219
11
0.385832
21
0.980422
0
LINE
8
BLACK
6
CONTINUOUS
10
0.385832
20
0.980422
11
0.384064
21
0.97969
0
LINE
8
BLACK
6
CONTINUOUS
10
0.384064
20
0.97969
11
0.382297
21
0.980422
0
LINE
8
BLACK
6
CONTINUOUS
10
0.382297
20
0.980422
11
0.381564
21
0.98219
0
LINE
8
BLACK
6
CONTINUOUS
10
0.381564
20
0.98219
11
0.381564
21
1.01029
0
LINE
8
BLACK
6
CONTINUOUS
10
0.381564
20
1.01029
11
0.373207
21
0.992381
0
LINE
8
BLACK
6
CONTINUOUS
10
0.373207
20
0.992381
11
0.372576
21
0.991804
0
LINE
8
BLACK
6
CONTINUOUS
10
0.372576
20
0.991804
11
0.371998
21
0.991173
0
LINE
8
BLACK
6
CONTINUOUS
10
0.371998
20
0.991173
11
0.371882
21
0.991168
0
LINE
8
BLACK
6
CONTINUOUS
10
0.371882
20
0.991168
11
0.371795
21
0.991089
0
LINE
8
BLACK
6
CONTINUOUS
10
0.371795
20
0.991089
11
0.370941
21
0.991126
0
LINE
8
BLACK
6
CONTINUOUS
10
0.370941
20
0.991126
11
0.370087
21
0.991089
0
LINE
8
BLACK
6
CONTINUOUS
10
0.370087
20
0.991089
11
0.370001
21
0.991168
0
LINE
8
BLACK
6
CONTINUOUS
10
0.370001
20
0.991168
11
0.369884
21
0.991173
0
LINE
8
BLACK
6
CONTINUOUS
10
0.369884
20
0.991173
11
0.369306
21
0.991804
0
LINE
8
BLACK
6
CONTINUOUS
10
0.369306
20
0.991804
11
0.368676
21
0.992381
0
LINE
8
BLACK
6
CONTINUOUS
10
0.368676
20
0.992381
11
0.360318
21
1.01029
0
LINE
8
BLACK
6
CONTINUOUS
10
0.360318
20
1.01029
11
0.360318
21
0.98219
0
LINE
8
BLACK
6
CONTINUOUS
10
0.360318
20
0.98219
11
0.359586
21
0.980422
0
LINE
8
BLACK
6
CONTINUOUS
10
0.359586
20
0.980422
11
0.357818
21
0.97969
0
LINE
8
BLACK
6
CONTINUOUS
10
0.357818
20
0.97969
11
0.35605
21
0.980422
0
LINE
8
BLACK
6
CONTINUOUS
10
0.35605
20
0.980422
11
0.355318
21
0.98219
0
LINE
8
BLACK
6
CONTINUOUS
10
0.355318
20
0.98219
11
0.355318
21
1.02156
0
LINE
8
BLACK
6
CONTINUOUS
10
0.355318
20
1.02156
11
0.355488
21
1.02197
0
LINE
8
BLACK
6
CONTINUOUS
10
0.355488
20
1.02197
11
0.355468
21
1.02241
0
LINE
8
BLACK
6
CONTINUOUS
10
0.355468
20
1.02241
11
0.35584
21
1.02282
0
LINE
8
BLACK
6
CONTINUOUS
10
0.35584
20
1.02282
11
0.35605
21
1.02333
0
LINE
8
BLACK
6
CONTINUOUS
10
0.35605
20
1.02333
11
0.35646
21
1.0235
0
LINE
8
BLACK
6
CONTINUOUS
10
0.35646
20
1.0235
11
0.356761
21
1.02383
0
LINE
8
BLACK
6
CONTINUOUS
10
0.356761
20
1.02383
11
0.35731
21
1.02385
0
LINE
8
BLACK
6
CONTINUOUS
10
0.35731
20
1.02385
11
0.357818
21
1.02406
0
LINE
8
BLACK
6
CONTINUOUS
10
0.357818
20
1.02406
11
0.358228
21
1.02389
0
LINE
8
BLACK
6
CONTINUOUS
10
0.358228
20
1.02389
11
0.358672
21
1.02391
0
LINE
8
BLACK
6
CONTINUOUS
10
0.358672
20
1.02391
11
0.359078
21
1.02354
0
LINE
8
BLACK
6
CONTINUOUS
10
0.359078
20
1.02354
11
0.359586
21
1.02333
0
LINE
8
BLACK
6
CONTINUOUS
10
0.359586
20
1.02333
11
0.359756
21
1.02292
0
LINE
8
BLACK
6
CONTINUOUS
10
0.359756
20
1.02292
11
0.360083
21
1.02262
0
LINE
8
BLACK
6
CONTINUOUS
10
0.360083
20
1.02262
11
0.370941
21
0.99935
0
LINE
8
BLACK
6
CONTINUOUS
10
0.370941
20
0.99935
11
0.381799
21
1.02262
0
LINE
8
BLACK
6
CONTINUOUS
10
0.381799
20
1.02262
11
0.382127
21
1.02292
0
LINE
8
BLACK
6
CONTINUOUS
10
0.382127
20
1.02292
11
0.382297
21
1.02333
0
LINE
8
BLACK
6
CONTINUOUS
10
0.382297
20
1.02333
11
0.382805
21
1.02354
0
LINE
8
BLACK
6
CONTINUOUS
10
0.382805
20
1.02354
11
0.38321
21
1.02391
0
LINE
8
BLACK
6
CONTINUOUS
10
0.38321
20
1.02391
11
0.383654
21
1.02389
0
LINE
8
BLACK
6
CONTINUOUS
10
0.383654
20
1.02389
11
0.384064
21
1.02406
0
LINE
8
BLACK
6
CONTINUOUS
10
0.384064
20
1.02406
11
0.384572
21
1.02385
0
LINE
8
BLACK
6
CONTINUOUS
10
0.327714
20
1.02333
11
0.328447
21
1.02156
0
LINE
8
BLACK
6
CONTINUOUS
10
0.328447
20
1.02156
11
0.328447
21
0.98469
0
LINE
8
BLACK
6
CONTINUOUS
10
0.328447
20
0.98469
11
0.344694
21
0.98469
0
LINE
8
BLACK
6
CONTINUOUS
10
0.344694
20
0.98469
11
0.346462
21
0.983958
0
LINE
8
BLACK
6
CONTINUOUS
10
0.346462
20
0.983958
11
0.347194
21
0.98219
0
LINE
8
BLACK
6
CONTINUOUS
10
0.347194
20
0.98219
11
0.346462
21
0.980422
0
LINE
8
BLACK
6
CONTINUOUS
10
0.346462
20
0.980422
11
0.344694
21
0.97969
0
LINE
8
BLACK
6
CONTINUOUS
10
0.344694
20
0.97969
11
0.325947
21
0.97969
0
LINE
8
BLACK
6
CONTINUOUS
10
0.325947
20
0.97969
11
0.324179
21
0.980422
0
LINE
8
BLACK
6
CONTINUOUS
10
0.324179
20
0.980422
11
0.323447
21
0.98219
0
LINE
8
BLACK
6
CONTINUOUS
10
0.323447
20
0.98219
11
0.323447
21
1.02156
0
LINE
8
BLACK
6
CONTINUOUS
10
0.323447
20
1.02156
11
0.324179
21
1.02333
0
LINE
8
BLACK
6
CONTINUOUS
10
0.324179
20
1.02333
11
0.325947
21
1.02406
0
LINE
8
BLACK
6
CONTINUOUS
10
0.325947
20
1.02406
11
0.327714
21
1.02333
0
LINE
8
BLACK
6
CONTINUOUS
10
0.475821
20
0.998956
11
0.476553
21
0.997188
0
LINE
8
BLACK
6
CONTINUOUS
10
0.476553
20
0.997188
11
0.475821
21
0.99542
0
LINE
8
BLACK
6
CONTINUOUS
10
0.475821
20
0.99542
11
0.474053
21
0.994688
0
LINE
8
BLACK
6
CONTINUOUS
10
0.474053
20
0.994688
11
0.444057
21
0.994688
0
LINE
8
BLACK
6
CONTINUOUS
10
0.444057
20
0.994688
11
0.442289
21
0.99542
0
LINE
8
BLACK
6
CONTINUOUS
10
0.442289
20
0.99542
11
0.441557
21
0.997188
0
LINE
8
BLACK
6
CONTINUOUS
10
0.441557
20
0.997188
11
0.442289
21
0.998956
0
LINE
8
BLACK
6
CONTINUOUS
10
0.442289
20
0.998956
11
0.444057
21
0.999688
0
LINE
8
BLACK
6
CONTINUOUS
10
0.444057
20
0.999688
11
0.474053
21
0.999688
0
LINE
8
BLACK
6
CONTINUOUS
10
0.474053
20
0.999688
11
0.475821
21
0.998956
0
LINE
8
BLACK
6
CONTINUOUS
10
0.44101
20
1.06598
11
0.442557
21
1.06468
0
LINE
8
BLACK
6
CONTINUOUS
10
0.442557
20
1.06468
11
0.442908
21
1.06269
0
LINE
8
BLACK
6
CONTINUOUS
10
0.442908
20
1.06269
11
0.441898
21
1.06094
0
LINE
8
BLACK
6
CONTINUOUS
10
0.441898
20
1.06094
11
0.44
21
1.06025
0
LINE
8
BLACK
6
CONTINUOUS
10
0.44
20
1.06025
11
0.36
21
1.06025
0
LINE
8
BLACK
6
CONTINUOUS
10
0.36
20
1.06025
11
0.35899
21
1.06043
0
LINE
8
BLACK
6
CONTINUOUS
10
0.35899
20
1.06043
11
0.357443
21
1.06173
0
LINE
8
BLACK
6
CONTINUOUS
10
0.357443
20
1.06173
11
0.357092
21
1.06372
0
LINE
8
BLACK
6
CONTINUOUS
10
0.357092
20
1.06372
11
0.358102
21
1.06547
0
LINE
8
BLACK
6
CONTINUOUS
10
0.358102
20
1.06547
11
0.36
21
1.06616
0
LINE
8
BLACK
6
CONTINUOUS
10
0.36
20
1.06616
11
0.44
21
1.06616
0
LINE
8
BLACK
6
CONTINUOUS
10
0.44
20
1.06616
11
0.44101
21
1.06598
0
LINE
8
BLACK
6
CONTINUOUS
10
0.540057
20
1.2419
11
0.540748
21
1.24
0
LINE
8
BLACK
6
CONTINUOUS
10
0.540748
20
1.24
11
0.540748
21
1.16
0
LINE
8
BLACK
6
CONTINUOUS
10
0.540748
20
1.16
11
0.54057
21
1.15899
0
LINE
8
BLACK
6
CONTINUOUS
10
0.54057
20
1.15899
11
0.539272
21
1.15744
0
LINE
8
BLACK
6
CONTINUOUS
10
0.539272
20
1.15744
11
0.537283
21
1.15709
0
LINE
8
BLACK
6
CONTINUOUS
10
0.537283
20
1.15709
11
0.535533
21
1.1581
0
LINE
8
BLACK
6
CONTINUOUS
10
0.535533
20
1.1581
11
0.534843
21
1.16
0
LINE
8
BLACK
6
CONTINUOUS
10
0.534843
20
1.16
11
0.534843
21
1.24
0
LINE
8
BLACK
6
CONTINUOUS
10
0.534843
20
1.24
11
0.535021
21
1.24101
0
LINE
8
BLACK
6
CONTINUOUS
10
0.535021
20
1.24101
11
0.536319
21
1.24256
0
LINE
8
BLACK
6
CONTINUOUS
10
0.536319
20
1.24256
11
0.538308
21
1.24291
0
LINE
8
BLACK
6
CONTINUOUS
10
0.538308
20
1.24291
11
0.540057
21
1.2419
0
LINE
8
BLACK
6
CONTINUOUS
10
0.264467
20
1.2419
11
0.265157
21
1.24
0
LINE
8
BLACK
6
CONTINUOUS
10
0.265157
20
1.24
11
0.265157
21
1.16
0
LINE
8
BLACK
6
CONTINUOUS
10
0.265157
20
1.16
11
0.264979
21
1.15899
0
LINE
8
BLACK
6
CONTINUOUS
10
0.264979
20
1.15899
11
0.263681
21
1.15744
0
LINE
8
BLACK
6
CONTINUOUS
10
0.263681
20
1.15744
11
0.261692
21
1.15709
0
LINE
8
BLACK
6
CONTINUOUS
10
0.261692
20
1.15709
11
0.259943
21
1.1581
0
LINE
8
BLACK
6
CONTINUOUS
10
0.259943
20
1.1581
11
0.259252
21
1.16
0
LINE
8
BLACK
6
CONTINUOUS
10
0.259252
20
1.16
11
0.259252
21
1.24
0
LINE
8
BLACK
6
CONTINUOUS
10
0.259252
20
1.24
11
0.25943
21
1.24101
0
LINE
8
BLACK
6
CONTINUOUS
10
0.25943
20
1.24101
11
0.260728
21
1.24256
0
LINE
8
BLACK
6
CONTINUOUS
10
0.260728
20
1.24256
11
0.262717
21
1.24291
0
LINE
8
BLACK
6
CONTINUOUS
10
0.262717
20
1.24291
11
0.264467
21
1.2419
0
LINE
8
BLACK
6
CONTINUOUS
10
0.44101
20
1.34057
11
0.442557
21
1.33927
0
LINE
8
BLACK
6
CONTINUOUS
10
0.442557
20
1.33927
11
0.442908
21
1.33728
0
LINE
8
BLACK
6
CONTINUOUS
10
0.442908
20
1.33728
11
0.441898
21
1.33553
0
LINE
8
BLACK
6
CONTINUOUS
10
0.441898
20
1.33553
11
0.44
21
1.33484
0
LINE
8
BLACK
6
CONTINUOUS
10
0.44
20
1.33484
11
0.36
21
1.33484
0
LINE
8
BLACK
6
CONTINUOUS
10
0.36
20
1.33484
11
0.35899
21
1.33502
0
LINE
8
BLACK
6
CONTINUOUS
10
0.35899
20
1.33502
11
0.357443
21
1.33632
0
LINE
8
BLACK
6
CONTINUOUS
10
0.357443
20
1.33632
11
0.357092
21
1.33831
0
LINE
8
BLACK
6
CONTINUOUS
10
0.357092
20
1.33831
11
0.358102
21
1.34006
0
LINE
8
BLACK
6
CONTINUOUS
10
0.358102
20
1.34006
11
0.36
21
1.34075
0
LINE
8
BLACK
6
CONTINUOUS
10
0.36
20
1.34075
11
0.44
21
1.34075
0
LINE
8
BLACK
6
CONTINUOUS
10
0.44
20
1.34075
11
0.44101
21
1.34057
  0
ENDSEC
  0
EOF
