<?xml version='1.0' encoding='ASCII' standalone='yes'?>
<svg xmlns:svg="http://www.w3.org/2000/svg" xmlns="http://www.w3.org/2000/svg" xmlns:xlink="http://www.w3.org/1999/xlink" version="1.1" width="297.0022mm" height="210.0072mm" viewBox="0.0000 0.0000 297.0022 210.0072">
<title>SVG Image created as ACOMP01-B_Fab.svg date 2023/09/11 01:11:10 </title>
  <desc>Image generated by PCBNEW </desc>
<g style="fill:#000084; fill-opacity:1.0000;stroke:#000084; stroke-opacity:1.0000; stroke-linecap:round; stroke-linejoin:round;" transform="translate(0 0) scale(1 1)">
</g>
<g style="fill:#000084; fill-opacity:0.0;  stroke:#000084; stroke-width:0.0000; stroke-opacity:1;  stroke-linecap:round; stroke-linejoin:round;">
</g>
<g style="fill:#000084; fill-opacity:0.0;  stroke:#000084; stroke-width:0.7847; stroke-opacity:1;  stroke-linecap:round; stroke-linejoin:round;">
<g transform="rotate(-90.000000 111.8103 110.3184)">
<text x="111.8103" y="112.9339" transform="scale(-1 1) translate(-223.620659 0)" textLength="20.4884" font-size="6.9748" lengthAdjust="spacingAndGlyphs" text-anchor="middle" opacity="0.01" style="font-family:monospace">10uF</text>
</g>
<g class="stroked-text"><desc>10uF</desc>
<path d="M109.4311 104.7136 L109.4311 101.7245 "/>
<path d="M109.4311 103.2191 L114.6622 103.2191 "/>
<path d="M114.6622 103.2191 L113.9149 102.7209 "/>
<path d="M113.9149 102.7209 L113.4167 102.2227 "/>
<path d="M113.4167 102.2227 L113.1676 101.7245 "/>
<path d="M114.6622 107.9519 L114.6622 108.4501 "/>
<path d="M114.6622 108.4501 L114.4131 108.9483 "/>
<path d="M114.4131 108.9483 L114.1640 109.1974 "/>
<path d="M114.1640 109.1974 L113.6658 109.4465 "/>
<path d="M113.6658 109.4465 L112.6694 109.6956 "/>
<path d="M112.6694 109.6956 L111.4239 109.6956 "/>
<path d="M111.4239 109.6956 L110.4275 109.4465 "/>
<path d="M110.4275 109.4465 L109.9293 109.1974 "/>
<path d="M109.9293 109.1974 L109.6802 108.9483 "/>
<path d="M109.6802 108.9483 L109.4311 108.4501 "/>
<path d="M109.4311 108.4501 L109.4311 107.9519 "/>
<path d="M109.4311 107.9519 L109.6802 107.4537 "/>
<path d="M109.6802 107.4537 L109.9293 107.2046 "/>
<path d="M109.9293 107.2046 L110.4275 106.9555 "/>
<path d="M110.4275 106.9555 L111.4239 106.7064 "/>
<path d="M111.4239 106.7064 L112.6694 106.7064 "/>
<path d="M112.6694 106.7064 L113.6658 106.9555 "/>
<path d="M113.6658 106.9555 L114.1640 107.2046 "/>
<path d="M114.1640 107.2046 L114.4131 107.4537 "/>
<path d="M114.4131 107.4537 L114.6622 107.9519 "/>
<path d="M112.9185 114.1794 L109.4311 114.1794 "/>
<path d="M112.9185 111.9375 L110.1784 111.9375 "/>
<path d="M110.1784 111.9375 L109.6802 112.1866 "/>
<path d="M109.6802 112.1866 L109.4311 112.6848 "/>
<path d="M109.4311 112.6848 L109.4311 113.4321 "/>
<path d="M109.4311 113.4321 L109.6802 113.9303 "/>
<path d="M109.6802 113.9303 L109.9293 114.1794 "/>
<path d="M112.1712 118.4141 L112.1712 116.6704 "/>
<path d="M109.4311 116.6704 L114.6622 116.6704 "/>
<path d="M114.6622 116.6704 L114.6622 119.1614 "/>
</g></g>
<g style="fill:#000084; fill-opacity:0.0;  stroke:#000084; stroke-width:0.4185; stroke-opacity:1;  stroke-linecap:round; stroke-linejoin:round;">
<g transform="rotate(-90.000000 120.5985 110.3184)">
<text x="120.5985" y="111.6261" transform="scale(-1 1) translate(-241.197076 0)" textLength="5.8389" font-size="3.4874" lengthAdjust="spacingAndGlyphs" text-anchor="middle" opacity="0.01" style="font-family:monospace">C1</text>
</g>
<g class="stroked-text"><desc>C1</desc>
<path d="M119.6594 109.8824 L119.5349 109.7579 "/>
<path d="M119.5349 109.7579 L119.4103 109.3842 "/>
<path d="M119.4103 109.3842 L119.4103 109.1352 "/>
<path d="M119.4103 109.1352 L119.5349 108.7615 "/>
<path d="M119.5349 108.7615 L119.7840 108.5124 "/>
<path d="M119.7840 108.5124 L120.0331 108.3879 "/>
<path d="M120.0331 108.3879 L120.5313 108.2633 "/>
<path d="M120.5313 108.2633 L120.9049 108.2633 "/>
<path d="M120.9049 108.2633 L121.4031 108.3879 "/>
<path d="M121.4031 108.3879 L121.6522 108.5124 "/>
<path d="M121.6522 108.5124 L121.9013 108.7615 "/>
<path d="M121.9013 108.7615 L122.0258 109.1352 "/>
<path d="M122.0258 109.1352 L122.0258 109.3842 "/>
<path d="M122.0258 109.3842 L121.9013 109.7579 "/>
<path d="M121.9013 109.7579 L121.7767 109.8824 "/>
<path d="M119.4103 112.3734 L119.4103 110.8788 "/>
<path d="M119.4103 111.6261 L122.0258 111.6261 "/>
<path d="M122.0258 111.6261 L121.6522 111.3770 "/>
<path d="M121.6522 111.3770 L121.4031 111.1279 "/>
<path d="M121.4031 111.1279 L121.2785 110.8788 "/>
</g></g>
<g style="fill:#000084; fill-opacity:0.01;  stroke:#000084; stroke-width:0.7847; stroke-opacity:1;  stroke-linecap:round; stroke-linejoin:round;">
<g transform="rotate(-90.000000 153.5020 105.0036)">
<text x="153.5020" y="107.6191" transform="scale(-1 1) translate(-307.004020 0)" textLength="54.6149" font-size="6.9748" lengthAdjust="spacingAndGlyphs" text-anchor="middle" opacity="0.01" style="font-family:monospace">BZV55C-5,6V</text>
</g>
<g class="stroked-text"><desc>BZV55C-5,6V</desc>
<path d="M153.8629 81.3392 L153.6138 82.0865 "/>
<path d="M153.6138 82.0865 L153.3647 82.3356 "/>
<path d="M153.3647 82.3356 L152.8665 82.5847 "/>
<path d="M152.8665 82.5847 L152.1192 82.5847 "/>
<path d="M152.1192 82.5847 L151.6210 82.3356 "/>
<path d="M151.6210 82.3356 L151.3719 82.0865 "/>
<path d="M151.3719 82.0865 L151.1228 81.5883 "/>
<path d="M151.1228 81.5883 L151.1228 79.5955 "/>
<path d="M151.1228 79.5955 L156.3539 79.5955 "/>
<path d="M156.3539 79.5955 L156.3539 81.3392 "/>
<path d="M156.3539 81.3392 L156.1048 81.8374 "/>
<path d="M156.1048 81.8374 L155.8557 82.0865 "/>
<path d="M155.8557 82.0865 L155.3575 82.3356 "/>
<path d="M155.3575 82.3356 L154.8593 82.3356 "/>
<path d="M154.8593 82.3356 L154.3611 82.0865 "/>
<path d="M154.3611 82.0865 L154.1120 81.8374 "/>
<path d="M154.1120 81.8374 L153.8629 81.3392 "/>
<path d="M153.8629 81.3392 L153.8629 79.5955 "/>
<path d="M156.3539 84.3284 L156.3539 87.8158 "/>
<path d="M156.3539 87.8158 L151.1228 84.3284 "/>
<path d="M151.1228 84.3284 L151.1228 87.8158 "/>
<path d="M156.3539 89.0613 L151.1228 90.8050 "/>
<path d="M151.1228 90.8050 L156.3539 92.5487 "/>
<path d="M156.3539 96.7833 L156.3539 94.2923 "/>
<path d="M156.3539 94.2923 L153.8629 94.0432 "/>
<path d="M153.8629 94.0432 L154.1120 94.2923 "/>
<path d="M154.1120 94.2923 L154.3611 94.7905 "/>
<path d="M154.3611 94.7905 L154.3611 96.0360 "/>
<path d="M154.3611 96.0360 L154.1120 96.5342 "/>
<path d="M154.1120 96.5342 L153.8629 96.7833 "/>
<path d="M153.8629 96.7833 L153.3647 97.0324 "/>
<path d="M153.3647 97.0324 L152.1192 97.0324 "/>
<path d="M152.1192 97.0324 L151.6210 96.7833 "/>
<path d="M151.6210 96.7833 L151.3719 96.5342 "/>
<path d="M151.3719 96.5342 L151.1228 96.0360 "/>
<path d="M151.1228 96.0360 L151.1228 94.7905 "/>
<path d="M151.1228 94.7905 L151.3719 94.2923 "/>
<path d="M151.3719 94.2923 L151.6210 94.0432 "/>
<path d="M156.3539 101.7653 L156.3539 99.2743 "/>
<path d="M156.3539 99.2743 L153.8629 99.0252 "/>
<path d="M153.8629 99.0252 L154.1120 99.2743 "/>
<path d="M154.1120 99.2743 L154.3611 99.7725 "/>
<path d="M154.3611 99.7725 L154.3611 101.0180 "/>
<path d="M154.3611 101.0180 L154.1120 101.5162 "/>
<path d="M154.1120 101.5162 L153.8629 101.7653 "/>
<path d="M153.8629 101.7653 L153.3647 102.0144 "/>
<path d="M153.3647 102.0144 L152.1192 102.0144 "/>
<path d="M152.1192 102.0144 L151.6210 101.7653 "/>
<path d="M151.6210 101.7653 L151.3719 101.5162 "/>
<path d="M151.3719 101.5162 L151.1228 101.0180 "/>
<path d="M151.1228 101.0180 L151.1228 99.7725 "/>
<path d="M151.1228 99.7725 L151.3719 99.2743 "/>
<path d="M151.3719 99.2743 L151.6210 99.0252 "/>
<path d="M151.6210 107.2455 L151.3719 106.9964 "/>
<path d="M151.3719 106.9964 L151.1228 106.2491 "/>
<path d="M151.1228 106.2491 L151.1228 105.7509 "/>
<path d="M151.1228 105.7509 L151.3719 105.0036 "/>
<path d="M151.3719 105.0036 L151.8701 104.5054 "/>
<path d="M151.8701 104.5054 L152.3683 104.2563 "/>
<path d="M152.3683 104.2563 L153.3647 104.0072 "/>
<path d="M153.3647 104.0072 L154.1120 104.0072 "/>
<path d="M154.1120 104.0072 L155.1084 104.2563 "/>
<path d="M155.1084 104.2563 L155.6066 104.5054 "/>
<path d="M155.6066 104.5054 L156.1048 105.0036 "/>
<path d="M156.1048 105.0036 L156.3539 105.7509 "/>
<path d="M156.3539 105.7509 L156.3539 106.2491 "/>
<path d="M156.3539 106.2491 L156.1048 106.9964 "/>
<path d="M156.1048 106.9964 L155.8557 107.2455 "/>
<path d="M153.1156 109.4874 L153.1156 113.4730 "/>
<path d="M156.3539 118.4549 L156.3539 115.9639 "/>
<path d="M156.3539 115.9639 L153.8629 115.7149 "/>
<path d="M153.8629 115.7149 L154.1120 115.9639 "/>
<path d="M154.1120 115.9639 L154.3611 116.4621 "/>
<path d="M154.3611 116.4621 L154.3611 117.7076 "/>
<path d="M154.3611 117.7076 L154.1120 118.2058 "/>
<path d="M154.1120 118.2058 L153.8629 118.4549 "/>
<path d="M153.8629 118.4549 L153.3647 118.7040 "/>
<path d="M153.3647 118.7040 L152.1192 118.7040 "/>
<path d="M152.1192 118.7040 L151.6210 118.4549 "/>
<path d="M151.6210 118.4549 L151.3719 118.2058 "/>
<path d="M151.3719 118.2058 L151.1228 117.7076 "/>
<path d="M151.1228 117.7076 L151.1228 116.4621 "/>
<path d="M151.1228 116.4621 L151.3719 115.9639 "/>
<path d="M151.3719 115.9639 L151.6210 115.7149 "/>
<path d="M151.3719 121.1950 L151.1228 121.1950 "/>
<path d="M151.1228 121.1950 L150.6246 120.9459 "/>
<path d="M150.6246 120.9459 L150.3755 120.6968 "/>
<path d="M156.3539 125.6788 L156.3539 124.6824 "/>
<path d="M156.3539 124.6824 L156.1048 124.1842 "/>
<path d="M156.1048 124.1842 L155.8557 123.9351 "/>
<path d="M155.8557 123.9351 L155.1084 123.4369 "/>
<path d="M155.1084 123.4369 L154.1120 123.1878 "/>
<path d="M154.1120 123.1878 L152.1192 123.1878 "/>
<path d="M152.1192 123.1878 L151.6210 123.4369 "/>
<path d="M151.6210 123.4369 L151.3719 123.6860 "/>
<path d="M151.3719 123.6860 L151.1228 124.1842 "/>
<path d="M151.1228 124.1842 L151.1228 125.1806 "/>
<path d="M151.1228 125.1806 L151.3719 125.6788 "/>
<path d="M151.3719 125.6788 L151.6210 125.9279 "/>
<path d="M151.6210 125.9279 L152.1192 126.1770 "/>
<path d="M152.1192 126.1770 L153.3647 126.1770 "/>
<path d="M153.3647 126.1770 L153.8629 125.9279 "/>
<path d="M153.8629 125.9279 L154.1120 125.6788 "/>
<path d="M154.1120 125.6788 L154.3611 125.1806 "/>
<path d="M154.3611 125.1806 L154.3611 124.1842 "/>
<path d="M154.3611 124.1842 L154.1120 123.6860 "/>
<path d="M154.1120 123.6860 L153.8629 123.4369 "/>
<path d="M153.8629 123.4369 L153.3647 123.1878 "/>
<path d="M156.3539 127.6716 L151.1228 129.4153 "/>
<path d="M151.1228 129.4153 L156.3539 131.1590 "/>
</g><g transform="rotate(-90.000000 180.1805 105.0036)">
<text x="180.1805" y="107.6191" transform="scale(-1 1) translate(-360.361001 0)" textLength="11.5208" font-size="6.9748" lengthAdjust="spacingAndGlyphs" text-anchor="middle" opacity="0.01" style="font-family:monospace">D1</text>
</g>
<g class="stroked-text"><desc>D1</desc>
<path d="M177.8013 101.1426 L183.0324 101.1426 "/>
<path d="M183.0324 101.1426 L183.0324 102.3881 "/>
<path d="M183.0324 102.3881 L182.7833 103.1354 "/>
<path d="M182.7833 103.1354 L182.2851 103.6336 "/>
<path d="M182.2851 103.6336 L181.7869 103.8827 "/>
<path d="M181.7869 103.8827 L180.7905 104.1318 "/>
<path d="M180.7905 104.1318 L180.0432 104.1318 "/>
<path d="M180.0432 104.1318 L179.0468 103.8827 "/>
<path d="M179.0468 103.8827 L178.5486 103.6336 "/>
<path d="M178.5486 103.6336 L178.0504 103.1354 "/>
<path d="M178.0504 103.1354 L177.8013 102.3881 "/>
<path d="M177.8013 102.3881 L177.8013 101.1426 "/>
<path d="M177.8013 109.1137 L177.8013 106.1245 "/>
<path d="M177.8013 107.6191 L183.0324 107.6191 "/>
<path d="M183.0324 107.6191 L182.2851 107.1209 "/>
<path d="M182.2851 107.1209 L181.7869 106.6227 "/>
<path d="M181.7869 106.6227 L181.5378 106.1245 "/>
</g><text x="160.4593" y="88.5048" transform="scale(-1 1) translate(-320.918684 0)" textLength="25.4704" font-size="6.9748" lengthAdjust="spacingAndGlyphs" text-anchor="middle" opacity="0.01" style="font-family:monospace">100nF</text>
<g class="stroked-text"><desc>100nF</desc>
<path d="M152.3636 88.2684 L149.3744 88.2684 "/>
<path d="M150.8690 88.2684 L150.8690 83.0374 "/>
<path d="M150.8690 83.0374 L150.3708 83.7847 "/>
<path d="M150.3708 83.7847 L149.8726 84.2829 "/>
<path d="M149.8726 84.2829 L149.3744 84.5320 "/>
<path d="M155.6019 83.0374 L156.1001 83.0374 "/>
<path d="M156.1001 83.0374 L156.5983 83.2865 "/>
<path d="M156.5983 83.2865 L156.8474 83.5356 "/>
<path d="M156.8474 83.5356 L157.0965 84.0338 "/>
<path d="M157.0965 84.0338 L157.3456 85.0302 "/>
<path d="M157.3456 85.0302 L157.3456 86.2756 "/>
<path d="M157.3456 86.2756 L157.0965 87.2720 "/>
<path d="M157.0965 87.2720 L156.8474 87.7702 "/>
<path d="M156.8474 87.7702 L156.5983 88.0193 "/>
<path d="M156.5983 88.0193 L156.1001 88.2684 "/>
<path d="M156.1001 88.2684 L155.6019 88.2684 "/>
<path d="M155.6019 88.2684 L155.1037 88.0193 "/>
<path d="M155.1037 88.0193 L154.8546 87.7702 "/>
<path d="M154.8546 87.7702 L154.6055 87.2720 "/>
<path d="M154.6055 87.2720 L154.3564 86.2756 "/>
<path d="M154.3564 86.2756 L154.3564 85.0302 "/>
<path d="M154.3564 85.0302 L154.6055 84.0338 "/>
<path d="M154.6055 84.0338 L154.8546 83.5356 "/>
<path d="M154.8546 83.5356 L155.1037 83.2865 "/>
<path d="M155.1037 83.2865 L155.6019 83.0374 "/>
<path d="M160.5839 83.0374 L161.0821 83.0374 "/>
<path d="M161.0821 83.0374 L161.5803 83.2865 "/>
<path d="M161.5803 83.2865 L161.8294 83.5356 "/>
<path d="M161.8294 83.5356 L162.0785 84.0338 "/>
<path d="M162.0785 84.0338 L162.3276 85.0302 "/>
<path d="M162.3276 85.0302 L162.3276 86.2756 "/>
<path d="M162.3276 86.2756 L162.0785 87.2720 "/>
<path d="M162.0785 87.2720 L161.8294 87.7702 "/>
<path d="M161.8294 87.7702 L161.5803 88.0193 "/>
<path d="M161.5803 88.0193 L161.0821 88.2684 "/>
<path d="M161.0821 88.2684 L160.5839 88.2684 "/>
<path d="M160.5839 88.2684 L160.0857 88.0193 "/>
<path d="M160.0857 88.0193 L159.8366 87.7702 "/>
<path d="M159.8366 87.7702 L159.5875 87.2720 "/>
<path d="M159.5875 87.2720 L159.3384 86.2756 "/>
<path d="M159.3384 86.2756 L159.3384 85.0302 "/>
<path d="M159.3384 85.0302 L159.5875 84.0338 "/>
<path d="M159.5875 84.0338 L159.8366 83.5356 "/>
<path d="M159.8366 83.5356 L160.0857 83.2865 "/>
<path d="M160.0857 83.2865 L160.5839 83.0374 "/>
<path d="M164.5695 84.7811 L164.5695 88.2684 "/>
<path d="M164.5695 85.2792 L164.8186 85.0302 "/>
<path d="M164.8186 85.0302 L165.3168 84.7811 "/>
<path d="M165.3168 84.7811 L166.0641 84.7811 "/>
<path d="M166.0641 84.7811 L166.5623 85.0302 "/>
<path d="M166.5623 85.0302 L166.8114 85.5283 "/>
<path d="M166.8114 85.5283 L166.8114 88.2684 "/>
<path d="M171.0460 85.5283 L169.3024 85.5283 "/>
<path d="M169.3024 88.2684 L169.3024 83.0374 "/>
<path d="M169.3024 83.0374 L171.7933 83.0374 "/>
</g></g>
<g style="fill:#000084; fill-opacity:0.01;  stroke:#000084; stroke-width:0.4185; stroke-opacity:1;  stroke-linecap:round; stroke-linejoin:round;">
<text x="160.4593" y="78.4088" transform="scale(-1 1) translate(-320.918684 0)" textLength="5.8389" font-size="3.4874" lengthAdjust="spacingAndGlyphs" text-anchor="middle" opacity="0.01" style="font-family:monospace">C4</text>
<g class="stroked-text"><desc>C4</desc>
<path d="M160.0234 78.0402 L159.8989 78.1647 "/>
<path d="M159.8989 78.1647 L159.5252 78.2893 "/>
<path d="M159.5252 78.2893 L159.2761 78.2893 "/>
<path d="M159.2761 78.2893 L158.9025 78.1647 "/>
<path d="M158.9025 78.1647 L158.6534 77.9156 "/>
<path d="M158.6534 77.9156 L158.5288 77.6665 "/>
<path d="M158.5288 77.6665 L158.4043 77.1683 "/>
<path d="M158.4043 77.1683 L158.4043 76.7947 "/>
<path d="M158.4043 76.7947 L158.5288 76.2965 "/>
<path d="M158.5288 76.2965 L158.6534 76.0474 "/>
<path d="M158.6534 76.0474 L158.9025 75.7983 "/>
<path d="M158.9025 75.7983 L159.2761 75.6737 "/>
<path d="M159.2761 75.6737 L159.5252 75.6737 "/>
<path d="M159.5252 75.6737 L159.8989 75.7983 "/>
<path d="M159.8989 75.7983 L160.0234 75.9228 "/>
<path d="M162.2653 76.5456 L162.2653 78.2893 "/>
<path d="M161.6426 75.5492 L161.0198 77.4174 "/>
<path d="M161.0198 77.4174 L162.6390 77.4174 "/>
</g></g>
<g style="fill:#000084; fill-opacity:0.01;  stroke:#000084; stroke-width:0.7847; stroke-opacity:1;  stroke-linecap:round; stroke-linejoin:round;">
<text x="149.8298" y="125.4048" transform="scale(-1 1) translate(-299.659588 0)" textLength="25.4704" font-size="6.9748" lengthAdjust="spacingAndGlyphs" text-anchor="middle" opacity="0.01" style="font-family:monospace">100nF</text>
<g class="stroked-text"><desc>100nF</desc>
<path d="M141.7341 125.1685 L138.7449 125.1685 "/>
<path d="M140.2395 125.1685 L140.2395 119.9374 "/>
<path d="M140.2395 119.9374 L139.7413 120.6847 "/>
<path d="M139.7413 120.6847 L139.2431 121.1829 "/>
<path d="M139.2431 121.1829 L138.7449 121.4320 "/>
<path d="M144.9724 119.9374 L145.4706 119.9374 "/>
<path d="M145.4706 119.9374 L145.9688 120.1865 "/>
<path d="M145.9688 120.1865 L146.2179 120.4356 "/>
<path d="M146.2179 120.4356 L146.4670 120.9338 "/>
<path d="M146.4670 120.9338 L146.7161 121.9302 "/>
<path d="M146.7161 121.9302 L146.7161 123.1757 "/>
<path d="M146.7161 123.1757 L146.4670 124.1721 "/>
<path d="M146.4670 124.1721 L146.2179 124.6702 "/>
<path d="M146.2179 124.6702 L145.9688 124.9194 "/>
<path d="M145.9688 124.9194 L145.4706 125.1685 "/>
<path d="M145.4706 125.1685 L144.9724 125.1685 "/>
<path d="M144.9724 125.1685 L144.4742 124.9194 "/>
<path d="M144.4742 124.9194 L144.2251 124.6702 "/>
<path d="M144.2251 124.6702 L143.9760 124.1721 "/>
<path d="M143.9760 124.1721 L143.7269 123.1757 "/>
<path d="M143.7269 123.1757 L143.7269 121.9302 "/>
<path d="M143.7269 121.9302 L143.9760 120.9338 "/>
<path d="M143.9760 120.9338 L144.2251 120.4356 "/>
<path d="M144.2251 120.4356 L144.4742 120.1865 "/>
<path d="M144.4742 120.1865 L144.9724 119.9374 "/>
<path d="M149.9543 119.9374 L150.4525 119.9374 "/>
<path d="M150.4525 119.9374 L150.9507 120.1865 "/>
<path d="M150.9507 120.1865 L151.1998 120.4356 "/>
<path d="M151.1998 120.4356 L151.4489 120.9338 "/>
<path d="M151.4489 120.9338 L151.6980 121.9302 "/>
<path d="M151.6980 121.9302 L151.6980 123.1757 "/>
<path d="M151.6980 123.1757 L151.4489 124.1721 "/>
<path d="M151.4489 124.1721 L151.1998 124.6702 "/>
<path d="M151.1998 124.6702 L150.9507 124.9194 "/>
<path d="M150.9507 124.9194 L150.4525 125.1685 "/>
<path d="M150.4525 125.1685 L149.9543 125.1685 "/>
<path d="M149.9543 125.1685 L149.4561 124.9194 "/>
<path d="M149.4561 124.9194 L149.2071 124.6702 "/>
<path d="M149.2071 124.6702 L148.9580 124.1721 "/>
<path d="M148.9580 124.1721 L148.7089 123.1757 "/>
<path d="M148.7089 123.1757 L148.7089 121.9302 "/>
<path d="M148.7089 121.9302 L148.9580 120.9338 "/>
<path d="M148.9580 120.9338 L149.2071 120.4356 "/>
<path d="M149.2071 120.4356 L149.4561 120.1865 "/>
<path d="M149.4561 120.1865 L149.9543 119.9374 "/>
<path d="M153.9399 121.6811 L153.9399 125.1685 "/>
<path d="M153.9399 122.1793 L154.1890 121.9302 "/>
<path d="M154.1890 121.9302 L154.6872 121.6811 "/>
<path d="M154.6872 121.6811 L155.4345 121.6811 "/>
<path d="M155.4345 121.6811 L155.9327 121.9302 "/>
<path d="M155.9327 121.9302 L156.1818 122.4284 "/>
<path d="M156.1818 122.4284 L156.1818 125.1685 "/>
<path d="M160.4165 122.4284 L158.6728 122.4284 "/>
<path d="M158.6728 125.1685 L158.6728 119.9374 "/>
<path d="M158.6728 119.9374 L161.1638 119.9374 "/>
</g></g>
<g style="fill:#000084; fill-opacity:0.01;  stroke:#000084; stroke-width:0.4185; stroke-opacity:1;  stroke-linecap:round; stroke-linejoin:round;">
<text x="149.8298" y="132.8852" transform="scale(-1 1) translate(-299.659588 0)" textLength="5.8389" font-size="3.4874" lengthAdjust="spacingAndGlyphs" text-anchor="middle" opacity="0.01" style="font-family:monospace">C3</text>
<g class="stroked-text"><desc>C3</desc>
<path d="M149.3939 132.5166 L149.2693 132.6412 "/>
<path d="M149.2693 132.6412 L148.8957 132.7657 "/>
<path d="M148.8957 132.7657 L148.6466 132.7657 "/>
<path d="M148.6466 132.7657 L148.2729 132.6412 "/>
<path d="M148.2729 132.6412 L148.0238 132.3921 "/>
<path d="M148.0238 132.3921 L147.8993 132.1430 "/>
<path d="M147.8993 132.1430 L147.7747 131.6448 "/>
<path d="M147.7747 131.6448 L147.7747 131.2711 "/>
<path d="M147.7747 131.2711 L147.8993 130.7729 "/>
<path d="M147.8993 130.7729 L148.0238 130.5238 "/>
<path d="M148.0238 130.5238 L148.2729 130.2747 "/>
<path d="M148.2729 130.2747 L148.6466 130.1502 "/>
<path d="M148.6466 130.1502 L148.8957 130.1502 "/>
<path d="M148.8957 130.1502 L149.2693 130.2747 "/>
<path d="M149.2693 130.2747 L149.3939 130.3993 "/>
<path d="M150.2657 130.1502 L151.8849 130.1502 "/>
<path d="M151.8849 130.1502 L151.0130 131.1466 "/>
<path d="M151.0130 131.1466 L151.3867 131.1466 "/>
<path d="M151.3867 131.1466 L151.6358 131.2711 "/>
<path d="M151.6358 131.2711 L151.7603 131.3957 "/>
<path d="M151.7603 131.3957 L151.8849 131.6448 "/>
<path d="M151.8849 131.6448 L151.8849 132.2675 "/>
<path d="M151.8849 132.2675 L151.7603 132.5166 "/>
<path d="M151.7603 132.5166 L151.6358 132.6412 "/>
<path d="M151.6358 132.6412 L151.3867 132.7657 "/>
<path d="M151.3867 132.7657 L150.6394 132.7657 "/>
<path d="M150.6394 132.7657 L150.3903 132.6412 "/>
<path d="M150.3903 132.6412 L150.2657 132.5166 "/>
</g></g>
<g style="fill:#000084; fill-opacity:0.0;  stroke:#000084; stroke-width:0.7847; stroke-opacity:1;  stroke-linecap:round; stroke-linejoin:round;">
<g transform="rotate(-90.000000 123.7822 78.4297)">
<text x="123.7822" y="81.0453" transform="scale(-1 1) translate(-247.564343 0)" textLength="16.5028" font-size="6.9748" lengthAdjust="spacingAndGlyphs" text-anchor="middle" opacity="0.01" style="font-family:monospace">DNF</text>
</g>
<g class="stroked-text"><desc>DNF</desc>
<path d="M121.4030 72.0777 L126.6341 72.0777 "/>
<path d="M126.6341 72.0777 L126.6341 73.3232 "/>
<path d="M126.6341 73.3232 L126.3850 74.0705 "/>
<path d="M126.3850 74.0705 L125.8868 74.5687 "/>
<path d="M125.8868 74.5687 L125.3886 74.8178 "/>
<path d="M125.3886 74.8178 L124.3922 75.0669 "/>
<path d="M124.3922 75.0669 L123.6449 75.0669 "/>
<path d="M123.6449 75.0669 L122.6485 74.8178 "/>
<path d="M122.6485 74.8178 L122.1503 74.5687 "/>
<path d="M122.1503 74.5687 L121.6521 74.0705 "/>
<path d="M121.6521 74.0705 L121.4030 73.3232 "/>
<path d="M121.4030 73.3232 L121.4030 72.0777 "/>
<path d="M121.4030 77.3088 L126.6341 77.3088 "/>
<path d="M126.6341 77.3088 L121.4030 80.2980 "/>
<path d="M121.4030 80.2980 L126.6341 80.2980 "/>
<path d="M124.1431 84.5326 L124.1431 82.7890 "/>
<path d="M121.4030 82.7890 L126.6341 82.7890 "/>
<path d="M126.6341 82.7890 L126.6341 85.2799 "/>
</g></g>
<g style="fill:#000084; fill-opacity:0.0;  stroke:#000084; stroke-width:0.4185; stroke-opacity:1;  stroke-linecap:round; stroke-linejoin:round;">
<g transform="rotate(-90.000000 115.1509 78.4297)">
<text x="115.1509" y="79.7375" transform="scale(-1 1) translate(-230.301790 0)" textLength="5.8389" font-size="3.4874" lengthAdjust="spacingAndGlyphs" text-anchor="middle" opacity="0.01" style="font-family:monospace">R2</text>
</g>
<g class="stroked-text"><desc>R2</desc>
<path d="M113.9627 77.9938 L115.2082 77.1220 "/>
<path d="M113.9627 76.4992 L116.5782 76.4992 "/>
<path d="M116.5782 76.4992 L116.5782 77.4956 "/>
<path d="M116.5782 77.4956 L116.4536 77.7447 "/>
<path d="M116.4536 77.7447 L116.3291 77.8693 "/>
<path d="M116.3291 77.8693 L116.0800 77.9938 "/>
<path d="M116.0800 77.9938 L115.7064 77.9938 "/>
<path d="M115.7064 77.9938 L115.4573 77.8693 "/>
<path d="M115.4573 77.8693 L115.3327 77.7447 "/>
<path d="M115.3327 77.7447 L115.2082 77.4956 "/>
<path d="M115.2082 77.4956 L115.2082 76.4992 "/>
<path d="M116.3291 78.9902 L116.4536 79.1147 "/>
<path d="M116.4536 79.1147 L116.5782 79.3638 "/>
<path d="M116.5782 79.3638 L116.5782 79.9866 "/>
<path d="M116.5782 79.9866 L116.4536 80.2357 "/>
<path d="M116.4536 80.2357 L116.3291 80.3602 "/>
<path d="M116.3291 80.3602 L116.0800 80.4848 "/>
<path d="M116.0800 80.4848 L115.8309 80.4848 "/>
<path d="M115.8309 80.4848 L115.4573 80.3602 "/>
<path d="M115.4573 80.3602 L113.9627 78.8657 "/>
<path d="M113.9627 78.8657 L113.9627 80.4848 "/>
</g></g>
<g style="fill:#000084; fill-opacity:0.01;  stroke:#000084; stroke-width:0.7847; stroke-opacity:1;  stroke-linecap:round; stroke-linejoin:round;">
<text x="141.8576" y="70.9284" transform="scale(-1 1) translate(-283.715267 0)" textLength="15.5064" font-size="6.9748" lengthAdjust="spacingAndGlyphs" text-anchor="middle" opacity="0.01" style="font-family:monospace">1uF</text>
<g class="stroked-text"><desc>1uF</desc>
<path d="M138.7439 70.6920 L135.7547 70.6920 "/>
<path d="M137.2493 70.6920 L137.2493 65.4609 "/>
<path d="M137.2493 65.4609 L136.7511 66.2082 "/>
<path d="M136.7511 66.2082 L136.2529 66.7064 "/>
<path d="M136.2529 66.7064 L135.7547 66.9555 "/>
<path d="M143.2277 67.2046 L143.2277 70.6920 "/>
<path d="M140.9858 67.2046 L140.9858 69.9447 "/>
<path d="M140.9858 69.9447 L141.2349 70.4429 "/>
<path d="M141.2349 70.4429 L141.7331 70.6920 "/>
<path d="M141.7331 70.6920 L142.4804 70.6920 "/>
<path d="M142.4804 70.6920 L142.9786 70.4429 "/>
<path d="M142.9786 70.4429 L143.2277 70.1938 "/>
<path d="M147.4624 67.9519 L145.7187 67.9519 "/>
<path d="M145.7187 70.6920 L145.7187 65.4609 "/>
<path d="M145.7187 65.4609 L148.2097 65.4609 "/>
</g></g>
<g style="fill:#000084; fill-opacity:0.01;  stroke:#000084; stroke-width:0.4185; stroke-opacity:1;  stroke-linecap:round; stroke-linejoin:round;">
<text x="141.8576" y="78.4088" transform="scale(-1 1) translate(-283.715267 0)" textLength="5.8389" font-size="3.4874" lengthAdjust="spacingAndGlyphs" text-anchor="middle" opacity="0.01" style="font-family:monospace">C2</text>
<g class="stroked-text"><desc>C2</desc>
<path d="M141.4217 78.0402 L141.2972 78.1647 "/>
<path d="M141.2972 78.1647 L140.9235 78.2893 "/>
<path d="M140.9235 78.2893 L140.6744 78.2893 "/>
<path d="M140.6744 78.2893 L140.3008 78.1647 "/>
<path d="M140.3008 78.1647 L140.0517 77.9156 "/>
<path d="M140.0517 77.9156 L139.9271 77.6665 "/>
<path d="M139.9271 77.6665 L139.8026 77.1683 "/>
<path d="M139.8026 77.1683 L139.8026 76.7947 "/>
<path d="M139.8026 76.7947 L139.9271 76.2965 "/>
<path d="M139.9271 76.2965 L140.0517 76.0474 "/>
<path d="M140.0517 76.0474 L140.3008 75.7983 "/>
<path d="M140.3008 75.7983 L140.6744 75.6737 "/>
<path d="M140.6744 75.6737 L140.9235 75.6737 "/>
<path d="M140.9235 75.6737 L141.2972 75.7983 "/>
<path d="M141.2972 75.7983 L141.4217 75.9228 "/>
<path d="M142.4181 75.9228 L142.5427 75.7983 "/>
<path d="M142.5427 75.7983 L142.7918 75.6737 "/>
<path d="M142.7918 75.6737 L143.4145 75.6737 "/>
<path d="M143.4145 75.6737 L143.6636 75.7983 "/>
<path d="M143.6636 75.7983 L143.7882 75.9228 "/>
<path d="M143.7882 75.9228 L143.9127 76.1719 "/>
<path d="M143.9127 76.1719 L143.9127 76.4210 "/>
<path d="M143.9127 76.4210 L143.7882 76.7947 "/>
<path d="M143.7882 76.7947 L142.2936 78.2893 "/>
<path d="M142.2936 78.2893 L143.9127 78.2893 "/>
</g></g>
<g style="fill:#000084; fill-opacity:0.0;  stroke:#000084; stroke-width:0.7847; stroke-opacity:1;  stroke-linecap:round; stroke-linejoin:round;">
<g transform="rotate(-90.000000 164.5396 147.3889)">
<text x="164.5396" y="150.0045" transform="scale(-1 1) translate(-329.079163 0)" textLength="54.8640" font-size="6.9748" lengthAdjust="spacingAndGlyphs" text-anchor="middle" opacity="0.01" style="font-family:monospace">TLV3604DCKR</text>
</g>
<g class="stroked-text"><desc>TLV3604DCKR</desc>
<path d="M167.3915 121.1090 L167.3915 124.0982 "/>
<path d="M162.1604 122.6036 L167.3915 122.6036 "/>
<path d="M162.1604 128.3329 L162.1604 125.8419 "/>
<path d="M162.1604 125.8419 L167.3915 125.8419 "/>
<path d="M167.3915 129.3293 L162.1604 131.0729 "/>
<path d="M162.1604 131.0729 L167.3915 132.8166 "/>
<path d="M167.3915 134.0621 L167.3915 137.3004 "/>
<path d="M167.3915 137.3004 L165.3987 135.5567 "/>
<path d="M165.3987 135.5567 L165.3987 136.3040 "/>
<path d="M165.3987 136.3040 L165.1496 136.8022 "/>
<path d="M165.1496 136.8022 L164.9005 137.0513 "/>
<path d="M164.9005 137.0513 L164.4023 137.3004 "/>
<path d="M164.4023 137.3004 L163.1568 137.3004 "/>
<path d="M163.1568 137.3004 L162.6586 137.0513 "/>
<path d="M162.6586 137.0513 L162.4095 136.8022 "/>
<path d="M162.4095 136.8022 L162.1604 136.3040 "/>
<path d="M162.1604 136.3040 L162.1604 134.8094 "/>
<path d="M162.1604 134.8094 L162.4095 134.3112 "/>
<path d="M162.4095 134.3112 L162.6586 134.0621 "/>
<path d="M167.3915 141.7842 L167.3915 140.7878 "/>
<path d="M167.3915 140.7878 L167.1424 140.2896 "/>
<path d="M167.1424 140.2896 L166.8933 140.0405 "/>
<path d="M166.8933 140.0405 L166.1460 139.5423 "/>
<path d="M166.1460 139.5423 L165.1496 139.2932 "/>
<path d="M165.1496 139.2932 L163.1568 139.2932 "/>
<path d="M163.1568 139.2932 L162.6586 139.5423 "/>
<path d="M162.6586 139.5423 L162.4095 139.7914 "/>
<path d="M162.4095 139.7914 L162.1604 140.2896 "/>
<path d="M162.1604 140.2896 L162.1604 141.2860 "/>
<path d="M162.1604 141.2860 L162.4095 141.7842 "/>
<path d="M162.4095 141.7842 L162.6586 142.0333 "/>
<path d="M162.6586 142.0333 L163.1568 142.2824 "/>
<path d="M163.1568 142.2824 L164.4023 142.2824 "/>
<path d="M164.4023 142.2824 L164.9005 142.0333 "/>
<path d="M164.9005 142.0333 L165.1496 141.7842 "/>
<path d="M165.1496 141.7842 L165.3987 141.2860 "/>
<path d="M165.3987 141.2860 L165.3987 140.2896 "/>
<path d="M165.3987 140.2896 L165.1496 139.7914 "/>
<path d="M165.1496 139.7914 L164.9005 139.5423 "/>
<path d="M164.9005 139.5423 L164.4023 139.2932 "/>
<path d="M167.3915 145.5207 L167.3915 146.0189 "/>
<path d="M167.3915 146.0189 L167.1424 146.5171 "/>
<path d="M167.1424 146.5171 L166.8933 146.7662 "/>
<path d="M166.8933 146.7662 L166.3951 147.0153 "/>
<path d="M166.3951 147.0153 L165.3987 147.2644 "/>
<path d="M165.3987 147.2644 L164.1532 147.2644 "/>
<path d="M164.1532 147.2644 L163.1568 147.0153 "/>
<path d="M163.1568 147.0153 L162.6586 146.7662 "/>
<path d="M162.6586 146.7662 L162.4095 146.5171 "/>
<path d="M162.4095 146.5171 L162.1604 146.0189 "/>
<path d="M162.1604 146.0189 L162.1604 145.5207 "/>
<path d="M162.1604 145.5207 L162.4095 145.0225 "/>
<path d="M162.4095 145.0225 L162.6586 144.7734 "/>
<path d="M162.6586 144.7734 L163.1568 144.5243 "/>
<path d="M163.1568 144.5243 L164.1532 144.2752 "/>
<path d="M164.1532 144.2752 L165.3987 144.2752 "/>
<path d="M165.3987 144.2752 L166.3951 144.5243 "/>
<path d="M166.3951 144.5243 L166.8933 144.7734 "/>
<path d="M166.8933 144.7734 L167.1424 145.0225 "/>
<path d="M167.1424 145.0225 L167.3915 145.5207 "/>
<path d="M165.6478 151.7481 L162.1604 151.7481 "/>
<path d="M167.6406 150.5027 L163.9041 149.2572 "/>
<path d="M163.9041 149.2572 L163.9041 152.4954 "/>
<path d="M162.1604 154.4882 L167.3915 154.4882 "/>
<path d="M167.3915 154.4882 L167.3915 155.7337 "/>
<path d="M167.3915 155.7337 L167.1424 156.4810 "/>
<path d="M167.1424 156.4810 L166.6442 156.9792 "/>
<path d="M166.6442 156.9792 L166.1460 157.2283 "/>
<path d="M166.1460 157.2283 L165.1496 157.4774 "/>
<path d="M165.1496 157.4774 L164.4023 157.4774 "/>
<path d="M164.4023 157.4774 L163.4059 157.2283 "/>
<path d="M163.4059 157.2283 L162.9077 156.9792 "/>
<path d="M162.9077 156.9792 L162.4095 156.4810 "/>
<path d="M162.4095 156.4810 L162.1604 155.7337 "/>
<path d="M162.1604 155.7337 L162.1604 154.4882 "/>
<path d="M162.6586 162.7085 L162.4095 162.4594 "/>
<path d="M162.4095 162.4594 L162.1604 161.7121 "/>
<path d="M162.1604 161.7121 L162.1604 161.2139 "/>
<path d="M162.1604 161.2139 L162.4095 160.4666 "/>
<path d="M162.4095 160.4666 L162.9077 159.9684 "/>
<path d="M162.9077 159.9684 L163.4059 159.7193 "/>
<path d="M163.4059 159.7193 L164.4023 159.4702 "/>
<path d="M164.4023 159.4702 L165.1496 159.4702 "/>
<path d="M165.1496 159.4702 L166.1460 159.7193 "/>
<path d="M166.1460 159.7193 L166.6442 159.9684 "/>
<path d="M166.6442 159.9684 L167.1424 160.4666 "/>
<path d="M167.1424 160.4666 L167.3915 161.2139 "/>
<path d="M167.3915 161.2139 L167.3915 161.7121 "/>
<path d="M167.3915 161.7121 L167.1424 162.4594 "/>
<path d="M167.1424 162.4594 L166.8933 162.7085 "/>
<path d="M162.1604 164.9504 L167.3915 164.9504 "/>
<path d="M162.1604 167.9396 L165.1496 165.6977 "/>
<path d="M167.3915 167.9396 L164.4023 164.9504 "/>
<path d="M162.1604 173.1707 L164.6514 171.4270 "/>
<path d="M162.1604 170.1815 L167.3915 170.1815 "/>
<path d="M167.3915 170.1815 L167.3915 172.1743 "/>
<path d="M167.3915 172.1743 L167.1424 172.6725 "/>
<path d="M167.1424 172.6725 L166.8933 172.9216 "/>
<path d="M166.8933 172.9216 L166.3951 173.1707 "/>
<path d="M166.3951 173.1707 L165.6478 173.1707 "/>
<path d="M165.6478 173.1707 L165.1496 172.9216 "/>
<path d="M165.1496 172.9216 L164.9005 172.6725 "/>
<path d="M164.9005 172.6725 L164.6514 172.1743 "/>
<path d="M164.6514 172.1743 L164.6514 170.1815 "/>
</g></g>
<g style="fill:#000084; fill-opacity:0.01;  stroke:#000084; stroke-width:0.3923; stroke-opacity:1;  stroke-linecap:round; stroke-linejoin:round;">
<text x="153.8159" y="148.6967" transform="scale(-1 1) translate(-307.631749 0)" textLength="7.0059" font-size="3.4874" lengthAdjust="spacingAndGlyphs" text-anchor="middle" opacity="0.01" style="font-family:monospace">IC1</text>
<g class="stroked-text"><desc>IC1</desc>
<path d="M151.2626 148.5785 L151.2626 145.9630 "/>
<path d="M154.0027 148.3294 L153.8782 148.4540 "/>
<path d="M153.8782 148.4540 L153.5045 148.5785 "/>
<path d="M153.5045 148.5785 L153.2554 148.5785 "/>
<path d="M153.2554 148.5785 L152.8818 148.4540 "/>
<path d="M152.8818 148.4540 L152.6327 148.2049 "/>
<path d="M152.6327 148.2049 L152.5081 147.9558 "/>
<path d="M152.5081 147.9558 L152.3836 147.4576 "/>
<path d="M152.3836 147.4576 L152.3836 147.0839 "/>
<path d="M152.3836 147.0839 L152.5081 146.5857 "/>
<path d="M152.5081 146.5857 L152.6327 146.3366 "/>
<path d="M152.6327 146.3366 L152.8818 146.0875 "/>
<path d="M152.8818 146.0875 L153.2554 145.9630 "/>
<path d="M153.2554 145.9630 L153.5045 145.9630 "/>
<path d="M153.5045 145.9630 L153.8782 146.0875 "/>
<path d="M153.8782 146.0875 L154.0027 146.2121 "/>
<path d="M156.4937 148.5785 L154.9991 148.5785 "/>
<path d="M155.7464 148.5785 L155.7464 145.9630 "/>
<path d="M155.7464 145.9630 L155.4973 146.3366 "/>
<path d="M155.4973 146.3366 L155.2482 146.5857 "/>
<path d="M155.2482 146.5857 L154.9991 146.7103 "/>
</g></g>
<g style="fill:#000084; fill-opacity:0.0;  stroke:#000084; stroke-width:0.7847; stroke-opacity:1;  stroke-linecap:round; stroke-linejoin:round;">
<g transform="rotate(-90.000000 123.7822 131.5775)">
<text x="123.7822" y="134.1930" transform="scale(-1 1) translate(-247.564343 0)" textLength="16.5028" font-size="6.9748" lengthAdjust="spacingAndGlyphs" text-anchor="middle" opacity="0.01" style="font-family:monospace">DNF</text>
</g>
<g class="stroked-text"><desc>DNF</desc>
<path d="M121.4030 125.2254 L126.6341 125.2254 "/>
<path d="M126.6341 125.2254 L126.6341 126.4709 "/>
<path d="M126.6341 126.4709 L126.3850 127.2182 "/>
<path d="M126.3850 127.2182 L125.8868 127.7164 "/>
<path d="M125.8868 127.7164 L125.3886 127.9655 "/>
<path d="M125.3886 127.9655 L124.3922 128.2146 "/>
<path d="M124.3922 128.2146 L123.6449 128.2146 "/>
<path d="M123.6449 128.2146 L122.6485 127.9655 "/>
<path d="M122.6485 127.9655 L122.1503 127.7164 "/>
<path d="M122.1503 127.7164 L121.6521 127.2182 "/>
<path d="M121.6521 127.2182 L121.4030 126.4709 "/>
<path d="M121.4030 126.4709 L121.4030 125.2254 "/>
<path d="M121.4030 130.4565 L126.6341 130.4565 "/>
<path d="M126.6341 130.4565 L121.4030 133.4457 "/>
<path d="M121.4030 133.4457 L126.6341 133.4457 "/>
<path d="M124.1431 137.6804 L124.1431 135.9367 "/>
<path d="M121.4030 135.9367 L126.6341 135.9367 "/>
<path d="M126.6341 135.9367 L126.6341 138.4277 "/>
</g></g>
<g style="fill:#000084; fill-opacity:0.0;  stroke:#000084; stroke-width:0.4185; stroke-opacity:1;  stroke-linecap:round; stroke-linejoin:round;">
<g transform="rotate(-90.000000 115.1509 131.5775)">
<text x="115.1509" y="132.8852" transform="scale(-1 1) translate(-230.301790 0)" textLength="5.8389" font-size="3.4874" lengthAdjust="spacingAndGlyphs" text-anchor="middle" opacity="0.01" style="font-family:monospace">R1</text>
</g>
<g class="stroked-text"><desc>R1</desc>
<path d="M113.9627 131.1415 L115.2082 130.2697 "/>
<path d="M113.9627 129.6469 L116.5782 129.6469 "/>
<path d="M116.5782 129.6469 L116.5782 130.6433 "/>
<path d="M116.5782 130.6433 L116.4536 130.8924 "/>
<path d="M116.4536 130.8924 L116.3291 131.0170 "/>
<path d="M116.3291 131.0170 L116.0800 131.1415 "/>
<path d="M116.0800 131.1415 L115.7064 131.1415 "/>
<path d="M115.7064 131.1415 L115.4573 131.0170 "/>
<path d="M115.4573 131.0170 L115.3327 130.8924 "/>
<path d="M115.3327 130.8924 L115.2082 130.6433 "/>
<path d="M115.2082 130.6433 L115.2082 129.6469 "/>
<path d="M113.9627 133.6325 L113.9627 132.1379 "/>
<path d="M113.9627 132.8852 L116.5782 132.8852 "/>
<path d="M116.5782 132.8852 L116.2045 132.6361 "/>
<path d="M116.2045 132.6361 L115.9555 132.3870 "/>
<path d="M115.9555 132.3870 L115.8309 132.1379 "/>
</g></g>
<g style="fill:#000084; fill-opacity:0.0;  stroke:#000084; stroke-width:0.5231; stroke-opacity:1;  stroke-linecap:round; stroke-linejoin:round;">
<path d="M117.3291 115.5494 L117.3291 105.0873 "/>
<path d="M123.8680 105.0873 L123.8680 115.5494 "/>
<path d="M117.3291 105.0873 L123.8680 105.0873 "/>
<path d="M123.8680 115.5494 L117.3291 115.5494 "/>
<path d="M159.2562 92.9721 L174.9494 92.9721 "/>
<path d="M174.9494 117.0351 L159.2562 117.0351 "/>
<path d="M163.1778 107.6253 L171.2829 107.6253 "/>
<path d="M167.0975 101.6063 L171.2829 107.6253 "/>
<path d="M174.9494 117.0351 L174.9494 92.9721 "/>
<path d="M167.0975 107.6253 L167.0975 112.8471 "/>
<path d="M167.0975 101.6063 L163.1778 107.6253 "/>
<path d="M167.0975 101.6063 L167.0975 96.8895 "/>
<path d="M159.2562 117.0351 L159.2562 92.9721 "/>
<path d="M171.2829 101.6063 L162.9121 101.6063 "/>
<path d="M155.2283 73.8316 L165.6904 73.8316 "/>
<path d="M165.6904 80.3705 L155.2283 80.3705 "/>
<path d="M165.6904 73.8316 L165.6904 80.3705 "/>
<path d="M155.2283 80.3705 L155.2283 73.8316 "/>
<path d="M144.5987 134.8469 L144.5987 128.3080 "/>
<path d="M155.0609 134.8469 L144.5987 134.8469 "/>
<path d="M144.5987 128.3080 L155.0609 128.3080 "/>
<path d="M155.0609 128.3080 L155.0609 134.8469 "/>
<path d="M111.8815 73.1987 L118.4203 73.1987 "/>
<path d="M118.4203 73.1987 L118.4203 83.6608 "/>
<path d="M118.4203 83.6608 L111.8815 83.6608 "/>
<path d="M111.8815 83.6608 L111.8815 73.1987 "/>
<path d="M136.6266 80.3705 L136.6266 73.8316 "/>
<path d="M147.0887 73.8316 L147.0887 80.3705 "/>
<path d="M147.0887 80.3705 L136.6266 80.3705 "/>
<path d="M136.6266 73.8316 L147.0887 73.8316 "/>
<path d="M150.6772 150.9199 L159.5701 150.9199 "/>
<path d="M148.0617 143.8579 L159.5701 143.8579 "/>
<path d="M148.0617 148.3044 L150.6772 150.9199 "/>
<path d="M148.0617 143.8579 L148.0617 148.3044 "/>
<path d="M159.5701 143.8579 L159.5701 150.9199 "/>
<path d="M118.4203 136.8085 L111.8815 136.8085 "/>
<path d="M111.8815 136.8085 L111.8815 126.3464 "/>
<path d="M111.8815 126.3464 L118.4203 126.3464 "/>
<path d="M118.4203 126.3464 L118.4203 136.8085 "/>
<g>
</g>
<g>
</g>
<g>
</g>
<g>
</g>
<g>
</g>
<g>
</g>
<g>
</g>
<g>
</g>
<g>
</g>
<g>
</g>
<g>
</g>
<g>
</g>
<g>
</g>
<g>
</g>
<g>
</g>
<g>
</g>
<g>
</g>
<g>
</g>
<g>
</g>
<g>
</g>
<g>
</g>
<g>
</g>
<g>
</g>
</g> 
<svg:g><svg:g><svg:title>SVG Image created as ACOMP01-Edge_Cuts.svg date 2023/09/11 01:11:10 </svg:title>
  <svg:desc>Image generated by PCBNEW </svg:desc>
<svg:g style="fill:#C2C200; fill-opacity:1.0000;stroke:#C2C200; stroke-opacity:1.0000; stroke-linecap:round; stroke-linejoin:round;" transform="translate(0 0) scale(1 1)">
</svg:g>
<svg:g style="fill:#C2C200; fill-opacity:0.0;  stroke:#C2C200; stroke-width:0.0000; stroke-opacity:1;  stroke-linecap:round; stroke-linejoin:round;">
</svg:g>
<svg:g style="fill:#C2C200; fill-opacity:0.0;  stroke:#C2C200; stroke-width:0.0664; stroke-opacity:1;  stroke-linecap:round; stroke-linejoin:round;">
<svg:path d="M226.8940 0.0368 L226.8940 209.9704 "/>
<svg:path d="M70.1082 209.9704 L70.1082 0.0368 "/>
<svg:path d="M70.1082 209.9704 L226.8940 209.9704 "/>
<svg:path d="M226.8940 0.0368 L70.1082 0.0368 "/>
<svg:circle cx="201.6488" cy="184.7252" r="8.7185"/> 
<svg:path d="M214.7265 184.7252 L188.5711 184.7252 "/>
<svg:path d="M201.6488 171.6475 L201.6488 197.8029 "/>
<svg:circle cx="201.6488" cy="184.7252" r="8.7185"/> 
<svg:path d="M214.7265 184.7252 L188.5711 184.7252 "/>
<svg:path d="M201.6488 171.6475 L201.6488 197.8029 "/>
<svg:circle cx="201.6488" cy="184.7252" r="8.7185"/> 
<svg:path d="M214.7265 184.7252 L188.5711 184.7252 "/>
<svg:path d="M201.6488 171.6475 L201.6488 197.8029 "/>
<svg:g>
</svg:g>
<svg:g>
</svg:g>
<svg:g>
</svg:g>
<svg:g>
</svg:g>
<svg:g>
</svg:g>
<svg:g>
</svg:g>
<svg:g>
</svg:g>
<svg:g>
</svg:g>
<svg:g>
</svg:g>
<svg:g>
</svg:g>
<svg:g>
</svg:g>
<svg:g>
</svg:g>
<svg:g>
</svg:g>
<svg:g>
</svg:g>
<svg:g>
</svg:g>
<svg:g>
</svg:g>
<svg:g>
</svg:g>
<svg:g>
</svg:g>
<svg:g>
</svg:g>
<svg:g>
</svg:g>
<svg:g>
</svg:g>
<svg:g>
</svg:g>
<svg:g>
</svg:g>
</svg:g> 
</svg:g></svg:g></svg>
