<?xml version='1.0' encoding='ASCII' standalone='yes'?>
<svg xmlns:svg="http://www.w3.org/2000/svg" xmlns="http://www.w3.org/2000/svg" xmlns:xlink="http://www.w3.org/1999/xlink" version="1.1" width="297.0022mm" height="210.0072mm" viewBox="0.0000 0.0000 297.0022 210.0072">
<title>SVG Image created as ACOMP01-F_Fab.svg date 2023/07/20 11:23:33 </title>
  <desc>Image generated by PCBNEW </desc>
<g style="fill:#848484; fill-opacity:1.0000;stroke:#848484; stroke-opacity:1.0000; stroke-linecap:round; stroke-linejoin:round;" transform="translate(0 0) scale(1 1)">
</g>
<g style="fill:#848484; fill-opacity:0.0;  stroke:#848484; stroke-width:0.0000; stroke-opacity:1;  stroke-linecap:round; stroke-linejoin:round;">
</g>
<g style="fill:#848484; fill-opacity:0.01;  stroke:#848484; stroke-width:0.7847; stroke-opacity:1;  stroke-linecap:round; stroke-linejoin:round;">
<text x="148.5011" y="188.0469" textLength="12.0218" font-size="8.8580" lengthAdjust="spacingAndGlyphs" text-anchor="middle" opacity="0.01" style="font-family:monospace">J2</text>
<g class="stroked-text"><desc>J2</desc>
<path d="M146.2866 181.1143 L146.2866 185.8597 "/>
<path d="M146.2866 185.8597 L145.9703 186.8087 "/>
<path d="M145.9703 186.8087 L145.3375 187.4414 "/>
<path d="M145.3375 187.4414 L144.3885 187.7578 "/>
<path d="M144.3885 187.7578 L143.7558 187.7578 "/>
<path d="M149.1338 181.7470 L149.4502 181.4307 "/>
<path d="M149.4502 181.4307 L150.0829 181.1143 "/>
<path d="M150.0829 181.1143 L151.6647 181.1143 "/>
<path d="M151.6647 181.1143 L152.2974 181.4307 "/>
<path d="M152.2974 181.4307 L152.6137 181.7470 "/>
<path d="M152.6137 181.7470 L152.9301 182.3797 "/>
<path d="M152.9301 182.3797 L152.9301 183.0125 "/>
<path d="M152.9301 183.0125 L152.6137 183.9615 "/>
<path d="M152.6137 183.9615 L148.8175 187.7578 "/>
<path d="M148.8175 187.7578 L152.9301 187.7578 "/>
</g><text x="95.3534" y="81.7515" textLength="12.0218" font-size="8.8580" lengthAdjust="spacingAndGlyphs" text-anchor="middle" opacity="0.01" style="font-family:monospace">J4</text>
<g class="stroked-text"><desc>J4</desc>
<path d="M93.1389 74.8189 L93.1389 79.5642 "/>
<path d="M93.1389 79.5642 L92.8225 80.5133 "/>
<path d="M92.8225 80.5133 L92.1898 81.1460 "/>
<path d="M92.1898 81.1460 L91.2407 81.4623 "/>
<path d="M91.2407 81.4623 L90.6080 81.4623 "/>
<path d="M99.1496 77.0333 L99.1496 81.4623 "/>
<path d="M97.5678 74.5025 L95.9861 79.2478 "/>
<path d="M95.9861 79.2478 L100.0987 79.2478 "/>
</g><text x="148.5011" y="28.6037" textLength="12.0218" font-size="8.8580" lengthAdjust="spacingAndGlyphs" text-anchor="middle" opacity="0.01" style="font-family:monospace">J5</text>
<g class="stroked-text"><desc>J5</desc>
<path d="M146.2866 21.6711 L146.2866 26.4165 "/>
<path d="M146.2866 26.4165 L145.9703 27.3655 "/>
<path d="M145.9703 27.3655 L145.3375 27.9982 "/>
<path d="M145.3375 27.9982 L144.3885 28.3146 "/>
<path d="M144.3885 28.3146 L143.7558 28.3146 "/>
<path d="M152.6137 21.6711 L149.4502 21.6711 "/>
<path d="M149.4502 21.6711 L149.1338 24.8347 "/>
<path d="M149.1338 24.8347 L149.4502 24.5183 "/>
<path d="M149.4502 24.5183 L150.0829 24.2020 "/>
<path d="M150.0829 24.2020 L151.6647 24.2020 "/>
<path d="M151.6647 24.2020 L152.2974 24.5183 "/>
<path d="M152.2974 24.5183 L152.6137 24.8347 "/>
<path d="M152.6137 24.8347 L152.9301 25.4674 "/>
<path d="M152.9301 25.4674 L152.9301 27.0492 "/>
<path d="M152.9301 27.0492 L152.6137 27.6819 "/>
<path d="M152.6137 27.6819 L152.2974 27.9982 "/>
<path d="M152.2974 27.9982 L151.6647 28.3146 "/>
<path d="M151.6647 28.3146 L150.0829 28.3146 "/>
<path d="M150.0829 28.3146 L149.4502 27.9982 "/>
<path d="M149.4502 27.9982 L149.1338 27.6819 "/>
</g><text x="95.3534" y="134.8992" textLength="12.0218" font-size="8.8580" lengthAdjust="spacingAndGlyphs" text-anchor="middle" opacity="0.01" style="font-family:monospace">J3</text>
<g class="stroked-text"><desc>J3</desc>
<path d="M93.1389 127.9666 L93.1389 132.7119 "/>
<path d="M93.1389 132.7119 L92.8225 133.6610 "/>
<path d="M92.8225 133.6610 L92.1898 134.2937 "/>
<path d="M92.1898 134.2937 L91.2407 134.6101 "/>
<path d="M91.2407 134.6101 L90.6080 134.6101 "/>
<path d="M95.6697 127.9666 L99.7823 127.9666 "/>
<path d="M99.7823 127.9666 L97.5678 130.4974 "/>
<path d="M97.5678 130.4974 L98.5169 130.4974 "/>
<path d="M98.5169 130.4974 L99.1496 130.8138 "/>
<path d="M99.1496 130.8138 L99.4660 131.1301 "/>
<path d="M99.4660 131.1301 L99.7823 131.7629 "/>
<path d="M99.7823 131.7629 L99.7823 133.3446 "/>
<path d="M99.7823 133.3446 L99.4660 133.9773 "/>
<path d="M99.4660 133.9773 L99.1496 134.2937 "/>
<path d="M99.1496 134.2937 L98.5169 134.6101 "/>
<path d="M98.5169 134.6101 L96.6188 134.6101 "/>
<path d="M96.6188 134.6101 L95.9861 134.2937 "/>
<path d="M95.9861 134.2937 L95.6697 133.9773 "/>
</g></g>
<g style="fill:#848484; fill-opacity:0.0;  stroke:#848484; stroke-width:1.9930; stroke-opacity:1;  stroke-linecap:round; stroke-linejoin:round;">
<circle cx="95.3534" cy="25.2820" r="15.6919"/> 
<circle cx="201.6488" cy="184.7252" r="15.6919"/> 
</g>
<g style="fill:#848484; fill-opacity:0.0;  stroke:#848484; stroke-width:0.7847; stroke-opacity:1;  stroke-linecap:round; stroke-linejoin:round;">
<path d="M130.1923 166.4164 L130.1923 203.0340 "/>
<path d="M159.1202 200.6800 L164.4559 200.6800 "/>
<path d="M130.1923 195.3443 L137.8820 195.3443 "/>
<path d="M164.4559 168.7704 L159.1202 168.7704 "/>
<path d="M166.8099 203.0340 L166.8099 166.4164 "/>
<path d="M166.8099 166.4164 L130.1923 166.4164 "/>
<path d="M164.4559 200.6800 L164.4559 195.3443 "/>
<path d="M132.5463 168.7704 L132.5463 174.1061 "/>
<path d="M132.5463 200.6800 L132.5463 195.3443 "/>
<path d="M159.1202 195.3443 L166.8099 195.3443 "/>
<path d="M164.4559 168.7704 L164.4559 174.1061 "/>
<path d="M159.1202 203.0340 L159.1202 195.3443 "/>
<path d="M130.1923 203.0340 L166.8099 203.0340 "/>
<path d="M137.8820 200.6800 L132.5463 200.6800 "/>
<path d="M159.1202 174.1061 L166.8099 174.1061 "/>
<path d="M159.1202 166.4164 L159.1202 174.1061 "/>
<path d="M137.8820 168.7704 L132.5463 168.7704 "/>
<path d="M137.8820 195.3443 L137.8820 203.0340 "/>
<path d="M137.8820 174.1061 L130.1923 174.1061 "/>
<path d="M137.8820 166.4164 L137.8820 174.1061 "/>
<circle cx="148.5011" cy="184.7252" r="11.3138"/> 
<path d="M141.8576 124.9340 L141.8576 85.0732 "/>
<path d="M168.4315 85.0732 L168.4315 124.9340 "/>
<path d="M168.4315 124.9340 L141.8576 124.9340 "/>
<path d="M141.8576 85.0732 L168.4315 85.0732 "/>
<path d="M84.7343 94.3845 L79.3986 94.3845 "/>
<path d="M84.7343 60.1210 L84.7343 67.8106 "/>
<path d="M113.6621 96.7385 L113.6621 60.1210 "/>
<path d="M105.9724 96.7385 L105.9724 89.0488 "/>
<path d="M84.7343 89.0488 L84.7343 96.7385 "/>
<path d="M111.3081 62.4749 L111.3081 67.8106 "/>
<path d="M111.3081 62.4749 L105.9724 62.4749 "/>
<path d="M77.0446 96.7385 L113.6621 96.7385 "/>
<path d="M105.9724 94.3845 L111.3081 94.3845 "/>
<path d="M105.9724 60.1210 L105.9724 67.8106 "/>
<path d="M84.7343 67.8106 L77.0446 67.8106 "/>
<path d="M105.9724 89.0488 L113.6621 89.0488 "/>
<path d="M105.9724 67.8106 L113.6621 67.8106 "/>
<path d="M113.6621 60.1210 L77.0446 60.1210 "/>
<path d="M79.3986 94.3845 L79.3986 89.0488 "/>
<path d="M111.3081 94.3845 L111.3081 89.0488 "/>
<path d="M77.0446 60.1210 L77.0446 96.7385 "/>
<path d="M79.3986 62.4749 L79.3986 67.8106 "/>
<path d="M77.0446 89.0488 L84.7343 89.0488 "/>
<path d="M84.7343 62.4749 L79.3986 62.4749 "/>
<circle cx="95.3534" cy="78.4297" r="11.3138"/> 
</g>
<g style="fill:#848484; fill-opacity:0.0;  stroke:#848484; stroke-width:1.9930; stroke-opacity:1;  stroke-linecap:round; stroke-linejoin:round;">
<circle cx="95.3534" cy="184.7252" r="15.6919"/> 
<circle cx="201.6488" cy="25.2820" r="15.6919"/> 
</g>
<g style="fill:#848484; fill-opacity:0.0;  stroke:#848484; stroke-width:0.7847; stroke-opacity:1;  stroke-linecap:round; stroke-linejoin:round;">
<path d="M166.8099 43.5908 L166.8099 6.9732 "/>
<path d="M164.4559 41.2368 L164.4559 35.9011 "/>
<path d="M164.4559 9.3272 L159.1202 9.3272 "/>
<path d="M137.8820 6.9732 L137.8820 14.6629 "/>
<path d="M137.8820 41.2368 L132.5463 41.2368 "/>
<path d="M166.8099 6.9732 L130.1923 6.9732 "/>
<path d="M137.8820 14.6629 L130.1923 14.6629 "/>
<path d="M137.8820 35.9011 L137.8820 43.5908 "/>
<path d="M132.5463 9.3272 L132.5463 14.6629 "/>
<path d="M159.1202 6.9732 L159.1202 14.6629 "/>
<path d="M159.1202 41.2368 L164.4559 41.2368 "/>
<path d="M137.8820 9.3272 L132.5463 9.3272 "/>
<path d="M132.5463 41.2368 L132.5463 35.9011 "/>
<path d="M159.1202 43.5908 L159.1202 35.9011 "/>
<path d="M130.1923 35.9011 L137.8820 35.9011 "/>
<path d="M159.1202 14.6629 L166.8099 14.6629 "/>
<path d="M164.4559 9.3272 L164.4559 14.6629 "/>
<path d="M130.1923 43.5908 L166.8099 43.5908 "/>
<path d="M130.1923 6.9732 L130.1923 43.5908 "/>
<path d="M159.1202 35.9011 L166.8099 35.9011 "/>
<circle cx="148.5011" cy="25.2820" r="11.3138"/> 
<path d="M79.3986 147.5323 L79.3986 142.1966 "/>
<path d="M84.7343 142.1966 L84.7343 149.8862 "/>
<path d="M105.9724 120.9584 L113.6621 120.9584 "/>
<path d="M77.0446 113.2687 L77.0446 149.8862 "/>
<path d="M113.6621 149.8862 L113.6621 113.2687 "/>
<path d="M105.9724 113.2687 L105.9724 120.9584 "/>
<path d="M113.6621 113.2687 L77.0446 113.2687 "/>
<path d="M111.3081 147.5323 L111.3081 142.1966 "/>
<path d="M84.7343 113.2687 L84.7343 120.9584 "/>
<path d="M79.3986 115.6227 L79.3986 120.9584 "/>
<path d="M105.9724 142.1966 L113.6621 142.1966 "/>
<path d="M84.7343 120.9584 L77.0446 120.9584 "/>
<path d="M77.0446 149.8862 L113.6621 149.8862 "/>
<path d="M111.3081 115.6227 L111.3081 120.9584 "/>
<path d="M84.7343 115.6227 L79.3986 115.6227 "/>
<path d="M105.9724 147.5323 L111.3081 147.5323 "/>
<path d="M105.9724 149.8862 L105.9724 142.1966 "/>
<path d="M84.7343 147.5323 L79.3986 147.5323 "/>
<path d="M111.3081 115.6227 L105.9724 115.6227 "/>
<path d="M77.0446 142.1966 L84.7343 142.1966 "/>
<circle cx="95.3534" cy="131.5775" r="11.3138"/> 
<g>
</g>
<g>
</g>
<g>
</g>
<g>
</g>
<g>
</g>
<g>
</g>
<g>
</g>
<g>
</g>
<g>
</g>
<g>
</g>
<g>
</g>
<g>
</g>
<g>
</g>
<g>
</g>
<g>
</g>
<g>
</g>
<g>
</g>
<g>
</g>
<g>
</g>
<g>
</g>
<g>
</g>
<g>
</g>
<g>
</g>
</g> 
<svg:g><svg:g><svg:title>SVG Image created as ACOMP01-Edge_Cuts.svg date 2023/07/20 11:23:33 </svg:title>
  <svg:desc>Image generated by PCBNEW </svg:desc>
<svg:g style="fill:#C2C200; fill-opacity:1.0000;stroke:#C2C200; stroke-opacity:1.0000; stroke-linecap:round; stroke-linejoin:round;" transform="translate(0 0) scale(1 1)">
</svg:g>
<svg:g style="fill:#C2C200; fill-opacity:0.0;  stroke:#C2C200; stroke-width:0.0000; stroke-opacity:1;  stroke-linecap:round; stroke-linejoin:round;">
</svg:g>
<svg:g style="fill:#C2C200; fill-opacity:0.0;  stroke:#C2C200; stroke-width:0.0664; stroke-opacity:1;  stroke-linecap:round; stroke-linejoin:round;">
<svg:path d="M70.1082 0.0368 L70.1082 209.9704 "/>
<svg:path d="M226.8940 209.9704 L226.8940 0.0368 "/>
<svg:path d="M226.8940 209.9704 L70.1082 209.9704 "/>
<svg:path d="M70.1082 0.0368 L226.8940 0.0368 "/>
<svg:circle cx="95.3534" cy="184.7252" r="8.7185"/> 
<svg:path d="M82.2757 184.7252 L108.4311 184.7252 "/>
<svg:path d="M95.3534 171.6475 L95.3534 197.8029 "/>
<svg:circle cx="95.3534" cy="184.7252" r="8.7185"/> 
<svg:path d="M82.2757 184.7252 L108.4311 184.7252 "/>
<svg:path d="M95.3534 171.6475 L95.3534 197.8029 "/>
<svg:circle cx="95.3534" cy="184.7252" r="8.7185"/> 
<svg:path d="M82.2757 184.7252 L108.4311 184.7252 "/>
<svg:path d="M95.3534 171.6475 L95.3534 197.8029 "/>
<svg:g>
</svg:g>
<svg:g>
</svg:g>
<svg:g>
</svg:g>
<svg:g>
</svg:g>
<svg:g>
</svg:g>
<svg:g>
</svg:g>
<svg:g>
</svg:g>
<svg:g>
</svg:g>
<svg:g>
</svg:g>
<svg:g>
</svg:g>
<svg:g>
</svg:g>
<svg:g>
</svg:g>
<svg:g>
</svg:g>
<svg:g>
</svg:g>
<svg:g>
</svg:g>
<svg:g>
</svg:g>
<svg:g>
</svg:g>
<svg:g>
</svg:g>
<svg:g>
</svg:g>
<svg:g>
</svg:g>
<svg:g>
</svg:g>
<svg:g>
</svg:g>
<svg:g>
</svg:g>
</svg:g> 
</svg:g></svg:g></svg>
