<!DOCTYPE svg PUBLIC "-//W3C//DTD SVG 1.1//EN" "http://www.w3.org/Graphics/SVG/1.1/DTD/svg11.dtd">
<svg xmlns="http://www.w3.org/2000/svg" version="1.1" width="39.9847mm" height="50.1447mm" viewBox="1019276.5 714476.5 399847.0 501447.0">
            <title>Picture generated by PcbDraw </title>
            <desc>Picture generated by PcbDraw</desc>
        <defs><clipPath id="cut-off"><path d=" M 1117600.000000 1117600.000000 m-16666.660000 0 a 16666.660000 16666.660000 0 1 0 33333.32 0 a 16666.660000 16666.660000 0 1 0 -33333.32 0  M 1117600.000000 1117600.000000 m-16666.660000 0 a 16666.660000 16666.660000 0 1 0 33333.32 0 a 16666.660000 16666.660000 0 1 0 -33333.32 0  M 1117600.000000 1117600.000000 m-16666.660000 0 a 16666.660000 16666.660000 0 1 0 33333.32 0 a 16666.660000 16666.660000 0 1 0 -33333.32 0  M 1069340.0 1165860.0 L 1369060.0 1165860.0 L 1369060.0 764540.0 L 1069340.0 764540.0 L 1069340.0 1165860.0  M 1092600.0 1117600.0 L 1142600.0 1117600.0 L 1092600.0 1117600.0 L 1142600.0 1117600.0  M 1117600.0 1092600.0 L 1117600.0 1142600.0 L 1117600.0 1092600.0 L 1117600.0 1142600.0 " style="fill-rule: evenodd;"/></clipPath><mask id="pads-mask"><g style="fill:#ffffff; fill-opacity:0.0;  stroke:#ffffff; stroke-width:0.000000; stroke-opacity:1;  stroke-linecap:round; stroke-linejoin:round;">
<g style="fill:#ffffff; fill-opacity:1.0;  stroke:#ffffff; stroke-width:0.010000; stroke-opacity:1;  stroke-linecap:round; stroke-linejoin:round;">
<path style="fill:#ffffff; fill-opacity:1.0;  stroke:#ffffff; stroke-width:0.010000; stroke-opacity:1;  stroke-linecap:round; stroke-linejoin:round;fill-rule:evenodd;" d="M 1341120.000000,1046480.000000 1341120.000000,1061720.000000 1325880.000000,1061720.000000 1325880.000000,1046480.000000 Z"/> 
<path style="fill:#ffffff; fill-opacity:1.0;  stroke:#ffffff; stroke-width:0.010000; stroke-opacity:1;  stroke-linecap:round; stroke-linejoin:round;fill-rule:evenodd;" d="M 1315720.000000,1046480.000000 1315720.000000,1061720.000000 1300480.000000,1061720.000000 1300480.000000,1046480.000000 Z"/> 
<path style="fill:#ffffff; fill-opacity:1.0;  stroke:#ffffff; stroke-width:0.010000; stroke-opacity:1;  stroke-linecap:round; stroke-linejoin:round;fill-rule:evenodd;" d="M 1341120.000000,1021080.000000 1341120.000000,1036320.000000 1325880.000000,1036320.000000 1325880.000000,1021080.000000 Z"/> 
<path style="fill:#ffffff; fill-opacity:1.0;  stroke:#ffffff; stroke-width:0.010000; stroke-opacity:1;  stroke-linecap:round; stroke-linejoin:round;fill-rule:evenodd;" d="M 1315720.000000,1021080.000000 1315720.000000,1036320.000000 1300480.000000,1036320.000000 1300480.000000,1021080.000000 Z"/> 
<path style="fill:#ffffff; fill-opacity:1.0;  stroke:#ffffff; stroke-width:0.010000; stroke-opacity:1;  stroke-linecap:round; stroke-linejoin:round;fill-rule:evenodd;" d="M 1341120.000000,995680.000000 1341120.000000,1010920.000000 1325880.000000,1010920.000000 1325880.000000,995680.000000 Z"/> 
<path style="fill:#ffffff; fill-opacity:1.0;  stroke:#ffffff; stroke-width:0.010000; stroke-opacity:1;  stroke-linecap:round; stroke-linejoin:round;fill-rule:evenodd;" d="M 1315720.000000,995680.000000 1315720.000000,1010920.000000 1300480.000000,1010920.000000 1300480.000000,995680.000000 Z"/> 
<path style="fill:#ffffff; fill-opacity:1.0;  stroke:#ffffff; stroke-width:0.010000; stroke-opacity:1;  stroke-linecap:round; stroke-linejoin:round;fill-rule:evenodd;" d="M 1341120.000000,970280.000000 1341120.000000,985520.000000 1325880.000000,985520.000000 1325880.000000,970280.000000 Z"/> 
<path style="fill:#ffffff; fill-opacity:1.0;  stroke:#ffffff; stroke-width:0.010000; stroke-opacity:1;  stroke-linecap:round; stroke-linejoin:round;fill-rule:evenodd;" d="M 1315720.000000,970280.000000 1315720.000000,985520.000000 1300480.000000,985520.000000 1300480.000000,970280.000000 Z"/> 
</g>
<g style="fill:#ffffff; fill-opacity:1.0;  stroke:#ffffff; stroke-width:0.010000; stroke-opacity:1;  stroke-linecap:round; stroke-linejoin:round;">
<circle cx="1117600.000000" cy="812800.000000" r="30000.000000"/> 
</g>
<g style="fill:#ffffff; fill-opacity:1.0;  stroke:#ffffff; stroke-width:0.010000; stroke-opacity:1;  stroke-linecap:round; stroke-linejoin:round;">
<circle cx="1320800.000000" cy="1117600.000000" r="30000.000000"/> 
</g>
<g style="fill:#ffffff; fill-opacity:1.0;  stroke:#ffffff; stroke-width:0.010000; stroke-opacity:1;  stroke-linecap:round; stroke-linejoin:round;">
<path style="fill:#ffffff; fill-opacity:1.0;  stroke:#ffffff; stroke-width:0.010000; stroke-opacity:1;  stroke-linecap:round; stroke-linejoin:round;fill-rule:evenodd;" d="M 1341120.000000,944880.000000 1341120.000000,960120.000000 1325880.000000,960120.000000 1325880.000000,944880.000000 Z"/> 
<path style="fill:#ffffff; fill-opacity:1.0;  stroke:#ffffff; stroke-width:0.010000; stroke-opacity:1;  stroke-linecap:round; stroke-linejoin:round;fill-rule:evenodd;" d="M 1315720.000000,944880.000000 1315720.000000,960120.000000 1300480.000000,960120.000000 1300480.000000,944880.000000 Z"/> 
<path style="fill:#ffffff; fill-opacity:1.0;  stroke:#ffffff; stroke-width:0.010000; stroke-opacity:1;  stroke-linecap:round; stroke-linejoin:round;fill-rule:evenodd;" d="M 1341120.000000,919480.000000 1341120.000000,934720.000000 1325880.000000,934720.000000 1325880.000000,919480.000000 Z"/> 
<path style="fill:#ffffff; fill-opacity:1.0;  stroke:#ffffff; stroke-width:0.010000; stroke-opacity:1;  stroke-linecap:round; stroke-linejoin:round;fill-rule:evenodd;" d="M 1315720.000000,919480.000000 1315720.000000,934720.000000 1300480.000000,934720.000000 1300480.000000,919480.000000 Z"/> 
<path style="fill:#ffffff; fill-opacity:1.0;  stroke:#ffffff; stroke-width:0.010000; stroke-opacity:1;  stroke-linecap:round; stroke-linejoin:round;fill-rule:evenodd;" d="M 1341120.000000,894080.000000 1341120.000000,909320.000000 1325880.000000,909320.000000 1325880.000000,894080.000000 Z"/> 
<path style="fill:#ffffff; fill-opacity:1.0;  stroke:#ffffff; stroke-width:0.010000; stroke-opacity:1;  stroke-linecap:round; stroke-linejoin:round;fill-rule:evenodd;" d="M 1315720.000000,894080.000000 1315720.000000,909320.000000 1300480.000000,909320.000000 1300480.000000,894080.000000 Z"/> 
<path style="fill:#ffffff; fill-opacity:1.0;  stroke:#ffffff; stroke-width:0.010000; stroke-opacity:1;  stroke-linecap:round; stroke-linejoin:round;fill-rule:evenodd;" d="M 1341120.000000,868680.000000 1341120.000000,883920.000000 1325880.000000,883920.000000 1325880.000000,868680.000000 Z"/> 
<path style="fill:#ffffff; fill-opacity:1.0;  stroke:#ffffff; stroke-width:0.010000; stroke-opacity:1;  stroke-linecap:round; stroke-linejoin:round;fill-rule:evenodd;" d="M 1315720.000000,868680.000000 1315720.000000,883920.000000 1300480.000000,883920.000000 1300480.000000,868680.000000 Z"/> 
</g>
<g style="fill:#ffffff; fill-opacity:1.0;  stroke:#ffffff; stroke-width:0.010000; stroke-opacity:1;  stroke-linecap:round; stroke-linejoin:round;">
<circle cx="1219200.000000" cy="1117600.000000" r="12500.000000"/> 
</g>
<g style="fill:#ffffff; fill-opacity:1.0;  stroke:#ffffff; stroke-width:0.010000; stroke-opacity:1;  stroke-linecap:round; stroke-linejoin:round;">
<circle cx="1193800.000000" cy="1143000.000000" r="13500.000000"/> 
</g>
<g style="fill:#ffffff; fill-opacity:1.0;  stroke:#ffffff; stroke-width:0.010000; stroke-opacity:1;  stroke-linecap:round; stroke-linejoin:round;">
<circle cx="1244600.000000" cy="1143000.000000" r="13500.000000"/> 
</g>
<g style="fill:#ffffff; fill-opacity:1.0;  stroke:#ffffff; stroke-width:0.010000; stroke-opacity:1;  stroke-linecap:round; stroke-linejoin:round;">
<circle cx="1244600.000000" cy="1092200.000000" r="13500.000000"/> 
</g>
<g style="fill:#ffffff; fill-opacity:1.0;  stroke:#ffffff; stroke-width:0.010000; stroke-opacity:1;  stroke-linecap:round; stroke-linejoin:round;">
<circle cx="1193800.000000" cy="1092200.000000" r="13500.000000"/> 
</g>
<g style="fill:#ffffff; fill-opacity:1.0;  stroke:#ffffff; stroke-width:0.010000; stroke-opacity:1;  stroke-linecap:round; stroke-linejoin:round;">
<path style="fill:#ffffff; fill-opacity:1.0;  stroke:#ffffff; stroke-width:0.010000; stroke-opacity:1;  stroke-linecap:round; stroke-linejoin:round;fill-rule:evenodd;" d="M 1211580.000000,947420.000000 1211580.000000,932180.000000 1226820.000000,932180.000000 1226820.000000,947420.000000 Z"/> 
<path style="fill:#ffffff; fill-opacity:1.0;  stroke:#ffffff; stroke-width:0.010000; stroke-opacity:1;  stroke-linecap:round; stroke-linejoin:round;fill-rule:evenodd;" d="M 1236980.000000,947420.000000 1236980.000000,932180.000000 1252220.000000,932180.000000 1252220.000000,947420.000000 Z"/> 
<path style="fill:#ffffff; fill-opacity:1.0;  stroke:#ffffff; stroke-width:0.010000; stroke-opacity:1;  stroke-linecap:round; stroke-linejoin:round;fill-rule:evenodd;" d="M 1211580.000000,972820.000000 1211580.000000,957580.000000 1226820.000000,957580.000000 1226820.000000,972820.000000 Z"/> 
<path style="fill:#ffffff; fill-opacity:1.0;  stroke:#ffffff; stroke-width:0.010000; stroke-opacity:1;  stroke-linecap:round; stroke-linejoin:round;fill-rule:evenodd;" d="M 1236980.000000,972820.000000 1236980.000000,957580.000000 1252220.000000,957580.000000 1252220.000000,972820.000000 Z"/> 
<path style="fill:#ffffff; fill-opacity:1.0;  stroke:#ffffff; stroke-width:0.010000; stroke-opacity:1;  stroke-linecap:round; stroke-linejoin:round;fill-rule:evenodd;" d="M 1211580.000000,998220.000000 1211580.000000,982980.000000 1226820.000000,982980.000000 1226820.000000,998220.000000 Z"/> 
<path style="fill:#ffffff; fill-opacity:1.0;  stroke:#ffffff; stroke-width:0.010000; stroke-opacity:1;  stroke-linecap:round; stroke-linejoin:round;fill-rule:evenodd;" d="M 1236980.000000,998220.000000 1236980.000000,982980.000000 1252220.000000,982980.000000 1252220.000000,998220.000000 Z"/> 
</g>
<g style="fill:#ffffff; fill-opacity:1.0;  stroke:#ffffff; stroke-width:0.010000; stroke-opacity:1;  stroke-linecap:round; stroke-linejoin:round;">
<circle cx="1117600.000000" cy="914400.000000" r="12500.000000"/> 
</g>
<g style="fill:#ffffff; fill-opacity:1.0;  stroke:#ffffff; stroke-width:0.010000; stroke-opacity:1;  stroke-linecap:round; stroke-linejoin:round;">
<circle cx="1092200.000000" cy="889000.000000" r="13500.000000"/> 
</g>
<g style="fill:#ffffff; fill-opacity:1.0;  stroke:#ffffff; stroke-width:0.010000; stroke-opacity:1;  stroke-linecap:round; stroke-linejoin:round;">
<circle cx="1143000.000000" cy="889000.000000" r="13500.000000"/> 
</g>
<g style="fill:#ffffff; fill-opacity:1.0;  stroke:#ffffff; stroke-width:0.010000; stroke-opacity:1;  stroke-linecap:round; stroke-linejoin:round;">
<circle cx="1143000.000000" cy="939800.000000" r="13500.000000"/> 
</g>
<g style="fill:#ffffff; fill-opacity:1.0;  stroke:#ffffff; stroke-width:0.010000; stroke-opacity:1;  stroke-linecap:round; stroke-linejoin:round;">
<circle cx="1092200.000000" cy="939800.000000" r="13500.000000"/> 
</g>
<g style="fill:#ffffff; fill-opacity:1.0;  stroke:#ffffff; stroke-width:0.010000; stroke-opacity:1;  stroke-linecap:round; stroke-linejoin:round;">
<circle cx="1117600.000000" cy="1117600.000000" r="30000.000000"/> 
</g>
<g style="fill:#ffffff; fill-opacity:1.0;  stroke:#ffffff; stroke-width:0.010000; stroke-opacity:1;  stroke-linecap:round; stroke-linejoin:round;">
<circle cx="1320800.000000" cy="812800.000000" r="30000.000000"/> 
</g>
<g style="fill:#ffffff; fill-opacity:1.0;  stroke:#ffffff; stroke-width:0.010000; stroke-opacity:1;  stroke-linecap:round; stroke-linejoin:round;">
<circle cx="1219200.000000" cy="812800.000000" r="12500.000000"/> 
</g>
<g style="fill:#ffffff; fill-opacity:1.0;  stroke:#ffffff; stroke-width:0.010000; stroke-opacity:1;  stroke-linecap:round; stroke-linejoin:round;">
<circle cx="1244600.000000" cy="787400.000000" r="13500.000000"/> 
</g>
<g style="fill:#ffffff; fill-opacity:1.0;  stroke:#ffffff; stroke-width:0.010000; stroke-opacity:1;  stroke-linecap:round; stroke-linejoin:round;">
<circle cx="1244600.000000" cy="838200.000000" r="13500.000000"/> 
</g>
<g style="fill:#ffffff; fill-opacity:1.0;  stroke:#ffffff; stroke-width:0.010000; stroke-opacity:1;  stroke-linecap:round; stroke-linejoin:round;">
<circle cx="1193800.000000" cy="787400.000000" r="13500.000000"/> 
</g>
<g style="fill:#ffffff; fill-opacity:1.0;  stroke:#ffffff; stroke-width:0.010000; stroke-opacity:1;  stroke-linecap:round; stroke-linejoin:round;">
<circle cx="1193800.000000" cy="838200.000000" r="13500.000000"/> 
</g>
<g style="fill:#ffffff; fill-opacity:1.0;  stroke:#ffffff; stroke-width:0.010000; stroke-opacity:1;  stroke-linecap:round; stroke-linejoin:round;">
<circle cx="1117600.000000" cy="1016000.000000" r="12500.000000"/> 
</g>
<g style="fill:#ffffff; fill-opacity:1.0;  stroke:#ffffff; stroke-width:0.010000; stroke-opacity:1;  stroke-linecap:round; stroke-linejoin:round;">
<circle cx="1092200.000000" cy="1041400.000000" r="13500.000000"/> 
</g>
<g style="fill:#ffffff; fill-opacity:1.0;  stroke:#ffffff; stroke-width:0.010000; stroke-opacity:1;  stroke-linecap:round; stroke-linejoin:round;">
<circle cx="1092200.000000" cy="990600.000000" r="13500.000000"/> 
</g>
<g style="fill:#ffffff; fill-opacity:1.0;  stroke:#ffffff; stroke-width:0.010000; stroke-opacity:1;  stroke-linecap:round; stroke-linejoin:round;">
<circle cx="1143000.000000" cy="990600.000000" r="13500.000000"/> 
</g>
<g style="fill:#ffffff; fill-opacity:1.0;  stroke:#ffffff; stroke-width:0.010000; stroke-opacity:1;  stroke-linecap:round; stroke-linejoin:round;">
<circle cx="1143000.000000" cy="1041400.000000" r="13500.000000"/> 
</g>
</g> 
</mask><mask id="pads-mask-silkscreen"><rect x="1069276.5" y="764476.5" width="299847.0" height="401447.0" fill="white"/><g style="fill:#000000; fill-opacity:0.0;  stroke:#000000; stroke-width:0.000000; stroke-opacity:1;  stroke-linecap:round; stroke-linejoin:round;">
<g style="fill:#000000; fill-opacity:1.0;  stroke:#000000; stroke-width:0.010000; stroke-opacity:1;  stroke-linecap:round; stroke-linejoin:round;">
<path style="fill:#000000; fill-opacity:1.0;  stroke:#000000; stroke-width:0.010000; stroke-opacity:1;  stroke-linecap:round; stroke-linejoin:round;fill-rule:evenodd;" d="M 1341120.000000,1046480.000000 1341120.000000,1061720.000000 1325880.000000,1061720.000000 1325880.000000,1046480.000000 Z"/> 
<path style="fill:#000000; fill-opacity:1.0;  stroke:#000000; stroke-width:0.010000; stroke-opacity:1;  stroke-linecap:round; stroke-linejoin:round;fill-rule:evenodd;" d="M 1315720.000000,1046480.000000 1315720.000000,1061720.000000 1300480.000000,1061720.000000 1300480.000000,1046480.000000 Z"/> 
<path style="fill:#000000; fill-opacity:1.0;  stroke:#000000; stroke-width:0.010000; stroke-opacity:1;  stroke-linecap:round; stroke-linejoin:round;fill-rule:evenodd;" d="M 1341120.000000,1021080.000000 1341120.000000,1036320.000000 1325880.000000,1036320.000000 1325880.000000,1021080.000000 Z"/> 
<path style="fill:#000000; fill-opacity:1.0;  stroke:#000000; stroke-width:0.010000; stroke-opacity:1;  stroke-linecap:round; stroke-linejoin:round;fill-rule:evenodd;" d="M 1315720.000000,1021080.000000 1315720.000000,1036320.000000 1300480.000000,1036320.000000 1300480.000000,1021080.000000 Z"/> 
<path style="fill:#000000; fill-opacity:1.0;  stroke:#000000; stroke-width:0.010000; stroke-opacity:1;  stroke-linecap:round; stroke-linejoin:round;fill-rule:evenodd;" d="M 1341120.000000,995680.000000 1341120.000000,1010920.000000 1325880.000000,1010920.000000 1325880.000000,995680.000000 Z"/> 
<path style="fill:#000000; fill-opacity:1.0;  stroke:#000000; stroke-width:0.010000; stroke-opacity:1;  stroke-linecap:round; stroke-linejoin:round;fill-rule:evenodd;" d="M 1315720.000000,995680.000000 1315720.000000,1010920.000000 1300480.000000,1010920.000000 1300480.000000,995680.000000 Z"/> 
<path style="fill:#000000; fill-opacity:1.0;  stroke:#000000; stroke-width:0.010000; stroke-opacity:1;  stroke-linecap:round; stroke-linejoin:round;fill-rule:evenodd;" d="M 1341120.000000,970280.000000 1341120.000000,985520.000000 1325880.000000,985520.000000 1325880.000000,970280.000000 Z"/> 
<path style="fill:#000000; fill-opacity:1.0;  stroke:#000000; stroke-width:0.010000; stroke-opacity:1;  stroke-linecap:round; stroke-linejoin:round;fill-rule:evenodd;" d="M 1315720.000000,970280.000000 1315720.000000,985520.000000 1300480.000000,985520.000000 1300480.000000,970280.000000 Z"/> 
</g>
<g style="fill:#000000; fill-opacity:1.0;  stroke:#000000; stroke-width:0.010000; stroke-opacity:1;  stroke-linecap:round; stroke-linejoin:round;">
<circle cx="1117600.000000" cy="812800.000000" r="30000.000000"/> 
</g>
<g style="fill:#000000; fill-opacity:1.0;  stroke:#000000; stroke-width:0.010000; stroke-opacity:1;  stroke-linecap:round; stroke-linejoin:round;">
<circle cx="1320800.000000" cy="1117600.000000" r="30000.000000"/> 
</g>
<g style="fill:#000000; fill-opacity:1.0;  stroke:#000000; stroke-width:0.010000; stroke-opacity:1;  stroke-linecap:round; stroke-linejoin:round;">
<path style="fill:#000000; fill-opacity:1.0;  stroke:#000000; stroke-width:0.010000; stroke-opacity:1;  stroke-linecap:round; stroke-linejoin:round;fill-rule:evenodd;" d="M 1341120.000000,944880.000000 1341120.000000,960120.000000 1325880.000000,960120.000000 1325880.000000,944880.000000 Z"/> 
<path style="fill:#000000; fill-opacity:1.0;  stroke:#000000; stroke-width:0.010000; stroke-opacity:1;  stroke-linecap:round; stroke-linejoin:round;fill-rule:evenodd;" d="M 1315720.000000,944880.000000 1315720.000000,960120.000000 1300480.000000,960120.000000 1300480.000000,944880.000000 Z"/> 
<path style="fill:#000000; fill-opacity:1.0;  stroke:#000000; stroke-width:0.010000; stroke-opacity:1;  stroke-linecap:round; stroke-linejoin:round;fill-rule:evenodd;" d="M 1341120.000000,919480.000000 1341120.000000,934720.000000 1325880.000000,934720.000000 1325880.000000,919480.000000 Z"/> 
<path style="fill:#000000; fill-opacity:1.0;  stroke:#000000; stroke-width:0.010000; stroke-opacity:1;  stroke-linecap:round; stroke-linejoin:round;fill-rule:evenodd;" d="M 1315720.000000,919480.000000 1315720.000000,934720.000000 1300480.000000,934720.000000 1300480.000000,919480.000000 Z"/> 
<path style="fill:#000000; fill-opacity:1.0;  stroke:#000000; stroke-width:0.010000; stroke-opacity:1;  stroke-linecap:round; stroke-linejoin:round;fill-rule:evenodd;" d="M 1341120.000000,894080.000000 1341120.000000,909320.000000 1325880.000000,909320.000000 1325880.000000,894080.000000 Z"/> 
<path style="fill:#000000; fill-opacity:1.0;  stroke:#000000; stroke-width:0.010000; stroke-opacity:1;  stroke-linecap:round; stroke-linejoin:round;fill-rule:evenodd;" d="M 1315720.000000,894080.000000 1315720.000000,909320.000000 1300480.000000,909320.000000 1300480.000000,894080.000000 Z"/> 
<path style="fill:#000000; fill-opacity:1.0;  stroke:#000000; stroke-width:0.010000; stroke-opacity:1;  stroke-linecap:round; stroke-linejoin:round;fill-rule:evenodd;" d="M 1341120.000000,868680.000000 1341120.000000,883920.000000 1325880.000000,883920.000000 1325880.000000,868680.000000 Z"/> 
<path style="fill:#000000; fill-opacity:1.0;  stroke:#000000; stroke-width:0.010000; stroke-opacity:1;  stroke-linecap:round; stroke-linejoin:round;fill-rule:evenodd;" d="M 1315720.000000,868680.000000 1315720.000000,883920.000000 1300480.000000,883920.000000 1300480.000000,868680.000000 Z"/> 
</g>
<g style="fill:#000000; fill-opacity:1.0;  stroke:#000000; stroke-width:0.010000; stroke-opacity:1;  stroke-linecap:round; stroke-linejoin:round;">
<circle cx="1219200.000000" cy="1117600.000000" r="12500.000000"/> 
</g>
<g style="fill:#000000; fill-opacity:1.0;  stroke:#000000; stroke-width:0.010000; stroke-opacity:1;  stroke-linecap:round; stroke-linejoin:round;">
<circle cx="1193800.000000" cy="1143000.000000" r="13500.000000"/> 
</g>
<g style="fill:#000000; fill-opacity:1.0;  stroke:#000000; stroke-width:0.010000; stroke-opacity:1;  stroke-linecap:round; stroke-linejoin:round;">
<circle cx="1244600.000000" cy="1143000.000000" r="13500.000000"/> 
</g>
<g style="fill:#000000; fill-opacity:1.0;  stroke:#000000; stroke-width:0.010000; stroke-opacity:1;  stroke-linecap:round; stroke-linejoin:round;">
<circle cx="1244600.000000" cy="1092200.000000" r="13500.000000"/> 
</g>
<g style="fill:#000000; fill-opacity:1.0;  stroke:#000000; stroke-width:0.010000; stroke-opacity:1;  stroke-linecap:round; stroke-linejoin:round;">
<circle cx="1193800.000000" cy="1092200.000000" r="13500.000000"/> 
</g>
<g style="fill:#000000; fill-opacity:1.0;  stroke:#000000; stroke-width:0.010000; stroke-opacity:1;  stroke-linecap:round; stroke-linejoin:round;">
<path style="fill:#000000; fill-opacity:1.0;  stroke:#000000; stroke-width:0.010000; stroke-opacity:1;  stroke-linecap:round; stroke-linejoin:round;fill-rule:evenodd;" d="M 1211580.000000,947420.000000 1211580.000000,932180.000000 1226820.000000,932180.000000 1226820.000000,947420.000000 Z"/> 
<path style="fill:#000000; fill-opacity:1.0;  stroke:#000000; stroke-width:0.010000; stroke-opacity:1;  stroke-linecap:round; stroke-linejoin:round;fill-rule:evenodd;" d="M 1236980.000000,947420.000000 1236980.000000,932180.000000 1252220.000000,932180.000000 1252220.000000,947420.000000 Z"/> 
<path style="fill:#000000; fill-opacity:1.0;  stroke:#000000; stroke-width:0.010000; stroke-opacity:1;  stroke-linecap:round; stroke-linejoin:round;fill-rule:evenodd;" d="M 1211580.000000,972820.000000 1211580.000000,957580.000000 1226820.000000,957580.000000 1226820.000000,972820.000000 Z"/> 
<path style="fill:#000000; fill-opacity:1.0;  stroke:#000000; stroke-width:0.010000; stroke-opacity:1;  stroke-linecap:round; stroke-linejoin:round;fill-rule:evenodd;" d="M 1236980.000000,972820.000000 1236980.000000,957580.000000 1252220.000000,957580.000000 1252220.000000,972820.000000 Z"/> 
<path style="fill:#000000; fill-opacity:1.0;  stroke:#000000; stroke-width:0.010000; stroke-opacity:1;  stroke-linecap:round; stroke-linejoin:round;fill-rule:evenodd;" d="M 1211580.000000,998220.000000 1211580.000000,982980.000000 1226820.000000,982980.000000 1226820.000000,998220.000000 Z"/> 
<path style="fill:#000000; fill-opacity:1.0;  stroke:#000000; stroke-width:0.010000; stroke-opacity:1;  stroke-linecap:round; stroke-linejoin:round;fill-rule:evenodd;" d="M 1236980.000000,998220.000000 1236980.000000,982980.000000 1252220.000000,982980.000000 1252220.000000,998220.000000 Z"/> 
</g>
<g style="fill:#000000; fill-opacity:1.0;  stroke:#000000; stroke-width:0.010000; stroke-opacity:1;  stroke-linecap:round; stroke-linejoin:round;">
<circle cx="1117600.000000" cy="914400.000000" r="12500.000000"/> 
</g>
<g style="fill:#000000; fill-opacity:1.0;  stroke:#000000; stroke-width:0.010000; stroke-opacity:1;  stroke-linecap:round; stroke-linejoin:round;">
<circle cx="1092200.000000" cy="889000.000000" r="13500.000000"/> 
</g>
<g style="fill:#000000; fill-opacity:1.0;  stroke:#000000; stroke-width:0.010000; stroke-opacity:1;  stroke-linecap:round; stroke-linejoin:round;">
<circle cx="1143000.000000" cy="889000.000000" r="13500.000000"/> 
</g>
<g style="fill:#000000; fill-opacity:1.0;  stroke:#000000; stroke-width:0.010000; stroke-opacity:1;  stroke-linecap:round; stroke-linejoin:round;">
<circle cx="1143000.000000" cy="939800.000000" r="13500.000000"/> 
</g>
<g style="fill:#000000; fill-opacity:1.0;  stroke:#000000; stroke-width:0.010000; stroke-opacity:1;  stroke-linecap:round; stroke-linejoin:round;">
<circle cx="1092200.000000" cy="939800.000000" r="13500.000000"/> 
</g>
<g style="fill:#000000; fill-opacity:1.0;  stroke:#000000; stroke-width:0.010000; stroke-opacity:1;  stroke-linecap:round; stroke-linejoin:round;">
<circle cx="1117600.000000" cy="1117600.000000" r="30000.000000"/> 
</g>
<g style="fill:#000000; fill-opacity:1.0;  stroke:#000000; stroke-width:0.010000; stroke-opacity:1;  stroke-linecap:round; stroke-linejoin:round;">
<circle cx="1320800.000000" cy="812800.000000" r="30000.000000"/> 
</g>
<g style="fill:#000000; fill-opacity:1.0;  stroke:#000000; stroke-width:0.010000; stroke-opacity:1;  stroke-linecap:round; stroke-linejoin:round;">
<circle cx="1219200.000000" cy="812800.000000" r="12500.000000"/> 
</g>
<g style="fill:#000000; fill-opacity:1.0;  stroke:#000000; stroke-width:0.010000; stroke-opacity:1;  stroke-linecap:round; stroke-linejoin:round;">
<circle cx="1244600.000000" cy="787400.000000" r="13500.000000"/> 
</g>
<g style="fill:#000000; fill-opacity:1.0;  stroke:#000000; stroke-width:0.010000; stroke-opacity:1;  stroke-linecap:round; stroke-linejoin:round;">
<circle cx="1244600.000000" cy="838200.000000" r="13500.000000"/> 
</g>
<g style="fill:#000000; fill-opacity:1.0;  stroke:#000000; stroke-width:0.010000; stroke-opacity:1;  stroke-linecap:round; stroke-linejoin:round;">
<circle cx="1193800.000000" cy="787400.000000" r="13500.000000"/> 
</g>
<g style="fill:#000000; fill-opacity:1.0;  stroke:#000000; stroke-width:0.010000; stroke-opacity:1;  stroke-linecap:round; stroke-linejoin:round;">
<circle cx="1193800.000000" cy="838200.000000" r="13500.000000"/> 
</g>
<g style="fill:#000000; fill-opacity:1.0;  stroke:#000000; stroke-width:0.010000; stroke-opacity:1;  stroke-linecap:round; stroke-linejoin:round;">
<circle cx="1117600.000000" cy="1016000.000000" r="12500.000000"/> 
</g>
<g style="fill:#000000; fill-opacity:1.0;  stroke:#000000; stroke-width:0.010000; stroke-opacity:1;  stroke-linecap:round; stroke-linejoin:round;">
<circle cx="1092200.000000" cy="1041400.000000" r="13500.000000"/> 
</g>
<g style="fill:#000000; fill-opacity:1.0;  stroke:#000000; stroke-width:0.010000; stroke-opacity:1;  stroke-linecap:round; stroke-linejoin:round;">
<circle cx="1092200.000000" cy="990600.000000" r="13500.000000"/> 
</g>
<g style="fill:#000000; fill-opacity:1.0;  stroke:#000000; stroke-width:0.010000; stroke-opacity:1;  stroke-linecap:round; stroke-linejoin:round;">
<circle cx="1143000.000000" cy="990600.000000" r="13500.000000"/> 
</g>
<g style="fill:#000000; fill-opacity:1.0;  stroke:#000000; stroke-width:0.010000; stroke-opacity:1;  stroke-linecap:round; stroke-linejoin:round;">
<circle cx="1143000.000000" cy="1041400.000000" r="13500.000000"/> 
</g>
</g> 
</mask><mask id="hole-mask"><g><rect x="1069276.5" y="764476.5" fill="white" width="299847.0" height="401447.0"/><polyline stroke-linecap="round" stroke="black" stroke-width="8890.0" points="-0.0 0 0.0 0" transform="translate(1333500.0 1054100.0) rotate(-180.0)"/><polyline stroke-linecap="round" stroke="black" stroke-width="8890.0" points="-0.0 0 0.0 0" transform="translate(1308100.0 1054100.0) rotate(-180.0)"/><polyline stroke-linecap="round" stroke="black" stroke-width="8890.0" points="-0.0 0 0.0 0" transform="translate(1333500.0 1028700.0) rotate(-180.0)"/><polyline stroke-linecap="round" stroke="black" stroke-width="8890.0" points="-0.0 0 0.0 0" transform="translate(1308100.0 1028700.0) rotate(-180.0)"/><polyline stroke-linecap="round" stroke="black" stroke-width="8890.0" points="-0.0 0 0.0 0" transform="translate(1333500.0 1003300.0) rotate(-180.0)"/><polyline stroke-linecap="round" stroke="black" stroke-width="8890.0" points="-0.0 0 0.0 0" transform="translate(1308100.0 1003300.0) rotate(-180.0)"/><polyline stroke-linecap="round" stroke="black" stroke-width="8890.0" points="-0.0 0 0.0 0" transform="translate(1333500.0 977900.0) rotate(-180.0)"/><polyline stroke-linecap="round" stroke="black" stroke-width="8890.0" points="-0.0 0 0.0 0" transform="translate(1308100.0 977900.0) rotate(-180.0)"/><polyline stroke-linecap="round" stroke="black" stroke-width="30000.0" points="-0.0 0 0.0 0" transform="translate(1117600.0 812800.0) rotate(-0.0)"/><polyline stroke-linecap="round" stroke="black" stroke-width="30000.0" points="-0.0 0 0.0 0" transform="translate(1320800.0 1117600.0) rotate(-0.0)"/><polyline stroke-linecap="round" stroke="black" stroke-width="8890.0" points="-0.0 0 0.0 0" transform="translate(1333500.0 952500.0) rotate(-180.0)"/><polyline stroke-linecap="round" stroke="black" stroke-width="8890.0" points="-0.0 0 0.0 0" transform="translate(1308100.0 952500.0) rotate(-180.0)"/><polyline stroke-linecap="round" stroke="black" stroke-width="8890.0" points="-0.0 0 0.0 0" transform="translate(1333500.0 927100.0) rotate(-180.0)"/><polyline stroke-linecap="round" stroke="black" stroke-width="8890.0" points="-0.0 0 0.0 0" transform="translate(1308100.0 927100.0) rotate(-180.0)"/><polyline stroke-linecap="round" stroke="black" stroke-width="8890.0" points="-0.0 0 0.0 0" transform="translate(1333500.0 901700.0) rotate(-180.0)"/><polyline stroke-linecap="round" stroke="black" stroke-width="8890.0" points="-0.0 0 0.0 0" transform="translate(1308100.0 901700.0) rotate(-180.0)"/><polyline stroke-linecap="round" stroke="black" stroke-width="8890.0" points="-0.0 0 0.0 0" transform="translate(1333500.0 876300.0) rotate(-180.0)"/><polyline stroke-linecap="round" stroke="black" stroke-width="8890.0" points="-0.0 0 0.0 0" transform="translate(1308100.0 876300.0) rotate(-180.0)"/><polyline stroke-linecap="round" stroke="black" stroke-width="15000.0" points="-0.0 0 0.0 0" transform="translate(1219200.0 1117600.0) rotate(-180.0)"/><polyline stroke-linecap="round" stroke="black" stroke-width="17000.0" points="-0.0 0 0.0 0" transform="translate(1193800.0 1143000.0) rotate(-180.0)"/><polyline stroke-linecap="round" stroke="black" stroke-width="17000.0" points="-0.0 0 0.0 0" transform="translate(1244600.0 1143000.0) rotate(-180.0)"/><polyline stroke-linecap="round" stroke="black" stroke-width="17000.0" points="-0.0 0 0.0 0" transform="translate(1244600.0 1092200.0) rotate(-180.0)"/><polyline stroke-linecap="round" stroke="black" stroke-width="17000.0" points="-0.0 0 0.0 0" transform="translate(1193800.0 1092200.0) rotate(-180.0)"/><polyline stroke-linecap="round" stroke="black" stroke-width="8890.0" points="-0.0 0 0.0 0" transform="translate(1219200.0 939800.0) rotate(-0.0)"/><polyline stroke-linecap="round" stroke="black" stroke-width="8890.0" points="-0.0 0 0.0 0" transform="translate(1244600.0 939800.0) rotate(-0.0)"/><polyline stroke-linecap="round" stroke="black" stroke-width="8890.0" points="-0.0 0 0.0 0" transform="translate(1219200.0 965200.0) rotate(-0.0)"/><polyline stroke-linecap="round" stroke="black" stroke-width="8890.0" points="-0.0 0 0.0 0" transform="translate(1244600.0 965200.0) rotate(-0.0)"/><polyline stroke-linecap="round" stroke="black" stroke-width="8890.0" points="-0.0 0 0.0 0" transform="translate(1219200.0 990600.0) rotate(-0.0)"/><polyline stroke-linecap="round" stroke="black" stroke-width="8890.0" points="-0.0 0 0.0 0" transform="translate(1244600.0 990600.0) rotate(-0.0)"/><polyline stroke-linecap="round" stroke="black" stroke-width="15000.0" points="-0.0 0 0.0 0" transform="translate(1117600.0 914400.0) rotate(-180.0)"/><polyline stroke-linecap="round" stroke="black" stroke-width="17000.0" points="-0.0 0 0.0 0" transform="translate(1092200.0 889000.0) rotate(-180.0)"/><polyline stroke-linecap="round" stroke="black" stroke-width="17000.0" points="-0.0 0 0.0 0" transform="translate(1143000.0 889000.0) rotate(-180.0)"/><polyline stroke-linecap="round" stroke="black" stroke-width="17000.0" points="-0.0 0 0.0 0" transform="translate(1143000.0 939800.0) rotate(-180.0)"/><polyline stroke-linecap="round" stroke="black" stroke-width="17000.0" points="-0.0 0 0.0 0" transform="translate(1092200.0 939800.0) rotate(-180.0)"/><polyline stroke-linecap="round" stroke="black" stroke-width="30000.0" points="-0.0 0 0.0 0" transform="translate(1117600.0 1117600.0) rotate(-0.0)"/><polyline stroke-linecap="round" stroke="black" stroke-width="30000.0" points="-0.0 0 0.0 0" transform="translate(1320800.0 812800.0) rotate(-0.0)"/><polyline stroke-linecap="round" stroke="black" stroke-width="15000.0" points="-0.0 0 0.0 0" transform="translate(1219200.0 812800.0) rotate(-180.0)"/><polyline stroke-linecap="round" stroke="black" stroke-width="17000.0" points="-0.0 0 0.0 0" transform="translate(1244600.0 787400.0) rotate(-180.0)"/><polyline stroke-linecap="round" stroke="black" stroke-width="17000.0" points="-0.0 0 0.0 0" transform="translate(1244600.0 838200.0) rotate(-180.0)"/><polyline stroke-linecap="round" stroke="black" stroke-width="17000.0" points="-0.0 0 0.0 0" transform="translate(1193800.0 787400.0) rotate(-180.0)"/><polyline stroke-linecap="round" stroke="black" stroke-width="17000.0" points="-0.0 0 0.0 0" transform="translate(1193800.0 838200.0) rotate(-180.0)"/><polyline stroke-linecap="round" stroke="black" stroke-width="15000.0" points="-0.0 0 0.0 0" transform="translate(1117600.0 1016000.0) rotate(-180.0)"/><polyline stroke-linecap="round" stroke="black" stroke-width="17000.0" points="-0.0 0 0.0 0" transform="translate(1092200.0 1041400.0) rotate(-180.0)"/><polyline stroke-linecap="round" stroke="black" stroke-width="17000.0" points="-0.0 0 0.0 0" transform="translate(1092200.0 990600.0) rotate(-180.0)"/><polyline stroke-linecap="round" stroke="black" stroke-width="17000.0" points="-0.0 0 0.0 0" transform="translate(1143000.0 990600.0) rotate(-180.0)"/><polyline stroke-linecap="round" stroke="black" stroke-width="17000.0" points="-0.0 0 0.0 0" transform="translate(1143000.0 1041400.0) rotate(-180.0)"/></g></mask></defs><g transform="" id="boardContainer"><g id="substrate" clip-path="url(#cut-off)" mask="url(#hole-mask)"><g id="substrate-board" style="fill:#f1f4f3; stroke:#f1f4f3;"><path d=" M 1117600.000000 1117600.000000 m-16666.660000 0 a 16666.660000 16666.660000 0 1 0 33333.32 0 a 16666.660000 16666.660000 0 1 0 -33333.32 0  M 1117600.000000 1117600.000000 m-16666.660000 0 a 16666.660000 16666.660000 0 1 0 33333.32 0 a 16666.660000 16666.660000 0 1 0 -33333.32 0  M 1117600.000000 1117600.000000 m-16666.660000 0 a 16666.660000 16666.660000 0 1 0 33333.32 0 a 16666.660000 16666.660000 0 1 0 -33333.32 0  M 1069340.0 1165860.0 L 1369060.0 1165860.0 L 1369060.0 764540.0 L 1069340.0 764540.0 L 1069340.0 1165860.0  M 1092600.0 1117600.0 L 1142600.0 1117600.0 L 1092600.0 1117600.0 L 1142600.0 1117600.0  M 1117600.0 1092600.0 L 1117600.0 1142600.0 L 1117600.0 1092600.0 L 1117600.0 1142600.0 " style="fill-rule: evenodd;"/><g style="fill-opacity: 0.0;stroke-width: 127.000000;stroke-opacity: 1;stroke-linecap: round;stroke-linejoin: round">
<path d="M1069340 764540 L1069340 1165860 "/>
<path d="M1369060 1165860 L1369060 764540 "/>
<path d="M1369060 1165860 L1069340 1165860 "/>
<path d="M1069340 764540 L1369060 764540 "/>
<circle cx="1117600.000000" cy="1117600.000000" r="16666.660000"/> 
<path d="M1092600 1117600 L1142600 1117600 "/>
<path d="M1117600 1092600 L1117600 1142600 "/>
<circle cx="1117600.000000" cy="1117600.000000" r="16666.660000"/> 
<path d="M1092600 1117600 L1142600 1117600 "/>
<path d="M1117600 1092600 L1117600 1142600 "/>
<circle cx="1117600.000000" cy="1117600.000000" r="16666.660000"/> 
<path d="M1092600 1117600 L1142600 1117600 "/>
<path d="M1117600 1092600 L1117600 1142600 "/>
</g> 
</g><g id="substrate-clad" style="fill:#72786c; stroke:#72786c;"><g style="fill-opacity: 0.0;stroke-width: 0.000000;stroke-opacity: 1;stroke-linecap: round;stroke-linejoin: round">
<g style="fill-opacity: 1.0;stroke-width: 0.010000;stroke-opacity: 1;stroke-linecap: round;stroke-linejoin: round">
<path style="fill-opacity: 1.0;stroke-width: 0.010000;stroke-opacity: 1;stroke-linecap: round;stroke-linejoin: round;fill-rule: evenodd" d="M 1341120.000000,1046480.000000 1341120.000000,1061720.000000 1325880.000000,1061720.000000 1325880.000000,1046480.000000 Z"/> 
<path style="fill-opacity: 1.0;stroke-width: 0.010000;stroke-opacity: 1;stroke-linecap: round;stroke-linejoin: round;fill-rule: evenodd" d="M 1315720.000000,1046480.000000 1315720.000000,1061720.000000 1300480.000000,1061720.000000 1300480.000000,1046480.000000 Z"/> 
<path style="fill-opacity: 1.0;stroke-width: 0.010000;stroke-opacity: 1;stroke-linecap: round;stroke-linejoin: round;fill-rule: evenodd" d="M 1341120.000000,1021080.000000 1341120.000000,1036320.000000 1325880.000000,1036320.000000 1325880.000000,1021080.000000 Z"/> 
<path style="fill-opacity: 1.0;stroke-width: 0.010000;stroke-opacity: 1;stroke-linecap: round;stroke-linejoin: round;fill-rule: evenodd" d="M 1315720.000000,1021080.000000 1315720.000000,1036320.000000 1300480.000000,1036320.000000 1300480.000000,1021080.000000 Z"/> 
<path style="fill-opacity: 1.0;stroke-width: 0.010000;stroke-opacity: 1;stroke-linecap: round;stroke-linejoin: round;fill-rule: evenodd" d="M 1341120.000000,995680.000000 1341120.000000,1010920.000000 1325880.000000,1010920.000000 1325880.000000,995680.000000 Z"/> 
<path style="fill-opacity: 1.0;stroke-width: 0.010000;stroke-opacity: 1;stroke-linecap: round;stroke-linejoin: round;fill-rule: evenodd" d="M 1315720.000000,995680.000000 1315720.000000,1010920.000000 1300480.000000,1010920.000000 1300480.000000,995680.000000 Z"/> 
<path style="fill-opacity: 1.0;stroke-width: 0.010000;stroke-opacity: 1;stroke-linecap: round;stroke-linejoin: round;fill-rule: evenodd" d="M 1341120.000000,970280.000000 1341120.000000,985520.000000 1325880.000000,985520.000000 1325880.000000,970280.000000 Z"/> 
<path style="fill-opacity: 1.0;stroke-width: 0.010000;stroke-opacity: 1;stroke-linecap: round;stroke-linejoin: round;fill-rule: evenodd" d="M 1315720.000000,970280.000000 1315720.000000,985520.000000 1300480.000000,985520.000000 1300480.000000,970280.000000 Z"/> 
</g>
<g style="fill-opacity: 1.0;stroke-width: 0.010000;stroke-opacity: 1;stroke-linecap: round;stroke-linejoin: round">
<circle cx="1117600.000000" cy="812800.000000" r="30000.000000"/> 
</g>
<g style="fill-opacity: 1.0;stroke-width: 0.010000;stroke-opacity: 1;stroke-linecap: round;stroke-linejoin: round">
<circle cx="1320800.000000" cy="1117600.000000" r="30000.000000"/> 
</g>
<g style="fill-opacity: 1.0;stroke-width: 0.010000;stroke-opacity: 1;stroke-linecap: round;stroke-linejoin: round">
<path style="fill-opacity: 1.0;stroke-width: 0.010000;stroke-opacity: 1;stroke-linecap: round;stroke-linejoin: round;fill-rule: evenodd" d="M 1341120.000000,944880.000000 1341120.000000,960120.000000 1325880.000000,960120.000000 1325880.000000,944880.000000 Z"/> 
<path style="fill-opacity: 1.0;stroke-width: 0.010000;stroke-opacity: 1;stroke-linecap: round;stroke-linejoin: round;fill-rule: evenodd" d="M 1315720.000000,944880.000000 1315720.000000,960120.000000 1300480.000000,960120.000000 1300480.000000,944880.000000 Z"/> 
<path style="fill-opacity: 1.0;stroke-width: 0.010000;stroke-opacity: 1;stroke-linecap: round;stroke-linejoin: round;fill-rule: evenodd" d="M 1341120.000000,919480.000000 1341120.000000,934720.000000 1325880.000000,934720.000000 1325880.000000,919480.000000 Z"/> 
<path style="fill-opacity: 1.0;stroke-width: 0.010000;stroke-opacity: 1;stroke-linecap: round;stroke-linejoin: round;fill-rule: evenodd" d="M 1315720.000000,919480.000000 1315720.000000,934720.000000 1300480.000000,934720.000000 1300480.000000,919480.000000 Z"/> 
<path style="fill-opacity: 1.0;stroke-width: 0.010000;stroke-opacity: 1;stroke-linecap: round;stroke-linejoin: round;fill-rule: evenodd" d="M 1341120.000000,894080.000000 1341120.000000,909320.000000 1325880.000000,909320.000000 1325880.000000,894080.000000 Z"/> 
<path style="fill-opacity: 1.0;stroke-width: 0.010000;stroke-opacity: 1;stroke-linecap: round;stroke-linejoin: round;fill-rule: evenodd" d="M 1315720.000000,894080.000000 1315720.000000,909320.000000 1300480.000000,909320.000000 1300480.000000,894080.000000 Z"/> 
<path style="fill-opacity: 1.0;stroke-width: 0.010000;stroke-opacity: 1;stroke-linecap: round;stroke-linejoin: round;fill-rule: evenodd" d="M 1341120.000000,868680.000000 1341120.000000,883920.000000 1325880.000000,883920.000000 1325880.000000,868680.000000 Z"/> 
<path style="fill-opacity: 1.0;stroke-width: 0.010000;stroke-opacity: 1;stroke-linecap: round;stroke-linejoin: round;fill-rule: evenodd" d="M 1315720.000000,868680.000000 1315720.000000,883920.000000 1300480.000000,883920.000000 1300480.000000,868680.000000 Z"/> 
</g>
<g style="fill-opacity: 1.0;stroke-width: 0.010000;stroke-opacity: 1;stroke-linecap: round;stroke-linejoin: round">
<circle cx="1219200.000000" cy="1117600.000000" r="12500.000000"/> 
</g>
<g style="fill-opacity: 1.0;stroke-width: 0.010000;stroke-opacity: 1;stroke-linecap: round;stroke-linejoin: round">
<circle cx="1193800.000000" cy="1143000.000000" r="13500.000000"/> 
</g>
<g style="fill-opacity: 1.0;stroke-width: 0.010000;stroke-opacity: 1;stroke-linecap: round;stroke-linejoin: round">
<circle cx="1244600.000000" cy="1143000.000000" r="13500.000000"/> 
</g>
<g style="fill-opacity: 1.0;stroke-width: 0.010000;stroke-opacity: 1;stroke-linecap: round;stroke-linejoin: round">
<circle cx="1244600.000000" cy="1092200.000000" r="13500.000000"/> 
</g>
<g style="fill-opacity: 1.0;stroke-width: 0.010000;stroke-opacity: 1;stroke-linecap: round;stroke-linejoin: round">
<circle cx="1193800.000000" cy="1092200.000000" r="13500.000000"/> 
</g>
<g style="fill-opacity: 1.0;stroke-width: 0.010000;stroke-opacity: 1;stroke-linecap: round;stroke-linejoin: round">
<path style="fill-opacity: 1.0;stroke-width: 0.010000;stroke-opacity: 1;stroke-linecap: round;stroke-linejoin: round;fill-rule: evenodd" d="M 1211580.000000,947420.000000 1211580.000000,932180.000000 1226820.000000,932180.000000 1226820.000000,947420.000000 Z"/> 
<path style="fill-opacity: 1.0;stroke-width: 0.010000;stroke-opacity: 1;stroke-linecap: round;stroke-linejoin: round;fill-rule: evenodd" d="M 1236980.000000,947420.000000 1236980.000000,932180.000000 1252220.000000,932180.000000 1252220.000000,947420.000000 Z"/> 
<path style="fill-opacity: 1.0;stroke-width: 0.010000;stroke-opacity: 1;stroke-linecap: round;stroke-linejoin: round;fill-rule: evenodd" d="M 1211580.000000,972820.000000 1211580.000000,957580.000000 1226820.000000,957580.000000 1226820.000000,972820.000000 Z"/> 
<path style="fill-opacity: 1.0;stroke-width: 0.010000;stroke-opacity: 1;stroke-linecap: round;stroke-linejoin: round;fill-rule: evenodd" d="M 1236980.000000,972820.000000 1236980.000000,957580.000000 1252220.000000,957580.000000 1252220.000000,972820.000000 Z"/> 
<path style="fill-opacity: 1.0;stroke-width: 0.010000;stroke-opacity: 1;stroke-linecap: round;stroke-linejoin: round;fill-rule: evenodd" d="M 1211580.000000,998220.000000 1211580.000000,982980.000000 1226820.000000,982980.000000 1226820.000000,998220.000000 Z"/> 
<path style="fill-opacity: 1.0;stroke-width: 0.010000;stroke-opacity: 1;stroke-linecap: round;stroke-linejoin: round;fill-rule: evenodd" d="M 1236980.000000,998220.000000 1236980.000000,982980.000000 1252220.000000,982980.000000 1252220.000000,998220.000000 Z"/> 
</g>
<g style="fill-opacity: 1.0;stroke-width: 0.010000;stroke-opacity: 1;stroke-linecap: round;stroke-linejoin: round">
<circle cx="1117600.000000" cy="914400.000000" r="12500.000000"/> 
</g>
<g style="fill-opacity: 1.0;stroke-width: 0.010000;stroke-opacity: 1;stroke-linecap: round;stroke-linejoin: round">
<circle cx="1092200.000000" cy="889000.000000" r="13500.000000"/> 
</g>
<g style="fill-opacity: 1.0;stroke-width: 0.010000;stroke-opacity: 1;stroke-linecap: round;stroke-linejoin: round">
<circle cx="1143000.000000" cy="889000.000000" r="13500.000000"/> 
</g>
<g style="fill-opacity: 1.0;stroke-width: 0.010000;stroke-opacity: 1;stroke-linecap: round;stroke-linejoin: round">
<circle cx="1143000.000000" cy="939800.000000" r="13500.000000"/> 
</g>
<g style="fill-opacity: 1.0;stroke-width: 0.010000;stroke-opacity: 1;stroke-linecap: round;stroke-linejoin: round">
<circle cx="1092200.000000" cy="939800.000000" r="13500.000000"/> 
</g>
<g style="fill-opacity: 1.0;stroke-width: 0.010000;stroke-opacity: 1;stroke-linecap: round;stroke-linejoin: round">
<circle cx="1117600.000000" cy="1117600.000000" r="30000.000000"/> 
</g>
<g style="fill-opacity: 1.0;stroke-width: 0.010000;stroke-opacity: 1;stroke-linecap: round;stroke-linejoin: round">
<circle cx="1320800.000000" cy="812800.000000" r="30000.000000"/> 
</g>
<g style="fill-opacity: 1.0;stroke-width: 0.010000;stroke-opacity: 1;stroke-linecap: round;stroke-linejoin: round">
<circle cx="1219200.000000" cy="812800.000000" r="12500.000000"/> 
</g>
<g style="fill-opacity: 1.0;stroke-width: 0.010000;stroke-opacity: 1;stroke-linecap: round;stroke-linejoin: round">
<circle cx="1244600.000000" cy="787400.000000" r="13500.000000"/> 
</g>
<g style="fill-opacity: 1.0;stroke-width: 0.010000;stroke-opacity: 1;stroke-linecap: round;stroke-linejoin: round">
<circle cx="1244600.000000" cy="838200.000000" r="13500.000000"/> 
</g>
<g style="fill-opacity: 1.0;stroke-width: 0.010000;stroke-opacity: 1;stroke-linecap: round;stroke-linejoin: round">
<circle cx="1193800.000000" cy="787400.000000" r="13500.000000"/> 
</g>
<g style="fill-opacity: 1.0;stroke-width: 0.010000;stroke-opacity: 1;stroke-linecap: round;stroke-linejoin: round">
<circle cx="1193800.000000" cy="838200.000000" r="13500.000000"/> 
</g>
<g style="fill-opacity: 1.0;stroke-width: 0.010000;stroke-opacity: 1;stroke-linecap: round;stroke-linejoin: round">
<circle cx="1117600.000000" cy="1016000.000000" r="12500.000000"/> 
</g>
<g style="fill-opacity: 1.0;stroke-width: 0.010000;stroke-opacity: 1;stroke-linecap: round;stroke-linejoin: round">
<circle cx="1092200.000000" cy="1041400.000000" r="13500.000000"/> 
</g>
<g style="fill-opacity: 1.0;stroke-width: 0.010000;stroke-opacity: 1;stroke-linecap: round;stroke-linejoin: round">
<circle cx="1092200.000000" cy="990600.000000" r="13500.000000"/> 
</g>
<g style="fill-opacity: 1.0;stroke-width: 0.010000;stroke-opacity: 1;stroke-linecap: round;stroke-linejoin: round">
<circle cx="1143000.000000" cy="990600.000000" r="13500.000000"/> 
</g>
<g style="fill-opacity: 1.0;stroke-width: 0.010000;stroke-opacity: 1;stroke-linecap: round;stroke-linejoin: round">
<circle cx="1143000.000000" cy="1041400.000000" r="13500.000000"/> 
</g>
</g> 
</g><g id="substrate-copper" style="fill:#f8f8f7; stroke:#f8f8f7;"><g style="fill-opacity: 0.0;stroke-width: 0.000000;stroke-opacity: 1;stroke-linecap: round;stroke-linejoin: round">
<g style="fill-opacity: 1.0;stroke-width: 0.010000;stroke-opacity: 1;stroke-linecap: round;stroke-linejoin: round">
<path style="fill-opacity: 1.0;stroke-width: 0.010000;stroke-opacity: 1;stroke-linecap: round;stroke-linejoin: round;fill-rule: evenodd" d="M 1341120.000000,1046480.000000 1341120.000000,1061720.000000 1325880.000000,1061720.000000 1325880.000000,1046480.000000 Z"/> 
<path style="fill-opacity: 1.0;stroke-width: 0.010000;stroke-opacity: 1;stroke-linecap: round;stroke-linejoin: round;fill-rule: evenodd" d="M 1315720.000000,1046480.000000 1315720.000000,1061720.000000 1300480.000000,1061720.000000 1300480.000000,1046480.000000 Z"/> 
<path style="fill-opacity: 1.0;stroke-width: 0.010000;stroke-opacity: 1;stroke-linecap: round;stroke-linejoin: round;fill-rule: evenodd" d="M 1341120.000000,1021080.000000 1341120.000000,1036320.000000 1325880.000000,1036320.000000 1325880.000000,1021080.000000 Z"/> 
<path style="fill-opacity: 1.0;stroke-width: 0.010000;stroke-opacity: 1;stroke-linecap: round;stroke-linejoin: round;fill-rule: evenodd" d="M 1315720.000000,1021080.000000 1315720.000000,1036320.000000 1300480.000000,1036320.000000 1300480.000000,1021080.000000 Z"/> 
<path style="fill-opacity: 1.0;stroke-width: 0.010000;stroke-opacity: 1;stroke-linecap: round;stroke-linejoin: round;fill-rule: evenodd" d="M 1341120.000000,995680.000000 1341120.000000,1010920.000000 1325880.000000,1010920.000000 1325880.000000,995680.000000 Z"/> 
<path style="fill-opacity: 1.0;stroke-width: 0.010000;stroke-opacity: 1;stroke-linecap: round;stroke-linejoin: round;fill-rule: evenodd" d="M 1315720.000000,995680.000000 1315720.000000,1010920.000000 1300480.000000,1010920.000000 1300480.000000,995680.000000 Z"/> 
<path style="fill-opacity: 1.0;stroke-width: 0.010000;stroke-opacity: 1;stroke-linecap: round;stroke-linejoin: round;fill-rule: evenodd" d="M 1341120.000000,970280.000000 1341120.000000,985520.000000 1325880.000000,985520.000000 1325880.000000,970280.000000 Z"/> 
<path style="fill-opacity: 1.0;stroke-width: 0.010000;stroke-opacity: 1;stroke-linecap: round;stroke-linejoin: round;fill-rule: evenodd" d="M 1315720.000000,970280.000000 1315720.000000,985520.000000 1300480.000000,985520.000000 1300480.000000,970280.000000 Z"/> 
</g>
<g style="fill-opacity: 1.0;stroke-width: 0.010000;stroke-opacity: 1;stroke-linecap: round;stroke-linejoin: round">
<circle cx="1117600.000000" cy="812800.000000" r="30000.000000"/> 
</g>
<g style="fill-opacity: 1.0;stroke-width: 0.010000;stroke-opacity: 1;stroke-linecap: round;stroke-linejoin: round">
<circle cx="1320800.000000" cy="1117600.000000" r="30000.000000"/> 
</g>
<g style="fill-opacity: 1.0;stroke-width: 0.010000;stroke-opacity: 1;stroke-linecap: round;stroke-linejoin: round">
<path style="fill-opacity: 1.0;stroke-width: 0.010000;stroke-opacity: 1;stroke-linecap: round;stroke-linejoin: round;fill-rule: evenodd" d="M 1341120.000000,944880.000000 1341120.000000,960120.000000 1325880.000000,960120.000000 1325880.000000,944880.000000 Z"/> 
<path style="fill-opacity: 1.0;stroke-width: 0.010000;stroke-opacity: 1;stroke-linecap: round;stroke-linejoin: round;fill-rule: evenodd" d="M 1315720.000000,944880.000000 1315720.000000,960120.000000 1300480.000000,960120.000000 1300480.000000,944880.000000 Z"/> 
<path style="fill-opacity: 1.0;stroke-width: 0.010000;stroke-opacity: 1;stroke-linecap: round;stroke-linejoin: round;fill-rule: evenodd" d="M 1341120.000000,919480.000000 1341120.000000,934720.000000 1325880.000000,934720.000000 1325880.000000,919480.000000 Z"/> 
<path style="fill-opacity: 1.0;stroke-width: 0.010000;stroke-opacity: 1;stroke-linecap: round;stroke-linejoin: round;fill-rule: evenodd" d="M 1315720.000000,919480.000000 1315720.000000,934720.000000 1300480.000000,934720.000000 1300480.000000,919480.000000 Z"/> 
<path style="fill-opacity: 1.0;stroke-width: 0.010000;stroke-opacity: 1;stroke-linecap: round;stroke-linejoin: round;fill-rule: evenodd" d="M 1341120.000000,894080.000000 1341120.000000,909320.000000 1325880.000000,909320.000000 1325880.000000,894080.000000 Z"/> 
<path style="fill-opacity: 1.0;stroke-width: 0.010000;stroke-opacity: 1;stroke-linecap: round;stroke-linejoin: round;fill-rule: evenodd" d="M 1315720.000000,894080.000000 1315720.000000,909320.000000 1300480.000000,909320.000000 1300480.000000,894080.000000 Z"/> 
<path style="fill-opacity: 1.0;stroke-width: 0.010000;stroke-opacity: 1;stroke-linecap: round;stroke-linejoin: round;fill-rule: evenodd" d="M 1341120.000000,868680.000000 1341120.000000,883920.000000 1325880.000000,883920.000000 1325880.000000,868680.000000 Z"/> 
<path style="fill-opacity: 1.0;stroke-width: 0.010000;stroke-opacity: 1;stroke-linecap: round;stroke-linejoin: round;fill-rule: evenodd" d="M 1315720.000000,868680.000000 1315720.000000,883920.000000 1300480.000000,883920.000000 1300480.000000,868680.000000 Z"/> 
</g>
<g style="fill-opacity: 1.0;stroke-width: 0.010000;stroke-opacity: 1;stroke-linecap: round;stroke-linejoin: round">
<circle cx="1219200.000000" cy="1117600.000000" r="12500.000000"/> 
</g>
<g style="fill-opacity: 1.0;stroke-width: 0.010000;stroke-opacity: 1;stroke-linecap: round;stroke-linejoin: round">
<circle cx="1193800.000000" cy="1143000.000000" r="13500.000000"/> 
</g>
<g style="fill-opacity: 1.0;stroke-width: 0.010000;stroke-opacity: 1;stroke-linecap: round;stroke-linejoin: round">
<circle cx="1244600.000000" cy="1143000.000000" r="13500.000000"/> 
</g>
<g style="fill-opacity: 1.0;stroke-width: 0.010000;stroke-opacity: 1;stroke-linecap: round;stroke-linejoin: round">
<circle cx="1244600.000000" cy="1092200.000000" r="13500.000000"/> 
</g>
<g style="fill-opacity: 1.0;stroke-width: 0.010000;stroke-opacity: 1;stroke-linecap: round;stroke-linejoin: round">
<circle cx="1193800.000000" cy="1092200.000000" r="13500.000000"/> 
</g>
<g style="fill-opacity: 1.0;stroke-width: 0.010000;stroke-opacity: 1;stroke-linecap: round;stroke-linejoin: round">
<path style="fill-opacity: 1.0;stroke-width: 0.010000;stroke-opacity: 1;stroke-linecap: round;stroke-linejoin: round;fill-rule: evenodd" d="M 1211580.000000,947420.000000 1211580.000000,932180.000000 1226820.000000,932180.000000 1226820.000000,947420.000000 Z"/> 
<path style="fill-opacity: 1.0;stroke-width: 0.010000;stroke-opacity: 1;stroke-linecap: round;stroke-linejoin: round;fill-rule: evenodd" d="M 1236980.000000,947420.000000 1236980.000000,932180.000000 1252220.000000,932180.000000 1252220.000000,947420.000000 Z"/> 
<path style="fill-opacity: 1.0;stroke-width: 0.010000;stroke-opacity: 1;stroke-linecap: round;stroke-linejoin: round;fill-rule: evenodd" d="M 1211580.000000,972820.000000 1211580.000000,957580.000000 1226820.000000,957580.000000 1226820.000000,972820.000000 Z"/> 
<path style="fill-opacity: 1.0;stroke-width: 0.010000;stroke-opacity: 1;stroke-linecap: round;stroke-linejoin: round;fill-rule: evenodd" d="M 1236980.000000,972820.000000 1236980.000000,957580.000000 1252220.000000,957580.000000 1252220.000000,972820.000000 Z"/> 
<path style="fill-opacity: 1.0;stroke-width: 0.010000;stroke-opacity: 1;stroke-linecap: round;stroke-linejoin: round;fill-rule: evenodd" d="M 1211580.000000,998220.000000 1211580.000000,982980.000000 1226820.000000,982980.000000 1226820.000000,998220.000000 Z"/> 
<path style="fill-opacity: 1.0;stroke-width: 0.010000;stroke-opacity: 1;stroke-linecap: round;stroke-linejoin: round;fill-rule: evenodd" d="M 1236980.000000,998220.000000 1236980.000000,982980.000000 1252220.000000,982980.000000 1252220.000000,998220.000000 Z"/> 
</g>
<g style="fill-opacity: 1.0;stroke-width: 0.010000;stroke-opacity: 1;stroke-linecap: round;stroke-linejoin: round">
<circle cx="1117600.000000" cy="914400.000000" r="12500.000000"/> 
</g>
<g style="fill-opacity: 1.0;stroke-width: 0.010000;stroke-opacity: 1;stroke-linecap: round;stroke-linejoin: round">
<circle cx="1092200.000000" cy="889000.000000" r="13500.000000"/> 
</g>
<g style="fill-opacity: 1.0;stroke-width: 0.010000;stroke-opacity: 1;stroke-linecap: round;stroke-linejoin: round">
<circle cx="1143000.000000" cy="889000.000000" r="13500.000000"/> 
</g>
<g style="fill-opacity: 1.0;stroke-width: 0.010000;stroke-opacity: 1;stroke-linecap: round;stroke-linejoin: round">
<circle cx="1143000.000000" cy="939800.000000" r="13500.000000"/> 
</g>
<g style="fill-opacity: 1.0;stroke-width: 0.010000;stroke-opacity: 1;stroke-linecap: round;stroke-linejoin: round">
<circle cx="1092200.000000" cy="939800.000000" r="13500.000000"/> 
</g>
<g style="fill-opacity: 1.0;stroke-width: 0.010000;stroke-opacity: 1;stroke-linecap: round;stroke-linejoin: round">
<circle cx="1117600.000000" cy="1117600.000000" r="30000.000000"/> 
</g>
<g style="fill-opacity: 1.0;stroke-width: 0.010000;stroke-opacity: 1;stroke-linecap: round;stroke-linejoin: round">
<circle cx="1320800.000000" cy="812800.000000" r="30000.000000"/> 
</g>
<g style="fill-opacity: 1.0;stroke-width: 0.010000;stroke-opacity: 1;stroke-linecap: round;stroke-linejoin: round">
<circle cx="1219200.000000" cy="812800.000000" r="12500.000000"/> 
</g>
<g style="fill-opacity: 1.0;stroke-width: 0.010000;stroke-opacity: 1;stroke-linecap: round;stroke-linejoin: round">
<circle cx="1244600.000000" cy="787400.000000" r="13500.000000"/> 
</g>
<g style="fill-opacity: 1.0;stroke-width: 0.010000;stroke-opacity: 1;stroke-linecap: round;stroke-linejoin: round">
<circle cx="1244600.000000" cy="838200.000000" r="13500.000000"/> 
</g>
<g style="fill-opacity: 1.0;stroke-width: 0.010000;stroke-opacity: 1;stroke-linecap: round;stroke-linejoin: round">
<circle cx="1193800.000000" cy="787400.000000" r="13500.000000"/> 
</g>
<g style="fill-opacity: 1.0;stroke-width: 0.010000;stroke-opacity: 1;stroke-linecap: round;stroke-linejoin: round">
<circle cx="1193800.000000" cy="838200.000000" r="13500.000000"/> 
</g>
<g style="fill-opacity: 1.0;stroke-width: 0.010000;stroke-opacity: 1;stroke-linecap: round;stroke-linejoin: round">
<circle cx="1117600.000000" cy="1016000.000000" r="12500.000000"/> 
</g>
<g style="fill-opacity: 1.0;stroke-width: 0.010000;stroke-opacity: 1;stroke-linecap: round;stroke-linejoin: round">
<circle cx="1092200.000000" cy="1041400.000000" r="13500.000000"/> 
</g>
<g style="fill-opacity: 1.0;stroke-width: 0.010000;stroke-opacity: 1;stroke-linecap: round;stroke-linejoin: round">
<circle cx="1092200.000000" cy="990600.000000" r="13500.000000"/> 
</g>
<g style="fill-opacity: 1.0;stroke-width: 0.010000;stroke-opacity: 1;stroke-linecap: round;stroke-linejoin: round">
<circle cx="1143000.000000" cy="990600.000000" r="13500.000000"/> 
</g>
<g style="fill-opacity: 1.0;stroke-width: 0.010000;stroke-opacity: 1;stroke-linecap: round;stroke-linejoin: round">
<circle cx="1143000.000000" cy="1041400.000000" r="13500.000000"/> 
</g>
</g> 
</g><g id="substrate-pads" style="fill:#c4c1ba; stroke:#c4c1ba;" mask="url(#pads-mask)"><g style="fill-opacity: 0.0;stroke-width: 0.000000;stroke-opacity: 1;stroke-linecap: round;stroke-linejoin: round">
<g style="fill-opacity: 1.0;stroke-width: 0.010000;stroke-opacity: 1;stroke-linecap: round;stroke-linejoin: round">
<path style="fill-opacity: 1.0;stroke-width: 0.010000;stroke-opacity: 1;stroke-linecap: round;stroke-linejoin: round;fill-rule: evenodd" d="M 1341120.000000,1046480.000000 1341120.000000,1061720.000000 1325880.000000,1061720.000000 1325880.000000,1046480.000000 Z"/> 
<path style="fill-opacity: 1.0;stroke-width: 0.010000;stroke-opacity: 1;stroke-linecap: round;stroke-linejoin: round;fill-rule: evenodd" d="M 1315720.000000,1046480.000000 1315720.000000,1061720.000000 1300480.000000,1061720.000000 1300480.000000,1046480.000000 Z"/> 
<path style="fill-opacity: 1.0;stroke-width: 0.010000;stroke-opacity: 1;stroke-linecap: round;stroke-linejoin: round;fill-rule: evenodd" d="M 1341120.000000,1021080.000000 1341120.000000,1036320.000000 1325880.000000,1036320.000000 1325880.000000,1021080.000000 Z"/> 
<path style="fill-opacity: 1.0;stroke-width: 0.010000;stroke-opacity: 1;stroke-linecap: round;stroke-linejoin: round;fill-rule: evenodd" d="M 1315720.000000,1021080.000000 1315720.000000,1036320.000000 1300480.000000,1036320.000000 1300480.000000,1021080.000000 Z"/> 
<path style="fill-opacity: 1.0;stroke-width: 0.010000;stroke-opacity: 1;stroke-linecap: round;stroke-linejoin: round;fill-rule: evenodd" d="M 1341120.000000,995680.000000 1341120.000000,1010920.000000 1325880.000000,1010920.000000 1325880.000000,995680.000000 Z"/> 
<path style="fill-opacity: 1.0;stroke-width: 0.010000;stroke-opacity: 1;stroke-linecap: round;stroke-linejoin: round;fill-rule: evenodd" d="M 1315720.000000,995680.000000 1315720.000000,1010920.000000 1300480.000000,1010920.000000 1300480.000000,995680.000000 Z"/> 
<path style="fill-opacity: 1.0;stroke-width: 0.010000;stroke-opacity: 1;stroke-linecap: round;stroke-linejoin: round;fill-rule: evenodd" d="M 1341120.000000,970280.000000 1341120.000000,985520.000000 1325880.000000,985520.000000 1325880.000000,970280.000000 Z"/> 
<path style="fill-opacity: 1.0;stroke-width: 0.010000;stroke-opacity: 1;stroke-linecap: round;stroke-linejoin: round;fill-rule: evenodd" d="M 1315720.000000,970280.000000 1315720.000000,985520.000000 1300480.000000,985520.000000 1300480.000000,970280.000000 Z"/> 
</g>
<g style="fill-opacity: 1.0;stroke-width: 0.010000;stroke-opacity: 1;stroke-linecap: round;stroke-linejoin: round">
<circle cx="1117600.000000" cy="812800.000000" r="30000.000000"/> 
</g>
<g style="fill-opacity: 1.0;stroke-width: 0.010000;stroke-opacity: 1;stroke-linecap: round;stroke-linejoin: round">
<circle cx="1320800.000000" cy="1117600.000000" r="30000.000000"/> 
</g>
<g style="fill-opacity: 1.0;stroke-width: 0.010000;stroke-opacity: 1;stroke-linecap: round;stroke-linejoin: round">
<path style="fill-opacity: 1.0;stroke-width: 0.010000;stroke-opacity: 1;stroke-linecap: round;stroke-linejoin: round;fill-rule: evenodd" d="M 1341120.000000,944880.000000 1341120.000000,960120.000000 1325880.000000,960120.000000 1325880.000000,944880.000000 Z"/> 
<path style="fill-opacity: 1.0;stroke-width: 0.010000;stroke-opacity: 1;stroke-linecap: round;stroke-linejoin: round;fill-rule: evenodd" d="M 1315720.000000,944880.000000 1315720.000000,960120.000000 1300480.000000,960120.000000 1300480.000000,944880.000000 Z"/> 
<path style="fill-opacity: 1.0;stroke-width: 0.010000;stroke-opacity: 1;stroke-linecap: round;stroke-linejoin: round;fill-rule: evenodd" d="M 1341120.000000,919480.000000 1341120.000000,934720.000000 1325880.000000,934720.000000 1325880.000000,919480.000000 Z"/> 
<path style="fill-opacity: 1.0;stroke-width: 0.010000;stroke-opacity: 1;stroke-linecap: round;stroke-linejoin: round;fill-rule: evenodd" d="M 1315720.000000,919480.000000 1315720.000000,934720.000000 1300480.000000,934720.000000 1300480.000000,919480.000000 Z"/> 
<path style="fill-opacity: 1.0;stroke-width: 0.010000;stroke-opacity: 1;stroke-linecap: round;stroke-linejoin: round;fill-rule: evenodd" d="M 1341120.000000,894080.000000 1341120.000000,909320.000000 1325880.000000,909320.000000 1325880.000000,894080.000000 Z"/> 
<path style="fill-opacity: 1.0;stroke-width: 0.010000;stroke-opacity: 1;stroke-linecap: round;stroke-linejoin: round;fill-rule: evenodd" d="M 1315720.000000,894080.000000 1315720.000000,909320.000000 1300480.000000,909320.000000 1300480.000000,894080.000000 Z"/> 
<path style="fill-opacity: 1.0;stroke-width: 0.010000;stroke-opacity: 1;stroke-linecap: round;stroke-linejoin: round;fill-rule: evenodd" d="M 1341120.000000,868680.000000 1341120.000000,883920.000000 1325880.000000,883920.000000 1325880.000000,868680.000000 Z"/> 
<path style="fill-opacity: 1.0;stroke-width: 0.010000;stroke-opacity: 1;stroke-linecap: round;stroke-linejoin: round;fill-rule: evenodd" d="M 1315720.000000,868680.000000 1315720.000000,883920.000000 1300480.000000,883920.000000 1300480.000000,868680.000000 Z"/> 
</g>
<g style="fill-opacity: 1.0;stroke-width: 0.010000;stroke-opacity: 1;stroke-linecap: round;stroke-linejoin: round">
<circle cx="1219200.000000" cy="1117600.000000" r="12500.000000"/> 
</g>
<g style="fill-opacity: 1.0;stroke-width: 0.010000;stroke-opacity: 1;stroke-linecap: round;stroke-linejoin: round">
<circle cx="1193800.000000" cy="1143000.000000" r="13500.000000"/> 
</g>
<g style="fill-opacity: 1.0;stroke-width: 0.010000;stroke-opacity: 1;stroke-linecap: round;stroke-linejoin: round">
<circle cx="1244600.000000" cy="1143000.000000" r="13500.000000"/> 
</g>
<g style="fill-opacity: 1.0;stroke-width: 0.010000;stroke-opacity: 1;stroke-linecap: round;stroke-linejoin: round">
<circle cx="1244600.000000" cy="1092200.000000" r="13500.000000"/> 
</g>
<g style="fill-opacity: 1.0;stroke-width: 0.010000;stroke-opacity: 1;stroke-linecap: round;stroke-linejoin: round">
<circle cx="1193800.000000" cy="1092200.000000" r="13500.000000"/> 
</g>
<g style="fill-opacity: 1.0;stroke-width: 0.010000;stroke-opacity: 1;stroke-linecap: round;stroke-linejoin: round">
<path style="fill-opacity: 1.0;stroke-width: 0.010000;stroke-opacity: 1;stroke-linecap: round;stroke-linejoin: round;fill-rule: evenodd" d="M 1211580.000000,947420.000000 1211580.000000,932180.000000 1226820.000000,932180.000000 1226820.000000,947420.000000 Z"/> 
<path style="fill-opacity: 1.0;stroke-width: 0.010000;stroke-opacity: 1;stroke-linecap: round;stroke-linejoin: round;fill-rule: evenodd" d="M 1236980.000000,947420.000000 1236980.000000,932180.000000 1252220.000000,932180.000000 1252220.000000,947420.000000 Z"/> 
<path style="fill-opacity: 1.0;stroke-width: 0.010000;stroke-opacity: 1;stroke-linecap: round;stroke-linejoin: round;fill-rule: evenodd" d="M 1211580.000000,972820.000000 1211580.000000,957580.000000 1226820.000000,957580.000000 1226820.000000,972820.000000 Z"/> 
<path style="fill-opacity: 1.0;stroke-width: 0.010000;stroke-opacity: 1;stroke-linecap: round;stroke-linejoin: round;fill-rule: evenodd" d="M 1236980.000000,972820.000000 1236980.000000,957580.000000 1252220.000000,957580.000000 1252220.000000,972820.000000 Z"/> 
<path style="fill-opacity: 1.0;stroke-width: 0.010000;stroke-opacity: 1;stroke-linecap: round;stroke-linejoin: round;fill-rule: evenodd" d="M 1211580.000000,998220.000000 1211580.000000,982980.000000 1226820.000000,982980.000000 1226820.000000,998220.000000 Z"/> 
<path style="fill-opacity: 1.0;stroke-width: 0.010000;stroke-opacity: 1;stroke-linecap: round;stroke-linejoin: round;fill-rule: evenodd" d="M 1236980.000000,998220.000000 1236980.000000,982980.000000 1252220.000000,982980.000000 1252220.000000,998220.000000 Z"/> 
</g>
<g style="fill-opacity: 1.0;stroke-width: 0.010000;stroke-opacity: 1;stroke-linecap: round;stroke-linejoin: round">
<circle cx="1117600.000000" cy="914400.000000" r="12500.000000"/> 
</g>
<g style="fill-opacity: 1.0;stroke-width: 0.010000;stroke-opacity: 1;stroke-linecap: round;stroke-linejoin: round">
<circle cx="1092200.000000" cy="889000.000000" r="13500.000000"/> 
</g>
<g style="fill-opacity: 1.0;stroke-width: 0.010000;stroke-opacity: 1;stroke-linecap: round;stroke-linejoin: round">
<circle cx="1143000.000000" cy="889000.000000" r="13500.000000"/> 
</g>
<g style="fill-opacity: 1.0;stroke-width: 0.010000;stroke-opacity: 1;stroke-linecap: round;stroke-linejoin: round">
<circle cx="1143000.000000" cy="939800.000000" r="13500.000000"/> 
</g>
<g style="fill-opacity: 1.0;stroke-width: 0.010000;stroke-opacity: 1;stroke-linecap: round;stroke-linejoin: round">
<circle cx="1092200.000000" cy="939800.000000" r="13500.000000"/> 
</g>
<g style="fill-opacity: 1.0;stroke-width: 0.010000;stroke-opacity: 1;stroke-linecap: round;stroke-linejoin: round">
<circle cx="1117600.000000" cy="1117600.000000" r="30000.000000"/> 
</g>
<g style="fill-opacity: 1.0;stroke-width: 0.010000;stroke-opacity: 1;stroke-linecap: round;stroke-linejoin: round">
<circle cx="1320800.000000" cy="812800.000000" r="30000.000000"/> 
</g>
<g style="fill-opacity: 1.0;stroke-width: 0.010000;stroke-opacity: 1;stroke-linecap: round;stroke-linejoin: round">
<circle cx="1219200.000000" cy="812800.000000" r="12500.000000"/> 
</g>
<g style="fill-opacity: 1.0;stroke-width: 0.010000;stroke-opacity: 1;stroke-linecap: round;stroke-linejoin: round">
<circle cx="1244600.000000" cy="787400.000000" r="13500.000000"/> 
</g>
<g style="fill-opacity: 1.0;stroke-width: 0.010000;stroke-opacity: 1;stroke-linecap: round;stroke-linejoin: round">
<circle cx="1244600.000000" cy="838200.000000" r="13500.000000"/> 
</g>
<g style="fill-opacity: 1.0;stroke-width: 0.010000;stroke-opacity: 1;stroke-linecap: round;stroke-linejoin: round">
<circle cx="1193800.000000" cy="787400.000000" r="13500.000000"/> 
</g>
<g style="fill-opacity: 1.0;stroke-width: 0.010000;stroke-opacity: 1;stroke-linecap: round;stroke-linejoin: round">
<circle cx="1193800.000000" cy="838200.000000" r="13500.000000"/> 
</g>
<g style="fill-opacity: 1.0;stroke-width: 0.010000;stroke-opacity: 1;stroke-linecap: round;stroke-linejoin: round">
<circle cx="1117600.000000" cy="1016000.000000" r="12500.000000"/> 
</g>
<g style="fill-opacity: 1.0;stroke-width: 0.010000;stroke-opacity: 1;stroke-linecap: round;stroke-linejoin: round">
<circle cx="1092200.000000" cy="1041400.000000" r="13500.000000"/> 
</g>
<g style="fill-opacity: 1.0;stroke-width: 0.010000;stroke-opacity: 1;stroke-linecap: round;stroke-linejoin: round">
<circle cx="1092200.000000" cy="990600.000000" r="13500.000000"/> 
</g>
<g style="fill-opacity: 1.0;stroke-width: 0.010000;stroke-opacity: 1;stroke-linecap: round;stroke-linejoin: round">
<circle cx="1143000.000000" cy="990600.000000" r="13500.000000"/> 
</g>
<g style="fill-opacity: 1.0;stroke-width: 0.010000;stroke-opacity: 1;stroke-linecap: round;stroke-linejoin: round">
<circle cx="1143000.000000" cy="1041400.000000" r="13500.000000"/> 
</g>
</g> 
</g><g id="substrate-silk" style="fill:#0b1013; stroke:#0b1013;" mask="url(#pads-mask-silkscreen)"><g style="fill-opacity: 0.0;stroke-width: 1500.000000;stroke-opacity: 1;stroke-linecap: round;stroke-linejoin: round">
<path d="M1295400 965200 L1346200 965200 "/>
<path d="M1295400 1066800 L1295400 965200 "/>
<path d="M1346200 965200 L1346200 1066800 "/>
<path d="M1346200 1066800 L1295400 1066800 "/>
<path d="M1295400 965200 L1295400 863600 "/>
<path d="M1295400 863600 L1346200 863600 "/>
<path d="M1346200 863600 L1346200 965200 "/>
<path d="M1346200 965200 L1295400 965200 "/>
<path d="M1254200 1127760 L1254200 1107440 "/>
<path d="M1184200 1107440 L1184200 1127760 "/>
<path d="M1229360 1082600 L1209040 1082600 "/>
<path d="M1209040 1152346 L1229360 1152346 "/>
<path d="M1206500 1003300 L1206500 927100 "/>
<path d="M1257300 927100 L1257300 1003300 "/>
<path d="M1257300 1003300 L1206500 1003300 "/>
<path d="M1206500 927100 L1257300 927100 "/>
<path d="M1127760 879400 L1107440 879400 "/>
<path d="M1107440 949146 L1127760 949146 "/>
<path d="M1152600 924560 L1152600 904240 "/>
<path d="M1082600 904240 L1082600 924560 "/>
<path d="M1184200 802640 L1184200 822960 "/>
<path d="M1209040 847546 L1229360 847546 "/>
<path d="M1229360 777800 L1209040 777800 "/>
<path d="M1254200 822960 L1254200 802640 "/>
<path d="M1082600 1005840 L1082600 1026160 "/>
<path d="M1107440 1050746 L1127760 1050746 "/>
<path d="M1127760 981000 L1107440 981000 "/>
<path d="M1152600 1026160 L1152600 1005840 "/>
<g style="fill-opacity: 1.0;stroke-width: 0.010000;stroke-opacity: 1;stroke-linecap: round;stroke-linejoin: round">
<path style="fill-opacity: 1.0;stroke-width: 0.010000;stroke-opacity: 1;stroke-linecap: round;stroke-linejoin: round;fill-rule: evenodd" d="M 1341120.000000,1046480.000000 1341120.000000,1061720.000000 1325880.000000,1061720.000000 1325880.000000,1046480.000000 Z"/> 
<path style="fill-opacity: 1.0;stroke-width: 0.010000;stroke-opacity: 1;stroke-linecap: round;stroke-linejoin: round;fill-rule: evenodd" d="M 1315720.000000,1046480.000000 1315720.000000,1061720.000000 1300480.000000,1061720.000000 1300480.000000,1046480.000000 Z"/> 
<path style="fill-opacity: 1.0;stroke-width: 0.010000;stroke-opacity: 1;stroke-linecap: round;stroke-linejoin: round;fill-rule: evenodd" d="M 1341120.000000,1021080.000000 1341120.000000,1036320.000000 1325880.000000,1036320.000000 1325880.000000,1021080.000000 Z"/> 
<path style="fill-opacity: 1.0;stroke-width: 0.010000;stroke-opacity: 1;stroke-linecap: round;stroke-linejoin: round;fill-rule: evenodd" d="M 1315720.000000,1021080.000000 1315720.000000,1036320.000000 1300480.000000,1036320.000000 1300480.000000,1021080.000000 Z"/> 
<path style="fill-opacity: 1.0;stroke-width: 0.010000;stroke-opacity: 1;stroke-linecap: round;stroke-linejoin: round;fill-rule: evenodd" d="M 1341120.000000,995680.000000 1341120.000000,1010920.000000 1325880.000000,1010920.000000 1325880.000000,995680.000000 Z"/> 
<path style="fill-opacity: 1.0;stroke-width: 0.010000;stroke-opacity: 1;stroke-linecap: round;stroke-linejoin: round;fill-rule: evenodd" d="M 1315720.000000,995680.000000 1315720.000000,1010920.000000 1300480.000000,1010920.000000 1300480.000000,995680.000000 Z"/> 
<path style="fill-opacity: 1.0;stroke-width: 0.010000;stroke-opacity: 1;stroke-linecap: round;stroke-linejoin: round;fill-rule: evenodd" d="M 1341120.000000,970280.000000 1341120.000000,985520.000000 1325880.000000,985520.000000 1325880.000000,970280.000000 Z"/> 
<path style="fill-opacity: 1.0;stroke-width: 0.010000;stroke-opacity: 1;stroke-linecap: round;stroke-linejoin: round;fill-rule: evenodd" d="M 1315720.000000,970280.000000 1315720.000000,985520.000000 1300480.000000,985520.000000 1300480.000000,970280.000000 Z"/> 
</g>
<g style="fill-opacity: 1.0;stroke-width: 0.010000;stroke-opacity: 1;stroke-linecap: round;stroke-linejoin: round">
<path style="fill-opacity: 1.0;stroke-width: 0.010000;stroke-opacity: 1;stroke-linecap: round;stroke-linejoin: round;fill-rule: evenodd" d="M 1341120.000000,944880.000000 1341120.000000,960120.000000 1325880.000000,960120.000000 1325880.000000,944880.000000 Z"/> 
<path style="fill-opacity: 1.0;stroke-width: 0.010000;stroke-opacity: 1;stroke-linecap: round;stroke-linejoin: round;fill-rule: evenodd" d="M 1315720.000000,944880.000000 1315720.000000,960120.000000 1300480.000000,960120.000000 1300480.000000,944880.000000 Z"/> 
<path style="fill-opacity: 1.0;stroke-width: 0.010000;stroke-opacity: 1;stroke-linecap: round;stroke-linejoin: round;fill-rule: evenodd" d="M 1341120.000000,919480.000000 1341120.000000,934720.000000 1325880.000000,934720.000000 1325880.000000,919480.000000 Z"/> 
<path style="fill-opacity: 1.0;stroke-width: 0.010000;stroke-opacity: 1;stroke-linecap: round;stroke-linejoin: round;fill-rule: evenodd" d="M 1315720.000000,919480.000000 1315720.000000,934720.000000 1300480.000000,934720.000000 1300480.000000,919480.000000 Z"/> 
<path style="fill-opacity: 1.0;stroke-width: 0.010000;stroke-opacity: 1;stroke-linecap: round;stroke-linejoin: round;fill-rule: evenodd" d="M 1341120.000000,894080.000000 1341120.000000,909320.000000 1325880.000000,909320.000000 1325880.000000,894080.000000 Z"/> 
<path style="fill-opacity: 1.0;stroke-width: 0.010000;stroke-opacity: 1;stroke-linecap: round;stroke-linejoin: round;fill-rule: evenodd" d="M 1315720.000000,894080.000000 1315720.000000,909320.000000 1300480.000000,909320.000000 1300480.000000,894080.000000 Z"/> 
<path style="fill-opacity: 1.0;stroke-width: 0.010000;stroke-opacity: 1;stroke-linecap: round;stroke-linejoin: round;fill-rule: evenodd" d="M 1341120.000000,868680.000000 1341120.000000,883920.000000 1325880.000000,883920.000000 1325880.000000,868680.000000 Z"/> 
<path style="fill-opacity: 1.0;stroke-width: 0.010000;stroke-opacity: 1;stroke-linecap: round;stroke-linejoin: round;fill-rule: evenodd" d="M 1315720.000000,868680.000000 1315720.000000,883920.000000 1300480.000000,883920.000000 1300480.000000,868680.000000 Z"/> 
</g>
</g> 
</g><g id="substrate-outline" style="fill:#000000; stroke:#000000; stroke-width: 1500.0"><g style="fill-opacity: 0.0;stroke-opacity: 1;stroke-linecap: round;stroke-linejoin: round">
<path d="M1069340 764540 L1069340 1165860 "/>
<path d="M1369060 1165860 L1369060 764540 "/>
<path d="M1369060 1165860 L1069340 1165860 "/>
<path d="M1069340 764540 L1369060 764540 "/>
<circle cx="1117600.000000" cy="1117600.000000" r="16666.660000"/> 
<path d="M1092600 1117600 L1142600 1117600 "/>
<path d="M1117600 1092600 L1117600 1142600 "/>
<circle cx="1117600.000000" cy="1117600.000000" r="16666.660000"/> 
<path d="M1092600 1117600 L1142600 1117600 "/>
<path d="M1117600 1092600 L1117600 1142600 "/>
<circle cx="1117600.000000" cy="1117600.000000" r="16666.660000"/> 
<path d="M1092600 1117600 L1142600 1117600 "/>
<path d="M1117600 1092600 L1117600 1142600 "/>
</g> 
<path d="M -4445.0 0.0 A 4445.0 4445.0 0 1 1 4445.0 0.0 L 4445.0 -0.0 A 4445.0 4445.0 0 1 1 -4445.0 -0.0 Z" transform="translate(1333500.0 1054100.0) rotate(-180.0)"/><path d="M -4445.0 0.0 A 4445.0 4445.0 0 1 1 4445.0 0.0 L 4445.0 -0.0 A 4445.0 4445.0 0 1 1 -4445.0 -0.0 Z" transform="translate(1308100.0 1054100.0) rotate(-180.0)"/><path d="M -4445.0 0.0 A 4445.0 4445.0 0 1 1 4445.0 0.0 L 4445.0 -0.0 A 4445.0 4445.0 0 1 1 -4445.0 -0.0 Z" transform="translate(1333500.0 1028700.0) rotate(-180.0)"/><path d="M -4445.0 0.0 A 4445.0 4445.0 0 1 1 4445.0 0.0 L 4445.0 -0.0 A 4445.0 4445.0 0 1 1 -4445.0 -0.0 Z" transform="translate(1308100.0 1028700.0) rotate(-180.0)"/><path d="M -4445.0 0.0 A 4445.0 4445.0 0 1 1 4445.0 0.0 L 4445.0 -0.0 A 4445.0 4445.0 0 1 1 -4445.0 -0.0 Z" transform="translate(1333500.0 1003300.0) rotate(-180.0)"/><path d="M -4445.0 0.0 A 4445.0 4445.0 0 1 1 4445.0 0.0 L 4445.0 -0.0 A 4445.0 4445.0 0 1 1 -4445.0 -0.0 Z" transform="translate(1308100.0 1003300.0) rotate(-180.0)"/><path d="M -4445.0 0.0 A 4445.0 4445.0 0 1 1 4445.0 0.0 L 4445.0 -0.0 A 4445.0 4445.0 0 1 1 -4445.0 -0.0 Z" transform="translate(1333500.0 977900.0) rotate(-180.0)"/><path d="M -4445.0 0.0 A 4445.0 4445.0 0 1 1 4445.0 0.0 L 4445.0 -0.0 A 4445.0 4445.0 0 1 1 -4445.0 -0.0 Z" transform="translate(1308100.0 977900.0) rotate(-180.0)"/><path d="M -15000.0 0.0 A 15000.0 15000.0 0 1 1 15000.0 0.0 L 15000.0 -0.0 A 15000.0 15000.0 0 1 1 -15000.0 -0.0 Z" transform="translate(1117600.0 812800.0) rotate(-0.0)"/><path d="M -15000.0 0.0 A 15000.0 15000.0 0 1 1 15000.0 0.0 L 15000.0 -0.0 A 15000.0 15000.0 0 1 1 -15000.0 -0.0 Z" transform="translate(1320800.0 1117600.0) rotate(-0.0)"/><path d="M -4445.0 0.0 A 4445.0 4445.0 0 1 1 4445.0 0.0 L 4445.0 -0.0 A 4445.0 4445.0 0 1 1 -4445.0 -0.0 Z" transform="translate(1333500.0 952500.0) rotate(-180.0)"/><path d="M -4445.0 0.0 A 4445.0 4445.0 0 1 1 4445.0 0.0 L 4445.0 -0.0 A 4445.0 4445.0 0 1 1 -4445.0 -0.0 Z" transform="translate(1308100.0 952500.0) rotate(-180.0)"/><path d="M -4445.0 0.0 A 4445.0 4445.0 0 1 1 4445.0 0.0 L 4445.0 -0.0 A 4445.0 4445.0 0 1 1 -4445.0 -0.0 Z" transform="translate(1333500.0 927100.0) rotate(-180.0)"/><path d="M -4445.0 0.0 A 4445.0 4445.0 0 1 1 4445.0 0.0 L 4445.0 -0.0 A 4445.0 4445.0 0 1 1 -4445.0 -0.0 Z" transform="translate(1308100.0 927100.0) rotate(-180.0)"/><path d="M -4445.0 0.0 A 4445.0 4445.0 0 1 1 4445.0 0.0 L 4445.0 -0.0 A 4445.0 4445.0 0 1 1 -4445.0 -0.0 Z" transform="translate(1333500.0 901700.0) rotate(-180.0)"/><path d="M -4445.0 0.0 A 4445.0 4445.0 0 1 1 4445.0 0.0 L 4445.0 -0.0 A 4445.0 4445.0 0 1 1 -4445.0 -0.0 Z" transform="translate(1308100.0 901700.0) rotate(-180.0)"/><path d="M -4445.0 0.0 A 4445.0 4445.0 0 1 1 4445.0 0.0 L 4445.0 -0.0 A 4445.0 4445.0 0 1 1 -4445.0 -0.0 Z" transform="translate(1333500.0 876300.0) rotate(-180.0)"/><path d="M -4445.0 0.0 A 4445.0 4445.0 0 1 1 4445.0 0.0 L 4445.0 -0.0 A 4445.0 4445.0 0 1 1 -4445.0 -0.0 Z" transform="translate(1308100.0 876300.0) rotate(-180.0)"/><path d="M -7500.0 0.0 A 7500.0 7500.0 0 1 1 7500.0 0.0 L 7500.0 -0.0 A 7500.0 7500.0 0 1 1 -7500.0 -0.0 Z" transform="translate(1219200.0 1117600.0) rotate(-180.0)"/><path d="M -8500.0 0.0 A 8500.0 8500.0 0 1 1 8500.0 0.0 L 8500.0 -0.0 A 8500.0 8500.0 0 1 1 -8500.0 -0.0 Z" transform="translate(1193800.0 1143000.0) rotate(-180.0)"/><path d="M -8500.0 0.0 A 8500.0 8500.0 0 1 1 8500.0 0.0 L 8500.0 -0.0 A 8500.0 8500.0 0 1 1 -8500.0 -0.0 Z" transform="translate(1244600.0 1143000.0) rotate(-180.0)"/><path d="M -8500.0 0.0 A 8500.0 8500.0 0 1 1 8500.0 0.0 L 8500.0 -0.0 A 8500.0 8500.0 0 1 1 -8500.0 -0.0 Z" transform="translate(1244600.0 1092200.0) rotate(-180.0)"/><path d="M -8500.0 0.0 A 8500.0 8500.0 0 1 1 8500.0 0.0 L 8500.0 -0.0 A 8500.0 8500.0 0 1 1 -8500.0 -0.0 Z" transform="translate(1193800.0 1092200.0) rotate(-180.0)"/><path d="M -4445.0 0.0 A 4445.0 4445.0 0 1 1 4445.0 0.0 L 4445.0 -0.0 A 4445.0 4445.0 0 1 1 -4445.0 -0.0 Z" transform="translate(1219200.0 939800.0) rotate(-0.0)"/><path d="M -4445.0 0.0 A 4445.0 4445.0 0 1 1 4445.0 0.0 L 4445.0 -0.0 A 4445.0 4445.0 0 1 1 -4445.0 -0.0 Z" transform="translate(1244600.0 939800.0) rotate(-0.0)"/><path d="M -4445.0 0.0 A 4445.0 4445.0 0 1 1 4445.0 0.0 L 4445.0 -0.0 A 4445.0 4445.0 0 1 1 -4445.0 -0.0 Z" transform="translate(1219200.0 965200.0) rotate(-0.0)"/><path d="M -4445.0 0.0 A 4445.0 4445.0 0 1 1 4445.0 0.0 L 4445.0 -0.0 A 4445.0 4445.0 0 1 1 -4445.0 -0.0 Z" transform="translate(1244600.0 965200.0) rotate(-0.0)"/><path d="M -4445.0 0.0 A 4445.0 4445.0 0 1 1 4445.0 0.0 L 4445.0 -0.0 A 4445.0 4445.0 0 1 1 -4445.0 -0.0 Z" transform="translate(1219200.0 990600.0) rotate(-0.0)"/><path d="M -4445.0 0.0 A 4445.0 4445.0 0 1 1 4445.0 0.0 L 4445.0 -0.0 A 4445.0 4445.0 0 1 1 -4445.0 -0.0 Z" transform="translate(1244600.0 990600.0) rotate(-0.0)"/><path d="M -7500.0 0.0 A 7500.0 7500.0 0 1 1 7500.0 0.0 L 7500.0 -0.0 A 7500.0 7500.0 0 1 1 -7500.0 -0.0 Z" transform="translate(1117600.0 914400.0) rotate(-180.0)"/><path d="M -8500.0 0.0 A 8500.0 8500.0 0 1 1 8500.0 0.0 L 8500.0 -0.0 A 8500.0 8500.0 0 1 1 -8500.0 -0.0 Z" transform="translate(1092200.0 889000.0) rotate(-180.0)"/><path d="M -8500.0 0.0 A 8500.0 8500.0 0 1 1 8500.0 0.0 L 8500.0 -0.0 A 8500.0 8500.0 0 1 1 -8500.0 -0.0 Z" transform="translate(1143000.0 889000.0) rotate(-180.0)"/><path d="M -8500.0 0.0 A 8500.0 8500.0 0 1 1 8500.0 0.0 L 8500.0 -0.0 A 8500.0 8500.0 0 1 1 -8500.0 -0.0 Z" transform="translate(1143000.0 939800.0) rotate(-180.0)"/><path d="M -8500.0 0.0 A 8500.0 8500.0 0 1 1 8500.0 0.0 L 8500.0 -0.0 A 8500.0 8500.0 0 1 1 -8500.0 -0.0 Z" transform="translate(1092200.0 939800.0) rotate(-180.0)"/><path d="M -15000.0 0.0 A 15000.0 15000.0 0 1 1 15000.0 0.0 L 15000.0 -0.0 A 15000.0 15000.0 0 1 1 -15000.0 -0.0 Z" transform="translate(1117600.0 1117600.0) rotate(-0.0)"/><path d="M -15000.0 0.0 A 15000.0 15000.0 0 1 1 15000.0 0.0 L 15000.0 -0.0 A 15000.0 15000.0 0 1 1 -15000.0 -0.0 Z" transform="translate(1320800.0 812800.0) rotate(-0.0)"/><path d="M -7500.0 0.0 A 7500.0 7500.0 0 1 1 7500.0 0.0 L 7500.0 -0.0 A 7500.0 7500.0 0 1 1 -7500.0 -0.0 Z" transform="translate(1219200.0 812800.0) rotate(-180.0)"/><path d="M -8500.0 0.0 A 8500.0 8500.0 0 1 1 8500.0 0.0 L 8500.0 -0.0 A 8500.0 8500.0 0 1 1 -8500.0 -0.0 Z" transform="translate(1244600.0 787400.0) rotate(-180.0)"/><path d="M -8500.0 0.0 A 8500.0 8500.0 0 1 1 8500.0 0.0 L 8500.0 -0.0 A 8500.0 8500.0 0 1 1 -8500.0 -0.0 Z" transform="translate(1244600.0 838200.0) rotate(-180.0)"/><path d="M -8500.0 0.0 A 8500.0 8500.0 0 1 1 8500.0 0.0 L 8500.0 -0.0 A 8500.0 8500.0 0 1 1 -8500.0 -0.0 Z" transform="translate(1193800.0 787400.0) rotate(-180.0)"/><path d="M -8500.0 0.0 A 8500.0 8500.0 0 1 1 8500.0 0.0 L 8500.0 -0.0 A 8500.0 8500.0 0 1 1 -8500.0 -0.0 Z" transform="translate(1193800.0 838200.0) rotate(-180.0)"/><path d="M -7500.0 0.0 A 7500.0 7500.0 0 1 1 7500.0 0.0 L 7500.0 -0.0 A 7500.0 7500.0 0 1 1 -7500.0 -0.0 Z" transform="translate(1117600.0 1016000.0) rotate(-180.0)"/><path d="M -8500.0 0.0 A 8500.0 8500.0 0 1 1 8500.0 0.0 L 8500.0 -0.0 A 8500.0 8500.0 0 1 1 -8500.0 -0.0 Z" transform="translate(1092200.0 1041400.0) rotate(-180.0)"/><path d="M -8500.0 0.0 A 8500.0 8500.0 0 1 1 8500.0 0.0 L 8500.0 -0.0 A 8500.0 8500.0 0 1 1 -8500.0 -0.0 Z" transform="translate(1092200.0 990600.0) rotate(-180.0)"/><path d="M -8500.0 0.0 A 8500.0 8500.0 0 1 1 8500.0 0.0 L 8500.0 -0.0 A 8500.0 8500.0 0 1 1 -8500.0 -0.0 Z" transform="translate(1143000.0 990600.0) rotate(-180.0)"/><path d="M -8500.0 0.0 A 8500.0 8500.0 0 1 1 8500.0 0.0 L 8500.0 -0.0 A 8500.0 8500.0 0 1 1 -8500.0 -0.0 Z" transform="translate(1143000.0 1041400.0) rotate(-180.0)"/></g></g></g></svg>