<?xml version='1.0' encoding='ASCII' standalone='yes'?>
<svg xmlns:svg="http://www.w3.org/2000/svg" xmlns="http://www.w3.org/2000/svg" xmlns:xlink="http://www.w3.org/1999/xlink" version="1.1" width="297.0022mm" height="210.0072mm" viewBox="0.0000 0.0000 297.0022 210.0072">
<title>SVG Image created as ACOMP01-F_Fab.svg date 2023/07/05 11:49:51 </title>
  <desc>Image generated by PCBNEW </desc>
<g style="fill:#848484; fill-opacity:1.0000;stroke:#848484; stroke-opacity:1.0000; stroke-linecap:round; stroke-linejoin:round;" transform="translate(0 0) scale(1 1)">
</g>
<g style="fill:#848484; fill-opacity:0.0;  stroke:#848484; stroke-width:0.0000; stroke-opacity:1;  stroke-linecap:round; stroke-linejoin:round;">
</g>
<g style="fill:#848484; fill-opacity:0.01;  stroke:#848484; stroke-width:0.7847; stroke-opacity:1;  stroke-linecap:round; stroke-linejoin:round;">
<text x="148.5011" y="188.0469" textLength="12.0218" font-size="8.8580" lengthAdjust="spacingAndGlyphs" text-anchor="middle" opacity="0.01" style="font-family:monospace">J2</text>
<g class="stroked-text"><desc>J2</desc>
<path d="M150.7156 181.1143 L150.7156 185.8597 "/>
<path d="M150.7156 185.8597 L151.0319 186.8087 "/>
<path d="M151.0319 186.8087 L151.6647 187.4414 "/>
<path d="M151.6647 187.4414 L152.6137 187.7578 "/>
<path d="M152.6137 187.7578 L153.2464 187.7578 "/>
<path d="M147.8684 181.7470 L147.5520 181.4307 "/>
<path d="M147.5520 181.4307 L146.9193 181.1143 "/>
<path d="M146.9193 181.1143 L145.3375 181.1143 "/>
<path d="M145.3375 181.1143 L144.7048 181.4307 "/>
<path d="M144.7048 181.4307 L144.3885 181.7470 "/>
<path d="M144.3885 181.7470 L144.0721 182.3797 "/>
<path d="M144.0721 182.3797 L144.0721 183.0125 "/>
<path d="M144.0721 183.0125 L144.3885 183.9615 "/>
<path d="M144.3885 183.9615 L148.1847 187.7578 "/>
<path d="M148.1847 187.7578 L144.0721 187.7578 "/>
</g><text x="201.6488" y="81.7515" textLength="12.0218" font-size="8.8580" lengthAdjust="spacingAndGlyphs" text-anchor="middle" opacity="0.01" style="font-family:monospace">J4</text>
<g class="stroked-text"><desc>J4</desc>
<path d="M203.8633 74.8189 L203.8633 79.5642 "/>
<path d="M203.8633 79.5642 L204.1797 80.5133 "/>
<path d="M204.1797 80.5133 L204.8124 81.1460 "/>
<path d="M204.8124 81.1460 L205.7615 81.4623 "/>
<path d="M205.7615 81.4623 L206.3942 81.4623 "/>
<path d="M197.8526 77.0333 L197.8526 81.4623 "/>
<path d="M199.4344 74.5025 L201.0161 79.2478 "/>
<path d="M201.0161 79.2478 L196.9035 79.2478 "/>
</g><text x="148.5011" y="28.6037" textLength="12.0218" font-size="8.8580" lengthAdjust="spacingAndGlyphs" text-anchor="middle" opacity="0.01" style="font-family:monospace">J5</text>
<g class="stroked-text"><desc>J5</desc>
<path d="M150.7156 21.6711 L150.7156 26.4165 "/>
<path d="M150.7156 26.4165 L151.0319 27.3655 "/>
<path d="M151.0319 27.3655 L151.6647 27.9982 "/>
<path d="M151.6647 27.9982 L152.6137 28.3146 "/>
<path d="M152.6137 28.3146 L153.2464 28.3146 "/>
<path d="M144.3885 21.6711 L147.5520 21.6711 "/>
<path d="M147.5520 21.6711 L147.8684 24.8347 "/>
<path d="M147.8684 24.8347 L147.5520 24.5183 "/>
<path d="M147.5520 24.5183 L146.9193 24.2020 "/>
<path d="M146.9193 24.2020 L145.3375 24.2020 "/>
<path d="M145.3375 24.2020 L144.7048 24.5183 "/>
<path d="M144.7048 24.5183 L144.3885 24.8347 "/>
<path d="M144.3885 24.8347 L144.0721 25.4674 "/>
<path d="M144.0721 25.4674 L144.0721 27.0492 "/>
<path d="M144.0721 27.0492 L144.3885 27.6819 "/>
<path d="M144.3885 27.6819 L144.7048 27.9982 "/>
<path d="M144.7048 27.9982 L145.3375 28.3146 "/>
<path d="M145.3375 28.3146 L146.9193 28.3146 "/>
<path d="M146.9193 28.3146 L147.5520 27.9982 "/>
<path d="M147.5520 27.9982 L147.8684 27.6819 "/>
</g><text x="201.6488" y="134.8992" textLength="12.0218" font-size="8.8580" lengthAdjust="spacingAndGlyphs" text-anchor="middle" opacity="0.01" style="font-family:monospace">J3</text>
<g class="stroked-text"><desc>J3</desc>
<path d="M203.8633 127.9666 L203.8633 132.7119 "/>
<path d="M203.8633 132.7119 L204.1797 133.6610 "/>
<path d="M204.1797 133.6610 L204.8124 134.2937 "/>
<path d="M204.8124 134.2937 L205.7615 134.6101 "/>
<path d="M205.7615 134.6101 L206.3942 134.6101 "/>
<path d="M201.3325 127.9666 L197.2199 127.9666 "/>
<path d="M197.2199 127.9666 L199.4344 130.4974 "/>
<path d="M199.4344 130.4974 L198.4853 130.4974 "/>
<path d="M198.4853 130.4974 L197.8526 130.8138 "/>
<path d="M197.8526 130.8138 L197.5362 131.1301 "/>
<path d="M197.5362 131.1301 L197.2199 131.7629 "/>
<path d="M197.2199 131.7629 L197.2199 133.3446 "/>
<path d="M197.2199 133.3446 L197.5362 133.9773 "/>
<path d="M197.5362 133.9773 L197.8526 134.2937 "/>
<path d="M197.8526 134.2937 L198.4853 134.6101 "/>
<path d="M198.4853 134.6101 L200.3834 134.6101 "/>
<path d="M200.3834 134.6101 L201.0161 134.2937 "/>
<path d="M201.0161 134.2937 L201.3325 133.9773 "/>
</g></g>
<g style="fill:#848484; fill-opacity:0.0;  stroke:#848484; stroke-width:1.9930; stroke-opacity:1;  stroke-linecap:round; stroke-linejoin:round;">
<circle cx="201.6488" cy="25.2820" r="15.6919"/> 
<circle cx="95.3534" cy="184.7252" r="15.6919"/> 
</g>
<g style="fill:#848484; fill-opacity:0.0;  stroke:#848484; stroke-width:0.7847; stroke-opacity:1;  stroke-linecap:round; stroke-linejoin:round;">
<path d="M166.8099 166.4164 L166.8099 203.0340 "/>
<path d="M137.8820 200.6800 L132.5463 200.6800 "/>
<path d="M166.8099 195.3443 L159.1202 195.3443 "/>
<path d="M132.5463 168.7704 L137.8820 168.7704 "/>
<path d="M130.1923 203.0340 L130.1923 166.4164 "/>
<path d="M130.1923 166.4164 L166.8099 166.4164 "/>
<path d="M132.5463 200.6800 L132.5463 195.3443 "/>
<path d="M164.4559 168.7704 L164.4559 174.1061 "/>
<path d="M164.4559 200.6800 L164.4559 195.3443 "/>
<path d="M137.8820 195.3443 L130.1923 195.3443 "/>
<path d="M132.5463 168.7704 L132.5463 174.1061 "/>
<path d="M137.8820 203.0340 L137.8820 195.3443 "/>
<path d="M166.8099 203.0340 L130.1923 203.0340 "/>
<path d="M159.1202 200.6800 L164.4559 200.6800 "/>
<path d="M137.8820 174.1061 L130.1923 174.1061 "/>
<path d="M137.8820 166.4164 L137.8820 174.1061 "/>
<path d="M159.1202 168.7704 L164.4559 168.7704 "/>
<path d="M159.1202 195.3443 L159.1202 203.0340 "/>
<path d="M159.1202 174.1061 L166.8099 174.1061 "/>
<path d="M159.1202 166.4164 L159.1202 174.1061 "/>
<circle cx="148.5011" cy="184.7252" r="11.3138"/> 
<path d="M155.1446 124.9340 L155.1446 85.0732 "/>
<path d="M128.5707 85.0732 L128.5707 124.9340 "/>
<path d="M128.5707 124.9340 L155.1446 124.9340 "/>
<path d="M155.1446 85.0732 L128.5707 85.0732 "/>
<path d="M212.2679 94.3845 L217.6036 94.3845 "/>
<path d="M212.2679 60.1210 L212.2679 67.8106 "/>
<path d="M183.3401 96.7385 L183.3401 60.1210 "/>
<path d="M191.0298 96.7385 L191.0298 89.0488 "/>
<path d="M212.2679 89.0488 L212.2679 96.7385 "/>
<path d="M185.6941 62.4749 L185.6941 67.8106 "/>
<path d="M185.6941 62.4749 L191.0298 62.4749 "/>
<path d="M219.9576 96.7385 L183.3401 96.7385 "/>
<path d="M191.0298 94.3845 L185.6941 94.3845 "/>
<path d="M191.0298 60.1210 L191.0298 67.8106 "/>
<path d="M212.2679 67.8106 L219.9576 67.8106 "/>
<path d="M191.0298 89.0488 L183.3401 89.0488 "/>
<path d="M191.0298 67.8106 L183.3401 67.8106 "/>
<path d="M183.3401 60.1210 L219.9576 60.1210 "/>
<path d="M217.6036 94.3845 L217.6036 89.0488 "/>
<path d="M185.6941 94.3845 L185.6941 89.0488 "/>
<path d="M219.9576 60.1210 L219.9576 96.7385 "/>
<path d="M217.6036 62.4749 L217.6036 67.8106 "/>
<path d="M219.9576 89.0488 L212.2679 89.0488 "/>
<path d="M212.2679 62.4749 L217.6036 62.4749 "/>
<circle cx="201.6488" cy="78.4297" r="11.3138"/> 
</g>
<g style="fill:#848484; fill-opacity:0.0;  stroke:#848484; stroke-width:1.9930; stroke-opacity:1;  stroke-linecap:round; stroke-linejoin:round;">
<circle cx="201.6488" cy="184.7252" r="15.6919"/> 
<circle cx="95.3534" cy="25.2820" r="15.6919"/> 
</g>
<g style="fill:#848484; fill-opacity:0.0;  stroke:#848484; stroke-width:0.7847; stroke-opacity:1;  stroke-linecap:round; stroke-linejoin:round;">
<path d="M130.1923 43.5908 L130.1923 6.9732 "/>
<path d="M132.5463 41.2368 L132.5463 35.9011 "/>
<path d="M132.5463 9.3272 L137.8820 9.3272 "/>
<path d="M159.1202 6.9732 L159.1202 14.6629 "/>
<path d="M159.1202 41.2368 L164.4559 41.2368 "/>
<path d="M130.1923 6.9732 L166.8099 6.9732 "/>
<path d="M159.1202 14.6629 L166.8099 14.6629 "/>
<path d="M159.1202 35.9011 L159.1202 43.5908 "/>
<path d="M164.4559 9.3272 L164.4559 14.6629 "/>
<path d="M137.8820 6.9732 L137.8820 14.6629 "/>
<path d="M137.8820 41.2368 L132.5463 41.2368 "/>
<path d="M159.1202 9.3272 L164.4559 9.3272 "/>
<path d="M164.4559 41.2368 L164.4559 35.9011 "/>
<path d="M137.8820 43.5908 L137.8820 35.9011 "/>
<path d="M166.8099 35.9011 L159.1202 35.9011 "/>
<path d="M137.8820 14.6629 L130.1923 14.6629 "/>
<path d="M132.5463 9.3272 L132.5463 14.6629 "/>
<path d="M166.8099 43.5908 L130.1923 43.5908 "/>
<path d="M166.8099 6.9732 L166.8099 43.5908 "/>
<path d="M137.8820 35.9011 L130.1923 35.9011 "/>
<circle cx="148.5011" cy="25.2820" r="11.3138"/> 
<path d="M217.6036 147.5323 L217.6036 142.1966 "/>
<path d="M212.2679 142.1966 L212.2679 149.8862 "/>
<path d="M191.0298 120.9584 L183.3401 120.9584 "/>
<path d="M219.9576 113.2687 L219.9576 149.8862 "/>
<path d="M183.3401 149.8862 L183.3401 113.2687 "/>
<path d="M191.0298 113.2687 L191.0298 120.9584 "/>
<path d="M183.3401 113.2687 L219.9576 113.2687 "/>
<path d="M185.6941 147.5323 L185.6941 142.1966 "/>
<path d="M212.2679 113.2687 L212.2679 120.9584 "/>
<path d="M217.6036 115.6227 L217.6036 120.9584 "/>
<path d="M191.0298 142.1966 L183.3401 142.1966 "/>
<path d="M212.2679 120.9584 L219.9576 120.9584 "/>
<path d="M219.9576 149.8862 L183.3401 149.8862 "/>
<path d="M185.6941 115.6227 L185.6941 120.9584 "/>
<path d="M212.2679 115.6227 L217.6036 115.6227 "/>
<path d="M191.0298 147.5323 L185.6941 147.5323 "/>
<path d="M191.0298 149.8862 L191.0298 142.1966 "/>
<path d="M212.2679 147.5323 L217.6036 147.5323 "/>
<path d="M185.6941 115.6227 L191.0298 115.6227 "/>
<path d="M219.9576 142.1966 L212.2679 142.1966 "/>
<circle cx="201.6488" cy="131.5775" r="11.3138"/> 
<g>
</g>
<g>
</g>
<g>
</g>
<g>
</g>
<g>
</g>
<g>
</g>
<g>
</g>
<g>
</g>
<g>
</g>
<g>
</g>
<g>
</g>
<g>
</g>
<g>
</g>
<g>
</g>
<g>
</g>
<g>
</g>
<g>
</g>
<g>
</g>
<g>
</g>
<g>
</g>
<g>
</g>
<g>
</g>
<g>
</g>
</g> 
<svg:g><svg:g><svg:title>SVG Image created as ACOMP01-Edge_Cuts.svg date 2023/07/05 11:49:51 </svg:title>
  <svg:desc>Image generated by PCBNEW </svg:desc>
<svg:g style="fill:#C2C200; fill-opacity:1.0000;stroke:#C2C200; stroke-opacity:1.0000; stroke-linecap:round; stroke-linejoin:round;" transform="translate(0 0) scale(1 1)">
</svg:g>
<svg:g style="fill:#C2C200; fill-opacity:0.0;  stroke:#C2C200; stroke-width:0.0000; stroke-opacity:1;  stroke-linecap:round; stroke-linejoin:round;">
</svg:g>
<svg:g style="fill:#C2C200; fill-opacity:0.0;  stroke:#C2C200; stroke-width:0.0664; stroke-opacity:1;  stroke-linecap:round; stroke-linejoin:round;">
<svg:path d="M226.8940 0.0368 L226.8940 209.9704 "/>
<svg:path d="M70.1082 209.9704 L70.1082 0.0368 "/>
<svg:path d="M70.1082 209.9704 L226.8940 209.9704 "/>
<svg:path d="M226.8940 0.0368 L70.1082 0.0368 "/>
<svg:circle cx="201.6488" cy="184.7252" r="8.7185"/> 
<svg:path d="M214.7265 184.7252 L188.5711 184.7252 "/>
<svg:path d="M201.6488 171.6475 L201.6488 197.8029 "/>
<svg:circle cx="201.6488" cy="184.7252" r="8.7185"/> 
<svg:path d="M214.7265 184.7252 L188.5711 184.7252 "/>
<svg:path d="M201.6488 171.6475 L201.6488 197.8029 "/>
<svg:circle cx="201.6488" cy="184.7252" r="8.7185"/> 
<svg:path d="M214.7265 184.7252 L188.5711 184.7252 "/>
<svg:path d="M201.6488 171.6475 L201.6488 197.8029 "/>
<svg:g>
</svg:g>
<svg:g>
</svg:g>
<svg:g>
</svg:g>
<svg:g>
</svg:g>
<svg:g>
</svg:g>
<svg:g>
</svg:g>
<svg:g>
</svg:g>
<svg:g>
</svg:g>
<svg:g>
</svg:g>
<svg:g>
</svg:g>
<svg:g>
</svg:g>
<svg:g>
</svg:g>
<svg:g>
</svg:g>
<svg:g>
</svg:g>
<svg:g>
</svg:g>
<svg:g>
</svg:g>
<svg:g>
</svg:g>
<svg:g>
</svg:g>
<svg:g>
</svg:g>
<svg:g>
</svg:g>
<svg:g>
</svg:g>
<svg:g>
</svg:g>
<svg:g>
</svg:g>
</svg:g> 
</svg:g></svg:g></svg>
