<?xml version='1.0' encoding='ASCII' standalone='yes'?>
<svg xmlns:svg="http://www.w3.org/2000/svg" xmlns="http://www.w3.org/2000/svg" xmlns:xlink="http://www.w3.org/1999/xlink" version="1.1" width="29.700220cm" height="21.000720cm" viewBox="0 0 2970022 2100072">
<title>SVG Picture created as ACOMP01-B_Fab.svg date 2023/04/12 17:50:06 </title>
  <desc>Picture generated by PCBNEW </desc>
<g style="fill:#000084; fill-opacity:1.000000;stroke:#000084; stroke-opacity:1.000000; stroke-linecap:round; stroke-linejoin:round;" transform="translate(0 0) scale(1 1)">
</g>
<g style="fill:#000084; fill-opacity:0.0;  stroke:#000084; stroke-width:0.000000; stroke-opacity:1;  stroke-linecap:round; stroke-linejoin:round;">
</g>
<g style="fill:#000084; fill-opacity:0.0;  stroke:#000084; stroke-width:7846.614871; stroke-opacity:1;  stroke-linecap:round; stroke-linejoin:round;">
<g transform="rotate(-90.000000 1851918.704088 1103183.727864)">
<text x="1851918.704088" y="1129339.110767" transform="scale(-1 1) translate(-3703837.408176 0)" textLength="186365.839077" font-size="69747.670303" lengthAdjust="spacingAndGlyphs" text-anchor="middle" opacity="0.01" style="font-family:monospace">10uF</text>
</g>
<g class="stroked-text"><desc>10uF</desc>
<path d="M1875583 1047136 L1875583 1017244 "/>
<path d="M1875583 1032190 L1823272 1032190 L1830745 1027208 L1835727 1022226 L1838218 1017244 "/>
<path d="M1823272 1079519 L1823272 1084501 L1825763 1089483 L1828254 1091974 L1833236 1094465 L1843200 1096956 L1855655 1096956 L1865619 1094465 L1870601 1091974 L1873092 1089483 L1875583 1084501 L1875583 1079519 L1873092 1074537 L1870601 1072046 L1865619 1069555 L1855655 1067064 L1843200 1067064 L1833236 1069555 L1828254 1072046 L1825763 1074537 L1823272 1079519 "/>
<path d="M1840709 1141794 L1875583 1141794 "/>
<path d="M1840709 1119375 L1868110 1119375 L1873092 1121866 L1875583 1126848 L1875583 1134321 L1873092 1139303 L1870601 1141794 "/>
<path d="M1848182 1184140 L1848182 1166703 "/>
<path d="M1875583 1166703 L1823272 1166703 L1823272 1191613 "/>
</g></g>
<g style="fill:#000084; fill-opacity:0.0;  stroke:#000084; stroke-width:4184.861264; stroke-opacity:1;  stroke-linecap:round; stroke-linejoin:round;">
<g transform="rotate(-90.000000 1764036.617536 1103183.727864)">
<text x="1764036.617536" y="1116261.419316" transform="scale(-1 1) translate(-3528073.235072 0)" textLength="40864.647139" font-size="34873.808996" lengthAdjust="spacingAndGlyphs" text-anchor="middle" opacity="0.01" style="font-family:monospace">C1</text>
</g>
<g class="stroked-text"><desc>C1</desc>
<path d="M1773377 1098824 L1774623 1097578 L1775868 1093842 L1775868 1091351 L1774623 1087614 L1772132 1085124 L1769641 1083878 L1764659 1082633 L1760922 1082633 L1755940 1083878 L1753449 1085124 L1750958 1087614 L1749713 1091351 L1749713 1093842 L1750958 1097578 L1752204 1098824 "/>
<path d="M1775868 1123734 L1775868 1108788 "/>
<path d="M1775868 1116261 L1749713 1116261 L1753449 1113770 L1755940 1111279 L1757186 1108788 "/>
</g></g>
<g style="fill:#000084; fill-opacity:0.01;  stroke:#000084; stroke-width:7846.614871; stroke-opacity:1;  stroke-linecap:round; stroke-linejoin:round;">
<g transform="rotate(-90.000000 1435001.900624 1050035.989807)">
<text x="1435001.900624" y="1076191.372709" transform="scale(-1 1) translate(-2870003.801249 0)" textLength="527631.283831" font-size="69747.670303" lengthAdjust="spacingAndGlyphs" text-anchor="middle" opacity="0.01" style="font-family:monospace">BZV55C-5,6V</text>
</g>
<g class="stroked-text"><desc>BZV55C-5,6V</desc>
<path d="M1431265 813392 L1433756 820864 L1436247 823355 L1441229 825846 L1448702 825846 L1453684 823355 L1456175 820864 L1458666 815883 L1458666 795955 L1406355 795955 L1406355 813392 L1408846 818373 L1411337 820864 L1416319 823355 L1421301 823355 L1426283 820864 L1428774 818373 L1431265 813392 L1431265 795955 "/>
<path d="M1406355 843283 L1406355 878157 L1458666 843283 L1458666 878157 "/>
<path d="M1406355 890612 L1458666 908049 L1406355 925486 "/>
<path d="M1406355 967833 L1406355 942923 L1431265 940432 L1428774 942923 L1426283 947905 L1426283 960360 L1428774 965342 L1431265 967833 L1436247 970324 L1448702 970324 L1453684 967833 L1456175 965342 L1458666 960360 L1458666 947905 L1456175 942923 L1453684 940432 "/>
<path d="M1406355 1017653 L1406355 992743 L1431265 990252 L1428774 992743 L1426283 997725 L1426283 1010180 L1428774 1015162 L1431265 1017653 L1436247 1020144 L1448702 1020144 L1453684 1017653 L1456175 1015162 L1458666 1010180 L1458666 997725 L1456175 992743 L1453684 990252 "/>
<path d="M1453684 1072454 L1456175 1069963 L1458666 1062490 L1458666 1057508 L1456175 1050035 L1451193 1045053 L1446211 1042562 L1436247 1040071 L1428774 1040071 L1418810 1042562 L1413828 1045053 L1408846 1050035 L1406355 1057508 L1406355 1062490 L1408846 1069963 L1411337 1072454 "/>
<path d="M1438738 1094873 L1438738 1134729 "/>
<path d="M1406355 1184549 L1406355 1159639 L1431265 1157148 L1428774 1159639 L1426283 1164621 L1426283 1177076 L1428774 1182058 L1431265 1184549 L1436247 1187040 L1448702 1187040 L1453684 1184549 L1456175 1182058 L1458666 1177076 L1458666 1164621 L1456175 1159639 L1453684 1157148 "/>
<path d="M1456175 1211950 L1458666 1211950 L1463648 1209459 L1466139 1206968 "/>
<path d="M1406355 1256788 L1406355 1246824 L1408846 1241842 L1411337 1239351 L1418810 1234369 L1428774 1231878 L1448702 1231878 L1453684 1234369 L1456175 1236860 L1458666 1241842 L1458666 1251806 L1456175 1256788 L1453684 1259279 L1448702 1261770 L1436247 1261770 L1431265 1259279 L1428774 1256788 L1426283 1251806 L1426283 1241842 L1428774 1236860 L1431265 1234369 L1436247 1231878 "/>
<path d="M1406355 1276715 L1458666 1294152 L1406355 1311589 "/>
</g><g transform="rotate(-90.000000 1168216.995021 1050035.989807)">
<text x="1168216.995021" y="1076191.372709" transform="scale(-1 1) translate(-2336433.990041 0)" textLength="91929.945921" font-size="69747.670303" lengthAdjust="spacingAndGlyphs" text-anchor="middle" opacity="0.01" style="font-family:monospace">D1</text>
</g>
<g class="stroked-text"><desc>D1</desc>
<path d="M1191881 1011425 L1139570 1011425 L1139570 1023880 L1142061 1031353 L1147043 1036335 L1152025 1038826 L1161989 1041317 L1169462 1041317 L1179426 1038826 L1184408 1036335 L1189390 1031353 L1191881 1023880 L1191881 1011425 "/>
<path d="M1191881 1091137 L1191881 1061245 "/>
<path d="M1191881 1076191 L1139570 1076191 L1147043 1071209 L1152025 1066227 L1154516 1061245 "/>
</g><text x="1365428.582104" y="885047.834459" transform="scale(-1 1) translate(-2730857.164208 0)" textLength="231425.338837" font-size="69747.670303" lengthAdjust="spacingAndGlyphs" text-anchor="middle" opacity="0.01" style="font-family:monospace">100nF</text>
<g class="stroked-text"><desc>100nF</desc>
<path d="M1446385 882556 L1476277 882556 "/>
<path d="M1461331 882556 L1461331 830246 L1466313 837719 L1471295 842701 L1476277 845192 "/>
<path d="M1414002 830246 L1409020 830246 L1404038 832737 L1401547 835228 L1399056 840210 L1396565 850173 L1396565 862628 L1399056 872592 L1401547 877574 L1404038 880065 L1409020 882556 L1414002 882556 L1418984 880065 L1421475 877574 L1423966 872592 L1426457 862628 L1426457 850173 L1423966 840210 L1421475 835228 L1418984 832737 L1414002 830246 "/>
<path d="M1364183 830246 L1359201 830246 L1354219 832737 L1351728 835228 L1349237 840210 L1346746 850173 L1346746 862628 L1349237 872592 L1351728 877574 L1354219 880065 L1359201 882556 L1364183 882556 L1369165 880065 L1371656 877574 L1374147 872592 L1376637 862628 L1376637 850173 L1374147 840210 L1371656 835228 L1369165 832737 L1364183 830246 "/>
<path d="M1324327 847682 L1324327 882556 "/>
<path d="M1324327 852664 L1321836 850173 L1316854 847682 L1309381 847682 L1304399 850173 L1301908 855155 L1301908 882556 "/>
<path d="M1259561 855155 L1276998 855155 "/>
<path d="M1276998 882556 L1276998 830246 L1252088 830246 "/>
</g></g>
<g style="fill:#000084; fill-opacity:0.01;  stroke:#000084; stroke-width:4184.861264; stroke-opacity:1;  stroke-linecap:round; stroke-linejoin:round;">
<text x="1365428.582104" y="784088.056456" transform="scale(-1 1) translate(-2730857.164208 0)" textLength="40864.647139" font-size="34873.808996" lengthAdjust="spacingAndGlyphs" text-anchor="middle" opacity="0.01" style="font-family:monospace">C4</text>
<g class="stroked-text"><desc>C4</desc>
<path d="M1369787 780351 L1371033 781597 L1374769 782842 L1377260 782842 L1380997 781597 L1383488 779106 L1384733 776615 L1385979 771633 L1385979 767896 L1384733 762914 L1383488 760423 L1380997 757932 L1377260 756687 L1374769 756687 L1371033 757932 L1369787 759178 "/>
<path d="M1347368 765405 L1347368 782842 "/>
<path d="M1353596 755441 L1359823 774124 L1343632 774124 "/>
</g></g>
<g style="fill:#000084; fill-opacity:0.01;  stroke:#000084; stroke-width:7846.614871; stroke-opacity:1;  stroke-linecap:round; stroke-linejoin:round;">
<text x="1471724.058219" y="1254047.976445" transform="scale(-1 1) translate(-2943448.116439 0)" textLength="236185.618525" font-size="69747.670303" lengthAdjust="spacingAndGlyphs" text-anchor="middle" opacity="0.01" style="font-family:monospace">100nF</text>
<g class="stroked-text"><desc>100nF</desc>
<path d="M1552681 1251556 L1582573 1251556 "/>
<path d="M1567627 1251556 L1567627 1199246 L1572609 1206719 L1577591 1211701 L1582573 1214192 "/>
<path d="M1520298 1199246 L1515316 1199246 L1510334 1201737 L1507843 1204228 L1505352 1209210 L1502861 1219174 L1502861 1231629 L1505352 1241592 L1507843 1246574 L1510334 1249065 L1515316 1251556 L1520298 1251556 L1525280 1249065 L1527771 1246574 L1530262 1241592 L1532753 1231629 L1532753 1219174 L1530262 1209210 L1527771 1204228 L1525280 1201737 L1520298 1199246 "/>
<path d="M1470478 1199246 L1465496 1199246 L1460514 1201737 L1458023 1204228 L1455532 1209210 L1453041 1219174 L1453041 1231629 L1455532 1241592 L1458023 1246574 L1460514 1249065 L1465496 1251556 L1470478 1251556 L1475460 1249065 L1477951 1246574 L1480442 1241592 L1482933 1231629 L1482933 1219174 L1480442 1209210 L1477951 1204228 L1475460 1201737 L1470478 1199246 "/>
<path d="M1430622 1216683 L1430622 1251556 "/>
<path d="M1430622 1221665 L1428131 1219174 L1423149 1216683 L1415676 1216683 L1410694 1219174 L1408203 1224156 L1408203 1251556 "/>
<path d="M1365857 1224156 L1383293 1224156 "/>
<path d="M1383293 1251556 L1383293 1199246 L1358384 1199246 "/>
</g></g>
<g style="fill:#000084; fill-opacity:0.01;  stroke:#000084; stroke-width:4184.861264; stroke-opacity:1;  stroke-linecap:round; stroke-linejoin:round;">
<text x="1471724.058219" y="1328852.371546" transform="scale(-1 1) translate(-2943448.116439 0)" textLength="40864.647139" font-size="34873.808996" lengthAdjust="spacingAndGlyphs" text-anchor="middle" opacity="0.01" style="font-family:monospace">C3</text>
<g class="stroked-text"><desc>C3</desc>
<path d="M1476083 1325115 L1477328 1326361 L1481065 1327606 L1483556 1327606 L1487292 1326361 L1489783 1323870 L1491029 1321379 L1492274 1316397 L1492274 1312660 L1491029 1307678 L1489783 1305187 L1487292 1302696 L1483556 1301451 L1481065 1301451 L1477328 1302696 L1476083 1303942 "/>
<path d="M1467364 1301451 L1451173 1301451 L1459891 1311415 L1456155 1311415 L1453664 1312660 L1452418 1313906 L1451173 1316397 L1451173 1322624 L1452418 1325115 L1453664 1326361 L1456155 1327606 L1463628 1327606 L1466119 1326361 L1467364 1325115 "/>
</g></g>
<g style="fill:#000084; fill-opacity:0.0;  stroke:#000084; stroke-width:7846.614871; stroke-opacity:1;  stroke-linecap:round; stroke-linejoin:round;">
<g transform="rotate(-90.000000 1732200.285467 784297.299519)">
<text x="1732200.285467" y="810452.682421" transform="scale(-1 1) translate(-3464400.570935 0)" textLength="146510.005057" font-size="69747.670303" lengthAdjust="spacingAndGlyphs" text-anchor="middle" opacity="0.01" style="font-family:monospace">DNF</text>
</g>
<g class="stroked-text"><desc>DNF</desc>
<path d="M1755864 720777 L1703553 720777 L1703553 733232 L1706044 740704 L1711026 745686 L1716008 748177 L1725972 750668 L1733445 750668 L1743409 748177 L1748391 745686 L1753373 740704 L1755864 733232 L1755864 720777 "/>
<path d="M1755864 773087 L1703553 773087 L1755864 802979 L1703553 802979 "/>
<path d="M1728463 845326 L1728463 827889 "/>
<path d="M1755864 827889 L1703553 827889 L1703553 852799 "/>
</g></g>
<g style="fill:#000084; fill-opacity:0.0;  stroke:#000084; stroke-width:4184.861264; stroke-opacity:1;  stroke-linecap:round; stroke-linejoin:round;">
<g transform="rotate(-90.000000 1818513.049045 784297.299519)">
<text x="1818513.049045" y="797374.990970" transform="scale(-1 1) translate(-3637026.098090 0)" textLength="40864.647139" font-size="34873.808996" lengthAdjust="spacingAndGlyphs" text-anchor="middle" opacity="0.01" style="font-family:monospace">R2</text>
</g>
<g class="stroked-text"><desc>R2</desc>
<path d="M1830345 779938 L1817890 771219 "/>
<path d="M1830345 764992 L1804189 764992 L1804189 774956 L1805435 777447 L1806680 778692 L1809171 779938 L1812908 779938 L1815399 778692 L1816644 777447 L1817890 774956 L1817890 764992 "/>
<path d="M1806680 789901 L1805435 791147 L1804189 793638 L1804189 799865 L1805435 802356 L1806680 803602 L1809171 804847 L1811662 804847 L1815399 803602 L1830345 788656 L1830345 804847 "/>
</g></g>
<g style="fill:#000084; fill-opacity:0.01;  stroke:#000084; stroke-width:7846.614871; stroke-opacity:1;  stroke-linecap:round; stroke-linejoin:round;">
<text x="1551445.665306" y="709283.661355" transform="scale(-1 1) translate(-3102891.330612 0)" textLength="136546.059629" font-size="69747.670303" lengthAdjust="spacingAndGlyphs" text-anchor="middle" opacity="0.01" style="font-family:monospace">1uF</text>
<g class="stroked-text"><desc>1uF</desc>
<path d="M1582583 706792 L1612474 706792 "/>
<path d="M1597528 706792 L1597528 654481 L1602510 661954 L1607492 666936 L1612474 669427 "/>
<path d="M1537745 671918 L1537745 706792 "/>
<path d="M1560164 671918 L1560164 699319 L1557673 704301 L1552691 706792 L1545218 706792 L1540236 704301 L1537745 701810 "/>
<path d="M1495398 679391 L1512835 679391 "/>
<path d="M1512835 706792 L1512835 654481 L1487925 654481 "/>
</g></g>
<g style="fill:#000084; fill-opacity:0.01;  stroke:#000084; stroke-width:4184.861264; stroke-opacity:1;  stroke-linecap:round; stroke-linejoin:round;">
<text x="1551445.665306" y="784088.056456" transform="scale(-1 1) translate(-3102891.330612 0)" textLength="40864.647139" font-size="34873.808996" lengthAdjust="spacingAndGlyphs" text-anchor="middle" opacity="0.01" style="font-family:monospace">C2</text>
<g class="stroked-text"><desc>C2</desc>
<path d="M1555804 780351 L1557050 781597 L1560786 782842 L1563277 782842 L1567014 781597 L1569505 779106 L1570750 776615 L1571996 771633 L1571996 767896 L1570750 762914 L1569505 760423 L1567014 757932 L1563277 756687 L1560786 756687 L1557050 757932 L1555804 759178 "/>
<path d="M1545840 759178 L1544595 757932 L1542104 756687 L1535876 756687 L1533385 757932 L1532140 759178 L1530894 761669 L1530894 764160 L1532140 767896 L1547086 782842 L1530894 782842 "/>
</g></g>
<g style="fill:#000084; fill-opacity:0.0;  stroke:#000084; stroke-width:7846.614871; stroke-opacity:1;  stroke-linecap:round; stroke-linejoin:round;">
<g transform="rotate(-90.000000 1279450.607428 1473889.200816)">
<text x="1279450.607428" y="1500044.583718" transform="scale(-1 1) translate(-2558901.214855 0)" textLength="530122.270188" font-size="69747.670303" lengthAdjust="spacingAndGlyphs" text-anchor="middle" opacity="0.01" style="font-family:monospace">TLV3604DCKR</text>
</g>
<g class="stroked-text"><desc>TLV3604DCKR</desc>
<path d="M1250804 1211089 L1250804 1240981 "/>
<path d="M1303114 1226035 L1250804 1226035 "/>
<path d="M1303114 1283328 L1303114 1258418 L1250804 1258418 "/>
<path d="M1250804 1293292 L1303114 1310729 L1250804 1328166 "/>
<path d="M1250804 1340621 L1250804 1373004 L1270732 1355567 L1270732 1363040 L1273223 1368022 L1275714 1370513 L1280696 1373004 L1293151 1373004 L1298132 1370513 L1300623 1368022 L1303114 1363040 L1303114 1348094 L1300623 1343112 L1298132 1340621 "/>
<path d="M1250804 1417841 L1250804 1407877 L1253295 1402896 L1255786 1400405 L1263259 1395423 L1273223 1392932 L1293151 1392932 L1298132 1395423 L1300623 1397914 L1303114 1402896 L1303114 1412859 L1300623 1417841 L1298132 1420332 L1293151 1422823 L1280696 1422823 L1275714 1420332 L1273223 1417841 L1270732 1412859 L1270732 1402896 L1273223 1397914 L1275714 1395423 L1280696 1392932 "/>
<path d="M1250804 1455206 L1250804 1460188 L1253295 1465170 L1255786 1467661 L1260768 1470152 L1270732 1472643 L1283187 1472643 L1293151 1470152 L1298132 1467661 L1300623 1465170 L1303114 1460188 L1303114 1455206 L1300623 1450224 L1298132 1447733 L1293151 1445242 L1283187 1442751 L1270732 1442751 L1260768 1445242 L1255786 1447733 L1253295 1450224 L1250804 1455206 "/>
<path d="M1268241 1517481 L1303114 1517481 "/>
<path d="M1248313 1505026 L1285678 1492571 L1285678 1524954 "/>
<path d="M1303114 1544882 L1250804 1544882 L1250804 1557337 L1253295 1564810 L1258277 1569792 L1263259 1572283 L1273223 1574774 L1280696 1574774 L1290660 1572283 L1295641 1569792 L1300623 1564810 L1303114 1557337 L1303114 1544882 "/>
<path d="M1298132 1627084 L1300623 1624594 L1303114 1617121 L1303114 1612139 L1300623 1604666 L1295641 1599684 L1290660 1597193 L1280696 1594702 L1273223 1594702 L1263259 1597193 L1258277 1599684 L1253295 1604666 L1250804 1612139 L1250804 1617121 L1253295 1624594 L1255786 1627084 "/>
<path d="M1303114 1649503 L1250804 1649503 "/>
<path d="M1303114 1679395 L1273223 1656976 "/>
<path d="M1250804 1679395 L1280696 1649503 "/>
<path d="M1303114 1731706 L1278205 1714269 "/>
<path d="M1303114 1701814 L1250804 1701814 L1250804 1721742 L1253295 1726724 L1255786 1729215 L1260768 1731706 L1268241 1731706 L1273223 1729215 L1275714 1726724 L1278205 1721742 L1278205 1701814 "/>
</g></g>
<g style="fill:#000084; fill-opacity:0.01;  stroke:#000084; stroke-width:3923.307435; stroke-opacity:1;  stroke-linecap:round; stroke-linejoin:round;">
<text x="1386687.677327" y="1486966.892267" transform="scale(-1 1) translate(-2773375.354655 0)" textLength="53319.631234" font-size="34873.808996" lengthAdjust="spacingAndGlyphs" text-anchor="middle" opacity="0.01" style="font-family:monospace">IC1</text>
<g class="stroked-text"><desc>IC1</desc>
<path d="M1412220 1485721 L1412220 1459565 "/>
<path d="M1384819 1483230 L1386064 1484475 L1389801 1485721 L1392292 1485721 L1396028 1484475 L1398519 1481984 L1399765 1479493 L1401010 1474511 L1401010 1470775 L1399765 1465793 L1398519 1463302 L1396028 1460811 L1392292 1459565 L1389801 1459565 L1386064 1460811 L1384819 1462056 "/>
<path d="M1359909 1485721 L1374855 1485721 "/>
<path d="M1367382 1485721 L1367382 1459565 L1369873 1463302 L1372364 1465793 L1374855 1467038 "/>
</g></g>
<g style="fill:#000084; fill-opacity:0.0;  stroke:#000084; stroke-width:7846.614871; stroke-opacity:1;  stroke-linecap:round; stroke-linejoin:round;">
<g transform="rotate(-90.000000 1732200.285467 1315774.680095)">
<text x="1732200.285467" y="1341930.062997" transform="scale(-1 1) translate(-3464400.570935 0)" textLength="146850.025034" font-size="69747.670303" lengthAdjust="spacingAndGlyphs" text-anchor="middle" opacity="0.01" style="font-family:monospace">DNF</text>
</g>
<g class="stroked-text"><desc>DNF</desc>
<path d="M1755864 1252254 L1703553 1252254 L1703553 1264709 L1706044 1272182 L1711026 1277164 L1716008 1279655 L1725972 1282146 L1733445 1282146 L1743409 1279655 L1748391 1277164 L1753373 1272182 L1755864 1264709 L1755864 1252254 "/>
<path d="M1755864 1304565 L1703553 1304565 L1755864 1334457 L1703553 1334457 "/>
<path d="M1728463 1376803 L1728463 1359366 "/>
<path d="M1755864 1359366 L1703553 1359366 L1703553 1384276 "/>
</g></g>
<g style="fill:#000084; fill-opacity:0.0;  stroke:#000084; stroke-width:4184.861264; stroke-opacity:1;  stroke-linecap:round; stroke-linejoin:round;">
<g transform="rotate(-90.000000 1818513.049045 1315774.680095)">
<text x="1818513.049045" y="1328852.371546" transform="scale(-1 1) translate(-3637026.098090 0)" textLength="40864.647139" font-size="34873.808996" lengthAdjust="spacingAndGlyphs" text-anchor="middle" opacity="0.01" style="font-family:monospace">R1</text>
</g>
<g class="stroked-text"><desc>R1</desc>
<path d="M1830345 1311415 L1817890 1302696 "/>
<path d="M1830345 1296469 L1804189 1296469 L1804189 1306433 L1805435 1308924 L1806680 1310169 L1809171 1311415 L1812908 1311415 L1815399 1310169 L1816644 1308924 L1817890 1306433 L1817890 1296469 "/>
<path d="M1830345 1336325 L1830345 1321379 "/>
<path d="M1830345 1328852 L1804189 1328852 L1807926 1326361 L1810417 1323870 L1811662 1321379 "/>
</g></g>
<g style="fill:#000084; fill-opacity:0.0;  stroke:#000084; stroke-width:5231.076580; stroke-opacity:1;  stroke-linecap:round; stroke-linejoin:round;">
<path d="M1796730 1155494 L1796730 1050872 "/>
<path d="M1731342 1050872 L1731342 1155494 "/>
<path d="M1796730 1050872 L1731342 1050872 "/>
<path d="M1731342 1155494 L1796730 1155494 "/>
<path d="M1377460 929721 L1220527 929721 "/>
<path d="M1220527 1170350 L1377460 1170350 "/>
<path d="M1338243 1076253 L1257193 1076253 "/>
<path d="M1299047 1016063 L1257193 1076253 "/>
<path d="M1220527 1170350 L1220527 929721 "/>
<path d="M1299047 1076253 L1299047 1128470 "/>
<path d="M1299047 1016063 L1338243 1076253 "/>
<path d="M1299047 1016063 L1299047 968894 "/>
<path d="M1377460 1170350 L1377460 929721 "/>
<path d="M1257193 1016063 L1340901 1016063 "/>
<path d="M1417739 738316 L1313117 738316 "/>
<path d="M1313117 803704 L1417739 803704 "/>
<path d="M1313117 738316 L1313117 803704 "/>
<path d="M1417739 803704 L1417739 738316 "/>
<path d="M1524034 1348468 L1524034 1283080 "/>
<path d="M1419413 1348468 L1524034 1348468 "/>
<path d="M1524034 1283080 L1419413 1283080 "/>
<path d="M1419413 1283080 L1419413 1348468 "/>
<path d="M1851207 731986 L1785818 731986 "/>
<path d="M1785818 731986 L1785818 836608 "/>
<path d="M1785818 836608 L1851207 836608 "/>
<path d="M1851207 836608 L1851207 731986 "/>
<path d="M1603756 803704 L1603756 738316 "/>
<path d="M1499134 738316 L1499134 803704 "/>
<path d="M1499134 803704 L1603756 803704 "/>
<path d="M1603756 738316 L1499134 738316 "/>
<path d="M1418074 1509198 L1329145 1509198 "/>
<path d="M1444229 1438579 L1329145 1438579 "/>
<path d="M1444229 1483043 L1418074 1509198 "/>
<path d="M1444229 1438579 L1444229 1483043 "/>
<path d="M1329145 1438579 L1329145 1509198 "/>
<path d="M1785818 1368085 L1851207 1368085 "/>
<path d="M1851207 1368085 L1851207 1263463 "/>
<path d="M1851207 1263463 L1785818 1263463 "/>
<path d="M1785818 1263463 L1785818 1368085 "/>
<g>
</g>
<g>
</g>
<g>
</g>
<g>
</g>
<g>
</g>
<g>
</g>
<g>
</g>
<g>
</g>
<g>
</g>
<g>
</g>
<g>
</g>
<g>
</g>
<g>
</g>
<g>
</g>
<g>
</g>
<g>
</g>
<g>
</g>
<g>
</g>
<g>
</g>
<g>
</g>
<g>
</g>
<g>
</g>
<g>
</g>
</g> 
<svg:g><svg:g><svg:title>SVG Picture created as ACOMP01-Edge_Cuts.svg date 2023/04/12 17:50:06 </svg:title>
  <svg:desc>Picture generated by PCBNEW </svg:desc>
<svg:g style="fill:#C2C200; fill-opacity:1.000000;stroke:#C2C200; stroke-opacity:1.000000; stroke-linecap:round; stroke-linejoin:round;" transform="translate(0 0) scale(1 1)">
</svg:g>
<svg:g style="fill:#C2C200; fill-opacity:0.0;  stroke:#C2C200; stroke-width:0.000000; stroke-opacity:1;  stroke-linecap:round; stroke-linejoin:round;">
</svg:g>
<svg:g style="fill:#C2C200; fill-opacity:0.0;  stroke:#C2C200; stroke-width:664.346726; stroke-opacity:1;  stroke-linecap:round; stroke-linejoin:round;">
<svg:path d="M701081 368 L701081 2099703 "/>
<svg:path d="M2268940 2099703 L2268940 368 "/>
<svg:path d="M2268940 2099703 L701081 2099703 "/>
<svg:path d="M701081 368 L2268940 368 "/>
<svg:circle cx="953533.612158" cy="1847252.060671" r="87184.574801"/> 
<svg:path d="M822756 1847252 L1084310 1847252 "/>
<svg:path d="M953533 1716475 L953533 1978028 "/>
<svg:circle cx="953533.612158" cy="1847252.060671" r="87184.574801"/> 
<svg:path d="M822756 1847252 L1084310 1847252 "/>
<svg:path d="M953533 1716475 L953533 1978028 "/>
<svg:circle cx="953533.612158" cy="1847252.060671" r="87184.574801"/> 
<svg:path d="M822756 1847252 L1084310 1847252 "/>
<svg:path d="M953533 1716475 L953533 1978028 "/>
<svg:g>
</svg:g>
<svg:g>
</svg:g>
<svg:g>
</svg:g>
<svg:g>
</svg:g>
<svg:g>
</svg:g>
<svg:g>
</svg:g>
<svg:g>
</svg:g>
<svg:g>
</svg:g>
<svg:g>
</svg:g>
<svg:g>
</svg:g>
<svg:g>
</svg:g>
<svg:g>
</svg:g>
<svg:g>
</svg:g>
<svg:g>
</svg:g>
<svg:g>
</svg:g>
<svg:g>
</svg:g>
<svg:g>
</svg:g>
<svg:g>
</svg:g>
<svg:g>
</svg:g>
<svg:g>
</svg:g>
<svg:g>
</svg:g>
<svg:g>
</svg:g>
<svg:g>
</svg:g>
</svg:g> 
</svg:g></svg:g></svg>
