<?xml version='1.0' encoding='ASCII' standalone='yes'?>
<svg xmlns:svg="http://www.w3.org/2000/svg" xmlns="http://www.w3.org/2000/svg" xmlns:xlink="http://www.w3.org/1999/xlink" version="1.1" width="29.700220cm" height="21.000720cm" viewBox="0 0 2970022 2100072">
<title>SVG Picture created as ACOMP01-F_Fab.svg date 2023/06/09 21:36:31 </title>
  <desc>Picture generated by PCBNEW </desc>
<g style="fill:#848484; fill-opacity:1.000000;stroke:#848484; stroke-opacity:1.000000; stroke-linecap:round; stroke-linejoin:round;" transform="translate(0 0) scale(1 1)">
</g>
<g style="fill:#848484; fill-opacity:0.0;  stroke:#848484; stroke-width:0.000000; stroke-opacity:1;  stroke-linecap:round; stroke-linejoin:round;">
</g>
<g style="fill:#848484; fill-opacity:0.01;  stroke:#848484; stroke-width:7846.614871; stroke-opacity:1;  stroke-linecap:round; stroke-linejoin:round;">
<text x="1485011.007266" y="1880469.396957" textLength="119328.337240" font-size="88579.545992" lengthAdjust="spacingAndGlyphs" text-anchor="middle" opacity="0.01" style="font-family:monospace">J2</text>
<g class="stroked-text"><desc>J2</desc>
<path d="M1507155 1810871 L1507155 1858324 L1510319 1867815 L1516646 1874142 L1526137 1877305 L1532464 1877305 "/>
<path d="M1478683 1817198 L1475520 1814034 L1469193 1810871 L1453375 1810871 L1447048 1814034 L1443884 1817198 L1440721 1823525 L1440721 1829852 L1443884 1839343 L1481847 1877305 L1440721 1877305 "/>
</g><text x="2016488.387842" y="817514.635805" textLength="124088.616928" font-size="88579.545992" lengthAdjust="spacingAndGlyphs" text-anchor="middle" opacity="0.01" style="font-family:monospace">J4</text>
<g class="stroked-text"><desc>J4</desc>
<path d="M2038633 747916 L2038633 795369 L2041796 804860 L2048123 811187 L2057614 814351 L2063941 814351 "/>
<path d="M1978525 770061 L1978525 814351 "/>
<path d="M1994343 744752 L2010161 792206 L1969035 792206 "/>
</g><text x="1485011.007266" y="286037.255229" textLength="124088.616928" font-size="88579.545992" lengthAdjust="spacingAndGlyphs" text-anchor="middle" opacity="0.01" style="font-family:monospace">J5</text>
<g class="stroked-text"><desc>J5</desc>
<path d="M1507155 216438 L1507155 263892 L1510319 273383 L1516646 279710 L1526137 282873 L1532464 282873 "/>
<path d="M1443884 216438 L1475520 216438 L1478683 248074 L1475520 244911 L1469193 241747 L1453375 241747 L1447048 244911 L1443884 248074 L1440721 254401 L1440721 270219 L1443884 276546 L1447048 279710 L1453375 282873 L1469193 282873 L1475520 279710 L1478683 276546 "/>
</g><text x="2016488.387842" y="1348992.016381" textLength="124088.616928" font-size="88579.545992" lengthAdjust="spacingAndGlyphs" text-anchor="middle" opacity="0.01" style="font-family:monospace">J3</text>
<g class="stroked-text"><desc>J3</desc>
<path d="M2038633 1279393 L2038633 1326847 L2041796 1336337 L2048123 1342664 L2057614 1345828 L2063941 1345828 "/>
<path d="M2013324 1279393 L1972198 1279393 L1994343 1304702 L1984852 1304702 L1978525 1307865 L1975362 1311029 L1972198 1317356 L1972198 1333174 L1975362 1339501 L1978525 1342664 L1984852 1345828 L2003834 1345828 L2010161 1342664 L2013324 1339501 "/>
</g></g>
<g style="fill:#848484; fill-opacity:0.0;  stroke:#848484; stroke-width:19930.401772; stroke-opacity:1;  stroke-linecap:round; stroke-linejoin:round;">
<circle cx="2016488.387842" cy="252819.918943" r="156918.696615"/> 
<circle cx="953533.626690" cy="1847252.060671" r="156918.696615"/> 
</g>
<g style="fill:#848484; fill-opacity:0.0;  stroke:#848484; stroke-width:7846.614871; stroke-opacity:1;  stroke-linecap:round; stroke-linejoin:round;">
<path d="M1668098 1664164 L1668098 2030339 "/>
<path d="M1378820 2006799 L1325463 2006799 "/>
<path d="M1668098 1953442 L1591201 1953442 "/>
<path d="M1325463 1687704 L1378820 1687704 "/>
<path d="M1301923 2030339 L1301923 1664164 "/>
<path d="M1301923 1664164 L1668098 1664164 "/>
<path d="M1325463 2006799 L1325463 1953442 "/>
<path d="M1644558 1687704 L1644558 1741061 "/>
<path d="M1644558 2006799 L1644558 1953442 "/>
<path d="M1378820 1953442 L1301923 1953442 "/>
<path d="M1325463 1687704 L1325463 1741061 "/>
<path d="M1378820 2030339 L1378820 1953442 "/>
<path d="M1668098 2030339 L1301923 2030339 "/>
<path d="M1591201 2006799 L1644558 2006799 "/>
<path d="M1378820 1741061 L1301923 1741061 "/>
<path d="M1378820 1664164 L1378820 1741061 "/>
<path d="M1591201 1687704 L1644558 1687704 "/>
<path d="M1591201 1953442 L1591201 2030339 "/>
<path d="M1591201 1741061 L1668098 1741061 "/>
<path d="M1591201 1664164 L1591201 1741061 "/>
<circle cx="1485011.007266" cy="1847252.060671" r="113137.671972"/> 
<path d="M1551445 1249340 L1551445 850731 "/>
<path d="M1285706 850731 L1285706 1249340 "/>
<path d="M1285706 1249340 L1551445 1249340 "/>
<path d="M1551445 850731 L1285706 850731 "/>
<path d="M2122679 943845 L2176036 943845 "/>
<path d="M2122679 601209 L2122679 678106 "/>
<path d="M1833400 967384 L1833400 601209 "/>
<path d="M1910297 967384 L1910297 890488 "/>
<path d="M2122679 890488 L2122679 967384 "/>
<path d="M1856940 624749 L1856940 678106 "/>
<path d="M1856940 624749 L1910297 624749 "/>
<path d="M2199576 967384 L1833400 967384 "/>
<path d="M1910297 943845 L1856940 943845 "/>
<path d="M1910297 601209 L1910297 678106 "/>
<path d="M2122679 678106 L2199576 678106 "/>
<path d="M1910297 890488 L1833400 890488 "/>
<path d="M1910297 678106 L1833400 678106 "/>
<path d="M1833400 601209 L2199576 601209 "/>
<path d="M2176036 943845 L2176036 890488 "/>
<path d="M1856940 943845 L1856940 890488 "/>
<path d="M2199576 601209 L2199576 967384 "/>
<path d="M2176036 624749 L2176036 678106 "/>
<path d="M2199576 890488 L2122679 890488 "/>
<path d="M2122679 624749 L2176036 624749 "/>
<circle cx="2016488.387842" cy="784297.299519" r="113137.671972"/> 
</g>
<g style="fill:#848484; fill-opacity:0.0;  stroke:#848484; stroke-width:19930.401772; stroke-opacity:1;  stroke-linecap:round; stroke-linejoin:round;">
<circle cx="2016488.387842" cy="1847252.060671" r="156918.696615"/> 
<circle cx="953533.626690" cy="252819.918943" r="156918.696615"/> 
</g>
<g style="fill:#848484; fill-opacity:0.0;  stroke:#848484; stroke-width:7846.614871; stroke-opacity:1;  stroke-linecap:round; stroke-linejoin:round;">
<path d="M1301923 435907 L1301923 69732 "/>
<path d="M1325463 412367 L1325463 359010 "/>
<path d="M1325463 93272 L1378820 93272 "/>
<path d="M1591201 69732 L1591201 146629 "/>
<path d="M1591201 412367 L1644558 412367 "/>
<path d="M1301923 69732 L1668098 69732 "/>
<path d="M1591201 146629 L1668098 146629 "/>
<path d="M1591201 359010 L1591201 435907 "/>
<path d="M1644558 93272 L1644558 146629 "/>
<path d="M1378820 69732 L1378820 146629 "/>
<path d="M1378820 412367 L1325463 412367 "/>
<path d="M1591201 93272 L1644558 93272 "/>
<path d="M1644558 412367 L1644558 359010 "/>
<path d="M1378820 435907 L1378820 359010 "/>
<path d="M1668098 359010 L1591201 359010 "/>
<path d="M1378820 146629 L1301923 146629 "/>
<path d="M1325463 93272 L1325463 146629 "/>
<path d="M1668098 435907 L1301923 435907 "/>
<path d="M1668098 69732 L1668098 435907 "/>
<path d="M1378820 359010 L1301923 359010 "/>
<circle cx="1485011.007266" cy="252819.918943" r="113137.671972"/> 
<path d="M2176036 1475322 L2176036 1421965 "/>
<path d="M2122679 1421965 L2122679 1498862 "/>
<path d="M1910297 1209583 L1833400 1209583 "/>
<path d="M2199576 1132686 L2199576 1498862 "/>
<path d="M1833400 1498862 L1833400 1132686 "/>
<path d="M1910297 1132686 L1910297 1209583 "/>
<path d="M1833400 1132686 L2199576 1132686 "/>
<path d="M1856940 1475322 L1856940 1421965 "/>
<path d="M2122679 1132686 L2122679 1209583 "/>
<path d="M2176036 1156226 L2176036 1209583 "/>
<path d="M1910297 1421965 L1833400 1421965 "/>
<path d="M2122679 1209583 L2199576 1209583 "/>
<path d="M2199576 1498862 L1833400 1498862 "/>
<path d="M1856940 1156226 L1856940 1209583 "/>
<path d="M2122679 1156226 L2176036 1156226 "/>
<path d="M1910297 1475322 L1856940 1475322 "/>
<path d="M1910297 1498862 L1910297 1421965 "/>
<path d="M2122679 1475322 L2176036 1475322 "/>
<path d="M1856940 1156226 L1910297 1156226 "/>
<path d="M2199576 1421965 L2122679 1421965 "/>
<circle cx="2016488.387842" cy="1315774.680095" r="113137.671972"/> 
<g>
</g>
<g>
</g>
<g>
</g>
<g>
</g>
<g>
</g>
<g>
</g>
<g>
</g>
<g>
</g>
<g>
</g>
<g>
</g>
<g>
</g>
<g>
</g>
<g>
</g>
<g>
</g>
<g>
</g>
<g>
</g>
<g>
</g>
<g>
</g>
<g>
</g>
<g>
</g>
<g>
</g>
<g>
</g>
<g>
</g>
</g> 
<svg:g><svg:g><svg:title>SVG Picture created as ACOMP01-Edge_Cuts.svg date 2023/06/09 21:36:31 </svg:title>
  <svg:desc>Picture generated by PCBNEW </svg:desc>
<svg:g style="fill:#C2C200; fill-opacity:1.000000;stroke:#C2C200; stroke-opacity:1.000000; stroke-linecap:round; stroke-linejoin:round;" transform="translate(0 0) scale(1 1)">
</svg:g>
<svg:g style="fill:#C2C200; fill-opacity:0.0;  stroke:#C2C200; stroke-width:0.000000; stroke-opacity:1;  stroke-linecap:round; stroke-linejoin:round;">
</svg:g>
<svg:g style="fill:#C2C200; fill-opacity:0.0;  stroke:#C2C200; stroke-width:664.346726; stroke-opacity:1;  stroke-linecap:round; stroke-linejoin:round;">
<svg:path d="M2268940 368 L2268940 2099703 "/>
<svg:path d="M701081 2099703 L701081 368 "/>
<svg:path d="M701081 2099703 L2268940 2099703 "/>
<svg:path d="M2268940 368 L701081 368 "/>
<svg:circle cx="2016488.387842" cy="1847252.060671" r="87184.574801"/> 
<svg:path d="M2147265 1847252 L1885711 1847252 "/>
<svg:path d="M2016488 1716475 L2016488 1978028 "/>
<svg:circle cx="2016488.387842" cy="1847252.060671" r="87184.574801"/> 
<svg:path d="M2147265 1847252 L1885711 1847252 "/>
<svg:path d="M2016488 1716475 L2016488 1978028 "/>
<svg:circle cx="2016488.387842" cy="1847252.060671" r="87184.574801"/> 
<svg:path d="M2147265 1847252 L1885711 1847252 "/>
<svg:path d="M2016488 1716475 L2016488 1978028 "/>
<svg:g>
</svg:g>
<svg:g>
</svg:g>
<svg:g>
</svg:g>
<svg:g>
</svg:g>
<svg:g>
</svg:g>
<svg:g>
</svg:g>
<svg:g>
</svg:g>
<svg:g>
</svg:g>
<svg:g>
</svg:g>
<svg:g>
</svg:g>
<svg:g>
</svg:g>
<svg:g>
</svg:g>
<svg:g>
</svg:g>
<svg:g>
</svg:g>
<svg:g>
</svg:g>
<svg:g>
</svg:g>
<svg:g>
</svg:g>
<svg:g>
</svg:g>
<svg:g>
</svg:g>
<svg:g>
</svg:g>
<svg:g>
</svg:g>
<svg:g>
</svg:g>
<svg:g>
</svg:g>
</svg:g> 
</svg:g></svg:g></svg>
