<?xml version='1.0' encoding='ASCII' standalone='yes'?>
<svg xmlns:svg="http://www.w3.org/2000/svg" xmlns="http://www.w3.org/2000/svg" xmlns:xlink="http://www.w3.org/1999/xlink" version="1.1" width="297.0022mm" height="210.0072mm" viewBox="0.0000 0.0000 297.0022 210.0072">
<title>SVG Image created as ACOMP01-B_Fab.svg date 2023/07/05 09:07:55 </title>
  <desc>Image generated by PCBNEW </desc>
<g style="fill:#000084; fill-opacity:1.0000;stroke:#000084; stroke-opacity:1.0000; stroke-linecap:round; stroke-linejoin:round;" transform="translate(0 0) scale(1 1)">
</g>
<g style="fill:#000084; fill-opacity:0.0;  stroke:#000084; stroke-width:0.0000; stroke-opacity:1;  stroke-linecap:round; stroke-linejoin:round;">
</g>
<g style="fill:#000084; fill-opacity:0.0;  stroke:#000084; stroke-width:0.7847; stroke-opacity:1;  stroke-linecap:round; stroke-linejoin:round;">
<g transform="rotate(-90.000000 185.1919 110.3184)">
<text x="185.1919" y="112.9339" transform="scale(-1 1) translate(-370.383741 0)" textLength="20.0961" font-size="6.9748" lengthAdjust="spacingAndGlyphs" text-anchor="middle" opacity="0.01" style="font-family:monospace">10uF</text>
</g>
<g class="stroked-text"><desc>10uF</desc>
<path d="M187.5711 104.7136 L187.5711 101.7245 "/>
<path d="M187.5711 103.2191 L182.3400 103.2191 "/>
<path d="M182.3400 103.2191 L183.0873 102.7209 "/>
<path d="M183.0873 102.7209 L183.5855 102.2227 "/>
<path d="M183.5855 102.2227 L183.8346 101.7245 "/>
<path d="M182.3400 107.9519 L182.3400 108.4501 "/>
<path d="M182.3400 108.4501 L182.5891 108.9483 "/>
<path d="M182.5891 108.9483 L182.8382 109.1974 "/>
<path d="M182.8382 109.1974 L183.3364 109.4465 "/>
<path d="M183.3364 109.4465 L184.3328 109.6956 "/>
<path d="M184.3328 109.6956 L185.5783 109.6956 "/>
<path d="M185.5783 109.6956 L186.5747 109.4465 "/>
<path d="M186.5747 109.4465 L187.0729 109.1974 "/>
<path d="M187.0729 109.1974 L187.3220 108.9483 "/>
<path d="M187.3220 108.9483 L187.5711 108.4501 "/>
<path d="M187.5711 108.4501 L187.5711 107.9519 "/>
<path d="M187.5711 107.9519 L187.3220 107.4537 "/>
<path d="M187.3220 107.4537 L187.0729 107.2046 "/>
<path d="M187.0729 107.2046 L186.5747 106.9555 "/>
<path d="M186.5747 106.9555 L185.5783 106.7064 "/>
<path d="M185.5783 106.7064 L184.3328 106.7064 "/>
<path d="M184.3328 106.7064 L183.3364 106.9555 "/>
<path d="M183.3364 106.9555 L182.8382 107.2046 "/>
<path d="M182.8382 107.2046 L182.5891 107.4537 "/>
<path d="M182.5891 107.4537 L182.3400 107.9519 "/>
<path d="M184.0837 114.1794 L187.5711 114.1794 "/>
<path d="M184.0837 111.9375 L186.8238 111.9375 "/>
<path d="M186.8238 111.9375 L187.3220 112.1866 "/>
<path d="M187.3220 112.1866 L187.5711 112.6848 "/>
<path d="M187.5711 112.6848 L187.5711 113.4321 "/>
<path d="M187.5711 113.4321 L187.3220 113.9303 "/>
<path d="M187.3220 113.9303 L187.0729 114.1794 "/>
<path d="M184.8310 118.4141 L184.8310 116.6704 "/>
<path d="M187.5711 116.6704 L182.3400 116.6704 "/>
<path d="M182.3400 116.6704 L182.3400 119.1614 "/>
</g></g>
<g style="fill:#000084; fill-opacity:0.0;  stroke:#000084; stroke-width:0.4185; stroke-opacity:1;  stroke-linecap:round; stroke-linejoin:round;">
<g transform="rotate(-90.000000 176.4037 110.3184)">
<text x="176.4037" y="111.6261" transform="scale(-1 1) translate(-352.807324 0)" textLength="5.6296" font-size="3.4874" lengthAdjust="spacingAndGlyphs" text-anchor="middle" opacity="0.01" style="font-family:monospace">C1</text>
</g>
<g class="stroked-text"><desc>C1</desc>
<path d="M177.3428 109.8824 L177.4673 109.7579 "/>
<path d="M177.4673 109.7579 L177.5919 109.3842 "/>
<path d="M177.5919 109.3842 L177.5919 109.1352 "/>
<path d="M177.5919 109.1352 L177.4673 108.7615 "/>
<path d="M177.4673 108.7615 L177.2182 108.5124 "/>
<path d="M177.2182 108.5124 L176.9691 108.3879 "/>
<path d="M176.9691 108.3879 L176.4709 108.2633 "/>
<path d="M176.4709 108.2633 L176.0973 108.2633 "/>
<path d="M176.0973 108.2633 L175.5991 108.3879 "/>
<path d="M175.5991 108.3879 L175.3500 108.5124 "/>
<path d="M175.3500 108.5124 L175.1009 108.7615 "/>
<path d="M175.1009 108.7615 L174.9764 109.1352 "/>
<path d="M174.9764 109.1352 L174.9764 109.3842 "/>
<path d="M174.9764 109.3842 L175.1009 109.7579 "/>
<path d="M175.1009 109.7579 L175.2255 109.8824 "/>
<path d="M177.5919 112.3734 L177.5919 110.8788 "/>
<path d="M177.5919 111.6261 L174.9764 111.6261 "/>
<path d="M174.9764 111.6261 L175.3500 111.3770 "/>
<path d="M175.3500 111.3770 L175.5991 111.1279 "/>
<path d="M175.5991 111.1279 L175.7237 110.8788 "/>
</g></g>
<g style="fill:#000084; fill-opacity:0.01;  stroke:#000084; stroke-width:0.7847; stroke-opacity:1;  stroke-linecap:round; stroke-linejoin:round;">
<g transform="rotate(-90.000000 143.5002 105.0036)">
<text x="143.5002" y="107.6191" transform="scale(-1 1) translate(-287.000380 0)" textLength="54.2226" font-size="6.9748" lengthAdjust="spacingAndGlyphs" text-anchor="middle" opacity="0.01" style="font-family:monospace">BZV55C-5,6V</text>
</g>
<g class="stroked-text"><desc>BZV55C-5,6V</desc>
<path d="M143.1393 81.3392 L143.3884 82.0865 "/>
<path d="M143.3884 82.0865 L143.6375 82.3356 "/>
<path d="M143.6375 82.3356 L144.1357 82.5847 "/>
<path d="M144.1357 82.5847 L144.8830 82.5847 "/>
<path d="M144.8830 82.5847 L145.3812 82.3356 "/>
<path d="M145.3812 82.3356 L145.6303 82.0865 "/>
<path d="M145.6303 82.0865 L145.8794 81.5883 "/>
<path d="M145.8794 81.5883 L145.8794 79.5955 "/>
<path d="M145.8794 79.5955 L140.6483 79.5955 "/>
<path d="M140.6483 79.5955 L140.6483 81.3392 "/>
<path d="M140.6483 81.3392 L140.8974 81.8374 "/>
<path d="M140.8974 81.8374 L141.1465 82.0865 "/>
<path d="M141.1465 82.0865 L141.6447 82.3356 "/>
<path d="M141.6447 82.3356 L142.1429 82.3356 "/>
<path d="M142.1429 82.3356 L142.6411 82.0865 "/>
<path d="M142.6411 82.0865 L142.8902 81.8374 "/>
<path d="M142.8902 81.8374 L143.1393 81.3392 "/>
<path d="M143.1393 81.3392 L143.1393 79.5955 "/>
<path d="M140.6483 84.3284 L140.6483 87.8158 "/>
<path d="M140.6483 87.8158 L145.8794 84.3284 "/>
<path d="M145.8794 84.3284 L145.8794 87.8158 "/>
<path d="M140.6483 89.0613 L145.8794 90.8050 "/>
<path d="M145.8794 90.8050 L140.6483 92.5487 "/>
<path d="M140.6483 96.7833 L140.6483 94.2923 "/>
<path d="M140.6483 94.2923 L143.1393 94.0432 "/>
<path d="M143.1393 94.0432 L142.8902 94.2923 "/>
<path d="M142.8902 94.2923 L142.6411 94.7905 "/>
<path d="M142.6411 94.7905 L142.6411 96.0360 "/>
<path d="M142.6411 96.0360 L142.8902 96.5342 "/>
<path d="M142.8902 96.5342 L143.1393 96.7833 "/>
<path d="M143.1393 96.7833 L143.6375 97.0324 "/>
<path d="M143.6375 97.0324 L144.8830 97.0324 "/>
<path d="M144.8830 97.0324 L145.3812 96.7833 "/>
<path d="M145.3812 96.7833 L145.6303 96.5342 "/>
<path d="M145.6303 96.5342 L145.8794 96.0360 "/>
<path d="M145.8794 96.0360 L145.8794 94.7905 "/>
<path d="M145.8794 94.7905 L145.6303 94.2923 "/>
<path d="M145.6303 94.2923 L145.3812 94.0432 "/>
<path d="M140.6483 101.7653 L140.6483 99.2743 "/>
<path d="M140.6483 99.2743 L143.1393 99.0252 "/>
<path d="M143.1393 99.0252 L142.8902 99.2743 "/>
<path d="M142.8902 99.2743 L142.6411 99.7725 "/>
<path d="M142.6411 99.7725 L142.6411 101.0180 "/>
<path d="M142.6411 101.0180 L142.8902 101.5162 "/>
<path d="M142.8902 101.5162 L143.1393 101.7653 "/>
<path d="M143.1393 101.7653 L143.6375 102.0144 "/>
<path d="M143.6375 102.0144 L144.8830 102.0144 "/>
<path d="M144.8830 102.0144 L145.3812 101.7653 "/>
<path d="M145.3812 101.7653 L145.6303 101.5162 "/>
<path d="M145.6303 101.5162 L145.8794 101.0180 "/>
<path d="M145.8794 101.0180 L145.8794 99.7725 "/>
<path d="M145.8794 99.7725 L145.6303 99.2743 "/>
<path d="M145.6303 99.2743 L145.3812 99.0252 "/>
<path d="M145.3812 107.2455 L145.6303 106.9964 "/>
<path d="M145.6303 106.9964 L145.8794 106.2491 "/>
<path d="M145.8794 106.2491 L145.8794 105.7509 "/>
<path d="M145.8794 105.7509 L145.6303 105.0036 "/>
<path d="M145.6303 105.0036 L145.1321 104.5054 "/>
<path d="M145.1321 104.5054 L144.6339 104.2563 "/>
<path d="M144.6339 104.2563 L143.6375 104.0072 "/>
<path d="M143.6375 104.0072 L142.8902 104.0072 "/>
<path d="M142.8902 104.0072 L141.8938 104.2563 "/>
<path d="M141.8938 104.2563 L141.3956 104.5054 "/>
<path d="M141.3956 104.5054 L140.8974 105.0036 "/>
<path d="M140.8974 105.0036 L140.6483 105.7509 "/>
<path d="M140.6483 105.7509 L140.6483 106.2491 "/>
<path d="M140.6483 106.2491 L140.8974 106.9964 "/>
<path d="M140.8974 106.9964 L141.1465 107.2455 "/>
<path d="M143.8866 109.4874 L143.8866 113.4730 "/>
<path d="M140.6483 118.4549 L140.6483 115.9639 "/>
<path d="M140.6483 115.9639 L143.1393 115.7149 "/>
<path d="M143.1393 115.7149 L142.8902 115.9639 "/>
<path d="M142.8902 115.9639 L142.6411 116.4621 "/>
<path d="M142.6411 116.4621 L142.6411 117.7076 "/>
<path d="M142.6411 117.7076 L142.8902 118.2058 "/>
<path d="M142.8902 118.2058 L143.1393 118.4549 "/>
<path d="M143.1393 118.4549 L143.6375 118.7040 "/>
<path d="M143.6375 118.7040 L144.8830 118.7040 "/>
<path d="M144.8830 118.7040 L145.3812 118.4549 "/>
<path d="M145.3812 118.4549 L145.6303 118.2058 "/>
<path d="M145.6303 118.2058 L145.8794 117.7076 "/>
<path d="M145.8794 117.7076 L145.8794 116.4621 "/>
<path d="M145.8794 116.4621 L145.6303 115.9639 "/>
<path d="M145.6303 115.9639 L145.3812 115.7149 "/>
<path d="M145.6303 121.1950 L145.8794 121.1950 "/>
<path d="M145.8794 121.1950 L146.3776 120.9459 "/>
<path d="M146.3776 120.9459 L146.6267 120.6968 "/>
<path d="M140.6483 125.6788 L140.6483 124.6824 "/>
<path d="M140.6483 124.6824 L140.8974 124.1842 "/>
<path d="M140.8974 124.1842 L141.1465 123.9351 "/>
<path d="M141.1465 123.9351 L141.8938 123.4369 "/>
<path d="M141.8938 123.4369 L142.8902 123.1878 "/>
<path d="M142.8902 123.1878 L144.8830 123.1878 "/>
<path d="M144.8830 123.1878 L145.3812 123.4369 "/>
<path d="M145.3812 123.4369 L145.6303 123.6860 "/>
<path d="M145.6303 123.6860 L145.8794 124.1842 "/>
<path d="M145.8794 124.1842 L145.8794 125.1806 "/>
<path d="M145.8794 125.1806 L145.6303 125.6788 "/>
<path d="M145.6303 125.6788 L145.3812 125.9279 "/>
<path d="M145.3812 125.9279 L144.8830 126.1770 "/>
<path d="M144.8830 126.1770 L143.6375 126.1770 "/>
<path d="M143.6375 126.1770 L143.1393 125.9279 "/>
<path d="M143.1393 125.9279 L142.8902 125.6788 "/>
<path d="M142.8902 125.6788 L142.6411 125.1806 "/>
<path d="M142.6411 125.1806 L142.6411 124.1842 "/>
<path d="M142.6411 124.1842 L142.8902 123.6860 "/>
<path d="M142.8902 123.6860 L143.1393 123.4369 "/>
<path d="M143.1393 123.4369 L143.6375 123.1878 "/>
<path d="M140.6483 127.6716 L145.8794 129.4153 "/>
<path d="M145.8794 129.4153 L140.6483 131.1590 "/>
</g><g transform="rotate(-90.000000 116.8217 105.0036)">
<text x="116.8217" y="107.6191" transform="scale(-1 1) translate(-233.643399 0)" textLength="11.1285" font-size="6.9748" lengthAdjust="spacingAndGlyphs" text-anchor="middle" opacity="0.01" style="font-family:monospace">D1</text>
</g>
<g class="stroked-text"><desc>D1</desc>
<path d="M119.2009 101.1426 L113.9698 101.1426 "/>
<path d="M113.9698 101.1426 L113.9698 102.3881 "/>
<path d="M113.9698 102.3881 L114.2189 103.1354 "/>
<path d="M114.2189 103.1354 L114.7171 103.6336 "/>
<path d="M114.7171 103.6336 L115.2153 103.8827 "/>
<path d="M115.2153 103.8827 L116.2117 104.1318 "/>
<path d="M116.2117 104.1318 L116.9590 104.1318 "/>
<path d="M116.9590 104.1318 L117.9554 103.8827 "/>
<path d="M117.9554 103.8827 L118.4536 103.6336 "/>
<path d="M118.4536 103.6336 L118.9518 103.1354 "/>
<path d="M118.9518 103.1354 L119.2009 102.3881 "/>
<path d="M119.2009 102.3881 L119.2009 101.1426 "/>
<path d="M119.2009 109.1137 L119.2009 106.1245 "/>
<path d="M119.2009 107.6191 L113.9698 107.6191 "/>
<path d="M113.9698 107.6191 L114.7171 107.1209 "/>
<path d="M114.7171 107.1209 L115.2153 106.6227 "/>
<path d="M115.2153 106.6227 L115.4644 106.1245 "/>
</g><text x="136.5429" y="88.5048" transform="scale(-1 1) translate(-273.085716 0)" textLength="25.0780" font-size="6.9748" lengthAdjust="spacingAndGlyphs" text-anchor="middle" opacity="0.01" style="font-family:monospace">100nF</text>
<g class="stroked-text"><desc>100nF</desc>
<path d="M144.6386 88.2684 L147.6278 88.2684 "/>
<path d="M146.1332 88.2684 L146.1332 83.0374 "/>
<path d="M146.1332 83.0374 L146.6314 83.7847 "/>
<path d="M146.6314 83.7847 L147.1296 84.2829 "/>
<path d="M147.1296 84.2829 L147.6278 84.5320 "/>
<path d="M141.4003 83.0374 L140.9021 83.0374 "/>
<path d="M140.9021 83.0374 L140.4039 83.2865 "/>
<path d="M140.4039 83.2865 L140.1548 83.5356 "/>
<path d="M140.1548 83.5356 L139.9057 84.0338 "/>
<path d="M139.9057 84.0338 L139.6566 85.0302 "/>
<path d="M139.6566 85.0302 L139.6566 86.2756 "/>
<path d="M139.6566 86.2756 L139.9057 87.2720 "/>
<path d="M139.9057 87.2720 L140.1548 87.7702 "/>
<path d="M140.1548 87.7702 L140.4039 88.0193 "/>
<path d="M140.4039 88.0193 L140.9021 88.2684 "/>
<path d="M140.9021 88.2684 L141.4003 88.2684 "/>
<path d="M141.4003 88.2684 L141.8985 88.0193 "/>
<path d="M141.8985 88.0193 L142.1476 87.7702 "/>
<path d="M142.1476 87.7702 L142.3967 87.2720 "/>
<path d="M142.3967 87.2720 L142.6458 86.2756 "/>
<path d="M142.6458 86.2756 L142.6458 85.0302 "/>
<path d="M142.6458 85.0302 L142.3967 84.0338 "/>
<path d="M142.3967 84.0338 L142.1476 83.5356 "/>
<path d="M142.1476 83.5356 L141.8985 83.2865 "/>
<path d="M141.8985 83.2865 L141.4003 83.0374 "/>
<path d="M136.4183 83.0374 L135.9201 83.0374 "/>
<path d="M135.9201 83.0374 L135.4219 83.2865 "/>
<path d="M135.4219 83.2865 L135.1728 83.5356 "/>
<path d="M135.1728 83.5356 L134.9237 84.0338 "/>
<path d="M134.9237 84.0338 L134.6746 85.0302 "/>
<path d="M134.6746 85.0302 L134.6746 86.2756 "/>
<path d="M134.6746 86.2756 L134.9237 87.2720 "/>
<path d="M134.9237 87.2720 L135.1728 87.7702 "/>
<path d="M135.1728 87.7702 L135.4219 88.0193 "/>
<path d="M135.4219 88.0193 L135.9201 88.2684 "/>
<path d="M135.9201 88.2684 L136.4183 88.2684 "/>
<path d="M136.4183 88.2684 L136.9165 88.0193 "/>
<path d="M136.9165 88.0193 L137.1656 87.7702 "/>
<path d="M137.1656 87.7702 L137.4147 87.2720 "/>
<path d="M137.4147 87.2720 L137.6638 86.2756 "/>
<path d="M137.6638 86.2756 L137.6638 85.0302 "/>
<path d="M137.6638 85.0302 L137.4147 84.0338 "/>
<path d="M137.4147 84.0338 L137.1656 83.5356 "/>
<path d="M137.1656 83.5356 L136.9165 83.2865 "/>
<path d="M136.9165 83.2865 L136.4183 83.0374 "/>
<path d="M132.4327 84.7811 L132.4327 88.2684 "/>
<path d="M132.4327 85.2792 L132.1836 85.0302 "/>
<path d="M132.1836 85.0302 L131.6854 84.7811 "/>
<path d="M131.6854 84.7811 L130.9381 84.7811 "/>
<path d="M130.9381 84.7811 L130.4399 85.0302 "/>
<path d="M130.4399 85.0302 L130.1908 85.5283 "/>
<path d="M130.1908 85.5283 L130.1908 88.2684 "/>
<path d="M125.9562 85.5283 L127.6998 85.5283 "/>
<path d="M127.6998 88.2684 L127.6998 83.0374 "/>
<path d="M127.6998 83.0374 L125.2089 83.0374 "/>
</g></g>
<g style="fill:#000084; fill-opacity:0.01;  stroke:#000084; stroke-width:0.4185; stroke-opacity:1;  stroke-linecap:round; stroke-linejoin:round;">
<text x="136.5429" y="78.4088" transform="scale(-1 1) translate(-273.085716 0)" textLength="5.6296" font-size="3.4874" lengthAdjust="spacingAndGlyphs" text-anchor="middle" opacity="0.01" style="font-family:monospace">C4</text>
<g class="stroked-text"><desc>C4</desc>
<path d="M136.9788 78.0402 L137.1033 78.1647 "/>
<path d="M137.1033 78.1647 L137.4770 78.2893 "/>
<path d="M137.4770 78.2893 L137.7261 78.2893 "/>
<path d="M137.7261 78.2893 L138.0997 78.1647 "/>
<path d="M138.0997 78.1647 L138.3488 77.9156 "/>
<path d="M138.3488 77.9156 L138.4734 77.6665 "/>
<path d="M138.4734 77.6665 L138.5979 77.1683 "/>
<path d="M138.5979 77.1683 L138.5979 76.7947 "/>
<path d="M138.5979 76.7947 L138.4734 76.2965 "/>
<path d="M138.4734 76.2965 L138.3488 76.0474 "/>
<path d="M138.3488 76.0474 L138.0997 75.7983 "/>
<path d="M138.0997 75.7983 L137.7261 75.6737 "/>
<path d="M137.7261 75.6737 L137.4770 75.6737 "/>
<path d="M137.4770 75.6737 L137.1033 75.7983 "/>
<path d="M137.1033 75.7983 L136.9788 75.9228 "/>
<path d="M134.7369 76.5456 L134.7369 78.2893 "/>
<path d="M135.3596 75.5492 L135.9824 77.4174 "/>
<path d="M135.9824 77.4174 L134.3632 77.4174 "/>
</g></g>
<g style="fill:#000084; fill-opacity:0.01;  stroke:#000084; stroke-width:0.7847; stroke-opacity:1;  stroke-linecap:round; stroke-linejoin:round;">
<text x="147.1724" y="125.4048" transform="scale(-1 1) translate(-294.344812 0)" textLength="25.0780" font-size="6.9748" lengthAdjust="spacingAndGlyphs" text-anchor="middle" opacity="0.01" style="font-family:monospace">100nF</text>
<g class="stroked-text"><desc>100nF</desc>
<path d="M155.2681 125.1685 L158.2573 125.1685 "/>
<path d="M156.7627 125.1685 L156.7627 119.9374 "/>
<path d="M156.7627 119.9374 L157.2609 120.6847 "/>
<path d="M157.2609 120.6847 L157.7591 121.1829 "/>
<path d="M157.7591 121.1829 L158.2573 121.4320 "/>
<path d="M152.0298 119.9374 L151.5316 119.9374 "/>
<path d="M151.5316 119.9374 L151.0334 120.1865 "/>
<path d="M151.0334 120.1865 L150.7843 120.4356 "/>
<path d="M150.7843 120.4356 L150.5352 120.9338 "/>
<path d="M150.5352 120.9338 L150.2861 121.9302 "/>
<path d="M150.2861 121.9302 L150.2861 123.1757 "/>
<path d="M150.2861 123.1757 L150.5352 124.1721 "/>
<path d="M150.5352 124.1721 L150.7843 124.6702 "/>
<path d="M150.7843 124.6702 L151.0334 124.9194 "/>
<path d="M151.0334 124.9194 L151.5316 125.1685 "/>
<path d="M151.5316 125.1685 L152.0298 125.1685 "/>
<path d="M152.0298 125.1685 L152.5280 124.9194 "/>
<path d="M152.5280 124.9194 L152.7771 124.6702 "/>
<path d="M152.7771 124.6702 L153.0262 124.1721 "/>
<path d="M153.0262 124.1721 L153.2753 123.1757 "/>
<path d="M153.2753 123.1757 L153.2753 121.9302 "/>
<path d="M153.2753 121.9302 L153.0262 120.9338 "/>
<path d="M153.0262 120.9338 L152.7771 120.4356 "/>
<path d="M152.7771 120.4356 L152.5280 120.1865 "/>
<path d="M152.5280 120.1865 L152.0298 119.9374 "/>
<path d="M147.0479 119.9374 L146.5497 119.9374 "/>
<path d="M146.5497 119.9374 L146.0515 120.1865 "/>
<path d="M146.0515 120.1865 L145.8024 120.4356 "/>
<path d="M145.8024 120.4356 L145.5533 120.9338 "/>
<path d="M145.5533 120.9338 L145.3042 121.9302 "/>
<path d="M145.3042 121.9302 L145.3042 123.1757 "/>
<path d="M145.3042 123.1757 L145.5533 124.1721 "/>
<path d="M145.5533 124.1721 L145.8024 124.6702 "/>
<path d="M145.8024 124.6702 L146.0515 124.9194 "/>
<path d="M146.0515 124.9194 L146.5497 125.1685 "/>
<path d="M146.5497 125.1685 L147.0479 125.1685 "/>
<path d="M147.0479 125.1685 L147.5461 124.9194 "/>
<path d="M147.5461 124.9194 L147.7951 124.6702 "/>
<path d="M147.7951 124.6702 L148.0442 124.1721 "/>
<path d="M148.0442 124.1721 L148.2933 123.1757 "/>
<path d="M148.2933 123.1757 L148.2933 121.9302 "/>
<path d="M148.2933 121.9302 L148.0442 120.9338 "/>
<path d="M148.0442 120.9338 L147.7951 120.4356 "/>
<path d="M147.7951 120.4356 L147.5461 120.1865 "/>
<path d="M147.5461 120.1865 L147.0479 119.9374 "/>
<path d="M143.0623 121.6811 L143.0623 125.1685 "/>
<path d="M143.0623 122.1793 L142.8132 121.9302 "/>
<path d="M142.8132 121.9302 L142.3150 121.6811 "/>
<path d="M142.3150 121.6811 L141.5677 121.6811 "/>
<path d="M141.5677 121.6811 L141.0695 121.9302 "/>
<path d="M141.0695 121.9302 L140.8204 122.4284 "/>
<path d="M140.8204 122.4284 L140.8204 125.1685 "/>
<path d="M136.5857 122.4284 L138.3294 122.4284 "/>
<path d="M138.3294 125.1685 L138.3294 119.9374 "/>
<path d="M138.3294 119.9374 L135.8384 119.9374 "/>
</g></g>
<g style="fill:#000084; fill-opacity:0.01;  stroke:#000084; stroke-width:0.4185; stroke-opacity:1;  stroke-linecap:round; stroke-linejoin:round;">
<text x="147.1724" y="132.8852" transform="scale(-1 1) translate(-294.344812 0)" textLength="5.6296" font-size="3.4874" lengthAdjust="spacingAndGlyphs" text-anchor="middle" opacity="0.01" style="font-family:monospace">C3</text>
<g class="stroked-text"><desc>C3</desc>
<path d="M147.6083 132.5166 L147.7329 132.6412 "/>
<path d="M147.7329 132.6412 L148.1065 132.7657 "/>
<path d="M148.1065 132.7657 L148.3556 132.7657 "/>
<path d="M148.3556 132.7657 L148.7293 132.6412 "/>
<path d="M148.7293 132.6412 L148.9784 132.3921 "/>
<path d="M148.9784 132.3921 L149.1029 132.1430 "/>
<path d="M149.1029 132.1430 L149.2275 131.6448 "/>
<path d="M149.2275 131.6448 L149.2275 131.2711 "/>
<path d="M149.2275 131.2711 L149.1029 130.7729 "/>
<path d="M149.1029 130.7729 L148.9784 130.5238 "/>
<path d="M148.9784 130.5238 L148.7293 130.2747 "/>
<path d="M148.7293 130.2747 L148.3556 130.1502 "/>
<path d="M148.3556 130.1502 L148.1065 130.1502 "/>
<path d="M148.1065 130.1502 L147.7329 130.2747 "/>
<path d="M147.7329 130.2747 L147.6083 130.3993 "/>
<path d="M146.7365 130.1502 L145.1173 130.1502 "/>
<path d="M145.1173 130.1502 L145.9892 131.1466 "/>
<path d="M145.9892 131.1466 L145.6155 131.1466 "/>
<path d="M145.6155 131.1466 L145.3664 131.2711 "/>
<path d="M145.3664 131.2711 L145.2419 131.3957 "/>
<path d="M145.2419 131.3957 L145.1173 131.6448 "/>
<path d="M145.1173 131.6448 L145.1173 132.2675 "/>
<path d="M145.1173 132.2675 L145.2419 132.5166 "/>
<path d="M145.2419 132.5166 L145.3664 132.6412 "/>
<path d="M145.3664 132.6412 L145.6155 132.7657 "/>
<path d="M145.6155 132.7657 L146.3628 132.7657 "/>
<path d="M146.3628 132.7657 L146.6119 132.6412 "/>
<path d="M146.6119 132.6412 L146.7365 132.5166 "/>
</g></g>
<g style="fill:#000084; fill-opacity:0.0;  stroke:#000084; stroke-width:0.7847; stroke-opacity:1;  stroke-linecap:round; stroke-linejoin:round;">
<g transform="rotate(-90.000000 173.2200 78.4297)">
<text x="173.2200" y="81.0453" transform="scale(-1 1) translate(-346.440057 0)" textLength="16.1105" font-size="6.9748" lengthAdjust="spacingAndGlyphs" text-anchor="middle" opacity="0.01" style="font-family:monospace">DNF</text>
</g>
<g class="stroked-text"><desc>DNF</desc>
<path d="M175.5992 72.0777 L170.3681 72.0777 "/>
<path d="M170.3681 72.0777 L170.3681 73.3232 "/>
<path d="M170.3681 73.3232 L170.6172 74.0705 "/>
<path d="M170.6172 74.0705 L171.1154 74.5687 "/>
<path d="M171.1154 74.5687 L171.6136 74.8178 "/>
<path d="M171.6136 74.8178 L172.6100 75.0669 "/>
<path d="M172.6100 75.0669 L173.3573 75.0669 "/>
<path d="M173.3573 75.0669 L174.3537 74.8178 "/>
<path d="M174.3537 74.8178 L174.8519 74.5687 "/>
<path d="M174.8519 74.5687 L175.3501 74.0705 "/>
<path d="M175.3501 74.0705 L175.5992 73.3232 "/>
<path d="M175.5992 73.3232 L175.5992 72.0777 "/>
<path d="M175.5992 77.3088 L170.3681 77.3088 "/>
<path d="M170.3681 77.3088 L175.5992 80.2980 "/>
<path d="M175.5992 80.2980 L170.3681 80.2980 "/>
<path d="M172.8591 84.5326 L172.8591 82.7890 "/>
<path d="M175.5992 82.7890 L170.3681 82.7890 "/>
<path d="M170.3681 82.7890 L170.3681 85.2799 "/>
</g></g>
<g style="fill:#000084; fill-opacity:0.0;  stroke:#000084; stroke-width:0.4185; stroke-opacity:1;  stroke-linecap:round; stroke-linejoin:round;">
<g transform="rotate(-90.000000 181.8513 78.4297)">
<text x="181.8513" y="79.7375" transform="scale(-1 1) translate(-363.702610 0)" textLength="5.6296" font-size="3.4874" lengthAdjust="spacingAndGlyphs" text-anchor="middle" opacity="0.01" style="font-family:monospace">R2</text>
</g>
<g class="stroked-text"><desc>R2</desc>
<path d="M183.0395 77.9938 L181.7940 77.1220 "/>
<path d="M183.0395 76.4992 L180.4240 76.4992 "/>
<path d="M180.4240 76.4992 L180.4240 77.4956 "/>
<path d="M180.4240 77.4956 L180.5486 77.7447 "/>
<path d="M180.5486 77.7447 L180.6731 77.8693 "/>
<path d="M180.6731 77.8693 L180.9222 77.9938 "/>
<path d="M180.9222 77.9938 L181.2958 77.9938 "/>
<path d="M181.2958 77.9938 L181.5449 77.8693 "/>
<path d="M181.5449 77.8693 L181.6695 77.7447 "/>
<path d="M181.6695 77.7447 L181.7940 77.4956 "/>
<path d="M181.7940 77.4956 L181.7940 76.4992 "/>
<path d="M180.6731 78.9902 L180.5486 79.1147 "/>
<path d="M180.5486 79.1147 L180.4240 79.3638 "/>
<path d="M180.4240 79.3638 L180.4240 79.9866 "/>
<path d="M180.4240 79.9866 L180.5486 80.2357 "/>
<path d="M180.5486 80.2357 L180.6731 80.3602 "/>
<path d="M180.6731 80.3602 L180.9222 80.4848 "/>
<path d="M180.9222 80.4848 L181.1713 80.4848 "/>
<path d="M181.1713 80.4848 L181.5449 80.3602 "/>
<path d="M181.5449 80.3602 L183.0395 78.8657 "/>
<path d="M183.0395 78.8657 L183.0395 80.4848 "/>
</g></g>
<g style="fill:#000084; fill-opacity:0.01;  stroke:#000084; stroke-width:0.7847; stroke-opacity:1;  stroke-linecap:round; stroke-linejoin:round;">
<text x="155.1446" y="70.9284" transform="scale(-1 1) translate(-310.289133 0)" textLength="15.1141" font-size="6.9748" lengthAdjust="spacingAndGlyphs" text-anchor="middle" opacity="0.01" style="font-family:monospace">1uF</text>
<g class="stroked-text"><desc>1uF</desc>
<path d="M158.2583 70.6920 L161.2475 70.6920 "/>
<path d="M159.7529 70.6920 L159.7529 65.4609 "/>
<path d="M159.7529 65.4609 L160.2511 66.2082 "/>
<path d="M160.2511 66.2082 L160.7493 66.7064 "/>
<path d="M160.7493 66.7064 L161.2475 66.9555 "/>
<path d="M153.7745 67.2046 L153.7745 70.6920 "/>
<path d="M156.0164 67.2046 L156.0164 69.9447 "/>
<path d="M156.0164 69.9447 L155.7673 70.4429 "/>
<path d="M155.7673 70.4429 L155.2691 70.6920 "/>
<path d="M155.2691 70.6920 L154.5218 70.6920 "/>
<path d="M154.5218 70.6920 L154.0236 70.4429 "/>
<path d="M154.0236 70.4429 L153.7745 70.1938 "/>
<path d="M149.5398 67.9519 L151.2835 67.9519 "/>
<path d="M151.2835 70.6920 L151.2835 65.4609 "/>
<path d="M151.2835 65.4609 L148.7925 65.4609 "/>
</g></g>
<g style="fill:#000084; fill-opacity:0.01;  stroke:#000084; stroke-width:0.4185; stroke-opacity:1;  stroke-linecap:round; stroke-linejoin:round;">
<text x="155.1446" y="78.4088" transform="scale(-1 1) translate(-310.289133 0)" textLength="5.6296" font-size="3.4874" lengthAdjust="spacingAndGlyphs" text-anchor="middle" opacity="0.01" style="font-family:monospace">C2</text>
<g class="stroked-text"><desc>C2</desc>
<path d="M155.5805 78.0402 L155.7050 78.1647 "/>
<path d="M155.7050 78.1647 L156.0787 78.2893 "/>
<path d="M156.0787 78.2893 L156.3278 78.2893 "/>
<path d="M156.3278 78.2893 L156.7014 78.1647 "/>
<path d="M156.7014 78.1647 L156.9505 77.9156 "/>
<path d="M156.9505 77.9156 L157.0751 77.6665 "/>
<path d="M157.0751 77.6665 L157.1996 77.1683 "/>
<path d="M157.1996 77.1683 L157.1996 76.7947 "/>
<path d="M157.1996 76.7947 L157.0751 76.2965 "/>
<path d="M157.0751 76.2965 L156.9505 76.0474 "/>
<path d="M156.9505 76.0474 L156.7014 75.7983 "/>
<path d="M156.7014 75.7983 L156.3278 75.6737 "/>
<path d="M156.3278 75.6737 L156.0787 75.6737 "/>
<path d="M156.0787 75.6737 L155.7050 75.7983 "/>
<path d="M155.7050 75.7983 L155.5805 75.9228 "/>
<path d="M154.5841 75.9228 L154.4595 75.7983 "/>
<path d="M154.4595 75.7983 L154.2104 75.6737 "/>
<path d="M154.2104 75.6737 L153.5877 75.6737 "/>
<path d="M153.5877 75.6737 L153.3386 75.7983 "/>
<path d="M153.3386 75.7983 L153.2140 75.9228 "/>
<path d="M153.2140 75.9228 L153.0895 76.1719 "/>
<path d="M153.0895 76.1719 L153.0895 76.4210 "/>
<path d="M153.0895 76.4210 L153.2140 76.7947 "/>
<path d="M153.2140 76.7947 L154.7086 78.2893 "/>
<path d="M154.7086 78.2893 L153.0895 78.2893 "/>
</g></g>
<g style="fill:#000084; fill-opacity:0.0;  stroke:#000084; stroke-width:0.7847; stroke-opacity:1;  stroke-linecap:round; stroke-linejoin:round;">
<g transform="rotate(-90.000000 132.4626 147.3889)">
<text x="132.4626" y="150.0045" transform="scale(-1 1) translate(-264.925237 0)" textLength="54.4717" font-size="6.9748" lengthAdjust="spacingAndGlyphs" text-anchor="middle" opacity="0.01" style="font-family:monospace">TLV3604DCKR</text>
</g>
<g class="stroked-text"><desc>TLV3604DCKR</desc>
<path d="M129.6107 121.1090 L129.6107 124.0982 "/>
<path d="M134.8418 122.6036 L129.6107 122.6036 "/>
<path d="M134.8418 128.3329 L134.8418 125.8419 "/>
<path d="M134.8418 125.8419 L129.6107 125.8419 "/>
<path d="M129.6107 129.3293 L134.8418 131.0729 "/>
<path d="M134.8418 131.0729 L129.6107 132.8166 "/>
<path d="M129.6107 134.0621 L129.6107 137.3004 "/>
<path d="M129.6107 137.3004 L131.6035 135.5567 "/>
<path d="M131.6035 135.5567 L131.6035 136.3040 "/>
<path d="M131.6035 136.3040 L131.8526 136.8022 "/>
<path d="M131.8526 136.8022 L132.1017 137.0513 "/>
<path d="M132.1017 137.0513 L132.5999 137.3004 "/>
<path d="M132.5999 137.3004 L133.8454 137.3004 "/>
<path d="M133.8454 137.3004 L134.3436 137.0513 "/>
<path d="M134.3436 137.0513 L134.5927 136.8022 "/>
<path d="M134.5927 136.8022 L134.8418 136.3040 "/>
<path d="M134.8418 136.3040 L134.8418 134.8094 "/>
<path d="M134.8418 134.8094 L134.5927 134.3112 "/>
<path d="M134.5927 134.3112 L134.3436 134.0621 "/>
<path d="M129.6107 141.7842 L129.6107 140.7878 "/>
<path d="M129.6107 140.7878 L129.8598 140.2896 "/>
<path d="M129.8598 140.2896 L130.1089 140.0405 "/>
<path d="M130.1089 140.0405 L130.8562 139.5423 "/>
<path d="M130.8562 139.5423 L131.8526 139.2932 "/>
<path d="M131.8526 139.2932 L133.8454 139.2932 "/>
<path d="M133.8454 139.2932 L134.3436 139.5423 "/>
<path d="M134.3436 139.5423 L134.5927 139.7914 "/>
<path d="M134.5927 139.7914 L134.8418 140.2896 "/>
<path d="M134.8418 140.2896 L134.8418 141.2860 "/>
<path d="M134.8418 141.2860 L134.5927 141.7842 "/>
<path d="M134.5927 141.7842 L134.3436 142.0333 "/>
<path d="M134.3436 142.0333 L133.8454 142.2824 "/>
<path d="M133.8454 142.2824 L132.5999 142.2824 "/>
<path d="M132.5999 142.2824 L132.1017 142.0333 "/>
<path d="M132.1017 142.0333 L131.8526 141.7842 "/>
<path d="M131.8526 141.7842 L131.6035 141.2860 "/>
<path d="M131.6035 141.2860 L131.6035 140.2896 "/>
<path d="M131.6035 140.2896 L131.8526 139.7914 "/>
<path d="M131.8526 139.7914 L132.1017 139.5423 "/>
<path d="M132.1017 139.5423 L132.5999 139.2932 "/>
<path d="M129.6107 145.5207 L129.6107 146.0189 "/>
<path d="M129.6107 146.0189 L129.8598 146.5171 "/>
<path d="M129.8598 146.5171 L130.1089 146.7662 "/>
<path d="M130.1089 146.7662 L130.6071 147.0153 "/>
<path d="M130.6071 147.0153 L131.6035 147.2644 "/>
<path d="M131.6035 147.2644 L132.8490 147.2644 "/>
<path d="M132.8490 147.2644 L133.8454 147.0153 "/>
<path d="M133.8454 147.0153 L134.3436 146.7662 "/>
<path d="M134.3436 146.7662 L134.5927 146.5171 "/>
<path d="M134.5927 146.5171 L134.8418 146.0189 "/>
<path d="M134.8418 146.0189 L134.8418 145.5207 "/>
<path d="M134.8418 145.5207 L134.5927 145.0225 "/>
<path d="M134.5927 145.0225 L134.3436 144.7734 "/>
<path d="M134.3436 144.7734 L133.8454 144.5243 "/>
<path d="M133.8454 144.5243 L132.8490 144.2752 "/>
<path d="M132.8490 144.2752 L131.6035 144.2752 "/>
<path d="M131.6035 144.2752 L130.6071 144.5243 "/>
<path d="M130.6071 144.5243 L130.1089 144.7734 "/>
<path d="M130.1089 144.7734 L129.8598 145.0225 "/>
<path d="M129.8598 145.0225 L129.6107 145.5207 "/>
<path d="M131.3544 151.7481 L134.8418 151.7481 "/>
<path d="M129.3616 150.5027 L133.0981 149.2572 "/>
<path d="M133.0981 149.2572 L133.0981 152.4954 "/>
<path d="M134.8418 154.4882 L129.6107 154.4882 "/>
<path d="M129.6107 154.4882 L129.6107 155.7337 "/>
<path d="M129.6107 155.7337 L129.8598 156.4810 "/>
<path d="M129.8598 156.4810 L130.3580 156.9792 "/>
<path d="M130.3580 156.9792 L130.8562 157.2283 "/>
<path d="M130.8562 157.2283 L131.8526 157.4774 "/>
<path d="M131.8526 157.4774 L132.5999 157.4774 "/>
<path d="M132.5999 157.4774 L133.5963 157.2283 "/>
<path d="M133.5963 157.2283 L134.0945 156.9792 "/>
<path d="M134.0945 156.9792 L134.5927 156.4810 "/>
<path d="M134.5927 156.4810 L134.8418 155.7337 "/>
<path d="M134.8418 155.7337 L134.8418 154.4882 "/>
<path d="M134.3436 162.7085 L134.5927 162.4594 "/>
<path d="M134.5927 162.4594 L134.8418 161.7121 "/>
<path d="M134.8418 161.7121 L134.8418 161.2139 "/>
<path d="M134.8418 161.2139 L134.5927 160.4666 "/>
<path d="M134.5927 160.4666 L134.0945 159.9684 "/>
<path d="M134.0945 159.9684 L133.5963 159.7193 "/>
<path d="M133.5963 159.7193 L132.5999 159.4702 "/>
<path d="M132.5999 159.4702 L131.8526 159.4702 "/>
<path d="M131.8526 159.4702 L130.8562 159.7193 "/>
<path d="M130.8562 159.7193 L130.3580 159.9684 "/>
<path d="M130.3580 159.9684 L129.8598 160.4666 "/>
<path d="M129.8598 160.4666 L129.6107 161.2139 "/>
<path d="M129.6107 161.2139 L129.6107 161.7121 "/>
<path d="M129.6107 161.7121 L129.8598 162.4594 "/>
<path d="M129.8598 162.4594 L130.1089 162.7085 "/>
<path d="M134.8418 164.9504 L129.6107 164.9504 "/>
<path d="M134.8418 167.9396 L131.8526 165.6977 "/>
<path d="M129.6107 167.9396 L132.5999 164.9504 "/>
<path d="M134.8418 173.1707 L132.3508 171.4270 "/>
<path d="M134.8418 170.1815 L129.6107 170.1815 "/>
<path d="M129.6107 170.1815 L129.6107 172.1743 "/>
<path d="M129.6107 172.1743 L129.8598 172.6725 "/>
<path d="M129.8598 172.6725 L130.1089 172.9216 "/>
<path d="M130.1089 172.9216 L130.6071 173.1707 "/>
<path d="M130.6071 173.1707 L131.3544 173.1707 "/>
<path d="M131.3544 173.1707 L131.8526 172.9216 "/>
<path d="M131.8526 172.9216 L132.1017 172.6725 "/>
<path d="M132.1017 172.6725 L132.3508 172.1743 "/>
<path d="M132.3508 172.1743 L132.3508 170.1815 "/>
</g></g>
<g style="fill:#000084; fill-opacity:0.01;  stroke:#000084; stroke-width:0.3923; stroke-opacity:1;  stroke-linecap:round; stroke-linejoin:round;">
<text x="143.1863" y="148.6967" transform="scale(-1 1) translate(-286.372651 0)" textLength="6.8097" font-size="3.4874" lengthAdjust="spacingAndGlyphs" text-anchor="middle" opacity="0.01" style="font-family:monospace">IC1</text>
<g class="stroked-text"><desc>IC1</desc>
<path d="M145.7396 148.5785 L145.7396 145.9630 "/>
<path d="M142.9995 148.3294 L143.1240 148.4540 "/>
<path d="M143.1240 148.4540 L143.4977 148.5785 "/>
<path d="M143.4977 148.5785 L143.7468 148.5785 "/>
<path d="M143.7468 148.5785 L144.1204 148.4540 "/>
<path d="M144.1204 148.4540 L144.3695 148.2049 "/>
<path d="M144.3695 148.2049 L144.4941 147.9558 "/>
<path d="M144.4941 147.9558 L144.6186 147.4576 "/>
<path d="M144.6186 147.4576 L144.6186 147.0839 "/>
<path d="M144.6186 147.0839 L144.4941 146.5857 "/>
<path d="M144.4941 146.5857 L144.3695 146.3366 "/>
<path d="M144.3695 146.3366 L144.1204 146.0875 "/>
<path d="M144.1204 146.0875 L143.7468 145.9630 "/>
<path d="M143.7468 145.9630 L143.4977 145.9630 "/>
<path d="M143.4977 145.9630 L143.1240 146.0875 "/>
<path d="M143.1240 146.0875 L142.9995 146.2121 "/>
<path d="M140.5085 148.5785 L142.0031 148.5785 "/>
<path d="M141.2558 148.5785 L141.2558 145.9630 "/>
<path d="M141.2558 145.9630 L141.5049 146.3366 "/>
<path d="M141.5049 146.3366 L141.7540 146.5857 "/>
<path d="M141.7540 146.5857 L142.0031 146.7103 "/>
</g></g>
<g style="fill:#000084; fill-opacity:0.0;  stroke:#000084; stroke-width:0.7847; stroke-opacity:1;  stroke-linecap:round; stroke-linejoin:round;">
<g transform="rotate(-90.000000 173.2200 131.5775)">
<text x="173.2200" y="134.1930" transform="scale(-1 1) translate(-346.440057 0)" textLength="16.1105" font-size="6.9748" lengthAdjust="spacingAndGlyphs" text-anchor="middle" opacity="0.01" style="font-family:monospace">DNF</text>
</g>
<g class="stroked-text"><desc>DNF</desc>
<path d="M175.5992 125.2254 L170.3681 125.2254 "/>
<path d="M170.3681 125.2254 L170.3681 126.4709 "/>
<path d="M170.3681 126.4709 L170.6172 127.2182 "/>
<path d="M170.6172 127.2182 L171.1154 127.7164 "/>
<path d="M171.1154 127.7164 L171.6136 127.9655 "/>
<path d="M171.6136 127.9655 L172.6100 128.2146 "/>
<path d="M172.6100 128.2146 L173.3573 128.2146 "/>
<path d="M173.3573 128.2146 L174.3537 127.9655 "/>
<path d="M174.3537 127.9655 L174.8519 127.7164 "/>
<path d="M174.8519 127.7164 L175.3501 127.2182 "/>
<path d="M175.3501 127.2182 L175.5992 126.4709 "/>
<path d="M175.5992 126.4709 L175.5992 125.2254 "/>
<path d="M175.5992 130.4565 L170.3681 130.4565 "/>
<path d="M170.3681 130.4565 L175.5992 133.4457 "/>
<path d="M175.5992 133.4457 L170.3681 133.4457 "/>
<path d="M172.8591 137.6804 L172.8591 135.9367 "/>
<path d="M175.5992 135.9367 L170.3681 135.9367 "/>
<path d="M170.3681 135.9367 L170.3681 138.4277 "/>
</g></g>
<g style="fill:#000084; fill-opacity:0.0;  stroke:#000084; stroke-width:0.4185; stroke-opacity:1;  stroke-linecap:round; stroke-linejoin:round;">
<g transform="rotate(-90.000000 181.8513 131.5775)">
<text x="181.8513" y="132.8852" transform="scale(-1 1) translate(-363.702610 0)" textLength="5.6296" font-size="3.4874" lengthAdjust="spacingAndGlyphs" text-anchor="middle" opacity="0.01" style="font-family:monospace">R1</text>
</g>
<g class="stroked-text"><desc>R1</desc>
<path d="M183.0395 131.1415 L181.7940 130.2697 "/>
<path d="M183.0395 129.6469 L180.4240 129.6469 "/>
<path d="M180.4240 129.6469 L180.4240 130.6433 "/>
<path d="M180.4240 130.6433 L180.5486 130.8924 "/>
<path d="M180.5486 130.8924 L180.6731 131.0170 "/>
<path d="M180.6731 131.0170 L180.9222 131.1415 "/>
<path d="M180.9222 131.1415 L181.2958 131.1415 "/>
<path d="M181.2958 131.1415 L181.5449 131.0170 "/>
<path d="M181.5449 131.0170 L181.6695 130.8924 "/>
<path d="M181.6695 130.8924 L181.7940 130.6433 "/>
<path d="M181.7940 130.6433 L181.7940 129.6469 "/>
<path d="M183.0395 133.6325 L183.0395 132.1379 "/>
<path d="M183.0395 132.8852 L180.4240 132.8852 "/>
<path d="M180.4240 132.8852 L180.7977 132.6361 "/>
<path d="M180.7977 132.6361 L181.0467 132.3870 "/>
<path d="M181.0467 132.3870 L181.1713 132.1379 "/>
</g></g>
<g style="fill:#000084; fill-opacity:0.0;  stroke:#000084; stroke-width:0.5231; stroke-opacity:1;  stroke-linecap:round; stroke-linejoin:round;">
<path d="M179.6731 115.5494 L179.6731 105.0873 "/>
<path d="M173.1342 105.0873 L173.1342 115.5494 "/>
<path d="M179.6731 105.0873 L173.1342 105.0873 "/>
<path d="M173.1342 115.5494 L179.6731 115.5494 "/>
<path d="M137.7460 92.9721 L122.0528 92.9721 "/>
<path d="M122.0528 117.0351 L137.7460 117.0351 "/>
<path d="M133.8244 107.6253 L125.7193 107.6253 "/>
<path d="M129.9047 101.6063 L125.7193 107.6253 "/>
<path d="M122.0528 117.0351 L122.0528 92.9721 "/>
<path d="M129.9047 107.6253 L129.9047 112.8471 "/>
<path d="M129.9047 101.6063 L133.8244 107.6253 "/>
<path d="M129.9047 101.6063 L129.9047 96.8895 "/>
<path d="M137.7460 117.0351 L137.7460 92.9721 "/>
<path d="M125.7193 101.6063 L134.0901 101.6063 "/>
<path d="M141.7739 73.8316 L131.3118 73.8316 "/>
<path d="M131.3118 80.3705 L141.7739 80.3705 "/>
<path d="M131.3118 73.8316 L131.3118 80.3705 "/>
<path d="M141.7739 80.3705 L141.7739 73.8316 "/>
<path d="M152.4035 134.8469 L152.4035 128.3080 "/>
<path d="M141.9413 134.8469 L152.4035 134.8469 "/>
<path d="M152.4035 128.3080 L141.9413 128.3080 "/>
<path d="M141.9413 128.3080 L141.9413 134.8469 "/>
<path d="M185.1207 73.1987 L178.5819 73.1987 "/>
<path d="M178.5819 73.1987 L178.5819 83.6608 "/>
<path d="M178.5819 83.6608 L185.1207 83.6608 "/>
<path d="M185.1207 83.6608 L185.1207 73.1987 "/>
<path d="M160.3756 80.3705 L160.3756 73.8316 "/>
<path d="M149.9135 73.8316 L149.9135 80.3705 "/>
<path d="M149.9135 80.3705 L160.3756 80.3705 "/>
<path d="M160.3756 73.8316 L149.9135 73.8316 "/>
<path d="M146.3250 150.9199 L137.4321 150.9199 "/>
<path d="M148.9405 143.8579 L137.4321 143.8579 "/>
<path d="M148.9405 148.3044 L146.3250 150.9199 "/>
<path d="M148.9405 143.8579 L148.9405 148.3044 "/>
<path d="M137.4321 143.8579 L137.4321 150.9199 "/>
<path d="M178.5819 136.8085 L185.1207 136.8085 "/>
<path d="M185.1207 136.8085 L185.1207 126.3464 "/>
<path d="M185.1207 126.3464 L178.5819 126.3464 "/>
<path d="M178.5819 126.3464 L178.5819 136.8085 "/>
<g>
</g>
<g>
</g>
<g>
</g>
<g>
</g>
<g>
</g>
<g>
</g>
<g>
</g>
<g>
</g>
<g>
</g>
<g>
</g>
<g>
</g>
<g>
</g>
<g>
</g>
<g>
</g>
<g>
</g>
<g>
</g>
<g>
</g>
<g>
</g>
<g>
</g>
<g>
</g>
<g>
</g>
<g>
</g>
<g>
</g>
</g> 
<svg:g><svg:g><svg:title>SVG Image created as ACOMP01-Edge_Cuts.svg date 2023/07/05 09:07:55 </svg:title>
  <svg:desc>Image generated by PCBNEW </svg:desc>
<svg:g style="fill:#C2C200; fill-opacity:1.0000;stroke:#C2C200; stroke-opacity:1.0000; stroke-linecap:round; stroke-linejoin:round;" transform="translate(0 0) scale(1 1)">
</svg:g>
<svg:g style="fill:#C2C200; fill-opacity:0.0;  stroke:#C2C200; stroke-width:0.0000; stroke-opacity:1;  stroke-linecap:round; stroke-linejoin:round;">
</svg:g>
<svg:g style="fill:#C2C200; fill-opacity:0.0;  stroke:#C2C200; stroke-width:0.0664; stroke-opacity:1;  stroke-linecap:round; stroke-linejoin:round;">
<svg:path d="M70.1082 0.0368 L70.1082 209.9704 "/>
<svg:path d="M226.8940 209.9704 L226.8940 0.0368 "/>
<svg:path d="M226.8940 209.9704 L70.1082 209.9704 "/>
<svg:path d="M70.1082 0.0368 L226.8940 0.0368 "/>
<svg:circle cx="95.3534" cy="184.7252" r="8.7185"/> 
<svg:path d="M82.2757 184.7252 L108.4311 184.7252 "/>
<svg:path d="M95.3534 171.6475 L95.3534 197.8029 "/>
<svg:circle cx="95.3534" cy="184.7252" r="8.7185"/> 
<svg:path d="M82.2757 184.7252 L108.4311 184.7252 "/>
<svg:path d="M95.3534 171.6475 L95.3534 197.8029 "/>
<svg:circle cx="95.3534" cy="184.7252" r="8.7185"/> 
<svg:path d="M82.2757 184.7252 L108.4311 184.7252 "/>
<svg:path d="M95.3534 171.6475 L95.3534 197.8029 "/>
<svg:g>
</svg:g>
<svg:g>
</svg:g>
<svg:g>
</svg:g>
<svg:g>
</svg:g>
<svg:g>
</svg:g>
<svg:g>
</svg:g>
<svg:g>
</svg:g>
<svg:g>
</svg:g>
<svg:g>
</svg:g>
<svg:g>
</svg:g>
<svg:g>
</svg:g>
<svg:g>
</svg:g>
<svg:g>
</svg:g>
<svg:g>
</svg:g>
<svg:g>
</svg:g>
<svg:g>
</svg:g>
<svg:g>
</svg:g>
<svg:g>
</svg:g>
<svg:g>
</svg:g>
<svg:g>
</svg:g>
<svg:g>
</svg:g>
<svg:g>
</svg:g>
<svg:g>
</svg:g>
</svg:g> 
</svg:g></svg:g></svg>
