<?xml version='1.0' encoding='ASCII' standalone='yes'?>
<svg xmlns:svg="http://www.w3.org/2000/svg" xmlns="http://www.w3.org/2000/svg" xmlns:xlink="http://www.w3.org/1999/xlink" version="1.1" width="29.700220cm" height="21.000720cm" viewBox="0 0 2970022 2100072">
<title>SVG Picture created as ACOMP01-B_Fab.svg date 2023/02/14 10:12:21 </title>
  <desc>Picture generated by PCBNEW </desc>
<g style="fill:#000084; fill-opacity:1.000000;stroke:#000084; stroke-opacity:1.000000; stroke-linecap:round; stroke-linejoin:round;" transform="translate(0 0) scale(1 1)">
</g>
<g style="fill:#000084; fill-opacity:0.0;  stroke:#000084; stroke-width:0.000000; stroke-opacity:1;  stroke-linecap:round; stroke-linejoin:round;">
</g>
<g style="fill:#000084; fill-opacity:0.01;  stroke:#000084; stroke-width:5469.717685; stroke-opacity:1;  stroke-linecap:round; stroke-linejoin:round;">
<text x="2052835.988336" y="1343716.991650" transform="scale(-1 1) translate(-4105671.976672 0)" textLength="129911.884628" font-size="48619.700597" lengthAdjust="spacingAndGlyphs" text-anchor="middle" opacity="0.01" style="font-family:monospace">10uF</text>
<g class="stroked-text"><desc>10uF</desc>
<path d="M2091905 1341980 L2112742 1341980 "/>
<path d="M2102323 1341980 L2102323 1305515 L2105796 1310725 L2109269 1314197 L2112742 1315934 "/>
<path d="M2069331 1305515 L2065859 1305515 L2062386 1307252 L2060649 1308988 L2058913 1312461 L2057177 1319407 L2057177 1328089 L2058913 1335034 L2060649 1338507 L2062386 1340244 L2065859 1341980 L2069331 1341980 L2072804 1340244 L2074541 1338507 L2076277 1335034 L2078014 1328089 L2078014 1319407 L2076277 1312461 L2074541 1308988 L2072804 1307252 L2069331 1305515 "/>
<path d="M2025921 1317670 L2025921 1341980 "/>
<path d="M2041549 1317670 L2041549 1336771 L2039812 1340244 L2036340 1341980 L2031130 1341980 L2027657 1340244 L2025921 1338507 "/>
<path d="M1996402 1322879 L2008557 1322879 "/>
<path d="M2008557 1341980 L2008557 1305515 L1991193 1305515 "/>
</g></g>
<g style="fill:#000084; fill-opacity:0.01;  stroke:#000084; stroke-width:2917.182765; stroke-opacity:1;  stroke-linecap:round; stroke-linejoin:round;">
<text x="2052835.988336" y="1273339.957442" transform="scale(-1 1) translate(-4105671.976672 0)" textLength="28485.925054" font-size="24309.832066" lengthAdjust="spacingAndGlyphs" text-anchor="middle" opacity="0.01" style="font-family:monospace">C1</text>
<g class="stroked-text"><desc>C1</desc>
<path d="M2055874 1270735 L2056742 1271603 L2059347 1272471 L2061083 1272471 L2063688 1271603 L2065425 1269867 L2066293 1268130 L2067161 1264657 L2067161 1262053 L2066293 1258580 L2065425 1256843 L2063688 1255107 L2061083 1254239 L2059347 1254239 L2056742 1255107 L2055874 1255975 "/>
<path d="M2038510 1272471 L2048929 1272471 "/>
<path d="M2043719 1272471 L2043719 1254239 L2045456 1256843 L2047192 1258580 L2048929 1259448 "/>
</g></g>
<g style="fill:#000084; fill-opacity:0.01;  stroke:#000084; stroke-width:5469.717685; stroke-opacity:1;  stroke-linecap:round; stroke-linejoin:round;">
<text x="2423318.199506" y="1150896.315946" transform="scale(-1 1) translate(-4846636.399013 0)" textLength="367801.174350" font-size="48619.700597" lengthAdjust="spacingAndGlyphs" text-anchor="middle" opacity="0.01" style="font-family:monospace">BZV55C-5,6V</text>
<g class="stroked-text"><desc>BZV55C-5,6V</desc>
<path d="M2588277 1130059 L2583068 1131795 L2581332 1133532 L2579595 1137004 L2579595 1142214 L2581332 1145687 L2583068 1147423 L2586541 1149159 L2600432 1149159 L2600432 1112695 L2588277 1112695 L2584805 1114431 L2583068 1116167 L2581332 1119640 L2581332 1123113 L2583068 1126586 L2584805 1128322 L2588277 1130059 L2600432 1130059 "/>
<path d="M2567440 1112695 L2543131 1112695 L2567440 1149159 L2543131 1149159 "/>
<path d="M2534448 1112695 L2522294 1149159 L2510139 1112695 "/>
<path d="M2480619 1112695 L2497984 1112695 L2499720 1130059 L2497984 1128322 L2494511 1126586 L2485829 1126586 L2482356 1128322 L2480619 1130059 L2478883 1133532 L2478883 1142214 L2480619 1145687 L2482356 1147423 L2485829 1149159 L2494511 1149159 L2497984 1147423 L2499720 1145687 "/>
<path d="M2445891 1112695 L2463255 1112695 L2464992 1130059 L2463255 1128322 L2459782 1126586 L2451100 1126586 L2447628 1128322 L2445891 1130059 L2444155 1133532 L2444155 1142214 L2445891 1145687 L2447628 1147423 L2451100 1149159 L2459782 1149159 L2463255 1147423 L2464992 1145687 "/>
<path d="M2407690 1145687 L2409426 1147423 L2414636 1149159 L2418108 1149159 L2423318 1147423 L2426791 1143950 L2428527 1140477 L2430263 1133532 L2430263 1128322 L2428527 1121377 L2426791 1117904 L2423318 1114431 L2418108 1112695 L2414636 1112695 L2409426 1114431 L2407690 1116167 "/>
<path d="M2392062 1135268 L2364279 1135268 "/>
<path d="M2329551 1112695 L2346915 1112695 L2348652 1130059 L2346915 1128322 L2343442 1126586 L2334760 1126586 L2331288 1128322 L2329551 1130059 L2327815 1133532 L2327815 1142214 L2329551 1145687 L2331288 1147423 L2334760 1149159 L2343442 1149159 L2346915 1147423 L2348652 1145687 "/>
<path d="M2310450 1147423 L2310450 1149159 L2312187 1152632 L2313923 1154369 "/>
<path d="M2279195 1112695 L2286141 1112695 L2289613 1114431 L2291350 1116167 L2294823 1121377 L2296559 1128322 L2296559 1142214 L2294823 1145687 L2293086 1147423 L2289613 1149159 L2282668 1149159 L2279195 1147423 L2277459 1145687 L2275722 1142214 L2275722 1133532 L2277459 1130059 L2279195 1128322 L2282668 1126586 L2289613 1126586 L2293086 1128322 L2294823 1130059 L2296559 1133532 "/>
<path d="M2265304 1112695 L2253149 1149159 L2240994 1112695 "/>
</g><text x="2423318.199506" y="964925.914669" transform="scale(-1 1) translate(-4846636.399013 0)" textLength="64082.519562" font-size="48619.700597" lengthAdjust="spacingAndGlyphs" text-anchor="middle" opacity="0.01" style="font-family:monospace">D1</text>
<g class="stroked-text"><desc>D1</desc>
<path d="M2450232 963189 L2450232 926724 L2441550 926724 L2436341 928461 L2432868 931933 L2431132 935406 L2429395 942352 L2429395 947561 L2431132 954507 L2432868 957980 L2436341 961453 L2441550 963189 L2450232 963189 "/>
<path d="M2394667 963189 L2415504 963189 "/>
<path d="M2405085 963189 L2405085 926724 L2408558 931933 L2412031 935406 L2415504 937143 "/>
</g><text x="2052835.988336" y="771584.521841" transform="scale(-1 1) translate(-4105671.976672 0)" textLength="161321.957221" font-size="48619.700597" lengthAdjust="spacingAndGlyphs" text-anchor="middle" opacity="0.01" style="font-family:monospace">100nF</text>
<g class="stroked-text"><desc>100nF</desc>
<path d="M2109269 769848 L2130106 769848 "/>
<path d="M2119688 769848 L2119688 733383 L2123160 738592 L2126633 742065 L2130106 743801 "/>
<path d="M2086696 733383 L2083223 733383 L2079750 735119 L2078014 736856 L2076277 740328 L2074541 747274 L2074541 755956 L2076277 762902 L2078014 766375 L2079750 768111 L2083223 769848 L2086696 769848 L2090168 768111 L2091905 766375 L2093641 762902 L2095378 755956 L2095378 747274 L2093641 740328 L2091905 736856 L2090168 735119 L2086696 733383 "/>
<path d="M2051967 733383 L2048494 733383 L2045022 735119 L2043285 736856 L2041549 740328 L2039812 747274 L2039812 755956 L2041549 762902 L2043285 766375 L2045022 768111 L2048494 769848 L2051967 769848 L2055440 768111 L2057177 766375 L2058913 762902 L2060649 755956 L2060649 747274 L2058913 740328 L2057177 736856 L2055440 735119 L2051967 733383 "/>
<path d="M2024185 745538 L2024185 769848 "/>
<path d="M2024185 749011 L2022448 747274 L2018975 745538 L2013766 745538 L2010293 747274 L2008557 750747 L2008557 769848 "/>
<path d="M1979038 750747 L1991193 750747 "/>
<path d="M1991193 769848 L1991193 733383 L1973828 733383 "/>
</g></g>
<g style="fill:#000084; fill-opacity:0.01;  stroke:#000084; stroke-width:2917.182765; stroke-opacity:1;  stroke-linecap:round; stroke-linejoin:round;">
<text x="2052835.988336" y="701207.487632" transform="scale(-1 1) translate(-4105671.976672 0)" textLength="28485.925054" font-size="24309.832066" lengthAdjust="spacingAndGlyphs" text-anchor="middle" opacity="0.01" style="font-family:monospace">C2</text>
<g class="stroked-text"><desc>C2</desc>
<path d="M2055874 698602 L2056742 699471 L2059347 700339 L2061083 700339 L2063688 699471 L2065425 697734 L2066293 695998 L2067161 692525 L2067161 689920 L2066293 686447 L2065425 684711 L2063688 682975 L2061083 682106 L2059347 682106 L2056742 682975 L2055874 683843 "/>
<path d="M2048929 683843 L2048060 682975 L2046324 682106 L2041983 682106 L2040246 682975 L2039378 683843 L2038510 685579 L2038510 687316 L2039378 689920 L2049797 700339 L2038510 700339 "/>
</g></g>
<g style="fill:#000084; fill-opacity:0.0;  stroke:#000084; stroke-width:3646.478456; stroke-opacity:1;  stroke-linecap:round; stroke-linejoin:round;">
<path d="M2016371 1287014 L2089300 1287014 "/>
<path d="M2089300 1241433 L2016371 1241433 "/>
<path d="M2089300 1287014 L2089300 1241433 "/>
<path d="M2016371 1241433 L2016371 1287014 "/>
<path d="M2507187 1092552 L2507187 983158 "/>
<path d="M2339449 983158 L2339449 1092552 "/>
<path d="M2405042 1065215 L2405042 1008717 "/>
<path d="M2446999 1037892 L2405042 1008717 "/>
<path d="M2339449 983158 L2507187 983158 "/>
<path d="M2405042 1037892 L2368642 1037892 "/>
<path d="M2446999 1037892 L2405042 1065215 "/>
<path d="M2446999 1037892 L2479880 1037892 "/>
<path d="M2339449 1092552 L2507187 1092552 "/>
<path d="M2446999 1008717 L2446999 1067068 "/>
<path d="M2016371 669300 L2016371 714881 "/>
<path d="M2089300 714881 L2089300 669300 "/>
<path d="M2089300 669300 L2016371 669300 "/>
<path d="M2016371 714881 L2089300 714881 "/>
<g>
</g>
<g>
</g>
<g>
</g>
<g>
</g>
<g>
</g>
<g>
</g>
<g>
</g>
<g>
</g>
<g>
</g>
<g>
</g>
<g>
</g>
<g>
</g>
<g>
</g>
<g>
</g>
<g>
</g>
<g>
</g>
<g>
</g>
<g>
</g>
<g>
</g>
<g>
</g>
<g>
</g>
<g>
</g>
<g>
</g>
</g> 
<svg:g><svg:g><svg:title>SVG Picture created as ACOMP01-Edge_Cuts.svg date 2023/02/14 10:12:21 </svg:title>
  <svg:desc>Picture generated by PCBNEW </svg:desc>
<svg:g style="fill:#C2C200; fill-opacity:1.000000;stroke:#C2C200; stroke-opacity:1.000000; stroke-linecap:round; stroke-linejoin:round;" transform="translate(0 0) scale(1 1)">
</svg:g>
<svg:g style="fill:#C2C200; fill-opacity:0.0;  stroke:#C2C200; stroke-width:0.000000; stroke-opacity:1;  stroke-linecap:round; stroke-linejoin:round;">
</svg:g>
<svg:g style="fill:#C2C200; fill-opacity:0.0;  stroke:#C2C200; stroke-width:463.102764; stroke-opacity:1;  stroke-linecap:round; stroke-linejoin:round;">
<svg:path d="M2969779 1810685 L2969779 347280 "/>
<svg:path d="M1506374 347280 L1506374 1810685 "/>
<svg:path d="M1506374 1810685 L2969779 1810685 "/>
<svg:path d="M2969779 347280 L1506374 347280 "/>
<svg:circle cx="1682353.777165" cy="1634705.972471" r="60774.616630"/> 
<svg:path d="M1591191 1634705 L1773515 1634705 "/>
<svg:path d="M1682353 1543544 L1682353 1725867 "/>
<svg:circle cx="1682353.777165" cy="1634705.972471" r="60774.616630"/> 
<svg:path d="M1591191 1634705 L1773515 1634705 "/>
<svg:path d="M1682353 1543544 L1682353 1725867 "/>
<svg:circle cx="1682353.777165" cy="1634705.972471" r="60774.616630"/> 
<svg:path d="M1591191 1634705 L1773515 1634705 "/>
<svg:path d="M1682353 1543544 L1682353 1725867 "/>
<svg:g>
</svg:g>
<svg:g>
</svg:g>
<svg:g>
</svg:g>
<svg:g>
</svg:g>
<svg:g>
</svg:g>
<svg:g>
</svg:g>
<svg:g>
</svg:g>
<svg:g>
</svg:g>
<svg:g>
</svg:g>
<svg:g>
</svg:g>
<svg:g>
</svg:g>
<svg:g>
</svg:g>
<svg:g>
</svg:g>
<svg:g>
</svg:g>
<svg:g>
</svg:g>
<svg:g>
</svg:g>
<svg:g>
</svg:g>
<svg:g>
</svg:g>
<svg:g>
</svg:g>
<svg:g>
</svg:g>
<svg:g>
</svg:g>
<svg:g>
</svg:g>
<svg:g>
</svg:g>
</svg:g> 
</svg:g></svg:g></svg>
