M48
; DRILL file {KiCad 6.0.11+dfsg-1~bpo11+1} date Wed Jul  5 12:38:40 2023
; FORMAT={3:3/ absolute / metric / suppress leading zeros}
; #@! TF.CreationDate,2023-07-05T12:38:40+00:00
; #@! TF.GenerationSoftware,Kicad,Pcbnew,6.0.11+dfsg-1~bpo11+1
; #@! TF.FileFunction,Plated,1,2,PTH
FMAT,2
METRIC,TZ
; #@! TA.AperFunction,Plated,PTH,ViaDrill
T1C0.400
; #@! TA.AperFunction,Plated,PTH,ComponentDrill
T2C0.889
; #@! TA.AperFunction,Plated,PTH,ComponentDrill
T3C1.500
; #@! TA.AperFunction,Plated,PTH,ComponentDrill
T4C1.700
; #@! TA.AperFunction,Plated,PTH,ComponentDrill
T5C3.000
%
G90
G05
T1
X5334Y20828
X5334Y19812
X5334Y10922
X6350Y10922
X6858Y23876
X7366Y10922
X7747Y23876
X9144Y4953
X10033Y4953
X10922Y22352
X11938Y22352
X12446Y10668
X12446Y9652
X13970Y20320
X14986Y11938
T2
X10160Y17780
X10160Y15240
X10160Y12700
X12700Y17780
X12700Y15240
X12700Y12700
X19050Y24130
X19050Y21590
X19050Y19050
X19050Y16510
X19050Y13970
X19050Y11430
X19050Y8890
X19050Y6350
X21590Y24130
X21590Y21590
X21590Y19050
X21590Y16510
X21590Y13970
X21590Y11430
X21590Y8890
X21590Y6350
T3
X0Y20320
X0Y10160
X10160Y30480
X10160Y0
T4
X-2540Y22860
X-2540Y17780
X-2540Y12700
X-2540Y7620
X2540Y22860
X2540Y17780
X2540Y12700
X2540Y7620
X7620Y33020
X7620Y27940
X7620Y2540
X7620Y-2540
X12700Y33020
X12700Y27940
X12700Y2540
X12700Y-2540
T5
X0Y30480
X0Y0
X20320Y30480
X20320Y0
T0
M30
