%TF.GenerationSoftware,KiCad,Pcbnew,9.0.6+1*%
%TF.CreationDate,2026-01-18T22:20:40+00:00*%
%TF.ProjectId,ACOMP01,41434f4d-5030-4312-9e6b-696361645f70,rev?*%
%TF.SameCoordinates,Original*%
%TF.FileFunction,Copper,L2,Bot*%
%TF.FilePolarity,Positive*%
%FSLAX46Y46*%
G04 Gerber Fmt 4.6, Leading zero omitted, Abs format (unit mm)*
G04 Created by KiCad (PCBNEW 9.0.6+1) date 2026-01-18 22:20:40*
%MOMM*%
%LPD*%
G01*
G04 APERTURE LIST*
G04 Aperture macros list*
%AMRoundRect*
0 Rectangle with rounded corners*
0 $1 Rounding radius*
0 $2 $3 $4 $5 $6 $7 $8 $9 X,Y pos of 4 corners*
0 Add a 4 corners polygon primitive as box body*
4,1,4,$2,$3,$4,$5,$6,$7,$8,$9,$2,$3,0*
0 Add four circle primitives for the rounded corners*
1,1,$1+$1,$2,$3*
1,1,$1+$1,$4,$5*
1,1,$1+$1,$6,$7*
1,1,$1+$1,$8,$9*
0 Add four rect primitives between the rounded corners*
20,1,$1+$1,$2,$3,$4,$5,0*
20,1,$1+$1,$4,$5,$6,$7,0*
20,1,$1+$1,$6,$7,$8,$9,0*
20,1,$1+$1,$8,$9,$2,$3,0*%
G04 Aperture macros list end*
%ADD10C,0.127000*%
%TA.AperFunction,ComponentPad*%
%ADD11R,1.524000X1.524000*%
%TD*%
%TA.AperFunction,ComponentPad*%
%ADD12C,6.000000*%
%TD*%
%TA.AperFunction,ComponentPad*%
%ADD13C,2.500000*%
%TD*%
%TA.AperFunction,ComponentPad*%
%ADD14C,2.700000*%
%TD*%
%TA.AperFunction,SMDPad,CuDef*%
%ADD15RoundRect,0.250000X-0.475000X0.250000X-0.475000X-0.250000X0.475000X-0.250000X0.475000X0.250000X0*%
%TD*%
%TA.AperFunction,SMDPad,CuDef*%
%ADD16RoundRect,0.250000X-0.650000X1.000000X-0.650000X-1.000000X0.650000X-1.000000X0.650000X1.000000X0*%
%TD*%
%TA.AperFunction,SMDPad,CuDef*%
%ADD17RoundRect,0.250000X0.250000X0.475000X-0.250000X0.475000X-0.250000X-0.475000X0.250000X-0.475000X0*%
%TD*%
%TA.AperFunction,SMDPad,CuDef*%
%ADD18RoundRect,0.250000X-0.250000X-0.475000X0.250000X-0.475000X0.250000X0.475000X-0.250000X0.475000X0*%
%TD*%
%TA.AperFunction,SMDPad,CuDef*%
%ADD19RoundRect,0.250000X0.450000X-0.262500X0.450000X0.262500X-0.450000X0.262500X-0.450000X-0.262500X0*%
%TD*%
%TA.AperFunction,SMDPad,CuDef*%
%ADD20RoundRect,0.150000X-0.150000X0.512500X-0.150000X-0.512500X0.150000X-0.512500X0.150000X0.512500X0*%
%TD*%
%TA.AperFunction,SMDPad,CuDef*%
%ADD21RoundRect,0.100000X0.100000X-0.562500X0.100000X0.562500X-0.100000X0.562500X-0.100000X-0.562500X0*%
%TD*%
%TA.AperFunction,ViaPad*%
%ADD22C,0.800000*%
%TD*%
%TA.AperFunction,Conductor*%
%ADD23C,0.250000*%
%TD*%
%TA.AperFunction,Conductor*%
%ADD24C,0.500000*%
%TD*%
%TA.AperFunction,Conductor*%
%ADD25C,0.200000*%
%TD*%
G04 APERTURE END LIST*
D10*
G36*
X-1155825Y4458227D02*
G01*
X-1122779Y4425180D01*
X-1086472Y4352567D01*
X-1086472Y4144452D01*
X-1122779Y4071840D01*
X-1155827Y4038791D01*
X-1228438Y4002485D01*
X-1388934Y4002485D01*
X-1461546Y4038791D01*
X-1494594Y4071840D01*
X-1530900Y4144452D01*
X-1530900Y4352567D01*
X-1494594Y4425181D01*
X-1461547Y4458227D01*
X-1388934Y4494533D01*
X-1228438Y4494533D01*
X-1155825Y4458227D01*
G37*
G36*
X701318Y4839179D02*
G01*
X734364Y4806132D01*
X774257Y4726346D01*
X818290Y4550216D01*
X818290Y4327755D01*
X774257Y4151625D01*
X734364Y4071840D01*
X701316Y4038791D01*
X628705Y4002485D01*
X563447Y4002485D01*
X490835Y4038791D01*
X457787Y4071840D01*
X417894Y4151625D01*
X373862Y4327755D01*
X373862Y4550216D01*
X417894Y4726346D01*
X457787Y4806133D01*
X490834Y4839179D01*
X563447Y4875485D01*
X628705Y4875485D01*
X701318Y4839179D01*
G37*
G36*
X2051567Y3764374D02*
G01*
X-1769011Y3764374D01*
X-1769011Y4367557D01*
X-1657900Y4367557D01*
X-1657900Y4129462D01*
X-1657280Y4126342D01*
X-1657740Y4124960D01*
X-1655052Y4115143D01*
X-1653066Y4105162D01*
X-1652037Y4104133D01*
X-1651196Y4101064D01*
X-1603577Y4005826D01*
X-1597340Y3997790D01*
X-1591683Y3989323D01*
X-1544064Y3941703D01*
X-1535601Y3936049D01*
X-1527560Y3929808D01*
X-1432322Y3882189D01*
X-1429254Y3881349D01*
X-1428224Y3880319D01*
X-1418244Y3878334D01*
X-1408426Y3875645D01*
X-1407045Y3876106D01*
X-1403924Y3875485D01*
X-1213448Y3875485D01*
X-1210328Y3876106D01*
X-1208946Y3875645D01*
X-1199129Y3878334D01*
X-1189148Y3880319D01*
X-1188119Y3881349D01*
X-1185050Y3882189D01*
X-1089812Y3929808D01*
X-1081776Y3936046D01*
X-1073308Y3941703D01*
X-1025689Y3989323D01*
X-1020033Y3997790D01*
X-1013795Y4005826D01*
X-966176Y4101064D01*
X-965336Y4104133D01*
X-964306Y4105162D01*
X-962321Y4115143D01*
X-959632Y4124960D01*
X-960093Y4126342D01*
X-959472Y4129462D01*
X-959472Y4510414D01*
X-960990Y4518045D01*
X-961368Y4525815D01*
X-1008987Y4716291D01*
X-1013622Y4726101D01*
X-1017756Y4736113D01*
X-1026020Y4748509D01*
X-705519Y4748509D01*
X-705519Y4653271D01*
X-703533Y4643287D01*
X-702260Y4633191D01*
X-654642Y4490334D01*
X-653066Y4487570D01*
X-653066Y4486114D01*
X-647412Y4477652D01*
X-642371Y4468810D01*
X-641069Y4468159D01*
X-639301Y4465513D01*
X-176274Y4002485D01*
X-642019Y4002485D01*
X-666319Y3997651D01*
X-700685Y3963285D01*
X-700685Y3914685D01*
X-666319Y3880319D01*
X-642019Y3875485D01*
X-22972Y3875485D01*
X1328Y3880319D01*
X35694Y3914684D01*
X35694Y3963285D01*
X21929Y3983886D01*
X-538900Y4544716D01*
X-543339Y4558033D01*
X246862Y4558033D01*
X246862Y4319938D01*
X248379Y4312308D01*
X248758Y4304537D01*
X296377Y4114061D01*
X299347Y4107773D01*
X301185Y4101064D01*
X348804Y4005826D01*
X355041Y3997790D01*
X360698Y3989323D01*
X408317Y3941703D01*
X416780Y3936049D01*
X424821Y3929808D01*
X520059Y3882189D01*
X523127Y3881349D01*
X524157Y3880319D01*
X534137Y3878334D01*
X543955Y3875645D01*
X545336Y3876106D01*
X548457Y3875485D01*
X643695Y3875485D01*
X646815Y3876106D01*
X648197Y3875645D01*
X658014Y3878334D01*
X667995Y3880319D01*
X669024Y3881349D01*
X672093Y3882189D01*
X767331Y3929808D01*
X775367Y3936046D01*
X783835Y3941703D01*
X831454Y3989323D01*
X837110Y3997790D01*
X843348Y4005826D01*
X890967Y4101064D01*
X892804Y4107773D01*
X895775Y4114061D01*
X943394Y4304537D01*
X943772Y4312308D01*
X945290Y4319938D01*
X945290Y4558033D01*
X943772Y4565664D01*
X943394Y4573434D01*
X899625Y4748509D01*
X1199243Y4748509D01*
X1199243Y4653271D01*
X1201229Y4643287D01*
X1202502Y4633191D01*
X1250120Y4490334D01*
X1251696Y4487570D01*
X1251696Y4486114D01*
X1257350Y4477652D01*
X1262391Y4468810D01*
X1263693Y4468159D01*
X1265461Y4465513D01*
X1728488Y4002485D01*
X1262743Y4002485D01*
X1238443Y3997651D01*
X1204077Y3963285D01*
X1204077Y3914685D01*
X1238443Y3880319D01*
X1262743Y3875485D01*
X1881790Y3875485D01*
X1906090Y3880319D01*
X1940456Y3914684D01*
X1940456Y3963285D01*
X1926691Y3983886D01*
X1365862Y4544716D01*
X1326243Y4663575D01*
X1326243Y4733519D01*
X1362549Y4806133D01*
X1395596Y4839179D01*
X1468209Y4875485D01*
X1676324Y4875485D01*
X1748937Y4839179D01*
X1789269Y4798846D01*
X1809870Y4785081D01*
X1858471Y4785081D01*
X1892837Y4819447D01*
X1892837Y4868048D01*
X1879072Y4888649D01*
X1831453Y4936267D01*
X1822992Y4941921D01*
X1814950Y4948162D01*
X1719712Y4995781D01*
X1716643Y4996622D01*
X1715614Y4997651D01*
X1705633Y4999637D01*
X1695816Y5002325D01*
X1694434Y5001865D01*
X1691314Y5002485D01*
X1453219Y5002485D01*
X1450098Y5001865D01*
X1448717Y5002325D01*
X1438899Y4999637D01*
X1428919Y4997651D01*
X1427889Y4996622D01*
X1424821Y4995781D01*
X1329583Y4948162D01*
X1321546Y4941925D01*
X1313079Y4936267D01*
X1265461Y4888648D01*
X1259807Y4880188D01*
X1253566Y4872145D01*
X1205947Y4776907D01*
X1205106Y4773839D01*
X1204077Y4772809D01*
X1202091Y4762829D01*
X1199403Y4753011D01*
X1199863Y4751630D01*
X1199243Y4748509D01*
X899625Y4748509D01*
X895775Y4763910D01*
X892804Y4770199D01*
X890967Y4776907D01*
X843348Y4872145D01*
X837110Y4880182D01*
X831453Y4888649D01*
X783834Y4936267D01*
X775373Y4941921D01*
X767331Y4948162D01*
X672093Y4995781D01*
X669024Y4996622D01*
X667995Y4997651D01*
X658014Y4999637D01*
X648197Y5002325D01*
X646815Y5001865D01*
X643695Y5002485D01*
X548457Y5002485D01*
X545336Y5001865D01*
X543955Y5002325D01*
X534137Y4999637D01*
X524157Y4997651D01*
X523127Y4996622D01*
X520059Y4995781D01*
X424821Y4948162D01*
X416784Y4941925D01*
X408317Y4936267D01*
X360699Y4888648D01*
X355045Y4880188D01*
X348804Y4872145D01*
X301185Y4776907D01*
X299347Y4770199D01*
X296377Y4763910D01*
X248758Y4573434D01*
X248379Y4565664D01*
X246862Y4558033D01*
X-543339Y4558033D01*
X-578519Y4663575D01*
X-578519Y4733519D01*
X-542213Y4806133D01*
X-509166Y4839179D01*
X-436553Y4875485D01*
X-228438Y4875485D01*
X-155825Y4839179D01*
X-115493Y4798846D01*
X-94892Y4785081D01*
X-46291Y4785081D01*
X-11925Y4819447D01*
X-11925Y4868048D01*
X-25690Y4888649D01*
X-73309Y4936267D01*
X-81770Y4941921D01*
X-89812Y4948162D01*
X-185050Y4995781D01*
X-188119Y4996622D01*
X-189148Y4997651D01*
X-199129Y4999637D01*
X-208946Y5002325D01*
X-210328Y5001865D01*
X-213448Y5002485D01*
X-451543Y5002485D01*
X-454664Y5001865D01*
X-456045Y5002325D01*
X-465863Y4999637D01*
X-475843Y4997651D01*
X-476873Y4996622D01*
X-479941Y4995781D01*
X-575179Y4948162D01*
X-583216Y4941925D01*
X-591683Y4936267D01*
X-639301Y4888648D01*
X-644955Y4880188D01*
X-651196Y4872145D01*
X-698815Y4776907D01*
X-699656Y4773839D01*
X-700685Y4772809D01*
X-702671Y4762829D01*
X-705359Y4753011D01*
X-704899Y4751630D01*
X-705519Y4748509D01*
X-1026020Y4748509D01*
X-1112994Y4878970D01*
X-1117434Y4883419D01*
X-1120928Y4888649D01*
X-1168547Y4936267D01*
X-1177008Y4941921D01*
X-1185050Y4948162D01*
X-1280288Y4995781D01*
X-1283357Y4996622D01*
X-1284386Y4997651D01*
X-1294367Y4999637D01*
X-1304184Y5002325D01*
X-1305566Y5001865D01*
X-1308686Y5002485D01*
X-1499162Y5002485D01*
X-1523462Y4997651D01*
X-1557828Y4963285D01*
X-1557828Y4914685D01*
X-1523462Y4880319D01*
X-1499162Y4875485D01*
X-1323676Y4875485D01*
X-1251063Y4839179D01*
X-1215175Y4803290D01*
X-1129528Y4674818D01*
X-1104456Y4574532D01*
X-1185050Y4614829D01*
X-1188119Y4615670D01*
X-1189148Y4616699D01*
X-1199129Y4618685D01*
X-1208946Y4621373D01*
X-1210328Y4620913D01*
X-1213448Y4621533D01*
X-1403924Y4621533D01*
X-1407045Y4620913D01*
X-1408426Y4621373D01*
X-1418244Y4618685D01*
X-1428224Y4616699D01*
X-1429254Y4615670D01*
X-1432322Y4614829D01*
X-1527560Y4567210D01*
X-1535597Y4560973D01*
X-1544064Y4555315D01*
X-1591682Y4507696D01*
X-1597336Y4499236D01*
X-1603577Y4491193D01*
X-1651196Y4395955D01*
X-1652037Y4392887D01*
X-1653066Y4391857D01*
X-1655052Y4381877D01*
X-1657740Y4372059D01*
X-1657280Y4370678D01*
X-1657900Y4367557D01*
X-1769011Y4367557D01*
X-1769011Y5113596D01*
X2051567Y5113596D01*
X2051567Y3764374D01*
G37*
D11*
%TO.P,J6,1*%
%TO.N,GND*%
X21590000Y6350000D03*
%TO.P,J6,2*%
X19050000Y6350000D03*
%TO.P,J6,3*%
%TO.N,/TLV_OUT+*%
X21590000Y8890000D03*
%TO.P,J6,4*%
X19050000Y8890000D03*
%TO.P,J6,5*%
%TO.N,/TLV_OUT-*%
X21590000Y11430000D03*
%TO.P,J6,6*%
X19050000Y11430000D03*
%TO.P,J6,7*%
%TO.N,GND*%
X21590000Y13970000D03*
%TO.P,J6,8*%
X19050000Y13970000D03*
%TD*%
D12*
%TO.P,M2,1*%
%TO.N,GND*%
X0Y30480000D03*
%TD*%
%TO.P,M4,1*%
%TO.N,GND*%
X20320000Y0D03*
%TD*%
D11*
%TO.P,J7,1*%
%TO.N,GND*%
X21590000Y16510000D03*
%TO.P,J7,2*%
X19050000Y16510000D03*
%TO.P,J7,3*%
%TO.N,/LMH_OUT+*%
X21590000Y19050000D03*
%TO.P,J7,4*%
X19050000Y19050000D03*
%TO.P,J7,5*%
%TO.N,/LMH_OUT-*%
X21590000Y21590000D03*
%TO.P,J7,6*%
X19050000Y21590000D03*
%TO.P,J7,7*%
%TO.N,GND*%
X21590000Y24130000D03*
%TO.P,J7,8*%
X19050000Y24130000D03*
%TD*%
D13*
%TO.P,J2,1,In*%
%TO.N,/IN+_TLV*%
X10160000Y0D03*
D14*
%TO.P,J2,2,Ext*%
%TO.N,GND*%
X7620000Y2540000D03*
X7620000Y-2540000D03*
X12700000Y2540000D03*
X12700000Y-2540000D03*
%TD*%
D11*
%TO.P,J1,1*%
%TO.N,GND*%
X10160000Y17780000D03*
%TO.P,J1,2*%
X12700000Y17780000D03*
%TO.P,J1,3*%
%TO.N,+3V3*%
X10160000Y15240000D03*
%TO.P,J1,4*%
X12700000Y15240000D03*
%TO.P,J1,5*%
%TO.N,GND*%
X10160000Y12700000D03*
%TO.P,J1,6*%
X12700000Y12700000D03*
%TD*%
D13*
%TO.P,J4,1,In*%
%TO.N,/IN+_LMH*%
X0Y20320000D03*
D14*
%TO.P,J4,2,Ext*%
%TO.N,GND*%
X-2540000Y22860000D03*
X-2540000Y17780000D03*
X2540000Y22860000D03*
X2540000Y17780000D03*
%TD*%
D12*
%TO.P,M3,1*%
%TO.N,GND*%
X0Y0D03*
%TD*%
%TO.P,M1,1*%
%TO.N,GND*%
X20320000Y30480000D03*
%TD*%
D13*
%TO.P,J5,1,In*%
%TO.N,/IN-_LMH*%
X10160000Y30480000D03*
D14*
%TO.P,J5,2,Ext*%
%TO.N,GND*%
X7620000Y33020000D03*
X7620000Y27940000D03*
X12700000Y33020000D03*
X12700000Y27940000D03*
%TD*%
D13*
%TO.P,J3,1,In*%
%TO.N,/IN-_TLV*%
X0Y10160000D03*
D14*
%TO.P,J3,2,Ext*%
%TO.N,GND*%
X-2540000Y12700000D03*
X-2540000Y7620000D03*
X2540000Y12700000D03*
X2540000Y7620000D03*
%TD*%
D15*
%TO.P,C1,1*%
%TO.N,+3V3*%
X15494000Y15174000D03*
%TO.P,C1,2*%
%TO.N,GND*%
X15494000Y13274000D03*
%TD*%
D16*
%TO.P,D1,1,K*%
%TO.N,+3V3*%
X6604000Y17240000D03*
%TO.P,D1,2,A*%
%TO.N,GND*%
X6604000Y13240000D03*
%TD*%
D17*
%TO.P,C4,1*%
%TO.N,+3V3*%
X8824000Y20574000D03*
%TO.P,C4,2*%
%TO.N,GND*%
X6924000Y20574000D03*
%TD*%
D18*
%TO.P,C3,1*%
%TO.N,+3V3*%
X8956000Y10160000D03*
%TO.P,C3,2*%
%TO.N,GND*%
X10856000Y10160000D03*
%TD*%
D19*
%TO.P,R2,1*%
%TO.N,/LMH_OUT+*%
X16535400Y19407500D03*
%TO.P,R2,2*%
%TO.N,/LMH_OUT-*%
X16535400Y21232500D03*
%TD*%
D18*
%TO.P,C2,1*%
%TO.N,+3V3*%
X10480000Y20574000D03*
%TO.P,C2,2*%
%TO.N,GND*%
X12380000Y20574000D03*
%TD*%
D20*
%TO.P,IC2,1,IN-*%
%TO.N,/IN-_LMH*%
X6797000Y25013500D03*
%TO.P,IC2,2,GND*%
%TO.N,GND*%
X7747000Y25013500D03*
%TO.P,IC2,3,OUT_~{Q}*%
%TO.N,/LMH_OUT-*%
X8697000Y25013500D03*
%TO.P,IC2,4,OUT_Q*%
%TO.N,/LMH_OUT+*%
X8697000Y22738500D03*
%TO.P,IC2,5,VCC*%
%TO.N,+3V3*%
X7747000Y22738500D03*
%TO.P,IC2,6,IN+*%
%TO.N,/IN+_LMH*%
X6797000Y22738500D03*
%TD*%
D21*
%TO.P,IC1,1,OUT+*%
%TO.N,/TLV_OUT+*%
X9794000Y6249900D03*
%TO.P,IC1,2,VEE*%
%TO.N,GND*%
X9144000Y6249900D03*
%TO.P,IC1,3,IN+*%
%TO.N,/IN+_TLV*%
X8494000Y6249900D03*
%TO.P,IC1,4,IN-*%
%TO.N,/IN-_TLV*%
X8494000Y8024900D03*
%TO.P,IC1,5,VCCI/VCCO*%
%TO.N,+3V3*%
X9144000Y8024900D03*
%TO.P,IC1,6,OUT-*%
%TO.N,/TLV_OUT-*%
X9794000Y8024900D03*
%TD*%
D19*
%TO.P,R1,1*%
%TO.N,/TLV_OUT+*%
X16535400Y9247500D03*
%TO.P,R1,2*%
%TO.N,/TLV_OUT-*%
X16535400Y11072500D03*
%TD*%
D22*
%TO.N,GND*%
X9372600Y23876000D03*
X5334000Y20828000D03*
X5740400Y23876000D03*
X11709400Y8534400D03*
X12446000Y9652000D03*
X10515600Y4114800D03*
X5334000Y19812000D03*
X7366000Y10922000D03*
X6654800Y6959600D03*
X10922000Y22352000D03*
X6350000Y10922000D03*
X13970000Y20320000D03*
X9835598Y4624802D03*
X14986000Y11938000D03*
X15468600Y5207000D03*
X12446000Y10668000D03*
X11938000Y22352000D03*
X5334000Y10922000D03*
%TD*%
D23*
%TO.N,+3V3*%
X8763000Y10353000D02*
X8956000Y10160000D01*
X10160000Y15240000D02*
X12700000Y15240000D01*
X8824000Y20817800D02*
X8824000Y20574000D01*
X11379200Y19674800D02*
X11379200Y16560800D01*
X10480000Y20574000D02*
X8824000Y20574000D01*
X15494000Y15174000D02*
X15428000Y15240000D01*
X7747000Y21894800D02*
X8824000Y20817800D01*
X6604000Y17240000D02*
X8160000Y17240000D01*
X11379200Y16560800D02*
X12700000Y15240000D01*
X9144000Y9972000D02*
X8956000Y10160000D01*
X15428000Y15240000D02*
X12700000Y15240000D01*
X9144000Y8037400D02*
X9144000Y9972000D01*
X8160000Y17240000D02*
X10160000Y15240000D01*
X10480000Y20574000D02*
X11379200Y19674800D01*
X8763000Y13843000D02*
X8763000Y10353000D01*
X7747000Y22606000D02*
X7747000Y21894800D01*
X10160000Y15240000D02*
X8763000Y13843000D01*
%TO.N,GND*%
X9637598Y4624802D02*
X9144000Y5118400D01*
X4064000Y24384000D02*
X4775200Y24384000D01*
X9835598Y4624802D02*
X9637598Y4624802D01*
D24*
X10160000Y12700000D02*
X10160000Y10856000D01*
D23*
X2540000Y22860000D02*
X4064000Y24384000D01*
X5283200Y23876000D02*
X5740400Y23876000D01*
X7747000Y24623677D02*
X6999323Y23876000D01*
D24*
X10160000Y10856000D02*
X10856000Y10160000D01*
D23*
X7747000Y24587200D02*
X7747000Y25013500D01*
X9144000Y5118400D02*
X9144000Y6237400D01*
X7747000Y25013500D02*
X7747000Y24623677D01*
X9372600Y23876000D02*
X8458200Y23876000D01*
X4775200Y24384000D02*
X5283200Y23876000D01*
X8458200Y23876000D02*
X7747000Y24587200D01*
X6999323Y23876000D02*
X5740400Y23876000D01*
%TO.N,/IN+_TLV*%
X8534400Y4419600D02*
X10160000Y2794000D01*
X8494000Y4460000D02*
X8494000Y6249900D01*
X8534400Y4419600D02*
X8494000Y4460000D01*
X10160000Y2794000D02*
X10160000Y0D01*
%TO.N,/IN-_TLV*%
X6442600Y8037400D02*
X6096000Y8384000D01*
X8494000Y8037400D02*
X6442600Y8037400D01*
X4320000Y10160000D02*
X0Y10160000D01*
X6096000Y8384000D02*
X4320000Y10160000D01*
%TO.N,/IN+_LMH*%
X5334000Y22606000D02*
X6794500Y22606000D01*
X3048000Y20320000D02*
X5334000Y22606000D01*
X0Y20320000D02*
X3048000Y20320000D01*
%TO.N,/IN-_LMH*%
X6794500Y25844500D02*
X7112000Y26162000D01*
X6794500Y25146000D02*
X6794500Y25844500D01*
X8842000Y26162000D02*
X10160000Y27480000D01*
X10160000Y27480000D02*
X10160000Y30480000D01*
X7112000Y26162000D02*
X8842000Y26162000D01*
D25*
%TO.N,/TLV_OUT+*%
X14014836Y7915537D02*
X13011697Y6912400D01*
X13011697Y6912400D02*
X11219001Y6912400D01*
X14822548Y8339801D02*
X14822547Y8339801D01*
X15346797Y9247500D02*
X14822548Y8723251D01*
X14822548Y7956353D02*
X14781732Y7915536D01*
X14822548Y7956352D02*
X14822548Y7956353D01*
X14014835Y7915536D02*
X14014836Y7915537D01*
X19050000Y8890000D02*
X16892900Y8890000D01*
X16892900Y8890000D02*
X16535400Y9247500D01*
X21590000Y8890000D02*
X19050000Y8890000D01*
X16535400Y9247500D02*
X15346797Y9247500D01*
X14398284Y7915536D02*
X14398284Y7915537D01*
X11219001Y6912400D02*
X10544001Y6237400D01*
X10544001Y6237400D02*
X9794000Y6237400D01*
X14822547Y8339801D02*
G75*
G02*
X14822524Y7956376I-191747J-191701D01*
G01*
X14781732Y7915536D02*
G75*
G02*
X14398284Y7915536I-191724J191726D01*
G01*
X14822548Y8723251D02*
G75*
G03*
X14822522Y8339775I191752J-191751D01*
G01*
X14398284Y7915537D02*
G75*
G03*
X14014875Y7915496I-191684J-191737D01*
G01*
%TO.N,/TLV_OUT-*%
X12825300Y7362400D02*
X11219001Y7362400D01*
X16535400Y11072500D02*
X12825300Y7362400D01*
X19050000Y11430000D02*
X16892900Y11430000D01*
X21590000Y11430000D02*
X19050000Y11430000D01*
X11219001Y7362400D02*
X10544001Y8037400D01*
X10544001Y8037400D02*
X9794000Y8037400D01*
X16892900Y11430000D02*
X16535400Y11072500D01*
D23*
%TO.N,/LMH_OUT-*%
X14642003Y22760342D02*
X14593907Y22808438D01*
X13841569Y22808438D02*
X12524007Y24126000D01*
X14217738Y22808439D02*
X14217738Y22808438D01*
X14642002Y22384173D02*
X14642003Y22384173D01*
X14642003Y22760343D02*
X14642003Y22760342D01*
X13841568Y22808438D02*
X13841569Y22808438D01*
X16892900Y21590000D02*
X16535400Y21232500D01*
X12524007Y24126000D02*
X10470071Y24126000D01*
X19050000Y21590000D02*
X21590000Y21590000D01*
X15417507Y21232500D02*
X14642003Y22008004D01*
X10470071Y24126000D02*
X9450071Y25146000D01*
X19050000Y21590000D02*
X16892900Y21590000D01*
X16535400Y21232500D02*
X15417507Y21232500D01*
X9450071Y25146000D02*
X8699500Y25146000D01*
X14593907Y22808438D02*
G75*
G03*
X14217716Y22808461I-188107J-188038D01*
G01*
X14217738Y22808438D02*
G75*
G02*
X13841568Y22808438I-188085J188086D01*
G01*
X14642003Y22384173D02*
G75*
G03*
X14642045Y22760385I-188103J188127D01*
G01*
X14642003Y22008004D02*
G75*
G02*
X14641991Y22384184I188097J188096D01*
G01*
%TO.N,/LMH_OUT+*%
X12316900Y23626000D02*
X10470071Y23626000D01*
X16535400Y19407500D02*
X12316900Y23626000D01*
X9450071Y22606000D02*
X8699500Y22606000D01*
X19050000Y19050000D02*
X16892900Y19050000D01*
X19050000Y19050000D02*
X21590000Y19050000D01*
X10470071Y23626000D02*
X9450071Y22606000D01*
X16892900Y19050000D02*
X16535400Y19407500D01*
%TD*%
%TA.AperFunction,Conductor*%
%TO.N,GND*%
G36*
X21175792Y6521571D02*
G01*
X21145500Y6408520D01*
X21145500Y6291480D01*
X21175792Y6178429D01*
X21223382Y6096000D01*
X19416618Y6096000D01*
X19464208Y6178429D01*
X19494500Y6291480D01*
X19494500Y6408520D01*
X19464208Y6521571D01*
X19416618Y6604000D01*
X21223382Y6604000D01*
X21175792Y6521571D01*
G37*
%TD.AperFunction*%
%TA.AperFunction,Conductor*%
G36*
X12070427Y22972498D02*
G01*
X12091401Y22955595D01*
X13113601Y21933395D01*
X13147627Y21871083D01*
X13142562Y21800268D01*
X13100015Y21743432D01*
X13033495Y21718621D01*
X12964121Y21733712D01*
X12958359Y21737059D01*
X12952525Y21740658D01*
X12784321Y21796394D01*
X12784318Y21796395D01*
X12680516Y21807000D01*
X12634000Y21807000D01*
X12634000Y20828000D01*
X13388000Y20828000D01*
X13388000Y21099517D01*
X13377394Y21203319D01*
X13377393Y21203322D01*
X13321656Y21371528D01*
X13318060Y21377358D01*
X13299321Y21445837D01*
X13320579Y21513576D01*
X13375085Y21559069D01*
X13445534Y21567872D01*
X13509558Y21537189D01*
X13514394Y21532602D01*
X15289995Y19757001D01*
X15324021Y19694689D01*
X15326900Y19667906D01*
X15326900Y19094456D01*
X15337512Y18990575D01*
X15393285Y18822262D01*
X15486370Y18671348D01*
X15486375Y18671342D01*
X15611741Y18545976D01*
X15611747Y18545971D01*
X15611748Y18545970D01*
X15762662Y18452885D01*
X15930974Y18397113D01*
X16034855Y18386500D01*
X17035944Y18386501D01*
X17139826Y18397113D01*
X17179034Y18410105D01*
X17218665Y18416500D01*
X17653500Y18416500D01*
X17721621Y18396498D01*
X17768114Y18342842D01*
X17779500Y18290500D01*
X17779500Y18239351D01*
X17786009Y18178804D01*
X17786011Y18178796D01*
X17837110Y18041798D01*
X17837112Y18041793D01*
X17924737Y17924741D01*
X17924738Y17924741D01*
X17924739Y17924739D01*
X17929352Y17921286D01*
X17983760Y17880556D01*
X18026306Y17823720D01*
X18031370Y17752904D01*
X17997345Y17690592D01*
X17983760Y17678821D01*
X17925096Y17634905D01*
X17837555Y17517966D01*
X17837555Y17517965D01*
X17786505Y17381094D01*
X17780000Y17320598D01*
X17780000Y16764000D01*
X18683382Y16764000D01*
X18635792Y16681571D01*
X18605500Y16568520D01*
X18605500Y16451480D01*
X18635792Y16338429D01*
X18683382Y16256000D01*
X17780000Y16256000D01*
X17780000Y15699403D01*
X17786505Y15638907D01*
X17837555Y15502036D01*
X17837555Y15502035D01*
X17925094Y15385098D01*
X17984177Y15340868D01*
X18026723Y15284031D01*
X18031787Y15213216D01*
X17997762Y15150904D01*
X17984177Y15139132D01*
X17925094Y15094903D01*
X17837555Y14977966D01*
X17837555Y14977965D01*
X17786505Y14841094D01*
X17780000Y14780598D01*
X17780000Y14224000D01*
X18683382Y14224000D01*
X18635792Y14141571D01*
X18605500Y14028520D01*
X18605500Y13911480D01*
X18635792Y13798429D01*
X18683382Y13716000D01*
X17780000Y13716000D01*
X17780000Y13159403D01*
X17786505Y13098907D01*
X17837555Y12962036D01*
X17837555Y12962035D01*
X17925095Y12845096D01*
X17983759Y12801181D01*
X18026306Y12744345D01*
X18031370Y12673530D01*
X17997345Y12611217D01*
X17983761Y12599446D01*
X17924738Y12555261D01*
X17837112Y12438208D01*
X17837110Y12438203D01*
X17786011Y12301205D01*
X17786009Y12301197D01*
X17779500Y12240650D01*
X17779500Y12164500D01*
X17759498Y12096379D01*
X17705842Y12049886D01*
X17653500Y12038500D01*
X17294112Y12038500D01*
X17254481Y12044895D01*
X17139826Y12082887D01*
X17139824Y12082888D01*
X17139822Y12082888D01*
X17035953Y12093500D01*
X16347673Y12093500D01*
X16279552Y12113502D01*
X16233059Y12167158D01*
X16222955Y12237432D01*
X16252449Y12302012D01*
X16285995Y12327328D01*
X16285279Y12328490D01*
X16442339Y12425366D01*
X16442345Y12425371D01*
X16567629Y12550655D01*
X16567634Y12550661D01*
X16660657Y12701475D01*
X16716393Y12869679D01*
X16716394Y12869682D01*
X16726999Y12973484D01*
X16727000Y12973484D01*
X16727000Y13020000D01*
X15748000Y13020000D01*
X15748000Y12265999D01*
X15765205Y12248794D01*
X15774725Y12245998D01*
X15821218Y12192342D01*
X15831322Y12122068D01*
X15801828Y12057488D01*
X15768203Y12032109D01*
X15768908Y12030967D01*
X15762663Y12027116D01*
X15762662Y12027115D01*
X15692452Y11983810D01*
X15611747Y11934030D01*
X15611741Y11934025D01*
X15486375Y11808659D01*
X15486370Y11808653D01*
X15393285Y11657738D01*
X15337513Y11489428D01*
X15337512Y11489421D01*
X15326900Y11385554D01*
X15326900Y10776741D01*
X15306898Y10708620D01*
X15289995Y10687646D01*
X12610156Y8007805D01*
X12547844Y7973780D01*
X12521061Y7970900D01*
X11523240Y7970900D01*
X11455119Y7990902D01*
X11434149Y8007801D01*
X10917628Y8524322D01*
X10917626Y8524323D01*
X10917624Y8524325D01*
X10778878Y8604430D01*
X10778875Y8604431D01*
X10778874Y8604432D01*
X10778872Y8604433D01*
X10778871Y8604433D01*
X10649863Y8639000D01*
X10649863Y8639001D01*
X10624112Y8645900D01*
X10610410Y8645900D01*
X10587059Y8652757D01*
X10562853Y8655220D01*
X10553618Y8662576D01*
X10542289Y8665902D01*
X10526352Y8684295D01*
X10507320Y8699454D01*
X10500416Y8714227D01*
X10495796Y8719558D01*
X10491085Y8731432D01*
X10487331Y8742499D01*
X10486838Y8746250D01*
X10482543Y8756619D01*
X10481216Y8760532D01*
X10479912Y8792034D01*
X10476543Y8823372D01*
X10478456Y8827196D01*
X10478280Y8831468D01*
X10494214Y8858675D01*
X10508323Y8886859D01*
X10511999Y8889041D01*
X10514161Y8892731D01*
X10542274Y8907004D01*
X10569381Y8923086D01*
X10575458Y8923850D01*
X10577467Y8924869D01*
X10580841Y8924526D01*
X10600541Y8927000D01*
X10602000Y8927000D01*
X11110000Y8927000D01*
X11156517Y8927000D01*
X11156516Y8927001D01*
X11260318Y8937606D01*
X11260321Y8937607D01*
X11428525Y8993343D01*
X11579339Y9086366D01*
X11579345Y9086371D01*
X11704629Y9211655D01*
X11704634Y9211661D01*
X11797657Y9362475D01*
X11853393Y9530679D01*
X11853394Y9530682D01*
X11863999Y9634484D01*
X11864000Y9634484D01*
X11864000Y9906000D01*
X11110000Y9906000D01*
X11110000Y8927000D01*
X10602000Y8927000D01*
X10602000Y10034000D01*
X10622002Y10102121D01*
X10675658Y10148614D01*
X10728000Y10160000D01*
X10856000Y10160000D01*
X10856000Y10288000D01*
X10876002Y10356121D01*
X10929658Y10402614D01*
X10982000Y10414000D01*
X11864000Y10414000D01*
X11864000Y10685517D01*
X11853394Y10789319D01*
X11853393Y10789322D01*
X11797657Y10957526D01*
X11704634Y11108340D01*
X11704629Y11108346D01*
X11579345Y11233630D01*
X11579339Y11233635D01*
X11428521Y11326660D01*
X11428522Y11326660D01*
X11327944Y11359988D01*
X11269572Y11400402D01*
X11242317Y11465958D01*
X11254831Y11535844D01*
X11268678Y11557663D01*
X11331101Y11636739D01*
X11358793Y11656382D01*
X11385968Y11676724D01*
X11387642Y11676844D01*
X11389010Y11677814D01*
X11422921Y11679367D01*
X11456783Y11681788D01*
X11458255Y11680985D01*
X11459932Y11681061D01*
X11489306Y11664030D01*
X11519096Y11647763D01*
X11520848Y11645741D01*
X11521351Y11645449D01*
X11521714Y11644742D01*
X11530868Y11634177D01*
X11575095Y11575096D01*
X11692034Y11487556D01*
X11828906Y11436506D01*
X11889402Y11430001D01*
X11889415Y11430000D01*
X12446000Y11430000D01*
X12446000Y12333382D01*
X12528429Y12285792D01*
X12641480Y12255500D01*
X12758520Y12255500D01*
X12871571Y12285792D01*
X12954000Y12333382D01*
X12954000Y11430000D01*
X13510585Y11430000D01*
X13510597Y11430001D01*
X13571093Y11436506D01*
X13707964Y11487556D01*
X13707965Y11487556D01*
X13824904Y11575096D01*
X13912444Y11692035D01*
X13912444Y11692036D01*
X13963494Y11828907D01*
X13969999Y11889403D01*
X13970000Y11889415D01*
X13970000Y12446000D01*
X13066618Y12446000D01*
X13114208Y12528429D01*
X13144500Y12641480D01*
X13144500Y12758520D01*
X13114208Y12871571D01*
X13066618Y12954000D01*
X13970000Y12954000D01*
X13970000Y12973484D01*
X14261000Y12973484D01*
X14271605Y12869682D01*
X14271606Y12869679D01*
X14327342Y12701475D01*
X14420365Y12550661D01*
X14420370Y12550655D01*
X14545654Y12425371D01*
X14545660Y12425366D01*
X14696474Y12332343D01*
X14864678Y12276607D01*
X14864681Y12276606D01*
X14968483Y12266001D01*
X14968483Y12266000D01*
X15240000Y12266000D01*
X15240000Y13020000D01*
X14261000Y13020000D01*
X14261000Y12973484D01*
X13970000Y12973484D01*
X13970000Y13510586D01*
X13969999Y13510598D01*
X13963494Y13571094D01*
X13912444Y13707965D01*
X13912444Y13707966D01*
X13824904Y13824905D01*
X13766240Y13868820D01*
X13723693Y13925656D01*
X13718629Y13996472D01*
X13752654Y14058784D01*
X13766240Y14070556D01*
X13825261Y14114739D01*
X13912887Y14231793D01*
X13912887Y14231794D01*
X13912889Y14231796D01*
X13963989Y14368799D01*
X13964115Y14369965D01*
X13970499Y14429351D01*
X13970500Y14429368D01*
X13970500Y14480500D01*
X13973091Y14489326D01*
X13971782Y14498432D01*
X13982937Y14522858D01*
X13990502Y14548621D01*
X13997455Y14554646D01*
X14001276Y14563012D01*
X14023861Y14577527D01*
X14044158Y14595114D01*
X14054844Y14597439D01*
X14061002Y14601396D01*
X14096500Y14606500D01*
X14253332Y14606500D01*
X14321453Y14586498D01*
X14360570Y14546650D01*
X14395928Y14489326D01*
X14419970Y14450348D01*
X14419975Y14450342D01*
X14545345Y14324972D01*
X14548450Y14322517D01*
X14550027Y14320290D01*
X14550537Y14319780D01*
X14550449Y14319693D01*
X14589481Y14264578D01*
X14592673Y14193653D01*
X14557014Y14132261D01*
X14548454Y14124843D01*
X14545654Y14122630D01*
X14420370Y13997346D01*
X14420365Y13997340D01*
X14327342Y13846526D01*
X14271606Y13678322D01*
X14271605Y13678319D01*
X14261000Y13574517D01*
X14261000Y13528000D01*
X16727000Y13528000D01*
X16727000Y13574517D01*
X16716394Y13678319D01*
X16716393Y13678322D01*
X16660657Y13846526D01*
X16567634Y13997340D01*
X16567629Y13997346D01*
X16442344Y14122631D01*
X16439551Y14124839D01*
X16438131Y14126844D01*
X16437150Y14127825D01*
X16437317Y14127993D01*
X16398519Y14182778D01*
X16395325Y14253702D01*
X16430983Y14315095D01*
X16439554Y14322522D01*
X16442639Y14324963D01*
X16442652Y14324970D01*
X16568030Y14450348D01*
X16661115Y14601262D01*
X16716887Y14769574D01*
X16727500Y14873455D01*
X16727499Y15474544D01*
X16726788Y15481500D01*
X16716887Y15578426D01*
X16692673Y15651501D01*
X16661115Y15746738D01*
X16568030Y15897652D01*
X16568029Y15897653D01*
X16568024Y15897659D01*
X16442658Y16023025D01*
X16442652Y16023030D01*
X16291738Y16116115D01*
X16176468Y16154311D01*
X16123427Y16171887D01*
X16123420Y16171888D01*
X16019553Y16182500D01*
X14968455Y16182500D01*
X14864574Y16171888D01*
X14696261Y16116115D01*
X14545347Y16023030D01*
X14545341Y16023025D01*
X14432722Y15910405D01*
X14405353Y15895461D01*
X14379125Y15878604D01*
X14372826Y15877699D01*
X14370410Y15876379D01*
X14343627Y15873500D01*
X14096500Y15873500D01*
X14028379Y15893502D01*
X13981886Y15947158D01*
X13970500Y15999500D01*
X13970500Y16050633D01*
X13970499Y16050650D01*
X13963990Y16111197D01*
X13963988Y16111205D01*
X13912889Y16248203D01*
X13912887Y16248208D01*
X13825260Y16365262D01*
X13766239Y16409446D01*
X13723693Y16466282D01*
X13718629Y16537098D01*
X13752654Y16599409D01*
X13766241Y16611182D01*
X13824904Y16655097D01*
X13912444Y16772035D01*
X13912444Y16772036D01*
X13963494Y16908907D01*
X13969999Y16969403D01*
X13970000Y16969415D01*
X13970000Y17526000D01*
X13066618Y17526000D01*
X13114208Y17608429D01*
X13144500Y17721480D01*
X13144500Y17838520D01*
X13114208Y17951571D01*
X13066618Y18034000D01*
X13970000Y18034000D01*
X13970000Y18590586D01*
X13969999Y18590598D01*
X13963494Y18651094D01*
X13912444Y18787965D01*
X13912444Y18787966D01*
X13824904Y18904905D01*
X13707965Y18992445D01*
X13571093Y19043495D01*
X13510597Y19050000D01*
X12954000Y19050000D01*
X12954000Y18146619D01*
X12871571Y18194208D01*
X12758520Y18224500D01*
X12641480Y18224500D01*
X12528429Y18194208D01*
X12446000Y18146619D01*
X12446000Y19050000D01*
X12138700Y19050000D01*
X12129874Y19052592D01*
X12120768Y19051282D01*
X12096342Y19062438D01*
X12070579Y19070002D01*
X12064554Y19076956D01*
X12056188Y19080776D01*
X12041673Y19103362D01*
X12024086Y19123658D01*
X12021761Y19134345D01*
X12017804Y19140502D01*
X12012700Y19176000D01*
X12012700Y19215000D01*
X12032702Y19283121D01*
X12086358Y19329614D01*
X12122470Y19337470D01*
X12126000Y19340999D01*
X12126000Y19341000D01*
X12634000Y19341000D01*
X12680517Y19341000D01*
X12680516Y19341001D01*
X12784318Y19351606D01*
X12784321Y19351607D01*
X12952525Y19407343D01*
X13103339Y19500366D01*
X13103345Y19500371D01*
X13228629Y19625655D01*
X13228634Y19625661D01*
X13321657Y19776475D01*
X13377393Y19944679D01*
X13377394Y19944682D01*
X13387999Y20048484D01*
X13388000Y20048484D01*
X13388000Y20320000D01*
X12634000Y20320000D01*
X12634000Y19341000D01*
X12126000Y19341000D01*
X12126000Y21807000D01*
X12079483Y21807000D01*
X11975681Y21796395D01*
X11975678Y21796394D01*
X11807474Y21740658D01*
X11656660Y21647635D01*
X11656654Y21647630D01*
X11531370Y21522346D01*
X11529157Y21519546D01*
X11527149Y21518125D01*
X11526175Y21517150D01*
X11526008Y21517317D01*
X11471216Y21478518D01*
X11400291Y21475328D01*
X11338900Y21510989D01*
X11331483Y21519550D01*
X11329028Y21522655D01*
X11203658Y21648025D01*
X11203652Y21648030D01*
X11118079Y21700812D01*
X11052738Y21741115D01*
X10968582Y21769001D01*
X10884427Y21796887D01*
X10884420Y21796888D01*
X10780553Y21807500D01*
X10179455Y21807500D01*
X10075574Y21796888D01*
X9907261Y21741115D01*
X9756347Y21648030D01*
X9756341Y21648025D01*
X9741095Y21632778D01*
X9678783Y21598752D01*
X9607968Y21603817D01*
X9580511Y21618117D01*
X9571038Y21624644D01*
X9547652Y21648030D01*
X9446921Y21710162D01*
X9444298Y21711969D01*
X9423857Y21737150D01*
X9402162Y21761270D01*
X9401631Y21764528D01*
X9399552Y21767090D01*
X9395969Y21799325D01*
X9390759Y21831345D01*
X9392005Y21834994D01*
X9391710Y21837652D01*
X9395574Y21845443D01*
X9407331Y21879861D01*
X9426749Y21912695D01*
X9478641Y21961146D01*
X9510620Y21972133D01*
X9512465Y21972500D01*
X9634856Y21996845D01*
X9750146Y22044600D01*
X9853904Y22113929D01*
X10695570Y22955595D01*
X10757882Y22989621D01*
X10784665Y22992500D01*
X12002306Y22992500D01*
X12070427Y22972498D01*
G37*
%TD.AperFunction*%
%TA.AperFunction,Conductor*%
G36*
X10414000Y11424000D02*
G01*
X10393998Y11355879D01*
X10340342Y11309386D01*
X10288000Y11298000D01*
X10237014Y11298000D01*
X10132660Y11233635D01*
X10132654Y11233630D01*
X10007370Y11108346D01*
X10005157Y11105546D01*
X10003149Y11104125D01*
X10002175Y11103150D01*
X10002008Y11103317D01*
X9991313Y11095744D01*
X9981044Y11082245D01*
X9962940Y11075653D01*
X9947216Y11064518D01*
X9930270Y11063756D01*
X9914333Y11057952D01*
X9895538Y11062194D01*
X9876291Y11061328D01*
X9861092Y11069968D01*
X9845078Y11073582D01*
X9825603Y11090142D01*
X9816536Y11095296D01*
X9807787Y11104182D01*
X9805030Y11108652D01*
X9698407Y11215275D01*
X9698088Y11215599D01*
X9681518Y11246512D01*
X9664752Y11277217D01*
X9664788Y11277726D01*
X9664548Y11278174D01*
X9667314Y11313047D01*
X9669817Y11348032D01*
X9670122Y11348441D01*
X9670163Y11348948D01*
X9691372Y11376827D01*
X9712364Y11404868D01*
X9712841Y11405046D01*
X9713150Y11405452D01*
X9746076Y11417443D01*
X9778884Y11429679D01*
X9779766Y11429711D01*
X9779861Y11429745D01*
X9779980Y11429719D01*
X9787873Y11430000D01*
X9906000Y11430000D01*
X9906000Y12333382D01*
X9988429Y12285792D01*
X10101480Y12255500D01*
X10218520Y12255500D01*
X10331571Y12285792D01*
X10414000Y12333382D01*
X10414000Y11424000D01*
G37*
%TD.AperFunction*%
%TA.AperFunction,Conductor*%
G36*
X12285792Y12871571D02*
G01*
X12255500Y12758520D01*
X12255500Y12641480D01*
X12285792Y12528429D01*
X12333382Y12446000D01*
X10526618Y12446000D01*
X10574208Y12528429D01*
X10604500Y12641480D01*
X10604500Y12758520D01*
X10574208Y12871571D01*
X10526618Y12954000D01*
X12333382Y12954000D01*
X12285792Y12871571D01*
G37*
%TD.AperFunction*%
%TA.AperFunction,Conductor*%
G36*
X21175792Y14141571D02*
G01*
X21145500Y14028520D01*
X21145500Y13911480D01*
X21175792Y13798429D01*
X21223382Y13716000D01*
X19416618Y13716000D01*
X19464208Y13798429D01*
X19494500Y13911480D01*
X19494500Y14028520D01*
X19464208Y14141571D01*
X19416618Y14224000D01*
X21223382Y14224000D01*
X21175792Y14141571D01*
G37*
%TD.AperFunction*%
%TA.AperFunction,Conductor*%
G36*
X19304000Y14336619D02*
G01*
X19221571Y14384208D01*
X19108520Y14414500D01*
X18991480Y14414500D01*
X18878429Y14384208D01*
X18796000Y14336619D01*
X18796000Y16143382D01*
X18878429Y16095792D01*
X18991480Y16065500D01*
X19108520Y16065500D01*
X19221571Y16095792D01*
X19304000Y16143382D01*
X19304000Y14336619D01*
G37*
%TD.AperFunction*%
%TA.AperFunction,Conductor*%
G36*
X21844000Y14336619D02*
G01*
X21761571Y14384208D01*
X21648520Y14414500D01*
X21531480Y14414500D01*
X21418429Y14384208D01*
X21336000Y14336619D01*
X21336000Y16143382D01*
X21418429Y16095792D01*
X21531480Y16065500D01*
X21648520Y16065500D01*
X21761571Y16095792D01*
X21844000Y16143382D01*
X21844000Y14336619D01*
G37*
%TD.AperFunction*%
%TA.AperFunction,Conductor*%
G36*
X21175792Y16681571D02*
G01*
X21145500Y16568520D01*
X21145500Y16451480D01*
X21175792Y16338429D01*
X21223382Y16256000D01*
X19416618Y16256000D01*
X19464208Y16338429D01*
X19494500Y16451480D01*
X19494500Y16568520D01*
X19464208Y16681571D01*
X19416618Y16764000D01*
X21223382Y16764000D01*
X21175792Y16681571D01*
G37*
%TD.AperFunction*%
%TA.AperFunction,Conductor*%
G36*
X10687821Y18013998D02*
G01*
X10734314Y17960342D01*
X10745700Y17908000D01*
X10745700Y17652000D01*
X10725698Y17583879D01*
X10672042Y17537386D01*
X10619700Y17526000D01*
X10526618Y17526000D01*
X10574208Y17608429D01*
X10604500Y17721480D01*
X10604500Y17838520D01*
X10574208Y17951571D01*
X10526618Y18034000D01*
X10619700Y18034000D01*
X10687821Y18013998D01*
G37*
%TD.AperFunction*%
%TA.AperFunction,Conductor*%
G36*
X12285792Y17951571D02*
G01*
X12255500Y17838520D01*
X12255500Y17721480D01*
X12285792Y17608429D01*
X12333382Y17526000D01*
X12138700Y17526000D01*
X12070579Y17546002D01*
X12024086Y17599658D01*
X12012700Y17652000D01*
X12012700Y17908000D01*
X12032702Y17976121D01*
X12086358Y18022614D01*
X12138700Y18034000D01*
X12333382Y18034000D01*
X12285792Y17951571D01*
G37*
%TD.AperFunction*%
%TA.AperFunction,Conductor*%
G36*
X9563291Y24135828D02*
G01*
X9573467Y24126700D01*
X9735071Y23965096D01*
X9769097Y23902784D01*
X9764032Y23831969D01*
X9735071Y23786905D01*
X9573466Y23625301D01*
X9511154Y23591276D01*
X9440338Y23596341D01*
X9393328Y23627293D01*
X9383300Y23637774D01*
X9371453Y23657807D01*
X9253807Y23775453D01*
X9248674Y23778489D01*
X9238717Y23788896D01*
X9226513Y23812471D01*
X9210968Y23833994D01*
X9210451Y23843497D01*
X9206078Y23851945D01*
X9208556Y23878375D01*
X9207116Y23904886D01*
X9211818Y23913159D01*
X9212707Y23922631D01*
X9229081Y23943526D01*
X9242202Y23966607D01*
X9252536Y23975561D01*
X9253805Y23976546D01*
X9253807Y23976547D01*
X9371453Y24094193D01*
X9375918Y24101743D01*
X9427809Y24150196D01*
X9497660Y24162902D01*
X9563291Y24135828D01*
G37*
%TD.AperFunction*%
%TA.AperFunction,Conductor*%
G36*
X21175792Y24301571D02*
G01*
X21145500Y24188520D01*
X21145500Y24071480D01*
X21175792Y23958429D01*
X21223382Y23876000D01*
X19416618Y23876000D01*
X19464208Y23958429D01*
X19494500Y24071480D01*
X19494500Y24188520D01*
X19464208Y24301571D01*
X19416618Y24384000D01*
X21223382Y24384000D01*
X21175792Y24301571D01*
G37*
%TD.AperFunction*%
%TA.AperFunction,Conductor*%
G36*
X-68379Y-30502D02*
G01*
X-21886Y-84158D01*
X-10500Y-136500D01*
X-10500Y-1522451D01*
X-15852Y-1540677D01*
X-16123Y-1559672D01*
X-25647Y-1574035D01*
X-30502Y-1590572D01*
X-44860Y-1603012D01*
X-55356Y-1618844D01*
X-71133Y-1625778D01*
X-84158Y-1637065D01*
X-102963Y-1639768D01*
X-120352Y-1647412D01*
X-152891Y-1646947D01*
X-154432Y-1647169D01*
X-156211Y-1646900D01*
X-376833Y-1611956D01*
X-396058Y-1607340D01*
X-624354Y-1533163D01*
X-642621Y-1525597D01*
X-645263Y-1524251D01*
X-682003Y-1505531D01*
X-856511Y-1416614D01*
X-873369Y-1406283D01*
X-1067575Y-1265185D01*
X-1082609Y-1252344D01*
X-1252345Y-1082608D01*
X-1265186Y-1067574D01*
X-1406284Y-873368D01*
X-1416615Y-856510D01*
X-1437172Y-816164D01*
X-1525601Y-642613D01*
X-1533161Y-624360D01*
X-1607341Y-396057D01*
X-1611957Y-376832D01*
X-1646900Y-156211D01*
X-1637800Y-85800D01*
X-1592078Y-31486D01*
X-1524250Y-10513D01*
X-1522451Y-10500D01*
X-136500Y-10500D01*
X-68379Y-30502D01*
G37*
%TD.AperFunction*%
%TA.AperFunction,Conductor*%
G36*
X1590572Y-30502D02*
G01*
X1637065Y-84158D01*
X1647169Y-154432D01*
X1646900Y-156211D01*
X1611956Y-376832D01*
X1607340Y-396057D01*
X1533163Y-624353D01*
X1525597Y-642620D01*
X1416614Y-856510D01*
X1406283Y-873368D01*
X1265185Y-1067574D01*
X1252344Y-1082608D01*
X1082608Y-1252344D01*
X1067574Y-1265185D01*
X873368Y-1406283D01*
X856510Y-1416614D01*
X642620Y-1525597D01*
X624353Y-1533163D01*
X396057Y-1607340D01*
X376832Y-1611956D01*
X156211Y-1646900D01*
X85800Y-1637801D01*
X31486Y-1592079D01*
X10513Y-1524251D01*
X10500Y-1522451D01*
X10500Y-136500D01*
X30502Y-68379D01*
X84158Y-21886D01*
X136500Y-10500D01*
X1522451Y-10500D01*
X1590572Y-30502D01*
G37*
%TD.AperFunction*%
%TA.AperFunction,Conductor*%
G36*
X-85800Y1637802D02*
G01*
X-31486Y1592080D01*
X-10513Y1524252D01*
X-10500Y1522452D01*
X-10500Y136500D01*
X-30502Y68379D01*
X-84158Y21886D01*
X-136500Y10500D01*
X-1522451Y10500D01*
X-1540678Y15852D01*
X-1559672Y16123D01*
X-1574036Y25647D01*
X-1590572Y30502D01*
X-1603013Y44860D01*
X-1618844Y55356D01*
X-1625779Y71133D01*
X-1637065Y84158D01*
X-1639769Y102962D01*
X-1647412Y120351D01*
X-1646948Y152891D01*
X-1647169Y154432D01*
X-1646900Y156211D01*
X-1617190Y343795D01*
X-1611957Y376836D01*
X-1607341Y396058D01*
X-1560487Y540260D01*
X-1533160Y624366D01*
X-1525603Y642610D01*
X-1416613Y856515D01*
X-1406284Y873369D01*
X-1265181Y1067582D01*
X-1252351Y1082603D01*
X-1082603Y1252351D01*
X-1067582Y1265181D01*
X-873365Y1406287D01*
X-856515Y1416613D01*
X-642610Y1525603D01*
X-624366Y1533160D01*
X-396055Y1607342D01*
X-376836Y1611957D01*
X-156209Y1646901D01*
X-85800Y1637802D01*
G37*
%TD.AperFunction*%
%TA.AperFunction,Conductor*%
G36*
X156099Y1646918D02*
G01*
X376833Y1611957D01*
X396057Y1607341D01*
X624360Y1533161D01*
X642613Y1525601D01*
X761008Y1465276D01*
X856510Y1416615D01*
X873368Y1406284D01*
X1067574Y1265186D01*
X1082608Y1252345D01*
X1252344Y1082609D01*
X1265185Y1067575D01*
X1406283Y873369D01*
X1416614Y856511D01*
X1525597Y642621D01*
X1533163Y624354D01*
X1607340Y396058D01*
X1611956Y376833D01*
X1646900Y156211D01*
X1637801Y85800D01*
X1592079Y31486D01*
X1524251Y10513D01*
X1522451Y10500D01*
X136500Y10500D01*
X68379Y30502D01*
X21886Y84158D01*
X10500Y136500D01*
X10500Y1522452D01*
X30502Y1590573D01*
X84158Y1637066D01*
X154432Y1647170D01*
X156099Y1646918D01*
G37*
%TD.AperFunction*%
%TA.AperFunction,Conductor*%
G36*
X25077621Y35275498D02*
G01*
X25124114Y35221842D01*
X25135500Y35169500D01*
X25135500Y-4689500D01*
X25115498Y-4757621D01*
X25061842Y-4804114D01*
X25009500Y-4815500D01*
X-4689500Y-4815500D01*
X-4757621Y-4795498D01*
X-4804114Y-4741842D01*
X-4815500Y-4689500D01*
X-4815500Y4351D01*
X-2510500Y4351D01*
X-2510500Y-4350D01*
X-2504351Y-10499D01*
X-2504349Y-10500D01*
X-1800754Y-10500D01*
X-1732633Y-30502D01*
X-1686140Y-84158D01*
X-1675834Y-120050D01*
X-1664578Y-205552D01*
X-1648472Y-327893D01*
X-1591569Y-540259D01*
X-1591568Y-540261D01*
X-1591567Y-540264D01*
X-1507432Y-743383D01*
X-1507431Y-743384D01*
X-1507426Y-743395D01*
X-1397505Y-933784D01*
X-1263665Y-1108206D01*
X-1263652Y-1108220D01*
X-1108221Y-1263651D01*
X-1108207Y-1263664D01*
X-1108205Y-1263666D01*
X-1106225Y-1265185D01*
X-933785Y-1397504D01*
X-743396Y-1507425D01*
X-743392Y-1507426D01*
X-743383Y-1507432D01*
X-540264Y-1591567D01*
X-327901Y-1648470D01*
X-327895Y-1648470D01*
X-327894Y-1648471D01*
X-308220Y-1651061D01*
X-120053Y-1675832D01*
X-55127Y-1704554D01*
X-16035Y-1763818D01*
X-10500Y-1800754D01*
X-10500Y-2504350D01*
X-4351Y-2510499D01*
X-4349Y-2510500D01*
X4349Y-2510500D01*
X10500Y-2504349D01*
X10500Y-1800754D01*
X30502Y-1732633D01*
X84158Y-1686140D01*
X120050Y-1675833D01*
X327901Y-1648470D01*
X540264Y-1591567D01*
X743383Y-1507432D01*
X933783Y-1397505D01*
X1108205Y-1263666D01*
X1263666Y-1108205D01*
X1397505Y-933783D01*
X1507432Y-743383D01*
X1591567Y-540264D01*
X1648470Y-327901D01*
X1675832Y-120052D01*
X1704554Y-55127D01*
X1763818Y-16035D01*
X1800754Y-10500D01*
X2504349Y-10500D01*
X2510500Y-4349D01*
X2510500Y4349D01*
X2510499Y4351D01*
X2504350Y10500D01*
X2504349Y10500D01*
X1800754Y10500D01*
X1732633Y30502D01*
X1686140Y84158D01*
X1675833Y120051D01*
X1648470Y327901D01*
X1591567Y540264D01*
X1507432Y743383D01*
X1507426Y743392D01*
X1507425Y743396D01*
X1397504Y933785D01*
X1301499Y1058900D01*
X1263666Y1108205D01*
X1263664Y1108207D01*
X1263651Y1108221D01*
X1108220Y1263652D01*
X1108206Y1263665D01*
X933784Y1397505D01*
X743395Y1507426D01*
X743387Y1507430D01*
X743383Y1507432D01*
X540264Y1591567D01*
X540261Y1591568D01*
X540259Y1591569D01*
X327894Y1648472D01*
X120054Y1675833D01*
X55127Y1704555D01*
X16035Y1763820D01*
X10500Y1800755D01*
X10500Y2504349D01*
X10499Y2504351D01*
X4350Y2510500D01*
X4349Y2510500D01*
X-4349Y2510500D01*
X-4351Y2510500D01*
X-10500Y2504351D01*
X-10500Y1800755D01*
X-30502Y1732634D01*
X-84158Y1686141D01*
X-120054Y1675833D01*
X-327895Y1648472D01*
X-540260Y1591569D01*
X-540264Y1591567D01*
X-707121Y1522452D01*
X-743385Y1507431D01*
X-743396Y1507426D01*
X-933785Y1397505D01*
X-1108207Y1263665D01*
X-1108221Y1263652D01*
X-1263652Y1108221D01*
X-1263665Y1108207D01*
X-1397505Y933785D01*
X-1507426Y743396D01*
X-1507431Y743385D01*
X-1591567Y540264D01*
X-1591569Y540260D01*
X-1648471Y327897D01*
X-1648472Y327894D01*
X-1671073Y156211D01*
X-1674531Y129941D01*
X-1675833Y120051D01*
X-1704557Y55124D01*
X-1763823Y16034D01*
X-1800755Y10500D01*
X-2504351Y10500D01*
X-2510500Y4351D01*
X-4815500Y4351D01*
X-4815500Y3865683D01*
X-1667702Y3865683D01*
X1950290Y3865683D01*
X1950290Y5012287D01*
X-1667702Y5012287D01*
X-1667702Y3865683D01*
X-4815500Y3865683D01*
X-4815500Y22981783D01*
X-4398000Y22981783D01*
X-4398000Y22738218D01*
X-4366211Y22496751D01*
X-4303172Y22261485D01*
X-4209965Y22036463D01*
X-4209959Y22036452D01*
X-4088189Y21825539D01*
X-4088185Y21825533D01*
X-4021103Y21738111D01*
X-4021101Y21738110D01*
X-3295773Y22463439D01*
X-3293260Y22457374D01*
X-3200238Y22318156D01*
X-3081844Y22199762D01*
X-2942626Y22106740D01*
X-2936563Y22104229D01*
X-3661892Y21378900D01*
X-3661892Y21378899D01*
X-3574469Y21311817D01*
X-3574462Y21311812D01*
X-3363549Y21190042D01*
X-3363538Y21190036D01*
X-3138516Y21096829D01*
X-2903250Y21033790D01*
X-2661783Y21002001D01*
X-2661773Y21002000D01*
X-2418227Y21002000D01*
X-2418218Y21002001D01*
X-2176751Y21033790D01*
X-1941488Y21096828D01*
X-1788118Y21160356D01*
X-1717528Y21167945D01*
X-1654041Y21136166D01*
X-1617813Y21075108D01*
X-1620347Y21004157D01*
X-1623490Y20995729D01*
X-1668749Y20886464D01*
X-1728413Y20663795D01*
X-1758500Y20435261D01*
X-1758500Y20204740D01*
X-1728413Y19976206D01*
X-1728412Y19976200D01*
X-1728411Y19976198D01*
X-1668749Y19753536D01*
X-1623490Y19644270D01*
X-1615901Y19573682D01*
X-1647680Y19510195D01*
X-1708739Y19473968D01*
X-1779690Y19476502D01*
X-1788117Y19479645D01*
X-1941485Y19543172D01*
X-2176751Y19606211D01*
X-2418218Y19638000D01*
X-2661783Y19638000D01*
X-2903250Y19606211D01*
X-3138516Y19543172D01*
X-3363538Y19449965D01*
X-3363549Y19449959D01*
X-3574462Y19328189D01*
X-3661892Y19261102D01*
X-2936562Y18535772D01*
X-2942626Y18533260D01*
X-3081844Y18440238D01*
X-3200238Y18321844D01*
X-3293260Y18182626D01*
X-3295772Y18176562D01*
X-4021102Y18901892D01*
X-4088189Y18814462D01*
X-4209959Y18603549D01*
X-4209965Y18603538D01*
X-4303172Y18378516D01*
X-4366211Y18143250D01*
X-4398000Y17901783D01*
X-4398000Y17658218D01*
X-4366211Y17416751D01*
X-4303172Y17181485D01*
X-4209965Y16956463D01*
X-4209959Y16956452D01*
X-4088189Y16745539D01*
X-4088185Y16745533D01*
X-4021103Y16658111D01*
X-4021101Y16658110D01*
X-3295773Y17383439D01*
X-3293260Y17377374D01*
X-3200238Y17238156D01*
X-3081844Y17119762D01*
X-2942626Y17026740D01*
X-2936563Y17024229D01*
X-3661892Y16298900D01*
X-3661892Y16298899D01*
X-3574469Y16231817D01*
X-3574462Y16231812D01*
X-3363549Y16110042D01*
X-3363538Y16110036D01*
X-3138516Y16016829D01*
X-2903250Y15953790D01*
X-2661783Y15922001D01*
X-2661773Y15922000D01*
X-2418227Y15922000D01*
X-2418218Y15922001D01*
X-2176751Y15953790D01*
X-1941485Y16016829D01*
X-1716463Y16110036D01*
X-1716452Y16110042D01*
X-1505540Y16231812D01*
X-1418110Y16298900D01*
X-2143438Y17024229D01*
X-2137374Y17026740D01*
X-1998156Y17119762D01*
X-1879762Y17238156D01*
X-1786740Y17377374D01*
X-1784229Y17383439D01*
X-1058900Y16658110D01*
X-991812Y16745540D01*
X-870042Y16956452D01*
X-870036Y16956463D01*
X-776829Y17181485D01*
X-713790Y17416751D01*
X-682001Y17658218D01*
X-682000Y17658227D01*
X-682000Y17901773D01*
X-682001Y17901783D01*
X-713790Y18143250D01*
X-776829Y18378516D01*
X-840356Y18531884D01*
X-847945Y18602473D01*
X-816166Y18665960D01*
X-755108Y18702188D01*
X-684156Y18699654D01*
X-675761Y18696523D01*
X-566464Y18651251D01*
X-343802Y18591589D01*
X-343796Y18591589D01*
X-343795Y18591588D01*
X-336275Y18590598D01*
X-115258Y18561500D01*
X-115251Y18561500D01*
X115251Y18561500D01*
X115258Y18561500D01*
X343802Y18591589D01*
X566464Y18651251D01*
X675733Y18696512D01*
X746317Y18704100D01*
X809804Y18672321D01*
X846032Y18611263D01*
X843498Y18540312D01*
X840355Y18531884D01*
X776828Y18378516D01*
X713789Y18143250D01*
X682000Y17901783D01*
X682000Y17658218D01*
X713789Y17416751D01*
X776828Y17181485D01*
X870035Y16956463D01*
X870041Y16956452D01*
X991811Y16745539D01*
X991815Y16745533D01*
X1058897Y16658111D01*
X1058898Y16658110D01*
X1784227Y17383439D01*
X1786740Y17377374D01*
X1879762Y17238156D01*
X1998156Y17119762D01*
X2137374Y17026740D01*
X2143437Y17024229D01*
X1418108Y16298900D01*
X1418108Y16298899D01*
X1505531Y16231817D01*
X1505538Y16231812D01*
X1716451Y16110042D01*
X1716462Y16110036D01*
X1941484Y16016829D01*
X2176750Y15953790D01*
X2418217Y15922001D01*
X2418227Y15922000D01*
X2661773Y15922000D01*
X2661782Y15922001D01*
X2903249Y15953790D01*
X3138515Y16016829D01*
X3363537Y16110036D01*
X3363548Y16110042D01*
X3574460Y16231812D01*
X3661890Y16298900D01*
X2936562Y17024229D01*
X2942626Y17026740D01*
X3081844Y17119762D01*
X3200238Y17238156D01*
X3293260Y17377374D01*
X3295771Y17383439D01*
X4021100Y16658110D01*
X4088188Y16745540D01*
X4209958Y16956452D01*
X4209964Y16956463D01*
X4303171Y17181485D01*
X4366210Y17416751D01*
X4397999Y17658218D01*
X4398000Y17658227D01*
X4398000Y17901773D01*
X4397999Y17901783D01*
X4366210Y18143250D01*
X4303171Y18378516D01*
X4209964Y18603538D01*
X4209958Y18603549D01*
X4088188Y18814462D01*
X4088183Y18814469D01*
X4021100Y18901892D01*
X3295771Y18176563D01*
X3293260Y18182626D01*
X3200238Y18321844D01*
X3081844Y18440238D01*
X2942626Y18533260D01*
X2936561Y18535773D01*
X3661890Y19261102D01*
X3661889Y19261103D01*
X3574467Y19328185D01*
X3574461Y19328189D01*
X3363548Y19449959D01*
X3363542Y19449962D01*
X3264285Y19491076D01*
X3209005Y19535625D01*
X3186584Y19602989D01*
X3204143Y19671780D01*
X3256105Y19720158D01*
X3264267Y19723886D01*
X3348075Y19758600D01*
X3451833Y19827929D01*
X3672388Y20048484D01*
X5916000Y20048484D01*
X5926605Y19944682D01*
X5926606Y19944679D01*
X5982342Y19776475D01*
X6075365Y19625661D01*
X6075370Y19625655D01*
X6200654Y19500371D01*
X6200660Y19500366D01*
X6351474Y19407343D01*
X6519678Y19351607D01*
X6519681Y19351606D01*
X6623483Y19341001D01*
X6623483Y19341000D01*
X6670000Y19341000D01*
X6670000Y20320000D01*
X5916000Y20320000D01*
X5916000Y20048484D01*
X3672388Y20048484D01*
X5559499Y21935595D01*
X5621811Y21969621D01*
X5648594Y21972500D01*
X5960012Y21972500D01*
X5965707Y21970828D01*
X5971531Y21971972D01*
X5999381Y21960941D01*
X6028133Y21952498D01*
X6033452Y21947445D01*
X6037538Y21945826D01*
X6049595Y21932109D01*
X6062381Y21919961D01*
X6065632Y21915431D01*
X6122547Y21819193D01*
X6165561Y21776179D01*
X6171561Y21767818D01*
X6180031Y21743632D01*
X6192313Y21721140D01*
X6191565Y21710695D01*
X6195027Y21700812D01*
X6189076Y21675886D01*
X6187248Y21650325D01*
X6180448Y21639745D01*
X6178541Y21631756D01*
X6170109Y21623658D01*
X6158287Y21605262D01*
X6075370Y21522346D01*
X6075365Y21522340D01*
X5982342Y21371526D01*
X5926606Y21203322D01*
X5926605Y21203319D01*
X5916000Y21099517D01*
X5916000Y20828000D01*
X6798000Y20828000D01*
X6866121Y20807998D01*
X6912614Y20754342D01*
X6924000Y20702000D01*
X6924000Y20574000D01*
X7052000Y20574000D01*
X7120121Y20553998D01*
X7166614Y20500342D01*
X7178000Y20448000D01*
X7178000Y19341000D01*
X7224517Y19341000D01*
X7224516Y19341001D01*
X7328318Y19351606D01*
X7328321Y19351607D01*
X7496525Y19407343D01*
X7647339Y19500366D01*
X7647345Y19500371D01*
X7772624Y19625650D01*
X7774832Y19628442D01*
X7776837Y19629863D01*
X7777825Y19630850D01*
X7777993Y19630682D01*
X7832768Y19669478D01*
X7903693Y19672677D01*
X7965088Y19637024D01*
X7972515Y19628453D01*
X7974974Y19625343D01*
X8100341Y19499976D01*
X8100347Y19499971D01*
X8100348Y19499970D01*
X8251262Y19406885D01*
X8419574Y19351113D01*
X8523455Y19340500D01*
X9124544Y19340501D01*
X9228426Y19351113D01*
X9396738Y19406885D01*
X9547652Y19499970D01*
X9562904Y19515223D01*
X9625214Y19549248D01*
X9696030Y19544185D01*
X9741095Y19515223D01*
X9756348Y19499970D01*
X9907262Y19406885D01*
X10075574Y19351113D01*
X10179455Y19340500D01*
X10619700Y19340501D01*
X10628525Y19337910D01*
X10637632Y19339219D01*
X10662057Y19328064D01*
X10687821Y19320499D01*
X10693846Y19313546D01*
X10702212Y19309725D01*
X10716725Y19287143D01*
X10734314Y19266844D01*
X10736638Y19256157D01*
X10740596Y19249999D01*
X10745700Y19214501D01*
X10745700Y19176000D01*
X10725698Y19107879D01*
X10672042Y19061386D01*
X10619700Y19050000D01*
X10414000Y19050000D01*
X10414000Y18146619D01*
X10331571Y18194208D01*
X10218520Y18224500D01*
X10101480Y18224500D01*
X9988429Y18194208D01*
X9906000Y18146619D01*
X9906000Y19050000D01*
X9349402Y19050000D01*
X9288906Y19043495D01*
X9152035Y18992445D01*
X9152034Y18992445D01*
X9035095Y18904905D01*
X8947555Y18787966D01*
X8947555Y18787965D01*
X8896505Y18651094D01*
X8890000Y18590598D01*
X8890000Y18034000D01*
X9793382Y18034000D01*
X9745792Y17951571D01*
X9715500Y17838520D01*
X9715500Y17721480D01*
X9745792Y17608429D01*
X9793382Y17526000D01*
X8865846Y17526000D01*
X8856726Y17521021D01*
X8785911Y17526090D01*
X8740856Y17555048D01*
X8563835Y17732069D01*
X8563833Y17732071D01*
X8460075Y17801400D01*
X8344785Y17849155D01*
X8271086Y17863815D01*
X8222396Y17873500D01*
X8222394Y17873500D01*
X8138499Y17873500D01*
X8070378Y17893502D01*
X8023885Y17947158D01*
X8012499Y17999500D01*
X8012499Y18290545D01*
X8011414Y18301157D01*
X8001887Y18394426D01*
X7946115Y18562738D01*
X7853030Y18713652D01*
X7853029Y18713653D01*
X7853024Y18713659D01*
X7727658Y18839025D01*
X7727652Y18839030D01*
X7702208Y18854724D01*
X7576738Y18932115D01*
X7492582Y18960001D01*
X7408427Y18987887D01*
X7408420Y18987888D01*
X7304553Y18998500D01*
X5903455Y18998500D01*
X5799574Y18987888D01*
X5631261Y18932115D01*
X5480347Y18839030D01*
X5480341Y18839025D01*
X5354975Y18713659D01*
X5354970Y18713653D01*
X5261885Y18562738D01*
X5206113Y18394428D01*
X5206112Y18394421D01*
X5195500Y18290554D01*
X5195500Y16189456D01*
X5206112Y16085575D01*
X5261885Y15917262D01*
X5354970Y15766348D01*
X5354975Y15766342D01*
X5480341Y15640976D01*
X5480347Y15640971D01*
X5480348Y15640970D01*
X5631262Y15547885D01*
X5799574Y15492113D01*
X5903455Y15481500D01*
X7304544Y15481501D01*
X7408426Y15492113D01*
X7576738Y15547885D01*
X7727652Y15640970D01*
X7853030Y15766348D01*
X7946115Y15917262D01*
X8001887Y16085574D01*
X8008910Y16154311D01*
X8012500Y16189448D01*
X8012663Y16192650D01*
X8012826Y16192642D01*
X8012827Y16192647D01*
X8012931Y16192637D01*
X8014044Y16192580D01*
X8032442Y16255436D01*
X8086058Y16301975D01*
X8156323Y16312140D01*
X8220929Y16282703D01*
X8227594Y16276502D01*
X8852595Y15651501D01*
X8886621Y15589189D01*
X8889500Y15562406D01*
X8889500Y14917594D01*
X8869498Y14849473D01*
X8852595Y14828499D01*
X8270931Y14246836D01*
X8270926Y14246829D01*
X8242765Y14204683D01*
X8188288Y14159155D01*
X8117845Y14150307D01*
X8053801Y14180949D01*
X8016489Y14241351D01*
X8012000Y14274685D01*
X8012000Y14290517D01*
X8001394Y14394319D01*
X8001393Y14394322D01*
X7945657Y14562526D01*
X7852634Y14713340D01*
X7852629Y14713346D01*
X7727345Y14838630D01*
X7727339Y14838635D01*
X7576525Y14931658D01*
X7408321Y14987394D01*
X7408318Y14987395D01*
X7304516Y14998000D01*
X6858000Y14998000D01*
X6858000Y11482000D01*
X7304517Y11482000D01*
X7304516Y11482001D01*
X7408318Y11492606D01*
X7408321Y11492607D01*
X7576525Y11548343D01*
X7727339Y11641366D01*
X7727345Y11641371D01*
X7852629Y11766655D01*
X7852636Y11766664D01*
X7896259Y11837387D01*
X7949044Y11884866D01*
X8019119Y11896269D01*
X8084235Y11867977D01*
X8123718Y11808972D01*
X8129500Y11771241D01*
X8129500Y11180913D01*
X8110741Y11114766D01*
X8013885Y10957738D01*
X7958113Y10789428D01*
X7958112Y10789421D01*
X7947500Y10685554D01*
X7947500Y9634456D01*
X7958112Y9530575D01*
X7996846Y9413682D01*
X8013885Y9362262D01*
X8058478Y9289965D01*
X8079555Y9255795D01*
X8098292Y9187315D01*
X8077033Y9119577D01*
X8049020Y9089687D01*
X7960013Y9021388D01*
X7862477Y8894279D01*
X7859404Y8886859D01*
X7802168Y8748681D01*
X7757622Y8693401D01*
X7690259Y8670980D01*
X7685761Y8670900D01*
X6757194Y8670900D01*
X6689073Y8690902D01*
X6668099Y8707805D01*
X4723835Y10652069D01*
X4723833Y10652071D01*
X4620075Y10721400D01*
X4504785Y10769155D01*
X4431086Y10783815D01*
X4382396Y10793500D01*
X4382394Y10793500D01*
X3424085Y10793500D01*
X3355964Y10813502D01*
X3309471Y10867158D01*
X3299367Y10937432D01*
X3328861Y11002012D01*
X3361085Y11028619D01*
X3574460Y11151812D01*
X3661890Y11218900D01*
X2936561Y11944229D01*
X2942626Y11946740D01*
X3081844Y12039762D01*
X3200238Y12158156D01*
X3293260Y12297374D01*
X3295771Y12303439D01*
X4021100Y11578110D01*
X4088188Y11665540D01*
X4209958Y11876452D01*
X4209964Y11876463D01*
X4303171Y12101485D01*
X4326750Y12189484D01*
X5196000Y12189484D01*
X5206605Y12085682D01*
X5206606Y12085679D01*
X5262342Y11917475D01*
X5355365Y11766661D01*
X5355370Y11766655D01*
X5480654Y11641371D01*
X5480660Y11641366D01*
X5631474Y11548343D01*
X5799678Y11492607D01*
X5799681Y11492606D01*
X5903483Y11482001D01*
X5903483Y11482000D01*
X6350000Y11482000D01*
X6350000Y12986000D01*
X5196000Y12986000D01*
X5196000Y12189484D01*
X4326750Y12189484D01*
X4366210Y12336751D01*
X4397999Y12578218D01*
X4398000Y12578227D01*
X4398000Y12821773D01*
X4397999Y12821783D01*
X4371674Y13021745D01*
X4371674Y13021746D01*
X4366210Y13063249D01*
X4303171Y13298516D01*
X4209964Y13523538D01*
X4209958Y13523549D01*
X4088188Y13734462D01*
X4088183Y13734469D01*
X4021100Y13821892D01*
X3295771Y13096563D01*
X3293260Y13102626D01*
X3200238Y13241844D01*
X3081844Y13360238D01*
X2942626Y13453260D01*
X2936561Y13455772D01*
X3661890Y14181101D01*
X3661889Y14181103D01*
X3645402Y14193754D01*
X3574467Y14248185D01*
X3574461Y14248189D01*
X3501146Y14290517D01*
X5196000Y14290517D01*
X5196000Y13494000D01*
X6350000Y13494000D01*
X6350000Y14998000D01*
X5903483Y14998000D01*
X5799681Y14987395D01*
X5799678Y14987394D01*
X5631474Y14931658D01*
X5480660Y14838635D01*
X5480654Y14838630D01*
X5355370Y14713346D01*
X5355365Y14713340D01*
X5262342Y14562526D01*
X5206606Y14394322D01*
X5206605Y14394319D01*
X5196000Y14290517D01*
X3501146Y14290517D01*
X3363548Y14369959D01*
X3363537Y14369965D01*
X3138515Y14463172D01*
X2903249Y14526211D01*
X2661782Y14558000D01*
X2418217Y14558000D01*
X2176750Y14526211D01*
X1941484Y14463172D01*
X1716462Y14369965D01*
X1716451Y14369959D01*
X1505538Y14248189D01*
X1418108Y14181102D01*
X2143438Y13455772D01*
X2137374Y13453260D01*
X1998156Y13360238D01*
X1879762Y13241844D01*
X1786740Y13102626D01*
X1784228Y13096562D01*
X1058898Y13821892D01*
X991811Y13734462D01*
X870041Y13523549D01*
X870035Y13523538D01*
X776828Y13298516D01*
X713789Y13063250D01*
X682000Y12821783D01*
X682000Y12578218D01*
X713789Y12336751D01*
X776828Y12101485D01*
X840355Y11948117D01*
X847944Y11877527D01*
X816165Y11814040D01*
X755106Y11777813D01*
X684155Y11780347D01*
X675745Y11783484D01*
X566464Y11828749D01*
X343802Y11888411D01*
X343800Y11888412D01*
X343794Y11888413D01*
X115260Y11918500D01*
X115258Y11918500D01*
X-115258Y11918500D01*
X-115261Y11918500D01*
X-343795Y11888413D01*
X-565874Y11828907D01*
X-566464Y11828749D01*
X-675730Y11783490D01*
X-746319Y11775901D01*
X-809806Y11807681D01*
X-846033Y11868739D01*
X-843499Y11939690D01*
X-840356Y11948118D01*
X-776828Y12101488D01*
X-713790Y12336751D01*
X-682001Y12578218D01*
X-682000Y12578227D01*
X-682000Y12821773D01*
X-682001Y12821783D01*
X-713790Y13063250D01*
X-776829Y13298516D01*
X-870036Y13523538D01*
X-870042Y13523549D01*
X-991812Y13734462D01*
X-991817Y13734469D01*
X-1058900Y13821892D01*
X-1784229Y13096563D01*
X-1786740Y13102626D01*
X-1879762Y13241844D01*
X-1998156Y13360238D01*
X-2137374Y13453260D01*
X-2143439Y13455772D01*
X-1418110Y14181101D01*
X-1418111Y14181103D01*
X-1505533Y14248185D01*
X-1505539Y14248189D01*
X-1716452Y14369959D01*
X-1716463Y14369965D01*
X-1941485Y14463172D01*
X-2176751Y14526211D01*
X-2418218Y14558000D01*
X-2661783Y14558000D01*
X-2903250Y14526211D01*
X-3138516Y14463172D01*
X-3363538Y14369965D01*
X-3363549Y14369959D01*
X-3574462Y14248189D01*
X-3661892Y14181102D01*
X-2936562Y13455772D01*
X-2942626Y13453260D01*
X-3081844Y13360238D01*
X-3200238Y13241844D01*
X-3293260Y13102626D01*
X-3295772Y13096562D01*
X-4021102Y13821892D01*
X-4088189Y13734462D01*
X-4209959Y13523549D01*
X-4209965Y13523538D01*
X-4303172Y13298516D01*
X-4366211Y13063250D01*
X-4398000Y12821783D01*
X-4398000Y12578218D01*
X-4366211Y12336751D01*
X-4303172Y12101485D01*
X-4209965Y11876463D01*
X-4209959Y11876452D01*
X-4088189Y11665539D01*
X-4088185Y11665533D01*
X-4021103Y11578111D01*
X-4021101Y11578110D01*
X-3295773Y12303439D01*
X-3293260Y12297374D01*
X-3200238Y12158156D01*
X-3081844Y12039762D01*
X-2942626Y11946740D01*
X-2936563Y11944229D01*
X-3661892Y11218900D01*
X-3661892Y11218899D01*
X-3574469Y11151817D01*
X-3574462Y11151812D01*
X-3363549Y11030042D01*
X-3363538Y11030036D01*
X-3138516Y10936829D01*
X-2903250Y10873790D01*
X-2661783Y10842001D01*
X-2661773Y10842000D01*
X-2418227Y10842000D01*
X-2418218Y10842001D01*
X-2176751Y10873790D01*
X-1941488Y10936828D01*
X-1788118Y11000356D01*
X-1717528Y11007945D01*
X-1654041Y10976166D01*
X-1617813Y10915108D01*
X-1620347Y10844157D01*
X-1623488Y10835736D01*
X-1642714Y10789319D01*
X-1668749Y10726464D01*
X-1728413Y10503795D01*
X-1758500Y10275261D01*
X-1758500Y10044740D01*
X-1728413Y9816206D01*
X-1728412Y9816200D01*
X-1728411Y9816198D01*
X-1668749Y9593536D01*
X-1623490Y9484270D01*
X-1615901Y9413682D01*
X-1647680Y9350195D01*
X-1708739Y9313968D01*
X-1779690Y9316502D01*
X-1788117Y9319645D01*
X-1941485Y9383172D01*
X-2176751Y9446211D01*
X-2418218Y9478000D01*
X-2661783Y9478000D01*
X-2903250Y9446211D01*
X-3138516Y9383172D01*
X-3363538Y9289965D01*
X-3363549Y9289959D01*
X-3574462Y9168189D01*
X-3661892Y9101102D01*
X-2936562Y8375772D01*
X-2942626Y8373260D01*
X-3081844Y8280238D01*
X-3200238Y8161844D01*
X-3293260Y8022626D01*
X-3295772Y8016562D01*
X-4021102Y8741892D01*
X-4088189Y8654462D01*
X-4209959Y8443549D01*
X-4209965Y8443538D01*
X-4303172Y8218516D01*
X-4366211Y7983250D01*
X-4398000Y7741783D01*
X-4398000Y7498218D01*
X-4366211Y7256751D01*
X-4303172Y7021485D01*
X-4209965Y6796463D01*
X-4209959Y6796452D01*
X-4088189Y6585539D01*
X-4088185Y6585533D01*
X-4021103Y6498111D01*
X-4021101Y6498110D01*
X-3295773Y7223439D01*
X-3293260Y7217374D01*
X-3200238Y7078156D01*
X-3081844Y6959762D01*
X-2942626Y6866740D01*
X-2936563Y6864229D01*
X-3661892Y6138900D01*
X-3661892Y6138899D01*
X-3574469Y6071817D01*
X-3574462Y6071812D01*
X-3363549Y5950042D01*
X-3363538Y5950036D01*
X-3138516Y5856829D01*
X-2903250Y5793790D01*
X-2661783Y5762001D01*
X-2661773Y5762000D01*
X-2418227Y5762000D01*
X-2418218Y5762001D01*
X-2176751Y5793790D01*
X-1941485Y5856829D01*
X-1716463Y5950036D01*
X-1716452Y5950042D01*
X-1505540Y6071812D01*
X-1418110Y6138900D01*
X-2143438Y6864229D01*
X-2137374Y6866740D01*
X-1998156Y6959762D01*
X-1879762Y7078156D01*
X-1786740Y7217374D01*
X-1784229Y7223439D01*
X-1058900Y6498110D01*
X-991812Y6585540D01*
X-870042Y6796452D01*
X-870036Y6796463D01*
X-776829Y7021485D01*
X-713790Y7256751D01*
X-682001Y7498218D01*
X-682000Y7498227D01*
X-682000Y7741773D01*
X-682001Y7741783D01*
X-713790Y7983250D01*
X-776829Y8218516D01*
X-840356Y8371884D01*
X-847945Y8442473D01*
X-816166Y8505960D01*
X-755108Y8542188D01*
X-684156Y8539654D01*
X-675761Y8536523D01*
X-566464Y8491251D01*
X-343802Y8431589D01*
X-343796Y8431589D01*
X-343795Y8431588D01*
X-317575Y8428137D01*
X-115258Y8401500D01*
X-115251Y8401500D01*
X115251Y8401500D01*
X115258Y8401500D01*
X343802Y8431589D01*
X566464Y8491251D01*
X675733Y8536512D01*
X746317Y8544100D01*
X809804Y8512321D01*
X846032Y8451263D01*
X843498Y8380312D01*
X840355Y8371884D01*
X776828Y8218516D01*
X713789Y7983250D01*
X682000Y7741783D01*
X682000Y7498218D01*
X713789Y7256751D01*
X776828Y7021485D01*
X870035Y6796463D01*
X870041Y6796452D01*
X991811Y6585539D01*
X991815Y6585533D01*
X1058897Y6498111D01*
X1058898Y6498110D01*
X1784227Y7223439D01*
X1786740Y7217374D01*
X1879762Y7078156D01*
X1998156Y6959762D01*
X2137374Y6866740D01*
X2143437Y6864229D01*
X1418108Y6138900D01*
X1418108Y6138899D01*
X1505531Y6071817D01*
X1505538Y6071812D01*
X1716451Y5950042D01*
X1716462Y5950036D01*
X1941484Y5856829D01*
X2176750Y5793790D01*
X2418217Y5762001D01*
X2418227Y5762000D01*
X2661773Y5762000D01*
X2661782Y5762001D01*
X2903249Y5793790D01*
X3138515Y5856829D01*
X3363537Y5950036D01*
X3363548Y5950042D01*
X3574460Y6071812D01*
X3661890Y6138900D01*
X2936562Y6864229D01*
X2942626Y6866740D01*
X3081844Y6959762D01*
X3200238Y7078156D01*
X3293260Y7217374D01*
X3295771Y7223439D01*
X4021100Y6498110D01*
X4088188Y6585540D01*
X4209958Y6796452D01*
X4209964Y6796463D01*
X4303171Y7021485D01*
X4366210Y7256751D01*
X4397999Y7498218D01*
X4398000Y7498227D01*
X4398000Y7741773D01*
X4397999Y7741783D01*
X4366210Y7983250D01*
X4303171Y8218516D01*
X4209964Y8443538D01*
X4209958Y8443549D01*
X4088188Y8654462D01*
X4088183Y8654469D01*
X4021100Y8741892D01*
X3295771Y8016563D01*
X3293260Y8022626D01*
X3200238Y8161844D01*
X3081844Y8280238D01*
X2942626Y8373260D01*
X2936561Y8375773D01*
X3661890Y9101102D01*
X3661889Y9101103D01*
X3574467Y9168185D01*
X3574461Y9168189D01*
X3361085Y9291381D01*
X3312092Y9342763D01*
X3298656Y9412477D01*
X3325042Y9478388D01*
X3382874Y9519570D01*
X3424085Y9526500D01*
X4005406Y9526500D01*
X4073527Y9506498D01*
X4094501Y9489595D01*
X5603929Y7980167D01*
X5950529Y7633567D01*
X6038767Y7545329D01*
X6142525Y7476000D01*
X6257815Y7428245D01*
X6380206Y7403900D01*
X7677590Y7403900D01*
X7697867Y7397947D01*
X7718974Y7396910D01*
X7731243Y7388147D01*
X7745711Y7383898D01*
X7759549Y7367928D01*
X7776746Y7355644D01*
X7785671Y7337781D01*
X7792204Y7330242D01*
X7794632Y7324559D01*
X7800252Y7310461D01*
X7801162Y7303550D01*
X7850297Y7184927D01*
X7850643Y7184059D01*
X7853888Y7149537D01*
X7857599Y7115027D01*
X7857246Y7113827D01*
X7857289Y7113375D01*
X7856884Y7112593D01*
X7850010Y7089183D01*
X7801162Y6971251D01*
X7785500Y6852288D01*
X7785500Y5647517D01*
X7785501Y5647508D01*
X7801162Y5528552D01*
X7801162Y5528551D01*
X7850909Y5408450D01*
X7860500Y5360232D01*
X7860500Y4524000D01*
X7840498Y4455879D01*
X7786842Y4409386D01*
X7734500Y4398000D01*
X7498217Y4398000D01*
X7256750Y4366211D01*
X7021484Y4303172D01*
X6796462Y4209965D01*
X6796451Y4209959D01*
X6585538Y4088189D01*
X6498108Y4021102D01*
X7223438Y3295772D01*
X7217374Y3293260D01*
X7078156Y3200238D01*
X6959762Y3081844D01*
X6866740Y2942626D01*
X6864228Y2936562D01*
X6138898Y3661892D01*
X6071811Y3574462D01*
X5950041Y3363549D01*
X5950035Y3363538D01*
X5856828Y3138516D01*
X5793789Y2903250D01*
X5762000Y2661783D01*
X5762000Y2418218D01*
X5793789Y2176751D01*
X5856828Y1941485D01*
X5950035Y1716463D01*
X5950041Y1716452D01*
X6071811Y1505539D01*
X6071815Y1505533D01*
X6138897Y1418111D01*
X6138899Y1418110D01*
X6864227Y2143439D01*
X6866740Y2137374D01*
X6959762Y1998156D01*
X7078156Y1879762D01*
X7217374Y1786740D01*
X7223437Y1784229D01*
X6498108Y1058900D01*
X6498108Y1058899D01*
X6585531Y991817D01*
X6585538Y991812D01*
X6796451Y870042D01*
X6796462Y870036D01*
X7021484Y776829D01*
X7256750Y713790D01*
X7498217Y682001D01*
X7498227Y682000D01*
X7741773Y682000D01*
X7741782Y682001D01*
X7983249Y713790D01*
X8218512Y776828D01*
X8371882Y840356D01*
X8442472Y847945D01*
X8505959Y816166D01*
X8542187Y755108D01*
X8539653Y684157D01*
X8536510Y675729D01*
X8491251Y566464D01*
X8431587Y343795D01*
X8401500Y115261D01*
X8401500Y-115260D01*
X8431587Y-343794D01*
X8431588Y-343800D01*
X8431589Y-343802D01*
X8491251Y-566464D01*
X8536510Y-675730D01*
X8544099Y-746318D01*
X8512320Y-809805D01*
X8451261Y-846032D01*
X8380310Y-843498D01*
X8371883Y-840355D01*
X8218515Y-776828D01*
X7983249Y-713789D01*
X7741782Y-682000D01*
X7498217Y-682000D01*
X7256750Y-713789D01*
X7021484Y-776828D01*
X6796462Y-870035D01*
X6796451Y-870041D01*
X6585538Y-991811D01*
X6498108Y-1058898D01*
X7223438Y-1784228D01*
X7217374Y-1786740D01*
X7078156Y-1879762D01*
X6959762Y-1998156D01*
X6866740Y-2137374D01*
X6864228Y-2143438D01*
X6138898Y-1418108D01*
X6071811Y-1505538D01*
X5950041Y-1716451D01*
X5950035Y-1716462D01*
X5856828Y-1941484D01*
X5793789Y-2176750D01*
X5762000Y-2418217D01*
X5762000Y-2661782D01*
X5793789Y-2903249D01*
X5856828Y-3138515D01*
X5950035Y-3363537D01*
X5950041Y-3363548D01*
X6071811Y-3574461D01*
X6071815Y-3574467D01*
X6138897Y-3661889D01*
X6138899Y-3661890D01*
X6864227Y-2936561D01*
X6866740Y-2942626D01*
X6959762Y-3081844D01*
X7078156Y-3200238D01*
X7217374Y-3293260D01*
X7223437Y-3295771D01*
X6498108Y-4021100D01*
X6498108Y-4021101D01*
X6585531Y-4088183D01*
X6585538Y-4088188D01*
X6796451Y-4209958D01*
X6796462Y-4209964D01*
X7021484Y-4303171D01*
X7256750Y-4366210D01*
X7498217Y-4397999D01*
X7498227Y-4398000D01*
X7741773Y-4398000D01*
X7741782Y-4397999D01*
X7983249Y-4366210D01*
X8218515Y-4303171D01*
X8443537Y-4209964D01*
X8443548Y-4209958D01*
X8654460Y-4088188D01*
X8741890Y-4021100D01*
X8016562Y-3295771D01*
X8022626Y-3293260D01*
X8161844Y-3200238D01*
X8280238Y-3081844D01*
X8373260Y-2942626D01*
X8375771Y-2936561D01*
X9101100Y-3661890D01*
X9168188Y-3574460D01*
X9289958Y-3363548D01*
X9289964Y-3363537D01*
X9383171Y-3138515D01*
X9446210Y-2903249D01*
X9477999Y-2661782D01*
X9478000Y-2661773D01*
X9478000Y-2418227D01*
X9477999Y-2418217D01*
X9446210Y-2176750D01*
X9383171Y-1941484D01*
X9319644Y-1788116D01*
X9312055Y-1717527D01*
X9343834Y-1654040D01*
X9404892Y-1617812D01*
X9475844Y-1620346D01*
X9484239Y-1623477D01*
X9593536Y-1668749D01*
X9816198Y-1728411D01*
X9816204Y-1728411D01*
X9816205Y-1728412D01*
X9842425Y-1731863D01*
X10044742Y-1758500D01*
X10044749Y-1758500D01*
X10275251Y-1758500D01*
X10275258Y-1758500D01*
X10503802Y-1728411D01*
X10726464Y-1668749D01*
X10835733Y-1623488D01*
X10906317Y-1615900D01*
X10969804Y-1647679D01*
X11006032Y-1708737D01*
X11003498Y-1779688D01*
X11000355Y-1788116D01*
X10936828Y-1941484D01*
X10873789Y-2176750D01*
X10842000Y-2418217D01*
X10842000Y-2661782D01*
X10873789Y-2903249D01*
X10936828Y-3138515D01*
X11030035Y-3363537D01*
X11030041Y-3363548D01*
X11151811Y-3574461D01*
X11151815Y-3574467D01*
X11218897Y-3661889D01*
X11218898Y-3661890D01*
X11944227Y-2936561D01*
X11946740Y-2942626D01*
X12039762Y-3081844D01*
X12158156Y-3200238D01*
X12297374Y-3293260D01*
X12303437Y-3295771D01*
X11578108Y-4021100D01*
X11578108Y-4021101D01*
X11665531Y-4088183D01*
X11665538Y-4088188D01*
X11876451Y-4209958D01*
X11876462Y-4209964D01*
X12101484Y-4303171D01*
X12336750Y-4366210D01*
X12578217Y-4397999D01*
X12578227Y-4398000D01*
X12821773Y-4398000D01*
X12821782Y-4397999D01*
X13063249Y-4366210D01*
X13298515Y-4303171D01*
X13523537Y-4209964D01*
X13523548Y-4209958D01*
X13734460Y-4088188D01*
X13821890Y-4021100D01*
X13096562Y-3295771D01*
X13102626Y-3293260D01*
X13241844Y-3200238D01*
X13360238Y-3081844D01*
X13453260Y-2942626D01*
X13455771Y-2936561D01*
X14181100Y-3661890D01*
X14248188Y-3574460D01*
X14369958Y-3363548D01*
X14369964Y-3363537D01*
X14463171Y-3138515D01*
X14526210Y-2903249D01*
X14557999Y-2661782D01*
X14558000Y-2661773D01*
X14558000Y-2418227D01*
X14557999Y-2418217D01*
X14526210Y-2176750D01*
X14463171Y-1941484D01*
X14369964Y-1716462D01*
X14369958Y-1716451D01*
X14248188Y-1505538D01*
X14248183Y-1505531D01*
X14181100Y-1418108D01*
X13455771Y-2143437D01*
X13453260Y-2137374D01*
X13360238Y-1998156D01*
X13241844Y-1879762D01*
X13102626Y-1786740D01*
X13096561Y-1784227D01*
X13821890Y-1058898D01*
X13821889Y-1058897D01*
X13734467Y-991815D01*
X13734461Y-991811D01*
X13523548Y-870041D01*
X13523537Y-870035D01*
X13298515Y-776828D01*
X13063249Y-713789D01*
X12821782Y-682000D01*
X12578217Y-682000D01*
X12336750Y-713789D01*
X12101484Y-776828D01*
X11948116Y-840355D01*
X11877526Y-847944D01*
X11814039Y-816164D01*
X11777812Y-755106D01*
X11780346Y-684155D01*
X11783469Y-675778D01*
X11828749Y-566464D01*
X11888411Y-343802D01*
X11918500Y-115258D01*
X11918500Y115258D01*
X11888411Y343802D01*
X11828749Y566464D01*
X11783488Y675734D01*
X11775900Y746318D01*
X11807679Y809805D01*
X11868737Y846033D01*
X11939688Y843499D01*
X11948116Y840356D01*
X12101484Y776829D01*
X12336750Y713790D01*
X12578217Y682001D01*
X12578227Y682000D01*
X12821773Y682000D01*
X12821782Y682001D01*
X13063249Y713790D01*
X13298515Y776829D01*
X13523537Y870036D01*
X13523548Y870042D01*
X13734460Y991812D01*
X13821890Y1058900D01*
X13096561Y1784229D01*
X13102626Y1786740D01*
X13241844Y1879762D01*
X13360238Y1998156D01*
X13453260Y2137374D01*
X13455771Y2143439D01*
X14181100Y1418110D01*
X14248188Y1505540D01*
X14369958Y1716452D01*
X14369964Y1716463D01*
X14463171Y1941485D01*
X14526210Y2176751D01*
X14557999Y2418218D01*
X14558000Y2418227D01*
X14558000Y2661773D01*
X14557999Y2661783D01*
X14526210Y2903250D01*
X14463171Y3138516D01*
X14369964Y3363538D01*
X14369958Y3363549D01*
X14248188Y3574462D01*
X14248183Y3574469D01*
X14181100Y3661892D01*
X13455771Y2936563D01*
X13453260Y2942626D01*
X13360238Y3081844D01*
X13241844Y3200238D01*
X13102626Y3293260D01*
X13096561Y3295772D01*
X13821890Y4021101D01*
X13821889Y4021103D01*
X13734467Y4088185D01*
X13734461Y4088189D01*
X13523548Y4209959D01*
X13523537Y4209965D01*
X13298515Y4303172D01*
X13063249Y4366211D01*
X12821782Y4398000D01*
X12578217Y4398000D01*
X12336750Y4366211D01*
X12101484Y4303172D01*
X11876462Y4209965D01*
X11876451Y4209959D01*
X11665538Y4088189D01*
X11578108Y4021102D01*
X12303438Y3295772D01*
X12297374Y3293260D01*
X12158156Y3200238D01*
X12039762Y3081844D01*
X11946740Y2942626D01*
X11944228Y2936562D01*
X11218898Y3661892D01*
X11151811Y3574462D01*
X11030041Y3363549D01*
X11030035Y3363538D01*
X10936827Y3138513D01*
X10936375Y3137181D01*
X10936133Y3136838D01*
X10935250Y3134705D01*
X10934772Y3134903D01*
X10895531Y3079109D01*
X10829775Y3052339D01*
X10759984Y3065368D01*
X10712301Y3107694D01*
X10694253Y3134705D01*
X10652072Y3197833D01*
X9164405Y4685500D01*
X9149460Y4712869D01*
X9132604Y4739097D01*
X9131698Y4745396D01*
X9130379Y4747812D01*
X9127500Y4774595D01*
X9127500Y4999098D01*
X9147502Y5067219D01*
X9201158Y5113712D01*
X9271432Y5123816D01*
X9336012Y5094322D01*
X9336578Y5093829D01*
X9343999Y5087321D01*
X9402718Y5095050D01*
X9402722Y5095052D01*
X9420126Y5102260D01*
X9490715Y5109850D01*
X9516559Y5102263D01*
X9535150Y5094562D01*
X9654115Y5078900D01*
X9933884Y5078901D01*
X10052850Y5094562D01*
X10200876Y5155876D01*
X10327987Y5253413D01*
X10425524Y5380524D01*
X10486838Y5528550D01*
X10486838Y5528554D01*
X10488704Y5535514D01*
X10525657Y5596136D01*
X10589518Y5627156D01*
X10610410Y5628900D01*
X10624111Y5628900D01*
X10624112Y5628900D01*
X10701492Y5649634D01*
X10778874Y5670368D01*
X10917628Y5750478D01*
X11434145Y6266995D01*
X11496457Y6301021D01*
X11523240Y6303900D01*
X13091806Y6303900D01*
X13091807Y6303900D01*
X13091808Y6303900D01*
X13246569Y6345368D01*
X13385324Y6425478D01*
X14194593Y7234748D01*
X14256902Y7268770D01*
X14327717Y7263706D01*
X14331852Y7262079D01*
X14333428Y7261426D01*
X14503372Y7227622D01*
X14503373Y7227622D01*
X14676643Y7227622D01*
X14676644Y7227622D01*
X14846588Y7261426D01*
X15006671Y7327734D01*
X15150743Y7423999D01*
X15155360Y7428617D01*
X15155365Y7428619D01*
X15212039Y7485294D01*
X15264249Y7537504D01*
X15300657Y7573912D01*
X15303303Y7576082D01*
X15307842Y7580973D01*
X15310439Y7583690D01*
X15313750Y7587055D01*
X15314055Y7587358D01*
X15410316Y7731418D01*
X15476624Y7891487D01*
X15510433Y8061417D01*
X15510443Y8222710D01*
X15530448Y8290824D01*
X15584106Y8337314D01*
X15654380Y8347415D01*
X15702587Y8329940D01*
X15762662Y8292885D01*
X15930974Y8237113D01*
X16034855Y8226500D01*
X17035944Y8226501D01*
X17139826Y8237113D01*
X17254481Y8275105D01*
X17294113Y8281500D01*
X17653500Y8281500D01*
X17721621Y8261498D01*
X17768114Y8207842D01*
X17779500Y8155500D01*
X17779500Y8079351D01*
X17786009Y8018804D01*
X17786011Y8018796D01*
X17837110Y7881798D01*
X17837112Y7881793D01*
X17924737Y7764741D01*
X17924738Y7764741D01*
X17924739Y7764739D01*
X17929352Y7761286D01*
X17983760Y7720556D01*
X18026306Y7663720D01*
X18031370Y7592904D01*
X17997345Y7530592D01*
X17983760Y7518821D01*
X17925096Y7474905D01*
X17837555Y7357966D01*
X17837555Y7357965D01*
X17786505Y7221094D01*
X17780000Y7160598D01*
X17780000Y6604000D01*
X18683382Y6604000D01*
X18635792Y6521571D01*
X18605500Y6408520D01*
X18605500Y6291480D01*
X18635792Y6178429D01*
X18683382Y6096000D01*
X17780000Y6096000D01*
X17780000Y5539403D01*
X17786505Y5478907D01*
X17837555Y5342036D01*
X17837555Y5342035D01*
X17925095Y5225096D01*
X18042034Y5137556D01*
X18178906Y5086506D01*
X18239402Y5080001D01*
X18239415Y5080000D01*
X18796000Y5080000D01*
X18796000Y5983382D01*
X18878429Y5935792D01*
X18991480Y5905500D01*
X19108520Y5905500D01*
X19221571Y5935792D01*
X19304000Y5983382D01*
X19304000Y5080000D01*
X19860585Y5080000D01*
X19860597Y5080001D01*
X19921093Y5086506D01*
X20057964Y5137556D01*
X20057965Y5137556D01*
X20174904Y5225096D01*
X20219132Y5284177D01*
X20275968Y5326724D01*
X20346783Y5331788D01*
X20409096Y5297763D01*
X20420868Y5284177D01*
X20465095Y5225096D01*
X20582034Y5137556D01*
X20718906Y5086506D01*
X20779402Y5080001D01*
X20779415Y5080000D01*
X21336000Y5080000D01*
X21336000Y5983382D01*
X21418429Y5935792D01*
X21531480Y5905500D01*
X21648520Y5905500D01*
X21761571Y5935792D01*
X21844000Y5983382D01*
X21844000Y5080000D01*
X22400585Y5080000D01*
X22400597Y5080001D01*
X22461093Y5086506D01*
X22597964Y5137556D01*
X22597965Y5137556D01*
X22714904Y5225096D01*
X22802444Y5342035D01*
X22802444Y5342036D01*
X22853494Y5478907D01*
X22859999Y5539403D01*
X22860000Y5539415D01*
X22860000Y6096000D01*
X21956618Y6096000D01*
X22004208Y6178429D01*
X22034500Y6291480D01*
X22034500Y6408520D01*
X22004208Y6521571D01*
X21956618Y6604000D01*
X22860000Y6604000D01*
X22860000Y7160586D01*
X22859999Y7160598D01*
X22853494Y7221094D01*
X22802444Y7357965D01*
X22802444Y7357966D01*
X22714904Y7474905D01*
X22656240Y7518820D01*
X22613693Y7575656D01*
X22608629Y7646472D01*
X22642654Y7708784D01*
X22656240Y7720556D01*
X22715261Y7764739D01*
X22802887Y7881793D01*
X22802887Y7881794D01*
X22802889Y7881796D01*
X22853989Y8018799D01*
X22854401Y8022626D01*
X22860499Y8079351D01*
X22860500Y8079368D01*
X22860500Y9700633D01*
X22860499Y9700650D01*
X22853990Y9761197D01*
X22853988Y9761205D01*
X22818114Y9857385D01*
X22802889Y9898204D01*
X22802888Y9898206D01*
X22802887Y9898208D01*
X22715261Y10015262D01*
X22656657Y10059132D01*
X22614110Y10115968D01*
X22609046Y10186784D01*
X22643071Y10249096D01*
X22656657Y10260868D01*
X22715261Y10304739D01*
X22802887Y10421793D01*
X22802887Y10421794D01*
X22802889Y10421796D01*
X22853989Y10558799D01*
X22860500Y10619362D01*
X22860500Y12240638D01*
X22859623Y12248794D01*
X22853990Y12301197D01*
X22853988Y12301205D01*
X22807677Y12425366D01*
X22802889Y12438204D01*
X22802888Y12438206D01*
X22802887Y12438208D01*
X22718709Y12550655D01*
X22715261Y12555261D01*
X22715260Y12555262D01*
X22656239Y12599446D01*
X22613693Y12656282D01*
X22608629Y12727098D01*
X22642654Y12789409D01*
X22656241Y12801182D01*
X22714904Y12845097D01*
X22802444Y12962035D01*
X22802444Y12962036D01*
X22853494Y13098907D01*
X22859999Y13159403D01*
X22860000Y13159415D01*
X22860000Y13716000D01*
X21956618Y13716000D01*
X22004208Y13798429D01*
X22034500Y13911480D01*
X22034500Y14028520D01*
X22004208Y14141571D01*
X21956618Y14224000D01*
X22860000Y14224000D01*
X22860000Y14780586D01*
X22859999Y14780598D01*
X22853494Y14841094D01*
X22802444Y14977965D01*
X22802444Y14977966D01*
X22714904Y15094905D01*
X22655823Y15139132D01*
X22613276Y15195968D01*
X22608212Y15266783D01*
X22642237Y15329096D01*
X22655823Y15340868D01*
X22714904Y15385096D01*
X22802444Y15502035D01*
X22802444Y15502036D01*
X22853494Y15638907D01*
X22859999Y15699403D01*
X22860000Y15699415D01*
X22860000Y16256000D01*
X21956618Y16256000D01*
X22004208Y16338429D01*
X22034500Y16451480D01*
X22034500Y16568520D01*
X22004208Y16681571D01*
X21956618Y16764000D01*
X22860000Y16764000D01*
X22860000Y17320586D01*
X22859999Y17320598D01*
X22853494Y17381094D01*
X22802444Y17517965D01*
X22802444Y17517966D01*
X22714904Y17634905D01*
X22656240Y17678820D01*
X22613693Y17735656D01*
X22608629Y17806472D01*
X22642654Y17868784D01*
X22656240Y17880556D01*
X22715261Y17924739D01*
X22802887Y18041793D01*
X22802887Y18041794D01*
X22802889Y18041796D01*
X22853989Y18178799D01*
X22854401Y18182626D01*
X22860499Y18239351D01*
X22860500Y18239368D01*
X22860500Y19860633D01*
X22860499Y19860650D01*
X22853990Y19921197D01*
X22853988Y19921205D01*
X22818114Y20017385D01*
X22802889Y20058204D01*
X22802888Y20058206D01*
X22802887Y20058208D01*
X22715261Y20175262D01*
X22656657Y20219132D01*
X22614110Y20275968D01*
X22609046Y20346784D01*
X22643071Y20409096D01*
X22656657Y20420868D01*
X22715261Y20464739D01*
X22802887Y20581793D01*
X22802887Y20581794D01*
X22802889Y20581796D01*
X22853989Y20718799D01*
X22860500Y20779362D01*
X22860500Y22400638D01*
X22860000Y22405289D01*
X22853990Y22461197D01*
X22853988Y22461205D01*
X22802889Y22598203D01*
X22802887Y22598208D01*
X22715260Y22715262D01*
X22656239Y22759446D01*
X22613693Y22816282D01*
X22608629Y22887098D01*
X22642654Y22949409D01*
X22656241Y22961182D01*
X22714904Y23005097D01*
X22802444Y23122035D01*
X22802444Y23122036D01*
X22853494Y23258907D01*
X22859999Y23319403D01*
X22860000Y23319415D01*
X22860000Y23876000D01*
X21956618Y23876000D01*
X22004208Y23958429D01*
X22034500Y24071480D01*
X22034500Y24188520D01*
X22004208Y24301571D01*
X21956618Y24384000D01*
X22860000Y24384000D01*
X22860000Y24940586D01*
X22859999Y24940598D01*
X22853494Y25001094D01*
X22802444Y25137965D01*
X22802444Y25137966D01*
X22714904Y25254905D01*
X22597965Y25342445D01*
X22461093Y25393495D01*
X22400597Y25400000D01*
X21844000Y25400000D01*
X21844000Y24496619D01*
X21761571Y24544208D01*
X21648520Y24574500D01*
X21531480Y24574500D01*
X21418429Y24544208D01*
X21336000Y24496619D01*
X21336000Y25400000D01*
X20779402Y25400000D01*
X20718906Y25393495D01*
X20582035Y25342445D01*
X20582034Y25342445D01*
X20465097Y25254906D01*
X20420868Y25195823D01*
X20364031Y25153277D01*
X20293216Y25148213D01*
X20230904Y25182238D01*
X20219132Y25195823D01*
X20174902Y25254906D01*
X20057965Y25342445D01*
X19921093Y25393495D01*
X19860597Y25400000D01*
X19304000Y25400000D01*
X19304000Y24496619D01*
X19221571Y24544208D01*
X19108520Y24574500D01*
X18991480Y24574500D01*
X18878429Y24544208D01*
X18796000Y24496619D01*
X18796000Y25400000D01*
X18239402Y25400000D01*
X18178906Y25393495D01*
X18042035Y25342445D01*
X18042034Y25342445D01*
X17925095Y25254905D01*
X17837555Y25137966D01*
X17837555Y25137965D01*
X17786505Y25001094D01*
X17780000Y24940598D01*
X17780000Y24384000D01*
X18683382Y24384000D01*
X18635792Y24301571D01*
X18605500Y24188520D01*
X18605500Y24071480D01*
X18635792Y23958429D01*
X18683382Y23876000D01*
X17780000Y23876000D01*
X17780000Y23319403D01*
X17786505Y23258907D01*
X17837555Y23122036D01*
X17837555Y23122035D01*
X17925095Y23005096D01*
X17983759Y22961181D01*
X18026306Y22904345D01*
X18031370Y22833530D01*
X17997345Y22771217D01*
X17983761Y22759446D01*
X17924738Y22715261D01*
X17837112Y22598208D01*
X17837110Y22598203D01*
X17786011Y22461205D01*
X17786009Y22461197D01*
X17779500Y22400650D01*
X17779500Y22349500D01*
X17759498Y22281379D01*
X17705842Y22234886D01*
X17653500Y22223500D01*
X17218665Y22223500D01*
X17179034Y22229895D01*
X17160811Y22235934D01*
X17139827Y22242887D01*
X17139820Y22242888D01*
X17035953Y22253500D01*
X16034855Y22253500D01*
X15930974Y22242888D01*
X15762661Y22187115D01*
X15611744Y22094028D01*
X15610421Y22092981D01*
X15609343Y22092547D01*
X15608665Y22092129D01*
X15607787Y22090955D01*
X15576022Y22079108D01*
X15544578Y22066425D01*
X15542883Y22066748D01*
X15541267Y22066144D01*
X15508136Y22073351D01*
X15474830Y22079681D01*
X15473038Y22080986D01*
X15471893Y22081235D01*
X15443183Y22102728D01*
X15352681Y22193230D01*
X15318655Y22255542D01*
X15318200Y22306919D01*
X15320437Y22318156D01*
X15353365Y22483614D01*
X15353385Y22660785D01*
X15318843Y22834555D01*
X15251065Y22998248D01*
X15152656Y23145575D01*
X15149541Y23148691D01*
X15138644Y23159592D01*
X15138643Y23159594D01*
X15138520Y23159730D01*
X15130850Y23167400D01*
X15092879Y23205371D01*
X15090027Y23208224D01*
X15035644Y23262624D01*
X15035641Y23262626D01*
X15030512Y23267757D01*
X15030333Y23267916D01*
X14997740Y23300509D01*
X14997664Y23300560D01*
X14993275Y23304946D01*
X14993270Y23304955D01*
X14993228Y23304993D01*
X14979279Y23318947D01*
X14831956Y23417417D01*
X14726719Y23461023D01*
X14668253Y23485249D01*
X14668251Y23485250D01*
X14668250Y23485250D01*
X14494456Y23519836D01*
X14494451Y23519837D01*
X14494453Y23519837D01*
X14317255Y23519847D01*
X14317254Y23519847D01*
X14143455Y23485282D01*
X14143453Y23485282D01*
X14140420Y23484678D01*
X14069706Y23491009D01*
X14026748Y23519163D01*
X12927842Y24618069D01*
X12927840Y24618071D01*
X12824082Y24687400D01*
X12708792Y24735155D01*
X12635093Y24749815D01*
X12586403Y24759500D01*
X12586401Y24759500D01*
X10784665Y24759500D01*
X10754749Y24768284D01*
X10724280Y24774912D01*
X10719184Y24778727D01*
X10716544Y24779502D01*
X10695570Y24796405D01*
X9853906Y25638069D01*
X9853904Y25638071D01*
X9750146Y25707400D01*
X9668627Y25741167D01*
X9634859Y25755154D01*
X9634857Y25755155D01*
X9634856Y25755155D01*
X9612656Y25759571D01*
X9549749Y25792478D01*
X9514618Y25854174D01*
X9518419Y25925069D01*
X9548142Y25972240D01*
X10652071Y27076167D01*
X10721400Y27179925D01*
X10746166Y27239716D01*
X10790713Y27294995D01*
X10858076Y27317416D01*
X10926868Y27299858D01*
X10975246Y27247896D01*
X10978983Y27239715D01*
X11030038Y27116458D01*
X11030041Y27116452D01*
X11151811Y26905539D01*
X11151815Y26905533D01*
X11218897Y26818111D01*
X11218898Y26818110D01*
X11944227Y27543439D01*
X11946740Y27537374D01*
X12039762Y27398156D01*
X12158156Y27279762D01*
X12297374Y27186740D01*
X12303437Y27184229D01*
X11578108Y26458900D01*
X11578108Y26458899D01*
X11665531Y26391817D01*
X11665538Y26391812D01*
X11876451Y26270042D01*
X11876462Y26270036D01*
X12101484Y26176829D01*
X12336750Y26113790D01*
X12578217Y26082001D01*
X12578227Y26082000D01*
X12821773Y26082000D01*
X12821782Y26082001D01*
X13063249Y26113790D01*
X13298515Y26176829D01*
X13523537Y26270036D01*
X13523548Y26270042D01*
X13734460Y26391812D01*
X13821890Y26458900D01*
X13096562Y27184229D01*
X13102626Y27186740D01*
X13241844Y27279762D01*
X13360238Y27398156D01*
X13453260Y27537374D01*
X13455771Y27543439D01*
X14181100Y26818110D01*
X14248188Y26905540D01*
X14369958Y27116452D01*
X14369964Y27116463D01*
X14463171Y27341485D01*
X14526210Y27576751D01*
X14557999Y27818218D01*
X14558000Y27818227D01*
X14558000Y28061773D01*
X14557999Y28061783D01*
X14526210Y28303250D01*
X14463171Y28538516D01*
X14369964Y28763538D01*
X14369958Y28763549D01*
X14248188Y28974462D01*
X14248183Y28974469D01*
X14181100Y29061892D01*
X13455771Y28336563D01*
X13453260Y28342626D01*
X13360238Y28481844D01*
X13241844Y28600238D01*
X13102626Y28693260D01*
X13096561Y28695773D01*
X13821890Y29421102D01*
X13821889Y29421103D01*
X13734467Y29488185D01*
X13734461Y29488189D01*
X13523548Y29609959D01*
X13523537Y29609965D01*
X13298515Y29703172D01*
X13063249Y29766211D01*
X12821782Y29798000D01*
X12578217Y29798000D01*
X12336750Y29766211D01*
X12101484Y29703172D01*
X11948116Y29639645D01*
X11877526Y29632056D01*
X11814039Y29663836D01*
X11777812Y29724894D01*
X11780346Y29795845D01*
X11783469Y29804222D01*
X11828749Y29913536D01*
X11888411Y30136198D01*
X11918500Y30364742D01*
X11918500Y30595258D01*
X11888411Y30823802D01*
X11828749Y31046464D01*
X11783488Y31155734D01*
X11775900Y31226318D01*
X11807679Y31289805D01*
X11868737Y31326033D01*
X11939688Y31323499D01*
X11948116Y31320356D01*
X12101484Y31256829D01*
X12336750Y31193790D01*
X12578217Y31162001D01*
X12578227Y31162000D01*
X12821773Y31162000D01*
X12821782Y31162001D01*
X13063249Y31193790D01*
X13298515Y31256829D01*
X13523537Y31350036D01*
X13523548Y31350042D01*
X13734460Y31471812D01*
X13821890Y31538900D01*
X13096561Y32264229D01*
X13102626Y32266740D01*
X13241844Y32359762D01*
X13360238Y32478156D01*
X13453260Y32617374D01*
X13455771Y32623439D01*
X14181100Y31898110D01*
X14248188Y31985540D01*
X14369958Y32196452D01*
X14369964Y32196463D01*
X14463171Y32421485D01*
X14526210Y32656751D01*
X14557999Y32898218D01*
X14558000Y32898227D01*
X14558000Y33141773D01*
X14557999Y33141783D01*
X14526210Y33383250D01*
X14463171Y33618516D01*
X14369964Y33843538D01*
X14369958Y33843549D01*
X14248188Y34054462D01*
X14248183Y34054469D01*
X14181100Y34141892D01*
X13455771Y33416563D01*
X13453260Y33422626D01*
X13360238Y33561844D01*
X13241844Y33680238D01*
X13102626Y33773260D01*
X13096561Y33775772D01*
X13821890Y34501101D01*
X13821889Y34501103D01*
X13734467Y34568185D01*
X13734461Y34568189D01*
X13523548Y34689959D01*
X13523537Y34689965D01*
X13298515Y34783172D01*
X13063249Y34846211D01*
X12821782Y34878000D01*
X12578217Y34878000D01*
X12336750Y34846211D01*
X12101484Y34783172D01*
X11876462Y34689965D01*
X11876451Y34689959D01*
X11665538Y34568189D01*
X11578108Y34501102D01*
X12303438Y33775772D01*
X12297374Y33773260D01*
X12158156Y33680238D01*
X12039762Y33561844D01*
X11946740Y33422626D01*
X11944228Y33416562D01*
X11218898Y34141892D01*
X11151811Y34054462D01*
X11030041Y33843549D01*
X11030035Y33843538D01*
X10936828Y33618516D01*
X10873789Y33383250D01*
X10842000Y33141783D01*
X10842000Y32898218D01*
X10873789Y32656751D01*
X10936828Y32421485D01*
X11000355Y32268117D01*
X11007944Y32197527D01*
X10976165Y32134040D01*
X10915106Y32097813D01*
X10844155Y32100347D01*
X10835745Y32103484D01*
X10726464Y32148749D01*
X10503802Y32208411D01*
X10503800Y32208412D01*
X10503794Y32208413D01*
X10275260Y32238500D01*
X10275258Y32238500D01*
X10044742Y32238500D01*
X10044739Y32238500D01*
X9816205Y32208413D01*
X9775578Y32197527D01*
X9593536Y32148749D01*
X9484270Y32103490D01*
X9413681Y32095901D01*
X9350194Y32127681D01*
X9313967Y32188739D01*
X9316501Y32259690D01*
X9319644Y32268118D01*
X9383172Y32421488D01*
X9446210Y32656751D01*
X9477999Y32898218D01*
X9478000Y32898227D01*
X9478000Y33141773D01*
X9477999Y33141783D01*
X9446210Y33383250D01*
X9383171Y33618516D01*
X9289964Y33843538D01*
X9289958Y33843549D01*
X9168188Y34054462D01*
X9168183Y34054469D01*
X9101100Y34141892D01*
X8375771Y33416563D01*
X8373260Y33422626D01*
X8280238Y33561844D01*
X8161844Y33680238D01*
X8022626Y33773260D01*
X8016561Y33775772D01*
X8741890Y34501101D01*
X8741889Y34501103D01*
X8654467Y34568185D01*
X8654461Y34568189D01*
X8443548Y34689959D01*
X8443537Y34689965D01*
X8218515Y34783172D01*
X7983249Y34846211D01*
X7741782Y34878000D01*
X7498217Y34878000D01*
X7256750Y34846211D01*
X7021484Y34783172D01*
X6796462Y34689965D01*
X6796451Y34689959D01*
X6585538Y34568189D01*
X6498108Y34501102D01*
X7223438Y33775772D01*
X7217374Y33773260D01*
X7078156Y33680238D01*
X6959762Y33561844D01*
X6866740Y33422626D01*
X6864228Y33416562D01*
X6138898Y34141892D01*
X6071811Y34054462D01*
X5950041Y33843549D01*
X5950035Y33843538D01*
X5856828Y33618516D01*
X5793789Y33383250D01*
X5762000Y33141783D01*
X5762000Y32898218D01*
X5793789Y32656751D01*
X5856828Y32421485D01*
X5950035Y32196463D01*
X5950041Y32196452D01*
X6071811Y31985539D01*
X6071815Y31985533D01*
X6138897Y31898111D01*
X6138899Y31898110D01*
X6864227Y32623439D01*
X6866740Y32617374D01*
X6959762Y32478156D01*
X7078156Y32359762D01*
X7217374Y32266740D01*
X7223437Y32264229D01*
X6498108Y31538900D01*
X6498108Y31538899D01*
X6585531Y31471817D01*
X6585538Y31471812D01*
X6796451Y31350042D01*
X6796462Y31350036D01*
X7021484Y31256829D01*
X7256750Y31193790D01*
X7498217Y31162001D01*
X7498227Y31162000D01*
X7741773Y31162000D01*
X7741782Y31162001D01*
X7983249Y31193790D01*
X8218512Y31256828D01*
X8371882Y31320356D01*
X8442472Y31327945D01*
X8505959Y31296166D01*
X8542187Y31235108D01*
X8539653Y31164157D01*
X8536510Y31155729D01*
X8491251Y31046464D01*
X8431587Y30823795D01*
X8401500Y30595261D01*
X8401500Y30364740D01*
X8431587Y30136206D01*
X8431588Y30136200D01*
X8431589Y30136198D01*
X8491251Y29913536D01*
X8536510Y29804270D01*
X8544099Y29733682D01*
X8512320Y29670195D01*
X8451261Y29633968D01*
X8380310Y29636502D01*
X8371883Y29639645D01*
X8218515Y29703172D01*
X7983249Y29766211D01*
X7741782Y29798000D01*
X7498217Y29798000D01*
X7256750Y29766211D01*
X7021484Y29703172D01*
X6796462Y29609965D01*
X6796451Y29609959D01*
X6585538Y29488189D01*
X6498108Y29421102D01*
X7223438Y28695772D01*
X7217374Y28693260D01*
X7078156Y28600238D01*
X6959762Y28481844D01*
X6866740Y28342626D01*
X6864228Y28336562D01*
X6138898Y29061892D01*
X6071811Y28974462D01*
X5950041Y28763549D01*
X5950035Y28763538D01*
X5856828Y28538516D01*
X5793789Y28303250D01*
X5762000Y28061783D01*
X5762000Y27818218D01*
X5793789Y27576751D01*
X5856828Y27341485D01*
X5950035Y27116463D01*
X5950041Y27116452D01*
X6071811Y26905539D01*
X6071815Y26905533D01*
X6138897Y26818111D01*
X6138899Y26818110D01*
X6864227Y27543439D01*
X6866740Y27537374D01*
X6959762Y27398156D01*
X7078156Y27279762D01*
X7217374Y27186740D01*
X7223437Y27184229D01*
X6482280Y26443072D01*
X6480149Y26433272D01*
X6479841Y26432861D01*
X6479785Y26432610D01*
X6458657Y26404562D01*
X6390667Y26336571D01*
X6302427Y26248331D01*
X6302426Y26248329D01*
X6233100Y26144576D01*
X6185345Y26029285D01*
X6185343Y26029279D01*
X6184438Y26024727D01*
X6151529Y25961818D01*
X6149958Y25960219D01*
X6122547Y25932808D01*
X6122546Y25932806D01*
X6037856Y25789604D01*
X5991437Y25629830D01*
X5991437Y25629829D01*
X5988500Y25592512D01*
X5988500Y24434489D01*
X5991437Y24397172D01*
X5991437Y24397171D01*
X6037856Y24237395D01*
X6122544Y24094197D01*
X6122549Y24094190D01*
X6240193Y23976546D01*
X6241469Y23975556D01*
X6242212Y23974527D01*
X6245798Y23970941D01*
X6245219Y23970363D01*
X6283034Y23917998D01*
X6286881Y23847106D01*
X6251791Y23785387D01*
X6241469Y23776444D01*
X6240193Y23775455D01*
X6122549Y23657811D01*
X6122544Y23657804D01*
X6037856Y23514606D01*
X5991437Y23354830D01*
X5990282Y23348500D01*
X5988888Y23348755D01*
X5966208Y23289264D01*
X5909066Y23247129D01*
X5865888Y23239500D01*
X5271603Y23239500D01*
X5198568Y23224972D01*
X5149215Y23215155D01*
X5149213Y23215155D01*
X5149212Y23215154D01*
X5033923Y23167399D01*
X4930171Y23098074D01*
X4930169Y23098073D01*
X4613095Y22781000D01*
X4550783Y22746975D01*
X4479967Y22752040D01*
X4423132Y22794587D01*
X4398321Y22861108D01*
X4398000Y22870096D01*
X4398000Y22981773D01*
X4397999Y22981783D01*
X4366210Y23223250D01*
X4303171Y23458516D01*
X4209964Y23683538D01*
X4209958Y23683549D01*
X4088188Y23894462D01*
X4088183Y23894469D01*
X4021100Y23981892D01*
X3295771Y23256563D01*
X3293260Y23262626D01*
X3200238Y23401844D01*
X3081844Y23520238D01*
X2942626Y23613260D01*
X2936561Y23615772D01*
X3661890Y24341101D01*
X3661889Y24341103D01*
X3574467Y24408185D01*
X3574461Y24408189D01*
X3363548Y24529959D01*
X3363537Y24529965D01*
X3138515Y24623172D01*
X2903249Y24686211D01*
X2661782Y24718000D01*
X2418217Y24718000D01*
X2176750Y24686211D01*
X1941484Y24623172D01*
X1716462Y24529965D01*
X1716451Y24529959D01*
X1505538Y24408189D01*
X1418108Y24341102D01*
X2143438Y23615772D01*
X2137374Y23613260D01*
X1998156Y23520238D01*
X1879762Y23401844D01*
X1786740Y23262626D01*
X1784228Y23256562D01*
X1058898Y23981892D01*
X991811Y23894462D01*
X870041Y23683549D01*
X870035Y23683538D01*
X776828Y23458516D01*
X713789Y23223250D01*
X682000Y22981783D01*
X682000Y22738218D01*
X713789Y22496751D01*
X776828Y22261485D01*
X840355Y22108117D01*
X847944Y22037527D01*
X816165Y21974040D01*
X755106Y21937813D01*
X684155Y21940347D01*
X675745Y21943484D01*
X566464Y21988749D01*
X343802Y22048411D01*
X343800Y22048412D01*
X343794Y22048413D01*
X115260Y22078500D01*
X115258Y22078500D01*
X-115258Y22078500D01*
X-115261Y22078500D01*
X-343795Y22048413D01*
X-384422Y22037527D01*
X-566464Y21988749D01*
X-675730Y21943490D01*
X-746319Y21935901D01*
X-809806Y21967681D01*
X-846033Y22028739D01*
X-843499Y22099690D01*
X-840356Y22108118D01*
X-776828Y22261488D01*
X-713790Y22496751D01*
X-682001Y22738218D01*
X-682000Y22738227D01*
X-682000Y22981773D01*
X-682001Y22981783D01*
X-713790Y23223250D01*
X-776829Y23458516D01*
X-870036Y23683538D01*
X-870042Y23683549D01*
X-991812Y23894462D01*
X-991817Y23894469D01*
X-1058900Y23981892D01*
X-1784229Y23256563D01*
X-1786740Y23262626D01*
X-1879762Y23401844D01*
X-1998156Y23520238D01*
X-2137374Y23613260D01*
X-2143439Y23615772D01*
X-1418110Y24341101D01*
X-1418111Y24341103D01*
X-1505533Y24408185D01*
X-1505539Y24408189D01*
X-1716452Y24529959D01*
X-1716463Y24529965D01*
X-1941485Y24623172D01*
X-2176751Y24686211D01*
X-2418218Y24718000D01*
X-2661783Y24718000D01*
X-2903250Y24686211D01*
X-3138516Y24623172D01*
X-3363538Y24529965D01*
X-3363549Y24529959D01*
X-3574462Y24408189D01*
X-3661892Y24341102D01*
X-2936562Y23615772D01*
X-2942626Y23613260D01*
X-3081844Y23520238D01*
X-3200238Y23401844D01*
X-3293260Y23262626D01*
X-3295772Y23256562D01*
X-4021102Y23981892D01*
X-4088189Y23894462D01*
X-4209959Y23683549D01*
X-4209965Y23683538D01*
X-4303172Y23458516D01*
X-4366211Y23223250D01*
X-4398000Y22981783D01*
X-4815500Y22981783D01*
X-4815500Y35169500D01*
X-4795498Y35237621D01*
X-4741842Y35284114D01*
X-4689500Y35295500D01*
X25009500Y35295500D01*
X25077621Y35275498D01*
G37*
%TD.AperFunction*%
%TD*%
M02*
