%TF.GenerationSoftware,KiCad,Pcbnew,7.0.7-7.0.7~ubuntu23.04.1*%
%TF.CreationDate,2023-09-11T01:10:26+00:00*%
%TF.ProjectId,ACOMP01,41434f4d-5030-4312-9e6b-696361645f70,rev?*%
%TF.SameCoordinates,Original*%
%TF.FileFunction,Copper,L1,Top*%
%TF.FilePolarity,Positive*%
%FSLAX46Y46*%
G04 Gerber Fmt 4.6, Leading zero omitted, Abs format (unit mm)*
G04 Created by KiCad (PCBNEW 7.0.7-7.0.7~ubuntu23.04.1) date 2023-09-11 01:10:26*
%MOMM*%
%LPD*%
G01*
G04 APERTURE LIST*
%TA.AperFunction,ComponentPad*%
%ADD10R,1.524000X1.524000*%
%TD*%
%TA.AperFunction,ComponentPad*%
%ADD11C,6.000000*%
%TD*%
%TA.AperFunction,ComponentPad*%
%ADD12C,2.500000*%
%TD*%
%TA.AperFunction,ComponentPad*%
%ADD13C,2.700000*%
%TD*%
%TA.AperFunction,ViaPad*%
%ADD14C,0.800000*%
%TD*%
G04 APERTURE END LIST*
D10*
%TO.P,J6,1*%
%TO.N,GND*%
X21590000Y6350000D03*
%TO.P,J6,2*%
X19050000Y6350000D03*
%TO.P,J6,3*%
%TO.N,/TLV_OUT+*%
X21590000Y8890000D03*
%TO.P,J6,4*%
X19050000Y8890000D03*
%TO.P,J6,5*%
%TO.N,/TLV_OUT-*%
X21590000Y11430000D03*
%TO.P,J6,6*%
X19050000Y11430000D03*
%TO.P,J6,7*%
%TO.N,GND*%
X21590000Y13970000D03*
%TO.P,J6,8*%
X19050000Y13970000D03*
%TD*%
D11*
%TO.P,M2,1*%
%TO.N,GND*%
X0Y30480000D03*
%TD*%
%TO.P,M4,1*%
%TO.N,GND*%
X20320000Y0D03*
%TD*%
D10*
%TO.P,J7,1*%
%TO.N,GND*%
X21590000Y16510000D03*
%TO.P,J7,2*%
X19050000Y16510000D03*
%TO.P,J7,3*%
%TO.N,/LMH_OUT+*%
X21590000Y19050000D03*
%TO.P,J7,4*%
X19050000Y19050000D03*
%TO.P,J7,5*%
%TO.N,/LMH_OUT-*%
X21590000Y21590000D03*
%TO.P,J7,6*%
X19050000Y21590000D03*
%TO.P,J7,7*%
%TO.N,GND*%
X21590000Y24130000D03*
%TO.P,J7,8*%
X19050000Y24130000D03*
%TD*%
D12*
%TO.P,J2,1,In*%
%TO.N,/IN+_TLV*%
X10160000Y0D03*
D13*
%TO.P,J2,2,Ext*%
%TO.N,GND*%
X7620000Y-2540000D03*
X12700000Y-2540000D03*
X12700000Y2540000D03*
X7620000Y2540000D03*
%TD*%
D10*
%TO.P,J1,1*%
%TO.N,GND*%
X10160000Y17780000D03*
%TO.P,J1,2*%
X12700000Y17780000D03*
%TO.P,J1,3*%
%TO.N,+3V3*%
X10160000Y15240000D03*
%TO.P,J1,4*%
X12700000Y15240000D03*
%TO.P,J1,5*%
%TO.N,GND*%
X10160000Y12700000D03*
%TO.P,J1,6*%
X12700000Y12700000D03*
%TD*%
D12*
%TO.P,J4,1,In*%
%TO.N,/IN+_LMH*%
X0Y20320000D03*
D13*
%TO.P,J4,2,Ext*%
%TO.N,GND*%
X-2540000Y22860000D03*
X2540000Y22860000D03*
X2540000Y17780000D03*
X-2540000Y17780000D03*
%TD*%
D11*
%TO.P,M3,1*%
%TO.N,GND*%
X0Y0D03*
%TD*%
%TO.P,M1,1*%
%TO.N,GND*%
X20320000Y30480000D03*
%TD*%
D12*
%TO.P,J5,1,In*%
%TO.N,/IN-_LMH*%
X10160000Y30480000D03*
D13*
%TO.P,J5,2,Ext*%
%TO.N,GND*%
X12700000Y33020000D03*
X12700000Y27940000D03*
X7620000Y33020000D03*
X7620000Y27940000D03*
%TD*%
D12*
%TO.P,J3,1,In*%
%TO.N,/IN-_TLV*%
X0Y10160000D03*
D13*
%TO.P,J3,2,Ext*%
%TO.N,GND*%
X-2540000Y7620000D03*
X-2540000Y12700000D03*
X2540000Y12700000D03*
X2540000Y7620000D03*
%TD*%
D14*
%TO.N,GND*%
X6858000Y23876000D03*
X5334000Y20828000D03*
X7747000Y23876000D03*
X12446000Y9652000D03*
X10033000Y4953000D03*
X5334000Y19812000D03*
X7366000Y10922000D03*
X10922000Y22352000D03*
X6350000Y10922000D03*
X13970000Y20320000D03*
X9144000Y4953000D03*
X14986000Y11938000D03*
X12446000Y10668000D03*
X11938000Y22352000D03*
X5334000Y10922000D03*
%TD*%
%TA.AperFunction,Conductor*%
%TO.N,GND*%
G36*
X-68379Y-30502D02*
G01*
X-21886Y-84158D01*
X-10500Y-136500D01*
X-10500Y-1519033D01*
X-30502Y-1587154D01*
X-84158Y-1633647D01*
X-146385Y-1644645D01*
X-249195Y-1636554D01*
X-268725Y-1633460D01*
X-502143Y-1577420D01*
X-520946Y-1571311D01*
X-742726Y-1479448D01*
X-760343Y-1470471D01*
X-965015Y-1345047D01*
X-981010Y-1333426D01*
X-1163546Y-1177526D01*
X-1177527Y-1163545D01*
X-1333427Y-981009D01*
X-1345048Y-965014D01*
X-1467542Y-765124D01*
X-1470473Y-760340D01*
X-1479449Y-742725D01*
X-1498715Y-696213D01*
X-1571312Y-520945D01*
X-1577421Y-502142D01*
X-1633461Y-268724D01*
X-1636554Y-249202D01*
X-1644645Y-146386D01*
X-1644645Y-146384D01*
X-1630048Y-76904D01*
X-1580205Y-26346D01*
X-1519033Y-10500D01*
X-136500Y-10500D01*
X-68379Y-30502D01*
G37*
%TD.AperFunction*%
%TA.AperFunction,Conductor*%
G36*
X1587154Y-30502D02*
G01*
X1633647Y-84158D01*
X1644645Y-146386D01*
X1636554Y-249195D01*
X1633460Y-268724D01*
X1577420Y-502142D01*
X1571311Y-520945D01*
X1479448Y-742725D01*
X1470471Y-760342D01*
X1345047Y-965014D01*
X1333426Y-981009D01*
X1177526Y-1163545D01*
X1163545Y-1177526D01*
X981009Y-1333426D01*
X965014Y-1345047D01*
X760342Y-1470471D01*
X742725Y-1479448D01*
X520945Y-1571311D01*
X502142Y-1577420D01*
X268724Y-1633460D01*
X249194Y-1636554D01*
X146385Y-1644644D01*
X76905Y-1630049D01*
X26346Y-1580206D01*
X10500Y-1519033D01*
X10500Y-136500D01*
X30502Y-68379D01*
X84158Y-21886D01*
X136500Y-10500D01*
X1519033Y-10500D01*
X1587154Y-30502D01*
G37*
%TD.AperFunction*%
%TA.AperFunction,Conductor*%
G36*
X-76905Y1630050D02*
G01*
X-26346Y1580207D01*
X-10500Y1519034D01*
X-10500Y136500D01*
X-30502Y68379D01*
X-84158Y21886D01*
X-136500Y10500D01*
X-1519033Y10500D01*
X-1587154Y30502D01*
X-1633647Y84158D01*
X-1644645Y146384D01*
X-1641469Y186754D01*
X-1636554Y249205D01*
X-1633461Y268725D01*
X-1577421Y502143D01*
X-1571312Y520946D01*
X-1479446Y742734D01*
X-1470476Y760337D01*
X-1345044Y965022D01*
X-1333432Y981004D01*
X-1177519Y1163555D01*
X-1163555Y1177519D01*
X-981004Y1333432D01*
X-965022Y1345044D01*
X-760337Y1470476D01*
X-742734Y1479446D01*
X-520942Y1571314D01*
X-502143Y1577421D01*
X-315025Y1622345D01*
X-268721Y1633462D01*
X-249207Y1636554D01*
X-146384Y1644646D01*
X-76905Y1630050D01*
G37*
%TD.AperFunction*%
%TA.AperFunction,Conductor*%
G36*
X249206Y1636554D02*
G01*
X268722Y1633462D01*
X293932Y1627409D01*
X502142Y1577421D01*
X520945Y1571312D01*
X742727Y1479448D01*
X760340Y1470473D01*
X910089Y1378706D01*
X965014Y1345048D01*
X981009Y1333427D01*
X1163545Y1177527D01*
X1177526Y1163546D01*
X1333426Y981010D01*
X1345047Y965015D01*
X1470471Y760343D01*
X1479448Y742726D01*
X1571311Y520946D01*
X1577420Y502143D01*
X1633460Y268725D01*
X1636554Y249195D01*
X1644645Y146385D01*
X1630049Y76905D01*
X1580206Y26346D01*
X1519033Y10500D01*
X136500Y10500D01*
X68379Y30502D01*
X21886Y84158D01*
X10500Y136500D01*
X10500Y1519034D01*
X30502Y1587155D01*
X84158Y1633648D01*
X146383Y1644646D01*
X249206Y1636554D01*
G37*
%TD.AperFunction*%
%TA.AperFunction,Conductor*%
G36*
X21102165Y6583998D02*
G01*
X21148658Y6530342D01*
X21158762Y6460068D01*
X21156885Y6449962D01*
X21141736Y6383594D01*
X21152455Y6240555D01*
X21151146Y6240457D01*
X21147391Y6179172D01*
X21105425Y6121906D01*
X21039161Y6096419D01*
X21028893Y6096000D01*
X19605956Y6096000D01*
X19537835Y6116002D01*
X19491342Y6169658D01*
X19481238Y6239932D01*
X19483115Y6250038D01*
X19498264Y6316407D01*
X19488251Y6450028D01*
X19488250Y6450030D01*
X19487545Y6459445D01*
X19488853Y6459544D01*
X19492609Y6520828D01*
X19534575Y6578094D01*
X19600839Y6603581D01*
X19611107Y6604000D01*
X21034044Y6604000D01*
X21102165Y6583998D01*
G37*
%TD.AperFunction*%
%TA.AperFunction,Conductor*%
G36*
X12212165Y12933998D02*
G01*
X12258658Y12880342D01*
X12268762Y12810068D01*
X12266885Y12799962D01*
X12251736Y12733594D01*
X12262455Y12590555D01*
X12261146Y12590457D01*
X12257391Y12529172D01*
X12215425Y12471906D01*
X12149161Y12446419D01*
X12138893Y12446000D01*
X10715956Y12446000D01*
X10647835Y12466002D01*
X10601342Y12519658D01*
X10591238Y12589932D01*
X10593115Y12600038D01*
X10608264Y12666407D01*
X10598251Y12800028D01*
X10598250Y12800030D01*
X10597545Y12809445D01*
X10598853Y12809544D01*
X10602609Y12870828D01*
X10644575Y12928094D01*
X10710839Y12953581D01*
X10721107Y12954000D01*
X12144044Y12954000D01*
X12212165Y12933998D01*
G37*
%TD.AperFunction*%
%TA.AperFunction,Conductor*%
G36*
X12212165Y18013998D02*
G01*
X12258658Y17960342D01*
X12268762Y17890068D01*
X12266885Y17879962D01*
X12251736Y17813594D01*
X12262455Y17670555D01*
X12261146Y17670457D01*
X12257391Y17609172D01*
X12215425Y17551906D01*
X12149161Y17526419D01*
X12138893Y17526000D01*
X10715956Y17526000D01*
X10647835Y17546002D01*
X10601342Y17599658D01*
X10591238Y17669932D01*
X10593115Y17680038D01*
X10608264Y17746407D01*
X10598251Y17880028D01*
X10598250Y17880030D01*
X10597545Y17889445D01*
X10598853Y17889544D01*
X10602609Y17950828D01*
X10644575Y18008094D01*
X10710839Y18033581D01*
X10721107Y18034000D01*
X12144044Y18034000D01*
X12212165Y18013998D01*
G37*
%TD.AperFunction*%
%TA.AperFunction,Conductor*%
G36*
X21102165Y24363998D02*
G01*
X21148658Y24310342D01*
X21158762Y24240068D01*
X21156885Y24229962D01*
X21141736Y24163594D01*
X21152455Y24020555D01*
X21151146Y24020457D01*
X21147391Y23959172D01*
X21105425Y23901906D01*
X21039161Y23876419D01*
X21028893Y23876000D01*
X19605956Y23876000D01*
X19537835Y23896002D01*
X19491342Y23949658D01*
X19481238Y24019932D01*
X19483115Y24030038D01*
X19498264Y24096407D01*
X19488251Y24230028D01*
X19488250Y24230030D01*
X19487545Y24239445D01*
X19488853Y24239544D01*
X19492609Y24300828D01*
X19534575Y24358094D01*
X19600839Y24383581D01*
X19611107Y24384000D01*
X21034044Y24384000D01*
X21102165Y24363998D01*
G37*
%TD.AperFunction*%
%TA.AperFunction,Conductor*%
G36*
X25077621Y35275498D02*
G01*
X25124114Y35221842D01*
X25135500Y35169500D01*
X25135500Y-4689500D01*
X25115498Y-4757621D01*
X25061842Y-4804114D01*
X25009500Y-4815500D01*
X-4689500Y-4815500D01*
X-4757621Y-4795498D01*
X-4804114Y-4741842D01*
X-4815500Y-4689500D01*
X-4815500Y-2540000D01*
X5757254Y-2540000D01*
X5776213Y-2805092D01*
X5832707Y-3064793D01*
X5925587Y-3313814D01*
X6052958Y-3547076D01*
X6138902Y-3661884D01*
X6755343Y-3045445D01*
X6817656Y-3011420D01*
X6888471Y-3016484D01*
X6940471Y-3052969D01*
X7032003Y-3160729D01*
X7032005Y-3160730D01*
X7032009Y-3160735D01*
X7102583Y-3214384D01*
X7144707Y-3271529D01*
X7149248Y-3342381D01*
X7115424Y-3403784D01*
X6498112Y-4021095D01*
X6498113Y-4021096D01*
X6612919Y-4107039D01*
X6846185Y-4234412D01*
X7095206Y-4327292D01*
X7354907Y-4383786D01*
X7619999Y-4402745D01*
X7885092Y-4383786D01*
X8144793Y-4327292D01*
X8393814Y-4234412D01*
X8627076Y-4107042D01*
X8741885Y-4021095D01*
X8128152Y-3407363D01*
X8094127Y-3345050D01*
X8099191Y-3274235D01*
X8134168Y-3227158D01*
X8132471Y-3225367D01*
X8144069Y-3214381D01*
X8271658Y-3093523D01*
X8291580Y-3064139D01*
X8346363Y-3018982D01*
X8416865Y-3010611D01*
X8480700Y-3041684D01*
X8484965Y-3045754D01*
X9101095Y-3661884D01*
X9187042Y-3547076D01*
X9314412Y-3313814D01*
X9407292Y-3064793D01*
X9463786Y-2805092D01*
X9482745Y-2539999D01*
X9463786Y-2274907D01*
X9407292Y-2015206D01*
X9323106Y-1789497D01*
X9318041Y-1718681D01*
X9352066Y-1656369D01*
X9414378Y-1622344D01*
X9485194Y-1627408D01*
X9495832Y-1631942D01*
X9515746Y-1641532D01*
X9515749Y-1641532D01*
X9515754Y-1641535D01*
X9767589Y-1719215D01*
X9767591Y-1719215D01*
X9767600Y-1719218D01*
X10028219Y-1758500D01*
X10028223Y-1758500D01*
X10291777Y-1758500D01*
X10291781Y-1758500D01*
X10552400Y-1719218D01*
X10554141Y-1718681D01*
X10804245Y-1641535D01*
X10804247Y-1641534D01*
X10804254Y-1641532D01*
X10824166Y-1631942D01*
X10894218Y-1620406D01*
X10959388Y-1648574D01*
X10998983Y-1707504D01*
X11000433Y-1778486D01*
X10996893Y-1789496D01*
X10912708Y-2015203D01*
X10856213Y-2274907D01*
X10837254Y-2540000D01*
X10856213Y-2805092D01*
X10912707Y-3064793D01*
X11005587Y-3313814D01*
X11132958Y-3547076D01*
X11218902Y-3661884D01*
X11835343Y-3045445D01*
X11897656Y-3011420D01*
X11968471Y-3016484D01*
X12020471Y-3052969D01*
X12112003Y-3160729D01*
X12112005Y-3160730D01*
X12112009Y-3160735D01*
X12182583Y-3214384D01*
X12224707Y-3271529D01*
X12229248Y-3342381D01*
X12195424Y-3403784D01*
X11578112Y-4021095D01*
X11578113Y-4021096D01*
X11692919Y-4107039D01*
X11926185Y-4234412D01*
X12175206Y-4327292D01*
X12434907Y-4383786D01*
X12700000Y-4402745D01*
X12965092Y-4383786D01*
X13224793Y-4327292D01*
X13473814Y-4234412D01*
X13707076Y-4107042D01*
X13821885Y-4021095D01*
X13208152Y-3407363D01*
X13174127Y-3345050D01*
X13179191Y-3274235D01*
X13214168Y-3227158D01*
X13212471Y-3225367D01*
X13224069Y-3214381D01*
X13351658Y-3093523D01*
X13371580Y-3064139D01*
X13426363Y-3018982D01*
X13496865Y-3010611D01*
X13560700Y-3041684D01*
X13564965Y-3045754D01*
X14181095Y-3661884D01*
X14267042Y-3547076D01*
X14394412Y-3313814D01*
X14487292Y-3064793D01*
X14543786Y-2805092D01*
X14562745Y-2539999D01*
X14543786Y-2274907D01*
X14487292Y-2015206D01*
X14394412Y-1766185D01*
X14267039Y-1532919D01*
X14181096Y-1418113D01*
X14181095Y-1418113D01*
X13564654Y-2034554D01*
X13502342Y-2068579D01*
X13431526Y-2063514D01*
X13379526Y-2027028D01*
X13287995Y-1919269D01*
X13287993Y-1919267D01*
X13287991Y-1919265D01*
X13217415Y-1865614D01*
X13175291Y-1808468D01*
X13170750Y-1737617D01*
X13204574Y-1676213D01*
X13821885Y-1058903D01*
X13707076Y-972958D01*
X13473814Y-845587D01*
X13224793Y-752707D01*
X12965092Y-696213D01*
X12700000Y-677254D01*
X12434907Y-696213D01*
X12175203Y-752708D01*
X11945811Y-838267D01*
X11874995Y-843331D01*
X11812683Y-809306D01*
X11778658Y-746994D01*
X11783723Y-676178D01*
X11784453Y-674271D01*
X11845087Y-519780D01*
X11903735Y-262826D01*
X11923431Y0D01*
X11903735Y262826D01*
X11845087Y519780D01*
X11784488Y674181D01*
X11778221Y744898D01*
X11811182Y807780D01*
X11872906Y842859D01*
X11943798Y838999D01*
X11945812Y838268D01*
X12175206Y752708D01*
X12434907Y696214D01*
X12700000Y677255D01*
X12965092Y696214D01*
X13224793Y752708D01*
X13473814Y845588D01*
X13707076Y972958D01*
X13821885Y1058905D01*
X13208152Y1672637D01*
X13174127Y1734950D01*
X13179191Y1805765D01*
X13214168Y1852842D01*
X13212471Y1854633D01*
X13224069Y1865619D01*
X13351658Y1986477D01*
X13371580Y2015861D01*
X13426363Y2061018D01*
X13496865Y2069389D01*
X13560700Y2038316D01*
X13564965Y2034246D01*
X14181095Y1418116D01*
X14267042Y1532924D01*
X14394412Y1766186D01*
X14487292Y2015207D01*
X14543786Y2274908D01*
X14562745Y2540001D01*
X14543786Y2805093D01*
X14487292Y3064794D01*
X14394412Y3313815D01*
X14267039Y3547081D01*
X14181096Y3661887D01*
X14181095Y3661887D01*
X13564654Y3045446D01*
X13502342Y3011421D01*
X13431526Y3016486D01*
X13379526Y3052972D01*
X13287995Y3160731D01*
X13287993Y3160733D01*
X13287991Y3160735D01*
X13217415Y3214386D01*
X13175291Y3271532D01*
X13170750Y3342383D01*
X13204574Y3403787D01*
X13821885Y4021097D01*
X13707076Y4107042D01*
X13473814Y4234413D01*
X13224793Y4327293D01*
X12965092Y4383787D01*
X12700000Y4402746D01*
X12434907Y4383787D01*
X12175206Y4327293D01*
X11926185Y4234413D01*
X11692924Y4107043D01*
X11578113Y4021098D01*
X12191847Y3407364D01*
X12225872Y3345051D01*
X12220808Y3274236D01*
X12185843Y3227145D01*
X12187528Y3225366D01*
X12048339Y3093521D01*
X12028417Y3064138D01*
X11973632Y3018981D01*
X11903130Y3010612D01*
X11839296Y3041688D01*
X11835034Y3045755D01*
X11218902Y3661887D01*
X11132957Y3547076D01*
X11005587Y3313815D01*
X10912707Y3064794D01*
X10856213Y2805093D01*
X10837254Y2540000D01*
X10856213Y2274908D01*
X10912707Y2015207D01*
X10996893Y1789498D01*
X11001958Y1718682D01*
X10967933Y1656370D01*
X10905620Y1622345D01*
X10834805Y1627409D01*
X10824169Y1631942D01*
X10804258Y1641531D01*
X10804245Y1641536D01*
X10552410Y1719216D01*
X10552402Y1719218D01*
X10552400Y1719218D01*
X10291781Y1758500D01*
X10028219Y1758500D01*
X9767600Y1719218D01*
X9767598Y1719218D01*
X9767589Y1719216D01*
X9515754Y1641536D01*
X9515740Y1641530D01*
X9495828Y1631941D01*
X9425775Y1620408D01*
X9360607Y1648579D01*
X9321014Y1707511D01*
X9319568Y1778493D01*
X9323107Y1789498D01*
X9407290Y2015201D01*
X9463786Y2274908D01*
X9482745Y2540001D01*
X9463786Y2805093D01*
X9407292Y3064794D01*
X9314412Y3313815D01*
X9187039Y3547081D01*
X9101096Y3661887D01*
X9101095Y3661887D01*
X8484654Y3045446D01*
X8422342Y3011421D01*
X8351526Y3016486D01*
X8299526Y3052972D01*
X8207995Y3160731D01*
X8207993Y3160733D01*
X8207991Y3160735D01*
X8137415Y3214386D01*
X8095291Y3271532D01*
X8090750Y3342383D01*
X8124574Y3403787D01*
X8741885Y4021097D01*
X8627076Y4107042D01*
X8393814Y4234413D01*
X8144793Y4327293D01*
X7885092Y4383787D01*
X7619999Y4402746D01*
X7354907Y4383787D01*
X7095206Y4327293D01*
X6846185Y4234413D01*
X6612924Y4107043D01*
X6498113Y4021098D01*
X7111847Y3407364D01*
X7145872Y3345051D01*
X7140808Y3274236D01*
X7105843Y3227145D01*
X7107528Y3225366D01*
X6968339Y3093521D01*
X6948417Y3064138D01*
X6893632Y3018981D01*
X6823130Y3010612D01*
X6759296Y3041688D01*
X6755034Y3045755D01*
X6138902Y3661887D01*
X6052957Y3547076D01*
X5925587Y3313815D01*
X5832707Y3064794D01*
X5776213Y2805093D01*
X5757254Y2540000D01*
X5776213Y2274908D01*
X5832707Y2015207D01*
X5925587Y1766186D01*
X6052958Y1532924D01*
X6138902Y1418116D01*
X6755343Y2034555D01*
X6817656Y2068580D01*
X6888471Y2063516D01*
X6940471Y2027031D01*
X7032003Y1919271D01*
X7032005Y1919270D01*
X7032009Y1919265D01*
X7102583Y1865616D01*
X7144707Y1808471D01*
X7149248Y1737619D01*
X7115424Y1676216D01*
X6498112Y1058905D01*
X6498113Y1058904D01*
X6612919Y972961D01*
X6846185Y845588D01*
X7095206Y752708D01*
X7354907Y696214D01*
X7619999Y677255D01*
X7885092Y696214D01*
X8144793Y752708D01*
X8374187Y838268D01*
X8445003Y843333D01*
X8507315Y809308D01*
X8541340Y746996D01*
X8536276Y676180D01*
X8535510Y674179D01*
X8474911Y519776D01*
X8417611Y268725D01*
X8416265Y262826D01*
X8396569Y0D01*
X8416265Y-262826D01*
X8416266Y-262830D01*
X8474911Y-519775D01*
X8535510Y-674178D01*
X8541778Y-744898D01*
X8508817Y-807779D01*
X8447092Y-842858D01*
X8376201Y-838998D01*
X8374188Y-838267D01*
X8144796Y-752708D01*
X7885092Y-696213D01*
X7619999Y-677254D01*
X7354907Y-696213D01*
X7095206Y-752707D01*
X6846185Y-845587D01*
X6612924Y-972957D01*
X6498113Y-1058902D01*
X7111847Y-1672636D01*
X7145872Y-1734949D01*
X7140808Y-1805764D01*
X7105843Y-1852855D01*
X7107528Y-1854634D01*
X6968339Y-1986479D01*
X6948417Y-2015862D01*
X6893632Y-2061019D01*
X6823130Y-2069388D01*
X6759296Y-2038312D01*
X6755034Y-2034245D01*
X6138902Y-1418113D01*
X6052957Y-1532924D01*
X5925587Y-1766185D01*
X5832707Y-2015206D01*
X5776213Y-2274907D01*
X5757254Y-2540000D01*
X-4815500Y-2540000D01*
X-4815500Y0D01*
X-2511365Y0D01*
X-2508036Y-8036D01*
X-2502088Y-10500D01*
X-1797993Y-10500D01*
X-1729872Y-30502D01*
X-1683379Y-84158D01*
X-1672346Y-127082D01*
X-1670899Y-146384D01*
X-1663084Y-250673D01*
X-1607148Y-495741D01*
X-1607147Y-495744D01*
X-1515316Y-729729D01*
X-1515314Y-729733D01*
X-1389628Y-947427D01*
X-1389626Y-947430D01*
X-1389625Y-947431D01*
X-1232897Y-1143961D01*
X-1048628Y-1314938D01*
X-1048622Y-1314942D01*
X-840944Y-1456535D01*
X-840940Y-1456537D01*
X-840934Y-1456541D01*
X-614456Y-1565608D01*
X-614453Y-1565608D01*
X-614448Y-1565611D01*
X-374262Y-1639698D01*
X-374260Y-1639698D01*
X-374251Y-1639701D01*
X-125686Y-1677166D01*
X-125681Y-1677166D01*
X-121024Y-1677868D01*
X-121236Y-1679269D01*
X-60664Y-1702085D01*
X-18302Y-1759058D01*
X-10500Y-1802708D01*
X-10500Y-2502088D01*
X-8037Y-2508035D01*
X-8036Y-2508036D01*
X0Y-2511365D01*
X8036Y-2508036D01*
X10500Y-2502088D01*
X10500Y-1802708D01*
X30502Y-1734587D01*
X84158Y-1688094D01*
X121133Y-1678593D01*
X121024Y-1677868D01*
X125681Y-1677166D01*
X125686Y-1677166D01*
X374251Y-1639701D01*
X374261Y-1639698D01*
X614447Y-1565611D01*
X614449Y-1565610D01*
X614456Y-1565608D01*
X840935Y-1456541D01*
X1048628Y-1314938D01*
X1232897Y-1143961D01*
X1389625Y-947431D01*
X1515312Y-729736D01*
X1607148Y-495740D01*
X1663084Y-250670D01*
X1672345Y-127082D01*
X1697382Y-60648D01*
X1754362Y-18295D01*
X1797993Y-10500D01*
X2502088Y-10500D01*
X2508036Y-8036D01*
X2511365Y0D01*
X2508036Y8036D01*
X2508035Y8037D01*
X2502088Y10500D01*
X1797993Y10500D01*
X1729872Y30502D01*
X1683379Y84158D01*
X1672345Y127084D01*
X1663084Y250670D01*
X1607148Y495740D01*
X1597255Y520946D01*
X1515315Y729730D01*
X1515313Y729734D01*
X1389627Y947428D01*
X1375602Y965015D01*
X1232897Y1143961D01*
X1048628Y1314938D01*
X1021510Y1333427D01*
X840944Y1456536D01*
X840936Y1456540D01*
X840937Y1456540D01*
X840935Y1456541D01*
X719033Y1515247D01*
X614459Y1565607D01*
X614447Y1565612D01*
X374261Y1639699D01*
X374253Y1639701D01*
X374251Y1639701D01*
X125686Y1677166D01*
X125682Y1677166D01*
X121024Y1677868D01*
X121234Y1679262D01*
X60634Y1702109D01*
X18289Y1759095D01*
X10500Y1802709D01*
X10500Y2502089D01*
X8036Y2508036D01*
X0Y2511365D01*
X-8037Y2508036D01*
X-10501Y2502089D01*
X-10500Y1802709D01*
X-30502Y1734588D01*
X-84158Y1688095D01*
X-121133Y1678589D01*
X-121024Y1677868D01*
X-125682Y1677166D01*
X-125686Y1677166D01*
X-374251Y1639701D01*
X-374253Y1639701D01*
X-374262Y1639699D01*
X-614448Y1565612D01*
X-614460Y1565607D01*
X-840936Y1456540D01*
X-840944Y1456536D01*
X-1048622Y1314943D01*
X-1048627Y1314939D01*
X-1232896Y1143962D01*
X-1389628Y947428D01*
X-1515314Y729734D01*
X-1515316Y729730D01*
X-1607147Y495745D01*
X-1607148Y495742D01*
X-1663084Y250674D01*
X-1663084Y250670D01*
X-1671639Y136500D01*
X-1672345Y127084D01*
X-1697382Y60648D01*
X-1754362Y18295D01*
X-1797993Y10500D01*
X-2502088Y10500D01*
X-2508036Y8037D01*
X-2508037Y8036D01*
X-2508036Y8036D01*
X-2511365Y0D01*
X-4815500Y0D01*
X-4815500Y7620000D01*
X-4402746Y7620000D01*
X-4383787Y7354908D01*
X-4327293Y7095207D01*
X-4234413Y6846186D01*
X-4107042Y6612924D01*
X-4021098Y6498116D01*
X-3404657Y7114555D01*
X-3342344Y7148580D01*
X-3271529Y7143516D01*
X-3219529Y7107031D01*
X-3127997Y6999271D01*
X-3127995Y6999270D01*
X-3127991Y6999265D01*
X-3057417Y6945616D01*
X-3015293Y6888471D01*
X-3010752Y6817619D01*
X-3044576Y6756216D01*
X-3661888Y6138905D01*
X-3661887Y6138904D01*
X-3547081Y6052961D01*
X-3313815Y5925588D01*
X-3064794Y5832708D01*
X-2805093Y5776214D01*
X-2540000Y5757255D01*
X-2274908Y5776214D01*
X-2015207Y5832708D01*
X-1766186Y5925588D01*
X-1532924Y6052958D01*
X-1418115Y6138905D01*
X-2031848Y6752637D01*
X-2065873Y6814950D01*
X-2060809Y6885765D01*
X-2025832Y6932842D01*
X-2027529Y6934633D01*
X-2015931Y6945619D01*
X-1888342Y7066477D01*
X-1868420Y7095861D01*
X-1813637Y7141018D01*
X-1743135Y7149389D01*
X-1679300Y7118316D01*
X-1675035Y7114246D01*
X-1058905Y6498116D01*
X-972958Y6612924D01*
X-845588Y6846186D01*
X-752708Y7095207D01*
X-696214Y7354908D01*
X-677255Y7620000D01*
X-696214Y7885093D01*
X-752708Y8144794D01*
X-836894Y8370503D01*
X-841959Y8441319D01*
X-807934Y8503631D01*
X-745622Y8537656D01*
X-674806Y8532592D01*
X-664168Y8528058D01*
X-644254Y8518468D01*
X-644251Y8518468D01*
X-644246Y8518465D01*
X-392411Y8440785D01*
X-392409Y8440785D01*
X-392400Y8440782D01*
X-131781Y8401500D01*
X-131777Y8401500D01*
X131777Y8401500D01*
X131781Y8401500D01*
X392400Y8440782D01*
X394141Y8441319D01*
X644245Y8518465D01*
X644247Y8518466D01*
X644254Y8518468D01*
X664166Y8528058D01*
X734218Y8539594D01*
X799388Y8511426D01*
X838983Y8452496D01*
X840433Y8381514D01*
X836893Y8370504D01*
X752708Y8144797D01*
X696213Y7885093D01*
X677254Y7620000D01*
X696213Y7354908D01*
X752707Y7095207D01*
X845587Y6846186D01*
X972958Y6612924D01*
X1058902Y6498116D01*
X1675343Y7114555D01*
X1737656Y7148580D01*
X1808471Y7143516D01*
X1860471Y7107031D01*
X1952003Y6999271D01*
X1952005Y6999270D01*
X1952009Y6999265D01*
X2022583Y6945616D01*
X2064707Y6888471D01*
X2069248Y6817619D01*
X2035424Y6756216D01*
X1418112Y6138905D01*
X1418113Y6138904D01*
X1532919Y6052961D01*
X1766185Y5925588D01*
X2015206Y5832708D01*
X2274907Y5776214D01*
X2539999Y5757255D01*
X2805092Y5776214D01*
X3064793Y5832708D01*
X3313814Y5925588D01*
X3547076Y6052958D01*
X3661885Y6138905D01*
X3048152Y6752637D01*
X3014127Y6814950D01*
X3019191Y6885765D01*
X3054168Y6932842D01*
X3052471Y6934633D01*
X3064069Y6945619D01*
X3191658Y7066477D01*
X3211580Y7095861D01*
X3266363Y7141018D01*
X3336865Y7149389D01*
X3400700Y7118316D01*
X3404965Y7114246D01*
X4021095Y6498116D01*
X4107042Y6612924D01*
X4234412Y6846186D01*
X4327292Y7095207D01*
X4383786Y7354908D01*
X4402745Y7620001D01*
X4383786Y7885093D01*
X4341528Y8079351D01*
X17779500Y8079351D01*
X17786009Y8018804D01*
X17786011Y8018796D01*
X17837110Y7881798D01*
X17837112Y7881793D01*
X17924737Y7764741D01*
X17924738Y7764741D01*
X17924739Y7764739D01*
X17933306Y7758326D01*
X17983760Y7720556D01*
X18026306Y7663720D01*
X18031370Y7592904D01*
X17997345Y7530592D01*
X17983760Y7518821D01*
X17925096Y7474905D01*
X17837555Y7357966D01*
X17837555Y7357965D01*
X17786505Y7221094D01*
X17780000Y7160598D01*
X17780000Y6604000D01*
X18494044Y6604000D01*
X18562165Y6583998D01*
X18608658Y6530342D01*
X18618762Y6460068D01*
X18616885Y6449962D01*
X18601736Y6383594D01*
X18612455Y6240555D01*
X18611146Y6240457D01*
X18607391Y6179172D01*
X18565425Y6121906D01*
X18499161Y6096419D01*
X18488893Y6096000D01*
X17780000Y6096000D01*
X17780000Y5539403D01*
X17786505Y5478907D01*
X17837555Y5342036D01*
X17837555Y5342035D01*
X17925095Y5225096D01*
X18042034Y5137556D01*
X18178906Y5086506D01*
X18239402Y5080001D01*
X18239415Y5080000D01*
X18796000Y5080000D01*
X18796000Y5792459D01*
X18816002Y5860580D01*
X18869658Y5907073D01*
X18939932Y5917177D01*
X18959136Y5912862D01*
X18983002Y5905500D01*
X18983003Y5905500D01*
X19083312Y5905500D01*
X19159222Y5916942D01*
X19229560Y5907317D01*
X19283532Y5861191D01*
X19303997Y5793208D01*
X19304000Y5792350D01*
X19304000Y5080000D01*
X19860585Y5080000D01*
X19860597Y5080001D01*
X19921093Y5086506D01*
X20057964Y5137556D01*
X20057965Y5137556D01*
X20174903Y5225096D01*
X20219130Y5284176D01*
X20275966Y5326723D01*
X20346781Y5331789D01*
X20409094Y5297764D01*
X20420866Y5284178D01*
X20465095Y5225097D01*
X20582034Y5137556D01*
X20718906Y5086506D01*
X20779402Y5080001D01*
X20779415Y5080000D01*
X21336000Y5080000D01*
X21336000Y5792459D01*
X21356002Y5860580D01*
X21409658Y5907073D01*
X21479932Y5917177D01*
X21499136Y5912862D01*
X21523002Y5905500D01*
X21523003Y5905500D01*
X21623312Y5905500D01*
X21699222Y5916942D01*
X21769560Y5907317D01*
X21823532Y5861191D01*
X21843997Y5793208D01*
X21844000Y5792350D01*
X21844000Y5080000D01*
X22400585Y5080000D01*
X22400597Y5080001D01*
X22461093Y5086506D01*
X22597964Y5137556D01*
X22597965Y5137556D01*
X22714904Y5225096D01*
X22802444Y5342035D01*
X22802444Y5342036D01*
X22853494Y5478907D01*
X22859999Y5539403D01*
X22860000Y5539415D01*
X22860000Y6096000D01*
X22145956Y6096000D01*
X22077835Y6116002D01*
X22031342Y6169658D01*
X22021238Y6239932D01*
X22023115Y6250038D01*
X22038264Y6316407D01*
X22028251Y6450028D01*
X22028250Y6450030D01*
X22027545Y6459445D01*
X22028853Y6459544D01*
X22032609Y6520828D01*
X22074575Y6578094D01*
X22140839Y6603581D01*
X22151107Y6604000D01*
X22860000Y6604000D01*
X22860000Y7160586D01*
X22859999Y7160598D01*
X22853494Y7221094D01*
X22802444Y7357965D01*
X22802444Y7357966D01*
X22714904Y7474905D01*
X22656240Y7518820D01*
X22613693Y7575656D01*
X22608629Y7646472D01*
X22642654Y7708784D01*
X22656240Y7720556D01*
X22715261Y7764739D01*
X22802887Y7881793D01*
X22802887Y7881794D01*
X22802889Y7881796D01*
X22853989Y8018799D01*
X22854172Y8020495D01*
X22860499Y8079351D01*
X22860500Y8079368D01*
X22860500Y9700633D01*
X22860499Y9700650D01*
X22853990Y9761197D01*
X22853988Y9761205D01*
X22824924Y9839125D01*
X22802889Y9898204D01*
X22802888Y9898206D01*
X22802887Y9898208D01*
X22715261Y10015262D01*
X22656657Y10059132D01*
X22614110Y10115968D01*
X22609046Y10186784D01*
X22643071Y10249096D01*
X22656657Y10260868D01*
X22715261Y10304739D01*
X22802887Y10421793D01*
X22802887Y10421794D01*
X22802889Y10421796D01*
X22853989Y10558799D01*
X22860500Y10619362D01*
X22860500Y12240638D01*
X22860000Y12245289D01*
X22853990Y12301197D01*
X22853988Y12301205D01*
X22802889Y12438203D01*
X22802887Y12438208D01*
X22715261Y12555262D01*
X22598207Y12642888D01*
X22598202Y12642890D01*
X22461204Y12693989D01*
X22461196Y12693991D01*
X22400649Y12700500D01*
X22400638Y12700500D01*
X20779362Y12700500D01*
X20779350Y12700500D01*
X20718803Y12693991D01*
X20718795Y12693989D01*
X20581797Y12642890D01*
X20581792Y12642888D01*
X20464738Y12555261D01*
X20420867Y12496657D01*
X20364031Y12454111D01*
X20293216Y12449047D01*
X20230904Y12483072D01*
X20219133Y12496657D01*
X20175261Y12555261D01*
X20058207Y12642888D01*
X20058202Y12642890D01*
X19921204Y12693989D01*
X19921196Y12693991D01*
X19860649Y12700500D01*
X19860638Y12700500D01*
X18239362Y12700500D01*
X18239350Y12700500D01*
X18178803Y12693991D01*
X18178795Y12693989D01*
X18041797Y12642890D01*
X18041792Y12642888D01*
X17924738Y12555262D01*
X17837112Y12438208D01*
X17837110Y12438203D01*
X17786011Y12301205D01*
X17786009Y12301197D01*
X17779500Y12240650D01*
X17779500Y10619351D01*
X17786009Y10558804D01*
X17786011Y10558796D01*
X17837110Y10421798D01*
X17837112Y10421793D01*
X17924739Y10304739D01*
X17983343Y10260867D01*
X18025889Y10204031D01*
X18030953Y10133216D01*
X17996928Y10070904D01*
X17983343Y10059133D01*
X17924739Y10015262D01*
X17837112Y9898208D01*
X17837110Y9898203D01*
X17786011Y9761205D01*
X17786009Y9761197D01*
X17779500Y9700650D01*
X17779500Y8079351D01*
X4341528Y8079351D01*
X4327292Y8144794D01*
X4234412Y8393815D01*
X4107039Y8627081D01*
X4021096Y8741887D01*
X4021095Y8741887D01*
X3404654Y8125446D01*
X3342342Y8091421D01*
X3271526Y8096486D01*
X3219526Y8132972D01*
X3127995Y8240731D01*
X3127993Y8240733D01*
X3127991Y8240735D01*
X3057415Y8294386D01*
X3015291Y8351532D01*
X3010750Y8422383D01*
X3044574Y8483787D01*
X3661885Y9101097D01*
X3547076Y9187042D01*
X3313814Y9314413D01*
X3064793Y9407293D01*
X2805092Y9463787D01*
X2539999Y9482746D01*
X2274907Y9463787D01*
X2015203Y9407292D01*
X1785811Y9321733D01*
X1714995Y9316669D01*
X1652683Y9350694D01*
X1618658Y9413006D01*
X1623723Y9483822D01*
X1624453Y9485729D01*
X1685087Y9640220D01*
X1743735Y9897174D01*
X1763431Y10160000D01*
X1743735Y10422826D01*
X1685087Y10679780D01*
X1624488Y10834181D01*
X1618221Y10904898D01*
X1651182Y10967780D01*
X1712906Y11002859D01*
X1783798Y10998999D01*
X1785812Y10998268D01*
X2015206Y10912708D01*
X2274907Y10856214D01*
X2539999Y10837255D01*
X2805092Y10856214D01*
X3064793Y10912708D01*
X3313814Y11005588D01*
X3547076Y11132958D01*
X3661885Y11218905D01*
X3048152Y11832637D01*
X3014127Y11894950D01*
X3019191Y11965765D01*
X3054168Y12012842D01*
X3052471Y12014633D01*
X3064069Y12025619D01*
X3191658Y12146477D01*
X3211580Y12175861D01*
X3266363Y12221018D01*
X3336865Y12229389D01*
X3400700Y12198316D01*
X3404965Y12194246D01*
X4021095Y11578116D01*
X4107042Y11692924D01*
X4234412Y11926186D01*
X4327292Y12175207D01*
X4383786Y12434908D01*
X4402745Y12700001D01*
X4383786Y12965093D01*
X4327292Y13224794D01*
X4234412Y13473815D01*
X4107039Y13707081D01*
X4021096Y13821887D01*
X4021095Y13821887D01*
X3404654Y13205446D01*
X3342342Y13171421D01*
X3271526Y13176486D01*
X3219526Y13212972D01*
X3127995Y13320731D01*
X3127993Y13320733D01*
X3127991Y13320735D01*
X3057415Y13374386D01*
X3015291Y13431532D01*
X3010750Y13502383D01*
X3044574Y13563787D01*
X3661885Y14181097D01*
X3547076Y14267042D01*
X3313814Y14394413D01*
X3220142Y14429351D01*
X8889500Y14429351D01*
X8896009Y14368804D01*
X8896011Y14368796D01*
X8947110Y14231798D01*
X8947112Y14231793D01*
X9034737Y14114741D01*
X9034738Y14114741D01*
X9034739Y14114739D01*
X9070886Y14087680D01*
X9093760Y14070556D01*
X9136306Y14013720D01*
X9141370Y13942904D01*
X9107345Y13880592D01*
X9093760Y13868821D01*
X9035096Y13824905D01*
X8947555Y13707966D01*
X8947555Y13707965D01*
X8896505Y13571094D01*
X8890000Y13510598D01*
X8890000Y12954000D01*
X9604044Y12954000D01*
X9672165Y12933998D01*
X9718658Y12880342D01*
X9728762Y12810068D01*
X9726885Y12799962D01*
X9711736Y12733594D01*
X9722455Y12590555D01*
X9721146Y12590457D01*
X9717391Y12529172D01*
X9675425Y12471906D01*
X9609161Y12446419D01*
X9598893Y12446000D01*
X8890000Y12446000D01*
X8890000Y11889403D01*
X8896505Y11828907D01*
X8947555Y11692036D01*
X8947555Y11692035D01*
X9035095Y11575096D01*
X9152034Y11487556D01*
X9288906Y11436506D01*
X9349402Y11430001D01*
X9349415Y11430000D01*
X9906000Y11430000D01*
X9906000Y12142459D01*
X9926002Y12210580D01*
X9979658Y12257073D01*
X10049932Y12267177D01*
X10069136Y12262862D01*
X10093002Y12255500D01*
X10093003Y12255500D01*
X10193312Y12255500D01*
X10269222Y12266942D01*
X10339560Y12257317D01*
X10393532Y12211191D01*
X10413997Y12143208D01*
X10414000Y12142350D01*
X10414000Y11430000D01*
X10970585Y11430000D01*
X10970597Y11430001D01*
X11031093Y11436506D01*
X11167964Y11487556D01*
X11167965Y11487556D01*
X11284904Y11575096D01*
X11329132Y11634177D01*
X11385968Y11676724D01*
X11456783Y11681788D01*
X11519096Y11647763D01*
X11530868Y11634177D01*
X11575095Y11575096D01*
X11692034Y11487556D01*
X11828906Y11436506D01*
X11889402Y11430001D01*
X11889415Y11430000D01*
X12446000Y11430000D01*
X12446000Y12142459D01*
X12466002Y12210580D01*
X12519658Y12257073D01*
X12589932Y12267177D01*
X12609136Y12262862D01*
X12633002Y12255500D01*
X12633003Y12255500D01*
X12733312Y12255500D01*
X12809222Y12266942D01*
X12879560Y12257317D01*
X12933532Y12211191D01*
X12953997Y12143208D01*
X12954000Y12142350D01*
X12954000Y11430000D01*
X13510585Y11430000D01*
X13510597Y11430001D01*
X13571093Y11436506D01*
X13707964Y11487556D01*
X13707965Y11487556D01*
X13824904Y11575096D01*
X13912444Y11692035D01*
X13912444Y11692036D01*
X13963494Y11828907D01*
X13969999Y11889403D01*
X13970000Y11889415D01*
X13970000Y12446000D01*
X13255956Y12446000D01*
X13187835Y12466002D01*
X13141342Y12519658D01*
X13131238Y12589932D01*
X13133115Y12600038D01*
X13148264Y12666407D01*
X13138251Y12800028D01*
X13138250Y12800030D01*
X13137545Y12809445D01*
X13138853Y12809544D01*
X13142609Y12870828D01*
X13184575Y12928094D01*
X13250839Y12953581D01*
X13261107Y12954000D01*
X13970000Y12954000D01*
X13970000Y13510586D01*
X13969999Y13510598D01*
X13963494Y13571094D01*
X13912444Y13707965D01*
X13912444Y13707966D01*
X13824904Y13824905D01*
X13766240Y13868820D01*
X13723693Y13925656D01*
X13718629Y13996472D01*
X13722518Y14003594D01*
X18601736Y14003594D01*
X18611749Y13869971D01*
X18657956Y13752238D01*
X18660703Y13745240D01*
X18744248Y13640478D01*
X18805689Y13598588D01*
X18854959Y13564997D01*
X18854959Y13564996D01*
X18918981Y13545248D01*
X18983002Y13525500D01*
X18983003Y13525500D01*
X19083307Y13525500D01*
X19083312Y13525500D01*
X19182499Y13540450D01*
X19303224Y13598588D01*
X19401450Y13689728D01*
X19468447Y13805772D01*
X19498264Y13936407D01*
X19493229Y14003594D01*
X21141736Y14003594D01*
X21151749Y13869971D01*
X21197956Y13752238D01*
X21200703Y13745240D01*
X21284248Y13640478D01*
X21345689Y13598588D01*
X21394959Y13564997D01*
X21394959Y13564996D01*
X21458981Y13545248D01*
X21523002Y13525500D01*
X21523003Y13525500D01*
X21623307Y13525500D01*
X21623312Y13525500D01*
X21722499Y13540450D01*
X21843224Y13598588D01*
X21941450Y13689728D01*
X22008447Y13805772D01*
X22038264Y13936407D01*
X22028251Y14070028D01*
X21979297Y14194760D01*
X21895752Y14299522D01*
X21895748Y14299525D01*
X21895747Y14299526D01*
X21785040Y14375004D01*
X21785040Y14375005D01*
X21687182Y14405190D01*
X21656998Y14414500D01*
X21556688Y14414500D01*
X21457501Y14399550D01*
X21457499Y14399550D01*
X21457498Y14399549D01*
X21336778Y14341414D01*
X21336773Y14341410D01*
X21238551Y14250275D01*
X21238550Y14250273D01*
X21171554Y14134233D01*
X21171552Y14134227D01*
X21141736Y14003594D01*
X19493229Y14003594D01*
X19488251Y14070028D01*
X19439297Y14194760D01*
X19355752Y14299522D01*
X19355748Y14299525D01*
X19355747Y14299526D01*
X19245040Y14375004D01*
X19245040Y14375005D01*
X19147182Y14405190D01*
X19116998Y14414500D01*
X19016688Y14414500D01*
X18917501Y14399550D01*
X18917499Y14399550D01*
X18917498Y14399549D01*
X18796778Y14341414D01*
X18796773Y14341410D01*
X18698551Y14250275D01*
X18698550Y14250273D01*
X18631554Y14134233D01*
X18631552Y14134227D01*
X18601736Y14003594D01*
X13722518Y14003594D01*
X13752654Y14058784D01*
X13766240Y14070556D01*
X13825261Y14114739D01*
X13912887Y14231793D01*
X13912887Y14231794D01*
X13912889Y14231796D01*
X13963989Y14368799D01*
X13964657Y14375004D01*
X13970499Y14429351D01*
X13970500Y14429368D01*
X13970500Y16050633D01*
X13970499Y16050650D01*
X13963990Y16111197D01*
X13963988Y16111205D01*
X13912889Y16248203D01*
X13912887Y16248208D01*
X13839849Y16345774D01*
X13825261Y16365261D01*
X13825260Y16365262D01*
X13766239Y16409446D01*
X13723693Y16466282D01*
X13718629Y16537098D01*
X13722176Y16543594D01*
X18601736Y16543594D01*
X18611749Y16409971D01*
X18636947Y16345768D01*
X18660703Y16285240D01*
X18744248Y16180478D01*
X18805689Y16138588D01*
X18854959Y16104997D01*
X18854959Y16104996D01*
X18917879Y16085588D01*
X18983002Y16065500D01*
X18983003Y16065500D01*
X19083307Y16065500D01*
X19083312Y16065500D01*
X19182499Y16080450D01*
X19303224Y16138588D01*
X19401450Y16229728D01*
X19468447Y16345772D01*
X19498264Y16476407D01*
X19493229Y16543594D01*
X21141736Y16543594D01*
X21151749Y16409971D01*
X21176947Y16345768D01*
X21200703Y16285240D01*
X21284248Y16180478D01*
X21345689Y16138588D01*
X21394959Y16104997D01*
X21394959Y16104996D01*
X21457879Y16085588D01*
X21523002Y16065500D01*
X21523003Y16065500D01*
X21623307Y16065500D01*
X21623312Y16065500D01*
X21722499Y16080450D01*
X21843224Y16138588D01*
X21941450Y16229728D01*
X22008447Y16345772D01*
X22038264Y16476407D01*
X22028251Y16610028D01*
X21979297Y16734760D01*
X21895752Y16839522D01*
X21895748Y16839525D01*
X21895747Y16839526D01*
X21785040Y16915004D01*
X21785040Y16915005D01*
X21687182Y16945190D01*
X21656998Y16954500D01*
X21556688Y16954500D01*
X21457501Y16939550D01*
X21457499Y16939550D01*
X21457498Y16939549D01*
X21336778Y16881414D01*
X21336773Y16881410D01*
X21238551Y16790275D01*
X21238550Y16790273D01*
X21171554Y16674233D01*
X21171552Y16674227D01*
X21141736Y16543594D01*
X19493229Y16543594D01*
X19488251Y16610028D01*
X19439297Y16734760D01*
X19355752Y16839522D01*
X19355748Y16839525D01*
X19355747Y16839526D01*
X19245040Y16915004D01*
X19245040Y16915005D01*
X19147182Y16945190D01*
X19116998Y16954500D01*
X19016688Y16954500D01*
X18917501Y16939550D01*
X18917499Y16939550D01*
X18917498Y16939549D01*
X18796778Y16881414D01*
X18796773Y16881410D01*
X18698551Y16790275D01*
X18698550Y16790273D01*
X18631554Y16674233D01*
X18631552Y16674227D01*
X18601736Y16543594D01*
X13722176Y16543594D01*
X13752654Y16599409D01*
X13766241Y16611182D01*
X13824904Y16655097D01*
X13912444Y16772035D01*
X13912444Y16772036D01*
X13963494Y16908907D01*
X13969999Y16969403D01*
X13970000Y16969415D01*
X13970000Y17526000D01*
X13255956Y17526000D01*
X13187835Y17546002D01*
X13141342Y17599658D01*
X13131238Y17669932D01*
X13133115Y17680038D01*
X13148264Y17746407D01*
X13138251Y17880028D01*
X13138250Y17880030D01*
X13137545Y17889445D01*
X13138853Y17889544D01*
X13142609Y17950828D01*
X13184575Y18008094D01*
X13250839Y18033581D01*
X13261107Y18034000D01*
X13970000Y18034000D01*
X13970000Y18239351D01*
X17779500Y18239351D01*
X17786009Y18178804D01*
X17786011Y18178796D01*
X17837110Y18041798D01*
X17837112Y18041793D01*
X17924738Y17924739D01*
X18041792Y17837113D01*
X18041794Y17837112D01*
X18041796Y17837111D01*
X18070811Y17826289D01*
X18178795Y17786012D01*
X18178803Y17786010D01*
X18239350Y17779501D01*
X18239355Y17779501D01*
X18239362Y17779500D01*
X18239368Y17779500D01*
X19860632Y17779500D01*
X19860638Y17779500D01*
X19860645Y17779501D01*
X19860649Y17779501D01*
X19921196Y17786010D01*
X19921199Y17786011D01*
X19921201Y17786011D01*
X20058204Y17837111D01*
X20175261Y17924739D01*
X20219130Y17983343D01*
X20275968Y18025890D01*
X20346784Y18030954D01*
X20409096Y17996929D01*
X20420868Y17983343D01*
X20464738Y17924739D01*
X20581792Y17837113D01*
X20581794Y17837112D01*
X20581796Y17837111D01*
X20610811Y17826289D01*
X20718795Y17786012D01*
X20718803Y17786010D01*
X20779350Y17779501D01*
X20779355Y17779501D01*
X20779362Y17779500D01*
X20779368Y17779500D01*
X22400632Y17779500D01*
X22400638Y17779500D01*
X22400645Y17779501D01*
X22400649Y17779501D01*
X22461196Y17786010D01*
X22461199Y17786011D01*
X22461201Y17786011D01*
X22598204Y17837111D01*
X22715261Y17924739D01*
X22794773Y18030954D01*
X22802887Y18041793D01*
X22802887Y18041794D01*
X22802889Y18041796D01*
X22853989Y18178799D01*
X22854172Y18180495D01*
X22860499Y18239351D01*
X22860500Y18239368D01*
X22860500Y19860633D01*
X22860499Y19860650D01*
X22853990Y19921197D01*
X22853988Y19921205D01*
X22824924Y19999125D01*
X22802889Y20058204D01*
X22802888Y20058206D01*
X22802887Y20058208D01*
X22715260Y20175263D01*
X22656656Y20219134D01*
X22614110Y20275970D01*
X22609046Y20346786D01*
X22643072Y20409098D01*
X22656656Y20420868D01*
X22715261Y20464739D01*
X22802889Y20581796D01*
X22853989Y20718799D01*
X22860500Y20779362D01*
X22860500Y22400638D01*
X22860000Y22405289D01*
X22853990Y22461197D01*
X22853988Y22461205D01*
X22802889Y22598203D01*
X22802887Y22598208D01*
X22732943Y22691640D01*
X22715261Y22715261D01*
X22715260Y22715262D01*
X22656239Y22759446D01*
X22613693Y22816282D01*
X22608629Y22887098D01*
X22642654Y22949409D01*
X22656241Y22961182D01*
X22714904Y23005097D01*
X22802444Y23122035D01*
X22802444Y23122036D01*
X22853494Y23258907D01*
X22859999Y23319403D01*
X22860000Y23319415D01*
X22860000Y23876000D01*
X22145956Y23876000D01*
X22077835Y23896002D01*
X22031342Y23949658D01*
X22021238Y24019932D01*
X22023115Y24030038D01*
X22038264Y24096407D01*
X22028251Y24230028D01*
X22028250Y24230030D01*
X22027545Y24239445D01*
X22028853Y24239544D01*
X22032609Y24300828D01*
X22074575Y24358094D01*
X22140839Y24383581D01*
X22151107Y24384000D01*
X22860000Y24384000D01*
X22860000Y24940586D01*
X22859999Y24940598D01*
X22853494Y25001094D01*
X22802444Y25137965D01*
X22802444Y25137966D01*
X22714904Y25254905D01*
X22597965Y25342445D01*
X22461093Y25393495D01*
X22400597Y25400000D01*
X21844000Y25400000D01*
X21843999Y24687542D01*
X21823997Y24619421D01*
X21770341Y24572928D01*
X21700067Y24562825D01*
X21680862Y24567139D01*
X21662094Y24572928D01*
X21656998Y24574500D01*
X21556688Y24574500D01*
X21480776Y24563059D01*
X21410438Y24572684D01*
X21356468Y24618811D01*
X21336003Y24686794D01*
X21336000Y24687651D01*
X21336000Y25400000D01*
X20779402Y25400000D01*
X20718906Y25393495D01*
X20582035Y25342445D01*
X20582034Y25342445D01*
X20465097Y25254906D01*
X20420868Y25195823D01*
X20364031Y25153277D01*
X20293216Y25148213D01*
X20230904Y25182238D01*
X20219132Y25195823D01*
X20174902Y25254906D01*
X20057965Y25342445D01*
X19921093Y25393495D01*
X19860597Y25400000D01*
X19304000Y25400000D01*
X19304000Y24687542D01*
X19283998Y24619421D01*
X19230342Y24572928D01*
X19160068Y24562824D01*
X19140864Y24567139D01*
X19116998Y24574500D01*
X19016688Y24574500D01*
X18940776Y24563059D01*
X18870437Y24572684D01*
X18816466Y24618811D01*
X18796002Y24686795D01*
X18795999Y24687651D01*
X18796000Y25400000D01*
X18239402Y25400000D01*
X18178906Y25393495D01*
X18042035Y25342445D01*
X18042034Y25342445D01*
X17925095Y25254905D01*
X17837555Y25137966D01*
X17837555Y25137965D01*
X17786505Y25001094D01*
X17780000Y24940598D01*
X17780000Y24384000D01*
X18494044Y24384000D01*
X18562165Y24363998D01*
X18608658Y24310342D01*
X18618762Y24240068D01*
X18616885Y24229962D01*
X18601736Y24163594D01*
X18612455Y24020555D01*
X18611146Y24020457D01*
X18607391Y23959172D01*
X18565425Y23901906D01*
X18499161Y23876419D01*
X18488893Y23876000D01*
X17780000Y23876000D01*
X17780000Y23319403D01*
X17786505Y23258907D01*
X17837555Y23122036D01*
X17837555Y23122035D01*
X17925095Y23005096D01*
X17983759Y22961181D01*
X18026306Y22904345D01*
X18031370Y22833530D01*
X17997345Y22771217D01*
X17983761Y22759446D01*
X17924738Y22715261D01*
X17837112Y22598208D01*
X17837110Y22598203D01*
X17786011Y22461205D01*
X17786009Y22461197D01*
X17779500Y22400650D01*
X17779500Y20779351D01*
X17786009Y20718804D01*
X17786011Y20718796D01*
X17837110Y20581798D01*
X17837112Y20581793D01*
X17924739Y20464739D01*
X17983343Y20420867D01*
X18025889Y20364031D01*
X18030953Y20293216D01*
X17996928Y20230904D01*
X17983343Y20219133D01*
X17924739Y20175262D01*
X17837112Y20058208D01*
X17837110Y20058203D01*
X17786011Y19921205D01*
X17786009Y19921197D01*
X17779500Y19860650D01*
X17779500Y18239351D01*
X13970000Y18239351D01*
X13970000Y18590586D01*
X13969999Y18590598D01*
X13963494Y18651094D01*
X13912444Y18787965D01*
X13912444Y18787966D01*
X13824904Y18904905D01*
X13707965Y18992445D01*
X13571093Y19043495D01*
X13510597Y19050000D01*
X12954000Y19050000D01*
X12954000Y18337542D01*
X12933998Y18269421D01*
X12880342Y18222928D01*
X12810068Y18212824D01*
X12790864Y18217139D01*
X12766998Y18224500D01*
X12666688Y18224500D01*
X12590776Y18213059D01*
X12520438Y18222684D01*
X12466468Y18268811D01*
X12446003Y18336794D01*
X12446000Y18337651D01*
X12446000Y19050000D01*
X11889402Y19050000D01*
X11828906Y19043495D01*
X11692035Y18992445D01*
X11692034Y18992445D01*
X11575097Y18904906D01*
X11530868Y18845823D01*
X11474031Y18803277D01*
X11403216Y18798213D01*
X11340904Y18832238D01*
X11329132Y18845823D01*
X11284902Y18904906D01*
X11167965Y18992445D01*
X11031093Y19043495D01*
X10970597Y19050000D01*
X10414000Y19050000D01*
X10414000Y18337542D01*
X10393998Y18269421D01*
X10340342Y18222928D01*
X10270068Y18212824D01*
X10250864Y18217139D01*
X10226998Y18224500D01*
X10126688Y18224500D01*
X10050776Y18213059D01*
X9980437Y18222684D01*
X9926466Y18268811D01*
X9906002Y18336795D01*
X9905999Y18337651D01*
X9906000Y19050000D01*
X9349402Y19050000D01*
X9288906Y19043495D01*
X9152035Y18992445D01*
X9152034Y18992445D01*
X9035095Y18904905D01*
X8947555Y18787966D01*
X8947555Y18787965D01*
X8896505Y18651094D01*
X8890000Y18590598D01*
X8890000Y18034000D01*
X9604044Y18034000D01*
X9672165Y18013998D01*
X9718658Y17960342D01*
X9728762Y17890068D01*
X9726885Y17879962D01*
X9711736Y17813594D01*
X9722455Y17670555D01*
X9721146Y17670457D01*
X9717391Y17609172D01*
X9675425Y17551906D01*
X9609161Y17526419D01*
X9598893Y17526000D01*
X8890000Y17526000D01*
X8890000Y16969403D01*
X8896505Y16908907D01*
X8947555Y16772036D01*
X8947555Y16772035D01*
X9035095Y16655096D01*
X9093759Y16611181D01*
X9136306Y16554345D01*
X9141370Y16483530D01*
X9107345Y16421217D01*
X9093761Y16409446D01*
X9034738Y16365261D01*
X8947112Y16248208D01*
X8947110Y16248203D01*
X8896011Y16111205D01*
X8896009Y16111197D01*
X8889500Y16050650D01*
X8889500Y14429351D01*
X3220142Y14429351D01*
X3064793Y14487293D01*
X2805092Y14543787D01*
X2539999Y14562746D01*
X2274907Y14543787D01*
X2015206Y14487293D01*
X1766185Y14394413D01*
X1532924Y14267043D01*
X1418113Y14181098D01*
X2031847Y13567364D01*
X2065872Y13505051D01*
X2060808Y13434236D01*
X2025843Y13387145D01*
X2027528Y13385366D01*
X1888339Y13253521D01*
X1868417Y13224138D01*
X1813632Y13178981D01*
X1743130Y13170612D01*
X1679296Y13201688D01*
X1675034Y13205755D01*
X1058902Y13821887D01*
X972957Y13707076D01*
X845587Y13473815D01*
X752707Y13224794D01*
X696213Y12965093D01*
X677254Y12700001D01*
X696213Y12434908D01*
X752707Y12175207D01*
X836893Y11949498D01*
X841958Y11878682D01*
X807933Y11816370D01*
X745620Y11782345D01*
X674805Y11787409D01*
X664169Y11791942D01*
X644258Y11801531D01*
X644245Y11801536D01*
X392410Y11879216D01*
X392402Y11879218D01*
X392400Y11879218D01*
X131781Y11918500D01*
X-131781Y11918500D01*
X-392400Y11879218D01*
X-392402Y11879218D01*
X-392411Y11879216D01*
X-644246Y11801536D01*
X-644260Y11801530D01*
X-664172Y11791941D01*
X-734225Y11780408D01*
X-799393Y11808579D01*
X-838986Y11867511D01*
X-840432Y11938493D01*
X-836893Y11949498D01*
X-752710Y12175201D01*
X-696214Y12434908D01*
X-677255Y12700001D01*
X-696214Y12965093D01*
X-752708Y13224794D01*
X-845588Y13473815D01*
X-972961Y13707081D01*
X-1058904Y13821887D01*
X-1058905Y13821887D01*
X-1675346Y13205446D01*
X-1737658Y13171421D01*
X-1808474Y13176486D01*
X-1860474Y13212972D01*
X-1952005Y13320731D01*
X-1952007Y13320733D01*
X-1952009Y13320735D01*
X-2022585Y13374386D01*
X-2064709Y13431532D01*
X-2069250Y13502383D01*
X-2035426Y13563787D01*
X-1418115Y14181097D01*
X-1532924Y14267042D01*
X-1766186Y14394413D01*
X-2015207Y14487293D01*
X-2274908Y14543787D01*
X-2540000Y14562746D01*
X-2805093Y14543787D01*
X-3064794Y14487293D01*
X-3313815Y14394413D01*
X-3547076Y14267043D01*
X-3661887Y14181098D01*
X-3048153Y13567364D01*
X-3014128Y13505051D01*
X-3019192Y13434236D01*
X-3054157Y13387145D01*
X-3052472Y13385366D01*
X-3191661Y13253521D01*
X-3211583Y13224138D01*
X-3266368Y13178981D01*
X-3336870Y13170612D01*
X-3400704Y13201688D01*
X-3404966Y13205755D01*
X-4021098Y13821887D01*
X-4107043Y13707076D01*
X-4234413Y13473815D01*
X-4327293Y13224794D01*
X-4383787Y12965093D01*
X-4402746Y12700001D01*
X-4383787Y12434908D01*
X-4327293Y12175207D01*
X-4234413Y11926186D01*
X-4107042Y11692924D01*
X-4021097Y11578115D01*
X-3404657Y12194555D01*
X-3342344Y12228580D01*
X-3271529Y12223516D01*
X-3219529Y12187031D01*
X-3127997Y12079271D01*
X-3127995Y12079270D01*
X-3127991Y12079265D01*
X-3057417Y12025616D01*
X-3015293Y11968471D01*
X-3010752Y11897619D01*
X-3044576Y11836216D01*
X-3661888Y11218905D01*
X-3661887Y11218904D01*
X-3547081Y11132961D01*
X-3313815Y11005588D01*
X-3064794Y10912708D01*
X-2805093Y10856214D01*
X-2540000Y10837255D01*
X-2274908Y10856214D01*
X-2015207Y10912708D01*
X-1785813Y10998268D01*
X-1714997Y11003333D01*
X-1652685Y10969308D01*
X-1618660Y10906996D01*
X-1623724Y10836180D01*
X-1624490Y10834179D01*
X-1685089Y10679776D01*
X-1712701Y10558796D01*
X-1743735Y10422826D01*
X-1763431Y10160000D01*
X-1743735Y9897174D01*
X-1743734Y9897170D01*
X-1685089Y9640225D01*
X-1624490Y9485822D01*
X-1618222Y9415102D01*
X-1651183Y9352221D01*
X-1712908Y9317142D01*
X-1783799Y9321002D01*
X-1785812Y9321733D01*
X-2015204Y9407292D01*
X-2274908Y9463787D01*
X-2540000Y9482746D01*
X-2805093Y9463787D01*
X-3064794Y9407293D01*
X-3313815Y9314413D01*
X-3547076Y9187043D01*
X-3661887Y9101098D01*
X-3048153Y8487364D01*
X-3014128Y8425051D01*
X-3019192Y8354236D01*
X-3054157Y8307145D01*
X-3052472Y8305366D01*
X-3191661Y8173521D01*
X-3211583Y8144138D01*
X-3266368Y8098981D01*
X-3336870Y8090612D01*
X-3400704Y8121688D01*
X-3404966Y8125755D01*
X-4021098Y8741887D01*
X-4107043Y8627076D01*
X-4234413Y8393815D01*
X-4327293Y8144794D01*
X-4383787Y7885093D01*
X-4402746Y7620000D01*
X-4815500Y7620000D01*
X-4815500Y17780000D01*
X-4402746Y17780000D01*
X-4383787Y17514908D01*
X-4327293Y17255207D01*
X-4234413Y17006186D01*
X-4107042Y16772924D01*
X-4021098Y16658116D01*
X-3404657Y17274555D01*
X-3342344Y17308580D01*
X-3271529Y17303516D01*
X-3219529Y17267031D01*
X-3127997Y17159271D01*
X-3127995Y17159270D01*
X-3127991Y17159265D01*
X-3057417Y17105616D01*
X-3015293Y17048471D01*
X-3010752Y16977619D01*
X-3044576Y16916216D01*
X-3661888Y16298905D01*
X-3661887Y16298904D01*
X-3547081Y16212961D01*
X-3313815Y16085588D01*
X-3064794Y15992708D01*
X-2805093Y15936214D01*
X-2540000Y15917255D01*
X-2274908Y15936214D01*
X-2015207Y15992708D01*
X-1766186Y16085588D01*
X-1532924Y16212958D01*
X-1418115Y16298905D01*
X-2031848Y16912637D01*
X-2065873Y16974950D01*
X-2060809Y17045765D01*
X-2025832Y17092842D01*
X-2027529Y17094633D01*
X-2015931Y17105619D01*
X-1888342Y17226477D01*
X-1868420Y17255861D01*
X-1813637Y17301018D01*
X-1743135Y17309389D01*
X-1679300Y17278316D01*
X-1675035Y17274246D01*
X-1058905Y16658115D01*
X-972958Y16772924D01*
X-845588Y17006186D01*
X-752708Y17255207D01*
X-696214Y17514908D01*
X-677255Y17780000D01*
X-696214Y18045093D01*
X-752708Y18304794D01*
X-836894Y18530503D01*
X-841959Y18601319D01*
X-807934Y18663631D01*
X-745622Y18697656D01*
X-674806Y18692592D01*
X-664168Y18688058D01*
X-644254Y18678468D01*
X-644251Y18678468D01*
X-644246Y18678465D01*
X-392411Y18600785D01*
X-392409Y18600785D01*
X-392400Y18600782D01*
X-131781Y18561500D01*
X-131777Y18561500D01*
X131777Y18561500D01*
X131781Y18561500D01*
X392400Y18600782D01*
X394141Y18601319D01*
X644245Y18678465D01*
X644247Y18678466D01*
X644254Y18678468D01*
X664166Y18688058D01*
X734218Y18699594D01*
X799388Y18671426D01*
X838983Y18612496D01*
X840433Y18541514D01*
X836893Y18530504D01*
X752708Y18304797D01*
X696213Y18045093D01*
X677254Y17780000D01*
X696213Y17514908D01*
X752707Y17255207D01*
X845587Y17006186D01*
X972958Y16772924D01*
X1058903Y16658115D01*
X1675343Y17274555D01*
X1737656Y17308580D01*
X1808471Y17303516D01*
X1860471Y17267031D01*
X1952003Y17159271D01*
X1952005Y17159270D01*
X1952009Y17159265D01*
X2022583Y17105616D01*
X2064707Y17048471D01*
X2069248Y16977619D01*
X2035424Y16916216D01*
X1418112Y16298905D01*
X1418113Y16298904D01*
X1532919Y16212961D01*
X1766185Y16085588D01*
X2015206Y15992708D01*
X2274907Y15936214D01*
X2540000Y15917255D01*
X2805092Y15936214D01*
X3064793Y15992708D01*
X3313814Y16085588D01*
X3547076Y16212958D01*
X3661885Y16298905D01*
X3048152Y16912637D01*
X3014127Y16974950D01*
X3019191Y17045765D01*
X3054168Y17092842D01*
X3052471Y17094633D01*
X3064069Y17105619D01*
X3191658Y17226477D01*
X3211580Y17255861D01*
X3266363Y17301018D01*
X3336865Y17309389D01*
X3400700Y17278316D01*
X3404965Y17274246D01*
X4021095Y16658115D01*
X4107042Y16772924D01*
X4234412Y17006186D01*
X4327292Y17255207D01*
X4383786Y17514908D01*
X4402745Y17780001D01*
X4383786Y18045093D01*
X4327292Y18304794D01*
X4234412Y18553815D01*
X4107039Y18787081D01*
X4021096Y18901887D01*
X4021095Y18901887D01*
X3404654Y18285446D01*
X3342342Y18251421D01*
X3271526Y18256486D01*
X3219526Y18292972D01*
X3127995Y18400731D01*
X3127993Y18400733D01*
X3127991Y18400735D01*
X3057415Y18454386D01*
X3015291Y18511532D01*
X3010750Y18582383D01*
X3044574Y18643787D01*
X3661885Y19261097D01*
X3547076Y19347042D01*
X3313814Y19474413D01*
X3064793Y19567293D01*
X2805092Y19623787D01*
X2540000Y19642746D01*
X2274907Y19623787D01*
X2015203Y19567292D01*
X1785811Y19481733D01*
X1714995Y19476669D01*
X1652683Y19510694D01*
X1618658Y19573006D01*
X1623723Y19643822D01*
X1624453Y19645729D01*
X1685087Y19800220D01*
X1743735Y20057174D01*
X1763431Y20320000D01*
X1743735Y20582826D01*
X1685087Y20839780D01*
X1624488Y20994181D01*
X1618221Y21064898D01*
X1651182Y21127780D01*
X1712906Y21162859D01*
X1783798Y21158999D01*
X1785812Y21158268D01*
X2015206Y21072708D01*
X2274907Y21016214D01*
X2540000Y20997255D01*
X2805092Y21016214D01*
X3064793Y21072708D01*
X3313814Y21165588D01*
X3547076Y21292958D01*
X3661885Y21378905D01*
X3048152Y21992637D01*
X3014127Y22054950D01*
X3019191Y22125765D01*
X3054168Y22172842D01*
X3052471Y22174633D01*
X3064069Y22185619D01*
X3191658Y22306477D01*
X3211580Y22335861D01*
X3266363Y22381018D01*
X3336865Y22389389D01*
X3400700Y22358316D01*
X3404965Y22354246D01*
X4021095Y21738116D01*
X4107042Y21852924D01*
X4234412Y22086186D01*
X4327292Y22335207D01*
X4383786Y22594908D01*
X4402745Y22860000D01*
X4383786Y23125093D01*
X4327292Y23384794D01*
X4234412Y23633815D01*
X4107039Y23867081D01*
X4021096Y23981887D01*
X4021095Y23981887D01*
X3404654Y23365446D01*
X3342342Y23331421D01*
X3271526Y23336486D01*
X3219526Y23372972D01*
X3127995Y23480731D01*
X3127993Y23480733D01*
X3127991Y23480735D01*
X3057415Y23534386D01*
X3015291Y23591532D01*
X3010750Y23662383D01*
X3044574Y23723787D01*
X3661885Y24341097D01*
X3547076Y24427042D01*
X3313814Y24554413D01*
X3064793Y24647293D01*
X2805092Y24703787D01*
X2540000Y24722746D01*
X2274907Y24703787D01*
X2015206Y24647293D01*
X1766185Y24554413D01*
X1532924Y24427043D01*
X1418113Y24341098D01*
X2031847Y23727364D01*
X2065872Y23665051D01*
X2060808Y23594236D01*
X2025843Y23547145D01*
X2027528Y23545366D01*
X1888339Y23413521D01*
X1868417Y23384138D01*
X1813632Y23338981D01*
X1743130Y23330612D01*
X1679296Y23361688D01*
X1675034Y23365755D01*
X1058902Y23981887D01*
X972957Y23867076D01*
X845587Y23633815D01*
X752707Y23384794D01*
X696213Y23125093D01*
X677254Y22860000D01*
X696213Y22594908D01*
X752707Y22335207D01*
X836893Y22109498D01*
X841958Y22038682D01*
X807933Y21976370D01*
X745620Y21942345D01*
X674805Y21947409D01*
X664169Y21951942D01*
X644258Y21961531D01*
X644245Y21961536D01*
X392410Y22039216D01*
X392402Y22039218D01*
X392400Y22039218D01*
X131781Y22078500D01*
X-131781Y22078500D01*
X-392400Y22039218D01*
X-392402Y22039218D01*
X-392411Y22039216D01*
X-644246Y21961536D01*
X-644260Y21961530D01*
X-664172Y21951941D01*
X-734225Y21940408D01*
X-799393Y21968579D01*
X-838986Y22027511D01*
X-840432Y22098493D01*
X-836893Y22109498D01*
X-752710Y22335201D01*
X-696214Y22594908D01*
X-677255Y22860000D01*
X-696214Y23125093D01*
X-752708Y23384794D01*
X-845588Y23633815D01*
X-972961Y23867081D01*
X-1058904Y23981887D01*
X-1058905Y23981887D01*
X-1675346Y23365446D01*
X-1737658Y23331421D01*
X-1808474Y23336486D01*
X-1860474Y23372972D01*
X-1952005Y23480731D01*
X-1952007Y23480733D01*
X-1952009Y23480735D01*
X-2022585Y23534386D01*
X-2064709Y23591532D01*
X-2069250Y23662383D01*
X-2035426Y23723787D01*
X-1418115Y24341097D01*
X-1532924Y24427042D01*
X-1766186Y24554413D01*
X-2015207Y24647293D01*
X-2274908Y24703787D01*
X-2540000Y24722746D01*
X-2805093Y24703787D01*
X-3064794Y24647293D01*
X-3313815Y24554413D01*
X-3547076Y24427043D01*
X-3661887Y24341098D01*
X-3048153Y23727364D01*
X-3014128Y23665051D01*
X-3019192Y23594236D01*
X-3054157Y23547145D01*
X-3052472Y23545366D01*
X-3191661Y23413521D01*
X-3211583Y23384138D01*
X-3266368Y23338981D01*
X-3336870Y23330612D01*
X-3400704Y23361688D01*
X-3404966Y23365755D01*
X-4021098Y23981887D01*
X-4107043Y23867076D01*
X-4234413Y23633815D01*
X-4327293Y23384794D01*
X-4383787Y23125093D01*
X-4402746Y22860000D01*
X-4383787Y22594908D01*
X-4327293Y22335207D01*
X-4234413Y22086186D01*
X-4107042Y21852924D01*
X-4021098Y21738116D01*
X-3404657Y22354555D01*
X-3342344Y22388580D01*
X-3271529Y22383516D01*
X-3219529Y22347031D01*
X-3127997Y22239271D01*
X-3127995Y22239270D01*
X-3127991Y22239265D01*
X-3057417Y22185616D01*
X-3015293Y22128471D01*
X-3010752Y22057619D01*
X-3044576Y21996216D01*
X-3661888Y21378905D01*
X-3661887Y21378904D01*
X-3547081Y21292961D01*
X-3313815Y21165588D01*
X-3064794Y21072708D01*
X-2805093Y21016214D01*
X-2540000Y20997255D01*
X-2274908Y21016214D01*
X-2015207Y21072708D01*
X-1785813Y21158268D01*
X-1714997Y21163333D01*
X-1652685Y21129308D01*
X-1618660Y21066996D01*
X-1623724Y20996180D01*
X-1624490Y20994179D01*
X-1685089Y20839776D01*
X-1712701Y20718796D01*
X-1743735Y20582826D01*
X-1763431Y20320000D01*
X-1743735Y20057174D01*
X-1743734Y20057170D01*
X-1685089Y19800225D01*
X-1624490Y19645822D01*
X-1618222Y19575102D01*
X-1651183Y19512221D01*
X-1712908Y19477142D01*
X-1783799Y19481002D01*
X-1785812Y19481733D01*
X-2015204Y19567292D01*
X-2274908Y19623787D01*
X-2540000Y19642746D01*
X-2805093Y19623787D01*
X-3064794Y19567293D01*
X-3313815Y19474413D01*
X-3547076Y19347043D01*
X-3661887Y19261098D01*
X-3048153Y18647364D01*
X-3014128Y18585051D01*
X-3019192Y18514236D01*
X-3054157Y18467145D01*
X-3052472Y18465366D01*
X-3191661Y18333521D01*
X-3211583Y18304138D01*
X-3266368Y18258981D01*
X-3336870Y18250612D01*
X-3400704Y18281688D01*
X-3404966Y18285755D01*
X-4021098Y18901887D01*
X-4107043Y18787076D01*
X-4234413Y18553815D01*
X-4327293Y18304794D01*
X-4383787Y18045093D01*
X-4402746Y17780000D01*
X-4815500Y17780000D01*
X-4815500Y27940000D01*
X5757254Y27940000D01*
X5776213Y27674908D01*
X5832707Y27415207D01*
X5925587Y27166186D01*
X6052958Y26932924D01*
X6138902Y26818116D01*
X6755343Y27434555D01*
X6817656Y27468580D01*
X6888471Y27463516D01*
X6940471Y27427031D01*
X7032003Y27319271D01*
X7032005Y27319270D01*
X7032009Y27319265D01*
X7102583Y27265616D01*
X7144707Y27208471D01*
X7149248Y27137619D01*
X7115424Y27076216D01*
X6498112Y26458905D01*
X6498113Y26458904D01*
X6612919Y26372961D01*
X6846185Y26245588D01*
X7095206Y26152708D01*
X7354907Y26096214D01*
X7620000Y26077255D01*
X7885092Y26096214D01*
X8144793Y26152708D01*
X8393814Y26245588D01*
X8627076Y26372958D01*
X8741885Y26458905D01*
X8128152Y27072637D01*
X8094127Y27134950D01*
X8099191Y27205765D01*
X8134168Y27252842D01*
X8132471Y27254633D01*
X8144069Y27265619D01*
X8271658Y27386477D01*
X8291580Y27415861D01*
X8346363Y27461018D01*
X8416865Y27469389D01*
X8480700Y27438316D01*
X8484965Y27434246D01*
X9101095Y26818116D01*
X9187042Y26932924D01*
X9314412Y27166186D01*
X9407292Y27415207D01*
X9463786Y27674908D01*
X9482745Y27940001D01*
X9463786Y28205093D01*
X9407292Y28464794D01*
X9323106Y28690503D01*
X9318041Y28761319D01*
X9352066Y28823631D01*
X9414378Y28857656D01*
X9485194Y28852592D01*
X9495832Y28848058D01*
X9515746Y28838468D01*
X9515749Y28838468D01*
X9515754Y28838465D01*
X9767589Y28760785D01*
X9767591Y28760785D01*
X9767600Y28760782D01*
X10028219Y28721500D01*
X10028223Y28721500D01*
X10291777Y28721500D01*
X10291781Y28721500D01*
X10552400Y28760782D01*
X10554141Y28761319D01*
X10804245Y28838465D01*
X10804247Y28838466D01*
X10804254Y28838468D01*
X10824166Y28848058D01*
X10894218Y28859594D01*
X10959388Y28831426D01*
X10998983Y28772496D01*
X11000433Y28701514D01*
X10996893Y28690504D01*
X10912708Y28464797D01*
X10856213Y28205093D01*
X10837254Y27940000D01*
X10856213Y27674908D01*
X10912707Y27415207D01*
X11005587Y27166186D01*
X11132958Y26932924D01*
X11218902Y26818116D01*
X11835343Y27434555D01*
X11897656Y27468580D01*
X11968471Y27463516D01*
X12020471Y27427031D01*
X12112003Y27319271D01*
X12112005Y27319270D01*
X12112009Y27319265D01*
X12182583Y27265616D01*
X12224707Y27208471D01*
X12229248Y27137619D01*
X12195424Y27076216D01*
X11578112Y26458905D01*
X11578113Y26458904D01*
X11692919Y26372961D01*
X11926185Y26245588D01*
X12175206Y26152708D01*
X12434907Y26096214D01*
X12699999Y26077255D01*
X12965092Y26096214D01*
X13224793Y26152708D01*
X13473814Y26245588D01*
X13707076Y26372958D01*
X13821885Y26458905D01*
X13208152Y27072637D01*
X13174127Y27134950D01*
X13179191Y27205765D01*
X13214168Y27252842D01*
X13212471Y27254633D01*
X13224069Y27265619D01*
X13351658Y27386477D01*
X13371580Y27415861D01*
X13426363Y27461018D01*
X13496865Y27469389D01*
X13560700Y27438316D01*
X13564965Y27434246D01*
X14181095Y26818116D01*
X14267042Y26932924D01*
X14394412Y27166186D01*
X14487292Y27415207D01*
X14543786Y27674908D01*
X14562745Y27940001D01*
X14543786Y28205093D01*
X14487292Y28464794D01*
X14394412Y28713815D01*
X14267039Y28947081D01*
X14181096Y29061887D01*
X14181095Y29061887D01*
X13564654Y28445446D01*
X13502342Y28411421D01*
X13431526Y28416486D01*
X13379526Y28452972D01*
X13287995Y28560731D01*
X13287993Y28560733D01*
X13287991Y28560735D01*
X13217415Y28614386D01*
X13175291Y28671532D01*
X13170750Y28742383D01*
X13204574Y28803787D01*
X13821885Y29421097D01*
X13707076Y29507042D01*
X13473814Y29634413D01*
X13224793Y29727293D01*
X12965092Y29783787D01*
X12699999Y29802746D01*
X12434907Y29783787D01*
X12175203Y29727292D01*
X11945811Y29641733D01*
X11874995Y29636669D01*
X11812683Y29670694D01*
X11778658Y29733006D01*
X11783723Y29803822D01*
X11784453Y29805729D01*
X11845087Y29960220D01*
X11903735Y30217174D01*
X11923431Y30480000D01*
X11903735Y30742826D01*
X11845087Y30999780D01*
X11784488Y31154181D01*
X11778221Y31224898D01*
X11811182Y31287780D01*
X11872906Y31322859D01*
X11943798Y31318999D01*
X11945812Y31318268D01*
X12175206Y31232708D01*
X12434907Y31176214D01*
X12699999Y31157255D01*
X12965092Y31176214D01*
X13224793Y31232708D01*
X13473814Y31325588D01*
X13707076Y31452958D01*
X13821885Y31538905D01*
X13208152Y32152637D01*
X13174127Y32214950D01*
X13179191Y32285765D01*
X13214168Y32332842D01*
X13212471Y32334633D01*
X13224069Y32345619D01*
X13351658Y32466477D01*
X13371580Y32495861D01*
X13426363Y32541018D01*
X13496865Y32549389D01*
X13560700Y32518316D01*
X13564965Y32514246D01*
X14181095Y31898116D01*
X14267042Y32012924D01*
X14394412Y32246186D01*
X14487292Y32495207D01*
X14543786Y32754908D01*
X14562745Y33020000D01*
X14543786Y33285093D01*
X14487292Y33544794D01*
X14394412Y33793815D01*
X14267039Y34027081D01*
X14181096Y34141887D01*
X14181095Y34141887D01*
X13564654Y33525446D01*
X13502342Y33491421D01*
X13431526Y33496486D01*
X13379526Y33532972D01*
X13287995Y33640731D01*
X13287993Y33640733D01*
X13287991Y33640735D01*
X13217415Y33694386D01*
X13175291Y33751532D01*
X13170750Y33822383D01*
X13204574Y33883787D01*
X13821885Y34501097D01*
X13707076Y34587042D01*
X13473814Y34714413D01*
X13224793Y34807293D01*
X12965092Y34863787D01*
X12699999Y34882746D01*
X12434907Y34863787D01*
X12175206Y34807293D01*
X11926185Y34714413D01*
X11692924Y34587043D01*
X11578113Y34501098D01*
X12191847Y33887364D01*
X12225872Y33825051D01*
X12220808Y33754236D01*
X12185843Y33707145D01*
X12187528Y33705366D01*
X12048339Y33573521D01*
X12028417Y33544138D01*
X11973632Y33498981D01*
X11903130Y33490612D01*
X11839296Y33521688D01*
X11835034Y33525755D01*
X11218902Y34141887D01*
X11132957Y34027076D01*
X11005587Y33793815D01*
X10912707Y33544794D01*
X10856213Y33285093D01*
X10837254Y33020001D01*
X10856213Y32754908D01*
X10912707Y32495207D01*
X10996893Y32269498D01*
X11001958Y32198682D01*
X10967933Y32136370D01*
X10905620Y32102345D01*
X10834805Y32107409D01*
X10824169Y32111942D01*
X10804258Y32121531D01*
X10804245Y32121536D01*
X10552410Y32199216D01*
X10552402Y32199218D01*
X10552400Y32199218D01*
X10291781Y32238500D01*
X10028219Y32238500D01*
X9767600Y32199218D01*
X9767598Y32199218D01*
X9767589Y32199216D01*
X9515754Y32121536D01*
X9515740Y32121530D01*
X9495828Y32111941D01*
X9425775Y32100408D01*
X9360607Y32128579D01*
X9321014Y32187511D01*
X9319568Y32258493D01*
X9323107Y32269498D01*
X9407290Y32495201D01*
X9463786Y32754908D01*
X9482745Y33020000D01*
X9463786Y33285093D01*
X9407292Y33544794D01*
X9314412Y33793815D01*
X9187039Y34027081D01*
X9101096Y34141887D01*
X9101095Y34141887D01*
X8484654Y33525446D01*
X8422342Y33491421D01*
X8351526Y33496486D01*
X8299526Y33532972D01*
X8207995Y33640731D01*
X8207993Y33640733D01*
X8207991Y33640735D01*
X8137415Y33694386D01*
X8095291Y33751532D01*
X8090750Y33822383D01*
X8124574Y33883787D01*
X8741885Y34501097D01*
X8627076Y34587042D01*
X8393814Y34714413D01*
X8144793Y34807293D01*
X7885092Y34863787D01*
X7620000Y34882746D01*
X7354907Y34863787D01*
X7095206Y34807293D01*
X6846185Y34714413D01*
X6612924Y34587043D01*
X6498113Y34501098D01*
X7111847Y33887364D01*
X7145872Y33825051D01*
X7140808Y33754236D01*
X7105843Y33707145D01*
X7107528Y33705366D01*
X6968339Y33573521D01*
X6948417Y33544138D01*
X6893632Y33498981D01*
X6823130Y33490612D01*
X6759296Y33521688D01*
X6755034Y33525755D01*
X6138902Y34141887D01*
X6052957Y34027076D01*
X5925587Y33793815D01*
X5832707Y33544794D01*
X5776213Y33285093D01*
X5757254Y33020001D01*
X5776213Y32754908D01*
X5832707Y32495207D01*
X5925587Y32246186D01*
X6052958Y32012924D01*
X6138902Y31898116D01*
X6755343Y32514555D01*
X6817656Y32548580D01*
X6888471Y32543516D01*
X6940471Y32507031D01*
X7032003Y32399271D01*
X7032005Y32399270D01*
X7032009Y32399265D01*
X7102583Y32345616D01*
X7144707Y32288471D01*
X7149248Y32217619D01*
X7115424Y32156216D01*
X6498112Y31538905D01*
X6498113Y31538904D01*
X6612919Y31452961D01*
X6846185Y31325588D01*
X7095206Y31232708D01*
X7354907Y31176214D01*
X7620000Y31157255D01*
X7885092Y31176214D01*
X8144793Y31232708D01*
X8374187Y31318268D01*
X8445003Y31323333D01*
X8507315Y31289308D01*
X8541340Y31226996D01*
X8536276Y31156180D01*
X8535510Y31154179D01*
X8474911Y30999776D01*
X8416266Y30742831D01*
X8416265Y30742826D01*
X8396569Y30480000D01*
X8416265Y30217174D01*
X8416266Y30217170D01*
X8474911Y29960225D01*
X8535510Y29805822D01*
X8541778Y29735102D01*
X8508817Y29672221D01*
X8447092Y29637142D01*
X8376201Y29641002D01*
X8374188Y29641733D01*
X8144796Y29727292D01*
X7885092Y29783787D01*
X7620000Y29802746D01*
X7354907Y29783787D01*
X7095206Y29727293D01*
X6846185Y29634413D01*
X6612924Y29507043D01*
X6498113Y29421098D01*
X7111847Y28807364D01*
X7145872Y28745051D01*
X7140808Y28674236D01*
X7105843Y28627145D01*
X7107528Y28625366D01*
X6968339Y28493521D01*
X6948417Y28464138D01*
X6893632Y28418981D01*
X6823130Y28410612D01*
X6759296Y28441688D01*
X6755034Y28445755D01*
X6138902Y29061887D01*
X6052957Y28947076D01*
X5925587Y28713815D01*
X5832707Y28464794D01*
X5776213Y28205093D01*
X5757254Y27940000D01*
X-4815500Y27940000D01*
X-4815500Y35169500D01*
X-4795498Y35237621D01*
X-4741842Y35284114D01*
X-4689500Y35295500D01*
X25009500Y35295500D01*
X25077621Y35275498D01*
G37*
%TD.AperFunction*%
%TD*%
M02*
