%TF.GenerationSoftware,KiCad,Pcbnew,7.0.5.1-1-g8f565ef7f0-dirty-deb11*%
%TF.CreationDate,2023-07-20T12:10:28+00:00*%
%TF.ProjectId,ACOMP01,41434f4d-5030-4312-9e6b-696361645f70,rev?*%
%TF.SameCoordinates,Original*%
%TF.FileFunction,Copper,L2,Bot*%
%TF.FilePolarity,Positive*%
%FSLAX46Y46*%
G04 Gerber Fmt 4.6, Leading zero omitted, Abs format (unit mm)*
G04 Created by KiCad (PCBNEW 7.0.5.1-1-g8f565ef7f0-dirty-deb11) date 2023-07-20 12:10:28*
%MOMM*%
%LPD*%
G01*
G04 APERTURE LIST*
G04 Aperture macros list*
%AMRoundRect*
0 Rectangle with rounded corners*
0 $1 Rounding radius*
0 $2 $3 $4 $5 $6 $7 $8 $9 X,Y pos of 4 corners*
0 Add a 4 corners polygon primitive as box body*
4,1,4,$2,$3,$4,$5,$6,$7,$8,$9,$2,$3,0*
0 Add four circle primitives for the rounded corners*
1,1,$1+$1,$2,$3*
1,1,$1+$1,$4,$5*
1,1,$1+$1,$6,$7*
1,1,$1+$1,$8,$9*
0 Add four rect primitives between the rounded corners*
20,1,$1+$1,$2,$3,$4,$5,0*
20,1,$1+$1,$4,$5,$6,$7,0*
20,1,$1+$1,$6,$7,$8,$9,0*
20,1,$1+$1,$8,$9,$2,$3,0*%
G04 Aperture macros list end*
%TA.AperFunction,ComponentPad*%
%ADD10R,1.524000X1.524000*%
%TD*%
%TA.AperFunction,ComponentPad*%
%ADD11C,6.000000*%
%TD*%
%TA.AperFunction,ComponentPad*%
%ADD12C,2.500000*%
%TD*%
%TA.AperFunction,ComponentPad*%
%ADD13C,2.700000*%
%TD*%
%TA.AperFunction,SMDPad,CuDef*%
%ADD14RoundRect,0.250000X-0.475000X0.250000X-0.475000X-0.250000X0.475000X-0.250000X0.475000X0.250000X0*%
%TD*%
%TA.AperFunction,SMDPad,CuDef*%
%ADD15R,1.800000X2.500000*%
%TD*%
%TA.AperFunction,SMDPad,CuDef*%
%ADD16RoundRect,0.250000X0.250000X0.475000X-0.250000X0.475000X-0.250000X-0.475000X0.250000X-0.475000X0*%
%TD*%
%TA.AperFunction,SMDPad,CuDef*%
%ADD17RoundRect,0.250000X-0.250000X-0.475000X0.250000X-0.475000X0.250000X0.475000X-0.250000X0.475000X0*%
%TD*%
%TA.AperFunction,SMDPad,CuDef*%
%ADD18RoundRect,0.250000X0.450000X-0.262500X0.450000X0.262500X-0.450000X0.262500X-0.450000X-0.262500X0*%
%TD*%
%TA.AperFunction,SMDPad,CuDef*%
%ADD19R,0.500000X1.000760*%
%TD*%
%TA.AperFunction,SMDPad,CuDef*%
%ADD20R,0.501040X1.000760*%
%TD*%
%TA.AperFunction,SMDPad,CuDef*%
%ADD21R,0.300000X1.000000*%
%TD*%
%TA.AperFunction,ViaPad*%
%ADD22C,0.800000*%
%TD*%
%TA.AperFunction,Conductor*%
%ADD23C,0.250000*%
%TD*%
%TA.AperFunction,Conductor*%
%ADD24C,0.200000*%
%TD*%
G04 APERTURE END LIST*
D10*
%TO.P,J6,1*%
%TO.N,GND*%
X21590000Y6350000D03*
%TO.P,J6,2*%
X19050000Y6350000D03*
%TO.P,J6,3*%
%TO.N,/TLV_OUT+*%
X21590000Y8890000D03*
%TO.P,J6,4*%
X19050000Y8890000D03*
%TO.P,J6,5*%
%TO.N,/TLV_OUT-*%
X21590000Y11430000D03*
%TO.P,J6,6*%
X19050000Y11430000D03*
%TO.P,J6,7*%
%TO.N,GND*%
X21590000Y13970000D03*
%TO.P,J6,8*%
X19050000Y13970000D03*
%TD*%
D11*
%TO.P,M2,1*%
%TO.N,GND*%
X0Y30480000D03*
%TD*%
%TO.P,M4,1*%
%TO.N,GND*%
X20320000Y0D03*
%TD*%
D10*
%TO.P,J7,1*%
%TO.N,GND*%
X21590000Y16510000D03*
%TO.P,J7,2*%
X19050000Y16510000D03*
%TO.P,J7,3*%
%TO.N,/LMH_OUT+*%
X21590000Y19050000D03*
%TO.P,J7,4*%
X19050000Y19050000D03*
%TO.P,J7,5*%
%TO.N,/LMH_OUT-*%
X21590000Y21590000D03*
%TO.P,J7,6*%
X19050000Y21590000D03*
%TO.P,J7,7*%
%TO.N,GND*%
X21590000Y24130000D03*
%TO.P,J7,8*%
X19050000Y24130000D03*
%TD*%
D12*
%TO.P,J2,1,In*%
%TO.N,/IN+_TLV*%
X10160000Y0D03*
D13*
%TO.P,J2,2,Ext*%
%TO.N,GND*%
X7620000Y-2540000D03*
X12700000Y-2540000D03*
X12700000Y2540000D03*
X7620000Y2540000D03*
%TD*%
D10*
%TO.P,J1,1*%
%TO.N,GND*%
X10160000Y17780000D03*
%TO.P,J1,2*%
X12700000Y17780000D03*
%TO.P,J1,3*%
%TO.N,+3V3*%
X10160000Y15240000D03*
%TO.P,J1,4*%
X12700000Y15240000D03*
%TO.P,J1,5*%
%TO.N,GND*%
X10160000Y12700000D03*
%TO.P,J1,6*%
X12700000Y12700000D03*
%TD*%
D12*
%TO.P,J4,1,In*%
%TO.N,/IN+_LMH*%
X0Y20320000D03*
D13*
%TO.P,J4,2,Ext*%
%TO.N,GND*%
X-2540000Y22860000D03*
X2540000Y22860000D03*
X2540000Y17780000D03*
X-2540000Y17780000D03*
%TD*%
D11*
%TO.P,M3,1*%
%TO.N,GND*%
X0Y0D03*
%TD*%
%TO.P,M1,1*%
%TO.N,GND*%
X20320000Y30480000D03*
%TD*%
D12*
%TO.P,J5,1,In*%
%TO.N,/IN-_LMH*%
X10160000Y30480000D03*
D13*
%TO.P,J5,2,Ext*%
%TO.N,GND*%
X12700000Y33020000D03*
X12700000Y27940000D03*
X7620000Y33020000D03*
X7620000Y27940000D03*
%TD*%
D12*
%TO.P,J3,1,In*%
%TO.N,/IN-_TLV*%
X0Y10160000D03*
D13*
%TO.P,J3,2,Ext*%
%TO.N,GND*%
X-2540000Y7620000D03*
X-2540000Y12700000D03*
X2540000Y12700000D03*
X2540000Y7620000D03*
%TD*%
D14*
%TO.P,C1,1*%
%TO.N,+3V3*%
X15494000Y15174000D03*
%TO.P,C1,2*%
%TO.N,GND*%
X15494000Y13274000D03*
%TD*%
D15*
%TO.P,D1,1,K*%
%TO.N,+3V3*%
X6604000Y17240000D03*
%TO.P,D1,2,A*%
%TO.N,GND*%
X6604000Y13240000D03*
%TD*%
D16*
%TO.P,C4,1*%
%TO.N,+3V3*%
X8824000Y20574000D03*
%TO.P,C4,2*%
%TO.N,GND*%
X6924000Y20574000D03*
%TD*%
D17*
%TO.P,C3,1*%
%TO.N,+3V3*%
X8956000Y10160000D03*
%TO.P,C3,2*%
%TO.N,GND*%
X10856000Y10160000D03*
%TD*%
D18*
%TO.P,R2,1*%
%TO.N,/LMH_OUT+*%
X16535400Y19407500D03*
%TO.P,R2,2*%
%TO.N,/LMH_OUT-*%
X16535400Y21232500D03*
%TD*%
D17*
%TO.P,C2,1*%
%TO.N,+3V3*%
X10480000Y20574000D03*
%TO.P,C2,2*%
%TO.N,GND*%
X12380000Y20574000D03*
%TD*%
D19*
%TO.P,IC2,1,IN-*%
%TO.N,/IN-_LMH*%
X6794500Y25146000D03*
%TO.P,IC2,2,GND*%
%TO.N,GND*%
X7747000Y25146000D03*
%TO.P,IC2,3,OUT_~{Q}*%
%TO.N,/LMH_OUT-*%
X8699500Y25146000D03*
D20*
%TO.P,IC2,4,OUT_Q*%
%TO.N,/LMH_OUT+*%
X8699500Y22606000D03*
D19*
%TO.P,IC2,5,VCC*%
%TO.N,+3V3*%
X7747000Y22606000D03*
%TO.P,IC2,6,IN+*%
%TO.N,/IN+_LMH*%
X6794500Y22606000D03*
%TD*%
D21*
%TO.P,IC1,1,OUT+*%
%TO.N,/TLV_OUT+*%
X9794000Y6237400D03*
%TO.P,IC1,2,VEE*%
%TO.N,GND*%
X9144000Y6237400D03*
%TO.P,IC1,3,IN+*%
%TO.N,/IN+_TLV*%
X8494000Y6237400D03*
%TO.P,IC1,4,IN-*%
%TO.N,/IN-_TLV*%
X8494000Y8037400D03*
%TO.P,IC1,5,VCCI/VCCO*%
%TO.N,+3V3*%
X9144000Y8037400D03*
%TO.P,IC1,6,OUT-*%
%TO.N,/TLV_OUT-*%
X9794000Y8037400D03*
%TD*%
D18*
%TO.P,R1,1*%
%TO.N,/TLV_OUT+*%
X16535400Y9247500D03*
%TO.P,R1,2*%
%TO.N,/TLV_OUT-*%
X16535400Y11072500D03*
%TD*%
D22*
%TO.N,GND*%
X6858000Y23876000D03*
X5334000Y20828000D03*
X7747000Y23876000D03*
X12446000Y9652000D03*
X10033000Y4953000D03*
X5334000Y19812000D03*
X7366000Y10922000D03*
X10922000Y22352000D03*
X6350000Y10922000D03*
X13970000Y20320000D03*
X9144000Y4953000D03*
X14986000Y11938000D03*
X12446000Y10668000D03*
X11938000Y22352000D03*
X5334000Y10922000D03*
%TD*%
D23*
%TO.N,+3V3*%
X8763000Y10353000D02*
X8956000Y10160000D01*
X10160000Y15240000D02*
X12700000Y15240000D01*
X8824000Y20817800D02*
X8824000Y20574000D01*
X11379200Y19674800D02*
X11379200Y16560800D01*
X10480000Y20574000D02*
X8824000Y20574000D01*
X15494000Y15174000D02*
X15428000Y15240000D01*
X7747000Y21894800D02*
X8824000Y20817800D01*
X6604000Y17240000D02*
X8160000Y17240000D01*
X11379200Y16560800D02*
X12700000Y15240000D01*
X9144000Y9972000D02*
X8956000Y10160000D01*
X15428000Y15240000D02*
X12700000Y15240000D01*
X9144000Y8037400D02*
X9144000Y9972000D01*
X8160000Y17240000D02*
X10160000Y15240000D01*
X10480000Y20574000D02*
X11379200Y19674800D01*
X8763000Y13843000D02*
X8763000Y10353000D01*
X7747000Y22606000D02*
X7747000Y21894800D01*
X10160000Y15240000D02*
X8763000Y13843000D01*
%TO.N,GND*%
X9144000Y6237400D02*
X9144000Y4953000D01*
%TO.N,/IN+_TLV*%
X7112000Y4597400D02*
X7391400Y4318000D01*
X7507400Y6237400D02*
X7112000Y5842000D01*
X8636000Y4318000D02*
X10160000Y2794000D01*
X7391400Y4318000D02*
X8636000Y4318000D01*
X8494000Y6237400D02*
X7507400Y6237400D01*
X7112000Y5842000D02*
X7112000Y4597400D01*
X10160000Y2794000D02*
X10160000Y0D01*
%TO.N,/IN-_TLV*%
X6442600Y8037400D02*
X6096000Y8384000D01*
X8494000Y8037400D02*
X6442600Y8037400D01*
X4320000Y10160000D02*
X0Y10160000D01*
X6096000Y8384000D02*
X4320000Y10160000D01*
%TO.N,/IN+_LMH*%
X5334000Y22606000D02*
X6794500Y22606000D01*
X3048000Y20320000D02*
X5334000Y22606000D01*
X0Y20320000D02*
X3048000Y20320000D01*
%TO.N,/IN-_LMH*%
X6794500Y25844500D02*
X7112000Y26162000D01*
X6794500Y25146000D02*
X6794500Y25844500D01*
X8842000Y26162000D02*
X10160000Y27480000D01*
X10160000Y27480000D02*
X10160000Y30480000D01*
X7112000Y26162000D02*
X8842000Y26162000D01*
D24*
%TO.N,/TLV_OUT+*%
X14014836Y7915537D02*
X13011697Y6912400D01*
X13011697Y6912400D02*
X11219001Y6912400D01*
X14822548Y8339801D02*
X14822547Y8339801D01*
X15346797Y9247500D02*
X14822548Y8723251D01*
X14822548Y7956353D02*
X14781732Y7915536D01*
X14822548Y7956352D02*
X14822548Y7956353D01*
X14014835Y7915536D02*
X14014836Y7915537D01*
X19050000Y8890000D02*
X16892900Y8890000D01*
X16892900Y8890000D02*
X16535400Y9247500D01*
X21590000Y8890000D02*
X19050000Y8890000D01*
X16535400Y9247500D02*
X15346797Y9247500D01*
X14398284Y7915536D02*
X14398284Y7915537D01*
X11219001Y6912400D02*
X10544001Y6237400D01*
X10544001Y6237400D02*
X9794000Y6237400D01*
X14822524Y7956376D02*
G75*
G03*
X14822547Y8339801I-191724J191724D01*
G01*
X14398284Y7915536D02*
G75*
G03*
X14781732Y7915536I191724J191726D01*
G01*
X14822575Y8723224D02*
G75*
G03*
X14822549Y8339802I191725J-191724D01*
G01*
X14398324Y7915577D02*
G75*
G03*
X14014835Y7915536I-191724J-191777D01*
G01*
%TO.N,/TLV_OUT-*%
X12825300Y7362400D02*
X11219001Y7362400D01*
X16535400Y11072500D02*
X12825300Y7362400D01*
X19050000Y11430000D02*
X16892900Y11430000D01*
X21590000Y11430000D02*
X19050000Y11430000D01*
X11219001Y7362400D02*
X10544001Y8037400D01*
X10544001Y8037400D02*
X9794000Y8037400D01*
X16892900Y11430000D02*
X16535400Y11072500D01*
D23*
%TO.N,/LMH_OUT-*%
X14642003Y22760342D02*
X14593907Y22808438D01*
X13841569Y22808438D02*
X12524007Y24126000D01*
X14217738Y22808439D02*
X14217738Y22808438D01*
X14642002Y22384173D02*
X14642003Y22384173D01*
X14642003Y22760343D02*
X14642003Y22760342D01*
X13841568Y22808438D02*
X13841569Y22808438D01*
X16892900Y21590000D02*
X16535400Y21232500D01*
X12524007Y24126000D02*
X10470071Y24126000D01*
X19050000Y21590000D02*
X21590000Y21590000D01*
X15417507Y21232500D02*
X14642003Y22008004D01*
X10470071Y24126000D02*
X9450071Y25146000D01*
X19050000Y21590000D02*
X16892900Y21590000D01*
X16535400Y21232500D02*
X15417507Y21232500D01*
X9450071Y25146000D02*
X8699500Y25146000D01*
X14593885Y22808416D02*
G75*
G03*
X14217738Y22808439I-188085J-188016D01*
G01*
X13841568Y22808438D02*
G75*
G03*
X14217738Y22808438I188085J188086D01*
G01*
X14641961Y22384215D02*
G75*
G03*
X14642003Y22760343I-188061J188085D01*
G01*
X14641991Y22384184D02*
G75*
G03*
X14642003Y22008004I188109J-188084D01*
G01*
%TO.N,/LMH_OUT+*%
X12316900Y23626000D02*
X10470071Y23626000D01*
X16535400Y19407500D02*
X12316900Y23626000D01*
X9450071Y22606000D02*
X8699500Y22606000D01*
X19050000Y19050000D02*
X16892900Y19050000D01*
X19050000Y19050000D02*
X21590000Y19050000D01*
X10470071Y23626000D02*
X9450071Y22606000D01*
X16892900Y19050000D02*
X16535400Y19407500D01*
%TD*%
%TA.AperFunction,Conductor*%
%TO.N,GND*%
G36*
X21171553Y6514228D02*
G01*
X21141736Y6383593D01*
X21151749Y6249972D01*
X21200703Y6125240D01*
X21224021Y6096000D01*
X19416618Y6096000D01*
X19468447Y6185772D01*
X19498264Y6316407D01*
X19488251Y6450028D01*
X19439297Y6574760D01*
X19415979Y6604000D01*
X21223382Y6604000D01*
X21171553Y6514228D01*
G37*
%TD.AperFunction*%
%TA.AperFunction,Conductor*%
G36*
X12281553Y12864228D02*
G01*
X12251736Y12733593D01*
X12261749Y12599972D01*
X12310703Y12475240D01*
X12334021Y12446000D01*
X10526618Y12446000D01*
X10578447Y12535772D01*
X10608264Y12666407D01*
X10598251Y12800028D01*
X10549297Y12924760D01*
X10525979Y12954000D01*
X12333382Y12954000D01*
X12281553Y12864228D01*
G37*
%TD.AperFunction*%
%TA.AperFunction,Conductor*%
G36*
X10687821Y18013998D02*
G01*
X10734314Y17960342D01*
X10745700Y17908000D01*
X10745700Y17652000D01*
X10725698Y17583879D01*
X10672042Y17537386D01*
X10619700Y17526000D01*
X10526618Y17526000D01*
X10578447Y17615772D01*
X10608264Y17746407D01*
X10598251Y17880028D01*
X10549297Y18004760D01*
X10525979Y18034000D01*
X10619700Y18034000D01*
X10687821Y18013998D01*
G37*
%TD.AperFunction*%
%TA.AperFunction,Conductor*%
G36*
X12281553Y17944228D02*
G01*
X12251736Y17813593D01*
X12261749Y17679972D01*
X12310703Y17555240D01*
X12334021Y17526000D01*
X12138700Y17526000D01*
X12070579Y17546002D01*
X12024086Y17599658D01*
X12012700Y17652000D01*
X12012700Y17908000D01*
X12032702Y17976121D01*
X12086358Y18022614D01*
X12138700Y18034000D01*
X12333382Y18034000D01*
X12281553Y17944228D01*
G37*
%TD.AperFunction*%
%TA.AperFunction,Conductor*%
G36*
X21171553Y24294228D02*
G01*
X21141736Y24163593D01*
X21151749Y24029972D01*
X21200703Y23905240D01*
X21224021Y23876000D01*
X19416618Y23876000D01*
X19468447Y23965772D01*
X19498264Y24096407D01*
X19488251Y24230028D01*
X19439297Y24354760D01*
X19415979Y24384000D01*
X21223382Y24384000D01*
X21171553Y24294228D01*
G37*
%TD.AperFunction*%
%TA.AperFunction,Conductor*%
G36*
X-68379Y-30502D02*
G01*
X-21886Y-84158D01*
X-10500Y-136500D01*
X-10500Y-1519033D01*
X-30502Y-1587154D01*
X-84158Y-1633647D01*
X-146385Y-1644645D01*
X-249195Y-1636554D01*
X-268725Y-1633460D01*
X-502143Y-1577420D01*
X-520946Y-1571311D01*
X-742726Y-1479448D01*
X-760343Y-1470471D01*
X-965015Y-1345047D01*
X-981010Y-1333426D01*
X-1163546Y-1177526D01*
X-1177527Y-1163545D01*
X-1333427Y-981009D01*
X-1345048Y-965014D01*
X-1467542Y-765124D01*
X-1470473Y-760340D01*
X-1479449Y-742725D01*
X-1498715Y-696213D01*
X-1571312Y-520945D01*
X-1577421Y-502142D01*
X-1633461Y-268724D01*
X-1636554Y-249202D01*
X-1644645Y-146386D01*
X-1644645Y-146384D01*
X-1630048Y-76904D01*
X-1580205Y-26346D01*
X-1519033Y-10500D01*
X-136500Y-10500D01*
X-68379Y-30502D01*
G37*
%TD.AperFunction*%
%TA.AperFunction,Conductor*%
G36*
X1587154Y-30502D02*
G01*
X1633647Y-84158D01*
X1644645Y-146386D01*
X1636554Y-249195D01*
X1633460Y-268724D01*
X1577420Y-502142D01*
X1571311Y-520945D01*
X1479448Y-742725D01*
X1470471Y-760342D01*
X1345047Y-965014D01*
X1333426Y-981009D01*
X1177526Y-1163545D01*
X1163545Y-1177526D01*
X981009Y-1333426D01*
X965014Y-1345047D01*
X760342Y-1470471D01*
X742725Y-1479448D01*
X520945Y-1571311D01*
X502142Y-1577420D01*
X268724Y-1633460D01*
X249194Y-1636554D01*
X146385Y-1644644D01*
X76905Y-1630049D01*
X26346Y-1580206D01*
X10500Y-1519033D01*
X10500Y-136500D01*
X30502Y-68379D01*
X84158Y-21886D01*
X136500Y-10500D01*
X1519033Y-10500D01*
X1587154Y-30502D01*
G37*
%TD.AperFunction*%
%TA.AperFunction,Conductor*%
G36*
X-76905Y1630050D02*
G01*
X-26346Y1580207D01*
X-10500Y1519034D01*
X-10500Y136500D01*
X-30502Y68379D01*
X-84158Y21886D01*
X-136500Y10500D01*
X-1519033Y10500D01*
X-1587154Y30502D01*
X-1633647Y84158D01*
X-1644645Y146384D01*
X-1641469Y186754D01*
X-1636554Y249205D01*
X-1633461Y268725D01*
X-1577421Y502143D01*
X-1571312Y520946D01*
X-1479446Y742734D01*
X-1470476Y760337D01*
X-1345044Y965022D01*
X-1333432Y981004D01*
X-1177519Y1163555D01*
X-1163555Y1177519D01*
X-981004Y1333432D01*
X-965022Y1345044D01*
X-760337Y1470476D01*
X-742734Y1479446D01*
X-520942Y1571314D01*
X-502143Y1577421D01*
X-379056Y1606973D01*
X-268721Y1633462D01*
X-249207Y1636554D01*
X-146384Y1644646D01*
X-76905Y1630050D01*
G37*
%TD.AperFunction*%
%TA.AperFunction,Conductor*%
G36*
X249206Y1636554D02*
G01*
X268722Y1633462D01*
X301855Y1625507D01*
X502142Y1577421D01*
X520945Y1571312D01*
X742727Y1479448D01*
X760340Y1470473D01*
X910089Y1378706D01*
X965014Y1345048D01*
X981009Y1333427D01*
X1163545Y1177527D01*
X1177526Y1163546D01*
X1333426Y981010D01*
X1345047Y965015D01*
X1470471Y760343D01*
X1479448Y742726D01*
X1571311Y520946D01*
X1577420Y502143D01*
X1633460Y268725D01*
X1636554Y249195D01*
X1644645Y146385D01*
X1630049Y76905D01*
X1580206Y26346D01*
X1519033Y10500D01*
X136500Y10500D01*
X68379Y30502D01*
X21886Y84158D01*
X10500Y136500D01*
X10500Y1519034D01*
X30502Y1587155D01*
X84158Y1633648D01*
X146383Y1644646D01*
X249206Y1636554D01*
G37*
%TD.AperFunction*%
%TA.AperFunction,Conductor*%
G36*
X25077621Y35275498D02*
G01*
X25124114Y35221842D01*
X25135500Y35169500D01*
X25135500Y-4689500D01*
X25115498Y-4757621D01*
X25061842Y-4804114D01*
X25009500Y-4815500D01*
X-4689500Y-4815500D01*
X-4757621Y-4795498D01*
X-4804114Y-4741842D01*
X-4815500Y-4689500D01*
X-4815500Y0D01*
X-2511365Y0D01*
X-2508036Y-8036D01*
X-2502088Y-10500D01*
X-1797993Y-10500D01*
X-1729872Y-30502D01*
X-1683379Y-84158D01*
X-1672346Y-127082D01*
X-1670899Y-146384D01*
X-1663084Y-250673D01*
X-1607148Y-495741D01*
X-1607147Y-495744D01*
X-1515316Y-729729D01*
X-1515314Y-729733D01*
X-1389628Y-947427D01*
X-1389626Y-947430D01*
X-1389625Y-947431D01*
X-1232897Y-1143961D01*
X-1048628Y-1314938D01*
X-1048622Y-1314942D01*
X-840944Y-1456535D01*
X-840940Y-1456537D01*
X-840934Y-1456541D01*
X-614456Y-1565608D01*
X-614453Y-1565608D01*
X-614448Y-1565611D01*
X-374262Y-1639698D01*
X-374260Y-1639698D01*
X-374251Y-1639701D01*
X-125686Y-1677166D01*
X-125681Y-1677166D01*
X-121024Y-1677868D01*
X-121236Y-1679269D01*
X-60664Y-1702085D01*
X-18302Y-1759058D01*
X-10500Y-1802708D01*
X-10500Y-2502088D01*
X-8037Y-2508035D01*
X-8036Y-2508036D01*
X0Y-2511365D01*
X8036Y-2508036D01*
X10500Y-2502088D01*
X10500Y-1802708D01*
X30502Y-1734587D01*
X84158Y-1688094D01*
X121133Y-1678593D01*
X121024Y-1677868D01*
X125681Y-1677166D01*
X125686Y-1677166D01*
X374251Y-1639701D01*
X374261Y-1639698D01*
X614447Y-1565611D01*
X614449Y-1565610D01*
X614456Y-1565608D01*
X840935Y-1456541D01*
X1048628Y-1314938D01*
X1232897Y-1143961D01*
X1389625Y-947431D01*
X1515312Y-729736D01*
X1607148Y-495740D01*
X1663084Y-250670D01*
X1672345Y-127082D01*
X1697382Y-60648D01*
X1754362Y-18295D01*
X1797993Y-10500D01*
X2502088Y-10500D01*
X2508036Y-8036D01*
X2511365Y0D01*
X2508036Y8036D01*
X2508035Y8037D01*
X2502088Y10500D01*
X1797993Y10500D01*
X1729872Y30502D01*
X1683379Y84158D01*
X1672345Y127084D01*
X1663084Y250670D01*
X1607148Y495740D01*
X1597255Y520946D01*
X1515315Y729730D01*
X1515313Y729734D01*
X1389627Y947428D01*
X1375602Y965015D01*
X1232897Y1143961D01*
X1048628Y1314938D01*
X1021510Y1333427D01*
X840944Y1456536D01*
X840936Y1456540D01*
X840937Y1456540D01*
X840935Y1456541D01*
X719033Y1515247D01*
X614459Y1565607D01*
X614447Y1565612D01*
X374261Y1639699D01*
X374253Y1639701D01*
X374251Y1639701D01*
X125686Y1677166D01*
X125682Y1677166D01*
X121024Y1677868D01*
X121234Y1679262D01*
X60634Y1702109D01*
X18289Y1759095D01*
X10500Y1802709D01*
X10500Y2502089D01*
X8036Y2508036D01*
X0Y2511365D01*
X-8037Y2508036D01*
X-10501Y2502089D01*
X-10500Y1802709D01*
X-30502Y1734588D01*
X-84158Y1688095D01*
X-121133Y1678589D01*
X-121024Y1677868D01*
X-125682Y1677166D01*
X-125686Y1677166D01*
X-374251Y1639701D01*
X-374253Y1639701D01*
X-374262Y1639699D01*
X-614448Y1565612D01*
X-614460Y1565607D01*
X-840936Y1456540D01*
X-840944Y1456536D01*
X-1048622Y1314943D01*
X-1048627Y1314939D01*
X-1232896Y1143962D01*
X-1389628Y947428D01*
X-1515314Y729734D01*
X-1515316Y729730D01*
X-1607147Y495745D01*
X-1607148Y495742D01*
X-1663084Y250674D01*
X-1663084Y250670D01*
X-1671639Y136500D01*
X-1672345Y127084D01*
X-1697382Y60648D01*
X-1754362Y18295D01*
X-1797993Y10500D01*
X-2502088Y10500D01*
X-2508036Y8037D01*
X-2508037Y8036D01*
X-2508036Y8036D01*
X-2511365Y0D01*
X-4815500Y0D01*
X-4815500Y7620000D01*
X-4402746Y7620000D01*
X-4383787Y7354908D01*
X-4327293Y7095207D01*
X-4234413Y6846186D01*
X-4107042Y6612924D01*
X-4021097Y6498115D01*
X-4021097Y6498114D01*
X-3293194Y7226018D01*
X-3247684Y7140178D01*
X-3127991Y6999265D01*
X-2980805Y6887377D01*
X-2934731Y6866061D01*
X-3661888Y6138905D01*
X-3661887Y6138904D01*
X-3547081Y6052961D01*
X-3313815Y5925588D01*
X-3064794Y5832708D01*
X-2805093Y5776214D01*
X-2540000Y5757255D01*
X-2274908Y5776214D01*
X-2015207Y5832708D01*
X-1766186Y5925588D01*
X-1532924Y6052958D01*
X-1418115Y6138905D01*
X-1418114Y6138905D01*
X-2144923Y6865714D01*
X-2022569Y6939331D01*
X-1888342Y7066477D01*
X-1784587Y7219505D01*
X-1783365Y7222574D01*
X-1058905Y6498114D01*
X-1058905Y6498115D01*
X-972958Y6612924D01*
X-845588Y6846186D01*
X-752708Y7095207D01*
X-696214Y7354908D01*
X-677255Y7620000D01*
X-696214Y7885093D01*
X-752708Y8144794D01*
X-836894Y8370503D01*
X-841959Y8441319D01*
X-807934Y8503631D01*
X-745622Y8537656D01*
X-674806Y8532592D01*
X-664168Y8528058D01*
X-644254Y8518468D01*
X-644251Y8518468D01*
X-644246Y8518465D01*
X-392411Y8440785D01*
X-392409Y8440785D01*
X-392400Y8440782D01*
X-131781Y8401500D01*
X-131777Y8401500D01*
X131777Y8401500D01*
X131781Y8401500D01*
X392400Y8440782D01*
X398790Y8442753D01*
X644245Y8518465D01*
X644247Y8518466D01*
X644254Y8518468D01*
X664166Y8528058D01*
X734218Y8539594D01*
X799388Y8511426D01*
X838983Y8452496D01*
X840433Y8381514D01*
X836893Y8370504D01*
X752708Y8144797D01*
X696213Y7885093D01*
X677254Y7620000D01*
X696213Y7354908D01*
X752707Y7095207D01*
X845587Y6846186D01*
X972958Y6612924D01*
X1058903Y6498115D01*
X1058903Y6498114D01*
X1786806Y7226018D01*
X1832316Y7140178D01*
X1952009Y6999265D01*
X2099195Y6887377D01*
X2145269Y6866061D01*
X1418112Y6138905D01*
X1418113Y6138904D01*
X1532919Y6052961D01*
X1766185Y5925588D01*
X2015206Y5832708D01*
X2274907Y5776214D01*
X2539999Y5757255D01*
X2805092Y5776214D01*
X3064793Y5832708D01*
X3313814Y5925588D01*
X3547076Y6052958D01*
X3661885Y6138905D01*
X3661886Y6138905D01*
X2935077Y6865714D01*
X3057431Y6939331D01*
X3191658Y7066477D01*
X3295413Y7219505D01*
X3296635Y7222574D01*
X4021095Y6498114D01*
X4021095Y6498115D01*
X4107042Y6612924D01*
X4234412Y6846186D01*
X4327292Y7095207D01*
X4383786Y7354908D01*
X4402745Y7620001D01*
X4383786Y7885093D01*
X4327292Y8144794D01*
X4234412Y8393815D01*
X4107039Y8627081D01*
X4021096Y8741887D01*
X4021095Y8741888D01*
X3293192Y8013985D01*
X3247684Y8099822D01*
X3127991Y8240735D01*
X2980805Y8352623D01*
X2934729Y8373941D01*
X3661886Y9101097D01*
X3547076Y9187042D01*
X3358683Y9289912D01*
X3308481Y9340114D01*
X3293389Y9409488D01*
X3318200Y9476009D01*
X3375035Y9518556D01*
X3419068Y9526500D01*
X4005406Y9526500D01*
X4073527Y9506498D01*
X4094501Y9489595D01*
X5935353Y7648743D01*
X5945320Y7636303D01*
X5945547Y7636490D01*
X5950599Y7630383D01*
X6000988Y7583065D01*
X6002377Y7581719D01*
X6008440Y7575656D01*
X6022826Y7561269D01*
X6028368Y7556970D01*
X6032881Y7553115D01*
X6067279Y7520814D01*
X6067280Y7520814D01*
X6067282Y7520812D01*
X6085029Y7511056D01*
X6101559Y7500198D01*
X6117559Y7487787D01*
X6131686Y7481674D01*
X6160851Y7469053D01*
X6166185Y7466441D01*
X6207540Y7443705D01*
X6227162Y7438667D01*
X6245863Y7432265D01*
X6264455Y7424219D01*
X6311070Y7416837D01*
X6316842Y7415642D01*
X6362570Y7403900D01*
X6382831Y7403900D01*
X6402539Y7402350D01*
X6422543Y7399181D01*
X6456059Y7402349D01*
X6469510Y7403620D01*
X6475442Y7403900D01*
X7763591Y7403900D01*
X7831712Y7383898D01*
X7878205Y7330242D01*
X7881646Y7321934D01*
X7893111Y7291196D01*
X7893113Y7291193D01*
X7951715Y7212909D01*
X7976526Y7146389D01*
X7961434Y7077014D01*
X7951715Y7061891D01*
X7893113Y6983608D01*
X7893111Y6983605D01*
X7881646Y6952866D01*
X7839099Y6896031D01*
X7772578Y6871221D01*
X7763591Y6870900D01*
X7591253Y6870900D01*
X7575411Y6872650D01*
X7575384Y6872356D01*
X7567491Y6873102D01*
X7498424Y6870931D01*
X7496445Y6870900D01*
X7467544Y6870900D01*
X7467540Y6870900D01*
X7467530Y6870899D01*
X7460579Y6870021D01*
X7454667Y6869556D01*
X7407513Y6868074D01*
X7407511Y6868073D01*
X7388056Y6862422D01*
X7368703Y6858414D01*
X7348611Y6855876D01*
X7348604Y6855875D01*
X7348603Y6855874D01*
X7348601Y6855874D01*
X7348600Y6855873D01*
X7304739Y6838508D01*
X7299124Y6836585D01*
X7253807Y6823418D01*
X7236364Y6813103D01*
X7218618Y6804410D01*
X7199782Y6796952D01*
X7161609Y6769219D01*
X7156648Y6765960D01*
X7116038Y6741942D01*
X7101711Y6727616D01*
X7086685Y6714783D01*
X7070295Y6702875D01*
X7070293Y6702873D01*
X7040209Y6666510D01*
X7036214Y6662120D01*
X6723336Y6349243D01*
X6710901Y6339280D01*
X6711089Y6339053D01*
X6704982Y6334001D01*
X6657694Y6283645D01*
X6656319Y6282226D01*
X6635863Y6261769D01*
X6631560Y6256223D01*
X6627714Y6251721D01*
X6595417Y6217326D01*
X6595411Y6217317D01*
X6585651Y6199565D01*
X6574803Y6183050D01*
X6562386Y6167042D01*
X6543645Y6123736D01*
X6541034Y6118406D01*
X6518305Y6077061D01*
X6518303Y6077056D01*
X6513267Y6057441D01*
X6506864Y6038738D01*
X6498819Y6020148D01*
X6491437Y5973544D01*
X6490233Y5967732D01*
X6478500Y5922032D01*
X6478500Y5901777D01*
X6476949Y5882067D01*
X6473780Y5862058D01*
X6473779Y5862054D01*
X6478219Y5815081D01*
X6478499Y5809150D01*
X6478500Y4681254D01*
X6476751Y4665412D01*
X6477044Y4665384D01*
X6476297Y4657492D01*
X6478468Y4588427D01*
X6478499Y4586450D01*
X6478499Y4557539D01*
X6479378Y4550579D01*
X6479844Y4544667D01*
X6481326Y4497512D01*
X6481327Y4497507D01*
X6486977Y4478061D01*
X6490986Y4458703D01*
X6493525Y4438607D01*
X6493526Y4438601D01*
X6510893Y4394738D01*
X6512816Y4389121D01*
X6525982Y4343807D01*
X6536294Y4326369D01*
X6544988Y4308621D01*
X6552444Y4289791D01*
X6552449Y4289780D01*
X6580177Y4251618D01*
X6583437Y4246655D01*
X6592183Y4231867D01*
X6609644Y4163051D01*
X6587129Y4095719D01*
X6559240Y4066857D01*
X6498113Y4021098D01*
X6498112Y4021097D01*
X7224922Y3294287D01*
X7102569Y3220669D01*
X6968342Y3093523D01*
X6864587Y2940495D01*
X6863364Y2937427D01*
X6138903Y3661888D01*
X6138902Y3661887D01*
X6052957Y3547076D01*
X5925587Y3313815D01*
X5832707Y3064794D01*
X5776213Y2805093D01*
X5757254Y2540000D01*
X5776213Y2274908D01*
X5832707Y2015207D01*
X5925587Y1766186D01*
X6052958Y1532924D01*
X6138903Y1418115D01*
X6138903Y1418114D01*
X6866806Y2146018D01*
X6912316Y2060178D01*
X7032009Y1919265D01*
X7179195Y1807377D01*
X7225268Y1786062D01*
X6498112Y1058905D01*
X6498113Y1058904D01*
X6612919Y972961D01*
X6846185Y845588D01*
X7095206Y752708D01*
X7354907Y696214D01*
X7619999Y677255D01*
X7885092Y696214D01*
X8144793Y752708D01*
X8374187Y838268D01*
X8445003Y843333D01*
X8507315Y809308D01*
X8541340Y746996D01*
X8536276Y676180D01*
X8535510Y674179D01*
X8474911Y519776D01*
X8417611Y268725D01*
X8416265Y262826D01*
X8396569Y0D01*
X8416265Y-262826D01*
X8416266Y-262830D01*
X8474911Y-519775D01*
X8535510Y-674178D01*
X8541778Y-744898D01*
X8508817Y-807779D01*
X8447092Y-842858D01*
X8376201Y-838998D01*
X8374188Y-838267D01*
X8144796Y-752708D01*
X7885092Y-696213D01*
X7619999Y-677254D01*
X7354907Y-696213D01*
X7095206Y-752707D01*
X6846185Y-845587D01*
X6612924Y-972957D01*
X6498113Y-1058902D01*
X6498112Y-1058903D01*
X7224922Y-1785713D01*
X7102569Y-1859331D01*
X6968342Y-1986477D01*
X6864587Y-2139505D01*
X6863364Y-2142573D01*
X6138903Y-1418112D01*
X6138902Y-1418113D01*
X6052957Y-1532924D01*
X5925587Y-1766185D01*
X5832707Y-2015206D01*
X5776213Y-2274907D01*
X5757254Y-2540000D01*
X5776213Y-2805092D01*
X5832707Y-3064793D01*
X5925587Y-3313814D01*
X6052958Y-3547076D01*
X6138903Y-3661885D01*
X6138903Y-3661886D01*
X6866806Y-2933982D01*
X6912316Y-3019822D01*
X7032009Y-3160735D01*
X7179195Y-3272623D01*
X7225269Y-3293939D01*
X6498112Y-4021095D01*
X6498113Y-4021096D01*
X6612919Y-4107039D01*
X6846185Y-4234412D01*
X7095206Y-4327292D01*
X7354907Y-4383786D01*
X7619999Y-4402745D01*
X7885092Y-4383786D01*
X8144793Y-4327292D01*
X8393814Y-4234412D01*
X8627076Y-4107042D01*
X8741885Y-4021095D01*
X8741886Y-4021095D01*
X8015077Y-3294286D01*
X8137431Y-3220669D01*
X8271658Y-3093523D01*
X8375413Y-2940495D01*
X8376635Y-2937426D01*
X9101095Y-3661886D01*
X9101095Y-3661885D01*
X9187042Y-3547076D01*
X9314412Y-3313814D01*
X9407292Y-3064793D01*
X9463786Y-2805092D01*
X9482745Y-2539999D01*
X9463786Y-2274907D01*
X9407292Y-2015206D01*
X9323106Y-1789497D01*
X9318041Y-1718681D01*
X9352066Y-1656369D01*
X9414378Y-1622344D01*
X9485194Y-1627408D01*
X9495832Y-1631942D01*
X9515746Y-1641532D01*
X9515749Y-1641532D01*
X9515754Y-1641535D01*
X9767589Y-1719215D01*
X9767591Y-1719215D01*
X9767600Y-1719218D01*
X10028219Y-1758500D01*
X10028223Y-1758500D01*
X10291777Y-1758500D01*
X10291781Y-1758500D01*
X10552400Y-1719218D01*
X10554141Y-1718681D01*
X10804245Y-1641535D01*
X10804247Y-1641534D01*
X10804254Y-1641532D01*
X10824166Y-1631942D01*
X10894218Y-1620406D01*
X10959388Y-1648574D01*
X10998983Y-1707504D01*
X11000433Y-1778486D01*
X10996893Y-1789496D01*
X10912708Y-2015203D01*
X10856213Y-2274907D01*
X10837254Y-2540000D01*
X10856213Y-2805092D01*
X10912707Y-3064793D01*
X11005587Y-3313814D01*
X11132958Y-3547076D01*
X11218903Y-3661885D01*
X11218903Y-3661886D01*
X11946806Y-2933982D01*
X11992316Y-3019822D01*
X12112009Y-3160735D01*
X12259195Y-3272623D01*
X12305269Y-3293939D01*
X11578112Y-4021095D01*
X11578113Y-4021096D01*
X11692919Y-4107039D01*
X11926185Y-4234412D01*
X12175206Y-4327292D01*
X12434907Y-4383786D01*
X12700000Y-4402745D01*
X12965092Y-4383786D01*
X13224793Y-4327292D01*
X13473814Y-4234412D01*
X13707076Y-4107042D01*
X13821885Y-4021095D01*
X13821886Y-4021095D01*
X13095077Y-3294286D01*
X13217431Y-3220669D01*
X13351658Y-3093523D01*
X13455413Y-2940495D01*
X13456635Y-2937426D01*
X14181095Y-3661886D01*
X14181095Y-3661885D01*
X14267042Y-3547076D01*
X14394412Y-3313814D01*
X14487292Y-3064793D01*
X14543786Y-2805092D01*
X14562745Y-2539999D01*
X14543786Y-2274907D01*
X14487292Y-2015206D01*
X14394412Y-1766185D01*
X14267039Y-1532919D01*
X14181096Y-1418113D01*
X14181095Y-1418112D01*
X13453192Y-2146015D01*
X13407684Y-2060178D01*
X13287991Y-1919265D01*
X13140805Y-1807377D01*
X13094729Y-1786059D01*
X13821886Y-1058903D01*
X13707076Y-972958D01*
X13473814Y-845587D01*
X13224793Y-752707D01*
X12965092Y-696213D01*
X12700000Y-677254D01*
X12434907Y-696213D01*
X12175203Y-752708D01*
X11945811Y-838267D01*
X11874995Y-843331D01*
X11812683Y-809306D01*
X11778658Y-746994D01*
X11783723Y-676178D01*
X11784453Y-674271D01*
X11845087Y-519780D01*
X11903735Y-262826D01*
X11923431Y0D01*
X11903735Y262826D01*
X11845087Y519780D01*
X11784488Y674181D01*
X11778221Y744898D01*
X11811182Y807780D01*
X11872906Y842859D01*
X11943798Y838999D01*
X11945812Y838268D01*
X12175206Y752708D01*
X12434907Y696214D01*
X12700000Y677255D01*
X12965092Y696214D01*
X13224793Y752708D01*
X13473814Y845588D01*
X13707076Y972958D01*
X13821885Y1058905D01*
X13821886Y1058905D01*
X13095077Y1785714D01*
X13217431Y1859331D01*
X13351658Y1986477D01*
X13455413Y2139505D01*
X13456635Y2142574D01*
X14181095Y1418114D01*
X14181095Y1418115D01*
X14267042Y1532924D01*
X14394412Y1766186D01*
X14487292Y2015207D01*
X14543786Y2274908D01*
X14562745Y2540001D01*
X14543786Y2805093D01*
X14487292Y3064794D01*
X14394412Y3313815D01*
X14267039Y3547081D01*
X14181096Y3661887D01*
X14181095Y3661888D01*
X13453192Y2933985D01*
X13407684Y3019822D01*
X13287991Y3160735D01*
X13140805Y3272623D01*
X13094729Y3293940D01*
X13821886Y4021097D01*
X13707076Y4107042D01*
X13473814Y4234413D01*
X13224793Y4327293D01*
X12965092Y4383787D01*
X12700000Y4402746D01*
X12434907Y4383787D01*
X12175206Y4327293D01*
X11926185Y4234413D01*
X11692924Y4107043D01*
X11578113Y4021098D01*
X11578112Y4021097D01*
X12304922Y3294287D01*
X12182569Y3220669D01*
X12048342Y3093523D01*
X11944587Y2940495D01*
X11943364Y2937427D01*
X11218903Y3661888D01*
X11218902Y3661887D01*
X11132957Y3547076D01*
X11005586Y3313812D01*
X11005583Y3313805D01*
X10938286Y3133376D01*
X10895740Y3076540D01*
X10829219Y3051730D01*
X10759845Y3066822D01*
X10718295Y3103348D01*
X10691818Y3139789D01*
X10688562Y3144747D01*
X10664542Y3185363D01*
X10664540Y3185365D01*
X10664540Y3185366D01*
X10650218Y3199688D01*
X10637377Y3214721D01*
X10635362Y3217494D01*
X10625472Y3231107D01*
X10589108Y3261190D01*
X10584736Y3265169D01*
X9143244Y4706661D01*
X9133279Y4719099D01*
X9133052Y4718910D01*
X9128001Y4725016D01*
X9128000Y4725018D01*
X9077626Y4772322D01*
X9076237Y4773668D01*
X9065990Y4783915D01*
X9055776Y4794130D01*
X9055772Y4794134D01*
X9050225Y4798437D01*
X9045717Y4802288D01*
X9011325Y4834583D01*
X9011319Y4834587D01*
X8993563Y4844349D01*
X8977047Y4855198D01*
X8961041Y4867614D01*
X8930289Y4880922D01*
X8917740Y4886352D01*
X8912408Y4888964D01*
X8871061Y4911695D01*
X8851436Y4916734D01*
X8832736Y4923136D01*
X8814145Y4931181D01*
X8814143Y4931182D01*
X8814142Y4931182D01*
X8767542Y4938563D01*
X8761729Y4939767D01*
X8716030Y4951500D01*
X8695776Y4951500D01*
X8676066Y4953051D01*
X8656057Y4956220D01*
X8656056Y4956220D01*
X8609083Y4951780D01*
X8603150Y4951500D01*
X7871500Y4951500D01*
X7803379Y4971502D01*
X7756886Y5025158D01*
X7745500Y5077499D01*
X7745500Y5137556D01*
X7745500Y5309815D01*
X7765501Y5377932D01*
X7819156Y5424425D01*
X7889430Y5434530D01*
X7954011Y5405037D01*
X7972365Y5385324D01*
X7980738Y5374139D01*
X8097792Y5286513D01*
X8097794Y5286512D01*
X8097796Y5286511D01*
X8156875Y5264476D01*
X8234795Y5235412D01*
X8234803Y5235410D01*
X8295350Y5228901D01*
X8295355Y5228901D01*
X8295362Y5228900D01*
X8295368Y5228900D01*
X8692632Y5228900D01*
X8692638Y5228900D01*
X8692645Y5228901D01*
X8692649Y5228901D01*
X8753196Y5235410D01*
X8753199Y5235411D01*
X8753201Y5235411D01*
X8775682Y5243797D01*
X8846496Y5248862D01*
X8863746Y5243797D01*
X8884904Y5235906D01*
X8884903Y5235906D01*
X8945402Y5229401D01*
X8945415Y5229400D01*
X8994000Y5229400D01*
X8994000Y5314488D01*
X9014002Y5382609D01*
X9019132Y5389997D01*
X9043132Y5422057D01*
X9099968Y5464604D01*
X9170784Y5469668D01*
X9233096Y5435643D01*
X9244868Y5422057D01*
X9268868Y5389997D01*
X9293679Y5323477D01*
X9294000Y5314488D01*
X9294000Y5229400D01*
X9342585Y5229400D01*
X9342597Y5229401D01*
X9403093Y5235906D01*
X9403095Y5235906D01*
X9424248Y5243796D01*
X9495063Y5248862D01*
X9512314Y5243797D01*
X9527756Y5238038D01*
X9534799Y5235411D01*
X9534801Y5235411D01*
X9534804Y5235410D01*
X9595350Y5228901D01*
X9595355Y5228901D01*
X9595362Y5228900D01*
X9595368Y5228900D01*
X9992632Y5228900D01*
X9992638Y5228900D01*
X9992645Y5228901D01*
X9992649Y5228901D01*
X10053196Y5235410D01*
X10053199Y5235411D01*
X10053201Y5235411D01*
X10190204Y5286511D01*
X10307261Y5374139D01*
X10352469Y5434530D01*
X10394887Y5491193D01*
X10394887Y5491194D01*
X10394889Y5491196D01*
X10413906Y5542184D01*
X10456450Y5599016D01*
X10522970Y5623827D01*
X10535743Y5623447D01*
X10535743Y5623650D01*
X10543999Y5623650D01*
X10543999Y5623651D01*
X10544001Y5623650D01*
X10583881Y5628900D01*
X10583886Y5628900D01*
X10661792Y5639157D01*
X10683458Y5642009D01*
X10683458Y5642008D01*
X10683462Y5642010D01*
X10702852Y5644562D01*
X10850877Y5705876D01*
X10946073Y5778923D01*
X10946073Y5778924D01*
X10954292Y5785230D01*
X10954301Y5785238D01*
X10977988Y5803413D01*
X10999962Y5832052D01*
X11005389Y5838241D01*
X11434145Y6266996D01*
X11496458Y6301021D01*
X11523241Y6303900D01*
X12967685Y6303900D01*
X12975917Y6303360D01*
X12987668Y6301814D01*
X13011696Y6298650D01*
X13051576Y6303900D01*
X13051582Y6303900D01*
X13170547Y6319562D01*
X13318572Y6380876D01*
X13341875Y6398758D01*
X13369250Y6419762D01*
X13369250Y6419764D01*
X13413768Y6453922D01*
X13413769Y6453924D01*
X13420591Y6459158D01*
X13420604Y6459169D01*
X13445684Y6478413D01*
X13467664Y6507058D01*
X13473088Y6513243D01*
X14194592Y7234747D01*
X14256902Y7268771D01*
X14327717Y7263706D01*
X14331852Y7262079D01*
X14333428Y7261426D01*
X14503372Y7227622D01*
X14503373Y7227622D01*
X14676643Y7227622D01*
X14676644Y7227622D01*
X14846588Y7261426D01*
X15006671Y7327734D01*
X15150743Y7423999D01*
X15177865Y7451123D01*
X15177880Y7451135D01*
X15183806Y7457062D01*
X15183809Y7457063D01*
X15221707Y7494964D01*
X15227887Y7500384D01*
X15256535Y7522365D01*
X15278675Y7551220D01*
X15284096Y7557401D01*
X15314055Y7587358D01*
X15410316Y7731418D01*
X15476624Y7891487D01*
X15510433Y8061417D01*
X15510443Y8222710D01*
X15530448Y8290824D01*
X15584106Y8337314D01*
X15654380Y8347415D01*
X15702587Y8329940D01*
X15762662Y8292885D01*
X15930974Y8237113D01*
X16034855Y8226500D01*
X17035944Y8226501D01*
X17139826Y8237113D01*
X17254480Y8275105D01*
X17294113Y8281500D01*
X17653500Y8281500D01*
X17721621Y8261498D01*
X17768114Y8207842D01*
X17779500Y8155500D01*
X17779500Y8079351D01*
X17786009Y8018804D01*
X17786011Y8018796D01*
X17837110Y7881798D01*
X17837112Y7881793D01*
X17924737Y7764741D01*
X17924738Y7764741D01*
X17924739Y7764739D01*
X17933306Y7758326D01*
X17983760Y7720556D01*
X18026306Y7663720D01*
X18031370Y7592904D01*
X17997345Y7530592D01*
X17983760Y7518821D01*
X17925096Y7474905D01*
X17837555Y7357966D01*
X17837555Y7357965D01*
X17786505Y7221094D01*
X17780000Y7160598D01*
X17780000Y6604000D01*
X18683382Y6604000D01*
X18631553Y6514228D01*
X18601736Y6383593D01*
X18611749Y6249972D01*
X18660703Y6125240D01*
X18684021Y6096000D01*
X17780000Y6096000D01*
X17780000Y5539403D01*
X17786505Y5478907D01*
X17837555Y5342036D01*
X17837555Y5342035D01*
X17925095Y5225096D01*
X18042034Y5137556D01*
X18178906Y5086506D01*
X18239402Y5080001D01*
X18239415Y5080000D01*
X18796000Y5080000D01*
X18796000Y5985195D01*
X18854960Y5944996D01*
X18983002Y5905500D01*
X19083312Y5905500D01*
X19182499Y5920450D01*
X19303224Y5978588D01*
X19304000Y5979309D01*
X19304000Y5080000D01*
X19860585Y5080000D01*
X19860597Y5080001D01*
X19921093Y5086506D01*
X20057964Y5137556D01*
X20057965Y5137556D01*
X20174903Y5225096D01*
X20219130Y5284176D01*
X20275966Y5326723D01*
X20346781Y5331789D01*
X20409094Y5297764D01*
X20420866Y5284178D01*
X20465095Y5225097D01*
X20582034Y5137556D01*
X20718906Y5086506D01*
X20779402Y5080001D01*
X20779415Y5080000D01*
X21336000Y5080000D01*
X21336000Y5985195D01*
X21394960Y5944996D01*
X21523002Y5905500D01*
X21623312Y5905500D01*
X21722499Y5920450D01*
X21843224Y5978588D01*
X21844000Y5979309D01*
X21844000Y5080000D01*
X22400585Y5080000D01*
X22400597Y5080001D01*
X22461093Y5086506D01*
X22597964Y5137556D01*
X22597965Y5137556D01*
X22714904Y5225096D01*
X22802444Y5342035D01*
X22802444Y5342036D01*
X22853494Y5478907D01*
X22859999Y5539403D01*
X22860000Y5539415D01*
X22860000Y6096000D01*
X21956618Y6096000D01*
X22008447Y6185772D01*
X22038264Y6316407D01*
X22028251Y6450028D01*
X21979297Y6574760D01*
X21955979Y6604000D01*
X22860000Y6604000D01*
X22860000Y7160586D01*
X22859999Y7160598D01*
X22853494Y7221094D01*
X22802444Y7357965D01*
X22802444Y7357966D01*
X22714904Y7474905D01*
X22656240Y7518820D01*
X22613693Y7575656D01*
X22608629Y7646472D01*
X22642654Y7708784D01*
X22656240Y7720556D01*
X22715261Y7764739D01*
X22802887Y7881793D01*
X22802887Y7881794D01*
X22802889Y7881796D01*
X22853989Y8018799D01*
X22854172Y8020495D01*
X22860499Y8079351D01*
X22860500Y8079368D01*
X22860500Y9700633D01*
X22860499Y9700650D01*
X22853990Y9761197D01*
X22853988Y9761205D01*
X22807312Y9886346D01*
X22802889Y9898204D01*
X22802888Y9898206D01*
X22802887Y9898208D01*
X22715261Y10015262D01*
X22656657Y10059132D01*
X22614110Y10115968D01*
X22609046Y10186784D01*
X22643071Y10249096D01*
X22656657Y10260868D01*
X22715261Y10304739D01*
X22802887Y10421793D01*
X22802887Y10421794D01*
X22802889Y10421796D01*
X22853989Y10558799D01*
X22854237Y10561099D01*
X22860499Y10619351D01*
X22860500Y10619368D01*
X22860500Y12240633D01*
X22860499Y12240650D01*
X22853990Y12301197D01*
X22853988Y12301205D01*
X22807677Y12425366D01*
X22802889Y12438204D01*
X22802888Y12438206D01*
X22802887Y12438208D01*
X22715261Y12555262D01*
X22598207Y12642888D01*
X22598202Y12642890D01*
X22461204Y12693989D01*
X22461196Y12693991D01*
X22400649Y12700500D01*
X22400638Y12700500D01*
X20779362Y12700500D01*
X20779350Y12700500D01*
X20718803Y12693991D01*
X20718795Y12693989D01*
X20581797Y12642890D01*
X20581792Y12642888D01*
X20464738Y12555261D01*
X20420867Y12496657D01*
X20364031Y12454111D01*
X20293216Y12449047D01*
X20230904Y12483072D01*
X20219133Y12496657D01*
X20175261Y12555261D01*
X20058207Y12642888D01*
X20058202Y12642890D01*
X19921204Y12693989D01*
X19921196Y12693991D01*
X19860649Y12700500D01*
X19860638Y12700500D01*
X18239362Y12700500D01*
X18239350Y12700500D01*
X18178803Y12693991D01*
X18178795Y12693989D01*
X18041797Y12642890D01*
X18041792Y12642888D01*
X17924738Y12555262D01*
X17837112Y12438208D01*
X17837110Y12438203D01*
X17786011Y12301205D01*
X17786009Y12301197D01*
X17779500Y12240650D01*
X17779500Y12164500D01*
X17759498Y12096379D01*
X17705842Y12049886D01*
X17653500Y12038500D01*
X17294112Y12038500D01*
X17254481Y12044895D01*
X17139826Y12082887D01*
X17139824Y12082888D01*
X17139822Y12082888D01*
X17035953Y12093500D01*
X16347673Y12093500D01*
X16279552Y12113502D01*
X16233059Y12167158D01*
X16222955Y12237432D01*
X16252449Y12302012D01*
X16285995Y12327328D01*
X16285279Y12328490D01*
X16442339Y12425366D01*
X16442345Y12425371D01*
X16567629Y12550655D01*
X16567634Y12550661D01*
X16660657Y12701475D01*
X16716393Y12869679D01*
X16716394Y12869682D01*
X16726999Y12973484D01*
X16727000Y12973484D01*
X16727000Y13020000D01*
X15748000Y13020000D01*
X15748000Y12265999D01*
X15765205Y12248794D01*
X15774725Y12245998D01*
X15821218Y12192342D01*
X15831322Y12122068D01*
X15801828Y12057488D01*
X15768203Y12032109D01*
X15768908Y12030967D01*
X15762663Y12027116D01*
X15762662Y12027115D01*
X15692452Y11983810D01*
X15611747Y11934030D01*
X15611741Y11934025D01*
X15486375Y11808659D01*
X15486370Y11808653D01*
X15393285Y11657738D01*
X15337513Y11489428D01*
X15337512Y11489421D01*
X15326900Y11385554D01*
X15326900Y10776741D01*
X15306898Y10708620D01*
X15289995Y10687646D01*
X12610156Y8007805D01*
X12547844Y7973780D01*
X12521061Y7970900D01*
X11523240Y7970900D01*
X11455119Y7990902D01*
X11434145Y8007805D01*
X11234108Y8207842D01*
X11005391Y8436559D01*
X10999964Y8442747D01*
X10977988Y8471387D01*
X10946075Y8495875D01*
X10946075Y8495876D01*
X10850883Y8568920D01*
X10850875Y8568925D01*
X10807519Y8586884D01*
X10702852Y8630238D01*
X10683208Y8632824D01*
X10683206Y8632825D01*
X10580228Y8646382D01*
X10580198Y8646385D01*
X10544003Y8651150D01*
X10535743Y8651150D01*
X10535743Y8653700D01*
X10478227Y8662685D01*
X10425141Y8709827D01*
X10413907Y8732614D01*
X10403785Y8759752D01*
X10398720Y8830564D01*
X10432744Y8892876D01*
X10495056Y8926902D01*
X10534649Y8929129D01*
X10555485Y8927000D01*
X10602000Y8927000D01*
X10602000Y9906000D01*
X11110000Y9906000D01*
X11110000Y8927000D01*
X11156517Y8927000D01*
X11156516Y8927001D01*
X11260318Y8937606D01*
X11260321Y8937607D01*
X11428525Y8993343D01*
X11579339Y9086366D01*
X11579345Y9086371D01*
X11704629Y9211655D01*
X11704634Y9211661D01*
X11797657Y9362475D01*
X11853393Y9530679D01*
X11853394Y9530682D01*
X11863999Y9634484D01*
X11864000Y9634484D01*
X11864000Y9906000D01*
X11110000Y9906000D01*
X10602000Y9906000D01*
X10602000Y10288000D01*
X10622002Y10356121D01*
X10675658Y10402614D01*
X10728000Y10414000D01*
X11864000Y10414000D01*
X11864000Y10685517D01*
X11853394Y10789319D01*
X11853393Y10789322D01*
X11797657Y10957526D01*
X11704634Y11108340D01*
X11704629Y11108346D01*
X11579345Y11233630D01*
X11579339Y11233635D01*
X11428521Y11326660D01*
X11428522Y11326660D01*
X11327944Y11359988D01*
X11269572Y11400402D01*
X11242317Y11465958D01*
X11254831Y11535844D01*
X11280835Y11566420D01*
X11278532Y11568723D01*
X11284902Y11575094D01*
X11329132Y11634177D01*
X11385968Y11676724D01*
X11456783Y11681788D01*
X11519096Y11647763D01*
X11530868Y11634177D01*
X11575095Y11575096D01*
X11692034Y11487556D01*
X11828906Y11436506D01*
X11889402Y11430001D01*
X11889415Y11430000D01*
X12446000Y11430000D01*
X12446000Y12335195D01*
X12504960Y12294996D01*
X12633002Y12255500D01*
X12733312Y12255500D01*
X12832499Y12270450D01*
X12953224Y12328588D01*
X12954000Y12329309D01*
X12954000Y11430000D01*
X13510585Y11430000D01*
X13510597Y11430001D01*
X13571093Y11436506D01*
X13707964Y11487556D01*
X13707965Y11487556D01*
X13824904Y11575096D01*
X13912444Y11692035D01*
X13912444Y11692036D01*
X13963494Y11828907D01*
X13969999Y11889403D01*
X13970000Y11889415D01*
X13970000Y12446000D01*
X13066618Y12446000D01*
X13118447Y12535772D01*
X13148264Y12666407D01*
X13138251Y12800028D01*
X13089297Y12924760D01*
X13065979Y12954000D01*
X13970000Y12954000D01*
X13970000Y13020000D01*
X14261000Y13020000D01*
X14261000Y12973484D01*
X14271605Y12869682D01*
X14271606Y12869679D01*
X14327342Y12701475D01*
X14420365Y12550661D01*
X14420370Y12550655D01*
X14545654Y12425371D01*
X14545660Y12425366D01*
X14696474Y12332343D01*
X14864678Y12276607D01*
X14864681Y12276606D01*
X14968483Y12266001D01*
X14968483Y12266000D01*
X15240000Y12266000D01*
X15240000Y13020000D01*
X14261000Y13020000D01*
X13970000Y13020000D01*
X13970000Y13510586D01*
X13969999Y13510598D01*
X13963494Y13571094D01*
X13912444Y13707965D01*
X13912444Y13707966D01*
X13824904Y13824905D01*
X13766240Y13868820D01*
X13723693Y13925656D01*
X13718629Y13996472D01*
X13752654Y14058784D01*
X13766240Y14070556D01*
X13825261Y14114739D01*
X13912887Y14231793D01*
X13912887Y14231794D01*
X13912889Y14231796D01*
X13963989Y14368799D01*
X13964657Y14375004D01*
X13970499Y14429351D01*
X13970500Y14429368D01*
X13970500Y14480500D01*
X13990502Y14548621D01*
X14044158Y14595114D01*
X14096500Y14606500D01*
X14253332Y14606500D01*
X14321453Y14586498D01*
X14360570Y14546650D01*
X14397182Y14487293D01*
X14419970Y14450348D01*
X14419975Y14450342D01*
X14545345Y14324972D01*
X14548450Y14322517D01*
X14550027Y14320290D01*
X14550537Y14319780D01*
X14550449Y14319693D01*
X14589481Y14264578D01*
X14592673Y14193653D01*
X14557014Y14132261D01*
X14548454Y14124843D01*
X14545654Y14122630D01*
X14420370Y13997346D01*
X14420365Y13997340D01*
X14327342Y13846526D01*
X14271606Y13678322D01*
X14271605Y13678319D01*
X14261000Y13574517D01*
X14261000Y13528000D01*
X16727000Y13528000D01*
X16727000Y13574517D01*
X16716394Y13678319D01*
X16716393Y13678322D01*
X16660657Y13846526D01*
X16567634Y13997340D01*
X16567629Y13997346D01*
X16561382Y14003593D01*
X18601736Y14003593D01*
X18611749Y13869972D01*
X18660703Y13745240D01*
X18744248Y13640478D01*
X18854960Y13564996D01*
X18983002Y13525500D01*
X19083312Y13525500D01*
X19182499Y13540450D01*
X19303224Y13598588D01*
X19401450Y13689728D01*
X19468447Y13805772D01*
X19498264Y13936407D01*
X19493229Y14003593D01*
X21141736Y14003593D01*
X21151749Y13869972D01*
X21200703Y13745240D01*
X21284248Y13640478D01*
X21394960Y13564996D01*
X21523002Y13525500D01*
X21623312Y13525500D01*
X21722499Y13540450D01*
X21843224Y13598588D01*
X21941450Y13689728D01*
X22008447Y13805772D01*
X22038264Y13936407D01*
X22028251Y14070028D01*
X21979297Y14194760D01*
X21895752Y14299522D01*
X21785040Y14375004D01*
X21656998Y14414500D01*
X21556688Y14414500D01*
X21457501Y14399550D01*
X21336776Y14341412D01*
X21238550Y14250272D01*
X21171553Y14134228D01*
X21141736Y14003593D01*
X19493229Y14003593D01*
X19488251Y14070028D01*
X19439297Y14194760D01*
X19355752Y14299522D01*
X19245040Y14375004D01*
X19116998Y14414500D01*
X19016688Y14414500D01*
X18917501Y14399550D01*
X18796776Y14341412D01*
X18698550Y14250272D01*
X18631553Y14134228D01*
X18601736Y14003593D01*
X16561382Y14003593D01*
X16442344Y14122631D01*
X16439551Y14124839D01*
X16438131Y14126844D01*
X16437150Y14127825D01*
X16437317Y14127993D01*
X16398519Y14182778D01*
X16395325Y14253702D01*
X16430983Y14315095D01*
X16439554Y14322522D01*
X16442639Y14324963D01*
X16442652Y14324970D01*
X16568030Y14450348D01*
X16661115Y14601262D01*
X16716887Y14769574D01*
X16727500Y14873455D01*
X16727499Y15474544D01*
X16726788Y15481500D01*
X16716887Y15578426D01*
X16692673Y15651501D01*
X16661115Y15746738D01*
X16568030Y15897652D01*
X16568029Y15897653D01*
X16568024Y15897659D01*
X16442658Y16023025D01*
X16442652Y16023030D01*
X16442652Y16023031D01*
X16291738Y16116115D01*
X16207581Y16144002D01*
X16123427Y16171887D01*
X16123420Y16171888D01*
X16019553Y16182500D01*
X14968455Y16182500D01*
X14864574Y16171888D01*
X14696261Y16116115D01*
X14545347Y16023030D01*
X14545341Y16023025D01*
X14432722Y15910405D01*
X14370410Y15876379D01*
X14343627Y15873500D01*
X14096500Y15873500D01*
X14028379Y15893502D01*
X13981886Y15947158D01*
X13970500Y15999500D01*
X13970500Y16050633D01*
X13970499Y16050650D01*
X13963990Y16111197D01*
X13963988Y16111205D01*
X13912889Y16248203D01*
X13912887Y16248208D01*
X13825260Y16365262D01*
X13766239Y16409446D01*
X13723693Y16466282D01*
X13718629Y16537098D01*
X13722176Y16543593D01*
X18601736Y16543593D01*
X18611749Y16409972D01*
X18660703Y16285240D01*
X18744248Y16180478D01*
X18854960Y16104996D01*
X18983002Y16065500D01*
X19083312Y16065500D01*
X19182499Y16080450D01*
X19303224Y16138588D01*
X19401450Y16229728D01*
X19468447Y16345772D01*
X19498264Y16476407D01*
X19493229Y16543593D01*
X21141736Y16543593D01*
X21151749Y16409972D01*
X21200703Y16285240D01*
X21284248Y16180478D01*
X21394960Y16104996D01*
X21523002Y16065500D01*
X21623312Y16065500D01*
X21722499Y16080450D01*
X21843224Y16138588D01*
X21941450Y16229728D01*
X22008447Y16345772D01*
X22038264Y16476407D01*
X22028251Y16610028D01*
X21979297Y16734760D01*
X21895752Y16839522D01*
X21785040Y16915004D01*
X21656998Y16954500D01*
X21556688Y16954500D01*
X21457501Y16939550D01*
X21336776Y16881412D01*
X21238550Y16790272D01*
X21171553Y16674228D01*
X21141736Y16543593D01*
X19493229Y16543593D01*
X19488251Y16610028D01*
X19439297Y16734760D01*
X19355752Y16839522D01*
X19245040Y16915004D01*
X19116998Y16954500D01*
X19016688Y16954500D01*
X18917501Y16939550D01*
X18796776Y16881412D01*
X18698550Y16790272D01*
X18631553Y16674228D01*
X18601736Y16543593D01*
X13722176Y16543593D01*
X13752654Y16599409D01*
X13766241Y16611182D01*
X13824904Y16655097D01*
X13912444Y16772035D01*
X13912444Y16772036D01*
X13963494Y16908907D01*
X13969999Y16969403D01*
X13970000Y16969415D01*
X13970000Y17526000D01*
X13066618Y17526000D01*
X13118447Y17615772D01*
X13148264Y17746407D01*
X13138251Y17880028D01*
X13089297Y18004760D01*
X13065979Y18034000D01*
X13970000Y18034000D01*
X13970000Y18590586D01*
X13969999Y18590598D01*
X13963494Y18651094D01*
X13912444Y18787965D01*
X13912444Y18787966D01*
X13824904Y18904905D01*
X13707965Y18992445D01*
X13571093Y19043495D01*
X13510597Y19050000D01*
X12954000Y19050000D01*
X12954000Y18144806D01*
X12895040Y18185004D01*
X12766998Y18224500D01*
X12666688Y18224500D01*
X12567501Y18209550D01*
X12446776Y18151412D01*
X12446000Y18150692D01*
X12446000Y19050000D01*
X12138700Y19050000D01*
X12070579Y19070002D01*
X12024086Y19123658D01*
X12012700Y19176000D01*
X12012700Y19215000D01*
X12032702Y19283121D01*
X12086358Y19329614D01*
X12122470Y19337470D01*
X12126000Y19340999D01*
X12126000Y20320000D01*
X12634000Y20320000D01*
X12634000Y19341000D01*
X12680517Y19341000D01*
X12680516Y19341001D01*
X12784318Y19351606D01*
X12784321Y19351607D01*
X12952525Y19407343D01*
X13103339Y19500366D01*
X13103345Y19500371D01*
X13228629Y19625655D01*
X13228634Y19625661D01*
X13321657Y19776475D01*
X13377393Y19944679D01*
X13377394Y19944682D01*
X13387999Y20048484D01*
X13388000Y20048484D01*
X13388000Y20320000D01*
X12634000Y20320000D01*
X12126000Y20320000D01*
X12126000Y21807000D01*
X12079483Y21807000D01*
X11975681Y21796395D01*
X11975678Y21796394D01*
X11807474Y21740658D01*
X11656660Y21647635D01*
X11656654Y21647630D01*
X11531370Y21522346D01*
X11529157Y21519546D01*
X11527149Y21518125D01*
X11526175Y21517150D01*
X11526008Y21517317D01*
X11471216Y21478518D01*
X11400291Y21475328D01*
X11338900Y21510989D01*
X11331483Y21519550D01*
X11329028Y21522655D01*
X11203658Y21648025D01*
X11203652Y21648030D01*
X11122698Y21697963D01*
X11052738Y21741115D01*
X10968582Y21769002D01*
X10884427Y21796887D01*
X10884420Y21796888D01*
X10780553Y21807500D01*
X10179455Y21807500D01*
X10075574Y21796888D01*
X9907261Y21741115D01*
X9756347Y21648030D01*
X9756344Y21648027D01*
X9741090Y21632774D01*
X9678776Y21598752D01*
X9607961Y21603820D01*
X9562904Y21632779D01*
X9547657Y21648026D01*
X9547653Y21648029D01*
X9547652Y21648030D01*
X9452324Y21706829D01*
X9404848Y21759613D01*
X9393445Y21829688D01*
X9400417Y21858099D01*
X9400908Y21859415D01*
X9400909Y21859416D01*
X9413328Y21892716D01*
X9455873Y21949550D01*
X9522393Y21974361D01*
X9527387Y21974618D01*
X9549960Y21975327D01*
X9569418Y21980981D01*
X9588765Y21984987D01*
X9608868Y21987526D01*
X9652750Y22004901D01*
X9658345Y22006817D01*
X9686887Y22015109D01*
X9703662Y22019981D01*
X9703666Y22019983D01*
X9721097Y22030292D01*
X9738851Y22038991D01*
X9757688Y22046448D01*
X9795857Y22074182D01*
X9800815Y22077438D01*
X9841433Y22101458D01*
X9855756Y22115782D01*
X9870795Y22128626D01*
X9887178Y22140528D01*
X9917259Y22176892D01*
X9921237Y22181264D01*
X10695571Y22955596D01*
X10757884Y22989621D01*
X10784667Y22992500D01*
X12002306Y22992500D01*
X12070427Y22972498D01*
X12091401Y22955595D01*
X13113601Y21933395D01*
X13147627Y21871083D01*
X13142562Y21800268D01*
X13100015Y21743432D01*
X13033495Y21718621D01*
X12964121Y21733712D01*
X12958359Y21737059D01*
X12952525Y21740658D01*
X12784321Y21796394D01*
X12784318Y21796395D01*
X12680516Y21807000D01*
X12634000Y21807000D01*
X12634000Y20828000D01*
X13388000Y20828000D01*
X13388000Y21099517D01*
X13377394Y21203319D01*
X13377393Y21203322D01*
X13321656Y21371528D01*
X13318060Y21377358D01*
X13299321Y21445837D01*
X13320579Y21513576D01*
X13375085Y21559069D01*
X13445534Y21567872D01*
X13509558Y21537189D01*
X13514394Y21532602D01*
X15289995Y19757001D01*
X15324021Y19694689D01*
X15326900Y19667906D01*
X15326900Y19094456D01*
X15337512Y18990575D01*
X15393285Y18822262D01*
X15486370Y18671348D01*
X15486375Y18671342D01*
X15611741Y18545976D01*
X15611747Y18545971D01*
X15611748Y18545970D01*
X15762662Y18452885D01*
X15930974Y18397113D01*
X16034855Y18386500D01*
X17035944Y18386501D01*
X17139826Y18397113D01*
X17179033Y18410105D01*
X17218665Y18416500D01*
X17653500Y18416500D01*
X17721621Y18396498D01*
X17768114Y18342842D01*
X17779500Y18290500D01*
X17779500Y18239351D01*
X17786009Y18178804D01*
X17786011Y18178796D01*
X17837110Y18041798D01*
X17837112Y18041793D01*
X17924738Y17924739D01*
X18041792Y17837113D01*
X18041794Y17837112D01*
X18041796Y17837111D01*
X18050955Y17833695D01*
X18178795Y17786012D01*
X18178803Y17786010D01*
X18239350Y17779501D01*
X18239355Y17779501D01*
X18239362Y17779500D01*
X18239368Y17779500D01*
X19860632Y17779500D01*
X19860638Y17779500D01*
X19860645Y17779501D01*
X19860649Y17779501D01*
X19921196Y17786010D01*
X19921199Y17786011D01*
X19921201Y17786011D01*
X20058204Y17837111D01*
X20079673Y17853182D01*
X20175261Y17924739D01*
X20219132Y17983343D01*
X20275968Y18025890D01*
X20346784Y18030954D01*
X20409096Y17996929D01*
X20420868Y17983343D01*
X20464738Y17924739D01*
X20581792Y17837113D01*
X20581794Y17837112D01*
X20581796Y17837111D01*
X20590955Y17833695D01*
X20718795Y17786012D01*
X20718803Y17786010D01*
X20779350Y17779501D01*
X20779355Y17779501D01*
X20779362Y17779500D01*
X20779368Y17779500D01*
X22400632Y17779500D01*
X22400638Y17779500D01*
X22400645Y17779501D01*
X22400649Y17779501D01*
X22461196Y17786010D01*
X22461199Y17786011D01*
X22461201Y17786011D01*
X22598204Y17837111D01*
X22619673Y17853182D01*
X22715261Y17924739D01*
X22802887Y18041793D01*
X22802887Y18041794D01*
X22802889Y18041796D01*
X22853989Y18178799D01*
X22854172Y18180495D01*
X22860499Y18239351D01*
X22860500Y18239368D01*
X22860500Y19860633D01*
X22860499Y19860650D01*
X22853990Y19921197D01*
X22853988Y19921205D01*
X22818114Y20017385D01*
X22802889Y20058204D01*
X22802888Y20058206D01*
X22802887Y20058208D01*
X22715260Y20175263D01*
X22656656Y20219134D01*
X22614110Y20275970D01*
X22609046Y20346786D01*
X22643072Y20409098D01*
X22656656Y20420868D01*
X22715261Y20464739D01*
X22802889Y20581796D01*
X22853989Y20718799D01*
X22860500Y20779362D01*
X22860500Y22400638D01*
X22860000Y22405289D01*
X22853990Y22461197D01*
X22853988Y22461205D01*
X22802889Y22598203D01*
X22802887Y22598208D01*
X22732943Y22691640D01*
X22715261Y22715261D01*
X22715260Y22715262D01*
X22656239Y22759446D01*
X22613693Y22816282D01*
X22608629Y22887098D01*
X22642654Y22949409D01*
X22656241Y22961182D01*
X22714904Y23005097D01*
X22802444Y23122035D01*
X22802444Y23122036D01*
X22853494Y23258907D01*
X22859999Y23319403D01*
X22860000Y23319415D01*
X22860000Y23876000D01*
X21956618Y23876000D01*
X22008447Y23965772D01*
X22038264Y24096407D01*
X22028251Y24230028D01*
X21979297Y24354760D01*
X21955979Y24384000D01*
X22860000Y24384000D01*
X22860000Y24940586D01*
X22859999Y24940598D01*
X22853494Y25001094D01*
X22802444Y25137965D01*
X22802444Y25137966D01*
X22714904Y25254905D01*
X22597965Y25342445D01*
X22461093Y25393495D01*
X22400597Y25400000D01*
X21844000Y25400000D01*
X21844000Y24494806D01*
X21785040Y24535004D01*
X21656998Y24574500D01*
X21556688Y24574500D01*
X21457501Y24559550D01*
X21336776Y24501412D01*
X21336000Y24500692D01*
X21336000Y25400000D01*
X20779402Y25400000D01*
X20718906Y25393495D01*
X20582035Y25342445D01*
X20582034Y25342445D01*
X20465097Y25254906D01*
X20420868Y25195823D01*
X20364031Y25153277D01*
X20293216Y25148213D01*
X20230904Y25182238D01*
X20219132Y25195823D01*
X20174902Y25254906D01*
X20057965Y25342445D01*
X19921093Y25393495D01*
X19860597Y25400000D01*
X19304000Y25400000D01*
X19304000Y24494806D01*
X19245040Y24535004D01*
X19116998Y24574500D01*
X19016688Y24574500D01*
X18917501Y24559550D01*
X18796776Y24501412D01*
X18796000Y24500692D01*
X18796000Y25400000D01*
X18239402Y25400000D01*
X18178906Y25393495D01*
X18042035Y25342445D01*
X18042034Y25342445D01*
X17925095Y25254905D01*
X17837555Y25137966D01*
X17837555Y25137965D01*
X17786505Y25001094D01*
X17780000Y24940598D01*
X17780000Y24384000D01*
X18683382Y24384000D01*
X18631553Y24294228D01*
X18601736Y24163593D01*
X18611749Y24029972D01*
X18660703Y23905240D01*
X18684021Y23876000D01*
X17780000Y23876000D01*
X17780000Y23319403D01*
X17786505Y23258907D01*
X17837555Y23122036D01*
X17837555Y23122035D01*
X17925095Y23005096D01*
X17983759Y22961181D01*
X18026306Y22904345D01*
X18031370Y22833530D01*
X17997345Y22771217D01*
X17983761Y22759446D01*
X17924738Y22715261D01*
X17837112Y22598208D01*
X17837110Y22598203D01*
X17786011Y22461205D01*
X17786009Y22461197D01*
X17779500Y22400650D01*
X17779500Y22349500D01*
X17759498Y22281379D01*
X17705842Y22234886D01*
X17653500Y22223500D01*
X17218665Y22223500D01*
X17179034Y22229895D01*
X17150757Y22239265D01*
X17139827Y22242887D01*
X17139820Y22242888D01*
X17035953Y22253500D01*
X16034855Y22253500D01*
X15930974Y22242888D01*
X15762661Y22187115D01*
X15611740Y22094026D01*
X15610420Y22092981D01*
X15609345Y22092548D01*
X15605502Y22090177D01*
X15605096Y22090835D01*
X15544577Y22066426D01*
X15474829Y22079683D01*
X15443184Y22102729D01*
X15352681Y22193232D01*
X15318655Y22255544D01*
X15318200Y22306921D01*
X15318782Y22309849D01*
X15318784Y22309852D01*
X15353365Y22483614D01*
X15353385Y22660785D01*
X15318843Y22834555D01*
X15251065Y22998248D01*
X15229365Y23030735D01*
X15152657Y23145574D01*
X15152655Y23145576D01*
X15149417Y23148815D01*
X15149292Y23148957D01*
X15146545Y23151704D01*
X15132221Y23166028D01*
X15119384Y23181058D01*
X15118915Y23181703D01*
X15107475Y23197450D01*
X15107472Y23197453D01*
X15074809Y23224474D01*
X15071164Y23227490D01*
X15066777Y23231482D01*
X15035644Y23262624D01*
X15033087Y23265182D01*
X15032918Y23265332D01*
X15013677Y23284573D01*
X15013676Y23284574D01*
X15012539Y23285711D01*
X15011964Y23286250D01*
X14979279Y23318947D01*
X14978579Y23319415D01*
X14831959Y23417416D01*
X14668253Y23485249D01*
X14668251Y23485250D01*
X14668250Y23485250D01*
X14494456Y23519836D01*
X14494451Y23519837D01*
X14494453Y23519837D01*
X14317255Y23519847D01*
X14317254Y23519847D01*
X14140420Y23484679D01*
X14069706Y23491010D01*
X14026748Y23519164D01*
X13031251Y24514661D01*
X13021286Y24527099D01*
X13021059Y24526910D01*
X13016008Y24533016D01*
X13016007Y24533018D01*
X13012388Y24536416D01*
X12965633Y24580322D01*
X12964243Y24581669D01*
X12948924Y24596988D01*
X12943783Y24602130D01*
X12943779Y24602134D01*
X12938232Y24606437D01*
X12933724Y24610288D01*
X12899332Y24642583D01*
X12899326Y24642587D01*
X12881570Y24652349D01*
X12865054Y24663198D01*
X12849048Y24675614D01*
X12818296Y24688922D01*
X12805747Y24694352D01*
X12800415Y24696964D01*
X12759068Y24719695D01*
X12739443Y24724734D01*
X12720743Y24731136D01*
X12702152Y24739181D01*
X12702150Y24739182D01*
X12702149Y24739182D01*
X12655549Y24746563D01*
X12649736Y24747767D01*
X12604037Y24759500D01*
X12583783Y24759500D01*
X12564073Y24761051D01*
X12544064Y24764220D01*
X12544063Y24764220D01*
X12497090Y24759780D01*
X12491157Y24759500D01*
X10784665Y24759500D01*
X10716544Y24779502D01*
X10695570Y24796405D01*
X9957318Y25534657D01*
X9947351Y25547098D01*
X9947124Y25546909D01*
X9942070Y25553019D01*
X9891697Y25600322D01*
X9890307Y25601669D01*
X9880061Y25611915D01*
X9869847Y25622130D01*
X9869843Y25622134D01*
X9864296Y25626437D01*
X9859788Y25630288D01*
X9825396Y25662583D01*
X9825390Y25662587D01*
X9807634Y25672349D01*
X9791118Y25683198D01*
X9775112Y25695614D01*
X9744360Y25708922D01*
X9731811Y25714352D01*
X9726479Y25716964D01*
X9685132Y25739695D01*
X9665507Y25744734D01*
X9646807Y25751136D01*
X9636535Y25755581D01*
X9628216Y25759181D01*
X9628214Y25759182D01*
X9628212Y25759182D01*
X9619403Y25760577D01*
X9555251Y25790991D01*
X9517725Y25851260D01*
X9518741Y25922249D01*
X9550020Y25974118D01*
X10548657Y26972755D01*
X10561092Y26982716D01*
X10560905Y26982943D01*
X10567016Y26987999D01*
X10567015Y26987999D01*
X10567018Y26988000D01*
X10614352Y27038408D01*
X10615667Y27039765D01*
X10636134Y27060230D01*
X10640429Y27065768D01*
X10644271Y27070269D01*
X10676586Y27104679D01*
X10686345Y27122433D01*
X10697197Y27138954D01*
X10709613Y27154959D01*
X10728352Y27198267D01*
X10730960Y27203586D01*
X10753853Y27245228D01*
X10804198Y27295287D01*
X10873615Y27310180D01*
X10940064Y27285179D01*
X10982322Y27228560D01*
X11005583Y27166196D01*
X11005586Y27166189D01*
X11132958Y26932924D01*
X11218903Y26818115D01*
X11218903Y26818114D01*
X11946806Y27546018D01*
X11992316Y27460178D01*
X12112009Y27319265D01*
X12259195Y27207377D01*
X12305269Y27186061D01*
X11578112Y26458905D01*
X11578113Y26458904D01*
X11692919Y26372961D01*
X11926185Y26245588D01*
X12175206Y26152708D01*
X12434907Y26096214D01*
X12699999Y26077255D01*
X12965092Y26096214D01*
X13224793Y26152708D01*
X13473814Y26245588D01*
X13707076Y26372958D01*
X13821885Y26458905D01*
X13821886Y26458905D01*
X13095077Y27185714D01*
X13217431Y27259331D01*
X13351658Y27386477D01*
X13455413Y27539505D01*
X13456635Y27542574D01*
X14181095Y26818114D01*
X14181095Y26818115D01*
X14267042Y26932924D01*
X14394412Y27166186D01*
X14487292Y27415207D01*
X14543786Y27674908D01*
X14562745Y27940001D01*
X14543786Y28205093D01*
X14487292Y28464794D01*
X14394412Y28713815D01*
X14267039Y28947081D01*
X14181096Y29061887D01*
X14181095Y29061888D01*
X13453192Y28333985D01*
X13407684Y28419822D01*
X13287991Y28560735D01*
X13140805Y28672623D01*
X13094729Y28693941D01*
X13821886Y29421097D01*
X13707076Y29507042D01*
X13473814Y29634413D01*
X13224793Y29727293D01*
X12965092Y29783787D01*
X12699999Y29802746D01*
X12434907Y29783787D01*
X12175203Y29727292D01*
X11945811Y29641733D01*
X11874995Y29636669D01*
X11812683Y29670694D01*
X11778658Y29733006D01*
X11783723Y29803822D01*
X11784453Y29805729D01*
X11845087Y29960220D01*
X11903735Y30217174D01*
X11923431Y30480000D01*
X11903735Y30742826D01*
X11845087Y30999780D01*
X11784488Y31154181D01*
X11778221Y31224898D01*
X11811182Y31287780D01*
X11872906Y31322859D01*
X11943798Y31318999D01*
X11945812Y31318268D01*
X12175206Y31232708D01*
X12434907Y31176214D01*
X12699999Y31157255D01*
X12965092Y31176214D01*
X13224793Y31232708D01*
X13473814Y31325588D01*
X13707076Y31452958D01*
X13821885Y31538905D01*
X13821886Y31538905D01*
X13095077Y32265714D01*
X13217431Y32339331D01*
X13351658Y32466477D01*
X13455413Y32619505D01*
X13456635Y32622574D01*
X14181095Y31898114D01*
X14181095Y31898115D01*
X14267042Y32012924D01*
X14394412Y32246186D01*
X14487292Y32495207D01*
X14543786Y32754908D01*
X14562745Y33020000D01*
X14543786Y33285093D01*
X14487292Y33544794D01*
X14394412Y33793815D01*
X14267039Y34027081D01*
X14181096Y34141887D01*
X14181095Y34141888D01*
X13453192Y33413985D01*
X13407684Y33499822D01*
X13287991Y33640735D01*
X13140805Y33752623D01*
X13094729Y33773940D01*
X13821886Y34501097D01*
X13707076Y34587042D01*
X13473814Y34714413D01*
X13224793Y34807293D01*
X12965092Y34863787D01*
X12699999Y34882746D01*
X12434907Y34863787D01*
X12175206Y34807293D01*
X11926185Y34714413D01*
X11692924Y34587043D01*
X11578113Y34501098D01*
X11578112Y34501097D01*
X12304922Y33774287D01*
X12182569Y33700669D01*
X12048342Y33573523D01*
X11944587Y33420495D01*
X11943364Y33417427D01*
X11218903Y34141888D01*
X11218902Y34141887D01*
X11132957Y34027076D01*
X11005587Y33793815D01*
X10912707Y33544794D01*
X10856213Y33285093D01*
X10837254Y33020001D01*
X10856213Y32754908D01*
X10912707Y32495207D01*
X10996893Y32269498D01*
X11001958Y32198682D01*
X10967933Y32136370D01*
X10905620Y32102345D01*
X10834805Y32107409D01*
X10824169Y32111942D01*
X10804258Y32121531D01*
X10804245Y32121536D01*
X10552410Y32199216D01*
X10552402Y32199218D01*
X10552400Y32199218D01*
X10291781Y32238500D01*
X10028219Y32238500D01*
X9767600Y32199218D01*
X9767598Y32199218D01*
X9767589Y32199216D01*
X9515754Y32121536D01*
X9515740Y32121530D01*
X9495828Y32111941D01*
X9425775Y32100408D01*
X9360607Y32128579D01*
X9321014Y32187511D01*
X9319568Y32258493D01*
X9323107Y32269498D01*
X9407290Y32495201D01*
X9463786Y32754908D01*
X9482745Y33020000D01*
X9463786Y33285093D01*
X9407292Y33544794D01*
X9314412Y33793815D01*
X9187039Y34027081D01*
X9101096Y34141887D01*
X9101095Y34141887D01*
X8373192Y33413984D01*
X8327684Y33499822D01*
X8207991Y33640735D01*
X8060805Y33752623D01*
X8014729Y33773940D01*
X8741886Y34501097D01*
X8627076Y34587042D01*
X8393814Y34714413D01*
X8144793Y34807293D01*
X7885092Y34863787D01*
X7620000Y34882746D01*
X7354907Y34863787D01*
X7095206Y34807293D01*
X6846185Y34714413D01*
X6612924Y34587043D01*
X6498113Y34501098D01*
X6498112Y34501097D01*
X7224922Y33774287D01*
X7102569Y33700669D01*
X6968342Y33573523D01*
X6864587Y33420495D01*
X6863364Y33417427D01*
X6138903Y34141888D01*
X6138902Y34141887D01*
X6052957Y34027076D01*
X5925587Y33793815D01*
X5832707Y33544794D01*
X5776213Y33285093D01*
X5757254Y33020001D01*
X5776213Y32754908D01*
X5832707Y32495207D01*
X5925587Y32246186D01*
X6052958Y32012924D01*
X6138903Y31898115D01*
X6138903Y31898114D01*
X6866806Y32626018D01*
X6912316Y32540178D01*
X7032009Y32399265D01*
X7179195Y32287377D01*
X7225269Y32266061D01*
X6498113Y31538905D01*
X6498113Y31538904D01*
X6612919Y31452961D01*
X6846185Y31325588D01*
X7095206Y31232708D01*
X7354907Y31176214D01*
X7620000Y31157255D01*
X7885092Y31176214D01*
X8144793Y31232708D01*
X8374187Y31318268D01*
X8445003Y31323333D01*
X8507315Y31289308D01*
X8541340Y31226996D01*
X8536276Y31156180D01*
X8535510Y31154179D01*
X8474911Y30999776D01*
X8416266Y30742831D01*
X8416265Y30742826D01*
X8396569Y30480000D01*
X8416265Y30217174D01*
X8416266Y30217170D01*
X8474911Y29960225D01*
X8535510Y29805822D01*
X8541778Y29735102D01*
X8508817Y29672221D01*
X8447092Y29637142D01*
X8376201Y29641002D01*
X8374188Y29641733D01*
X8144796Y29727292D01*
X7885092Y29783787D01*
X7620000Y29802746D01*
X7354907Y29783787D01*
X7095206Y29727293D01*
X6846185Y29634413D01*
X6612924Y29507043D01*
X6498113Y29421098D01*
X6498112Y29421097D01*
X7224922Y28694287D01*
X7102569Y28620669D01*
X6968342Y28493523D01*
X6864587Y28340495D01*
X6863364Y28337427D01*
X6138903Y29061888D01*
X6138902Y29061887D01*
X6052957Y28947076D01*
X5925587Y28713815D01*
X5832707Y28464794D01*
X5776213Y28205093D01*
X5757254Y27940000D01*
X5776213Y27674908D01*
X5832707Y27415207D01*
X5925587Y27166186D01*
X6052958Y26932924D01*
X6138903Y26818115D01*
X6138903Y26818114D01*
X6866806Y27546018D01*
X6912316Y27460178D01*
X7032009Y27319265D01*
X7179195Y27207377D01*
X7225268Y27186062D01*
X6482040Y26442833D01*
X6479908Y26433032D01*
X6458418Y26404326D01*
X6405834Y26351741D01*
X6393401Y26341780D01*
X6393589Y26341553D01*
X6387482Y26336501D01*
X6340194Y26286145D01*
X6338819Y26284726D01*
X6318363Y26264269D01*
X6314060Y26258723D01*
X6310214Y26254221D01*
X6277917Y26219826D01*
X6277911Y26219817D01*
X6268151Y26202065D01*
X6257303Y26185550D01*
X6244886Y26169542D01*
X6226145Y26126236D01*
X6223534Y26120906D01*
X6200805Y26079561D01*
X6200803Y26079556D01*
X6195767Y26059941D01*
X6189364Y26041238D01*
X6178171Y26015371D01*
X6177616Y26015611D01*
X6161460Y25983221D01*
X6093613Y25892588D01*
X6093610Y25892583D01*
X6042511Y25755585D01*
X6042509Y25755577D01*
X6036000Y25695030D01*
X6036000Y24596971D01*
X6042509Y24536424D01*
X6042511Y24536416D01*
X6093610Y24399418D01*
X6093612Y24399413D01*
X6181238Y24282359D01*
X6298292Y24194733D01*
X6298294Y24194732D01*
X6298296Y24194731D01*
X6357375Y24172696D01*
X6435295Y24143632D01*
X6435303Y24143630D01*
X6495850Y24137121D01*
X6495855Y24137121D01*
X6495862Y24137120D01*
X6495868Y24137120D01*
X7093132Y24137120D01*
X7093138Y24137120D01*
X7093145Y24137121D01*
X7093149Y24137121D01*
X7153696Y24143630D01*
X7153696Y24143631D01*
X7153701Y24143631D01*
X7227434Y24171133D01*
X7298245Y24176198D01*
X7315497Y24171132D01*
X7387898Y24144128D01*
X7387906Y24144126D01*
X7448402Y24137621D01*
X7448415Y24137620D01*
X7497000Y24137620D01*
X7497000Y24381004D01*
X7504944Y24425035D01*
X7546489Y24536419D01*
X7548424Y24554413D01*
X7552999Y24596971D01*
X7553000Y24596988D01*
X7553000Y25270000D01*
X7573002Y25338121D01*
X7626658Y25384614D01*
X7679000Y25396000D01*
X7815000Y25396000D01*
X7883121Y25375998D01*
X7929614Y25322342D01*
X7941000Y25270000D01*
X7941000Y24596971D01*
X7947509Y24536424D01*
X7947511Y24536419D01*
X7989055Y24425035D01*
X7997000Y24381004D01*
X7997000Y24137620D01*
X8045585Y24137620D01*
X8045597Y24137621D01*
X8106093Y24144126D01*
X8106098Y24144127D01*
X8178500Y24171132D01*
X8249316Y24176198D01*
X8266561Y24171134D01*
X8307958Y24155694D01*
X8340298Y24143631D01*
X8340303Y24143630D01*
X8400850Y24137121D01*
X8400855Y24137121D01*
X8400862Y24137120D01*
X8400868Y24137120D01*
X8998132Y24137120D01*
X8998138Y24137120D01*
X8998145Y24137121D01*
X8998149Y24137121D01*
X9058696Y24143630D01*
X9058699Y24143631D01*
X9058701Y24143631D01*
X9060034Y24144128D01*
X9077545Y24150660D01*
X9195704Y24194731D01*
X9285435Y24261904D01*
X9351952Y24286713D01*
X9421326Y24271622D01*
X9450037Y24250129D01*
X9735070Y23965096D01*
X9769096Y23902784D01*
X9764031Y23831969D01*
X9735070Y23786906D01*
X9450259Y23502095D01*
X9387947Y23468069D01*
X9317132Y23473134D01*
X9285655Y23490322D01*
X9196227Y23557268D01*
X9196222Y23557270D01*
X9059224Y23608369D01*
X9059216Y23608371D01*
X8998669Y23614880D01*
X8998658Y23614880D01*
X8400342Y23614880D01*
X8400330Y23614880D01*
X8339784Y23608371D01*
X8339780Y23608370D01*
X8267022Y23581232D01*
X8196206Y23576168D01*
X8178958Y23581232D01*
X8106199Y23608370D01*
X8106195Y23608371D01*
X8045649Y23614880D01*
X8045638Y23614880D01*
X7448362Y23614880D01*
X7448350Y23614880D01*
X7387804Y23608371D01*
X7387797Y23608369D01*
X7314780Y23581135D01*
X7243965Y23576071D01*
X7226722Y23581134D01*
X7153701Y23608369D01*
X7153700Y23608370D01*
X7153698Y23608370D01*
X7153695Y23608371D01*
X7093149Y23614880D01*
X7093138Y23614880D01*
X6495862Y23614880D01*
X6495850Y23614880D01*
X6435303Y23608371D01*
X6435295Y23608369D01*
X6298297Y23557270D01*
X6298292Y23557268D01*
X6181238Y23469642D01*
X6093611Y23352586D01*
X6082004Y23321466D01*
X6039457Y23264631D01*
X5972936Y23239821D01*
X5963949Y23239500D01*
X5417853Y23239500D01*
X5402011Y23241250D01*
X5401984Y23240956D01*
X5394091Y23241702D01*
X5325024Y23239531D01*
X5323045Y23239500D01*
X5294144Y23239500D01*
X5294140Y23239500D01*
X5294130Y23239499D01*
X5287179Y23238621D01*
X5281267Y23238156D01*
X5234112Y23236674D01*
X5234110Y23236673D01*
X5214655Y23231022D01*
X5195302Y23227014D01*
X5175210Y23224476D01*
X5175202Y23224474D01*
X5131336Y23207107D01*
X5125721Y23205184D01*
X5080407Y23192018D01*
X5080402Y23192016D01*
X5062963Y23181703D01*
X5045218Y23173010D01*
X5026380Y23165551D01*
X5007269Y23151665D01*
X4988212Y23137820D01*
X4983261Y23134567D01*
X4942640Y23110545D01*
X4928307Y23096213D01*
X4913281Y23083380D01*
X4896895Y23071474D01*
X4896894Y23071474D01*
X4866823Y23035126D01*
X4862827Y23030735D01*
X4617150Y22785058D01*
X4554838Y22751033D01*
X4484022Y22756098D01*
X4427187Y22798645D01*
X4402376Y22865166D01*
X4383786Y23125093D01*
X4327292Y23384794D01*
X4234412Y23633815D01*
X4107039Y23867081D01*
X4021096Y23981887D01*
X4021095Y23981888D01*
X3293192Y23253985D01*
X3247684Y23339822D01*
X3127991Y23480735D01*
X2980805Y23592623D01*
X2934729Y23613940D01*
X3661886Y24341097D01*
X3547076Y24427042D01*
X3313814Y24554413D01*
X3064793Y24647293D01*
X2805092Y24703787D01*
X2540000Y24722746D01*
X2274907Y24703787D01*
X2015206Y24647293D01*
X1766185Y24554413D01*
X1532924Y24427043D01*
X1418113Y24341098D01*
X1418112Y24341097D01*
X2144922Y23614287D01*
X2022569Y23540669D01*
X1888342Y23413523D01*
X1784587Y23260495D01*
X1783364Y23257427D01*
X1058903Y23981888D01*
X1058902Y23981887D01*
X972957Y23867076D01*
X845587Y23633815D01*
X752707Y23384794D01*
X696213Y23125093D01*
X677254Y22860000D01*
X696213Y22594908D01*
X752707Y22335207D01*
X836893Y22109498D01*
X841958Y22038682D01*
X807933Y21976370D01*
X745620Y21942345D01*
X674805Y21947409D01*
X664169Y21951942D01*
X644258Y21961531D01*
X644245Y21961536D01*
X392410Y22039216D01*
X392402Y22039218D01*
X392400Y22039218D01*
X131781Y22078500D01*
X-131781Y22078500D01*
X-392400Y22039218D01*
X-392402Y22039218D01*
X-392411Y22039216D01*
X-644246Y21961536D01*
X-644260Y21961530D01*
X-664172Y21951941D01*
X-734225Y21940408D01*
X-799393Y21968579D01*
X-838986Y22027511D01*
X-840432Y22098493D01*
X-836893Y22109498D01*
X-752710Y22335201D01*
X-696214Y22594908D01*
X-677255Y22860000D01*
X-696214Y23125093D01*
X-752708Y23384794D01*
X-845588Y23633815D01*
X-972961Y23867081D01*
X-1058904Y23981887D01*
X-1058905Y23981887D01*
X-1786808Y23253984D01*
X-1832316Y23339822D01*
X-1952009Y23480735D01*
X-2099195Y23592623D01*
X-2145271Y23613940D01*
X-1418114Y24341097D01*
X-1532924Y24427042D01*
X-1766186Y24554413D01*
X-2015207Y24647293D01*
X-2274908Y24703787D01*
X-2540000Y24722746D01*
X-2805093Y24703787D01*
X-3064794Y24647293D01*
X-3313815Y24554413D01*
X-3547076Y24427043D01*
X-3661887Y24341098D01*
X-3661888Y24341097D01*
X-2935078Y23614287D01*
X-3057431Y23540669D01*
X-3191658Y23413523D01*
X-3295413Y23260495D01*
X-3296636Y23257427D01*
X-4021097Y23981888D01*
X-4021098Y23981887D01*
X-4107043Y23867076D01*
X-4234413Y23633815D01*
X-4327293Y23384794D01*
X-4383787Y23125093D01*
X-4402746Y22860000D01*
X-4383787Y22594908D01*
X-4327293Y22335207D01*
X-4234413Y22086186D01*
X-4107042Y21852924D01*
X-4021097Y21738115D01*
X-4021097Y21738114D01*
X-3293194Y22466018D01*
X-3247684Y22380178D01*
X-3127991Y22239265D01*
X-2980805Y22127377D01*
X-2934731Y22106061D01*
X-3661887Y21378905D01*
X-3661887Y21378904D01*
X-3547081Y21292961D01*
X-3313815Y21165588D01*
X-3064794Y21072708D01*
X-2805093Y21016214D01*
X-2540000Y20997255D01*
X-2274908Y21016214D01*
X-2015207Y21072708D01*
X-1785813Y21158268D01*
X-1714997Y21163333D01*
X-1652685Y21129308D01*
X-1618660Y21066996D01*
X-1623724Y20996180D01*
X-1624490Y20994179D01*
X-1685089Y20839776D01*
X-1743734Y20582831D01*
X-1743735Y20582826D01*
X-1763431Y20320000D01*
X-1743735Y20057174D01*
X-1743734Y20057170D01*
X-1685089Y19800225D01*
X-1624490Y19645822D01*
X-1618222Y19575102D01*
X-1651183Y19512221D01*
X-1712908Y19477142D01*
X-1783799Y19481002D01*
X-1785812Y19481733D01*
X-2015204Y19567292D01*
X-2274908Y19623787D01*
X-2540000Y19642746D01*
X-2805093Y19623787D01*
X-3064794Y19567293D01*
X-3313815Y19474413D01*
X-3547076Y19347043D01*
X-3661887Y19261098D01*
X-3661888Y19261097D01*
X-2935078Y18534287D01*
X-3057431Y18460669D01*
X-3191658Y18333523D01*
X-3295413Y18180495D01*
X-3296636Y18177427D01*
X-4021097Y18901888D01*
X-4021098Y18901887D01*
X-4107043Y18787076D01*
X-4234413Y18553815D01*
X-4327293Y18304794D01*
X-4383787Y18045093D01*
X-4402746Y17780000D01*
X-4383787Y17514908D01*
X-4327293Y17255207D01*
X-4234413Y17006186D01*
X-4107042Y16772924D01*
X-4021097Y16658115D01*
X-4021097Y16658114D01*
X-3293194Y17386018D01*
X-3247684Y17300178D01*
X-3127991Y17159265D01*
X-2980805Y17047377D01*
X-2934731Y17026061D01*
X-3661888Y16298905D01*
X-3661887Y16298904D01*
X-3547081Y16212961D01*
X-3313815Y16085588D01*
X-3064794Y15992708D01*
X-2805093Y15936214D01*
X-2540000Y15917255D01*
X-2274908Y15936214D01*
X-2015207Y15992708D01*
X-1766186Y16085588D01*
X-1532924Y16212958D01*
X-1418115Y16298905D01*
X-1418114Y16298905D01*
X-2144923Y17025714D01*
X-2022569Y17099331D01*
X-1888342Y17226477D01*
X-1784587Y17379505D01*
X-1783365Y17382574D01*
X-1058905Y16658114D01*
X-1058905Y16658115D01*
X-972958Y16772924D01*
X-845588Y17006186D01*
X-752708Y17255207D01*
X-696214Y17514908D01*
X-677255Y17780000D01*
X-696214Y18045093D01*
X-752708Y18304794D01*
X-836894Y18530503D01*
X-841959Y18601319D01*
X-807934Y18663631D01*
X-745622Y18697656D01*
X-674806Y18692592D01*
X-664168Y18688058D01*
X-644254Y18678468D01*
X-644251Y18678468D01*
X-644246Y18678465D01*
X-392411Y18600785D01*
X-392409Y18600785D01*
X-392400Y18600782D01*
X-131781Y18561500D01*
X-131777Y18561500D01*
X131777Y18561500D01*
X131781Y18561500D01*
X392400Y18600782D01*
X394141Y18601319D01*
X644245Y18678465D01*
X644247Y18678466D01*
X644254Y18678468D01*
X664166Y18688058D01*
X734218Y18699594D01*
X799388Y18671426D01*
X838983Y18612496D01*
X840433Y18541514D01*
X836893Y18530504D01*
X752708Y18304797D01*
X696213Y18045093D01*
X677254Y17780000D01*
X696213Y17514908D01*
X752707Y17255207D01*
X845587Y17006186D01*
X972958Y16772924D01*
X1058903Y16658115D01*
X1058903Y16658114D01*
X1786806Y17386018D01*
X1832316Y17300178D01*
X1952009Y17159265D01*
X2099195Y17047377D01*
X2145269Y17026061D01*
X1418112Y16298905D01*
X1418113Y16298904D01*
X1532919Y16212961D01*
X1766185Y16085588D01*
X2015206Y15992708D01*
X2274907Y15936214D01*
X2540000Y15917255D01*
X2805092Y15936214D01*
X3064793Y15992708D01*
X3313814Y16085588D01*
X3547076Y16212958D01*
X3661885Y16298905D01*
X3661886Y16298905D01*
X2935077Y17025714D01*
X3057431Y17099331D01*
X3191658Y17226477D01*
X3295413Y17379505D01*
X3296635Y17382574D01*
X4021095Y16658114D01*
X4021095Y16658115D01*
X4107042Y16772924D01*
X4234412Y17006186D01*
X4327292Y17255207D01*
X4383786Y17514908D01*
X4402745Y17780001D01*
X4383786Y18045093D01*
X4327292Y18304794D01*
X4234412Y18553815D01*
X4107039Y18787081D01*
X4021096Y18901887D01*
X4021095Y18901888D01*
X3293192Y18173985D01*
X3247684Y18259822D01*
X3127991Y18400735D01*
X2980805Y18512623D01*
X2934729Y18533941D01*
X3661886Y19261097D01*
X3547076Y19347042D01*
X3313811Y19474414D01*
X3313804Y19474417D01*
X3273652Y19489393D01*
X3216816Y19531939D01*
X3192006Y19598460D01*
X3207098Y19667834D01*
X3257300Y19718036D01*
X3282537Y19728446D01*
X3301591Y19733981D01*
X3301595Y19733983D01*
X3319026Y19744292D01*
X3336780Y19752991D01*
X3355617Y19760448D01*
X3393786Y19788182D01*
X3398744Y19791438D01*
X3439362Y19815458D01*
X3453685Y19829782D01*
X3468724Y19842626D01*
X3485107Y19854528D01*
X3515193Y19890897D01*
X3519161Y19895259D01*
X3943902Y20320000D01*
X5916000Y20320000D01*
X5916000Y20048484D01*
X5926605Y19944682D01*
X5926606Y19944679D01*
X5982342Y19776475D01*
X6075365Y19625661D01*
X6075370Y19625655D01*
X6200654Y19500371D01*
X6200660Y19500366D01*
X6351474Y19407343D01*
X6519678Y19351607D01*
X6519681Y19351606D01*
X6623483Y19341001D01*
X6623483Y19341000D01*
X6670000Y19341000D01*
X6670000Y20320000D01*
X5916000Y20320000D01*
X3943902Y20320000D01*
X5559498Y21935595D01*
X5621811Y21969621D01*
X5648594Y21972500D01*
X5963949Y21972500D01*
X6032070Y21952498D01*
X6078563Y21898842D01*
X6082004Y21890534D01*
X6093611Y21859415D01*
X6164676Y21764483D01*
X6189487Y21697963D01*
X6174395Y21628588D01*
X6152904Y21599879D01*
X6075365Y21522340D01*
X5982342Y21371526D01*
X5926606Y21203322D01*
X5926605Y21203319D01*
X5916000Y21099517D01*
X5916000Y20828000D01*
X7052000Y20828000D01*
X7120121Y20807998D01*
X7166614Y20754342D01*
X7178000Y20702000D01*
X7178000Y19341000D01*
X7224517Y19341000D01*
X7224516Y19341001D01*
X7328318Y19351606D01*
X7328321Y19351607D01*
X7496525Y19407343D01*
X7647339Y19500366D01*
X7647345Y19500371D01*
X7772624Y19625650D01*
X7774832Y19628442D01*
X7776837Y19629863D01*
X7777825Y19630850D01*
X7777993Y19630682D01*
X7832768Y19669478D01*
X7903693Y19672677D01*
X7965088Y19637024D01*
X7972515Y19628453D01*
X7974974Y19625343D01*
X8100341Y19499976D01*
X8100347Y19499971D01*
X8100348Y19499970D01*
X8251262Y19406885D01*
X8419574Y19351113D01*
X8523455Y19340500D01*
X9124544Y19340501D01*
X9228426Y19351113D01*
X9396738Y19406885D01*
X9547652Y19499970D01*
X9562904Y19515223D01*
X9625214Y19549248D01*
X9696030Y19544185D01*
X9741095Y19515223D01*
X9756348Y19499970D01*
X9907262Y19406885D01*
X10075574Y19351113D01*
X10179455Y19340500D01*
X10619700Y19340501D01*
X10687821Y19320499D01*
X10734314Y19266844D01*
X10745700Y19214501D01*
X10745700Y19176000D01*
X10725698Y19107879D01*
X10672042Y19061386D01*
X10619700Y19050000D01*
X10414000Y19050000D01*
X10414000Y18144806D01*
X10355040Y18185004D01*
X10226998Y18224500D01*
X10126688Y18224500D01*
X10027501Y18209550D01*
X9906776Y18151412D01*
X9906000Y18150692D01*
X9906000Y19050000D01*
X9349402Y19050000D01*
X9288906Y19043495D01*
X9152035Y18992445D01*
X9152034Y18992445D01*
X9035095Y18904905D01*
X8947555Y18787966D01*
X8947555Y18787965D01*
X8896505Y18651094D01*
X8890000Y18590598D01*
X8890000Y18034000D01*
X9793382Y18034000D01*
X9741553Y17944228D01*
X9711736Y17813593D01*
X9721749Y17679972D01*
X9770703Y17555240D01*
X9794021Y17526000D01*
X8865851Y17526000D01*
X8856735Y17521022D01*
X8785920Y17526087D01*
X8740857Y17555048D01*
X8667244Y17628661D01*
X8657279Y17641099D01*
X8657052Y17640910D01*
X8652001Y17647016D01*
X8652000Y17647018D01*
X8601625Y17694323D01*
X8600236Y17695669D01*
X8589990Y17705915D01*
X8579776Y17716130D01*
X8579772Y17716134D01*
X8574225Y17720437D01*
X8569717Y17724288D01*
X8535325Y17756583D01*
X8535319Y17756587D01*
X8517563Y17766349D01*
X8501047Y17777198D01*
X8485041Y17789614D01*
X8454289Y17802922D01*
X8441740Y17808352D01*
X8436408Y17810964D01*
X8395061Y17833695D01*
X8375436Y17838734D01*
X8356736Y17845136D01*
X8338145Y17853181D01*
X8338143Y17853182D01*
X8338142Y17853182D01*
X8291542Y17860563D01*
X8285729Y17861767D01*
X8240030Y17873500D01*
X8219776Y17873500D01*
X8200066Y17875051D01*
X8180057Y17878220D01*
X8180054Y17878221D01*
X8150356Y17875413D01*
X8080656Y17888916D01*
X8029320Y17937959D01*
X8012500Y18000854D01*
X8012500Y18538633D01*
X8012499Y18538650D01*
X8005990Y18599197D01*
X8005988Y18599205D01*
X7954889Y18736203D01*
X7954887Y18736208D01*
X7867261Y18853262D01*
X7750207Y18940888D01*
X7750202Y18940890D01*
X7613204Y18991989D01*
X7613196Y18991991D01*
X7552649Y18998500D01*
X7552638Y18998500D01*
X5655362Y18998500D01*
X5655350Y18998500D01*
X5594803Y18991991D01*
X5594795Y18991989D01*
X5457797Y18940890D01*
X5457792Y18940888D01*
X5340738Y18853262D01*
X5253112Y18736208D01*
X5253110Y18736203D01*
X5202011Y18599205D01*
X5202009Y18599197D01*
X5195500Y18538650D01*
X5195500Y15941351D01*
X5202009Y15880804D01*
X5202011Y15880796D01*
X5253110Y15743798D01*
X5253112Y15743793D01*
X5340738Y15626739D01*
X5457792Y15539113D01*
X5457794Y15539112D01*
X5457796Y15539111D01*
X5516875Y15517076D01*
X5594795Y15488012D01*
X5594803Y15488010D01*
X5655350Y15481501D01*
X5655355Y15481501D01*
X5655362Y15481500D01*
X5655368Y15481500D01*
X7552632Y15481500D01*
X7552638Y15481500D01*
X7552645Y15481501D01*
X7552649Y15481501D01*
X7613196Y15488010D01*
X7613199Y15488011D01*
X7613201Y15488011D01*
X7750204Y15539111D01*
X7781323Y15562406D01*
X7867261Y15626739D01*
X7954887Y15743793D01*
X7954887Y15743794D01*
X7954889Y15743796D01*
X8005989Y15880799D01*
X8009909Y15917255D01*
X8012499Y15941351D01*
X8012500Y15941368D01*
X8012500Y16187406D01*
X8032502Y16255527D01*
X8086158Y16302020D01*
X8156432Y16312124D01*
X8221012Y16282630D01*
X8227581Y16276515D01*
X8556938Y15947158D01*
X8852595Y15651501D01*
X8886620Y15589189D01*
X8889499Y15562406D01*
X8889500Y14917597D01*
X8869498Y14849476D01*
X8852595Y14828501D01*
X8374333Y14350240D01*
X8361901Y14340279D01*
X8362089Y14340052D01*
X8355979Y14334998D01*
X8308694Y14284645D01*
X8307319Y14283226D01*
X8286863Y14262769D01*
X8282560Y14257223D01*
X8278714Y14252721D01*
X8246417Y14218326D01*
X8241756Y14211909D01*
X8239764Y14213356D01*
X8198059Y14171896D01*
X8128640Y14157009D01*
X8062194Y14182016D01*
X8019815Y14238977D01*
X8012000Y14282661D01*
X8012000Y14538586D01*
X8011999Y14538598D01*
X8005494Y14599094D01*
X7954444Y14735965D01*
X7954444Y14735966D01*
X7866904Y14852905D01*
X7749965Y14940445D01*
X7613093Y14991495D01*
X7552597Y14998000D01*
X6858000Y14998000D01*
X6858000Y11482000D01*
X7552585Y11482000D01*
X7552597Y11482001D01*
X7613093Y11488506D01*
X7749964Y11539556D01*
X7749965Y11539556D01*
X7866903Y11627096D01*
X7902630Y11674821D01*
X7959466Y11717368D01*
X8030281Y11722434D01*
X8092594Y11688409D01*
X8126619Y11626097D01*
X8129499Y11599313D01*
X8129499Y11180913D01*
X8110740Y11114767D01*
X8038884Y10998268D01*
X8013885Y10957738D01*
X8003078Y10925124D01*
X7958113Y10789428D01*
X7958112Y10789421D01*
X7947500Y10685554D01*
X7947500Y9634456D01*
X7958112Y9530575D01*
X8013885Y9362262D01*
X8106970Y9211348D01*
X8106975Y9211342D01*
X8128989Y9189328D01*
X8163015Y9127016D01*
X8157950Y9056201D01*
X8115403Y8999365D01*
X8100279Y8989645D01*
X8097793Y8988288D01*
X7980738Y8900662D01*
X7893112Y8783608D01*
X7893111Y8783605D01*
X7881646Y8752866D01*
X7839099Y8696031D01*
X7772578Y8671221D01*
X7763591Y8670900D01*
X6757195Y8670900D01*
X6689074Y8690902D01*
X6668100Y8707805D01*
X4827244Y10548661D01*
X4817279Y10561099D01*
X4817052Y10560910D01*
X4812001Y10567016D01*
X4812000Y10567018D01*
X4761626Y10614322D01*
X4760237Y10615668D01*
X4749990Y10625915D01*
X4739776Y10636130D01*
X4739772Y10636134D01*
X4734225Y10640437D01*
X4729717Y10644288D01*
X4695325Y10676583D01*
X4695319Y10676587D01*
X4677563Y10686349D01*
X4661047Y10697198D01*
X4645041Y10709614D01*
X4614289Y10722922D01*
X4601740Y10728352D01*
X4596408Y10730964D01*
X4555061Y10753695D01*
X4535436Y10758734D01*
X4516736Y10765136D01*
X4498145Y10773181D01*
X4498143Y10773182D01*
X4498142Y10773182D01*
X4451542Y10780563D01*
X4445729Y10781767D01*
X4400030Y10793500D01*
X4379776Y10793500D01*
X4360066Y10795051D01*
X4340057Y10798220D01*
X4340056Y10798220D01*
X4293083Y10793780D01*
X4287150Y10793500D01*
X3419068Y10793500D01*
X3350947Y10813502D01*
X3304454Y10867158D01*
X3294350Y10937432D01*
X3323844Y11002012D01*
X3358683Y11030088D01*
X3547076Y11132958D01*
X3661885Y11218905D01*
X3661886Y11218905D01*
X2935077Y11945714D01*
X3057431Y12019331D01*
X3191658Y12146477D01*
X3295413Y12299505D01*
X3296635Y12302574D01*
X4021095Y11578114D01*
X4021095Y11578115D01*
X4107042Y11692924D01*
X4234412Y11926186D01*
X4327292Y12175207D01*
X4383786Y12434908D01*
X4402745Y12700001D01*
X4383786Y12965093D01*
X4379238Y12986000D01*
X5196000Y12986000D01*
X5196000Y11941403D01*
X5202505Y11880907D01*
X5253555Y11744036D01*
X5253555Y11744035D01*
X5341095Y11627096D01*
X5458034Y11539556D01*
X5594906Y11488506D01*
X5655402Y11482001D01*
X5655415Y11482000D01*
X6350000Y11482000D01*
X6350000Y12986000D01*
X5196000Y12986000D01*
X4379238Y12986000D01*
X4327292Y13224794D01*
X4234412Y13473815D01*
X4223390Y13494000D01*
X5196000Y13494000D01*
X6350000Y13494000D01*
X6350000Y14998000D01*
X5655402Y14998000D01*
X5594906Y14991495D01*
X5458035Y14940445D01*
X5458034Y14940445D01*
X5341095Y14852905D01*
X5253555Y14735966D01*
X5253555Y14735965D01*
X5202505Y14599094D01*
X5196000Y14538598D01*
X5196000Y13494000D01*
X4223390Y13494000D01*
X4107039Y13707081D01*
X4021096Y13821887D01*
X4021095Y13821888D01*
X3293192Y13093985D01*
X3247684Y13179822D01*
X3127991Y13320735D01*
X2980805Y13432623D01*
X2934729Y13453940D01*
X3661886Y14181097D01*
X3547076Y14267042D01*
X3313814Y14394413D01*
X3064793Y14487293D01*
X2805092Y14543787D01*
X2539999Y14562746D01*
X2274907Y14543787D01*
X2015206Y14487293D01*
X1766185Y14394413D01*
X1532924Y14267043D01*
X1418113Y14181098D01*
X1418112Y14181097D01*
X2144922Y13454287D01*
X2022569Y13380669D01*
X1888342Y13253523D01*
X1784587Y13100495D01*
X1783364Y13097427D01*
X1058903Y13821888D01*
X1058902Y13821887D01*
X972957Y13707076D01*
X845587Y13473815D01*
X752707Y13224794D01*
X696213Y12965093D01*
X677254Y12700001D01*
X696213Y12434908D01*
X752707Y12175207D01*
X836893Y11949498D01*
X841958Y11878682D01*
X807933Y11816370D01*
X745620Y11782345D01*
X674805Y11787409D01*
X664169Y11791942D01*
X644258Y11801531D01*
X644245Y11801536D01*
X392410Y11879216D01*
X392402Y11879218D01*
X392400Y11879218D01*
X131781Y11918500D01*
X-131781Y11918500D01*
X-392400Y11879218D01*
X-392402Y11879218D01*
X-392411Y11879216D01*
X-644246Y11801536D01*
X-644260Y11801530D01*
X-664172Y11791941D01*
X-734225Y11780408D01*
X-799393Y11808579D01*
X-838986Y11867511D01*
X-840432Y11938493D01*
X-836893Y11949498D01*
X-752710Y12175201D01*
X-696214Y12434908D01*
X-677255Y12700001D01*
X-696214Y12965093D01*
X-752708Y13224794D01*
X-845588Y13473815D01*
X-972961Y13707081D01*
X-1058904Y13821887D01*
X-1058905Y13821887D01*
X-1786808Y13093984D01*
X-1832316Y13179822D01*
X-1952009Y13320735D01*
X-2099195Y13432623D01*
X-2145271Y13453940D01*
X-1418114Y14181097D01*
X-1532924Y14267042D01*
X-1766186Y14394413D01*
X-2015207Y14487293D01*
X-2274908Y14543787D01*
X-2540000Y14562746D01*
X-2805093Y14543787D01*
X-3064794Y14487293D01*
X-3313815Y14394413D01*
X-3547076Y14267043D01*
X-3661887Y14181098D01*
X-3661888Y14181097D01*
X-2935078Y13454287D01*
X-3057431Y13380669D01*
X-3191658Y13253523D01*
X-3295413Y13100495D01*
X-3296636Y13097427D01*
X-4021097Y13821888D01*
X-4021098Y13821887D01*
X-4107043Y13707076D01*
X-4234413Y13473815D01*
X-4327293Y13224794D01*
X-4383787Y12965093D01*
X-4402746Y12700001D01*
X-4383787Y12434908D01*
X-4327293Y12175207D01*
X-4234413Y11926186D01*
X-4107042Y11692924D01*
X-4021097Y11578115D01*
X-4021097Y11578114D01*
X-3293194Y12306018D01*
X-3247684Y12220178D01*
X-3127991Y12079265D01*
X-2980805Y11967377D01*
X-2934731Y11946061D01*
X-3661887Y11218905D01*
X-3661887Y11218904D01*
X-3547081Y11132961D01*
X-3313815Y11005588D01*
X-3064794Y10912708D01*
X-2805093Y10856214D01*
X-2540000Y10837255D01*
X-2274908Y10856214D01*
X-2015207Y10912708D01*
X-1785813Y10998268D01*
X-1714997Y11003333D01*
X-1652685Y10969308D01*
X-1618660Y10906996D01*
X-1623724Y10836180D01*
X-1624490Y10834179D01*
X-1685089Y10679776D01*
X-1743734Y10422831D01*
X-1743735Y10422826D01*
X-1763431Y10160000D01*
X-1743735Y9897174D01*
X-1743734Y9897170D01*
X-1685089Y9640225D01*
X-1624490Y9485822D01*
X-1618222Y9415102D01*
X-1651183Y9352221D01*
X-1712908Y9317142D01*
X-1783799Y9321002D01*
X-1785812Y9321733D01*
X-2015204Y9407292D01*
X-2274908Y9463787D01*
X-2540000Y9482746D01*
X-2805093Y9463787D01*
X-3064794Y9407293D01*
X-3313815Y9314413D01*
X-3547076Y9187043D01*
X-3661887Y9101098D01*
X-3661888Y9101097D01*
X-2935078Y8374287D01*
X-3057431Y8300669D01*
X-3191658Y8173523D01*
X-3295413Y8020495D01*
X-3296636Y8017428D01*
X-4021097Y8741888D01*
X-4021098Y8741887D01*
X-4107043Y8627076D01*
X-4234413Y8393815D01*
X-4327293Y8144794D01*
X-4383787Y7885093D01*
X-4402746Y7620000D01*
X-4815500Y7620000D01*
X-4815500Y35169500D01*
X-4795498Y35237621D01*
X-4741842Y35284114D01*
X-4689500Y35295500D01*
X25009500Y35295500D01*
X25077621Y35275498D01*
G37*
%TD.AperFunction*%
%TD*%
M02*
