%TF.GenerationSoftware,KiCad,Pcbnew,9.0.6+1*%
%TF.CreationDate,2026-01-18T20:55:10+00:00*%
%TF.ProjectId,ACOMP01,41434f4d-5030-4312-9e6b-696361645f70,rev?*%
%TF.SameCoordinates,Original*%
%TF.FileFunction,Copper,L1,Top*%
%TF.FilePolarity,Positive*%
%FSLAX46Y46*%
G04 Gerber Fmt 4.6, Leading zero omitted, Abs format (unit mm)*
G04 Created by KiCad (PCBNEW 9.0.6+1) date 2026-01-18 20:55:10*
%MOMM*%
%LPD*%
G01*
G04 APERTURE LIST*
%TA.AperFunction,ComponentPad*%
%ADD10R,1.524000X1.524000*%
%TD*%
%TA.AperFunction,ComponentPad*%
%ADD11C,6.000000*%
%TD*%
%TA.AperFunction,ComponentPad*%
%ADD12C,2.500000*%
%TD*%
%TA.AperFunction,ComponentPad*%
%ADD13C,2.700000*%
%TD*%
%TA.AperFunction,ViaPad*%
%ADD14C,0.800000*%
%TD*%
G04 APERTURE END LIST*
D10*
%TO.P,J6,1*%
%TO.N,GND*%
X21590000Y6350000D03*
%TO.P,J6,2*%
X19050000Y6350000D03*
%TO.P,J6,3*%
%TO.N,/TLV_OUT+*%
X21590000Y8890000D03*
%TO.P,J6,4*%
X19050000Y8890000D03*
%TO.P,J6,5*%
%TO.N,/TLV_OUT-*%
X21590000Y11430000D03*
%TO.P,J6,6*%
X19050000Y11430000D03*
%TO.P,J6,7*%
%TO.N,GND*%
X21590000Y13970000D03*
%TO.P,J6,8*%
X19050000Y13970000D03*
%TD*%
D11*
%TO.P,M2,1*%
%TO.N,GND*%
X0Y30480000D03*
%TD*%
%TO.P,M4,1*%
%TO.N,GND*%
X20320000Y0D03*
%TD*%
D10*
%TO.P,J7,1*%
%TO.N,GND*%
X21590000Y16510000D03*
%TO.P,J7,2*%
X19050000Y16510000D03*
%TO.P,J7,3*%
%TO.N,/LMH_OUT+*%
X21590000Y19050000D03*
%TO.P,J7,4*%
X19050000Y19050000D03*
%TO.P,J7,5*%
%TO.N,/LMH_OUT-*%
X21590000Y21590000D03*
%TO.P,J7,6*%
X19050000Y21590000D03*
%TO.P,J7,7*%
%TO.N,GND*%
X21590000Y24130000D03*
%TO.P,J7,8*%
X19050000Y24130000D03*
%TD*%
D12*
%TO.P,J2,1,In*%
%TO.N,/IN+_TLV*%
X10160000Y0D03*
D13*
%TO.P,J2,2,Ext*%
%TO.N,GND*%
X7620000Y2540000D03*
X7620000Y-2540000D03*
X12700000Y2540000D03*
X12700000Y-2540000D03*
%TD*%
D10*
%TO.P,J1,1*%
%TO.N,GND*%
X10160000Y17780000D03*
%TO.P,J1,2*%
X12700000Y17780000D03*
%TO.P,J1,3*%
%TO.N,+3V3*%
X10160000Y15240000D03*
%TO.P,J1,4*%
X12700000Y15240000D03*
%TO.P,J1,5*%
%TO.N,GND*%
X10160000Y12700000D03*
%TO.P,J1,6*%
X12700000Y12700000D03*
%TD*%
D12*
%TO.P,J4,1,In*%
%TO.N,/IN+_LMH*%
X0Y20320000D03*
D13*
%TO.P,J4,2,Ext*%
%TO.N,GND*%
X-2540000Y22860000D03*
X-2540000Y17780000D03*
X2540000Y22860000D03*
X2540000Y17780000D03*
%TD*%
D11*
%TO.P,M3,1*%
%TO.N,GND*%
X0Y0D03*
%TD*%
%TO.P,M1,1*%
%TO.N,GND*%
X20320000Y30480000D03*
%TD*%
D12*
%TO.P,J5,1,In*%
%TO.N,/IN-_LMH*%
X10160000Y30480000D03*
D13*
%TO.P,J5,2,Ext*%
%TO.N,GND*%
X7620000Y33020000D03*
X7620000Y27940000D03*
X12700000Y33020000D03*
X12700000Y27940000D03*
%TD*%
D12*
%TO.P,J3,1,In*%
%TO.N,/IN-_TLV*%
X0Y10160000D03*
D13*
%TO.P,J3,2,Ext*%
%TO.N,GND*%
X-2540000Y12700000D03*
X-2540000Y7620000D03*
X2540000Y12700000D03*
X2540000Y7620000D03*
%TD*%
D14*
%TO.N,GND*%
X9372600Y23876000D03*
X5334000Y20828000D03*
X7747000Y23876000D03*
X11709400Y8534400D03*
X12446000Y9652000D03*
X9931400Y4572000D03*
X5334000Y19812000D03*
X7366000Y10922000D03*
X6654800Y6959600D03*
X10922000Y22352000D03*
X6350000Y10922000D03*
X13970000Y20320000D03*
X9144000Y4953000D03*
X14986000Y11938000D03*
X15468600Y5207000D03*
X12446000Y10668000D03*
X11938000Y22352000D03*
X5334000Y10922000D03*
%TD*%
%TA.AperFunction,Conductor*%
%TO.N,GND*%
G36*
X-68379Y-30502D02*
G01*
X-21886Y-84158D01*
X-10500Y-136500D01*
X-10500Y-1522451D01*
X-15852Y-1540677D01*
X-16123Y-1559672D01*
X-25647Y-1574035D01*
X-30502Y-1590572D01*
X-44860Y-1603012D01*
X-55356Y-1618844D01*
X-71133Y-1625778D01*
X-84158Y-1637065D01*
X-102963Y-1639768D01*
X-120352Y-1647412D01*
X-152891Y-1646947D01*
X-154432Y-1647169D01*
X-156211Y-1646900D01*
X-376833Y-1611956D01*
X-396058Y-1607340D01*
X-624354Y-1533163D01*
X-642621Y-1525597D01*
X-645263Y-1524251D01*
X-682003Y-1505531D01*
X-856511Y-1416614D01*
X-873369Y-1406283D01*
X-1067575Y-1265185D01*
X-1082609Y-1252344D01*
X-1252345Y-1082608D01*
X-1265186Y-1067574D01*
X-1406284Y-873368D01*
X-1416615Y-856510D01*
X-1437172Y-816164D01*
X-1525601Y-642613D01*
X-1533161Y-624360D01*
X-1607341Y-396057D01*
X-1611957Y-376832D01*
X-1646900Y-156211D01*
X-1637800Y-85800D01*
X-1592078Y-31486D01*
X-1524250Y-10513D01*
X-1522451Y-10500D01*
X-136500Y-10500D01*
X-68379Y-30502D01*
G37*
%TD.AperFunction*%
%TA.AperFunction,Conductor*%
G36*
X1590572Y-30502D02*
G01*
X1637065Y-84158D01*
X1647169Y-154432D01*
X1646900Y-156211D01*
X1611956Y-376832D01*
X1607340Y-396057D01*
X1533163Y-624353D01*
X1525597Y-642620D01*
X1416614Y-856510D01*
X1406283Y-873368D01*
X1265185Y-1067574D01*
X1252344Y-1082608D01*
X1082608Y-1252344D01*
X1067574Y-1265185D01*
X873368Y-1406283D01*
X856510Y-1416614D01*
X642620Y-1525597D01*
X624353Y-1533163D01*
X396057Y-1607340D01*
X376832Y-1611956D01*
X156211Y-1646900D01*
X85800Y-1637801D01*
X31486Y-1592079D01*
X10513Y-1524251D01*
X10500Y-1522451D01*
X10500Y-136500D01*
X30502Y-68379D01*
X84158Y-21886D01*
X136500Y-10500D01*
X1522451Y-10500D01*
X1590572Y-30502D01*
G37*
%TD.AperFunction*%
%TA.AperFunction,Conductor*%
G36*
X-85800Y1637802D02*
G01*
X-31486Y1592080D01*
X-10513Y1524252D01*
X-10500Y1522452D01*
X-10500Y136500D01*
X-30502Y68379D01*
X-84158Y21886D01*
X-136500Y10500D01*
X-1522451Y10500D01*
X-1540678Y15852D01*
X-1559672Y16123D01*
X-1574036Y25647D01*
X-1590572Y30502D01*
X-1603013Y44860D01*
X-1618844Y55356D01*
X-1625779Y71133D01*
X-1637065Y84158D01*
X-1639769Y102962D01*
X-1647412Y120351D01*
X-1646948Y152891D01*
X-1647169Y154432D01*
X-1646900Y156211D01*
X-1617190Y343795D01*
X-1611957Y376836D01*
X-1607341Y396058D01*
X-1560487Y540260D01*
X-1533160Y624366D01*
X-1525603Y642610D01*
X-1416613Y856515D01*
X-1406284Y873369D01*
X-1265181Y1067582D01*
X-1252351Y1082603D01*
X-1082603Y1252351D01*
X-1067582Y1265181D01*
X-873365Y1406287D01*
X-856515Y1416613D01*
X-642610Y1525603D01*
X-624366Y1533160D01*
X-396055Y1607342D01*
X-376836Y1611957D01*
X-156209Y1646901D01*
X-85800Y1637802D01*
G37*
%TD.AperFunction*%
%TA.AperFunction,Conductor*%
G36*
X156099Y1646918D02*
G01*
X376833Y1611957D01*
X396057Y1607341D01*
X624360Y1533161D01*
X642613Y1525601D01*
X761008Y1465276D01*
X856510Y1416615D01*
X873368Y1406284D01*
X1067574Y1265186D01*
X1082608Y1252345D01*
X1252344Y1082609D01*
X1265185Y1067575D01*
X1406283Y873369D01*
X1416614Y856511D01*
X1525597Y642621D01*
X1533163Y624354D01*
X1607340Y396058D01*
X1611956Y376833D01*
X1646900Y156211D01*
X1637801Y85800D01*
X1592079Y31486D01*
X1524251Y10513D01*
X1522451Y10500D01*
X136500Y10500D01*
X68379Y30502D01*
X21886Y84158D01*
X10500Y136500D01*
X10500Y1522452D01*
X30502Y1590573D01*
X84158Y1637066D01*
X154432Y1647170D01*
X156099Y1646918D01*
G37*
%TD.AperFunction*%
%TA.AperFunction,Conductor*%
G36*
X21175792Y6521571D02*
G01*
X21145500Y6408520D01*
X21145500Y6291480D01*
X21175792Y6178429D01*
X21223382Y6096000D01*
X19416618Y6096000D01*
X19464208Y6178429D01*
X19494500Y6291480D01*
X19494500Y6408520D01*
X19464208Y6521571D01*
X19416618Y6604000D01*
X21223382Y6604000D01*
X21175792Y6521571D01*
G37*
%TD.AperFunction*%
%TA.AperFunction,Conductor*%
G36*
X21175792Y14141571D02*
G01*
X21145500Y14028520D01*
X21145500Y13911480D01*
X21175792Y13798429D01*
X21223382Y13716000D01*
X19416618Y13716000D01*
X19464208Y13798429D01*
X19494500Y13911480D01*
X19494500Y14028520D01*
X19464208Y14141571D01*
X19416618Y14224000D01*
X21223382Y14224000D01*
X21175792Y14141571D01*
G37*
%TD.AperFunction*%
%TA.AperFunction,Conductor*%
G36*
X19304000Y14336619D02*
G01*
X19221571Y14384208D01*
X19108520Y14414500D01*
X18991480Y14414500D01*
X18878429Y14384208D01*
X18796000Y14336619D01*
X18796000Y16143382D01*
X18878429Y16095792D01*
X18991480Y16065500D01*
X19108520Y16065500D01*
X19221571Y16095792D01*
X19304000Y16143382D01*
X19304000Y14336619D01*
G37*
%TD.AperFunction*%
%TA.AperFunction,Conductor*%
G36*
X21844000Y14336619D02*
G01*
X21761571Y14384208D01*
X21648520Y14414500D01*
X21531480Y14414500D01*
X21418429Y14384208D01*
X21336000Y14336619D01*
X21336000Y16143382D01*
X21418429Y16095792D01*
X21531480Y16065500D01*
X21648520Y16065500D01*
X21761571Y16095792D01*
X21844000Y16143382D01*
X21844000Y14336619D01*
G37*
%TD.AperFunction*%
%TA.AperFunction,Conductor*%
G36*
X21175792Y16681571D02*
G01*
X21145500Y16568520D01*
X21145500Y16451480D01*
X21175792Y16338429D01*
X21223382Y16256000D01*
X19416618Y16256000D01*
X19464208Y16338429D01*
X19494500Y16451480D01*
X19494500Y16568520D01*
X19464208Y16681571D01*
X19416618Y16764000D01*
X21223382Y16764000D01*
X21175792Y16681571D01*
G37*
%TD.AperFunction*%
%TA.AperFunction,Conductor*%
G36*
X21175792Y24301571D02*
G01*
X21145500Y24188520D01*
X21145500Y24071480D01*
X21175792Y23958429D01*
X21223382Y23876000D01*
X19416618Y23876000D01*
X19464208Y23958429D01*
X19494500Y24071480D01*
X19494500Y24188520D01*
X19464208Y24301571D01*
X19416618Y24384000D01*
X21223382Y24384000D01*
X21175792Y24301571D01*
G37*
%TD.AperFunction*%
%TA.AperFunction,Conductor*%
G36*
X12285792Y12871571D02*
G01*
X12255500Y12758520D01*
X12255500Y12641480D01*
X12285792Y12528429D01*
X12333382Y12446000D01*
X10526618Y12446000D01*
X10574208Y12528429D01*
X10604500Y12641480D01*
X10604500Y12758520D01*
X10574208Y12871571D01*
X10526618Y12954000D01*
X12333382Y12954000D01*
X12285792Y12871571D01*
G37*
%TD.AperFunction*%
%TA.AperFunction,Conductor*%
G36*
X12285792Y17951571D02*
G01*
X12255500Y17838520D01*
X12255500Y17721480D01*
X12285792Y17608429D01*
X12333382Y17526000D01*
X10526618Y17526000D01*
X10574208Y17608429D01*
X10604500Y17721480D01*
X10604500Y17838520D01*
X10574208Y17951571D01*
X10526618Y18034000D01*
X12333382Y18034000D01*
X12285792Y17951571D01*
G37*
%TD.AperFunction*%
%TA.AperFunction,Conductor*%
G36*
X25077621Y35275498D02*
G01*
X25124114Y35221842D01*
X25135500Y35169500D01*
X25135500Y-4689500D01*
X25115498Y-4757621D01*
X25061842Y-4804114D01*
X25009500Y-4815500D01*
X-4689500Y-4815500D01*
X-4757621Y-4795498D01*
X-4804114Y-4741842D01*
X-4815500Y-4689500D01*
X-4815500Y4351D01*
X-2510500Y4351D01*
X-2510500Y-4350D01*
X-2504351Y-10499D01*
X-2504349Y-10500D01*
X-1800754Y-10500D01*
X-1732633Y-30502D01*
X-1686140Y-84158D01*
X-1675834Y-120050D01*
X-1664578Y-205552D01*
X-1648472Y-327893D01*
X-1591569Y-540259D01*
X-1591568Y-540261D01*
X-1591567Y-540264D01*
X-1507432Y-743383D01*
X-1507431Y-743384D01*
X-1507426Y-743395D01*
X-1397505Y-933784D01*
X-1263665Y-1108206D01*
X-1263652Y-1108220D01*
X-1108221Y-1263651D01*
X-1108207Y-1263664D01*
X-1108205Y-1263666D01*
X-1106225Y-1265185D01*
X-933785Y-1397504D01*
X-743396Y-1507425D01*
X-743392Y-1507426D01*
X-743383Y-1507432D01*
X-540264Y-1591567D01*
X-327901Y-1648470D01*
X-327895Y-1648470D01*
X-327894Y-1648471D01*
X-308220Y-1651061D01*
X-120053Y-1675832D01*
X-55127Y-1704554D01*
X-16035Y-1763818D01*
X-10500Y-1800754D01*
X-10500Y-2504350D01*
X-4351Y-2510499D01*
X-4349Y-2510500D01*
X4349Y-2510500D01*
X10500Y-2504349D01*
X10500Y-1800754D01*
X30502Y-1732633D01*
X84158Y-1686140D01*
X120050Y-1675833D01*
X327901Y-1648470D01*
X540264Y-1591567D01*
X743383Y-1507432D01*
X933783Y-1397505D01*
X1108205Y-1263666D01*
X1263666Y-1108205D01*
X1397505Y-933783D01*
X1507432Y-743383D01*
X1591567Y-540264D01*
X1648470Y-327901D01*
X1675832Y-120052D01*
X1704554Y-55127D01*
X1763818Y-16035D01*
X1800754Y-10500D01*
X2504349Y-10500D01*
X2510500Y-4349D01*
X2510500Y4349D01*
X2510499Y4351D01*
X2504350Y10500D01*
X2504349Y10500D01*
X1800754Y10500D01*
X1732633Y30502D01*
X1686140Y84158D01*
X1675833Y120051D01*
X1648470Y327901D01*
X1591567Y540264D01*
X1507432Y743383D01*
X1507426Y743392D01*
X1507425Y743396D01*
X1397504Y933785D01*
X1322968Y1030921D01*
X1301499Y1058900D01*
X1263666Y1108205D01*
X1263664Y1108207D01*
X1263651Y1108221D01*
X1108220Y1263652D01*
X1108206Y1263665D01*
X933784Y1397505D01*
X743395Y1507426D01*
X743387Y1507430D01*
X743383Y1507432D01*
X540264Y1591567D01*
X540261Y1591568D01*
X540259Y1591569D01*
X327894Y1648472D01*
X120054Y1675833D01*
X55127Y1704555D01*
X16035Y1763820D01*
X10500Y1800755D01*
X10500Y2504349D01*
X10499Y2504351D01*
X4350Y2510500D01*
X4349Y2510500D01*
X-4349Y2510500D01*
X-4351Y2510500D01*
X-10500Y2504351D01*
X-10500Y1800755D01*
X-30502Y1732634D01*
X-84158Y1686141D01*
X-120054Y1675833D01*
X-327895Y1648472D01*
X-540260Y1591569D01*
X-540264Y1591567D01*
X-707121Y1522452D01*
X-743385Y1507431D01*
X-743396Y1507426D01*
X-933785Y1397505D01*
X-1108207Y1263665D01*
X-1108221Y1263652D01*
X-1263652Y1108221D01*
X-1263665Y1108207D01*
X-1397505Y933785D01*
X-1507426Y743396D01*
X-1507431Y743385D01*
X-1591567Y540264D01*
X-1591569Y540260D01*
X-1648471Y327897D01*
X-1648472Y327894D01*
X-1671073Y156211D01*
X-1674531Y129941D01*
X-1675833Y120051D01*
X-1704557Y55124D01*
X-1763823Y16034D01*
X-1800755Y10500D01*
X-2504351Y10500D01*
X-2510500Y4351D01*
X-4815500Y4351D01*
X-4815500Y2661783D01*
X5762000Y2661783D01*
X5762000Y2418218D01*
X5793789Y2176751D01*
X5856828Y1941485D01*
X5950035Y1716463D01*
X5950041Y1716452D01*
X6071811Y1505539D01*
X6071815Y1505533D01*
X6138897Y1418111D01*
X6138899Y1418110D01*
X6864227Y2143439D01*
X6866740Y2137374D01*
X6959762Y1998156D01*
X7078156Y1879762D01*
X7217374Y1786740D01*
X7223437Y1784229D01*
X6498108Y1058900D01*
X6498108Y1058899D01*
X6585531Y991817D01*
X6585538Y991812D01*
X6796451Y870042D01*
X6796462Y870036D01*
X7021484Y776829D01*
X7256750Y713790D01*
X7498217Y682001D01*
X7498227Y682000D01*
X7741773Y682000D01*
X7741782Y682001D01*
X7983249Y713790D01*
X8218512Y776828D01*
X8371882Y840356D01*
X8442472Y847945D01*
X8505959Y816166D01*
X8542187Y755108D01*
X8539653Y684157D01*
X8536510Y675729D01*
X8491251Y566464D01*
X8431587Y343795D01*
X8401500Y115261D01*
X8401500Y-115260D01*
X8431587Y-343794D01*
X8431588Y-343800D01*
X8431589Y-343802D01*
X8491251Y-566464D01*
X8536510Y-675730D01*
X8544099Y-746318D01*
X8512320Y-809805D01*
X8451261Y-846032D01*
X8380310Y-843498D01*
X8371883Y-840355D01*
X8218515Y-776828D01*
X7983249Y-713789D01*
X7741782Y-682000D01*
X7498217Y-682000D01*
X7256750Y-713789D01*
X7021484Y-776828D01*
X6796462Y-870035D01*
X6796451Y-870041D01*
X6585538Y-991811D01*
X6498108Y-1058898D01*
X7223438Y-1784228D01*
X7217374Y-1786740D01*
X7078156Y-1879762D01*
X6959762Y-1998156D01*
X6866740Y-2137374D01*
X6864228Y-2143438D01*
X6138898Y-1418108D01*
X6071811Y-1505538D01*
X5950041Y-1716451D01*
X5950035Y-1716462D01*
X5856828Y-1941484D01*
X5793789Y-2176750D01*
X5762000Y-2418217D01*
X5762000Y-2661782D01*
X5793789Y-2903249D01*
X5856828Y-3138515D01*
X5950035Y-3363537D01*
X5950041Y-3363548D01*
X6071811Y-3574461D01*
X6071815Y-3574467D01*
X6138897Y-3661889D01*
X6138899Y-3661890D01*
X6864227Y-2936561D01*
X6866740Y-2942626D01*
X6959762Y-3081844D01*
X7078156Y-3200238D01*
X7217374Y-3293260D01*
X7223437Y-3295771D01*
X6498108Y-4021100D01*
X6498108Y-4021101D01*
X6585531Y-4088183D01*
X6585538Y-4088188D01*
X6796451Y-4209958D01*
X6796462Y-4209964D01*
X7021484Y-4303171D01*
X7256750Y-4366210D01*
X7498217Y-4397999D01*
X7498227Y-4398000D01*
X7741773Y-4398000D01*
X7741782Y-4397999D01*
X7983249Y-4366210D01*
X8218515Y-4303171D01*
X8443537Y-4209964D01*
X8443548Y-4209958D01*
X8654460Y-4088188D01*
X8741890Y-4021100D01*
X8016562Y-3295771D01*
X8022626Y-3293260D01*
X8161844Y-3200238D01*
X8280238Y-3081844D01*
X8373260Y-2942626D01*
X8375771Y-2936561D01*
X9101100Y-3661890D01*
X9168188Y-3574460D01*
X9289958Y-3363548D01*
X9289964Y-3363537D01*
X9383171Y-3138515D01*
X9446210Y-2903249D01*
X9477999Y-2661782D01*
X9478000Y-2661773D01*
X9478000Y-2418227D01*
X9477999Y-2418217D01*
X9446210Y-2176750D01*
X9383171Y-1941484D01*
X9319644Y-1788116D01*
X9312055Y-1717527D01*
X9343834Y-1654040D01*
X9404892Y-1617812D01*
X9475844Y-1620346D01*
X9484239Y-1623477D01*
X9593536Y-1668749D01*
X9816198Y-1728411D01*
X9816204Y-1728411D01*
X9816205Y-1728412D01*
X9842425Y-1731863D01*
X10044742Y-1758500D01*
X10044749Y-1758500D01*
X10275251Y-1758500D01*
X10275258Y-1758500D01*
X10503802Y-1728411D01*
X10726464Y-1668749D01*
X10835733Y-1623488D01*
X10906317Y-1615900D01*
X10969804Y-1647679D01*
X11006032Y-1708737D01*
X11003498Y-1779688D01*
X11000355Y-1788116D01*
X10936828Y-1941484D01*
X10873789Y-2176750D01*
X10842000Y-2418217D01*
X10842000Y-2661782D01*
X10873789Y-2903249D01*
X10936828Y-3138515D01*
X11030035Y-3363537D01*
X11030041Y-3363548D01*
X11151811Y-3574461D01*
X11151815Y-3574467D01*
X11218897Y-3661889D01*
X11218898Y-3661890D01*
X11944227Y-2936561D01*
X11946740Y-2942626D01*
X12039762Y-3081844D01*
X12158156Y-3200238D01*
X12297374Y-3293260D01*
X12303437Y-3295771D01*
X11578108Y-4021100D01*
X11578108Y-4021101D01*
X11665531Y-4088183D01*
X11665538Y-4088188D01*
X11876451Y-4209958D01*
X11876462Y-4209964D01*
X12101484Y-4303171D01*
X12336750Y-4366210D01*
X12578217Y-4397999D01*
X12578227Y-4398000D01*
X12821773Y-4398000D01*
X12821782Y-4397999D01*
X13063249Y-4366210D01*
X13298515Y-4303171D01*
X13523537Y-4209964D01*
X13523548Y-4209958D01*
X13734460Y-4088188D01*
X13821890Y-4021100D01*
X13096562Y-3295771D01*
X13102626Y-3293260D01*
X13241844Y-3200238D01*
X13360238Y-3081844D01*
X13453260Y-2942626D01*
X13455771Y-2936561D01*
X14181100Y-3661890D01*
X14248188Y-3574460D01*
X14369958Y-3363548D01*
X14369964Y-3363537D01*
X14463171Y-3138515D01*
X14526210Y-2903249D01*
X14557999Y-2661782D01*
X14558000Y-2661773D01*
X14558000Y-2418227D01*
X14557999Y-2418217D01*
X14526210Y-2176750D01*
X14463171Y-1941484D01*
X14369964Y-1716462D01*
X14369958Y-1716451D01*
X14248188Y-1505538D01*
X14248183Y-1505531D01*
X14181100Y-1418108D01*
X13455771Y-2143437D01*
X13453260Y-2137374D01*
X13360238Y-1998156D01*
X13241844Y-1879762D01*
X13102626Y-1786740D01*
X13096561Y-1784227D01*
X13821890Y-1058898D01*
X13821889Y-1058897D01*
X13734467Y-991815D01*
X13734461Y-991811D01*
X13523548Y-870041D01*
X13523537Y-870035D01*
X13298515Y-776828D01*
X13063249Y-713789D01*
X12821782Y-682000D01*
X12578217Y-682000D01*
X12336750Y-713789D01*
X12101484Y-776828D01*
X11948116Y-840355D01*
X11877526Y-847944D01*
X11814039Y-816164D01*
X11777812Y-755106D01*
X11780346Y-684155D01*
X11783469Y-675778D01*
X11828749Y-566464D01*
X11888411Y-343802D01*
X11918500Y-115258D01*
X11918500Y115258D01*
X11888411Y343802D01*
X11828749Y566464D01*
X11783488Y675734D01*
X11775900Y746318D01*
X11807679Y809805D01*
X11868737Y846033D01*
X11939688Y843499D01*
X11948116Y840356D01*
X12101484Y776829D01*
X12336750Y713790D01*
X12578217Y682001D01*
X12578227Y682000D01*
X12821773Y682000D01*
X12821782Y682001D01*
X13063249Y713790D01*
X13298515Y776829D01*
X13523537Y870036D01*
X13523548Y870042D01*
X13734460Y991812D01*
X13821890Y1058900D01*
X13096561Y1784229D01*
X13102626Y1786740D01*
X13241844Y1879762D01*
X13360238Y1998156D01*
X13453260Y2137374D01*
X13455771Y2143439D01*
X14181100Y1418110D01*
X14248188Y1505540D01*
X14369958Y1716452D01*
X14369964Y1716463D01*
X14463171Y1941485D01*
X14526210Y2176751D01*
X14557999Y2418218D01*
X14558000Y2418227D01*
X14558000Y2661773D01*
X14557999Y2661783D01*
X14526210Y2903250D01*
X14463171Y3138516D01*
X14369964Y3363538D01*
X14369958Y3363549D01*
X14248188Y3574462D01*
X14248183Y3574469D01*
X14181100Y3661892D01*
X13455771Y2936563D01*
X13453260Y2942626D01*
X13360238Y3081844D01*
X13241844Y3200238D01*
X13102626Y3293260D01*
X13096561Y3295772D01*
X13821890Y4021101D01*
X13821889Y4021103D01*
X13734467Y4088185D01*
X13734461Y4088189D01*
X13523548Y4209959D01*
X13523537Y4209965D01*
X13298515Y4303172D01*
X13063249Y4366211D01*
X12821782Y4398000D01*
X12578217Y4398000D01*
X12336750Y4366211D01*
X12101484Y4303172D01*
X11876462Y4209965D01*
X11876451Y4209959D01*
X11665538Y4088189D01*
X11578108Y4021102D01*
X12303438Y3295772D01*
X12297374Y3293260D01*
X12158156Y3200238D01*
X12039762Y3081844D01*
X11946740Y2942626D01*
X11944228Y2936562D01*
X11218898Y3661892D01*
X11151811Y3574462D01*
X11030041Y3363549D01*
X11030035Y3363538D01*
X10936828Y3138516D01*
X10873789Y2903250D01*
X10842000Y2661783D01*
X10842000Y2418218D01*
X10873789Y2176751D01*
X10936828Y1941485D01*
X11000355Y1788117D01*
X11007944Y1717527D01*
X10976165Y1654040D01*
X10915106Y1617813D01*
X10844155Y1620347D01*
X10835745Y1623484D01*
X10726464Y1668749D01*
X10503802Y1728411D01*
X10503800Y1728412D01*
X10503794Y1728413D01*
X10275260Y1758500D01*
X10275258Y1758500D01*
X10044742Y1758500D01*
X10044739Y1758500D01*
X9816205Y1728413D01*
X9775578Y1717527D01*
X9593536Y1668749D01*
X9484270Y1623490D01*
X9413681Y1615901D01*
X9350194Y1647681D01*
X9313967Y1708739D01*
X9316501Y1779690D01*
X9319644Y1788118D01*
X9383172Y1941488D01*
X9446210Y2176751D01*
X9477999Y2418218D01*
X9478000Y2418227D01*
X9478000Y2661773D01*
X9477999Y2661783D01*
X9446210Y2903250D01*
X9383171Y3138516D01*
X9289964Y3363538D01*
X9289958Y3363549D01*
X9168188Y3574462D01*
X9168183Y3574469D01*
X9101100Y3661892D01*
X8375771Y2936563D01*
X8373260Y2942626D01*
X8280238Y3081844D01*
X8161844Y3200238D01*
X8022626Y3293260D01*
X8016561Y3295772D01*
X8741890Y4021101D01*
X8741889Y4021103D01*
X8654467Y4088185D01*
X8654461Y4088189D01*
X8443548Y4209959D01*
X8443537Y4209965D01*
X8218515Y4303172D01*
X7983249Y4366211D01*
X7741782Y4398000D01*
X7498217Y4398000D01*
X7256750Y4366211D01*
X7021484Y4303172D01*
X6796462Y4209965D01*
X6796451Y4209959D01*
X6585538Y4088189D01*
X6498108Y4021102D01*
X7223438Y3295772D01*
X7217374Y3293260D01*
X7078156Y3200238D01*
X6959762Y3081844D01*
X6866740Y2942626D01*
X6864228Y2936562D01*
X6138898Y3661892D01*
X6071811Y3574462D01*
X5950041Y3363549D01*
X5950035Y3363538D01*
X5856828Y3138516D01*
X5793789Y2903250D01*
X5762000Y2661783D01*
X-4815500Y2661783D01*
X-4815500Y12821783D01*
X-4398000Y12821783D01*
X-4398000Y12578218D01*
X-4366211Y12336751D01*
X-4303172Y12101485D01*
X-4209965Y11876463D01*
X-4209959Y11876452D01*
X-4088189Y11665539D01*
X-4088185Y11665533D01*
X-4021103Y11578111D01*
X-4021101Y11578110D01*
X-3295773Y12303439D01*
X-3293260Y12297374D01*
X-3200238Y12158156D01*
X-3081844Y12039762D01*
X-2942626Y11946740D01*
X-2936563Y11944229D01*
X-3661892Y11218900D01*
X-3661892Y11218899D01*
X-3574469Y11151817D01*
X-3574462Y11151812D01*
X-3363549Y11030042D01*
X-3363538Y11030036D01*
X-3138516Y10936829D01*
X-2903250Y10873790D01*
X-2661783Y10842001D01*
X-2661773Y10842000D01*
X-2418227Y10842000D01*
X-2418218Y10842001D01*
X-2176751Y10873790D01*
X-1941488Y10936828D01*
X-1788118Y11000356D01*
X-1717528Y11007945D01*
X-1654041Y10976166D01*
X-1617813Y10915108D01*
X-1620347Y10844157D01*
X-1623490Y10835729D01*
X-1668749Y10726464D01*
X-1728413Y10503795D01*
X-1758500Y10275261D01*
X-1758500Y10044740D01*
X-1728413Y9816206D01*
X-1728412Y9816200D01*
X-1728411Y9816198D01*
X-1668749Y9593536D01*
X-1623490Y9484270D01*
X-1615901Y9413682D01*
X-1647680Y9350195D01*
X-1708739Y9313968D01*
X-1779690Y9316502D01*
X-1788117Y9319645D01*
X-1941485Y9383172D01*
X-2176751Y9446211D01*
X-2418218Y9478000D01*
X-2661783Y9478000D01*
X-2903250Y9446211D01*
X-3138516Y9383172D01*
X-3363538Y9289965D01*
X-3363549Y9289959D01*
X-3574462Y9168189D01*
X-3661892Y9101102D01*
X-2936562Y8375772D01*
X-2942626Y8373260D01*
X-3081844Y8280238D01*
X-3200238Y8161844D01*
X-3293260Y8022626D01*
X-3295772Y8016562D01*
X-4021102Y8741892D01*
X-4088189Y8654462D01*
X-4209959Y8443549D01*
X-4209965Y8443538D01*
X-4303172Y8218516D01*
X-4366211Y7983250D01*
X-4398000Y7741783D01*
X-4398000Y7498218D01*
X-4366211Y7256751D01*
X-4303172Y7021485D01*
X-4209965Y6796463D01*
X-4209959Y6796452D01*
X-4088189Y6585539D01*
X-4088185Y6585533D01*
X-4021103Y6498111D01*
X-4021101Y6498110D01*
X-3295773Y7223439D01*
X-3293260Y7217374D01*
X-3200238Y7078156D01*
X-3081844Y6959762D01*
X-2942626Y6866740D01*
X-2936563Y6864229D01*
X-3661892Y6138900D01*
X-3661892Y6138899D01*
X-3574469Y6071817D01*
X-3574462Y6071812D01*
X-3363549Y5950042D01*
X-3363538Y5950036D01*
X-3138516Y5856829D01*
X-2903250Y5793790D01*
X-2661783Y5762001D01*
X-2661773Y5762000D01*
X-2418227Y5762000D01*
X-2418218Y5762001D01*
X-2176751Y5793790D01*
X-1941485Y5856829D01*
X-1716463Y5950036D01*
X-1716452Y5950042D01*
X-1505540Y6071812D01*
X-1418110Y6138900D01*
X-2143438Y6864229D01*
X-2137374Y6866740D01*
X-1998156Y6959762D01*
X-1879762Y7078156D01*
X-1786740Y7217374D01*
X-1784229Y7223439D01*
X-1058900Y6498110D01*
X-991812Y6585540D01*
X-870042Y6796452D01*
X-870036Y6796463D01*
X-776829Y7021485D01*
X-713790Y7256751D01*
X-682001Y7498218D01*
X-682000Y7498227D01*
X-682000Y7741773D01*
X-682001Y7741783D01*
X-713790Y7983250D01*
X-776829Y8218516D01*
X-840356Y8371884D01*
X-847945Y8442473D01*
X-816166Y8505960D01*
X-755108Y8542188D01*
X-684156Y8539654D01*
X-675761Y8536523D01*
X-566464Y8491251D01*
X-343802Y8431589D01*
X-343796Y8431589D01*
X-343795Y8431588D01*
X-317575Y8428137D01*
X-115258Y8401500D01*
X-115251Y8401500D01*
X115251Y8401500D01*
X115258Y8401500D01*
X343802Y8431589D01*
X566464Y8491251D01*
X675733Y8536512D01*
X746317Y8544100D01*
X809804Y8512321D01*
X846032Y8451263D01*
X843498Y8380312D01*
X840355Y8371884D01*
X776828Y8218516D01*
X713789Y7983250D01*
X682000Y7741783D01*
X682000Y7498218D01*
X713789Y7256751D01*
X776828Y7021485D01*
X870035Y6796463D01*
X870041Y6796452D01*
X991811Y6585539D01*
X991815Y6585533D01*
X1058897Y6498111D01*
X1058898Y6498110D01*
X1784227Y7223439D01*
X1786740Y7217374D01*
X1879762Y7078156D01*
X1998156Y6959762D01*
X2137374Y6866740D01*
X2143437Y6864229D01*
X1418108Y6138900D01*
X1418108Y6138899D01*
X1505531Y6071817D01*
X1505538Y6071812D01*
X1716451Y5950042D01*
X1716462Y5950036D01*
X1941484Y5856829D01*
X2176750Y5793790D01*
X2418217Y5762001D01*
X2418227Y5762000D01*
X2661773Y5762000D01*
X2661782Y5762001D01*
X2903249Y5793790D01*
X3138515Y5856829D01*
X3363537Y5950036D01*
X3363548Y5950042D01*
X3574460Y6071812D01*
X3661890Y6138900D01*
X2936562Y6864229D01*
X2942626Y6866740D01*
X3081844Y6959762D01*
X3200238Y7078156D01*
X3293260Y7217374D01*
X3295771Y7223439D01*
X4021100Y6498110D01*
X4088188Y6585540D01*
X4209958Y6796452D01*
X4209964Y6796463D01*
X4303171Y7021485D01*
X4366210Y7256751D01*
X4397999Y7498218D01*
X4398000Y7498227D01*
X4398000Y7741773D01*
X4397999Y7741783D01*
X4366210Y7983250D01*
X4303171Y8218516D01*
X4209964Y8443538D01*
X4209958Y8443549D01*
X4088188Y8654462D01*
X4088183Y8654469D01*
X4021100Y8741892D01*
X3295771Y8016563D01*
X3293260Y8022626D01*
X3200238Y8161844D01*
X3081844Y8280238D01*
X2942626Y8373260D01*
X2936561Y8375773D01*
X3661890Y9101102D01*
X3661889Y9101103D01*
X3574467Y9168185D01*
X3574461Y9168189D01*
X3363548Y9289959D01*
X3363537Y9289965D01*
X3138515Y9383172D01*
X2903249Y9446211D01*
X2661782Y9478000D01*
X2418217Y9478000D01*
X2176750Y9446211D01*
X1941484Y9383172D01*
X1788116Y9319645D01*
X1717526Y9312056D01*
X1654039Y9343836D01*
X1617812Y9404894D01*
X1620346Y9475845D01*
X1623469Y9484222D01*
X1668749Y9593536D01*
X1728411Y9816198D01*
X1758500Y10044742D01*
X1758500Y10275258D01*
X1728411Y10503802D01*
X1668749Y10726464D01*
X1623488Y10835734D01*
X1615900Y10906318D01*
X1647679Y10969805D01*
X1708737Y11006033D01*
X1779688Y11003499D01*
X1788116Y11000356D01*
X1941484Y10936829D01*
X2176750Y10873790D01*
X2418217Y10842001D01*
X2418227Y10842000D01*
X2661773Y10842000D01*
X2661782Y10842001D01*
X2903249Y10873790D01*
X3138515Y10936829D01*
X3363537Y11030036D01*
X3363548Y11030042D01*
X3574460Y11151812D01*
X3661890Y11218900D01*
X2936561Y11944229D01*
X2942626Y11946740D01*
X3081844Y12039762D01*
X3200238Y12158156D01*
X3293260Y12297374D01*
X3295771Y12303439D01*
X4021100Y11578110D01*
X4088188Y11665540D01*
X4209958Y11876452D01*
X4209964Y11876463D01*
X4303171Y12101485D01*
X4366210Y12336751D01*
X4389629Y12514637D01*
X4397999Y12578218D01*
X4398000Y12578227D01*
X4398000Y12821773D01*
X4397999Y12821783D01*
X4366210Y13063250D01*
X4303171Y13298516D01*
X4209964Y13523538D01*
X4209958Y13523549D01*
X4088188Y13734462D01*
X4088183Y13734469D01*
X4021100Y13821892D01*
X3295771Y13096563D01*
X3293260Y13102626D01*
X3200238Y13241844D01*
X3081844Y13360238D01*
X2942626Y13453260D01*
X2936561Y13455772D01*
X3661890Y14181101D01*
X3661889Y14181103D01*
X3574467Y14248185D01*
X3574461Y14248189D01*
X3363548Y14369959D01*
X3363537Y14369965D01*
X3138515Y14463172D01*
X2903249Y14526211D01*
X2661782Y14558000D01*
X2418217Y14558000D01*
X2176750Y14526211D01*
X1941484Y14463172D01*
X1716462Y14369965D01*
X1716451Y14369959D01*
X1505538Y14248189D01*
X1418108Y14181102D01*
X2143438Y13455772D01*
X2137374Y13453260D01*
X1998156Y13360238D01*
X1879762Y13241844D01*
X1786740Y13102626D01*
X1784228Y13096562D01*
X1058898Y13821892D01*
X991811Y13734462D01*
X870041Y13523549D01*
X870035Y13523538D01*
X776828Y13298516D01*
X713789Y13063250D01*
X682000Y12821783D01*
X682000Y12578218D01*
X713789Y12336751D01*
X776828Y12101485D01*
X840355Y11948117D01*
X847944Y11877527D01*
X816165Y11814040D01*
X755106Y11777813D01*
X684155Y11780347D01*
X675745Y11783484D01*
X566464Y11828749D01*
X343802Y11888411D01*
X343800Y11888412D01*
X343794Y11888413D01*
X115260Y11918500D01*
X115258Y11918500D01*
X-115258Y11918500D01*
X-115261Y11918500D01*
X-343795Y11888413D01*
X-384422Y11877527D01*
X-566464Y11828749D01*
X-675730Y11783490D01*
X-746319Y11775901D01*
X-809806Y11807681D01*
X-846033Y11868739D01*
X-843499Y11939690D01*
X-840356Y11948118D01*
X-776828Y12101488D01*
X-713790Y12336751D01*
X-682001Y12578218D01*
X-682000Y12578227D01*
X-682000Y12821773D01*
X-682001Y12821783D01*
X-713790Y13063250D01*
X-776829Y13298516D01*
X-870036Y13523538D01*
X-870042Y13523549D01*
X-991812Y13734462D01*
X-991817Y13734469D01*
X-1058900Y13821892D01*
X-1784229Y13096563D01*
X-1786740Y13102626D01*
X-1879762Y13241844D01*
X-1998156Y13360238D01*
X-2137374Y13453260D01*
X-2143439Y13455772D01*
X-1418110Y14181101D01*
X-1418111Y14181103D01*
X-1505533Y14248185D01*
X-1505539Y14248189D01*
X-1716452Y14369959D01*
X-1716463Y14369965D01*
X-1941485Y14463172D01*
X-2176751Y14526211D01*
X-2418218Y14558000D01*
X-2661783Y14558000D01*
X-2903250Y14526211D01*
X-3138516Y14463172D01*
X-3363538Y14369965D01*
X-3363549Y14369959D01*
X-3574462Y14248189D01*
X-3661892Y14181102D01*
X-2936562Y13455772D01*
X-2942626Y13453260D01*
X-3081844Y13360238D01*
X-3200238Y13241844D01*
X-3293260Y13102626D01*
X-3295772Y13096562D01*
X-4021102Y13821892D01*
X-4088189Y13734462D01*
X-4209959Y13523549D01*
X-4209965Y13523538D01*
X-4303172Y13298516D01*
X-4366211Y13063250D01*
X-4398000Y12821783D01*
X-4815500Y12821783D01*
X-4815500Y22981783D01*
X-4398000Y22981783D01*
X-4398000Y22738218D01*
X-4366211Y22496751D01*
X-4303172Y22261485D01*
X-4209965Y22036463D01*
X-4209959Y22036452D01*
X-4088189Y21825539D01*
X-4088185Y21825533D01*
X-4021103Y21738111D01*
X-4021101Y21738110D01*
X-3295773Y22463439D01*
X-3293260Y22457374D01*
X-3200238Y22318156D01*
X-3081844Y22199762D01*
X-2942626Y22106740D01*
X-2936563Y22104229D01*
X-3661892Y21378900D01*
X-3661892Y21378899D01*
X-3574469Y21311817D01*
X-3574462Y21311812D01*
X-3363549Y21190042D01*
X-3363538Y21190036D01*
X-3138516Y21096829D01*
X-2903250Y21033790D01*
X-2661783Y21002001D01*
X-2661773Y21002000D01*
X-2418227Y21002000D01*
X-2418218Y21002001D01*
X-2176751Y21033790D01*
X-1941488Y21096828D01*
X-1788118Y21160356D01*
X-1717528Y21167945D01*
X-1654041Y21136166D01*
X-1617813Y21075108D01*
X-1620347Y21004157D01*
X-1623490Y20995729D01*
X-1668749Y20886464D01*
X-1728413Y20663795D01*
X-1758500Y20435261D01*
X-1758500Y20204740D01*
X-1728413Y19976206D01*
X-1728412Y19976200D01*
X-1728411Y19976198D01*
X-1668749Y19753536D01*
X-1623490Y19644270D01*
X-1615901Y19573682D01*
X-1647680Y19510195D01*
X-1708739Y19473968D01*
X-1779690Y19476502D01*
X-1788117Y19479645D01*
X-1941485Y19543172D01*
X-2176751Y19606211D01*
X-2418218Y19638000D01*
X-2661783Y19638000D01*
X-2903250Y19606211D01*
X-3138516Y19543172D01*
X-3363538Y19449965D01*
X-3363549Y19449959D01*
X-3574462Y19328189D01*
X-3661892Y19261102D01*
X-2936562Y18535772D01*
X-2942626Y18533260D01*
X-3081844Y18440238D01*
X-3200238Y18321844D01*
X-3293260Y18182626D01*
X-3295772Y18176562D01*
X-4021102Y18901892D01*
X-4088189Y18814462D01*
X-4209959Y18603549D01*
X-4209965Y18603538D01*
X-4303172Y18378516D01*
X-4366211Y18143250D01*
X-4398000Y17901783D01*
X-4398000Y17658218D01*
X-4366211Y17416751D01*
X-4303172Y17181485D01*
X-4209965Y16956463D01*
X-4209959Y16956452D01*
X-4088189Y16745539D01*
X-4088185Y16745533D01*
X-4021103Y16658111D01*
X-4021101Y16658110D01*
X-3295773Y17383439D01*
X-3293260Y17377374D01*
X-3200238Y17238156D01*
X-3081844Y17119762D01*
X-2942626Y17026740D01*
X-2936563Y17024229D01*
X-3661892Y16298900D01*
X-3661892Y16298899D01*
X-3574469Y16231817D01*
X-3574462Y16231812D01*
X-3363549Y16110042D01*
X-3363538Y16110036D01*
X-3138516Y16016829D01*
X-2903250Y15953790D01*
X-2661783Y15922001D01*
X-2661773Y15922000D01*
X-2418227Y15922000D01*
X-2418218Y15922001D01*
X-2176751Y15953790D01*
X-1941485Y16016829D01*
X-1716463Y16110036D01*
X-1716452Y16110042D01*
X-1505540Y16231812D01*
X-1418110Y16298900D01*
X-2143438Y17024229D01*
X-2137374Y17026740D01*
X-1998156Y17119762D01*
X-1879762Y17238156D01*
X-1786740Y17377374D01*
X-1784229Y17383439D01*
X-1058900Y16658110D01*
X-991812Y16745540D01*
X-870042Y16956452D01*
X-870036Y16956463D01*
X-776829Y17181485D01*
X-713790Y17416751D01*
X-682001Y17658218D01*
X-682000Y17658227D01*
X-682000Y17901773D01*
X-682001Y17901783D01*
X-713790Y18143250D01*
X-776829Y18378516D01*
X-840356Y18531884D01*
X-847945Y18602473D01*
X-816166Y18665960D01*
X-755108Y18702188D01*
X-684156Y18699654D01*
X-675761Y18696523D01*
X-566464Y18651251D01*
X-343802Y18591589D01*
X-343796Y18591589D01*
X-343795Y18591588D01*
X-336275Y18590598D01*
X-115258Y18561500D01*
X-115251Y18561500D01*
X115251Y18561500D01*
X115258Y18561500D01*
X343802Y18591589D01*
X566464Y18651251D01*
X675733Y18696512D01*
X746317Y18704100D01*
X809804Y18672321D01*
X846032Y18611263D01*
X843498Y18540312D01*
X840355Y18531884D01*
X776828Y18378516D01*
X713789Y18143250D01*
X682000Y17901783D01*
X682000Y17658218D01*
X713789Y17416751D01*
X776828Y17181485D01*
X870035Y16956463D01*
X870041Y16956452D01*
X991811Y16745539D01*
X991815Y16745533D01*
X1058897Y16658111D01*
X1058898Y16658110D01*
X1784227Y17383439D01*
X1786740Y17377374D01*
X1879762Y17238156D01*
X1998156Y17119762D01*
X2137374Y17026740D01*
X2143437Y17024229D01*
X1418108Y16298900D01*
X1418108Y16298899D01*
X1505531Y16231817D01*
X1505538Y16231812D01*
X1716451Y16110042D01*
X1716462Y16110036D01*
X1941484Y16016829D01*
X2176750Y15953790D01*
X2418217Y15922001D01*
X2418227Y15922000D01*
X2661773Y15922000D01*
X2661782Y15922001D01*
X2903249Y15953790D01*
X3138515Y16016829D01*
X3220166Y16050650D01*
X8889500Y16050650D01*
X8889500Y14429351D01*
X8896009Y14368804D01*
X8896011Y14368796D01*
X8947110Y14231798D01*
X8947112Y14231793D01*
X9034737Y14114741D01*
X9034738Y14114741D01*
X9034739Y14114739D01*
X9070886Y14087680D01*
X9093760Y14070556D01*
X9136306Y14013720D01*
X9141370Y13942904D01*
X9107345Y13880592D01*
X9093760Y13868821D01*
X9035096Y13824905D01*
X8947555Y13707966D01*
X8947555Y13707965D01*
X8896505Y13571094D01*
X8890000Y13510598D01*
X8890000Y12954000D01*
X9793382Y12954000D01*
X9745792Y12871571D01*
X9715500Y12758520D01*
X9715500Y12641480D01*
X9745792Y12528429D01*
X9793382Y12446000D01*
X8890000Y12446000D01*
X8890000Y11889403D01*
X8896505Y11828907D01*
X8947555Y11692036D01*
X8947555Y11692035D01*
X9035095Y11575096D01*
X9152034Y11487556D01*
X9288906Y11436506D01*
X9349402Y11430001D01*
X9349415Y11430000D01*
X9906000Y11430000D01*
X9906000Y12333382D01*
X9988429Y12285792D01*
X10101480Y12255500D01*
X10218520Y12255500D01*
X10331571Y12285792D01*
X10414000Y12333382D01*
X10414000Y11430000D01*
X10970585Y11430000D01*
X10970597Y11430001D01*
X11031093Y11436506D01*
X11167964Y11487556D01*
X11167965Y11487556D01*
X11284904Y11575096D01*
X11329132Y11634177D01*
X11385968Y11676724D01*
X11456783Y11681788D01*
X11519096Y11647763D01*
X11530868Y11634177D01*
X11575095Y11575096D01*
X11692034Y11487556D01*
X11828906Y11436506D01*
X11889402Y11430001D01*
X11889415Y11430000D01*
X12446000Y11430000D01*
X12446000Y12333382D01*
X12528429Y12285792D01*
X12641480Y12255500D01*
X12758520Y12255500D01*
X12871571Y12285792D01*
X12954000Y12333382D01*
X12954000Y11430000D01*
X13510585Y11430000D01*
X13510597Y11430001D01*
X13571093Y11436506D01*
X13707964Y11487556D01*
X13707965Y11487556D01*
X13824904Y11575096D01*
X13912444Y11692035D01*
X13912444Y11692036D01*
X13963494Y11828907D01*
X13969999Y11889403D01*
X13970000Y11889415D01*
X13970000Y12446000D01*
X13066618Y12446000D01*
X13114208Y12528429D01*
X13144500Y12641480D01*
X13144500Y12758520D01*
X13114208Y12871571D01*
X13066618Y12954000D01*
X13970000Y12954000D01*
X13970000Y13510586D01*
X13969999Y13510598D01*
X13963494Y13571094D01*
X13912444Y13707965D01*
X13912444Y13707966D01*
X13824904Y13824905D01*
X13766240Y13868820D01*
X13723693Y13925656D01*
X13718629Y13996472D01*
X13752654Y14058784D01*
X13766240Y14070556D01*
X13825261Y14114739D01*
X13912887Y14231793D01*
X13912887Y14231794D01*
X13912889Y14231796D01*
X13963989Y14368799D01*
X13964115Y14369965D01*
X13970499Y14429351D01*
X13970500Y14429368D01*
X13970500Y16050633D01*
X13970499Y16050650D01*
X13963990Y16111197D01*
X13963988Y16111205D01*
X13912888Y16248206D01*
X13825260Y16365262D01*
X13766239Y16409446D01*
X13723693Y16466282D01*
X13718629Y16537098D01*
X13752654Y16599409D01*
X13766241Y16611182D01*
X13824904Y16655097D01*
X13912444Y16772035D01*
X13912444Y16772036D01*
X13963494Y16908907D01*
X13969999Y16969403D01*
X13970000Y16969415D01*
X13970000Y17526000D01*
X13066618Y17526000D01*
X13114208Y17608429D01*
X13144500Y17721480D01*
X13144500Y17838520D01*
X13114208Y17951571D01*
X13066618Y18034000D01*
X13970000Y18034000D01*
X13970000Y18590586D01*
X13969999Y18590598D01*
X13963494Y18651094D01*
X13912444Y18787965D01*
X13912444Y18787966D01*
X13824904Y18904905D01*
X13707965Y18992445D01*
X13571093Y19043495D01*
X13510597Y19050000D01*
X12954000Y19050000D01*
X12954000Y18146619D01*
X12871571Y18194208D01*
X12758520Y18224500D01*
X12641480Y18224500D01*
X12528429Y18194208D01*
X12446000Y18146619D01*
X12446000Y19050000D01*
X11889402Y19050000D01*
X11828906Y19043495D01*
X11692035Y18992445D01*
X11692034Y18992445D01*
X11575097Y18904906D01*
X11530868Y18845823D01*
X11474031Y18803277D01*
X11403216Y18798213D01*
X11340904Y18832238D01*
X11329132Y18845823D01*
X11284902Y18904906D01*
X11167965Y18992445D01*
X11031093Y19043495D01*
X10970597Y19050000D01*
X10414000Y19050000D01*
X10414000Y18146619D01*
X10331571Y18194208D01*
X10218520Y18224500D01*
X10101480Y18224500D01*
X9988429Y18194208D01*
X9906000Y18146619D01*
X9906000Y19050000D01*
X9349402Y19050000D01*
X9288906Y19043495D01*
X9152035Y18992445D01*
X9152034Y18992445D01*
X9035095Y18904905D01*
X8947555Y18787966D01*
X8947555Y18787965D01*
X8896505Y18651094D01*
X8890000Y18590598D01*
X8890000Y18034000D01*
X9793382Y18034000D01*
X9745792Y17951571D01*
X9715500Y17838520D01*
X9715500Y17721480D01*
X9745792Y17608429D01*
X9793382Y17526000D01*
X8890000Y17526000D01*
X8890000Y16969403D01*
X8896505Y16908907D01*
X8947555Y16772036D01*
X8947555Y16772035D01*
X9035095Y16655096D01*
X9093759Y16611181D01*
X9136306Y16554345D01*
X9141370Y16483530D01*
X9107345Y16421217D01*
X9093761Y16409446D01*
X9034738Y16365261D01*
X8947112Y16248208D01*
X8947110Y16248203D01*
X8896011Y16111205D01*
X8896009Y16111197D01*
X8889500Y16050650D01*
X3220166Y16050650D01*
X3363537Y16110036D01*
X3363548Y16110042D01*
X3455503Y16163131D01*
X3574460Y16231812D01*
X3661890Y16298900D01*
X2936562Y17024229D01*
X2942626Y17026740D01*
X3081844Y17119762D01*
X3200238Y17238156D01*
X3293260Y17377374D01*
X3295771Y17383439D01*
X4021100Y16658110D01*
X4088188Y16745540D01*
X4209958Y16956452D01*
X4209964Y16956463D01*
X4303171Y17181485D01*
X4366210Y17416751D01*
X4397999Y17658218D01*
X4398000Y17658227D01*
X4398000Y17901773D01*
X4397999Y17901783D01*
X4366210Y18143250D01*
X4303171Y18378516D01*
X4233902Y18545747D01*
X4209961Y18603543D01*
X4209958Y18603549D01*
X4088188Y18814462D01*
X4088183Y18814469D01*
X4021100Y18901892D01*
X3295771Y18176563D01*
X3293260Y18182626D01*
X3200238Y18321844D01*
X3081844Y18440238D01*
X2942626Y18533260D01*
X2936561Y18535773D01*
X3661890Y19261102D01*
X3661889Y19261103D01*
X3574467Y19328185D01*
X3574461Y19328189D01*
X3363548Y19449959D01*
X3363537Y19449965D01*
X3138515Y19543172D01*
X2903249Y19606211D01*
X2661782Y19638000D01*
X2418217Y19638000D01*
X2176750Y19606211D01*
X1941484Y19543172D01*
X1788116Y19479645D01*
X1717526Y19472056D01*
X1654039Y19503836D01*
X1617812Y19564894D01*
X1620346Y19635845D01*
X1623469Y19644222D01*
X1668749Y19753536D01*
X1728411Y19976198D01*
X1758500Y20204742D01*
X1758500Y20435258D01*
X1728411Y20663802D01*
X1668749Y20886464D01*
X1623488Y20995734D01*
X1615900Y21066318D01*
X1647679Y21129805D01*
X1708737Y21166033D01*
X1779688Y21163499D01*
X1788116Y21160356D01*
X1941484Y21096829D01*
X2176750Y21033790D01*
X2418217Y21002001D01*
X2418227Y21002000D01*
X2661773Y21002000D01*
X2661782Y21002001D01*
X2903249Y21033790D01*
X3138515Y21096829D01*
X3363537Y21190036D01*
X3363548Y21190042D01*
X3574460Y21311812D01*
X3661890Y21378900D01*
X2936561Y22104229D01*
X2942626Y22106740D01*
X3081844Y22199762D01*
X3200238Y22318156D01*
X3293260Y22457374D01*
X3295771Y22463439D01*
X4021100Y21738110D01*
X4088188Y21825540D01*
X4209958Y22036452D01*
X4209964Y22036463D01*
X4303171Y22261485D01*
X4340460Y22400650D01*
X17779500Y22400650D01*
X17779500Y20779351D01*
X17786009Y20718804D01*
X17786011Y20718796D01*
X17837110Y20581798D01*
X17837112Y20581793D01*
X17924739Y20464739D01*
X17983343Y20420867D01*
X18025889Y20364031D01*
X18030953Y20293216D01*
X17996928Y20230904D01*
X17983343Y20219133D01*
X17924739Y20175262D01*
X17837112Y20058208D01*
X17837110Y20058203D01*
X17786011Y19921205D01*
X17786009Y19921197D01*
X17779500Y19860650D01*
X17779500Y18239351D01*
X17786009Y18178804D01*
X17786011Y18178796D01*
X17837110Y18041798D01*
X17837112Y18041793D01*
X17924737Y17924741D01*
X17924738Y17924741D01*
X17924739Y17924739D01*
X17929352Y17921286D01*
X17983760Y17880556D01*
X18026306Y17823720D01*
X18031370Y17752904D01*
X17997345Y17690592D01*
X17983760Y17678821D01*
X17925096Y17634905D01*
X17837555Y17517966D01*
X17837555Y17517965D01*
X17786505Y17381094D01*
X17780000Y17320598D01*
X17780000Y16764000D01*
X18683382Y16764000D01*
X18635792Y16681571D01*
X18605500Y16568520D01*
X18605500Y16451480D01*
X18635792Y16338429D01*
X18683382Y16256000D01*
X17780000Y16256000D01*
X17780000Y15699403D01*
X17786505Y15638907D01*
X17837555Y15502036D01*
X17837555Y15502035D01*
X17925094Y15385098D01*
X17984177Y15340868D01*
X18026723Y15284031D01*
X18031787Y15213216D01*
X17997762Y15150904D01*
X17984177Y15139132D01*
X17925094Y15094903D01*
X17837555Y14977966D01*
X17837555Y14977965D01*
X17786505Y14841094D01*
X17780000Y14780598D01*
X17780000Y14224000D01*
X18683382Y14224000D01*
X18635792Y14141571D01*
X18605500Y14028520D01*
X18605500Y13911480D01*
X18635792Y13798429D01*
X18683382Y13716000D01*
X17780000Y13716000D01*
X17780000Y13159403D01*
X17786505Y13098907D01*
X17837555Y12962036D01*
X17837555Y12962035D01*
X17925095Y12845096D01*
X17983759Y12801181D01*
X18026306Y12744345D01*
X18031370Y12673530D01*
X17997345Y12611217D01*
X17983761Y12599446D01*
X17924738Y12555261D01*
X17837112Y12438208D01*
X17837110Y12438203D01*
X17786011Y12301205D01*
X17786009Y12301197D01*
X17779500Y12240650D01*
X17779500Y10619351D01*
X17786009Y10558804D01*
X17786011Y10558796D01*
X17837110Y10421798D01*
X17837112Y10421793D01*
X17924739Y10304739D01*
X17983343Y10260867D01*
X18025889Y10204031D01*
X18030953Y10133216D01*
X17996928Y10070904D01*
X17983343Y10059133D01*
X17924739Y10015262D01*
X17837112Y9898208D01*
X17837110Y9898203D01*
X17786011Y9761205D01*
X17786009Y9761197D01*
X17779500Y9700650D01*
X17779500Y8079351D01*
X17786009Y8018804D01*
X17786011Y8018796D01*
X17837110Y7881798D01*
X17837112Y7881793D01*
X17924737Y7764741D01*
X17924738Y7764741D01*
X17924739Y7764739D01*
X17929352Y7761286D01*
X17983760Y7720556D01*
X18026306Y7663720D01*
X18031370Y7592904D01*
X17997345Y7530592D01*
X17983760Y7518821D01*
X17925096Y7474905D01*
X17837555Y7357966D01*
X17837555Y7357965D01*
X17786505Y7221094D01*
X17780000Y7160598D01*
X17780000Y6604000D01*
X18683382Y6604000D01*
X18635792Y6521571D01*
X18605500Y6408520D01*
X18605500Y6291480D01*
X18635792Y6178429D01*
X18683382Y6096000D01*
X17780000Y6096000D01*
X17780000Y5539403D01*
X17786505Y5478907D01*
X17837555Y5342036D01*
X17837555Y5342035D01*
X17925095Y5225096D01*
X18042034Y5137556D01*
X18178906Y5086506D01*
X18239402Y5080001D01*
X18239415Y5080000D01*
X18796000Y5080000D01*
X18796000Y5983382D01*
X18878429Y5935792D01*
X18991480Y5905500D01*
X19108520Y5905500D01*
X19221571Y5935792D01*
X19304000Y5983382D01*
X19304000Y5080000D01*
X19860585Y5080000D01*
X19860597Y5080001D01*
X19921093Y5086506D01*
X20057964Y5137556D01*
X20057965Y5137556D01*
X20174904Y5225096D01*
X20219132Y5284177D01*
X20275968Y5326724D01*
X20346783Y5331788D01*
X20409096Y5297763D01*
X20420868Y5284177D01*
X20465095Y5225096D01*
X20582034Y5137556D01*
X20718906Y5086506D01*
X20779402Y5080001D01*
X20779415Y5080000D01*
X21336000Y5080000D01*
X21336000Y5983382D01*
X21418429Y5935792D01*
X21531480Y5905500D01*
X21648520Y5905500D01*
X21761571Y5935792D01*
X21844000Y5983382D01*
X21844000Y5080000D01*
X22400585Y5080000D01*
X22400597Y5080001D01*
X22461093Y5086506D01*
X22597964Y5137556D01*
X22597965Y5137556D01*
X22714904Y5225096D01*
X22802444Y5342035D01*
X22802444Y5342036D01*
X22853494Y5478907D01*
X22859999Y5539403D01*
X22860000Y5539415D01*
X22860000Y6096000D01*
X21956618Y6096000D01*
X22004208Y6178429D01*
X22034500Y6291480D01*
X22034500Y6408520D01*
X22004208Y6521571D01*
X21956618Y6604000D01*
X22860000Y6604000D01*
X22860000Y7160586D01*
X22859999Y7160598D01*
X22853494Y7221094D01*
X22802444Y7357965D01*
X22802444Y7357966D01*
X22714904Y7474905D01*
X22656240Y7518820D01*
X22613693Y7575656D01*
X22608629Y7646472D01*
X22642654Y7708784D01*
X22656240Y7720556D01*
X22715261Y7764739D01*
X22802887Y7881793D01*
X22802887Y7881794D01*
X22802889Y7881796D01*
X22853989Y8018799D01*
X22854401Y8022626D01*
X22860499Y8079351D01*
X22860500Y8079368D01*
X22860500Y9700633D01*
X22860499Y9700650D01*
X22853990Y9761197D01*
X22853988Y9761205D01*
X22802889Y9898203D01*
X22802887Y9898208D01*
X22715261Y10015262D01*
X22656657Y10059132D01*
X22614110Y10115968D01*
X22609046Y10186784D01*
X22643071Y10249096D01*
X22656657Y10260868D01*
X22715261Y10304739D01*
X22802887Y10421793D01*
X22802887Y10421794D01*
X22802889Y10421796D01*
X22853989Y10558799D01*
X22860500Y10619362D01*
X22860500Y12240638D01*
X22860000Y12245289D01*
X22853990Y12301197D01*
X22853988Y12301205D01*
X22802889Y12438203D01*
X22802887Y12438208D01*
X22715260Y12555262D01*
X22656239Y12599446D01*
X22613693Y12656282D01*
X22608629Y12727098D01*
X22642654Y12789409D01*
X22656241Y12801182D01*
X22714904Y12845097D01*
X22802444Y12962035D01*
X22802444Y12962036D01*
X22853494Y13098907D01*
X22859999Y13159403D01*
X22860000Y13159415D01*
X22860000Y13716000D01*
X21956618Y13716000D01*
X22004208Y13798429D01*
X22034500Y13911480D01*
X22034500Y14028520D01*
X22004208Y14141571D01*
X21956618Y14224000D01*
X22860000Y14224000D01*
X22860000Y14780586D01*
X22859999Y14780598D01*
X22853494Y14841094D01*
X22802444Y14977965D01*
X22802444Y14977966D01*
X22714904Y15094905D01*
X22655823Y15139132D01*
X22613276Y15195968D01*
X22608212Y15266783D01*
X22642237Y15329096D01*
X22655823Y15340868D01*
X22714904Y15385096D01*
X22802444Y15502035D01*
X22802444Y15502036D01*
X22853494Y15638907D01*
X22859999Y15699403D01*
X22860000Y15699415D01*
X22860000Y16256000D01*
X21956618Y16256000D01*
X22004208Y16338429D01*
X22034500Y16451480D01*
X22034500Y16568520D01*
X22004208Y16681571D01*
X21956618Y16764000D01*
X22860000Y16764000D01*
X22860000Y17320586D01*
X22859999Y17320598D01*
X22853494Y17381094D01*
X22802444Y17517965D01*
X22802444Y17517966D01*
X22714904Y17634905D01*
X22656240Y17678820D01*
X22613693Y17735656D01*
X22608629Y17806472D01*
X22642654Y17868784D01*
X22656240Y17880556D01*
X22715261Y17924739D01*
X22802887Y18041793D01*
X22802887Y18041794D01*
X22802889Y18041796D01*
X22853989Y18178799D01*
X22854401Y18182626D01*
X22860499Y18239351D01*
X22860500Y18239368D01*
X22860500Y19860633D01*
X22860499Y19860650D01*
X22853990Y19921197D01*
X22853988Y19921205D01*
X22802889Y20058203D01*
X22802887Y20058208D01*
X22715261Y20175262D01*
X22656657Y20219132D01*
X22614110Y20275968D01*
X22609046Y20346784D01*
X22643071Y20409096D01*
X22656657Y20420868D01*
X22715261Y20464739D01*
X22802887Y20581793D01*
X22802887Y20581794D01*
X22802889Y20581796D01*
X22853989Y20718799D01*
X22860500Y20779362D01*
X22860500Y22400638D01*
X22860000Y22405289D01*
X22853990Y22461197D01*
X22853988Y22461205D01*
X22802889Y22598203D01*
X22802887Y22598208D01*
X22715260Y22715262D01*
X22656239Y22759446D01*
X22613693Y22816282D01*
X22608629Y22887098D01*
X22642654Y22949409D01*
X22656241Y22961182D01*
X22714904Y23005097D01*
X22802444Y23122035D01*
X22802444Y23122036D01*
X22853494Y23258907D01*
X22859999Y23319403D01*
X22860000Y23319415D01*
X22860000Y23876000D01*
X21956618Y23876000D01*
X22004208Y23958429D01*
X22034500Y24071480D01*
X22034500Y24188520D01*
X22004208Y24301571D01*
X21956618Y24384000D01*
X22860000Y24384000D01*
X22860000Y24940586D01*
X22859999Y24940598D01*
X22853494Y25001094D01*
X22802444Y25137965D01*
X22802444Y25137966D01*
X22714904Y25254905D01*
X22597965Y25342445D01*
X22461093Y25393495D01*
X22400597Y25400000D01*
X21844000Y25400000D01*
X21844000Y24496619D01*
X21761571Y24544208D01*
X21648520Y24574500D01*
X21531480Y24574500D01*
X21418429Y24544208D01*
X21336000Y24496619D01*
X21336000Y25400000D01*
X20779402Y25400000D01*
X20718906Y25393495D01*
X20582035Y25342445D01*
X20582034Y25342445D01*
X20465097Y25254906D01*
X20420868Y25195823D01*
X20364031Y25153277D01*
X20293216Y25148213D01*
X20230904Y25182238D01*
X20219132Y25195823D01*
X20174902Y25254906D01*
X20057965Y25342445D01*
X19921093Y25393495D01*
X19860597Y25400000D01*
X19304000Y25400000D01*
X19304000Y24496619D01*
X19221571Y24544208D01*
X19108520Y24574500D01*
X18991480Y24574500D01*
X18878429Y24544208D01*
X18796000Y24496619D01*
X18796000Y25400000D01*
X18239402Y25400000D01*
X18178906Y25393495D01*
X18042035Y25342445D01*
X18042034Y25342445D01*
X17925095Y25254905D01*
X17837555Y25137966D01*
X17837555Y25137965D01*
X17786505Y25001094D01*
X17780000Y24940598D01*
X17780000Y24384000D01*
X18683382Y24384000D01*
X18635792Y24301571D01*
X18605500Y24188520D01*
X18605500Y24071480D01*
X18635792Y23958429D01*
X18683382Y23876000D01*
X17780000Y23876000D01*
X17780000Y23319403D01*
X17786505Y23258907D01*
X17837555Y23122036D01*
X17837555Y23122035D01*
X17925095Y23005096D01*
X17983759Y22961181D01*
X18026306Y22904345D01*
X18031370Y22833530D01*
X17997345Y22771217D01*
X17983761Y22759446D01*
X17924738Y22715261D01*
X17837112Y22598208D01*
X17837110Y22598203D01*
X17786011Y22461205D01*
X17786009Y22461197D01*
X17779500Y22400650D01*
X4340460Y22400650D01*
X4350099Y22436623D01*
X4366210Y22496752D01*
X4397999Y22738218D01*
X4398000Y22738227D01*
X4398000Y22981773D01*
X4397999Y22981783D01*
X4366210Y23223250D01*
X4303171Y23458516D01*
X4209964Y23683538D01*
X4209958Y23683549D01*
X4088188Y23894462D01*
X4088183Y23894469D01*
X4021100Y23981892D01*
X3295771Y23256563D01*
X3293260Y23262626D01*
X3200238Y23401844D01*
X3081844Y23520238D01*
X2942626Y23613260D01*
X2936561Y23615772D01*
X3661890Y24341101D01*
X3661889Y24341103D01*
X3574467Y24408185D01*
X3574461Y24408189D01*
X3363548Y24529959D01*
X3363537Y24529965D01*
X3138515Y24623172D01*
X2903249Y24686211D01*
X2661782Y24718000D01*
X2418217Y24718000D01*
X2176750Y24686211D01*
X1941484Y24623172D01*
X1716462Y24529965D01*
X1716451Y24529959D01*
X1505538Y24408189D01*
X1418108Y24341102D01*
X2143438Y23615772D01*
X2137374Y23613260D01*
X1998156Y23520238D01*
X1879762Y23401844D01*
X1786740Y23262626D01*
X1784228Y23256562D01*
X1058898Y23981892D01*
X991811Y23894462D01*
X870041Y23683549D01*
X870035Y23683538D01*
X776828Y23458516D01*
X713789Y23223250D01*
X682000Y22981783D01*
X682000Y22738218D01*
X713789Y22496751D01*
X776828Y22261485D01*
X840355Y22108117D01*
X847944Y22037527D01*
X816165Y21974040D01*
X755106Y21937813D01*
X684155Y21940347D01*
X675745Y21943484D01*
X566464Y21988749D01*
X343802Y22048411D01*
X343800Y22048412D01*
X343794Y22048413D01*
X115260Y22078500D01*
X115258Y22078500D01*
X-115258Y22078500D01*
X-115261Y22078500D01*
X-343795Y22048413D01*
X-384422Y22037527D01*
X-566464Y21988749D01*
X-675730Y21943490D01*
X-746319Y21935901D01*
X-809806Y21967681D01*
X-846033Y22028739D01*
X-843499Y22099690D01*
X-840356Y22108118D01*
X-776828Y22261488D01*
X-713790Y22496751D01*
X-682001Y22738218D01*
X-682000Y22738227D01*
X-682000Y22981773D01*
X-682001Y22981783D01*
X-713790Y23223250D01*
X-776829Y23458516D01*
X-870036Y23683538D01*
X-870042Y23683549D01*
X-991812Y23894462D01*
X-991817Y23894469D01*
X-1058900Y23981892D01*
X-1784229Y23256563D01*
X-1786740Y23262626D01*
X-1879762Y23401844D01*
X-1998156Y23520238D01*
X-2137374Y23613260D01*
X-2143439Y23615772D01*
X-1418110Y24341101D01*
X-1418111Y24341103D01*
X-1505533Y24408185D01*
X-1505539Y24408189D01*
X-1716452Y24529959D01*
X-1716463Y24529965D01*
X-1941485Y24623172D01*
X-2176751Y24686211D01*
X-2418218Y24718000D01*
X-2661783Y24718000D01*
X-2903250Y24686211D01*
X-3138516Y24623172D01*
X-3363538Y24529965D01*
X-3363549Y24529959D01*
X-3574462Y24408189D01*
X-3661892Y24341102D01*
X-2936562Y23615772D01*
X-2942626Y23613260D01*
X-3081844Y23520238D01*
X-3200238Y23401844D01*
X-3293260Y23262626D01*
X-3295772Y23256562D01*
X-4021102Y23981892D01*
X-4088189Y23894462D01*
X-4209959Y23683549D01*
X-4209965Y23683538D01*
X-4303172Y23458516D01*
X-4366211Y23223250D01*
X-4398000Y22981783D01*
X-4815500Y22981783D01*
X-4815500Y33141783D01*
X5762000Y33141783D01*
X5762000Y32898218D01*
X5793789Y32656751D01*
X5856828Y32421485D01*
X5950035Y32196463D01*
X5950041Y32196452D01*
X6071811Y31985539D01*
X6071815Y31985533D01*
X6138897Y31898111D01*
X6138899Y31898110D01*
X6864227Y32623439D01*
X6866740Y32617374D01*
X6959762Y32478156D01*
X7078156Y32359762D01*
X7217374Y32266740D01*
X7223437Y32264229D01*
X6498108Y31538900D01*
X6498108Y31538899D01*
X6585531Y31471817D01*
X6585538Y31471812D01*
X6796451Y31350042D01*
X6796462Y31350036D01*
X7021484Y31256829D01*
X7256750Y31193790D01*
X7498217Y31162001D01*
X7498227Y31162000D01*
X7741773Y31162000D01*
X7741782Y31162001D01*
X7983249Y31193790D01*
X8218512Y31256828D01*
X8371882Y31320356D01*
X8442472Y31327945D01*
X8505959Y31296166D01*
X8542187Y31235108D01*
X8539653Y31164157D01*
X8536510Y31155729D01*
X8491251Y31046464D01*
X8431587Y30823795D01*
X8401500Y30595261D01*
X8401500Y30364740D01*
X8431587Y30136206D01*
X8431588Y30136200D01*
X8431589Y30136198D01*
X8491251Y29913536D01*
X8536510Y29804270D01*
X8544099Y29733682D01*
X8512320Y29670195D01*
X8451261Y29633968D01*
X8380310Y29636502D01*
X8371883Y29639645D01*
X8218515Y29703172D01*
X7983249Y29766211D01*
X7741782Y29798000D01*
X7498217Y29798000D01*
X7256750Y29766211D01*
X7021484Y29703172D01*
X6796462Y29609965D01*
X6796451Y29609959D01*
X6585538Y29488189D01*
X6498108Y29421102D01*
X7223438Y28695772D01*
X7217374Y28693260D01*
X7078156Y28600238D01*
X6959762Y28481844D01*
X6866740Y28342626D01*
X6864228Y28336562D01*
X6138898Y29061892D01*
X6071811Y28974462D01*
X5950041Y28763549D01*
X5950035Y28763538D01*
X5856828Y28538516D01*
X5793789Y28303250D01*
X5762000Y28061783D01*
X5762000Y27818218D01*
X5793789Y27576751D01*
X5856828Y27341485D01*
X5950035Y27116463D01*
X5950041Y27116452D01*
X6071811Y26905539D01*
X6071815Y26905533D01*
X6138897Y26818111D01*
X6138899Y26818110D01*
X6864227Y27543439D01*
X6866740Y27537374D01*
X6959762Y27398156D01*
X7078156Y27279762D01*
X7217374Y27186740D01*
X7223437Y27184229D01*
X6498108Y26458900D01*
X6498108Y26458899D01*
X6585531Y26391817D01*
X6585538Y26391812D01*
X6796451Y26270042D01*
X6796462Y26270036D01*
X7021484Y26176829D01*
X7256750Y26113790D01*
X7498217Y26082001D01*
X7498227Y26082000D01*
X7741773Y26082000D01*
X7741782Y26082001D01*
X7983249Y26113790D01*
X8218515Y26176829D01*
X8443537Y26270036D01*
X8443548Y26270042D01*
X8654460Y26391812D01*
X8741890Y26458900D01*
X8016562Y27184229D01*
X8022626Y27186740D01*
X8161844Y27279762D01*
X8280238Y27398156D01*
X8373260Y27537374D01*
X8375771Y27543439D01*
X9101100Y26818110D01*
X9168188Y26905540D01*
X9289958Y27116452D01*
X9289964Y27116463D01*
X9383171Y27341485D01*
X9446210Y27576751D01*
X9477999Y27818218D01*
X9478000Y27818227D01*
X9478000Y28061773D01*
X9477999Y28061783D01*
X9446210Y28303250D01*
X9383171Y28538516D01*
X9319644Y28691884D01*
X9312055Y28762473D01*
X9343834Y28825960D01*
X9404892Y28862188D01*
X9475844Y28859654D01*
X9484239Y28856523D01*
X9593536Y28811251D01*
X9816198Y28751589D01*
X9816204Y28751589D01*
X9816205Y28751588D01*
X9842425Y28748137D01*
X10044742Y28721500D01*
X10044749Y28721500D01*
X10275251Y28721500D01*
X10275258Y28721500D01*
X10503802Y28751589D01*
X10726464Y28811251D01*
X10835733Y28856512D01*
X10906317Y28864100D01*
X10969804Y28832321D01*
X11006032Y28771263D01*
X11003498Y28700312D01*
X11000355Y28691884D01*
X10936828Y28538516D01*
X10873789Y28303250D01*
X10842000Y28061783D01*
X10842000Y27818218D01*
X10873789Y27576751D01*
X10936828Y27341485D01*
X11030035Y27116463D01*
X11030041Y27116452D01*
X11151811Y26905539D01*
X11151815Y26905533D01*
X11218897Y26818111D01*
X11218898Y26818110D01*
X11944227Y27543439D01*
X11946740Y27537374D01*
X12039762Y27398156D01*
X12158156Y27279762D01*
X12297374Y27186740D01*
X12303437Y27184229D01*
X11578108Y26458900D01*
X11578108Y26458899D01*
X11665531Y26391817D01*
X11665538Y26391812D01*
X11876451Y26270042D01*
X11876462Y26270036D01*
X12101484Y26176829D01*
X12336750Y26113790D01*
X12578217Y26082001D01*
X12578227Y26082000D01*
X12821773Y26082000D01*
X12821782Y26082001D01*
X13063249Y26113790D01*
X13298515Y26176829D01*
X13523537Y26270036D01*
X13523548Y26270042D01*
X13734460Y26391812D01*
X13821890Y26458900D01*
X13096562Y27184229D01*
X13102626Y27186740D01*
X13241844Y27279762D01*
X13360238Y27398156D01*
X13453260Y27537374D01*
X13455771Y27543439D01*
X14181100Y26818110D01*
X14248188Y26905540D01*
X14369958Y27116452D01*
X14369964Y27116463D01*
X14463171Y27341485D01*
X14526210Y27576751D01*
X14557999Y27818218D01*
X14558000Y27818227D01*
X14558000Y28061773D01*
X14557999Y28061783D01*
X14526210Y28303250D01*
X14463171Y28538516D01*
X14369964Y28763538D01*
X14369958Y28763549D01*
X14248188Y28974462D01*
X14248183Y28974469D01*
X14181100Y29061892D01*
X13455771Y28336563D01*
X13453260Y28342626D01*
X13360238Y28481844D01*
X13241844Y28600238D01*
X13102626Y28693260D01*
X13096561Y28695773D01*
X13821890Y29421102D01*
X13821889Y29421103D01*
X13734467Y29488185D01*
X13734461Y29488189D01*
X13523548Y29609959D01*
X13523537Y29609965D01*
X13298515Y29703172D01*
X13063249Y29766211D01*
X12821782Y29798000D01*
X12578217Y29798000D01*
X12336750Y29766211D01*
X12101484Y29703172D01*
X11948116Y29639645D01*
X11877526Y29632056D01*
X11814039Y29663836D01*
X11777812Y29724894D01*
X11780346Y29795845D01*
X11783469Y29804222D01*
X11828749Y29913536D01*
X11888411Y30136198D01*
X11918500Y30364742D01*
X11918500Y30595258D01*
X11888411Y30823802D01*
X11828749Y31046464D01*
X11783488Y31155734D01*
X11775900Y31226318D01*
X11807679Y31289805D01*
X11868737Y31326033D01*
X11939688Y31323499D01*
X11948116Y31320356D01*
X12101484Y31256829D01*
X12336750Y31193790D01*
X12578217Y31162001D01*
X12578227Y31162000D01*
X12821773Y31162000D01*
X12821782Y31162001D01*
X13063249Y31193790D01*
X13298515Y31256829D01*
X13523537Y31350036D01*
X13523548Y31350042D01*
X13734460Y31471812D01*
X13821890Y31538900D01*
X13096561Y32264229D01*
X13102626Y32266740D01*
X13241844Y32359762D01*
X13360238Y32478156D01*
X13453260Y32617374D01*
X13455771Y32623439D01*
X14181100Y31898110D01*
X14248188Y31985540D01*
X14369958Y32196452D01*
X14369964Y32196463D01*
X14463171Y32421485D01*
X14526210Y32656751D01*
X14557999Y32898218D01*
X14558000Y32898227D01*
X14558000Y33141773D01*
X14557999Y33141783D01*
X14526210Y33383250D01*
X14463171Y33618516D01*
X14369964Y33843538D01*
X14369958Y33843549D01*
X14248188Y34054462D01*
X14248183Y34054469D01*
X14181100Y34141892D01*
X13455771Y33416563D01*
X13453260Y33422626D01*
X13360238Y33561844D01*
X13241844Y33680238D01*
X13102626Y33773260D01*
X13096561Y33775772D01*
X13821890Y34501101D01*
X13821889Y34501103D01*
X13734467Y34568185D01*
X13734461Y34568189D01*
X13523548Y34689959D01*
X13523537Y34689965D01*
X13298515Y34783172D01*
X13063249Y34846211D01*
X12821782Y34878000D01*
X12578217Y34878000D01*
X12336750Y34846211D01*
X12101484Y34783172D01*
X11876462Y34689965D01*
X11876451Y34689959D01*
X11665538Y34568189D01*
X11578108Y34501102D01*
X12303438Y33775772D01*
X12297374Y33773260D01*
X12158156Y33680238D01*
X12039762Y33561844D01*
X11946740Y33422626D01*
X11944228Y33416562D01*
X11218898Y34141892D01*
X11151811Y34054462D01*
X11030041Y33843549D01*
X11030035Y33843538D01*
X10936828Y33618516D01*
X10873789Y33383250D01*
X10842000Y33141783D01*
X10842000Y32898218D01*
X10873789Y32656751D01*
X10936828Y32421485D01*
X11000355Y32268117D01*
X11007944Y32197527D01*
X10976165Y32134040D01*
X10915106Y32097813D01*
X10844155Y32100347D01*
X10835745Y32103484D01*
X10726464Y32148749D01*
X10503802Y32208411D01*
X10503800Y32208412D01*
X10503794Y32208413D01*
X10275260Y32238500D01*
X10275258Y32238500D01*
X10044742Y32238500D01*
X10044739Y32238500D01*
X9816205Y32208413D01*
X9775578Y32197527D01*
X9593536Y32148749D01*
X9484270Y32103490D01*
X9413681Y32095901D01*
X9350194Y32127681D01*
X9313967Y32188739D01*
X9316501Y32259690D01*
X9319644Y32268118D01*
X9383172Y32421488D01*
X9446210Y32656751D01*
X9477999Y32898218D01*
X9478000Y32898227D01*
X9478000Y33141773D01*
X9477999Y33141783D01*
X9446210Y33383250D01*
X9383171Y33618516D01*
X9289964Y33843538D01*
X9289958Y33843549D01*
X9168188Y34054462D01*
X9168183Y34054469D01*
X9101100Y34141892D01*
X8375771Y33416563D01*
X8373260Y33422626D01*
X8280238Y33561844D01*
X8161844Y33680238D01*
X8022626Y33773260D01*
X8016561Y33775772D01*
X8741890Y34501101D01*
X8741889Y34501103D01*
X8654467Y34568185D01*
X8654461Y34568189D01*
X8443548Y34689959D01*
X8443537Y34689965D01*
X8218515Y34783172D01*
X7983249Y34846211D01*
X7741782Y34878000D01*
X7498217Y34878000D01*
X7256750Y34846211D01*
X7021484Y34783172D01*
X6796462Y34689965D01*
X6796451Y34689959D01*
X6585538Y34568189D01*
X6498108Y34501102D01*
X7223438Y33775772D01*
X7217374Y33773260D01*
X7078156Y33680238D01*
X6959762Y33561844D01*
X6866740Y33422626D01*
X6864228Y33416562D01*
X6138898Y34141892D01*
X6071811Y34054462D01*
X5950041Y33843549D01*
X5950035Y33843538D01*
X5856828Y33618516D01*
X5793789Y33383250D01*
X5762000Y33141783D01*
X-4815500Y33141783D01*
X-4815500Y35169500D01*
X-4795498Y35237621D01*
X-4741842Y35284114D01*
X-4689500Y35295500D01*
X25009500Y35295500D01*
X25077621Y35275498D01*
G37*
%TD.AperFunction*%
%TD*%
M02*
