%TF.GenerationSoftware,KiCad,Pcbnew,6.0.11+dfsg-1~bpo11+1*%
%TF.CreationDate,2023-07-05T00:14:05+00:00*%
%TF.ProjectId,ACOMP01,41434f4d-5030-4312-9e6b-696361645f70,rev?*%
%TF.SameCoordinates,Original*%
%TF.FileFunction,Legend,Bot*%
%TF.FilePolarity,Positive*%
%FSLAX46Y46*%
G04 Gerber Fmt 4.6, Leading zero omitted, Abs format (unit mm)*
G04 Created by KiCad (PCBNEW 6.0.11+dfsg-1~bpo11+1) date 2023-07-05 00:14:05*
%MOMM*%
%LPD*%
G01*
G04 APERTURE LIST*
%ADD10C,0.150000*%
%ADD11C,0.076200*%
%ADD12C,0.120000*%
G04 APERTURE END LIST*
D10*
%TO.C,C1*%
X15851142Y17184667D02*
X15898761Y17232286D01*
X15946380Y17375143D01*
X15946380Y17470381D01*
X15898761Y17613239D01*
X15803523Y17708477D01*
X15708285Y17756096D01*
X15517809Y17803715D01*
X15374952Y17803715D01*
X15184476Y17756096D01*
X15089238Y17708477D01*
X14994000Y17613239D01*
X14946380Y17470381D01*
X14946380Y17375143D01*
X14994000Y17232286D01*
X15041619Y17184667D01*
X15946380Y16232286D02*
X15946380Y16803715D01*
X15946380Y16518000D02*
X14946380Y16518000D01*
X15089238Y16613239D01*
X15184476Y16708477D01*
X15232095Y16803715D01*
%TO.C,D1*%
X4556380Y15978096D02*
X3556380Y15978096D01*
X3556380Y15740000D01*
X3604000Y15597143D01*
X3699238Y15501905D01*
X3794476Y15454286D01*
X3984952Y15406667D01*
X4127809Y15406667D01*
X4318285Y15454286D01*
X4413523Y15501905D01*
X4508761Y15597143D01*
X4556380Y15740000D01*
X4556380Y15978096D01*
X4556380Y14454286D02*
X4556380Y15025715D01*
X4556380Y14740000D02*
X3556380Y14740000D01*
X3699238Y14835239D01*
X3794476Y14930477D01*
X3842095Y15025715D01*
%TO.C,C4*%
X5170466Y20445458D02*
X5218085Y20397839D01*
X5360942Y20350220D01*
X5456180Y20350220D01*
X5599038Y20397839D01*
X5694276Y20493077D01*
X5741895Y20588315D01*
X5789514Y20778791D01*
X5789514Y20921648D01*
X5741895Y21112124D01*
X5694276Y21207362D01*
X5599038Y21302600D01*
X5456180Y21350220D01*
X5360942Y21350220D01*
X5218085Y21302600D01*
X5170466Y21254981D01*
X4313323Y21016886D02*
X4313323Y20350220D01*
X4551419Y21397839D02*
X4789514Y20683553D01*
X4170466Y20683553D01*
%TO.C,C3*%
X7304066Y9167858D02*
X7351685Y9120239D01*
X7494542Y9072620D01*
X7589780Y9072620D01*
X7732638Y9120239D01*
X7827876Y9215477D01*
X7875495Y9310715D01*
X7923114Y9501191D01*
X7923114Y9644048D01*
X7875495Y9834524D01*
X7827876Y9929762D01*
X7732638Y10025000D01*
X7589780Y10072620D01*
X7494542Y10072620D01*
X7351685Y10025000D01*
X7304066Y9977381D01*
X6970733Y10072620D02*
X6351685Y10072620D01*
X6685019Y9691667D01*
X6542161Y9691667D01*
X6446923Y9644048D01*
X6399304Y9596429D01*
X6351685Y9501191D01*
X6351685Y9263096D01*
X6399304Y9167858D01*
X6446923Y9120239D01*
X6542161Y9072620D01*
X6827876Y9072620D01*
X6923114Y9120239D01*
X6970733Y9167858D01*
%TO.C,R2*%
X16962380Y23280667D02*
X16486190Y23614000D01*
X16962380Y23852096D02*
X15962380Y23852096D01*
X15962380Y23471143D01*
X16010000Y23375905D01*
X16057619Y23328286D01*
X16152857Y23280667D01*
X16295714Y23280667D01*
X16390952Y23328286D01*
X16438571Y23375905D01*
X16486190Y23471143D01*
X16486190Y23852096D01*
X16057619Y22899715D02*
X16010000Y22852096D01*
X15962380Y22756858D01*
X15962380Y22518762D01*
X16010000Y22423524D01*
X16057619Y22375905D01*
X16152857Y22328286D01*
X16248095Y22328286D01*
X16390952Y22375905D01*
X16962380Y22947334D01*
X16962380Y22328286D01*
%TO.C,C2*%
X14314466Y21029658D02*
X14362085Y20982039D01*
X14504942Y20934420D01*
X14600180Y20934420D01*
X14743038Y20982039D01*
X14838276Y21077277D01*
X14885895Y21172515D01*
X14933514Y21362991D01*
X14933514Y21505848D01*
X14885895Y21696324D01*
X14838276Y21791562D01*
X14743038Y21886800D01*
X14600180Y21934420D01*
X14504942Y21934420D01*
X14362085Y21886800D01*
X14314466Y21839181D01*
X13933514Y21839181D02*
X13885895Y21886800D01*
X13790657Y21934420D01*
X13552561Y21934420D01*
X13457323Y21886800D01*
X13409704Y21839181D01*
X13362085Y21743943D01*
X13362085Y21648705D01*
X13409704Y21505848D01*
X13981133Y20934420D01*
X13362085Y20934420D01*
D11*
%TO.C,IC2*%
X10090694Y24619858D02*
X9328694Y24619858D01*
X10018122Y23821572D02*
X10054408Y23857858D01*
X10090694Y23966715D01*
X10090694Y24039286D01*
X10054408Y24148143D01*
X9981837Y24220715D01*
X9909265Y24257000D01*
X9764122Y24293286D01*
X9655265Y24293286D01*
X9510122Y24257000D01*
X9437551Y24220715D01*
X9364980Y24148143D01*
X9328694Y24039286D01*
X9328694Y23966715D01*
X9364980Y23857858D01*
X9401265Y23821572D01*
X9401265Y23531286D02*
X9364980Y23495000D01*
X9328694Y23422429D01*
X9328694Y23241000D01*
X9364980Y23168429D01*
X9401265Y23132143D01*
X9473837Y23095858D01*
X9546408Y23095858D01*
X9655265Y23132143D01*
X10090694Y23567572D01*
X10090694Y23095858D01*
D10*
%TO.C,IC1*%
X11546380Y8113591D02*
X10546380Y8113591D01*
X11451142Y7065972D02*
X11498761Y7113591D01*
X11546380Y7256448D01*
X11546380Y7351686D01*
X11498761Y7494543D01*
X11403523Y7589781D01*
X11308285Y7637400D01*
X11117809Y7685020D01*
X10974952Y7685020D01*
X10784476Y7637400D01*
X10689238Y7589781D01*
X10594000Y7494543D01*
X10546380Y7351686D01*
X10546380Y7256448D01*
X10594000Y7113591D01*
X10641619Y7065972D01*
X11546380Y6113591D02*
X11546380Y6685020D01*
X11546380Y6399305D02*
X10546380Y6399305D01*
X10689238Y6494543D01*
X10784476Y6589781D01*
X10832095Y6685020D01*
%TO.C,R1*%
X16962380Y7532667D02*
X16486190Y7866000D01*
X16962380Y8104096D02*
X15962380Y8104096D01*
X15962380Y7723143D01*
X16010000Y7627905D01*
X16057619Y7580286D01*
X16152857Y7532667D01*
X16295714Y7532667D01*
X16390952Y7580286D01*
X16438571Y7627905D01*
X16486190Y7723143D01*
X16486190Y8104096D01*
X16962380Y6580286D02*
X16962380Y7151715D01*
X16962380Y6866000D02*
X15962380Y6866000D01*
X16105238Y6961239D01*
X16200476Y7056477D01*
X16248095Y7151715D01*
D12*
%TO.C,C1*%
X16229000Y14485252D02*
X16229000Y13962748D01*
X14759000Y14485252D02*
X14759000Y13962748D01*
%TO.C,D1*%
X4954000Y18640000D02*
X8254000Y18640000D01*
X4954000Y18640000D02*
X4954000Y13240000D01*
X8254000Y18640000D02*
X8254000Y13240000D01*
%TO.C,C4*%
X8135252Y21309000D02*
X7612748Y21309000D01*
X8135252Y19839000D02*
X7612748Y19839000D01*
%TO.C,C3*%
X9644748Y9425000D02*
X10167252Y9425000D01*
X9644748Y10895000D02*
X10167252Y10895000D01*
%TO.C,R2*%
X15800400Y20092936D02*
X15800400Y20547064D01*
X17270400Y20092936D02*
X17270400Y20547064D01*
%TO.C,C2*%
X11168748Y21309000D02*
X11691252Y21309000D01*
X11168748Y19839000D02*
X11691252Y19839000D01*
D10*
%TO.C,IC2*%
X9017000Y24638000D02*
X6413500Y24638000D01*
X9017000Y23114000D02*
X9017000Y24638000D01*
X6413500Y24638000D02*
X6413500Y23114000D01*
X7239000Y24638000D02*
X6477000Y24130000D01*
X6413500Y23114000D02*
X9017000Y23114000D01*
D12*
%TO.C,IC1*%
X7984000Y6462400D02*
X7984000Y7872400D01*
X10304000Y7872400D02*
X10304000Y5787400D01*
%TO.C,R1*%
X17270400Y9932936D02*
X17270400Y10387064D01*
X15800400Y9932936D02*
X15800400Y10387064D01*
%TD*%
M02*
